<?xml version="1.0" encoding="UTF-8" standalone="no"?>
<!DOCTYPE svg PUBLIC "-//W3C//DTD SVG 1.1//EN"
 "http://www.w3.org/Graphics/SVG/1.1/DTD/svg11.dtd">
<!-- Generated by graphviz version 2.26.3 (20100126.1600)
 -->
<!-- Title: do_keyboard_config Pages: 1 -->
<svg width="698pt" height="32pt"
 viewBox="0.00 0.00 698.00 32.00" xmlns="http://www.w3.org/2000/svg" xmlns:xlink="http://www.w3.org/1999/xlink">
<g id="graph1" class="graph" transform="scale(1 1) rotate(0) translate(4 28)">
<title>do_keyboard_config</title>
<polygon fill="white" stroke="white" points="-4,5 -4,-28 695,-28 695,5 -4,5"/>
<!-- Node1 -->
<g id="node1" class="node"><title>Node1</title>
<polygon fill="#bfbfbf" stroke="black" points="0,-0 0,-24 104,-24 104,-0 0,-0"/>
<text text-anchor="middle" x="52" y="-11" font-family="Helvetica,sans-Serif" font-size="10.00">do_keyboard_config</text>
</g>
<!-- Node2 -->
<g id="node3" class="node"><title>Node2</title>
<a xlink:href="_c_f_g__config__panel__8_8cpp.html#ad39c46e2fb3a3ba7ea0460140ead4f96" target="_top" xlink:title="do_panel_config">
<polygon fill="white" stroke="black" points="140.5,-0 140.5,-24 227.5,-24 227.5,-0 140.5,-0"/>
<text text-anchor="middle" x="184" y="-11" font-family="Helvetica,sans-Serif" font-size="10.00">do_panel_config</text>
</a>
</g>
<!-- Node1&#45;&gt;Node2 -->
<g id="edge2" class="edge"><title>Node1&#45;&gt;Node2</title>
<path fill="none" stroke="midnightblue" d="M114.377,-12C123.136,-12 131.982,-12 140.292,-12"/>
<polygon fill="midnightblue" stroke="midnightblue" points="114.17,-8.5001 104.17,-12 114.17,-15.5001 114.17,-8.5001"/>
</g>
<!-- Node3 -->
<g id="node5" class="node"><title>Node3</title>
<a xlink:href="_c_f_g__config__panel__8_8cpp.html#a7968da66bccdba8b864caf6c8435f68e" target="_top" xlink:title="config_general_menu">
<polygon fill="white" stroke="black" points="264.5,-0 264.5,-24 373.5,-24 373.5,-0 264.5,-0"/>
<text text-anchor="middle" x="319" y="-11" font-family="Helvetica,sans-Serif" font-size="10.00">config_general_menu</text>
</a>
</g>
<!-- Node2&#45;&gt;Node3 -->
<g id="edge4" class="edge"><title>Node2&#45;&gt;Node3</title>
<path fill="none" stroke="midnightblue" d="M238.072,-12C246.621,-12 255.471,-12 264.04,-12"/>
<polygon fill="midnightblue" stroke="midnightblue" points="237.831,-8.5001 227.831,-12 237.831,-15.5001 237.831,-8.5001"/>
</g>
<!-- Node4 -->
<g id="node7" class="node"><title>Node4</title>
<a xlink:href="graphics__rebuild1_8cpp.html#ac2eae1e03fb72cc734ffbcef566483bf" target="_top" xlink:title="Boxes">
<polygon fill="white" stroke="black" points="410,-0 410,-24 454,-24 454,-0 410,-0"/>
<text text-anchor="middle" x="432" y="-11" font-family="Helvetica,sans-Serif" font-size="10.00">Boxes</text>
</a>
</g>
<!-- Node3&#45;&gt;Node4 -->
<g id="edge6" class="edge"><title>Node3&#45;&gt;Node4</title>
<path fill="none" stroke="midnightblue" d="M383.747,-12C393.112,-12 402.168,-12 409.856,-12"/>
<polygon fill="midnightblue" stroke="midnightblue" points="383.514,-8.5001 373.514,-12 383.514,-15.5001 383.514,-8.5001"/>
</g>
<!-- Node5 -->
<g id="node9" class="node"><title>Node5</title>
<a xlink:href="_m_a_i_n__avec__objets_8cpp.html#ade8d4ba65d55c94f8ee277829d722155" target="_top" xlink:title="main_actions_on_screen">
<polygon fill="white" stroke="black" points="490.5,-0 490.5,-24 615.5,-24 615.5,-0 490.5,-0"/>
<text text-anchor="middle" x="553" y="-11" font-family="Helvetica,sans-Serif" font-size="10.00">main_actions_on_screen</text>
</a>
</g>
<!-- Node4&#45;&gt;Node5 -->
<g id="edge8" class="edge"><title>Node4&#45;&gt;Node5</title>
<path fill="none" stroke="midnightblue" d="M464.244,-12C472.32,-12 481.263,-12 490.271,-12"/>
<polygon fill="midnightblue" stroke="midnightblue" points="464.193,-8.5001 454.193,-12 464.193,-15.5001 464.193,-8.5001"/>
</g>
<!-- Node6 -->
<g id="node11" class="node"><title>Node6</title>
<a xlink:href="_m_a_i_n__avec__objets_8cpp.html#ae66f6b31b5ad750f1fe042a706a4e3d4" target="_top" xlink:title="main">
<polygon fill="white" stroke="black" points="652,-0 652,-24 690,-24 690,-0 652,-0"/>
<text text-anchor="middle" x="671" y="-11" font-family="Helvetica,sans-Serif" font-size="10.00">main</text>
</a>
</g>
<!-- Node5&#45;&gt;Node6 -->
<g id="edge10" class="edge"><title>Node5&#45;&gt;Node6</title>
<path fill="none" stroke="midnightblue" d="M625.837,-12C635.336,-12 644.327,-12 651.749,-12"/>
<polygon fill="midnightblue" stroke="midnightblue" points="625.8,-8.5001 615.8,-12 625.8,-15.5001 625.8,-8.5001"/>
</g>
</g>
</svg>
