<?xml version="1.0" encoding="UTF-8" standalone="no"?>
<!DOCTYPE svg PUBLIC "-//W3C//DTD SVG 1.1//EN"
 "http://www.w3.org/Graphics/SVG/1.1/DTD/svg11.dtd">
<!-- Generated by graphviz version 2.26.3 (20100126.1600)
 -->
<!-- Title: do_main_config Pages: 1 -->
<svg width="680pt" height="32pt"
 viewBox="0.00 0.00 680.00 32.00" xmlns="http://www.w3.org/2000/svg" xmlns:xlink="http://www.w3.org/1999/xlink">
<g id="graph1" class="graph" transform="scale(1 1) rotate(0) translate(4 28)">
<title>do_main_config</title>
<polygon fill="white" stroke="white" points="-4,5 -4,-28 677,-28 677,5 -4,5"/>
<!-- Node1 -->
<g id="node1" class="node"><title>Node1</title>
<polygon fill="#bfbfbf" stroke="black" points="0.5,-0 0.5,-24 85.5,-24 85.5,-0 0.5,-0"/>
<text text-anchor="middle" x="43" y="-11" font-family="Helvetica,sans-Serif" font-size="10.00">do_main_config</text>
</g>
<!-- Node2 -->
<g id="node3" class="node"><title>Node2</title>
<a xlink:href="_c_f_g__config__panel__8_8cpp.html#ad39c46e2fb3a3ba7ea0460140ead4f96" target="_top" xlink:title="do_panel_config">
<polygon fill="white" stroke="black" points="122.5,-0 122.5,-24 209.5,-24 209.5,-0 122.5,-0"/>
<text text-anchor="middle" x="166" y="-11" font-family="Helvetica,sans-Serif" font-size="10.00">do_panel_config</text>
</a>
</g>
<!-- Node1&#45;&gt;Node2 -->
<g id="edge2" class="edge"><title>Node1&#45;&gt;Node2</title>
<path fill="none" stroke="midnightblue" d="M95.8253,-12C104.604,-12 113.624,-12 122.149,-12"/>
<polygon fill="midnightblue" stroke="midnightblue" points="95.6743,-8.5001 85.6742,-12 95.6742,-15.5001 95.6743,-8.5001"/>
</g>
<!-- Node3 -->
<g id="node5" class="node"><title>Node3</title>
<a xlink:href="_c_f_g__config__panel__8_8cpp.html#a7968da66bccdba8b864caf6c8435f68e" target="_top" xlink:title="config_general_menu">
<polygon fill="white" stroke="black" points="246.5,-0 246.5,-24 355.5,-24 355.5,-0 246.5,-0"/>
<text text-anchor="middle" x="301" y="-11" font-family="Helvetica,sans-Serif" font-size="10.00">config_general_menu</text>
</a>
</g>
<!-- Node2&#45;&gt;Node3 -->
<g id="edge4" class="edge"><title>Node2&#45;&gt;Node3</title>
<path fill="none" stroke="midnightblue" d="M220.072,-12C228.621,-12 237.471,-12 246.04,-12"/>
<polygon fill="midnightblue" stroke="midnightblue" points="219.831,-8.5001 209.831,-12 219.831,-15.5001 219.831,-8.5001"/>
</g>
<!-- Node4 -->
<g id="node7" class="node"><title>Node4</title>
<a xlink:href="graphics__rebuild1_8cpp.html#ac2eae1e03fb72cc734ffbcef566483bf" target="_top" xlink:title="Boxes">
<polygon fill="white" stroke="black" points="392,-0 392,-24 436,-24 436,-0 392,-0"/>
<text text-anchor="middle" x="414" y="-11" font-family="Helvetica,sans-Serif" font-size="10.00">Boxes</text>
</a>
</g>
<!-- Node3&#45;&gt;Node4 -->
<g id="edge6" class="edge"><title>Node3&#45;&gt;Node4</title>
<path fill="none" stroke="midnightblue" d="M365.747,-12C375.112,-12 384.168,-12 391.856,-12"/>
<polygon fill="midnightblue" stroke="midnightblue" points="365.514,-8.5001 355.514,-12 365.514,-15.5001 365.514,-8.5001"/>
</g>
<!-- Node5 -->
<g id="node9" class="node"><title>Node5</title>
<a xlink:href="_m_a_i_n__avec__objets_8cpp.html#ade8d4ba65d55c94f8ee277829d722155" target="_top" xlink:title="main_actions_on_screen">
<polygon fill="white" stroke="black" points="472.5,-0 472.5,-24 597.5,-24 597.5,-0 472.5,-0"/>
<text text-anchor="middle" x="535" y="-11" font-family="Helvetica,sans-Serif" font-size="10.00">main_actions_on_screen</text>
</a>
</g>
<!-- Node4&#45;&gt;Node5 -->
<g id="edge8" class="edge"><title>Node4&#45;&gt;Node5</title>
<path fill="none" stroke="midnightblue" d="M446.244,-12C454.32,-12 463.263,-12 472.271,-12"/>
<polygon fill="midnightblue" stroke="midnightblue" points="446.193,-8.5001 436.193,-12 446.193,-15.5001 446.193,-8.5001"/>
</g>
<!-- Node6 -->
<g id="node11" class="node"><title>Node6</title>
<a xlink:href="_m_a_i_n__avec__objets_8cpp.html#ae66f6b31b5ad750f1fe042a706a4e3d4" target="_top" xlink:title="main">
<polygon fill="white" stroke="black" points="634,-0 634,-24 672,-24 672,-0 634,-0"/>
<text text-anchor="middle" x="653" y="-11" font-family="Helvetica,sans-Serif" font-size="10.00">main</text>
</a>
</g>
<!-- Node5&#45;&gt;Node6 -->
<g id="edge10" class="edge"><title>Node5&#45;&gt;Node6</title>
<path fill="none" stroke="midnightblue" d="M607.837,-12C617.336,-12 626.327,-12 633.749,-12"/>
<polygon fill="midnightblue" stroke="midnightblue" points="607.8,-8.5001 597.8,-12 607.8,-15.5001 607.8,-8.5001"/>
</g>
</g>
</svg>
