<?xml version="1.0" encoding="UTF-8" standalone="no"?>
<!DOCTYPE svg PUBLIC "-//W3C//DTD SVG 1.1//EN"
 "http://www.w3.org/Graphics/SVG/1.1/DTD/svg11.dtd">
<!-- Generated by graphviz version 2.26.3 (20100126.1600)
 -->
<!-- Title: do_stock_fadersstate Pages: 1 -->
<!--zoomable 322 -->
<svg id="main" version="1.1" xmlns="http://www.w3.org/2000/svg" xmlns:xlink="http://www.w3.org/1999/xlink" xml:space="preserve" onload="init(evt)">
<style type="text/css"><![CDATA[
.edge:hover path { stroke: red; }
.edge:hover polygon { stroke: red; fill: red; }
]]></style>
<script type="text/javascript"><![CDATA[
var edges = document.getElementsByTagName('g');
if (edges && edges.length) {
  for (var i=0;i<edges.length;i++) {
    if (edges[i].id.substr(0,4)=='edge') {
      edges[i].setAttribute('class','edge');
    }
  }
}
]]></script>
        <defs>
                <circle id="rim" cx="0" cy="0" r="7"/>
                <circle id="rim2" cx="0" cy="0" r="3.5"/>
                <g id="zoomPlus">
                        <use xlink:href="#rim" fill="#404040">
                                <set attributeName="fill" to="#808080" begin="zoomplus.mouseover" end="zoomplus.mouseout"/>
                        </use>
                        <path d="M-4,0h8M0,-4v8" fill="none" stroke="white" stroke-width="1.5" pointer-events="none"/>
                </g>
                <g id="zoomMin">
                        <use xlink:href="#rim" fill="#404040">
                                <set attributeName="fill" to="#808080" begin="zoomminus.mouseover" end="zoomminus.mouseout"/>
                        </use>
                        <path d="M-4,0h8" fill="none" stroke="white" stroke-width="1.5" pointer-events="none"/>
                </g>
                <g id="dirArrow">
                        <path fill="none" stroke="white" stroke-width="1.5" d="M0,-3.0v7 M-2.5,-0.5L0,-3.0L2.5,-0.5"/>
                </g>
               <g id="resetDef">
                       <use xlink:href="#rim2" fill="#404040">
                               <set attributeName="fill" to="#808080" begin="reset.mouseover" end="reset.mouseout"/>
                       </use>
               </g>
        </defs>

<script type="text/javascript">
var viewWidth = 1378;
var viewHeight = 322;
var sectionId = 'dynsection-92';
</script>
<script xlink:href="svgpan.js"/>
<svg id="graph" class="graph">
<g id="viewport">
<title>do_stock_fadersstate</title>
<polygon fill="white" stroke="white" points="-4,5 -4,-318.36 1375,-318.36 1375,5 -4,5"/>
<!-- Node1 -->
<g id="node1" class="node"><title>Node1</title>
<polygon fill="#bfbfbf" stroke="black" points="0,-53.3199 0,-77.3199 110,-77.3199 110,-53.3199 0,-53.3199"/>
<text text-anchor="middle" x="55" y="-64.3199" font-family="Helvetica,sans-Serif" font-size="10.00">do_stock_fadersstate</text>
</g>
<!-- Node2 -->
<g id="node3" class="node"><title>Node2</title>
<a xlink:href="banger__core__8_8cpp.html#ae4008269e0575da11cc90e812961ef6f" target="_top" xlink:title="Bang_event">
<polygon fill="white" stroke="black" points="324,-150.32 324,-174.32 392,-174.32 392,-150.32 324,-150.32"/>
<text text-anchor="middle" x="358" y="-161.32" font-family="Helvetica,sans-Serif" font-size="10.00">Bang_event</text>
</a>
</g>
<!-- Node1&#45;&gt;Node2 -->
<g id="edge2" class="edge"><title>Node1&#45;&gt;Node2</title>
<path fill="none" stroke="midnightblue" d="M80.1188,-83.3636C97.7654,-95.2341 122.352,-110.207 146,-119.32 206.274,-142.548 281.255,-153.974 323.972,-158.972"/>
<polygon fill="midnightblue" stroke="midnightblue" points="81.7891,-80.2648 71.5651,-77.4864 77.825,-86.0342 81.7891,-80.2648"/>
</g>
<!-- Node14 -->
<g id="node31" class="node"><title>Node14</title>
<a xlink:href="midi__13_8cpp.html#a6dff3d42682b58cc0a9875ee30fb4cd4" target="_top" xlink:title="do_midi_job">
<polygon fill="white" stroke="black" points="613,-46.3199 613,-70.3199 681,-70.3199 681,-46.3199 613,-46.3199"/>
<text text-anchor="middle" x="647" y="-57.3199" font-family="Helvetica,sans-Serif" font-size="10.00">do_midi_job</text>
</a>
</g>
<!-- Node1&#45;&gt;Node14 -->
<g id="edge68" class="edge"><title>Node1&#45;&gt;Node14</title>
<path fill="none" stroke="midnightblue" d="M81.3677,-47.8123C98.8795,-37.2669 122.831,-24.8429 146,-19.3199 317.638,21.596 530.78,-26.4807 612.716,-48.4729"/>
<polygon fill="midnightblue" stroke="midnightblue" points="79.4854,-44.8612 72.8355,-53.1091 83.1775,-50.8084 79.4854,-44.8612"/>
</g>
<!-- Node21 -->
<g id="node49" class="node"><title>Node21</title>
<a xlink:href="_c_o_r_e__6_8cpp.html#ad5d62bd83cd9b293bfcd326a9c77537d" target="_top" xlink:title="do_action_on_selected\l_minifaders">
<polygon fill="white" stroke="black" points="146,-70.3199 146,-110.32 262,-110.32 262,-70.3199 146,-70.3199"/>
<text text-anchor="start" x="154" y="-97.3199" font-family="Helvetica,sans-Serif" font-size="10.00">do_action_on_selected</text>
<text text-anchor="middle" x="204" y="-81.3199" font-family="Helvetica,sans-Serif" font-size="10.00">_minifaders</text>
</a>
</g>
<!-- Node1&#45;&gt;Node21 -->
<g id="edge56" class="edge"><title>Node1&#45;&gt;Node21</title>
<path fill="none" stroke="midnightblue" d="M120.056,-76.2353C128.663,-77.6794 137.441,-79.1522 145.92,-80.5749"/>
<polygon fill="midnightblue" stroke="midnightblue" points="120.5,-72.761 110.059,-74.5579 119.342,-79.6645 120.5,-72.761"/>
</g>
<!-- Node23 -->
<g id="node58" class="node"><title>Node23</title>
<a xlink:href="minifaders__core_8cpp.html#a81fcd9a467cd5debbaad4d09b3782f19" target="_top" xlink:title="all_at_zero_panel_core">
<polygon fill="white" stroke="black" points="146,-28.3199 146,-52.3199 262,-52.3199 262,-28.3199 146,-28.3199"/>
<text text-anchor="middle" x="204" y="-39.3199" font-family="Helvetica,sans-Serif" font-size="10.00">all_at_zero_panel_core</text>
</a>
</g>
<!-- Node1&#45;&gt;Node23 -->
<g id="edge70" class="edge"><title>Node1&#45;&gt;Node23</title>
<path fill="none" stroke="midnightblue" d="M120.056,-54.4044C128.663,-52.9603 137.441,-51.4875 145.92,-50.0648"/>
<polygon fill="midnightblue" stroke="midnightblue" points="119.342,-50.9753 110.059,-56.0818 120.5,-57.8788 119.342,-50.9753"/>
</g>
<!-- Node3 -->
<g id="node5" class="node"><title>Node3</title>
<a xlink:href="banger__core__8_8cpp.html#a4003a08a1620546de77b118c91d2fd9d" target="_top" xlink:title="do_bang">
<polygon fill="white" stroke="black" points="477.5,-269.32 477.5,-293.32 530.5,-293.32 530.5,-269.32 477.5,-269.32"/>
<text text-anchor="middle" x="504" y="-280.32" font-family="Helvetica,sans-Serif" font-size="10.00">do_bang</text>
</a>
</g>
<!-- Node2&#45;&gt;Node3 -->
<g id="edge4" class="edge"><title>Node2&#45;&gt;Node3</title>
<path fill="none" stroke="midnightblue" d="M380.693,-180.816C410.921,-205.454 463.552,-248.352 489.158,-269.223"/>
<polygon fill="midnightblue" stroke="midnightblue" points="382.765,-177.99 372.803,-174.385 378.343,-183.416 382.765,-177.99"/>
</g>
<!-- Node6 -->
<g id="node11" class="node"><title>Node6</title>
<a xlink:href="banger__core__8_8cpp.html#a4fe16ad483c0c1609d97aeb9a23c74ee" target="_top" xlink:title="do_logical_fenetre\l_banger">
<polygon fill="white" stroke="black" points="456.5,-146.32 456.5,-186.32 551.5,-186.32 551.5,-146.32 456.5,-146.32"/>
<text text-anchor="start" x="464.5" y="-173.32" font-family="Helvetica,sans-Serif" font-size="10.00">do_logical_fenetre</text>
<text text-anchor="middle" x="504" y="-157.32" font-family="Helvetica,sans-Serif" font-size="10.00">_banger</text>
</a>
</g>
<!-- Node2&#45;&gt;Node6 -->
<g id="edge10" class="edge"><title>Node2&#45;&gt;Node6</title>
<path fill="none" stroke="midnightblue" d="M402.498,-163.539C419.566,-164.007 439.1,-164.542 456.444,-165.017"/>
<polygon fill="midnightblue" stroke="midnightblue" points="402.323,-160.033 392.231,-163.258 402.131,-167.03 402.323,-160.033"/>
</g>
<!-- Node8 -->
<g id="node16" class="node"><title>Node8</title>
<a xlink:href="banger__core__8_8cpp.html#ab405ab53ea444b049e5ffa258498fcb6" target="_top" xlink:title="refresh_banger_wx">
<polygon fill="white" stroke="black" points="454.5,-204.32 454.5,-228.32 553.5,-228.32 553.5,-204.32 454.5,-204.32"/>
<text text-anchor="middle" x="504" y="-215.32" font-family="Helvetica,sans-Serif" font-size="10.00">refresh_banger_wx</text>
</a>
</g>
<!-- Node2&#45;&gt;Node8 -->
<g id="edge16" class="edge"><title>Node2&#45;&gt;Node8</title>
<path fill="none" stroke="midnightblue" d="M400.146,-177.908C422.806,-186.289 450.327,-196.468 471.344,-204.242"/>
<polygon fill="midnightblue" stroke="midnightblue" points="401.358,-174.625 390.765,-174.439 398.93,-181.19 401.358,-174.625"/>
</g>
<!-- Node2&#45;&gt;Node14 -->
<g id="edge54" class="edge"><title>Node2&#45;&gt;Node14</title>
<path fill="none" stroke="midnightblue" d="M401.028,-146.836C458.953,-125.991 560.8,-89.34 613.421,-70.4037"/>
<polygon fill="midnightblue" stroke="midnightblue" points="399.658,-143.609 391.434,-150.288 402.029,-150.195 399.658,-143.609"/>
</g>
<!-- Node4 -->
<g id="node7" class="node"><title>Node4</title>
<a xlink:href="_m_a_i_n__avec__objets_8cpp.html#a8e80f54ac804eddce8ed6e45adb1db44" target="_top" xlink:title="ticker_full_loop">
<polygon fill="white" stroke="black" points="912,-150.32 912,-174.32 994,-174.32 994,-150.32 912,-150.32"/>
<text text-anchor="middle" x="953" y="-161.32" font-family="Helvetica,sans-Serif" font-size="10.00">ticker_full_loop</text>
</a>
</g>
<!-- Node3&#45;&gt;Node4 -->
<g id="edge6" class="edge"><title>Node3&#45;&gt;Node4</title>
<path fill="none" stroke="midnightblue" d="M540.788,-292.356C555.887,-296.346 573.635,-300.351 590,-302.32 717.554,-317.668 767.987,-329.883 876,-260.32 910.381,-238.177 935.966,-195.314 947.003,-174.394"/>
<polygon fill="midnightblue" stroke="midnightblue" points="541.377,-288.889 530.808,-289.622 539.528,-295.64 541.377,-288.889"/>
</g>
<!-- Node5 -->
<g id="node9" class="node"><title>Node5</title>
<a xlink:href="_m_a_i_n__avec__objets_8cpp.html#ae66f6b31b5ad750f1fe042a706a4e3d4" target="_top" xlink:title="main">
<polygon fill="white" stroke="black" points="1332,-126.32 1332,-150.32 1370,-150.32 1370,-126.32 1332,-126.32"/>
<text text-anchor="middle" x="1351" y="-137.32" font-family="Helvetica,sans-Serif" font-size="10.00">main</text>
</a>
</g>
<!-- Node4&#45;&gt;Node5 -->
<g id="edge8" class="edge"><title>Node4&#45;&gt;Node5</title>
<path fill="none" stroke="midnightblue" d="M1004.24,-159.23C1093.31,-153.859 1272.82,-143.034 1331.77,-139.48"/>
<polygon fill="midnightblue" stroke="midnightblue" points="1003.87,-155.746 994.094,-159.842 1004.29,-162.733 1003.87,-155.746"/>
</g>
<!-- Node7 -->
<g id="node13" class="node"><title>Node7</title>
<a xlink:href="procs__visuels__rebuild1_8cpp.html#ae710b6e599e321ad5934a90140067054" target="_top" xlink:title="check_graphics_mouse\l_handling">
<polygon fill="white" stroke="black" points="748.5,-139.32 748.5,-179.32 867.5,-179.32 867.5,-139.32 748.5,-139.32"/>
<text text-anchor="start" x="756.5" y="-166.32" font-family="Helvetica,sans-Serif" font-size="10.00">check_graphics_mouse</text>
<text text-anchor="middle" x="808" y="-150.32" font-family="Helvetica,sans-Serif" font-size="10.00">_handling</text>
</a>
</g>
<!-- Node6&#45;&gt;Node7 -->
<g id="edge12" class="edge"><title>Node6&#45;&gt;Node7</title>
<path fill="none" stroke="midnightblue" d="M561.819,-161.768C571.233,-161.176 580.884,-160.658 590,-160.32 643.517,-158.332 704.475,-158.236 748.298,-158.548"/>
<polygon fill="midnightblue" stroke="midnightblue" points="561.481,-158.283 551.734,-162.435 561.943,-165.267 561.481,-158.283"/>
</g>
<!-- Node7&#45;&gt;Node4 -->
<g id="edge14" class="edge"><title>Node7&#45;&gt;Node4</title>
<path fill="none" stroke="midnightblue" d="M877.971,-160.768C889.588,-161.008 901.292,-161.25 911.888,-161.469"/>
<polygon fill="midnightblue" stroke="midnightblue" points="877.884,-157.265 867.814,-160.557 877.74,-164.264 877.884,-157.265"/>
</g>
<!-- Node9 -->
<g id="node18" class="node"><title>Node9</title>
<a xlink:href="i_cat14_8cpp.html#a16285241f82898e7a5f051b03d90b9a3" target="_top" xlink:title="check_button">
<polygon fill="white" stroke="black" points="609.5,-89.3199 609.5,-113.32 684.5,-113.32 684.5,-89.3199 609.5,-89.3199"/>
<text text-anchor="middle" x="647" y="-100.32" font-family="Helvetica,sans-Serif" font-size="10.00">check_button</text>
</a>
</g>
<!-- Node8&#45;&gt;Node9 -->
<g id="edge18" class="edge"><title>Node8&#45;&gt;Node9</title>
<path fill="none" stroke="midnightblue" d="M546.884,-199.673C549.346,-198.3 551.738,-196.848 554,-195.32 558.684,-192.155 611.232,-138.196 635.204,-113.493"/>
<polygon fill="midnightblue" stroke="midnightblue" points="545.101,-196.652 537.762,-204.294 548.264,-202.897 545.101,-196.652"/>
</g>
<!-- Node11 -->
<g id="node23" class="node"><title>Node11</title>
<a xlink:href="keyboard__functions2_8cpp.html#af3dd6697323b10b480719c1612bcf29a" target="_top" xlink:title="key_backward">
<polygon fill="white" stroke="black" points="607,-227.32 607,-251.32 687,-251.32 687,-227.32 607,-227.32"/>
<text text-anchor="middle" x="647" y="-238.32" font-family="Helvetica,sans-Serif" font-size="10.00">key_backward</text>
</a>
</g>
<!-- Node8&#45;&gt;Node11 -->
<g id="edge24" class="edge"><title>Node8&#45;&gt;Node11</title>
<path fill="none" stroke="midnightblue" d="M563.586,-225.904C578.193,-228.253 593.482,-230.712 606.923,-232.874"/>
<polygon fill="midnightblue" stroke="midnightblue" points="564.042,-222.432 553.613,-224.3 562.93,-229.343 564.042,-222.432"/>
</g>
<!-- Node13 -->
<g id="node28" class="node"><title>Node13</title>
<a xlink:href="keyboard__functions2_8cpp.html#a6b73a3669797504ce2e357d9a8b9a2c2" target="_top" xlink:title="key_forward">
<polygon fill="white" stroke="black" points="612,-269.32 612,-293.32 682,-293.32 682,-269.32 612,-269.32"/>
<text text-anchor="middle" x="647" y="-280.32" font-family="Helvetica,sans-Serif" font-size="10.00">key_forward</text>
</a>
</g>
<!-- Node8&#45;&gt;Node13 -->
<g id="edge30" class="edge"><title>Node8&#45;&gt;Node13</title>
<path fill="none" stroke="midnightblue" d="M534.932,-233.284C551.113,-241.865 571.38,-252.162 590,-260.32 597.148,-263.452 604.926,-266.528 612.373,-269.318"/>
<polygon fill="midnightblue" stroke="midnightblue" points="536.389,-230.094 525.921,-228.459 533.085,-236.265 536.389,-230.094"/>
</g>
<!-- Node8&#45;&gt;Node14 -->
<g id="edge34" class="edge"><title>Node8&#45;&gt;Node14</title>
<path fill="none" stroke="midnightblue" d="M551.176,-198.127C552.165,-197.234 553.109,-196.299 554,-195.32 590.044,-155.707 553.379,-119.4 590,-80.3199 596.165,-73.7407 604.52,-69.1051 612.931,-65.8478"/>
<polygon fill="midnightblue" stroke="midnightblue" points="548.894,-195.459 542.868,-204.174 553.013,-201.119 548.894,-195.459"/>
</g>
<!-- Node20 -->
<g id="node45" class="node"><title>Node20</title>
<a xlink:href="sequentiel__6__core_8cpp.html#a2a71c851cf25565491dd10423bc80380" target="_top" xlink:title="do_logical_Sequenciel\l_Window">
<polygon fill="white" stroke="black" points="590.5,-169.32 590.5,-209.32 703.5,-209.32 703.5,-169.32 590.5,-169.32"/>
<text text-anchor="start" x="598.5" y="-196.32" font-family="Helvetica,sans-Serif" font-size="10.00">do_logical_Sequenciel</text>
<text text-anchor="middle" x="647" y="-180.32" font-family="Helvetica,sans-Serif" font-size="10.00">_Window</text>
</a>
</g>
<!-- Node8&#45;&gt;Node20 -->
<g id="edge50" class="edge"><title>Node8&#45;&gt;Node20</title>
<path fill="none" stroke="midnightblue" d="M563.441,-205.097C572.267,-203.43 581.346,-201.716 590.118,-200.06"/>
<polygon fill="midnightblue" stroke="midnightblue" points="562.79,-201.658 553.613,-206.952 564.089,-208.536 562.79,-201.658"/>
</g>
<!-- Node10 -->
<g id="node20" class="node"><title>Node10</title>
<a xlink:href="i_cat14_8cpp.html#aa9772b548765a631d4bae1c14053b4e1" target="_top" xlink:title="DoJobFantastickTouch">
<polygon fill="white" stroke="black" points="749.5,-90.3199 749.5,-114.32 866.5,-114.32 866.5,-90.3199 749.5,-90.3199"/>
<text text-anchor="middle" x="808" y="-101.32" font-family="Helvetica,sans-Serif" font-size="10.00">DoJobFantastickTouch</text>
</a>
</g>
<!-- Node9&#45;&gt;Node10 -->
<g id="edge20" class="edge"><title>Node9&#45;&gt;Node10</title>
<path fill="none" stroke="midnightblue" d="M695.039,-101.618C712.111,-101.724 731.521,-101.845 749.378,-101.956"/>
<polygon fill="midnightblue" stroke="midnightblue" points="694.769,-98.1166 684.747,-101.554 694.725,-105.116 694.769,-98.1166"/>
</g>
<!-- Node10&#45;&gt;Node4 -->
<g id="edge22" class="edge"><title>Node10&#45;&gt;Node4</title>
<path fill="none" stroke="midnightblue" d="M846.756,-118.253C856.318,-122.191 866.532,-126.403 876,-130.32 891.919,-136.905 909.676,-144.283 924.123,-150.293"/>
<polygon fill="midnightblue" stroke="midnightblue" points="848.043,-114.997 837.463,-114.427 845.378,-121.47 848.043,-114.997"/>
</g>
<!-- Node12 -->
<g id="node25" class="node"><title>Node12</title>
<a xlink:href="keyboard__routines2_8cpp.html#a8563320b8eab661232619224650de244" target="_top" xlink:title="commandes_clavier">
<polygon fill="white" stroke="black" points="756,-227.32 756,-251.32 860,-251.32 860,-227.32 756,-227.32"/>
<text text-anchor="middle" x="808" y="-238.32" font-family="Helvetica,sans-Serif" font-size="10.00">commandes_clavier</text>
</a>
</g>
<!-- Node11&#45;&gt;Node12 -->
<g id="edge26" class="edge"><title>Node11&#45;&gt;Node12</title>
<path fill="none" stroke="midnightblue" d="M697.27,-239.32C715.898,-239.32 737.053,-239.32 755.845,-239.32"/>
<polygon fill="midnightblue" stroke="midnightblue" points="697.212,-235.82 687.212,-239.32 697.212,-242.82 697.212,-235.82"/>
</g>
<!-- Node12&#45;&gt;Node4 -->
<g id="edge28" class="edge"><title>Node12&#45;&gt;Node4</title>
<path fill="none" stroke="midnightblue" d="M839.783,-222.442C867.045,-207.965 905.674,-187.452 930.024,-174.521"/>
<polygon fill="midnightblue" stroke="midnightblue" points="837.847,-219.507 830.656,-227.289 841.13,-225.69 837.847,-219.507"/>
</g>
<!-- Node13&#45;&gt;Node12 -->
<g id="edge32" class="edge"><title>Node13&#45;&gt;Node12</title>
<path fill="none" stroke="midnightblue" d="M692.286,-269.506C713.979,-263.847 739.921,-257.08 761.739,-251.388"/>
<polygon fill="midnightblue" stroke="midnightblue" points="691.125,-266.192 682.332,-272.103 692.892,-272.965 691.125,-266.192"/>
</g>
<!-- Node15 -->
<g id="node33" class="node"><title>Node15</title>
<a xlink:href="midi__13_8cpp.html#a6bedf9750195224914cd87c4e73ab626" target="_top" xlink:title="ventilate_midi_to_midiarray">
<polygon fill="white" stroke="black" points="740.5,-46.3199 740.5,-70.3199 875.5,-70.3199 875.5,-46.3199 740.5,-46.3199"/>
<text text-anchor="middle" x="808" y="-57.3199" font-family="Helvetica,sans-Serif" font-size="10.00">ventilate_midi_to_midiarray</text>
</a>
</g>
<!-- Node14&#45;&gt;Node15 -->
<g id="edge36" class="edge"><title>Node14&#45;&gt;Node15</title>
<path fill="none" stroke="midnightblue" d="M691.272,-58.3199C706.455,-58.3199 723.811,-58.3199 740.414,-58.3199"/>
<polygon fill="midnightblue" stroke="midnightblue" points="691.144,-54.82 681.144,-58.3199 691.144,-61.82 691.144,-54.82"/>
</g>
<!-- Node16 -->
<g id="node35" class="node"><title>Node16</title>
<a xlink:href="midi__13_8cpp.html#afa49dd5668303c2448676c8243737c2d" target="_top" xlink:title="simulate_midi">
<polygon fill="white" stroke="black" points="914.5,-46.3199 914.5,-70.3199 991.5,-70.3199 991.5,-46.3199 914.5,-46.3199"/>
<text text-anchor="middle" x="953" y="-57.3199" font-family="Helvetica,sans-Serif" font-size="10.00">simulate_midi</text>
</a>
</g>
<!-- Node15&#45;&gt;Node16 -->
<g id="edge38" class="edge"><title>Node15&#45;&gt;Node16</title>
<path fill="none" stroke="midnightblue" d="M886.103,-58.3199C895.941,-58.3199 905.642,-58.3199 914.473,-58.3199"/>
<polygon fill="midnightblue" stroke="midnightblue" points="885.83,-54.82 875.83,-58.3199 885.83,-61.82 885.83,-54.82"/>
</g>
<!-- Node17 -->
<g id="node37" class="node"><title>Node17</title>
<a xlink:href="arduino__core__6___u_n_o_8cpp.html#ae72d1a8d74d9ab5515962e03e7e664d6" target="_top" xlink:title="arduino_do_analog_in\l_whitecat">
<polygon fill="white" stroke="black" points="1030,-94.3199 1030,-134.32 1140,-134.32 1140,-94.3199 1030,-94.3199"/>
<text text-anchor="start" x="1038" y="-121.32" font-family="Helvetica,sans-Serif" font-size="10.00">arduino_do_analog_in</text>
<text text-anchor="middle" x="1085" y="-105.32" font-family="Helvetica,sans-Serif" font-size="10.00">_whitecat</text>
</a>
</g>
<!-- Node16&#45;&gt;Node17 -->
<g id="edge40" class="edge"><title>Node16&#45;&gt;Node17</title>
<path fill="none" stroke="midnightblue" d="M990.593,-74.2683C1005.28,-80.4979 1022.28,-87.711 1037.78,-94.2851"/>
<polygon fill="midnightblue" stroke="midnightblue" points="991.89,-71.0168 981.317,-70.3333 989.156,-77.4609 991.89,-71.0168"/>
</g>
<!-- Node19 -->
<g id="node42" class="node"><title>Node19</title>
<a xlink:href="arduino__core__6___u_n_o_8cpp.html#a219226c1cd6cc17c78e62fd4445bb445" target="_top" xlink:title="arduino_do_digital\l_in_whitecat">
<polygon fill="white" stroke="black" points="1037.5,-36.3199 1037.5,-76.3199 1132.5,-76.3199 1132.5,-36.3199 1037.5,-36.3199"/>
<text text-anchor="start" x="1045.5" y="-63.3199" font-family="Helvetica,sans-Serif" font-size="10.00">arduino_do_digital</text>
<text text-anchor="middle" x="1085" y="-47.3199" font-family="Helvetica,sans-Serif" font-size="10.00">_in_whitecat</text>
</a>
</g>
<!-- Node16&#45;&gt;Node19 -->
<g id="edge46" class="edge"><title>Node16&#45;&gt;Node19</title>
<path fill="none" stroke="midnightblue" d="M1001.54,-57.5844C1013.2,-57.4077 1025.65,-57.2191 1037.27,-57.043"/>
<polygon fill="midnightblue" stroke="midnightblue" points="1001.48,-54.0848 991.535,-57.736 1001.59,-61.084 1001.48,-54.0848"/>
</g>
<!-- Node18 -->
<g id="node39" class="node"><title>Node18</title>
<a xlink:href="_m_a_i_n__avec__objets_8cpp.html#ace9c8a9b37c6087c3cffef442d71d70e" target="_top" xlink:title="dixiemes_de_secondes">
<polygon fill="white" stroke="black" points="1176.5,-102.32 1176.5,-126.32 1295.5,-126.32 1295.5,-102.32 1176.5,-102.32"/>
<text text-anchor="middle" x="1236" y="-113.32" font-family="Helvetica,sans-Serif" font-size="10.00">dixiemes_de_secondes</text>
</a>
</g>
<!-- Node17&#45;&gt;Node18 -->
<g id="edge42" class="edge"><title>Node17&#45;&gt;Node18</title>
<path fill="none" stroke="midnightblue" d="M1150.38,-114.32C1159,-114.32 1167.8,-114.32 1176.32,-114.32"/>
<polygon fill="midnightblue" stroke="midnightblue" points="1150.37,-110.82 1140.37,-114.32 1150.37,-117.82 1150.37,-110.82"/>
</g>
<!-- Node18&#45;&gt;Node5 -->
<g id="edge44" class="edge"><title>Node18&#45;&gt;Node5</title>
<path fill="none" stroke="midnightblue" d="M1303.78,-128.466C1314.06,-130.611 1323.89,-132.661 1331.89,-134.331"/>
<polygon fill="midnightblue" stroke="midnightblue" points="1304.34,-125.007 1293.84,-126.39 1302.91,-131.859 1304.34,-125.007"/>
</g>
<!-- Node19&#45;&gt;Node18 -->
<g id="edge48" class="edge"><title>Node19&#45;&gt;Node18</title>
<path fill="none" stroke="midnightblue" d="M1142.34,-78.3428C1163.51,-86.4743 1186.7,-95.3838 1204.71,-102.302"/>
<polygon fill="midnightblue" stroke="midnightblue" points="1143.37,-74.9899 1132.78,-74.6714 1140.86,-81.5244 1143.37,-74.9899"/>
</g>
<!-- Node20&#45;&gt;Node7 -->
<g id="edge52" class="edge"><title>Node20&#45;&gt;Node7</title>
<path fill="none" stroke="midnightblue" d="M713.757,-176.881C725.271,-174.735 737.171,-172.518 748.478,-170.411"/>
<polygon fill="midnightblue" stroke="midnightblue" points="712.952,-173.47 703.763,-178.743 714.235,-180.352 712.952,-173.47"/>
</g>
<!-- Node21&#45;&gt;Node2 -->
<g id="edge58" class="edge"><title>Node21&#45;&gt;Node2</title>
<path fill="none" stroke="midnightblue" d="M256.127,-114.691C281.75,-126.67 311.49,-140.575 332.197,-150.256"/>
<polygon fill="midnightblue" stroke="midnightblue" points="257.439,-111.441 246.898,-110.376 254.474,-117.782 257.439,-111.441"/>
</g>
<!-- Node21&#45;&gt;Node9 -->
<g id="edge60" class="edge"><title>Node21&#45;&gt;Node9</title>
<path fill="none" stroke="midnightblue" d="M272.261,-93.4049C280.923,-93.7433 289.669,-94.0591 298,-94.3199 411.271,-97.8654 545.281,-99.9662 609.292,-100.841"/>
<polygon fill="midnightblue" stroke="midnightblue" points="272.291,-89.9034 262.159,-92.999 272.01,-96.8977 272.291,-89.9034"/>
</g>
<!-- Node21&#45;&gt;Node14 -->
<g id="edge62" class="edge"><title>Node21&#45;&gt;Node14</title>
<path fill="none" stroke="midnightblue" d="M272.573,-85.3665C368.726,-78.4209 539.988,-66.0498 612.763,-60.793"/>
<polygon fill="midnightblue" stroke="midnightblue" points="272.092,-81.892 262.37,-86.1035 272.596,-88.8739 272.092,-81.892"/>
</g>
<!-- Node22 -->
<g id="node54" class="node"><title>Node22</title>
<a xlink:href="minifaders__core_8cpp.html#ac974e1c0e7800b10f4290db4d5ce4db0" target="_top" xlink:title="mini_faders_panel_core">
<polygon fill="white" stroke="black" points="298.5,-28.3199 298.5,-52.3199 417.5,-52.3199 417.5,-28.3199 298.5,-28.3199"/>
<text text-anchor="middle" x="358" y="-39.3199" font-family="Helvetica,sans-Serif" font-size="10.00">mini_faders_panel_core</text>
</a>
</g>
<!-- Node21&#45;&gt;Node22 -->
<g id="edge64" class="edge"><title>Node21&#45;&gt;Node22</title>
<path fill="none" stroke="midnightblue" d="M271.978,-68.249C288.704,-62.8184 306.007,-57.2008 320.669,-52.4404"/>
<polygon fill="midnightblue" stroke="midnightblue" points="270.651,-64.9999 262.221,-71.417 272.813,-71.6578 270.651,-64.9999"/>
</g>
<!-- Node22&#45;&gt;Node7 -->
<g id="edge66" class="edge"><title>Node22&#45;&gt;Node7</title>
<path fill="none" stroke="midnightblue" d="M402.656,-25.2746C473.207,-4.48337 611.886,23.98 704,-37.3199 738.496,-60.2759 712.055,-92.7254 740,-123.32 745.585,-129.435 752.454,-134.699 759.656,-139.167"/>
<polygon fill="midnightblue" stroke="midnightblue" points="401.31,-22.0253 392.754,-28.2749 403.34,-28.7245 401.31,-22.0253"/>
</g>
<!-- Node23&#45;&gt;Node22 -->
<g id="edge72" class="edge"><title>Node23&#45;&gt;Node22</title>
<path fill="none" stroke="midnightblue" d="M272.333,-40.3199C281.029,-40.3199 289.873,-40.3199 298.417,-40.3199"/>
<polygon fill="midnightblue" stroke="midnightblue" points="272.221,-36.82 262.221,-40.3199 272.221,-43.82 272.221,-36.82"/>
</g>
</g>
</svg>
        <g id="navigator" transform="translate(0 0)" fill="#404254">
                <rect fill="#f2f5e9" fill-opacity="0.5" stroke="#606060" stroke-width=".5" x="0" y="0" width="60" height="60"/>
                <use id="zoomplus" xlink:href="#zoomPlus" x="17" y="9" onmousedown="handleZoom(evt,'in')"/>
                <use id="zoomminus" xlink:href="#zoomMin" x="42" y="9" onmousedown="handleZoom(evt,'out')"/>
                <use id="reset" xlink:href="#resetDef" x="30" y="36" onmousedown="handleReset()"/>
                <g id="arrowUp" xlink:href="#dirArrow" transform="translate(30 24)" onmousedown="handlePan(0,-1)">
                  <use xlink:href="#rim" fill="#404040">
                        <set attributeName="fill" to="#808080" begin="arrowUp.mouseover" end="arrowUp.mouseout"/>
                  </use>
                  <path fill="none" stroke="white" stroke-width="1.5" d="M0,-3.0v7 M-2.5,-0.5L0,-3.0L2.5,-0.5"/>
                </g>
                <g id="arrowRight" xlink:href="#dirArrow" transform="rotate(90) translate(36 -43)" onmousedown="handlePan(1,0)">
                  <use xlink:href="#rim" fill="#404040">
                        <set attributeName="fill" to="#808080" begin="arrowRight.mouseover" end="arrowRight.mouseout"/>
                  </use>
                  <path fill="none" stroke="white" stroke-width="1.5" d="M0,-3.0v7 M-2.5,-0.5L0,-3.0L2.5,-0.5"/>
                </g>
                <g id="arrowDown" xlink:href="#dirArrow" transform="rotate(180) translate(-30 -48)" onmousedown="handlePan(0,1)">
                  <use xlink:href="#rim" fill="#404040">
                        <set attributeName="fill" to="#808080" begin="arrowDown.mouseover" end="arrowDown.mouseout"/>
                  </use>
                  <path fill="none" stroke="white" stroke-width="1.5" d="M0,-3.0v7 M-2.5,-0.5L0,-3.0L2.5,-0.5"/>
                </g>
                <g id="arrowLeft" xlink:href="#dirArrow" transform="rotate(270) translate(-36 17)" onmousedown="handlePan(-1,0)">
                  <use xlink:href="#rim" fill="#404040">
                        <set attributeName="fill" to="#808080" begin="arrowLeft.mouseover" end="arrowLeft.mouseout"/>
                  </use>
                  <path fill="none" stroke="white" stroke-width="1.5" d="M0,-3.0v7 M-2.5,-0.5L0,-3.0L2.5,-0.5"/>
                </g>
        </g>
        <svg viewBox="0 0 15 15" width="100%" height="30px" preserveAspectRatio="xMaxYMin meet">
         <g id="arrow_out" transform="scale(0.3 0.3)">
          <a xlink:href="_c_o_r_e__6_8cpp_a4d7cd484d9fdf2b20c72dbda8c29f77b_icgraph_org.svg" target="_base">
           <rect id="button" ry="5" rx="5" y="6" x="6" height="38" width="38"
                fill="#f2f5e9" fill-opacity="0.5" stroke="#606060" stroke-width="1.0"/>
           <path id="arrow"
             d="M 11.500037,31.436501 C 11.940474,20.09759 22.043105,11.32322 32.158766,21.979434 L 37.068811,17.246167 C 37.068811,17.246167 37.088388,32 37.088388,32 L 22.160133,31.978069 C 22.160133,31.978069 26.997745,27.140456 26.997745,27.140456 C 18.528582,18.264221 13.291696,25.230495 11.500037,31.436501 z"
             style="fill:#404040;"/>
          </a>
         </g>
        </svg>
</svg>
