<?xml version="1.0" encoding="UTF-8" standalone="no"?>
<!DOCTYPE svg PUBLIC "-//W3C//DTD SVG 1.1//EN"
 "http://www.w3.org/Graphics/SVG/1.1/DTD/svg11.dtd">
<!-- Generated by graphviz version 2.26.3 (20100126.1600)
 -->
<!-- Title: detect_dock_used Pages: 1 -->
<svg width="1694pt" height="926pt"
 viewBox="0.00 0.00 1694.00 926.00" xmlns="http://www.w3.org/2000/svg" xmlns:xlink="http://www.w3.org/1999/xlink">
<g id="graph1" class="graph" transform="scale(1 1) rotate(0) translate(4 922)">
<title>detect_dock_used</title>
<polygon fill="white" stroke="white" points="-4,5 -4,-922 1691,-922 1691,5 -4,5"/>
<!-- Node1 -->
<g id="node1" class="node"><title>Node1</title>
<polygon fill="#bfbfbf" stroke="black" points="0,-396 0,-420 96,-420 96,-396 0,-396"/>
<text text-anchor="middle" x="48" y="-407" font-family="Helvetica,sans-Serif" font-size="10.00">detect_dock_used</text>
</g>
<!-- Node2 -->
<g id="node3" class="node"><title>Node2</title>
<a xlink:href="banger__core__8_8cpp.html#ab6ed5760e29b7576e9acfbc4cb3da75e" target="_top" xlink:title="store_state_of_fader\l_before_bang">
<polygon fill="white" stroke="black" points="132,-333 132,-373 238,-373 238,-333 132,-333"/>
<text text-anchor="start" x="140" y="-360" font-family="Helvetica,sans-Serif" font-size="10.00">store_state_of_fader</text>
<text text-anchor="middle" x="185" y="-344" font-family="Helvetica,sans-Serif" font-size="10.00">_before_bang</text>
</a>
</g>
<!-- Node1&#45;&gt;Node2 -->
<g id="edge2" class="edge"><title>Node1&#45;&gt;Node2</title>
<path fill="none" stroke="midnightblue" d="M87.4649,-392.156C102.316,-386.194 119.402,-379.335 135.083,-373.04"/>
<polygon fill="midnightblue" stroke="midnightblue" points="86.0414,-388.956 78.0652,-395.93 88.6493,-395.452 86.0414,-388.956"/>
</g>
<!-- Node6 -->
<g id="node11" class="node"><title>Node6</title>
<a xlink:href="_m_a_i_n__avec__objets_8cpp.html#ace9c8a9b37c6087c3cffef442d71d70e" target="_top" xlink:title="dixiemes_de_secondes">
<polygon fill="white" stroke="black" points="1489.5,-157 1489.5,-181 1608.5,-181 1608.5,-157 1489.5,-157"/>
<text text-anchor="middle" x="1549" y="-168" font-family="Helvetica,sans-Serif" font-size="10.00">dixiemes_de_secondes</text>
</a>
</g>
<!-- Node1&#45;&gt;Node6 -->
<g id="edge140" class="edge"><title>Node1&#45;&gt;Node6</title>
<path fill="none" stroke="midnightblue" d="M51.0693,-385.855C58.0997,-342.613 79.0408,-245.944 132,-186 198.868,-110.313 232.005,-80 333,-80 333,-80 333,-80 1249,-80 1356.02,-80 1475.98,-132.704 1525.59,-156.997"/>
<polygon fill="midnightblue" stroke="midnightblue" points="47.5892,-385.459 49.5376,-395.873 54.5088,-386.517 47.5892,-385.459"/>
</g>
<!-- Node8 -->
<g id="node15" class="node"><title>Node8</title>
<a xlink:href="banger__core__8_8cpp.html#ae4008269e0575da11cc90e812961ef6f" target="_top" xlink:title="Bang_event">
<polygon fill="white" stroke="black" points="606,-416 606,-440 674,-440 674,-416 606,-416"/>
<text text-anchor="middle" x="640" y="-427" font-family="Helvetica,sans-Serif" font-size="10.00">Bang_event</text>
</a>
</g>
<!-- Node1&#45;&gt;Node8 -->
<g id="edge116" class="edge"><title>Node1&#45;&gt;Node8</title>
<path fill="none" stroke="midnightblue" d="M106.752,-409.985C229.29,-414.125 508.807,-423.568 605.966,-426.85"/>
<polygon fill="midnightblue" stroke="midnightblue" points="106.558,-406.476 96.4458,-409.637 106.322,-413.472 106.558,-406.476"/>
</g>
<!-- Node14 -->
<g id="node29" class="node"><title>Node14</title>
<a xlink:href="i_cat14_8cpp.html#a16285241f82898e7a5f051b03d90b9a3" target="_top" xlink:title="check_button">
<polygon fill="white" stroke="black" points="891.5,-712 891.5,-736 966.5,-736 966.5,-712 891.5,-712"/>
<text text-anchor="middle" x="929" y="-723" font-family="Helvetica,sans-Serif" font-size="10.00">check_button</text>
</a>
</g>
<!-- Node1&#45;&gt;Node14 -->
<g id="edge138" class="edge"><title>Node1&#45;&gt;Node14</title>
<path fill="none" stroke="midnightblue" d="M49.6105,-430.082C58.0514,-527.977 105.929,-918 333,-918 333,-918 333,-918 640,-918 771.133,-918 887.607,-778.607 920.052,-736.136"/>
<polygon fill="midnightblue" stroke="midnightblue" points="53.0983,-429.789 48.8023,-420.104 46.1212,-430.354 53.0983,-429.789"/>
</g>
<!-- Node19 -->
<g id="node42" class="node"><title>Node19</title>
<a xlink:href="midi__13_8cpp.html#a6dff3d42682b58cc0a9875ee30fb4cd4" target="_top" xlink:title="do_midi_job">
<polygon fill="white" stroke="black" points="895,-286 895,-310 963,-310 963,-286 895,-286"/>
<text text-anchor="middle" x="929" y="-297" font-family="Helvetica,sans-Serif" font-size="10.00">do_midi_job</text>
</a>
</g>
<!-- Node1&#45;&gt;Node19 -->
<g id="edge146" class="edge"><title>Node1&#45;&gt;Node19</title>
<path fill="none" stroke="midnightblue" d="M59.042,-386.701C91.8986,-326.595 195.381,-160 333,-160 333,-160 333,-160 640,-160 756.483,-160 875.863,-252.42 915.388,-285.995"/>
<polygon fill="midnightblue" stroke="midnightblue" points="55.8569,-385.234 54.2175,-395.702 62.0265,-388.541 55.8569,-385.234"/>
</g>
<!-- Node33 -->
<g id="node80" class="node"><title>Node33</title>
<a xlink:href="banger__core__8_8cpp.html#a29583c84f980616502ac7c4f99e1bc29" target="_top" xlink:title="Bang_event_back">
<polygon fill="white" stroke="black" points="438.5,-436 438.5,-460 533.5,-460 533.5,-436 438.5,-436"/>
<text text-anchor="middle" x="486" y="-447" font-family="Helvetica,sans-Serif" font-size="10.00">Bang_event_back</text>
</a>
</g>
<!-- Node1&#45;&gt;Node33 -->
<g id="edge94" class="edge"><title>Node1&#45;&gt;Node33</title>
<path fill="none" stroke="midnightblue" d="M106.293,-418.425C114.895,-419.757 123.665,-421.001 132,-422 241.218,-435.084 370.235,-442.563 438.342,-445.892"/>
<polygon fill="midnightblue" stroke="midnightblue" points="106.735,-414.951 96.3078,-416.831 105.631,-421.864 106.735,-414.951"/>
</g>
<!-- Node36 -->
<g id="node95" class="node"><title>Node36</title>
<a xlink:href="_c_o_r_e__6_8cpp.html#ad5d62bd83cd9b293bfcd326a9c77537d" target="_top" xlink:title="do_action_on_selected\l_minifaders">
<polygon fill="white" stroke="black" points="428,-478 428,-518 544,-518 544,-478 428,-478"/>
<text text-anchor="start" x="436" y="-505" font-family="Helvetica,sans-Serif" font-size="10.00">do_action_on_selected</text>
<text text-anchor="middle" x="486" y="-489" font-family="Helvetica,sans-Serif" font-size="10.00">_minifaders</text>
</a>
</g>
<!-- Node1&#45;&gt;Node36 -->
<g id="edge118" class="edge"><title>Node1&#45;&gt;Node36</title>
<path fill="none" stroke="midnightblue" d="M83.6191,-423.951C98.3519,-430.03 115.759,-436.558 132,-441 234.226,-468.961 357.049,-484.941 427.862,-492.51"/>
<polygon fill="midnightblue" stroke="midnightblue" points="84.937,-420.708 74.3629,-420.047 82.2167,-427.158 84.937,-420.708"/>
</g>
<!-- Node37 -->
<g id="node100" class="node"><title>Node37</title>
<a xlink:href="minifaders__core_8cpp.html#ac974e1c0e7800b10f4290db4d5ce4db0" target="_top" xlink:title="mini_faders_panel_core">
<polygon fill="white" stroke="black" points="580.5,-866 580.5,-890 699.5,-890 699.5,-866 580.5,-866"/>
<text text-anchor="middle" x="640" y="-877" font-family="Helvetica,sans-Serif" font-size="10.00">mini_faders_panel_core</text>
</a>
</g>
<!-- Node1&#45;&gt;Node37 -->
<g id="edge148" class="edge"><title>Node1&#45;&gt;Node37</title>
<path fill="none" stroke="midnightblue" d="M56.989,-429.863C70.5912,-461.576 98.4126,-521.413 132,-566 242.068,-712.114 262.894,-773.235 428,-852 475.692,-874.752 535.977,-880.23 580.059,-880.616"/>
<polygon fill="midnightblue" stroke="midnightblue" points="60.0451,-428.103 52.9334,-420.25 53.5955,-430.824 60.0451,-428.103"/>
</g>
<!-- Node38 -->
<g id="node103" class="node"><title>Node38</title>
<a xlink:href="dmx__functions__13_8cpp.html#ab72876a6ba8c1eae5c792075e8bff19e" target="_top" xlink:title="do_lfos">
<polygon fill="white" stroke="black" points="161,-28 161,-52 209,-52 209,-28 161,-28"/>
<text text-anchor="middle" x="185" y="-39" font-family="Helvetica,sans-Serif" font-size="10.00">do_lfos</text>
</a>
</g>
<!-- Node1&#45;&gt;Node38 -->
<g id="edge130" class="edge"><title>Node1&#45;&gt;Node38</title>
<path fill="none" stroke="midnightblue" d="M50.9648,-385.817C60.3691,-318.25 91.3249,-116.528 132,-66 139.327,-56.8988 150.638,-50.7474 160.932,-46.7235"/>
<polygon fill="midnightblue" stroke="midnightblue" points="47.4863,-385.423 49.5966,-395.805 54.4215,-386.373 47.4863,-385.423"/>
</g>
<!-- Node39 -->
<g id="node106" class="node"><title>Node39</title>
<a xlink:href="faders__core__24_8cpp.html#a7a87eef3a5459bdd689c77b5b02957d7" target="_top" xlink:title="do_logical_FaderSpace">
<polygon fill="white" stroke="black" points="274,-666 274,-690 392,-690 392,-666 274,-666"/>
<text text-anchor="middle" x="333" y="-677" font-family="Helvetica,sans-Serif" font-size="10.00">do_logical_FaderSpace</text>
</a>
</g>
<!-- Node1&#45;&gt;Node39 -->
<g id="edge134" class="edge"><title>Node1&#45;&gt;Node39</title>
<path fill="none" stroke="midnightblue" d="M63.84,-428.269C80.124,-448.662 106.617,-480.638 132,-506 196.654,-570.601 282.248,-638.701 317.159,-665.824"/>
<polygon fill="midnightblue" stroke="midnightblue" points="66.4726,-425.956 57.5192,-420.291 60.986,-430.303 66.4726,-425.956"/>
</g>
<!-- Node40 -->
<g id="node111" class="node"><title>Node40</title>
<a xlink:href="midi__13_8cpp.html#a5d7de871851b10e9d1115c33d25140bb" target="_top" xlink:title="do_midi_call_order">
<polygon fill="white" stroke="black" points="284,-254 284,-278 382,-278 382,-254 284,-254"/>
<text text-anchor="middle" x="333" y="-265" font-family="Helvetica,sans-Serif" font-size="10.00">do_midi_call_order</text>
</a>
</g>
<!-- Node1&#45;&gt;Node40 -->
<g id="edge142" class="edge"><title>Node1&#45;&gt;Node40</title>
<path fill="none" stroke="midnightblue" d="M63.2173,-387.714C78.5722,-368.616 103.967,-340.544 132,-324 179.543,-295.941 241.489,-280.755 283.974,-273.047"/>
<polygon fill="midnightblue" stroke="midnightblue" points="60.3075,-385.753 56.8955,-395.784 65.8178,-390.07 60.3075,-385.753"/>
</g>
<!-- Node3 -->
<g id="node5" class="node"><title>Node3</title>
<a xlink:href="banger__core__8_8cpp.html#ae0c6d738503a7f8bea4a0881fd15e7fb" target="_top" xlink:title="back_up_fader_if_a\l_fader_inside">
<polygon fill="white" stroke="black" points="282.5,-309 282.5,-349 383.5,-349 383.5,-309 282.5,-309"/>
<text text-anchor="start" x="290.5" y="-336" font-family="Helvetica,sans-Serif" font-size="10.00">back_up_fader_if_a</text>
<text text-anchor="middle" x="333" y="-320" font-family="Helvetica,sans-Serif" font-size="10.00">_fader_inside</text>
</a>
</g>
<!-- Node2&#45;&gt;Node3 -->
<g id="edge4" class="edge"><title>Node2&#45;&gt;Node3</title>
<path fill="none" stroke="midnightblue" d="M247.973,-342.788C259.445,-340.928 271.278,-339.009 282.337,-337.216"/>
<polygon fill="midnightblue" stroke="midnightblue" points="247.324,-339.348 238.013,-344.403 248.445,-346.257 247.324,-339.348"/>
</g>
<!-- Node4 -->
<g id="node7" class="node"><title>Node4</title>
<a xlink:href="banger__core__8_8cpp.html#afa98bbdb588f29b8fc94df9f7754f05f" target="_top" xlink:title="do_send_bang">
<polygon fill="white" stroke="black" points="446,-303 446,-327 526,-327 526,-303 446,-303"/>
<text text-anchor="middle" x="486" y="-314" font-family="Helvetica,sans-Serif" font-size="10.00">do_send_bang</text>
</a>
</g>
<!-- Node3&#45;&gt;Node4 -->
<g id="edge6" class="edge"><title>Node3&#45;&gt;Node4</title>
<path fill="none" stroke="midnightblue" d="M393.653,-323.45C411.136,-321.85 429.774,-320.145 445.695,-318.688"/>
<polygon fill="midnightblue" stroke="midnightblue" points="393.161,-319.98 383.522,-324.377 393.799,-326.951 393.161,-319.98"/>
</g>
<!-- Node5 -->
<g id="node9" class="node"><title>Node5</title>
<a xlink:href="arduino__core__6___u_n_o_8cpp.html#a219226c1cd6cc17c78e62fd4445bb445" target="_top" xlink:title="arduino_do_digital\l_in_whitecat">
<polygon fill="white" stroke="black" points="1347.5,-178 1347.5,-218 1442.5,-218 1442.5,-178 1347.5,-178"/>
<text text-anchor="start" x="1355.5" y="-205" font-family="Helvetica,sans-Serif" font-size="10.00">arduino_do_digital</text>
<text text-anchor="middle" x="1395" y="-189" font-family="Helvetica,sans-Serif" font-size="10.00">_in_whitecat</text>
</a>
</g>
<!-- Node4&#45;&gt;Node5 -->
<g id="edge8" class="edge"><title>Node4&#45;&gt;Node5</title>
<path fill="none" stroke="midnightblue" d="M511.97,-297.224C562.397,-264.492 678.112,-198 786,-198 786,-198 786,-198 1090,-198 1181.08,-198 1287.45,-198 1347.45,-198"/>
<polygon fill="midnightblue" stroke="midnightblue" points="509.753,-294.494 503.33,-302.92 513.606,-300.338 509.753,-294.494"/>
</g>
<!-- Node4&#45;&gt;Node8 -->
<g id="edge14" class="edge"><title>Node4&#45;&gt;Node8</title>
<path fill="none" stroke="midnightblue" d="M510.797,-333.196C542.532,-356.481 596.623,-396.172 623.638,-415.994"/>
<polygon fill="midnightblue" stroke="midnightblue" points="512.614,-330.187 502.481,-327.093 508.473,-335.831 512.614,-330.187"/>
</g>
<!-- Node4&#45;&gt;Node14 -->
<g id="edge82" class="edge"><title>Node4&#45;&gt;Node14</title>
<path fill="none" stroke="midnightblue" d="M499.304,-335.973C512.594,-357.863 532.633,-393.593 544,-427 573.093,-512.504 524.75,-555.553 580,-627 654.92,-723.884 817.827,-729.497 891.491,-726.637"/>
<polygon fill="midnightblue" stroke="midnightblue" points="502.13,-333.887 493.898,-327.217 496.174,-337.564 502.13,-333.887"/>
</g>
<!-- Node4&#45;&gt;Node19 -->
<g id="edge88" class="edge"><title>Node4&#45;&gt;Node19</title>
<path fill="none" stroke="midnightblue" d="M536.258,-309.774C550.396,-308.416 565.791,-307.044 580,-306 649.238,-300.913 666.598,-299.778 736,-298 791.603,-296.575 856.247,-296.998 894.827,-297.472"/>
<polygon fill="midnightblue" stroke="midnightblue" points="535.833,-306.299 526.221,-310.755 536.514,-313.266 535.833,-306.299"/>
</g>
<!-- Node24 -->
<g id="node56" class="node"><title>Node24</title>
<a xlink:href="dmx__functions__13_8cpp.html#af8fd73062784b408e1c53510c7608d74" target="_top" xlink:title="do_crossfade">
<polygon fill="white" stroke="black" points="602.5,-108 602.5,-132 677.5,-132 677.5,-108 602.5,-108"/>
<text text-anchor="middle" x="640" y="-119" font-family="Helvetica,sans-Serif" font-size="10.00">do_crossfade</text>
</a>
</g>
<!-- Node4&#45;&gt;Node24 -->
<g id="edge64" class="edge"><title>Node4&#45;&gt;Node24</title>
<path fill="none" stroke="midnightblue" d="M499.65,-294.255C517.269,-267.896 549.321,-221.34 580,-184 595.47,-165.171 615.04,-144.879 627.542,-132.307"/>
<polygon fill="midnightblue" stroke="midnightblue" points="496.665,-292.422 494.045,-302.688 502.495,-296.297 496.665,-292.422"/>
</g>
<!-- Node31 -->
<g id="node73" class="node"><title>Node31</title>
<a xlink:href="keyboard__functions2_8cpp.html#a1069ef07040abfea667ec14eeefe7e56" target="_top" xlink:title="key_go">
<polygon fill="white" stroke="black" points="762,-416 762,-440 810,-440 810,-416 762,-416"/>
<text text-anchor="middle" x="786" y="-427" font-family="Helvetica,sans-Serif" font-size="10.00">key_go</text>
</a>
</g>
<!-- Node4&#45;&gt;Node31 -->
<g id="edge84" class="edge"><title>Node4&#45;&gt;Node31</title>
<path fill="none" stroke="midnightblue" d="M536.291,-310.228C581.473,-308.126 648.445,-310.556 700,-336 736.86,-354.191 765.962,-395.28 778.822,-415.825"/>
<polygon fill="midnightblue" stroke="midnightblue" points="535.936,-306.742 526.146,-310.792 536.326,-313.731 535.936,-306.742"/>
</g>
<!-- Node32 -->
<g id="node77" class="node"><title>Node32</title>
<a xlink:href="sequentiel__6__core_8cpp.html#a152c03ccf49d8d9a457e048daaa48023" target="_top" xlink:title="do_logical_x1_x2">
<polygon fill="white" stroke="black" points="740,-576 740,-600 832,-600 832,-576 740,-576"/>
<text text-anchor="middle" x="786" y="-587" font-family="Helvetica,sans-Serif" font-size="10.00">do_logical_x1_x2</text>
</a>
</g>
<!-- Node4&#45;&gt;Node32 -->
<g id="edge90" class="edge"><title>Node4&#45;&gt;Node32</title>
<path fill="none" stroke="midnightblue" d="M533.766,-330.222C589.534,-348.873 677.083,-381.177 700,-407 737.526,-449.283 709.146,-479.252 736,-529 745.694,-546.959 761.503,-564.391 772.749,-575.591"/>
<polygon fill="midnightblue" stroke="midnightblue" points="534.679,-326.837 524.086,-327.014 532.477,-333.482 534.679,-326.837"/>
</g>
<!-- Node5&#45;&gt;Node6 -->
<g id="edge10" class="edge"><title>Node5&#45;&gt;Node6</title>
<path fill="none" stroke="midnightblue" d="M1452.77,-187.121C1464.76,-184.863 1477.42,-182.48 1489.47,-180.21"/>
<polygon fill="midnightblue" stroke="midnightblue" points="1452.06,-183.693 1442.88,-188.983 1453.36,-190.572 1452.06,-183.693"/>
</g>
<!-- Node7 -->
<g id="node13" class="node"><title>Node7</title>
<a xlink:href="_m_a_i_n__avec__objets_8cpp.html#ae66f6b31b5ad750f1fe042a706a4e3d4" target="_top" xlink:title="main">
<polygon fill="white" stroke="black" points="1648,-121 1648,-145 1686,-145 1686,-121 1648,-121"/>
<text text-anchor="middle" x="1667" y="-132" font-family="Helvetica,sans-Serif" font-size="10.00">main</text>
</a>
</g>
<!-- Node6&#45;&gt;Node7 -->
<g id="edge12" class="edge"><title>Node6&#45;&gt;Node7</title>
<path fill="none" stroke="midnightblue" d="M1598.66,-153.849C1616.01,-148.555 1634.47,-142.924 1647.82,-138.85"/>
<polygon fill="midnightblue" stroke="midnightblue" points="1597.16,-150.647 1588.62,-156.912 1599.21,-157.342 1597.16,-150.647"/>
</g>
<!-- Node9 -->
<g id="node17" class="node"><title>Node9</title>
<a xlink:href="banger__core__8_8cpp.html#a4003a08a1620546de77b118c91d2fd9d" target="_top" xlink:title="do_bang">
<polygon fill="white" stroke="black" points="1063.5,-536 1063.5,-560 1116.5,-560 1116.5,-536 1063.5,-536"/>
<text text-anchor="middle" x="1090" y="-547" font-family="Helvetica,sans-Serif" font-size="10.00">do_bang</text>
</a>
</g>
<!-- Node8&#45;&gt;Node9 -->
<g id="edge16" class="edge"><title>Node8&#45;&gt;Node9</title>
<path fill="none" stroke="midnightblue" d="M660.436,-447.258C672.244,-458.59 687.24,-473.336 700,-487 716.78,-504.969 713.947,-518.132 736,-529 846.965,-583.687 1001.91,-564.211 1063.37,-553.319"/>
<polygon fill="midnightblue" stroke="midnightblue" points="662.845,-444.719 653.193,-440.35 658.014,-449.784 662.845,-444.719"/>
</g>
<!-- Node11 -->
<g id="node22" class="node"><title>Node11</title>
<a xlink:href="banger__core__8_8cpp.html#a4fe16ad483c0c1609d97aeb9a23c74ee" target="_top" xlink:title="do_logical_fenetre\l_banger">
<polygon fill="white" stroke="black" points="738.5,-618 738.5,-658 833.5,-658 833.5,-618 738.5,-618"/>
<text text-anchor="start" x="746.5" y="-645" font-family="Helvetica,sans-Serif" font-size="10.00">do_logical_fenetre</text>
<text text-anchor="middle" x="786" y="-629" font-family="Helvetica,sans-Serif" font-size="10.00">_banger</text>
</a>
</g>
<!-- Node8&#45;&gt;Node11 -->
<g id="edge22" class="edge"><title>Node8&#45;&gt;Node11</title>
<path fill="none" stroke="midnightblue" d="M664.012,-446.526C676.343,-457.168 690.69,-471.482 700,-487 729.084,-535.479 701.068,-564.55 736,-609 738.48,-612.156 741.406,-615.034 744.578,-617.643"/>
<polygon fill="midnightblue" stroke="midnightblue" points="666.199,-443.793 656.274,-440.087 661.722,-449.174 666.199,-443.793"/>
</g>
<!-- Node13 -->
<g id="node27" class="node"><title>Node13</title>
<a xlink:href="banger__core__8_8cpp.html#ab405ab53ea444b049e5ffa258498fcb6" target="_top" xlink:title="refresh_banger_wx">
<polygon fill="white" stroke="black" points="736.5,-496 736.5,-520 835.5,-520 835.5,-496 736.5,-496"/>
<text text-anchor="middle" x="786" y="-507" font-family="Helvetica,sans-Serif" font-size="10.00">refresh_banger_wx</text>
</a>
</g>
<!-- Node8&#45;&gt;Node13 -->
<g id="edge28" class="edge"><title>Node8&#45;&gt;Node13</title>
<path fill="none" stroke="midnightblue" d="M671.139,-445.062C699.091,-460.379 739.411,-482.472 764.095,-495.998"/>
<polygon fill="midnightblue" stroke="midnightblue" points="672.626,-441.886 662.174,-440.15 669.262,-448.025 672.626,-441.886"/>
</g>
<!-- Node8&#45;&gt;Node19 -->
<g id="edge62" class="edge"><title>Node8&#45;&gt;Node19</title>
<path fill="none" stroke="midnightblue" d="M681.203,-411.792C687.631,-408.797 694.094,-405.5 700,-402 717.438,-391.666 718.39,-384.038 736,-374 788.559,-344.04 855.253,-320.672 894.894,-308.147"/>
<polygon fill="midnightblue" stroke="midnightblue" points="679.585,-408.681 671.879,-415.952 682.438,-415.073 679.585,-408.681"/>
</g>
<!-- Node10 -->
<g id="node19" class="node"><title>Node10</title>
<a xlink:href="_m_a_i_n__avec__objets_8cpp.html#a8e80f54ac804eddce8ed6e45adb1db44" target="_top" xlink:title="ticker_full_loop">
<polygon fill="white" stroke="black" points="1208,-536 1208,-560 1290,-560 1290,-536 1208,-536"/>
<text text-anchor="middle" x="1249" y="-547" font-family="Helvetica,sans-Serif" font-size="10.00">ticker_full_loop</text>
</a>
</g>
<!-- Node9&#45;&gt;Node10 -->
<g id="edge18" class="edge"><title>Node9&#45;&gt;Node10</title>
<path fill="none" stroke="midnightblue" d="M1126.84,-548C1151.1,-548 1182.88,-548 1207.95,-548"/>
<polygon fill="midnightblue" stroke="midnightblue" points="1126.61,-544.5 1116.61,-548 1126.61,-551.5 1126.61,-544.5"/>
</g>
<!-- Node10&#45;&gt;Node7 -->
<g id="edge20" class="edge"><title>Node10&#45;&gt;Node7</title>
<path fill="none" stroke="midnightblue" d="M1269.02,-528.598C1324.15,-475.096 1482.67,-320.755 1612,-190 1627.09,-174.748 1644.21,-156.918 1655.29,-145.316"/>
<polygon fill="midnightblue" stroke="midnightblue" points="1266.39,-526.271 1261.65,-535.746 1271.27,-531.295 1266.39,-526.271"/>
</g>
<!-- Node12 -->
<g id="node24" class="node"><title>Node12</title>
<a xlink:href="procs__visuels__rebuild1_8cpp.html#ae710b6e599e321ad5934a90140067054" target="_top" xlink:title="check_graphics_mouse\l_handling">
<polygon fill="white" stroke="black" points="1030.5,-624 1030.5,-664 1149.5,-664 1149.5,-624 1030.5,-624"/>
<text text-anchor="start" x="1038.5" y="-651" font-family="Helvetica,sans-Serif" font-size="10.00">check_graphics_mouse</text>
<text text-anchor="middle" x="1090" y="-635" font-family="Helvetica,sans-Serif" font-size="10.00">_handling</text>
</a>
</g>
<!-- Node11&#45;&gt;Node12 -->
<g id="edge24" class="edge"><title>Node11&#45;&gt;Node12</title>
<path fill="none" stroke="midnightblue" d="M843.839,-639.142C897.309,-640.197 976.428,-641.758 1030.44,-642.824"/>
<polygon fill="midnightblue" stroke="midnightblue" points="843.902,-635.642 833.834,-638.944 843.763,-642.641 843.902,-635.642"/>
</g>
<!-- Node12&#45;&gt;Node10 -->
<g id="edge26" class="edge"><title>Node12&#45;&gt;Node10</title>
<path fill="none" stroke="midnightblue" d="M1146.06,-619.495C1150.15,-617.389 1154.17,-615.214 1158,-613 1186.07,-596.777 1216.24,-574.059 1233.83,-560.224"/>
<polygon fill="midnightblue" stroke="midnightblue" points="1144.44,-616.392 1137.05,-623.985 1147.57,-622.657 1144.44,-616.392"/>
</g>
<!-- Node13&#45;&gt;Node14 -->
<g id="edge30" class="edge"><title>Node13&#45;&gt;Node14</title>
<path fill="none" stroke="midnightblue" d="M804.104,-527.656C814.011,-538.82 826.222,-553.272 836,-567 845.649,-580.547 902.048,-677.516 922.005,-711.926"/>
<polygon fill="midnightblue" stroke="midnightblue" points="806.655,-525.259 797.365,-520.165 801.451,-529.94 806.655,-525.259"/>
</g>
<!-- Node16 -->
<g id="node34" class="node"><title>Node16</title>
<a xlink:href="keyboard__functions2_8cpp.html#af3dd6697323b10b480719c1612bcf29a" target="_top" xlink:title="key_backward">
<polygon fill="white" stroke="black" points="889,-496 889,-520 969,-520 969,-496 889,-496"/>
<text text-anchor="middle" x="929" y="-507" font-family="Helvetica,sans-Serif" font-size="10.00">key_backward</text>
</a>
</g>
<!-- Node13&#45;&gt;Node16 -->
<g id="edge36" class="edge"><title>Node13&#45;&gt;Node16</title>
<path fill="none" stroke="midnightblue" d="M846.007,-508C860.486,-508 875.612,-508 888.923,-508"/>
<polygon fill="midnightblue" stroke="midnightblue" points="845.613,-504.5 835.613,-508 845.613,-511.5 845.613,-504.5"/>
</g>
<!-- Node18 -->
<g id="node39" class="node"><title>Node18</title>
<a xlink:href="keyboard__functions2_8cpp.html#a6b73a3669797504ce2e357d9a8b9a2c2" target="_top" xlink:title="key_forward">
<polygon fill="white" stroke="black" points="894,-454 894,-478 964,-478 964,-454 894,-454"/>
<text text-anchor="middle" x="929" y="-465" font-family="Helvetica,sans-Serif" font-size="10.00">key_forward</text>
</a>
</g>
<!-- Node13&#45;&gt;Node18 -->
<g id="edge42" class="edge"><title>Node13&#45;&gt;Node18</title>
<path fill="none" stroke="midnightblue" d="M836.644,-493.125C855.562,-487.569 876.614,-481.386 893.835,-476.328"/>
<polygon fill="midnightblue" stroke="midnightblue" points="835.586,-489.788 826.978,-495.964 837.559,-496.505 835.586,-489.788"/>
</g>
<!-- Node13&#45;&gt;Node19 -->
<g id="edge46" class="edge"><title>Node13&#45;&gt;Node19</title>
<path fill="none" stroke="midnightblue" d="M804.012,-488.278C813.891,-477.093 826.104,-462.643 836,-449 871.793,-399.653 907.852,-336.311 922.354,-310.142"/>
<polygon fill="midnightblue" stroke="midnightblue" points="801.355,-485.999 797.298,-495.787 806.573,-490.665 801.355,-485.999"/>
</g>
<!-- Node23 -->
<g id="node52" class="node"><title>Node23</title>
<a xlink:href="sequentiel__6__core_8cpp.html#a2a71c851cf25565491dd10423bc80380" target="_top" xlink:title="do_logical_Sequenciel\l_Window">
<polygon fill="white" stroke="black" points="872.5,-576 872.5,-616 985.5,-616 985.5,-576 872.5,-576"/>
<text text-anchor="start" x="880.5" y="-603" font-family="Helvetica,sans-Serif" font-size="10.00">do_logical_Sequenciel</text>
<text text-anchor="middle" x="929" y="-587" font-family="Helvetica,sans-Serif" font-size="10.00">_Window</text>
</a>
</g>
<!-- Node13&#45;&gt;Node23 -->
<g id="edge58" class="edge"><title>Node13&#45;&gt;Node23</title>
<path fill="none" stroke="midnightblue" d="M814.401,-525.477C837.976,-539.985 871.524,-560.63 896.233,-575.836"/>
<polygon fill="midnightblue" stroke="midnightblue" points="815.935,-522.312 805.584,-520.052 812.266,-528.273 815.935,-522.312"/>
</g>
<!-- Node15 -->
<g id="node31" class="node"><title>Node15</title>
<a xlink:href="i_cat14_8cpp.html#aa9772b548765a631d4bae1c14053b4e1" target="_top" xlink:title="DoJobFantastickTouch">
<polygon fill="white" stroke="black" points="1031.5,-580 1031.5,-604 1148.5,-604 1148.5,-580 1031.5,-580"/>
<text text-anchor="middle" x="1090" y="-591" font-family="Helvetica,sans-Serif" font-size="10.00">DoJobFantastickTouch</text>
</a>
</g>
<!-- Node14&#45;&gt;Node15 -->
<g id="edge32" class="edge"><title>Node14&#45;&gt;Node15</title>
<path fill="none" stroke="midnightblue" d="M941.51,-703.498C957.377,-679.118 986.935,-638.748 1022,-615 1028.4,-610.667 1035.68,-607.084 1043.06,-604.141"/>
<polygon fill="midnightblue" stroke="midnightblue" points="938.523,-701.673 936.117,-711.99 944.432,-705.425 938.523,-701.673"/>
</g>
<!-- Node15&#45;&gt;Node10 -->
<g id="edge34" class="edge"><title>Node15&#45;&gt;Node10</title>
<path fill="none" stroke="midnightblue" d="M1143.21,-577.274C1164.27,-571.448 1188.09,-564.855 1207.8,-559.403"/>
<polygon fill="midnightblue" stroke="midnightblue" points="1142.15,-573.936 1133.45,-579.977 1144.02,-580.683 1142.15,-573.936"/>
</g>
<!-- Node17 -->
<g id="node36" class="node"><title>Node17</title>
<a xlink:href="keyboard__routines2_8cpp.html#a8563320b8eab661232619224650de244" target="_top" xlink:title="commandes_clavier">
<polygon fill="white" stroke="black" points="1038,-474 1038,-498 1142,-498 1142,-474 1038,-474"/>
<text text-anchor="middle" x="1090" y="-485" font-family="Helvetica,sans-Serif" font-size="10.00">commandes_clavier</text>
</a>
</g>
<!-- Node16&#45;&gt;Node17 -->
<g id="edge38" class="edge"><title>Node16&#45;&gt;Node17</title>
<path fill="none" stroke="midnightblue" d="M979.27,-501.131C997.898,-498.585 1019.05,-495.695 1037.85,-493.127"/>
<polygon fill="midnightblue" stroke="midnightblue" points="978.646,-497.683 969.212,-502.505 979.594,-504.619 978.646,-497.683"/>
</g>
<!-- Node17&#45;&gt;Node10 -->
<g id="edge40" class="edge"><title>Node17&#45;&gt;Node10</title>
<path fill="none" stroke="midnightblue" d="M1130.66,-501.854C1157.86,-512.463 1193.11,-526.208 1218.04,-535.929"/>
<polygon fill="midnightblue" stroke="midnightblue" points="1131.62,-498.474 1121.03,-498.101 1129.08,-504.995 1131.62,-498.474"/>
</g>
<!-- Node18&#45;&gt;Node17 -->
<g id="edge44" class="edge"><title>Node18&#45;&gt;Node17</title>
<path fill="none" stroke="midnightblue" d="M974.326,-471.63C994.115,-474.089 1017.44,-476.986 1037.93,-479.532"/>
<polygon fill="midnightblue" stroke="midnightblue" points="974.687,-468.149 964.332,-470.389 973.824,-475.095 974.687,-468.149"/>
</g>
<!-- Node20 -->
<g id="node44" class="node"><title>Node20</title>
<a xlink:href="midi__13_8cpp.html#a6bedf9750195224914cd87c4e73ab626" target="_top" xlink:title="ventilate_midi_to_midiarray">
<polygon fill="white" stroke="black" points="1022.5,-258 1022.5,-282 1157.5,-282 1157.5,-258 1022.5,-258"/>
<text text-anchor="middle" x="1090" y="-269" font-family="Helvetica,sans-Serif" font-size="10.00">ventilate_midi_to_midiarray</text>
</a>
</g>
<!-- Node19&#45;&gt;Node20 -->
<g id="edge48" class="edge"><title>Node19&#45;&gt;Node20</title>
<path fill="none" stroke="midnightblue" d="M973.272,-290.3C988.455,-287.66 1005.81,-284.642 1022.41,-281.754"/>
<polygon fill="midnightblue" stroke="midnightblue" points="972.396,-286.9 963.144,-292.062 973.596,-293.797 972.396,-286.9"/>
</g>
<!-- Node21 -->
<g id="node46" class="node"><title>Node21</title>
<a xlink:href="midi__13_8cpp.html#afa49dd5668303c2448676c8243737c2d" target="_top" xlink:title="simulate_midi">
<polygon fill="white" stroke="black" points="1210.5,-244 1210.5,-268 1287.5,-268 1287.5,-244 1210.5,-244"/>
<text text-anchor="middle" x="1249" y="-255" font-family="Helvetica,sans-Serif" font-size="10.00">simulate_midi</text>
</a>
</g>
<!-- Node20&#45;&gt;Node21 -->
<g id="edge50" class="edge"><title>Node20&#45;&gt;Node21</title>
<path fill="none" stroke="midnightblue" d="M1168.02,-263.131C1182.69,-261.838 1197.44,-260.54 1210.25,-259.412"/>
<polygon fill="midnightblue" stroke="midnightblue" points="1167.55,-259.658 1157.89,-264.022 1168.16,-266.631 1167.55,-259.658"/>
</g>
<!-- Node21&#45;&gt;Node5 -->
<g id="edge56" class="edge"><title>Node21&#45;&gt;Node5</title>
<path fill="none" stroke="midnightblue" d="M1288.88,-240.157C1306.91,-232.993 1328.37,-224.469 1347.26,-216.967"/>
<polygon fill="midnightblue" stroke="midnightblue" points="1287.25,-237.038 1279.25,-243.982 1289.84,-243.543 1287.25,-237.038"/>
</g>
<!-- Node22 -->
<g id="node48" class="node"><title>Node22</title>
<a xlink:href="arduino__core__6___u_n_o_8cpp.html#ae72d1a8d74d9ab5515962e03e7e664d6" target="_top" xlink:title="arduino_do_analog_in\l_whitecat">
<polygon fill="white" stroke="black" points="1340,-236 1340,-276 1450,-276 1450,-236 1340,-236"/>
<text text-anchor="start" x="1348" y="-263" font-family="Helvetica,sans-Serif" font-size="10.00">arduino_do_analog_in</text>
<text text-anchor="middle" x="1395" y="-247" font-family="Helvetica,sans-Serif" font-size="10.00">_whitecat</text>
</a>
</g>
<!-- Node21&#45;&gt;Node22 -->
<g id="edge52" class="edge"><title>Node21&#45;&gt;Node22</title>
<path fill="none" stroke="midnightblue" d="M1297.79,-256C1311.28,-256 1326.03,-256 1339.86,-256"/>
<polygon fill="midnightblue" stroke="midnightblue" points="1297.74,-252.5 1287.74,-256 1297.74,-259.5 1297.74,-252.5"/>
</g>
<!-- Node22&#45;&gt;Node6 -->
<g id="edge54" class="edge"><title>Node22&#45;&gt;Node6</title>
<path fill="none" stroke="midnightblue" d="M1442.4,-231.18C1444.98,-229.777 1447.52,-228.377 1450,-227 1477.68,-211.605 1509.17,-192.959 1529.05,-181.04"/>
<polygon fill="midnightblue" stroke="midnightblue" points="1440.72,-228.108 1433.58,-235.936 1444.05,-234.269 1440.72,-228.108"/>
</g>
<!-- Node23&#45;&gt;Node12 -->
<g id="edge60" class="edge"><title>Node23&#45;&gt;Node12</title>
<path fill="none" stroke="midnightblue" d="M995.408,-615.799C1007.03,-619.264 1019.06,-622.849 1030.48,-626.254"/>
<polygon fill="midnightblue" stroke="midnightblue" points="996.346,-612.426 985.763,-612.923 994.346,-619.134 996.346,-612.426"/>
</g>
<!-- Node25 -->
<g id="node58" class="node"><title>Node25</title>
<a xlink:href="_m_a_i_n__avec__objets_8cpp.html#a6a015280c1363331ada8a329be6eb7c8" target="_top" xlink:title="ticker">
<polygon fill="white" stroke="black" points="765.5,-28 765.5,-52 806.5,-52 806.5,-28 765.5,-28"/>
<text text-anchor="middle" x="786" y="-39" font-family="Helvetica,sans-Serif" font-size="10.00">ticker</text>
</a>
</g>
<!-- Node24&#45;&gt;Node25 -->
<g id="edge66" class="edge"><title>Node24&#45;&gt;Node25</title>
<path fill="none" stroke="midnightblue" d="M671.249,-102.877C699.556,-87.3664 740.482,-64.9412 765.041,-51.4847"/>
<polygon fill="midnightblue" stroke="midnightblue" points="669.262,-99.9749 662.174,-107.85 672.626,-106.114 669.262,-99.9749"/>
</g>
<!-- Node25&#45;&gt;Node7 -->
<g id="edge80" class="edge"><title>Node25&#45;&gt;Node7</title>
<path fill="none" stroke="midnightblue" d="M816.723,-31.2906C833.024,-26.9773 853.464,-22.0525 872,-19 967.964,-3.19645 992.744,-7.10543e-15 1090,-0 1090,-0 1090,-0 1395,-0 1426.19,-0 1513.98,-14.2981 1612,-77 1630.6,-88.8962 1647.68,-108.162 1657.72,-120.706"/>
<polygon fill="midnightblue" stroke="midnightblue" points="815.409,-28.0203 806.671,-34.011 817.238,-34.7772 815.409,-28.0203"/>
</g>
<!-- Node26 -->
<g id="node60" class="node"><title>Node26</title>
<a xlink:href="_c_f_g__config__panel__8_8cpp.html#aff76db94408106be22f658a05f17831a" target="_top" xlink:title="do_core_config">
<polygon fill="white" stroke="black" points="887.5,-28 887.5,-52 970.5,-52 970.5,-28 887.5,-28"/>
<text text-anchor="middle" x="929" y="-39" font-family="Helvetica,sans-Serif" font-size="10.00">do_core_config</text>
</a>
</g>
<!-- Node25&#45;&gt;Node26 -->
<g id="edge68" class="edge"><title>Node25&#45;&gt;Node26</title>
<path fill="none" stroke="midnightblue" d="M816.875,-40C837.44,-40 864.714,-40 887.214,-40"/>
<polygon fill="midnightblue" stroke="midnightblue" points="816.793,-36.5001 806.793,-40 816.793,-43.5001 816.793,-36.5001"/>
</g>
<!-- Node27 -->
<g id="node62" class="node"><title>Node27</title>
<a xlink:href="_c_f_g__config__panel__8_8cpp.html#ad39c46e2fb3a3ba7ea0460140ead4f96" target="_top" xlink:title="do_panel_config">
<polygon fill="white" stroke="black" points="1046.5,-28 1046.5,-52 1133.5,-52 1133.5,-28 1046.5,-28"/>
<text text-anchor="middle" x="1090" y="-39" font-family="Helvetica,sans-Serif" font-size="10.00">do_panel_config</text>
</a>
</g>
<!-- Node26&#45;&gt;Node27 -->
<g id="edge70" class="edge"><title>Node26&#45;&gt;Node27</title>
<path fill="none" stroke="midnightblue" d="M980.97,-40C1002.08,-40 1026.19,-40 1046.36,-40"/>
<polygon fill="midnightblue" stroke="midnightblue" points="980.881,-36.5001 970.881,-40 980.881,-43.5001 980.881,-36.5001"/>
</g>
<!-- Node28 -->
<g id="node64" class="node"><title>Node28</title>
<a xlink:href="_c_f_g__config__panel__8_8cpp.html#a7968da66bccdba8b864caf6c8435f68e" target="_top" xlink:title="config_general_menu">
<polygon fill="white" stroke="black" points="1194.5,-28 1194.5,-52 1303.5,-52 1303.5,-28 1194.5,-28"/>
<text text-anchor="middle" x="1249" y="-39" font-family="Helvetica,sans-Serif" font-size="10.00">config_general_menu</text>
</a>
</g>
<!-- Node27&#45;&gt;Node28 -->
<g id="edge72" class="edge"><title>Node27&#45;&gt;Node28</title>
<path fill="none" stroke="midnightblue" d="M1144.27,-40C1160.48,-40 1178.26,-40 1194.49,-40"/>
<polygon fill="midnightblue" stroke="midnightblue" points="1143.87,-36.5001 1133.87,-40 1143.87,-43.5001 1143.87,-36.5001"/>
</g>
<!-- Node29 -->
<g id="node66" class="node"><title>Node29</title>
<a xlink:href="graphics__rebuild1_8cpp.html#ac2eae1e03fb72cc734ffbcef566483bf" target="_top" xlink:title="Boxes">
<polygon fill="white" stroke="black" points="1373,-28 1373,-52 1417,-52 1417,-28 1373,-28"/>
<text text-anchor="middle" x="1395" y="-39" font-family="Helvetica,sans-Serif" font-size="10.00">Boxes</text>
</a>
</g>
<!-- Node28&#45;&gt;Node29 -->
<g id="edge74" class="edge"><title>Node28&#45;&gt;Node29</title>
<path fill="none" stroke="midnightblue" d="M1314.02,-40C1335.09,-40 1357.05,-40 1372.78,-40"/>
<polygon fill="midnightblue" stroke="midnightblue" points="1313.78,-36.5001 1303.78,-40 1313.78,-43.5001 1313.78,-36.5001"/>
</g>
<!-- Node30 -->
<g id="node68" class="node"><title>Node30</title>
<a xlink:href="_m_a_i_n__avec__objets_8cpp.html#ade8d4ba65d55c94f8ee277829d722155" target="_top" xlink:title="main_actions_on_screen">
<polygon fill="white" stroke="black" points="1486.5,-86 1486.5,-110 1611.5,-110 1611.5,-86 1486.5,-86"/>
<text text-anchor="middle" x="1549" y="-97" font-family="Helvetica,sans-Serif" font-size="10.00">main_actions_on_screen</text>
</a>
</g>
<!-- Node29&#45;&gt;Node30 -->
<g id="edge76" class="edge"><title>Node29&#45;&gt;Node30</title>
<path fill="none" stroke="midnightblue" d="M1426.6,-51.9025C1453.03,-61.8552 1490.55,-75.987 1517.07,-85.9741"/>
<polygon fill="midnightblue" stroke="midnightblue" points="1427.66,-48.5592 1417.06,-48.31 1425.19,-55.11 1427.66,-48.5592"/>
</g>
<!-- Node30&#45;&gt;Node7 -->
<g id="edge78" class="edge"><title>Node30&#45;&gt;Node7</title>
<path fill="none" stroke="midnightblue" d="M1599.52,-112.986C1616.63,-118.059 1634.7,-123.42 1647.84,-127.316"/>
<polygon fill="midnightblue" stroke="midnightblue" points="1600.19,-109.533 1589.61,-110.045 1598.2,-116.244 1600.19,-109.533"/>
</g>
<!-- Node31&#45;&gt;Node17 -->
<g id="edge86" class="edge"><title>Node31&#45;&gt;Node17</title>
<path fill="none" stroke="midnightblue" d="M820.124,-427.906C860.316,-428.48 928.848,-431.609 986,-445 1014.16,-451.597 1044.77,-464.404 1065.44,-473.957"/>
<polygon fill="midnightblue" stroke="midnightblue" points="820.09,-424.406 810.057,-427.808 820.022,-431.405 820.09,-424.406"/>
</g>
<!-- Node32&#45;&gt;Node23 -->
<g id="edge92" class="edge"><title>Node32&#45;&gt;Node23</title>
<path fill="none" stroke="midnightblue" d="M842.164,-591.142C852.061,-591.696 862.37,-592.272 872.282,-592.827"/>
<polygon fill="midnightblue" stroke="midnightblue" points="842.213,-587.639 832.033,-590.575 841.822,-594.628 842.213,-587.639"/>
</g>
<!-- Node33&#45;&gt;Node8 -->
<g id="edge96" class="edge"><title>Node33&#45;&gt;Node8</title>
<path fill="none" stroke="midnightblue" d="M543.935,-440.476C564.797,-437.767 587.652,-434.798 605.834,-432.437"/>
<polygon fill="midnightblue" stroke="midnightblue" points="543.348,-437.023 533.882,-441.782 544.25,-443.964 543.348,-437.023"/>
</g>
<!-- Node33&#45;&gt;Node14 -->
<g id="edge112" class="edge"><title>Node33&#45;&gt;Node14</title>
<path fill="none" stroke="midnightblue" d="M541.713,-466.424C542.514,-467.245 543.278,-468.104 544,-469 619.679,-562.926 489.227,-658.566 580,-738 625.348,-777.684 810.641,-747.311 891.248,-731.741"/>
<polygon fill="midnightblue" stroke="midnightblue" points="543.638,-463.482 533.64,-459.974 539.269,-468.951 543.638,-463.482"/>
</g>
<!-- Node33&#45;&gt;Node19 -->
<g id="edge114" class="edge"><title>Node33&#45;&gt;Node19</title>
<path fill="none" stroke="midnightblue" d="M514.172,-430.617C559.248,-403.659 651.157,-352.156 736,-326 790.033,-309.343 855.701,-302.502 894.831,-299.76"/>
<polygon fill="midnightblue" stroke="midnightblue" points="512.296,-427.661 505.54,-435.823 515.911,-433.655 512.296,-427.661"/>
</g>
<!-- Node34 -->
<g id="node83" class="node"><title>Node34</title>
<a xlink:href="banger__core__8_8cpp.html#a790bd34b44c1055de586eb9f279b3b3e" target="_top" xlink:title="do_go_back_bang">
<polygon fill="white" stroke="black" points="592.5,-496 592.5,-520 687.5,-520 687.5,-496 592.5,-496"/>
<text text-anchor="middle" x="640" y="-507" font-family="Helvetica,sans-Serif" font-size="10.00">do_go_back_bang</text>
</a>
</g>
<!-- Node33&#45;&gt;Node34 -->
<g id="edge98" class="edge"><title>Node33&#45;&gt;Node34</title>
<path fill="none" stroke="midnightblue" d="M529.859,-463.677C534.641,-465.447 539.429,-467.245 544,-469 566.672,-477.706 592.129,-488.075 611.128,-495.933"/>
<polygon fill="midnightblue" stroke="midnightblue" points="530.718,-460.264 520.124,-460.108 528.308,-466.836 530.718,-460.264"/>
</g>
<!-- Node35 -->
<g id="node89" class="node"><title>Node35</title>
<a xlink:href="banger__core__8_8cpp.html#af7d3486500e160cd24bc1d25fc8cfdae" target="_top" xlink:title="do_logical_feedback\l_banger">
<polygon fill="white" stroke="black" points="587.5,-578 587.5,-618 692.5,-618 692.5,-578 587.5,-578"/>
<text text-anchor="start" x="595.5" y="-605" font-family="Helvetica,sans-Serif" font-size="10.00">do_logical_feedback</text>
<text text-anchor="middle" x="640" y="-589" font-family="Helvetica,sans-Serif" font-size="10.00">_banger</text>
</a>
</g>
<!-- Node33&#45;&gt;Node35 -->
<g id="edge108" class="edge"><title>Node33&#45;&gt;Node35</title>
<path fill="none" stroke="midnightblue" d="M538.47,-464.963C540.4,-466.218 542.254,-467.562 544,-469 568.007,-488.768 561.727,-503.837 580,-529 592.593,-546.341 608.589,-564.581 620.898,-577.949"/>
<polygon fill="midnightblue" stroke="midnightblue" points="540.041,-461.831 529.604,-460.009 536.626,-467.942 540.041,-461.831"/>
</g>
<!-- Node34&#45;&gt;Node5 -->
<g id="edge100" class="edge"><title>Node34&#45;&gt;Node5</title>
<path fill="none" stroke="midnightblue" d="M692.387,-493.154C732.018,-481.7 787.681,-465.135 836,-449 1046.19,-378.809 1127.52,-411.02 1304,-277 1325.81,-260.439 1319.34,-244.973 1340,-227 1343.66,-223.812 1347.74,-220.848 1351.97,-218.129"/>
<polygon fill="midnightblue" stroke="midnightblue" points="691.311,-489.822 682.67,-495.953 693.249,-496.548 691.311,-489.822"/>
</g>
<!-- Node34&#45;&gt;Node14 -->
<g id="edge102" class="edge"><title>Node34&#45;&gt;Node14</title>
<path fill="none" stroke="midnightblue" d="M662.859,-526.895C675.217,-538.085 689.959,-553.147 700,-569 724.828,-608.2 702.142,-635.271 736,-667 758.497,-688.083 841.715,-707.189 891.231,-717.023"/>
<polygon fill="midnightblue" stroke="midnightblue" points="664.979,-524.099 655.156,-520.131 660.361,-529.359 664.979,-524.099"/>
</g>
<!-- Node34&#45;&gt;Node31 -->
<g id="edge104" class="edge"><title>Node34&#45;&gt;Node31</title>
<path fill="none" stroke="midnightblue" d="M681.203,-491.792C687.631,-488.797 694.094,-485.5 700,-482 717.438,-471.666 718.938,-464.943 736,-454 744.153,-448.771 753.478,-443.698 761.849,-439.442"/>
<polygon fill="midnightblue" stroke="midnightblue" points="679.585,-488.681 671.879,-495.952 682.438,-495.073 679.585,-488.681"/>
</g>
<!-- Node34&#45;&gt;Node32 -->
<g id="edge106" class="edge"><title>Node34&#45;&gt;Node32</title>
<path fill="none" stroke="midnightblue" d="M669.978,-525.196C688.841,-535.934 713.742,-549.957 736,-562 744.605,-566.656 754.117,-571.642 762.514,-575.989"/>
<polygon fill="midnightblue" stroke="midnightblue" points="671.661,-522.127 661.241,-520.212 668.193,-528.208 671.661,-522.127"/>
</g>
<!-- Node35&#45;&gt;Node11 -->
<g id="edge110" class="edge"><title>Node35&#45;&gt;Node11</title>
<path fill="none" stroke="midnightblue" d="M702.611,-615.154C714.539,-618.422 726.845,-621.793 738.219,-624.909"/>
<polygon fill="midnightblue" stroke="midnightblue" points="703.279,-611.708 692.709,-612.441 701.429,-618.459 703.279,-611.708"/>
</g>
<!-- Node36&#45;&gt;Node8 -->
<g id="edge120" class="edge"><title>Node36&#45;&gt;Node8</title>
<path fill="none" stroke="midnightblue" d="M537.745,-473.452C551.447,-467.042 566.252,-460.195 580,-454 590.35,-449.336 601.77,-444.349 611.844,-440.002"/>
<polygon fill="midnightblue" stroke="midnightblue" points="536.029,-470.391 528.462,-477.807 539.002,-476.728 536.029,-470.391"/>
</g>
<!-- Node36&#45;&gt;Node14 -->
<g id="edge122" class="edge"><title>Node36&#45;&gt;Node14</title>
<path fill="none" stroke="midnightblue" d="M491.701,-528.417C504.721,-594.246 538.729,-746.388 580,-776 672.444,-842.328 725.899,-804.691 836,-776 865.536,-768.303 895.632,-748.926 913.297,-736.123"/>
<polygon fill="midnightblue" stroke="midnightblue" points="495.07,-527.408 489.724,-518.261 488.199,-528.746 495.07,-527.408"/>
</g>
<!-- Node36&#45;&gt;Node19 -->
<g id="edge124" class="edge"><title>Node36&#45;&gt;Node19</title>
<path fill="none" stroke="midnightblue" d="M554.271,-487.155C607.28,-477.859 675.714,-463.678 700,-449 721.041,-436.283 716.133,-421.482 736,-407 774.954,-378.604 793.952,-388.573 836,-365 865.508,-348.457 896.837,-324.339 914.556,-310.003"/>
<polygon fill="midnightblue" stroke="midnightblue" points="553.488,-483.738 544.23,-488.89 554.68,-490.636 553.488,-483.738"/>
</g>
<!-- Node36&#45;&gt;Node37 -->
<g id="edge126" class="edge"><title>Node36&#45;&gt;Node37</title>
<path fill="none" stroke="midnightblue" d="M490.219,-528.17C499.382,-586.618 524.871,-717.969 580,-814 591.905,-834.737 611.775,-854.11 625.362,-865.993"/>
<polygon fill="midnightblue" stroke="midnightblue" points="493.656,-527.491 488.694,-518.13 486.735,-528.542 493.656,-527.491"/>
</g>
<!-- Node37&#45;&gt;Node12 -->
<g id="edge128" class="edge"><title>Node37&#45;&gt;Node12</title>
<path fill="none" stroke="midnightblue" d="M709.457,-891.571C784.299,-902.208 903.713,-907.224 986,-852 1052.54,-807.341 1078.42,-706.882 1086.69,-664.007"/>
<polygon fill="midnightblue" stroke="midnightblue" points="709.608,-888.054 699.201,-890.038 708.573,-894.978 709.608,-888.054"/>
</g>
<!-- Node38&#45;&gt;Node25 -->
<g id="edge132" class="edge"><title>Node38&#45;&gt;Node25</title>
<path fill="none" stroke="midnightblue" d="M219.612,-40C330.793,-40 676.739,-40 765.222,-40"/>
<polygon fill="midnightblue" stroke="midnightblue" points="219.304,-36.5001 209.304,-40 219.304,-43.5001 219.304,-36.5001"/>
</g>
<!-- Node39&#45;&gt;Node12 -->
<g id="edge136" class="edge"><title>Node39&#45;&gt;Node12</title>
<path fill="none" stroke="midnightblue" d="M352.738,-697.023C398.912,-739.428 519.232,-838 640,-838 640,-838 640,-838 786,-838 914.348,-838 1032.08,-713.597 1073.89,-664.031"/>
<polygon fill="midnightblue" stroke="midnightblue" points="354.939,-694.289 345.239,-690.026 350.163,-699.407 354.939,-694.289"/>
</g>
<!-- Node40&#45;&gt;Node19 -->
<g id="edge144" class="edge"><title>Node40&#45;&gt;Node19</title>
<path fill="none" stroke="midnightblue" d="M392.441,-269.189C486.556,-274.239 675.655,-284.386 836,-293 855.537,-294.05 877.381,-295.224 894.988,-296.171"/>
<polygon fill="midnightblue" stroke="midnightblue" points="392.437,-265.684 382.264,-268.643 392.062,-272.674 392.437,-265.684"/>
</g>
</g>
</svg>
