<?xml version="1.0" encoding="UTF-8" standalone="no"?>
<!DOCTYPE svg PUBLIC "-//W3C//DTD SVG 1.1//EN"
 "http://www.w3.org/Graphics/SVG/1.1/DTD/svg11.dtd">
<!-- Generated by graphviz version 2.26.3 (20100126.1600)
 -->
<!-- Title: button_midi_out_visu Pages: 1 -->
<svg width="550pt" height="32pt"
 viewBox="0.00 0.00 550.00 32.00" xmlns="http://www.w3.org/2000/svg" xmlns:xlink="http://www.w3.org/1999/xlink">
<g id="graph1" class="graph" transform="scale(1 1) rotate(0) translate(4 28)">
<title>button_midi_out_visu</title>
<polygon fill="white" stroke="white" points="-4,5 -4,-28 547,-28 547,5 -4,5"/>
<!-- Node1 -->
<g id="node1" class="node"><title>Node1</title>
<polygon fill="#bfbfbf" stroke="black" points="0.5,-0 0.5,-24 109.5,-24 109.5,-0 0.5,-0"/>
<text text-anchor="middle" x="55" y="-11" font-family="Helvetica,sans-Serif" font-size="10.00">button_midi_out_visu</text>
</g>
<!-- Node2 -->
<g id="node3" class="node"><title>Node2</title>
<a xlink:href="time__visu__3_8cpp.html#abc4eb7a7462371548e20a8c3600d22eb" target="_top" xlink:title="Time_Window">
<polygon fill="white" stroke="black" points="146.5,-0 146.5,-24 225.5,-24 225.5,-0 146.5,-0"/>
<text text-anchor="middle" x="186" y="-11" font-family="Helvetica,sans-Serif" font-size="10.00">Time_Window</text>
</a>
</g>
<!-- Node1&#45;&gt;Node2 -->
<g id="edge2" class="edge"><title>Node1&#45;&gt;Node2</title>
<path fill="none" stroke="midnightblue" d="M119.882,-12C128.853,-12 137.839,-12 146.168,-12"/>
<polygon fill="midnightblue" stroke="midnightblue" points="119.797,-8.5001 109.797,-12 119.797,-15.5001 119.797,-8.5001"/>
</g>
<!-- Node3 -->
<g id="node5" class="node"><title>Node3</title>
<a xlink:href="graphics__rebuild1_8cpp.html#ac2eae1e03fb72cc734ffbcef566483bf" target="_top" xlink:title="Boxes">
<polygon fill="white" stroke="black" points="262,-0 262,-24 306,-24 306,-0 262,-0"/>
<text text-anchor="middle" x="284" y="-11" font-family="Helvetica,sans-Serif" font-size="10.00">Boxes</text>
</a>
</g>
<!-- Node2&#45;&gt;Node3 -->
<g id="edge4" class="edge"><title>Node2&#45;&gt;Node3</title>
<path fill="none" stroke="midnightblue" d="M235.806,-12C244.911,-12 253.978,-12 261.751,-12"/>
<polygon fill="midnightblue" stroke="midnightblue" points="235.578,-8.5001 225.578,-12 235.578,-15.5001 235.578,-8.5001"/>
</g>
<!-- Node4 -->
<g id="node7" class="node"><title>Node4</title>
<a xlink:href="_m_a_i_n__avec__objets_8cpp.html#ade8d4ba65d55c94f8ee277829d722155" target="_top" xlink:title="main_actions_on_screen">
<polygon fill="white" stroke="black" points="342.5,-0 342.5,-24 467.5,-24 467.5,-0 342.5,-0"/>
<text text-anchor="middle" x="405" y="-11" font-family="Helvetica,sans-Serif" font-size="10.00">main_actions_on_screen</text>
</a>
</g>
<!-- Node3&#45;&gt;Node4 -->
<g id="edge6" class="edge"><title>Node3&#45;&gt;Node4</title>
<path fill="none" stroke="midnightblue" d="M316.244,-12C324.32,-12 333.263,-12 342.271,-12"/>
<polygon fill="midnightblue" stroke="midnightblue" points="316.193,-8.5001 306.193,-12 316.193,-15.5001 316.193,-8.5001"/>
</g>
<!-- Node5 -->
<g id="node9" class="node"><title>Node5</title>
<a xlink:href="_m_a_i_n__avec__objets_8cpp.html#ae66f6b31b5ad750f1fe042a706a4e3d4" target="_top" xlink:title="main">
<polygon fill="white" stroke="black" points="504,-0 504,-24 542,-24 542,-0 504,-0"/>
<text text-anchor="middle" x="523" y="-11" font-family="Helvetica,sans-Serif" font-size="10.00">main</text>
</a>
</g>
<!-- Node4&#45;&gt;Node5 -->
<g id="edge8" class="edge"><title>Node4&#45;&gt;Node5</title>
<path fill="none" stroke="midnightblue" d="M477.837,-12C487.336,-12 496.327,-12 503.749,-12"/>
<polygon fill="midnightblue" stroke="midnightblue" points="477.8,-8.5001 467.8,-12 477.8,-15.5001 477.8,-8.5001"/>
</g>
</g>
</svg>
