<?xml version="1.0" encoding="UTF-8" standalone="no"?>
<!DOCTYPE svg PUBLIC "-//W3C//DTD SVG 1.1//EN"
 "http://www.w3.org/Graphics/SVG/1.1/DTD/svg11.dtd">
<!-- Generated by graphviz version 2.26.3 (20100126.1600)
 -->
<!-- Title: clear_iCat_buttons Pages: 1 -->
<!--zoomable 158 -->
<svg id="main" version="1.1" xmlns="http://www.w3.org/2000/svg" xmlns:xlink="http://www.w3.org/1999/xlink" xml:space="preserve" onload="init(evt)">
<style type="text/css"><![CDATA[
.edge:hover path { stroke: red; }
.edge:hover polygon { stroke: red; fill: red; }
]]></style>
<script type="text/javascript"><![CDATA[
var edges = document.getElementsByTagName('g');
if (edges && edges.length) {
  for (var i=0;i<edges.length;i++) {
    if (edges[i].id.substr(0,4)=='edge') {
      edges[i].setAttribute('class','edge');
    }
  }
}
]]></script>
        <defs>
                <circle id="rim" cx="0" cy="0" r="7"/>
                <circle id="rim2" cx="0" cy="0" r="3.5"/>
                <g id="zoomPlus">
                        <use xlink:href="#rim" fill="#404040">
                                <set attributeName="fill" to="#808080" begin="zoomplus.mouseover" end="zoomplus.mouseout"/>
                        </use>
                        <path d="M-4,0h8M0,-4v8" fill="none" stroke="white" stroke-width="1.5" pointer-events="none"/>
                </g>
                <g id="zoomMin">
                        <use xlink:href="#rim" fill="#404040">
                                <set attributeName="fill" to="#808080" begin="zoomminus.mouseover" end="zoomminus.mouseout"/>
                        </use>
                        <path d="M-4,0h8" fill="none" stroke="white" stroke-width="1.5" pointer-events="none"/>
                </g>
                <g id="dirArrow">
                        <path fill="none" stroke="white" stroke-width="1.5" d="M0,-3.0v7 M-2.5,-0.5L0,-3.0L2.5,-0.5"/>
                </g>
               <g id="resetDef">
                       <use xlink:href="#rim2" fill="#404040">
                               <set attributeName="fill" to="#808080" begin="reset.mouseover" end="reset.mouseout"/>
                       </use>
               </g>
        </defs>

<script type="text/javascript">
var viewWidth = 1072;
var viewHeight = 158;
var sectionId = 'dynsection-38';
</script>
<script xlink:href="svgpan.js"/>
<svg id="graph" class="graph">
<g id="viewport">
<title>clear_iCat_buttons</title>
<polygon fill="white" stroke="white" points="-4,5 -4,-153.503 1069,-153.503 1069,5 -4,5"/>
<!-- Node1 -->
<g id="node1" class="node"><title>Node1</title>
<polygon fill="#bfbfbf" stroke="black" points="0,-0 0,-24 98,-24 98,-0 0,-0"/>
<text text-anchor="middle" x="49" y="-11" font-family="Helvetica,sans-Serif" font-size="10.00">clear_iCat_buttons</text>
</g>
<!-- Node2 -->
<g id="node3" class="node"><title>Node2</title>
<a xlink:href="_c_o_r_e__6_8cpp.html#abf5e6474418e358207296e79c1047a98" target="_top" xlink:title="clear_iCat_page">
<polygon fill="white" stroke="black" points="134.5,-20 134.5,-44 221.5,-44 221.5,-20 134.5,-20"/>
<text text-anchor="middle" x="178" y="-31" font-family="Helvetica,sans-Serif" font-size="10.00">clear_iCat_page</text>
</a>
</g>
<!-- Node1&#45;&gt;Node2 -->
<g id="edge2" class="edge"><title>Node1&#45;&gt;Node2</title>
<path fill="none" stroke="midnightblue" d="M108.081,-21.1599C116.973,-22.5385 126.003,-23.9385 134.489,-25.2542"/>
<polygon fill="midnightblue" stroke="midnightblue" points="108.556,-17.6917 98.1374,-19.6182 107.483,-24.609 108.556,-17.6917"/>
</g>
<!-- Node5 -->
<g id="node9" class="node"><title>Node5</title>
<a xlink:href="logicals__intres_8cpp.html#a74cf9c04c734ab342f88799efbfc4210" target="_top" xlink:title="operations_confirmation">
<polygon fill="white" stroke="black" points="448,-55 448,-79 568,-79 568,-55 448,-55"/>
<text text-anchor="middle" x="508" y="-66" font-family="Helvetica,sans-Serif" font-size="10.00">operations_confirmation</text>
</a>
</g>
<!-- Node1&#45;&gt;Node5 -->
<g id="edge32" class="edge"><title>Node1&#45;&gt;Node5</title>
<path fill="none" stroke="midnightblue" d="M108.696,-11.2091C117.19,-11.1223 125.816,-11.0481 134,-11 173.11,-10.7699 183.06,-7.34349 222,-11 307.57,-19.0352 327.704,-30.2347 412,-47 424.69,-49.5239 438.306,-52.3119 451.18,-54.9848"/>
<polygon fill="midnightblue" stroke="midnightblue" points="108.402,-7.71195 98.4404,-11.3201 108.478,-14.7115 108.402,-7.71195"/>
</g>
<!-- Node3 -->
<g id="node5" class="node"><title>Node3</title>
<a xlink:href="_c_o_r_e__6_8cpp.html#a5e53dc8ef589fe38b9d40e3497ac3f13" target="_top" xlink:title="GlobInit">
<polygon fill="white" stroke="black" points="258,-77 258,-101 308,-101 308,-77 258,-77"/>
<text text-anchor="middle" x="283" y="-88" font-family="Helvetica,sans-Serif" font-size="10.00">GlobInit</text>
</a>
</g>
<!-- Node2&#45;&gt;Node3 -->
<g id="edge4" class="edge"><title>Node2&#45;&gt;Node3</title>
<path fill="none" stroke="midnightblue" d="M209.083,-48.8735C225.685,-57.8864 245.737,-68.7714 260.764,-76.9292"/>
<polygon fill="midnightblue" stroke="midnightblue" points="210.726,-45.7832 200.268,-44.0882 207.387,-51.9352 210.726,-45.7832"/>
</g>
<!-- Node2&#45;&gt;Node5 -->
<g id="edge30" class="edge"><title>Node2&#45;&gt;Node5</title>
<path fill="none" stroke="midnightblue" d="M232.097,-37.7375C291.358,-44.0228 386.157,-54.0772 447.75,-60.6099"/>
<polygon fill="midnightblue" stroke="midnightblue" points="232.135,-34.222 221.821,-36.6477 231.397,-41.183 232.135,-34.222"/>
</g>
<!-- Node4 -->
<g id="node7" class="node"><title>Node4</title>
<a xlink:href="_c_o_r_e__6_8cpp.html#a29400ad92b676ecb7743384700af5560" target="_top" xlink:title="reset_show">
<polygon fill="white" stroke="black" points="344.5,-96 344.5,-120 411.5,-120 411.5,-96 344.5,-96"/>
<text text-anchor="middle" x="378" y="-107" font-family="Helvetica,sans-Serif" font-size="10.00">reset_show</text>
</a>
</g>
<!-- Node3&#45;&gt;Node4 -->
<g id="edge6" class="edge"><title>Node3&#45;&gt;Node4</title>
<path fill="none" stroke="midnightblue" d="M318.419,-96.0838C326.872,-97.7744 335.872,-99.5744 344.247,-101.249"/>
<polygon fill="midnightblue" stroke="midnightblue" points="318.95,-92.6209 308.458,-94.0917 317.578,-99.4849 318.95,-92.6209"/>
</g>
<!-- Node3&#45;&gt;Node5 -->
<g id="edge26" class="edge"><title>Node3&#45;&gt;Node5</title>
<path fill="none" stroke="midnightblue" d="M318.48,-85.5308C353.093,-82.1465 406.413,-76.933 447.69,-72.897"/>
<polygon fill="midnightblue" stroke="midnightblue" points="317.985,-82.0625 308.373,-86.5191 318.666,-89.0292 317.985,-82.0625"/>
</g>
<!-- Node9 -->
<g id="node17" class="node"><title>Node9</title>
<a xlink:href="_m_a_i_n__avec__objets_8cpp.html#ae66f6b31b5ad750f1fe042a706a4e3d4" target="_top" xlink:title="main">
<polygon fill="white" stroke="black" points="1026,-96 1026,-120 1064,-120 1064,-96 1026,-96"/>
<text text-anchor="middle" x="1045" y="-107" font-family="Helvetica,sans-Serif" font-size="10.00">main</text>
</a>
</g>
<!-- Node3&#45;&gt;Node9 -->
<g id="edge28" class="edge"><title>Node3&#45;&gt;Node9</title>
<path fill="none" stroke="midnightblue" d="M305.612,-107.476C316.56,-115.429 330.284,-124.027 344,-129 412.981,-154.014 434.624,-148 508,-148 508,-148 508,-148 776,-148 871.485,-148 896.957,-150.456 990,-129 1002.25,-126.175 1015.43,-121.217 1025.81,-116.827"/>
<polygon fill="midnightblue" stroke="midnightblue" points="307.566,-104.565 297.481,-101.318 303.34,-110.145 307.566,-104.565"/>
</g>
<!-- Node4&#45;&gt;Node5 -->
<g id="edge8" class="edge"><title>Node4&#45;&gt;Node5</title>
<path fill="none" stroke="midnightblue" d="M421.738,-94.2058C437.302,-89.297 454.694,-83.8118 469.762,-79.0597"/>
<polygon fill="midnightblue" stroke="midnightblue" points="420.301,-90.989 411.817,-97.3348 422.406,-97.6648 420.301,-90.989"/>
</g>
<!-- Node6 -->
<g id="node11" class="node"><title>Node6</title>
<a xlink:href="keyboard__functions2_8cpp.html#a548548066307f816c5021de7d6e4f26a" target="_top" xlink:title="key_affectation">
<polygon fill="white" stroke="black" points="604.5,-96 604.5,-120 687.5,-120 687.5,-96 604.5,-96"/>
<text text-anchor="middle" x="646" y="-107" font-family="Helvetica,sans-Serif" font-size="10.00">key_affectation</text>
</a>
</g>
<!-- Node5&#45;&gt;Node6 -->
<g id="edge10" class="edge"><title>Node5&#45;&gt;Node6</title>
<path fill="none" stroke="midnightblue" d="M558.518,-82.0091C573.865,-86.5687 590.529,-91.5195 605.156,-95.8651"/>
<polygon fill="midnightblue" stroke="midnightblue" points="559.241,-78.5726 548.658,-79.0796 557.247,-85.2827 559.241,-78.5726"/>
</g>
<!-- Node10 -->
<g id="node19" class="node"><title>Node10</title>
<a xlink:href="logicals__intres_8cpp.html#a85967c22135715eca94d08af2ec1a1fb" target="_top" xlink:title="fenetre_confirm">
<polygon fill="white" stroke="black" points="604,-54 604,-78 688,-78 688,-54 604,-54"/>
<text text-anchor="middle" x="646" y="-65" font-family="Helvetica,sans-Serif" font-size="10.00">fenetre_confirm</text>
</a>
</g>
<!-- Node5&#45;&gt;Node10 -->
<g id="edge18" class="edge"><title>Node5&#45;&gt;Node10</title>
<path fill="none" stroke="midnightblue" d="M578.354,-66.4902C587.083,-66.4269 595.783,-66.3639 603.896,-66.3051"/>
<polygon fill="midnightblue" stroke="midnightblue" points="578.102,-62.9918 568.127,-66.5643 578.152,-69.9916 578.102,-62.9918"/>
</g>
<!-- Node7 -->
<g id="node13" class="node"><title>Node7</title>
<a xlink:href="keyboard__routines2_8cpp.html#a8563320b8eab661232619224650de244" target="_top" xlink:title="commandes_clavier">
<polygon fill="white" stroke="black" points="724,-96 724,-120 828,-120 828,-96 724,-96"/>
<text text-anchor="middle" x="776" y="-107" font-family="Helvetica,sans-Serif" font-size="10.00">commandes_clavier</text>
</a>
</g>
<!-- Node6&#45;&gt;Node7 -->
<g id="edge12" class="edge"><title>Node6&#45;&gt;Node7</title>
<path fill="none" stroke="midnightblue" d="M697.995,-108C706.473,-108 715.258,-108 723.742,-108"/>
<polygon fill="midnightblue" stroke="midnightblue" points="697.848,-104.5 687.848,-108 697.848,-111.5 697.848,-104.5"/>
</g>
<!-- Node8 -->
<g id="node15" class="node"><title>Node8</title>
<a xlink:href="_m_a_i_n__avec__objets_8cpp.html#a8e80f54ac804eddce8ed6e45adb1db44" target="_top" xlink:title="ticker_full_loop">
<polygon fill="white" stroke="black" points="886,-96 886,-120 968,-120 968,-96 886,-96"/>
<text text-anchor="middle" x="927" y="-107" font-family="Helvetica,sans-Serif" font-size="10.00">ticker_full_loop</text>
</a>
</g>
<!-- Node7&#45;&gt;Node8 -->
<g id="edge14" class="edge"><title>Node7&#45;&gt;Node8</title>
<path fill="none" stroke="midnightblue" d="M838.664,-108C854.516,-108 871.147,-108 885.648,-108"/>
<polygon fill="midnightblue" stroke="midnightblue" points="838.389,-104.5 828.389,-108 838.389,-111.5 838.389,-104.5"/>
</g>
<!-- Node8&#45;&gt;Node9 -->
<g id="edge16" class="edge"><title>Node8&#45;&gt;Node9</title>
<path fill="none" stroke="midnightblue" d="M978.55,-108C995.307,-108 1012.88,-108 1025.74,-108"/>
<polygon fill="midnightblue" stroke="midnightblue" points="978.271,-104.5 968.271,-108 978.271,-111.5 978.271,-104.5"/>
</g>
<!-- Node11 -->
<g id="node21" class="node"><title>Node11</title>
<a xlink:href="graphics__rebuild1_8cpp.html#ac2eae1e03fb72cc734ffbcef566483bf" target="_top" xlink:title="Boxes">
<polygon fill="white" stroke="black" points="754,-54 754,-78 798,-78 798,-54 754,-54"/>
<text text-anchor="middle" x="776" y="-65" font-family="Helvetica,sans-Serif" font-size="10.00">Boxes</text>
</a>
</g>
<!-- Node10&#45;&gt;Node11 -->
<g id="edge20" class="edge"><title>Node10&#45;&gt;Node11</title>
<path fill="none" stroke="midnightblue" d="M698.4,-66C717.658,-66 738.45,-66 753.66,-66"/>
<polygon fill="midnightblue" stroke="midnightblue" points="698.207,-62.5001 688.207,-66 698.207,-69.5001 698.207,-62.5001"/>
</g>
<!-- Node12 -->
<g id="node23" class="node"><title>Node12</title>
<a xlink:href="_m_a_i_n__avec__objets_8cpp.html#ade8d4ba65d55c94f8ee277829d722155" target="_top" xlink:title="main_actions_on_screen">
<polygon fill="white" stroke="black" points="864.5,-54 864.5,-78 989.5,-78 989.5,-54 864.5,-54"/>
<text text-anchor="middle" x="927" y="-65" font-family="Helvetica,sans-Serif" font-size="10.00">main_actions_on_screen</text>
</a>
</g>
<!-- Node11&#45;&gt;Node12 -->
<g id="edge22" class="edge"><title>Node11&#45;&gt;Node12</title>
<path fill="none" stroke="midnightblue" d="M808.395,-66C824.76,-66 845.187,-66 864.455,-66"/>
<polygon fill="midnightblue" stroke="midnightblue" points="808.281,-62.5001 798.281,-66 808.281,-69.5001 808.281,-62.5001"/>
</g>
<!-- Node12&#45;&gt;Node9 -->
<g id="edge24" class="edge"><title>Node12&#45;&gt;Node9</title>
<path fill="none" stroke="midnightblue" d="M973.823,-81.359C979.288,-83.2254 984.775,-85.1327 990,-87 1002.03,-91.2997 1015.43,-96.4073 1025.98,-100.509"/>
<polygon fill="midnightblue" stroke="midnightblue" points="974.663,-77.9485 964.069,-78.0613 972.421,-84.5797 974.663,-77.9485"/>
</g>
</g>
</svg>
        <g id="navigator" transform="translate(0 0)" fill="#404254">
                <rect fill="#f2f5e9" fill-opacity="0.5" stroke="#606060" stroke-width=".5" x="0" y="0" width="60" height="60"/>
                <use id="zoomplus" xlink:href="#zoomPlus" x="17" y="9" onmousedown="handleZoom(evt,'in')"/>
                <use id="zoomminus" xlink:href="#zoomMin" x="42" y="9" onmousedown="handleZoom(evt,'out')"/>
                <use id="reset" xlink:href="#resetDef" x="30" y="36" onmousedown="handleReset()"/>
                <g id="arrowUp" xlink:href="#dirArrow" transform="translate(30 24)" onmousedown="handlePan(0,-1)">
                  <use xlink:href="#rim" fill="#404040">
                        <set attributeName="fill" to="#808080" begin="arrowUp.mouseover" end="arrowUp.mouseout"/>
                  </use>
                  <path fill="none" stroke="white" stroke-width="1.5" d="M0,-3.0v7 M-2.5,-0.5L0,-3.0L2.5,-0.5"/>
                </g>
                <g id="arrowRight" xlink:href="#dirArrow" transform="rotate(90) translate(36 -43)" onmousedown="handlePan(1,0)">
                  <use xlink:href="#rim" fill="#404040">
                        <set attributeName="fill" to="#808080" begin="arrowRight.mouseover" end="arrowRight.mouseout"/>
                  </use>
                  <path fill="none" stroke="white" stroke-width="1.5" d="M0,-3.0v7 M-2.5,-0.5L0,-3.0L2.5,-0.5"/>
                </g>
                <g id="arrowDown" xlink:href="#dirArrow" transform="rotate(180) translate(-30 -48)" onmousedown="handlePan(0,1)">
                  <use xlink:href="#rim" fill="#404040">
                        <set attributeName="fill" to="#808080" begin="arrowDown.mouseover" end="arrowDown.mouseout"/>
                  </use>
                  <path fill="none" stroke="white" stroke-width="1.5" d="M0,-3.0v7 M-2.5,-0.5L0,-3.0L2.5,-0.5"/>
                </g>
                <g id="arrowLeft" xlink:href="#dirArrow" transform="rotate(270) translate(-36 17)" onmousedown="handlePan(-1,0)">
                  <use xlink:href="#rim" fill="#404040">
                        <set attributeName="fill" to="#808080" begin="arrowLeft.mouseover" end="arrowLeft.mouseout"/>
                  </use>
                  <path fill="none" stroke="white" stroke-width="1.5" d="M0,-3.0v7 M-2.5,-0.5L0,-3.0L2.5,-0.5"/>
                </g>
        </g>
        <svg viewBox="0 0 15 15" width="100%" height="30px" preserveAspectRatio="xMaxYMin meet">
         <g id="arrow_out" transform="scale(0.3 0.3)">
          <a xlink:href="_c_o_r_e__6_8cpp_a705c10f727b06165d0c086b22a6694ae_icgraph_org.svg" target="_base">
           <rect id="button" ry="5" rx="5" y="6" x="6" height="38" width="38"
                fill="#f2f5e9" fill-opacity="0.5" stroke="#606060" stroke-width="1.0"/>
           <path id="arrow"
             d="M 11.500037,31.436501 C 11.940474,20.09759 22.043105,11.32322 32.158766,21.979434 L 37.068811,17.246167 C 37.068811,17.246167 37.088388,32 37.088388,32 L 22.160133,31.978069 C 22.160133,31.978069 26.997745,27.140456 26.997745,27.140456 C 18.528582,18.264221 13.291696,25.230495 11.500037,31.436501 z"
             style="fill:#404040;"/>
          </a>
         </g>
        </svg>
</svg>
