<?xml version="1.0" encoding="UTF-8" standalone="no"?>
<!DOCTYPE svg PUBLIC "-//W3C//DTD SVG 1.1//EN"
 "http://www.w3.org/Graphics/SVG/1.1/DTD/svg11.dtd">
<!-- Generated by graphviz version 2.26.3 (20100126.1600)
 -->
<!-- Title: reset_modified_levels_in_crossfade Pages: 1 -->
<svg width="2238pt" height="510pt"
 viewBox="0.00 0.00 2238.00 510.00" xmlns="http://www.w3.org/2000/svg" xmlns:xlink="http://www.w3.org/1999/xlink">
<g id="graph1" class="graph" transform="scale(1 1) rotate(0) translate(4 506)">
<title>reset_modified_levels_in_crossfade</title>
<polygon fill="white" stroke="white" points="-4,5 -4,-506 2235,-506 2235,5 -4,5"/>
<!-- Node1 -->
<g id="node1" class="node"><title>Node1</title>
<polygon fill="#bfbfbf" stroke="black" points="0.5,-131 0.5,-171 111.5,-171 111.5,-131 0.5,-131"/>
<text text-anchor="start" x="8.5" y="-158" font-family="Helvetica,sans-Serif" font-size="10.00">reset_modified_levels</text>
<text text-anchor="middle" x="56" y="-142" font-family="Helvetica,sans-Serif" font-size="10.00">_in_crossfade</text>
</g>
<!-- Node2 -->
<g id="node3" class="node"><title>Node2</title>
<a xlink:href="_c_o_r_e__6_8cpp.html#a3f79baaac498a118cee794775ff1781e" target="_top" xlink:title="do_double_go_function">
<polygon fill="white" stroke="black" points="150,-276 150,-300 266,-300 266,-276 150,-276"/>
<text text-anchor="middle" x="208" y="-287" font-family="Helvetica,sans-Serif" font-size="10.00">do_double_go_function</text>
</a>
</g>
<!-- Node1&#45;&gt;Node2 -->
<g id="edge2" class="edge"><title>Node1&#45;&gt;Node2</title>
<path fill="none" stroke="midnightblue" d="M85.9659,-178.009C118.888,-207.682 170.3,-254.021 194.519,-275.85"/>
<polygon fill="midnightblue" stroke="midnightblue" points="88.1995,-175.31 78.4281,-171.215 83.513,-180.51 88.1995,-175.31"/>
</g>
<!-- Node14 -->
<g id="node30" class="node"><title>Node14</title>
<a xlink:href="keyboard__functions2_8cpp.html#af3dd6697323b10b480719c1612bcf29a" target="_top" xlink:title="key_backward">
<polygon fill="white" stroke="black" points="585,-175 585,-199 665,-199 665,-175 585,-175"/>
<text text-anchor="middle" x="625" y="-186" font-family="Helvetica,sans-Serif" font-size="10.00">key_backward</text>
</a>
</g>
<!-- Node1&#45;&gt;Node14 -->
<g id="edge116" class="edge"><title>Node1&#45;&gt;Node14</title>
<path fill="none" stroke="midnightblue" d="M121.653,-155.154C240.523,-162.675 488.052,-178.335 584.913,-184.464"/>
<polygon fill="midnightblue" stroke="midnightblue" points="121.795,-151.656 111.594,-154.517 121.353,-158.642 121.795,-151.656"/>
</g>
<!-- Node16 -->
<g id="node35" class="node"><title>Node16</title>
<a xlink:href="keyboard__functions2_8cpp.html#a6b73a3669797504ce2e357d9a8b9a2c2" target="_top" xlink:title="key_forward">
<polygon fill="white" stroke="black" points="590,-133 590,-157 660,-157 660,-133 590,-133"/>
<text text-anchor="middle" x="625" y="-144" font-family="Helvetica,sans-Serif" font-size="10.00">key_forward</text>
</a>
</g>
<!-- Node1&#45;&gt;Node16 -->
<g id="edge118" class="edge"><title>Node1&#45;&gt;Node16</title>
<path fill="none" stroke="midnightblue" d="M121.831,-150.306C242.866,-149.03 496.857,-146.351 589.889,-145.37"/>
<polygon fill="midnightblue" stroke="midnightblue" points="121.557,-146.808 111.594,-150.414 121.631,-153.808 121.557,-146.808"/>
</g>
<!-- Node36 -->
<g id="node88" class="node"><title>Node36</title>
<a xlink:href="dmx__functions__13_8cpp.html#a395f98122a0ab76bb36a86b53881916b" target="_top" xlink:title="refresh_modified_levels\l_in_crossfade">
<polygon fill="white" stroke="black" points="148.5,-48 148.5,-88 267.5,-88 267.5,-48 148.5,-48"/>
<text text-anchor="start" x="156.5" y="-75" font-family="Helvetica,sans-Serif" font-size="10.00">refresh_modified_levels</text>
<text text-anchor="middle" x="208" y="-59" font-family="Helvetica,sans-Serif" font-size="10.00">_in_crossfade</text>
</a>
</g>
<!-- Node1&#45;&gt;Node36 -->
<g id="edge104" class="edge"><title>Node1&#45;&gt;Node36</title>
<path fill="none" stroke="midnightblue" d="M101.731,-126.029C123.98,-113.879 150.367,-99.4707 171.281,-88.0506"/>
<polygon fill="midnightblue" stroke="midnightblue" points="99.8943,-123.044 92.795,-130.908 103.249,-129.187 99.8943,-123.044"/>
</g>
<!-- Node3 -->
<g id="node5" class="node"><title>Node3</title>
<a xlink:href="arduino__core__6___u_n_o_8cpp.html#a219226c1cd6cc17c78e62fd4445bb445" target="_top" xlink:title="arduino_do_digital\l_in_whitecat">
<polygon fill="white" stroke="black" points="1015.5,-431 1015.5,-471 1110.5,-471 1110.5,-431 1015.5,-431"/>
<text text-anchor="start" x="1023.5" y="-458" font-family="Helvetica,sans-Serif" font-size="10.00">arduino_do_digital</text>
<text text-anchor="middle" x="1063" y="-442" font-family="Helvetica,sans-Serif" font-size="10.00">_in_whitecat</text>
</a>
</g>
<!-- Node2&#45;&gt;Node3 -->
<g id="edge4" class="edge"><title>Node2&#45;&gt;Node3</title>
<path fill="none" stroke="midnightblue" d="M220.743,-308.834C255.421,-362.628 357.301,-502 482,-502 482,-502 482,-502 786,-502 867.661,-502 960.658,-480.297 1015.45,-465.206"/>
<polygon fill="midnightblue" stroke="midnightblue" points="223.535,-306.701 215.233,-300.119 217.618,-310.442 223.535,-306.701"/>
</g>
<!-- Node6 -->
<g id="node11" class="node"><title>Node6</title>
<a xlink:href="banger__core__8_8cpp.html#ae4008269e0575da11cc90e812961ef6f" target="_top" xlink:title="Bang_event">
<polygon fill="white" stroke="black" points="316,-324 316,-348 384,-348 384,-324 316,-324"/>
<text text-anchor="middle" x="350" y="-335" font-family="Helvetica,sans-Serif" font-size="10.00">Bang_event</text>
</a>
</g>
<!-- Node2&#45;&gt;Node6 -->
<g id="edge10" class="edge"><title>Node2&#45;&gt;Node6</title>
<path fill="none" stroke="midnightblue" d="M253.446,-303.362C273.618,-310.181 296.965,-318.073 315.648,-324.388"/>
<polygon fill="midnightblue" stroke="midnightblue" points="254.427,-299.999 243.833,-300.112 252.185,-306.63 254.427,-299.999"/>
</g>
<!-- Node12 -->
<g id="node25" class="node"><title>Node12</title>
<a xlink:href="i_cat14_8cpp.html#a16285241f82898e7a5f051b03d90b9a3" target="_top" xlink:title="check_button">
<polygon fill="white" stroke="black" points="587.5,-221 587.5,-245 662.5,-245 662.5,-221 587.5,-221"/>
<text text-anchor="middle" x="625" y="-232" font-family="Helvetica,sans-Serif" font-size="10.00">check_button</text>
</a>
</g>
<!-- Node2&#45;&gt;Node12 -->
<g id="edge92" class="edge"><title>Node2&#45;&gt;Node12</title>
<path fill="none" stroke="midnightblue" d="M250.825,-272.671C295.397,-257.592 367.561,-235.617 432,-227 476.052,-221.109 487.579,-225.569 532,-227 550.273,-227.589 570.535,-228.827 587.469,-230.026"/>
<polygon fill="midnightblue" stroke="midnightblue" points="249.529,-269.416 241.201,-275.966 251.796,-276.039 249.529,-269.416"/>
</g>
<!-- Node17 -->
<g id="node38" class="node"><title>Node17</title>
<a xlink:href="midi__13_8cpp.html#a6dff3d42682b58cc0a9875ee30fb4cd4" target="_top" xlink:title="do_midi_job">
<polygon fill="white" stroke="black" points="591,-412 591,-436 659,-436 659,-412 591,-412"/>
<text text-anchor="middle" x="625" y="-423" font-family="Helvetica,sans-Serif" font-size="10.00">do_midi_job</text>
</a>
</g>
<!-- Node2&#45;&gt;Node17 -->
<g id="edge98" class="edge"><title>Node2&#45;&gt;Node17</title>
<path fill="none" stroke="midnightblue" d="M228.306,-307.266C265.252,-340.763 347.485,-408.328 432,-431 486.081,-445.508 551.735,-438.109 590.848,-431.21"/>
<polygon fill="midnightblue" stroke="midnightblue" points="230.448,-304.481 220.72,-300.285 225.708,-309.632 230.448,-304.481"/>
</g>
<!-- Node34 -->
<g id="node81" class="node"><title>Node34</title>
<a xlink:href="keyboard__functions2_8cpp.html#a1069ef07040abfea667ec14eeefe7e56" target="_top" xlink:title="key_go">
<polygon fill="white" stroke="black" points="326,-80 326,-104 374,-104 374,-80 326,-80"/>
<text text-anchor="middle" x="350" y="-91" font-family="Helvetica,sans-Serif" font-size="10.00">key_go</text>
</a>
</g>
<!-- Node2&#45;&gt;Node34 -->
<g id="edge94" class="edge"><title>Node2&#45;&gt;Node34</title>
<path fill="none" stroke="midnightblue" d="M222.751,-267.639C252.174,-227.027 317.367,-137.043 341.121,-104.256"/>
<polygon fill="midnightblue" stroke="midnightblue" points="219.915,-265.588 216.883,-275.739 225.584,-269.695 219.915,-265.588"/>
</g>
<!-- Node35 -->
<g id="node85" class="node"><title>Node35</title>
<a xlink:href="sequentiel__6__core_8cpp.html#a152c03ccf49d8d9a457e048daaa48023" target="_top" xlink:title="do_logical_x1_x2">
<polygon fill="white" stroke="black" points="304,-276 304,-300 396,-300 396,-276 304,-276"/>
<text text-anchor="middle" x="350" y="-287" font-family="Helvetica,sans-Serif" font-size="10.00">do_logical_x1_x2</text>
</a>
</g>
<!-- Node2&#45;&gt;Node35 -->
<g id="edge100" class="edge"><title>Node2&#45;&gt;Node35</title>
<path fill="none" stroke="midnightblue" d="M276.263,-288C285.618,-288 295.038,-288 303.869,-288"/>
<polygon fill="midnightblue" stroke="midnightblue" points="276.167,-284.5 266.167,-288 276.167,-291.5 276.167,-284.5"/>
</g>
<!-- Node4 -->
<g id="node7" class="node"><title>Node4</title>
<a xlink:href="_m_a_i_n__avec__objets_8cpp.html#ace9c8a9b37c6087c3cffef442d71d70e" target="_top" xlink:title="dixiemes_de_secondes">
<polygon fill="white" stroke="black" points="1154.5,-381 1154.5,-405 1273.5,-405 1273.5,-381 1154.5,-381"/>
<text text-anchor="middle" x="1214" y="-392" font-family="Helvetica,sans-Serif" font-size="10.00">dixiemes_de_secondes</text>
</a>
</g>
<!-- Node3&#45;&gt;Node4 -->
<g id="edge6" class="edge"><title>Node3&#45;&gt;Node4</title>
<path fill="none" stroke="midnightblue" d="M1120.34,-428.977C1141.51,-420.846 1164.7,-411.936 1182.71,-405.018"/>
<polygon fill="midnightblue" stroke="midnightblue" points="1118.86,-425.795 1110.78,-432.648 1121.37,-432.33 1118.86,-425.795"/>
</g>
<!-- Node5 -->
<g id="node9" class="node"><title>Node5</title>
<a xlink:href="_m_a_i_n__avec__objets_8cpp.html#ae66f6b31b5ad750f1fe042a706a4e3d4" target="_top" xlink:title="main">
<polygon fill="white" stroke="black" points="2192,-183 2192,-207 2230,-207 2230,-183 2192,-183"/>
<text text-anchor="middle" x="2211" y="-194" font-family="Helvetica,sans-Serif" font-size="10.00">main</text>
</a>
</g>
<!-- Node4&#45;&gt;Node5 -->
<g id="edge8" class="edge"><title>Node4&#45;&gt;Node5</title>
<path fill="none" stroke="midnightblue" d="M1247.41,-376.708C1296.35,-354.378 1390.97,-317 1476,-317 1476,-317 1476,-317 1972,-317 2059.5,-317 2081.89,-293.51 2156,-247 2173.59,-235.964 2190.41,-218.742 2200.72,-207.175"/>
<polygon fill="midnightblue" stroke="midnightblue" points="1245.84,-373.575 1238.24,-380.958 1248.79,-379.925 1245.84,-373.575"/>
</g>
<!-- Node7 -->
<g id="node13" class="node"><title>Node7</title>
<a xlink:href="banger__core__8_8cpp.html#a4003a08a1620546de77b118c91d2fd9d" target="_top" xlink:title="do_bang">
<polygon fill="white" stroke="black" points="455.5,-374 455.5,-398 508.5,-398 508.5,-374 455.5,-374"/>
<text text-anchor="middle" x="482" y="-385" font-family="Helvetica,sans-Serif" font-size="10.00">do_bang</text>
</a>
</g>
<!-- Node6&#45;&gt;Node7 -->
<g id="edge12" class="edge"><title>Node6&#45;&gt;Node7</title>
<path fill="none" stroke="midnightblue" d="M391.519,-351.727C412.337,-359.613 436.941,-368.932 455.233,-375.861"/>
<polygon fill="midnightblue" stroke="midnightblue" points="392.545,-348.373 381.954,-348.104 390.065,-354.919 392.545,-348.373"/>
</g>
<!-- Node9 -->
<g id="node18" class="node"><title>Node9</title>
<a xlink:href="banger__core__8_8cpp.html#a4fe16ad483c0c1609d97aeb9a23c74ee" target="_top" xlink:title="do_logical_fenetre\l_banger">
<polygon fill="white" stroke="black" points="434.5,-316 434.5,-356 529.5,-356 529.5,-316 434.5,-316"/>
<text text-anchor="start" x="442.5" y="-343" font-family="Helvetica,sans-Serif" font-size="10.00">do_logical_fenetre</text>
<text text-anchor="middle" x="482" y="-327" font-family="Helvetica,sans-Serif" font-size="10.00">_banger</text>
</a>
</g>
<!-- Node6&#45;&gt;Node9 -->
<g id="edge18" class="edge"><title>Node6&#45;&gt;Node9</title>
<path fill="none" stroke="midnightblue" d="M394.357,-336C407.237,-336 421.352,-336 434.421,-336"/>
<polygon fill="midnightblue" stroke="midnightblue" points="394.337,-332.5 384.337,-336 394.337,-339.5 394.337,-332.5"/>
</g>
<!-- Node11 -->
<g id="node23" class="node"><title>Node11</title>
<a xlink:href="banger__core__8_8cpp.html#ab405ab53ea444b049e5ffa258498fcb6" target="_top" xlink:title="refresh_banger_wx">
<polygon fill="white" stroke="black" points="432.5,-236 432.5,-260 531.5,-260 531.5,-236 432.5,-236"/>
<text text-anchor="middle" x="482" y="-247" font-family="Helvetica,sans-Serif" font-size="10.00">refresh_banger_wx</text>
</a>
</g>
<!-- Node6&#45;&gt;Node11 -->
<g id="edge24" class="edge"><title>Node6&#45;&gt;Node11</title>
<path fill="none" stroke="midnightblue" d="M380.398,-318.657C385.649,-315.52 391.018,-312.22 396,-309 420.904,-292.901 448.728,-272.75 465.803,-260.122"/>
<polygon fill="midnightblue" stroke="midnightblue" points="378.605,-315.652 371.763,-323.741 382.156,-321.684 378.605,-315.652"/>
</g>
<!-- Node6&#45;&gt;Node17 -->
<g id="edge90" class="edge"><title>Node6&#45;&gt;Node17</title>
<path fill="none" stroke="midnightblue" d="M366.267,-355.784C381.373,-372.605 405.477,-395.763 432,-407 484.032,-429.044 550.89,-429.477 590.707,-427.169"/>
<polygon fill="midnightblue" stroke="midnightblue" points="368.804,-353.368 359.603,-348.116 363.521,-357.959 368.804,-353.368"/>
</g>
<!-- Node8 -->
<g id="node15" class="node"><title>Node8</title>
<a xlink:href="_m_a_i_n__avec__objets_8cpp.html#a8e80f54ac804eddce8ed6e45adb1db44" target="_top" xlink:title="ticker_full_loop">
<polygon fill="white" stroke="black" points="890,-221 890,-245 972,-245 972,-221 890,-221"/>
<text text-anchor="middle" x="931" y="-232" font-family="Helvetica,sans-Serif" font-size="10.00">ticker_full_loop</text>
</a>
</g>
<!-- Node7&#45;&gt;Node8 -->
<g id="edge14" class="edge"><title>Node7&#45;&gt;Node8</title>
<path fill="none" stroke="midnightblue" d="M518.656,-385.95C588.295,-384.375 742.698,-373.68 854,-313 884.635,-296.298 910.442,-263.222 922.934,-245.276"/>
<polygon fill="midnightblue" stroke="midnightblue" points="518.555,-382.452 508.618,-386.127 518.678,-389.45 518.555,-382.452"/>
</g>
<!-- Node8&#45;&gt;Node5 -->
<g id="edge16" class="edge"><title>Node8&#45;&gt;Node5</title>
<path fill="none" stroke="midnightblue" d="M982.387,-233C1039.09,-233 1133.06,-233 1214,-233 1214,-233 1214,-233 1972,-233 2054.47,-233 2075.01,-224.533 2156,-209 2168,-206.699 2181.28,-203.342 2191.78,-200.493"/>
<polygon fill="midnightblue" stroke="midnightblue" points="982.244,-229.5 972.244,-233 982.244,-236.5 982.244,-229.5"/>
</g>
<!-- Node10 -->
<g id="node20" class="node"><title>Node10</title>
<a xlink:href="procs__visuels__rebuild1_8cpp.html#ae710b6e599e321ad5934a90140067054" target="_top" xlink:title="check_graphics_mouse\l_handling">
<polygon fill="white" stroke="black" points="726.5,-264 726.5,-304 845.5,-304 845.5,-264 726.5,-264"/>
<text text-anchor="start" x="734.5" y="-291" font-family="Helvetica,sans-Serif" font-size="10.00">check_graphics_mouse</text>
<text text-anchor="middle" x="786" y="-275" font-family="Helvetica,sans-Serif" font-size="10.00">_handling</text>
</a>
</g>
<!-- Node9&#45;&gt;Node10 -->
<g id="edge20" class="edge"><title>Node9&#45;&gt;Node10</title>
<path fill="none" stroke="midnightblue" d="M539.744,-331.782C579.892,-328.26 634.511,-322.292 682,-313 696.532,-310.157 712,-306.306 726.441,-302.342"/>
<polygon fill="midnightblue" stroke="midnightblue" points="539.269,-328.31 529.603,-332.647 539.864,-335.285 539.269,-328.31"/>
</g>
<!-- Node10&#45;&gt;Node8 -->
<g id="edge22" class="edge"><title>Node10&#45;&gt;Node8</title>
<path fill="none" stroke="midnightblue" d="M852.399,-260.646C867.784,-255.234 883.539,-249.693 896.865,-245.006"/>
<polygon fill="midnightblue" stroke="midnightblue" points="851.164,-257.37 842.892,-263.99 853.486,-263.973 851.164,-257.37"/>
</g>
<!-- Node11&#45;&gt;Node12 -->
<g id="edge26" class="edge"><title>Node11&#45;&gt;Node12</title>
<path fill="none" stroke="midnightblue" d="M541.613,-241.747C557.044,-240.128 573.235,-238.43 587.202,-236.965"/>
<polygon fill="midnightblue" stroke="midnightblue" points="541.193,-238.272 531.613,-242.796 541.924,-245.233 541.193,-238.272"/>
</g>
<!-- Node11&#45;&gt;Node14 -->
<g id="edge32" class="edge"><title>Node11&#45;&gt;Node14</title>
<path fill="none" stroke="midnightblue" d="M519.497,-232.005C543.705,-221.678 574.69,-208.461 596.806,-199.027"/>
<polygon fill="midnightblue" stroke="midnightblue" points="518.077,-228.805 510.252,-235.948 520.824,-235.244 518.077,-228.805"/>
</g>
<!-- Node11&#45;&gt;Node16 -->
<g id="edge38" class="edge"><title>Node11&#45;&gt;Node16</title>
<path fill="none" stroke="midnightblue" d="M498.584,-228.063C514.695,-209.779 540.671,-183.031 568,-166 574.713,-161.817 582.385,-158.282 589.877,-155.375"/>
<polygon fill="midnightblue" stroke="midnightblue" points="495.789,-225.945 491.906,-235.803 501.088,-230.518 495.789,-225.945"/>
</g>
<!-- Node11&#45;&gt;Node17 -->
<g id="edge42" class="edge"><title>Node11&#45;&gt;Node17</title>
<path fill="none" stroke="midnightblue" d="M499.019,-267.768C508.764,-279.164 521.169,-293.805 532,-307 563.115,-344.907 598.977,-390.614 615.618,-411.942"/>
<polygon fill="midnightblue" stroke="midnightblue" points="501.62,-265.424 492.455,-260.11 496.306,-269.98 501.62,-265.424"/>
</g>
<!-- Node33 -->
<g id="node76" class="node"><title>Node33</title>
<a xlink:href="sequentiel__6__core_8cpp.html#a2a71c851cf25565491dd10423bc80380" target="_top" xlink:title="do_logical_Sequenciel\l_Window">
<polygon fill="white" stroke="black" points="568.5,-264 568.5,-304 681.5,-304 681.5,-264 568.5,-264"/>
<text text-anchor="start" x="576.5" y="-291" font-family="Helvetica,sans-Serif" font-size="10.00">do_logical_Sequenciel</text>
<text text-anchor="middle" x="625" y="-275" font-family="Helvetica,sans-Serif" font-size="10.00">_Window</text>
</a>
</g>
<!-- Node11&#45;&gt;Node33 -->
<g id="edge86" class="edge"><title>Node11&#45;&gt;Node33</title>
<path fill="none" stroke="midnightblue" d="M539.733,-262.534C549.204,-264.918 559.009,-267.387 568.451,-269.764"/>
<polygon fill="midnightblue" stroke="midnightblue" points="540.567,-259.135 530.015,-260.088 538.858,-265.923 540.567,-259.135"/>
</g>
<!-- Node13 -->
<g id="node27" class="node"><title>Node13</title>
<a xlink:href="i_cat14_8cpp.html#aa9772b548765a631d4bae1c14053b4e1" target="_top" xlink:title="DoJobFantastickTouch">
<polygon fill="white" stroke="black" points="727.5,-221 727.5,-245 844.5,-245 844.5,-221 727.5,-221"/>
<text text-anchor="middle" x="786" y="-232" font-family="Helvetica,sans-Serif" font-size="10.00">DoJobFantastickTouch</text>
</a>
</g>
<!-- Node12&#45;&gt;Node13 -->
<g id="edge28" class="edge"><title>Node12&#45;&gt;Node13</title>
<path fill="none" stroke="midnightblue" d="M673.039,-233C690.111,-233 709.521,-233 727.378,-233"/>
<polygon fill="midnightblue" stroke="midnightblue" points="672.747,-229.5 662.747,-233 672.747,-236.5 672.747,-229.5"/>
</g>
<!-- Node13&#45;&gt;Node8 -->
<g id="edge30" class="edge"><title>Node13&#45;&gt;Node8</title>
<path fill="none" stroke="midnightblue" d="M854.913,-233C866.77,-233 878.754,-233 889.594,-233"/>
<polygon fill="midnightblue" stroke="midnightblue" points="854.559,-229.5 844.559,-233 854.559,-236.5 854.559,-229.5"/>
</g>
<!-- Node15 -->
<g id="node32" class="node"><title>Node15</title>
<a xlink:href="keyboard__routines2_8cpp.html#a8563320b8eab661232619224650de244" target="_top" xlink:title="commandes_clavier">
<polygon fill="white" stroke="black" points="734,-171 734,-195 838,-195 838,-171 734,-171"/>
<text text-anchor="middle" x="786" y="-182" font-family="Helvetica,sans-Serif" font-size="10.00">commandes_clavier</text>
</a>
</g>
<!-- Node14&#45;&gt;Node15 -->
<g id="edge34" class="edge"><title>Node14&#45;&gt;Node15</title>
<path fill="none" stroke="midnightblue" d="M675.27,-185.751C693.898,-185.288 715.053,-184.763 733.845,-184.296"/>
<polygon fill="midnightblue" stroke="midnightblue" points="675.122,-182.254 665.212,-186.001 675.296,-189.251 675.122,-182.254"/>
</g>
<!-- Node15&#45;&gt;Node8 -->
<g id="edge36" class="edge"><title>Node15&#45;&gt;Node8</title>
<path fill="none" stroke="midnightblue" d="M830.76,-198.435C851.743,-205.67 876.376,-214.164 895.972,-220.921"/>
<polygon fill="midnightblue" stroke="midnightblue" points="831.695,-195.055 821.1,-195.104 829.413,-201.672 831.695,-195.055"/>
</g>
<!-- Node16&#45;&gt;Node15 -->
<g id="edge40" class="edge"><title>Node16&#45;&gt;Node15</title>
<path fill="none" stroke="midnightblue" d="M670.183,-155.664C690.302,-160.413 714.093,-166.028 734.862,-170.93"/>
<polygon fill="midnightblue" stroke="midnightblue" points="670.869,-152.23 660.332,-153.339 669.261,-159.043 670.869,-152.23"/>
</g>
<!-- Node18 -->
<g id="node40" class="node"><title>Node18</title>
<a xlink:href="midi__13_8cpp.html#a6bedf9750195224914cd87c4e73ab626" target="_top" xlink:title="ventilate_midi_to_midiarray">
<polygon fill="white" stroke="black" points="718.5,-410 718.5,-434 853.5,-434 853.5,-410 718.5,-410"/>
<text text-anchor="middle" x="786" y="-421" font-family="Helvetica,sans-Serif" font-size="10.00">ventilate_midi_to_midiarray</text>
</a>
</g>
<!-- Node17&#45;&gt;Node18 -->
<g id="edge44" class="edge"><title>Node17&#45;&gt;Node18</title>
<path fill="none" stroke="midnightblue" d="M669.272,-423.45C684.455,-423.261 701.811,-423.046 718.414,-422.84"/>
<polygon fill="midnightblue" stroke="midnightblue" points="669.1,-419.952 659.144,-423.576 669.187,-426.951 669.1,-419.952"/>
</g>
<!-- Node19 -->
<g id="node42" class="node"><title>Node19</title>
<a xlink:href="midi__13_8cpp.html#afa49dd5668303c2448676c8243737c2d" target="_top" xlink:title="simulate_midi">
<polygon fill="white" stroke="black" points="892.5,-410 892.5,-434 969.5,-434 969.5,-410 892.5,-410"/>
<text text-anchor="middle" x="931" y="-421" font-family="Helvetica,sans-Serif" font-size="10.00">simulate_midi</text>
</a>
</g>
<!-- Node18&#45;&gt;Node19 -->
<g id="edge46" class="edge"><title>Node18&#45;&gt;Node19</title>
<path fill="none" stroke="midnightblue" d="M864.103,-422C873.941,-422 883.642,-422 892.473,-422"/>
<polygon fill="midnightblue" stroke="midnightblue" points="863.83,-418.5 853.83,-422 863.83,-425.5 863.83,-418.5"/>
</g>
<!-- Node21 -->
<g id="node48" class="node"><title>Node21</title>
<a xlink:href="midi__13_8cpp.html#a4104c2ae7e71376ad9dc78929450dc51" target="_top" xlink:title="EvAquire">
<polygon fill="white" stroke="black" points="903,-316 903,-340 959,-340 959,-316 903,-316"/>
<text text-anchor="middle" x="931" y="-327" font-family="Helvetica,sans-Serif" font-size="10.00">EvAquire</text>
</a>
</g>
<!-- Node18&#45;&gt;Node21 -->
<g id="edge54" class="edge"><title>Node18&#45;&gt;Node21</title>
<path fill="none" stroke="midnightblue" d="M827.586,-405.851C836.539,-401.775 845.777,-397.093 854,-392 878.828,-376.625 904.23,-353.867 918.761,-340.038"/>
<polygon fill="midnightblue" stroke="midnightblue" points="826.167,-402.651 818.413,-409.87 828.977,-409.062 826.167,-402.651"/>
</g>
<!-- Node19&#45;&gt;Node3 -->
<g id="edge52" class="edge"><title>Node19&#45;&gt;Node3</title>
<path fill="none" stroke="midnightblue" d="M979.541,-432.664C991.203,-435.226 1003.65,-437.96 1015.27,-440.514"/>
<polygon fill="midnightblue" stroke="midnightblue" points="980.053,-429.193 969.535,-430.466 978.551,-436.03 980.053,-429.193"/>
</g>
<!-- Node20 -->
<g id="node44" class="node"><title>Node20</title>
<a xlink:href="arduino__core__6___u_n_o_8cpp.html#ae72d1a8d74d9ab5515962e03e7e664d6" target="_top" xlink:title="arduino_do_analog_in\l_whitecat">
<polygon fill="white" stroke="black" points="1008,-373 1008,-413 1118,-413 1118,-373 1008,-373"/>
<text text-anchor="start" x="1016" y="-400" font-family="Helvetica,sans-Serif" font-size="10.00">arduino_do_analog_in</text>
<text text-anchor="middle" x="1063" y="-384" font-family="Helvetica,sans-Serif" font-size="10.00">_whitecat</text>
</a>
</g>
<!-- Node19&#45;&gt;Node20 -->
<g id="edge48" class="edge"><title>Node19&#45;&gt;Node20</title>
<path fill="none" stroke="midnightblue" d="M979.39,-411.369C988.691,-409.325 998.495,-407.172 1007.99,-405.086"/>
<polygon fill="midnightblue" stroke="midnightblue" points="978.551,-407.97 969.535,-413.534 980.053,-414.807 978.551,-407.97"/>
</g>
<!-- Node20&#45;&gt;Node4 -->
<g id="edge50" class="edge"><title>Node20&#45;&gt;Node4</title>
<path fill="none" stroke="midnightblue" d="M1128.38,-393C1137,-393 1145.8,-393 1154.32,-393"/>
<polygon fill="midnightblue" stroke="midnightblue" points="1128.37,-389.5 1118.37,-393 1128.37,-396.5 1128.37,-389.5"/>
</g>
<!-- Node22 -->
<g id="node50" class="node"><title>Node22</title>
<a xlink:href="midi__13_8cpp.html#a831f1dfc7870ae4f6c64a0e65fbaf3ff" target="_top" xlink:title="Display">
<polygon fill="white" stroke="black" points="1038,-111 1038,-135 1088,-135 1088,-111 1038,-111"/>
<text text-anchor="middle" x="1063" y="-122" font-family="Helvetica,sans-Serif" font-size="10.00">Display</text>
</a>
</g>
<!-- Node21&#45;&gt;Node22 -->
<g id="edge56" class="edge"><title>Node21&#45;&gt;Node22</title>
<path fill="none" stroke="midnightblue" d="M944.291,-307.358C971.615,-264.924 1033.36,-169.037 1055.18,-135.146"/>
<polygon fill="midnightblue" stroke="midnightblue" points="941.333,-305.488 938.862,-315.79 947.218,-309.277 941.333,-305.488"/>
</g>
<!-- Node23 -->
<g id="node52" class="node"><title>Node23</title>
<a xlink:href="midi__13_8cpp.html#aa4aeee5088a4a5462566dfee5c9cc71f" target="_top" xlink:title="DisplayTask">
<polygon fill="white" stroke="black" points="1178.5,-0 1178.5,-24 1249.5,-24 1249.5,-0 1178.5,-0"/>
<text text-anchor="middle" x="1214" y="-11" font-family="Helvetica,sans-Serif" font-size="10.00">DisplayTask</text>
</a>
</g>
<!-- Node22&#45;&gt;Node23 -->
<g id="edge58" class="edge"><title>Node22&#45;&gt;Node23</title>
<path fill="none" stroke="midnightblue" d="M1087.58,-104.929C1118.58,-82.1395 1171.04,-43.5825 1197.57,-24.0753"/>
<polygon fill="midnightblue" stroke="midnightblue" points="1085.43,-102.167 1079.45,-110.91 1089.58,-107.807 1085.43,-102.167"/>
</g>
<!-- Node25 -->
<g id="node57" class="node"><title>Node25</title>
<a xlink:href="midi___c_o_r_e_8cpp.html#a6fcb4c2efe85f50488d7aeeef1fc0a3e" target="_top" xlink:title="ReceiveEvents">
<polygon fill="white" stroke="black" points="1172.5,-111 1172.5,-135 1255.5,-135 1255.5,-111 1172.5,-111"/>
<text text-anchor="middle" x="1214" y="-122" font-family="Helvetica,sans-Serif" font-size="10.00">ReceiveEvents</text>
</a>
</g>
<!-- Node22&#45;&gt;Node25 -->
<g id="edge64" class="edge"><title>Node22&#45;&gt;Node25</title>
<path fill="none" stroke="midnightblue" d="M1098.56,-123C1120.68,-123 1149.21,-123 1172.37,-123"/>
<polygon fill="midnightblue" stroke="midnightblue" points="1098.27,-119.5 1088.27,-123 1098.27,-126.5 1098.27,-119.5"/>
</g>
<!-- Node24 -->
<g id="node54" class="node"><title>Node24</title>
<a xlink:href="midi___c_o_r_e_8cpp.html#a7d0f82d882071792d6a2df51ef13ec55" target="_top" xlink:title="ReceivePolling">
<polygon fill="white" stroke="black" points="1310,-1 1310,-25 1392,-25 1392,-1 1310,-1"/>
<text text-anchor="middle" x="1351" y="-12" font-family="Helvetica,sans-Serif" font-size="10.00">ReceivePolling</text>
</a>
</g>
<!-- Node23&#45;&gt;Node24 -->
<g id="edge60" class="edge"><title>Node23&#45;&gt;Node24</title>
<path fill="none" stroke="midnightblue" d="M1259.91,-12.3351C1276.02,-12.4527 1294.01,-12.584 1309.72,-12.6987"/>
<polygon fill="midnightblue" stroke="midnightblue" points="1259.66,-8.83331 1249.64,-12.2601 1259.61,-15.8331 1259.66,-8.83331"/>
</g>
<!-- Node24&#45;&gt;Node24 -->
<g id="edge62" class="edge"><title>Node24&#45;&gt;Node24</title>
<path fill="none" stroke="midnightblue" d="M1328.51,-35.0013C1330.81,-39.6474 1338.31,-43 1351,-43 1371.83,-43 1378.66,-33.9717 1371.5,-25.0139"/>
<polygon fill="midnightblue" stroke="midnightblue" points="1331.98,-35.5043 1330.5,-25.0139 1325.12,-34.1401 1331.98,-35.5043"/>
</g>
<!-- Node25&#45;&gt;Node24 -->
<g id="edge66" class="edge"><title>Node25&#45;&gt;Node24</title>
<path fill="none" stroke="midnightblue" d="M1237.27,-104.315C1265.37,-81.7509 1311.84,-44.4432 1335.75,-25.2468"/>
<polygon fill="midnightblue" stroke="midnightblue" points="1234.79,-101.818 1229.18,-110.808 1239.17,-107.276 1234.79,-101.818"/>
</g>
<!-- Node26 -->
<g id="node60" class="node"><title>Node26</title>
<a xlink:href="midi___c_o_r_e_8cpp.html#a0ccf480a33424e626f88d109d53d8366" target="_top" xlink:title="InitMidi">
<polygon fill="white" stroke="black" points="1327,-143 1327,-167 1375,-167 1375,-143 1327,-143"/>
<text text-anchor="middle" x="1351" y="-154" font-family="Helvetica,sans-Serif" font-size="10.00">InitMidi</text>
</a>
</g>
<!-- Node25&#45;&gt;Node26 -->
<g id="edge68" class="edge"><title>Node25&#45;&gt;Node26</title>
<path fill="none" stroke="midnightblue" d="M1265.64,-135.062C1286.68,-139.977 1309.99,-145.42 1326.92,-149.376"/>
<polygon fill="midnightblue" stroke="midnightblue" points="1266.38,-131.641 1255.85,-132.775 1264.79,-138.458 1266.38,-131.641"/>
</g>
<!-- Node26&#45;&gt;Node5 -->
<g id="edge70" class="edge"><title>Node26&#45;&gt;Node5</title>
<path fill="none" stroke="midnightblue" d="M1384.77,-165.449C1398.13,-169.253 1413.68,-173.283 1428,-176 1504.43,-190.502 1524.21,-195 1602,-195 1602,-195 1602,-195 1972,-195 2053.74,-195 2151.21,-195 2191.79,-195"/>
<polygon fill="midnightblue" stroke="midnightblue" points="1385.63,-162.052 1375.05,-162.608 1383.67,-168.771 1385.63,-162.052"/>
</g>
<!-- Node27 -->
<g id="node63" class="node"><title>Node27</title>
<a xlink:href="midi__13_8cpp.html#ac7a306aa81e374b447e7341d4d3a3eea" target="_top" xlink:title="midipage_devices">
<polygon fill="white" stroke="black" points="1428.5,-143 1428.5,-167 1523.5,-167 1523.5,-143 1428.5,-143"/>
<text text-anchor="middle" x="1476" y="-154" font-family="Helvetica,sans-Serif" font-size="10.00">midipage_devices</text>
</a>
</g>
<!-- Node26&#45;&gt;Node27 -->
<g id="edge72" class="edge"><title>Node26&#45;&gt;Node27</title>
<path fill="none" stroke="midnightblue" d="M1385.25,-155C1398.57,-155 1414.05,-155 1428.42,-155"/>
<polygon fill="midnightblue" stroke="midnightblue" points="1385.1,-151.5 1375.1,-155 1385.1,-158.5 1385.1,-151.5"/>
</g>
<!-- Node28 -->
<g id="node65" class="node"><title>Node28</title>
<a xlink:href="midi__13_8cpp.html#a8f70acacad6eaba8867bdd80dda5e277" target="_top" xlink:title="do_midi_config">
<polygon fill="white" stroke="black" points="1561,-143 1561,-167 1643,-167 1643,-143 1561,-143"/>
<text text-anchor="middle" x="1602" y="-154" font-family="Helvetica,sans-Serif" font-size="10.00">do_midi_config</text>
</a>
</g>
<!-- Node27&#45;&gt;Node28 -->
<g id="edge74" class="edge"><title>Node27&#45;&gt;Node28</title>
<path fill="none" stroke="midnightblue" d="M1533.84,-155C1542.97,-155 1552.25,-155 1560.9,-155"/>
<polygon fill="midnightblue" stroke="midnightblue" points="1533.64,-151.5 1523.64,-155 1533.64,-158.5 1533.64,-151.5"/>
</g>
<!-- Node29 -->
<g id="node67" class="node"><title>Node29</title>
<a xlink:href="_c_f_g__config__panel__8_8cpp.html#ad39c46e2fb3a3ba7ea0460140ead4f96" target="_top" xlink:title="do_panel_config">
<polygon fill="white" stroke="black" points="1680.5,-143 1680.5,-167 1767.5,-167 1767.5,-143 1680.5,-143"/>
<text text-anchor="middle" x="1724" y="-154" font-family="Helvetica,sans-Serif" font-size="10.00">do_panel_config</text>
</a>
</g>
<!-- Node28&#45;&gt;Node29 -->
<g id="edge76" class="edge"><title>Node28&#45;&gt;Node29</title>
<path fill="none" stroke="midnightblue" d="M1653.55,-155C1662.43,-155 1671.59,-155 1680.24,-155"/>
<polygon fill="midnightblue" stroke="midnightblue" points="1653.3,-151.5 1643.3,-155 1653.3,-158.5 1653.3,-151.5"/>
</g>
<!-- Node30 -->
<g id="node69" class="node"><title>Node30</title>
<a xlink:href="_c_f_g__config__panel__8_8cpp.html#a7968da66bccdba8b864caf6c8435f68e" target="_top" xlink:title="config_general_menu">
<polygon fill="white" stroke="black" points="1804.5,-143 1804.5,-167 1913.5,-167 1913.5,-143 1804.5,-143"/>
<text text-anchor="middle" x="1859" y="-154" font-family="Helvetica,sans-Serif" font-size="10.00">config_general_menu</text>
</a>
</g>
<!-- Node29&#45;&gt;Node30 -->
<g id="edge78" class="edge"><title>Node29&#45;&gt;Node30</title>
<path fill="none" stroke="midnightblue" d="M1778.07,-155C1786.62,-155 1795.47,-155 1804.04,-155"/>
<polygon fill="midnightblue" stroke="midnightblue" points="1777.83,-151.5 1767.83,-155 1777.83,-158.5 1777.83,-151.5"/>
</g>
<!-- Node31 -->
<g id="node71" class="node"><title>Node31</title>
<a xlink:href="graphics__rebuild1_8cpp.html#ac2eae1e03fb72cc734ffbcef566483bf" target="_top" xlink:title="Boxes">
<polygon fill="white" stroke="black" points="1950,-143 1950,-167 1994,-167 1994,-143 1950,-143"/>
<text text-anchor="middle" x="1972" y="-154" font-family="Helvetica,sans-Serif" font-size="10.00">Boxes</text>
</a>
</g>
<!-- Node30&#45;&gt;Node31 -->
<g id="edge80" class="edge"><title>Node30&#45;&gt;Node31</title>
<path fill="none" stroke="midnightblue" d="M1923.75,-155C1933.11,-155 1942.17,-155 1949.86,-155"/>
<polygon fill="midnightblue" stroke="midnightblue" points="1923.51,-151.5 1913.51,-155 1923.51,-158.5 1923.51,-151.5"/>
</g>
<!-- Node32 -->
<g id="node73" class="node"><title>Node32</title>
<a xlink:href="_m_a_i_n__avec__objets_8cpp.html#ade8d4ba65d55c94f8ee277829d722155" target="_top" xlink:title="main_actions_on_screen">
<polygon fill="white" stroke="black" points="2030.5,-143 2030.5,-167 2155.5,-167 2155.5,-143 2030.5,-143"/>
<text text-anchor="middle" x="2093" y="-154" font-family="Helvetica,sans-Serif" font-size="10.00">main_actions_on_screen</text>
</a>
</g>
<!-- Node31&#45;&gt;Node32 -->
<g id="edge82" class="edge"><title>Node31&#45;&gt;Node32</title>
<path fill="none" stroke="midnightblue" d="M2004.24,-155C2012.32,-155 2021.26,-155 2030.27,-155"/>
<polygon fill="midnightblue" stroke="midnightblue" points="2004.19,-151.5 1994.19,-155 2004.19,-158.5 2004.19,-151.5"/>
</g>
<!-- Node32&#45;&gt;Node5 -->
<g id="edge84" class="edge"><title>Node32&#45;&gt;Node5</title>
<path fill="none" stroke="midnightblue" d="M2137.92,-170.227C2156.55,-176.542 2177.16,-183.53 2191.74,-188.47"/>
<polygon fill="midnightblue" stroke="midnightblue" points="2139,-166.897 2128.4,-167.001 2136.75,-173.527 2139,-166.897"/>
</g>
<!-- Node33&#45;&gt;Node10 -->
<g id="edge88" class="edge"><title>Node33&#45;&gt;Node10</title>
<path fill="none" stroke="midnightblue" d="M692.106,-284C703.511,-284 715.286,-284 726.478,-284"/>
<polygon fill="midnightblue" stroke="midnightblue" points="691.763,-280.5 681.763,-284 691.763,-287.5 691.763,-280.5"/>
</g>
<!-- Node34&#45;&gt;Node15 -->
<g id="edge96" class="edge"><title>Node34&#45;&gt;Node15</title>
<path fill="none" stroke="midnightblue" d="M384.276,-90.6655C445.562,-89.2865 577.304,-90.9171 682,-124 715.452,-134.57 750.061,-156.897 769.72,-170.852"/>
<polygon fill="midnightblue" stroke="midnightblue" points="383.923,-87.1736 374.02,-90.9403 384.111,-94.1711 383.923,-87.1736"/>
</g>
<!-- Node35&#45;&gt;Node33 -->
<g id="edge102" class="edge"><title>Node35&#45;&gt;Node33</title>
<path fill="none" stroke="midnightblue" d="M406.106,-287.184C453.43,-286.496 520.853,-285.515 568.335,-284.824"/>
<polygon fill="midnightblue" stroke="midnightblue" points="405.977,-283.685 396.029,-287.33 406.079,-290.685 405.977,-283.685"/>
</g>
<!-- Node37 -->
<g id="node90" class="node"><title>Node37</title>
<a xlink:href="dmx__functions__13_8cpp.html#af8fd73062784b408e1c53510c7608d74" target="_top" xlink:title="do_crossfade">
<polygon fill="white" stroke="black" points="1313.5,-61 1313.5,-85 1388.5,-85 1388.5,-61 1313.5,-61"/>
<text text-anchor="middle" x="1351" y="-72" font-family="Helvetica,sans-Serif" font-size="10.00">do_crossfade</text>
</a>
</g>
<!-- Node36&#45;&gt;Node37 -->
<g id="edge106" class="edge"><title>Node36&#45;&gt;Node37</title>
<path fill="none" stroke="midnightblue" d="M277.584,-61.6905C332.927,-57.215 412.357,-52 482,-52 482,-52 482,-52 1063,-52 1152.99,-52 1258.37,-62.3245 1313.32,-68.495"/>
<polygon fill="midnightblue" stroke="midnightblue" points="277.218,-58.2086 267.538,-62.5161 277.791,-65.1851 277.218,-58.2086"/>
</g>
<!-- Node38 -->
<g id="node92" class="node"><title>Node38</title>
<a xlink:href="_m_a_i_n__avec__objets_8cpp.html#a6a015280c1363331ada8a329be6eb7c8" target="_top" xlink:title="ticker">
<polygon fill="white" stroke="black" points="1455.5,-61 1455.5,-85 1496.5,-85 1496.5,-61 1455.5,-61"/>
<text text-anchor="middle" x="1476" y="-72" font-family="Helvetica,sans-Serif" font-size="10.00">ticker</text>
</a>
</g>
<!-- Node37&#45;&gt;Node38 -->
<g id="edge108" class="edge"><title>Node37&#45;&gt;Node38</title>
<path fill="none" stroke="midnightblue" d="M1398.52,-73C1418.12,-73 1439.8,-73 1455.24,-73"/>
<polygon fill="midnightblue" stroke="midnightblue" points="1398.5,-69.5001 1388.5,-73 1398.5,-76.5001 1398.5,-69.5001"/>
</g>
<!-- Node38&#45;&gt;Node5 -->
<g id="edge114" class="edge"><title>Node38&#45;&gt;Node5</title>
<path fill="none" stroke="midnightblue" d="M1506.67,-73C1553.52,-73 1645.71,-73 1724,-73 1724,-73 1724,-73 1972,-73 2058.15,-73 2083.87,-86.8863 2156,-134 2176.06,-147.1 2193.48,-169.277 2203.08,-182.975"/>
<polygon fill="midnightblue" stroke="midnightblue" points="1506.58,-69.5001 1496.58,-73 1506.58,-76.5001 1506.58,-69.5001"/>
</g>
<!-- Node39 -->
<g id="node94" class="node"><title>Node39</title>
<a xlink:href="_c_f_g__config__panel__8_8cpp.html#aff76db94408106be22f658a05f17831a" target="_top" xlink:title="do_core_config">
<polygon fill="white" stroke="black" points="1560.5,-101 1560.5,-125 1643.5,-125 1643.5,-101 1560.5,-101"/>
<text text-anchor="middle" x="1602" y="-112" font-family="Helvetica,sans-Serif" font-size="10.00">do_core_config</text>
</a>
</g>
<!-- Node38&#45;&gt;Node39 -->
<g id="edge110" class="edge"><title>Node38&#45;&gt;Node39</title>
<path fill="none" stroke="midnightblue" d="M1506.18,-82.5796C1523.58,-88.1055 1545.63,-95.104 1564.18,-100.995"/>
<polygon fill="midnightblue" stroke="midnightblue" points="1507.11,-79.2056 1496.52,-79.5157 1505,-85.8775 1507.11,-79.2056"/>
</g>
<!-- Node39&#45;&gt;Node29 -->
<g id="edge112" class="edge"><title>Node39&#45;&gt;Node29</title>
<path fill="none" stroke="midnightblue" d="M1646.43,-128.296C1660.46,-133.127 1675.76,-138.393 1689.03,-142.963"/>
<polygon fill="midnightblue" stroke="midnightblue" points="1647.56,-124.981 1636.96,-125.036 1645.28,-131.6 1647.56,-124.981"/>
</g>
</g>
</svg>
