<?xml version="1.0" encoding="UTF-8" standalone="no"?>
<!DOCTYPE svg PUBLIC "-//W3C//DTD SVG 1.1//EN"
 "http://www.w3.org/Graphics/SVG/1.1/DTD/svg11.dtd">
<!-- Generated by graphviz version 2.26.3 (20100126.1600)
 -->
<!-- Title: build_preset_view_from_mem Pages: 1 -->
<svg width="458pt" height="60pt"
 viewBox="0.00 0.00 458.00 60.00" xmlns="http://www.w3.org/2000/svg" xmlns:xlink="http://www.w3.org/1999/xlink">
<g id="graph1" class="graph" transform="scale(1 1) rotate(0) translate(4 56)">
<title>build_preset_view_from_mem</title>
<polygon fill="white" stroke="white" points="-4,5 -4,-56 455,-56 455,5 -4,5"/>
<!-- Node1 -->
<g id="node1" class="node"><title>Node1</title>
<polygon fill="#bfbfbf" stroke="black" points="0,-8 0,-32 146,-32 146,-8 0,-8"/>
<text text-anchor="middle" x="73" y="-19" font-family="Helvetica,sans-Serif" font-size="10.00">build_preset_view_from_mem</text>
</g>
<!-- Node2 -->
<g id="node3" class="node"><title>Node2</title>
<a xlink:href="_c_o_r_e__6_8cpp.html#ab88648bb253532281d1c58fb9647290a" target="_top" xlink:title="clear_selection_in">
<polygon fill="white" stroke="black" points="182.5,-28 182.5,-52 277.5,-52 277.5,-28 182.5,-28"/>
<text text-anchor="middle" x="230" y="-39" font-family="Helvetica,sans-Serif" font-size="10.00">clear_selection_in</text>
</a>
</g>
<!-- Node1&#45;&gt;Node2 -->
<g id="edge2" class="edge"><title>Node1&#45;&gt;Node2</title>
<path fill="none" stroke="midnightblue" d="M146.444,-29.3559C155.068,-30.4545 163.773,-31.5635 172.142,-32.6296"/>
<polygon fill="midnightblue" stroke="midnightblue" points="171.793,-36.1133 182.155,-33.9051 172.678,-29.1694 171.793,-36.1133"/>
</g>
<!-- Node3 -->
<g id="node5" class="node"><title>Node3</title>
<a xlink:href="_c_o_r_e__6_8cpp.html#a39a8fa0905933794d58438ac52b93a76" target="_top" xlink:title="count_number_of_channels\l_in_view">
<polygon fill="white" stroke="black" points="314,-0 314,-40 450,-40 450,-0 314,-0"/>
<text text-anchor="start" x="322" y="-27" font-family="Helvetica,sans-Serif" font-size="10.00">count_number_of_channels</text>
<text text-anchor="middle" x="382" y="-11" font-family="Helvetica,sans-Serif" font-size="10.00">_in_view</text>
</a>
</g>
<!-- Node1&#45;&gt;Node3 -->
<g id="edge6" class="edge"><title>Node1&#45;&gt;Node3</title>
<path fill="none" stroke="midnightblue" d="M146.289,-19.2354C158.225,-19.1374 170.456,-19.053 182,-19 224.666,-18.8043 235.334,-18.7949 278,-19 286.306,-19.0399 294.985,-19.0978 303.634,-19.1659"/>
<polygon fill="midnightblue" stroke="midnightblue" points="303.722,-22.6666 313.751,-19.25 303.78,-15.6669 303.722,-22.6666"/>
</g>
<!-- Node2&#45;&gt;Node3 -->
<g id="edge4" class="edge"><title>Node2&#45;&gt;Node3</title>
<path fill="none" stroke="midnightblue" d="M277.677,-33.7267C286.027,-32.6281 294.909,-31.4594 303.831,-30.2854"/>
<polygon fill="midnightblue" stroke="midnightblue" points="304.437,-33.7359 313.895,-28.9612 303.524,-26.7957 304.437,-33.7359"/>
</g>
</g>
</svg>
