<?xml version="1.0" encoding="UTF-8" standalone="no"?>
<!DOCTYPE svg PUBLIC "-//W3C//DTD SVG 1.1//EN"
 "http://www.w3.org/Graphics/SVG/1.1/DTD/svg11.dtd">
<!-- Generated by graphviz version 2.26.3 (20100126.1600)
 -->
<!-- Title: return_lowest Pages: 1 -->
<svg width="850pt" height="74pt"
 viewBox="0.00 0.00 850.00 74.00" xmlns="http://www.w3.org/2000/svg" xmlns:xlink="http://www.w3.org/1999/xlink">
<g id="graph1" class="graph" transform="scale(1 1) rotate(0) translate(4 70)">
<title>return_lowest</title>
<polygon fill="white" stroke="white" points="-4,5 -4,-70 847,-70 847,5 -4,5"/>
<!-- Node1 -->
<g id="node1" class="node"><title>Node1</title>
<polygon fill="#bfbfbf" stroke="black" points="0.5,-21 0.5,-45 75.5,-45 75.5,-21 0.5,-21"/>
<text text-anchor="middle" x="38" y="-32" font-family="Helvetica,sans-Serif" font-size="10.00">return_lowest</text>
</g>
<!-- Node2 -->
<g id="node3" class="node"><title>Node2</title>
<a xlink:href="plot__core9_8cpp.html#a3877f5a66a0940ae945de82e3f6312d1" target="_top" xlink:title="plot_ventilate_x">
<polygon fill="white" stroke="black" points="112.5,-42 112.5,-66 197.5,-66 197.5,-42 112.5,-42"/>
<text text-anchor="middle" x="155" y="-53" font-family="Helvetica,sans-Serif" font-size="10.00">plot_ventilate_x</text>
</a>
</g>
<!-- Node1&#45;&gt;Node2 -->
<g id="edge2" class="edge"><title>Node1&#45;&gt;Node2</title>
<path fill="none" stroke="midnightblue" d="M85.7216,-41.5654C94.4614,-43.1341 103.534,-44.7624 112.121,-46.3038"/>
<polygon fill="midnightblue" stroke="midnightblue" points="86.1246,-38.0819 75.6636,-39.7601 84.8879,-44.9718 86.1246,-38.0819"/>
</g>
<!-- Node8 -->
<g id="node15" class="node"><title>Node8</title>
<a xlink:href="plot__core9_8cpp.html#a9549f983b62a28662b9fac6a071c246d" target="_top" xlink:title="plot_ventilate_y">
<polygon fill="white" stroke="black" points="112.5,-0 112.5,-24 197.5,-24 197.5,-0 112.5,-0"/>
<text text-anchor="middle" x="155" y="-11" font-family="Helvetica,sans-Serif" font-size="10.00">plot_ventilate_y</text>
</a>
</g>
<!-- Node1&#45;&gt;Node8 -->
<g id="edge14" class="edge"><title>Node1&#45;&gt;Node8</title>
<path fill="none" stroke="midnightblue" d="M85.7216,-24.4346C94.4614,-22.8659 103.534,-21.2376 112.121,-19.6962"/>
<polygon fill="midnightblue" stroke="midnightblue" points="84.8879,-21.0282 75.6636,-26.2399 86.1246,-27.9181 84.8879,-21.0282"/>
</g>
<!-- Node3 -->
<g id="node5" class="node"><title>Node3</title>
<a xlink:href="plot__core9_8cpp.html#a74a79a0e49b7f81a7cb8b944c77b3b0d" target="_top" xlink:title="logical_plot_symbol\l_edition">
<polygon fill="white" stroke="black" points="234,-13 234,-53 336,-53 336,-13 234,-13"/>
<text text-anchor="start" x="242" y="-40" font-family="Helvetica,sans-Serif" font-size="10.00">logical_plot_symbol</text>
<text text-anchor="middle" x="285" y="-24" font-family="Helvetica,sans-Serif" font-size="10.00">_edition</text>
</a>
</g>
<!-- Node2&#45;&gt;Node3 -->
<g id="edge4" class="edge"><title>Node2&#45;&gt;Node3</title>
<path fill="none" stroke="midnightblue" d="M207.531,-45.5142C216.171,-44.1185 225.117,-42.6735 233.726,-41.2828"/>
<polygon fill="midnightblue" stroke="midnightblue" points="206.881,-42.0738 197.567,-47.1238 207.997,-48.9842 206.881,-42.0738"/>
</g>
<!-- Node4 -->
<g id="node7" class="node"><title>Node4</title>
<a xlink:href="plot__core9_8cpp.html#a8959d98409d30cff9689b28771791f70" target="_top" xlink:title="do_logical_Plot_window">
<polygon fill="white" stroke="black" points="372.5,-21 372.5,-45 493.5,-45 493.5,-21 372.5,-21"/>
<text text-anchor="middle" x="433" y="-32" font-family="Helvetica,sans-Serif" font-size="10.00">do_logical_Plot_window</text>
</a>
</g>
<!-- Node3&#45;&gt;Node4 -->
<g id="edge6" class="edge"><title>Node3&#45;&gt;Node4</title>
<path fill="none" stroke="midnightblue" d="M346.586,-33C355.097,-33 363.834,-33 372.328,-33"/>
<polygon fill="midnightblue" stroke="midnightblue" points="346.348,-29.5001 336.348,-33 346.348,-36.5001 346.348,-29.5001"/>
</g>
<!-- Node5 -->
<g id="node9" class="node"><title>Node5</title>
<a xlink:href="procs__visuels__rebuild1_8cpp.html#ae710b6e599e321ad5934a90140067054" target="_top" xlink:title="check_graphics_mouse\l_handling">
<polygon fill="white" stroke="black" points="530.5,-13 530.5,-53 649.5,-53 649.5,-13 530.5,-13"/>
<text text-anchor="start" x="538.5" y="-40" font-family="Helvetica,sans-Serif" font-size="10.00">check_graphics_mouse</text>
<text text-anchor="middle" x="590" y="-24" font-family="Helvetica,sans-Serif" font-size="10.00">_handling</text>
</a>
</g>
<!-- Node4&#45;&gt;Node5 -->
<g id="edge8" class="edge"><title>Node4&#45;&gt;Node5</title>
<path fill="none" stroke="midnightblue" d="M503.718,-33C512.664,-33 521.747,-33 530.495,-33"/>
<polygon fill="midnightblue" stroke="midnightblue" points="503.7,-29.5001 493.7,-33 503.7,-36.5001 503.7,-29.5001"/>
</g>
<!-- Node6 -->
<g id="node11" class="node"><title>Node6</title>
<a xlink:href="_m_a_i_n__avec__objets_8cpp.html#a8e80f54ac804eddce8ed6e45adb1db44" target="_top" xlink:title="ticker_full_loop">
<polygon fill="white" stroke="black" points="686,-21 686,-45 768,-45 768,-21 686,-21"/>
<text text-anchor="middle" x="727" y="-32" font-family="Helvetica,sans-Serif" font-size="10.00">ticker_full_loop</text>
</a>
</g>
<!-- Node5&#45;&gt;Node6 -->
<g id="edge10" class="edge"><title>Node5&#45;&gt;Node6</title>
<path fill="none" stroke="midnightblue" d="M659.967,-33C668.737,-33 677.475,-33 685.605,-33"/>
<polygon fill="midnightblue" stroke="midnightblue" points="659.692,-29.5001 649.692,-33 659.692,-36.5001 659.692,-29.5001"/>
</g>
<!-- Node7 -->
<g id="node13" class="node"><title>Node7</title>
<a xlink:href="_m_a_i_n__avec__objets_8cpp.html#ae66f6b31b5ad750f1fe042a706a4e3d4" target="_top" xlink:title="main">
<polygon fill="white" stroke="black" points="804,-21 804,-45 842,-45 842,-21 804,-21"/>
<text text-anchor="middle" x="823" y="-32" font-family="Helvetica,sans-Serif" font-size="10.00">main</text>
</a>
</g>
<!-- Node6&#45;&gt;Node7 -->
<g id="edge12" class="edge"><title>Node6&#45;&gt;Node7</title>
<path fill="none" stroke="midnightblue" d="M778.509,-33C787.577,-33 796.476,-33 803.904,-33"/>
<polygon fill="midnightblue" stroke="midnightblue" points="778.27,-29.5001 768.27,-33 778.27,-36.5001 778.27,-29.5001"/>
</g>
<!-- Node8&#45;&gt;Node3 -->
<g id="edge16" class="edge"><title>Node8&#45;&gt;Node3</title>
<path fill="none" stroke="midnightblue" d="M207.531,-20.4858C216.171,-21.8815 225.117,-23.3265 233.726,-24.7172"/>
<polygon fill="midnightblue" stroke="midnightblue" points="207.997,-17.0158 197.567,-18.8762 206.881,-23.9262 207.997,-17.0158"/>
</g>
</g>
</svg>
