<?xml version="1.0" encoding="UTF-8" standalone="no"?>
<!DOCTYPE svg PUBLIC "-//W3C//DTD SVG 1.1//EN"
 "http://www.w3.org/Graphics/SVG/1.1/DTD/svg11.dtd">
<!-- Generated by graphviz version 2.26.3 (20100126.1600)
 -->
<!-- Title: constrain_int_data_to_this_range Pages: 1 -->
<svg width="1586pt" height="676pt"
 viewBox="0.00 0.00 1586.00 676.43" xmlns="http://www.w3.org/2000/svg" xmlns:xlink="http://www.w3.org/1999/xlink">
<g id="graph1" class="graph" transform="scale(1 1) rotate(0) translate(4 672.432)">
<title>constrain_int_data_to_this_range</title>
<polygon fill="white" stroke="white" points="-4,5 -4,-672.432 1583,-672.432 1583,5 -4,5"/>
<!-- Node1 -->
<g id="node1" class="node"><title>Node1</title>
<polygon fill="#bfbfbf" stroke="black" points="0,-113 0,-153 96,-153 96,-113 0,-113"/>
<text text-anchor="start" x="8" y="-140" font-family="Helvetica,sans-Serif" font-size="10.00">constrain_int_data</text>
<text text-anchor="middle" x="48" y="-124" font-family="Helvetica,sans-Serif" font-size="10.00">_to_this_range</text>
</g>
<!-- Node2 -->
<g id="node3" class="node"><title>Node2</title>
<a xlink:href="banger__core__8_8cpp.html#ae4008269e0575da11cc90e812961ef6f" target="_top" xlink:title="Bang_event">
<polygon fill="white" stroke="black" points="496,-278 496,-302 564,-302 564,-278 496,-278"/>
<text text-anchor="middle" x="530" y="-289" font-family="Helvetica,sans-Serif" font-size="10.00">Bang_event</text>
</a>
</g>
<!-- Node1&#45;&gt;Node2 -->
<g id="edge2" class="edge"><title>Node1&#45;&gt;Node2</title>
<path fill="none" stroke="midnightblue" d="M106.218,-151.963C207.849,-185.067 414.562,-252.399 495.965,-278.914"/>
<polygon fill="midnightblue" stroke="midnightblue" points="107.015,-148.542 96.4229,-148.773 104.847,-155.198 107.015,-148.542"/>
</g>
<!-- Node9 -->
<g id="node18" class="node"><title>Node9</title>
<a xlink:href="i_cat14_8cpp.html#a16285241f82898e7a5f051b03d90b9a3" target="_top" xlink:title="check_button">
<polygon fill="white" stroke="black" points="811.5,-117 811.5,-141 886.5,-141 886.5,-117 811.5,-117"/>
<text text-anchor="middle" x="849" y="-128" font-family="Helvetica,sans-Serif" font-size="10.00">check_button</text>
</a>
</g>
<!-- Node1&#45;&gt;Node9 -->
<g id="edge64" class="edge"><title>Node1&#45;&gt;Node9</title>
<path fill="none" stroke="midnightblue" d="M106.274,-133C168.765,-133 270.901,-133 359,-133 359,-133 359,-133 530,-133 631.634,-133 751.468,-130.945 811.191,-129.781"/>
<polygon fill="midnightblue" stroke="midnightblue" points="106.216,-129.5 96.2157,-133 106.216,-136.5 106.216,-129.5"/>
</g>
<!-- Node21 -->
<g id="node49" class="node"><title>Node21</title>
<a xlink:href="_draw3_8cpp.html#a2e1cbba7c06eaee357cede79ea4e4e1f" target="_top" xlink:title="do_logical_Draw_Window">
<polygon fill="white" stroke="black" points="294.5,-39 294.5,-63 423.5,-63 423.5,-39 294.5,-39"/>
<text text-anchor="middle" x="359" y="-50" font-family="Helvetica,sans-Serif" font-size="10.00">do_logical_Draw_Window</text>
</a>
</g>
<!-- Node1&#45;&gt;Node21 -->
<g id="edge56" class="edge"><title>Node1&#45;&gt;Node21</title>
<path fill="none" stroke="midnightblue" d="M102.739,-109.233C112.384,-105.51 122.408,-101.93 132,-99 185.74,-82.5824 248.317,-69.8043 294.143,-61.5742"/>
<polygon fill="midnightblue" stroke="midnightblue" points="101.261,-106.053 93.2489,-112.986 103.835,-112.563 101.261,-106.053"/>
</g>
<!-- Node22 -->
<g id="node52" class="node"><title>Node22</title>
<a xlink:href="echo3_8cpp.html#a440d7e78e4b39340e539bef8b9d7e2e1" target="_top" xlink:title="do_logical_echo_window">
<polygon fill="white" stroke="black" points="132.5,-0 132.5,-24 257.5,-24 257.5,-0 132.5,-0"/>
<text text-anchor="middle" x="195" y="-11" font-family="Helvetica,sans-Serif" font-size="10.00">do_logical_echo_window</text>
</a>
</g>
<!-- Node1&#45;&gt;Node22 -->
<g id="edge60" class="edge"><title>Node1&#45;&gt;Node22</title>
<path fill="none" stroke="midnightblue" d="M68.7595,-104.824C84.4375,-85.0293 107.4,-58.978 132,-41 141.138,-34.3218 152.059,-28.6379 162.222,-24.1185"/>
<polygon fill="midnightblue" stroke="midnightblue" points="65.8708,-102.838 62.5029,-112.883 71.4,-107.131 65.8708,-102.838"/>
</g>
<!-- Node23 -->
<g id="node56" class="node"><title>Node23</title>
<a xlink:href="i_cat14_8cpp.html#a843d8ebff54004e8109b3c481755ffc2" target="_top" xlink:title="check_tracker_zone">
<polygon fill="white" stroke="black" points="307,-81 307,-105 411,-105 411,-81 307,-81"/>
<text text-anchor="middle" x="359" y="-92" font-family="Helvetica,sans-Serif" font-size="10.00">check_tracker_zone</text>
</a>
</g>
<!-- Node1&#45;&gt;Node23 -->
<g id="edge66" class="edge"><title>Node1&#45;&gt;Node23</title>
<path fill="none" stroke="midnightblue" d="M106.333,-122.883C114.929,-121.507 123.687,-120.168 132,-119 191.708,-110.611 260.539,-103.018 306.61,-98.2328"/>
<polygon fill="midnightblue" stroke="midnightblue" points="105.66,-119.446 96.3518,-124.507 106.784,-126.355 105.66,-119.446"/>
</g>
<!-- Node24 -->
<g id="node59" class="node"><title>Node24</title>
<a xlink:href="icat__core14_8cpp.html#a73fdc8999a84e32c9274a3e6eef616ee" target="_top" xlink:title="refresh_continuously\l_iCat_buttons">
<polygon fill="white" stroke="black" points="141.5,-388 141.5,-428 248.5,-428 248.5,-388 141.5,-388"/>
<text text-anchor="start" x="149.5" y="-415" font-family="Helvetica,sans-Serif" font-size="10.00">refresh_continuously</text>
<text text-anchor="middle" x="195" y="-399" font-family="Helvetica,sans-Serif" font-size="10.00">_iCat_buttons</text>
</a>
</g>
<!-- Node1&#45;&gt;Node24 -->
<g id="edge70" class="edge"><title>Node1&#45;&gt;Node24</title>
<path fill="none" stroke="midnightblue" d="M63.6479,-162.273C93.6265,-218.356 158.461,-339.644 184.175,-387.749"/>
<polygon fill="midnightblue" stroke="midnightblue" points="66.6102,-160.391 58.8093,-153.221 60.4368,-163.69 66.6102,-160.391"/>
</g>
<!-- Node29 -->
<g id="node76" class="node"><title>Node29</title>
<a xlink:href="save__show__13_8cpp.html#a79587985e352a4fbda2370920c13d87e" target="_top" xlink:title="load_draw_preset_config">
<polygon fill="white" stroke="black" points="132.5,-519 132.5,-543 257.5,-543 257.5,-519 132.5,-519"/>
<text text-anchor="middle" x="195" y="-530" font-family="Helvetica,sans-Serif" font-size="10.00">load_draw_preset_config</text>
</a>
</g>
<!-- Node1&#45;&gt;Node29 -->
<g id="edge94" class="edge"><title>Node1&#45;&gt;Node29</title>
<path fill="none" stroke="midnightblue" d="M53.0355,-163.3C63.0531,-219.274 88.3596,-341.85 132,-437 146.578,-468.786 171.342,-501.815 185.078,-518.991"/>
<polygon fill="midnightblue" stroke="midnightblue" points="56.4625,-162.579 51.2883,-153.333 49.5676,-163.787 56.4625,-162.579"/>
</g>
<!-- Node3 -->
<g id="node5" class="node"><title>Node3</title>
<a xlink:href="banger__core__8_8cpp.html#a4003a08a1620546de77b118c91d2fd9d" target="_top" xlink:title="do_bang">
<polygon fill="white" stroke="black" points="669.5,-257 669.5,-281 722.5,-281 722.5,-257 669.5,-257"/>
<text text-anchor="middle" x="696" y="-268" font-family="Helvetica,sans-Serif" font-size="10.00">do_bang</text>
</a>
</g>
<!-- Node2&#45;&gt;Node3 -->
<g id="edge4" class="edge"><title>Node2&#45;&gt;Node3</title>
<path fill="none" stroke="midnightblue" d="M574.685,-284.347C604.903,-280.524 643.8,-275.604 669.295,-272.378"/>
<polygon fill="midnightblue" stroke="midnightblue" points="573.877,-280.921 564.395,-285.649 574.756,-287.866 573.877,-280.921"/>
</g>
<!-- Node6 -->
<g id="node11" class="node"><title>Node6</title>
<a xlink:href="banger__core__8_8cpp.html#a4fe16ad483c0c1609d97aeb9a23c74ee" target="_top" xlink:title="do_logical_fenetre\l_banger">
<polygon fill="white" stroke="black" points="648.5,-199 648.5,-239 743.5,-239 743.5,-199 648.5,-199"/>
<text text-anchor="start" x="656.5" y="-226" font-family="Helvetica,sans-Serif" font-size="10.00">do_logical_fenetre</text>
<text text-anchor="middle" x="696" y="-210" font-family="Helvetica,sans-Serif" font-size="10.00">_banger</text>
</a>
</g>
<!-- Node2&#45;&gt;Node6 -->
<g id="edge10" class="edge"><title>Node2&#45;&gt;Node6</title>
<path fill="none" stroke="midnightblue" d="M567.367,-274.018C591.561,-263.67 623.263,-250.111 649.14,-239.043"/>
<polygon fill="midnightblue" stroke="midnightblue" points="565.978,-270.805 558.16,-277.956 568.73,-277.241 565.978,-270.805"/>
</g>
<!-- Node8 -->
<g id="node16" class="node"><title>Node8</title>
<a xlink:href="banger__core__8_8cpp.html#ab405ab53ea444b049e5ffa258498fcb6" target="_top" xlink:title="refresh_banger_wx">
<polygon fill="white" stroke="black" points="646.5,-299 646.5,-323 745.5,-323 745.5,-299 646.5,-299"/>
<text text-anchor="middle" x="696" y="-310" font-family="Helvetica,sans-Serif" font-size="10.00">refresh_banger_wx</text>
</a>
</g>
<!-- Node2&#45;&gt;Node8 -->
<g id="edge16" class="edge"><title>Node2&#45;&gt;Node8</title>
<path fill="none" stroke="midnightblue" d="M574.515,-295.631C596.629,-298.429 623.425,-301.819 646.217,-304.702"/>
<polygon fill="midnightblue" stroke="midnightblue" points="574.756,-292.134 564.395,-294.351 573.877,-299.079 574.756,-292.134"/>
</g>
<!-- Node14 -->
<g id="node31" class="node"><title>Node14</title>
<a xlink:href="midi__13_8cpp.html#a6dff3d42682b58cc0a9875ee30fb4cd4" target="_top" xlink:title="do_midi_job">
<polygon fill="white" stroke="black" points="815,-377 815,-401 883,-401 883,-377 815,-377"/>
<text text-anchor="middle" x="849" y="-388" font-family="Helvetica,sans-Serif" font-size="10.00">do_midi_job</text>
</a>
</g>
<!-- Node2&#45;&gt;Node14 -->
<g id="edge54" class="edge"><title>Node2&#45;&gt;Node14</title>
<path fill="none" stroke="midnightblue" d="M567.439,-306.062C587.556,-314.379 612.904,-324.363 636,-332 698.149,-352.552 772.308,-371.08 814.702,-381.118"/>
<polygon fill="midnightblue" stroke="midnightblue" points="568.594,-302.752 558.017,-302.131 565.898,-309.212 568.594,-302.752"/>
</g>
<!-- Node4 -->
<g id="node7" class="node"><title>Node4</title>
<a xlink:href="_m_a_i_n__avec__objets_8cpp.html#a8e80f54ac804eddce8ed6e45adb1db44" target="_top" xlink:title="ticker_full_loop">
<polygon fill="white" stroke="black" points="1114,-195 1114,-219 1196,-219 1196,-195 1114,-195"/>
<text text-anchor="middle" x="1155" y="-206" font-family="Helvetica,sans-Serif" font-size="10.00">ticker_full_loop</text>
</a>
</g>
<!-- Node3&#45;&gt;Node4 -->
<g id="edge6" class="edge"><title>Node3&#45;&gt;Node4</title>
<path fill="none" stroke="midnightblue" d="M732.237,-257.709C740.195,-254.847 748.485,-251.562 756,-248 772.944,-239.969 774.089,-231.549 792,-226 904.273,-191.218 1045.32,-196.99 1113.85,-202.717"/>
<polygon fill="midnightblue" stroke="midnightblue" points="731.079,-254.406 722.77,-260.98 733.365,-261.022 731.079,-254.406"/>
</g>
<!-- Node5 -->
<g id="node9" class="node"><title>Node5</title>
<a xlink:href="_m_a_i_n__avec__objets_8cpp.html#ae66f6b31b5ad750f1fe042a706a4e3d4" target="_top" xlink:title="main">
<polygon fill="white" stroke="black" points="1540,-493 1540,-517 1578,-517 1578,-493 1540,-493"/>
<text text-anchor="middle" x="1559" y="-504" font-family="Helvetica,sans-Serif" font-size="10.00">main</text>
</a>
</g>
<!-- Node4&#45;&gt;Node5 -->
<g id="edge8" class="edge"><title>Node4&#45;&gt;Node5</title>
<path fill="none" stroke="midnightblue" d="M1200.54,-222.677C1273.46,-249.855 1417.07,-312.165 1504,-408 1528.06,-434.527 1546.07,-473.371 1554.21,-492.876"/>
<polygon fill="midnightblue" stroke="midnightblue" points="1201.32,-219.237 1190.73,-219.075 1198.91,-225.808 1201.32,-219.237"/>
</g>
<!-- Node7 -->
<g id="node13" class="node"><title>Node7</title>
<a xlink:href="procs__visuels__rebuild1_8cpp.html#ae710b6e599e321ad5934a90140067054" target="_top" xlink:title="check_graphics_mouse\l_handling">
<polygon fill="white" stroke="black" points="950.5,-139 950.5,-179 1069.5,-179 1069.5,-139 950.5,-139"/>
<text text-anchor="start" x="958.5" y="-166" font-family="Helvetica,sans-Serif" font-size="10.00">check_graphics_mouse</text>
<text text-anchor="middle" x="1010" y="-150" font-family="Helvetica,sans-Serif" font-size="10.00">_handling</text>
</a>
</g>
<!-- Node6&#45;&gt;Node7 -->
<g id="edge12" class="edge"><title>Node6&#45;&gt;Node7</title>
<path fill="none" stroke="midnightblue" d="M753.535,-202.316C766.146,-198.968 779.473,-195.665 792,-193 845.202,-181.682 906.457,-172.459 950.462,-166.489"/>
<polygon fill="midnightblue" stroke="midnightblue" points="752.344,-199.012 743.603,-204.999 754.169,-205.77 752.344,-199.012"/>
</g>
<!-- Node7&#45;&gt;Node4 -->
<g id="edge14" class="edge"><title>Node7&#45;&gt;Node4</title>
<path fill="none" stroke="midnightblue" d="M1079.58,-182.034C1093.07,-186.498 1106.68,-191.006 1118.57,-194.94"/>
<polygon fill="midnightblue" stroke="midnightblue" points="1080.41,-178.621 1069.81,-178.801 1078.21,-185.266 1080.41,-178.621"/>
</g>
<!-- Node8&#45;&gt;Node9 -->
<g id="edge18" class="edge"><title>Node8&#45;&gt;Node9</title>
<path fill="none" stroke="midnightblue" d="M750.558,-294.037C752.459,-292.784 754.282,-291.44 756,-290 781.013,-269.037 775.732,-254.292 792,-226 809.623,-195.351 830.82,-159.552 841.727,-141.207"/>
<polygon fill="midnightblue" stroke="midnightblue" points="748.799,-291.011 741.812,-298.976 752.241,-297.106 748.799,-291.011"/>
</g>
<!-- Node11 -->
<g id="node23" class="node"><title>Node11</title>
<a xlink:href="keyboard__functions2_8cpp.html#af3dd6697323b10b480719c1612bcf29a" target="_top" xlink:title="key_backward">
<polygon fill="white" stroke="black" points="809,-293 809,-317 889,-317 889,-293 809,-293"/>
<text text-anchor="middle" x="849" y="-304" font-family="Helvetica,sans-Serif" font-size="10.00">key_backward</text>
</a>
</g>
<!-- Node8&#45;&gt;Node11 -->
<g id="edge24" class="edge"><title>Node8&#45;&gt;Node11</title>
<path fill="none" stroke="midnightblue" d="M755.929,-308.65C773.642,-307.955 792.6,-307.212 808.753,-306.578"/>
<polygon fill="midnightblue" stroke="midnightblue" points="755.53,-305.163 745.675,-309.052 755.804,-312.157 755.53,-305.163"/>
</g>
<!-- Node13 -->
<g id="node28" class="node"><title>Node13</title>
<a xlink:href="keyboard__functions2_8cpp.html#a6b73a3669797504ce2e357d9a8b9a2c2" target="_top" xlink:title="key_forward">
<polygon fill="white" stroke="black" points="814,-335 814,-359 884,-359 884,-335 814,-335"/>
<text text-anchor="middle" x="849" y="-346" font-family="Helvetica,sans-Serif" font-size="10.00">key_forward</text>
</a>
</g>
<!-- Node8&#45;&gt;Node13 -->
<g id="edge30" class="edge"><title>Node8&#45;&gt;Node13</title>
<path fill="none" stroke="midnightblue" d="M755.473,-324.994C775.125,-329.618 796.356,-334.613 813.615,-338.674"/>
<polygon fill="midnightblue" stroke="midnightblue" points="756.211,-321.572 745.675,-322.688 754.607,-328.386 756.211,-321.572"/>
</g>
<!-- Node8&#45;&gt;Node14 -->
<g id="edge34" class="edge"><title>Node8&#45;&gt;Node14</title>
<path fill="none" stroke="midnightblue" d="M737.786,-327.155C744.052,-330.13 750.313,-333.435 756,-337 773.89,-348.214 773.803,-357.29 792,-368 799.089,-372.172 807.15,-375.752 814.932,-378.712"/>
<polygon fill="midnightblue" stroke="midnightblue" points="739.223,-323.963 728.668,-323.04 736.343,-330.344 739.223,-323.963"/>
</g>
<!-- Node20 -->
<g id="node45" class="node"><title>Node20</title>
<a xlink:href="sequentiel__6__core_8cpp.html#a2a71c851cf25565491dd10423bc80380" target="_top" xlink:title="do_logical_Sequenciel\l_Window">
<polygon fill="white" stroke="black" points="792.5,-235 792.5,-275 905.5,-275 905.5,-235 792.5,-235"/>
<text text-anchor="start" x="800.5" y="-262" font-family="Helvetica,sans-Serif" font-size="10.00">do_logical_Sequenciel</text>
<text text-anchor="middle" x="849" y="-246" font-family="Helvetica,sans-Serif" font-size="10.00">_Window</text>
</a>
</g>
<!-- Node8&#45;&gt;Node20 -->
<g id="edge50" class="edge"><title>Node8&#45;&gt;Node20</title>
<path fill="none" stroke="midnightblue" d="M740.754,-295.465C745.901,-293.64 751.069,-291.79 756,-290 769.135,-285.231 783.268,-279.975 796.453,-275.019"/>
<polygon fill="midnightblue" stroke="midnightblue" points="739.216,-292.296 730.949,-298.922 741.543,-298.898 739.216,-292.296"/>
</g>
<!-- Node10 -->
<g id="node20" class="node"><title>Node10</title>
<a xlink:href="i_cat14_8cpp.html#aa9772b548765a631d4bae1c14053b4e1" target="_top" xlink:title="DoJobFantastickTouch">
<polygon fill="white" stroke="black" points="951.5,-97 951.5,-121 1068.5,-121 1068.5,-97 951.5,-97"/>
<text text-anchor="middle" x="1010" y="-108" font-family="Helvetica,sans-Serif" font-size="10.00">DoJobFantastickTouch</text>
</a>
</g>
<!-- Node9&#45;&gt;Node10 -->
<g id="edge20" class="edge"><title>Node9&#45;&gt;Node10</title>
<path fill="none" stroke="midnightblue" d="M897.039,-123.032C914.111,-120.912 933.521,-118.5 951.378,-116.282"/>
<polygon fill="midnightblue" stroke="midnightblue" points="896.24,-119.605 886.747,-124.311 897.103,-126.551 896.24,-119.605"/>
</g>
<!-- Node10&#45;&gt;Node4 -->
<g id="edge22" class="edge"><title>Node10&#45;&gt;Node4</title>
<path fill="none" stroke="midnightblue" d="M1068.56,-124.993C1071.83,-126.525 1075,-128.191 1078,-130 1106.82,-147.372 1132.79,-177.813 1145.94,-194.75"/>
<polygon fill="midnightblue" stroke="midnightblue" points="1069.74,-121.692 1059.17,-121.02 1067.02,-128.139 1069.74,-121.692"/>
</g>
<!-- Node12 -->
<g id="node25" class="node"><title>Node12</title>
<a xlink:href="keyboard__routines2_8cpp.html#a8563320b8eab661232619224650de244" target="_top" xlink:title="commandes_clavier">
<polygon fill="white" stroke="black" points="958,-312 958,-336 1062,-336 1062,-312 958,-312"/>
<text text-anchor="middle" x="1010" y="-323" font-family="Helvetica,sans-Serif" font-size="10.00">commandes_clavier</text>
</a>
</g>
<!-- Node11&#45;&gt;Node12 -->
<g id="edge26" class="edge"><title>Node11&#45;&gt;Node12</title>
<path fill="none" stroke="midnightblue" d="M899.27,-310.932C917.898,-313.131 939.053,-315.627 957.845,-317.845"/>
<polygon fill="midnightblue" stroke="midnightblue" points="899.553,-307.442 889.212,-309.745 898.733,-314.393 899.553,-307.442"/>
</g>
<!-- Node12&#45;&gt;Node4 -->
<g id="edge28" class="edge"><title>Node12&#45;&gt;Node4</title>
<path fill="none" stroke="midnightblue" d="M1032.79,-305.609C1062.71,-281.47 1114.4,-239.759 1139.89,-219.19"/>
<polygon fill="midnightblue" stroke="midnightblue" points="1030.56,-302.916 1024.97,-311.92 1034.95,-308.364 1030.56,-302.916"/>
</g>
<!-- Node13&#45;&gt;Node12 -->
<g id="edge32" class="edge"><title>Node13&#45;&gt;Node12</title>
<path fill="none" stroke="midnightblue" d="M894.326,-340.525C914.115,-337.698 937.436,-334.366 957.934,-331.438"/>
<polygon fill="midnightblue" stroke="midnightblue" points="893.737,-337.073 884.332,-341.953 894.727,-344.003 893.737,-337.073"/>
</g>
<!-- Node15 -->
<g id="node33" class="node"><title>Node15</title>
<a xlink:href="midi__13_8cpp.html#a6bedf9750195224914cd87c4e73ab626" target="_top" xlink:title="ventilate_midi_to_midiarray">
<polygon fill="white" stroke="black" points="942.5,-373 942.5,-397 1077.5,-397 1077.5,-373 942.5,-373"/>
<text text-anchor="middle" x="1010" y="-384" font-family="Helvetica,sans-Serif" font-size="10.00">ventilate_midi_to_midiarray</text>
</a>
</g>
<!-- Node14&#45;&gt;Node15 -->
<g id="edge36" class="edge"><title>Node14&#45;&gt;Node15</title>
<path fill="none" stroke="midnightblue" d="M893.272,-387.9C908.455,-387.523 925.811,-387.092 942.414,-386.679"/>
<polygon fill="midnightblue" stroke="midnightblue" points="893.054,-384.404 883.144,-388.152 893.228,-391.402 893.054,-384.404"/>
</g>
<!-- Node16 -->
<g id="node35" class="node"><title>Node16</title>
<a xlink:href="midi__13_8cpp.html#afa49dd5668303c2448676c8243737c2d" target="_top" xlink:title="simulate_midi">
<polygon fill="white" stroke="black" points="1116.5,-369 1116.5,-393 1193.5,-393 1193.5,-369 1116.5,-369"/>
<text text-anchor="middle" x="1155" y="-380" font-family="Helvetica,sans-Serif" font-size="10.00">simulate_midi</text>
</a>
</g>
<!-- Node15&#45;&gt;Node16 -->
<g id="edge38" class="edge"><title>Node15&#45;&gt;Node16</title>
<path fill="none" stroke="midnightblue" d="M1088.1,-382.845C1097.94,-382.574 1107.64,-382.306 1116.47,-382.063"/>
<polygon fill="midnightblue" stroke="midnightblue" points="1087.73,-379.354 1077.83,-383.129 1087.92,-386.352 1087.73,-379.354"/>
</g>
<!-- Node17 -->
<g id="node37" class="node"><title>Node17</title>
<a xlink:href="arduino__core__6___u_n_o_8cpp.html#ae72d1a8d74d9ab5515962e03e7e664d6" target="_top" xlink:title="arduino_do_analog_in\l_whitecat">
<polygon fill="white" stroke="black" points="1232,-361 1232,-401 1342,-401 1342,-361 1232,-361"/>
<text text-anchor="start" x="1240" y="-388" font-family="Helvetica,sans-Serif" font-size="10.00">arduino_do_analog_in</text>
<text text-anchor="middle" x="1287" y="-372" font-family="Helvetica,sans-Serif" font-size="10.00">_whitecat</text>
</a>
</g>
<!-- Node16&#45;&gt;Node17 -->
<g id="edge40" class="edge"><title>Node16&#45;&gt;Node17</title>
<path fill="none" stroke="midnightblue" d="M1203.69,-381C1212.9,-381 1222.6,-381 1231.99,-381"/>
<polygon fill="midnightblue" stroke="midnightblue" points="1203.53,-377.5 1193.53,-381 1203.53,-384.5 1203.53,-377.5"/>
</g>
<!-- Node19 -->
<g id="node42" class="node"><title>Node19</title>
<a xlink:href="arduino__core__6___u_n_o_8cpp.html#a219226c1cd6cc17c78e62fd4445bb445" target="_top" xlink:title="arduino_do_digital\l_in_whitecat">
<polygon fill="white" stroke="black" points="1239.5,-303 1239.5,-343 1334.5,-343 1334.5,-303 1239.5,-303"/>
<text text-anchor="start" x="1247.5" y="-330" font-family="Helvetica,sans-Serif" font-size="10.00">arduino_do_digital</text>
<text text-anchor="middle" x="1287" y="-314" font-family="Helvetica,sans-Serif" font-size="10.00">_in_whitecat</text>
</a>
</g>
<!-- Node16&#45;&gt;Node19 -->
<g id="edge46" class="edge"><title>Node16&#45;&gt;Node19</title>
<path fill="none" stroke="midnightblue" d="M1191.54,-364.945C1206.92,-358.188 1224.98,-350.25 1241.23,-343.109"/>
<polygon fill="midnightblue" stroke="midnightblue" points="1190.1,-361.755 1182.35,-368.982 1192.91,-368.164 1190.1,-361.755"/>
</g>
<!-- Node18 -->
<g id="node39" class="node"><title>Node18</title>
<a xlink:href="_m_a_i_n__avec__objets_8cpp.html#ace9c8a9b37c6087c3cffef442d71d70e" target="_top" xlink:title="dixiemes_de_secondes">
<polygon fill="white" stroke="black" points="1381.5,-417 1381.5,-441 1500.5,-441 1500.5,-417 1381.5,-417"/>
<text text-anchor="middle" x="1441" y="-428" font-family="Helvetica,sans-Serif" font-size="10.00">dixiemes_de_secondes</text>
</a>
</g>
<!-- Node17&#45;&gt;Node18 -->
<g id="edge42" class="edge"><title>Node17&#45;&gt;Node18</title>
<path fill="none" stroke="midnightblue" d="M1352.08,-401.284C1369.12,-406.595 1386.96,-412.155 1402.14,-416.889"/>
<polygon fill="midnightblue" stroke="midnightblue" points="1352.75,-397.828 1342.16,-398.194 1350.67,-404.511 1352.75,-397.828"/>
</g>
<!-- Node18&#45;&gt;Node5 -->
<g id="edge44" class="edge"><title>Node18&#45;&gt;Node5</title>
<path fill="none" stroke="midnightblue" d="M1468.25,-446.554C1490.23,-460.709 1520.58,-480.254 1540,-492.762"/>
<polygon fill="midnightblue" stroke="midnightblue" points="1470,-443.515 1459.7,-441.042 1466.21,-449.4 1470,-443.515"/>
</g>
<!-- Node19&#45;&gt;Node18 -->
<g id="edge48" class="edge"><title>Node19&#45;&gt;Node18</title>
<path fill="none" stroke="midnightblue" d="M1336.1,-348.317C1338.11,-349.533 1340.08,-350.763 1342,-352 1374.02,-372.663 1408.52,-401.058 1427.15,-416.958"/>
<polygon fill="midnightblue" stroke="midnightblue" points="1337.53,-345.102 1327.13,-343.098 1334.01,-351.152 1337.53,-345.102"/>
</g>
<!-- Node20&#45;&gt;Node7 -->
<g id="edge52" class="edge"><title>Node20&#45;&gt;Node7</title>
<path fill="none" stroke="midnightblue" d="M891.444,-229.692C917.954,-213.884 951.617,-193.812 976.294,-179.098"/>
<polygon fill="midnightblue" stroke="midnightblue" points="889.547,-226.748 882.751,-234.875 893.132,-232.76 889.547,-226.748"/>
</g>
<!-- Node21&#45;&gt;Node7 -->
<g id="edge58" class="edge"><title>Node21&#45;&gt;Node7</title>
<path fill="none" stroke="midnightblue" d="M433.793,-48.5039C541.23,-47.1892 744.125,-53.242 906,-108 923.762,-114.009 925.332,-121.411 942,-130 947.932,-133.057 954.261,-136.069 960.579,-138.927"/>
<polygon fill="midnightblue" stroke="midnightblue" points="433.646,-45.0056 423.699,-48.6528 433.749,-52.0049 433.646,-45.0056"/>
</g>
<!-- Node22&#45;&gt;Node7 -->
<g id="edge62" class="edge"><title>Node22&#45;&gt;Node7</title>
<path fill="none" stroke="midnightblue" d="M267.826,-11.6574C335.686,-11.3679 439.69,-11 530,-11 530,-11 530,-11 696,-11 793.443,-11 828.16,-15.3819 906,-74 929.636,-91.7992 919.394,-110.91 942,-130 945.922,-133.312 950.279,-136.297 954.839,-138.977"/>
<polygon fill="midnightblue" stroke="midnightblue" points="267.653,-8.15804 257.668,-11.7013 267.683,-15.158 267.653,-8.15804"/>
</g>
<!-- Node23&#45;&gt;Node10 -->
<g id="edge68" class="edge"><title>Node23&#45;&gt;Node10</title>
<path fill="none" stroke="midnightblue" d="M421.383,-94.5332C546.912,-97.6184 828.462,-104.538 951.069,-107.552"/>
<polygon fill="midnightblue" stroke="midnightblue" points="421.257,-91.0292 411.174,-94.2823 421.085,-98.027 421.257,-91.0292"/>
</g>
<!-- Node24&#45;&gt;Node18 -->
<g id="edge92" class="edge"><title>Node24&#45;&gt;Node18</title>
<path fill="none" stroke="midnightblue" d="M236.448,-433.076C287.08,-462.11 376.352,-508.218 460,-526 637.97,-563.833 1197.04,-471.906 1381.38,-439.669"/>
<polygon fill="midnightblue" stroke="midnightblue" points="238.162,-430.025 227.755,-428.041 234.654,-436.082 238.162,-430.025"/>
</g>
<!-- Node25 -->
<g id="node61" class="node"><title>Node25</title>
<a xlink:href="icat__core14_8cpp.html#a469dfea8228721f299af4b56df39989b" target="_top" xlink:title="do_refresh_iCat">
<polygon fill="white" stroke="black" points="316,-396 316,-420 402,-420 402,-396 316,-396"/>
<text text-anchor="middle" x="359" y="-407" font-family="Helvetica,sans-Serif" font-size="10.00">do_refresh_iCat</text>
</a>
</g>
<!-- Node24&#45;&gt;Node25 -->
<g id="edge72" class="edge"><title>Node24&#45;&gt;Node25</title>
<path fill="none" stroke="midnightblue" d="M258.833,-408C277.923,-408 298.397,-408 315.827,-408"/>
<polygon fill="midnightblue" stroke="midnightblue" points="258.7,-404.5 248.7,-408 258.7,-411.5 258.7,-404.5"/>
</g>
<!-- Node25&#45;&gt;Node2 -->
<g id="edge74" class="edge"><title>Node25&#45;&gt;Node2</title>
<path fill="none" stroke="midnightblue" d="M385.003,-390.056C420.242,-365.739 482.221,-322.97 512.44,-302.117"/>
<polygon fill="midnightblue" stroke="midnightblue" points="382.899,-387.256 376.656,-395.816 386.874,-393.017 382.899,-387.256"/>
</g>
<!-- Node25&#45;&gt;Node5 -->
<g id="edge88" class="edge"><title>Node25&#45;&gt;Node5</title>
<path fill="none" stroke="midnightblue" d="M411.931,-420.777C427.358,-424.162 444.291,-427.551 460,-430 631.597,-456.751 675.331,-467 849,-467 849,-467 849,-467 1010,-467 1217.8,-467 1468.79,-494.43 1539.58,-502.68"/>
<polygon fill="midnightblue" stroke="midnightblue" points="412.561,-417.332 402.038,-418.564 411.032,-424.163 412.561,-417.332"/>
</g>
<!-- Node25&#45;&gt;Node9 -->
<g id="edge84" class="edge"><title>Node25&#45;&gt;Node9</title>
<path fill="none" stroke="midnightblue" d="M369.723,-386.871C385.766,-357.081 418.603,-302.625 460,-269 526.553,-214.942 555.469,-219.434 636,-190 696.153,-168.014 768.161,-148.824 811.158,-138.092"/>
<polygon fill="midnightblue" stroke="midnightblue" points="366.499,-385.482 364.939,-395.962 372.693,-388.743 366.499,-385.482"/>
</g>
<!-- Node25&#45;&gt;Node14 -->
<g id="edge90" class="edge"><title>Node25&#45;&gt;Node14</title>
<path fill="none" stroke="midnightblue" d="M412.048,-405.943C513.145,-402.023 730.814,-393.583 814.89,-390.323"/>
<polygon fill="midnightblue" stroke="midnightblue" points="411.912,-402.446 402.055,-406.331 412.183,-409.44 411.912,-402.446"/>
</g>
<!-- Node25&#45;&gt;Node18 -->
<g id="edge86" class="edge"><title>Node25&#45;&gt;Node18</title>
<path fill="none" stroke="midnightblue" d="M412.29,-410.883C523.389,-416.638 787.896,-429 1010,-429 1010,-429 1010,-429 1155,-429 1233.2,-429 1323.43,-429 1381.29,-429"/>
<polygon fill="midnightblue" stroke="midnightblue" points="412.192,-407.374 402.024,-410.348 411.828,-414.364 412.192,-407.374"/>
</g>
<!-- Node26 -->
<g id="node64" class="node"><title>Node26</title>
<a xlink:href="i_cat14_8cpp.html#a3dd96bb8dc1ec3e640f104b2d2db4065" target="_top" xlink:title="BoxGuiBuilder_iCat">
<polygon fill="white" stroke="black" points="479,-493 479,-517 581,-517 581,-493 479,-493"/>
<text text-anchor="middle" x="530" y="-504" font-family="Helvetica,sans-Serif" font-size="10.00">BoxGuiBuilder_iCat</text>
</a>
</g>
<!-- Node25&#45;&gt;Node26 -->
<g id="edge76" class="edge"><title>Node25&#45;&gt;Node26</title>
<path fill="none" stroke="midnightblue" d="M381.697,-426.524C401.482,-442.027 431.412,-463.965 460,-479 470.097,-484.31 481.524,-489.042 492.173,-492.966"/>
<polygon fill="midnightblue" stroke="midnightblue" points="383.625,-423.586 373.617,-420.108 379.271,-429.067 383.625,-423.586"/>
</g>
<!-- Node27 -->
<g id="node66" class="node"><title>Node27</title>
<a xlink:href="graphics__rebuild1_8cpp.html#ac2eae1e03fb72cc734ffbcef566483bf" target="_top" xlink:title="Boxes">
<polygon fill="white" stroke="black" points="988,-533 988,-557 1032,-557 1032,-533 988,-533"/>
<text text-anchor="middle" x="1010" y="-544" font-family="Helvetica,sans-Serif" font-size="10.00">Boxes</text>
</a>
</g>
<!-- Node26&#45;&gt;Node27 -->
<g id="edge78" class="edge"><title>Node26&#45;&gt;Node27</title>
<path fill="none" stroke="midnightblue" d="M591.447,-510.121C699.246,-519.104 917.657,-537.305 987.786,-543.149"/>
<polygon fill="midnightblue" stroke="midnightblue" points="591.625,-506.623 581.368,-509.281 591.043,-513.599 591.625,-506.623"/>
</g>
<!-- Node28 -->
<g id="node68" class="node"><title>Node28</title>
<a xlink:href="_m_a_i_n__avec__objets_8cpp.html#ade8d4ba65d55c94f8ee277829d722155" target="_top" xlink:title="main_actions_on_screen">
<polygon fill="white" stroke="black" points="1378.5,-533 1378.5,-557 1503.5,-557 1503.5,-533 1378.5,-533"/>
<text text-anchor="middle" x="1441" y="-544" font-family="Helvetica,sans-Serif" font-size="10.00">main_actions_on_screen</text>
</a>
</g>
<!-- Node27&#45;&gt;Node28 -->
<g id="edge80" class="edge"><title>Node27&#45;&gt;Node28</title>
<path fill="none" stroke="midnightblue" d="M1042.44,-545C1113.78,-545 1285.37,-545 1378.44,-545"/>
<polygon fill="midnightblue" stroke="midnightblue" points="1042.26,-541.5 1032.26,-545 1042.26,-548.5 1042.26,-541.5"/>
</g>
<!-- Node28&#45;&gt;Node5 -->
<g id="edge82" class="edge"><title>Node28&#45;&gt;Node5</title>
<path fill="none" stroke="midnightblue" d="M1485.92,-529.773C1504.55,-523.458 1525.16,-516.47 1539.74,-511.53"/>
<polygon fill="midnightblue" stroke="midnightblue" points="1484.75,-526.473 1476.4,-532.999 1487,-533.103 1484.75,-526.473"/>
</g>
<!-- Node30 -->
<g id="node78" class="node"><title>Node30</title>
<a xlink:href="save__show__13_8cpp.html#a8330f725aa2c729bdce098aa4b187589" target="_top" xlink:title="Load_Show">
<polygon fill="white" stroke="black" points="325,-594 325,-618 393,-618 393,-594 325,-594"/>
<text text-anchor="middle" x="359" y="-605" font-family="Helvetica,sans-Serif" font-size="10.00">Load_Show</text>
</a>
</g>
<!-- Node29&#45;&gt;Node30 -->
<g id="edge96" class="edge"><title>Node29&#45;&gt;Node30</title>
<path fill="none" stroke="midnightblue" d="M230.839,-547.39C261.569,-561.443 305.126,-581.362 332.716,-593.98"/>
<polygon fill="midnightblue" stroke="midnightblue" points="231.899,-544.026 221.349,-543.05 228.988,-550.392 231.899,-544.026"/>
</g>
<!-- Node30&#45;&gt;Node5 -->
<g id="edge98" class="edge"><title>Node30&#45;&gt;Node5</title>
<path fill="none" stroke="midnightblue" d="M391.635,-622.648C410.997,-631.735 436.314,-642.274 460,-648 562.282,-672.728 590.772,-667 696,-667 696,-667 696,-667 1287,-667 1393.38,-667 1418.44,-629.217 1504,-566 1523.04,-551.933 1540.51,-530.461 1550.45,-517.101"/>
<polygon fill="midnightblue" stroke="midnightblue" points="392.897,-619.371 382.368,-618.196 389.866,-625.681 392.897,-619.371"/>
</g>
<!-- Node31 -->
<g id="node81" class="node"><title>Node31</title>
<a xlink:href="save__show__13_8cpp.html#a1eafc1ecb75f36c1fe85c967bdea99b0" target="_top" xlink:title="load_the_show">
<polygon fill="white" stroke="black" points="489,-573 489,-597 571,-597 571,-573 489,-573"/>
<text text-anchor="middle" x="530" y="-584" font-family="Helvetica,sans-Serif" font-size="10.00">load_the_show</text>
</a>
</g>
<!-- Node30&#45;&gt;Node31 -->
<g id="edge100" class="edge"><title>Node30&#45;&gt;Node31</title>
<path fill="none" stroke="midnightblue" d="M403.323,-600.557C429.758,-597.31 463.093,-593.217 488.932,-590.043"/>
<polygon fill="midnightblue" stroke="midnightblue" points="402.692,-597.108 393.193,-601.801 403.546,-604.056 402.692,-597.108"/>
</g>
<!-- Node35 -->
<g id="node91" class="node"><title>Node35</title>
<a xlink:href="save__show__13_8cpp.html#a2c8ff847dfaf2dc6c8765b2bee26edfc" target="_top" xlink:title="do_wizard_reload_from_disk">
<polygon fill="white" stroke="black" points="460,-615 460,-639 600,-639 600,-615 460,-615"/>
<text text-anchor="middle" x="530" y="-626" font-family="Helvetica,sans-Serif" font-size="10.00">do_wizard_reload_from_disk</text>
</a>
</g>
<!-- Node30&#45;&gt;Node35 -->
<g id="edge112" class="edge"><title>Node30&#45;&gt;Node35</title>
<path fill="none" stroke="midnightblue" d="M403.489,-611.464C420.682,-613.575 440.775,-616.043 459.819,-618.381"/>
<polygon fill="midnightblue" stroke="midnightblue" points="403.546,-607.944 393.193,-610.199 402.692,-614.892 403.546,-607.944"/>
</g>
<!-- Node32 -->
<g id="node83" class="node"><title>Node32</title>
<a xlink:href="logicals__intres_8cpp.html#a74cf9c04c734ab342f88799efbfc4210" target="_top" xlink:title="operations_confirmation">
<polygon fill="white" stroke="black" points="636,-573 636,-597 756,-597 756,-573 636,-573"/>
<text text-anchor="middle" x="696" y="-584" font-family="Helvetica,sans-Serif" font-size="10.00">operations_confirmation</text>
</a>
</g>
<!-- Node31&#45;&gt;Node32 -->
<g id="edge102" class="edge"><title>Node31&#45;&gt;Node32</title>
<path fill="none" stroke="midnightblue" d="M581.422,-585C598.599,-585 617.896,-585 635.687,-585"/>
<polygon fill="midnightblue" stroke="midnightblue" points="581.034,-581.5 571.034,-585 581.034,-588.5 581.034,-581.5"/>
</g>
<!-- Node33 -->
<g id="node85" class="node"><title>Node33</title>
<a xlink:href="keyboard__functions2_8cpp.html#a548548066307f816c5021de7d6e4f26a" target="_top" xlink:title="key_affectation">
<polygon fill="white" stroke="black" points="807.5,-571 807.5,-595 890.5,-595 890.5,-571 807.5,-571"/>
<text text-anchor="middle" x="849" y="-582" font-family="Helvetica,sans-Serif" font-size="10.00">key_affectation</text>
</a>
</g>
<!-- Node32&#45;&gt;Node33 -->
<g id="edge104" class="edge"><title>Node32&#45;&gt;Node33</title>
<path fill="none" stroke="midnightblue" d="M766.142,-584.083C780.135,-583.9 794.414,-583.714 807.088,-583.548"/>
<polygon fill="midnightblue" stroke="midnightblue" points="765.984,-580.585 756.031,-584.215 766.075,-587.584 765.984,-580.585"/>
</g>
<!-- Node34 -->
<g id="node88" class="node"><title>Node34</title>
<a xlink:href="logicals__intres_8cpp.html#a85967c22135715eca94d08af2ec1a1fb" target="_top" xlink:title="fenetre_confirm">
<polygon fill="white" stroke="black" points="807,-613 807,-637 891,-637 891,-613 807,-613"/>
<text text-anchor="middle" x="849" y="-624" font-family="Helvetica,sans-Serif" font-size="10.00">fenetre_confirm</text>
</a>
</g>
<!-- Node32&#45;&gt;Node34 -->
<g id="edge108" class="edge"><title>Node32&#45;&gt;Node34</title>
<path fill="none" stroke="midnightblue" d="M751.791,-599.586C769.948,-604.333 789.789,-609.52 806.784,-613.963"/>
<polygon fill="midnightblue" stroke="midnightblue" points="752.465,-596.145 741.905,-597.001 750.695,-602.917 752.465,-596.145"/>
</g>
<!-- Node33&#45;&gt;Node12 -->
<g id="edge106" class="edge"><title>Node33&#45;&gt;Node12</title>
<path fill="none" stroke="midnightblue" d="M853.474,-561.05C863.084,-518.593 889.237,-424.119 942,-364 952.48,-352.059 967.425,-342.726 980.636,-336.09"/>
<polygon fill="midnightblue" stroke="midnightblue" points="850.037,-560.383 851.334,-570.898 856.878,-561.87 850.037,-560.383"/>
</g>
<!-- Node34&#45;&gt;Node27 -->
<g id="edge110" class="edge"><title>Node34&#45;&gt;Node27</title>
<path fill="none" stroke="midnightblue" d="M894.107,-609.163C898.164,-607.504 902.18,-605.773 906,-604 936.692,-589.756 970.463,-569.731 990.948,-557.062"/>
<polygon fill="midnightblue" stroke="midnightblue" points="892.662,-605.97 884.638,-612.888 895.225,-612.484 892.662,-605.97"/>
</g>
<!-- Node35&#45;&gt;Node32 -->
<g id="edge114" class="edge"><title>Node35&#45;&gt;Node32</title>
<path fill="none" stroke="midnightblue" d="M587.443,-612.466C607.34,-607.432 629.409,-601.848 648.424,-597.037"/>
<polygon fill="midnightblue" stroke="midnightblue" points="586.405,-609.119 577.569,-614.964 588.122,-615.905 586.405,-609.119"/>
</g>
</g>
</svg>
