<?xml version="1.0" encoding="UTF-8" standalone="no"?>
<!DOCTYPE svg PUBLIC "-//W3C//DTD SVG 1.1//EN"
 "http://www.w3.org/Graphics/SVG/1.1/DTD/svg11.dtd">
<!-- Generated by graphviz version 2.26.3 (20100126.1600)
 -->
<!-- Title: write_window_indexes_from_list_of_windows Pages: 1 -->
<svg width="1056pt" height="103pt"
 viewBox="0.00 0.00 1056.00 102.61" xmlns="http://www.w3.org/2000/svg" xmlns:xlink="http://www.w3.org/1999/xlink">
<g id="graph1" class="graph" transform="scale(1 1) rotate(0) translate(4 98.6141)">
<title>write_window_indexes_from_list_of_windows</title>
<polygon fill="white" stroke="white" points="-4,5 -4,-98.6141 1053,-98.6141 1053,5 -4,5"/>
<!-- Node1 -->
<g id="node1" class="node"><title>Node1</title>
<polygon fill="#bfbfbf" stroke="black" points="0,-34 0,-74 116,-74 116,-34 0,-34"/>
<text text-anchor="start" x="8" y="-61" font-family="Helvetica,sans-Serif" font-size="10.00">write_window_indexes</text>
<text text-anchor="middle" x="58" y="-45" font-family="Helvetica,sans-Serif" font-size="10.00">_from_list_of_windows</text>
</g>
<!-- Node2 -->
<g id="node3" class="node"><title>Node2</title>
<a xlink:href="save__show__13_8cpp.html#a8330f725aa2c729bdce098aa4b187589" target="_top" xlink:title="Load_Show">
<polygon fill="white" stroke="black" points="152,-42 152,-66 220,-66 220,-42 152,-42"/>
<text text-anchor="middle" x="186" y="-53" font-family="Helvetica,sans-Serif" font-size="10.00">Load_Show</text>
</a>
</g>
<!-- Node1&#45;&gt;Node2 -->
<g id="edge2" class="edge"><title>Node1&#45;&gt;Node2</title>
<path fill="none" stroke="midnightblue" d="M126.13,-54C135.087,-54 143.936,-54 151.971,-54"/>
<polygon fill="midnightblue" stroke="midnightblue" points="126.008,-50.5001 116.008,-54 126.008,-57.5001 126.008,-50.5001"/>
</g>
<!-- Node3 -->
<g id="node5" class="node"><title>Node3</title>
<a xlink:href="_m_a_i_n__avec__objets_8cpp.html#ae66f6b31b5ad750f1fe042a706a4e3d4" target="_top" xlink:title="main">
<polygon fill="white" stroke="black" points="1010,-42 1010,-66 1048,-66 1048,-42 1010,-42"/>
<text text-anchor="middle" x="1029" y="-53" font-family="Helvetica,sans-Serif" font-size="10.00">main</text>
</a>
</g>
<!-- Node2&#45;&gt;Node3 -->
<g id="edge4" class="edge"><title>Node2&#45;&gt;Node3</title>
<path fill="none" stroke="midnightblue" d="M229.983,-68.7321C238.534,-71.1577 247.486,-73.3988 256,-75 359.415,-94.449 386.772,-94 492,-94 492,-94 492,-94 760,-94 855.485,-94 880.957,-96.4563 974,-75 986.25,-72.175 999.426,-67.2168 1009.81,-62.8274"/>
<polygon fill="midnightblue" stroke="midnightblue" points="230.762,-65.3126 220.179,-65.8271 228.773,-72.0241 230.762,-65.3126"/>
</g>
<!-- Node4 -->
<g id="node7" class="node"><title>Node4</title>
<a xlink:href="save__show__13_8cpp.html#a1eafc1ecb75f36c1fe85c967bdea99b0" target="_top" xlink:title="load_the_show">
<polygon fill="white" stroke="black" points="285,-42 285,-66 367,-66 367,-42 285,-42"/>
<text text-anchor="middle" x="326" y="-53" font-family="Helvetica,sans-Serif" font-size="10.00">load_the_show</text>
</a>
</g>
<!-- Node2&#45;&gt;Node4 -->
<g id="edge6" class="edge"><title>Node2&#45;&gt;Node4</title>
<path fill="none" stroke="midnightblue" d="M230.71,-54C248.085,-54 267.862,-54 284.879,-54"/>
<polygon fill="midnightblue" stroke="midnightblue" points="230.248,-50.5001 220.248,-54 230.248,-57.5001 230.248,-50.5001"/>
</g>
<!-- Node12 -->
<g id="node25" class="node"><title>Node12</title>
<a xlink:href="save__show__13_8cpp.html#a2c8ff847dfaf2dc6c8765b2bee26edfc" target="_top" xlink:title="do_wizard_reload_from_disk">
<polygon fill="white" stroke="black" points="256,-0 256,-24 396,-24 396,-0 256,-0"/>
<text text-anchor="middle" x="326" y="-11" font-family="Helvetica,sans-Serif" font-size="10.00">do_wizard_reload_from_disk</text>
</a>
</g>
<!-- Node2&#45;&gt;Node12 -->
<g id="edge26" class="edge"><title>Node2&#45;&gt;Node12</title>
<path fill="none" stroke="midnightblue" d="M229.891,-40.8326C247.809,-35.4573 268.39,-29.283 285.898,-24.0305"/>
<polygon fill="midnightblue" stroke="midnightblue" points="228.82,-37.4997 220.248,-43.7256 230.832,-44.2045 228.82,-37.4997"/>
</g>
<!-- Node5 -->
<g id="node9" class="node"><title>Node5</title>
<a xlink:href="logicals__intres_8cpp.html#a74cf9c04c734ab342f88799efbfc4210" target="_top" xlink:title="operations_confirmation">
<polygon fill="white" stroke="black" points="432,-21 432,-45 552,-45 552,-21 432,-21"/>
<text text-anchor="middle" x="492" y="-32" font-family="Helvetica,sans-Serif" font-size="10.00">operations_confirmation</text>
</a>
</g>
<!-- Node4&#45;&gt;Node5 -->
<g id="edge8" class="edge"><title>Node4&#45;&gt;Node5</title>
<path fill="none" stroke="midnightblue" d="M377.422,-47.4948C394.599,-45.3218 413.896,-42.8806 431.687,-40.63"/>
<polygon fill="midnightblue" stroke="midnightblue" points="376.515,-44.0815 367.034,-48.809 377.394,-51.0262 376.515,-44.0815"/>
</g>
<!-- Node6 -->
<g id="node11" class="node"><title>Node6</title>
<a xlink:href="keyboard__functions2_8cpp.html#a548548066307f816c5021de7d6e4f26a" target="_top" xlink:title="key_affectation">
<polygon fill="white" stroke="black" points="588.5,-42 588.5,-66 671.5,-66 671.5,-42 588.5,-42"/>
<text text-anchor="middle" x="630" y="-53" font-family="Helvetica,sans-Serif" font-size="10.00">key_affectation</text>
</a>
</g>
<!-- Node5&#45;&gt;Node6 -->
<g id="edge10" class="edge"><title>Node5&#45;&gt;Node6</title>
<path fill="none" stroke="midnightblue" d="M562.19,-43.681C571.12,-45.04 580.024,-46.395 588.303,-47.6548"/>
<polygon fill="midnightblue" stroke="midnightblue" points="562.54,-40.1942 552.127,-42.1498 561.487,-47.1145 562.54,-40.1942"/>
</g>
<!-- Node9 -->
<g id="node18" class="node"><title>Node9</title>
<a xlink:href="logicals__intres_8cpp.html#a85967c22135715eca94d08af2ec1a1fb" target="_top" xlink:title="fenetre_confirm">
<polygon fill="white" stroke="black" points="588,-0 588,-24 672,-24 672,-0 588,-0"/>
<text text-anchor="middle" x="630" y="-11" font-family="Helvetica,sans-Serif" font-size="10.00">fenetre_confirm</text>
</a>
</g>
<!-- Node5&#45;&gt;Node9 -->
<g id="edge18" class="edge"><title>Node5&#45;&gt;Node9</title>
<path fill="none" stroke="midnightblue" d="M562.07,-22.3372C570.894,-20.9944 579.695,-19.6551 587.896,-18.4072"/>
<polygon fill="midnightblue" stroke="midnightblue" points="561.487,-18.8855 552.127,-23.8502 562.54,-25.8058 561.487,-18.8855"/>
</g>
<!-- Node7 -->
<g id="node13" class="node"><title>Node7</title>
<a xlink:href="keyboard__routines2_8cpp.html#a8563320b8eab661232619224650de244" target="_top" xlink:title="commandes_clavier">
<polygon fill="white" stroke="black" points="708,-42 708,-66 812,-66 812,-42 708,-42"/>
<text text-anchor="middle" x="760" y="-53" font-family="Helvetica,sans-Serif" font-size="10.00">commandes_clavier</text>
</a>
</g>
<!-- Node6&#45;&gt;Node7 -->
<g id="edge12" class="edge"><title>Node6&#45;&gt;Node7</title>
<path fill="none" stroke="midnightblue" d="M681.995,-54C690.473,-54 699.258,-54 707.742,-54"/>
<polygon fill="midnightblue" stroke="midnightblue" points="681.848,-50.5001 671.848,-54 681.848,-57.5001 681.848,-50.5001"/>
</g>
<!-- Node8 -->
<g id="node15" class="node"><title>Node8</title>
<a xlink:href="_m_a_i_n__avec__objets_8cpp.html#a8e80f54ac804eddce8ed6e45adb1db44" target="_top" xlink:title="ticker_full_loop">
<polygon fill="white" stroke="black" points="870,-42 870,-66 952,-66 952,-42 870,-42"/>
<text text-anchor="middle" x="911" y="-53" font-family="Helvetica,sans-Serif" font-size="10.00">ticker_full_loop</text>
</a>
</g>
<!-- Node7&#45;&gt;Node8 -->
<g id="edge14" class="edge"><title>Node7&#45;&gt;Node8</title>
<path fill="none" stroke="midnightblue" d="M822.664,-54C838.516,-54 855.147,-54 869.648,-54"/>
<polygon fill="midnightblue" stroke="midnightblue" points="822.389,-50.5001 812.389,-54 822.389,-57.5001 822.389,-50.5001"/>
</g>
<!-- Node8&#45;&gt;Node3 -->
<g id="edge16" class="edge"><title>Node8&#45;&gt;Node3</title>
<path fill="none" stroke="midnightblue" d="M962.55,-54C979.307,-54 996.879,-54 1009.74,-54"/>
<polygon fill="midnightblue" stroke="midnightblue" points="962.271,-50.5001 952.271,-54 962.271,-57.5001 962.271,-50.5001"/>
</g>
<!-- Node10 -->
<g id="node20" class="node"><title>Node10</title>
<a xlink:href="graphics__rebuild1_8cpp.html#ac2eae1e03fb72cc734ffbcef566483bf" target="_top" xlink:title="Boxes">
<polygon fill="white" stroke="black" points="738,-0 738,-24 782,-24 782,-0 738,-0"/>
<text text-anchor="middle" x="760" y="-11" font-family="Helvetica,sans-Serif" font-size="10.00">Boxes</text>
</a>
</g>
<!-- Node9&#45;&gt;Node10 -->
<g id="edge20" class="edge"><title>Node9&#45;&gt;Node10</title>
<path fill="none" stroke="midnightblue" d="M682.4,-12C701.658,-12 722.45,-12 737.66,-12"/>
<polygon fill="midnightblue" stroke="midnightblue" points="682.207,-8.5001 672.207,-12 682.207,-15.5001 682.207,-8.5001"/>
</g>
<!-- Node11 -->
<g id="node22" class="node"><title>Node11</title>
<a xlink:href="_m_a_i_n__avec__objets_8cpp.html#ade8d4ba65d55c94f8ee277829d722155" target="_top" xlink:title="main_actions_on_screen">
<polygon fill="white" stroke="black" points="848.5,-0 848.5,-24 973.5,-24 973.5,-0 848.5,-0"/>
<text text-anchor="middle" x="911" y="-11" font-family="Helvetica,sans-Serif" font-size="10.00">main_actions_on_screen</text>
</a>
</g>
<!-- Node10&#45;&gt;Node11 -->
<g id="edge22" class="edge"><title>Node10&#45;&gt;Node11</title>
<path fill="none" stroke="midnightblue" d="M792.395,-12C808.76,-12 829.187,-12 848.455,-12"/>
<polygon fill="midnightblue" stroke="midnightblue" points="792.281,-8.5001 782.281,-12 792.281,-15.5001 792.281,-8.5001"/>
</g>
<!-- Node11&#45;&gt;Node3 -->
<g id="edge24" class="edge"><title>Node11&#45;&gt;Node3</title>
<path fill="none" stroke="midnightblue" d="M957.823,-27.359C963.288,-29.2254 968.775,-31.1327 974,-33 986.031,-37.2997 999.426,-42.4073 1009.98,-46.5087"/>
<polygon fill="midnightblue" stroke="midnightblue" points="958.663,-23.9485 948.069,-24.0613 956.421,-30.5797 958.663,-23.9485"/>
</g>
<!-- Node12&#45;&gt;Node5 -->
<g id="edge28" class="edge"><title>Node12&#45;&gt;Node5</title>
<path fill="none" stroke="midnightblue" d="M406.451,-22.1775C415.047,-23.2649 423.679,-24.357 431.979,-25.4069"/>
<polygon fill="midnightblue" stroke="midnightblue" points="406.759,-18.6887 396.399,-20.9059 405.881,-25.6334 406.759,-18.6887"/>
</g>
</g>
</svg>
