<?xml version="1.0" encoding="UTF-8" standalone="no"?>
<!DOCTYPE svg PUBLIC "-//W3C//DTD SVG 1.1//EN"
 "http://www.w3.org/Graphics/SVG/1.1/DTD/svg11.dtd">
<!-- Generated by graphviz version 2.26.3 (20100126.1600)
 -->
<!-- Title: snap_kill_and_bounce Pages: 1 -->
<!--zoomable 278 -->
<svg id="main" version="1.1" xmlns="http://www.w3.org/2000/svg" xmlns:xlink="http://www.w3.org/1999/xlink" xml:space="preserve" onload="init(evt)">
<style type="text/css"><![CDATA[
.edge:hover path { stroke: red; }
.edge:hover polygon { stroke: red; fill: red; }
]]></style>
<script type="text/javascript"><![CDATA[
var edges = document.getElementsByTagName('g');
if (edges && edges.length) {
  for (var i=0;i<edges.length;i++) {
    if (edges[i].id.substr(0,4)=='edge') {
      edges[i].setAttribute('class','edge');
    }
  }
}
]]></script>
        <defs>
                <circle id="rim" cx="0" cy="0" r="7"/>
                <circle id="rim2" cx="0" cy="0" r="3.5"/>
                <g id="zoomPlus">
                        <use xlink:href="#rim" fill="#404040">
                                <set attributeName="fill" to="#808080" begin="zoomplus.mouseover" end="zoomplus.mouseout"/>
                        </use>
                        <path d="M-4,0h8M0,-4v8" fill="none" stroke="white" stroke-width="1.5" pointer-events="none"/>
                </g>
                <g id="zoomMin">
                        <use xlink:href="#rim" fill="#404040">
                                <set attributeName="fill" to="#808080" begin="zoomminus.mouseover" end="zoomminus.mouseout"/>
                        </use>
                        <path d="M-4,0h8" fill="none" stroke="white" stroke-width="1.5" pointer-events="none"/>
                </g>
                <g id="dirArrow">
                        <path fill="none" stroke="white" stroke-width="1.5" d="M0,-3.0v7 M-2.5,-0.5L0,-3.0L2.5,-0.5"/>
                </g>
               <g id="resetDef">
                       <use xlink:href="#rim2" fill="#404040">
                               <set attributeName="fill" to="#808080" begin="reset.mouseover" end="reset.mouseout"/>
                       </use>
               </g>
        </defs>

<script type="text/javascript">
var viewWidth = 1236;
var viewHeight = 278;
var sectionId = 'dynsection-213';
</script>
<script xlink:href="svgpan.js"/>
<svg id="graph" class="graph">
<g id="viewport">
<title>snap_kill_and_bounce</title>
<polygon fill="white" stroke="white" points="-4,5 -4,-274.381 1233,-274.381 1233,5 -4,5"/>
<!-- Node1 -->
<g id="node1" class="node"><title>Node1</title>
<polygon fill="#bfbfbf" stroke="black" points="0.5,-116 0.5,-140 113.5,-140 113.5,-116 0.5,-116"/>
<text text-anchor="middle" x="57" y="-127" font-family="Helvetica,sans-Serif" font-size="10.00">snap_kill_and_bounce</text>
</g>
<!-- Node2 -->
<g id="node3" class="node"><title>Node2</title>
<a xlink:href="banger__core__8_8cpp.html#ae4008269e0575da11cc90e812961ef6f" target="_top" xlink:title="Bang_event">
<polygon fill="white" stroke="black" points="179,-116 179,-140 247,-140 247,-116 179,-116"/>
<text text-anchor="middle" x="213" y="-127" font-family="Helvetica,sans-Serif" font-size="10.00">Bang_event</text>
</a>
</g>
<!-- Node1&#45;&gt;Node2 -->
<g id="edge2" class="edge"><title>Node1&#45;&gt;Node2</title>
<path fill="none" stroke="midnightblue" d="M123.855,-128C142.786,-128 162.611,-128 178.746,-128"/>
<polygon fill="midnightblue" stroke="midnightblue" points="123.761,-124.5 113.761,-128 123.761,-131.5 123.761,-124.5"/>
</g>
<!-- Node14 -->
<g id="node31" class="node"><title>Node14</title>
<a xlink:href="midi__13_8cpp.html#a6dff3d42682b58cc0a9875ee30fb4cd4" target="_top" xlink:title="do_midi_job">
<polygon fill="white" stroke="black" points="471,-0 471,-24 539,-24 539,-0 471,-0"/>
<text text-anchor="middle" x="505" y="-11" font-family="Helvetica,sans-Serif" font-size="10.00">do_midi_job</text>
</a>
</g>
<!-- Node1&#45;&gt;Node14 -->
<g id="edge60" class="edge"><title>Node1&#45;&gt;Node14</title>
<path fill="none" stroke="midnightblue" d="M94.797,-112.168C143.972,-92.1866 232.956,-58.1254 312,-39 366.752,-25.7521 431.924,-18.3156 470.802,-14.7351"/>
<polygon fill="midnightblue" stroke="midnightblue" points="93.4381,-108.942 85.5076,-115.967 96.0883,-115.421 93.4381,-108.942"/>
</g>
<!-- Node21 -->
<g id="node49" class="node"><title>Node21</title>
<a xlink:href="echo3_8cpp.html#a440d7e78e4b39340e539bef8b9d7e2e1" target="_top" xlink:title="do_logical_echo_window">
<polygon fill="white" stroke="black" points="150.5,-226 150.5,-250 275.5,-250 275.5,-226 150.5,-226"/>
<text text-anchor="middle" x="213" y="-237" font-family="Helvetica,sans-Serif" font-size="10.00">do_logical_echo_window</text>
</a>
</g>
<!-- Node1&#45;&gt;Node21 -->
<g id="edge56" class="edge"><title>Node1&#45;&gt;Node21</title>
<path fill="none" stroke="midnightblue" d="M82.676,-146.105C114.585,-168.605 168.173,-206.391 195.632,-225.753"/>
<polygon fill="midnightblue" stroke="midnightblue" points="84.4803,-143.095 74.2908,-140.192 80.4464,-148.815 84.4803,-143.095"/>
</g>
<!-- Node3 -->
<g id="node5" class="node"><title>Node3</title>
<a xlink:href="banger__core__8_8cpp.html#a4003a08a1620546de77b118c91d2fd9d" target="_top" xlink:title="do_bang">
<polygon fill="white" stroke="black" points="335.5,-213 335.5,-237 388.5,-237 388.5,-213 335.5,-213"/>
<text text-anchor="middle" x="362" y="-224" font-family="Helvetica,sans-Serif" font-size="10.00">do_bang</text>
</a>
</g>
<!-- Node2&#45;&gt;Node3 -->
<g id="edge4" class="edge"><title>Node2&#45;&gt;Node3</title>
<path fill="none" stroke="midnightblue" d="M240.239,-145.733C270.093,-165.168 317.193,-195.831 343.196,-212.759"/>
<polygon fill="midnightblue" stroke="midnightblue" points="241.86,-142.612 231.57,-140.089 238.041,-148.478 241.86,-142.612"/>
</g>
<!-- Node6 -->
<g id="node11" class="node"><title>Node6</title>
<a xlink:href="banger__core__8_8cpp.html#a4fe16ad483c0c1609d97aeb9a23c74ee" target="_top" xlink:title="do_logical_fenetre\l_banger">
<polygon fill="white" stroke="black" points="314.5,-136 314.5,-176 409.5,-176 409.5,-136 314.5,-136"/>
<text text-anchor="start" x="322.5" y="-163" font-family="Helvetica,sans-Serif" font-size="10.00">do_logical_fenetre</text>
<text text-anchor="middle" x="362" y="-147" font-family="Helvetica,sans-Serif" font-size="10.00">_banger</text>
</a>
</g>
<!-- Node2&#45;&gt;Node6 -->
<g id="edge10" class="edge"><title>Node2&#45;&gt;Node6</title>
<path fill="none" stroke="midnightblue" d="M257.147,-136.296C275.175,-139.684 296.062,-143.609 314.427,-147.06"/>
<polygon fill="midnightblue" stroke="midnightblue" points="257.658,-132.831 247.184,-134.424 256.365,-139.711 257.658,-132.831"/>
</g>
<!-- Node8 -->
<g id="node16" class="node"><title>Node8</title>
<a xlink:href="banger__core__8_8cpp.html#ab405ab53ea444b049e5ffa258498fcb6" target="_top" xlink:title="refresh_banger_wx">
<polygon fill="white" stroke="black" points="312.5,-89 312.5,-113 411.5,-113 411.5,-89 312.5,-89"/>
<text text-anchor="middle" x="362" y="-100" font-family="Helvetica,sans-Serif" font-size="10.00">refresh_banger_wx</text>
</a>
</g>
<!-- Node2&#45;&gt;Node8 -->
<g id="edge16" class="edge"><title>Node2&#45;&gt;Node8</title>
<path fill="none" stroke="midnightblue" d="M257.08,-120.012C274.475,-116.86 294.542,-113.224 312.438,-109.981"/>
<polygon fill="midnightblue" stroke="midnightblue" points="256.399,-116.579 247.184,-121.806 257.647,-123.466 256.399,-116.579"/>
</g>
<!-- Node2&#45;&gt;Node14 -->
<g id="edge54" class="edge"><title>Node2&#45;&gt;Node14</title>
<path fill="none" stroke="midnightblue" d="M245.432,-111.13C264.56,-101.471 289.378,-89.4342 312,-80 366.593,-57.2328 431.813,-35.3162 470.743,-22.7745"/>
<polygon fill="midnightblue" stroke="midnightblue" points="243.586,-108.143 236.262,-115.799 246.762,-114.381 243.586,-108.143"/>
</g>
<!-- Node4 -->
<g id="node7" class="node"><title>Node4</title>
<a xlink:href="_m_a_i_n__avec__objets_8cpp.html#a8e80f54ac804eddce8ed6e45adb1db44" target="_top" xlink:title="ticker_full_loop">
<polygon fill="white" stroke="black" points="770,-126 770,-150 852,-150 852,-126 770,-126"/>
<text text-anchor="middle" x="811" y="-137" font-family="Helvetica,sans-Serif" font-size="10.00">ticker_full_loop</text>
</a>
</g>
<!-- Node3&#45;&gt;Node4 -->
<g id="edge6" class="edge"><title>Node3&#45;&gt;Node4</title>
<path fill="none" stroke="midnightblue" d="M398.224,-237.58C467.65,-259.407 622.449,-296.884 734,-241 772.526,-221.7 796.727,-172.958 806.305,-150.137"/>
<polygon fill="midnightblue" stroke="midnightblue" points="399.207,-234.22 388.615,-234.486 397.061,-240.883 399.207,-234.22"/>
</g>
<!-- Node5 -->
<g id="node9" class="node"><title>Node5</title>
<a xlink:href="_m_a_i_n__avec__objets_8cpp.html#ae66f6b31b5ad750f1fe042a706a4e3d4" target="_top" xlink:title="main">
<polygon fill="white" stroke="black" points="1190,-96 1190,-120 1228,-120 1228,-96 1190,-96"/>
<text text-anchor="middle" x="1209" y="-107" font-family="Helvetica,sans-Serif" font-size="10.00">main</text>
</a>
</g>
<!-- Node4&#45;&gt;Node5 -->
<g id="edge8" class="edge"><title>Node4&#45;&gt;Node5</title>
<path fill="none" stroke="midnightblue" d="M862.235,-134.138C951.305,-127.424 1130.82,-113.893 1189.77,-109.45"/>
<polygon fill="midnightblue" stroke="midnightblue" points="861.803,-130.661 852.094,-134.902 862.329,-137.641 861.803,-130.661"/>
</g>
<!-- Node7 -->
<g id="node13" class="node"><title>Node7</title>
<a xlink:href="procs__visuels__rebuild1_8cpp.html#ae710b6e599e321ad5934a90140067054" target="_top" xlink:title="check_graphics_mouse\l_handling">
<polygon fill="white" stroke="black" points="606.5,-192 606.5,-232 725.5,-232 725.5,-192 606.5,-192"/>
<text text-anchor="start" x="614.5" y="-219" font-family="Helvetica,sans-Serif" font-size="10.00">check_graphics_mouse</text>
<text text-anchor="middle" x="666" y="-203" font-family="Helvetica,sans-Serif" font-size="10.00">_handling</text>
</a>
</g>
<!-- Node6&#45;&gt;Node7 -->
<g id="edge12" class="edge"><title>Node6&#45;&gt;Node7</title>
<path fill="none" stroke="midnightblue" d="M390.291,-182.871C405.983,-195.903 426.613,-210.185 448,-217 499.58,-233.436 561.558,-229.95 606.222,-223.67"/>
<polygon fill="midnightblue" stroke="midnightblue" points="392.421,-180.086 382.558,-176.216 387.855,-185.391 392.421,-180.086"/>
</g>
<!-- Node7&#45;&gt;Node4 -->
<g id="edge14" class="edge"><title>Node7&#45;&gt;Node4</title>
<path fill="none" stroke="midnightblue" d="M714.389,-187.305C738.863,-174.815 767.473,-160.214 787.173,-150.16"/>
<polygon fill="midnightblue" stroke="midnightblue" points="712.555,-184.311 705.239,-191.975 715.737,-190.546 712.555,-184.311"/>
</g>
<!-- Node9 -->
<g id="node18" class="node"><title>Node9</title>
<a xlink:href="i_cat14_8cpp.html#a16285241f82898e7a5f051b03d90b9a3" target="_top" xlink:title="check_button">
<polygon fill="white" stroke="black" points="467.5,-126 467.5,-150 542.5,-150 542.5,-126 467.5,-126"/>
<text text-anchor="middle" x="505" y="-137" font-family="Helvetica,sans-Serif" font-size="10.00">check_button</text>
</a>
</g>
<!-- Node8&#45;&gt;Node9 -->
<g id="edge18" class="edge"><title>Node8&#45;&gt;Node9</title>
<path fill="none" stroke="midnightblue" d="M418.477,-115.613C434.898,-119.862 452.427,-124.397 467.383,-128.267"/>
<polygon fill="midnightblue" stroke="midnightblue" points="418.986,-112.129 408.428,-113.013 417.232,-118.906 418.986,-112.129"/>
</g>
<!-- Node11 -->
<g id="node23" class="node"><title>Node11</title>
<a xlink:href="keyboard__functions2_8cpp.html#af3dd6697323b10b480719c1612bcf29a" target="_top" xlink:title="key_backward">
<polygon fill="white" stroke="black" points="465,-42 465,-66 545,-66 545,-42 465,-42"/>
<text text-anchor="middle" x="505" y="-53" font-family="Helvetica,sans-Serif" font-size="10.00">key_backward</text>
</a>
</g>
<!-- Node8&#45;&gt;Node11 -->
<g id="edge24" class="edge"><title>Node8&#45;&gt;Node11</title>
<path fill="none" stroke="midnightblue" d="M408.392,-85.7524C427.807,-79.371 450.052,-72.0597 468.299,-66.0627"/>
<polygon fill="midnightblue" stroke="midnightblue" points="407.233,-82.4489 398.826,-88.8963 409.419,-89.0989 407.233,-82.4489"/>
</g>
<!-- Node13 -->
<g id="node28" class="node"><title>Node13</title>
<a xlink:href="keyboard__functions2_8cpp.html#a6b73a3669797504ce2e357d9a8b9a2c2" target="_top" xlink:title="key_forward">
<polygon fill="white" stroke="black" points="470,-84 470,-108 540,-108 540,-84 470,-84"/>
<text text-anchor="middle" x="505" y="-95" font-family="Helvetica,sans-Serif" font-size="10.00">key_forward</text>
</a>
</g>
<!-- Node8&#45;&gt;Node13 -->
<g id="edge30" class="edge"><title>Node8&#45;&gt;Node13</title>
<path fill="none" stroke="midnightblue" d="M421.687,-98.913C438.095,-98.3393 455.356,-97.7358 469.885,-97.2278"/>
<polygon fill="midnightblue" stroke="midnightblue" points="421.485,-95.4179 411.613,-99.2653 421.729,-102.414 421.485,-95.4179"/>
</g>
<!-- Node8&#45;&gt;Node14 -->
<g id="edge34" class="edge"><title>Node8&#45;&gt;Node14</title>
<path fill="none" stroke="midnightblue" d="M397.563,-83.8497C402.597,-80.8434 407.563,-77.5345 412,-74 430.967,-58.8902 428.008,-46.7248 448,-33 454.869,-28.2846 462.926,-24.4797 470.785,-21.4723"/>
<polygon fill="midnightblue" stroke="midnightblue" points="395.538,-80.9727 388.529,-88.9176 398.963,-87.0777 395.538,-80.9727"/>
</g>
<!-- Node20 -->
<g id="node45" class="node"><title>Node20</title>
<a xlink:href="sequentiel__6__core_8cpp.html#a2a71c851cf25565491dd10423bc80380" target="_top" xlink:title="do_logical_Sequenciel\l_Window">
<polygon fill="white" stroke="black" points="448.5,-168 448.5,-208 561.5,-208 561.5,-168 448.5,-168"/>
<text text-anchor="start" x="456.5" y="-195" font-family="Helvetica,sans-Serif" font-size="10.00">do_logical_Sequenciel</text>
<text text-anchor="middle" x="505" y="-179" font-family="Helvetica,sans-Serif" font-size="10.00">_Window</text>
</a>
</g>
<!-- Node8&#45;&gt;Node20 -->
<g id="edge50" class="edge"><title>Node8&#45;&gt;Node20</title>
<path fill="none" stroke="midnightblue" d="M397.209,-117.899C402.292,-120.74 407.367,-123.809 412,-127 429.631,-139.142 430.315,-146.937 448,-159 452.586,-162.128 457.555,-165.141 462.583,-167.964"/>
<polygon fill="midnightblue" stroke="midnightblue" points="398.611,-114.68 388.141,-113.054 395.312,-120.854 398.611,-114.68"/>
</g>
<!-- Node10 -->
<g id="node20" class="node"><title>Node10</title>
<a xlink:href="i_cat14_8cpp.html#aa9772b548765a631d4bae1c14053b4e1" target="_top" xlink:title="DoJobFantastickTouch">
<polygon fill="white" stroke="black" points="607.5,-126 607.5,-150 724.5,-150 724.5,-126 607.5,-126"/>
<text text-anchor="middle" x="666" y="-137" font-family="Helvetica,sans-Serif" font-size="10.00">DoJobFantastickTouch</text>
</a>
</g>
<!-- Node9&#45;&gt;Node10 -->
<g id="edge20" class="edge"><title>Node9&#45;&gt;Node10</title>
<path fill="none" stroke="midnightblue" d="M553.039,-138C570.111,-138 589.521,-138 607.378,-138"/>
<polygon fill="midnightblue" stroke="midnightblue" points="552.747,-134.5 542.747,-138 552.747,-141.5 552.747,-134.5"/>
</g>
<!-- Node10&#45;&gt;Node4 -->
<g id="edge22" class="edge"><title>Node10&#45;&gt;Node4</title>
<path fill="none" stroke="midnightblue" d="M734.913,-138C746.77,-138 758.754,-138 769.594,-138"/>
<polygon fill="midnightblue" stroke="midnightblue" points="734.559,-134.5 724.559,-138 734.559,-141.5 734.559,-134.5"/>
</g>
<!-- Node12 -->
<g id="node25" class="node"><title>Node12</title>
<a xlink:href="keyboard__routines2_8cpp.html#a8563320b8eab661232619224650de244" target="_top" xlink:title="commandes_clavier">
<polygon fill="white" stroke="black" points="614,-84 614,-108 718,-108 718,-84 614,-84"/>
<text text-anchor="middle" x="666" y="-95" font-family="Helvetica,sans-Serif" font-size="10.00">commandes_clavier</text>
</a>
</g>
<!-- Node11&#45;&gt;Node12 -->
<g id="edge26" class="edge"><title>Node11&#45;&gt;Node12</title>
<path fill="none" stroke="midnightblue" d="M555.07,-67.0618C575.725,-72.45 599.514,-78.6557 619.752,-83.9353"/>
<polygon fill="midnightblue" stroke="midnightblue" points="555.771,-63.6277 545.212,-64.49 554.004,-70.401 555.771,-63.6277"/>
</g>
<!-- Node12&#45;&gt;Node4 -->
<g id="edge28" class="edge"><title>Node12&#45;&gt;Node4</title>
<path fill="none" stroke="midnightblue" d="M717.456,-110.904C734.675,-115.892 753.627,-121.382 769.944,-126.108"/>
<polygon fill="midnightblue" stroke="midnightblue" points="718.13,-107.456 707.551,-108.036 716.183,-114.18 718.13,-107.456"/>
</g>
<!-- Node13&#45;&gt;Node12 -->
<g id="edge32" class="edge"><title>Node13&#45;&gt;Node12</title>
<path fill="none" stroke="midnightblue" d="M550.598,-96C570.329,-96 593.53,-96 613.934,-96"/>
<polygon fill="midnightblue" stroke="midnightblue" points="550.332,-92.5001 540.332,-96 550.332,-99.5001 550.332,-92.5001"/>
</g>
<!-- Node15 -->
<g id="node33" class="node"><title>Node15</title>
<a xlink:href="midi__13_8cpp.html#a6bedf9750195224914cd87c4e73ab626" target="_top" xlink:title="ventilate_midi_to_midiarray">
<polygon fill="white" stroke="black" points="598.5,-3 598.5,-27 733.5,-27 733.5,-3 598.5,-3"/>
<text text-anchor="middle" x="666" y="-14" font-family="Helvetica,sans-Serif" font-size="10.00">ventilate_midi_to_midiarray</text>
</a>
</g>
<!-- Node14&#45;&gt;Node15 -->
<g id="edge36" class="edge"><title>Node14&#45;&gt;Node15</title>
<path fill="none" stroke="midnightblue" d="M549.272,-12.8249C564.455,-13.1079 581.811,-13.4313 598.414,-13.7406"/>
<polygon fill="midnightblue" stroke="midnightblue" points="549.207,-9.32323 539.144,-12.6362 549.077,-16.322 549.207,-9.32323"/>
</g>
<!-- Node16 -->
<g id="node35" class="node"><title>Node16</title>
<a xlink:href="midi__13_8cpp.html#afa49dd5668303c2448676c8243737c2d" target="_top" xlink:title="simulate_midi">
<polygon fill="white" stroke="black" points="772.5,-13 772.5,-37 849.5,-37 849.5,-13 772.5,-13"/>
<text text-anchor="middle" x="811" y="-24" font-family="Helvetica,sans-Serif" font-size="10.00">simulate_midi</text>
</a>
</g>
<!-- Node15&#45;&gt;Node16 -->
<g id="edge38" class="edge"><title>Node15&#45;&gt;Node16</title>
<path fill="none" stroke="midnightblue" d="M744.103,-20.3864C753.941,-21.0649 763.642,-21.7339 772.473,-22.343"/>
<polygon fill="midnightblue" stroke="midnightblue" points="744.047,-16.8743 733.83,-19.6779 743.565,-23.8578 744.047,-16.8743"/>
</g>
<!-- Node17 -->
<g id="node37" class="node"><title>Node17</title>
<a xlink:href="arduino__core__6___u_n_o_8cpp.html#ae72d1a8d74d9ab5515962e03e7e664d6" target="_top" xlink:title="arduino_do_analog_in\l_whitecat">
<polygon fill="white" stroke="black" points="888,-63 888,-103 998,-103 998,-63 888,-63"/>
<text text-anchor="start" x="896" y="-90" font-family="Helvetica,sans-Serif" font-size="10.00">arduino_do_analog_in</text>
<text text-anchor="middle" x="943" y="-74" font-family="Helvetica,sans-Serif" font-size="10.00">_whitecat</text>
</a>
</g>
<!-- Node16&#45;&gt;Node17 -->
<g id="edge40" class="edge"><title>Node16&#45;&gt;Node17</title>
<path fill="none" stroke="midnightblue" d="M847.539,-41.0549C862.918,-47.8123 880.982,-55.7495 897.234,-62.8905"/>
<polygon fill="midnightblue" stroke="midnightblue" points="848.914,-37.8361 838.35,-37.0176 846.098,-44.2448 848.914,-37.8361"/>
</g>
<!-- Node19 -->
<g id="node42" class="node"><title>Node19</title>
<a xlink:href="arduino__core__6___u_n_o_8cpp.html#a219226c1cd6cc17c78e62fd4445bb445" target="_top" xlink:title="arduino_do_digital\l_in_whitecat">
<polygon fill="white" stroke="black" points="895.5,-5 895.5,-45 990.5,-45 990.5,-5 895.5,-5"/>
<text text-anchor="start" x="903.5" y="-32" font-family="Helvetica,sans-Serif" font-size="10.00">arduino_do_digital</text>
<text text-anchor="middle" x="943" y="-16" font-family="Helvetica,sans-Serif" font-size="10.00">_in_whitecat</text>
</a>
</g>
<!-- Node16&#45;&gt;Node19 -->
<g id="edge46" class="edge"><title>Node16&#45;&gt;Node19</title>
<path fill="none" stroke="midnightblue" d="M859.541,-25C871.203,-25 883.648,-25 895.272,-25"/>
<polygon fill="midnightblue" stroke="midnightblue" points="859.535,-21.5001 849.535,-25 859.535,-28.5001 859.535,-21.5001"/>
</g>
<!-- Node18 -->
<g id="node39" class="node"><title>Node18</title>
<a xlink:href="_m_a_i_n__avec__objets_8cpp.html#ace9c8a9b37c6087c3cffef442d71d70e" target="_top" xlink:title="dixiemes_de_secondes">
<polygon fill="white" stroke="black" points="1034.5,-71 1034.5,-95 1153.5,-95 1153.5,-71 1034.5,-71"/>
<text text-anchor="middle" x="1094" y="-82" font-family="Helvetica,sans-Serif" font-size="10.00">dixiemes_de_secondes</text>
</a>
</g>
<!-- Node17&#45;&gt;Node18 -->
<g id="edge42" class="edge"><title>Node17&#45;&gt;Node18</title>
<path fill="none" stroke="midnightblue" d="M1008.38,-83C1017,-83 1025.8,-83 1034.32,-83"/>
<polygon fill="midnightblue" stroke="midnightblue" points="1008.37,-79.5001 998.369,-83 1008.37,-86.5001 1008.37,-79.5001"/>
</g>
<!-- Node18&#45;&gt;Node5 -->
<g id="edge44" class="edge"><title>Node18&#45;&gt;Node5</title>
<path fill="none" stroke="midnightblue" d="M1159.3,-97.1957C1170.41,-99.6107 1181.12,-101.94 1189.74,-103.813"/>
<polygon fill="midnightblue" stroke="midnightblue" points="1159.99,-93.7649 1149.48,-95.0606 1158.51,-100.605 1159.99,-93.7649"/>
</g>
<!-- Node19&#45;&gt;Node18 -->
<g id="edge48" class="edge"><title>Node19&#45;&gt;Node18</title>
<path fill="none" stroke="midnightblue" d="M1000.34,-47.0229C1021.51,-55.1544 1044.7,-64.0639 1062.71,-70.9824"/>
<polygon fill="midnightblue" stroke="midnightblue" points="1001.37,-43.67 990.777,-43.3516 998.857,-50.2045 1001.37,-43.67"/>
</g>
<!-- Node20&#45;&gt;Node7 -->
<g id="edge52" class="edge"><title>Node20&#45;&gt;Node7</title>
<path fill="none" stroke="midnightblue" d="M571.757,-197.951C583.271,-199.668 595.171,-201.442 606.478,-203.127"/>
<polygon fill="midnightblue" stroke="midnightblue" points="572.169,-194.474 561.763,-196.462 571.137,-201.398 572.169,-194.474"/>
</g>
<!-- Node21&#45;&gt;Node7 -->
<g id="edge58" class="edge"><title>Node21&#45;&gt;Node7</title>
<path fill="none" stroke="midnightblue" d="M285.535,-244.537C294.442,-245.14 303.425,-245.654 312,-246 423.11,-250.482 451.994,-252.253 562,-236 576.482,-233.86 591.929,-230.756 606.368,-227.486"/>
<polygon fill="midnightblue" stroke="midnightblue" points="285.759,-241.044 275.535,-243.822 285.26,-248.026 285.759,-241.044"/>
</g>
</g>
</svg>
        <g id="navigator" transform="translate(0 0)" fill="#404254">
                <rect fill="#f2f5e9" fill-opacity="0.5" stroke="#606060" stroke-width=".5" x="0" y="0" width="60" height="60"/>
                <use id="zoomplus" xlink:href="#zoomPlus" x="17" y="9" onmousedown="handleZoom(evt,'in')"/>
                <use id="zoomminus" xlink:href="#zoomMin" x="42" y="9" onmousedown="handleZoom(evt,'out')"/>
                <use id="reset" xlink:href="#resetDef" x="30" y="36" onmousedown="handleReset()"/>
                <g id="arrowUp" xlink:href="#dirArrow" transform="translate(30 24)" onmousedown="handlePan(0,-1)">
                  <use xlink:href="#rim" fill="#404040">
                        <set attributeName="fill" to="#808080" begin="arrowUp.mouseover" end="arrowUp.mouseout"/>
                  </use>
                  <path fill="none" stroke="white" stroke-width="1.5" d="M0,-3.0v7 M-2.5,-0.5L0,-3.0L2.5,-0.5"/>
                </g>
                <g id="arrowRight" xlink:href="#dirArrow" transform="rotate(90) translate(36 -43)" onmousedown="handlePan(1,0)">
                  <use xlink:href="#rim" fill="#404040">
                        <set attributeName="fill" to="#808080" begin="arrowRight.mouseover" end="arrowRight.mouseout"/>
                  </use>
                  <path fill="none" stroke="white" stroke-width="1.5" d="M0,-3.0v7 M-2.5,-0.5L0,-3.0L2.5,-0.5"/>
                </g>
                <g id="arrowDown" xlink:href="#dirArrow" transform="rotate(180) translate(-30 -48)" onmousedown="handlePan(0,1)">
                  <use xlink:href="#rim" fill="#404040">
                        <set attributeName="fill" to="#808080" begin="arrowDown.mouseover" end="arrowDown.mouseout"/>
                  </use>
                  <path fill="none" stroke="white" stroke-width="1.5" d="M0,-3.0v7 M-2.5,-0.5L0,-3.0L2.5,-0.5"/>
                </g>
                <g id="arrowLeft" xlink:href="#dirArrow" transform="rotate(270) translate(-36 17)" onmousedown="handlePan(-1,0)">
                  <use xlink:href="#rim" fill="#404040">
                        <set attributeName="fill" to="#808080" begin="arrowLeft.mouseover" end="arrowLeft.mouseout"/>
                  </use>
                  <path fill="none" stroke="white" stroke-width="1.5" d="M0,-3.0v7 M-2.5,-0.5L0,-3.0L2.5,-0.5"/>
                </g>
        </g>
        <svg viewBox="0 0 15 15" width="100%" height="30px" preserveAspectRatio="xMaxYMin meet">
         <g id="arrow_out" transform="scale(0.3 0.3)">
          <a xlink:href="_c_o_r_e__6_8cpp_ace96027c239724d93e5b27365ce0eea9_icgraph_org.svg" target="_base">
           <rect id="button" ry="5" rx="5" y="6" x="6" height="38" width="38"
                fill="#f2f5e9" fill-opacity="0.5" stroke="#606060" stroke-width="1.0"/>
           <path id="arrow"
             d="M 11.500037,31.436501 C 11.940474,20.09759 22.043105,11.32322 32.158766,21.979434 L 37.068811,17.246167 C 37.068811,17.246167 37.088388,32 37.088388,32 L 22.160133,31.978069 C 22.160133,31.978069 26.997745,27.140456 26.997745,27.140456 C 18.528582,18.264221 13.291696,25.230495 11.500037,31.436501 z"
             style="fill:#404040;"/>
          </a>
         </g>
        </svg>
</svg>
