<?xml version="1.0" encoding="UTF-8" standalone="no"?>
<!DOCTYPE svg PUBLIC "-//W3C//DTD SVG 1.1//EN"
 "http://www.w3.org/Graphics/SVG/1.1/DTD/svg11.dtd">
<!-- Generated by graphviz version 2.26.3 (20100126.1600)
 -->
<!-- Title: reset_show Pages: 1 -->
<svg width="728pt" height="74pt"
 viewBox="0.00 0.00 728.00 74.00" xmlns="http://www.w3.org/2000/svg" xmlns:xlink="http://www.w3.org/1999/xlink">
<g id="graph1" class="graph" transform="scale(1 1) rotate(0) translate(4 70)">
<title>reset_show</title>
<polygon fill="white" stroke="white" points="-4,5 -4,-70 725,-70 725,5 -4,5"/>
<!-- Node1 -->
<g id="node1" class="node"><title>Node1</title>
<polygon fill="#bfbfbf" stroke="black" points="0.5,-21 0.5,-45 67.5,-45 67.5,-21 0.5,-21"/>
<text text-anchor="middle" x="34" y="-32" font-family="Helvetica,sans-Serif" font-size="10.00">reset_show</text>
</g>
<!-- Node2 -->
<g id="node3" class="node"><title>Node2</title>
<a xlink:href="logicals__intres_8cpp.html#a74cf9c04c734ab342f88799efbfc4210" target="_top" xlink:title="operations_confirmation">
<polygon fill="white" stroke="black" points="104,-21 104,-45 224,-45 224,-21 104,-21"/>
<text text-anchor="middle" x="164" y="-32" font-family="Helvetica,sans-Serif" font-size="10.00">operations_confirmation</text>
</a>
</g>
<!-- Node1&#45;&gt;Node2 -->
<g id="edge2" class="edge"><title>Node1&#45;&gt;Node2</title>
<path fill="none" stroke="midnightblue" d="M78.0358,-33C86.3579,-33 95.1934,-33 103.911,-33"/>
<polygon fill="midnightblue" stroke="midnightblue" points="77.8166,-29.5001 67.8166,-33 77.8166,-36.5001 77.8166,-29.5001"/>
</g>
<!-- Node3 -->
<g id="node5" class="node"><title>Node3</title>
<a xlink:href="keyboard__functions2_8cpp.html#a548548066307f816c5021de7d6e4f26a" target="_top" xlink:title="key_affectation">
<polygon fill="white" stroke="black" points="260.5,-42 260.5,-66 343.5,-66 343.5,-42 260.5,-42"/>
<text text-anchor="middle" x="302" y="-53" font-family="Helvetica,sans-Serif" font-size="10.00">key_affectation</text>
</a>
</g>
<!-- Node2&#45;&gt;Node3 -->
<g id="edge4" class="edge"><title>Node2&#45;&gt;Node3</title>
<path fill="none" stroke="midnightblue" d="M234.19,-43.681C243.12,-45.04 252.024,-46.395 260.303,-47.6548"/>
<polygon fill="midnightblue" stroke="midnightblue" points="234.54,-40.1942 224.127,-42.1498 233.487,-47.1145 234.54,-40.1942"/>
</g>
<!-- Node7 -->
<g id="node13" class="node"><title>Node7</title>
<a xlink:href="logicals__intres_8cpp.html#a85967c22135715eca94d08af2ec1a1fb" target="_top" xlink:title="fenetre_confirm">
<polygon fill="white" stroke="black" points="260,-0 260,-24 344,-24 344,-0 260,-0"/>
<text text-anchor="middle" x="302" y="-11" font-family="Helvetica,sans-Serif" font-size="10.00">fenetre_confirm</text>
</a>
</g>
<!-- Node2&#45;&gt;Node7 -->
<g id="edge12" class="edge"><title>Node2&#45;&gt;Node7</title>
<path fill="none" stroke="midnightblue" d="M234.07,-22.3372C242.894,-20.9944 251.695,-19.6551 259.896,-18.4072"/>
<polygon fill="midnightblue" stroke="midnightblue" points="233.487,-18.8855 224.127,-23.8502 234.54,-25.8058 233.487,-18.8855"/>
</g>
<!-- Node4 -->
<g id="node7" class="node"><title>Node4</title>
<a xlink:href="keyboard__routines2_8cpp.html#a8563320b8eab661232619224650de244" target="_top" xlink:title="commandes_clavier">
<polygon fill="white" stroke="black" points="380,-42 380,-66 484,-66 484,-42 380,-42"/>
<text text-anchor="middle" x="432" y="-53" font-family="Helvetica,sans-Serif" font-size="10.00">commandes_clavier</text>
</a>
</g>
<!-- Node3&#45;&gt;Node4 -->
<g id="edge6" class="edge"><title>Node3&#45;&gt;Node4</title>
<path fill="none" stroke="midnightblue" d="M353.995,-54C362.473,-54 371.258,-54 379.742,-54"/>
<polygon fill="midnightblue" stroke="midnightblue" points="353.848,-50.5001 343.848,-54 353.848,-57.5001 353.848,-50.5001"/>
</g>
<!-- Node5 -->
<g id="node9" class="node"><title>Node5</title>
<a xlink:href="_m_a_i_n__avec__objets_8cpp.html#a8e80f54ac804eddce8ed6e45adb1db44" target="_top" xlink:title="ticker_full_loop">
<polygon fill="white" stroke="black" points="542,-42 542,-66 624,-66 624,-42 542,-42"/>
<text text-anchor="middle" x="583" y="-53" font-family="Helvetica,sans-Serif" font-size="10.00">ticker_full_loop</text>
</a>
</g>
<!-- Node4&#45;&gt;Node5 -->
<g id="edge8" class="edge"><title>Node4&#45;&gt;Node5</title>
<path fill="none" stroke="midnightblue" d="M494.664,-54C510.516,-54 527.147,-54 541.648,-54"/>
<polygon fill="midnightblue" stroke="midnightblue" points="494.389,-50.5001 484.389,-54 494.389,-57.5001 494.389,-50.5001"/>
</g>
<!-- Node6 -->
<g id="node11" class="node"><title>Node6</title>
<a xlink:href="_m_a_i_n__avec__objets_8cpp.html#ae66f6b31b5ad750f1fe042a706a4e3d4" target="_top" xlink:title="main">
<polygon fill="white" stroke="black" points="682,-21 682,-45 720,-45 720,-21 682,-21"/>
<text text-anchor="middle" x="701" y="-32" font-family="Helvetica,sans-Serif" font-size="10.00">main</text>
</a>
</g>
<!-- Node5&#45;&gt;Node6 -->
<g id="edge10" class="edge"><title>Node5&#45;&gt;Node6</title>
<path fill="none" stroke="midnightblue" d="M634.55,-44.8259C651.307,-41.8437 668.879,-38.7164 681.742,-36.4273"/>
<polygon fill="midnightblue" stroke="midnightblue" points="633.503,-41.4572 624.271,-46.6552 634.729,-48.3489 633.503,-41.4572"/>
</g>
<!-- Node8 -->
<g id="node15" class="node"><title>Node8</title>
<a xlink:href="graphics__rebuild1_8cpp.html#ac2eae1e03fb72cc734ffbcef566483bf" target="_top" xlink:title="Boxes">
<polygon fill="white" stroke="black" points="410,-0 410,-24 454,-24 454,-0 410,-0"/>
<text text-anchor="middle" x="432" y="-11" font-family="Helvetica,sans-Serif" font-size="10.00">Boxes</text>
</a>
</g>
<!-- Node7&#45;&gt;Node8 -->
<g id="edge14" class="edge"><title>Node7&#45;&gt;Node8</title>
<path fill="none" stroke="midnightblue" d="M354.4,-12C373.658,-12 394.45,-12 409.66,-12"/>
<polygon fill="midnightblue" stroke="midnightblue" points="354.207,-8.5001 344.207,-12 354.207,-15.5001 354.207,-8.5001"/>
</g>
<!-- Node9 -->
<g id="node17" class="node"><title>Node9</title>
<a xlink:href="_m_a_i_n__avec__objets_8cpp.html#ade8d4ba65d55c94f8ee277829d722155" target="_top" xlink:title="main_actions_on_screen">
<polygon fill="white" stroke="black" points="520.5,-0 520.5,-24 645.5,-24 645.5,-0 520.5,-0"/>
<text text-anchor="middle" x="583" y="-11" font-family="Helvetica,sans-Serif" font-size="10.00">main_actions_on_screen</text>
</a>
</g>
<!-- Node8&#45;&gt;Node9 -->
<g id="edge16" class="edge"><title>Node8&#45;&gt;Node9</title>
<path fill="none" stroke="midnightblue" d="M464.395,-12C480.76,-12 501.187,-12 520.455,-12"/>
<polygon fill="midnightblue" stroke="midnightblue" points="464.281,-8.5001 454.281,-12 464.281,-15.5001 464.281,-8.5001"/>
</g>
<!-- Node9&#45;&gt;Node6 -->
<g id="edge18" class="edge"><title>Node9&#45;&gt;Node6</title>
<path fill="none" stroke="midnightblue" d="M655.837,-24.9626C665.336,-26.6529 674.327,-28.253 681.749,-29.5739"/>
<polygon fill="midnightblue" stroke="midnightblue" points="656.259,-21.4827 645.8,-23.1763 655.032,-28.3744 656.259,-21.4827"/>
</g>
</g>
</svg>
