<?xml version="1.0" encoding="UTF-8" standalone="no"?>
<!DOCTYPE svg PUBLIC "-//W3C//DTD SVG 1.1//EN"
 "http://www.w3.org/Graphics/SVG/1.1/DTD/svg11.dtd">
<!-- Generated by graphviz version 2.26.3 (20100126.1600)
 -->
<!-- Title: set_all_saves_indexes_at Pages: 1 -->
<svg width="1130pt" height="262pt"
 viewBox="0.00 0.00 1130.00 262.00" xmlns="http://www.w3.org/2000/svg" xmlns:xlink="http://www.w3.org/1999/xlink">
<g id="graph1" class="graph" transform="scale(1 1) rotate(0) translate(4 258)">
<title>set_all_saves_indexes_at</title>
<polygon fill="white" stroke="white" points="-4,5 -4,-258 1127,-258 1127,5 -4,5"/>
<!-- Node1 -->
<g id="node1" class="node"><title>Node1</title>
<polygon fill="#bfbfbf" stroke="black" points="0.5,-80 0.5,-104 129.5,-104 129.5,-80 0.5,-80"/>
<text text-anchor="middle" x="65" y="-91" font-family="Helvetica,sans-Serif" font-size="10.00">set_all_saves_indexes_at</text>
</g>
<!-- Node2 -->
<g id="node3" class="node"><title>Node2</title>
<a xlink:href="_c_o_r_e__6_8cpp.html#a5e53dc8ef589fe38b9d40e3497ac3f13" target="_top" xlink:title="GlobInit">
<polygon fill="white" stroke="black" points="205,-120 205,-144 255,-144 255,-120 205,-120"/>
<text text-anchor="middle" x="230" y="-131" font-family="Helvetica,sans-Serif" font-size="10.00">GlobInit</text>
</a>
</g>
<!-- Node1&#45;&gt;Node2 -->
<g id="edge2" class="edge"><title>Node1&#45;&gt;Node2</title>
<path fill="none" stroke="midnightblue" d="M124.507,-106.426C152.184,-113.136 183.614,-120.755 204.915,-125.919"/>
<polygon fill="midnightblue" stroke="midnightblue" points="125.049,-102.956 114.505,-104.001 123.399,-109.759 125.049,-102.956"/>
</g>
<!-- Node3 -->
<g id="node5" class="node"><title>Node3</title>
<a xlink:href="_c_o_r_e__6_8cpp.html#a29400ad92b676ecb7743384700af5560" target="_top" xlink:title="reset_show">
<polygon fill="white" stroke="black" points="366.5,-80 366.5,-104 433.5,-104 433.5,-80 366.5,-80"/>
<text text-anchor="middle" x="400" y="-91" font-family="Helvetica,sans-Serif" font-size="10.00">reset_show</text>
</a>
</g>
<!-- Node1&#45;&gt;Node3 -->
<g id="edge28" class="edge"><title>Node1&#45;&gt;Node3</title>
<path fill="none" stroke="midnightblue" d="M139.791,-92C210.576,-92 313.608,-92 366.268,-92"/>
<polygon fill="midnightblue" stroke="midnightblue" points="139.591,-88.5001 129.591,-92 139.591,-95.5001 139.591,-88.5001"/>
</g>
<!-- Node4 -->
<g id="node7" class="node"><title>Node4</title>
<a xlink:href="logicals__intres_8cpp.html#a74cf9c04c734ab342f88799efbfc4210" target="_top" xlink:title="operations_confirmation">
<polygon fill="white" stroke="black" points="506,-78 506,-102 626,-102 626,-78 506,-78"/>
<text text-anchor="middle" x="566" y="-89" font-family="Helvetica,sans-Serif" font-size="10.00">operations_confirmation</text>
</a>
</g>
<!-- Node1&#45;&gt;Node4 -->
<g id="edge30" class="edge"><title>Node1&#45;&gt;Node4</title>
<path fill="none" stroke="midnightblue" d="M139.819,-81.4466C221.214,-71.5213 355.093,-59.7382 470,-71 484.711,-72.4418 500.51,-75.098 514.959,-77.9766"/>
<polygon fill="midnightblue" stroke="midnightblue" points="139.16,-78.0014 129.668,-82.708 140.024,-84.948 139.16,-78.0014"/>
</g>
<!-- Node12 -->
<g id="node28" class="node"><title>Node12</title>
<a xlink:href="save__show__13_8cpp.html#a2c8ff847dfaf2dc6c8765b2bee26edfc" target="_top" xlink:title="do_wizard_reload_from_disk">
<polygon fill="white" stroke="black" points="330,-0 330,-24 470,-24 470,-0 330,-0"/>
<text text-anchor="middle" x="400" y="-11" font-family="Helvetica,sans-Serif" font-size="10.00">do_wizard_reload_from_disk</text>
</a>
</g>
<!-- Node1&#45;&gt;Node12 -->
<g id="edge32" class="edge"><title>Node1&#45;&gt;Node12</title>
<path fill="none" stroke="midnightblue" d="M91.3809,-74.2791C111.074,-61.9724 139.113,-46.3412 166,-38 219.484,-21.4073 282.739,-15.1278 329.99,-12.8751"/>
<polygon fill="midnightblue" stroke="midnightblue" points="89.2311,-71.4993 82.69,-79.8339 93.0009,-77.3975 89.2311,-71.4993"/>
</g>
<!-- Node13 -->
<g id="node31" class="node"><title>Node13</title>
<a xlink:href="saves__menu__8_8cpp.html#a2404adf9c5e730ecf56aad688799482e" target="_top" xlink:title="do_logical_selecteur\l_binary_save_solo_global">
<polygon fill="white" stroke="black" points="166,-180 166,-220 294,-220 294,-180 166,-180"/>
<text text-anchor="start" x="174" y="-207" font-family="Helvetica,sans-Serif" font-size="10.00">do_logical_selecteur</text>
<text text-anchor="middle" x="230" y="-191" font-family="Helvetica,sans-Serif" font-size="10.00">_binary_save_solo_global</text>
</a>
</g>
<!-- Node1&#45;&gt;Node13 -->
<g id="edge36" class="edge"><title>Node1&#45;&gt;Node13</title>
<path fill="none" stroke="midnightblue" d="M92.1609,-109.778C121.656,-129.084 168.661,-159.851 199.428,-179.989"/>
<polygon fill="midnightblue" stroke="midnightblue" points="93.8907,-106.727 83.6069,-104.179 90.0571,-112.584 93.8907,-106.727"/>
</g>
<!-- Node2&#45;&gt;Node3 -->
<g id="edge4" class="edge"><title>Node2&#45;&gt;Node3</title>
<path fill="none" stroke="midnightblue" d="M265.016,-123.761C294.703,-116.776 337.006,-106.822 366.309,-99.9274"/>
<polygon fill="midnightblue" stroke="midnightblue" points="264.017,-120.4 255.084,-126.098 265.62,-127.214 264.017,-120.4"/>
</g>
<!-- Node2&#45;&gt;Node4 -->
<g id="edge24" class="edge"><title>Node2&#45;&gt;Node4</title>
<path fill="none" stroke="midnightblue" d="M265.277,-130.93C312.25,-129.113 397.806,-124.434 470,-113 487.097,-110.292 505.646,-106.141 521.84,-102.107"/>
<polygon fill="midnightblue" stroke="midnightblue" points="264.893,-127.442 255.027,-131.304 265.148,-134.437 264.893,-127.442"/>
</g>
<!-- Node8 -->
<g id="node15" class="node"><title>Node8</title>
<a xlink:href="_m_a_i_n__avec__objets_8cpp.html#ae66f6b31b5ad750f1fe042a706a4e3d4" target="_top" xlink:title="main">
<polygon fill="white" stroke="black" points="1084,-158 1084,-182 1122,-182 1122,-158 1084,-158"/>
<text text-anchor="middle" x="1103" y="-169" font-family="Helvetica,sans-Serif" font-size="10.00">main</text>
</a>
</g>
<!-- Node2&#45;&gt;Node8 -->
<g id="edge26" class="edge"><title>Node2&#45;&gt;Node8</title>
<path fill="none" stroke="midnightblue" d="M265.052,-138.599C326,-149.481 455.565,-170 566,-170 566,-170 566,-170 834,-170 927.636,-170 1039.61,-170 1083.76,-170"/>
<polygon fill="midnightblue" stroke="midnightblue" points="265.643,-135.149 255.18,-136.813 264.397,-142.037 265.643,-135.149"/>
</g>
<!-- Node3&#45;&gt;Node4 -->
<g id="edge6" class="edge"><title>Node3&#45;&gt;Node4</title>
<path fill="none" stroke="midnightblue" d="M443.757,-91.4728C462.778,-91.2436 485.37,-90.9714 505.927,-90.7238"/>
<polygon fill="midnightblue" stroke="midnightblue" points="443.55,-87.975 433.593,-91.5953 443.634,-94.9744 443.55,-87.975"/>
</g>
<!-- Node5 -->
<g id="node9" class="node"><title>Node5</title>
<a xlink:href="keyboard__functions2_8cpp.html#a548548066307f816c5021de7d6e4f26a" target="_top" xlink:title="key_affectation">
<polygon fill="white" stroke="black" points="662.5,-118 662.5,-142 745.5,-142 745.5,-118 662.5,-118"/>
<text text-anchor="middle" x="704" y="-129" font-family="Helvetica,sans-Serif" font-size="10.00">key_affectation</text>
</a>
</g>
<!-- Node4&#45;&gt;Node5 -->
<g id="edge8" class="edge"><title>Node4&#45;&gt;Node5</title>
<path fill="none" stroke="midnightblue" d="M617.396,-104.897C632.147,-109.173 648.047,-113.782 662.148,-117.869"/>
<polygon fill="midnightblue" stroke="midnightblue" points="617.984,-101.424 607.405,-102.001 616.035,-108.147 617.984,-101.424"/>
</g>
<!-- Node9 -->
<g id="node17" class="node"><title>Node9</title>
<a xlink:href="logicals__intres_8cpp.html#a85967c22135715eca94d08af2ec1a1fb" target="_top" xlink:title="fenetre_confirm">
<polygon fill="white" stroke="black" points="662,-76 662,-100 746,-100 746,-76 662,-76"/>
<text text-anchor="middle" x="704" y="-87" font-family="Helvetica,sans-Serif" font-size="10.00">fenetre_confirm</text>
</a>
</g>
<!-- Node4&#45;&gt;Node9 -->
<g id="edge16" class="edge"><title>Node4&#45;&gt;Node9</title>
<path fill="none" stroke="midnightblue" d="M636.354,-88.9804C645.083,-88.8539 653.783,-88.7278 661.896,-88.6102"/>
<polygon fill="midnightblue" stroke="midnightblue" points="636.076,-85.4839 626.127,-89.1286 636.177,-92.4832 636.076,-85.4839"/>
</g>
<!-- Node6 -->
<g id="node11" class="node"><title>Node6</title>
<a xlink:href="keyboard__routines2_8cpp.html#a8563320b8eab661232619224650de244" target="_top" xlink:title="commandes_clavier">
<polygon fill="white" stroke="black" points="782,-198 782,-222 886,-222 886,-198 782,-198"/>
<text text-anchor="middle" x="834" y="-209" font-family="Helvetica,sans-Serif" font-size="10.00">commandes_clavier</text>
</a>
</g>
<!-- Node5&#45;&gt;Node6 -->
<g id="edge10" class="edge"><title>Node5&#45;&gt;Node6</title>
<path fill="none" stroke="midnightblue" d="M732.378,-147.464C757.238,-162.762 792.708,-184.589 814.496,-197.998"/>
<polygon fill="midnightblue" stroke="midnightblue" points="734.095,-144.41 723.744,-142.15 730.426,-150.372 734.095,-144.41"/>
</g>
<!-- Node7 -->
<g id="node13" class="node"><title>Node7</title>
<a xlink:href="_m_a_i_n__avec__objets_8cpp.html#a8e80f54ac804eddce8ed6e45adb1db44" target="_top" xlink:title="ticker_full_loop">
<polygon fill="white" stroke="black" points="944,-198 944,-222 1026,-222 1026,-198 944,-198"/>
<text text-anchor="middle" x="985" y="-209" font-family="Helvetica,sans-Serif" font-size="10.00">ticker_full_loop</text>
</a>
</g>
<!-- Node6&#45;&gt;Node7 -->
<g id="edge12" class="edge"><title>Node6&#45;&gt;Node7</title>
<path fill="none" stroke="midnightblue" d="M896.664,-210C912.516,-210 929.147,-210 943.648,-210"/>
<polygon fill="midnightblue" stroke="midnightblue" points="896.389,-206.5 886.389,-210 896.389,-213.5 896.389,-206.5"/>
</g>
<!-- Node7&#45;&gt;Node8 -->
<g id="edge14" class="edge"><title>Node7&#45;&gt;Node8</title>
<path fill="none" stroke="midnightblue" d="M1029.92,-194.773C1048.55,-188.458 1069.16,-181.47 1083.74,-176.53"/>
<polygon fill="midnightblue" stroke="midnightblue" points="1028.75,-191.473 1020.4,-197.999 1031,-198.103 1028.75,-191.473"/>
</g>
<!-- Node10 -->
<g id="node19" class="node"><title>Node10</title>
<a xlink:href="graphics__rebuild1_8cpp.html#ac2eae1e03fb72cc734ffbcef566483bf" target="_top" xlink:title="Boxes">
<polygon fill="white" stroke="black" points="812,-97 812,-121 856,-121 856,-97 812,-97"/>
<text text-anchor="middle" x="834" y="-108" font-family="Helvetica,sans-Serif" font-size="10.00">Boxes</text>
</a>
</g>
<!-- Node9&#45;&gt;Node10 -->
<g id="edge18" class="edge"><title>Node9&#45;&gt;Node10</title>
<path fill="none" stroke="midnightblue" d="M756.134,-96.4217C775.466,-99.5446 796.38,-102.923 811.66,-105.391"/>
<polygon fill="midnightblue" stroke="midnightblue" points="756.637,-92.9577 746.207,-94.8181 755.521,-99.8681 756.637,-92.9577"/>
</g>
<!-- Node11 -->
<g id="node21" class="node"><title>Node11</title>
<a xlink:href="_m_a_i_n__avec__objets_8cpp.html#ade8d4ba65d55c94f8ee277829d722155" target="_top" xlink:title="main_actions_on_screen">
<polygon fill="white" stroke="black" points="922.5,-108 922.5,-132 1047.5,-132 1047.5,-108 922.5,-108"/>
<text text-anchor="middle" x="985" y="-119" font-family="Helvetica,sans-Serif" font-size="10.00">main_actions_on_screen</text>
</a>
</g>
<!-- Node10&#45;&gt;Node11 -->
<g id="edge20" class="edge"><title>Node10&#45;&gt;Node11</title>
<path fill="none" stroke="midnightblue" d="M866.395,-111.36C882.76,-112.552 903.187,-114.04 922.455,-115.444"/>
<polygon fill="midnightblue" stroke="midnightblue" points="866.508,-107.859 856.281,-110.623 866,-114.84 866.508,-107.859"/>
</g>
<!-- Node11&#45;&gt;Node8 -->
<g id="edge22" class="edge"><title>Node11&#45;&gt;Node8</title>
<path fill="none" stroke="midnightblue" d="M1022.9,-136.059C1043.26,-144.685 1067.47,-154.946 1083.91,-161.911"/>
<polygon fill="midnightblue" stroke="midnightblue" points="1024.14,-132.783 1013.56,-132.104 1021.41,-139.228 1024.14,-132.783"/>
</g>
<!-- Node12&#45;&gt;Node4 -->
<g id="edge34" class="edge"><title>Node12&#45;&gt;Node4</title>
<path fill="none" stroke="midnightblue" d="M444.708,-27.5345C453.195,-30.7838 461.937,-34.341 470,-38 496.926,-50.2197 526.685,-66.8562 545.825,-77.9889"/>
<polygon fill="midnightblue" stroke="midnightblue" points="445.878,-24.2354 435.286,-24.0078 443.425,-30.7912 445.878,-24.2354"/>
</g>
<!-- Node14 -->
<g id="node33" class="node"><title>Node14</title>
<a xlink:href="saves__menu__8_8cpp.html#ac4526c35f3b27bd8b798cda6a3320ea1" target="_top" xlink:title="do_logical_Save_Menu">
<polygon fill="white" stroke="black" points="341.5,-210 341.5,-234 458.5,-234 458.5,-210 341.5,-210"/>
<text text-anchor="middle" x="400" y="-221" font-family="Helvetica,sans-Serif" font-size="10.00">do_logical_Save_Menu</text>
</a>
</g>
<!-- Node13&#45;&gt;Node14 -->
<g id="edge38" class="edge"><title>Node13&#45;&gt;Node14</title>
<path fill="none" stroke="midnightblue" d="M304.505,-209.642C316.801,-211.233 329.395,-212.863 341.235,-214.395"/>
<polygon fill="midnightblue" stroke="midnightblue" points="304.636,-206.13 294.27,-208.317 303.738,-213.072 304.636,-206.13"/>
</g>
<!-- Node15 -->
<g id="node35" class="node"><title>Node15</title>
<a xlink:href="procs__visuels__rebuild1_8cpp.html#ae710b6e599e321ad5934a90140067054" target="_top" xlink:title="check_graphics_mouse\l_handling">
<polygon fill="white" stroke="black" points="506.5,-214 506.5,-254 625.5,-254 625.5,-214 506.5,-214"/>
<text text-anchor="start" x="514.5" y="-241" font-family="Helvetica,sans-Serif" font-size="10.00">check_graphics_mouse</text>
<text text-anchor="middle" x="566" y="-225" font-family="Helvetica,sans-Serif" font-size="10.00">_handling</text>
</a>
</g>
<!-- Node14&#45;&gt;Node15 -->
<g id="edge40" class="edge"><title>Node14&#45;&gt;Node15</title>
<path fill="none" stroke="midnightblue" d="M468.848,-226.977C481.29,-227.876 494.168,-228.807 506.321,-229.686"/>
<polygon fill="midnightblue" stroke="midnightblue" points="468.752,-223.461 458.525,-226.231 468.247,-230.443 468.752,-223.461"/>
</g>
<!-- Node15&#45;&gt;Node7 -->
<g id="edge42" class="edge"><title>Node15&#45;&gt;Node7</title>
<path fill="none" stroke="midnightblue" d="M635.905,-237.342C700.892,-239.503 800.289,-240.397 886,-231 905.212,-228.894 926.192,-224.72 943.874,-220.645"/>
<polygon fill="midnightblue" stroke="midnightblue" points="635.894,-233.839 625.777,-236.985 635.648,-240.835 635.894,-233.839"/>
</g>
</g>
</svg>
