<?xml version="1.0" encoding="UTF-8" standalone="no"?>
<!DOCTYPE svg PUBLIC "-//W3C//DTD SVG 1.1//EN"
 "http://www.w3.org/Graphics/SVG/1.1/DTD/svg11.dtd">
<!-- Generated by graphviz version 2.26.3 (20100126.1600)
 -->
<!-- Title: LoadWhiteCatColorProfil Pages: 1 -->
<svg width="314pt" height="1922pt"
 viewBox="0.00 0.00 314.00 1922.00" xmlns="http://www.w3.org/2000/svg" xmlns:xlink="http://www.w3.org/1999/xlink">
<g id="graph1" class="graph" transform="scale(1 1) rotate(0) translate(4 1918)">
<title>LoadWhiteCatColorProfil</title>
<polygon fill="white" stroke="white" points="-4,5 -4,-1918 311,-1918 311,5 -4,5"/>
<!-- Node1 -->
<g id="node1" class="node"><title>Node1</title>
<polygon fill="#bfbfbf" stroke="black" points="0.5,-945 0.5,-969 125.5,-969 125.5,-945 0.5,-945"/>
<text text-anchor="middle" x="63" y="-956" font-family="Helvetica,sans-Serif" font-size="10.00">LoadWhiteCatColorProfil</text>
</g>
<!-- Node2 -->
<g id="node3" class="node"><title>Node2</title>
<a xlink:href="colors__fonts_8h.html#a56b207337c79233be26e693530da65e2" target="_top" xlink:title="CouleurFondDefaut">
<polygon fill="white" stroke="black" points="183.5,-1890 183.5,-1914 284.5,-1914 284.5,-1890 183.5,-1890"/>
<text text-anchor="middle" x="234" y="-1901" font-family="Helvetica,sans-Serif" font-size="10.00">CouleurFondDefaut</text>
</a>
</g>
<!-- Node1&#45;&gt;Node2 -->
<g id="edge2" class="edge"><title>Node1&#45;&gt;Node2</title>
<path fill="none" stroke="midnightblue" d="M63.4993,-969.297C67.837,-1073.56 100.454,-1807.46 162,-1881 165.412,-1885.08 169.567,-1888.39 174.141,-1891.07"/>
<polygon fill="midnightblue" stroke="midnightblue" points="172.84,-1894.33 183.37,-1895.5 175.869,-1888.02 172.84,-1894.33"/>
</g>
<!-- Node3 -->
<g id="node5" class="node"><title>Node3</title>
<a xlink:href="colors__fonts_8h.html#ae99bc6c691c87267c033c3b2ffacc476" target="_top" xlink:title="CouleurLigneDefaut">
<polygon fill="white" stroke="black" points="182.5,-1848 182.5,-1872 285.5,-1872 285.5,-1848 182.5,-1848"/>
<text text-anchor="middle" x="234" y="-1859" font-family="Helvetica,sans-Serif" font-size="10.00">CouleurLigneDefaut</text>
</a>
</g>
<!-- Node1&#45;&gt;Node3 -->
<g id="edge4" class="edge"><title>Node1&#45;&gt;Node3</title>
<path fill="none" stroke="midnightblue" d="M63.5536,-969.056C68.2793,-1069.75 103.104,-1768.99 162,-1839 165.185,-1842.79 169.011,-1845.91 173.218,-1848.49"/>
<polygon fill="midnightblue" stroke="midnightblue" points="171.795,-1851.69 182.303,-1853.04 174.932,-1845.43 171.795,-1851.69"/>
</g>
<!-- Node4 -->
<g id="node7" class="node"><title>Node4</title>
<a xlink:href="colors__fonts_8h.html#a1b703138a4385a165804320cc64ec895" target="_top" xlink:title="CouleurFaderDefaut">
<polygon fill="white" stroke="black" points="182,-1806 182,-1830 286,-1830 286,-1806 182,-1806"/>
<text text-anchor="middle" x="234" y="-1817" font-family="Helvetica,sans-Serif" font-size="10.00">CouleurFaderDefaut</text>
</a>
</g>
<!-- Node1&#45;&gt;Node4 -->
<g id="edge6" class="edge"><title>Node1&#45;&gt;Node4</title>
<path fill="none" stroke="midnightblue" d="M63.6264,-969.097C68.8088,-1067.2 105.807,-1730.58 162,-1797 165.146,-1800.72 168.909,-1803.8 173.043,-1806.35"/>
<polygon fill="midnightblue" stroke="midnightblue" points="171.467,-1809.47 181.969,-1810.87 174.629,-1803.23 171.467,-1809.47"/>
</g>
<!-- Node5 -->
<g id="node9" class="node"><title>Node5</title>
<a xlink:href="colors__fonts_8h.html#adf5f11e2e6c252f0a0bcd9690ba1b35e" target="_top" xlink:title="CouleurPatchDefaut">
<polygon fill="white" stroke="black" points="181.5,-1764 181.5,-1788 286.5,-1788 286.5,-1764 181.5,-1764"/>
<text text-anchor="middle" x="234" y="-1775" font-family="Helvetica,sans-Serif" font-size="10.00">CouleurPatchDefaut</text>
</a>
</g>
<!-- Node1&#45;&gt;Node5 -->
<g id="edge8" class="edge"><title>Node1&#45;&gt;Node5</title>
<path fill="none" stroke="midnightblue" d="M63.7044,-969.091C69.3568,-1064.37 108.497,-1692.15 162,-1755 164.976,-1758.5 168.499,-1761.43 172.361,-1763.88"/>
<polygon fill="midnightblue" stroke="midnightblue" points="170.793,-1767.01 181.277,-1768.54 174.031,-1760.81 170.793,-1767.01"/>
</g>
<!-- Node6 -->
<g id="node11" class="node"><title>Node6</title>
<a xlink:href="colors__fonts_8h.html#a24aa13cd453f6036d74557761bd2d428" target="_top" xlink:title="CouleurSurvolDefaut">
<polygon fill="white" stroke="black" points="180.5,-1722 180.5,-1746 287.5,-1746 287.5,-1722 180.5,-1722"/>
<text text-anchor="middle" x="234" y="-1733" font-family="Helvetica,sans-Serif" font-size="10.00">CouleurSurvolDefaut</text>
</a>
</g>
<!-- Node1&#45;&gt;Node6 -->
<g id="edge10" class="edge"><title>Node1&#45;&gt;Node6</title>
<path fill="none" stroke="midnightblue" d="M63.7877,-969.036C69.9231,-1061.25 111.175,-1653.7 162,-1713 164.688,-1716.14 167.815,-1718.82 171.231,-1721.11"/>
<polygon fill="midnightblue" stroke="midnightblue" points="169.78,-1724.3 180.233,-1726.04 173.142,-1718.16 169.78,-1724.3"/>
</g>
<!-- Node7 -->
<g id="node13" class="node"><title>Node7</title>
<a xlink:href="colors__fonts_8h.html#a6bf8f7b59c160460fc6a7a8b87aac96b" target="_top" xlink:title="CouleurLevelDefaut">
<polygon fill="white" stroke="black" points="182.5,-1680 182.5,-1704 285.5,-1704 285.5,-1680 182.5,-1680"/>
<text text-anchor="middle" x="234" y="-1691" font-family="Helvetica,sans-Serif" font-size="10.00">CouleurLevelDefaut</text>
</a>
</g>
<!-- Node1&#45;&gt;Node7 -->
<g id="edge12" class="edge"><title>Node1&#45;&gt;Node7</title>
<path fill="none" stroke="midnightblue" d="M63.8976,-969.214C70.5996,-1059.03 113.891,-1615.3 162,-1671 165.234,-1674.74 169.095,-1677.84 173.324,-1680.4"/>
<polygon fill="midnightblue" stroke="midnightblue" points="171.929,-1683.61 182.442,-1684.92 175.041,-1677.34 171.929,-1683.61"/>
</g>
<!-- Node8 -->
<g id="node15" class="node"><title>Node8</title>
<a xlink:href="colors__fonts_8h.html#a8d7dbe1d33388cb7ace7a55efe02b52d" target="_top" xlink:title="CouleurSelectionDefaut">
<polygon fill="white" stroke="black" points="174,-1638 174,-1662 294,-1662 294,-1638 174,-1638"/>
<text text-anchor="middle" x="234" y="-1649" font-family="Helvetica,sans-Serif" font-size="10.00">CouleurSelectionDefaut</text>
</a>
</g>
<!-- Node1&#45;&gt;Node8 -->
<g id="edge14" class="edge"><title>Node1&#45;&gt;Node8</title>
<path fill="none" stroke="midnightblue" d="M63.9935,-969.043C71.2065,-1055.27 116.541,-1576.82 162,-1629 163.042,-1630.2 164.149,-1631.33 165.31,-1632.39"/>
<polygon fill="midnightblue" stroke="midnightblue" points="163.566,-1635.46 173.694,-1638.57 167.717,-1629.82 163.566,-1635.46"/>
</g>
<!-- Node9 -->
<g id="node17" class="node"><title>Node9</title>
<a xlink:href="colors__fonts_8h.html#a773d7a9149463abfbc7e78d54ac6e02c" target="_top" xlink:title="CouleurNiveauDefaut">
<polygon fill="white" stroke="black" points="179,-1596 179,-1620 289,-1620 289,-1596 179,-1596"/>
<text text-anchor="middle" x="234" y="-1607" font-family="Helvetica,sans-Serif" font-size="10.00">CouleurNiveauDefaut</text>
</a>
</g>
<!-- Node1&#45;&gt;Node9 -->
<g id="edge16" class="edge"><title>Node1&#45;&gt;Node9</title>
<path fill="none" stroke="midnightblue" d="M63.1957,-969.251C64.7084,-1048.66 76.9012,-1490.25 162,-1587 164.395,-1589.72 167.12,-1592.1 170.076,-1594.18"/>
<polygon fill="midnightblue" stroke="midnightblue" points="168.52,-1597.32 178.933,-1599.27 172.008,-1591.25 168.52,-1597.32"/>
</g>
<!-- Node10 -->
<g id="node19" class="node"><title>Node10</title>
<a xlink:href="colors__fonts_8h.html#ab9da5b552e510f2345cc730e3840efa9" target="_top" xlink:title="CouleurConfigDefaut">
<polygon fill="white" stroke="black" points="180,-1554 180,-1578 288,-1578 288,-1554 180,-1554"/>
<text text-anchor="middle" x="234" y="-1565" font-family="Helvetica,sans-Serif" font-size="10.00">CouleurConfigDefaut</text>
</a>
</g>
<!-- Node1&#45;&gt;Node10 -->
<g id="edge18" class="edge"><title>Node1&#45;&gt;Node10</title>
<path fill="none" stroke="midnightblue" d="M63.343,-969.169C65.7294,-1045.26 82.1976,-1455.27 162,-1545 164.574,-1547.89 167.523,-1550.4 170.723,-1552.57"/>
<polygon fill="midnightblue" stroke="midnightblue" points="169.259,-1555.76 179.701,-1557.55 172.657,-1549.64 169.259,-1555.76"/>
</g>
<!-- Node11 -->
<g id="node21" class="node"><title>Node11</title>
<a xlink:href="colors__fonts_8h.html#aa5cfee44201c8607ff977e024fdf0d3b" target="_top" xlink:title="CouleurBleuProcedureDefaut">
<polygon fill="white" stroke="black" points="162.5,-1512 162.5,-1536 305.5,-1536 305.5,-1512 162.5,-1512"/>
<text text-anchor="middle" x="234" y="-1523" font-family="Helvetica,sans-Serif" font-size="10.00">CouleurBleuProcedureDefaut</text>
</a>
</g>
<!-- Node1&#45;&gt;Node11 -->
<g id="edge20" class="edge"><title>Node1&#45;&gt;Node11</title>
<path fill="none" stroke="midnightblue" d="M63.5175,-969.239C66.8476,-1042.29 87.5339,-1420.32 162,-1503 162.882,-1503.98 163.807,-1504.91 164.771,-1505.81"/>
<polygon fill="midnightblue" stroke="midnightblue" points="162.722,-1508.65 172.821,-1511.85 166.922,-1503.05 162.722,-1508.65"/>
</g>
<!-- Node12 -->
<g id="node23" class="node"><title>Node12</title>
<a xlink:href="colors__fonts_8h.html#a3d1b034aeb5533e1fea7a051ee3fee4b" target="_top" xlink:title="CouleurBlindDefaut">
<polygon fill="white" stroke="black" points="183.5,-1470 183.5,-1494 284.5,-1494 284.5,-1470 183.5,-1470"/>
<text text-anchor="middle" x="234" y="-1481" font-family="Helvetica,sans-Serif" font-size="10.00">CouleurBlindDefaut</text>
</a>
</g>
<!-- Node1&#45;&gt;Node12 -->
<g id="edge22" class="edge"><title>Node1&#45;&gt;Node12</title>
<path fill="none" stroke="midnightblue" d="M63.7152,-969.198C68.0354,-1038.8 92.8168,-1385.3 162,-1461 165.533,-1464.87 169.733,-1468.03 174.303,-1470.63"/>
<polygon fill="midnightblue" stroke="midnightblue" points="172.932,-1473.85 183.47,-1474.95 175.916,-1467.52 172.932,-1473.85"/>
</g>
<!-- Node13 -->
<g id="node25" class="node"><title>Node13</title>
<a xlink:href="colors__fonts_8h.html#adf3a6fb43a7f54bbbfaefee4da14171f" target="_top" xlink:title="CouleurLockDefaut">
<polygon fill="white" stroke="black" points="183.5,-1428 183.5,-1452 284.5,-1452 284.5,-1428 183.5,-1428"/>
<text text-anchor="middle" x="234" y="-1439" font-family="Helvetica,sans-Serif" font-size="10.00">CouleurLockDefaut</text>
</a>
</g>
<!-- Node1&#45;&gt;Node13 -->
<g id="edge24" class="edge"><title>Node1&#45;&gt;Node13</title>
<path fill="none" stroke="midnightblue" d="M63.9371,-969.038C69.2908,-1034.8 98.0436,-1350.22 162,-1419 165.422,-1422.68 169.448,-1425.73 173.82,-1428.25"/>
<polygon fill="midnightblue" stroke="midnightblue" points="172.66,-1431.58 183.192,-1432.72 175.676,-1425.26 172.66,-1431.58"/>
</g>
<!-- Node14 -->
<g id="node27" class="node"><title>Node14</title>
<a xlink:href="colors__fonts_8h.html#a6dcb064f958b5a0184ad6eb768852621" target="_top" xlink:title="CouleurGrisClair">
<polygon fill="white" stroke="black" points="189.5,-1386 189.5,-1410 278.5,-1410 278.5,-1386 189.5,-1386"/>
<text text-anchor="middle" x="234" y="-1397" font-family="Helvetica,sans-Serif" font-size="10.00">CouleurGrisClair</text>
</a>
</g>
<!-- Node1&#45;&gt;Node14 -->
<g id="edge26" class="edge"><title>Node1&#45;&gt;Node14</title>
<path fill="none" stroke="midnightblue" d="M64.2267,-969.159C70.7549,-1031.55 103.34,-1315.19 162,-1377 166.878,-1382.14 172.936,-1386.04 179.451,-1389"/>
<polygon fill="midnightblue" stroke="midnightblue" points="178.649,-1392.44 189.241,-1392.7 181.123,-1385.89 178.649,-1392.44"/>
</g>
<!-- Node15 -->
<g id="node29" class="node"><title>Node15</title>
<a xlink:href="colors__fonts_8h.html#a432c8c850a2a3ffc16f0030931d99475" target="_top" xlink:title="CouleurNoir">
<polygon fill="white" stroke="black" points="200,-1344 200,-1368 268,-1368 268,-1344 200,-1344"/>
<text text-anchor="middle" x="234" y="-1355" font-family="Helvetica,sans-Serif" font-size="10.00">CouleurNoir</text>
</a>
</g>
<!-- Node1&#45;&gt;Node15 -->
<g id="edge28" class="edge"><title>Node1&#45;&gt;Node15</title>
<path fill="none" stroke="midnightblue" d="M64.5579,-969.093C72.3161,-1027.52 108.549,-1280.05 162,-1335 169.499,-1342.71 179.655,-1347.63 189.972,-1350.76"/>
<polygon fill="midnightblue" stroke="midnightblue" points="189.28,-1354.19 199.832,-1353.24 190.99,-1347.41 189.28,-1354.19"/>
</g>
<!-- Node16 -->
<g id="node31" class="node"><title>Node16</title>
<a xlink:href="colors__fonts_8h.html#ab65bd319db91abdfc062b4e3b720902e" target="_top" xlink:title="CouleurGrisAnthracite">
<polygon fill="white" stroke="black" points="177.5,-1302 177.5,-1326 290.5,-1326 290.5,-1302 177.5,-1302"/>
<text text-anchor="middle" x="234" y="-1313" font-family="Helvetica,sans-Serif" font-size="10.00">CouleurGrisAnthracite</text>
</a>
</g>
<!-- Node1&#45;&gt;Node16 -->
<g id="edge30" class="edge"><title>Node1&#45;&gt;Node16</title>
<path fill="none" stroke="midnightblue" d="M64.9933,-969.183C74.1463,-1023.73 113.773,-1244.9 162,-1293 164.074,-1295.07 166.34,-1296.94 168.748,-1298.62"/>
<polygon fill="midnightblue" stroke="midnightblue" points="167.009,-1301.66 177.409,-1303.68 170.538,-1295.61 167.009,-1301.66"/>
</g>
<!-- Node17 -->
<g id="node33" class="node"><title>Node17</title>
<a xlink:href="colors__fonts_8h.html#ae86cd6c0de005129d702f0c4352b2a24" target="_top" xlink:title="CouleurGrisMoyen">
<polygon fill="white" stroke="black" points="185,-1260 185,-1284 283,-1284 283,-1260 185,-1260"/>
<text text-anchor="middle" x="234" y="-1271" font-family="Helvetica,sans-Serif" font-size="10.00">CouleurGrisMoyen</text>
</a>
</g>
<!-- Node1&#45;&gt;Node17 -->
<g id="edge32" class="edge"><title>Node1&#45;&gt;Node17</title>
<path fill="none" stroke="midnightblue" d="M65.5647,-969.329C76.2868,-1019.77 118.967,-1209.7 162,-1251 165.992,-1254.83 170.644,-1257.97 175.625,-1260.54"/>
<polygon fill="midnightblue" stroke="midnightblue" points="174.311,-1263.79 184.877,-1264.58 177.111,-1257.37 174.311,-1263.79"/>
</g>
<!-- Node18 -->
<g id="node35" class="node"><title>Node18</title>
<a xlink:href="colors__fonts_8h.html#ad71b50b4541cd718bfb2918f0bb2dd8f" target="_top" xlink:title="CouleurBlanc">
<polygon fill="white" stroke="black" points="196.5,-1218 196.5,-1242 271.5,-1242 271.5,-1218 196.5,-1218"/>
<text text-anchor="middle" x="234" y="-1229" font-family="Helvetica,sans-Serif" font-size="10.00">CouleurBlanc</text>
</a>
</g>
<!-- Node1&#45;&gt;Node18 -->
<g id="edge34" class="edge"><title>Node1&#45;&gt;Node18</title>
<path fill="none" stroke="midnightblue" d="M64.0625,-969.077C68.2694,-1009.42 87.3785,-1140.85 162,-1209 168.919,-1215.32 177.639,-1219.75 186.599,-1222.84"/>
<polygon fill="midnightblue" stroke="midnightblue" points="185.761,-1226.25 196.343,-1225.71 187.737,-1219.53 185.761,-1226.25"/>
</g>
<!-- Node19 -->
<g id="node37" class="node"><title>Node19</title>
<a xlink:href="colors__fonts_8h.html#afe8ced3c85a7fc3b8d0ccdcdf243eb47" target="_top" xlink:title="CouleurBleu1">
<polygon fill="white" stroke="black" points="196.5,-1176 196.5,-1200 271.5,-1200 271.5,-1176 196.5,-1176"/>
<text text-anchor="middle" x="234" y="-1187" font-family="Helvetica,sans-Serif" font-size="10.00">CouleurBleu1</text>
</a>
</g>
<!-- Node1&#45;&gt;Node19 -->
<g id="edge36" class="edge"><title>Node1&#45;&gt;Node19</title>
<path fill="none" stroke="midnightblue" d="M65.1077,-969.064C72.0134,-1004.92 97.3393,-1111.76 162,-1167 169.052,-1173.03 177.754,-1177.32 186.642,-1180.39"/>
<polygon fill="midnightblue" stroke="midnightblue" points="185.708,-1183.76 196.29,-1183.25 187.701,-1177.05 185.708,-1183.76"/>
</g>
<!-- Node20 -->
<g id="node39" class="node"><title>Node20</title>
<a xlink:href="colors__fonts_8h.html#a1c1bdc06fa0e97af5c84ea85fd1bcc5f" target="_top" xlink:title="CouleurBleu6">
<polygon fill="white" stroke="black" points="196.5,-1134 196.5,-1158 271.5,-1158 271.5,-1134 196.5,-1134"/>
<text text-anchor="middle" x="234" y="-1145" font-family="Helvetica,sans-Serif" font-size="10.00">CouleurBleu6</text>
</a>
</g>
<!-- Node1&#45;&gt;Node20 -->
<g id="edge38" class="edge"><title>Node1&#45;&gt;Node20</title>
<path fill="none" stroke="midnightblue" d="M66.6993,-969.273C76.689,-1000.29 107.218,-1082.39 162,-1125 169.169,-1130.58 177.776,-1134.67 186.506,-1137.68"/>
<polygon fill="midnightblue" stroke="midnightblue" points="185.76,-1141.11 196.344,-1140.64 187.774,-1134.41 185.76,-1141.11"/>
</g>
<!-- Node21 -->
<g id="node41" class="node"><title>Node21</title>
<a xlink:href="colors__fonts_8h.html#aa5fe12fb8a2da77b1a3fb6b28c76deea" target="_top" xlink:title="CouleurBleu4">
<polygon fill="white" stroke="black" points="196.5,-1092 196.5,-1116 271.5,-1116 271.5,-1092 196.5,-1092"/>
<text text-anchor="middle" x="234" y="-1103" font-family="Helvetica,sans-Serif" font-size="10.00">CouleurBleu4</text>
</a>
</g>
<!-- Node1&#45;&gt;Node21 -->
<g id="edge40" class="edge"><title>Node1&#45;&gt;Node21</title>
<path fill="none" stroke="midnightblue" d="M69.116,-969.103C82.4444,-994.241 116.593,-1052.31 162,-1083 169.368,-1087.98 177.929,-1091.8 186.523,-1094.72"/>
<polygon fill="midnightblue" stroke="midnightblue" points="185.591,-1098.09 196.176,-1097.65 187.624,-1091.39 185.591,-1098.09"/>
</g>
<!-- Node22 -->
<g id="node43" class="node"><title>Node22</title>
<a xlink:href="colors__fonts_8h.html#a1ebb31875483506d4af7cbbc78ba9779" target="_top" xlink:title="CouleurBleu2">
<polygon fill="white" stroke="black" points="196.5,-1050 196.5,-1074 271.5,-1074 271.5,-1050 196.5,-1050"/>
<text text-anchor="middle" x="234" y="-1061" font-family="Helvetica,sans-Serif" font-size="10.00">CouleurBleu2</text>
</a>
</g>
<!-- Node1&#45;&gt;Node22 -->
<g id="edge42" class="edge"><title>Node1&#45;&gt;Node22</title>
<path fill="none" stroke="midnightblue" d="M73.9786,-969.125C91.0774,-987.304 125.875,-1021.56 162,-1041 169.582,-1045.08 178.051,-1048.45 186.442,-1051.21"/>
<polygon fill="midnightblue" stroke="midnightblue" points="185.615,-1054.62 196.2,-1054.18 187.649,-1047.92 185.615,-1054.62"/>
</g>
<!-- Node23 -->
<g id="node45" class="node"><title>Node23</title>
<a xlink:href="colors__fonts_8h.html#a0b3dc8d74a837db49b6634415bfd63f7" target="_top" xlink:title="CouleurBleu8">
<polygon fill="white" stroke="black" points="196.5,-1008 196.5,-1032 271.5,-1032 271.5,-1008 196.5,-1008"/>
<text text-anchor="middle" x="234" y="-1019" font-family="Helvetica,sans-Serif" font-size="10.00">CouleurBleu8</text>
</a>
</g>
<!-- Node1&#45;&gt;Node23 -->
<g id="edge44" class="edge"><title>Node1&#45;&gt;Node23</title>
<path fill="none" stroke="midnightblue" d="M89.1394,-969.084C108.909,-977.979 136.852,-990.033 162,-999 169.934,-1001.83 178.455,-1004.57 186.761,-1007.08"/>
<polygon fill="midnightblue" stroke="midnightblue" points="185.781,-1010.44 196.363,-1009.93 187.768,-1003.73 185.781,-1010.44"/>
</g>
<!-- Node24 -->
<g id="node47" class="node"><title>Node24</title>
<a xlink:href="colors__fonts_8h.html#ab9339f72af5e78d446210e5ef2c7b89d" target="_top" xlink:title="Discrete1">
<polygon fill="white" stroke="black" points="204.5,-966 204.5,-990 263.5,-990 263.5,-966 204.5,-966"/>
<text text-anchor="middle" x="234" y="-977" font-family="Helvetica,sans-Serif" font-size="10.00">Discrete1</text>
</a>
</g>
<!-- Node1&#45;&gt;Node24 -->
<g id="edge46" class="edge"><title>Node1&#45;&gt;Node24</title>
<path fill="none" stroke="midnightblue" d="M125.703,-964.7C148.593,-967.511 173.835,-970.611 194.187,-973.111"/>
<polygon fill="midnightblue" stroke="midnightblue" points="193.993,-976.613 204.345,-974.358 194.847,-969.665 193.993,-976.613"/>
</g>
<!-- Node25 -->
<g id="node49" class="node"><title>Node25</title>
<a xlink:href="colors__fonts_8h.html#ae9be49e36dd551563724b7b6f799214f" target="_top" xlink:title="Discrete2">
<polygon fill="white" stroke="black" points="204.5,-924 204.5,-948 263.5,-948 263.5,-924 204.5,-924"/>
<text text-anchor="middle" x="234" y="-935" font-family="Helvetica,sans-Serif" font-size="10.00">Discrete2</text>
</a>
</g>
<!-- Node1&#45;&gt;Node25 -->
<g id="edge48" class="edge"><title>Node1&#45;&gt;Node25</title>
<path fill="none" stroke="midnightblue" d="M125.703,-949.3C148.593,-946.489 173.835,-943.389 194.187,-940.889"/>
<polygon fill="midnightblue" stroke="midnightblue" points="194.847,-944.335 204.345,-939.642 193.993,-937.387 194.847,-944.335"/>
</g>
<!-- Node26 -->
<g id="node51" class="node"><title>Node26</title>
<a xlink:href="colors__fonts_8h.html#a98ac16ec3ba1b96206ac4382d8e93a6c" target="_top" xlink:title="Discrete3">
<polygon fill="white" stroke="black" points="204.5,-882 204.5,-906 263.5,-906 263.5,-882 204.5,-882"/>
<text text-anchor="middle" x="234" y="-893" font-family="Helvetica,sans-Serif" font-size="10.00">Discrete3</text>
</a>
</g>
<!-- Node1&#45;&gt;Node26 -->
<g id="edge50" class="edge"><title>Node1&#45;&gt;Node26</title>
<path fill="none" stroke="midnightblue" d="M89.1394,-944.916C108.909,-936.021 136.852,-923.967 162,-915 172.41,-911.288 183.831,-907.729 194.449,-904.63"/>
<polygon fill="midnightblue" stroke="midnightblue" points="195.67,-907.921 204.324,-901.809 193.747,-901.191 195.67,-907.921"/>
</g>
<!-- Node27 -->
<g id="node53" class="node"><title>Node27</title>
<a xlink:href="colors__fonts_8h.html#a98779fb733557a5d1359f4ea78070c32" target="_top" xlink:title="Discrete4">
<polygon fill="white" stroke="black" points="204.5,-840 204.5,-864 263.5,-864 263.5,-840 204.5,-840"/>
<text text-anchor="middle" x="234" y="-851" font-family="Helvetica,sans-Serif" font-size="10.00">Discrete4</text>
</a>
</g>
<!-- Node1&#45;&gt;Node27 -->
<g id="edge52" class="edge"><title>Node1&#45;&gt;Node27</title>
<path fill="none" stroke="midnightblue" d="M73.9786,-944.875C91.0774,-926.696 125.875,-892.441 162,-873 172.008,-867.614 183.561,-863.46 194.442,-860.323"/>
<polygon fill="midnightblue" stroke="midnightblue" points="195.424,-863.684 204.182,-857.723 193.618,-856.921 195.424,-863.684"/>
</g>
<!-- Node28 -->
<g id="node55" class="node"><title>Node28</title>
<a xlink:href="colors__fonts_8h.html#a3e9200d517d472f442bd8eafa2fc1bae" target="_top" xlink:title="Discrete5">
<polygon fill="white" stroke="black" points="204.5,-798 204.5,-822 263.5,-822 263.5,-798 204.5,-798"/>
<text text-anchor="middle" x="234" y="-809" font-family="Helvetica,sans-Serif" font-size="10.00">Discrete5</text>
</a>
</g>
<!-- Node1&#45;&gt;Node28 -->
<g id="edge54" class="edge"><title>Node1&#45;&gt;Node28</title>
<path fill="none" stroke="midnightblue" d="M69.116,-944.897C82.4444,-919.759 116.593,-861.687 162,-831 171.581,-824.525 183.18,-820.015 194.244,-816.886"/>
<polygon fill="midnightblue" stroke="midnightblue" points="195.338,-820.22 204.18,-814.384 193.628,-813.432 195.338,-820.22"/>
</g>
<!-- Node29 -->
<g id="node57" class="node"><title>Node29</title>
<a xlink:href="colors__fonts_8h.html#a0b3e679334d456b926bce64431f18e5b" target="_top" xlink:title="Discrete6">
<polygon fill="white" stroke="black" points="204.5,-756 204.5,-780 263.5,-780 263.5,-756 204.5,-756"/>
<text text-anchor="middle" x="234" y="-767" font-family="Helvetica,sans-Serif" font-size="10.00">Discrete6</text>
</a>
</g>
<!-- Node1&#45;&gt;Node29 -->
<g id="edge56" class="edge"><title>Node1&#45;&gt;Node29</title>
<path fill="none" stroke="midnightblue" d="M66.6993,-944.727C76.689,-913.707 107.218,-831.608 162,-789 171.38,-781.704 183.223,-776.941 194.581,-773.833"/>
<polygon fill="midnightblue" stroke="midnightblue" points="195.445,-777.225 204.363,-771.505 193.824,-770.415 195.445,-777.225"/>
</g>
<!-- Node30 -->
<g id="node59" class="node"><title>Node30</title>
<a xlink:href="colors__fonts_8h.html#a82fd325e9b1bd8a288f161de5bf32314" target="_top" xlink:title="Discrete7">
<polygon fill="white" stroke="black" points="204.5,-714 204.5,-738 263.5,-738 263.5,-714 204.5,-714"/>
<text text-anchor="middle" x="234" y="-725" font-family="Helvetica,sans-Serif" font-size="10.00">Discrete7</text>
</a>
</g>
<!-- Node1&#45;&gt;Node30 -->
<g id="edge58" class="edge"><title>Node1&#45;&gt;Node30</title>
<path fill="none" stroke="midnightblue" d="M65.1077,-944.936C72.0134,-909.083 97.3393,-802.245 162,-747 171.112,-739.215 182.978,-734.314 194.441,-731.228"/>
<polygon fill="midnightblue" stroke="midnightblue" points="195.368,-734.607 204.331,-728.958 193.801,-727.784 195.368,-734.607"/>
</g>
<!-- Node31 -->
<g id="node61" class="node"><title>Node31</title>
<a xlink:href="colors__fonts_8h.html#a1f7c9a56f1b079299541dfbd31a981ba" target="_top" xlink:title="Discrete8">
<polygon fill="white" stroke="black" points="204.5,-672 204.5,-696 263.5,-696 263.5,-672 204.5,-672"/>
<text text-anchor="middle" x="234" y="-683" font-family="Helvetica,sans-Serif" font-size="10.00">Discrete8</text>
</a>
</g>
<!-- Node1&#45;&gt;Node31 -->
<g id="edge60" class="edge"><title>Node1&#45;&gt;Node31</title>
<path fill="none" stroke="midnightblue" d="M64.0625,-944.923C68.2694,-904.576 87.3785,-773.154 162,-705 170.923,-696.85 182.84,-691.849 194.407,-688.786"/>
<polygon fill="midnightblue" stroke="midnightblue" points="195.397,-692.151 204.398,-686.561 193.876,-685.318 195.397,-692.151"/>
</g>
<!-- Node32 -->
<g id="node63" class="node"><title>Node32</title>
<a xlink:href="colors__fonts_8h.html#a9e190227b94ba52df03b8cbb1f49aee6" target="_top" xlink:title="Discrete9">
<polygon fill="white" stroke="black" points="204.5,-630 204.5,-654 263.5,-654 263.5,-630 204.5,-630"/>
<text text-anchor="middle" x="234" y="-641" font-family="Helvetica,sans-Serif" font-size="10.00">Discrete9</text>
</a>
</g>
<!-- Node1&#45;&gt;Node32 -->
<g id="edge62" class="edge"><title>Node1&#45;&gt;Node32</title>
<path fill="none" stroke="midnightblue" d="M65.5647,-944.671C76.2868,-894.23 118.967,-704.303 162,-663 170.719,-654.632 182.579,-649.571 194.158,-646.519"/>
<polygon fill="midnightblue" stroke="midnightblue" points="195.156,-649.884 204.174,-644.322 193.656,-643.046 195.156,-649.884"/>
</g>
<!-- Node33 -->
<g id="node65" class="node"><title>Node33</title>
<a xlink:href="colors__fonts_8h.html#abe7a7fa1c1d1966ff49fb5287b7bb167" target="_top" xlink:title="Discrete10">
<polygon fill="white" stroke="black" points="202,-588 202,-612 266,-612 266,-588 202,-588"/>
<text text-anchor="middle" x="234" y="-599" font-family="Helvetica,sans-Serif" font-size="10.00">Discrete10</text>
</a>
</g>
<!-- Node1&#45;&gt;Node33 -->
<g id="edge64" class="edge"><title>Node1&#45;&gt;Node33</title>
<path fill="none" stroke="midnightblue" d="M64.9933,-944.817C74.1463,-890.274 113.773,-669.095 162,-621 170.047,-612.975 180.976,-607.981 191.887,-604.884"/>
<polygon fill="midnightblue" stroke="midnightblue" points="192.89,-608.244 201.819,-602.541 191.282,-601.431 192.89,-608.244"/>
</g>
<!-- Node34 -->
<g id="node67" class="node"><title>Node34</title>
<a xlink:href="colors__fonts_8h.html#a5452f62acb7d2cef062302d6ac84f3e5" target="_top" xlink:title="Discrete11">
<polygon fill="white" stroke="black" points="202,-546 202,-570 266,-570 266,-546 202,-546"/>
<text text-anchor="middle" x="234" y="-557" font-family="Helvetica,sans-Serif" font-size="10.00">Discrete11</text>
</a>
</g>
<!-- Node1&#45;&gt;Node34 -->
<g id="edge66" class="edge"><title>Node1&#45;&gt;Node34</title>
<path fill="none" stroke="midnightblue" d="M64.5579,-944.907C72.3161,-886.476 108.549,-633.949 162,-579 169.924,-570.854 180.814,-565.821 191.727,-562.726"/>
<polygon fill="midnightblue" stroke="midnightblue" points="192.734,-566.085 201.671,-560.395 191.136,-559.27 192.734,-566.085"/>
</g>
<!-- Node35 -->
<g id="node69" class="node"><title>Node35</title>
<a xlink:href="colors__fonts_8h.html#a79b0a28801f4cbbc8244e5dc0436c5e8" target="_top" xlink:title="Discrete12">
<polygon fill="white" stroke="black" points="202,-504 202,-528 266,-528 266,-504 202,-504"/>
<text text-anchor="middle" x="234" y="-515" font-family="Helvetica,sans-Serif" font-size="10.00">Discrete12</text>
</a>
</g>
<!-- Node1&#45;&gt;Node35 -->
<g id="edge68" class="edge"><title>Node1&#45;&gt;Node35</title>
<path fill="none" stroke="midnightblue" d="M64.2267,-944.841C70.7549,-882.453 103.34,-598.812 162,-537 169.892,-528.684 180.872,-523.604 191.883,-520.519"/>
<polygon fill="midnightblue" stroke="midnightblue" points="192.955,-523.863 201.915,-518.209 191.385,-517.042 192.955,-523.863"/>
</g>
<!-- Node36 -->
<g id="node71" class="node"><title>Node36</title>
<a xlink:href="colors__fonts_8h.html#a416a75b372e5de425111d6790f997c87" target="_top" xlink:title="Matrix1">
<polygon fill="white" stroke="black" points="209.5,-462 209.5,-486 258.5,-486 258.5,-462 209.5,-462"/>
<text text-anchor="middle" x="234" y="-473" font-family="Helvetica,sans-Serif" font-size="10.00">Matrix1</text>
</a>
</g>
<!-- Node1&#45;&gt;Node36 -->
<g id="edge70" class="edge"><title>Node1&#45;&gt;Node36</title>
<path fill="none" stroke="midnightblue" d="M63.9371,-944.962C69.2908,-879.195 98.0436,-563.784 162,-495 171.609,-484.666 185.986,-479.318 199.372,-476.586"/>
<polygon fill="midnightblue" stroke="midnightblue" points="200.011,-480.028 209.319,-474.968 198.887,-473.119 200.011,-480.028"/>
</g>
<!-- Node37 -->
<g id="node73" class="node"><title>Node37</title>
<a xlink:href="colors__fonts_8h.html#aa813415a8101699673435b09d105fc3e" target="_top" xlink:title="Matrix2">
<polygon fill="white" stroke="black" points="209.5,-420 209.5,-444 258.5,-444 258.5,-420 209.5,-420"/>
<text text-anchor="middle" x="234" y="-431" font-family="Helvetica,sans-Serif" font-size="10.00">Matrix2</text>
</a>
</g>
<!-- Node1&#45;&gt;Node37 -->
<g id="edge72" class="edge"><title>Node1&#45;&gt;Node37</title>
<path fill="none" stroke="midnightblue" d="M63.7152,-944.802C68.0354,-875.199 92.8168,-528.695 162,-453 171.52,-442.584 185.883,-437.223 199.283,-434.505"/>
<polygon fill="midnightblue" stroke="midnightblue" points="199.929,-437.946 209.246,-432.901 198.816,-431.035 199.929,-437.946"/>
</g>
<!-- Node38 -->
<g id="node75" class="node"><title>Node38</title>
<a xlink:href="colors__fonts_8h.html#a1756c196d9e7ce7224d0d104c6eebcb4" target="_top" xlink:title="Matrix3">
<polygon fill="white" stroke="black" points="209.5,-378 209.5,-402 258.5,-402 258.5,-378 209.5,-378"/>
<text text-anchor="middle" x="234" y="-389" font-family="Helvetica,sans-Serif" font-size="10.00">Matrix3</text>
</a>
</g>
<!-- Node1&#45;&gt;Node38 -->
<g id="edge74" class="edge"><title>Node1&#45;&gt;Node38</title>
<path fill="none" stroke="midnightblue" d="M63.5175,-944.761C66.8476,-871.715 87.5339,-493.678 162,-411 171.444,-400.515 185.795,-395.143 199.207,-392.436"/>
<polygon fill="midnightblue" stroke="midnightblue" points="199.859,-395.876 209.183,-390.843 198.756,-388.963 199.859,-395.876"/>
</g>
<!-- Node39 -->
<g id="node77" class="node"><title>Node39</title>
<a xlink:href="colors__fonts_8h.html#a8484b562f59a9db155152a096a5b2246" target="_top" xlink:title="Matrix4">
<polygon fill="white" stroke="black" points="209.5,-336 209.5,-360 258.5,-360 258.5,-336 209.5,-336"/>
<text text-anchor="middle" x="234" y="-347" font-family="Helvetica,sans-Serif" font-size="10.00">Matrix4</text>
</a>
</g>
<!-- Node1&#45;&gt;Node39 -->
<g id="edge76" class="edge"><title>Node1&#45;&gt;Node39</title>
<path fill="none" stroke="midnightblue" d="M63.343,-944.831C65.7294,-868.742 82.1976,-458.731 162,-369 171.447,-358.378 185.93,-352.996 199.437,-350.317"/>
<polygon fill="midnightblue" stroke="midnightblue" points="200.133,-353.751 209.475,-348.754 199.056,-346.835 200.133,-353.751"/>
</g>
<!-- Node40 -->
<g id="node79" class="node"><title>Node40</title>
<a xlink:href="colors__fonts_8h.html#a12a0e1e0c25047a5a2cddb2e97ea8982" target="_top" xlink:title="Matrix5">
<polygon fill="white" stroke="black" points="209.5,-294 209.5,-318 258.5,-318 258.5,-294 209.5,-294"/>
<text text-anchor="middle" x="234" y="-305" font-family="Helvetica,sans-Serif" font-size="10.00">Matrix5</text>
</a>
</g>
<!-- Node1&#45;&gt;Node40 -->
<g id="edge78" class="edge"><title>Node1&#45;&gt;Node40</title>
<path fill="none" stroke="midnightblue" d="M63.1957,-944.749C64.7084,-865.336 76.9012,-423.746 162,-327 171.389,-316.326 185.864,-310.937 199.379,-308.267"/>
<polygon fill="midnightblue" stroke="midnightblue" points="200.081,-311.7 209.428,-306.712 199.01,-304.782 200.081,-311.7"/>
</g>
<!-- Node41 -->
<g id="node81" class="node"><title>Node41</title>
<a xlink:href="colors__fonts_8h.html#a9a96cd1000443eaa0bcae1cad652e087" target="_top" xlink:title="Matrix6">
<polygon fill="white" stroke="black" points="209.5,-252 209.5,-276 258.5,-276 258.5,-252 209.5,-252"/>
<text text-anchor="middle" x="234" y="-263" font-family="Helvetica,sans-Serif" font-size="10.00">Matrix6</text>
</a>
</g>
<!-- Node1&#45;&gt;Node41 -->
<g id="edge80" class="edge"><title>Node1&#45;&gt;Node41</title>
<path fill="none" stroke="midnightblue" d="M63.9935,-944.957C71.2065,-858.731 116.541,-337.184 162,-285 171.337,-274.282 185.805,-268.886 199.329,-266.222"/>
<polygon fill="midnightblue" stroke="midnightblue" points="200.035,-269.655 209.386,-264.675 198.97,-262.736 200.035,-269.655"/>
</g>
<!-- Node42 -->
<g id="node83" class="node"><title>Node42</title>
<a xlink:href="colors__fonts_8h.html#a99bfb8fb66e3ac7d278141b5a0c12e9f" target="_top" xlink:title="Matrix7">
<polygon fill="white" stroke="black" points="209.5,-210 209.5,-234 258.5,-234 258.5,-210 209.5,-210"/>
<text text-anchor="middle" x="234" y="-221" font-family="Helvetica,sans-Serif" font-size="10.00">Matrix7</text>
</a>
</g>
<!-- Node1&#45;&gt;Node42 -->
<g id="edge82" class="edge"><title>Node1&#45;&gt;Node42</title>
<path fill="none" stroke="midnightblue" d="M63.8976,-944.786C70.5996,-854.974 113.891,-298.701 162,-243 171.292,-232.242 185.752,-226.84 199.284,-224.183"/>
<polygon fill="midnightblue" stroke="midnightblue" points="199.994,-227.615 209.349,-222.643 198.935,-220.696 199.994,-227.615"/>
</g>
<!-- Node43 -->
<g id="node85" class="node"><title>Node43</title>
<a xlink:href="colors__fonts_8h.html#abccc85b8a9224e40a99b2a0ddc4ee9d1" target="_top" xlink:title="Matrix8">
<polygon fill="white" stroke="black" points="209.5,-168 209.5,-192 258.5,-192 258.5,-168 209.5,-168"/>
<text text-anchor="middle" x="234" y="-179" font-family="Helvetica,sans-Serif" font-size="10.00">Matrix8</text>
</a>
</g>
<!-- Node1&#45;&gt;Node43 -->
<g id="edge84" class="edge"><title>Node1&#45;&gt;Node43</title>
<path fill="none" stroke="midnightblue" d="M63.7877,-944.964C69.9231,-852.755 111.175,-260.298 162,-201 171.251,-190.207 185.706,-184.8 199.244,-182.149"/>
<polygon fill="midnightblue" stroke="midnightblue" points="199.957,-185.58 209.316,-180.614 198.903,-178.66 199.957,-185.58"/>
</g>
<!-- Node44 -->
<g id="node87" class="node"><title>Node44</title>
<a xlink:href="colors__fonts_8h.html#a0d5abc48b14e974d8afc9df855fc959b" target="_top" xlink:title="Matrix9">
<polygon fill="white" stroke="black" points="209.5,-126 209.5,-150 258.5,-150 258.5,-126 209.5,-126"/>
<text text-anchor="middle" x="234" y="-137" font-family="Helvetica,sans-Serif" font-size="10.00">Matrix9</text>
</a>
</g>
<!-- Node1&#45;&gt;Node44 -->
<g id="edge86" class="edge"><title>Node1&#45;&gt;Node44</title>
<path fill="none" stroke="midnightblue" d="M63.7044,-944.909C69.3568,-849.635 108.497,-221.852 162,-159 171.214,-148.176 185.664,-142.764 199.207,-140.118"/>
<polygon fill="midnightblue" stroke="midnightblue" points="199.924,-143.549 209.286,-138.589 198.874,-136.628 199.924,-143.549"/>
</g>
<!-- Node45 -->
<g id="node89" class="node"><title>Node45</title>
<a xlink:href="colors__fonts_8h.html#a4be6c160c53dce2aed6781f27e6eded6" target="_top" xlink:title="Matrix10">
<polygon fill="white" stroke="black" points="207,-84 207,-108 261,-108 261,-84 207,-84"/>
<text text-anchor="middle" x="234" y="-95" font-family="Helvetica,sans-Serif" font-size="10.00">Matrix10</text>
</a>
</g>
<!-- Node1&#45;&gt;Node45 -->
<g id="edge88" class="edge"><title>Node1&#45;&gt;Node45</title>
<path fill="none" stroke="midnightblue" d="M63.6264,-944.903C68.8088,-846.799 105.807,-183.423 162,-117 170.627,-106.803 183.9,-101.406 196.711,-98.5997"/>
<polygon fill="midnightblue" stroke="midnightblue" points="197.529,-102.01 206.789,-96.8622 196.34,-95.1122 197.529,-102.01"/>
</g>
<!-- Node46 -->
<g id="node91" class="node"><title>Node46</title>
<a xlink:href="colors__fonts_8h.html#ae562a9058982e5697f8477a8144a9e64" target="_top" xlink:title="Matrix11">
<polygon fill="white" stroke="black" points="207,-42 207,-66 261,-66 261,-42 207,-42"/>
<text text-anchor="middle" x="234" y="-53" font-family="Helvetica,sans-Serif" font-size="10.00">Matrix11</text>
</a>
</g>
<!-- Node1&#45;&gt;Node46 -->
<g id="edge90" class="edge"><title>Node1&#45;&gt;Node46</title>
<path fill="none" stroke="midnightblue" d="M63.5536,-944.944C68.2793,-844.248 103.104,-145.011 162,-75 170.598,-64.7791 183.866,-59.3775 196.681,-56.574"/>
<polygon fill="midnightblue" stroke="midnightblue" points="197.501,-59.9844 206.763,-54.8402 196.314,-53.0857 197.501,-59.9844"/>
</g>
<!-- Node47 -->
<g id="node93" class="node"><title>Node47</title>
<a xlink:href="colors__fonts_8h.html#aa184789357ed7a2313a79ed9a121eecf" target="_top" xlink:title="Matrix12">
<polygon fill="white" stroke="black" points="207,-0 207,-24 261,-24 261,-0 207,-0"/>
<text text-anchor="middle" x="234" y="-11" font-family="Helvetica,sans-Serif" font-size="10.00">Matrix12</text>
</a>
</g>
<!-- Node1&#45;&gt;Node47 -->
<g id="edge92" class="edge"><title>Node1&#45;&gt;Node47</title>
<path fill="none" stroke="midnightblue" d="M63.4993,-944.703C67.837,-840.438 100.454,-106.536 162,-33 170.572,-22.7575 183.835,-17.3515 196.653,-14.5507"/>
<polygon fill="midnightblue" stroke="midnightblue" points="197.475,-17.9609 206.739,-12.8203 196.291,-11.0617 197.475,-17.9609"/>
</g>
</g>
</svg>
