<?xml version="1.0" encoding="UTF-8" standalone="no"?>
<!DOCTYPE svg PUBLIC "-//W3C//DTD SVG 1.1//EN"
 "http://www.w3.org/Graphics/SVG/1.1/DTD/svg11.dtd">
<!-- Generated by graphviz version 2.26.3 (20100126.1600)
 -->
<!-- Title: process_assign_to_core Pages: 1 -->
<svg width="1204pt" height="180pt"
 viewBox="0.00 0.00 1204.00 180.00" xmlns="http://www.w3.org/2000/svg" xmlns:xlink="http://www.w3.org/1999/xlink">
<g id="graph1" class="graph" transform="scale(1 1) rotate(0) translate(4 176)">
<title>process_assign_to_core</title>
<polygon fill="white" stroke="white" points="-4,5 -4,-176 1201,-176 1201,5 -4,5"/>
<!-- Node1 -->
<g id="node1" class="node"><title>Node1</title>
<polygon fill="#bfbfbf" stroke="black" points="0,-92 0,-116 122,-116 122,-92 0,-92"/>
<text text-anchor="middle" x="61" y="-103" font-family="Helvetica,sans-Serif" font-size="10.00">process_assign_to_core</text>
</g>
<!-- Node2 -->
<g id="node3" class="node"><title>Node2</title>
<a xlink:href="_c_f_g__config__panel__8_8cpp.html#a9fd7486fbbd4cf618401bc4d28b222f8" target="_top" xlink:title="do_main_config">
<polygon fill="white" stroke="black" points="158.5,-118 158.5,-142 243.5,-142 243.5,-118 158.5,-118"/>
<text text-anchor="middle" x="201" y="-129" font-family="Helvetica,sans-Serif" font-size="10.00">do_main_config</text>
</a>
</g>
<!-- Node1&#45;&gt;Node2 -->
<g id="edge2" class="edge"><title>Node1&#45;&gt;Node2</title>
<path fill="none" stroke="midnightblue" d="M132.338,-117.248C141.15,-118.885 149.934,-120.516 158.13,-122.039"/>
<polygon fill="midnightblue" stroke="midnightblue" points="132.877,-113.789 122.406,-115.404 131.599,-120.671 132.877,-113.789"/>
</g>
<!-- Node8 -->
<g id="node15" class="node"><title>Node8</title>
<a xlink:href="save__show__13_8cpp.html#a8a045527602a7f3fe04e2a6e7c16e144" target="_top" xlink:title="load_indexes">
<polygon fill="white" stroke="black" points="164,-66 164,-90 238,-90 238,-66 164,-66"/>
<text text-anchor="middle" x="201" y="-77" font-family="Helvetica,sans-Serif" font-size="10.00">load_indexes</text>
</a>
</g>
<!-- Node1&#45;&gt;Node8 -->
<g id="edge14" class="edge"><title>Node1&#45;&gt;Node8</title>
<path fill="none" stroke="midnightblue" d="M132.372,-90.7452C143.243,-88.7262 154.071,-86.7155 163.804,-84.9078"/>
<polygon fill="midnightblue" stroke="midnightblue" points="131.599,-87.3289 122.406,-92.596 132.877,-94.2112 131.599,-87.3289"/>
</g>
<!-- Node3 -->
<g id="node5" class="node"><title>Node3</title>
<a xlink:href="_c_f_g__config__panel__8_8cpp.html#ad39c46e2fb3a3ba7ea0460140ead4f96" target="_top" xlink:title="do_panel_config">
<polygon fill="white" stroke="black" points="280.5,-138 280.5,-162 367.5,-162 367.5,-138 280.5,-138"/>
<text text-anchor="middle" x="324" y="-149" font-family="Helvetica,sans-Serif" font-size="10.00">do_panel_config</text>
</a>
</g>
<!-- Node2&#45;&gt;Node3 -->
<g id="edge4" class="edge"><title>Node2&#45;&gt;Node3</title>
<path fill="none" stroke="midnightblue" d="M253.825,-138.589C262.604,-140.017 271.624,-141.484 280.149,-142.87"/>
<polygon fill="midnightblue" stroke="midnightblue" points="254.106,-135.089 243.674,-136.939 252.983,-141.999 254.106,-135.089"/>
</g>
<!-- Node4 -->
<g id="node7" class="node"><title>Node4</title>
<a xlink:href="_c_f_g__config__panel__8_8cpp.html#a7968da66bccdba8b864caf6c8435f68e" target="_top" xlink:title="config_general_menu">
<polygon fill="white" stroke="black" points="585.5,-148 585.5,-172 694.5,-172 694.5,-148 585.5,-148"/>
<text text-anchor="middle" x="640" y="-159" font-family="Helvetica,sans-Serif" font-size="10.00">config_general_menu</text>
</a>
</g>
<!-- Node3&#45;&gt;Node4 -->
<g id="edge6" class="edge"><title>Node3&#45;&gt;Node4</title>
<path fill="none" stroke="midnightblue" d="M377.654,-151.698C435.541,-153.53 527.228,-156.431 585.458,-158.274"/>
<polygon fill="midnightblue" stroke="midnightblue" points="377.712,-148.198 367.607,-151.38 377.491,-155.195 377.712,-148.198"/>
</g>
<!-- Node5 -->
<g id="node9" class="node"><title>Node5</title>
<a xlink:href="graphics__rebuild1_8cpp.html#ac2eae1e03fb72cc734ffbcef566483bf" target="_top" xlink:title="Boxes">
<polygon fill="white" stroke="black" points="886,-108 886,-132 930,-132 930,-108 886,-108"/>
<text text-anchor="middle" x="908" y="-119" font-family="Helvetica,sans-Serif" font-size="10.00">Boxes</text>
</a>
</g>
<!-- Node4&#45;&gt;Node5 -->
<g id="edge8" class="edge"><title>Node4&#45;&gt;Node5</title>
<path fill="none" stroke="midnightblue" d="M704.975,-155.181C739.322,-152.12 782.107,-147.493 820,-141 842.602,-137.127 868.047,-130.841 885.739,-126.154"/>
<polygon fill="midnightblue" stroke="midnightblue" points="704.261,-151.729 694.601,-156.081 704.866,-158.703 704.261,-151.729"/>
</g>
<!-- Node6 -->
<g id="node11" class="node"><title>Node6</title>
<a xlink:href="_m_a_i_n__avec__objets_8cpp.html#ade8d4ba65d55c94f8ee277829d722155" target="_top" xlink:title="main_actions_on_screen">
<polygon fill="white" stroke="black" points="996.5,-108 996.5,-132 1121.5,-132 1121.5,-108 996.5,-108"/>
<text text-anchor="middle" x="1059" y="-119" font-family="Helvetica,sans-Serif" font-size="10.00">main_actions_on_screen</text>
</a>
</g>
<!-- Node5&#45;&gt;Node6 -->
<g id="edge10" class="edge"><title>Node5&#45;&gt;Node6</title>
<path fill="none" stroke="midnightblue" d="M940.395,-120C956.76,-120 977.187,-120 996.455,-120"/>
<polygon fill="midnightblue" stroke="midnightblue" points="940.281,-116.5 930.281,-120 940.281,-123.5 940.281,-116.5"/>
</g>
<!-- Node7 -->
<g id="node13" class="node"><title>Node7</title>
<a xlink:href="_m_a_i_n__avec__objets_8cpp.html#ae66f6b31b5ad750f1fe042a706a4e3d4" target="_top" xlink:title="main">
<polygon fill="white" stroke="black" points="1158,-46 1158,-70 1196,-70 1196,-46 1158,-46"/>
<text text-anchor="middle" x="1177" y="-57" font-family="Helvetica,sans-Serif" font-size="10.00">main</text>
</a>
</g>
<!-- Node6&#45;&gt;Node7 -->
<g id="edge12" class="edge"><title>Node6&#45;&gt;Node7</title>
<path fill="none" stroke="midnightblue" d="M1110.97,-104.169C1114.76,-102.562 1118.48,-100.838 1122,-99 1137.2,-91.0627 1152.7,-79.0822 1163.36,-70.1185"/>
<polygon fill="midnightblue" stroke="midnightblue" points="1109.47,-100.998 1101.45,-107.921 1112.04,-107.511 1109.47,-100.998"/>
</g>
<!-- Node8&#45;&gt;Node7 -->
<g id="edge16" class="edge"><title>Node8&#45;&gt;Node7</title>
<path fill="none" stroke="midnightblue" d="M234.723,-61.7795C285.423,-38.9248 384.857,-1.33504e-14 474,-0 474,-0 474,-0 908,-0 1004.45,-5.90571e-15 1029.14,-9.94133 1122,-36 1134.18,-39.4177 1147.35,-44.6299 1157.75,-49.1232"/>
<polygon fill="midnightblue" stroke="midnightblue" points="233.178,-58.6374 225.543,-65.9834 236.093,-65.0018 233.178,-58.6374"/>
</g>
<!-- Node9 -->
<g id="node18" class="node"><title>Node9</title>
<a xlink:href="save__show__13_8cpp.html#a8330f725aa2c729bdce098aa4b187589" target="_top" xlink:title="Load_Show">
<polygon fill="white" stroke="black" points="290,-66 290,-90 358,-90 358,-66 290,-66"/>
<text text-anchor="middle" x="324" y="-77" font-family="Helvetica,sans-Serif" font-size="10.00">Load_Show</text>
</a>
</g>
<!-- Node8&#45;&gt;Node9 -->
<g id="edge18" class="edge"><title>Node8&#45;&gt;Node9</title>
<path fill="none" stroke="midnightblue" d="M248.525,-78C262.292,-78 277.046,-78 289.824,-78"/>
<polygon fill="midnightblue" stroke="midnightblue" points="248.238,-74.5001 238.238,-78 248.238,-81.5001 248.238,-74.5001"/>
</g>
<!-- Node9&#45;&gt;Node7 -->
<g id="edge20" class="edge"><title>Node9&#45;&gt;Node7</title>
<path fill="none" stroke="midnightblue" d="M368.229,-64.9033C379.784,-61.8923 392.285,-58.9932 404,-57 507.738,-39.3506 534.772,-38 640,-38 640,-38 640,-38 908,-38 1001.89,-38 1113.72,-50.2681 1157.79,-55.5875"/>
<polygon fill="midnightblue" stroke="midnightblue" points="367.109,-61.58 358.362,-67.5582 368.928,-68.3396 367.109,-61.58"/>
</g>
<!-- Node10 -->
<g id="node21" class="node"><title>Node10</title>
<a xlink:href="save__show__13_8cpp.html#a1eafc1ecb75f36c1fe85c967bdea99b0" target="_top" xlink:title="load_the_show">
<polygon fill="white" stroke="black" points="433,-108 433,-132 515,-132 515,-108 433,-108"/>
<text text-anchor="middle" x="474" y="-119" font-family="Helvetica,sans-Serif" font-size="10.00">load_the_show</text>
</a>
</g>
<!-- Node9&#45;&gt;Node10 -->
<g id="edge22" class="edge"><title>Node9&#45;&gt;Node10</title>
<path fill="none" stroke="midnightblue" d="M367.785,-90.2597C388.334,-96.0134 412.688,-102.833 432.889,-108.489"/>
<polygon fill="midnightblue" stroke="midnightblue" points="368.611,-86.8564 358.037,-87.5305 366.723,-93.5972 368.611,-86.8564"/>
</g>
<!-- Node16 -->
<g id="node35" class="node"><title>Node16</title>
<a xlink:href="save__show__13_8cpp.html#a2c8ff847dfaf2dc6c8765b2bee26edfc" target="_top" xlink:title="do_wizard_reload_from_disk">
<polygon fill="white" stroke="black" points="404,-66 404,-90 544,-90 544,-66 404,-66"/>
<text text-anchor="middle" x="474" y="-77" font-family="Helvetica,sans-Serif" font-size="10.00">do_wizard_reload_from_disk</text>
</a>
</g>
<!-- Node9&#45;&gt;Node16 -->
<g id="edge38" class="edge"><title>Node9&#45;&gt;Node16</title>
<path fill="none" stroke="midnightblue" d="M368.379,-78C379.558,-78 391.834,-78 403.937,-78"/>
<polygon fill="midnightblue" stroke="midnightblue" points="368.037,-74.5001 358.037,-78 368.037,-81.5001 368.037,-74.5001"/>
</g>
<!-- Node11 -->
<g id="node23" class="node"><title>Node11</title>
<a xlink:href="logicals__intres_8cpp.html#a74cf9c04c734ab342f88799efbfc4210" target="_top" xlink:title="operations_confirmation">
<polygon fill="white" stroke="black" points="580,-86 580,-110 700,-110 700,-86 580,-86"/>
<text text-anchor="middle" x="640" y="-97" font-family="Helvetica,sans-Serif" font-size="10.00">operations_confirmation</text>
</a>
</g>
<!-- Node10&#45;&gt;Node11 -->
<g id="edge24" class="edge"><title>Node10&#45;&gt;Node11</title>
<path fill="none" stroke="midnightblue" d="M525.422,-113.185C542.599,-110.909 561.896,-108.351 579.687,-105.993"/>
<polygon fill="midnightblue" stroke="midnightblue" points="524.487,-109.778 515.034,-114.562 525.407,-116.718 524.487,-109.778"/>
</g>
<!-- Node12 -->
<g id="node25" class="node"><title>Node12</title>
<a xlink:href="keyboard__functions2_8cpp.html#a548548066307f816c5021de7d6e4f26a" target="_top" xlink:title="key_affectation">
<polygon fill="white" stroke="black" points="736.5,-66 736.5,-90 819.5,-90 819.5,-66 736.5,-66"/>
<text text-anchor="middle" x="778" y="-77" font-family="Helvetica,sans-Serif" font-size="10.00">key_affectation</text>
</a>
</g>
<!-- Node11&#45;&gt;Node12 -->
<g id="edge26" class="edge"><title>Node11&#45;&gt;Node12</title>
<path fill="none" stroke="midnightblue" d="M710.19,-87.8276C719.12,-86.5333 728.024,-85.2429 736.303,-84.0431"/>
<polygon fill="midnightblue" stroke="midnightblue" points="709.522,-84.3877 700.127,-89.2859 710.526,-91.3153 709.522,-84.3877"/>
</g>
<!-- Node15 -->
<g id="node32" class="node"><title>Node15</title>
<a xlink:href="logicals__intres_8cpp.html#a85967c22135715eca94d08af2ec1a1fb" target="_top" xlink:title="fenetre_confirm">
<polygon fill="white" stroke="black" points="736,-108 736,-132 820,-132 820,-108 736,-108"/>
<text text-anchor="middle" x="778" y="-119" font-family="Helvetica,sans-Serif" font-size="10.00">fenetre_confirm</text>
</a>
</g>
<!-- Node11&#45;&gt;Node15 -->
<g id="edge34" class="edge"><title>Node11&#45;&gt;Node15</title>
<path fill="none" stroke="midnightblue" d="M710.07,-109.171C718.894,-110.577 727.695,-111.98 735.896,-113.288"/>
<polygon fill="midnightblue" stroke="midnightblue" points="710.554,-105.704 700.127,-107.586 709.452,-112.616 710.554,-105.704"/>
</g>
<!-- Node13 -->
<g id="node27" class="node"><title>Node13</title>
<a xlink:href="keyboard__routines2_8cpp.html#a8563320b8eab661232619224650de244" target="_top" xlink:title="commandes_clavier">
<polygon fill="white" stroke="black" points="856,-66 856,-90 960,-90 960,-66 856,-66"/>
<text text-anchor="middle" x="908" y="-77" font-family="Helvetica,sans-Serif" font-size="10.00">commandes_clavier</text>
</a>
</g>
<!-- Node12&#45;&gt;Node13 -->
<g id="edge28" class="edge"><title>Node12&#45;&gt;Node13</title>
<path fill="none" stroke="midnightblue" d="M829.995,-78C838.473,-78 847.258,-78 855.742,-78"/>
<polygon fill="midnightblue" stroke="midnightblue" points="829.848,-74.5001 819.848,-78 829.848,-81.5001 829.848,-74.5001"/>
</g>
<!-- Node14 -->
<g id="node29" class="node"><title>Node14</title>
<a xlink:href="_m_a_i_n__avec__objets_8cpp.html#a8e80f54ac804eddce8ed6e45adb1db44" target="_top" xlink:title="ticker_full_loop">
<polygon fill="white" stroke="black" points="1018,-66 1018,-90 1100,-90 1100,-66 1018,-66"/>
<text text-anchor="middle" x="1059" y="-77" font-family="Helvetica,sans-Serif" font-size="10.00">ticker_full_loop</text>
</a>
</g>
<!-- Node13&#45;&gt;Node14 -->
<g id="edge30" class="edge"><title>Node13&#45;&gt;Node14</title>
<path fill="none" stroke="midnightblue" d="M970.664,-78C986.516,-78 1003.15,-78 1017.65,-78"/>
<polygon fill="midnightblue" stroke="midnightblue" points="970.389,-74.5001 960.389,-78 970.389,-81.5001 970.389,-74.5001"/>
</g>
<!-- Node14&#45;&gt;Node7 -->
<g id="edge32" class="edge"><title>Node14&#45;&gt;Node7</title>
<path fill="none" stroke="midnightblue" d="M1110.55,-69.2628C1127.31,-66.4225 1144.88,-63.4442 1157.74,-61.2641"/>
<polygon fill="midnightblue" stroke="midnightblue" points="1109.55,-65.883 1100.27,-71.005 1110.71,-72.7846 1109.55,-65.883"/>
</g>
<!-- Node15&#45;&gt;Node5 -->
<g id="edge36" class="edge"><title>Node15&#45;&gt;Node5</title>
<path fill="none" stroke="midnightblue" d="M830.4,-120C849.658,-120 870.45,-120 885.66,-120"/>
<polygon fill="midnightblue" stroke="midnightblue" points="830.207,-116.5 820.207,-120 830.207,-123.5 830.207,-116.5"/>
</g>
<!-- Node16&#45;&gt;Node11 -->
<g id="edge40" class="edge"><title>Node16&#45;&gt;Node11</title>
<path fill="none" stroke="midnightblue" d="M554.451,-87.6929C563.047,-88.7285 571.679,-89.7685 579.979,-90.7685"/>
<polygon fill="midnightblue" stroke="midnightblue" points="554.746,-84.2032 544.399,-86.4818 553.908,-91.1529 554.746,-84.2032"/>
</g>
</g>
</svg>
