<?xml version="1.0" encoding="UTF-8" standalone="no"?>
<!DOCTYPE svg PUBLIC "-//W3C//DTD SVG 1.1//EN"
 "http://www.w3.org/Graphics/SVG/1.1/DTD/svg11.dtd">
<!-- Generated by graphviz version 2.26.3 (20100126.1600)
 -->
<!-- Title: clear_echo_levels Pages: 1 -->
<svg width="928pt" height="154pt"
 viewBox="0.00 0.00 928.00 154.00" xmlns="http://www.w3.org/2000/svg" xmlns:xlink="http://www.w3.org/1999/xlink">
<g id="graph1" class="graph" transform="scale(1 1) rotate(0) translate(4 150)">
<title>clear_echo_levels</title>
<polygon fill="white" stroke="white" points="-4,5 -4,-150 925,-150 925,5 -4,5"/>
<!-- Node1 -->
<g id="node1" class="node"><title>Node1</title>
<polygon fill="#bfbfbf" stroke="black" points="0.5,-90 0.5,-114 95.5,-114 95.5,-90 0.5,-90"/>
<text text-anchor="middle" x="48" y="-101" font-family="Helvetica,sans-Serif" font-size="10.00">clear_echo_levels</text>
</g>
<!-- Node2 -->
<g id="node3" class="node"><title>Node2</title>
<a xlink:href="echo3_8cpp.html#a440d7e78e4b39340e539bef8b9d7e2e1" target="_top" xlink:title="do_logical_echo_window">
<polygon fill="white" stroke="black" points="132.5,-112 132.5,-136 257.5,-136 257.5,-112 132.5,-112"/>
<text text-anchor="middle" x="195" y="-123" font-family="Helvetica,sans-Serif" font-size="10.00">do_logical_echo_window</text>
</a>
</g>
<!-- Node1&#45;&gt;Node2 -->
<g id="edge2" class="edge"><title>Node1&#45;&gt;Node2</title>
<path fill="none" stroke="midnightblue" d="M105.763,-110.645C114.459,-111.946 123.464,-113.294 132.258,-114.61"/>
<polygon fill="midnightblue" stroke="midnightblue" points="106.135,-107.162 95.7267,-109.143 105.098,-114.084 106.135,-107.162"/>
</g>
<!-- Node6 -->
<g id="node11" class="node"><title>Node6</title>
<a xlink:href="midi__13_8cpp.html#a6dff3d42682b58cc0a9875ee30fb4cd4" target="_top" xlink:title="do_midi_job">
<polygon fill="white" stroke="black" points="161,-68 161,-92 229,-92 229,-68 161,-68"/>
<text text-anchor="middle" x="195" y="-79" font-family="Helvetica,sans-Serif" font-size="10.00">do_midi_job</text>
</a>
</g>
<!-- Node1&#45;&gt;Node6 -->
<g id="edge10" class="edge"><title>Node1&#45;&gt;Node6</title>
<path fill="none" stroke="midnightblue" d="M105.836,-93.3443C124.348,-90.5738 144.249,-87.5953 160.544,-85.1567"/>
<polygon fill="midnightblue" stroke="midnightblue" points="105.098,-89.9156 95.7267,-94.8572 106.135,-96.8385 105.098,-89.9156"/>
</g>
<!-- Node3 -->
<g id="node5" class="node"><title>Node3</title>
<a xlink:href="procs__visuels__rebuild1_8cpp.html#ae710b6e599e321ad5934a90140067054" target="_top" xlink:title="check_graphics_mouse\l_handling">
<polygon fill="white" stroke="black" points="302.5,-106 302.5,-146 421.5,-146 421.5,-106 302.5,-106"/>
<text text-anchor="start" x="310.5" y="-133" font-family="Helvetica,sans-Serif" font-size="10.00">check_graphics_mouse</text>
<text text-anchor="middle" x="362" y="-117" font-family="Helvetica,sans-Serif" font-size="10.00">_handling</text>
</a>
</g>
<!-- Node2&#45;&gt;Node3 -->
<g id="edge4" class="edge"><title>Node2&#45;&gt;Node3</title>
<path fill="none" stroke="midnightblue" d="M267.717,-124.871C279.268,-125.009 291.1,-125.151 302.308,-125.285"/>
<polygon fill="midnightblue" stroke="midnightblue" points="267.701,-121.371 257.66,-124.75 267.617,-128.37 267.701,-121.371"/>
</g>
<!-- Node4 -->
<g id="node7" class="node"><title>Node4</title>
<a xlink:href="_m_a_i_n__avec__objets_8cpp.html#a8e80f54ac804eddce8ed6e45adb1db44" target="_top" xlink:title="ticker_full_loop">
<polygon fill="white" stroke="black" points="745,-111 745,-135 827,-135 827,-111 745,-111"/>
<text text-anchor="middle" x="786" y="-122" font-family="Helvetica,sans-Serif" font-size="10.00">ticker_full_loop</text>
</a>
</g>
<!-- Node3&#45;&gt;Node4 -->
<g id="edge6" class="edge"><title>Node3&#45;&gt;Node4</title>
<path fill="none" stroke="midnightblue" d="M431.876,-125.506C521.065,-124.875 672.468,-123.803 744.949,-123.29"/>
<polygon fill="midnightblue" stroke="midnightblue" points="431.825,-122.006 421.85,-125.577 431.874,-129.006 431.825,-122.006"/>
</g>
<!-- Node5 -->
<g id="node9" class="node"><title>Node5</title>
<a xlink:href="_m_a_i_n__avec__objets_8cpp.html#ae66f6b31b5ad750f1fe042a706a4e3d4" target="_top" xlink:title="main">
<polygon fill="white" stroke="black" points="882,-88 882,-112 920,-112 920,-88 882,-88"/>
<text text-anchor="middle" x="901" y="-99" font-family="Helvetica,sans-Serif" font-size="10.00">main</text>
</a>
</g>
<!-- Node4&#45;&gt;Node5 -->
<g id="edge8" class="edge"><title>Node4&#45;&gt;Node5</title>
<path fill="none" stroke="midnightblue" d="M837.007,-112.799C852.982,-109.604 869.635,-106.273 881.947,-103.811"/>
<polygon fill="midnightblue" stroke="midnightblue" points="836.312,-109.368 827.193,-114.761 837.685,-116.232 836.312,-109.368"/>
</g>
<!-- Node7 -->
<g id="node13" class="node"><title>Node7</title>
<a xlink:href="midi__13_8cpp.html#a6bedf9750195224914cd87c4e73ab626" target="_top" xlink:title="ventilate_midi_to_midiarray">
<polygon fill="white" stroke="black" points="294.5,-64 294.5,-88 429.5,-88 429.5,-64 294.5,-64"/>
<text text-anchor="middle" x="362" y="-75" font-family="Helvetica,sans-Serif" font-size="10.00">ventilate_midi_to_midiarray</text>
</a>
</g>
<!-- Node6&#45;&gt;Node7 -->
<g id="edge12" class="edge"><title>Node6&#45;&gt;Node7</title>
<path fill="none" stroke="midnightblue" d="M239.317,-78.9385C256.198,-78.5342 275.841,-78.0637 294.397,-77.6192"/>
<polygon fill="midnightblue" stroke="midnightblue" points="239.111,-75.4423 229.198,-79.1809 239.279,-82.4403 239.111,-75.4423"/>
</g>
<!-- Node8 -->
<g id="node15" class="node"><title>Node8</title>
<a xlink:href="midi__13_8cpp.html#afa49dd5668303c2448676c8243737c2d" target="_top" xlink:title="simulate_midi">
<polygon fill="white" stroke="black" points="466.5,-64 466.5,-88 543.5,-88 543.5,-64 466.5,-64"/>
<text text-anchor="middle" x="505" y="-75" font-family="Helvetica,sans-Serif" font-size="10.00">simulate_midi</text>
</a>
</g>
<!-- Node7&#45;&gt;Node8 -->
<g id="edge14" class="edge"><title>Node7&#45;&gt;Node8</title>
<path fill="none" stroke="midnightblue" d="M439.744,-76C448.949,-76 458.014,-76 466.324,-76"/>
<polygon fill="midnightblue" stroke="midnightblue" points="439.731,-72.5001 429.731,-76 439.731,-79.5001 439.731,-72.5001"/>
</g>
<!-- Node9 -->
<g id="node17" class="node"><title>Node9</title>
<a xlink:href="arduino__core__6___u_n_o_8cpp.html#ae72d1a8d74d9ab5515962e03e7e664d6" target="_top" xlink:title="arduino_do_analog_in\l_whitecat">
<polygon fill="white" stroke="black" points="580,-58 580,-98 690,-98 690,-58 580,-58"/>
<text text-anchor="start" x="588" y="-85" font-family="Helvetica,sans-Serif" font-size="10.00">arduino_do_analog_in</text>
<text text-anchor="middle" x="635" y="-69" font-family="Helvetica,sans-Serif" font-size="10.00">_whitecat</text>
</a>
</g>
<!-- Node8&#45;&gt;Node9 -->
<g id="edge16" class="edge"><title>Node8&#45;&gt;Node9</title>
<path fill="none" stroke="midnightblue" d="M553.8,-76.7508C562.315,-76.8818 571.227,-77.0189 579.898,-77.1523"/>
<polygon fill="midnightblue" stroke="midnightblue" points="553.705,-73.249 543.652,-76.5947 553.597,-80.2482 553.705,-73.249"/>
</g>
<!-- Node11 -->
<g id="node22" class="node"><title>Node11</title>
<a xlink:href="arduino__core__6___u_n_o_8cpp.html#a219226c1cd6cc17c78e62fd4445bb445" target="_top" xlink:title="arduino_do_digital\l_in_whitecat">
<polygon fill="white" stroke="black" points="587.5,-0 587.5,-40 682.5,-40 682.5,-0 587.5,-0"/>
<text text-anchor="start" x="595.5" y="-27" font-family="Helvetica,sans-Serif" font-size="10.00">arduino_do_digital</text>
<text text-anchor="middle" x="635" y="-11" font-family="Helvetica,sans-Serif" font-size="10.00">_in_whitecat</text>
</a>
</g>
<!-- Node8&#45;&gt;Node11 -->
<g id="edge22" class="edge"><title>Node8&#45;&gt;Node11</title>
<path fill="none" stroke="midnightblue" d="M542.437,-59.8733C556.804,-53.6846 573.375,-46.5462 588.491,-40.0347"/>
<polygon fill="midnightblue" stroke="midnightblue" points="540.688,-56.8159 532.888,-63.9866 543.457,-63.2447 540.688,-56.8159"/>
</g>
<!-- Node10 -->
<g id="node19" class="node"><title>Node10</title>
<a xlink:href="_m_a_i_n__avec__objets_8cpp.html#ace9c8a9b37c6087c3cffef442d71d70e" target="_top" xlink:title="dixiemes_de_secondes">
<polygon fill="white" stroke="black" points="726.5,-66 726.5,-90 845.5,-90 845.5,-66 726.5,-66"/>
<text text-anchor="middle" x="786" y="-77" font-family="Helvetica,sans-Serif" font-size="10.00">dixiemes_de_secondes</text>
</a>
</g>
<!-- Node9&#45;&gt;Node10 -->
<g id="edge18" class="edge"><title>Node9&#45;&gt;Node10</title>
<path fill="none" stroke="midnightblue" d="M700.379,-78C708.999,-78 717.798,-78 726.316,-78"/>
<polygon fill="midnightblue" stroke="midnightblue" points="700.369,-74.5001 690.369,-78 700.369,-81.5001 700.369,-74.5001"/>
</g>
<!-- Node10&#45;&gt;Node5 -->
<g id="edge20" class="edge"><title>Node10&#45;&gt;Node5</title>
<path fill="none" stroke="midnightblue" d="M855.619,-91.3184C865.191,-93.1497 874.294,-94.8911 881.8,-96.327"/>
<polygon fill="midnightblue" stroke="midnightblue" points="856.001,-87.828 845.521,-89.3866 854.685,-94.7034 856.001,-87.828"/>
</g>
<!-- Node11&#45;&gt;Node10 -->
<g id="edge24" class="edge"><title>Node11&#45;&gt;Node10</title>
<path fill="none" stroke="midnightblue" d="M692.336,-42.0229C713.505,-50.1544 736.701,-59.0639 754.713,-65.9824"/>
<polygon fill="midnightblue" stroke="midnightblue" points="693.367,-38.67 682.777,-38.3516 690.857,-45.2045 693.367,-38.67"/>
</g>
</g>
</svg>
