<?xml version="1.0" encoding="UTF-8" standalone="no"?>
<!DOCTYPE svg PUBLIC "-//W3C//DTD SVG 1.1//EN"
 "http://www.w3.org/Graphics/SVG/1.1/DTD/svg11.dtd">
<!-- Generated by graphviz version 2.26.3 (20100126.1600)
 -->
<!-- Title: do_go_back_function Pages: 1 -->
<svg width="420pt" height="116pt"
 viewBox="0.00 0.00 420.00 116.00" xmlns="http://www.w3.org/2000/svg" xmlns:xlink="http://www.w3.org/1999/xlink">
<g id="graph1" class="graph" transform="scale(1 1) rotate(0) translate(4 112)">
<title>do_go_back_function</title>
<polygon fill="white" stroke="white" points="-4,5 -4,-112 417,-112 417,5 -4,5"/>
<!-- Node1 -->
<g id="node1" class="node"><title>Node1</title>
<polygon fill="#bfbfbf" stroke="black" points="0.5,-42 0.5,-66 109.5,-66 109.5,-42 0.5,-42"/>
<text text-anchor="middle" x="55" y="-53" font-family="Helvetica,sans-Serif" font-size="10.00">do_go_back_function</text>
</g>
<!-- Node2 -->
<g id="node3" class="node"><title>Node2</title>
<a xlink:href="_c_o_r_e__6_8cpp.html#a68c3767f8e350737e991a726e0ef1438" target="_top" xlink:title="refresh_mem_onpreset">
<polygon fill="white" stroke="black" points="146,-84 146,-108 262,-108 262,-84 146,-84"/>
<text text-anchor="middle" x="204" y="-95" font-family="Helvetica,sans-Serif" font-size="10.00">refresh_mem_onpreset</text>
</a>
</g>
<!-- Node1&#45;&gt;Node2 -->
<g id="edge2" class="edge"><title>Node1&#45;&gt;Node2</title>
<path fill="none" stroke="midnightblue" d="M97.6974,-66.0355C114.375,-70.7366 133.67,-76.1755 151.207,-81.1188"/>
<polygon fill="midnightblue" stroke="midnightblue" points="150.722,-84.6183 161.296,-83.9627 152.621,-77.8809 150.722,-84.6183"/>
</g>
<!-- Node3 -->
<g id="node5" class="node"><title>Node3</title>
<a xlink:href="_c_o_r_e__6_8cpp.html#a5c17b7c708caee1d7ff53ba997ad0d83" target="_top" xlink:title="prepare_crossfade">
<polygon fill="white" stroke="black" points="155.5,-42 155.5,-66 252.5,-66 252.5,-42 155.5,-42"/>
<text text-anchor="middle" x="204" y="-53" font-family="Helvetica,sans-Serif" font-size="10.00">prepare_crossfade</text>
</a>
</g>
<!-- Node1&#45;&gt;Node3 -->
<g id="edge4" class="edge"><title>Node1&#45;&gt;Node3</title>
<path fill="none" stroke="midnightblue" d="M109.636,-54C121.199,-54 133.451,-54 145.161,-54"/>
<polygon fill="midnightblue" stroke="midnightblue" points="145.283,-57.5001 155.283,-54 145.283,-50.5001 145.283,-57.5001"/>
</g>
<!-- Node4 -->
<g id="node7" class="node"><title>Node4</title>
<a xlink:href="grider__calculs8_8cpp.html#aa5e2775d1f19c4fddd0e6ed08b511e96" target="_top" xlink:title="gridder_prepare_cross">
<polygon fill="white" stroke="black" points="147.5,-0 147.5,-24 260.5,-24 260.5,-0 147.5,-0"/>
<text text-anchor="middle" x="204" y="-11" font-family="Helvetica,sans-Serif" font-size="10.00">gridder_prepare_cross</text>
</a>
</g>
<!-- Node1&#45;&gt;Node4 -->
<g id="edge6" class="edge"><title>Node1&#45;&gt;Node4</title>
<path fill="none" stroke="midnightblue" d="M97.6974,-41.9645C114.375,-37.2634 133.67,-31.8245 151.207,-26.8812"/>
<polygon fill="midnightblue" stroke="midnightblue" points="152.621,-30.1191 161.296,-24.0373 150.722,-23.3817 152.621,-30.1191"/>
</g>
<!-- Node5 -->
<g id="node9" class="node"><title>Node5</title>
<a xlink:href="grider__calculs8_8cpp.html#aa649acadfb5dcef5c313de19ddcb2290" target="_top" xlink:title="affichage_time_format">
<polygon fill="white" stroke="black" points="298.5,-0 298.5,-24 411.5,-24 411.5,-0 298.5,-0"/>
<text text-anchor="middle" x="355" y="-11" font-family="Helvetica,sans-Serif" font-size="10.00">affichage_time_format</text>
</a>
</g>
<!-- Node4&#45;&gt;Node5 -->
<g id="edge8" class="edge"><title>Node4&#45;&gt;Node5</title>
<path fill="none" stroke="midnightblue" d="M260.656,-12C269.594,-12 278.909,-12 288.054,-12"/>
<polygon fill="midnightblue" stroke="midnightblue" points="288.277,-15.5001 298.277,-12 288.277,-8.5001 288.277,-15.5001"/>
</g>
</g>
</svg>
