<?xml version="1.0" encoding="UTF-8" standalone="no"?>
<!DOCTYPE svg PUBLIC "-//W3C//DTD SVG 1.1//EN"
 "http://www.w3.org/Graphics/SVG/1.1/DTD/svg11.dtd">
<!-- Generated by graphviz version 2.26.3 (20100126.1600)
 -->
<!-- Title: send_my_midi_note_delayed Pages: 1 -->
<svg width="1126pt" height="76pt"
 viewBox="0.00 0.00 1126.00 76.00" xmlns="http://www.w3.org/2000/svg" xmlns:xlink="http://www.w3.org/1999/xlink">
<g id="graph1" class="graph" transform="scale(1 1) rotate(0) translate(4 72)">
<title>send_my_midi_note_delayed</title>
<polygon fill="white" stroke="white" points="-4,5 -4,-72 1123,-72 1123,5 -4,5"/>
<!-- Node1 -->
<g id="node1" class="node"><title>Node1</title>
<polygon fill="#bfbfbf" stroke="black" points="0.5,-32 0.5,-56 143.5,-56 143.5,-32 0.5,-32"/>
<text text-anchor="middle" x="72" y="-43" font-family="Helvetica,sans-Serif" font-size="10.00">send_my_midi_note_delayed</text>
</g>
<!-- Node2 -->
<g id="node3" class="node"><title>Node2</title>
<a xlink:href="midi__launchpad_8cpp.html#a6f96c04520781848f749f65e9b8492ae" target="_top" xlink:title="reset_launchpad">
<polygon fill="white" stroke="black" points="180,-32 180,-56 268,-56 268,-32 180,-32"/>
<text text-anchor="middle" x="224" y="-43" font-family="Helvetica,sans-Serif" font-size="10.00">reset_launchpad</text>
</a>
</g>
<!-- Node1&#45;&gt;Node2 -->
<g id="edge2" class="edge"><title>Node1&#45;&gt;Node2</title>
<path fill="none" stroke="midnightblue" d="M153.664,-44C162.607,-44 171.444,-44 179.678,-44"/>
<polygon fill="midnightblue" stroke="midnightblue" points="153.549,-40.5001 143.549,-44 153.549,-47.5001 153.549,-40.5001"/>
</g>
<!-- Node3 -->
<g id="node5" class="node"><title>Node3</title>
<a xlink:href="_m_a_i_n__avec__objets_8cpp.html#ae66f6b31b5ad750f1fe042a706a4e3d4" target="_top" xlink:title="main">
<polygon fill="white" stroke="black" points="1080,-35 1080,-59 1118,-59 1118,-35 1080,-35"/>
<text text-anchor="middle" x="1099" y="-46" font-family="Helvetica,sans-Serif" font-size="10.00">main</text>
</a>
</g>
<!-- Node2&#45;&gt;Node3 -->
<g id="edge4" class="edge"><title>Node2&#45;&gt;Node3</title>
<path fill="none" stroke="midnightblue" d="M278.314,-51.7566C332.173,-58.7689 417.108,-68 491,-68 491,-68 491,-68 860,-68 942.056,-68 1039.35,-55.5643 1079.84,-49.8322"/>
<polygon fill="midnightblue" stroke="midnightblue" points="278.672,-48.2735 268.299,-50.4316 277.753,-55.2131 278.672,-48.2735"/>
</g>
<!-- Node4 -->
<g id="node7" class="node"><title>Node4</title>
<a xlink:href="midi__13_8cpp.html#a110e58b11dbde556672bce44aafba38a" target="_top" xlink:title="midipage_preset_and\l_options">
<polygon fill="white" stroke="black" points="304.5,-0 304.5,-40 413.5,-40 413.5,-0 304.5,-0"/>
<text text-anchor="start" x="312.5" y="-27" font-family="Helvetica,sans-Serif" font-size="10.00">midipage_preset_and</text>
<text text-anchor="middle" x="359" y="-11" font-family="Helvetica,sans-Serif" font-size="10.00">_options</text>
</a>
</g>
<!-- Node2&#45;&gt;Node4 -->
<g id="edge6" class="edge"><title>Node2&#45;&gt;Node4</title>
<path fill="none" stroke="midnightblue" d="M278.146,-34.374C286.764,-32.8419 295.685,-31.256 304.315,-29.7217"/>
<polygon fill="midnightblue" stroke="midnightblue" points="277.437,-30.9451 268.204,-36.1415 278.662,-37.8371 277.437,-30.9451"/>
</g>
<!-- Node5 -->
<g id="node9" class="node"><title>Node5</title>
<a xlink:href="midi__13_8cpp.html#a8f70acacad6eaba8867bdd80dda5e277" target="_top" xlink:title="do_midi_config">
<polygon fill="white" stroke="black" points="450,-9 450,-33 532,-33 532,-9 450,-9"/>
<text text-anchor="middle" x="491" y="-20" font-family="Helvetica,sans-Serif" font-size="10.00">do_midi_config</text>
</a>
</g>
<!-- Node4&#45;&gt;Node5 -->
<g id="edge8" class="edge"><title>Node4&#45;&gt;Node5</title>
<path fill="none" stroke="midnightblue" d="M424.077,-20.493C432.844,-20.5594 441.633,-20.626 449.824,-20.6881"/>
<polygon fill="midnightblue" stroke="midnightblue" points="423.859,-16.9914 413.833,-20.4154 423.806,-23.9912 423.859,-16.9914"/>
</g>
<!-- Node6 -->
<g id="node11" class="node"><title>Node6</title>
<a xlink:href="_c_f_g__config__panel__8_8cpp.html#ad39c46e2fb3a3ba7ea0460140ead4f96" target="_top" xlink:title="do_panel_config">
<polygon fill="white" stroke="black" points="568.5,-9 568.5,-33 655.5,-33 655.5,-9 568.5,-9"/>
<text text-anchor="middle" x="612" y="-20" font-family="Helvetica,sans-Serif" font-size="10.00">do_panel_config</text>
</a>
</g>
<!-- Node5&#45;&gt;Node6 -->
<g id="edge10" class="edge"><title>Node5&#45;&gt;Node6</title>
<path fill="none" stroke="midnightblue" d="M542.33,-21C551.01,-21 559.947,-21 568.406,-21"/>
<polygon fill="midnightblue" stroke="midnightblue" points="542.303,-17.5001 532.303,-21 542.303,-24.5001 542.303,-17.5001"/>
</g>
<!-- Node7 -->
<g id="node13" class="node"><title>Node7</title>
<a xlink:href="_c_f_g__config__panel__8_8cpp.html#a7968da66bccdba8b864caf6c8435f68e" target="_top" xlink:title="config_general_menu">
<polygon fill="white" stroke="black" points="692.5,-13 692.5,-37 801.5,-37 801.5,-13 692.5,-13"/>
<text text-anchor="middle" x="747" y="-24" font-family="Helvetica,sans-Serif" font-size="10.00">config_general_menu</text>
</a>
</g>
<!-- Node6&#45;&gt;Node7 -->
<g id="edge12" class="edge"><title>Node6&#45;&gt;Node7</title>
<path fill="none" stroke="midnightblue" d="M666.072,-22.6021C674.621,-22.8554 683.471,-23.1176 692.04,-23.3716"/>
<polygon fill="midnightblue" stroke="midnightblue" points="665.93,-19.0965 655.831,-22.2987 665.723,-26.0934 665.93,-19.0965"/>
</g>
<!-- Node8 -->
<g id="node15" class="node"><title>Node8</title>
<a xlink:href="graphics__rebuild1_8cpp.html#ac2eae1e03fb72cc734ffbcef566483bf" target="_top" xlink:title="Boxes">
<polygon fill="white" stroke="black" points="838,-14 838,-38 882,-38 882,-14 838,-14"/>
<text text-anchor="middle" x="860" y="-25" font-family="Helvetica,sans-Serif" font-size="10.00">Boxes</text>
</a>
</g>
<!-- Node7&#45;&gt;Node8 -->
<g id="edge14" class="edge"><title>Node7&#45;&gt;Node8</title>
<path fill="none" stroke="midnightblue" d="M811.747,-25.573C821.112,-25.6559 830.168,-25.736 837.856,-25.804"/>
<polygon fill="midnightblue" stroke="midnightblue" points="811.545,-22.0712 801.514,-25.4824 811.483,-29.0709 811.545,-22.0712"/>
</g>
<!-- Node9 -->
<g id="node17" class="node"><title>Node9</title>
<a xlink:href="_m_a_i_n__avec__objets_8cpp.html#ade8d4ba65d55c94f8ee277829d722155" target="_top" xlink:title="main_actions_on_screen">
<polygon fill="white" stroke="black" points="918.5,-15 918.5,-39 1043.5,-39 1043.5,-15 918.5,-15"/>
<text text-anchor="middle" x="981" y="-26" font-family="Helvetica,sans-Serif" font-size="10.00">main_actions_on_screen</text>
</a>
</g>
<!-- Node8&#45;&gt;Node9 -->
<g id="edge16" class="edge"><title>Node8&#45;&gt;Node9</title>
<path fill="none" stroke="midnightblue" d="M892.244,-26.2665C900.32,-26.3332 909.263,-26.4071 918.271,-26.4816"/>
<polygon fill="midnightblue" stroke="midnightblue" points="892.222,-22.7663 882.193,-26.1834 892.164,-29.766 892.222,-22.7663"/>
</g>
<!-- Node9&#45;&gt;Node3 -->
<g id="edge18" class="edge"><title>Node9&#45;&gt;Node3</title>
<path fill="none" stroke="midnightblue" d="M1053.84,-39.3453C1063.34,-40.9552 1072.33,-42.4791 1079.75,-43.7371"/>
<polygon fill="midnightblue" stroke="midnightblue" points="1054.24,-35.8645 1043.8,-37.6441 1053.07,-42.7661 1054.24,-35.8645"/>
</g>
</g>
</svg>
