<?xml version="1.0" encoding="UTF-8" standalone="no"?>
<!DOCTYPE svg PUBLIC "-//W3C//DTD SVG 1.1//EN"
 "http://www.w3.org/Graphics/SVG/1.1/DTD/svg11.dtd">
<!-- Generated by graphviz version 2.26.3 (20100126.1600)
 -->
<!-- Title: constrain_data_to_midi_range Pages: 1 -->
<!--zoomable 456 -->
<svg id="main" version="1.1" xmlns="http://www.w3.org/2000/svg" xmlns:xlink="http://www.w3.org/1999/xlink" xml:space="preserve" onload="init(evt)">
<style type="text/css"><![CDATA[
.edge:hover path { stroke: red; }
.edge:hover polygon { stroke: red; fill: red; }
]]></style>
<script type="text/javascript"><![CDATA[
var edges = document.getElementsByTagName('g');
if (edges && edges.length) {
  for (var i=0;i<edges.length;i++) {
    if (edges[i].id.substr(0,4)=='edge') {
      edges[i].setAttribute('class','edge');
    }
  }
}
]]></script>
        <defs>
                <circle id="rim" cx="0" cy="0" r="7"/>
                <circle id="rim2" cx="0" cy="0" r="3.5"/>
                <g id="zoomPlus">
                        <use xlink:href="#rim" fill="#404040">
                                <set attributeName="fill" to="#808080" begin="zoomplus.mouseover" end="zoomplus.mouseout"/>
                        </use>
                        <path d="M-4,0h8M0,-4v8" fill="none" stroke="white" stroke-width="1.5" pointer-events="none"/>
                </g>
                <g id="zoomMin">
                        <use xlink:href="#rim" fill="#404040">
                                <set attributeName="fill" to="#808080" begin="zoomminus.mouseover" end="zoomminus.mouseout"/>
                        </use>
                        <path d="M-4,0h8" fill="none" stroke="white" stroke-width="1.5" pointer-events="none"/>
                </g>
                <g id="dirArrow">
                        <path fill="none" stroke="white" stroke-width="1.5" d="M0,-3.0v7 M-2.5,-0.5L0,-3.0L2.5,-0.5"/>
                </g>
               <g id="resetDef">
                       <use xlink:href="#rim2" fill="#404040">
                               <set attributeName="fill" to="#808080" begin="reset.mouseover" end="reset.mouseout"/>
                       </use>
               </g>
        </defs>

<script type="text/javascript">
var viewWidth = 2160;
var viewHeight = 456;
var sectionId = 'dynsection-55';
</script>
<script xlink:href="svgpan.js"/>
<svg id="graph" class="graph">
<g id="viewport">
<title>constrain_data_to_midi_range</title>
<polygon fill="white" stroke="white" points="-4,5 -4,-451.741 2157,-451.741 2157,5 -4,5"/>
<!-- Node1 -->
<g id="node1" class="node"><title>Node1</title>
<polygon fill="#bfbfbf" stroke="black" points="0.5,-327 0.5,-367 117.5,-367 117.5,-327 0.5,-327"/>
<text text-anchor="start" x="8.5" y="-354" font-family="Helvetica,sans-Serif" font-size="10.00">constrain_data_to_midi</text>
<text text-anchor="middle" x="59" y="-338" font-family="Helvetica,sans-Serif" font-size="10.00">_range</text>
</g>
<!-- Node2 -->
<g id="node3" class="node"><title>Node2</title>
<a xlink:href="banger__core__8_8cpp.html#ae4008269e0575da11cc90e812961ef6f" target="_top" xlink:title="Bang_event">
<polygon fill="white" stroke="black" points="190,-162 190,-186 258,-186 258,-162 190,-162"/>
<text text-anchor="middle" x="224" y="-173" font-family="Helvetica,sans-Serif" font-size="10.00">Bang_event</text>
</a>
</g>
<!-- Node1&#45;&gt;Node2 -->
<g id="edge2" class="edge"><title>Node1&#45;&gt;Node2</title>
<path fill="none" stroke="midnightblue" d="M85.5912,-319.12C122.06,-280.883 186.054,-213.785 212.283,-186.285"/>
<polygon fill="midnightblue" stroke="midnightblue" points="82.6196,-317.164 78.2505,-326.816 87.6851,-321.995 82.6196,-317.164"/>
</g>
<!-- Node33 -->
<g id="node77" class="node"><title>Node33</title>
<a xlink:href="_draw3_8cpp.html#a2e1cbba7c06eaee357cede79ea4e4e1f" target="_top" xlink:title="do_logical_Draw_Window">
<polygon fill="white" stroke="black" points="159.5,-314 159.5,-338 288.5,-338 288.5,-314 159.5,-314"/>
<text text-anchor="middle" x="224" y="-325" font-family="Helvetica,sans-Serif" font-size="10.00">do_logical_Draw_Window</text>
</a>
</g>
<!-- Node1&#45;&gt;Node33 -->
<g id="edge88" class="edge"><title>Node1&#45;&gt;Node33</title>
<path fill="none" stroke="midnightblue" d="M127.605,-338.268C138.124,-336.93 148.954,-335.551 159.383,-334.224"/>
<polygon fill="midnightblue" stroke="midnightblue" points="127.115,-334.802 117.637,-339.537 127.999,-341.746 127.115,-334.802"/>
</g>
<!-- Node34 -->
<g id="node80" class="node"><title>Node34</title>
<a xlink:href="echo3_8cpp.html#ab232f374279854445118919ce3fff8a8" target="_top" xlink:title="do_logical_Echo_Aera">
<polygon fill="white" stroke="black" points="167.5,-398 167.5,-422 280.5,-422 280.5,-398 167.5,-398"/>
<text text-anchor="middle" x="224" y="-409" font-family="Helvetica,sans-Serif" font-size="10.00">do_logical_Echo_Aera</text>
</a>
</g>
<!-- Node1&#45;&gt;Node34 -->
<g id="edge92" class="edge"><title>Node1&#45;&gt;Node34</title>
<path fill="none" stroke="midnightblue" d="M110.94,-371.362C124.791,-377.472 139.844,-383.77 154,-389 162.569,-392.166 171.855,-395.212 180.777,-397.955"/>
<polygon fill="midnightblue" stroke="midnightblue" points="112.127,-368.059 101.569,-367.177 109.273,-374.45 112.127,-368.059"/>
</g>
<!-- Node35 -->
<g id="node82" class="node"><title>Node35</title>
<a xlink:href="echo3_8cpp.html#a440d7e78e4b39340e539bef8b9d7e2e1" target="_top" xlink:title="do_logical_echo_window">
<polygon fill="white" stroke="black" points="330.5,-418 330.5,-442 455.5,-442 455.5,-418 330.5,-418"/>
<text text-anchor="middle" x="393" y="-429" font-family="Helvetica,sans-Serif" font-size="10.00">do_logical_echo_window</text>
</a>
</g>
<!-- Node1&#45;&gt;Node35 -->
<g id="edge98" class="edge"><title>Node1&#45;&gt;Node35</title>
<path fill="none" stroke="midnightblue" d="M80.8838,-375.025C98.2698,-394.855 124.504,-419.83 154,-431 211.333,-452.712 282.098,-449.029 331.692,-442.032"/>
<polygon fill="midnightblue" stroke="midnightblue" points="83.3562,-372.529 74.2161,-367.171 78.0198,-377.059 83.3562,-372.529"/>
</g>
<!-- Node36 -->
<g id="node86" class="node"><title>Node36</title>
<a xlink:href="mover__2013_8cpp.html#acc2bd882d4deb89b6251c3fedaf0d8b1" target="_top" xlink:title="mover_box">
<polygon fill="white" stroke="black" points="1367.5,-0 1367.5,-24 1432.5,-24 1432.5,-0 1367.5,-0"/>
<text text-anchor="middle" x="1400" y="-11" font-family="Helvetica,sans-Serif" font-size="10.00">mover_box</text>
</a>
</g>
<!-- Node1&#45;&gt;Node36 -->
<g id="edge100" class="edge"><title>Node1&#45;&gt;Node36</title>
<path fill="none" stroke="midnightblue" d="M67.5762,-317.218C80.6167,-276.197 108.803,-201.85 154,-153 237.757,-62.4739 269.67,-12 393,-12 393,-12 393,-12 1138,-12 1220.56,-12 1317.75,-12 1367.32,-12"/>
<polygon fill="midnightblue" stroke="midnightblue" points="64.1949,-316.306 64.586,-326.894 70.8828,-318.373 64.1949,-316.306"/>
</g>
<!-- Node37 -->
<g id="node89" class="node"><title>Node37</title>
<a xlink:href="my__window__file__sample_8cpp.html#a0a7ebcf075147bdf93983968afc97f4a" target="_top" xlink:title="do_logical_my_window_Box">
<polygon fill="white" stroke="black" points="154,-356 154,-380 294,-380 294,-356 154,-356"/>
<text text-anchor="middle" x="224" y="-367" font-family="Helvetica,sans-Serif" font-size="10.00">do_logical_my_window_Box</text>
</a>
</g>
<!-- Node1&#45;&gt;Node37 -->
<g id="edge104" class="edge"><title>Node1&#45;&gt;Node37</title>
<path fill="none" stroke="midnightblue" d="M127.707,-355.745C136.388,-356.849 145.278,-357.981 153.978,-359.088"/>
<polygon fill="midnightblue" stroke="midnightblue" points="127.999,-352.254 117.637,-354.463 127.115,-359.198 127.999,-352.254"/>
</g>
<!-- Node3 -->
<g id="node5" class="node"><title>Node3</title>
<a xlink:href="banger__core__8_8cpp.html#a4003a08a1620546de77b118c91d2fd9d" target="_top" xlink:title="do_bang">
<polygon fill="white" stroke="black" points="366.5,-110 366.5,-134 419.5,-134 419.5,-110 366.5,-110"/>
<text text-anchor="middle" x="393" y="-121" font-family="Helvetica,sans-Serif" font-size="10.00">do_bang</text>
</a>
</g>
<!-- Node2&#45;&gt;Node3 -->
<g id="edge4" class="edge"><title>Node2&#45;&gt;Node3</title>
<path fill="none" stroke="midnightblue" d="M267.953,-160.476C299.132,-150.882 339.965,-138.319 366.341,-130.203"/>
<polygon fill="midnightblue" stroke="midnightblue" points="266.728,-157.191 258.2,-163.477 268.787,-163.881 266.728,-157.191"/>
</g>
<!-- Node6 -->
<g id="node11" class="node"><title>Node6</title>
<a xlink:href="banger__core__8_8cpp.html#a4fe16ad483c0c1609d97aeb9a23c74ee" target="_top" xlink:title="do_logical_fenetre\l_banger">
<polygon fill="white" stroke="black" points="345.5,-244 345.5,-284 440.5,-284 440.5,-244 345.5,-244"/>
<text text-anchor="start" x="353.5" y="-271" font-family="Helvetica,sans-Serif" font-size="10.00">do_logical_fenetre</text>
<text text-anchor="middle" x="393" y="-255" font-family="Helvetica,sans-Serif" font-size="10.00">_banger</text>
</a>
</g>
<!-- Node2&#45;&gt;Node6 -->
<g id="edge10" class="edge"><title>Node2&#45;&gt;Node6</title>
<path fill="none" stroke="midnightblue" d="M255.847,-190.96C284.132,-206.023 325.502,-228.054 355.403,-243.978"/>
<polygon fill="midnightblue" stroke="midnightblue" points="257.264,-187.749 246.792,-186.138 253.973,-193.928 257.264,-187.749"/>
</g>
<!-- Node8 -->
<g id="node16" class="node"><title>Node8</title>
<a xlink:href="banger__core__8_8cpp.html#ab405ab53ea444b049e5ffa258498fcb6" target="_top" xlink:title="refresh_banger_wx">
<polygon fill="white" stroke="black" points="343.5,-162 343.5,-186 442.5,-186 442.5,-162 343.5,-162"/>
<text text-anchor="middle" x="393" y="-173" font-family="Helvetica,sans-Serif" font-size="10.00">refresh_banger_wx</text>
</a>
</g>
<!-- Node2&#45;&gt;Node8 -->
<g id="edge16" class="edge"><title>Node2&#45;&gt;Node8</title>
<path fill="none" stroke="midnightblue" d="M268.395,-174C291.456,-174 319.705,-174 343.472,-174"/>
<polygon fill="midnightblue" stroke="midnightblue" points="268.2,-170.5 258.2,-174 268.2,-177.5 268.2,-170.5"/>
</g>
<!-- Node14 -->
<g id="node31" class="node"><title>Node14</title>
<a xlink:href="midi__13_8cpp.html#a6dff3d42682b58cc0a9875ee30fb4cd4" target="_top" xlink:title="do_midi_job">
<polygon fill="white" stroke="black" points="515,-40 515,-64 583,-64 583,-40 515,-40"/>
<text text-anchor="middle" x="549" y="-51" font-family="Helvetica,sans-Serif" font-size="10.00">do_midi_job</text>
</a>
</g>
<!-- Node2&#45;&gt;Node14 -->
<g id="edge86" class="edge"><title>Node2&#45;&gt;Node14</title>
<path fill="none" stroke="midnightblue" d="M245.433,-155.53C265.86,-138.869 298.142,-114.907 330,-101 391.951,-73.9558 470.522,-61.0623 514.729,-55.5607"/>
<polygon fill="midnightblue" stroke="midnightblue" points="243.154,-152.874 237.698,-161.956 247.627,-158.259 243.154,-152.874"/>
</g>
<!-- Node4 -->
<g id="node7" class="node"><title>Node4</title>
<a xlink:href="_m_a_i_n__avec__objets_8cpp.html#a8e80f54ac804eddce8ed6e45adb1db44" target="_top" xlink:title="ticker_full_loop">
<polygon fill="white" stroke="black" points="814,-196 814,-220 896,-220 896,-196 814,-196"/>
<text text-anchor="middle" x="855" y="-207" font-family="Helvetica,sans-Serif" font-size="10.00">ticker_full_loop</text>
</a>
</g>
<!-- Node3&#45;&gt;Node4 -->
<g id="edge6" class="edge"><title>Node3&#45;&gt;Node4</title>
<path fill="none" stroke="midnightblue" d="M429.938,-116.914C448.517,-114.606 471.408,-112.14 492,-111 620.278,-103.895 661.214,-99.4574 778,-153 802.341,-164.16 826.902,-183.406 841.535,-195.917"/>
<polygon fill="midnightblue" stroke="midnightblue" points="429.3,-113.467 419.825,-118.207 430.188,-120.41 429.3,-113.467"/>
</g>
<!-- Node5 -->
<g id="node9" class="node"><title>Node5</title>
<a xlink:href="_m_a_i_n__avec__objets_8cpp.html#ae66f6b31b5ad750f1fe042a706a4e3d4" target="_top" xlink:title="main">
<polygon fill="white" stroke="black" points="2114,-116 2114,-140 2152,-140 2152,-116 2114,-116"/>
<text text-anchor="middle" x="2133" y="-127" font-family="Helvetica,sans-Serif" font-size="10.00">main</text>
</a>
</g>
<!-- Node4&#45;&gt;Node5 -->
<g id="edge8" class="edge"><title>Node4&#45;&gt;Node5</title>
<path fill="none" stroke="midnightblue" d="M906.387,-208C963.092,-208 1057.06,-208 1138,-208 1138,-208 1138,-208 1894,-208 1978.74,-208 1999.38,-189.617 2078,-158 2090.41,-153.009 2103.59,-145.888 2113.94,-139.837"/>
<polygon fill="midnightblue" stroke="midnightblue" points="906.244,-204.5 896.244,-208 906.244,-211.5 906.244,-204.5"/>
</g>
<!-- Node7 -->
<g id="node13" class="node"><title>Node7</title>
<a xlink:href="procs__visuels__rebuild1_8cpp.html#ae710b6e599e321ad5934a90140067054" target="_top" xlink:title="check_graphics_mouse\l_handling">
<polygon fill="white" stroke="black" points="650.5,-313 650.5,-353 769.5,-353 769.5,-313 650.5,-313"/>
<text text-anchor="start" x="658.5" y="-340" font-family="Helvetica,sans-Serif" font-size="10.00">check_graphics_mouse</text>
<text text-anchor="middle" x="710" y="-324" font-family="Helvetica,sans-Serif" font-size="10.00">_handling</text>
</a>
</g>
<!-- Node6&#45;&gt;Node7 -->
<g id="edge12" class="edge"><title>Node6&#45;&gt;Node7</title>
<path fill="none" stroke="midnightblue" d="M450.41,-283.372C463.954,-287.553 478.409,-291.703 492,-295 545.015,-307.862 606.291,-318.147 650.351,-324.757"/>
<polygon fill="midnightblue" stroke="midnightblue" points="451.323,-279.991 440.734,-280.334 449.226,-286.669 451.323,-279.991"/>
</g>
<!-- Node7&#45;&gt;Node4 -->
<g id="edge14" class="edge"><title>Node7&#45;&gt;Node4</title>
<path fill="none" stroke="midnightblue" d="M741.198,-306.105C772.115,-279.453 818.068,-239.838 840.969,-220.096"/>
<polygon fill="midnightblue" stroke="midnightblue" points="738.586,-303.736 733.297,-312.917 743.156,-309.038 738.586,-303.736"/>
</g>
<!-- Node9 -->
<g id="node18" class="node"><title>Node9</title>
<a xlink:href="i_cat14_8cpp.html#a16285241f82898e7a5f051b03d90b9a3" target="_top" xlink:title="check_button">
<polygon fill="white" stroke="black" points="511.5,-204 511.5,-228 586.5,-228 586.5,-204 511.5,-204"/>
<text text-anchor="middle" x="549" y="-215" font-family="Helvetica,sans-Serif" font-size="10.00">check_button</text>
</a>
</g>
<!-- Node8&#45;&gt;Node9 -->
<g id="edge18" class="edge"><title>Node8&#45;&gt;Node9</title>
<path fill="none" stroke="midnightblue" d="M447.514,-188.677C468.622,-194.36 492.262,-200.724 511.412,-205.88"/>
<polygon fill="midnightblue" stroke="midnightblue" points="448.269,-185.256 437.703,-186.036 446.45,-192.015 448.269,-185.256"/>
</g>
<!-- Node11 -->
<g id="node23" class="node"><title>Node11</title>
<a xlink:href="keyboard__functions2_8cpp.html#af3dd6697323b10b480719c1612bcf29a" target="_top" xlink:title="key_backward">
<polygon fill="white" stroke="black" points="509,-120 509,-144 589,-144 589,-120 509,-120"/>
<text text-anchor="middle" x="549" y="-131" font-family="Helvetica,sans-Serif" font-size="10.00">key_backward</text>
</a>
</g>
<!-- Node8&#45;&gt;Node11 -->
<g id="edge24" class="edge"><title>Node8&#45;&gt;Node11</title>
<path fill="none" stroke="midnightblue" d="M447.402,-159.353C467.595,-153.917 490.118,-147.853 508.816,-142.819"/>
<polygon fill="midnightblue" stroke="midnightblue" points="446.45,-155.985 437.703,-161.964 448.269,-162.744 446.45,-155.985"/>
</g>
<!-- Node13 -->
<g id="node28" class="node"><title>Node13</title>
<a xlink:href="keyboard__functions2_8cpp.html#a6b73a3669797504ce2e357d9a8b9a2c2" target="_top" xlink:title="key_forward">
<polygon fill="white" stroke="black" points="514,-162 514,-186 584,-186 584,-162 514,-162"/>
<text text-anchor="middle" x="549" y="-173" font-family="Helvetica,sans-Serif" font-size="10.00">key_forward</text>
</a>
</g>
<!-- Node8&#45;&gt;Node13 -->
<g id="edge30" class="edge"><title>Node8&#45;&gt;Node13</title>
<path fill="none" stroke="midnightblue" d="M453.052,-174C473.659,-174 496.033,-174 513.988,-174"/>
<polygon fill="midnightblue" stroke="midnightblue" points="452.788,-170.5 442.788,-174 452.788,-177.5 452.788,-170.5"/>
</g>
<!-- Node8&#45;&gt;Node14 -->
<g id="edge34" class="edge"><title>Node8&#45;&gt;Node14</title>
<path fill="none" stroke="midnightblue" d="M431.569,-157.439C439.913,-153.202 448.481,-148.321 456,-143 473.609,-130.537 516.711,-86.0156 537.464,-64.2104"/>
<polygon fill="midnightblue" stroke="midnightblue" points="429.776,-154.418 422.311,-161.937 432.835,-160.714 429.776,-154.418"/>
</g>
<!-- Node32 -->
<g id="node73" class="node"><title>Node32</title>
<a xlink:href="sequentiel__6__core_8cpp.html#a2a71c851cf25565491dd10423bc80380" target="_top" xlink:title="do_logical_Sequenciel\l_Window">
<polygon fill="white" stroke="black" points="492.5,-246 492.5,-286 605.5,-286 605.5,-246 492.5,-246"/>
<text text-anchor="start" x="500.5" y="-273" font-family="Helvetica,sans-Serif" font-size="10.00">do_logical_Sequenciel</text>
<text text-anchor="middle" x="549" y="-257" font-family="Helvetica,sans-Serif" font-size="10.00">_Window</text>
</a>
</g>
<!-- Node8&#45;&gt;Node32 -->
<g id="edge82" class="edge"><title>Node8&#45;&gt;Node32</title>
<path fill="none" stroke="midnightblue" d="M419.374,-191.761C439.078,-204.789 466.837,-222.637 492,-237 497.207,-239.972 502.754,-242.981 508.265,-245.878"/>
<polygon fill="midnightblue" stroke="midnightblue" points="421.191,-188.766 410.925,-186.144 417.315,-194.595 421.191,-188.766"/>
</g>
<!-- Node10 -->
<g id="node20" class="node"><title>Node10</title>
<a xlink:href="i_cat14_8cpp.html#aa9772b548765a631d4bae1c14053b4e1" target="_top" xlink:title="DoJobFantastickTouch">
<polygon fill="white" stroke="black" points="651.5,-204 651.5,-228 768.5,-228 768.5,-204 651.5,-204"/>
<text text-anchor="middle" x="710" y="-215" font-family="Helvetica,sans-Serif" font-size="10.00">DoJobFantastickTouch</text>
</a>
</g>
<!-- Node9&#45;&gt;Node10 -->
<g id="edge20" class="edge"><title>Node9&#45;&gt;Node10</title>
<path fill="none" stroke="midnightblue" d="M597.039,-216C614.111,-216 633.521,-216 651.378,-216"/>
<polygon fill="midnightblue" stroke="midnightblue" points="596.747,-212.5 586.747,-216 596.747,-219.5 596.747,-212.5"/>
</g>
<!-- Node10&#45;&gt;Node4 -->
<g id="edge22" class="edge"><title>Node10&#45;&gt;Node4</title>
<path fill="none" stroke="midnightblue" d="M778.554,-212.218C790.527,-211.557 802.645,-210.889 813.594,-210.284"/>
<polygon fill="midnightblue" stroke="midnightblue" points="778.351,-208.723 768.559,-212.769 778.737,-215.713 778.351,-208.723"/>
</g>
<!-- Node12 -->
<g id="node25" class="node"><title>Node12</title>
<a xlink:href="keyboard__routines2_8cpp.html#a8563320b8eab661232619224650de244" target="_top" xlink:title="commandes_clavier">
<polygon fill="white" stroke="black" points="658,-162 658,-186 762,-186 762,-162 658,-162"/>
<text text-anchor="middle" x="710" y="-173" font-family="Helvetica,sans-Serif" font-size="10.00">commandes_clavier</text>
</a>
</g>
<!-- Node11&#45;&gt;Node12 -->
<g id="edge26" class="edge"><title>Node11&#45;&gt;Node12</title>
<path fill="none" stroke="midnightblue" d="M599.07,-145.062C619.725,-150.45 643.514,-156.656 663.752,-161.935"/>
<polygon fill="midnightblue" stroke="midnightblue" points="599.771,-141.628 589.212,-142.49 598.004,-148.401 599.771,-141.628"/>
</g>
<!-- Node12&#45;&gt;Node4 -->
<g id="edge28" class="edge"><title>Node12&#45;&gt;Node4</title>
<path fill="none" stroke="midnightblue" d="M771.297,-188.373C785.582,-191.723 800.462,-195.212 813.646,-198.303"/>
<polygon fill="midnightblue" stroke="midnightblue" points="772.065,-184.958 761.53,-186.083 770.467,-191.773 772.065,-184.958"/>
</g>
<!-- Node13&#45;&gt;Node12 -->
<g id="edge32" class="edge"><title>Node13&#45;&gt;Node12</title>
<path fill="none" stroke="midnightblue" d="M594.598,-174C614.329,-174 637.53,-174 657.934,-174"/>
<polygon fill="midnightblue" stroke="midnightblue" points="594.332,-170.5 584.332,-174 594.332,-177.5 594.332,-170.5"/>
</g>
<!-- Node15 -->
<g id="node33" class="node"><title>Node15</title>
<a xlink:href="midi__13_8cpp.html#a6bedf9750195224914cd87c4e73ab626" target="_top" xlink:title="ventilate_midi_to_midiarray">
<polygon fill="white" stroke="black" points="642.5,-40 642.5,-64 777.5,-64 777.5,-40 642.5,-40"/>
<text text-anchor="middle" x="710" y="-51" font-family="Helvetica,sans-Serif" font-size="10.00">ventilate_midi_to_midiarray</text>
</a>
</g>
<!-- Node14&#45;&gt;Node15 -->
<g id="edge36" class="edge"><title>Node14&#45;&gt;Node15</title>
<path fill="none" stroke="midnightblue" d="M593.272,-52C608.455,-52 625.811,-52 642.414,-52"/>
<polygon fill="midnightblue" stroke="midnightblue" points="593.144,-48.5001 583.144,-52 593.144,-55.5001 593.144,-48.5001"/>
</g>
<!-- Node16 -->
<g id="node35" class="node"><title>Node16</title>
<a xlink:href="midi__13_8cpp.html#afa49dd5668303c2448676c8243737c2d" target="_top" xlink:title="simulate_midi">
<polygon fill="white" stroke="black" points="816.5,-90 816.5,-114 893.5,-114 893.5,-90 816.5,-90"/>
<text text-anchor="middle" x="855" y="-101" font-family="Helvetica,sans-Serif" font-size="10.00">simulate_midi</text>
</a>
</g>
<!-- Node15&#45;&gt;Node16 -->
<g id="edge38" class="edge"><title>Node15&#45;&gt;Node16</title>
<path fill="none" stroke="midnightblue" d="M754.76,-67.4346C775.743,-74.67 800.376,-83.164 819.972,-89.9213"/>
<polygon fill="midnightblue" stroke="midnightblue" points="755.695,-64.0548 745.1,-64.1036 753.413,-70.6724 755.695,-64.0548"/>
</g>
<!-- Node20 -->
<g id="node45" class="node"><title>Node20</title>
<a xlink:href="midi__13_8cpp.html#a4104c2ae7e71376ad9dc78929450dc51" target="_top" xlink:title="EvAquire">
<polygon fill="white" stroke="black" points="827,-40 827,-64 883,-64 883,-40 827,-40"/>
<text text-anchor="middle" x="855" y="-51" font-family="Helvetica,sans-Serif" font-size="10.00">EvAquire</text>
</a>
</g>
<!-- Node15&#45;&gt;Node20 -->
<g id="edge50" class="edge"><title>Node15&#45;&gt;Node20</title>
<path fill="none" stroke="midnightblue" d="M787.947,-52C801.817,-52 815.419,-52 826.708,-52"/>
<polygon fill="midnightblue" stroke="midnightblue" points="787.83,-48.5001 777.83,-52 787.83,-55.5001 787.83,-48.5001"/>
</g>
<!-- Node17 -->
<g id="node37" class="node"><title>Node17</title>
<a xlink:href="arduino__core__6___u_n_o_8cpp.html#ae72d1a8d74d9ab5515962e03e7e664d6" target="_top" xlink:title="arduino_do_analog_in\l_whitecat">
<polygon fill="white" stroke="black" points="932,-140 932,-180 1042,-180 1042,-140 932,-140"/>
<text text-anchor="start" x="940" y="-167" font-family="Helvetica,sans-Serif" font-size="10.00">arduino_do_analog_in</text>
<text text-anchor="middle" x="987" y="-151" font-family="Helvetica,sans-Serif" font-size="10.00">_whitecat</text>
</a>
</g>
<!-- Node16&#45;&gt;Node17 -->
<g id="edge40" class="edge"><title>Node16&#45;&gt;Node17</title>
<path fill="none" stroke="midnightblue" d="M891.539,-118.055C906.918,-124.812 924.982,-132.75 941.234,-139.891"/>
<polygon fill="midnightblue" stroke="midnightblue" points="892.914,-114.836 882.35,-114.018 890.098,-121.245 892.914,-114.836"/>
</g>
<!-- Node19 -->
<g id="node42" class="node"><title>Node19</title>
<a xlink:href="arduino__core__6___u_n_o_8cpp.html#a219226c1cd6cc17c78e62fd4445bb445" target="_top" xlink:title="arduino_do_digital\l_in_whitecat">
<polygon fill="white" stroke="black" points="939.5,-82 939.5,-122 1034.5,-122 1034.5,-82 939.5,-82"/>
<text text-anchor="start" x="947.5" y="-109" font-family="Helvetica,sans-Serif" font-size="10.00">arduino_do_digital</text>
<text text-anchor="middle" x="987" y="-93" font-family="Helvetica,sans-Serif" font-size="10.00">_in_whitecat</text>
</a>
</g>
<!-- Node16&#45;&gt;Node19 -->
<g id="edge46" class="edge"><title>Node16&#45;&gt;Node19</title>
<path fill="none" stroke="midnightblue" d="M903.541,-102C915.203,-102 927.648,-102 939.272,-102"/>
<polygon fill="midnightblue" stroke="midnightblue" points="903.535,-98.5001 893.535,-102 903.535,-105.5 903.535,-98.5001"/>
</g>
<!-- Node18 -->
<g id="node39" class="node"><title>Node18</title>
<a xlink:href="_m_a_i_n__avec__objets_8cpp.html#ace9c8a9b37c6087c3cffef442d71d70e" target="_top" xlink:title="dixiemes_de_secondes">
<polygon fill="white" stroke="black" points="1078.5,-140 1078.5,-164 1197.5,-164 1197.5,-140 1078.5,-140"/>
<text text-anchor="middle" x="1138" y="-151" font-family="Helvetica,sans-Serif" font-size="10.00">dixiemes_de_secondes</text>
</a>
</g>
<!-- Node17&#45;&gt;Node18 -->
<g id="edge42" class="edge"><title>Node17&#45;&gt;Node18</title>
<path fill="none" stroke="midnightblue" d="M1052.38,-156.536C1061,-156.08 1069.8,-155.613 1078.32,-155.162"/>
<polygon fill="midnightblue" stroke="midnightblue" points="1052.17,-153.042 1042.37,-157.067 1052.54,-160.032 1052.17,-153.042"/>
</g>
<!-- Node18&#45;&gt;Node5 -->
<g id="edge44" class="edge"><title>Node18&#45;&gt;Node5</title>
<path fill="none" stroke="midnightblue" d="M1207.83,-152C1260.62,-152 1334.86,-152 1400,-152 1400,-152 1400,-152 1894,-152 1976.15,-152 2073.4,-137.788 2113.86,-131.237"/>
<polygon fill="midnightblue" stroke="midnightblue" points="1207.57,-148.5 1197.57,-152 1207.57,-155.5 1207.57,-148.5"/>
</g>
<!-- Node19&#45;&gt;Node18 -->
<g id="edge48" class="edge"><title>Node19&#45;&gt;Node18</title>
<path fill="none" stroke="midnightblue" d="M1044.34,-120.986C1063.53,-127.342 1084.39,-134.249 1101.54,-139.928"/>
<polygon fill="midnightblue" stroke="midnightblue" points="1045.37,-117.641 1034.78,-117.82 1043.17,-124.286 1045.37,-117.641"/>
</g>
<!-- Node21 -->
<g id="node47" class="node"><title>Node21</title>
<a xlink:href="midi__13_8cpp.html#a831f1dfc7870ae4f6c64a0e65fbaf3ff" target="_top" xlink:title="Display">
<polygon fill="white" stroke="black" points="962,-40 962,-64 1012,-64 1012,-40 962,-40"/>
<text text-anchor="middle" x="987" y="-51" font-family="Helvetica,sans-Serif" font-size="10.00">Display</text>
</a>
</g>
<!-- Node20&#45;&gt;Node21 -->
<g id="edge52" class="edge"><title>Node20&#45;&gt;Node21</title>
<path fill="none" stroke="midnightblue" d="M893.366,-52C915.419,-52 942.496,-52 961.849,-52"/>
<polygon fill="midnightblue" stroke="midnightblue" points="893.317,-48.5001 883.317,-52 893.317,-55.5001 893.317,-48.5001"/>
</g>
<!-- Node22 -->
<g id="node49" class="node"><title>Node22</title>
<a xlink:href="midi__13_8cpp.html#aa4aeee5088a4a5462566dfee5c9cc71f" target="_top" xlink:title="DisplayTask">
<polygon fill="white" stroke="black" points="1102.5,-82 1102.5,-106 1173.5,-106 1173.5,-82 1102.5,-82"/>
<text text-anchor="middle" x="1138" y="-93" font-family="Helvetica,sans-Serif" font-size="10.00">DisplayTask</text>
</a>
</g>
<!-- Node21&#45;&gt;Node22 -->
<g id="edge54" class="edge"><title>Node21&#45;&gt;Node22</title>
<path fill="none" stroke="midnightblue" d="M1022.1,-61.7627C1046.25,-68.4795 1078.21,-77.3702 1102.46,-84.1135"/>
<polygon fill="midnightblue" stroke="midnightblue" points="1022.85,-58.3377 1012.27,-59.0299 1020.97,-65.0817 1022.85,-58.3377"/>
</g>
<!-- Node24 -->
<g id="node54" class="node"><title>Node24</title>
<a xlink:href="midi___c_o_r_e_8cpp.html#a6fcb4c2efe85f50488d7aeeef1fc0a3e" target="_top" xlink:title="ReceiveEvents">
<polygon fill="white" stroke="black" points="1096.5,-40 1096.5,-64 1179.5,-64 1179.5,-40 1096.5,-40"/>
<text text-anchor="middle" x="1138" y="-51" font-family="Helvetica,sans-Serif" font-size="10.00">ReceiveEvents</text>
</a>
</g>
<!-- Node21&#45;&gt;Node24 -->
<g id="edge60" class="edge"><title>Node21&#45;&gt;Node24</title>
<path fill="none" stroke="midnightblue" d="M1022.56,-52C1044.68,-52 1073.21,-52 1096.37,-52"/>
<polygon fill="midnightblue" stroke="midnightblue" points="1022.27,-48.5001 1012.27,-52 1022.27,-55.5001 1022.27,-48.5001"/>
</g>
<!-- Node23 -->
<g id="node51" class="node"><title>Node23</title>
<a xlink:href="midi___c_o_r_e_8cpp.html#a7d0f82d882071792d6a2df51ef13ec55" target="_top" xlink:title="ReceivePolling">
<polygon fill="white" stroke="black" points="1234,-82 1234,-106 1316,-106 1316,-82 1234,-82"/>
<text text-anchor="middle" x="1275" y="-93" font-family="Helvetica,sans-Serif" font-size="10.00">ReceivePolling</text>
</a>
</g>
<!-- Node22&#45;&gt;Node23 -->
<g id="edge56" class="edge"><title>Node22&#45;&gt;Node23</title>
<path fill="none" stroke="midnightblue" d="M1183.91,-94C1200.02,-94 1218.01,-94 1233.72,-94"/>
<polygon fill="midnightblue" stroke="midnightblue" points="1183.64,-90.5001 1173.64,-94 1183.64,-97.5001 1183.64,-90.5001"/>
</g>
<!-- Node23&#45;&gt;Node23 -->
<g id="edge58" class="edge"><title>Node23&#45;&gt;Node23</title>
<path fill="none" stroke="midnightblue" d="M1252.51,-116.001C1254.81,-120.647 1262.31,-124 1275,-124 1295.83,-124 1302.66,-114.972 1295.5,-106.014"/>
<polygon fill="midnightblue" stroke="midnightblue" points="1255.98,-116.504 1254.5,-106.014 1249.12,-115.14 1255.98,-116.504"/>
</g>
<!-- Node24&#45;&gt;Node23 -->
<g id="edge62" class="edge"><title>Node24&#45;&gt;Node23</title>
<path fill="none" stroke="midnightblue" d="M1186.99,-67.0181C1202.99,-71.9241 1220.54,-77.3054 1235.74,-81.9627"/>
<polygon fill="midnightblue" stroke="midnightblue" points="1187.85,-63.6204 1177.26,-64.0355 1185.79,-70.3129 1187.85,-63.6204"/>
</g>
<!-- Node25 -->
<g id="node57" class="node"><title>Node25</title>
<a xlink:href="midi___c_o_r_e_8cpp.html#a0ccf480a33424e626f88d109d53d8366" target="_top" xlink:title="InitMidi">
<polygon fill="white" stroke="black" points="1251,-40 1251,-64 1299,-64 1299,-40 1251,-40"/>
<text text-anchor="middle" x="1275" y="-51" font-family="Helvetica,sans-Serif" font-size="10.00">InitMidi</text>
</a>
</g>
<!-- Node24&#45;&gt;Node25 -->
<g id="edge64" class="edge"><title>Node24&#45;&gt;Node25</title>
<path fill="none" stroke="midnightblue" d="M1189.93,-52C1210.89,-52 1234.06,-52 1250.92,-52"/>
<polygon fill="midnightblue" stroke="midnightblue" points="1189.85,-48.5001 1179.85,-52 1189.85,-55.5001 1189.85,-48.5001"/>
</g>
<!-- Node25&#45;&gt;Node5 -->
<g id="edge66" class="edge"><title>Node25&#45;&gt;Node5</title>
<path fill="none" stroke="midnightblue" d="M1308.93,-63.6756C1356.58,-79.0075 1446.32,-104 1525,-104 1525,-104 1525,-104 1894,-104 1976.15,-104 2073.4,-118.212 2113.86,-124.763"/>
<polygon fill="midnightblue" stroke="midnightblue" points="1309.73,-60.2562 1299.14,-60.4704 1307.55,-66.9086 1309.73,-60.2562"/>
</g>
<!-- Node26 -->
<g id="node60" class="node"><title>Node26</title>
<a xlink:href="midi__13_8cpp.html#ac7a306aa81e374b447e7341d4d3a3eea" target="_top" xlink:title="midipage_devices">
<polygon fill="white" stroke="black" points="1352.5,-42 1352.5,-66 1447.5,-66 1447.5,-42 1352.5,-42"/>
<text text-anchor="middle" x="1400" y="-53" font-family="Helvetica,sans-Serif" font-size="10.00">midipage_devices</text>
</a>
</g>
<!-- Node25&#45;&gt;Node26 -->
<g id="edge68" class="edge"><title>Node25&#45;&gt;Node26</title>
<path fill="none" stroke="midnightblue" d="M1309.25,-52.5481C1322.57,-52.7611 1338.05,-53.0089 1352.42,-53.2387"/>
<polygon fill="midnightblue" stroke="midnightblue" points="1309.16,-49.0461 1299.1,-52.3856 1309.04,-56.0452 1309.16,-49.0461"/>
</g>
<!-- Node27 -->
<g id="node62" class="node"><title>Node27</title>
<a xlink:href="midi__13_8cpp.html#a8f70acacad6eaba8867bdd80dda5e277" target="_top" xlink:title="do_midi_config">
<polygon fill="white" stroke="black" points="1484,-42 1484,-66 1566,-66 1566,-42 1484,-42"/>
<text text-anchor="middle" x="1525" y="-53" font-family="Helvetica,sans-Serif" font-size="10.00">do_midi_config</text>
</a>
</g>
<!-- Node26&#45;&gt;Node27 -->
<g id="edge70" class="edge"><title>Node26&#45;&gt;Node27</title>
<path fill="none" stroke="midnightblue" d="M1457.77,-54C1466.5,-54 1475.35,-54 1483.65,-54"/>
<polygon fill="midnightblue" stroke="midnightblue" points="1457.61,-50.5001 1447.61,-54 1457.61,-57.5001 1457.61,-50.5001"/>
</g>
<!-- Node28 -->
<g id="node64" class="node"><title>Node28</title>
<a xlink:href="_c_f_g__config__panel__8_8cpp.html#ad39c46e2fb3a3ba7ea0460140ead4f96" target="_top" xlink:title="do_panel_config">
<polygon fill="white" stroke="black" points="1602.5,-42 1602.5,-66 1689.5,-66 1689.5,-42 1602.5,-42"/>
<text text-anchor="middle" x="1646" y="-53" font-family="Helvetica,sans-Serif" font-size="10.00">do_panel_config</text>
</a>
</g>
<!-- Node27&#45;&gt;Node28 -->
<g id="edge72" class="edge"><title>Node27&#45;&gt;Node28</title>
<path fill="none" stroke="midnightblue" d="M1576.33,-54C1585.01,-54 1593.95,-54 1602.41,-54"/>
<polygon fill="midnightblue" stroke="midnightblue" points="1576.3,-50.5001 1566.3,-54 1576.3,-57.5001 1576.3,-50.5001"/>
</g>
<!-- Node29 -->
<g id="node66" class="node"><title>Node29</title>
<a xlink:href="_c_f_g__config__panel__8_8cpp.html#a7968da66bccdba8b864caf6c8435f68e" target="_top" xlink:title="config_general_menu">
<polygon fill="white" stroke="black" points="1726.5,-42 1726.5,-66 1835.5,-66 1835.5,-42 1726.5,-42"/>
<text text-anchor="middle" x="1781" y="-53" font-family="Helvetica,sans-Serif" font-size="10.00">config_general_menu</text>
</a>
</g>
<!-- Node28&#45;&gt;Node29 -->
<g id="edge74" class="edge"><title>Node28&#45;&gt;Node29</title>
<path fill="none" stroke="midnightblue" d="M1700.07,-54C1708.62,-54 1717.47,-54 1726.04,-54"/>
<polygon fill="midnightblue" stroke="midnightblue" points="1699.83,-50.5001 1689.83,-54 1699.83,-57.5001 1699.83,-50.5001"/>
</g>
<!-- Node30 -->
<g id="node68" class="node"><title>Node30</title>
<a xlink:href="graphics__rebuild1_8cpp.html#ac2eae1e03fb72cc734ffbcef566483bf" target="_top" xlink:title="Boxes">
<polygon fill="white" stroke="black" points="1872,-42 1872,-66 1916,-66 1916,-42 1872,-42"/>
<text text-anchor="middle" x="1894" y="-53" font-family="Helvetica,sans-Serif" font-size="10.00">Boxes</text>
</a>
</g>
<!-- Node29&#45;&gt;Node30 -->
<g id="edge76" class="edge"><title>Node29&#45;&gt;Node30</title>
<path fill="none" stroke="midnightblue" d="M1845.75,-54C1855.11,-54 1864.17,-54 1871.86,-54"/>
<polygon fill="midnightblue" stroke="midnightblue" points="1845.51,-50.5001 1835.51,-54 1845.51,-57.5001 1845.51,-50.5001"/>
</g>
<!-- Node31 -->
<g id="node70" class="node"><title>Node31</title>
<a xlink:href="_m_a_i_n__avec__objets_8cpp.html#ade8d4ba65d55c94f8ee277829d722155" target="_top" xlink:title="main_actions_on_screen">
<polygon fill="white" stroke="black" points="1952.5,-47 1952.5,-71 2077.5,-71 2077.5,-47 1952.5,-47"/>
<text text-anchor="middle" x="2015" y="-58" font-family="Helvetica,sans-Serif" font-size="10.00">main_actions_on_screen</text>
</a>
</g>
<!-- Node30&#45;&gt;Node31 -->
<g id="edge78" class="edge"><title>Node30&#45;&gt;Node31</title>
<path fill="none" stroke="midnightblue" d="M1926.24,-55.3324C1934.32,-55.6661 1943.26,-56.0356 1952.27,-56.4079"/>
<polygon fill="midnightblue" stroke="midnightblue" points="1926.33,-51.833 1916.19,-54.9171 1926.04,-58.8271 1926.33,-51.833"/>
</g>
<!-- Node31&#45;&gt;Node5 -->
<g id="edge80" class="edge"><title>Node31&#45;&gt;Node5</title>
<path fill="none" stroke="midnightblue" d="M2050.92,-75.5399C2059.9,-79.9831 2069.42,-84.9609 2078,-90 2091.41,-97.8747 2105.85,-107.917 2116.57,-115.7"/>
<polygon fill="midnightblue" stroke="midnightblue" points="2052.34,-72.3391 2041.82,-71.123 2049.29,-78.637 2052.34,-72.3391"/>
</g>
<!-- Node32&#45;&gt;Node7 -->
<g id="edge84" class="edge"><title>Node32&#45;&gt;Node7</title>
<path fill="none" stroke="midnightblue" d="M606.576,-289.96C624.638,-297.477 644.379,-305.692 661.729,-312.912"/>
<polygon fill="midnightblue" stroke="midnightblue" points="607.883,-286.713 597.305,-286.102 605.193,-293.176 607.883,-286.713"/>
</g>
<!-- Node33&#45;&gt;Node7 -->
<g id="edge90" class="edge"><title>Node33&#45;&gt;Node7</title>
<path fill="none" stroke="midnightblue" d="M298.809,-327.077C395.379,-328.468 561.51,-330.861 650.162,-332.138"/>
<polygon fill="midnightblue" stroke="midnightblue" points="298.586,-323.574 288.537,-326.93 298.486,-330.573 298.586,-323.574"/>
</g>
<!-- Node34&#45;&gt;Node35 -->
<g id="edge94" class="edge"><title>Node34&#45;&gt;Node35</title>
<path fill="none" stroke="midnightblue" d="M290.99,-417.928C303.95,-419.462 317.485,-421.063 330.301,-422.58"/>
<polygon fill="midnightblue" stroke="midnightblue" points="291.087,-414.415 280.745,-416.715 290.264,-421.366 291.087,-414.415"/>
</g>
<!-- Node35&#45;&gt;Node7 -->
<g id="edge96" class="edge"><title>Node35&#45;&gt;Node7</title>
<path fill="none" stroke="midnightblue" d="M466.081,-429.604C508.168,-427.304 561.393,-420.802 606,-404 636.893,-392.363 667.525,-369.752 687.456,-353.162"/>
<polygon fill="midnightblue" stroke="midnightblue" points="465.73,-426.117 455.909,-430.091 466.065,-433.109 465.73,-426.117"/>
</g>
<!-- Node36&#45;&gt;Node30 -->
<g id="edge102" class="edge"><title>Node36&#45;&gt;Node30</title>
<path fill="none" stroke="midnightblue" d="M1442.69,-9.87056C1521.36,-6.86735 1694.13,-4.57284 1836,-33 1848.18,-35.4407 1861.23,-39.9813 1871.86,-44.2176"/>
<polygon fill="midnightblue" stroke="midnightblue" points="1442.53,-6.3743 1432.68,-10.2766 1442.81,-13.3686 1442.53,-6.3743"/>
</g>
<!-- Node37&#45;&gt;Node7 -->
<g id="edge106" class="edge"><title>Node37&#45;&gt;Node7</title>
<path fill="none" stroke="midnightblue" d="M304.275,-363.954C381.625,-359.819 501.914,-352.77 606,-344 620.383,-342.788 635.863,-341.268 650.371,-339.748"/>
<polygon fill="midnightblue" stroke="midnightblue" points="303.922,-360.467 294.121,-364.493 304.293,-367.457 303.922,-360.467"/>
</g>
</g>
</svg>
        <g id="navigator" transform="translate(0 0)" fill="#404254">
                <rect fill="#f2f5e9" fill-opacity="0.5" stroke="#606060" stroke-width=".5" x="0" y="0" width="60" height="60"/>
                <use id="zoomplus" xlink:href="#zoomPlus" x="17" y="9" onmousedown="handleZoom(evt,'in')"/>
                <use id="zoomminus" xlink:href="#zoomMin" x="42" y="9" onmousedown="handleZoom(evt,'out')"/>
                <use id="reset" xlink:href="#resetDef" x="30" y="36" onmousedown="handleReset()"/>
                <g id="arrowUp" xlink:href="#dirArrow" transform="translate(30 24)" onmousedown="handlePan(0,-1)">
                  <use xlink:href="#rim" fill="#404040">
                        <set attributeName="fill" to="#808080" begin="arrowUp.mouseover" end="arrowUp.mouseout"/>
                  </use>
                  <path fill="none" stroke="white" stroke-width="1.5" d="M0,-3.0v7 M-2.5,-0.5L0,-3.0L2.5,-0.5"/>
                </g>
                <g id="arrowRight" xlink:href="#dirArrow" transform="rotate(90) translate(36 -43)" onmousedown="handlePan(1,0)">
                  <use xlink:href="#rim" fill="#404040">
                        <set attributeName="fill" to="#808080" begin="arrowRight.mouseover" end="arrowRight.mouseout"/>
                  </use>
                  <path fill="none" stroke="white" stroke-width="1.5" d="M0,-3.0v7 M-2.5,-0.5L0,-3.0L2.5,-0.5"/>
                </g>
                <g id="arrowDown" xlink:href="#dirArrow" transform="rotate(180) translate(-30 -48)" onmousedown="handlePan(0,1)">
                  <use xlink:href="#rim" fill="#404040">
                        <set attributeName="fill" to="#808080" begin="arrowDown.mouseover" end="arrowDown.mouseout"/>
                  </use>
                  <path fill="none" stroke="white" stroke-width="1.5" d="M0,-3.0v7 M-2.5,-0.5L0,-3.0L2.5,-0.5"/>
                </g>
                <g id="arrowLeft" xlink:href="#dirArrow" transform="rotate(270) translate(-36 17)" onmousedown="handlePan(-1,0)">
                  <use xlink:href="#rim" fill="#404040">
                        <set attributeName="fill" to="#808080" begin="arrowLeft.mouseover" end="arrowLeft.mouseout"/>
                  </use>
                  <path fill="none" stroke="white" stroke-width="1.5" d="M0,-3.0v7 M-2.5,-0.5L0,-3.0L2.5,-0.5"/>
                </g>
        </g>
        <svg viewBox="0 0 15 15" width="100%" height="30px" preserveAspectRatio="xMaxYMin meet">
         <g id="arrow_out" transform="scale(0.3 0.3)">
          <a xlink:href="_c_o_r_e__6_8cpp_ab5d29b9ad8d00204a0d8d4ed77e7caec_icgraph_org.svg" target="_base">
           <rect id="button" ry="5" rx="5" y="6" x="6" height="38" width="38"
                fill="#f2f5e9" fill-opacity="0.5" stroke="#606060" stroke-width="1.0"/>
           <path id="arrow"
             d="M 11.500037,31.436501 C 11.940474,20.09759 22.043105,11.32322 32.158766,21.979434 L 37.068811,17.246167 C 37.068811,17.246167 37.088388,32 37.088388,32 L 22.160133,31.978069 C 22.160133,31.978069 26.997745,27.140456 26.997745,27.140456 C 18.528582,18.264221 13.291696,25.230495 11.500037,31.436501 z"
             style="fill:#404040;"/>
          </a>
         </g>
        </svg>
</svg>
