<?xml version="1.0" encoding="UTF-8" standalone="no"?>
<!DOCTYPE svg PUBLIC "-//W3C//DTD SVG 1.1//EN"
 "http://www.w3.org/Graphics/SVG/1.1/DTD/svg11.dtd">
<!-- Generated by graphviz version 2.26.3 (20100126.1600)
 -->
<!-- Title: patch_clear_selected Pages: 1 -->
<!--zoomable 152 -->
<svg id="main" version="1.1" xmlns="http://www.w3.org/2000/svg" xmlns:xlink="http://www.w3.org/1999/xlink" xml:space="preserve" onload="init(evt)">
<style type="text/css"><![CDATA[
.edge:hover path { stroke: red; }
.edge:hover polygon { stroke: red; fill: red; }
]]></style>
<script type="text/javascript"><![CDATA[
var edges = document.getElementsByTagName('g');
if (edges && edges.length) {
  for (var i=0;i<edges.length;i++) {
    if (edges[i].id.substr(0,4)=='edge') {
      edges[i].setAttribute('class','edge');
    }
  }
}
]]></script>
        <defs>
                <circle id="rim" cx="0" cy="0" r="7"/>
                <circle id="rim2" cx="0" cy="0" r="3.5"/>
                <g id="zoomPlus">
                        <use xlink:href="#rim" fill="#404040">
                                <set attributeName="fill" to="#808080" begin="zoomplus.mouseover" end="zoomplus.mouseout"/>
                        </use>
                        <path d="M-4,0h8M0,-4v8" fill="none" stroke="white" stroke-width="1.5" pointer-events="none"/>
                </g>
                <g id="zoomMin">
                        <use xlink:href="#rim" fill="#404040">
                                <set attributeName="fill" to="#808080" begin="zoomminus.mouseover" end="zoomminus.mouseout"/>
                        </use>
                        <path d="M-4,0h8" fill="none" stroke="white" stroke-width="1.5" pointer-events="none"/>
                </g>
                <g id="dirArrow">
                        <path fill="none" stroke="white" stroke-width="1.5" d="M0,-3.0v7 M-2.5,-0.5L0,-3.0L2.5,-0.5"/>
                </g>
               <g id="resetDef">
                       <use xlink:href="#rim2" fill="#404040">
                               <set attributeName="fill" to="#808080" begin="reset.mouseover" end="reset.mouseout"/>
                       </use>
               </g>
        </defs>

<script type="text/javascript">
var viewWidth = 898;
var viewHeight = 152;
var sectionId = 'dynsection-120';
</script>
<script xlink:href="svgpan.js"/>
<svg id="graph" class="graph">
<g id="viewport">
<title>patch_clear_selected</title>
<polygon fill="white" stroke="white" points="-4,5 -4,-148 895,-148 895,5 -4,5"/>
<!-- Node1 -->
<g id="node1" class="node"><title>Node1</title>
<polygon fill="#bfbfbf" stroke="black" points="0.5,-62 0.5,-86 109.5,-86 109.5,-62 0.5,-62"/>
<text text-anchor="middle" x="55" y="-73" font-family="Helvetica,sans-Serif" font-size="10.00">patch_clear_selected</text>
</g>
<!-- Node2 -->
<g id="node3" class="node"><title>Node2</title>
<a xlink:href="keyboard__functions2_8cpp.html#ae994c15c56c4ee2e4560320fab4d2201" target="_top" xlink:title="key_at_zero">
<polygon fill="white" stroke="black" points="299,-120 299,-144 369,-144 369,-120 299,-120"/>
<text text-anchor="middle" x="334" y="-131" font-family="Helvetica,sans-Serif" font-size="10.00">key_at_zero</text>
</a>
</g>
<!-- Node1&#45;&gt;Node2 -->
<g id="edge2" class="edge"><title>Node1&#45;&gt;Node2</title>
<path fill="none" stroke="midnightblue" d="M119.924,-87.4968C175.681,-99.0877 253.949,-115.359 298.769,-124.676"/>
<polygon fill="midnightblue" stroke="midnightblue" points="120.292,-83.9984 109.789,-85.3897 118.867,-90.8519 120.292,-83.9984"/>
</g>
<!-- Node6 -->
<g id="node11" class="node"><title>Node6</title>
<a xlink:href="logicals__intres_8cpp.html#a74cf9c04c734ab342f88799efbfc4210" target="_top" xlink:title="operations_confirmation">
<polygon fill="white" stroke="black" points="274,-42 274,-66 394,-66 394,-42 274,-42"/>
<text text-anchor="middle" x="334" y="-53" font-family="Helvetica,sans-Serif" font-size="10.00">operations_confirmation</text>
</a>
</g>
<!-- Node1&#45;&gt;Node6 -->
<g id="edge10" class="edge"><title>Node1&#45;&gt;Node6</title>
<path fill="none" stroke="midnightblue" d="M119.733,-77.907C154.828,-79.132 198.901,-79.2265 238,-75 254.623,-73.2031 272.587,-69.7045 288.43,-66.0704"/>
<polygon fill="midnightblue" stroke="midnightblue" points="119.744,-74.4049 109.616,-77.5142 119.472,-81.3996 119.744,-74.4049"/>
</g>
<!-- Node11 -->
<g id="node23" class="node"><title>Node11</title>
<a xlink:href="saves__export__import_8cpp.html#a905bc7e6b97081073c37e69402672358" target="_top" xlink:title="do_ASCII_import">
<polygon fill="white" stroke="black" points="146,-42 146,-66 238,-66 238,-42 146,-42"/>
<text text-anchor="middle" x="192" y="-53" font-family="Helvetica,sans-Serif" font-size="10.00">do_ASCII_import</text>
</a>
</g>
<!-- Node1&#45;&gt;Node11 -->
<g id="edge24" class="edge"><title>Node1&#45;&gt;Node11</title>
<path fill="none" stroke="midnightblue" d="M119.719,-64.5519C128.452,-63.2771 137.267,-61.9902 145.594,-60.7746"/>
<polygon fill="midnightblue" stroke="midnightblue" points="118.929,-61.1301 109.54,-66.038 119.94,-68.0567 118.929,-61.1301"/>
</g>
<!-- Node12 -->
<g id="node26" class="node"><title>Node12</title>
<a xlink:href="saves__export__import_8cpp.html#aa1d9d650676ab451f00cf24b2b7ac0a1" target="_top" xlink:title="do_Alq_import">
<polygon fill="white" stroke="black" points="152.5,-0 152.5,-24 231.5,-24 231.5,-0 152.5,-0"/>
<text text-anchor="middle" x="192" y="-11" font-family="Helvetica,sans-Serif" font-size="10.00">do_Alq_import</text>
</a>
</g>
<!-- Node1&#45;&gt;Node12 -->
<g id="edge28" class="edge"><title>Node1&#45;&gt;Node12</title>
<path fill="none" stroke="midnightblue" d="M90.9621,-57.7252C114.272,-47.1763 144.129,-33.6642 165.327,-24.0709"/>
<polygon fill="midnightblue" stroke="midnightblue" points="89.4076,-54.5869 81.7402,-61.8986 92.2938,-60.9642 89.4076,-54.5869"/>
</g>
<!-- Node3 -->
<g id="node5" class="node"><title>Node3</title>
<a xlink:href="keyboard__routines2_8cpp.html#a8563320b8eab661232619224650de244" target="_top" xlink:title="commandes_clavier">
<polygon fill="white" stroke="black" points="550,-80 550,-104 654,-104 654,-80 550,-80"/>
<text text-anchor="middle" x="602" y="-91" font-family="Helvetica,sans-Serif" font-size="10.00">commandes_clavier</text>
</a>
</g>
<!-- Node2&#45;&gt;Node3 -->
<g id="edge4" class="edge"><title>Node2&#45;&gt;Node3</title>
<path fill="none" stroke="midnightblue" d="M379.354,-128.842C415.885,-125.908 468.474,-120.801 514,-113 527.933,-110.612 542.946,-107.308 556.557,-104.027"/>
<polygon fill="midnightblue" stroke="midnightblue" points="378.724,-125.381 369.027,-129.648 379.269,-132.359 378.724,-125.381"/>
</g>
<!-- Node4 -->
<g id="node7" class="node"><title>Node4</title>
<a xlink:href="_m_a_i_n__avec__objets_8cpp.html#a8e80f54ac804eddce8ed6e45adb1db44" target="_top" xlink:title="ticker_full_loop">
<polygon fill="white" stroke="black" points="712,-80 712,-104 794,-104 794,-80 712,-80"/>
<text text-anchor="middle" x="753" y="-91" font-family="Helvetica,sans-Serif" font-size="10.00">ticker_full_loop</text>
</a>
</g>
<!-- Node3&#45;&gt;Node4 -->
<g id="edge6" class="edge"><title>Node3&#45;&gt;Node4</title>
<path fill="none" stroke="midnightblue" d="M664.664,-92C680.516,-92 697.147,-92 711.648,-92"/>
<polygon fill="midnightblue" stroke="midnightblue" points="664.389,-88.5001 654.389,-92 664.389,-95.5001 664.389,-88.5001"/>
</g>
<!-- Node5 -->
<g id="node9" class="node"><title>Node5</title>
<a xlink:href="_m_a_i_n__avec__objets_8cpp.html#ae66f6b31b5ad750f1fe042a706a4e3d4" target="_top" xlink:title="main">
<polygon fill="white" stroke="black" points="852,-59 852,-83 890,-83 890,-59 852,-59"/>
<text text-anchor="middle" x="871" y="-70" font-family="Helvetica,sans-Serif" font-size="10.00">main</text>
</a>
</g>
<!-- Node4&#45;&gt;Node5 -->
<g id="edge8" class="edge"><title>Node4&#45;&gt;Node5</title>
<path fill="none" stroke="midnightblue" d="M804.55,-82.8259C821.307,-79.8437 838.879,-76.7164 851.742,-74.4273"/>
<polygon fill="midnightblue" stroke="midnightblue" points="803.503,-79.4572 794.271,-84.6552 804.729,-86.3489 803.503,-79.4572"/>
</g>
<!-- Node7 -->
<g id="node13" class="node"><title>Node7</title>
<a xlink:href="keyboard__functions2_8cpp.html#a548548066307f816c5021de7d6e4f26a" target="_top" xlink:title="key_affectation">
<polygon fill="white" stroke="black" points="430.5,-80 430.5,-104 513.5,-104 513.5,-80 430.5,-80"/>
<text text-anchor="middle" x="472" y="-91" font-family="Helvetica,sans-Serif" font-size="10.00">key_affectation</text>
</a>
</g>
<!-- Node6&#45;&gt;Node7 -->
<g id="edge12" class="edge"><title>Node6&#45;&gt;Node7</title>
<path fill="none" stroke="midnightblue" d="M387.702,-68.7874C401.752,-72.6563 416.693,-76.7706 430.033,-80.444"/>
<polygon fill="midnightblue" stroke="midnightblue" points="388.234,-65.3039 377.664,-66.0234 386.376,-72.0527 388.234,-65.3039"/>
</g>
<!-- Node8 -->
<g id="node16" class="node"><title>Node8</title>
<a xlink:href="logicals__intres_8cpp.html#a85967c22135715eca94d08af2ec1a1fb" target="_top" xlink:title="fenetre_confirm">
<polygon fill="white" stroke="black" points="430,-38 430,-62 514,-62 514,-38 430,-38"/>
<text text-anchor="middle" x="472" y="-49" font-family="Helvetica,sans-Serif" font-size="10.00">fenetre_confirm</text>
</a>
</g>
<!-- Node6&#45;&gt;Node8 -->
<g id="edge16" class="edge"><title>Node6&#45;&gt;Node8</title>
<path fill="none" stroke="midnightblue" d="M404.354,-51.9607C413.083,-51.7077 421.783,-51.4556 429.896,-51.2204"/>
<polygon fill="midnightblue" stroke="midnightblue" points="404.022,-48.4688 394.127,-52.2572 404.225,-55.4659 404.022,-48.4688"/>
</g>
<!-- Node7&#45;&gt;Node3 -->
<g id="edge14" class="edge"><title>Node7&#45;&gt;Node3</title>
<path fill="none" stroke="midnightblue" d="M523.995,-92C532.473,-92 541.258,-92 549.742,-92"/>
<polygon fill="midnightblue" stroke="midnightblue" points="523.848,-88.5001 513.848,-92 523.848,-95.5001 523.848,-88.5001"/>
</g>
<!-- Node9 -->
<g id="node18" class="node"><title>Node9</title>
<a xlink:href="graphics__rebuild1_8cpp.html#ac2eae1e03fb72cc734ffbcef566483bf" target="_top" xlink:title="Boxes">
<polygon fill="white" stroke="black" points="580,-38 580,-62 624,-62 624,-38 580,-38"/>
<text text-anchor="middle" x="602" y="-49" font-family="Helvetica,sans-Serif" font-size="10.00">Boxes</text>
</a>
</g>
<!-- Node8&#45;&gt;Node9 -->
<g id="edge18" class="edge"><title>Node8&#45;&gt;Node9</title>
<path fill="none" stroke="midnightblue" d="M524.4,-50C543.658,-50 564.45,-50 579.66,-50"/>
<polygon fill="midnightblue" stroke="midnightblue" points="524.207,-46.5001 514.207,-50 524.207,-53.5001 524.207,-46.5001"/>
</g>
<!-- Node10 -->
<g id="node20" class="node"><title>Node10</title>
<a xlink:href="_m_a_i_n__avec__objets_8cpp.html#ade8d4ba65d55c94f8ee277829d722155" target="_top" xlink:title="main_actions_on_screen">
<polygon fill="white" stroke="black" points="690.5,-38 690.5,-62 815.5,-62 815.5,-38 690.5,-38"/>
<text text-anchor="middle" x="753" y="-49" font-family="Helvetica,sans-Serif" font-size="10.00">main_actions_on_screen</text>
</a>
</g>
<!-- Node9&#45;&gt;Node10 -->
<g id="edge20" class="edge"><title>Node9&#45;&gt;Node10</title>
<path fill="none" stroke="midnightblue" d="M634.395,-50C650.76,-50 671.187,-50 690.455,-50"/>
<polygon fill="midnightblue" stroke="midnightblue" points="634.281,-46.5001 624.281,-50 634.281,-53.5001 634.281,-46.5001"/>
</g>
<!-- Node10&#45;&gt;Node5 -->
<g id="edge22" class="edge"><title>Node10&#45;&gt;Node5</title>
<path fill="none" stroke="midnightblue" d="M825.837,-62.9626C835.336,-64.6529 844.327,-66.253 851.749,-67.5739"/>
<polygon fill="midnightblue" stroke="midnightblue" points="826.259,-59.4827 815.8,-61.1763 825.032,-66.3744 826.259,-59.4827"/>
</g>
<!-- Node11&#45;&gt;Node6 -->
<g id="edge26" class="edge"><title>Node11&#45;&gt;Node6</title>
<path fill="none" stroke="midnightblue" d="M248.218,-54C256.656,-54 265.387,-54 273.902,-54"/>
<polygon fill="midnightblue" stroke="midnightblue" points="248.103,-50.5001 238.103,-54 248.103,-57.5001 248.103,-50.5001"/>
</g>
<!-- Node12&#45;&gt;Node6 -->
<g id="edge30" class="edge"><title>Node12&#45;&gt;Node6</title>
<path fill="none" stroke="midnightblue" d="M241.284,-26.5769C258.222,-31.5867 276.984,-37.1362 293.175,-41.9249"/>
<polygon fill="midnightblue" stroke="midnightblue" points="242.137,-23.1794 231.555,-23.6993 240.152,-29.892 242.137,-23.1794"/>
</g>
</g>
</svg>
        <g id="navigator" transform="translate(0 0)" fill="#404254">
                <rect fill="#f2f5e9" fill-opacity="0.5" stroke="#606060" stroke-width=".5" x="0" y="0" width="60" height="60"/>
                <use id="zoomplus" xlink:href="#zoomPlus" x="17" y="9" onmousedown="handleZoom(evt,'in')"/>
                <use id="zoomminus" xlink:href="#zoomMin" x="42" y="9" onmousedown="handleZoom(evt,'out')"/>
                <use id="reset" xlink:href="#resetDef" x="30" y="36" onmousedown="handleReset()"/>
                <g id="arrowUp" xlink:href="#dirArrow" transform="translate(30 24)" onmousedown="handlePan(0,-1)">
                  <use xlink:href="#rim" fill="#404040">
                        <set attributeName="fill" to="#808080" begin="arrowUp.mouseover" end="arrowUp.mouseout"/>
                  </use>
                  <path fill="none" stroke="white" stroke-width="1.5" d="M0,-3.0v7 M-2.5,-0.5L0,-3.0L2.5,-0.5"/>
                </g>
                <g id="arrowRight" xlink:href="#dirArrow" transform="rotate(90) translate(36 -43)" onmousedown="handlePan(1,0)">
                  <use xlink:href="#rim" fill="#404040">
                        <set attributeName="fill" to="#808080" begin="arrowRight.mouseover" end="arrowRight.mouseout"/>
                  </use>
                  <path fill="none" stroke="white" stroke-width="1.5" d="M0,-3.0v7 M-2.5,-0.5L0,-3.0L2.5,-0.5"/>
                </g>
                <g id="arrowDown" xlink:href="#dirArrow" transform="rotate(180) translate(-30 -48)" onmousedown="handlePan(0,1)">
                  <use xlink:href="#rim" fill="#404040">
                        <set attributeName="fill" to="#808080" begin="arrowDown.mouseover" end="arrowDown.mouseout"/>
                  </use>
                  <path fill="none" stroke="white" stroke-width="1.5" d="M0,-3.0v7 M-2.5,-0.5L0,-3.0L2.5,-0.5"/>
                </g>
                <g id="arrowLeft" xlink:href="#dirArrow" transform="rotate(270) translate(-36 17)" onmousedown="handlePan(-1,0)">
                  <use xlink:href="#rim" fill="#404040">
                        <set attributeName="fill" to="#808080" begin="arrowLeft.mouseover" end="arrowLeft.mouseout"/>
                  </use>
                  <path fill="none" stroke="white" stroke-width="1.5" d="M0,-3.0v7 M-2.5,-0.5L0,-3.0L2.5,-0.5"/>
                </g>
        </g>
        <svg viewBox="0 0 15 15" width="100%" height="30px" preserveAspectRatio="xMaxYMin meet">
         <g id="arrow_out" transform="scale(0.3 0.3)">
          <a xlink:href="_c_o_r_e__6_8cpp_a77c4e71e4ffb054498925a12dfacb643_icgraph_org.svg" target="_base">
           <rect id="button" ry="5" rx="5" y="6" x="6" height="38" width="38"
                fill="#f2f5e9" fill-opacity="0.5" stroke="#606060" stroke-width="1.0"/>
           <path id="arrow"
             d="M 11.500037,31.436501 C 11.940474,20.09759 22.043105,11.32322 32.158766,21.979434 L 37.068811,17.246167 C 37.068811,17.246167 37.088388,32 37.088388,32 L 22.160133,31.978069 C 22.160133,31.978069 26.997745,27.140456 26.997745,27.140456 C 18.528582,18.264221 13.291696,25.230495 11.500037,31.436501 z"
             style="fill:#404040;"/>
          </a>
         </g>
        </svg>
</svg>
