<?xml version="1.0" encoding="UTF-8" standalone="no"?>
<!DOCTYPE svg PUBLIC "-//W3C//DTD SVG 1.1//EN"
 "http://www.w3.org/Graphics/SVG/1.1/DTD/svg11.dtd">
<!-- Generated by graphviz version 2.26.3 (20100126.1600)
 -->
<!-- Title: write_show_coming_from Pages: 1 -->
<svg width="1028pt" height="181pt"
 viewBox="0.00 0.00 1028.00 180.61" xmlns="http://www.w3.org/2000/svg" xmlns:xlink="http://www.w3.org/1999/xlink">
<g id="graph1" class="graph" transform="scale(1 1) rotate(0) translate(4 176.614)">
<title>write_show_coming_from</title>
<polygon fill="white" stroke="white" points="-4,5 -4,-176.614 1025,-176.614 1025,5 -4,5"/>
<!-- Node1 -->
<g id="node1" class="node"><title>Node1</title>
<polygon fill="#bfbfbf" stroke="black" points="0,-40 0,-64 128,-64 128,-40 0,-40"/>
<text text-anchor="middle" x="64" y="-51" font-family="Helvetica,sans-Serif" font-size="10.00">write_show_coming_from</text>
</g>
<!-- Node2 -->
<g id="node3" class="node"><title>Node2</title>
<a xlink:href="_c_o_r_e__6_8cpp.html#a5e53dc8ef589fe38b9d40e3497ac3f13" target="_top" xlink:title="GlobInit">
<polygon fill="white" stroke="black" points="180,-102 180,-126 230,-126 230,-102 180,-102"/>
<text text-anchor="middle" x="205" y="-113" font-family="Helvetica,sans-Serif" font-size="10.00">GlobInit</text>
</a>
</g>
<!-- Node1&#45;&gt;Node2 -->
<g id="edge2" class="edge"><title>Node1&#45;&gt;Node2</title>
<path fill="none" stroke="midnightblue" d="M101.002,-68.2703C125.874,-79.2069 157.993,-93.3303 179.914,-102.969"/>
<polygon fill="midnightblue" stroke="midnightblue" points="102.084,-64.9227 91.5209,-64.1014 99.2662,-71.3306 102.084,-64.9227"/>
</g>
<!-- Node12 -->
<g id="node26" class="node"><title>Node12</title>
<a xlink:href="save__show__13_8cpp.html#aa07c40b35aac29aacbdbc9a427813085" target="_top" xlink:title="save_the_show">
<polygon fill="white" stroke="black" points="282.5,-40 282.5,-64 367.5,-64 367.5,-40 282.5,-40"/>
<text text-anchor="middle" x="325" y="-51" font-family="Helvetica,sans-Serif" font-size="10.00">save_the_show</text>
</a>
</g>
<!-- Node1&#45;&gt;Node12 -->
<g id="edge28" class="edge"><title>Node1&#45;&gt;Node12</title>
<path fill="none" stroke="midnightblue" d="M138.242,-52C184.866,-52 243.339,-52 282.315,-52"/>
<polygon fill="midnightblue" stroke="midnightblue" points="138.182,-48.5001 128.182,-52 138.182,-55.5001 138.182,-48.5001"/>
</g>
<!-- Node13 -->
<g id="node29" class="node"><title>Node13</title>
<a xlink:href="save__show__13_8cpp.html#a1eafc1ecb75f36c1fe85c967bdea99b0" target="_top" xlink:title="load_the_show">
<polygon fill="white" stroke="black" points="164,-0 164,-24 246,-24 246,-0 164,-0"/>
<text text-anchor="middle" x="205" y="-11" font-family="Helvetica,sans-Serif" font-size="10.00">load_the_show</text>
</a>
</g>
<!-- Node1&#45;&gt;Node13 -->
<g id="edge32" class="edge"><title>Node1&#45;&gt;Node13</title>
<path fill="none" stroke="midnightblue" d="M116.354,-37.1478C131.98,-32.7149 148.882,-27.92 163.696,-23.7176"/>
<polygon fill="midnightblue" stroke="midnightblue" points="114.97,-33.9023 106.305,-39.9987 116.88,-40.6366 114.97,-33.9023"/>
</g>
<!-- Node3 -->
<g id="node5" class="node"><title>Node3</title>
<a xlink:href="_c_o_r_e__6_8cpp.html#a29400ad92b676ecb7743384700af5560" target="_top" xlink:title="reset_show">
<polygon fill="white" stroke="black" points="291.5,-82 291.5,-106 358.5,-106 358.5,-82 291.5,-82"/>
<text text-anchor="middle" x="325" y="-93" font-family="Helvetica,sans-Serif" font-size="10.00">reset_show</text>
</a>
</g>
<!-- Node2&#45;&gt;Node3 -->
<g id="edge4" class="edge"><title>Node2&#45;&gt;Node3</title>
<path fill="none" stroke="midnightblue" d="M240.254,-108.124C256.345,-105.442 275.317,-102.281 291.225,-99.6291"/>
<polygon fill="midnightblue" stroke="midnightblue" points="239.444,-104.711 230.156,-109.807 240.595,-111.616 239.444,-104.711"/>
</g>
<!-- Node4 -->
<g id="node7" class="node"><title>Node4</title>
<a xlink:href="logicals__intres_8cpp.html#a74cf9c04c734ab342f88799efbfc4210" target="_top" xlink:title="operations_confirmation">
<polygon fill="white" stroke="black" points="404,-80 404,-104 524,-104 524,-80 404,-80"/>
<text text-anchor="middle" x="464" y="-91" font-family="Helvetica,sans-Serif" font-size="10.00">operations_confirmation</text>
</a>
</g>
<!-- Node2&#45;&gt;Node4 -->
<g id="edge24" class="edge"><title>Node2&#45;&gt;Node4</title>
<path fill="none" stroke="midnightblue" d="M240.346,-114.555C253.432,-114.735 268.392,-114.912 282,-115 320.221,-115.248 330.042,-119.484 368,-115 386.211,-112.849 405.97,-108.478 422.801,-104.119"/>
<polygon fill="midnightblue" stroke="midnightblue" points="240.365,-111.055 230.316,-114.411 240.265,-118.055 240.365,-111.055"/>
</g>
<!-- Node8 -->
<g id="node15" class="node"><title>Node8</title>
<a xlink:href="_m_a_i_n__avec__objets_8cpp.html#ae66f6b31b5ad750f1fe042a706a4e3d4" target="_top" xlink:title="main">
<polygon fill="white" stroke="black" points="982,-120 982,-144 1020,-144 1020,-120 982,-120"/>
<text text-anchor="middle" x="1001" y="-131" font-family="Helvetica,sans-Serif" font-size="10.00">main</text>
</a>
</g>
<!-- Node2&#45;&gt;Node8 -->
<g id="edge26" class="edge"><title>Node2&#45;&gt;Node8</title>
<path fill="none" stroke="midnightblue" d="M239.842,-126.943C289.06,-144.037 382.093,-172 464,-172 464,-172 464,-172 732,-172 827.485,-172 852.957,-174.456 946,-153 958.25,-150.175 971.426,-145.217 981.809,-140.827"/>
<polygon fill="midnightblue" stroke="midnightblue" points="240.906,-123.607 230.311,-123.578 238.575,-130.208 240.906,-123.607"/>
</g>
<!-- Node3&#45;&gt;Node4 -->
<g id="edge6" class="edge"><title>Node3&#45;&gt;Node4</title>
<path fill="none" stroke="midnightblue" d="M368.912,-93.3682C379.985,-93.2089 392.066,-93.035 403.787,-92.8664"/>
<polygon fill="midnightblue" stroke="midnightblue" points="368.597,-89.8723 358.648,-93.5159 368.697,-96.8715 368.597,-89.8723"/>
</g>
<!-- Node5 -->
<g id="node9" class="node"><title>Node5</title>
<a xlink:href="keyboard__functions2_8cpp.html#a548548066307f816c5021de7d6e4f26a" target="_top" xlink:title="key_affectation">
<polygon fill="white" stroke="black" points="560.5,-120 560.5,-144 643.5,-144 643.5,-120 560.5,-120"/>
<text text-anchor="middle" x="602" y="-131" font-family="Helvetica,sans-Serif" font-size="10.00">key_affectation</text>
</a>
</g>
<!-- Node4&#45;&gt;Node5 -->
<g id="edge8" class="edge"><title>Node4&#45;&gt;Node5</title>
<path fill="none" stroke="midnightblue" d="M515.396,-106.897C530.147,-111.173 546.047,-115.782 560.148,-119.869"/>
<polygon fill="midnightblue" stroke="midnightblue" points="515.984,-103.424 505.405,-104.001 514.035,-110.147 515.984,-103.424"/>
</g>
<!-- Node9 -->
<g id="node17" class="node"><title>Node9</title>
<a xlink:href="logicals__intres_8cpp.html#a85967c22135715eca94d08af2ec1a1fb" target="_top" xlink:title="fenetre_confirm">
<polygon fill="white" stroke="black" points="560,-78 560,-102 644,-102 644,-78 560,-78"/>
<text text-anchor="middle" x="602" y="-89" font-family="Helvetica,sans-Serif" font-size="10.00">fenetre_confirm</text>
</a>
</g>
<!-- Node4&#45;&gt;Node9 -->
<g id="edge16" class="edge"><title>Node4&#45;&gt;Node9</title>
<path fill="none" stroke="midnightblue" d="M534.354,-90.9804C543.083,-90.8539 551.783,-90.7278 559.896,-90.6102"/>
<polygon fill="midnightblue" stroke="midnightblue" points="534.076,-87.4839 524.127,-91.1286 534.177,-94.4832 534.076,-87.4839"/>
</g>
<!-- Node6 -->
<g id="node11" class="node"><title>Node6</title>
<a xlink:href="keyboard__routines2_8cpp.html#a8563320b8eab661232619224650de244" target="_top" xlink:title="commandes_clavier">
<polygon fill="white" stroke="black" points="680,-120 680,-144 784,-144 784,-120 680,-120"/>
<text text-anchor="middle" x="732" y="-131" font-family="Helvetica,sans-Serif" font-size="10.00">commandes_clavier</text>
</a>
</g>
<!-- Node5&#45;&gt;Node6 -->
<g id="edge10" class="edge"><title>Node5&#45;&gt;Node6</title>
<path fill="none" stroke="midnightblue" d="M653.995,-132C662.473,-132 671.258,-132 679.742,-132"/>
<polygon fill="midnightblue" stroke="midnightblue" points="653.848,-128.5 643.848,-132 653.848,-135.5 653.848,-128.5"/>
</g>
<!-- Node7 -->
<g id="node13" class="node"><title>Node7</title>
<a xlink:href="_m_a_i_n__avec__objets_8cpp.html#a8e80f54ac804eddce8ed6e45adb1db44" target="_top" xlink:title="ticker_full_loop">
<polygon fill="white" stroke="black" points="842,-120 842,-144 924,-144 924,-120 842,-120"/>
<text text-anchor="middle" x="883" y="-131" font-family="Helvetica,sans-Serif" font-size="10.00">ticker_full_loop</text>
</a>
</g>
<!-- Node6&#45;&gt;Node7 -->
<g id="edge12" class="edge"><title>Node6&#45;&gt;Node7</title>
<path fill="none" stroke="midnightblue" d="M794.664,-132C810.516,-132 827.147,-132 841.648,-132"/>
<polygon fill="midnightblue" stroke="midnightblue" points="794.389,-128.5 784.389,-132 794.389,-135.5 794.389,-128.5"/>
</g>
<!-- Node7&#45;&gt;Node8 -->
<g id="edge14" class="edge"><title>Node7&#45;&gt;Node8</title>
<path fill="none" stroke="midnightblue" d="M934.55,-132C951.307,-132 968.879,-132 981.742,-132"/>
<polygon fill="midnightblue" stroke="midnightblue" points="934.271,-128.5 924.271,-132 934.271,-135.5 934.271,-128.5"/>
</g>
<!-- Node10 -->
<g id="node19" class="node"><title>Node10</title>
<a xlink:href="graphics__rebuild1_8cpp.html#ac2eae1e03fb72cc734ffbcef566483bf" target="_top" xlink:title="Boxes">
<polygon fill="white" stroke="black" points="710,-78 710,-102 754,-102 754,-78 710,-78"/>
<text text-anchor="middle" x="732" y="-89" font-family="Helvetica,sans-Serif" font-size="10.00">Boxes</text>
</a>
</g>
<!-- Node9&#45;&gt;Node10 -->
<g id="edge18" class="edge"><title>Node9&#45;&gt;Node10</title>
<path fill="none" stroke="midnightblue" d="M654.4,-90C673.658,-90 694.45,-90 709.66,-90"/>
<polygon fill="midnightblue" stroke="midnightblue" points="654.207,-86.5001 644.207,-90 654.207,-93.5001 654.207,-86.5001"/>
</g>
<!-- Node11 -->
<g id="node21" class="node"><title>Node11</title>
<a xlink:href="_m_a_i_n__avec__objets_8cpp.html#ade8d4ba65d55c94f8ee277829d722155" target="_top" xlink:title="main_actions_on_screen">
<polygon fill="white" stroke="black" points="820.5,-78 820.5,-102 945.5,-102 945.5,-78 820.5,-78"/>
<text text-anchor="middle" x="883" y="-89" font-family="Helvetica,sans-Serif" font-size="10.00">main_actions_on_screen</text>
</a>
</g>
<!-- Node10&#45;&gt;Node11 -->
<g id="edge20" class="edge"><title>Node10&#45;&gt;Node11</title>
<path fill="none" stroke="midnightblue" d="M764.395,-90C780.76,-90 801.187,-90 820.455,-90"/>
<polygon fill="midnightblue" stroke="midnightblue" points="764.281,-86.5001 754.281,-90 764.281,-93.5001 764.281,-86.5001"/>
</g>
<!-- Node11&#45;&gt;Node8 -->
<g id="edge22" class="edge"><title>Node11&#45;&gt;Node8</title>
<path fill="none" stroke="midnightblue" d="M929.823,-105.359C935.288,-107.225 940.775,-109.133 946,-111 958.031,-115.3 971.426,-120.407 981.985,-124.509"/>
<polygon fill="midnightblue" stroke="midnightblue" points="930.663,-101.948 920.069,-102.061 928.421,-108.58 930.663,-101.948"/>
</g>
<!-- Node12&#45;&gt;Node4 -->
<g id="edge30" class="edge"><title>Node12&#45;&gt;Node4</title>
<path fill="none" stroke="midnightblue" d="M376.34,-66.7742C391.318,-71.0842 407.505,-75.7424 421.844,-79.8689"/>
<polygon fill="midnightblue" stroke="midnightblue" points="377.283,-63.4034 366.705,-64.0013 375.347,-70.1304 377.283,-63.4034"/>
</g>
<!-- Node13&#45;&gt;Node4 -->
<g id="edge34" class="edge"><title>Node13&#45;&gt;Node4</title>
<path fill="none" stroke="midnightblue" d="M256.594,-12.1476C289.339,-13.6549 332.144,-18.274 368,-31 399.636,-42.2281 431.589,-65.4436 449.488,-79.7744"/>
<polygon fill="midnightblue" stroke="midnightblue" points="256.462,-8.64028 246.337,-11.7613 256.198,-15.6353 256.462,-8.64028"/>
</g>
</g>
</svg>
