<?xml version="1.0" encoding="UTF-8" standalone="no"?>
<!DOCTYPE svg PUBLIC "-//W3C//DTD SVG 1.1//EN"
 "http://www.w3.org/Graphics/SVG/1.1/DTD/svg11.dtd">
<!-- Generated by graphviz version 2.26.3 (20100126.1600)
 -->
<!-- Title: do_lock_preset Pages: 1 -->
<svg width="1426pt" height="615pt"
 viewBox="0.00 0.00 1426.00 614.84" xmlns="http://www.w3.org/2000/svg" xmlns:xlink="http://www.w3.org/1999/xlink">
<g id="graph1" class="graph" transform="scale(1 1) rotate(0) translate(4 610.842)">
<title>do_lock_preset</title>
<polygon fill="white" stroke="white" points="-4,5 -4,-610.842 1423,-610.842 1423,5 -4,5"/>
<!-- Node1 -->
<g id="node1" class="node"><title>Node1</title>
<polygon fill="#bfbfbf" stroke="black" points="0.5,-137.721 0.5,-161.721 83.5,-161.721 83.5,-137.721 0.5,-137.721"/>
<text text-anchor="middle" x="42" y="-148.721" font-family="Helvetica,sans-Serif" font-size="10.00">do_lock_preset</text>
</g>
<!-- Node2 -->
<g id="node3" class="node"><title>Node2</title>
<a xlink:href="banger__core__8_8cpp.html#a29583c84f980616502ac7c4f99e1bc29" target="_top" xlink:title="Bang_event_back">
<polygon fill="white" stroke="black" points="144.5,-330.721 144.5,-354.721 239.5,-354.721 239.5,-330.721 144.5,-330.721"/>
<text text-anchor="middle" x="192" y="-341.721" font-family="Helvetica,sans-Serif" font-size="10.00">Bang_event_back</text>
</a>
</g>
<!-- Node1&#45;&gt;Node2 -->
<g id="edge2" class="edge"><title>Node1&#45;&gt;Node2</title>
<path fill="none" stroke="midnightblue" d="M57.5823,-169.77C88.6628,-209.76 157.528,-298.367 182.62,-330.652"/>
<polygon fill="midnightblue" stroke="midnightblue" points="60.2833,-167.542 51.3832,-161.794 54.7563,-171.837 60.2833,-167.542"/>
</g>
<!-- Node10 -->
<g id="node20" class="node"><title>Node10</title>
<a xlink:href="i_cat14_8cpp.html#a16285241f82898e7a5f051b03d90b9a3" target="_top" xlink:title="check_button">
<polygon fill="white" stroke="black" points="651.5,-263.721 651.5,-287.721 726.5,-287.721 726.5,-263.721 651.5,-263.721"/>
<text text-anchor="middle" x="689" y="-274.721" font-family="Helvetica,sans-Serif" font-size="10.00">check_button</text>
</a>
</g>
<!-- Node1&#45;&gt;Node10 -->
<g id="edge82" class="edge"><title>Node1&#45;&gt;Node10</title>
<path fill="none" stroke="midnightblue" d="M93.8956,-142.921C215.88,-128.064 516.54,-98.3365 596,-154.721 634.523,-182.057 598.723,-221.195 632,-254.721 637.349,-260.11 644.198,-264.129 651.28,-267.122"/>
<polygon fill="midnightblue" stroke="midnightblue" points="93.1909,-139.482 83.6948,-144.18 94.0482,-146.429 93.1909,-139.482"/>
</g>
<!-- Node15 -->
<g id="node33" class="node"><title>Node15</title>
<a xlink:href="midi__13_8cpp.html#a6dff3d42682b58cc0a9875ee30fb4cd4" target="_top" xlink:title="do_midi_job">
<polygon fill="white" stroke="black" points="655,-343.721 655,-367.721 723,-367.721 723,-343.721 655,-343.721"/>
<text text-anchor="middle" x="689" y="-354.721" font-family="Helvetica,sans-Serif" font-size="10.00">do_midi_job</text>
</a>
</g>
<!-- Node1&#45;&gt;Node15 -->
<g id="edge84" class="edge"><title>Node1&#45;&gt;Node15</title>
<path fill="none" stroke="midnightblue" d="M93.6327,-159.237C193.363,-178.62 418.326,-227.245 596,-301.721 623.55,-313.269 652.991,-331.476 671.197,-343.507"/>
<polygon fill="midnightblue" stroke="midnightblue" points="94.0042,-155.744 83.5226,-157.289 92.6799,-162.618 94.0042,-155.744"/>
</g>
<!-- Node26 -->
<g id="node66" class="node"><title>Node26</title>
<a xlink:href="faders__core__24_8cpp.html#ad5620f42677dc89c222091df6bcbf13e" target="_top" xlink:title="do_logical_Lock_Preset_Call">
<polygon fill="white" stroke="black" points="120.5,-36.7207 120.5,-60.7207 263.5,-60.7207 263.5,-36.7207 120.5,-36.7207"/>
<text text-anchor="middle" x="192" y="-47.7207" font-family="Helvetica,sans-Serif" font-size="10.00">do_logical_Lock_Preset_Call</text>
</a>
</g>
<!-- Node1&#45;&gt;Node26 -->
<g id="edge80" class="edge"><title>Node1&#45;&gt;Node26</title>
<path fill="none" stroke="midnightblue" d="M56.8939,-129.309C71.1617,-111.159 94.2778,-85.1717 120,-69.7207 125.804,-66.2342 132.221,-63.2976 138.762,-60.8314"/>
<polygon fill="midnightblue" stroke="midnightblue" points="53.9189,-127.438 50.6278,-137.509 59.4807,-131.688 53.9189,-127.438"/>
</g>
<!-- Node27 -->
<g id="node70" class="node"><title>Node27</title>
<a xlink:href="minifaders__core_8cpp.html#ac974e1c0e7800b10f4290db4d5ce4db0" target="_top" xlink:title="mini_faders_panel_core">
<polygon fill="white" stroke="black" points="132.5,-500.721 132.5,-524.721 251.5,-524.721 251.5,-500.721 132.5,-500.721"/>
<text text-anchor="middle" x="192" y="-511.721" font-family="Helvetica,sans-Serif" font-size="10.00">mini_faders_panel_core</text>
</a>
</g>
<!-- Node1&#45;&gt;Node27 -->
<g id="edge86" class="edge"><title>Node1&#45;&gt;Node27</title>
<path fill="none" stroke="midnightblue" d="M49.21,-171.745C62.1934,-210.856 90.8752,-294.801 120,-363.721 141.919,-415.59 172.48,-475.375 185.601,-500.551"/>
<polygon fill="midnightblue" stroke="midnightblue" points="52.4356,-170.351 45.9769,-161.953 45.7885,-172.546 52.4356,-170.351"/>
</g>
<!-- Node28 -->
<g id="node73" class="node"><title>Node28</title>
<a xlink:href="save__show__13_8cpp.html#a8330f725aa2c729bdce098aa4b187589" target="_top" xlink:title="Load_Show">
<polygon fill="white" stroke="black" points="158,-78.7207 158,-102.721 226,-102.721 226,-78.7207 158,-78.7207"/>
<text text-anchor="middle" x="192" y="-89.7207" font-family="Helvetica,sans-Serif" font-size="10.00">Load_Show</text>
</a>
</g>
<!-- Node1&#45;&gt;Node28 -->
<g id="edge90" class="edge"><title>Node1&#45;&gt;Node28</title>
<path fill="none" stroke="midnightblue" d="M79.1215,-133.535C92.0035,-128.047 106.581,-121.978 120,-116.721 132.251,-111.921 145.794,-106.946 157.798,-102.648"/>
<polygon fill="midnightblue" stroke="midnightblue" points="77.4605,-130.439 69.6485,-137.596 80.2186,-136.873 77.4605,-130.439"/>
</g>
<!-- Node3 -->
<g id="node5" class="node"><title>Node3</title>
<a xlink:href="banger__core__8_8cpp.html#ae4008269e0575da11cc90e812961ef6f" target="_top" xlink:title="Bang_event">
<polygon fill="white" stroke="black" points="336,-428.721 336,-452.721 404,-452.721 404,-428.721 336,-428.721"/>
<text text-anchor="middle" x="370" y="-439.721" font-family="Helvetica,sans-Serif" font-size="10.00">Bang_event</text>
</a>
</g>
<!-- Node2&#45;&gt;Node3 -->
<g id="edge4" class="edge"><title>Node2&#45;&gt;Node3</title>
<path fill="none" stroke="midnightblue" d="M222.836,-359.698C258.562,-379.367 316.534,-411.284 347.995,-428.606"/>
<polygon fill="midnightblue" stroke="midnightblue" points="224.274,-356.494 213.826,-354.737 220.898,-362.626 224.274,-356.494"/>
</g>
<!-- Node2&#45;&gt;Node10 -->
<g id="edge76" class="edge"><title>Node2&#45;&gt;Node10</title>
<path fill="none" stroke="midnightblue" d="M227.825,-326.534C248.515,-317.847 275.266,-307.721 300,-301.721 425.964,-271.164 581.148,-271.774 651.351,-274.021"/>
<polygon fill="midnightblue" stroke="midnightblue" points="226.3,-323.38 218.483,-330.532 229.053,-329.816 226.3,-323.38"/>
</g>
<!-- Node2&#45;&gt;Node15 -->
<g id="edge78" class="edge"><title>Node2&#45;&gt;Node15</title>
<path fill="none" stroke="midnightblue" d="M249.689,-344.23C353.979,-346.958 570.839,-352.63 654.783,-354.826"/>
<polygon fill="midnightblue" stroke="midnightblue" points="249.743,-340.73 239.654,-343.967 249.559,-347.728 249.743,-340.73"/>
</g>
<!-- Node22 -->
<g id="node51" class="node"><title>Node22</title>
<a xlink:href="banger__core__8_8cpp.html#a790bd34b44c1055de586eb9f279b3b3e" target="_top" xlink:title="do_go_back_bang">
<polygon fill="white" stroke="black" points="322.5,-310.721 322.5,-334.721 417.5,-334.721 417.5,-310.721 322.5,-310.721"/>
<text text-anchor="middle" x="370" y="-321.721" font-family="Helvetica,sans-Serif" font-size="10.00">do_go_back_bang</text>
</a>
</g>
<!-- Node2&#45;&gt;Node22 -->
<g id="edge58" class="edge"><title>Node2&#45;&gt;Node22</title>
<path fill="none" stroke="midnightblue" d="M249.885,-336.217C273.371,-333.578 300.164,-330.567 322.476,-328.06"/>
<polygon fill="midnightblue" stroke="midnightblue" points="249.247,-332.766 239.701,-337.361 250.029,-339.722 249.247,-332.766"/>
</g>
<!-- Node25 -->
<g id="node61" class="node"><title>Node25</title>
<a xlink:href="banger__core__8_8cpp.html#af7d3486500e160cd24bc1d25fc8cfdae" target="_top" xlink:title="do_logical_feedback\l_banger">
<polygon fill="white" stroke="black" points="317.5,-511.721 317.5,-551.721 422.5,-551.721 422.5,-511.721 317.5,-511.721"/>
<text text-anchor="start" x="325.5" y="-538.721" font-family="Helvetica,sans-Serif" font-size="10.00">do_logical_feedback</text>
<text text-anchor="middle" x="370" y="-522.721" font-family="Helvetica,sans-Serif" font-size="10.00">_banger</text>
</a>
</g>
<!-- Node2&#45;&gt;Node25 -->
<g id="edge72" class="edge"><title>Node2&#45;&gt;Node25</title>
<path fill="none" stroke="midnightblue" d="M209.648,-362.754C230.798,-386.625 267.464,-427.57 300,-461.721 316.241,-478.768 335.147,-497.617 349.214,-511.457"/>
<polygon fill="midnightblue" stroke="midnightblue" points="212.093,-360.235 202.847,-355.062 206.849,-364.872 212.093,-360.235"/>
</g>
<!-- Node4 -->
<g id="node7" class="node"><title>Node4</title>
<a xlink:href="banger__core__8_8cpp.html#a4003a08a1620546de77b118c91d2fd9d" target="_top" xlink:title="do_bang">
<polygon fill="white" stroke="black" points="823.5,-462.721 823.5,-486.721 876.5,-486.721 876.5,-462.721 823.5,-462.721"/>
<text text-anchor="middle" x="850" y="-473.721" font-family="Helvetica,sans-Serif" font-size="10.00">do_bang</text>
</a>
</g>
<!-- Node3&#45;&gt;Node4 -->
<g id="edge6" class="edge"><title>Node3&#45;&gt;Node4</title>
<path fill="none" stroke="midnightblue" d="M393.147,-458.98C413.659,-474.069 445.074,-494.597 476,-504.721 590.199,-542.102 628.237,-542.607 746,-518.721 747.024,-518.513 792.816,-499.065 823.289,-486.097"/>
<polygon fill="midnightblue" stroke="midnightblue" points="395.151,-456.108 385.056,-452.892 390.943,-461.702 395.151,-456.108"/>
</g>
<!-- Node7 -->
<g id="node13" class="node"><title>Node7</title>
<a xlink:href="banger__core__8_8cpp.html#a4fe16ad483c0c1609d97aeb9a23c74ee" target="_top" xlink:title="do_logical_fenetre\l_banger">
<polygon fill="white" stroke="black" points="488.5,-552.721 488.5,-592.721 583.5,-592.721 583.5,-552.721 488.5,-552.721"/>
<text text-anchor="start" x="496.5" y="-579.721" font-family="Helvetica,sans-Serif" font-size="10.00">do_logical_fenetre</text>
<text text-anchor="middle" x="536" y="-563.721" font-family="Helvetica,sans-Serif" font-size="10.00">_banger</text>
</a>
</g>
<!-- Node3&#45;&gt;Node7 -->
<g id="edge12" class="edge"><title>Node3&#45;&gt;Node7</title>
<path fill="none" stroke="midnightblue" d="M391.826,-459.452C405.791,-471.583 424.189,-487.839 440,-502.721 456.477,-518.229 457.993,-525.018 476,-538.721 482.479,-543.651 489.749,-548.361 496.934,-552.62"/>
<polygon fill="midnightblue" stroke="midnightblue" points="394.022,-456.723 384.169,-452.827 389.442,-462.017 394.022,-456.723"/>
</g>
<!-- Node9 -->
<g id="node18" class="node"><title>Node9</title>
<a xlink:href="banger__core__8_8cpp.html#ab405ab53ea444b049e5ffa258498fcb6" target="_top" xlink:title="refresh_banger_wx">
<polygon fill="white" stroke="black" points="486.5,-428.721 486.5,-452.721 585.5,-452.721 585.5,-428.721 486.5,-428.721"/>
<text text-anchor="middle" x="536" y="-439.721" font-family="Helvetica,sans-Serif" font-size="10.00">refresh_banger_wx</text>
</a>
</g>
<!-- Node3&#45;&gt;Node9 -->
<g id="edge18" class="edge"><title>Node3&#45;&gt;Node9</title>
<path fill="none" stroke="midnightblue" d="M414.515,-440.721C436.629,-440.721 463.425,-440.721 486.217,-440.721"/>
<polygon fill="midnightblue" stroke="midnightblue" points="414.395,-437.221 404.395,-440.721 414.395,-444.221 414.395,-437.221"/>
</g>
<!-- Node3&#45;&gt;Node15 -->
<g id="edge56" class="edge"><title>Node3&#45;&gt;Node15</title>
<path fill="none" stroke="midnightblue" d="M413.966,-429.006C478.189,-411.893 596.334,-380.412 654.625,-364.88"/>
<polygon fill="midnightblue" stroke="midnightblue" points="412.9,-425.667 404.139,-431.624 414.703,-432.431 412.9,-425.667"/>
</g>
<!-- Node5 -->
<g id="node9" class="node"><title>Node5</title>
<a xlink:href="_m_a_i_n__avec__objets_8cpp.html#a8e80f54ac804eddce8ed6e45adb1db44" target="_top" xlink:title="ticker_full_loop">
<polygon fill="white" stroke="black" points="954,-377.721 954,-401.721 1036,-401.721 1036,-377.721 954,-377.721"/>
<text text-anchor="middle" x="995" y="-388.721" font-family="Helvetica,sans-Serif" font-size="10.00">ticker_full_loop</text>
</a>
</g>
<!-- Node4&#45;&gt;Node5 -->
<g id="edge8" class="edge"><title>Node4&#45;&gt;Node5</title>
<path fill="none" stroke="midnightblue" d="M879.407,-457.482C907.59,-440.961 949.408,-416.447 974.264,-401.876"/>
<polygon fill="midnightblue" stroke="midnightblue" points="877.632,-454.466 870.775,-462.542 881.172,-460.504 877.632,-454.466"/>
</g>
<!-- Node6 -->
<g id="node11" class="node"><title>Node6</title>
<a xlink:href="_m_a_i_n__avec__objets_8cpp.html#ae66f6b31b5ad750f1fe042a706a4e3d4" target="_top" xlink:title="main">
<polygon fill="white" stroke="black" points="1380,-157.721 1380,-181.721 1418,-181.721 1418,-157.721 1380,-157.721"/>
<text text-anchor="middle" x="1399" y="-168.721" font-family="Helvetica,sans-Serif" font-size="10.00">main</text>
</a>
</g>
<!-- Node5&#45;&gt;Node6 -->
<g id="edge10" class="edge"><title>Node5&#45;&gt;Node6</title>
<path fill="none" stroke="midnightblue" d="M1033.81,-373.635C1099.89,-345.522 1237.43,-283.82 1344,-214.721 1359.11,-204.921 1374.88,-191.662 1385.63,-182.078"/>
<polygon fill="midnightblue" stroke="midnightblue" points="1032.06,-370.576 1024.21,-377.695 1034.79,-377.022 1032.06,-370.576"/>
</g>
<!-- Node8 -->
<g id="node15" class="node"><title>Node8</title>
<a xlink:href="procs__visuels__rebuild1_8cpp.html#ae710b6e599e321ad5934a90140067054" target="_top" xlink:title="check_graphics_mouse\l_handling">
<polygon fill="white" stroke="black" points="790.5,-512.721 790.5,-552.721 909.5,-552.721 909.5,-512.721 790.5,-512.721"/>
<text text-anchor="start" x="798.5" y="-539.721" font-family="Helvetica,sans-Serif" font-size="10.00">check_graphics_mouse</text>
<text text-anchor="middle" x="850" y="-523.721" font-family="Helvetica,sans-Serif" font-size="10.00">_handling</text>
</a>
</g>
<!-- Node7&#45;&gt;Node8 -->
<g id="edge14" class="edge"><title>Node7&#45;&gt;Node8</title>
<path fill="none" stroke="midnightblue" d="M593.779,-568.211C636.047,-564.604 694.719,-558.957 746,-551.721 760.449,-549.682 775.953,-547.077 790.464,-544.454"/>
<polygon fill="midnightblue" stroke="midnightblue" points="593.343,-564.736 583.672,-569.062 593.93,-571.711 593.343,-564.736"/>
</g>
<!-- Node8&#45;&gt;Node5 -->
<g id="edge16" class="edge"><title>Node8&#45;&gt;Node5</title>
<path fill="none" stroke="midnightblue" d="M902.615,-507.244C908.048,-503.705 913.294,-499.852 918,-495.721 950.307,-467.36 976.88,-423.099 988.577,-401.874"/>
<polygon fill="midnightblue" stroke="midnightblue" points="900.67,-504.332 893.975,-512.543 904.329,-510.299 900.67,-504.332"/>
</g>
<!-- Node9&#45;&gt;Node10 -->
<g id="edge20" class="edge"><title>Node9&#45;&gt;Node10</title>
<path fill="none" stroke="midnightblue" d="M553.492,-421.029C572.592,-399.614 604.177,-364.465 632,-334.721 647.373,-318.287 665.482,-299.664 677.094,-287.815"/>
<polygon fill="midnightblue" stroke="midnightblue" points="550.854,-418.728 546.816,-428.523 556.081,-423.384 550.854,-418.728"/>
</g>
<!-- Node12 -->
<g id="node25" class="node"><title>Node12</title>
<a xlink:href="keyboard__functions2_8cpp.html#af3dd6697323b10b480719c1612bcf29a" target="_top" xlink:title="key_backward">
<polygon fill="white" stroke="black" points="649,-427.721 649,-451.721 729,-451.721 729,-427.721 649,-427.721"/>
<text text-anchor="middle" x="689" y="-438.721" font-family="Helvetica,sans-Serif" font-size="10.00">key_backward</text>
</a>
</g>
<!-- Node9&#45;&gt;Node12 -->
<g id="edge26" class="edge"><title>Node9&#45;&gt;Node12</title>
<path fill="none" stroke="midnightblue" d="M595.929,-440.329C613.642,-440.213 632.6,-440.089 648.753,-439.984"/>
<polygon fill="midnightblue" stroke="midnightblue" points="595.652,-436.831 585.675,-440.396 595.697,-443.83 595.652,-436.831"/>
</g>
<!-- Node14 -->
<g id="node30" class="node"><title>Node14</title>
<a xlink:href="keyboard__functions2_8cpp.html#a6b73a3669797504ce2e357d9a8b9a2c2" target="_top" xlink:title="key_forward">
<polygon fill="white" stroke="black" points="654,-385.721 654,-409.721 724,-409.721 724,-385.721 654,-385.721"/>
<text text-anchor="middle" x="689" y="-396.721" font-family="Helvetica,sans-Serif" font-size="10.00">key_forward</text>
</a>
</g>
<!-- Node9&#45;&gt;Node14 -->
<g id="edge32" class="edge"><title>Node9&#45;&gt;Node14</title>
<path fill="none" stroke="midnightblue" d="M588.934,-425.844C610.28,-419.845 634.339,-413.083 653.516,-407.693"/>
<polygon fill="midnightblue" stroke="midnightblue" points="587.706,-422.553 579.026,-428.628 589.6,-429.292 587.706,-422.553"/>
</g>
<!-- Node9&#45;&gt;Node15 -->
<g id="edge36" class="edge"><title>Node9&#45;&gt;Node15</title>
<path fill="none" stroke="midnightblue" d="M579.382,-424.446C585.172,-421.558 590.873,-418.309 596,-414.721 615.06,-401.381 612.575,-389.523 632,-376.721 638.957,-372.136 647.048,-368.381 654.911,-365.38"/>
<polygon fill="midnightblue" stroke="midnightblue" points="577.866,-421.291 570.279,-428.687 580.822,-427.637 577.866,-421.291"/>
</g>
<!-- Node21 -->
<g id="node47" class="node"><title>Node21</title>
<a xlink:href="sequentiel__6__core_8cpp.html#a2a71c851cf25565491dd10423bc80380" target="_top" xlink:title="do_logical_Sequenciel\l_Window">
<polygon fill="white" stroke="black" points="632.5,-469.721 632.5,-509.721 745.5,-509.721 745.5,-469.721 632.5,-469.721"/>
<text text-anchor="start" x="640.5" y="-496.721" font-family="Helvetica,sans-Serif" font-size="10.00">do_logical_Sequenciel</text>
<text text-anchor="middle" x="689" y="-480.721" font-family="Helvetica,sans-Serif" font-size="10.00">_Window</text>
</a>
</g>
<!-- Node9&#45;&gt;Node21 -->
<g id="edge52" class="edge"><title>Node9&#45;&gt;Node21</title>
<path fill="none" stroke="midnightblue" d="M583.64,-455.978C599.033,-460.908 616.252,-466.422 632.237,-471.542"/>
<polygon fill="midnightblue" stroke="midnightblue" points="584.411,-452.55 573.82,-452.833 582.276,-459.216 584.411,-452.55"/>
</g>
<!-- Node11 -->
<g id="node22" class="node"><title>Node11</title>
<a xlink:href="i_cat14_8cpp.html#aa9772b548765a631d4bae1c14053b4e1" target="_top" xlink:title="DoJobFantastickTouch">
<polygon fill="white" stroke="black" points="791.5,-320.721 791.5,-344.721 908.5,-344.721 908.5,-320.721 791.5,-320.721"/>
<text text-anchor="middle" x="850" y="-331.721" font-family="Helvetica,sans-Serif" font-size="10.00">DoJobFantastickTouch</text>
</a>
</g>
<!-- Node10&#45;&gt;Node11 -->
<g id="edge22" class="edge"><title>Node10&#45;&gt;Node11</title>
<path fill="none" stroke="midnightblue" d="M732.814,-291.232C758.966,-300.491 791.69,-312.077 815.905,-320.65"/>
<polygon fill="midnightblue" stroke="midnightblue" points="733.739,-287.847 723.144,-287.809 731.403,-294.446 733.739,-287.847"/>
</g>
<!-- Node11&#45;&gt;Node5 -->
<g id="edge24" class="edge"><title>Node11&#45;&gt;Node5</title>
<path fill="none" stroke="midnightblue" d="M890.084,-348.478C913.532,-357.695 942.677,-369.152 964.294,-377.65"/>
<polygon fill="midnightblue" stroke="midnightblue" points="891.338,-345.21 880.751,-344.809 888.777,-351.725 891.338,-345.21"/>
</g>
<!-- Node13 -->
<g id="node27" class="node"><title>Node13</title>
<a xlink:href="keyboard__routines2_8cpp.html#a8563320b8eab661232619224650de244" target="_top" xlink:title="commandes_clavier">
<polygon fill="white" stroke="black" points="798,-377.721 798,-401.721 902,-401.721 902,-377.721 798,-377.721"/>
<text text-anchor="middle" x="850" y="-388.721" font-family="Helvetica,sans-Serif" font-size="10.00">commandes_clavier</text>
</a>
</g>
<!-- Node12&#45;&gt;Node13 -->
<g id="edge28" class="edge"><title>Node12&#45;&gt;Node13</title>
<path fill="none" stroke="midnightblue" d="M737.753,-424.58C761.254,-417.282 789.053,-408.648 811.107,-401.799"/>
<polygon fill="midnightblue" stroke="midnightblue" points="736.486,-421.309 727.974,-427.617 738.562,-427.994 736.486,-421.309"/>
</g>
<!-- Node13&#45;&gt;Node5 -->
<g id="edge30" class="edge"><title>Node13&#45;&gt;Node5</title>
<path fill="none" stroke="midnightblue" d="M912.386,-389.721C926.335,-389.721 940.795,-389.721 953.643,-389.721"/>
<polygon fill="midnightblue" stroke="midnightblue" points="912.348,-386.221 902.348,-389.721 912.348,-393.221 912.348,-386.221"/>
</g>
<!-- Node14&#45;&gt;Node13 -->
<g id="edge34" class="edge"><title>Node14&#45;&gt;Node13</title>
<path fill="none" stroke="midnightblue" d="M734.326,-395.468C754.115,-394.485 777.436,-393.326 797.934,-392.308"/>
<polygon fill="midnightblue" stroke="midnightblue" points="734.146,-391.973 724.332,-395.965 734.494,-398.964 734.146,-391.973"/>
</g>
<!-- Node16 -->
<g id="node35" class="node"><title>Node16</title>
<a xlink:href="midi__13_8cpp.html#a6bedf9750195224914cd87c4e73ab626" target="_top" xlink:title="ventilate_midi_to_midiarray">
<polygon fill="white" stroke="black" points="782.5,-247.721 782.5,-271.721 917.5,-271.721 917.5,-247.721 782.5,-247.721"/>
<text text-anchor="middle" x="850" y="-258.721" font-family="Helvetica,sans-Serif" font-size="10.00">ventilate_midi_to_midiarray</text>
</a>
</g>
<!-- Node15&#45;&gt;Node16 -->
<g id="edge38" class="edge"><title>Node15&#45;&gt;Node16</title>
<path fill="none" stroke="midnightblue" d="M718.366,-338.211C750.656,-318.957 801.678,-288.534 829.775,-271.78"/>
<polygon fill="midnightblue" stroke="midnightblue" points="716.187,-335.435 709.391,-343.562 719.772,-341.447 716.187,-335.435"/>
</g>
<!-- Node17 -->
<g id="node37" class="node"><title>Node17</title>
<a xlink:href="midi__13_8cpp.html#afa49dd5668303c2448676c8243737c2d" target="_top" xlink:title="simulate_midi">
<polygon fill="white" stroke="black" points="956.5,-239.721 956.5,-263.721 1033.5,-263.721 1033.5,-239.721 956.5,-239.721"/>
<text text-anchor="middle" x="995" y="-250.721" font-family="Helvetica,sans-Serif" font-size="10.00">simulate_midi</text>
</a>
</g>
<!-- Node16&#45;&gt;Node17 -->
<g id="edge40" class="edge"><title>Node16&#45;&gt;Node17</title>
<path fill="none" stroke="midnightblue" d="M928.103,-255.412C937.941,-254.869 947.642,-254.334 956.473,-253.846"/>
<polygon fill="midnightblue" stroke="midnightblue" points="927.622,-251.933 917.83,-255.978 928.008,-258.922 927.622,-251.933"/>
</g>
<!-- Node18 -->
<g id="node39" class="node"><title>Node18</title>
<a xlink:href="arduino__core__6___u_n_o_8cpp.html#ae72d1a8d74d9ab5515962e03e7e664d6" target="_top" xlink:title="arduino_do_analog_in\l_whitecat">
<polygon fill="white" stroke="black" points="1072,-231.721 1072,-271.721 1182,-271.721 1182,-231.721 1072,-231.721"/>
<text text-anchor="start" x="1080" y="-258.721" font-family="Helvetica,sans-Serif" font-size="10.00">arduino_do_analog_in</text>
<text text-anchor="middle" x="1127" y="-242.721" font-family="Helvetica,sans-Serif" font-size="10.00">_whitecat</text>
</a>
</g>
<!-- Node17&#45;&gt;Node18 -->
<g id="edge42" class="edge"><title>Node17&#45;&gt;Node18</title>
<path fill="none" stroke="midnightblue" d="M1043.69,-251.721C1052.9,-251.721 1062.6,-251.721 1071.99,-251.721"/>
<polygon fill="midnightblue" stroke="midnightblue" points="1043.53,-248.221 1033.53,-251.721 1043.53,-255.221 1043.53,-248.221"/>
</g>
<!-- Node20 -->
<g id="node44" class="node"><title>Node20</title>
<a xlink:href="arduino__core__6___u_n_o_8cpp.html#a219226c1cd6cc17c78e62fd4445bb445" target="_top" xlink:title="arduino_do_digital\l_in_whitecat">
<polygon fill="white" stroke="black" points="1079.5,-173.721 1079.5,-213.721 1174.5,-213.721 1174.5,-173.721 1079.5,-173.721"/>
<text text-anchor="start" x="1087.5" y="-200.721" font-family="Helvetica,sans-Serif" font-size="10.00">arduino_do_digital</text>
<text text-anchor="middle" x="1127" y="-184.721" font-family="Helvetica,sans-Serif" font-size="10.00">_in_whitecat</text>
</a>
</g>
<!-- Node17&#45;&gt;Node20 -->
<g id="edge48" class="edge"><title>Node17&#45;&gt;Node20</title>
<path fill="none" stroke="midnightblue" d="M1031.54,-235.666C1046.92,-228.908 1064.98,-220.971 1081.23,-213.83"/>
<polygon fill="midnightblue" stroke="midnightblue" points="1030.1,-232.476 1022.35,-239.703 1032.91,-238.885 1030.1,-232.476"/>
</g>
<!-- Node19 -->
<g id="node41" class="node"><title>Node19</title>
<a xlink:href="_m_a_i_n__avec__objets_8cpp.html#ace9c8a9b37c6087c3cffef442d71d70e" target="_top" xlink:title="dixiemes_de_secondes">
<polygon fill="white" stroke="black" points="1221.5,-181.721 1221.5,-205.721 1340.5,-205.721 1340.5,-181.721 1221.5,-181.721"/>
<text text-anchor="middle" x="1281" y="-192.721" font-family="Helvetica,sans-Serif" font-size="10.00">dixiemes_de_secondes</text>
</a>
</g>
<!-- Node18&#45;&gt;Node19 -->
<g id="edge44" class="edge"><title>Node18&#45;&gt;Node19</title>
<path fill="none" stroke="midnightblue" d="M1189.91,-228.026C1210.13,-220.411 1231.69,-212.29 1248.76,-205.862"/>
<polygon fill="midnightblue" stroke="midnightblue" points="1188.55,-224.798 1180.43,-231.598 1191.02,-231.349 1188.55,-224.798"/>
</g>
<!-- Node19&#45;&gt;Node6 -->
<g id="edge46" class="edge"><title>Node19&#45;&gt;Node6</title>
<path fill="none" stroke="midnightblue" d="M1350.39,-179.608C1361.22,-177.405 1371.57,-175.3 1379.91,-173.603"/>
<polygon fill="midnightblue" stroke="midnightblue" points="1349.45,-176.227 1340.35,-181.65 1350.84,-183.087 1349.45,-176.227"/>
</g>
<!-- Node20&#45;&gt;Node19 -->
<g id="edge50" class="edge"><title>Node20&#45;&gt;Node19</title>
<path fill="none" stroke="midnightblue" d="M1185.13,-193.721C1197.02,-193.721 1209.54,-193.721 1221.47,-193.721"/>
<polygon fill="midnightblue" stroke="midnightblue" points="1184.88,-190.221 1174.88,-193.721 1184.88,-197.221 1184.88,-190.221"/>
</g>
<!-- Node21&#45;&gt;Node8 -->
<g id="edge54" class="edge"><title>Node21&#45;&gt;Node8</title>
<path fill="none" stroke="midnightblue" d="M755.757,-507.55C767.271,-510.625 779.171,-513.804 790.478,-516.824"/>
<polygon fill="midnightblue" stroke="midnightblue" points="756.327,-504.08 745.763,-504.881 754.521,-510.843 756.327,-504.08"/>
</g>
<!-- Node22&#45;&gt;Node10 -->
<g id="edge62" class="edge"><title>Node22&#45;&gt;Node10</title>
<path fill="none" stroke="midnightblue" d="M427.679,-310.488C443.317,-307.391 460.272,-304.235 476,-301.721 537.066,-291.958 608.497,-283.924 651.175,-279.482"/>
<polygon fill="midnightblue" stroke="midnightblue" points="426.735,-307.107 417.619,-312.506 428.112,-313.97 426.735,-307.107"/>
</g>
<!-- Node22&#45;&gt;Node20 -->
<g id="edge60" class="edge"><title>Node22&#45;&gt;Node20</title>
<path fill="none" stroke="midnightblue" d="M400.042,-305.868C447.553,-280.21 543.722,-232.27 632,-212.721 792.796,-177.113 990.015,-184.146 1079.19,-189.95"/>
<polygon fill="midnightblue" stroke="midnightblue" points="398.308,-302.827 391.205,-310.688 401.66,-308.972 398.308,-302.827"/>
</g>
<!-- Node23 -->
<g id="node55" class="node"><title>Node23</title>
<a xlink:href="keyboard__functions2_8cpp.html#a1069ef07040abfea667ec14eeefe7e56" target="_top" xlink:title="key_go">
<polygon fill="white" stroke="black" points="512,-310.721 512,-334.721 560,-334.721 560,-310.721 512,-310.721"/>
<text text-anchor="middle" x="536" y="-321.721" font-family="Helvetica,sans-Serif" font-size="10.00">key_go</text>
</a>
</g>
<!-- Node22&#45;&gt;Node23 -->
<g id="edge64" class="edge"><title>Node22&#45;&gt;Node23</title>
<path fill="none" stroke="midnightblue" d="M427.572,-322.721C456.463,-322.721 489.903,-322.721 511.922,-322.721"/>
<polygon fill="midnightblue" stroke="midnightblue" points="427.569,-319.221 417.569,-322.721 427.569,-326.221 427.569,-319.221"/>
</g>
<!-- Node24 -->
<g id="node58" class="node"><title>Node24</title>
<a xlink:href="sequentiel__6__core_8cpp.html#a152c03ccf49d8d9a457e048daaa48023" target="_top" xlink:title="do_logical_x1_x2">
<polygon fill="white" stroke="black" points="490,-471.721 490,-495.721 582,-495.721 582,-471.721 490,-471.721"/>
<text text-anchor="middle" x="536" y="-482.721" font-family="Helvetica,sans-Serif" font-size="10.00">do_logical_x1_x2</text>
</a>
</g>
<!-- Node22&#45;&gt;Node24 -->
<g id="edge68" class="edge"><title>Node22&#45;&gt;Node24</title>
<path fill="none" stroke="midnightblue" d="M384.846,-343.489C411.168,-380.11 464.347,-453.128 476,-461.721 481.269,-465.605 487.296,-468.868 493.452,-471.589"/>
<polygon fill="midnightblue" stroke="midnightblue" points="387.447,-341.11 378.774,-335.024 381.759,-345.19 387.447,-341.11"/>
</g>
<!-- Node23&#45;&gt;Node13 -->
<g id="edge66" class="edge"><title>Node23&#45;&gt;Node13</title>
<path fill="none" stroke="midnightblue" d="M570.18,-320.267C612.349,-318.235 685.844,-317.957 746,-334.721 746.274,-334.797 796.729,-361.507 827.252,-377.672"/>
<polygon fill="midnightblue" stroke="midnightblue" points="569.956,-316.774 560.161,-320.812 570.336,-323.764 569.956,-316.774"/>
</g>
<!-- Node24&#45;&gt;Node21 -->
<g id="edge70" class="edge"><title>Node24&#45;&gt;Node21</title>
<path fill="none" stroke="midnightblue" d="M592.523,-485.937C605.504,-486.446 619.311,-486.988 632.299,-487.497"/>
<polygon fill="midnightblue" stroke="midnightblue" points="592.45,-482.432 582.32,-485.537 592.175,-489.426 592.45,-482.432"/>
</g>
<!-- Node25&#45;&gt;Node7 -->
<g id="edge74" class="edge"><title>Node25&#45;&gt;Node7</title>
<path fill="none" stroke="midnightblue" d="M432.35,-547.12C450.881,-551.697 470.879,-556.637 488.32,-560.944"/>
<polygon fill="midnightblue" stroke="midnightblue" points="433.071,-543.693 422.523,-544.693 431.392,-550.489 433.071,-543.693"/>
</g>
<!-- Node27&#45;&gt;Node8 -->
<g id="edge88" class="edge"><title>Node27&#45;&gt;Node8</title>
<path fill="none" stroke="midnightblue" d="M224.659,-529.182C245.755,-539.324 274.02,-552.009 300,-560.721 425.92,-602.946 463.835,-614.808 596,-601.721 663.656,-595.021 680.625,-590.384 746,-571.721 764.357,-566.48 784.069,-559.46 801.344,-552.821"/>
<polygon fill="midnightblue" stroke="midnightblue" points="226.028,-525.955 215.505,-524.724 222.964,-532.249 226.028,-525.955"/>
</g>
<!-- Node28&#45;&gt;Node6 -->
<g id="edge92" class="edge"><title>Node28&#45;&gt;Node6</title>
<path fill="none" stroke="midnightblue" d="M236.23,-82.1841C245.847,-79.1631 255.636,-75.117 264,-69.7207 284.659,-56.3919 278.094,-38.8825 300,-27.7207 393.758,20.0533 430.772,-8.72065 536,-8.72065 536,-8.72065 536,-8.72065 1127,-8.72065 1243.88,-8.72065 1354.56,-120.177 1388.45,-157.619"/>
<polygon fill="midnightblue" stroke="midnightblue" points="235.011,-78.8913 226.337,-84.9749 236.911,-85.6284 235.011,-78.8913"/>
</g>
<!-- Node29 -->
<g id="node76" class="node"><title>Node29</title>
<a xlink:href="save__show__13_8cpp.html#a1eafc1ecb75f36c1fe85c967bdea99b0" target="_top" xlink:title="load_the_show">
<polygon fill="white" stroke="black" points="329,-36.7207 329,-60.7207 411,-60.7207 411,-36.7207 329,-36.7207"/>
<text text-anchor="middle" x="370" y="-47.7207" font-family="Helvetica,sans-Serif" font-size="10.00">load_the_show</text>
</a>
</g>
<!-- Node28&#45;&gt;Node29 -->
<g id="edge94" class="edge"><title>Node28&#45;&gt;Node29</title>
<path fill="none" stroke="midnightblue" d="M236.365,-80.2525C264.717,-73.5628 301.222,-64.9492 328.912,-58.4156"/>
<polygon fill="midnightblue" stroke="midnightblue" points="235.249,-76.9196 226.32,-82.6226 236.857,-83.7325 235.249,-76.9196"/>
</g>
<!-- Node35 -->
<g id="node90" class="node"><title>Node35</title>
<a xlink:href="save__show__13_8cpp.html#a2c8ff847dfaf2dc6c8765b2bee26edfc" target="_top" xlink:title="do_wizard_reload_from_disk">
<polygon fill="white" stroke="black" points="300,-78.7207 300,-102.721 440,-102.721 440,-78.7207 300,-78.7207"/>
<text text-anchor="middle" x="370" y="-89.7207" font-family="Helvetica,sans-Serif" font-size="10.00">do_wizard_reload_from_disk</text>
</a>
</g>
<!-- Node28&#45;&gt;Node35 -->
<g id="edge110" class="edge"><title>Node28&#45;&gt;Node35</title>
<path fill="none" stroke="midnightblue" d="M236.52,-90.7207C255.619,-90.7207 278.397,-90.7207 299.682,-90.7207"/>
<polygon fill="midnightblue" stroke="midnightblue" points="236.32,-87.2208 226.32,-90.7207 236.32,-94.2208 236.32,-87.2208"/>
</g>
<!-- Node30 -->
<g id="node78" class="node"><title>Node30</title>
<a xlink:href="logicals__intres_8cpp.html#a74cf9c04c734ab342f88799efbfc4210" target="_top" xlink:title="operations_confirmation">
<polygon fill="white" stroke="black" points="476,-78.7207 476,-102.721 596,-102.721 596,-78.7207 476,-78.7207"/>
<text text-anchor="middle" x="536" y="-89.7207" font-family="Helvetica,sans-Serif" font-size="10.00">operations_confirmation</text>
</a>
</g>
<!-- Node29&#45;&gt;Node30 -->
<g id="edge96" class="edge"><title>Node29&#45;&gt;Node30</title>
<path fill="none" stroke="midnightblue" d="M420.953,-61.6125C442.427,-67.0455 467.281,-73.334 488.382,-78.6728"/>
<polygon fill="midnightblue" stroke="midnightblue" points="421.587,-58.1625 411.034,-59.1027 419.87,-64.9487 421.587,-58.1625"/>
</g>
<!-- Node31 -->
<g id="node80" class="node"><title>Node31</title>
<a xlink:href="keyboard__functions2_8cpp.html#a548548066307f816c5021de7d6e4f26a" target="_top" xlink:title="key_affectation">
<polygon fill="white" stroke="black" points="647.5,-221.721 647.5,-245.721 730.5,-245.721 730.5,-221.721 647.5,-221.721"/>
<text text-anchor="middle" x="689" y="-232.721" font-family="Helvetica,sans-Serif" font-size="10.00">key_affectation</text>
</a>
</g>
<!-- Node30&#45;&gt;Node31 -->
<g id="edge98" class="edge"><title>Node30&#45;&gt;Node31</title>
<path fill="none" stroke="midnightblue" d="M580.887,-107.219C586.209,-110.016 591.383,-113.181 596,-116.721 635.744,-147.189 668.42,-198.217 682.096,-221.487"/>
<polygon fill="midnightblue" stroke="midnightblue" points="582.39,-104.057 571.864,-102.855 579.343,-110.359 582.39,-104.057"/>
</g>
<!-- Node32 -->
<g id="node83" class="node"><title>Node32</title>
<a xlink:href="logicals__intres_8cpp.html#a85967c22135715eca94d08af2ec1a1fb" target="_top" xlink:title="fenetre_confirm">
<polygon fill="white" stroke="black" points="647,-91.7207 647,-115.721 731,-115.721 731,-91.7207 647,-91.7207"/>
<text text-anchor="middle" x="689" y="-102.721" font-family="Helvetica,sans-Serif" font-size="10.00">fenetre_confirm</text>
</a>
</g>
<!-- Node30&#45;&gt;Node32 -->
<g id="edge102" class="edge"><title>Node30&#45;&gt;Node32</title>
<path fill="none" stroke="midnightblue" d="M606.042,-96.6719C619.897,-97.8491 634.035,-99.0505 646.624,-100.12"/>
<polygon fill="midnightblue" stroke="midnightblue" points="606.291,-93.1806 596.031,-95.8213 605.698,-100.155 606.291,-93.1806"/>
</g>
<!-- Node31&#45;&gt;Node13 -->
<g id="edge100" class="edge"><title>Node31&#45;&gt;Node13</title>
<path fill="none" stroke="midnightblue" d="M739.236,-249.105C741.663,-250.789 743.942,-252.654 746,-254.721 779.036,-287.896 751.258,-318.409 782,-353.721 791.034,-364.098 803.807,-371.952 815.847,-377.634"/>
<polygon fill="midnightblue" stroke="midnightblue" points="740.921,-246.037 730.513,-244.056 737.414,-252.095 740.921,-246.037"/>
</g>
<!-- Node33 -->
<g id="node85" class="node"><title>Node33</title>
<a xlink:href="graphics__rebuild1_8cpp.html#ac2eae1e03fb72cc734ffbcef566483bf" target="_top" xlink:title="Boxes">
<polygon fill="white" stroke="black" points="828,-117.721 828,-141.721 872,-141.721 872,-117.721 828,-117.721"/>
<text text-anchor="middle" x="850" y="-128.721" font-family="Helvetica,sans-Serif" font-size="10.00">Boxes</text>
</a>
</g>
<!-- Node32&#45;&gt;Node33 -->
<g id="edge104" class="edge"><title>Node32&#45;&gt;Node33</title>
<path fill="none" stroke="midnightblue" d="M741.384,-112.18C770.646,-116.906 805.576,-122.547 827.772,-126.131"/>
<polygon fill="midnightblue" stroke="midnightblue" points="741.731,-108.691 731.301,-110.552 740.615,-115.601 741.731,-108.691"/>
</g>
<!-- Node34 -->
<g id="node87" class="node"><title>Node34</title>
<a xlink:href="_m_a_i_n__avec__objets_8cpp.html#ade8d4ba65d55c94f8ee277829d722155" target="_top" xlink:title="main_actions_on_screen">
<polygon fill="white" stroke="black" points="1218.5,-133.721 1218.5,-157.721 1343.5,-157.721 1343.5,-133.721 1218.5,-133.721"/>
<text text-anchor="middle" x="1281" y="-144.721" font-family="Helvetica,sans-Serif" font-size="10.00">main_actions_on_screen</text>
</a>
</g>
<!-- Node33&#45;&gt;Node34 -->
<g id="edge106" class="edge"><title>Node33&#45;&gt;Node34</title>
<path fill="none" stroke="midnightblue" d="M882.436,-130.925C953.782,-133.573 1125.37,-139.943 1218.44,-143.398"/>
<polygon fill="midnightblue" stroke="midnightblue" points="882.388,-127.421 872.265,-130.547 882.128,-134.416 882.388,-127.421"/>
</g>
<!-- Node34&#45;&gt;Node6 -->
<g id="edge108" class="edge"><title>Node34&#45;&gt;Node6</title>
<path fill="none" stroke="midnightblue" d="M1350.39,-159.833C1361.22,-162.036 1371.57,-164.141 1379.91,-165.839"/>
<polygon fill="midnightblue" stroke="midnightblue" points="1350.84,-156.354 1340.35,-157.791 1349.45,-163.214 1350.84,-156.354"/>
</g>
<!-- Node35&#45;&gt;Node30 -->
<g id="edge112" class="edge"><title>Node35&#45;&gt;Node30</title>
<path fill="none" stroke="midnightblue" d="M450.451,-90.7207C459.047,-90.7207 467.679,-90.7207 475.979,-90.7207"/>
<polygon fill="midnightblue" stroke="midnightblue" points="450.399,-87.2208 440.399,-90.7207 450.399,-94.2208 450.399,-87.2208"/>
</g>
</g>
</svg>
