<?xml version="1.0" encoding="UTF-8" standalone="no"?>
<!DOCTYPE svg PUBLIC "-//W3C//DTD SVG 1.1//EN"
 "http://www.w3.org/Graphics/SVG/1.1/DTD/svg11.dtd">
<!-- Generated by graphviz version 2.26.3 (20100126.1600)
 -->
<!-- Title: do_double_go_function Pages: 1 -->
<svg width="576pt" height="212pt"
 viewBox="0.00 0.00 576.00 212.17" xmlns="http://www.w3.org/2000/svg" xmlns:xlink="http://www.w3.org/1999/xlink">
<g id="graph1" class="graph" transform="scale(1 1) rotate(0) translate(4 208.173)">
<title>do_double_go_function</title>
<polygon fill="white" stroke="white" points="-4,5 -4,-208.173 573,-208.173 573,5 -4,5"/>
<!-- Node1 -->
<g id="node1" class="node"><title>Node1</title>
<polygon fill="#bfbfbf" stroke="black" points="0,-80.1734 0,-104.173 116,-104.173 116,-80.1734 0,-80.1734"/>
<text text-anchor="middle" x="58" y="-91.1734" font-family="Helvetica,sans-Serif" font-size="10.00">do_double_go_function</text>
</g>
<!-- Node2 -->
<g id="node3" class="node"><title>Node2</title>
<a xlink:href="_c_o_r_e__6_8cpp.html#a30cbf636d9bf3de2518c9f2da7252d7c" target="_top" xlink:title="reset_modified_levels\l_in_crossfade">
<polygon fill="white" stroke="black" points="154.5,-164.173 154.5,-204.173 265.5,-204.173 265.5,-164.173 154.5,-164.173"/>
<text text-anchor="start" x="162.5" y="-191.173" font-family="Helvetica,sans-Serif" font-size="10.00">reset_modified_levels</text>
<text text-anchor="middle" x="210" y="-175.173" font-family="Helvetica,sans-Serif" font-size="10.00">_in_crossfade</text>
</a>
</g>
<!-- Node1&#45;&gt;Node2 -->
<g id="edge2" class="edge"><title>Node1&#45;&gt;Node2</title>
<path fill="none" stroke="midnightblue" d="M74.5684,-104.215C93.0325,-117.41 123.984,-138.869 152,-155.173 154.337,-156.533 156.746,-157.893 159.192,-159.241"/>
<polygon fill="midnightblue" stroke="midnightblue" points="157.69,-162.407 168.157,-164.049 160.998,-156.238 157.69,-162.407"/>
</g>
<!-- Node3 -->
<g id="node5" class="node"><title>Node3</title>
<a xlink:href="_c_o_r_e__6_8cpp.html#a68c3767f8e350737e991a726e0ef1438" target="_top" xlink:title="refresh_mem_onpreset">
<polygon fill="white" stroke="black" points="152,-122.173 152,-146.173 268,-146.173 268,-122.173 152,-122.173"/>
<text text-anchor="middle" x="210" y="-133.173" font-family="Helvetica,sans-Serif" font-size="10.00">refresh_mem_onpreset</text>
</a>
</g>
<!-- Node1&#45;&gt;Node3 -->
<g id="edge4" class="edge"><title>Node1&#45;&gt;Node3</title>
<path fill="none" stroke="midnightblue" d="M101.557,-104.209C118.729,-108.954 138.622,-114.451 156.645,-119.431"/>
<polygon fill="midnightblue" stroke="midnightblue" points="155.866,-122.846 166.437,-122.136 157.73,-116.099 155.866,-122.846"/>
</g>
<!-- Node4 -->
<g id="node7" class="node"><title>Node4</title>
<a xlink:href="_c_o_r_e__6_8cpp.html#a5c17b7c708caee1d7ff53ba997ad0d83" target="_top" xlink:title="prepare_crossfade">
<polygon fill="white" stroke="black" points="161.5,-80.1734 161.5,-104.173 258.5,-104.173 258.5,-80.1734 161.5,-80.1734"/>
<text text-anchor="middle" x="210" y="-91.1734" font-family="Helvetica,sans-Serif" font-size="10.00">prepare_crossfade</text>
</a>
</g>
<!-- Node1&#45;&gt;Node4 -->
<g id="edge6" class="edge"><title>Node1&#45;&gt;Node4</title>
<path fill="none" stroke="midnightblue" d="M116.332,-92.1734C127.742,-92.1734 139.714,-92.1734 151.14,-92.1734"/>
<polygon fill="midnightblue" stroke="midnightblue" points="151.449,-95.6735 161.449,-92.1734 151.449,-88.6735 151.449,-95.6735"/>
</g>
<!-- Node5 -->
<g id="node9" class="node"><title>Node5</title>
<a xlink:href="_c_o_r_e__6_8cpp.html#a68896df3fd9c10332440a34a96dfbc68" target="_top" xlink:title="refresh_integrated\l_gridplayer1">
<polygon fill="white" stroke="black" points="162.5,-22.1734 162.5,-62.1734 257.5,-62.1734 257.5,-22.1734 162.5,-22.1734"/>
<text text-anchor="start" x="170.5" y="-49.1734" font-family="Helvetica,sans-Serif" font-size="10.00">refresh_integrated</text>
<text text-anchor="middle" x="210" y="-33.1734" font-family="Helvetica,sans-Serif" font-size="10.00">_gridplayer1</text>
</a>
</g>
<!-- Node1&#45;&gt;Node5 -->
<g id="edge8" class="edge"><title>Node1&#45;&gt;Node5</title>
<path fill="none" stroke="midnightblue" d="M94.795,-80.0698C112.157,-74.3585 133.279,-67.4105 152.672,-61.0313"/>
<polygon fill="midnightblue" stroke="midnightblue" points="153.921,-64.305 162.327,-57.8555 151.734,-57.6556 153.921,-64.305"/>
</g>
<!-- Node6 -->
<g id="node11" class="node"><title>Node6</title>
<a xlink:href="grider__calculs8_8cpp.html#aa5e2775d1f19c4fddd0e6ed08b511e96" target="_top" xlink:title="gridder_prepare_cross">
<polygon fill="white" stroke="black" points="304.5,-6.17342 304.5,-30.1734 417.5,-30.1734 417.5,-6.17342 304.5,-6.17342"/>
<text text-anchor="middle" x="361" y="-17.1734" font-family="Helvetica,sans-Serif" font-size="10.00">gridder_prepare_cross</text>
</a>
</g>
<!-- Node1&#45;&gt;Node6 -->
<g id="edge14" class="edge"><title>Node1&#45;&gt;Node6</title>
<path fill="none" stroke="midnightblue" d="M67.3787,-80.1284C82.7094,-61.5392 115.147,-26.6032 152,-13.1734 198.093,3.62331 253.776,1.28937 296.072,-4.65623"/>
<polygon fill="midnightblue" stroke="midnightblue" points="295.565,-8.11925 305.975,-6.14782 296.608,-1.19733 295.565,-8.11925"/>
</g>
<!-- Node5&#45;&gt;Node6 -->
<g id="edge10" class="edge"><title>Node5&#45;&gt;Node6</title>
<path fill="none" stroke="midnightblue" d="M257.777,-34.5797C269.32,-32.745 281.867,-30.7508 294.108,-28.8052"/>
<polygon fill="midnightblue" stroke="midnightblue" points="294.963,-32.2134 304.29,-27.187 293.864,-25.3001 294.963,-32.2134"/>
</g>
<!-- Node7 -->
<g id="node13" class="node"><title>Node7</title>
<a xlink:href="grider__calculs8_8cpp.html#aa649acadfb5dcef5c313de19ddcb2290" target="_top" xlink:title="affichage_time_format">
<polygon fill="white" stroke="black" points="454.5,-6.17342 454.5,-30.1734 567.5,-30.1734 567.5,-6.17342 454.5,-6.17342"/>
<text text-anchor="middle" x="511" y="-17.1734" font-family="Helvetica,sans-Serif" font-size="10.00">affichage_time_format</text>
</a>
</g>
<!-- Node6&#45;&gt;Node7 -->
<g id="edge12" class="edge"><title>Node6&#45;&gt;Node7</title>
<path fill="none" stroke="midnightblue" d="M417.709,-18.1734C426.295,-18.1734 435.223,-18.1734 444.002,-18.1734"/>
<polygon fill="midnightblue" stroke="midnightblue" points="444.211,-21.6735 454.211,-18.1734 444.211,-14.6735 444.211,-21.6735"/>
</g>
</g>
</svg>
