<?xml version="1.0" encoding="UTF-8" standalone="no"?>
<!DOCTYPE svg PUBLIC "-//W3C//DTD SVG 1.1//EN"
 "http://www.w3.org/Graphics/SVG/1.1/DTD/svg11.dtd">
<!-- Generated by graphviz version 2.26.3 (20100126.1600)
 -->
<!-- Title: refresh_stage Pages: 1 -->
<!--zoomable 355 -->
<svg id="main" version="1.1" xmlns="http://www.w3.org/2000/svg" xmlns:xlink="http://www.w3.org/1999/xlink" xml:space="preserve" onload="init(evt)">
<style type="text/css"><![CDATA[
.edge:hover path { stroke: red; }
.edge:hover polygon { stroke: red; fill: red; }
]]></style>
<script type="text/javascript"><![CDATA[
var edges = document.getElementsByTagName('g');
if (edges && edges.length) {
  for (var i=0;i<edges.length;i++) {
    if (edges[i].id.substr(0,4)=='edge') {
      edges[i].setAttribute('class','edge');
    }
  }
}
]]></script>
        <defs>
                <circle id="rim" cx="0" cy="0" r="7"/>
                <circle id="rim2" cx="0" cy="0" r="3.5"/>
                <g id="zoomPlus">
                        <use xlink:href="#rim" fill="#404040">
                                <set attributeName="fill" to="#808080" begin="zoomplus.mouseover" end="zoomplus.mouseout"/>
                        </use>
                        <path d="M-4,0h8M0,-4v8" fill="none" stroke="white" stroke-width="1.5" pointer-events="none"/>
                </g>
                <g id="zoomMin">
                        <use xlink:href="#rim" fill="#404040">
                                <set attributeName="fill" to="#808080" begin="zoomminus.mouseover" end="zoomminus.mouseout"/>
                        </use>
                        <path d="M-4,0h8" fill="none" stroke="white" stroke-width="1.5" pointer-events="none"/>
                </g>
                <g id="dirArrow">
                        <path fill="none" stroke="white" stroke-width="1.5" d="M0,-3.0v7 M-2.5,-0.5L0,-3.0L2.5,-0.5"/>
                </g>
               <g id="resetDef">
                       <use xlink:href="#rim2" fill="#404040">
                               <set attributeName="fill" to="#808080" begin="reset.mouseover" end="reset.mouseout"/>
                       </use>
               </g>
        </defs>

<script type="text/javascript">
var viewWidth = 2050;
var viewHeight = 355;
var sectionId = 'dynsection-158';
</script>
<script xlink:href="svgpan.js"/>
<svg id="graph" class="graph">
<g id="viewport">
<title>refresh_stage</title>
<polygon fill="white" stroke="white" points="-4,5 -4,-351 2047,-351 2047,5 -4,5"/>
<!-- Node1 -->
<g id="node1" class="node"><title>Node1</title>
<polygon fill="#bfbfbf" stroke="black" points="0,-123 0,-147 76,-147 76,-123 0,-123"/>
<text text-anchor="middle" x="38" y="-134" font-family="Helvetica,sans-Serif" font-size="10.00">refresh_stage</text>
</g>
<!-- Node2 -->
<g id="node3" class="node"><title>Node2</title>
<a xlink:href="banger__core__8_8cpp.html#ae4008269e0575da11cc90e812961ef6f" target="_top" xlink:title="Bang_event">
<polygon fill="white" stroke="black" points="117,-165 117,-189 185,-189 185,-165 117,-165"/>
<text text-anchor="middle" x="151" y="-176" font-family="Helvetica,sans-Serif" font-size="10.00">Bang_event</text>
</a>
</g>
<!-- Node1&#45;&gt;Node2 -->
<g id="edge2" class="edge"><title>Node1&#45;&gt;Node2</title>
<path fill="none" stroke="midnightblue" d="M79.9054,-150.575C92.6953,-155.329 106.556,-160.481 118.614,-164.963"/>
<polygon fill="midnightblue" stroke="midnightblue" points="80.9742,-147.239 70.3813,-147.036 78.5353,-153.8 80.9742,-147.239"/>
</g>
<!-- Node33 -->
<g id="node77" class="node"><title>Node33</title>
<a xlink:href="wizard__operations_8cpp.html#a01d03bd8afac2870d62703323b90d98b" target="_top" xlink:title="do_wizard_ch">
<polygon fill="white" stroke="black" points="112.5,-81 112.5,-105 189.5,-105 189.5,-81 112.5,-81"/>
<text text-anchor="middle" x="151" y="-92" font-family="Helvetica,sans-Serif" font-size="10.00">do_wizard_ch</text>
</a>
</g>
<!-- Node1&#45;&gt;Node33 -->
<g id="edge88" class="edge"><title>Node1&#45;&gt;Node33</title>
<path fill="none" stroke="midnightblue" d="M79.9054,-119.425C92.6953,-114.671 106.556,-109.519 118.614,-105.037"/>
<polygon fill="midnightblue" stroke="midnightblue" points="78.5353,-116.2 70.3813,-122.964 80.9742,-122.761 78.5353,-116.2"/>
</g>
<!-- Node3 -->
<g id="node5" class="node"><title>Node3</title>
<a xlink:href="banger__core__8_8cpp.html#a4003a08a1620546de77b118c91d2fd9d" target="_top" xlink:title="do_bang">
<polygon fill="white" stroke="black" points="259.5,-323 259.5,-347 312.5,-347 312.5,-323 259.5,-323"/>
<text text-anchor="middle" x="286" y="-334" font-family="Helvetica,sans-Serif" font-size="10.00">do_bang</text>
</a>
</g>
<!-- Node2&#45;&gt;Node3 -->
<g id="edge4" class="edge"><title>Node2&#45;&gt;Node3</title>
<path fill="none" stroke="midnightblue" d="M161.046,-198.239C173.676,-223.396 197.226,-265.591 226,-295 236.857,-306.096 251.273,-315.828 263.254,-322.913"/>
<polygon fill="midnightblue" stroke="midnightblue" points="164.154,-196.628 156.607,-189.191 157.87,-199.711 164.154,-196.628"/>
</g>
<!-- Node6 -->
<g id="node11" class="node"><title>Node6</title>
<a xlink:href="banger__core__8_8cpp.html#a4fe16ad483c0c1609d97aeb9a23c74ee" target="_top" xlink:title="do_logical_fenetre\l_banger">
<polygon fill="white" stroke="black" points="238.5,-246 238.5,-286 333.5,-286 333.5,-246 238.5,-246"/>
<text text-anchor="start" x="246.5" y="-273" font-family="Helvetica,sans-Serif" font-size="10.00">do_logical_fenetre</text>
<text text-anchor="middle" x="286" y="-257" font-family="Helvetica,sans-Serif" font-size="10.00">_banger</text>
</a>
</g>
<!-- Node2&#45;&gt;Node6 -->
<g id="edge10" class="edge"><title>Node2&#45;&gt;Node6</title>
<path fill="none" stroke="midnightblue" d="M177.57,-194.517C199.96,-209.278 232.003,-230.402 255.449,-245.859"/>
<polygon fill="midnightblue" stroke="midnightblue" points="179.482,-191.585 169.207,-189.003 175.629,-197.429 179.482,-191.585"/>
</g>
<!-- Node8 -->
<g id="node16" class="node"><title>Node8</title>
<a xlink:href="banger__core__8_8cpp.html#ab405ab53ea444b049e5ffa258498fcb6" target="_top" xlink:title="refresh_banger_wx">
<polygon fill="white" stroke="black" points="236.5,-165 236.5,-189 335.5,-189 335.5,-165 236.5,-165"/>
<text text-anchor="middle" x="286" y="-176" font-family="Helvetica,sans-Serif" font-size="10.00">refresh_banger_wx</text>
</a>
</g>
<!-- Node2&#45;&gt;Node8 -->
<g id="edge16" class="edge"><title>Node2&#45;&gt;Node8</title>
<path fill="none" stroke="midnightblue" d="M195.28,-177C208.43,-177 222.918,-177 236.384,-177"/>
<polygon fill="midnightblue" stroke="midnightblue" points="195.066,-173.5 185.066,-177 195.066,-180.5 195.066,-173.5"/>
</g>
<!-- Node14 -->
<g id="node31" class="node"><title>Node14</title>
<a xlink:href="midi__13_8cpp.html#a6dff3d42682b58cc0a9875ee30fb4cd4" target="_top" xlink:title="do_midi_job">
<polygon fill="white" stroke="black" points="405,-81 405,-105 473,-105 473,-81 405,-81"/>
<text text-anchor="middle" x="439" y="-92" font-family="Helvetica,sans-Serif" font-size="10.00">do_midi_job</text>
</a>
</g>
<!-- Node2&#45;&gt;Node14 -->
<g id="edge86" class="edge"><title>Node2&#45;&gt;Node14</title>
<path fill="none" stroke="midnightblue" d="M195.082,-164.143C252.759,-147.32 352.614,-118.196 404.876,-102.953"/>
<polygon fill="midnightblue" stroke="midnightblue" points="193.788,-160.874 185.168,-167.034 195.748,-167.594 193.788,-160.874"/>
</g>
<!-- Node4 -->
<g id="node7" class="node"><title>Node4</title>
<a xlink:href="_m_a_i_n__avec__objets_8cpp.html#a8e80f54ac804eddce8ed6e45adb1db44" target="_top" xlink:title="ticker_full_loop">
<polygon fill="white" stroke="black" points="704,-207 704,-231 786,-231 786,-207 704,-207"/>
<text text-anchor="middle" x="745" y="-218" font-family="Helvetica,sans-Serif" font-size="10.00">ticker_full_loop</text>
</a>
</g>
<!-- Node3&#45;&gt;Node4 -->
<g id="edge6" class="edge"><title>Node3&#45;&gt;Node4</title>
<path fill="none" stroke="midnightblue" d="M322.856,-339.479C393.673,-346.405 552.008,-353.657 668,-298 699.427,-282.92 725.087,-249.353 737.296,-231.207"/>
<polygon fill="midnightblue" stroke="midnightblue" points="322.967,-335.971 312.66,-338.423 322.246,-342.934 322.967,-335.971"/>
</g>
<!-- Node5 -->
<g id="node9" class="node"><title>Node5</title>
<a xlink:href="_m_a_i_n__avec__objets_8cpp.html#ae66f6b31b5ad750f1fe042a706a4e3d4" target="_top" xlink:title="main">
<polygon fill="white" stroke="black" points="2004,-118 2004,-142 2042,-142 2042,-118 2004,-118"/>
<text text-anchor="middle" x="2023" y="-129" font-family="Helvetica,sans-Serif" font-size="10.00">main</text>
</a>
</g>
<!-- Node4&#45;&gt;Node5 -->
<g id="edge8" class="edge"><title>Node4&#45;&gt;Node5</title>
<path fill="none" stroke="midnightblue" d="M796.386,-218.709C853.091,-218.414 947.057,-218 1028,-218 1028,-218 1028,-218 1784,-218 1870.89,-218 1965.2,-166.152 2004.35,-142.052"/>
<polygon fill="midnightblue" stroke="midnightblue" points="796.225,-215.21 786.243,-218.763 796.262,-222.21 796.225,-215.21"/>
</g>
<!-- Node7 -->
<g id="node13" class="node"><title>Node7</title>
<a xlink:href="procs__visuels__rebuild1_8cpp.html#ae710b6e599e321ad5934a90140067054" target="_top" xlink:title="check_graphics_mouse\l_handling">
<polygon fill="white" stroke="black" points="540.5,-249 540.5,-289 659.5,-289 659.5,-249 540.5,-249"/>
<text text-anchor="start" x="548.5" y="-276" font-family="Helvetica,sans-Serif" font-size="10.00">check_graphics_mouse</text>
<text text-anchor="middle" x="600" y="-260" font-family="Helvetica,sans-Serif" font-size="10.00">_handling</text>
</a>
</g>
<!-- Node6&#45;&gt;Node7 -->
<g id="edge12" class="edge"><title>Node6&#45;&gt;Node7</title>
<path fill="none" stroke="midnightblue" d="M343.431,-288.467C355.956,-292.424 369.274,-295.935 382,-298 432.012,-306.116 445.801,-304.868 496,-298 510.579,-296.005 525.995,-292.507 540.365,-288.615"/>
<polygon fill="midnightblue" stroke="midnightblue" points="344.175,-285.027 333.582,-285.216 341.981,-291.674 344.175,-285.027"/>
</g>
<!-- Node7&#45;&gt;Node4 -->
<g id="edge14" class="edge"><title>Node7&#45;&gt;Node4</title>
<path fill="none" stroke="midnightblue" d="M667.658,-245.67C682.235,-240.643 697.074,-235.526 709.804,-231.137"/>
<polygon fill="midnightblue" stroke="midnightblue" points="666.454,-242.382 658.142,-248.951 668.736,-249 666.454,-242.382"/>
</g>
<!-- Node9 -->
<g id="node18" class="node"><title>Node9</title>
<a xlink:href="i_cat14_8cpp.html#a16285241f82898e7a5f051b03d90b9a3" target="_top" xlink:title="check_button">
<polygon fill="white" stroke="black" points="401.5,-207 401.5,-231 476.5,-231 476.5,-207 401.5,-207"/>
<text text-anchor="middle" x="439" y="-218" font-family="Helvetica,sans-Serif" font-size="10.00">check_button</text>
</a>
</g>
<!-- Node8&#45;&gt;Node9 -->
<g id="edge18" class="edge"><title>Node8&#45;&gt;Node9</title>
<path fill="none" stroke="midnightblue" d="M339.63,-191.722C360.013,-197.317 382.781,-203.567 401.376,-208.672"/>
<polygon fill="midnightblue" stroke="midnightblue" points="340.413,-188.308 329.844,-189.036 338.56,-195.058 340.413,-188.308"/>
</g>
<!-- Node11 -->
<g id="node23" class="node"><title>Node11</title>
<a xlink:href="keyboard__functions2_8cpp.html#af3dd6697323b10b480719c1612bcf29a" target="_top" xlink:title="key_backward">
<polygon fill="white" stroke="black" points="399,-165 399,-189 479,-189 479,-165 399,-165"/>
<text text-anchor="middle" x="439" y="-176" font-family="Helvetica,sans-Serif" font-size="10.00">key_backward</text>
</a>
</g>
<!-- Node8&#45;&gt;Node11 -->
<g id="edge24" class="edge"><title>Node8&#45;&gt;Node11</title>
<path fill="none" stroke="midnightblue" d="M345.929,-177C363.642,-177 382.6,-177 398.753,-177"/>
<polygon fill="midnightblue" stroke="midnightblue" points="345.675,-173.5 335.675,-177 345.675,-180.5 345.675,-173.5"/>
</g>
<!-- Node13 -->
<g id="node28" class="node"><title>Node13</title>
<a xlink:href="keyboard__functions2_8cpp.html#a6b73a3669797504ce2e357d9a8b9a2c2" target="_top" xlink:title="key_forward">
<polygon fill="white" stroke="black" points="404,-123 404,-147 474,-147 474,-123 404,-123"/>
<text text-anchor="middle" x="439" y="-134" font-family="Helvetica,sans-Serif" font-size="10.00">key_forward</text>
</a>
</g>
<!-- Node8&#45;&gt;Node13 -->
<g id="edge30" class="edge"><title>Node8&#45;&gt;Node13</title>
<path fill="none" stroke="midnightblue" d="M339.732,-162.25C361.015,-156.408 384.886,-149.855 403.885,-144.639"/>
<polygon fill="midnightblue" stroke="midnightblue" points="338.56,-158.942 329.844,-164.964 340.413,-165.692 338.56,-158.942"/>
</g>
<!-- Node8&#45;&gt;Node14 -->
<g id="edge34" class="edge"><title>Node8&#45;&gt;Node14</title>
<path fill="none" stroke="midnightblue" d="M310.261,-158.842C329.132,-145.282 356.336,-126.936 382,-114 389.157,-110.392 397.089,-107.076 404.704,-104.196"/>
<polygon fill="midnightblue" stroke="midnightblue" points="307.986,-156.169 301.962,-164.884 312.106,-161.828 307.986,-156.169"/>
</g>
<!-- Node32 -->
<g id="node73" class="node"><title>Node32</title>
<a xlink:href="sequentiel__6__core_8cpp.html#a2a71c851cf25565491dd10423bc80380" target="_top" xlink:title="do_logical_Sequenciel\l_Window">
<polygon fill="white" stroke="black" points="382.5,-249 382.5,-289 495.5,-289 495.5,-249 382.5,-249"/>
<text text-anchor="start" x="390.5" y="-276" font-family="Helvetica,sans-Serif" font-size="10.00">do_logical_Sequenciel</text>
<text text-anchor="middle" x="439" y="-260" font-family="Helvetica,sans-Serif" font-size="10.00">_Window</text>
</a>
</g>
<!-- Node8&#45;&gt;Node32 -->
<g id="edge82" class="edge"><title>Node8&#45;&gt;Node32</title>
<path fill="none" stroke="midnightblue" d="M311.76,-195.018C330.815,-208.071 357.587,-225.837 382,-240 387.186,-243.009 392.72,-246.038 398.225,-248.946"/>
<polygon fill="midnightblue" stroke="midnightblue" points="313.547,-191.999 303.327,-189.205 309.574,-197.762 313.547,-191.999"/>
</g>
<!-- Node10 -->
<g id="node20" class="node"><title>Node10</title>
<a xlink:href="i_cat14_8cpp.html#aa9772b548765a631d4bae1c14053b4e1" target="_top" xlink:title="DoJobFantastickTouch">
<polygon fill="white" stroke="black" points="541.5,-207 541.5,-231 658.5,-231 658.5,-207 541.5,-207"/>
<text text-anchor="middle" x="600" y="-218" font-family="Helvetica,sans-Serif" font-size="10.00">DoJobFantastickTouch</text>
</a>
</g>
<!-- Node9&#45;&gt;Node10 -->
<g id="edge20" class="edge"><title>Node9&#45;&gt;Node10</title>
<path fill="none" stroke="midnightblue" d="M487.039,-219C504.111,-219 523.521,-219 541.378,-219"/>
<polygon fill="midnightblue" stroke="midnightblue" points="486.747,-215.5 476.747,-219 486.747,-222.5 486.747,-215.5"/>
</g>
<!-- Node10&#45;&gt;Node4 -->
<g id="edge22" class="edge"><title>Node10&#45;&gt;Node4</title>
<path fill="none" stroke="midnightblue" d="M668.913,-219C680.77,-219 692.754,-219 703.594,-219"/>
<polygon fill="midnightblue" stroke="midnightblue" points="668.559,-215.5 658.559,-219 668.559,-222.5 668.559,-215.5"/>
</g>
<!-- Node12 -->
<g id="node25" class="node"><title>Node12</title>
<a xlink:href="keyboard__routines2_8cpp.html#a8563320b8eab661232619224650de244" target="_top" xlink:title="commandes_clavier">
<polygon fill="white" stroke="black" points="548,-144 548,-168 652,-168 652,-144 548,-144"/>
<text text-anchor="middle" x="600" y="-155" font-family="Helvetica,sans-Serif" font-size="10.00">commandes_clavier</text>
</a>
</g>
<!-- Node11&#45;&gt;Node12 -->
<g id="edge26" class="edge"><title>Node11&#45;&gt;Node12</title>
<path fill="none" stroke="midnightblue" d="M489.27,-170.443C507.898,-168.013 529.053,-165.254 547.845,-162.803"/>
<polygon fill="midnightblue" stroke="midnightblue" points="488.675,-166.991 479.212,-171.755 489.581,-173.932 488.675,-166.991"/>
</g>
<!-- Node12&#45;&gt;Node4 -->
<g id="edge28" class="edge"><title>Node12&#45;&gt;Node4</title>
<path fill="none" stroke="midnightblue" d="M637.446,-172.27C662.336,-183.084 694.485,-197.052 717.128,-206.89"/>
<polygon fill="midnightblue" stroke="midnightblue" points="638.524,-168.922 627.957,-168.147 635.734,-175.342 638.524,-168.922"/>
</g>
<!-- Node13&#45;&gt;Node12 -->
<g id="edge32" class="edge"><title>Node13&#45;&gt;Node12</title>
<path fill="none" stroke="midnightblue" d="M484.326,-140.912C504.115,-143.493 527.436,-146.535 547.934,-149.209"/>
<polygon fill="midnightblue" stroke="midnightblue" points="484.701,-137.431 474.332,-139.609 483.795,-144.373 484.701,-137.431"/>
</g>
<!-- Node15 -->
<g id="node33" class="node"><title>Node15</title>
<a xlink:href="midi__13_8cpp.html#a6bedf9750195224914cd87c4e73ab626" target="_top" xlink:title="ventilate_midi_to_midiarray">
<polygon fill="white" stroke="black" points="532.5,-81 532.5,-105 667.5,-105 667.5,-81 532.5,-81"/>
<text text-anchor="middle" x="600" y="-92" font-family="Helvetica,sans-Serif" font-size="10.00">ventilate_midi_to_midiarray</text>
</a>
</g>
<!-- Node14&#45;&gt;Node15 -->
<g id="edge36" class="edge"><title>Node14&#45;&gt;Node15</title>
<path fill="none" stroke="midnightblue" d="M483.272,-93C498.455,-93 515.811,-93 532.414,-93"/>
<polygon fill="midnightblue" stroke="midnightblue" points="483.144,-89.5001 473.144,-93 483.144,-96.5001 483.144,-89.5001"/>
</g>
<!-- Node16 -->
<g id="node35" class="node"><title>Node16</title>
<a xlink:href="midi__13_8cpp.html#afa49dd5668303c2448676c8243737c2d" target="_top" xlink:title="simulate_midi">
<polygon fill="white" stroke="black" points="706.5,-95 706.5,-119 783.5,-119 783.5,-95 706.5,-95"/>
<text text-anchor="middle" x="745" y="-106" font-family="Helvetica,sans-Serif" font-size="10.00">simulate_midi</text>
</a>
</g>
<!-- Node15&#45;&gt;Node16 -->
<g id="edge38" class="edge"><title>Node15&#45;&gt;Node16</title>
<path fill="none" stroke="midnightblue" d="M677.792,-100.511C687.737,-101.471 697.549,-102.418 706.473,-103.28"/>
<polygon fill="midnightblue" stroke="midnightblue" points="678.12,-97.0264 667.83,-99.5491 677.447,-103.994 678.12,-97.0264"/>
</g>
<!-- Node20 -->
<g id="node45" class="node"><title>Node20</title>
<a xlink:href="midi__13_8cpp.html#a4104c2ae7e71376ad9dc78929450dc51" target="_top" xlink:title="EvAquire">
<polygon fill="white" stroke="black" points="717,-49 717,-73 773,-73 773,-49 717,-49"/>
<text text-anchor="middle" x="745" y="-60" font-family="Helvetica,sans-Serif" font-size="10.00">EvAquire</text>
</a>
</g>
<!-- Node15&#45;&gt;Node20 -->
<g id="edge50" class="edge"><title>Node15&#45;&gt;Node20</title>
<path fill="none" stroke="midnightblue" d="M664.227,-78.8258C682.625,-74.7656 701.742,-70.5465 716.758,-67.2328"/>
<polygon fill="midnightblue" stroke="midnightblue" points="663.416,-75.4205 654.405,-80.9933 664.925,-82.256 663.416,-75.4205"/>
</g>
<!-- Node17 -->
<g id="node37" class="node"><title>Node17</title>
<a xlink:href="arduino__core__6___u_n_o_8cpp.html#ae72d1a8d74d9ab5515962e03e7e664d6" target="_top" xlink:title="arduino_do_analog_in\l_whitecat">
<polygon fill="white" stroke="black" points="822,-145 822,-185 932,-185 932,-145 822,-145"/>
<text text-anchor="start" x="830" y="-172" font-family="Helvetica,sans-Serif" font-size="10.00">arduino_do_analog_in</text>
<text text-anchor="middle" x="877" y="-156" font-family="Helvetica,sans-Serif" font-size="10.00">_whitecat</text>
</a>
</g>
<!-- Node16&#45;&gt;Node17 -->
<g id="edge40" class="edge"><title>Node16&#45;&gt;Node17</title>
<path fill="none" stroke="midnightblue" d="M781.539,-123.055C796.918,-129.812 814.982,-137.75 831.234,-144.891"/>
<polygon fill="midnightblue" stroke="midnightblue" points="782.914,-119.836 772.35,-119.018 780.098,-126.245 782.914,-119.836"/>
</g>
<!-- Node19 -->
<g id="node42" class="node"><title>Node19</title>
<a xlink:href="arduino__core__6___u_n_o_8cpp.html#a219226c1cd6cc17c78e62fd4445bb445" target="_top" xlink:title="arduino_do_digital\l_in_whitecat">
<polygon fill="white" stroke="black" points="829.5,-87 829.5,-127 924.5,-127 924.5,-87 829.5,-87"/>
<text text-anchor="start" x="837.5" y="-114" font-family="Helvetica,sans-Serif" font-size="10.00">arduino_do_digital</text>
<text text-anchor="middle" x="877" y="-98" font-family="Helvetica,sans-Serif" font-size="10.00">_in_whitecat</text>
</a>
</g>
<!-- Node16&#45;&gt;Node19 -->
<g id="edge46" class="edge"><title>Node16&#45;&gt;Node19</title>
<path fill="none" stroke="midnightblue" d="M793.541,-107C805.203,-107 817.648,-107 829.272,-107"/>
<polygon fill="midnightblue" stroke="midnightblue" points="793.535,-103.5 783.535,-107 793.535,-110.5 793.535,-103.5"/>
</g>
<!-- Node18 -->
<g id="node39" class="node"><title>Node18</title>
<a xlink:href="_m_a_i_n__avec__objets_8cpp.html#ace9c8a9b37c6087c3cffef442d71d70e" target="_top" xlink:title="dixiemes_de_secondes">
<polygon fill="white" stroke="black" points="968.5,-143 968.5,-167 1087.5,-167 1087.5,-143 968.5,-143"/>
<text text-anchor="middle" x="1028" y="-154" font-family="Helvetica,sans-Serif" font-size="10.00">dixiemes_de_secondes</text>
</a>
</g>
<!-- Node17&#45;&gt;Node18 -->
<g id="edge42" class="edge"><title>Node17&#45;&gt;Node18</title>
<path fill="none" stroke="midnightblue" d="M942.379,-160.67C950.999,-160.099 959.798,-159.517 968.316,-158.953"/>
<polygon fill="midnightblue" stroke="midnightblue" points="942.116,-157.18 932.369,-161.333 942.579,-164.165 942.116,-157.18"/>
</g>
<!-- Node18&#45;&gt;Node5 -->
<g id="edge44" class="edge"><title>Node18&#45;&gt;Node5</title>
<path fill="none" stroke="midnightblue" d="M1097.83,-155C1150.62,-155 1224.86,-155 1290,-155 1290,-155 1290,-155 1784,-155 1866.19,-155 1963.41,-140.196 2003.86,-133.372"/>
<polygon fill="midnightblue" stroke="midnightblue" points="1097.57,-151.5 1087.57,-155 1097.57,-158.5 1097.57,-151.5"/>
</g>
<!-- Node19&#45;&gt;Node18 -->
<g id="edge48" class="edge"><title>Node19&#45;&gt;Node18</title>
<path fill="none" stroke="midnightblue" d="M934.361,-125.234C953.011,-131.162 973.23,-137.59 990.091,-142.95"/>
<polygon fill="midnightblue" stroke="midnightblue" points="935.368,-121.881 924.777,-122.188 933.247,-128.553 935.368,-121.881"/>
</g>
<!-- Node21 -->
<g id="node47" class="node"><title>Node21</title>
<a xlink:href="midi__13_8cpp.html#a831f1dfc7870ae4f6c64a0e65fbaf3ff" target="_top" xlink:title="Display">
<polygon fill="white" stroke="black" points="852,-45 852,-69 902,-69 902,-45 852,-45"/>
<text text-anchor="middle" x="877" y="-56" font-family="Helvetica,sans-Serif" font-size="10.00">Display</text>
</a>
</g>
<!-- Node20&#45;&gt;Node21 -->
<g id="edge52" class="edge"><title>Node20&#45;&gt;Node21</title>
<path fill="none" stroke="midnightblue" d="M783.366,-59.8374C805.419,-59.1691 832.496,-58.3486 851.849,-57.7622"/>
<polygon fill="midnightblue" stroke="midnightblue" points="783.207,-56.3405 773.317,-60.1419 783.419,-63.3373 783.207,-56.3405"/>
</g>
<!-- Node22 -->
<g id="node49" class="node"><title>Node22</title>
<a xlink:href="midi__13_8cpp.html#aa4aeee5088a4a5462566dfee5c9cc71f" target="_top" xlink:title="DisplayTask">
<polygon fill="white" stroke="black" points="992.5,-85 992.5,-109 1063.5,-109 1063.5,-85 992.5,-85"/>
<text text-anchor="middle" x="1028" y="-96" font-family="Helvetica,sans-Serif" font-size="10.00">DisplayTask</text>
</a>
</g>
<!-- Node21&#45;&gt;Node22 -->
<g id="edge54" class="edge"><title>Node21&#45;&gt;Node22</title>
<path fill="none" stroke="midnightblue" d="M912.099,-66.2979C936.248,-72.6947 968.212,-81.1621 992.456,-87.5843"/>
<polygon fill="midnightblue" stroke="midnightblue" points="912.837,-62.8726 902.274,-63.6951 911.044,-69.6392 912.837,-62.8726"/>
</g>
<!-- Node24 -->
<g id="node54" class="node"><title>Node24</title>
<a xlink:href="midi___c_o_r_e_8cpp.html#a6fcb4c2efe85f50488d7aeeef1fc0a3e" target="_top" xlink:title="ReceiveEvents">
<polygon fill="white" stroke="black" points="986.5,-43 986.5,-67 1069.5,-67 1069.5,-43 986.5,-43"/>
<text text-anchor="middle" x="1028" y="-54" font-family="Helvetica,sans-Serif" font-size="10.00">ReceiveEvents</text>
</a>
</g>
<!-- Node21&#45;&gt;Node24 -->
<g id="edge60" class="edge"><title>Node21&#45;&gt;Node24</title>
<path fill="none" stroke="midnightblue" d="M912.562,-56.529C934.676,-56.2361 963.207,-55.8582 986.372,-55.5514"/>
<polygon fill="midnightblue" stroke="midnightblue" points="912.227,-53.033 902.274,-56.6652 912.32,-60.0324 912.227,-53.033"/>
</g>
<!-- Node23 -->
<g id="node51" class="node"><title>Node23</title>
<a xlink:href="midi___c_o_r_e_8cpp.html#a7d0f82d882071792d6a2df51ef13ec55" target="_top" xlink:title="ReceivePolling">
<polygon fill="white" stroke="black" points="1124,-85 1124,-109 1206,-109 1206,-85 1124,-85"/>
<text text-anchor="middle" x="1165" y="-96" font-family="Helvetica,sans-Serif" font-size="10.00">ReceivePolling</text>
</a>
</g>
<!-- Node22&#45;&gt;Node23 -->
<g id="edge56" class="edge"><title>Node22&#45;&gt;Node23</title>
<path fill="none" stroke="midnightblue" d="M1073.91,-97C1090.02,-97 1108.01,-97 1123.72,-97"/>
<polygon fill="midnightblue" stroke="midnightblue" points="1073.64,-93.5001 1063.64,-97 1073.64,-100.5 1073.64,-93.5001"/>
</g>
<!-- Node23&#45;&gt;Node23 -->
<g id="edge58" class="edge"><title>Node23&#45;&gt;Node23</title>
<path fill="none" stroke="midnightblue" d="M1142.51,-119.001C1144.81,-123.647 1152.31,-127 1165,-127 1185.83,-127 1192.66,-117.972 1185.5,-109.014"/>
<polygon fill="midnightblue" stroke="midnightblue" points="1145.98,-119.504 1144.5,-109.014 1139.12,-118.14 1145.98,-119.504"/>
</g>
<!-- Node24&#45;&gt;Node23 -->
<g id="edge62" class="edge"><title>Node24&#45;&gt;Node23</title>
<path fill="none" stroke="midnightblue" d="M1076.99,-70.0181C1092.99,-74.9241 1110.54,-80.3054 1125.74,-84.9627"/>
<polygon fill="midnightblue" stroke="midnightblue" points="1077.85,-66.6204 1067.26,-67.0355 1075.79,-73.3129 1077.85,-66.6204"/>
</g>
<!-- Node25 -->
<g id="node57" class="node"><title>Node25</title>
<a xlink:href="midi___c_o_r_e_8cpp.html#a0ccf480a33424e626f88d109d53d8366" target="_top" xlink:title="InitMidi">
<polygon fill="white" stroke="black" points="1141,-43 1141,-67 1189,-67 1189,-43 1141,-43"/>
<text text-anchor="middle" x="1165" y="-54" font-family="Helvetica,sans-Serif" font-size="10.00">InitMidi</text>
</a>
</g>
<!-- Node24&#45;&gt;Node25 -->
<g id="edge64" class="edge"><title>Node24&#45;&gt;Node25</title>
<path fill="none" stroke="midnightblue" d="M1079.93,-55C1100.89,-55 1124.06,-55 1140.92,-55"/>
<polygon fill="midnightblue" stroke="midnightblue" points="1079.85,-51.5001 1069.85,-55 1079.85,-58.5001 1079.85,-51.5001"/>
</g>
<!-- Node25&#45;&gt;Node5 -->
<g id="edge66" class="edge"><title>Node25&#45;&gt;Node5</title>
<path fill="none" stroke="midnightblue" d="M1198.94,-66.4511C1246.62,-81.4881 1336.38,-106 1415,-106 1415,-106 1415,-106 1784,-106 1866.15,-106 1963.4,-120.212 2003.86,-126.763"/>
<polygon fill="midnightblue" stroke="midnightblue" points="1199.74,-63.0315 1189.15,-63.3075 1197.6,-69.6965 1199.74,-63.0315"/>
</g>
<!-- Node26 -->
<g id="node60" class="node"><title>Node26</title>
<a xlink:href="midi__13_8cpp.html#ac7a306aa81e374b447e7341d4d3a3eea" target="_top" xlink:title="midipage_devices">
<polygon fill="white" stroke="black" points="1242.5,-43 1242.5,-67 1337.5,-67 1337.5,-43 1242.5,-43"/>
<text text-anchor="middle" x="1290" y="-54" font-family="Helvetica,sans-Serif" font-size="10.00">midipage_devices</text>
</a>
</g>
<!-- Node25&#45;&gt;Node26 -->
<g id="edge68" class="edge"><title>Node25&#45;&gt;Node26</title>
<path fill="none" stroke="midnightblue" d="M1199.25,-55C1212.57,-55 1228.05,-55 1242.42,-55"/>
<polygon fill="midnightblue" stroke="midnightblue" points="1199.1,-51.5001 1189.1,-55 1199.1,-58.5001 1199.1,-51.5001"/>
</g>
<!-- Node27 -->
<g id="node62" class="node"><title>Node27</title>
<a xlink:href="midi__13_8cpp.html#a8f70acacad6eaba8867bdd80dda5e277" target="_top" xlink:title="do_midi_config">
<polygon fill="white" stroke="black" points="1374,-43 1374,-67 1456,-67 1456,-43 1374,-43"/>
<text text-anchor="middle" x="1415" y="-54" font-family="Helvetica,sans-Serif" font-size="10.00">do_midi_config</text>
</a>
</g>
<!-- Node26&#45;&gt;Node27 -->
<g id="edge70" class="edge"><title>Node26&#45;&gt;Node27</title>
<path fill="none" stroke="midnightblue" d="M1347.77,-55C1356.5,-55 1365.35,-55 1373.65,-55"/>
<polygon fill="midnightblue" stroke="midnightblue" points="1347.61,-51.5001 1337.61,-55 1347.61,-58.5001 1347.61,-51.5001"/>
</g>
<!-- Node28 -->
<g id="node64" class="node"><title>Node28</title>
<a xlink:href="_c_f_g__config__panel__8_8cpp.html#ad39c46e2fb3a3ba7ea0460140ead4f96" target="_top" xlink:title="do_panel_config">
<polygon fill="white" stroke="black" points="1492.5,-43 1492.5,-67 1579.5,-67 1579.5,-43 1492.5,-43"/>
<text text-anchor="middle" x="1536" y="-54" font-family="Helvetica,sans-Serif" font-size="10.00">do_panel_config</text>
</a>
</g>
<!-- Node27&#45;&gt;Node28 -->
<g id="edge72" class="edge"><title>Node27&#45;&gt;Node28</title>
<path fill="none" stroke="midnightblue" d="M1466.33,-55C1475.01,-55 1483.95,-55 1492.41,-55"/>
<polygon fill="midnightblue" stroke="midnightblue" points="1466.3,-51.5001 1456.3,-55 1466.3,-58.5001 1466.3,-51.5001"/>
</g>
<!-- Node29 -->
<g id="node66" class="node"><title>Node29</title>
<a xlink:href="_c_f_g__config__panel__8_8cpp.html#a7968da66bccdba8b864caf6c8435f68e" target="_top" xlink:title="config_general_menu">
<polygon fill="white" stroke="black" points="1616.5,-43 1616.5,-67 1725.5,-67 1725.5,-43 1616.5,-43"/>
<text text-anchor="middle" x="1671" y="-54" font-family="Helvetica,sans-Serif" font-size="10.00">config_general_menu</text>
</a>
</g>
<!-- Node28&#45;&gt;Node29 -->
<g id="edge74" class="edge"><title>Node28&#45;&gt;Node29</title>
<path fill="none" stroke="midnightblue" d="M1590.07,-55C1598.62,-55 1607.47,-55 1616.04,-55"/>
<polygon fill="midnightblue" stroke="midnightblue" points="1589.83,-51.5001 1579.83,-55 1589.83,-58.5001 1589.83,-51.5001"/>
</g>
<!-- Node30 -->
<g id="node68" class="node"><title>Node30</title>
<a xlink:href="graphics__rebuild1_8cpp.html#ac2eae1e03fb72cc734ffbcef566483bf" target="_top" xlink:title="Boxes">
<polygon fill="white" stroke="black" points="1762,-43 1762,-67 1806,-67 1806,-43 1762,-43"/>
<text text-anchor="middle" x="1784" y="-54" font-family="Helvetica,sans-Serif" font-size="10.00">Boxes</text>
</a>
</g>
<!-- Node29&#45;&gt;Node30 -->
<g id="edge76" class="edge"><title>Node29&#45;&gt;Node30</title>
<path fill="none" stroke="midnightblue" d="M1735.75,-55C1745.11,-55 1754.17,-55 1761.86,-55"/>
<polygon fill="midnightblue" stroke="midnightblue" points="1735.51,-51.5001 1725.51,-55 1735.51,-58.5001 1735.51,-51.5001"/>
</g>
<!-- Node31 -->
<g id="node70" class="node"><title>Node31</title>
<a xlink:href="_m_a_i_n__avec__objets_8cpp.html#ade8d4ba65d55c94f8ee277829d722155" target="_top" xlink:title="main_actions_on_screen">
<polygon fill="white" stroke="black" points="1842.5,-49 1842.5,-73 1967.5,-73 1967.5,-49 1842.5,-49"/>
<text text-anchor="middle" x="1905" y="-60" font-family="Helvetica,sans-Serif" font-size="10.00">main_actions_on_screen</text>
</a>
</g>
<!-- Node30&#45;&gt;Node31 -->
<g id="edge78" class="edge"><title>Node30&#45;&gt;Node31</title>
<path fill="none" stroke="midnightblue" d="M1816.24,-56.5989C1824.32,-56.9993 1833.26,-57.4428 1842.27,-57.8895"/>
<polygon fill="midnightblue" stroke="midnightblue" points="1816.35,-53.1001 1806.19,-56.1005 1816.01,-60.0916 1816.35,-53.1001"/>
</g>
<!-- Node31&#45;&gt;Node5 -->
<g id="edge80" class="edge"><title>Node31&#45;&gt;Node5</title>
<path fill="none" stroke="midnightblue" d="M1940.92,-77.5399C1949.9,-81.9831 1959.42,-86.9609 1968,-92 1981.41,-99.8747 1995.85,-109.917 2006.57,-117.7"/>
<polygon fill="midnightblue" stroke="midnightblue" points="1942.34,-74.3391 1931.82,-73.123 1939.29,-80.637 1942.34,-74.3391"/>
</g>
<!-- Node32&#45;&gt;Node7 -->
<g id="edge84" class="edge"><title>Node32&#45;&gt;Node7</title>
<path fill="none" stroke="midnightblue" d="M506.106,-269C517.511,-269 529.286,-269 540.478,-269"/>
<polygon fill="midnightblue" stroke="midnightblue" points="505.763,-265.5 495.763,-269 505.763,-272.5 505.763,-265.5"/>
</g>
<!-- Node34 -->
<g id="node79" class="node"><title>Node34</title>
<a xlink:href="logicals__intres_8cpp.html#a74cf9c04c734ab342f88799efbfc4210" target="_top" xlink:title="operations_confirmation">
<polygon fill="white" stroke="black" points="226,-39 226,-63 346,-63 346,-39 226,-39"/>
<text text-anchor="middle" x="286" y="-50" font-family="Helvetica,sans-Serif" font-size="10.00">operations_confirmation</text>
</a>
</g>
<!-- Node33&#45;&gt;Node34 -->
<g id="edge90" class="edge"><title>Node33&#45;&gt;Node34</title>
<path fill="none" stroke="midnightblue" d="M199.272,-77.9819C215.042,-73.0759 232.339,-67.6946 247.309,-63.0373"/>
<polygon fill="midnightblue" stroke="midnightblue" points="198.194,-74.6517 189.686,-80.9645 200.274,-81.3358 198.194,-74.6517"/>
</g>
<!-- Node35 -->
<g id="node81" class="node"><title>Node35</title>
<a xlink:href="keyboard__functions2_8cpp.html#a548548066307f816c5021de7d6e4f26a" target="_top" xlink:title="key_affectation">
<polygon fill="white" stroke="black" points="397.5,-39 397.5,-63 480.5,-63 480.5,-39 397.5,-39"/>
<text text-anchor="middle" x="439" y="-50" font-family="Helvetica,sans-Serif" font-size="10.00">key_affectation</text>
</a>
</g>
<!-- Node34&#45;&gt;Node35 -->
<g id="edge92" class="edge"><title>Node34&#45;&gt;Node35</title>
<path fill="none" stroke="midnightblue" d="M356.142,-51C370.135,-51 384.414,-51 397.088,-51"/>
<polygon fill="midnightblue" stroke="midnightblue" points="356.031,-47.5001 346.031,-51 356.03,-54.5001 356.031,-47.5001"/>
</g>
<!-- Node36 -->
<g id="node84" class="node"><title>Node36</title>
<a xlink:href="logicals__intres_8cpp.html#a85967c22135715eca94d08af2ec1a1fb" target="_top" xlink:title="fenetre_confirm">
<polygon fill="white" stroke="black" points="1248,-0 1248,-24 1332,-24 1332,-0 1248,-0"/>
<text text-anchor="middle" x="1290" y="-11" font-family="Helvetica,sans-Serif" font-size="10.00">fenetre_confirm</text>
</a>
</g>
<!-- Node34&#45;&gt;Node36 -->
<g id="edge96" class="edge"><title>Node34&#45;&gt;Node36</title>
<path fill="none" stroke="midnightblue" d="M345.134,-36.8176C357.274,-34.2578 370.009,-31.8263 382,-30 478.147,-15.3559 502.744,-11 600,-11 600,-11 600,-11 1028,-11 1105.55,-11 1196.02,-11.4436 1247.8,-11.7399"/>
<polygon fill="midnightblue" stroke="midnightblue" points="344.139,-33.4518 335.105,-38.9874 345.619,-40.2935 344.139,-33.4518"/>
</g>
<!-- Node35&#45;&gt;Node12 -->
<g id="edge94" class="edge"><title>Node35&#45;&gt;Node12</title>
<path fill="none" stroke="midnightblue" d="M488.953,-67.6307C491.398,-68.99 493.764,-70.445 496,-72 516.185,-86.0354 513.319,-98.0167 532,-114 545.601,-125.637 562.761,-136.211 576.44,-143.838"/>
<polygon fill="midnightblue" stroke="midnightblue" points="490.349,-64.4166 479.834,-63.1193 487.245,-70.6908 490.349,-64.4166"/>
</g>
<!-- Node36&#45;&gt;Node30 -->
<g id="edge98" class="edge"><title>Node36&#45;&gt;Node30</title>
<path fill="none" stroke="midnightblue" d="M1342.42,-9.67802C1424.93,-7.1308 1589.74,-6.53379 1726,-34 1738.18,-36.4546 1751.23,-40.9965 1761.86,-45.2301"/>
<polygon fill="midnightblue" stroke="midnightblue" points="1342.18,-6.18422 1332.3,-10.0135 1342.41,-13.1804 1342.18,-6.18422"/>
</g>
</g>
</svg>
        <g id="navigator" transform="translate(0 0)" fill="#404254">
                <rect fill="#f2f5e9" fill-opacity="0.5" stroke="#606060" stroke-width=".5" x="0" y="0" width="60" height="60"/>
                <use id="zoomplus" xlink:href="#zoomPlus" x="17" y="9" onmousedown="handleZoom(evt,'in')"/>
                <use id="zoomminus" xlink:href="#zoomMin" x="42" y="9" onmousedown="handleZoom(evt,'out')"/>
                <use id="reset" xlink:href="#resetDef" x="30" y="36" onmousedown="handleReset()"/>
                <g id="arrowUp" xlink:href="#dirArrow" transform="translate(30 24)" onmousedown="handlePan(0,-1)">
                  <use xlink:href="#rim" fill="#404040">
                        <set attributeName="fill" to="#808080" begin="arrowUp.mouseover" end="arrowUp.mouseout"/>
                  </use>
                  <path fill="none" stroke="white" stroke-width="1.5" d="M0,-3.0v7 M-2.5,-0.5L0,-3.0L2.5,-0.5"/>
                </g>
                <g id="arrowRight" xlink:href="#dirArrow" transform="rotate(90) translate(36 -43)" onmousedown="handlePan(1,0)">
                  <use xlink:href="#rim" fill="#404040">
                        <set attributeName="fill" to="#808080" begin="arrowRight.mouseover" end="arrowRight.mouseout"/>
                  </use>
                  <path fill="none" stroke="white" stroke-width="1.5" d="M0,-3.0v7 M-2.5,-0.5L0,-3.0L2.5,-0.5"/>
                </g>
                <g id="arrowDown" xlink:href="#dirArrow" transform="rotate(180) translate(-30 -48)" onmousedown="handlePan(0,1)">
                  <use xlink:href="#rim" fill="#404040">
                        <set attributeName="fill" to="#808080" begin="arrowDown.mouseover" end="arrowDown.mouseout"/>
                  </use>
                  <path fill="none" stroke="white" stroke-width="1.5" d="M0,-3.0v7 M-2.5,-0.5L0,-3.0L2.5,-0.5"/>
                </g>
                <g id="arrowLeft" xlink:href="#dirArrow" transform="rotate(270) translate(-36 17)" onmousedown="handlePan(-1,0)">
                  <use xlink:href="#rim" fill="#404040">
                        <set attributeName="fill" to="#808080" begin="arrowLeft.mouseover" end="arrowLeft.mouseout"/>
                  </use>
                  <path fill="none" stroke="white" stroke-width="1.5" d="M0,-3.0v7 M-2.5,-0.5L0,-3.0L2.5,-0.5"/>
                </g>
        </g>
        <svg viewBox="0 0 15 15" width="100%" height="30px" preserveAspectRatio="xMaxYMin meet">
         <g id="arrow_out" transform="scale(0.3 0.3)">
          <a xlink:href="_c_o_r_e__6_8cpp_ad86a4e2003a666b78ac6dc97ff7feb16_icgraph_org.svg" target="_base">
           <rect id="button" ry="5" rx="5" y="6" x="6" height="38" width="38"
                fill="#f2f5e9" fill-opacity="0.5" stroke="#606060" stroke-width="1.0"/>
           <path id="arrow"
             d="M 11.500037,31.436501 C 11.940474,20.09759 22.043105,11.32322 32.158766,21.979434 L 37.068811,17.246167 C 37.068811,17.246167 37.088388,32 37.088388,32 L 22.160133,31.978069 C 22.160133,31.978069 26.997745,27.140456 26.997745,27.140456 C 18.528582,18.264221 13.291696,25.230495 11.500037,31.436501 z"
             style="fill:#404040;"/>
          </a>
         </g>
        </svg>
</svg>
