<?xml version="1.0" encoding="UTF-8" standalone="no"?>
<!DOCTYPE svg PUBLIC "-//W3C//DTD SVG 1.1//EN"
 "http://www.w3.org/Graphics/SVG/1.1/DTD/svg11.dtd">
<!-- Generated by graphviz version 2.26.3 (20100126.1600)
 -->
<!-- Title: recall_fader_state_echo Pages: 1 -->
<!--zoomable 345 -->
<svg id="main" version="1.1" xmlns="http://www.w3.org/2000/svg" xmlns:xlink="http://www.w3.org/1999/xlink" xml:space="preserve" onload="init(evt)">
<style type="text/css"><![CDATA[
.edge:hover path { stroke: red; }
.edge:hover polygon { stroke: red; fill: red; }
]]></style>
<script type="text/javascript"><![CDATA[
var edges = document.getElementsByTagName('g');
if (edges && edges.length) {
  for (var i=0;i<edges.length;i++) {
    if (edges[i].id.substr(0,4)=='edge') {
      edges[i].setAttribute('class','edge');
    }
  }
}
]]></script>
        <defs>
                <circle id="rim" cx="0" cy="0" r="7"/>
                <circle id="rim2" cx="0" cy="0" r="3.5"/>
                <g id="zoomPlus">
                        <use xlink:href="#rim" fill="#404040">
                                <set attributeName="fill" to="#808080" begin="zoomplus.mouseover" end="zoomplus.mouseout"/>
                        </use>
                        <path d="M-4,0h8M0,-4v8" fill="none" stroke="white" stroke-width="1.5" pointer-events="none"/>
                </g>
                <g id="zoomMin">
                        <use xlink:href="#rim" fill="#404040">
                                <set attributeName="fill" to="#808080" begin="zoomminus.mouseover" end="zoomminus.mouseout"/>
                        </use>
                        <path d="M-4,0h8" fill="none" stroke="white" stroke-width="1.5" pointer-events="none"/>
                </g>
                <g id="dirArrow">
                        <path fill="none" stroke="white" stroke-width="1.5" d="M0,-3.0v7 M-2.5,-0.5L0,-3.0L2.5,-0.5"/>
                </g>
               <g id="resetDef">
                       <use xlink:href="#rim2" fill="#404040">
                               <set attributeName="fill" to="#808080" begin="reset.mouseover" end="reset.mouseout"/>
                       </use>
               </g>
        </defs>

<script type="text/javascript">
var viewWidth = 2122;
var viewHeight = 345;
var sectionId = 'dynsection-138';
</script>
<script xlink:href="svgpan.js"/>
<svg id="graph" class="graph">
<g id="viewport">
<title>recall_fader_state_echo</title>
<polygon fill="white" stroke="white" points="-4,5 -4,-340.74 2119,-340.74 2119,5 -4,5"/>
<!-- Node1 -->
<g id="node1" class="node"><title>Node1</title>
<polygon fill="#bfbfbf" stroke="black" points="0,-184 0,-208 120,-208 120,-184 0,-184"/>
<text text-anchor="middle" x="60" y="-195" font-family="Helvetica,sans-Serif" font-size="10.00">recall_fader_state_echo</text>
</g>
<!-- Node2 -->
<g id="node3" class="node"><title>Node2</title>
<a xlink:href="banger__core__8_8cpp.html#ae4008269e0575da11cc90e812961ef6f" target="_top" xlink:title="Bang_event">
<polygon fill="white" stroke="black" points="185,-184 185,-208 253,-208 253,-184 185,-184"/>
<text text-anchor="middle" x="219" y="-195" font-family="Helvetica,sans-Serif" font-size="10.00">Bang_event</text>
</a>
</g>
<!-- Node1&#45;&gt;Node2 -->
<g id="edge2" class="edge"><title>Node1&#45;&gt;Node2</title>
<path fill="none" stroke="midnightblue" d="M130.198,-196C149.08,-196 168.672,-196 184.634,-196"/>
<polygon fill="midnightblue" stroke="midnightblue" points="130.111,-192.5 120.111,-196 130.111,-199.5 130.111,-192.5"/>
</g>
<!-- Node14 -->
<g id="node31" class="node"><title>Node14</title>
<a xlink:href="midi__13_8cpp.html#a6dff3d42682b58cc0a9875ee30fb4cd4" target="_top" xlink:title="do_midi_job">
<polygon fill="white" stroke="black" points="477,-68 477,-92 545,-92 545,-68 477,-68"/>
<text text-anchor="middle" x="511" y="-79" font-family="Helvetica,sans-Serif" font-size="10.00">do_midi_job</text>
</a>
</g>
<!-- Node1&#45;&gt;Node14 -->
<g id="edge92" class="edge"><title>Node1&#45;&gt;Node14</title>
<path fill="none" stroke="midnightblue" d="M98.2622,-180.185C148.038,-160.223 238.092,-126.181 318,-107 372.776,-93.8513 437.941,-86.3849 476.811,-82.7715"/>
<polygon fill="midnightblue" stroke="midnightblue" points="96.8217,-176.992 88.8591,-183.981 99.4422,-183.483 96.8217,-176.992"/>
</g>
<!-- Node33 -->
<g id="node77" class="node"><title>Node33</title>
<a xlink:href="echo3_8cpp.html#a440d7e78e4b39340e539bef8b9d7e2e1" target="_top" xlink:title="do_logical_echo_window">
<polygon fill="white" stroke="black" points="156.5,-294 156.5,-318 281.5,-318 281.5,-294 156.5,-294"/>
<text text-anchor="middle" x="219" y="-305" font-family="Helvetica,sans-Serif" font-size="10.00">do_logical_echo_window</text>
</a>
</g>
<!-- Node1&#45;&gt;Node33 -->
<g id="edge88" class="edge"><title>Node1&#45;&gt;Node33</title>
<path fill="none" stroke="midnightblue" d="M86.1698,-214.105C118.692,-236.605 173.311,-274.391 201.298,-293.753"/>
<polygon fill="midnightblue" stroke="midnightblue" points="87.8384,-211.003 77.6233,-208.192 83.8558,-216.76 87.8384,-211.003"/>
</g>
<!-- Node3 -->
<g id="node5" class="node"><title>Node3</title>
<a xlink:href="banger__core__8_8cpp.html#a4003a08a1620546de77b118c91d2fd9d" target="_top" xlink:title="do_bang">
<polygon fill="white" stroke="black" points="341.5,-281 341.5,-305 394.5,-305 394.5,-281 341.5,-281"/>
<text text-anchor="middle" x="368" y="-292" font-family="Helvetica,sans-Serif" font-size="10.00">do_bang</text>
</a>
</g>
<!-- Node2&#45;&gt;Node3 -->
<g id="edge4" class="edge"><title>Node2&#45;&gt;Node3</title>
<path fill="none" stroke="midnightblue" d="M246.239,-213.733C276.093,-233.168 323.193,-263.831 349.196,-280.759"/>
<polygon fill="midnightblue" stroke="midnightblue" points="247.86,-210.612 237.57,-208.089 244.041,-216.478 247.86,-210.612"/>
</g>
<!-- Node6 -->
<g id="node11" class="node"><title>Node6</title>
<a xlink:href="banger__core__8_8cpp.html#a4fe16ad483c0c1609d97aeb9a23c74ee" target="_top" xlink:title="do_logical_fenetre\l_banger">
<polygon fill="white" stroke="black" points="320.5,-204 320.5,-244 415.5,-244 415.5,-204 320.5,-204"/>
<text text-anchor="start" x="328.5" y="-231" font-family="Helvetica,sans-Serif" font-size="10.00">do_logical_fenetre</text>
<text text-anchor="middle" x="368" y="-215" font-family="Helvetica,sans-Serif" font-size="10.00">_banger</text>
</a>
</g>
<!-- Node2&#45;&gt;Node6 -->
<g id="edge10" class="edge"><title>Node2&#45;&gt;Node6</title>
<path fill="none" stroke="midnightblue" d="M263.147,-204.296C281.175,-207.684 302.062,-211.609 320.427,-215.06"/>
<polygon fill="midnightblue" stroke="midnightblue" points="263.658,-200.831 253.184,-202.424 262.365,-207.711 263.658,-200.831"/>
</g>
<!-- Node8 -->
<g id="node16" class="node"><title>Node8</title>
<a xlink:href="banger__core__8_8cpp.html#ab405ab53ea444b049e5ffa258498fcb6" target="_top" xlink:title="refresh_banger_wx">
<polygon fill="white" stroke="black" points="318.5,-157 318.5,-181 417.5,-181 417.5,-157 318.5,-157"/>
<text text-anchor="middle" x="368" y="-168" font-family="Helvetica,sans-Serif" font-size="10.00">refresh_banger_wx</text>
</a>
</g>
<!-- Node2&#45;&gt;Node8 -->
<g id="edge16" class="edge"><title>Node2&#45;&gt;Node8</title>
<path fill="none" stroke="midnightblue" d="M263.08,-188.012C280.475,-184.86 300.542,-181.224 318.438,-177.981"/>
<polygon fill="midnightblue" stroke="midnightblue" points="262.399,-184.579 253.184,-189.806 263.647,-191.466 262.399,-184.579"/>
</g>
<!-- Node2&#45;&gt;Node14 -->
<g id="edge86" class="edge"><title>Node2&#45;&gt;Node14</title>
<path fill="none" stroke="midnightblue" d="M251.432,-179.13C270.56,-169.471 295.378,-157.434 318,-148 372.593,-125.233 437.813,-103.316 476.743,-90.7745"/>
<polygon fill="midnightblue" stroke="midnightblue" points="249.586,-176.143 242.262,-183.799 252.762,-182.381 249.586,-176.143"/>
</g>
<!-- Node4 -->
<g id="node7" class="node"><title>Node4</title>
<a xlink:href="_m_a_i_n__avec__objets_8cpp.html#a8e80f54ac804eddce8ed6e45adb1db44" target="_top" xlink:title="ticker_full_loop">
<polygon fill="white" stroke="black" points="776,-204 776,-228 858,-228 858,-204 776,-204"/>
<text text-anchor="middle" x="817" y="-215" font-family="Helvetica,sans-Serif" font-size="10.00">ticker_full_loop</text>
</a>
</g>
<!-- Node3&#45;&gt;Node4 -->
<g id="edge6" class="edge"><title>Node3&#45;&gt;Node4</title>
<path fill="none" stroke="midnightblue" d="M404.491,-305.23C473.746,-326.215 627.376,-361.969 740,-309 775.851,-292.139 800.735,-249.484 811.305,-228.311"/>
<polygon fill="midnightblue" stroke="midnightblue" points="405.488,-301.875 394.9,-302.254 403.413,-308.561 405.488,-301.875"/>
</g>
<!-- Node5 -->
<g id="node9" class="node"><title>Node5</title>
<a xlink:href="_m_a_i_n__avec__objets_8cpp.html#ae66f6b31b5ad750f1fe042a706a4e3d4" target="_top" xlink:title="main">
<polygon fill="white" stroke="black" points="2076,-145 2076,-169 2114,-169 2114,-145 2076,-145"/>
<text text-anchor="middle" x="2095" y="-156" font-family="Helvetica,sans-Serif" font-size="10.00">main</text>
</a>
</g>
<!-- Node4&#45;&gt;Node5 -->
<g id="edge8" class="edge"><title>Node4&#45;&gt;Node5</title>
<path fill="none" stroke="midnightblue" d="M868.387,-216C925.092,-216 1019.06,-216 1100,-216 1100,-216 1100,-216 1856,-216 1939.01,-216 1961.06,-209.659 2040,-184 2052.44,-179.956 2065.63,-173.565 2075.96,-168.016"/>
<polygon fill="midnightblue" stroke="midnightblue" points="868.244,-212.5 858.244,-216 868.244,-219.5 868.244,-212.5"/>
</g>
<!-- Node7 -->
<g id="node13" class="node"><title>Node7</title>
<a xlink:href="procs__visuels__rebuild1_8cpp.html#ae710b6e599e321ad5934a90140067054" target="_top" xlink:title="check_graphics_mouse\l_handling">
<polygon fill="white" stroke="black" points="612.5,-260 612.5,-300 731.5,-300 731.5,-260 612.5,-260"/>
<text text-anchor="start" x="620.5" y="-287" font-family="Helvetica,sans-Serif" font-size="10.00">check_graphics_mouse</text>
<text text-anchor="middle" x="672" y="-271" font-family="Helvetica,sans-Serif" font-size="10.00">_handling</text>
</a>
</g>
<!-- Node6&#45;&gt;Node7 -->
<g id="edge12" class="edge"><title>Node6&#45;&gt;Node7</title>
<path fill="none" stroke="midnightblue" d="M396.291,-250.871C411.983,-263.903 432.613,-278.185 454,-285 505.58,-301.436 567.558,-297.95 612.222,-291.67"/>
<polygon fill="midnightblue" stroke="midnightblue" points="398.421,-248.086 388.558,-244.216 393.855,-253.391 398.421,-248.086"/>
</g>
<!-- Node7&#45;&gt;Node4 -->
<g id="edge14" class="edge"><title>Node7&#45;&gt;Node4</title>
<path fill="none" stroke="midnightblue" d="M726.799,-255.813C748.169,-246.381 771.725,-235.984 789.404,-228.18"/>
<polygon fill="midnightblue" stroke="midnightblue" points="725.216,-252.686 717.481,-259.926 728.043,-259.09 725.216,-252.686"/>
</g>
<!-- Node9 -->
<g id="node18" class="node"><title>Node9</title>
<a xlink:href="i_cat14_8cpp.html#a16285241f82898e7a5f051b03d90b9a3" target="_top" xlink:title="check_button">
<polygon fill="white" stroke="black" points="473.5,-194 473.5,-218 548.5,-218 548.5,-194 473.5,-194"/>
<text text-anchor="middle" x="511" y="-205" font-family="Helvetica,sans-Serif" font-size="10.00">check_button</text>
</a>
</g>
<!-- Node8&#45;&gt;Node9 -->
<g id="edge18" class="edge"><title>Node8&#45;&gt;Node9</title>
<path fill="none" stroke="midnightblue" d="M424.477,-183.613C440.898,-187.862 458.427,-192.397 473.383,-196.267"/>
<polygon fill="midnightblue" stroke="midnightblue" points="424.986,-180.129 414.428,-181.013 423.232,-186.906 424.986,-180.129"/>
</g>
<!-- Node11 -->
<g id="node23" class="node"><title>Node11</title>
<a xlink:href="keyboard__functions2_8cpp.html#af3dd6697323b10b480719c1612bcf29a" target="_top" xlink:title="key_backward">
<polygon fill="white" stroke="black" points="471,-110 471,-134 551,-134 551,-110 471,-110"/>
<text text-anchor="middle" x="511" y="-121" font-family="Helvetica,sans-Serif" font-size="10.00">key_backward</text>
</a>
</g>
<!-- Node8&#45;&gt;Node11 -->
<g id="edge24" class="edge"><title>Node8&#45;&gt;Node11</title>
<path fill="none" stroke="midnightblue" d="M414.392,-153.752C433.807,-147.371 456.052,-140.06 474.299,-134.063"/>
<polygon fill="midnightblue" stroke="midnightblue" points="413.233,-150.449 404.826,-156.896 415.419,-157.099 413.233,-150.449"/>
</g>
<!-- Node13 -->
<g id="node28" class="node"><title>Node13</title>
<a xlink:href="keyboard__functions2_8cpp.html#a6b73a3669797504ce2e357d9a8b9a2c2" target="_top" xlink:title="key_forward">
<polygon fill="white" stroke="black" points="476,-152 476,-176 546,-176 546,-152 476,-152"/>
<text text-anchor="middle" x="511" y="-163" font-family="Helvetica,sans-Serif" font-size="10.00">key_forward</text>
</a>
</g>
<!-- Node8&#45;&gt;Node13 -->
<g id="edge30" class="edge"><title>Node8&#45;&gt;Node13</title>
<path fill="none" stroke="midnightblue" d="M427.687,-166.913C444.095,-166.339 461.356,-165.736 475.885,-165.228"/>
<polygon fill="midnightblue" stroke="midnightblue" points="427.485,-163.418 417.613,-167.265 427.729,-170.414 427.485,-163.418"/>
</g>
<!-- Node8&#45;&gt;Node14 -->
<g id="edge34" class="edge"><title>Node8&#45;&gt;Node14</title>
<path fill="none" stroke="midnightblue" d="M403.563,-151.85C408.597,-148.843 413.563,-145.535 418,-142 436.967,-126.89 434.008,-114.725 454,-101 460.869,-96.2846 468.926,-92.4797 476.785,-89.4723"/>
<polygon fill="midnightblue" stroke="midnightblue" points="401.538,-148.973 394.529,-156.918 404.963,-155.078 401.538,-148.973"/>
</g>
<!-- Node32 -->
<g id="node73" class="node"><title>Node32</title>
<a xlink:href="sequentiel__6__core_8cpp.html#a2a71c851cf25565491dd10423bc80380" target="_top" xlink:title="do_logical_Sequenciel\l_Window">
<polygon fill="white" stroke="black" points="454.5,-236 454.5,-276 567.5,-276 567.5,-236 454.5,-236"/>
<text text-anchor="start" x="462.5" y="-263" font-family="Helvetica,sans-Serif" font-size="10.00">do_logical_Sequenciel</text>
<text text-anchor="middle" x="511" y="-247" font-family="Helvetica,sans-Serif" font-size="10.00">_Window</text>
</a>
</g>
<!-- Node8&#45;&gt;Node32 -->
<g id="edge82" class="edge"><title>Node8&#45;&gt;Node32</title>
<path fill="none" stroke="midnightblue" d="M403.209,-185.899C408.292,-188.74 413.367,-191.809 418,-195 435.631,-207.142 436.315,-214.937 454,-227 458.586,-230.128 463.555,-233.141 468.583,-235.964"/>
<polygon fill="midnightblue" stroke="midnightblue" points="404.611,-182.68 394.141,-181.054 401.312,-188.854 404.611,-182.68"/>
</g>
<!-- Node10 -->
<g id="node20" class="node"><title>Node10</title>
<a xlink:href="i_cat14_8cpp.html#aa9772b548765a631d4bae1c14053b4e1" target="_top" xlink:title="DoJobFantastickTouch">
<polygon fill="white" stroke="black" points="613.5,-197 613.5,-221 730.5,-221 730.5,-197 613.5,-197"/>
<text text-anchor="middle" x="672" y="-208" font-family="Helvetica,sans-Serif" font-size="10.00">DoJobFantastickTouch</text>
</a>
</g>
<!-- Node9&#45;&gt;Node10 -->
<g id="edge20" class="edge"><title>Node9&#45;&gt;Node10</title>
<path fill="none" stroke="midnightblue" d="M559.039,-206.895C576.111,-207.213 595.521,-207.575 613.378,-207.908"/>
<polygon fill="midnightblue" stroke="midnightblue" points="558.811,-203.39 548.747,-206.703 558.68,-210.389 558.811,-203.39"/>
</g>
<!-- Node10&#45;&gt;Node4 -->
<g id="edge22" class="edge"><title>Node10&#45;&gt;Node4</title>
<path fill="none" stroke="midnightblue" d="M740.554,-212.31C752.527,-212.888 764.645,-213.472 775.594,-214.001"/>
<polygon fill="midnightblue" stroke="midnightblue" points="740.716,-208.813 730.559,-211.827 740.379,-215.805 740.716,-208.813"/>
</g>
<!-- Node12 -->
<g id="node25" class="node"><title>Node12</title>
<a xlink:href="keyboard__routines2_8cpp.html#a8563320b8eab661232619224650de244" target="_top" xlink:title="commandes_clavier">
<polygon fill="white" stroke="black" points="620,-152 620,-176 724,-176 724,-152 620,-152"/>
<text text-anchor="middle" x="672" y="-163" font-family="Helvetica,sans-Serif" font-size="10.00">commandes_clavier</text>
</a>
</g>
<!-- Node11&#45;&gt;Node12 -->
<g id="edge26" class="edge"><title>Node11&#45;&gt;Node12</title>
<path fill="none" stroke="midnightblue" d="M561.07,-135.062C581.725,-140.45 605.514,-146.656 625.752,-151.935"/>
<polygon fill="midnightblue" stroke="midnightblue" points="561.771,-131.628 551.212,-132.49 560.004,-138.401 561.771,-131.628"/>
</g>
<!-- Node12&#45;&gt;Node4 -->
<g id="edge28" class="edge"><title>Node12&#45;&gt;Node4</title>
<path fill="none" stroke="midnightblue" d="M715.874,-179.416C723.905,-182.258 732.208,-185.208 740,-188 754.462,-193.182 770.426,-198.975 784.051,-203.941"/>
<polygon fill="midnightblue" stroke="midnightblue" points="716.862,-176.053 706.267,-176.023 714.531,-182.654 716.862,-176.053"/>
</g>
<!-- Node13&#45;&gt;Node12 -->
<g id="edge32" class="edge"><title>Node13&#45;&gt;Node12</title>
<path fill="none" stroke="midnightblue" d="M556.598,-164C576.329,-164 599.53,-164 619.934,-164"/>
<polygon fill="midnightblue" stroke="midnightblue" points="556.332,-160.5 546.332,-164 556.332,-167.5 556.332,-160.5"/>
</g>
<!-- Node15 -->
<g id="node33" class="node"><title>Node15</title>
<a xlink:href="midi__13_8cpp.html#a6bedf9750195224914cd87c4e73ab626" target="_top" xlink:title="ventilate_midi_to_midiarray">
<polygon fill="white" stroke="black" points="604.5,-68 604.5,-92 739.5,-92 739.5,-68 604.5,-68"/>
<text text-anchor="middle" x="672" y="-79" font-family="Helvetica,sans-Serif" font-size="10.00">ventilate_midi_to_midiarray</text>
</a>
</g>
<!-- Node14&#45;&gt;Node15 -->
<g id="edge36" class="edge"><title>Node14&#45;&gt;Node15</title>
<path fill="none" stroke="midnightblue" d="M555.272,-80C570.455,-80 587.811,-80 604.414,-80"/>
<polygon fill="midnightblue" stroke="midnightblue" points="555.144,-76.5001 545.144,-80 555.144,-83.5001 555.144,-76.5001"/>
</g>
<!-- Node16 -->
<g id="node35" class="node"><title>Node16</title>
<a xlink:href="midi__13_8cpp.html#afa49dd5668303c2448676c8243737c2d" target="_top" xlink:title="simulate_midi">
<polygon fill="white" stroke="black" points="778.5,-66 778.5,-90 855.5,-90 855.5,-66 778.5,-66"/>
<text text-anchor="middle" x="817" y="-77" font-family="Helvetica,sans-Serif" font-size="10.00">simulate_midi</text>
</a>
</g>
<!-- Node15&#45;&gt;Node16 -->
<g id="edge38" class="edge"><title>Node15&#45;&gt;Node16</title>
<path fill="none" stroke="midnightblue" d="M750.103,-78.9227C759.941,-78.787 769.642,-78.6532 778.473,-78.5314"/>
<polygon fill="midnightblue" stroke="midnightblue" points="749.781,-75.4267 739.83,-79.0644 749.877,-82.4261 749.781,-75.4267"/>
</g>
<!-- Node20 -->
<g id="node45" class="node"><title>Node20</title>
<a xlink:href="midi__13_8cpp.html#a4104c2ae7e71376ad9dc78929450dc51" target="_top" xlink:title="EvAquire">
<polygon fill="white" stroke="black" points="789,-112 789,-136 845,-136 845,-112 789,-112"/>
<text text-anchor="middle" x="817" y="-123" font-family="Helvetica,sans-Serif" font-size="10.00">EvAquire</text>
</a>
</g>
<!-- Node15&#45;&gt;Node20 -->
<g id="edge50" class="edge"><title>Node15&#45;&gt;Node20</title>
<path fill="none" stroke="midnightblue" d="M721.374,-94.9826C743.908,-101.82 769.771,-109.668 788.914,-115.477"/>
<polygon fill="midnightblue" stroke="midnightblue" points="722.207,-91.5778 711.622,-92.0232 720.175,-98.2762 722.207,-91.5778"/>
</g>
<!-- Node17 -->
<g id="node37" class="node"><title>Node17</title>
<a xlink:href="arduino__core__6___u_n_o_8cpp.html#ae72d1a8d74d9ab5515962e03e7e664d6" target="_top" xlink:title="arduino_do_analog_in\l_whitecat">
<polygon fill="white" stroke="black" points="894,-0 894,-40 1004,-40 1004,-0 894,-0"/>
<text text-anchor="start" x="902" y="-27" font-family="Helvetica,sans-Serif" font-size="10.00">arduino_do_analog_in</text>
<text text-anchor="middle" x="949" y="-11" font-family="Helvetica,sans-Serif" font-size="10.00">_whitecat</text>
</a>
</g>
<!-- Node16&#45;&gt;Node17 -->
<g id="edge40" class="edge"><title>Node16&#45;&gt;Node17</title>
<path fill="none" stroke="midnightblue" d="M853.539,-61.9451C868.918,-55.1877 886.982,-47.2505 903.234,-40.1095"/>
<polygon fill="midnightblue" stroke="midnightblue" points="852.098,-58.7552 844.35,-65.9824 854.914,-65.1639 852.098,-58.7552"/>
</g>
<!-- Node19 -->
<g id="node42" class="node"><title>Node19</title>
<a xlink:href="arduino__core__6___u_n_o_8cpp.html#a219226c1cd6cc17c78e62fd4445bb445" target="_top" xlink:title="arduino_do_digital\l_in_whitecat">
<polygon fill="white" stroke="black" points="901.5,-58 901.5,-98 996.5,-98 996.5,-58 901.5,-58"/>
<text text-anchor="start" x="909.5" y="-85" font-family="Helvetica,sans-Serif" font-size="10.00">arduino_do_digital</text>
<text text-anchor="middle" x="949" y="-69" font-family="Helvetica,sans-Serif" font-size="10.00">_in_whitecat</text>
</a>
</g>
<!-- Node16&#45;&gt;Node19 -->
<g id="edge46" class="edge"><title>Node16&#45;&gt;Node19</title>
<path fill="none" stroke="midnightblue" d="M865.541,-78C877.203,-78 889.648,-78 901.272,-78"/>
<polygon fill="midnightblue" stroke="midnightblue" points="865.535,-74.5001 855.535,-78 865.535,-81.5001 865.535,-74.5001"/>
</g>
<!-- Node18 -->
<g id="node39" class="node"><title>Node18</title>
<a xlink:href="_m_a_i_n__avec__objets_8cpp.html#ace9c8a9b37c6087c3cffef442d71d70e" target="_top" xlink:title="dixiemes_de_secondes">
<polygon fill="white" stroke="black" points="1040.5,-63 1040.5,-87 1159.5,-87 1159.5,-63 1040.5,-63"/>
<text text-anchor="middle" x="1100" y="-74" font-family="Helvetica,sans-Serif" font-size="10.00">dixiemes_de_secondes</text>
</a>
</g>
<!-- Node17&#45;&gt;Node18 -->
<g id="edge42" class="edge"><title>Node17&#45;&gt;Node18</title>
<path fill="none" stroke="midnightblue" d="M1013.46,-43.4783C1031.86,-50.1805 1051.15,-57.2084 1066.84,-62.9231"/>
<polygon fill="midnightblue" stroke="midnightblue" points="1014.54,-40.1457 1003.94,-40.0118 1012.14,-46.723 1014.54,-40.1457"/>
</g>
<!-- Node18&#45;&gt;Node5 -->
<g id="edge44" class="edge"><title>Node18&#45;&gt;Node5</title>
<path fill="none" stroke="midnightblue" d="M1169.83,-75.4113C1222.62,-75.6871 1296.86,-76 1362,-76 1362,-76 1362,-76 1856,-76 1939.69,-76 1963.84,-81.3167 2040,-116 2055.82,-123.206 2071.49,-135.528 2082.03,-144.787"/>
<polygon fill="midnightblue" stroke="midnightblue" points="1169.59,-71.9101 1159.57,-75.3568 1169.55,-78.91 1169.59,-71.9101"/>
</g>
<!-- Node19&#45;&gt;Node18 -->
<g id="edge48" class="edge"><title>Node19&#45;&gt;Node18</title>
<path fill="none" stroke="midnightblue" d="M1007.04,-76.8468C1017.95,-76.6302 1029.37,-76.4033 1040.32,-76.1857"/>
<polygon fill="midnightblue" stroke="midnightblue" points="1006.71,-73.3527 996.777,-77.0508 1006.84,-80.3514 1006.71,-73.3527"/>
</g>
<!-- Node21 -->
<g id="node47" class="node"><title>Node21</title>
<a xlink:href="midi__13_8cpp.html#a831f1dfc7870ae4f6c64a0e65fbaf3ff" target="_top" xlink:title="Display">
<polygon fill="white" stroke="black" points="924,-116 924,-140 974,-140 974,-116 924,-116"/>
<text text-anchor="middle" x="949" y="-127" font-family="Helvetica,sans-Serif" font-size="10.00">Display</text>
</a>
</g>
<!-- Node20&#45;&gt;Node21 -->
<g id="edge52" class="edge"><title>Node20&#45;&gt;Node21</title>
<path fill="none" stroke="midnightblue" d="M855.366,-125.163C877.419,-125.831 904.496,-126.651 923.849,-127.238"/>
<polygon fill="midnightblue" stroke="midnightblue" points="855.419,-121.663 845.317,-124.858 855.207,-128.659 855.419,-121.663"/>
</g>
<!-- Node22 -->
<g id="node49" class="node"><title>Node22</title>
<a xlink:href="midi__13_8cpp.html#aa4aeee5088a4a5462566dfee5c9cc71f" target="_top" xlink:title="DisplayTask">
<polygon fill="white" stroke="black" points="1064.5,-105 1064.5,-129 1135.5,-129 1135.5,-105 1064.5,-105"/>
<text text-anchor="middle" x="1100" y="-116" font-family="Helvetica,sans-Serif" font-size="10.00">DisplayTask</text>
</a>
</g>
<!-- Node21&#45;&gt;Node22 -->
<g id="edge54" class="edge"><title>Node21&#45;&gt;Node22</title>
<path fill="none" stroke="midnightblue" d="M984.423,-125.419C1008.53,-123.663 1040.32,-121.348 1064.46,-119.589"/>
<polygon fill="midnightblue" stroke="midnightblue" points="983.993,-121.941 974.274,-126.159 984.502,-128.923 983.993,-121.941"/>
</g>
<!-- Node24 -->
<g id="node54" class="node"><title>Node24</title>
<a xlink:href="midi___c_o_r_e_8cpp.html#a6fcb4c2efe85f50488d7aeeef1fc0a3e" target="_top" xlink:title="ReceiveEvents">
<polygon fill="white" stroke="black" points="1058.5,-147 1058.5,-171 1141.5,-171 1141.5,-147 1058.5,-147"/>
<text text-anchor="middle" x="1100" y="-158" font-family="Helvetica,sans-Serif" font-size="10.00">ReceiveEvents</text>
</a>
</g>
<!-- Node21&#45;&gt;Node24 -->
<g id="edge60" class="edge"><title>Node21&#45;&gt;Node24</title>
<path fill="none" stroke="midnightblue" d="M984.261,-135.239C1006.42,-139.787 1035.1,-145.677 1058.37,-150.454"/>
<polygon fill="midnightblue" stroke="midnightblue" points="984.774,-131.771 974.274,-133.189 983.366,-138.628 984.774,-131.771"/>
</g>
<!-- Node23 -->
<g id="node51" class="node"><title>Node23</title>
<a xlink:href="midi___c_o_r_e_8cpp.html#a7d0f82d882071792d6a2df51ef13ec55" target="_top" xlink:title="ReceivePolling">
<polygon fill="white" stroke="black" points="1196,-104 1196,-128 1278,-128 1278,-104 1196,-104"/>
<text text-anchor="middle" x="1237" y="-115" font-family="Helvetica,sans-Serif" font-size="10.00">ReceivePolling</text>
</a>
</g>
<!-- Node22&#45;&gt;Node23 -->
<g id="edge56" class="edge"><title>Node22&#45;&gt;Node23</title>
<path fill="none" stroke="midnightblue" d="M1145.91,-116.665C1162.02,-116.547 1180.01,-116.416 1195.72,-116.301"/>
<polygon fill="midnightblue" stroke="midnightblue" points="1145.61,-113.167 1135.64,-116.74 1145.66,-120.167 1145.61,-113.167"/>
</g>
<!-- Node23&#45;&gt;Node23 -->
<g id="edge58" class="edge"><title>Node23&#45;&gt;Node23</title>
<path fill="none" stroke="midnightblue" d="M1214.51,-138.001C1216.81,-142.647 1224.31,-146 1237,-146 1257.83,-146 1264.66,-136.972 1257.5,-128.014"/>
<polygon fill="midnightblue" stroke="midnightblue" points="1217.98,-138.504 1216.5,-128.014 1211.12,-137.14 1217.98,-138.504"/>
</g>
<!-- Node24&#45;&gt;Node23 -->
<g id="edge62" class="edge"><title>Node24&#45;&gt;Node23</title>
<path fill="none" stroke="midnightblue" d="M1148.07,-143.913C1164.68,-138.7 1183.05,-132.933 1198.76,-128.002"/>
<polygon fill="midnightblue" stroke="midnightblue" points="1147.02,-140.574 1138.53,-146.908 1149.12,-147.252 1147.02,-140.574"/>
</g>
<!-- Node25 -->
<g id="node57" class="node"><title>Node25</title>
<a xlink:href="midi___c_o_r_e_8cpp.html#a0ccf480a33424e626f88d109d53d8366" target="_top" xlink:title="InitMidi">
<polygon fill="white" stroke="black" points="1213,-164 1213,-188 1261,-188 1261,-164 1213,-164"/>
<text text-anchor="middle" x="1237" y="-175" font-family="Helvetica,sans-Serif" font-size="10.00">InitMidi</text>
</a>
</g>
<!-- Node24&#45;&gt;Node25 -->
<g id="edge64" class="edge"><title>Node24&#45;&gt;Node25</title>
<path fill="none" stroke="midnightblue" d="M1151.93,-165.443C1172.89,-168.045 1196.06,-170.92 1212.92,-173.012"/>
<polygon fill="midnightblue" stroke="midnightblue" points="1152.2,-161.951 1141.85,-164.193 1151.34,-168.898 1152.2,-161.951"/>
</g>
<!-- Node25&#45;&gt;Node5 -->
<g id="edge66" class="edge"><title>Node25&#45;&gt;Node5</title>
<path fill="none" stroke="midnightblue" d="M1271.32,-176.224C1319.49,-176.519 1409.93,-177 1487,-177 1487,-177 1487,-177 1856,-177 1938.03,-177 2035.34,-165.156 2075.84,-159.697"/>
<polygon fill="midnightblue" stroke="midnightblue" points="1271.16,-172.723 1261.13,-176.161 1271.11,-179.723 1271.16,-172.723"/>
</g>
<!-- Node26 -->
<g id="node60" class="node"><title>Node26</title>
<a xlink:href="midi__13_8cpp.html#ac7a306aa81e374b447e7341d4d3a3eea" target="_top" xlink:title="midipage_devices">
<polygon fill="white" stroke="black" points="1314.5,-125 1314.5,-149 1409.5,-149 1409.5,-125 1314.5,-125"/>
<text text-anchor="middle" x="1362" y="-136" font-family="Helvetica,sans-Serif" font-size="10.00">midipage_devices</text>
</a>
</g>
<!-- Node25&#45;&gt;Node26 -->
<g id="edge68" class="edge"><title>Node25&#45;&gt;Node26</title>
<path fill="none" stroke="midnightblue" d="M1270.71,-165.483C1286.91,-160.429 1306.41,-154.345 1323.22,-149.099"/>
<polygon fill="midnightblue" stroke="midnightblue" points="1269.6,-162.161 1261.1,-168.48 1271.69,-168.843 1269.6,-162.161"/>
</g>
<!-- Node27 -->
<g id="node62" class="node"><title>Node27</title>
<a xlink:href="midi__13_8cpp.html#a8f70acacad6eaba8867bdd80dda5e277" target="_top" xlink:title="do_midi_config">
<polygon fill="white" stroke="black" points="1446,-125 1446,-149 1528,-149 1528,-125 1446,-125"/>
<text text-anchor="middle" x="1487" y="-136" font-family="Helvetica,sans-Serif" font-size="10.00">do_midi_config</text>
</a>
</g>
<!-- Node26&#45;&gt;Node27 -->
<g id="edge70" class="edge"><title>Node26&#45;&gt;Node27</title>
<path fill="none" stroke="midnightblue" d="M1419.77,-137C1428.5,-137 1437.35,-137 1445.65,-137"/>
<polygon fill="midnightblue" stroke="midnightblue" points="1419.61,-133.5 1409.61,-137 1419.61,-140.5 1419.61,-133.5"/>
</g>
<!-- Node28 -->
<g id="node64" class="node"><title>Node28</title>
<a xlink:href="_c_f_g__config__panel__8_8cpp.html#ad39c46e2fb3a3ba7ea0460140ead4f96" target="_top" xlink:title="do_panel_config">
<polygon fill="white" stroke="black" points="1564.5,-125 1564.5,-149 1651.5,-149 1651.5,-125 1564.5,-125"/>
<text text-anchor="middle" x="1608" y="-136" font-family="Helvetica,sans-Serif" font-size="10.00">do_panel_config</text>
</a>
</g>
<!-- Node27&#45;&gt;Node28 -->
<g id="edge72" class="edge"><title>Node27&#45;&gt;Node28</title>
<path fill="none" stroke="midnightblue" d="M1538.33,-137C1547.01,-137 1555.95,-137 1564.41,-137"/>
<polygon fill="midnightblue" stroke="midnightblue" points="1538.3,-133.5 1528.3,-137 1538.3,-140.5 1538.3,-133.5"/>
</g>
<!-- Node29 -->
<g id="node66" class="node"><title>Node29</title>
<a xlink:href="_c_f_g__config__panel__8_8cpp.html#a7968da66bccdba8b864caf6c8435f68e" target="_top" xlink:title="config_general_menu">
<polygon fill="white" stroke="black" points="1688.5,-125 1688.5,-149 1797.5,-149 1797.5,-125 1688.5,-125"/>
<text text-anchor="middle" x="1743" y="-136" font-family="Helvetica,sans-Serif" font-size="10.00">config_general_menu</text>
</a>
</g>
<!-- Node28&#45;&gt;Node29 -->
<g id="edge74" class="edge"><title>Node28&#45;&gt;Node29</title>
<path fill="none" stroke="midnightblue" d="M1662.07,-137C1670.62,-137 1679.47,-137 1688.04,-137"/>
<polygon fill="midnightblue" stroke="midnightblue" points="1661.83,-133.5 1651.83,-137 1661.83,-140.5 1661.83,-133.5"/>
</g>
<!-- Node30 -->
<g id="node68" class="node"><title>Node30</title>
<a xlink:href="graphics__rebuild1_8cpp.html#ac2eae1e03fb72cc734ffbcef566483bf" target="_top" xlink:title="Boxes">
<polygon fill="white" stroke="black" points="1834,-125 1834,-149 1878,-149 1878,-125 1834,-125"/>
<text text-anchor="middle" x="1856" y="-136" font-family="Helvetica,sans-Serif" font-size="10.00">Boxes</text>
</a>
</g>
<!-- Node29&#45;&gt;Node30 -->
<g id="edge76" class="edge"><title>Node29&#45;&gt;Node30</title>
<path fill="none" stroke="midnightblue" d="M1807.75,-137C1817.11,-137 1826.17,-137 1833.86,-137"/>
<polygon fill="midnightblue" stroke="midnightblue" points="1807.51,-133.5 1797.51,-137 1807.51,-140.5 1807.51,-133.5"/>
</g>
<!-- Node31 -->
<g id="node70" class="node"><title>Node31</title>
<a xlink:href="_m_a_i_n__avec__objets_8cpp.html#ade8d4ba65d55c94f8ee277829d722155" target="_top" xlink:title="main_actions_on_screen">
<polygon fill="white" stroke="black" points="1914.5,-125 1914.5,-149 2039.5,-149 2039.5,-125 1914.5,-125"/>
<text text-anchor="middle" x="1977" y="-136" font-family="Helvetica,sans-Serif" font-size="10.00">main_actions_on_screen</text>
</a>
</g>
<!-- Node30&#45;&gt;Node31 -->
<g id="edge78" class="edge"><title>Node30&#45;&gt;Node31</title>
<path fill="none" stroke="midnightblue" d="M1888.24,-137C1896.32,-137 1905.26,-137 1914.27,-137"/>
<polygon fill="midnightblue" stroke="midnightblue" points="1888.19,-133.5 1878.19,-137 1888.19,-140.5 1888.19,-133.5"/>
</g>
<!-- Node31&#45;&gt;Node5 -->
<g id="edge80" class="edge"><title>Node31&#45;&gt;Node5</title>
<path fill="none" stroke="midnightblue" d="M2049.84,-149.345C2059.34,-150.955 2068.33,-152.479 2075.75,-153.737"/>
<polygon fill="midnightblue" stroke="midnightblue" points="2050.24,-145.865 2039.8,-147.644 2049.07,-152.766 2050.24,-145.865"/>
</g>
<!-- Node32&#45;&gt;Node7 -->
<g id="edge84" class="edge"><title>Node32&#45;&gt;Node7</title>
<path fill="none" stroke="midnightblue" d="M577.757,-265.951C589.271,-267.668 601.171,-269.442 612.478,-271.127"/>
<polygon fill="midnightblue" stroke="midnightblue" points="578.169,-262.474 567.763,-264.462 577.137,-269.398 578.169,-262.474"/>
</g>
<!-- Node33&#45;&gt;Node7 -->
<g id="edge90" class="edge"><title>Node33&#45;&gt;Node7</title>
<path fill="none" stroke="midnightblue" d="M291.535,-312.537C300.442,-313.14 309.425,-313.654 318,-314 429.11,-318.482 457.994,-320.253 568,-304 582.482,-301.86 597.929,-298.756 612.368,-295.486"/>
<polygon fill="midnightblue" stroke="midnightblue" points="291.759,-309.044 281.535,-311.822 291.26,-316.026 291.759,-309.044"/>
</g>
</g>
</svg>
        <g id="navigator" transform="translate(0 0)" fill="#404254">
                <rect fill="#f2f5e9" fill-opacity="0.5" stroke="#606060" stroke-width=".5" x="0" y="0" width="60" height="60"/>
                <use id="zoomplus" xlink:href="#zoomPlus" x="17" y="9" onmousedown="handleZoom(evt,'in')"/>
                <use id="zoomminus" xlink:href="#zoomMin" x="42" y="9" onmousedown="handleZoom(evt,'out')"/>
                <use id="reset" xlink:href="#resetDef" x="30" y="36" onmousedown="handleReset()"/>
                <g id="arrowUp" xlink:href="#dirArrow" transform="translate(30 24)" onmousedown="handlePan(0,-1)">
                  <use xlink:href="#rim" fill="#404040">
                        <set attributeName="fill" to="#808080" begin="arrowUp.mouseover" end="arrowUp.mouseout"/>
                  </use>
                  <path fill="none" stroke="white" stroke-width="1.5" d="M0,-3.0v7 M-2.5,-0.5L0,-3.0L2.5,-0.5"/>
                </g>
                <g id="arrowRight" xlink:href="#dirArrow" transform="rotate(90) translate(36 -43)" onmousedown="handlePan(1,0)">
                  <use xlink:href="#rim" fill="#404040">
                        <set attributeName="fill" to="#808080" begin="arrowRight.mouseover" end="arrowRight.mouseout"/>
                  </use>
                  <path fill="none" stroke="white" stroke-width="1.5" d="M0,-3.0v7 M-2.5,-0.5L0,-3.0L2.5,-0.5"/>
                </g>
                <g id="arrowDown" xlink:href="#dirArrow" transform="rotate(180) translate(-30 -48)" onmousedown="handlePan(0,1)">
                  <use xlink:href="#rim" fill="#404040">
                        <set attributeName="fill" to="#808080" begin="arrowDown.mouseover" end="arrowDown.mouseout"/>
                  </use>
                  <path fill="none" stroke="white" stroke-width="1.5" d="M0,-3.0v7 M-2.5,-0.5L0,-3.0L2.5,-0.5"/>
                </g>
                <g id="arrowLeft" xlink:href="#dirArrow" transform="rotate(270) translate(-36 17)" onmousedown="handlePan(-1,0)">
                  <use xlink:href="#rim" fill="#404040">
                        <set attributeName="fill" to="#808080" begin="arrowLeft.mouseover" end="arrowLeft.mouseout"/>
                  </use>
                  <path fill="none" stroke="white" stroke-width="1.5" d="M0,-3.0v7 M-2.5,-0.5L0,-3.0L2.5,-0.5"/>
                </g>
        </g>
        <svg viewBox="0 0 15 15" width="100%" height="30px" preserveAspectRatio="xMaxYMin meet">
         <g id="arrow_out" transform="scale(0.3 0.3)">
          <a xlink:href="_c_o_r_e__6_8cpp_a92972cb220bff54c3b0678a13710da1c_icgraph_org.svg" target="_base">
           <rect id="button" ry="5" rx="5" y="6" x="6" height="38" width="38"
                fill="#f2f5e9" fill-opacity="0.5" stroke="#606060" stroke-width="1.0"/>
           <path id="arrow"
             d="M 11.500037,31.436501 C 11.940474,20.09759 22.043105,11.32322 32.158766,21.979434 L 37.068811,17.246167 C 37.068811,17.246167 37.088388,32 37.088388,32 L 22.160133,31.978069 C 22.160133,31.978069 26.997745,27.140456 26.997745,27.140456 C 18.528582,18.264221 13.291696,25.230495 11.500037,31.436501 z"
             style="fill:#404040;"/>
          </a>
         </g>
        </svg>
</svg>
