<?xml version="1.0" encoding="UTF-8" standalone="no"?>
<!DOCTYPE svg PUBLIC "-//W3C//DTD SVG 1.1//EN"
 "http://www.w3.org/Graphics/SVG/1.1/DTD/svg11.dtd">
<!-- Generated by graphviz version 2.26.3 (20100126.1600)
 -->
<!-- Title: load_etat_picker_dans_dockcolor Pages: 1 -->
<svg width="2290pt" height="527pt"
 viewBox="0.00 0.00 2290.00 526.76" xmlns="http://www.w3.org/2000/svg" xmlns:xlink="http://www.w3.org/1999/xlink">
<g id="graph1" class="graph" transform="scale(1 1) rotate(0) translate(4 522.763)">
<title>load_etat_picker_dans_dockcolor</title>
<polygon fill="white" stroke="white" points="-4,5 -4,-522.763 2287,-522.763 2287,5 -4,5"/>
<!-- Node1 -->
<g id="node1" class="node"><title>Node1</title>
<polygon fill="#bfbfbf" stroke="black" points="0,-350.085 0,-390.085 114,-390.085 114,-350.085 0,-350.085"/>
<text text-anchor="start" x="8" y="-377.085" font-family="Helvetica,sans-Serif" font-size="10.00">load_etat_picker_dans</text>
<text text-anchor="middle" x="57" y="-361.085" font-family="Helvetica,sans-Serif" font-size="10.00">_dockcolor</text>
</g>
<!-- Node2 -->
<g id="node3" class="node"><title>Node2</title>
<a xlink:href="banger__core__8_8cpp.html#a29583c84f980616502ac7c4f99e1bc29" target="_top" xlink:title="Bang_event_back">
<polygon fill="white" stroke="black" points="154.5,-358.085 154.5,-382.085 249.5,-382.085 249.5,-358.085 154.5,-358.085"/>
<text text-anchor="middle" x="202" y="-369.085" font-family="Helvetica,sans-Serif" font-size="10.00">Bang_event_back</text>
</a>
</g>
<!-- Node1&#45;&gt;Node2 -->
<g id="edge2" class="edge"><title>Node1&#45;&gt;Node2</title>
<path fill="none" stroke="midnightblue" d="M124.386,-370.085C134.539,-370.085 144.826,-370.085 154.446,-370.085"/>
<polygon fill="midnightblue" stroke="midnightblue" points="124.308,-366.585 114.308,-370.085 124.308,-373.585 124.308,-366.585"/>
</g>
<!-- Node3 -->
<g id="node5" class="node"><title>Node3</title>
<a xlink:href="banger__core__8_8cpp.html#ae4008269e0575da11cc90e812961ef6f" target="_top" xlink:title="Bang_event">
<polygon fill="white" stroke="black" points="326,-408.085 326,-432.085 394,-432.085 394,-408.085 326,-408.085"/>
<text text-anchor="middle" x="360" y="-419.085" font-family="Helvetica,sans-Serif" font-size="10.00">Bang_event</text>
</a>
</g>
<!-- Node1&#45;&gt;Node3 -->
<g id="edge112" class="edge"><title>Node1&#45;&gt;Node3</title>
<path fill="none" stroke="midnightblue" d="M124.404,-386.011C132.996,-387.833 141.689,-389.575 150,-391.085 211.56,-402.265 283.966,-411.385 325.667,-416.25"/>
<polygon fill="midnightblue" stroke="midnightblue" points="124.906,-382.539 114.392,-383.845 123.425,-389.381 124.906,-382.539"/>
</g>
<!-- Node15 -->
<g id="node33" class="node"><title>Node15</title>
<a xlink:href="midi__13_8cpp.html#a6dff3d42682b58cc0a9875ee30fb4cd4" target="_top" xlink:title="do_midi_job">
<polygon fill="white" stroke="black" points="645,-488.085 645,-512.085 713,-512.085 713,-488.085 645,-488.085"/>
<text text-anchor="middle" x="679" y="-499.085" font-family="Helvetica,sans-Serif" font-size="10.00">do_midi_job</text>
</a>
</g>
<!-- Node1&#45;&gt;Node15 -->
<g id="edge114" class="edge"><title>Node1&#45;&gt;Node15</title>
<path fill="none" stroke="midnightblue" d="M101.377,-395.065C147.285,-419.932 221.7,-457.55 290,-480.085 365.738,-505.074 386.63,-507.269 466,-515.085 519.077,-520.311 532.837,-519.344 586,-515.085 605.563,-513.517 627.22,-510.123 644.71,-506.96"/>
<polygon fill="midnightblue" stroke="midnightblue" points="103.041,-391.986 92.586,-390.27 99.6891,-398.131 103.041,-391.986"/>
</g>
<!-- Node38 -->
<g id="node96" class="node"><title>Node38</title>
<a xlink:href="save__show__13_8cpp.html#a8330f725aa2c729bdce098aa4b187589" target="_top" xlink:title="Load_Show">
<polygon fill="white" stroke="black" points="168,-51.0847 168,-75.0847 236,-75.0847 236,-51.0847 168,-51.0847"/>
<text text-anchor="middle" x="202" y="-62.0847" font-family="Helvetica,sans-Serif" font-size="10.00">Load_Show</text>
</a>
</g>
<!-- Node1&#45;&gt;Node38 -->
<g id="edge116" class="edge"><title>Node1&#45;&gt;Node38</title>
<path fill="none" stroke="midnightblue" d="M70.9259,-340.6C101.832,-275.165 175.091,-120.058 196.21,-75.3445"/>
<polygon fill="midnightblue" stroke="midnightblue" points="67.6199,-339.405 66.5139,-349.942 73.9494,-342.394 67.6199,-339.405"/>
</g>
<!-- Node44 -->
<g id="node112" class="node"><title>Node44</title>
<a xlink:href="trichro__core2_8cpp.html#aa3d6dc3f1fd939f78ed71dfc80f21124" target="_top" xlink:title="do_logical_Interface\l_Trichromie">
<polygon fill="white" stroke="black" points="150,-207.085 150,-247.085 254,-247.085 254,-207.085 150,-207.085"/>
<text text-anchor="start" x="158" y="-234.085" font-family="Helvetica,sans-Serif" font-size="10.00">do_logical_Interface</text>
<text text-anchor="middle" x="202" y="-218.085" font-family="Helvetica,sans-Serif" font-size="10.00">_Trichromie</text>
</a>
</g>
<!-- Node1&#45;&gt;Node44 -->
<g id="edge136" class="edge"><title>Node1&#45;&gt;Node44</title>
<path fill="none" stroke="midnightblue" d="M84.675,-342.791C112.99,-314.867 156.318,-272.137 181.637,-247.167"/>
<polygon fill="midnightblue" stroke="midnightblue" points="82.1298,-340.386 77.4674,-349.9 87.0451,-345.37 82.1298,-340.386"/>
</g>
<!-- Node2&#45;&gt;Node3 -->
<g id="edge4" class="edge"><title>Node2&#45;&gt;Node3</title>
<path fill="none" stroke="midnightblue" d="M247.542,-385.351C261.173,-389.851 276.171,-394.733 290,-399.085 301.619,-402.741 314.367,-406.608 325.764,-410.014"/>
<polygon fill="midnightblue" stroke="midnightblue" points="248.488,-381.978 237.894,-382.155 246.287,-388.622 248.488,-381.978"/>
</g>
<!-- Node10 -->
<g id="node20" class="node"><title>Node10</title>
<a xlink:href="i_cat14_8cpp.html#a16285241f82898e7a5f051b03d90b9a3" target="_top" xlink:title="check_button">
<polygon fill="white" stroke="black" points="641.5,-190.085 641.5,-214.085 716.5,-214.085 716.5,-190.085 641.5,-190.085"/>
<text text-anchor="middle" x="679" y="-201.085" font-family="Helvetica,sans-Serif" font-size="10.00">check_button</text>
</a>
</g>
<!-- Node2&#45;&gt;Node10 -->
<g id="edge108" class="edge"><title>Node2&#45;&gt;Node10</title>
<path fill="none" stroke="midnightblue" d="M212.463,-348.865C226.421,-322.907 253.657,-279.641 290,-257.085 402.428,-187.309 567.852,-191.701 641.385,-197.922"/>
<polygon fill="midnightblue" stroke="midnightblue" points="209.28,-347.4 207.773,-357.887 215.491,-350.629 209.28,-347.4"/>
</g>
<!-- Node2&#45;&gt;Node15 -->
<g id="edge110" class="edge"><title>Node2&#45;&gt;Node15</title>
<path fill="none" stroke="midnightblue" d="M221.607,-389.462C238.503,-405.24 264.184,-427.114 290,-441.085 362.312,-480.218 384.845,-484.88 466,-498.085 528.416,-508.24 602.485,-505.721 644.79,-502.928"/>
<polygon fill="midnightblue" stroke="midnightblue" points="223.71,-386.632 214.056,-382.268 218.882,-391.7 223.71,-386.632"/>
</g>
<!-- Node34 -->
<g id="node79" class="node"><title>Node34</title>
<a xlink:href="banger__core__8_8cpp.html#a790bd34b44c1055de586eb9f279b3b3e" target="_top" xlink:title="do_go_back_bang">
<polygon fill="white" stroke="black" points="312.5,-266.085 312.5,-290.085 407.5,-290.085 407.5,-266.085 312.5,-266.085"/>
<text text-anchor="middle" x="360" y="-277.085" font-family="Helvetica,sans-Serif" font-size="10.00">do_go_back_bang</text>
</a>
</g>
<!-- Node2&#45;&gt;Node34 -->
<g id="edge90" class="edge"><title>Node2&#45;&gt;Node34</title>
<path fill="none" stroke="midnightblue" d="M231.406,-352.962C262.812,-334.675 311.777,-306.164 339.339,-290.115"/>
<polygon fill="midnightblue" stroke="midnightblue" points="229.536,-350.001 222.656,-358.057 233.059,-356.05 229.536,-350.001"/>
</g>
<!-- Node37 -->
<g id="node89" class="node"><title>Node37</title>
<a xlink:href="banger__core__8_8cpp.html#af7d3486500e160cd24bc1d25fc8cfdae" target="_top" xlink:title="do_logical_feedback\l_banger">
<polygon fill="white" stroke="black" points="307.5,-350.085 307.5,-390.085 412.5,-390.085 412.5,-350.085 307.5,-350.085"/>
<text text-anchor="start" x="315.5" y="-377.085" font-family="Helvetica,sans-Serif" font-size="10.00">do_logical_feedback</text>
<text text-anchor="middle" x="360" y="-361.085" font-family="Helvetica,sans-Serif" font-size="10.00">_banger</text>
</a>
</g>
<!-- Node2&#45;&gt;Node37 -->
<g id="edge104" class="edge"><title>Node2&#45;&gt;Node37</title>
<path fill="none" stroke="midnightblue" d="M259.852,-370.085C275.398,-370.085 292.123,-370.085 307.368,-370.085"/>
<polygon fill="midnightblue" stroke="midnightblue" points="259.834,-366.585 249.834,-370.085 259.834,-373.585 259.834,-366.585"/>
</g>
<!-- Node4 -->
<g id="node7" class="node"><title>Node4</title>
<a xlink:href="banger__core__8_8cpp.html#a4003a08a1620546de77b118c91d2fd9d" target="_top" xlink:title="do_bang">
<polygon fill="white" stroke="black" points="813.5,-332.085 813.5,-356.085 866.5,-356.085 866.5,-332.085 813.5,-332.085"/>
<text text-anchor="middle" x="840" y="-343.085" font-family="Helvetica,sans-Serif" font-size="10.00">do_bang</text>
</a>
</g>
<!-- Node3&#45;&gt;Node4 -->
<g id="edge6" class="edge"><title>Node3&#45;&gt;Node4</title>
<path fill="none" stroke="midnightblue" d="M403.965,-430.797C422.923,-434.894 445.426,-439.066 466,-441.085 585.427,-452.801 634.599,-505.255 736,-441.085 767.583,-421.098 743.753,-389.56 772,-365.085 783.486,-355.133 799.632,-349.896 813.309,-347.141"/>
<polygon fill="midnightblue" stroke="midnightblue" points="404.64,-427.362 394.118,-428.608 403.12,-434.195 404.64,-427.362"/>
</g>
<!-- Node7 -->
<g id="node13" class="node"><title>Node7</title>
<a xlink:href="banger__core__8_8cpp.html#a4fe16ad483c0c1609d97aeb9a23c74ee" target="_top" xlink:title="do_logical_fenetre\l_banger">
<polygon fill="white" stroke="black" points="478.5,-350.085 478.5,-390.085 573.5,-390.085 573.5,-350.085 478.5,-350.085"/>
<text text-anchor="start" x="486.5" y="-377.085" font-family="Helvetica,sans-Serif" font-size="10.00">do_logical_fenetre</text>
<text text-anchor="middle" x="526" y="-361.085" font-family="Helvetica,sans-Serif" font-size="10.00">_banger</text>
</a>
</g>
<!-- Node3&#45;&gt;Node7 -->
<g id="edge12" class="edge"><title>Node3&#45;&gt;Node7</title>
<path fill="none" stroke="midnightblue" d="M403.786,-406.963C412.473,-404.356 421.526,-401.636 430,-399.085 445.671,-394.367 462.777,-389.204 478.151,-384.559"/>
<polygon fill="midnightblue" stroke="midnightblue" points="402.756,-403.618 394.184,-409.844 404.768,-410.322 402.756,-403.618"/>
</g>
<!-- Node9 -->
<g id="node18" class="node"><title>Node9</title>
<a xlink:href="banger__core__8_8cpp.html#ab405ab53ea444b049e5ffa258498fcb6" target="_top" xlink:title="refresh_banger_wx">
<polygon fill="white" stroke="black" points="476.5,-408.085 476.5,-432.085 575.5,-432.085 575.5,-408.085 476.5,-408.085"/>
<text text-anchor="middle" x="526" y="-419.085" font-family="Helvetica,sans-Serif" font-size="10.00">refresh_banger_wx</text>
</a>
</g>
<!-- Node3&#45;&gt;Node9 -->
<g id="edge18" class="edge"><title>Node3&#45;&gt;Node9</title>
<path fill="none" stroke="midnightblue" d="M404.515,-420.085C426.629,-420.085 453.425,-420.085 476.217,-420.085"/>
<polygon fill="midnightblue" stroke="midnightblue" points="404.395,-416.585 394.395,-420.085 404.395,-423.585 404.395,-416.585"/>
</g>
<!-- Node3&#45;&gt;Node15 -->
<g id="edge88" class="edge"><title>Node3&#45;&gt;Node15</title>
<path fill="none" stroke="midnightblue" d="M387.277,-437.356C408.047,-449.653 437.781,-465.469 466,-474.085 527.106,-492.74 601.933,-498.069 644.673,-499.554"/>
<polygon fill="midnightblue" stroke="midnightblue" points="389.048,-434.337 378.679,-432.162 385.429,-440.329 389.048,-434.337"/>
</g>
<!-- Node5 -->
<g id="node9" class="node"><title>Node5</title>
<a xlink:href="_m_a_i_n__avec__objets_8cpp.html#a8e80f54ac804eddce8ed6e45adb1db44" target="_top" xlink:title="ticker_full_loop">
<polygon fill="white" stroke="black" points="944,-240.085 944,-264.085 1026,-264.085 1026,-240.085 944,-240.085"/>
<text text-anchor="middle" x="985" y="-251.085" font-family="Helvetica,sans-Serif" font-size="10.00">ticker_full_loop</text>
</a>
</g>
<!-- Node4&#45;&gt;Node5 -->
<g id="edge8" class="edge"><title>Node4&#45;&gt;Node5</title>
<path fill="none" stroke="midnightblue" d="M876.475,-336.062C887.051,-332.89 898.343,-328.642 908,-323.085 935.58,-307.212 961.435,-279.862 975.035,-264.144"/>
<polygon fill="midnightblue" stroke="midnightblue" points="875.339,-332.745 866.631,-338.78 877.202,-339.492 875.339,-332.745"/>
</g>
<!-- Node6 -->
<g id="node11" class="node"><title>Node6</title>
<a xlink:href="_m_a_i_n__avec__objets_8cpp.html#ae66f6b31b5ad750f1fe042a706a4e3d4" target="_top" xlink:title="main">
<polygon fill="white" stroke="black" points="2244,-167.085 2244,-191.085 2282,-191.085 2282,-167.085 2244,-167.085"/>
<text text-anchor="middle" x="2263" y="-178.085" font-family="Helvetica,sans-Serif" font-size="10.00">main</text>
</a>
</g>
<!-- Node5&#45;&gt;Node6 -->
<g id="edge10" class="edge"><title>Node5&#45;&gt;Node6</title>
<path fill="none" stroke="midnightblue" d="M1021.87,-236.197C1075.15,-214.722 1177.24,-179.085 1268,-179.085 1268,-179.085 1268,-179.085 2024,-179.085 2105.74,-179.085 2203.21,-179.085 2243.79,-179.085"/>
<polygon fill="midnightblue" stroke="midnightblue" points="1020.44,-233.003 1012.51,-240.03 1023.09,-239.482 1020.44,-233.003"/>
</g>
<!-- Node8 -->
<g id="node15" class="node"><title>Node8</title>
<a xlink:href="procs__visuels__rebuild1_8cpp.html#ae710b6e599e321ad5934a90140067054" target="_top" xlink:title="check_graphics_mouse\l_handling">
<polygon fill="white" stroke="black" points="780.5,-232.085 780.5,-272.085 899.5,-272.085 899.5,-232.085 780.5,-232.085"/>
<text text-anchor="start" x="788.5" y="-259.085" font-family="Helvetica,sans-Serif" font-size="10.00">check_graphics_mouse</text>
<text text-anchor="middle" x="840" y="-243.085" font-family="Helvetica,sans-Serif" font-size="10.00">_handling</text>
</a>
</g>
<!-- Node7&#45;&gt;Node8 -->
<g id="edge14" class="edge"><title>Node7&#45;&gt;Node8</title>
<path fill="none" stroke="midnightblue" d="M581.203,-344.564C582.849,-343.436 584.453,-342.276 586,-341.085 605.479,-326.085 600.878,-311.667 622,-299.085 670.397,-270.254 734.201,-259.014 780.265,-254.681"/>
<polygon fill="midnightblue" stroke="midnightblue" points="579.278,-341.64 572.683,-349.931 583.01,-347.563 579.278,-341.64"/>
</g>
<!-- Node8&#45;&gt;Node5 -->
<g id="edge16" class="edge"><title>Node8&#45;&gt;Node5</title>
<path fill="none" stroke="midnightblue" d="M909.971,-252.085C921.588,-252.085 933.292,-252.085 943.888,-252.085"/>
<polygon fill="midnightblue" stroke="midnightblue" points="909.814,-248.585 899.814,-252.085 909.814,-255.585 909.814,-248.585"/>
</g>
<!-- Node9&#45;&gt;Node10 -->
<g id="edge20" class="edge"><title>Node9&#45;&gt;Node10</title>
<path fill="none" stroke="midnightblue" d="M582.523,-402.195C583.736,-401.213 584.898,-400.177 586,-399.085 619.549,-365.832 601.948,-341.854 622,-299.085 636.925,-267.251 659.042,-232.228 670.858,-214.239"/>
<polygon fill="midnightblue" stroke="midnightblue" points="580.29,-399.477 573.901,-407.928 584.166,-405.306 580.29,-399.477"/>
</g>
<!-- Node12 -->
<g id="node25" class="node"><title>Node12</title>
<a xlink:href="keyboard__functions2_8cpp.html#af3dd6697323b10b480719c1612bcf29a" target="_top" xlink:title="key_backward">
<polygon fill="white" stroke="black" points="639,-366.085 639,-390.085 719,-390.085 719,-366.085 639,-366.085"/>
<text text-anchor="middle" x="679" y="-377.085" font-family="Helvetica,sans-Serif" font-size="10.00">key_backward</text>
</a>
</g>
<!-- Node9&#45;&gt;Node12 -->
<g id="edge26" class="edge"><title>Node9&#45;&gt;Node12</title>
<path fill="none" stroke="midnightblue" d="M579.506,-405.397C598.994,-400.047 620.678,-394.095 638.815,-389.116"/>
<polygon fill="midnightblue" stroke="midnightblue" points="578.56,-402.027 569.844,-408.049 580.413,-408.777 578.56,-402.027"/>
</g>
<!-- Node14 -->
<g id="node30" class="node"><title>Node14</title>
<a xlink:href="keyboard__functions2_8cpp.html#a6b73a3669797504ce2e357d9a8b9a2c2" target="_top" xlink:title="key_forward">
<polygon fill="white" stroke="black" points="644,-408.085 644,-432.085 714,-432.085 714,-408.085 644,-408.085"/>
<text text-anchor="middle" x="679" y="-419.085" font-family="Helvetica,sans-Serif" font-size="10.00">key_forward</text>
</a>
</g>
<!-- Node9&#45;&gt;Node14 -->
<g id="edge32" class="edge"><title>Node9&#45;&gt;Node14</title>
<path fill="none" stroke="midnightblue" d="M585.743,-420.085C605.319,-420.085 626.435,-420.085 643.615,-420.085"/>
<polygon fill="midnightblue" stroke="midnightblue" points="585.675,-416.585 575.675,-420.085 585.675,-423.585 585.675,-416.585"/>
</g>
<!-- Node9&#45;&gt;Node15 -->
<g id="edge36" class="edge"><title>Node9&#45;&gt;Node15</title>
<path fill="none" stroke="midnightblue" d="M558.251,-436.948C587.556,-452.271 630.065,-474.498 656.045,-488.082"/>
<polygon fill="midnightblue" stroke="midnightblue" points="559.721,-433.767 549.237,-432.235 556.477,-439.97 559.721,-433.767"/>
</g>
<!-- Node33 -->
<g id="node75" class="node"><title>Node33</title>
<a xlink:href="sequentiel__6__core_8cpp.html#a2a71c851cf25565491dd10423bc80380" target="_top" xlink:title="do_logical_Sequenciel\l_Window">
<polygon fill="white" stroke="black" points="622.5,-308.085 622.5,-348.085 735.5,-348.085 735.5,-308.085 622.5,-308.085"/>
<text text-anchor="start" x="630.5" y="-335.085" font-family="Helvetica,sans-Serif" font-size="10.00">do_logical_Sequenciel</text>
<text text-anchor="middle" x="679" y="-319.085" font-family="Helvetica,sans-Serif" font-size="10.00">_Window</text>
</a>
</g>
<!-- Node9&#45;&gt;Node33 -->
<g id="edge84" class="edge"><title>Node9&#45;&gt;Node33</title>
<path fill="none" stroke="midnightblue" d="M578.457,-403.651C581.076,-402.239 583.608,-400.719 586,-399.085 606.299,-385.214 602.675,-372.283 622,-357.085 626.015,-353.927 630.427,-350.969 634.964,-348.239"/>
<polygon fill="midnightblue" stroke="midnightblue" points="576.802,-400.563 569.299,-408.044 579.829,-406.875 576.802,-400.563"/>
</g>
<!-- Node11 -->
<g id="node22" class="node"><title>Node11</title>
<a xlink:href="i_cat14_8cpp.html#aa9772b548765a631d4bae1c14053b4e1" target="_top" xlink:title="DoJobFantastickTouch">
<polygon fill="white" stroke="black" points="781.5,-190.085 781.5,-214.085 898.5,-214.085 898.5,-190.085 781.5,-190.085"/>
<text text-anchor="middle" x="840" y="-201.085" font-family="Helvetica,sans-Serif" font-size="10.00">DoJobFantastickTouch</text>
</a>
</g>
<!-- Node10&#45;&gt;Node11 -->
<g id="edge22" class="edge"><title>Node10&#45;&gt;Node11</title>
<path fill="none" stroke="midnightblue" d="M727.039,-202.085C744.111,-202.085 763.521,-202.085 781.378,-202.085"/>
<polygon fill="midnightblue" stroke="midnightblue" points="726.747,-198.585 716.747,-202.085 726.747,-205.585 726.747,-198.585"/>
</g>
<!-- Node11&#45;&gt;Node5 -->
<g id="edge24" class="edge"><title>Node11&#45;&gt;Node5</title>
<path fill="none" stroke="midnightblue" d="M890.36,-217.261C896.323,-219.169 902.309,-221.136 908,-223.085 923.407,-228.359 940.361,-234.687 954.43,-240.084"/>
<polygon fill="midnightblue" stroke="midnightblue" points="890.992,-213.791 880.403,-214.12 888.886,-220.466 890.992,-213.791"/>
</g>
<!-- Node13 -->
<g id="node27" class="node"><title>Node13</title>
<a xlink:href="keyboard__routines2_8cpp.html#a8563320b8eab661232619224650de244" target="_top" xlink:title="commandes_clavier">
<polygon fill="white" stroke="black" points="788,-290.085 788,-314.085 892,-314.085 892,-290.085 788,-290.085"/>
<text text-anchor="middle" x="840" y="-301.085" font-family="Helvetica,sans-Serif" font-size="10.00">commandes_clavier</text>
</a>
</g>
<!-- Node12&#45;&gt;Node13 -->
<g id="edge28" class="edge"><title>Node12&#45;&gt;Node13</title>
<path fill="none" stroke="midnightblue" d="M727.68,-361.713C730.555,-360.269 733.352,-358.726 736,-357.085 754.706,-345.489 752.991,-334.176 772,-323.085 777.976,-319.598 784.592,-316.631 791.281,-314.125"/>
<polygon fill="midnightblue" stroke="midnightblue" points="725.956,-358.653 718.316,-365.993 728.866,-365.02 725.956,-358.653"/>
</g>
<!-- Node13&#45;&gt;Node5 -->
<g id="edge30" class="edge"><title>Node13&#45;&gt;Node5</title>
<path fill="none" stroke="midnightblue" d="M890.36,-286.908C896.323,-285 902.309,-283.033 908,-281.085 923.407,-275.81 940.361,-269.482 954.43,-264.085"/>
<polygon fill="midnightblue" stroke="midnightblue" points="888.886,-283.703 880.403,-290.049 890.992,-290.378 888.886,-283.703"/>
</g>
<!-- Node14&#45;&gt;Node13 -->
<g id="edge34" class="edge"><title>Node14&#45;&gt;Node13</title>
<path fill="none" stroke="midnightblue" d="M723.654,-407.622C728.123,-405.243 732.349,-402.423 736,-399.085 763.583,-373.863 743.753,-347.56 772,-323.085 776.669,-319.039 782.108,-315.773 787.839,-313.136"/>
<polygon fill="midnightblue" stroke="midnightblue" points="721.894,-404.578 714.248,-411.913 724.799,-410.947 721.894,-404.578"/>
</g>
<!-- Node16 -->
<g id="node35" class="node"><title>Node16</title>
<a xlink:href="midi__13_8cpp.html#a6bedf9750195224914cd87c4e73ab626" target="_top" xlink:title="ventilate_midi_to_midiarray">
<polygon fill="white" stroke="black" points="772.5,-374.085 772.5,-398.085 907.5,-398.085 907.5,-374.085 772.5,-374.085"/>
<text text-anchor="middle" x="840" y="-385.085" font-family="Helvetica,sans-Serif" font-size="10.00">ventilate_midi_to_midiarray</text>
</a>
</g>
<!-- Node15&#45;&gt;Node16 -->
<g id="edge38" class="edge"><title>Node15&#45;&gt;Node16</title>
<path fill="none" stroke="midnightblue" d="M718.666,-483.705C724.619,-480.761 730.575,-477.525 736,-474.085 772.354,-451.033 809.582,-416.28 828.067,-398.114"/>
<polygon fill="midnightblue" stroke="midnightblue" points="716.943,-480.648 709.39,-488.078 719.928,-486.98 716.943,-480.648"/>
</g>
<!-- Node17 -->
<g id="node37" class="node"><title>Node17</title>
<a xlink:href="midi__13_8cpp.html#afa49dd5668303c2448676c8243737c2d" target="_top" xlink:title="simulate_midi">
<polygon fill="white" stroke="black" points="946.5,-361.085 946.5,-385.085 1023.5,-385.085 1023.5,-361.085 946.5,-361.085"/>
<text text-anchor="middle" x="985" y="-372.085" font-family="Helvetica,sans-Serif" font-size="10.00">simulate_midi</text>
</a>
</g>
<!-- Node16&#45;&gt;Node17 -->
<g id="edge40" class="edge"><title>Node16&#45;&gt;Node17</title>
<path fill="none" stroke="midnightblue" d="M917.792,-379.11C927.737,-378.219 937.549,-377.339 946.473,-376.539"/>
<polygon fill="midnightblue" stroke="midnightblue" points="917.478,-375.624 907.83,-380.003 918.103,-382.596 917.478,-375.624"/>
</g>
<!-- Node21 -->
<g id="node47" class="node"><title>Node21</title>
<a xlink:href="midi__13_8cpp.html#a4104c2ae7e71376ad9dc78929450dc51" target="_top" xlink:title="EvAquire">
<polygon fill="white" stroke="black" points="957,-307.085 957,-331.085 1013,-331.085 1013,-307.085 957,-307.085"/>
<text text-anchor="middle" x="985" y="-318.085" font-family="Helvetica,sans-Serif" font-size="10.00">EvAquire</text>
</a>
</g>
<!-- Node16&#45;&gt;Node21 -->
<g id="edge52" class="edge"><title>Node16&#45;&gt;Node21</title>
<path fill="none" stroke="midnightblue" d="M894.19,-370.649C898.915,-368.914 903.577,-367.055 908,-365.085 929.479,-355.518 952.409,-341.233 967.606,-331.124"/>
<polygon fill="midnightblue" stroke="midnightblue" points="892.755,-367.443 884.461,-374.035 895.056,-374.054 892.755,-367.443"/>
</g>
<!-- Node18 -->
<g id="node39" class="node"><title>Node18</title>
<a xlink:href="arduino__core__6___u_n_o_8cpp.html#ae72d1a8d74d9ab5515962e03e7e664d6" target="_top" xlink:title="arduino_do_analog_in\l_whitecat">
<polygon fill="white" stroke="black" points="1062,-353.085 1062,-393.085 1172,-393.085 1172,-353.085 1062,-353.085"/>
<text text-anchor="start" x="1070" y="-380.085" font-family="Helvetica,sans-Serif" font-size="10.00">arduino_do_analog_in</text>
<text text-anchor="middle" x="1117" y="-364.085" font-family="Helvetica,sans-Serif" font-size="10.00">_whitecat</text>
</a>
</g>
<!-- Node17&#45;&gt;Node18 -->
<g id="edge42" class="edge"><title>Node17&#45;&gt;Node18</title>
<path fill="none" stroke="midnightblue" d="M1033.69,-373.085C1042.9,-373.085 1052.6,-373.085 1061.99,-373.085"/>
<polygon fill="midnightblue" stroke="midnightblue" points="1033.53,-369.585 1023.53,-373.085 1033.53,-376.585 1033.53,-369.585"/>
</g>
<!-- Node20 -->
<g id="node44" class="node"><title>Node20</title>
<a xlink:href="arduino__core__6___u_n_o_8cpp.html#a219226c1cd6cc17c78e62fd4445bb445" target="_top" xlink:title="arduino_do_digital\l_in_whitecat">
<polygon fill="white" stroke="black" points="1069.5,-295.085 1069.5,-335.085 1164.5,-335.085 1164.5,-295.085 1069.5,-295.085"/>
<text text-anchor="start" x="1077.5" y="-322.085" font-family="Helvetica,sans-Serif" font-size="10.00">arduino_do_digital</text>
<text text-anchor="middle" x="1117" y="-306.085" font-family="Helvetica,sans-Serif" font-size="10.00">_in_whitecat</text>
</a>
</g>
<!-- Node17&#45;&gt;Node20 -->
<g id="edge48" class="edge"><title>Node17&#45;&gt;Node20</title>
<path fill="none" stroke="midnightblue" d="M1021.54,-357.03C1036.92,-350.272 1054.98,-342.335 1071.23,-335.194"/>
<polygon fill="midnightblue" stroke="midnightblue" points="1020.1,-353.84 1012.35,-361.067 1022.91,-360.249 1020.1,-353.84"/>
</g>
<!-- Node19 -->
<g id="node41" class="node"><title>Node19</title>
<a xlink:href="_m_a_i_n__avec__objets_8cpp.html#ace9c8a9b37c6087c3cffef442d71d70e" target="_top" xlink:title="dixiemes_de_secondes">
<polygon fill="white" stroke="black" points="1208.5,-307.085 1208.5,-331.085 1327.5,-331.085 1327.5,-307.085 1208.5,-307.085"/>
<text text-anchor="middle" x="1268" y="-318.085" font-family="Helvetica,sans-Serif" font-size="10.00">dixiemes_de_secondes</text>
</a>
</g>
<!-- Node18&#45;&gt;Node19 -->
<g id="edge44" class="edge"><title>Node18&#45;&gt;Node19</title>
<path fill="none" stroke="midnightblue" d="M1182.21,-349.765C1200.11,-343.362 1218.8,-336.678 1234.15,-331.19"/>
<polygon fill="midnightblue" stroke="midnightblue" points="1180.61,-346.621 1172.37,-353.284 1182.96,-353.212 1180.61,-346.621"/>
</g>
<!-- Node19&#45;&gt;Node6 -->
<g id="edge46" class="edge"><title>Node19&#45;&gt;Node6</title>
<path fill="none" stroke="midnightblue" d="M1337.83,-319.085C1390.62,-319.085 1464.86,-319.085 1530,-319.085 1530,-319.085 1530,-319.085 2024,-319.085 2124.5,-319.085 2220.2,-225.772 2251.95,-191.509"/>
<polygon fill="midnightblue" stroke="midnightblue" points="1337.57,-315.585 1327.57,-319.085 1337.57,-322.585 1337.57,-315.585"/>
</g>
<!-- Node20&#45;&gt;Node19 -->
<g id="edge50" class="edge"><title>Node20&#45;&gt;Node19</title>
<path fill="none" stroke="midnightblue" d="M1175.04,-316.622C1185.95,-316.911 1197.37,-317.214 1208.32,-317.504"/>
<polygon fill="midnightblue" stroke="midnightblue" points="1174.87,-313.116 1164.78,-316.35 1174.68,-320.114 1174.87,-313.116"/>
</g>
<!-- Node22 -->
<g id="node49" class="node"><title>Node22</title>
<a xlink:href="midi__13_8cpp.html#a831f1dfc7870ae4f6c64a0e65fbaf3ff" target="_top" xlink:title="Display">
<polygon fill="white" stroke="black" points="1092,-251.085 1092,-275.085 1142,-275.085 1142,-251.085 1092,-251.085"/>
<text text-anchor="middle" x="1117" y="-262.085" font-family="Helvetica,sans-Serif" font-size="10.00">Display</text>
</a>
</g>
<!-- Node21&#45;&gt;Node22 -->
<g id="edge54" class="edge"><title>Node21&#45;&gt;Node22</title>
<path fill="none" stroke="midnightblue" d="M1022.4,-302.976C1034.98,-297.582 1049.09,-291.552 1062,-286.085 1071.72,-281.969 1082.43,-277.482 1091.79,-273.572"/>
<polygon fill="midnightblue" stroke="midnightblue" points="1020.94,-299.794 1013.14,-306.956 1023.7,-306.226 1020.94,-299.794"/>
</g>
<!-- Node23 -->
<g id="node51" class="node"><title>Node23</title>
<a xlink:href="midi__13_8cpp.html#aa4aeee5088a4a5462566dfee5c9cc71f" target="_top" xlink:title="DisplayTask">
<polygon fill="white" stroke="black" points="1232.5,-251.085 1232.5,-275.085 1303.5,-275.085 1303.5,-251.085 1232.5,-251.085"/>
<text text-anchor="middle" x="1268" y="-262.085" font-family="Helvetica,sans-Serif" font-size="10.00">DisplayTask</text>
</a>
</g>
<!-- Node22&#45;&gt;Node23 -->
<g id="edge56" class="edge"><title>Node22&#45;&gt;Node23</title>
<path fill="none" stroke="midnightblue" d="M1152.42,-263.085C1176.53,-263.085 1208.32,-263.085 1232.46,-263.085"/>
<polygon fill="midnightblue" stroke="midnightblue" points="1152.27,-259.585 1142.27,-263.085 1152.27,-266.585 1152.27,-259.585"/>
</g>
<!-- Node25 -->
<g id="node56" class="node"><title>Node25</title>
<a xlink:href="midi___c_o_r_e_8cpp.html#a6fcb4c2efe85f50488d7aeeef1fc0a3e" target="_top" xlink:title="ReceiveEvents">
<polygon fill="white" stroke="black" points="1226.5,-209.085 1226.5,-233.085 1309.5,-233.085 1309.5,-209.085 1226.5,-209.085"/>
<text text-anchor="middle" x="1268" y="-220.085" font-family="Helvetica,sans-Serif" font-size="10.00">ReceiveEvents</text>
</a>
</g>
<!-- Node22&#45;&gt;Node25 -->
<g id="edge62" class="edge"><title>Node22&#45;&gt;Node25</title>
<path fill="none" stroke="midnightblue" d="M1151.96,-253.36C1174.16,-247.187 1203,-239.165 1226.37,-232.663"/>
<polygon fill="midnightblue" stroke="midnightblue" points="1150.97,-250.003 1142.27,-256.055 1152.85,-256.747 1150.97,-250.003"/>
</g>
<!-- Node24 -->
<g id="node53" class="node"><title>Node24</title>
<a xlink:href="midi___c_o_r_e_8cpp.html#a7d0f82d882071792d6a2df51ef13ec55" target="_top" xlink:title="ReceivePolling">
<polygon fill="white" stroke="black" points="1364,-249.085 1364,-273.085 1446,-273.085 1446,-249.085 1364,-249.085"/>
<text text-anchor="middle" x="1405" y="-260.085" font-family="Helvetica,sans-Serif" font-size="10.00">ReceivePolling</text>
</a>
</g>
<!-- Node23&#45;&gt;Node24 -->
<g id="edge58" class="edge"><title>Node23&#45;&gt;Node24</title>
<path fill="none" stroke="midnightblue" d="M1313.91,-262.414C1330.02,-262.179 1348.01,-261.917 1363.72,-261.687"/>
<polygon fill="midnightblue" stroke="midnightblue" points="1313.59,-258.919 1303.64,-262.564 1313.69,-265.918 1313.59,-258.919"/>
</g>
<!-- Node24&#45;&gt;Node24 -->
<g id="edge60" class="edge"><title>Node24&#45;&gt;Node24</title>
<path fill="none" stroke="midnightblue" d="M1382.51,-283.086C1384.81,-287.732 1392.31,-291.085 1405,-291.085 1425.83,-291.085 1432.66,-282.056 1425.5,-273.099"/>
<polygon fill="midnightblue" stroke="midnightblue" points="1385.98,-283.589 1384.5,-273.099 1379.12,-282.225 1385.98,-283.589"/>
</g>
<!-- Node25&#45;&gt;Node24 -->
<g id="edge64" class="edge"><title>Node25&#45;&gt;Node24</title>
<path fill="none" stroke="midnightblue" d="M1319.12,-236.009C1333.9,-240.325 1349.84,-244.979 1363.92,-249.092"/>
<polygon fill="midnightblue" stroke="midnightblue" points="1319.68,-232.529 1309.1,-233.086 1317.72,-239.248 1319.68,-232.529"/>
</g>
<!-- Node26 -->
<g id="node59" class="node"><title>Node26</title>
<a xlink:href="midi___c_o_r_e_8cpp.html#a0ccf480a33424e626f88d109d53d8366" target="_top" xlink:title="InitMidi">
<polygon fill="white" stroke="black" points="1381,-207.085 1381,-231.085 1429,-231.085 1429,-207.085 1381,-207.085"/>
<text text-anchor="middle" x="1405" y="-218.085" font-family="Helvetica,sans-Serif" font-size="10.00">InitMidi</text>
</a>
</g>
<!-- Node25&#45;&gt;Node26 -->
<g id="edge66" class="edge"><title>Node25&#45;&gt;Node26</title>
<path fill="none" stroke="midnightblue" d="M1319.93,-220.327C1340.89,-220.021 1364.06,-219.682 1380.92,-219.436"/>
<polygon fill="midnightblue" stroke="midnightblue" points="1319.8,-216.828 1309.85,-220.474 1319.9,-223.827 1319.8,-216.828"/>
</g>
<!-- Node26&#45;&gt;Node6 -->
<g id="edge68" class="edge"><title>Node26&#45;&gt;Node6</title>
<path fill="none" stroke="midnightblue" d="M1439.32,-218.861C1487.49,-218.566 1577.93,-218.085 1655,-218.085 1655,-218.085 1655,-218.085 2024,-218.085 2106.82,-218.085 2203.71,-194.99 2243.96,-184.344"/>
<polygon fill="midnightblue" stroke="midnightblue" points="1439.11,-215.362 1429.13,-218.924 1439.16,-222.362 1439.11,-215.362"/>
</g>
<!-- Node27 -->
<g id="node62" class="node"><title>Node27</title>
<a xlink:href="midi__13_8cpp.html#ac7a306aa81e374b447e7341d4d3a3eea" target="_top" xlink:title="midipage_devices">
<polygon fill="white" stroke="black" points="1482.5,-127.085 1482.5,-151.085 1577.5,-151.085 1577.5,-127.085 1482.5,-127.085"/>
<text text-anchor="middle" x="1530" y="-138.085" font-family="Helvetica,sans-Serif" font-size="10.00">midipage_devices</text>
</a>
</g>
<!-- Node26&#45;&gt;Node27 -->
<g id="edge70" class="edge"><title>Node26&#45;&gt;Node27</title>
<path fill="none" stroke="midnightblue" d="M1432.6,-201.419C1456.49,-186.131 1490.39,-164.436 1511.25,-151.087"/>
<polygon fill="midnightblue" stroke="midnightblue" points="1430.52,-198.596 1423.98,-206.934 1434.29,-204.492 1430.52,-198.596"/>
</g>
<!-- Node28 -->
<g id="node64" class="node"><title>Node28</title>
<a xlink:href="midi__13_8cpp.html#a8f70acacad6eaba8867bdd80dda5e277" target="_top" xlink:title="do_midi_config">
<polygon fill="white" stroke="black" points="1614,-127.085 1614,-151.085 1696,-151.085 1696,-127.085 1614,-127.085"/>
<text text-anchor="middle" x="1655" y="-138.085" font-family="Helvetica,sans-Serif" font-size="10.00">do_midi_config</text>
</a>
</g>
<!-- Node27&#45;&gt;Node28 -->
<g id="edge72" class="edge"><title>Node27&#45;&gt;Node28</title>
<path fill="none" stroke="midnightblue" d="M1587.77,-139.085C1596.5,-139.085 1605.35,-139.085 1613.65,-139.085"/>
<polygon fill="midnightblue" stroke="midnightblue" points="1587.61,-135.585 1577.61,-139.085 1587.61,-142.585 1587.61,-135.585"/>
</g>
<!-- Node29 -->
<g id="node66" class="node"><title>Node29</title>
<a xlink:href="_c_f_g__config__panel__8_8cpp.html#ad39c46e2fb3a3ba7ea0460140ead4f96" target="_top" xlink:title="do_panel_config">
<polygon fill="white" stroke="black" points="1732.5,-127.085 1732.5,-151.085 1819.5,-151.085 1819.5,-127.085 1732.5,-127.085"/>
<text text-anchor="middle" x="1776" y="-138.085" font-family="Helvetica,sans-Serif" font-size="10.00">do_panel_config</text>
</a>
</g>
<!-- Node28&#45;&gt;Node29 -->
<g id="edge74" class="edge"><title>Node28&#45;&gt;Node29</title>
<path fill="none" stroke="midnightblue" d="M1706.33,-139.085C1715.01,-139.085 1723.95,-139.085 1732.41,-139.085"/>
<polygon fill="midnightblue" stroke="midnightblue" points="1706.3,-135.585 1696.3,-139.085 1706.3,-142.585 1706.3,-135.585"/>
</g>
<!-- Node30 -->
<g id="node68" class="node"><title>Node30</title>
<a xlink:href="_c_f_g__config__panel__8_8cpp.html#a7968da66bccdba8b864caf6c8435f68e" target="_top" xlink:title="config_general_menu">
<polygon fill="white" stroke="black" points="1856.5,-127.085 1856.5,-151.085 1965.5,-151.085 1965.5,-127.085 1856.5,-127.085"/>
<text text-anchor="middle" x="1911" y="-138.085" font-family="Helvetica,sans-Serif" font-size="10.00">config_general_menu</text>
</a>
</g>
<!-- Node29&#45;&gt;Node30 -->
<g id="edge76" class="edge"><title>Node29&#45;&gt;Node30</title>
<path fill="none" stroke="midnightblue" d="M1830.07,-139.085C1838.62,-139.085 1847.47,-139.085 1856.04,-139.085"/>
<polygon fill="midnightblue" stroke="midnightblue" points="1829.83,-135.585 1819.83,-139.085 1829.83,-142.585 1829.83,-135.585"/>
</g>
<!-- Node31 -->
<g id="node70" class="node"><title>Node31</title>
<a xlink:href="graphics__rebuild1_8cpp.html#ac2eae1e03fb72cc734ffbcef566483bf" target="_top" xlink:title="Boxes">
<polygon fill="white" stroke="black" points="2002,-127.085 2002,-151.085 2046,-151.085 2046,-127.085 2002,-127.085"/>
<text text-anchor="middle" x="2024" y="-138.085" font-family="Helvetica,sans-Serif" font-size="10.00">Boxes</text>
</a>
</g>
<!-- Node30&#45;&gt;Node31 -->
<g id="edge78" class="edge"><title>Node30&#45;&gt;Node31</title>
<path fill="none" stroke="midnightblue" d="M1975.75,-139.085C1985.11,-139.085 1994.17,-139.085 2001.86,-139.085"/>
<polygon fill="midnightblue" stroke="midnightblue" points="1975.51,-135.585 1965.51,-139.085 1975.51,-142.585 1975.51,-135.585"/>
</g>
<!-- Node32 -->
<g id="node72" class="node"><title>Node32</title>
<a xlink:href="_m_a_i_n__avec__objets_8cpp.html#ade8d4ba65d55c94f8ee277829d722155" target="_top" xlink:title="main_actions_on_screen">
<polygon fill="white" stroke="black" points="2082.5,-127.085 2082.5,-151.085 2207.5,-151.085 2207.5,-127.085 2082.5,-127.085"/>
<text text-anchor="middle" x="2145" y="-138.085" font-family="Helvetica,sans-Serif" font-size="10.00">main_actions_on_screen</text>
</a>
</g>
<!-- Node31&#45;&gt;Node32 -->
<g id="edge80" class="edge"><title>Node31&#45;&gt;Node32</title>
<path fill="none" stroke="midnightblue" d="M2056.24,-139.085C2064.32,-139.085 2073.26,-139.085 2082.27,-139.085"/>
<polygon fill="midnightblue" stroke="midnightblue" points="2056.19,-135.585 2046.19,-139.085 2056.19,-142.585 2056.19,-135.585"/>
</g>
<!-- Node32&#45;&gt;Node6 -->
<g id="edge82" class="edge"><title>Node32&#45;&gt;Node6</title>
<path fill="none" stroke="midnightblue" d="M2189.92,-154.312C2208.55,-160.626 2229.16,-167.614 2243.74,-172.554"/>
<polygon fill="midnightblue" stroke="midnightblue" points="2191,-150.982 2180.4,-151.086 2188.75,-157.611 2191,-150.982"/>
</g>
<!-- Node33&#45;&gt;Node8 -->
<g id="edge86" class="edge"><title>Node33&#45;&gt;Node8</title>
<path fill="none" stroke="midnightblue" d="M726.473,-303.348C740.989,-295.986 757.065,-288.034 772,-281.085 778.4,-278.107 785.189,-275.07 791.904,-272.136"/>
<polygon fill="midnightblue" stroke="midnightblue" points="724.505,-300.423 717.187,-308.084 727.685,-306.659 724.505,-300.423"/>
</g>
<!-- Node34&#45;&gt;Node10 -->
<g id="edge94" class="edge"><title>Node34&#45;&gt;Node10</title>
<path fill="none" stroke="midnightblue" d="M417.833,-264.306C482.753,-248.84 586.204,-224.193 641.406,-211.041"/>
<polygon fill="midnightblue" stroke="midnightblue" points="416.674,-260.984 407.758,-266.707 418.296,-267.794 416.674,-260.984"/>
</g>
<!-- Node34&#45;&gt;Node20 -->
<g id="edge92" class="edge"><title>Node34&#45;&gt;Node20</title>
<path fill="none" stroke="midnightblue" d="M387.902,-260.658C408.775,-248.229 438.363,-231.874 466,-221.085 649.742,-149.354 714.7,-141.821 908,-181.085 963.818,-192.423 981.979,-194.94 1026,-231.085 1048.01,-249.155 1041.04,-264.806 1062,-284.085 1066.28,-288.018 1071.14,-291.651 1076.16,-294.94"/>
<polygon fill="midnightblue" stroke="midnightblue" points="385.994,-257.721 379.242,-265.886 389.612,-263.714 385.994,-257.721"/>
</g>
<!-- Node35 -->
<g id="node83" class="node"><title>Node35</title>
<a xlink:href="keyboard__functions2_8cpp.html#a1069ef07040abfea667ec14eeefe7e56" target="_top" xlink:title="key_go">
<polygon fill="white" stroke="black" points="502,-266.085 502,-290.085 550,-290.085 550,-266.085 502,-266.085"/>
<text text-anchor="middle" x="526" y="-277.085" font-family="Helvetica,sans-Serif" font-size="10.00">key_go</text>
</a>
</g>
<!-- Node34&#45;&gt;Node35 -->
<g id="edge96" class="edge"><title>Node34&#45;&gt;Node35</title>
<path fill="none" stroke="midnightblue" d="M417.572,-278.085C446.463,-278.085 479.903,-278.085 501.922,-278.085"/>
<polygon fill="midnightblue" stroke="midnightblue" points="417.569,-274.585 407.569,-278.085 417.569,-281.585 417.569,-274.585"/>
</g>
<!-- Node36 -->
<g id="node86" class="node"><title>Node36</title>
<a xlink:href="sequentiel__6__core_8cpp.html#a152c03ccf49d8d9a457e048daaa48023" target="_top" xlink:title="do_logical_x1_x2">
<polygon fill="white" stroke="black" points="480,-308.085 480,-332.085 572,-332.085 572,-308.085 480,-308.085"/>
<text text-anchor="middle" x="526" y="-319.085" font-family="Helvetica,sans-Serif" font-size="10.00">do_logical_x1_x2</text>
</a>
</g>
<!-- Node34&#45;&gt;Node36 -->
<g id="edge100" class="edge"><title>Node34&#45;&gt;Node36</title>
<path fill="none" stroke="midnightblue" d="M417.382,-292.603C437.796,-297.768 460.503,-303.513 479.855,-308.41"/>
<polygon fill="midnightblue" stroke="midnightblue" points="418.122,-289.18 407.569,-290.12 416.405,-295.966 418.122,-289.18"/>
</g>
<!-- Node35&#45;&gt;Node13 -->
<g id="edge98" class="edge"><title>Node35&#45;&gt;Node13</title>
<path fill="none" stroke="midnightblue" d="M560.374,-280.712C615.336,-284.913 723.362,-293.17 787.869,-298.1"/>
<polygon fill="midnightblue" stroke="midnightblue" points="560.355,-277.2 550.118,-279.928 559.822,-284.18 560.355,-277.2"/>
</g>
<!-- Node36&#45;&gt;Node33 -->
<g id="edge102" class="edge"><title>Node36&#45;&gt;Node33</title>
<path fill="none" stroke="midnightblue" d="M582.523,-323.04C595.504,-323.719 609.311,-324.441 622.299,-325.12"/>
<polygon fill="midnightblue" stroke="midnightblue" points="582.489,-319.534 572.32,-322.507 582.124,-326.524 582.489,-319.534"/>
</g>
<!-- Node37&#45;&gt;Node7 -->
<g id="edge106" class="edge"><title>Node37&#45;&gt;Node7</title>
<path fill="none" stroke="midnightblue" d="M422.606,-370.085C441.065,-370.085 460.96,-370.085 478.32,-370.085"/>
<polygon fill="midnightblue" stroke="midnightblue" points="422.523,-366.585 412.523,-370.085 422.523,-373.585 422.523,-366.585"/>
</g>
<!-- Node38&#45;&gt;Node6 -->
<g id="edge118" class="edge"><title>Node38&#45;&gt;Node6</title>
<path fill="none" stroke="midnightblue" d="M231.007,-45.9281C247.685,-36.9242 269.365,-26.6362 290,-21.0847 391.615,6.25396 420.772,-2.08465 526,-2.08465 526,-2.08465 526,-2.08465 2024,-2.08465 2135.01,-2.08465 2228.13,-126.929 2255.11,-166.919"/>
<polygon fill="midnightblue" stroke="midnightblue" points="228.853,-43.1204 221.81,-51.0356 232.252,-49.24 228.853,-43.1204"/>
</g>
<!-- Node39 -->
<g id="node99" class="node"><title>Node39</title>
<a xlink:href="save__show__13_8cpp.html#a1eafc1ecb75f36c1fe85c967bdea99b0" target="_top" xlink:title="load_the_show">
<polygon fill="white" stroke="black" points="319,-72.0847 319,-96.0847 401,-96.0847 401,-72.0847 319,-72.0847"/>
<text text-anchor="middle" x="360" y="-83.0847" font-family="Helvetica,sans-Serif" font-size="10.00">load_the_show</text>
</a>
</g>
<!-- Node38&#45;&gt;Node39 -->
<g id="edge120" class="edge"><title>Node38&#45;&gt;Node39</title>
<path fill="none" stroke="midnightblue" d="M246.346,-68.9787C269.054,-71.9969 296.527,-75.6483 318.773,-78.6051"/>
<polygon fill="midnightblue" stroke="midnightblue" points="246.658,-65.4895 236.284,-67.6413 245.735,-72.4284 246.658,-65.4895"/>
</g>
<!-- Node43 -->
<g id="node109" class="node"><title>Node43</title>
<a xlink:href="save__show__13_8cpp.html#a2c8ff847dfaf2dc6c8765b2bee26edfc" target="_top" xlink:title="do_wizard_reload_from_disk">
<polygon fill="white" stroke="black" points="290,-30.0847 290,-54.0847 430,-54.0847 430,-30.0847 290,-30.0847"/>
<text text-anchor="middle" x="360" y="-41.0847" font-family="Helvetica,sans-Serif" font-size="10.00">do_wizard_reload_from_disk</text>
</a>
</g>
<!-- Node38&#45;&gt;Node43 -->
<g id="edge132" class="edge"><title>Node38&#45;&gt;Node43</title>
<path fill="none" stroke="midnightblue" d="M246.252,-57.2031C259.764,-55.4071 274.971,-53.386 289.763,-51.42"/>
<polygon fill="midnightblue" stroke="midnightblue" points="245.735,-53.7409 236.284,-58.528 246.658,-60.6798 245.735,-53.7409"/>
</g>
<!-- Node40 -->
<g id="node101" class="node"><title>Node40</title>
<a xlink:href="logicals__intres_8cpp.html#a74cf9c04c734ab342f88799efbfc4210" target="_top" xlink:title="operations_confirmation">
<polygon fill="white" stroke="black" points="466,-52.0847 466,-76.0847 586,-76.0847 586,-52.0847 466,-52.0847"/>
<text text-anchor="middle" x="526" y="-63.0847" font-family="Helvetica,sans-Serif" font-size="10.00">operations_confirmation</text>
</a>
</g>
<!-- Node39&#45;&gt;Node40 -->
<g id="edge122" class="edge"><title>Node39&#45;&gt;Node40</title>
<path fill="none" stroke="midnightblue" d="M411.422,-77.8892C428.599,-75.8197 447.896,-73.4948 465.687,-71.3513"/>
<polygon fill="midnightblue" stroke="midnightblue" points="410.543,-74.4697 401.034,-79.1408 411.381,-81.4194 410.543,-74.4697"/>
</g>
<!-- Node41 -->
<g id="node103" class="node"><title>Node41</title>
<a xlink:href="keyboard__functions2_8cpp.html#a548548066307f816c5021de7d6e4f26a" target="_top" xlink:title="key_affectation">
<polygon fill="white" stroke="black" points="637.5,-72.0847 637.5,-96.0847 720.5,-96.0847 720.5,-72.0847 637.5,-72.0847"/>
<text text-anchor="middle" x="679" y="-83.0847" font-family="Helvetica,sans-Serif" font-size="10.00">key_affectation</text>
</a>
</g>
<!-- Node40&#45;&gt;Node41 -->
<g id="edge124" class="edge"><title>Node40&#45;&gt;Node41</title>
<path fill="none" stroke="midnightblue" d="M596.142,-73.2535C610.135,-75.0827 624.414,-76.9492 637.088,-78.6059"/>
<polygon fill="midnightblue" stroke="midnightblue" points="596.4,-69.7576 586.031,-71.9318 595.492,-76.6985 596.4,-69.7576"/>
</g>
<!-- Node42 -->
<g id="node106" class="node"><title>Node42</title>
<a xlink:href="logicals__intres_8cpp.html#a85967c22135715eca94d08af2ec1a1fb" target="_top" xlink:title="fenetre_confirm">
<polygon fill="white" stroke="black" points="1488,-38.0847 1488,-62.0847 1572,-62.0847 1572,-38.0847 1488,-38.0847"/>
<text text-anchor="middle" x="1530" y="-49.0847" font-family="Helvetica,sans-Serif" font-size="10.00">fenetre_confirm</text>
</a>
</g>
<!-- Node40&#45;&gt;Node42 -->
<g id="edge128" class="edge"><title>Node40&#45;&gt;Node42</title>
<path fill="none" stroke="midnightblue" d="M596.432,-57.0286C660.017,-51.2713 756.175,-44.0847 840,-44.0847 840,-44.0847 840,-44.0847 1268,-44.0847 1345.57,-44.0847 1436.03,-46.7461 1487.81,-48.5239"/>
<polygon fill="midnightblue" stroke="midnightblue" points="595.761,-53.5753 586.124,-57.9753 596.402,-60.546 595.761,-53.5753"/>
</g>
<!-- Node41&#45;&gt;Node13 -->
<g id="edge126" class="edge"><title>Node41&#45;&gt;Node13</title>
<path fill="none" stroke="midnightblue" d="M692.689,-104.782C705.036,-124.015 723.174,-153.728 736,-181.085 756.052,-223.854 737.839,-248.461 772,-281.085 776.557,-285.437 781.997,-288.888 787.788,-291.625"/>
<polygon fill="midnightblue" stroke="midnightblue" points="695.523,-102.72 687.142,-96.2389 689.652,-106.532 695.523,-102.72"/>
</g>
<!-- Node42&#45;&gt;Node31 -->
<g id="edge130" class="edge"><title>Node42&#45;&gt;Node31</title>
<path fill="none" stroke="midnightblue" d="M1582.14,-54.9343C1664.59,-63.3345 1829.72,-83.1341 1966,-118.085 1978.03,-121.171 1991.07,-125.772 2001.73,-129.881"/>
<polygon fill="midnightblue" stroke="midnightblue" points="1582.32,-51.4351 1572.02,-53.9188 1581.62,-58.4001 1582.32,-51.4351"/>
</g>
<!-- Node43&#45;&gt;Node40 -->
<g id="edge134" class="edge"><title>Node43&#45;&gt;Node40</title>
<path fill="none" stroke="midnightblue" d="M440.451,-52.7468C449.047,-53.886 457.679,-55.0301 465.979,-56.13"/>
<polygon fill="midnightblue" stroke="midnightblue" points="440.772,-49.2589 430.399,-51.4146 439.852,-56.1982 440.772,-49.2589"/>
</g>
<!-- Node44&#45;&gt;Node8 -->
<g id="edge138" class="edge"><title>Node44&#45;&gt;Node8</title>
<path fill="none" stroke="midnightblue" d="M261.476,-203.563C363.719,-167.02 577.12,-108.01 736,-181.085 758.336,-191.358 752.173,-208.548 772,-223.085 776.451,-226.348 781.325,-229.333 786.354,-232.041"/>
<polygon fill="midnightblue" stroke="midnightblue" points="260.142,-200.324 251.935,-207.024 262.529,-206.904 260.142,-200.324"/>
</g>
</g>
</svg>
