<?xml version="1.0" encoding="UTF-8" standalone="no"?>
<!DOCTYPE svg PUBLIC "-//W3C//DTD SVG 1.1//EN"
 "http://www.w3.org/Graphics/SVG/1.1/DTD/svg11.dtd">
<!-- Generated by graphviz version 2.26.3 (20100126.1600)
 -->
<!-- Title: clear_echo_preset Pages: 1 -->
<svg width="2146pt" height="394pt"
 viewBox="0.00 0.00 2146.00 394.00" xmlns="http://www.w3.org/2000/svg" xmlns:xlink="http://www.w3.org/1999/xlink">
<g id="graph1" class="graph" transform="scale(1 1) rotate(0) translate(4 390)">
<title>clear_echo_preset</title>
<polygon fill="white" stroke="white" points="-4,5 -4,-390 2143,-390 2143,5 -4,5"/>
<!-- Node1 -->
<g id="node1" class="node"><title>Node1</title>
<polygon fill="#bfbfbf" stroke="black" points="0,-40 0,-64 96,-64 96,-40 0,-40"/>
<text text-anchor="middle" x="48" y="-51" font-family="Helvetica,sans-Serif" font-size="10.00">clear_echo_preset</text>
</g>
<!-- Node2 -->
<g id="node3" class="node"><title>Node2</title>
<a xlink:href="banger__core__8_8cpp.html#ae4008269e0575da11cc90e812961ef6f" target="_top" xlink:title="Bang_event">
<polygon fill="white" stroke="black" points="218,-204 218,-228 286,-228 286,-204 218,-204"/>
<text text-anchor="middle" x="252" y="-215" font-family="Helvetica,sans-Serif" font-size="10.00">Bang_event</text>
</a>
</g>
<!-- Node1&#45;&gt;Node2 -->
<g id="edge2" class="edge"><title>Node1&#45;&gt;Node2</title>
<path fill="none" stroke="midnightblue" d="M71.0201,-70.5064C113.172,-104.393 201.661,-175.531 236.977,-203.923"/>
<polygon fill="midnightblue" stroke="midnightblue" points="72.9873,-67.5971 63.0006,-64.0593 68.6014,-73.0527 72.9873,-67.5971"/>
</g>
<!-- Node33 -->
<g id="node77" class="node"><title>Node33</title>
<a xlink:href="_c_o_r_e__6_8cpp.html#a5e53dc8ef589fe38b9d40e3497ac3f13" target="_top" xlink:title="GlobInit">
<polygon fill="white" stroke="black" points="132,-40 132,-64 182,-64 182,-40 132,-40"/>
<text text-anchor="middle" x="157" y="-51" font-family="Helvetica,sans-Serif" font-size="10.00">GlobInit</text>
</a>
</g>
<!-- Node1&#45;&gt;Node33 -->
<g id="edge88" class="edge"><title>Node1&#45;&gt;Node33</title>
<path fill="none" stroke="midnightblue" d="M106.278,-52C115.264,-52 124.112,-52 131.839,-52"/>
<polygon fill="midnightblue" stroke="midnightblue" points="106.126,-48.5001 96.1263,-52 106.126,-55.5001 106.126,-48.5001"/>
</g>
<!-- Node35 -->
<g id="node81" class="node"><title>Node35</title>
<a xlink:href="logicals__intres_8cpp.html#a74cf9c04c734ab342f88799efbfc4210" target="_top" xlink:title="operations_confirmation">
<polygon fill="white" stroke="black" points="322,-0 322,-24 442,-24 442,-0 322,-0"/>
<text text-anchor="middle" x="382" y="-11" font-family="Helvetica,sans-Serif" font-size="10.00">operations_confirmation</text>
</a>
</g>
<!-- Node1&#45;&gt;Node35 -->
<g id="edge106" class="edge"><title>Node1&#45;&gt;Node35</title>
<path fill="none" stroke="midnightblue" d="M103.406,-37.5466C112.917,-35.2383 122.723,-32.966 132,-31 169.956,-22.9563 179.389,-19.8168 218,-16 252.294,-12.6099 290.808,-11.5309 321.891,-11.3356"/>
<polygon fill="midnightblue" stroke="midnightblue" points="102.509,-34.163 93.6364,-39.9538 104.183,-40.9597 102.509,-34.163"/>
</g>
<!-- Node3 -->
<g id="node5" class="node"><title>Node3</title>
<a xlink:href="banger__core__8_8cpp.html#a4003a08a1620546de77b118c91d2fd9d" target="_top" xlink:title="do_bang">
<polygon fill="white" stroke="black" points="355.5,-362 355.5,-386 408.5,-386 408.5,-362 355.5,-362"/>
<text text-anchor="middle" x="382" y="-373" font-family="Helvetica,sans-Serif" font-size="10.00">do_bang</text>
</a>
</g>
<!-- Node2&#45;&gt;Node3 -->
<g id="edge4" class="edge"><title>Node2&#45;&gt;Node3</title>
<path fill="none" stroke="midnightblue" d="M261.21,-237.616C272.726,-262.85 294.335,-304.84 322,-334 332.599,-345.171 346.864,-354.841 358.825,-361.874"/>
<polygon fill="midnightblue" stroke="midnightblue" points="264.293,-235.935 257.036,-228.217 257.896,-238.777 264.293,-235.935"/>
</g>
<!-- Node6 -->
<g id="node11" class="node"><title>Node6</title>
<a xlink:href="banger__core__8_8cpp.html#a4fe16ad483c0c1609d97aeb9a23c74ee" target="_top" xlink:title="do_logical_fenetre\l_banger">
<polygon fill="white" stroke="black" points="334.5,-285 334.5,-325 429.5,-325 429.5,-285 334.5,-285"/>
<text text-anchor="start" x="342.5" y="-312" font-family="Helvetica,sans-Serif" font-size="10.00">do_logical_fenetre</text>
<text text-anchor="middle" x="382" y="-296" font-family="Helvetica,sans-Serif" font-size="10.00">_banger</text>
</a>
</g>
<!-- Node2&#45;&gt;Node6 -->
<g id="edge10" class="edge"><title>Node2&#45;&gt;Node6</title>
<path fill="none" stroke="midnightblue" d="M277.844,-233.693C299.312,-248.391 329.866,-269.308 352.331,-284.688"/>
<polygon fill="midnightblue" stroke="midnightblue" points="279.761,-230.764 269.532,-228.003 275.807,-236.54 279.761,-230.764"/>
</g>
<!-- Node8 -->
<g id="node16" class="node"><title>Node8</title>
<a xlink:href="banger__core__8_8cpp.html#ab405ab53ea444b049e5ffa258498fcb6" target="_top" xlink:title="refresh_banger_wx">
<polygon fill="white" stroke="black" points="332.5,-204 332.5,-228 431.5,-228 431.5,-204 332.5,-204"/>
<text text-anchor="middle" x="382" y="-215" font-family="Helvetica,sans-Serif" font-size="10.00">refresh_banger_wx</text>
</a>
</g>
<!-- Node2&#45;&gt;Node8 -->
<g id="edge16" class="edge"><title>Node2&#45;&gt;Node8</title>
<path fill="none" stroke="midnightblue" d="M296.47,-216C308.049,-216 320.598,-216 332.424,-216"/>
<polygon fill="midnightblue" stroke="midnightblue" points="296.156,-212.5 286.156,-216 296.156,-219.5 296.156,-212.5"/>
</g>
<!-- Node14 -->
<g id="node31" class="node"><title>Node14</title>
<a xlink:href="midi__13_8cpp.html#a6dff3d42682b58cc0a9875ee30fb4cd4" target="_top" xlink:title="do_midi_job">
<polygon fill="white" stroke="black" points="501,-120 501,-144 569,-144 569,-120 501,-120"/>
<text text-anchor="middle" x="535" y="-131" font-family="Helvetica,sans-Serif" font-size="10.00">do_midi_job</text>
</a>
</g>
<!-- Node2&#45;&gt;Node14 -->
<g id="edge86" class="edge"><title>Node2&#45;&gt;Node14</title>
<path fill="none" stroke="midnightblue" d="M295.774,-202.839C304.462,-200.235 313.519,-197.527 322,-195 385.013,-176.229 458.573,-154.516 500.679,-142.107"/>
<polygon fill="midnightblue" stroke="midnightblue" points="294.745,-199.494 286.172,-205.72 296.756,-206.199 294.745,-199.494"/>
</g>
<!-- Node4 -->
<g id="node7" class="node"><title>Node4</title>
<a xlink:href="_m_a_i_n__avec__objets_8cpp.html#a8e80f54ac804eddce8ed6e45adb1db44" target="_top" xlink:title="ticker_full_loop">
<polygon fill="white" stroke="black" points="800,-276 800,-300 882,-300 882,-276 800,-276"/>
<text text-anchor="middle" x="841" y="-287" font-family="Helvetica,sans-Serif" font-size="10.00">ticker_full_loop</text>
</a>
</g>
<!-- Node3&#45;&gt;Node4 -->
<g id="edge6" class="edge"><title>Node3&#45;&gt;Node4</title>
<path fill="none" stroke="midnightblue" d="M418.859,-376.023C488.426,-378.639 642.956,-378.683 764,-337 787.971,-328.745 812.056,-311.668 826.749,-300.021"/>
<polygon fill="midnightblue" stroke="midnightblue" points="418.97,-372.525 408.833,-375.605 418.679,-379.519 418.97,-372.525"/>
</g>
<!-- Node5 -->
<g id="node9" class="node"><title>Node5</title>
<a xlink:href="_m_a_i_n__avec__objets_8cpp.html#ae66f6b31b5ad750f1fe042a706a4e3d4" target="_top" xlink:title="main">
<polygon fill="white" stroke="black" points="2100,-160 2100,-184 2138,-184 2138,-160 2100,-160"/>
<text text-anchor="middle" x="2119" y="-171" font-family="Helvetica,sans-Serif" font-size="10.00">main</text>
</a>
</g>
<!-- Node4&#45;&gt;Node5 -->
<g id="edge8" class="edge"><title>Node4&#45;&gt;Node5</title>
<path fill="none" stroke="midnightblue" d="M892.387,-288C949.092,-288 1043.06,-288 1124,-288 1124,-288 1124,-288 1880,-288 1966.58,-288 1990.01,-268.964 2064,-224 2081.74,-213.218 2098.54,-195.937 2108.79,-184.287"/>
<polygon fill="midnightblue" stroke="midnightblue" points="892.244,-284.5 882.244,-288 892.244,-291.5 892.244,-284.5"/>
</g>
<!-- Node7 -->
<g id="node13" class="node"><title>Node7</title>
<a xlink:href="procs__visuels__rebuild1_8cpp.html#ae710b6e599e321ad5934a90140067054" target="_top" xlink:title="check_graphics_mouse\l_handling">
<polygon fill="white" stroke="black" points="636.5,-288 636.5,-328 755.5,-328 755.5,-288 636.5,-288"/>
<text text-anchor="start" x="644.5" y="-315" font-family="Helvetica,sans-Serif" font-size="10.00">check_graphics_mouse</text>
<text text-anchor="middle" x="696" y="-299" font-family="Helvetica,sans-Serif" font-size="10.00">_handling</text>
</a>
</g>
<!-- Node6&#45;&gt;Node7 -->
<g id="edge12" class="edge"><title>Node6&#45;&gt;Node7</title>
<path fill="none" stroke="midnightblue" d="M439.431,-327.467C451.956,-331.424 465.274,-334.935 478,-337 528.012,-345.116 541.801,-343.868 592,-337 606.579,-335.005 621.995,-331.507 636.365,-327.615"/>
<polygon fill="midnightblue" stroke="midnightblue" points="440.175,-324.027 429.582,-324.216 437.981,-330.674 440.175,-324.027"/>
</g>
<!-- Node7&#45;&gt;Node4 -->
<g id="edge14" class="edge"><title>Node7&#45;&gt;Node4</title>
<path fill="none" stroke="midnightblue" d="M765.971,-298.349C777.588,-296.746 789.292,-295.132 799.888,-293.671"/>
<polygon fill="midnightblue" stroke="midnightblue" points="765.242,-294.916 755.814,-299.75 766.199,-301.85 765.242,-294.916"/>
</g>
<!-- Node9 -->
<g id="node18" class="node"><title>Node9</title>
<a xlink:href="i_cat14_8cpp.html#a16285241f82898e7a5f051b03d90b9a3" target="_top" xlink:title="check_button">
<polygon fill="white" stroke="black" points="497.5,-246 497.5,-270 572.5,-270 572.5,-246 497.5,-246"/>
<text text-anchor="middle" x="535" y="-257" font-family="Helvetica,sans-Serif" font-size="10.00">check_button</text>
</a>
</g>
<!-- Node8&#45;&gt;Node9 -->
<g id="edge18" class="edge"><title>Node8&#45;&gt;Node9</title>
<path fill="none" stroke="midnightblue" d="M435.63,-230.722C456.013,-236.317 478.781,-242.567 497.376,-247.672"/>
<polygon fill="midnightblue" stroke="midnightblue" points="436.413,-227.308 425.844,-228.036 434.56,-234.058 436.413,-227.308"/>
</g>
<!-- Node11 -->
<g id="node23" class="node"><title>Node11</title>
<a xlink:href="keyboard__functions2_8cpp.html#af3dd6697323b10b480719c1612bcf29a" target="_top" xlink:title="key_backward">
<polygon fill="white" stroke="black" points="495,-204 495,-228 575,-228 575,-204 495,-204"/>
<text text-anchor="middle" x="535" y="-215" font-family="Helvetica,sans-Serif" font-size="10.00">key_backward</text>
</a>
</g>
<!-- Node8&#45;&gt;Node11 -->
<g id="edge24" class="edge"><title>Node8&#45;&gt;Node11</title>
<path fill="none" stroke="midnightblue" d="M441.929,-216C459.642,-216 478.6,-216 494.753,-216"/>
<polygon fill="midnightblue" stroke="midnightblue" points="441.675,-212.5 431.675,-216 441.675,-219.5 441.675,-212.5"/>
</g>
<!-- Node13 -->
<g id="node28" class="node"><title>Node13</title>
<a xlink:href="keyboard__functions2_8cpp.html#a6b73a3669797504ce2e357d9a8b9a2c2" target="_top" xlink:title="key_forward">
<polygon fill="white" stroke="black" points="500,-162 500,-186 570,-186 570,-162 500,-162"/>
<text text-anchor="middle" x="535" y="-173" font-family="Helvetica,sans-Serif" font-size="10.00">key_forward</text>
</a>
</g>
<!-- Node8&#45;&gt;Node13 -->
<g id="edge30" class="edge"><title>Node8&#45;&gt;Node13</title>
<path fill="none" stroke="midnightblue" d="M435.732,-201.25C457.015,-195.408 480.886,-188.855 499.885,-183.639"/>
<polygon fill="midnightblue" stroke="midnightblue" points="434.56,-197.942 425.844,-203.964 436.413,-204.692 434.56,-197.942"/>
</g>
<!-- Node8&#45;&gt;Node14 -->
<g id="edge34" class="edge"><title>Node8&#45;&gt;Node14</title>
<path fill="none" stroke="midnightblue" d="M406.261,-197.842C425.132,-184.282 452.336,-165.936 478,-153 485.157,-149.392 493.089,-146.076 500.704,-143.196"/>
<polygon fill="midnightblue" stroke="midnightblue" points="403.986,-195.169 397.962,-203.884 408.106,-200.828 403.986,-195.169"/>
</g>
<!-- Node32 -->
<g id="node73" class="node"><title>Node32</title>
<a xlink:href="sequentiel__6__core_8cpp.html#a2a71c851cf25565491dd10423bc80380" target="_top" xlink:title="do_logical_Sequenciel\l_Window">
<polygon fill="white" stroke="black" points="478.5,-288 478.5,-328 591.5,-328 591.5,-288 478.5,-288"/>
<text text-anchor="start" x="486.5" y="-315" font-family="Helvetica,sans-Serif" font-size="10.00">do_logical_Sequenciel</text>
<text text-anchor="middle" x="535" y="-299" font-family="Helvetica,sans-Serif" font-size="10.00">_Window</text>
</a>
</g>
<!-- Node8&#45;&gt;Node32 -->
<g id="edge82" class="edge"><title>Node8&#45;&gt;Node32</title>
<path fill="none" stroke="midnightblue" d="M407.76,-234.018C426.815,-247.071 453.587,-264.837 478,-279 483.186,-282.009 488.72,-285.038 494.225,-287.946"/>
<polygon fill="midnightblue" stroke="midnightblue" points="409.547,-230.999 399.327,-228.205 405.574,-236.762 409.547,-230.999"/>
</g>
<!-- Node10 -->
<g id="node20" class="node"><title>Node10</title>
<a xlink:href="i_cat14_8cpp.html#aa9772b548765a631d4bae1c14053b4e1" target="_top" xlink:title="DoJobFantastickTouch">
<polygon fill="white" stroke="black" points="637.5,-246 637.5,-270 754.5,-270 754.5,-246 637.5,-246"/>
<text text-anchor="middle" x="696" y="-257" font-family="Helvetica,sans-Serif" font-size="10.00">DoJobFantastickTouch</text>
</a>
</g>
<!-- Node9&#45;&gt;Node10 -->
<g id="edge20" class="edge"><title>Node9&#45;&gt;Node10</title>
<path fill="none" stroke="midnightblue" d="M583.039,-258C600.111,-258 619.521,-258 637.378,-258"/>
<polygon fill="midnightblue" stroke="midnightblue" points="582.747,-254.5 572.747,-258 582.747,-261.5 582.747,-254.5"/>
</g>
<!-- Node10&#45;&gt;Node4 -->
<g id="edge22" class="edge"><title>Node10&#45;&gt;Node4</title>
<path fill="none" stroke="midnightblue" d="M764.27,-272.125C776.407,-274.636 788.703,-277.18 799.791,-279.474"/>
<polygon fill="midnightblue" stroke="midnightblue" points="764.643,-268.628 754.142,-270.029 763.225,-275.483 764.643,-268.628"/>
</g>
<!-- Node12 -->
<g id="node25" class="node"><title>Node12</title>
<a xlink:href="keyboard__routines2_8cpp.html#a8563320b8eab661232619224650de244" target="_top" xlink:title="commandes_clavier">
<polygon fill="white" stroke="black" points="644,-183 644,-207 748,-207 748,-183 644,-183"/>
<text text-anchor="middle" x="696" y="-194" font-family="Helvetica,sans-Serif" font-size="10.00">commandes_clavier</text>
</a>
</g>
<!-- Node11&#45;&gt;Node12 -->
<g id="edge26" class="edge"><title>Node11&#45;&gt;Node12</title>
<path fill="none" stroke="midnightblue" d="M585.27,-209.443C603.898,-207.013 625.053,-204.254 643.845,-201.803"/>
<polygon fill="midnightblue" stroke="midnightblue" points="584.675,-205.991 575.212,-210.755 585.581,-212.932 584.675,-205.991"/>
</g>
<!-- Node12&#45;&gt;Node4 -->
<g id="edge28" class="edge"><title>Node12&#45;&gt;Node4</title>
<path fill="none" stroke="midnightblue" d="M724.855,-212.544C736.996,-219.997 751.239,-228.836 764,-237 784.395,-250.048 807.52,-265.447 823.058,-275.884"/>
<polygon fill="midnightblue" stroke="midnightblue" points="726.396,-209.383 716.04,-207.148 722.741,-215.354 726.396,-209.383"/>
</g>
<!-- Node13&#45;&gt;Node12 -->
<g id="edge32" class="edge"><title>Node13&#45;&gt;Node12</title>
<path fill="none" stroke="midnightblue" d="M580.326,-179.912C600.115,-182.493 623.436,-185.535 643.934,-188.209"/>
<polygon fill="midnightblue" stroke="midnightblue" points="580.701,-176.431 570.332,-178.609 579.795,-183.373 580.701,-176.431"/>
</g>
<!-- Node15 -->
<g id="node33" class="node"><title>Node15</title>
<a xlink:href="midi__13_8cpp.html#a6bedf9750195224914cd87c4e73ab626" target="_top" xlink:title="ventilate_midi_to_midiarray">
<polygon fill="white" stroke="black" points="628.5,-120 628.5,-144 763.5,-144 763.5,-120 628.5,-120"/>
<text text-anchor="middle" x="696" y="-131" font-family="Helvetica,sans-Serif" font-size="10.00">ventilate_midi_to_midiarray</text>
</a>
</g>
<!-- Node14&#45;&gt;Node15 -->
<g id="edge36" class="edge"><title>Node14&#45;&gt;Node15</title>
<path fill="none" stroke="midnightblue" d="M579.272,-132C594.455,-132 611.811,-132 628.414,-132"/>
<polygon fill="midnightblue" stroke="midnightblue" points="579.144,-128.5 569.144,-132 579.144,-135.5 579.144,-128.5"/>
</g>
<!-- Node16 -->
<g id="node35" class="node"><title>Node16</title>
<a xlink:href="midi__13_8cpp.html#afa49dd5668303c2448676c8243737c2d" target="_top" xlink:title="simulate_midi">
<polygon fill="white" stroke="black" points="802.5,-170 802.5,-194 879.5,-194 879.5,-170 802.5,-170"/>
<text text-anchor="middle" x="841" y="-181" font-family="Helvetica,sans-Serif" font-size="10.00">simulate_midi</text>
</a>
</g>
<!-- Node15&#45;&gt;Node16 -->
<g id="edge38" class="edge"><title>Node15&#45;&gt;Node16</title>
<path fill="none" stroke="midnightblue" d="M740.76,-147.435C761.743,-154.67 786.376,-163.164 805.972,-169.921"/>
<polygon fill="midnightblue" stroke="midnightblue" points="741.695,-144.055 731.1,-144.104 739.413,-150.672 741.695,-144.055"/>
</g>
<!-- Node20 -->
<g id="node45" class="node"><title>Node20</title>
<a xlink:href="midi__13_8cpp.html#a4104c2ae7e71376ad9dc78929450dc51" target="_top" xlink:title="EvAquire">
<polygon fill="white" stroke="black" points="813,-120 813,-144 869,-144 869,-120 813,-120"/>
<text text-anchor="middle" x="841" y="-131" font-family="Helvetica,sans-Serif" font-size="10.00">EvAquire</text>
</a>
</g>
<!-- Node15&#45;&gt;Node20 -->
<g id="edge50" class="edge"><title>Node15&#45;&gt;Node20</title>
<path fill="none" stroke="midnightblue" d="M773.947,-132C787.817,-132 801.419,-132 812.708,-132"/>
<polygon fill="midnightblue" stroke="midnightblue" points="773.83,-128.5 763.83,-132 773.83,-135.5 773.83,-128.5"/>
</g>
<!-- Node17 -->
<g id="node37" class="node"><title>Node17</title>
<a xlink:href="arduino__core__6___u_n_o_8cpp.html#ae72d1a8d74d9ab5515962e03e7e664d6" target="_top" xlink:title="arduino_do_analog_in\l_whitecat">
<polygon fill="white" stroke="black" points="918,-220 918,-260 1028,-260 1028,-220 918,-220"/>
<text text-anchor="start" x="926" y="-247" font-family="Helvetica,sans-Serif" font-size="10.00">arduino_do_analog_in</text>
<text text-anchor="middle" x="973" y="-231" font-family="Helvetica,sans-Serif" font-size="10.00">_whitecat</text>
</a>
</g>
<!-- Node16&#45;&gt;Node17 -->
<g id="edge40" class="edge"><title>Node16&#45;&gt;Node17</title>
<path fill="none" stroke="midnightblue" d="M877.539,-198.055C892.918,-204.812 910.982,-212.75 927.234,-219.891"/>
<polygon fill="midnightblue" stroke="midnightblue" points="878.914,-194.836 868.35,-194.018 876.098,-201.245 878.914,-194.836"/>
</g>
<!-- Node19 -->
<g id="node42" class="node"><title>Node19</title>
<a xlink:href="arduino__core__6___u_n_o_8cpp.html#a219226c1cd6cc17c78e62fd4445bb445" target="_top" xlink:title="arduino_do_digital\l_in_whitecat">
<polygon fill="white" stroke="black" points="925.5,-162 925.5,-202 1020.5,-202 1020.5,-162 925.5,-162"/>
<text text-anchor="start" x="933.5" y="-189" font-family="Helvetica,sans-Serif" font-size="10.00">arduino_do_digital</text>
<text text-anchor="middle" x="973" y="-173" font-family="Helvetica,sans-Serif" font-size="10.00">_in_whitecat</text>
</a>
</g>
<!-- Node16&#45;&gt;Node19 -->
<g id="edge46" class="edge"><title>Node16&#45;&gt;Node19</title>
<path fill="none" stroke="midnightblue" d="M889.541,-182C901.203,-182 913.648,-182 925.272,-182"/>
<polygon fill="midnightblue" stroke="midnightblue" points="889.535,-178.5 879.535,-182 889.535,-185.5 889.535,-178.5"/>
</g>
<!-- Node18 -->
<g id="node39" class="node"><title>Node18</title>
<a xlink:href="_m_a_i_n__avec__objets_8cpp.html#ace9c8a9b37c6087c3cffef442d71d70e" target="_top" xlink:title="dixiemes_de_secondes">
<polygon fill="white" stroke="black" points="1064.5,-220 1064.5,-244 1183.5,-244 1183.5,-220 1064.5,-220"/>
<text text-anchor="middle" x="1124" y="-231" font-family="Helvetica,sans-Serif" font-size="10.00">dixiemes_de_secondes</text>
</a>
</g>
<!-- Node17&#45;&gt;Node18 -->
<g id="edge42" class="edge"><title>Node17&#45;&gt;Node18</title>
<path fill="none" stroke="midnightblue" d="M1038.38,-236.536C1047,-236.08 1055.8,-235.613 1064.32,-235.162"/>
<polygon fill="midnightblue" stroke="midnightblue" points="1038.17,-233.042 1028.37,-237.067 1038.54,-240.032 1038.17,-233.042"/>
</g>
<!-- Node18&#45;&gt;Node5 -->
<g id="edge44" class="edge"><title>Node18&#45;&gt;Node5</title>
<path fill="none" stroke="midnightblue" d="M1193.83,-232C1246.62,-232 1320.86,-232 1386,-232 1386,-232 1386,-232 1880,-232 1964.06,-232 2059.89,-196.649 2099.89,-180.217"/>
<polygon fill="midnightblue" stroke="midnightblue" points="1193.57,-228.5 1183.57,-232 1193.57,-235.5 1193.57,-228.5"/>
</g>
<!-- Node19&#45;&gt;Node18 -->
<g id="edge48" class="edge"><title>Node19&#45;&gt;Node18</title>
<path fill="none" stroke="midnightblue" d="M1030.34,-200.986C1049.53,-207.342 1070.39,-214.249 1087.54,-219.928"/>
<polygon fill="midnightblue" stroke="midnightblue" points="1031.37,-197.641 1020.78,-197.82 1029.17,-204.286 1031.37,-197.641"/>
</g>
<!-- Node21 -->
<g id="node47" class="node"><title>Node21</title>
<a xlink:href="midi__13_8cpp.html#a831f1dfc7870ae4f6c64a0e65fbaf3ff" target="_top" xlink:title="Display">
<polygon fill="white" stroke="black" points="948,-120 948,-144 998,-144 998,-120 948,-120"/>
<text text-anchor="middle" x="973" y="-131" font-family="Helvetica,sans-Serif" font-size="10.00">Display</text>
</a>
</g>
<!-- Node20&#45;&gt;Node21 -->
<g id="edge52" class="edge"><title>Node20&#45;&gt;Node21</title>
<path fill="none" stroke="midnightblue" d="M879.366,-132C901.419,-132 928.496,-132 947.849,-132"/>
<polygon fill="midnightblue" stroke="midnightblue" points="879.317,-128.5 869.317,-132 879.317,-135.5 879.317,-128.5"/>
</g>
<!-- Node22 -->
<g id="node49" class="node"><title>Node22</title>
<a xlink:href="midi__13_8cpp.html#aa4aeee5088a4a5462566dfee5c9cc71f" target="_top" xlink:title="DisplayTask">
<polygon fill="white" stroke="black" points="1088.5,-162 1088.5,-186 1159.5,-186 1159.5,-162 1088.5,-162"/>
<text text-anchor="middle" x="1124" y="-173" font-family="Helvetica,sans-Serif" font-size="10.00">DisplayTask</text>
</a>
</g>
<!-- Node21&#45;&gt;Node22 -->
<g id="edge54" class="edge"><title>Node21&#45;&gt;Node22</title>
<path fill="none" stroke="midnightblue" d="M1008.1,-141.763C1032.25,-148.479 1064.21,-157.37 1088.46,-164.113"/>
<polygon fill="midnightblue" stroke="midnightblue" points="1008.85,-138.338 998.274,-139.03 1006.97,-145.082 1008.85,-138.338"/>
</g>
<!-- Node24 -->
<g id="node54" class="node"><title>Node24</title>
<a xlink:href="midi___c_o_r_e_8cpp.html#a6fcb4c2efe85f50488d7aeeef1fc0a3e" target="_top" xlink:title="ReceiveEvents">
<polygon fill="white" stroke="black" points="1082.5,-120 1082.5,-144 1165.5,-144 1165.5,-120 1082.5,-120"/>
<text text-anchor="middle" x="1124" y="-131" font-family="Helvetica,sans-Serif" font-size="10.00">ReceiveEvents</text>
</a>
</g>
<!-- Node21&#45;&gt;Node24 -->
<g id="edge60" class="edge"><title>Node21&#45;&gt;Node24</title>
<path fill="none" stroke="midnightblue" d="M1008.56,-132C1030.68,-132 1059.21,-132 1082.37,-132"/>
<polygon fill="midnightblue" stroke="midnightblue" points="1008.27,-128.5 998.274,-132 1008.27,-135.5 1008.27,-128.5"/>
</g>
<!-- Node23 -->
<g id="node51" class="node"><title>Node23</title>
<a xlink:href="midi___c_o_r_e_8cpp.html#a7d0f82d882071792d6a2df51ef13ec55" target="_top" xlink:title="ReceivePolling">
<polygon fill="white" stroke="black" points="1220,-162 1220,-186 1302,-186 1302,-162 1220,-162"/>
<text text-anchor="middle" x="1261" y="-173" font-family="Helvetica,sans-Serif" font-size="10.00">ReceivePolling</text>
</a>
</g>
<!-- Node22&#45;&gt;Node23 -->
<g id="edge56" class="edge"><title>Node22&#45;&gt;Node23</title>
<path fill="none" stroke="midnightblue" d="M1169.91,-174C1186.02,-174 1204.01,-174 1219.72,-174"/>
<polygon fill="midnightblue" stroke="midnightblue" points="1169.64,-170.5 1159.64,-174 1169.64,-177.5 1169.64,-170.5"/>
</g>
<!-- Node23&#45;&gt;Node23 -->
<g id="edge58" class="edge"><title>Node23&#45;&gt;Node23</title>
<path fill="none" stroke="midnightblue" d="M1238.51,-196.001C1240.81,-200.647 1248.31,-204 1261,-204 1281.83,-204 1288.66,-194.972 1281.5,-186.014"/>
<polygon fill="midnightblue" stroke="midnightblue" points="1241.98,-196.504 1240.5,-186.014 1235.12,-195.14 1241.98,-196.504"/>
</g>
<!-- Node24&#45;&gt;Node23 -->
<g id="edge62" class="edge"><title>Node24&#45;&gt;Node23</title>
<path fill="none" stroke="midnightblue" d="M1172.99,-147.018C1188.99,-151.924 1206.54,-157.305 1221.74,-161.963"/>
<polygon fill="midnightblue" stroke="midnightblue" points="1173.85,-143.62 1163.26,-144.036 1171.79,-150.313 1173.85,-143.62"/>
</g>
<!-- Node25 -->
<g id="node57" class="node"><title>Node25</title>
<a xlink:href="midi___c_o_r_e_8cpp.html#a0ccf480a33424e626f88d109d53d8366" target="_top" xlink:title="InitMidi">
<polygon fill="white" stroke="black" points="1237,-120 1237,-144 1285,-144 1285,-120 1237,-120"/>
<text text-anchor="middle" x="1261" y="-131" font-family="Helvetica,sans-Serif" font-size="10.00">InitMidi</text>
</a>
</g>
<!-- Node24&#45;&gt;Node25 -->
<g id="edge64" class="edge"><title>Node24&#45;&gt;Node25</title>
<path fill="none" stroke="midnightblue" d="M1175.93,-132C1196.89,-132 1220.06,-132 1236.92,-132"/>
<polygon fill="midnightblue" stroke="midnightblue" points="1175.85,-128.5 1165.85,-132 1175.85,-135.5 1175.85,-128.5"/>
</g>
<!-- Node25&#45;&gt;Node5 -->
<g id="edge66" class="edge"><title>Node25&#45;&gt;Node5</title>
<path fill="none" stroke="midnightblue" d="M1294.78,-142.444C1308.13,-146.248 1323.68,-150.279 1338,-153 1413.99,-167.443 1433.65,-172 1511,-172 1511,-172 1511,-172 1880,-172 1961.74,-172 2059.21,-172 2099.79,-172"/>
<polygon fill="midnightblue" stroke="midnightblue" points="1295.63,-139.047 1285.05,-139.604 1293.67,-145.766 1295.63,-139.047"/>
</g>
<!-- Node26 -->
<g id="node60" class="node"><title>Node26</title>
<a xlink:href="midi__13_8cpp.html#ac7a306aa81e374b447e7341d4d3a3eea" target="_top" xlink:title="midipage_devices">
<polygon fill="white" stroke="black" points="1338.5,-120 1338.5,-144 1433.5,-144 1433.5,-120 1338.5,-120"/>
<text text-anchor="middle" x="1386" y="-131" font-family="Helvetica,sans-Serif" font-size="10.00">midipage_devices</text>
</a>
</g>
<!-- Node25&#45;&gt;Node26 -->
<g id="edge68" class="edge"><title>Node25&#45;&gt;Node26</title>
<path fill="none" stroke="midnightblue" d="M1295.25,-132C1308.57,-132 1324.05,-132 1338.42,-132"/>
<polygon fill="midnightblue" stroke="midnightblue" points="1295.1,-128.5 1285.1,-132 1295.1,-135.5 1295.1,-128.5"/>
</g>
<!-- Node27 -->
<g id="node62" class="node"><title>Node27</title>
<a xlink:href="midi__13_8cpp.html#a8f70acacad6eaba8867bdd80dda5e277" target="_top" xlink:title="do_midi_config">
<polygon fill="white" stroke="black" points="1470,-120 1470,-144 1552,-144 1552,-120 1470,-120"/>
<text text-anchor="middle" x="1511" y="-131" font-family="Helvetica,sans-Serif" font-size="10.00">do_midi_config</text>
</a>
</g>
<!-- Node26&#45;&gt;Node27 -->
<g id="edge70" class="edge"><title>Node26&#45;&gt;Node27</title>
<path fill="none" stroke="midnightblue" d="M1443.77,-132C1452.5,-132 1461.35,-132 1469.65,-132"/>
<polygon fill="midnightblue" stroke="midnightblue" points="1443.61,-128.5 1433.61,-132 1443.61,-135.5 1443.61,-128.5"/>
</g>
<!-- Node28 -->
<g id="node64" class="node"><title>Node28</title>
<a xlink:href="_c_f_g__config__panel__8_8cpp.html#ad39c46e2fb3a3ba7ea0460140ead4f96" target="_top" xlink:title="do_panel_config">
<polygon fill="white" stroke="black" points="1588.5,-120 1588.5,-144 1675.5,-144 1675.5,-120 1588.5,-120"/>
<text text-anchor="middle" x="1632" y="-131" font-family="Helvetica,sans-Serif" font-size="10.00">do_panel_config</text>
</a>
</g>
<!-- Node27&#45;&gt;Node28 -->
<g id="edge72" class="edge"><title>Node27&#45;&gt;Node28</title>
<path fill="none" stroke="midnightblue" d="M1562.33,-132C1571.01,-132 1579.95,-132 1588.41,-132"/>
<polygon fill="midnightblue" stroke="midnightblue" points="1562.3,-128.5 1552.3,-132 1562.3,-135.5 1562.3,-128.5"/>
</g>
<!-- Node29 -->
<g id="node66" class="node"><title>Node29</title>
<a xlink:href="_c_f_g__config__panel__8_8cpp.html#a7968da66bccdba8b864caf6c8435f68e" target="_top" xlink:title="config_general_menu">
<polygon fill="white" stroke="black" points="1712.5,-120 1712.5,-144 1821.5,-144 1821.5,-120 1712.5,-120"/>
<text text-anchor="middle" x="1767" y="-131" font-family="Helvetica,sans-Serif" font-size="10.00">config_general_menu</text>
</a>
</g>
<!-- Node28&#45;&gt;Node29 -->
<g id="edge74" class="edge"><title>Node28&#45;&gt;Node29</title>
<path fill="none" stroke="midnightblue" d="M1686.07,-132C1694.62,-132 1703.47,-132 1712.04,-132"/>
<polygon fill="midnightblue" stroke="midnightblue" points="1685.83,-128.5 1675.83,-132 1685.83,-135.5 1685.83,-128.5"/>
</g>
<!-- Node30 -->
<g id="node68" class="node"><title>Node30</title>
<a xlink:href="graphics__rebuild1_8cpp.html#ac2eae1e03fb72cc734ffbcef566483bf" target="_top" xlink:title="Boxes">
<polygon fill="white" stroke="black" points="1858,-120 1858,-144 1902,-144 1902,-120 1858,-120"/>
<text text-anchor="middle" x="1880" y="-131" font-family="Helvetica,sans-Serif" font-size="10.00">Boxes</text>
</a>
</g>
<!-- Node29&#45;&gt;Node30 -->
<g id="edge76" class="edge"><title>Node29&#45;&gt;Node30</title>
<path fill="none" stroke="midnightblue" d="M1831.75,-132C1841.11,-132 1850.17,-132 1857.86,-132"/>
<polygon fill="midnightblue" stroke="midnightblue" points="1831.51,-128.5 1821.51,-132 1831.51,-135.5 1831.51,-128.5"/>
</g>
<!-- Node31 -->
<g id="node70" class="node"><title>Node31</title>
<a xlink:href="_m_a_i_n__avec__objets_8cpp.html#ade8d4ba65d55c94f8ee277829d722155" target="_top" xlink:title="main_actions_on_screen">
<polygon fill="white" stroke="black" points="1938.5,-120 1938.5,-144 2063.5,-144 2063.5,-120 1938.5,-120"/>
<text text-anchor="middle" x="2001" y="-131" font-family="Helvetica,sans-Serif" font-size="10.00">main_actions_on_screen</text>
</a>
</g>
<!-- Node30&#45;&gt;Node31 -->
<g id="edge78" class="edge"><title>Node30&#45;&gt;Node31</title>
<path fill="none" stroke="midnightblue" d="M1912.24,-132C1920.32,-132 1929.26,-132 1938.27,-132"/>
<polygon fill="midnightblue" stroke="midnightblue" points="1912.19,-128.5 1902.19,-132 1912.19,-135.5 1912.19,-128.5"/>
</g>
<!-- Node31&#45;&gt;Node5 -->
<g id="edge80" class="edge"><title>Node31&#45;&gt;Node5</title>
<path fill="none" stroke="midnightblue" d="M2045.92,-147.227C2064.55,-153.542 2085.16,-160.53 2099.74,-165.47"/>
<polygon fill="midnightblue" stroke="midnightblue" points="2047,-143.897 2036.4,-144.001 2044.75,-150.527 2047,-143.897"/>
</g>
<!-- Node32&#45;&gt;Node7 -->
<g id="edge84" class="edge"><title>Node32&#45;&gt;Node7</title>
<path fill="none" stroke="midnightblue" d="M602.106,-308C613.511,-308 625.286,-308 636.478,-308"/>
<polygon fill="midnightblue" stroke="midnightblue" points="601.763,-304.5 591.763,-308 601.763,-311.5 601.763,-304.5"/>
</g>
<!-- Node33&#45;&gt;Node5 -->
<g id="edge104" class="edge"><title>Node33&#45;&gt;Node5</title>
<path fill="none" stroke="midnightblue" d="M191.764,-65.4161C200.245,-68.2845 209.365,-71.0378 218,-73 289.552,-89.2596 308.624,-92 382,-92 382,-92 382,-92 1880,-92 1962.21,-92 1990.7,-73.768 2064,-111 2085.74,-122.043 2102.98,-145.55 2112.03,-159.943"/>
<polygon fill="midnightblue" stroke="midnightblue" points="192.763,-62.0573 182.168,-62.0363 190.438,-68.6597 192.763,-62.0573"/>
</g>
<!-- Node34 -->
<g id="node79" class="node"><title>Node34</title>
<a xlink:href="_c_o_r_e__6_8cpp.html#a29400ad92b676ecb7743384700af5560" target="_top" xlink:title="reset_show">
<polygon fill="white" stroke="black" points="218.5,-40 218.5,-64 285.5,-64 285.5,-40 218.5,-40"/>
<text text-anchor="middle" x="252" y="-51" font-family="Helvetica,sans-Serif" font-size="10.00">reset_show</text>
</a>
</g>
<!-- Node33&#45;&gt;Node34 -->
<g id="edge90" class="edge"><title>Node33&#45;&gt;Node34</title>
<path fill="none" stroke="midnightblue" d="M192.698,-52C201.07,-52 209.964,-52 218.247,-52"/>
<polygon fill="midnightblue" stroke="midnightblue" points="192.458,-48.5001 182.458,-52 192.458,-55.5001 192.458,-48.5001"/>
</g>
<!-- Node33&#45;&gt;Node35 -->
<g id="edge102" class="edge"><title>Node33&#45;&gt;Node35</title>
<path fill="none" stroke="midnightblue" d="M191.764,-38.5839C200.245,-35.7155 209.365,-32.9622 218,-31 251.959,-23.283 290.626,-18.6113 321.881,-15.8325"/>
<polygon fill="midnightblue" stroke="midnightblue" points="190.438,-35.3403 182.168,-41.9637 192.763,-41.9427 190.438,-35.3403"/>
</g>
<!-- Node34&#45;&gt;Node35 -->
<g id="edge92" class="edge"><title>Node34&#45;&gt;Node35</title>
<path fill="none" stroke="midnightblue" d="M295.565,-38.5955C310.852,-33.8918 327.92,-28.64 342.825,-24.0539"/>
<polygon fill="midnightblue" stroke="midnightblue" points="294.345,-35.3087 285.817,-41.5949 296.404,-41.9992 294.345,-35.3087"/>
</g>
<!-- Node36 -->
<g id="node83" class="node"><title>Node36</title>
<a xlink:href="keyboard__functions2_8cpp.html#a548548066307f816c5021de7d6e4f26a" target="_top" xlink:title="key_affectation">
<polygon fill="white" stroke="black" points="493.5,-40 493.5,-64 576.5,-64 576.5,-40 493.5,-40"/>
<text text-anchor="middle" x="535" y="-51" font-family="Helvetica,sans-Serif" font-size="10.00">key_affectation</text>
</a>
</g>
<!-- Node35&#45;&gt;Node36 -->
<g id="edge94" class="edge"><title>Node35&#45;&gt;Node36</title>
<path fill="none" stroke="midnightblue" d="M437.623,-26.5418C456.01,-31.3489 476.139,-36.6115 493.299,-41.0979"/>
<polygon fill="midnightblue" stroke="midnightblue" points="438.465,-23.1446 427.905,-24.0013 436.695,-29.917 438.465,-23.1446"/>
</g>
<!-- Node37 -->
<g id="node86" class="node"><title>Node37</title>
<a xlink:href="logicals__intres_8cpp.html#a85967c22135715eca94d08af2ec1a1fb" target="_top" xlink:title="fenetre_confirm">
<polygon fill="white" stroke="black" points="1344,-20 1344,-44 1428,-44 1428,-20 1344,-20"/>
<text text-anchor="middle" x="1386" y="-31" font-family="Helvetica,sans-Serif" font-size="10.00">fenetre_confirm</text>
</a>
</g>
<!-- Node35&#45;&gt;Node37 -->
<g id="edge98" class="edge"><title>Node35&#45;&gt;Node37</title>
<path fill="none" stroke="midnightblue" d="M452.514,-12C516.153,-12 612.345,-12 696,-12 696,-12 696,-12 1124,-12 1201.78,-12 1292.17,-20.8715 1343.87,-26.7974"/>
<polygon fill="midnightblue" stroke="midnightblue" points="452.196,-8.5001 442.196,-12 452.196,-15.5001 452.196,-8.5001"/>
</g>
<!-- Node36&#45;&gt;Node12 -->
<g id="edge96" class="edge"><title>Node36&#45;&gt;Node12</title>
<path fill="none" stroke="midnightblue" d="M554.199,-71.2884C565.396,-82.6813 579.693,-97.4782 592,-111 608.548,-129.182 609.319,-137.017 628,-153 641.601,-164.637 658.761,-175.211 672.44,-182.838"/>
<polygon fill="midnightblue" stroke="midnightblue" points="556.521,-68.6592 547.005,-64.0023 551.54,-73.5774 556.521,-68.6592"/>
</g>
<!-- Node37&#45;&gt;Node30 -->
<g id="edge100" class="edge"><title>Node37&#45;&gt;Node30</title>
<path fill="none" stroke="midnightblue" d="M1438.43,-38.5959C1520.95,-49.6244 1685.77,-74.2768 1822,-111 1834.1,-114.261 1847.25,-118.928 1857.97,-123.034"/>
<polygon fill="midnightblue" stroke="midnightblue" points="1438.68,-35.0979 1428.3,-37.2558 1437.76,-42.0374 1438.68,-35.0979"/>
</g>
</g>
</svg>
