<?xml version="1.0" encoding="UTF-8" standalone="no"?>
<!DOCTYPE svg PUBLIC "-//W3C//DTD SVG 1.1//EN"
 "http://www.w3.org/Graphics/SVG/1.1/DTD/svg11.dtd">
<!-- Generated by graphviz version 2.26.3 (20100126.1600)
 -->
<!-- Title: attribute_midi_solo_affectation Pages: 1 -->
<svg width="256pt" height="48pt"
 viewBox="0.00 0.00 256.00 48.00" xmlns="http://www.w3.org/2000/svg" xmlns:xlink="http://www.w3.org/1999/xlink">
<g id="graph1" class="graph" transform="scale(1 1) rotate(0) translate(4 44)">
<title>attribute_midi_solo_affectation</title>
<polygon fill="white" stroke="white" points="-4,5 -4,-44 253,-44 253,5 -4,5"/>
<!-- Node1 -->
<g id="node1" class="node"><title>Node1</title>
<polygon fill="#bfbfbf" stroke="black" points="0,-0 0,-40 98,-40 98,-0 0,-0"/>
<text text-anchor="start" x="8" y="-27" font-family="Helvetica,sans-Serif" font-size="10.00">attribute_midi_solo</text>
<text text-anchor="middle" x="49" y="-11" font-family="Helvetica,sans-Serif" font-size="10.00">_affectation</text>
</g>
<!-- Node2 -->
<g id="node3" class="node"><title>Node2</title>
<a xlink:href="_c_o_r_e__6_8cpp.html#aa6f6d52757e4af2364c17c3e9dee8095" target="_top" xlink:title="search_and_desaffect\l_previous_midi_signal">
<polygon fill="white" stroke="black" points="134.5,-0 134.5,-40 247.5,-40 247.5,-0 134.5,-0"/>
<text text-anchor="start" x="142.5" y="-27" font-family="Helvetica,sans-Serif" font-size="10.00">search_and_desaffect</text>
<text text-anchor="middle" x="191" y="-11" font-family="Helvetica,sans-Serif" font-size="10.00">_previous_midi_signal</text>
</a>
</g>
<!-- Node1&#45;&gt;Node2 -->
<g id="edge2" class="edge"><title>Node1&#45;&gt;Node2</title>
<path fill="none" stroke="midnightblue" d="M98.2662,-20C106.557,-20 115.285,-20 123.935,-20"/>
<polygon fill="midnightblue" stroke="midnightblue" points="124.023,-23.5001 134.023,-20 124.023,-16.5001 124.023,-23.5001"/>
</g>
</g>
</svg>
