<?xml version="1.0" encoding="UTF-8" standalone="no"?>
<!DOCTYPE svg PUBLIC "-//W3C//DTD SVG 1.1//EN"
 "http://www.w3.org/Graphics/SVG/1.1/DTD/svg11.dtd">
<!-- Generated by graphviz version 2.26.3 (20100126.1600)
 -->
<!-- Title: set_patch_scroll Pages: 1 -->
<svg width="544pt" height="74pt"
 viewBox="0.00 0.00 544.00 74.00" xmlns="http://www.w3.org/2000/svg" xmlns:xlink="http://www.w3.org/1999/xlink">
<g id="graph1" class="graph" transform="scale(1 1) rotate(0) translate(4 70)">
<title>set_patch_scroll</title>
<polygon fill="white" stroke="white" points="-4,5 -4,-70 541,-70 541,5 -4,5"/>
<!-- Node1 -->
<g id="node1" class="node"><title>Node1</title>
<polygon fill="#bfbfbf" stroke="black" points="0,-21 0,-45 88,-45 88,-21 0,-21"/>
<text text-anchor="middle" x="44" y="-32" font-family="Helvetica,sans-Serif" font-size="10.00">set_patch_scroll</text>
</g>
<!-- Node2 -->
<g id="node3" class="node"><title>Node2</title>
<a xlink:href="keyboard__functions2_8cpp.html#afd699a465fe032ed5bddf70ed71228ce" target="_top" xlink:title="key_add_ch">
<polygon fill="white" stroke="black" points="129.5,-42 129.5,-66 198.5,-66 198.5,-42 129.5,-42"/>
<text text-anchor="middle" x="164" y="-53" font-family="Helvetica,sans-Serif" font-size="10.00">key_add_ch</text>
</a>
</g>
<!-- Node1&#45;&gt;Node2 -->
<g id="edge2" class="edge"><title>Node1&#45;&gt;Node2</title>
<path fill="none" stroke="midnightblue" d="M98.0819,-42.4643C108.721,-44.3263 119.612,-46.232 129.397,-47.9444"/>
<polygon fill="midnightblue" stroke="midnightblue" points="98.4558,-38.9767 88.0022,-40.7004 97.2491,-45.8719 98.4558,-38.9767"/>
</g>
<!-- Node6 -->
<g id="node11" class="node"><title>Node6</title>
<a xlink:href="keyboard__functions2_8cpp.html#a03c383f56267026d3d8d6378d3e11652" target="_top" xlink:title="key_minus_ch">
<polygon fill="white" stroke="black" points="124,-0 124,-24 204,-24 204,-0 124,-0"/>
<text text-anchor="middle" x="164" y="-11" font-family="Helvetica,sans-Serif" font-size="10.00">key_minus_ch</text>
</a>
</g>
<!-- Node1&#45;&gt;Node6 -->
<g id="edge10" class="edge"><title>Node1&#45;&gt;Node6</title>
<path fill="none" stroke="midnightblue" d="M98.1013,-23.5323C106.808,-22.0087 115.681,-20.4558 123.979,-19.0036"/>
<polygon fill="midnightblue" stroke="midnightblue" points="97.2491,-20.1281 88.0022,-25.2996 98.4558,-27.0233 97.2491,-20.1281"/>
</g>
<!-- Node3 -->
<g id="node5" class="node"><title>Node3</title>
<a xlink:href="keyboard__routines2_8cpp.html#a8563320b8eab661232619224650de244" target="_top" xlink:title="commandes_clavier">
<polygon fill="white" stroke="black" points="240,-21 240,-45 344,-45 344,-21 240,-21"/>
<text text-anchor="middle" x="292" y="-32" font-family="Helvetica,sans-Serif" font-size="10.00">commandes_clavier</text>
</a>
</g>
<!-- Node2&#45;&gt;Node3 -->
<g id="edge4" class="edge"><title>Node2&#45;&gt;Node3</title>
<path fill="none" stroke="midnightblue" d="M208.713,-46.6642C218.663,-45.0318 229.3,-43.2868 239.529,-41.6085"/>
<polygon fill="midnightblue" stroke="midnightblue" points="207.94,-43.2442 198.639,-48.3171 209.073,-50.1519 207.94,-43.2442"/>
</g>
<!-- Node4 -->
<g id="node7" class="node"><title>Node4</title>
<a xlink:href="_m_a_i_n__avec__objets_8cpp.html#a8e80f54ac804eddce8ed6e45adb1db44" target="_top" xlink:title="ticker_full_loop">
<polygon fill="white" stroke="black" points="380,-21 380,-45 462,-45 462,-21 380,-21"/>
<text text-anchor="middle" x="421" y="-32" font-family="Helvetica,sans-Serif" font-size="10.00">ticker_full_loop</text>
</a>
</g>
<!-- Node3&#45;&gt;Node4 -->
<g id="edge6" class="edge"><title>Node3&#45;&gt;Node4</title>
<path fill="none" stroke="midnightblue" d="M354.228,-33C362.912,-33 371.651,-33 379.814,-33"/>
<polygon fill="midnightblue" stroke="midnightblue" points="354.097,-29.5001 344.097,-33 354.097,-36.5001 354.097,-29.5001"/>
</g>
<!-- Node5 -->
<g id="node9" class="node"><title>Node5</title>
<a xlink:href="_m_a_i_n__avec__objets_8cpp.html#ae66f6b31b5ad750f1fe042a706a4e3d4" target="_top" xlink:title="main">
<polygon fill="white" stroke="black" points="498,-21 498,-45 536,-45 536,-21 498,-21"/>
<text text-anchor="middle" x="517" y="-32" font-family="Helvetica,sans-Serif" font-size="10.00">main</text>
</a>
</g>
<!-- Node4&#45;&gt;Node5 -->
<g id="edge8" class="edge"><title>Node4&#45;&gt;Node5</title>
<path fill="none" stroke="midnightblue" d="M472.509,-33C481.577,-33 490.476,-33 497.904,-33"/>
<polygon fill="midnightblue" stroke="midnightblue" points="472.27,-29.5001 462.27,-33 472.27,-36.5001 472.27,-29.5001"/>
</g>
<!-- Node6&#45;&gt;Node3 -->
<g id="edge12" class="edge"><title>Node6&#45;&gt;Node3</title>
<path fill="none" stroke="midnightblue" d="M214.188,-20.234C222.588,-21.6122 231.322,-23.045 239.772,-24.4313"/>
<polygon fill="midnightblue" stroke="midnightblue" points="214.584,-16.7522 204.149,-18.5869 213.45,-23.6598 214.584,-16.7522"/>
</g>
</g>
</svg>
