<?xml version="1.0" encoding="UTF-8" standalone="no"?>
<!DOCTYPE svg PUBLIC "-//W3C//DTD SVG 1.1//EN"
 "http://www.w3.org/Graphics/SVG/1.1/DTD/svg11.dtd">
<!-- Generated by graphviz version 2.26.3 (20100126.1600)
 -->
<!-- Title: clear_echo_levels Pages: 1 -->
<svg width="1808pt" height="182pt"
 viewBox="0.00 0.00 1808.00 182.00" xmlns="http://www.w3.org/2000/svg" xmlns:xlink="http://www.w3.org/1999/xlink">
<g id="graph1" class="graph" transform="scale(1 1) rotate(0) translate(4 178)">
<title>clear_echo_levels</title>
<polygon fill="white" stroke="white" points="-4,5 -4,-178 1805,-178 1805,5 -4,5"/>
<!-- Node1 -->
<g id="node1" class="node"><title>Node1</title>
<polygon fill="#bfbfbf" stroke="black" points="0.5,-90 0.5,-114 95.5,-114 95.5,-90 0.5,-90"/>
<text text-anchor="middle" x="48" y="-101" font-family="Helvetica,sans-Serif" font-size="10.00">clear_echo_levels</text>
</g>
<!-- Node2 -->
<g id="node3" class="node"><title>Node2</title>
<a xlink:href="echo3_8cpp.html#a440d7e78e4b39340e539bef8b9d7e2e1" target="_top" xlink:title="do_logical_echo_window">
<polygon fill="white" stroke="black" points="132.5,-112 132.5,-136 257.5,-136 257.5,-112 132.5,-112"/>
<text text-anchor="middle" x="195" y="-123" font-family="Helvetica,sans-Serif" font-size="10.00">do_logical_echo_window</text>
</a>
</g>
<!-- Node1&#45;&gt;Node2 -->
<g id="edge2" class="edge"><title>Node1&#45;&gt;Node2</title>
<path fill="none" stroke="midnightblue" d="M105.763,-110.645C114.459,-111.946 123.464,-113.294 132.258,-114.61"/>
<polygon fill="midnightblue" stroke="midnightblue" points="106.135,-107.162 95.7267,-109.143 105.098,-114.084 106.135,-107.162"/>
</g>
<!-- Node6 -->
<g id="node11" class="node"><title>Node6</title>
<a xlink:href="midi__13_8cpp.html#a6dff3d42682b58cc0a9875ee30fb4cd4" target="_top" xlink:title="do_midi_job">
<polygon fill="white" stroke="black" points="161,-68 161,-92 229,-92 229,-68 161,-68"/>
<text text-anchor="middle" x="195" y="-79" font-family="Helvetica,sans-Serif" font-size="10.00">do_midi_job</text>
</a>
</g>
<!-- Node1&#45;&gt;Node6 -->
<g id="edge10" class="edge"><title>Node1&#45;&gt;Node6</title>
<path fill="none" stroke="midnightblue" d="M105.836,-93.3443C124.348,-90.5738 144.249,-87.5953 160.544,-85.1567"/>
<polygon fill="midnightblue" stroke="midnightblue" points="105.098,-89.9156 95.7267,-94.8572 106.135,-96.8385 105.098,-89.9156"/>
</g>
<!-- Node3 -->
<g id="node5" class="node"><title>Node3</title>
<a xlink:href="procs__visuels__rebuild1_8cpp.html#ae710b6e599e321ad5934a90140067054" target="_top" xlink:title="check_graphics_mouse\l_handling">
<polygon fill="white" stroke="black" points="302.5,-134 302.5,-174 421.5,-174 421.5,-134 302.5,-134"/>
<text text-anchor="start" x="310.5" y="-161" font-family="Helvetica,sans-Serif" font-size="10.00">check_graphics_mouse</text>
<text text-anchor="middle" x="362" y="-145" font-family="Helvetica,sans-Serif" font-size="10.00">_handling</text>
</a>
</g>
<!-- Node2&#45;&gt;Node3 -->
<g id="edge4" class="edge"><title>Node2&#45;&gt;Node3</title>
<path fill="none" stroke="midnightblue" d="M267.717,-137.063C279.268,-139.138 291.1,-141.264 302.308,-143.277"/>
<polygon fill="midnightblue" stroke="midnightblue" points="268.121,-133.58 257.66,-135.256 266.883,-140.469 268.121,-133.58"/>
</g>
<!-- Node4 -->
<g id="node7" class="node"><title>Node4</title>
<a xlink:href="_m_a_i_n__avec__objets_8cpp.html#a8e80f54ac804eddce8ed6e45adb1db44" target="_top" xlink:title="ticker_full_loop">
<polygon fill="white" stroke="black" points="1007,-148 1007,-172 1089,-172 1089,-148 1007,-148"/>
<text text-anchor="middle" x="1048" y="-159" font-family="Helvetica,sans-Serif" font-size="10.00">ticker_full_loop</text>
</a>
</g>
<!-- Node3&#45;&gt;Node4 -->
<g id="edge6" class="edge"><title>Node3&#45;&gt;Node4</title>
<path fill="none" stroke="midnightblue" d="M431.611,-159.54C486.749,-163.452 565.75,-168 635,-168 635,-168 635,-168 786,-168 864.045,-168 955.106,-164.41 1006.72,-162.039"/>
<polygon fill="midnightblue" stroke="midnightblue" points="431.827,-156.046 421.601,-158.818 431.324,-163.028 431.827,-156.046"/>
</g>
<!-- Node5 -->
<g id="node9" class="node"><title>Node5</title>
<a xlink:href="_m_a_i_n__avec__objets_8cpp.html#ae66f6b31b5ad750f1fe042a706a4e3d4" target="_top" xlink:title="main">
<polygon fill="white" stroke="black" points="1762,-79 1762,-103 1800,-103 1800,-79 1762,-79"/>
<text text-anchor="middle" x="1781" y="-90" font-family="Helvetica,sans-Serif" font-size="10.00">main</text>
</a>
</g>
<!-- Node4&#45;&gt;Node5 -->
<g id="edge8" class="edge"><title>Node4&#45;&gt;Node5</title>
<path fill="none" stroke="midnightblue" d="M1099.53,-158.344C1149.3,-156.888 1226.8,-155 1294,-155 1294,-155 1294,-155 1542,-155 1624.79,-155 1648.56,-155.282 1726,-126 1740.4,-120.556 1755.02,-111.018 1765.57,-103.273"/>
<polygon fill="midnightblue" stroke="midnightblue" points="1099.24,-154.851 1089.34,-158.647 1099.44,-161.848 1099.24,-154.851"/>
</g>
<!-- Node7 -->
<g id="node13" class="node"><title>Node7</title>
<a xlink:href="midi__13_8cpp.html#a6bedf9750195224914cd87c4e73ab626" target="_top" xlink:title="ventilate_midi_to_midiarray">
<polygon fill="white" stroke="black" points="294.5,-64 294.5,-88 429.5,-88 429.5,-64 294.5,-64"/>
<text text-anchor="middle" x="362" y="-75" font-family="Helvetica,sans-Serif" font-size="10.00">ventilate_midi_to_midiarray</text>
</a>
</g>
<!-- Node6&#45;&gt;Node7 -->
<g id="edge12" class="edge"><title>Node6&#45;&gt;Node7</title>
<path fill="none" stroke="midnightblue" d="M239.317,-78.9385C256.198,-78.5342 275.841,-78.0637 294.397,-77.6192"/>
<polygon fill="midnightblue" stroke="midnightblue" points="239.111,-75.4423 229.198,-79.1809 239.279,-82.4403 239.111,-75.4423"/>
</g>
<!-- Node8 -->
<g id="node15" class="node"><title>Node8</title>
<a xlink:href="midi__13_8cpp.html#afa49dd5668303c2448676c8243737c2d" target="_top" xlink:title="simulate_midi">
<polygon fill="white" stroke="black" points="466.5,-64 466.5,-88 543.5,-88 543.5,-64 466.5,-64"/>
<text text-anchor="middle" x="505" y="-75" font-family="Helvetica,sans-Serif" font-size="10.00">simulate_midi</text>
</a>
</g>
<!-- Node7&#45;&gt;Node8 -->
<g id="edge14" class="edge"><title>Node7&#45;&gt;Node8</title>
<path fill="none" stroke="midnightblue" d="M439.744,-76C448.949,-76 458.014,-76 466.324,-76"/>
<polygon fill="midnightblue" stroke="midnightblue" points="439.731,-72.5001 429.731,-76 439.731,-79.5001 439.731,-72.5001"/>
</g>
<!-- Node12 -->
<g id="node25" class="node"><title>Node12</title>
<a xlink:href="midi__13_8cpp.html#a4104c2ae7e71376ad9dc78929450dc51" target="_top" xlink:title="EvAquire">
<polygon fill="white" stroke="black" points="477,-18 477,-42 533,-42 533,-18 477,-18"/>
<text text-anchor="middle" x="505" y="-29" font-family="Helvetica,sans-Serif" font-size="10.00">EvAquire</text>
</a>
</g>
<!-- Node7&#45;&gt;Node12 -->
<g id="edge26" class="edge"><title>Node7&#45;&gt;Node12</title>
<path fill="none" stroke="midnightblue" d="M409.218,-60.8109C431.553,-53.6263 457.475,-45.2876 476.716,-39.0984"/>
<polygon fill="midnightblue" stroke="midnightblue" points="408.019,-57.5199 399.572,-63.914 410.163,-64.1836 408.019,-57.5199"/>
</g>
<!-- Node9 -->
<g id="node17" class="node"><title>Node9</title>
<a xlink:href="arduino__core__6___u_n_o_8cpp.html#ae72d1a8d74d9ab5515962e03e7e664d6" target="_top" xlink:title="arduino_do_analog_in\l_whitecat">
<polygon fill="white" stroke="black" points="580,-100 580,-140 690,-140 690,-100 580,-100"/>
<text text-anchor="start" x="588" y="-127" font-family="Helvetica,sans-Serif" font-size="10.00">arduino_do_analog_in</text>
<text text-anchor="middle" x="635" y="-111" font-family="Helvetica,sans-Serif" font-size="10.00">_whitecat</text>
</a>
</g>
<!-- Node8&#45;&gt;Node9 -->
<g id="edge16" class="edge"><title>Node8&#45;&gt;Node9</title>
<path fill="none" stroke="midnightblue" d="M550.252,-91.316C559.846,-94.5633 570.075,-98.0253 579.986,-101.38"/>
<polygon fill="midnightblue" stroke="midnightblue" points="551.117,-87.914 540.523,-88.0232 548.873,-94.5445 551.117,-87.914"/>
</g>
<!-- Node11 -->
<g id="node22" class="node"><title>Node11</title>
<a xlink:href="arduino__core__6___u_n_o_8cpp.html#a219226c1cd6cc17c78e62fd4445bb445" target="_top" xlink:title="arduino_do_digital\l_in_whitecat">
<polygon fill="white" stroke="black" points="587.5,-42 587.5,-82 682.5,-82 682.5,-42 587.5,-42"/>
<text text-anchor="start" x="595.5" y="-69" font-family="Helvetica,sans-Serif" font-size="10.00">arduino_do_digital</text>
<text text-anchor="middle" x="635" y="-53" font-family="Helvetica,sans-Serif" font-size="10.00">_in_whitecat</text>
</a>
</g>
<!-- Node8&#45;&gt;Node11 -->
<g id="edge22" class="edge"><title>Node8&#45;&gt;Node11</title>
<path fill="none" stroke="midnightblue" d="M553.833,-70.741C564.703,-69.5705 576.216,-68.3305 587.05,-67.1638"/>
<polygon fill="midnightblue" stroke="midnightblue" points="553.22,-67.2867 543.652,-71.8374 553.97,-74.2465 553.22,-67.2867"/>
</g>
<!-- Node10 -->
<g id="node19" class="node"><title>Node10</title>
<a xlink:href="_m_a_i_n__avec__objets_8cpp.html#ace9c8a9b37c6087c3cffef442d71d70e" target="_top" xlink:title="dixiemes_de_secondes">
<polygon fill="white" stroke="black" points="726.5,-100 726.5,-124 845.5,-124 845.5,-100 726.5,-100"/>
<text text-anchor="middle" x="786" y="-111" font-family="Helvetica,sans-Serif" font-size="10.00">dixiemes_de_secondes</text>
</a>
</g>
<!-- Node9&#45;&gt;Node10 -->
<g id="edge18" class="edge"><title>Node9&#45;&gt;Node10</title>
<path fill="none" stroke="midnightblue" d="M700.379,-116.536C708.999,-116.08 717.798,-115.613 726.316,-115.162"/>
<polygon fill="midnightblue" stroke="midnightblue" points="700.17,-113.042 690.369,-117.067 700.541,-120.032 700.17,-113.042"/>
</g>
<!-- Node10&#45;&gt;Node5 -->
<g id="edge20" class="edge"><title>Node10&#45;&gt;Node5</title>
<path fill="none" stroke="midnightblue" d="M855.833,-112C908.616,-112 982.862,-112 1048,-112 1048,-112 1048,-112 1542,-112 1624.06,-112 1721.35,-99.5643 1761.84,-93.8322"/>
<polygon fill="midnightblue" stroke="midnightblue" points="855.572,-108.5 845.572,-112 855.572,-115.5 855.572,-108.5"/>
</g>
<!-- Node11&#45;&gt;Node10 -->
<g id="edge24" class="edge"><title>Node11&#45;&gt;Node10</title>
<path fill="none" stroke="midnightblue" d="M692.338,-80.986C711.532,-87.3419 732.392,-94.2491 749.543,-99.9283"/>
<polygon fill="midnightblue" stroke="midnightblue" points="693.371,-77.6412 682.777,-77.8203 691.17,-84.2864 693.371,-77.6412"/>
</g>
<!-- Node13 -->
<g id="node27" class="node"><title>Node13</title>
<a xlink:href="midi__13_8cpp.html#a831f1dfc7870ae4f6c64a0e65fbaf3ff" target="_top" xlink:title="Display">
<polygon fill="white" stroke="black" points="610,-0 610,-24 660,-24 660,-0 610,-0"/>
<text text-anchor="middle" x="635" y="-11" font-family="Helvetica,sans-Serif" font-size="10.00">Display</text>
</a>
</g>
<!-- Node12&#45;&gt;Node13 -->
<g id="edge28" class="edge"><title>Node12&#45;&gt;Node13</title>
<path fill="none" stroke="midnightblue" d="M543.332,-24.6925C564.833,-21.7154 591.044,-18.0862 609.923,-15.4722"/>
<polygon fill="midnightblue" stroke="midnightblue" points="542.633,-21.2557 533.208,-26.0943 543.594,-28.1896 542.633,-21.2557"/>
</g>
<!-- Node14 -->
<g id="node29" class="node"><title>Node14</title>
<a xlink:href="midi__13_8cpp.html#aa4aeee5088a4a5462566dfee5c9cc71f" target="_top" xlink:title="DisplayTask">
<polygon fill="white" stroke="black" points="750.5,-42 750.5,-66 821.5,-66 821.5,-42 750.5,-42"/>
<text text-anchor="middle" x="786" y="-53" font-family="Helvetica,sans-Serif" font-size="10.00">DisplayTask</text>
</a>
</g>
<!-- Node13&#45;&gt;Node14 -->
<g id="edge30" class="edge"><title>Node13&#45;&gt;Node14</title>
<path fill="none" stroke="midnightblue" d="M670.099,-21.7627C694.248,-28.4795 726.212,-37.3702 750.456,-44.1135"/>
<polygon fill="midnightblue" stroke="midnightblue" points="670.846,-18.3377 660.274,-19.0299 668.97,-25.0817 670.846,-18.3377"/>
</g>
<!-- Node16 -->
<g id="node34" class="node"><title>Node16</title>
<a xlink:href="midi___c_o_r_e_8cpp.html#a6fcb4c2efe85f50488d7aeeef1fc0a3e" target="_top" xlink:title="ReceiveEvents">
<polygon fill="white" stroke="black" points="744.5,-0 744.5,-24 827.5,-24 827.5,-0 744.5,-0"/>
<text text-anchor="middle" x="786" y="-11" font-family="Helvetica,sans-Serif" font-size="10.00">ReceiveEvents</text>
</a>
</g>
<!-- Node13&#45;&gt;Node16 -->
<g id="edge36" class="edge"><title>Node13&#45;&gt;Node16</title>
<path fill="none" stroke="midnightblue" d="M670.562,-12C692.676,-12 721.207,-12 744.372,-12"/>
<polygon fill="midnightblue" stroke="midnightblue" points="670.274,-8.5001 660.274,-12 670.274,-15.5001 670.274,-8.5001"/>
</g>
<!-- Node15 -->
<g id="node31" class="node"><title>Node15</title>
<a xlink:href="midi___c_o_r_e_8cpp.html#a7d0f82d882071792d6a2df51ef13ec55" target="_top" xlink:title="ReceivePolling">
<polygon fill="white" stroke="black" points="882,-42 882,-66 964,-66 964,-42 882,-42"/>
<text text-anchor="middle" x="923" y="-53" font-family="Helvetica,sans-Serif" font-size="10.00">ReceivePolling</text>
</a>
</g>
<!-- Node14&#45;&gt;Node15 -->
<g id="edge32" class="edge"><title>Node14&#45;&gt;Node15</title>
<path fill="none" stroke="midnightblue" d="M831.91,-54C848.021,-54 866.008,-54 881.716,-54"/>
<polygon fill="midnightblue" stroke="midnightblue" points="831.638,-50.5001 821.638,-54 831.637,-57.5001 831.638,-50.5001"/>
</g>
<!-- Node15&#45;&gt;Node15 -->
<g id="edge34" class="edge"><title>Node15&#45;&gt;Node15</title>
<path fill="none" stroke="midnightblue" d="M900.513,-76.0013C902.812,-80.6474 910.308,-84 923,-84 943.828,-84 950.662,-74.9717 943.503,-66.0139"/>
<polygon fill="midnightblue" stroke="midnightblue" points="903.981,-76.5043 902.497,-66.0139 897.116,-75.1401 903.981,-76.5043"/>
</g>
<!-- Node16&#45;&gt;Node15 -->
<g id="edge38" class="edge"><title>Node16&#45;&gt;Node15</title>
<path fill="none" stroke="midnightblue" d="M834.988,-27.0181C850.991,-31.9241 868.544,-37.3054 883.736,-41.9627"/>
<polygon fill="midnightblue" stroke="midnightblue" points="835.845,-23.6204 825.259,-24.0355 833.794,-30.3129 835.845,-23.6204"/>
</g>
<!-- Node17 -->
<g id="node37" class="node"><title>Node17</title>
<a xlink:href="midi___c_o_r_e_8cpp.html#a0ccf480a33424e626f88d109d53d8366" target="_top" xlink:title="InitMidi">
<polygon fill="white" stroke="black" points="899,-0 899,-24 947,-24 947,-0 899,-0"/>
<text text-anchor="middle" x="923" y="-11" font-family="Helvetica,sans-Serif" font-size="10.00">InitMidi</text>
</a>
</g>
<!-- Node16&#45;&gt;Node17 -->
<g id="edge40" class="edge"><title>Node16&#45;&gt;Node17</title>
<path fill="none" stroke="midnightblue" d="M837.927,-12C858.893,-12 882.063,-12 898.921,-12"/>
<polygon fill="midnightblue" stroke="midnightblue" points="837.849,-8.5001 827.849,-12 837.849,-15.5001 837.849,-8.5001"/>
</g>
<!-- Node17&#45;&gt;Node5 -->
<g id="edge42" class="edge"><title>Node17&#45;&gt;Node5</title>
<path fill="none" stroke="midnightblue" d="M956.496,-25.1381C1003.92,-42.5241 1093.69,-71 1173,-71 1173,-71 1173,-71 1542,-71 1624.03,-71 1721.34,-82.8436 1761.84,-88.3027"/>
<polygon fill="midnightblue" stroke="midnightblue" points="957.632,-21.8262 947.039,-21.6107 955.185,-28.3848 957.632,-21.8262"/>
</g>
<!-- Node18 -->
<g id="node40" class="node"><title>Node18</title>
<a xlink:href="midi__13_8cpp.html#ac7a306aa81e374b447e7341d4d3a3eea" target="_top" xlink:title="midipage_devices">
<polygon fill="white" stroke="black" points="1000.5,-2 1000.5,-26 1095.5,-26 1095.5,-2 1000.5,-2"/>
<text text-anchor="middle" x="1048" y="-13" font-family="Helvetica,sans-Serif" font-size="10.00">midipage_devices</text>
</a>
</g>
<!-- Node17&#45;&gt;Node18 -->
<g id="edge44" class="edge"><title>Node17&#45;&gt;Node18</title>
<path fill="none" stroke="midnightblue" d="M957.254,-12.5481C970.57,-12.7611 986.054,-13.0089 1000.42,-13.2387"/>
<polygon fill="midnightblue" stroke="midnightblue" points="957.156,-9.04614 947.101,-12.3856 957.044,-16.0452 957.156,-9.04614"/>
</g>
<!-- Node19 -->
<g id="node42" class="node"><title>Node19</title>
<a xlink:href="midi__13_8cpp.html#a8f70acacad6eaba8867bdd80dda5e277" target="_top" xlink:title="do_midi_config">
<polygon fill="white" stroke="black" points="1132,-3 1132,-27 1214,-27 1214,-3 1132,-3"/>
<text text-anchor="middle" x="1173" y="-14" font-family="Helvetica,sans-Serif" font-size="10.00">do_midi_config</text>
</a>
</g>
<!-- Node18&#45;&gt;Node19 -->
<g id="edge46" class="edge"><title>Node18&#45;&gt;Node19</title>
<path fill="none" stroke="midnightblue" d="M1105.77,-14.4621C1114.5,-14.532 1123.35,-14.6028 1131.65,-14.6692"/>
<polygon fill="midnightblue" stroke="midnightblue" points="1105.64,-10.9611 1095.61,-14.3809 1105.59,-17.9609 1105.64,-10.9611"/>
</g>
<!-- Node20 -->
<g id="node44" class="node"><title>Node20</title>
<a xlink:href="_c_f_g__config__panel__8_8cpp.html#ad39c46e2fb3a3ba7ea0460140ead4f96" target="_top" xlink:title="do_panel_config">
<polygon fill="white" stroke="black" points="1250.5,-8 1250.5,-32 1337.5,-32 1337.5,-8 1250.5,-8"/>
<text text-anchor="middle" x="1294" y="-19" font-family="Helvetica,sans-Serif" font-size="10.00">do_panel_config</text>
</a>
</g>
<!-- Node19&#45;&gt;Node20 -->
<g id="edge48" class="edge"><title>Node19&#45;&gt;Node20</title>
<path fill="none" stroke="midnightblue" d="M1224.33,-17.1211C1233.01,-17.4797 1241.95,-17.8491 1250.41,-18.1986"/>
<polygon fill="midnightblue" stroke="midnightblue" points="1224.44,-13.6227 1214.3,-16.7067 1224.15,-20.6167 1224.44,-13.6227"/>
</g>
<!-- Node21 -->
<g id="node46" class="node"><title>Node21</title>
<a xlink:href="_c_f_g__config__panel__8_8cpp.html#a7968da66bccdba8b864caf6c8435f68e" target="_top" xlink:title="config_general_menu">
<polygon fill="white" stroke="black" points="1374.5,-14 1374.5,-38 1483.5,-38 1483.5,-14 1374.5,-14"/>
<text text-anchor="middle" x="1429" y="-25" font-family="Helvetica,sans-Serif" font-size="10.00">config_general_menu</text>
</a>
</g>
<!-- Node20&#45;&gt;Node21 -->
<g id="edge50" class="edge"><title>Node20&#45;&gt;Node21</title>
<path fill="none" stroke="midnightblue" d="M1348.07,-22.4032C1356.62,-22.7832 1365.47,-23.1765 1374.04,-23.5573"/>
<polygon fill="midnightblue" stroke="midnightblue" points="1347.98,-18.8956 1337.83,-21.948 1347.67,-25.8887 1347.98,-18.8956"/>
</g>
<!-- Node22 -->
<g id="node48" class="node"><title>Node22</title>
<a xlink:href="graphics__rebuild1_8cpp.html#ac2eae1e03fb72cc734ffbcef566483bf" target="_top" xlink:title="Boxes">
<polygon fill="white" stroke="black" points="1520,-16 1520,-40 1564,-40 1564,-16 1520,-16"/>
<text text-anchor="middle" x="1542" y="-27" font-family="Helvetica,sans-Serif" font-size="10.00">Boxes</text>
</a>
</g>
<!-- Node21&#45;&gt;Node22 -->
<g id="edge52" class="edge"><title>Node21&#45;&gt;Node22</title>
<path fill="none" stroke="midnightblue" d="M1493.75,-27.146C1503.11,-27.3117 1512.17,-27.472 1519.86,-27.6081"/>
<polygon fill="midnightblue" stroke="midnightblue" points="1493.57,-23.6425 1483.51,-26.9649 1493.45,-30.6414 1493.57,-23.6425"/>
</g>
<!-- Node23 -->
<g id="node50" class="node"><title>Node23</title>
<a xlink:href="_m_a_i_n__avec__objets_8cpp.html#ade8d4ba65d55c94f8ee277829d722155" target="_top" xlink:title="main_actions_on_screen">
<polygon fill="white" stroke="black" points="1600.5,-18 1600.5,-42 1725.5,-42 1725.5,-18 1600.5,-18"/>
<text text-anchor="middle" x="1663" y="-29" font-family="Helvetica,sans-Serif" font-size="10.00">main_actions_on_screen</text>
</a>
</g>
<!-- Node22&#45;&gt;Node23 -->
<g id="edge54" class="edge"><title>Node22&#45;&gt;Node23</title>
<path fill="none" stroke="midnightblue" d="M1574.24,-28.533C1582.32,-28.6664 1591.26,-28.8143 1600.27,-28.9632"/>
<polygon fill="midnightblue" stroke="midnightblue" points="1574.25,-25.0327 1564.19,-28.3668 1574.13,-32.0317 1574.25,-25.0327"/>
</g>
<!-- Node23&#45;&gt;Node5 -->
<g id="edge56" class="edge"><title>Node23&#45;&gt;Node5</title>
<path fill="none" stroke="midnightblue" d="M1702.85,-46.0128C1710.62,-49.4347 1718.64,-53.1768 1726,-57 1738.75,-63.6262 1752.5,-72.1262 1763.06,-78.9697"/>
<polygon fill="midnightblue" stroke="midnightblue" points="1704.12,-42.7476 1693.55,-42.0137 1701.35,-49.1786 1704.12,-42.7476"/>
</g>
</g>
</svg>
