<?xml version="1.0" encoding="UTF-8" standalone="no"?>
<!DOCTYPE svg PUBLIC "-//W3C//DTD SVG 1.1//EN"
 "http://www.w3.org/Graphics/SVG/1.1/DTD/svg11.dtd">
<!-- Generated by graphviz version 2.26.3 (20100126.1600)
 -->
<!-- Title: refresh_time_cursor Pages: 1 -->
<svg width="2428pt" height="688pt"
 viewBox="0.00 0.00 2428.00 687.63" xmlns="http://www.w3.org/2000/svg" xmlns:xlink="http://www.w3.org/1999/xlink">
<g id="graph1" class="graph" transform="scale(1 1) rotate(0) translate(4 683.632)">
<title>refresh_time_cursor</title>
<polygon fill="white" stroke="white" points="-4,5 -4,-683.632 2425,-683.632 2425,5 -4,5"/>
<!-- Node1 -->
<g id="node1" class="node"><title>Node1</title>
<polygon fill="#bfbfbf" stroke="black" points="0.5,-301.867 0.5,-325.867 103.5,-325.867 103.5,-301.867 0.5,-301.867"/>
<text text-anchor="middle" x="52" y="-312.867" font-family="Helvetica,sans-Serif" font-size="10.00">refresh_time_cursor</text>
</g>
<!-- Node2 -->
<g id="node3" class="node"><title>Node2</title>
<a xlink:href="_c_o_r_e__6_8cpp.html#ac4236bb4164b6b65e8ff01c0549d47a9" target="_top" xlink:title="set_time_cursor_to\l_time_type">
<polygon fill="white" stroke="black" points="140,-172.867 140,-212.867 240,-212.867 240,-172.867 140,-172.867"/>
<text text-anchor="start" x="148" y="-199.867" font-family="Helvetica,sans-Serif" font-size="10.00">set_time_cursor_to</text>
<text text-anchor="middle" x="190" y="-183.867" font-family="Helvetica,sans-Serif" font-size="10.00">_time_type</text>
</a>
</g>
<!-- Node1&#45;&gt;Node2 -->
<g id="edge2" class="edge"><title>Node1&#45;&gt;Node2</title>
<path fill="none" stroke="midnightblue" d="M73.3173,-295.175C98.6029,-273.005 140.607,-236.175 166.722,-213.277"/>
<polygon fill="midnightblue" stroke="midnightblue" points="70.948,-292.598 65.7365,-301.822 75.563,-297.861 70.948,-292.598"/>
</g>
<!-- Node43 -->
<g id="node107" class="node"><title>Node43</title>
<a xlink:href="save__show__13_8cpp.html#a8330f725aa2c729bdce098aa4b187589" target="_top" xlink:title="Load_Show">
<polygon fill="white" stroke="black" points="300,-604.867 300,-628.867 368,-628.867 368,-604.867 300,-604.867"/>
<text text-anchor="middle" x="334" y="-615.867" font-family="Helvetica,sans-Serif" font-size="10.00">Load_Show</text>
</a>
</g>
<!-- Node1&#45;&gt;Node43 -->
<g id="edge128" class="edge"><title>Node1&#45;&gt;Node43</title>
<path fill="none" stroke="midnightblue" d="M70.2643,-333.491C123.845,-391.062 279.553,-558.365 322.763,-604.793"/>
<polygon fill="midnightblue" stroke="midnightblue" points="72.779,-331.055 63.404,-326.12 67.6548,-335.825 72.779,-331.055"/>
</g>
<!-- Node3 -->
<g id="node5" class="node"><title>Node3</title>
<a xlink:href="banger__core__8_8cpp.html#a9615c6c17d4bd54d959e0d9b85a0ff77" target="_top" xlink:title="Chrono_Reset">
<polygon fill="white" stroke="black" points="294,-160.867 294,-184.867 374,-184.867 374,-160.867 294,-160.867"/>
<text text-anchor="middle" x="334" y="-171.867" font-family="Helvetica,sans-Serif" font-size="10.00">Chrono_Reset</text>
</a>
</g>
<!-- Node2&#45;&gt;Node3 -->
<g id="edge4" class="edge"><title>Node2&#45;&gt;Node3</title>
<path fill="none" stroke="midnightblue" d="M250.386,-184.48C265.059,-182.442 280.394,-180.312 293.864,-178.441"/>
<polygon fill="midnightblue" stroke="midnightblue" points="249.788,-181.029 240.364,-185.872 250.751,-187.962 249.788,-181.029"/>
</g>
<!-- Node16 -->
<g id="node35" class="node"><title>Node16</title>
<a xlink:href="midi__13_8cpp.html#a6dff3d42682b58cc0a9875ee30fb4cd4" target="_top" xlink:title="do_midi_job">
<polygon fill="white" stroke="black" points="783,-69.8666 783,-93.8666 851,-93.8666 851,-69.8666 783,-69.8666"/>
<text text-anchor="middle" x="817" y="-80.8666" font-family="Helvetica,sans-Serif" font-size="10.00">do_midi_job</text>
</a>
</g>
<!-- Node2&#45;&gt;Node16 -->
<g id="edge124" class="edge"><title>Node2&#45;&gt;Node16</title>
<path fill="none" stroke="midnightblue" d="M237.936,-168.318C250.177,-162.521 263.433,-156.644 276,-151.867 415.075,-98.9902 455.598,-95.5722 604,-84.8666 666.892,-80.3296 740.492,-80.5052 782.639,-81.1287"/>
<polygon fill="midnightblue" stroke="midnightblue" points="236.293,-165.224 228.801,-172.716 239.329,-171.532 236.293,-165.224"/>
</g>
<!-- Node20 -->
<g id="node43" class="node"><title>Node20</title>
<a xlink:href="_m_a_i_n__avec__objets_8cpp.html#ace9c8a9b37c6087c3cffef442d71d70e" target="_top" xlink:title="dixiemes_de_secondes">
<polygon fill="white" stroke="black" points="1346.5,-66.8666 1346.5,-90.8666 1465.5,-90.8666 1465.5,-66.8666 1346.5,-66.8666"/>
<text text-anchor="middle" x="1406" y="-77.8666" font-family="Helvetica,sans-Serif" font-size="10.00">dixiemes_de_secondes</text>
</a>
</g>
<!-- Node2&#45;&gt;Node20 -->
<g id="edge122" class="edge"><title>Node2&#45;&gt;Node20</title>
<path fill="none" stroke="midnightblue" d="M213.587,-165.105C261.393,-112.137 375.613,-1.86655 498,-1.86655 498,-1.86655 498,-1.86655 1123,-1.86655 1206.54,-1.86655 1230.76,5.59966 1310,-20.8666 1341.03,-31.2306 1372.68,-52.9704 1390.77,-66.6918"/>
<polygon fill="midnightblue" stroke="midnightblue" points="210.786,-162.988 206.757,-172.787 216.017,-167.639 210.786,-162.988"/>
</g>
<!-- Node35 -->
<g id="node82" class="node"><title>Node35</title>
<a xlink:href="time__core__3_8cpp.html#a266e777ef8650f8334aaba3598c646f9" target="_top" xlink:title="do_logical_Time_Window">
<polygon fill="white" stroke="black" points="434,-202.867 434,-226.867 562,-226.867 562,-202.867 434,-202.867"/>
<text text-anchor="middle" x="498" y="-213.867" font-family="Helvetica,sans-Serif" font-size="10.00">do_logical_Time_Window</text>
</a>
</g>
<!-- Node2&#45;&gt;Node35 -->
<g id="edge126" class="edge"><title>Node2&#45;&gt;Node35</title>
<path fill="none" stroke="midnightblue" d="M250.423,-197.182C303.334,-200.962 379.983,-206.437 433.945,-210.291"/>
<polygon fill="midnightblue" stroke="midnightblue" points="250.395,-193.672 240.171,-196.45 249.896,-200.654 250.395,-193.672"/>
</g>
<!-- Node36 -->
<g id="node85" class="node"><title>Node36</title>
<a xlink:href="_c_o_r_e__6_8cpp.html#aa69691836c246e071f3c9a5a9c6f5f55" target="_top" xlink:title="read_time_string_entry">
<polygon fill="white" stroke="black" points="276,-440.867 276,-464.867 392,-464.867 392,-440.867 276,-440.867"/>
<text text-anchor="middle" x="334" y="-451.867" font-family="Helvetica,sans-Serif" font-size="10.00">read_time_string_entry</text>
</a>
</g>
<!-- Node2&#45;&gt;Node36 -->
<g id="edge98" class="edge"><title>Node2&#45;&gt;Node36</title>
<path fill="none" stroke="midnightblue" d="M206.189,-222.097C237.589,-278.792 305.581,-401.554 327.233,-440.648"/>
<polygon fill="midnightblue" stroke="midnightblue" points="209.206,-220.32 201.299,-213.268 203.083,-223.712 209.206,-220.32"/>
</g>
<!-- Node4 -->
<g id="node7" class="node"><title>Node4</title>
<a xlink:href="banger__core__8_8cpp.html#ae4008269e0575da11cc90e812961ef6f" target="_top" xlink:title="Bang_event">
<polygon fill="white" stroke="black" points="464,-160.867 464,-184.867 532,-184.867 532,-160.867 464,-160.867"/>
<text text-anchor="middle" x="498" y="-171.867" font-family="Helvetica,sans-Serif" font-size="10.00">Bang_event</text>
</a>
</g>
<!-- Node3&#45;&gt;Node4 -->
<g id="edge6" class="edge"><title>Node3&#45;&gt;Node4</title>
<path fill="none" stroke="midnightblue" d="M384.454,-172.867C410.214,-172.867 440.874,-172.867 463.837,-172.867"/>
<polygon fill="midnightblue" stroke="midnightblue" points="384.119,-169.367 374.119,-172.867 384.119,-176.367 384.119,-169.367"/>
</g>
<!-- Node3&#45;&gt;Node16 -->
<g id="edge92" class="edge"><title>Node3&#45;&gt;Node16</title>
<path fill="none" stroke="midnightblue" d="M383.013,-158.016C436.75,-142.283 525.757,-117.827 604,-103.867 666.582,-92.7007 740.595,-86.6357 782.845,-83.8392"/>
<polygon fill="midnightblue" stroke="midnightblue" points="382.004,-154.665 373.401,-160.848 383.982,-161.38 382.004,-154.665"/>
</g>
<!-- Node3&#45;&gt;Node35 -->
<g id="edge94" class="edge"><title>Node3&#45;&gt;Node35</title>
<path fill="none" stroke="midnightblue" d="M383.963,-185.662C405.287,-191.123 430.039,-197.462 451.024,-202.836"/>
<polygon fill="midnightblue" stroke="midnightblue" points="384.675,-182.231 374.119,-183.141 382.938,-189.012 384.675,-182.231"/>
</g>
<!-- Node5 -->
<g id="node9" class="node"><title>Node5</title>
<a xlink:href="banger__core__8_8cpp.html#a4003a08a1620546de77b118c91d2fd9d" target="_top" xlink:title="do_bang">
<polygon fill="white" stroke="black" points="951.5,-146.867 951.5,-170.867 1004.5,-170.867 1004.5,-146.867 951.5,-146.867"/>
<text text-anchor="middle" x="978" y="-157.867" font-family="Helvetica,sans-Serif" font-size="10.00">do_bang</text>
</a>
</g>
<!-- Node4&#45;&gt;Node5 -->
<g id="edge8" class="edge"><title>Node4&#45;&gt;Node5</title>
<path fill="none" stroke="midnightblue" d="M542.482,-164.161C612.853,-151.498 754.174,-130.573 874,-140.867 900.472,-143.141 930.321,-148.613 951.229,-152.932"/>
<polygon fill="midnightblue" stroke="midnightblue" points="541.424,-160.796 532.218,-166.04 542.685,-167.682 541.424,-160.796"/>
</g>
<!-- Node8 -->
<g id="node15" class="node"><title>Node8</title>
<a xlink:href="banger__core__8_8cpp.html#a4fe16ad483c0c1609d97aeb9a23c74ee" target="_top" xlink:title="do_logical_fenetre\l_banger">
<polygon fill="white" stroke="black" points="769.5,-149.867 769.5,-189.867 864.5,-189.867 864.5,-149.867 769.5,-149.867"/>
<text text-anchor="start" x="777.5" y="-176.867" font-family="Helvetica,sans-Serif" font-size="10.00">do_logical_fenetre</text>
<text text-anchor="middle" x="817" y="-160.867" font-family="Helvetica,sans-Serif" font-size="10.00">_banger</text>
</a>
</g>
<!-- Node4&#45;&gt;Node8 -->
<g id="edge14" class="edge"><title>Node4&#45;&gt;Node8</title>
<path fill="none" stroke="midnightblue" d="M542.386,-172.449C602.158,-171.887 708.086,-170.891 769.442,-170.314"/>
<polygon fill="midnightblue" stroke="midnightblue" points="542.105,-168.952 532.139,-172.546 542.171,-175.951 542.105,-168.952"/>
</g>
<!-- Node10 -->
<g id="node20" class="node"><title>Node10</title>
<a xlink:href="banger__core__8_8cpp.html#ab405ab53ea444b049e5ffa258498fcb6" target="_top" xlink:title="refresh_banger_wx">
<polygon fill="white" stroke="black" points="614.5,-240.867 614.5,-264.867 713.5,-264.867 713.5,-240.867 614.5,-240.867"/>
<text text-anchor="middle" x="664" y="-251.867" font-family="Helvetica,sans-Serif" font-size="10.00">refresh_banger_wx</text>
</a>
</g>
<!-- Node4&#45;&gt;Node10 -->
<g id="edge20" class="edge"><title>Node4&#45;&gt;Node10</title>
<path fill="none" stroke="midnightblue" d="M541.879,-184.122C550.682,-186.909 559.756,-190.172 568,-193.867 597.456,-207.066 628.822,-227.76 647.399,-240.805"/>
<polygon fill="midnightblue" stroke="midnightblue" points="542.697,-180.713 532.112,-181.18 540.678,-187.415 542.697,-180.713"/>
</g>
<!-- Node4&#45;&gt;Node16 -->
<g id="edge90" class="edge"><title>Node4&#45;&gt;Node16</title>
<path fill="none" stroke="midnightblue" d="M541.883,-158.817C560.927,-152.82 583.517,-145.842 604,-139.867 666.915,-121.514 740.816,-101.801 782.955,-90.7331"/>
<polygon fill="midnightblue" stroke="midnightblue" points="540.757,-155.502 532.277,-161.853 542.867,-162.176 540.757,-155.502"/>
</g>
<!-- Node6 -->
<g id="node11" class="node"><title>Node6</title>
<a xlink:href="_m_a_i_n__avec__objets_8cpp.html#a8e80f54ac804eddce8ed6e45adb1db44" target="_top" xlink:title="ticker_full_loop">
<polygon fill="white" stroke="black" points="1082,-257.867 1082,-281.867 1164,-281.867 1164,-257.867 1082,-257.867"/>
<text text-anchor="middle" x="1123" y="-268.867" font-family="Helvetica,sans-Serif" font-size="10.00">ticker_full_loop</text>
</a>
</g>
<!-- Node5&#45;&gt;Node6 -->
<g id="edge10" class="edge"><title>Node5&#45;&gt;Node6</title>
<path fill="none" stroke="midnightblue" d="M1010.38,-176.036C1021.96,-182.659 1034.89,-190.624 1046,-198.867 1070.97,-217.393 1096.94,-242.848 1111.43,-257.71"/>
<polygon fill="midnightblue" stroke="midnightblue" points="1011.88,-172.862 1001.44,-171.032 1008.46,-178.971 1011.88,-172.862"/>
</g>
<!-- Node7 -->
<g id="node13" class="node"><title>Node7</title>
<a xlink:href="_m_a_i_n__avec__objets_8cpp.html#ae66f6b31b5ad750f1fe042a706a4e3d4" target="_top" xlink:title="main">
<polygon fill="white" stroke="black" points="2382,-265.867 2382,-289.867 2420,-289.867 2420,-265.867 2382,-265.867"/>
<text text-anchor="middle" x="2401" y="-276.867" font-family="Helvetica,sans-Serif" font-size="10.00">main</text>
</a>
</g>
<!-- Node6&#45;&gt;Node7 -->
<g id="edge12" class="edge"><title>Node6&#45;&gt;Node7</title>
<path fill="none" stroke="midnightblue" d="M1174.37,-272.191C1231.07,-274.553 1325.02,-277.867 1406,-277.867 1406,-277.867 1406,-277.867 2162,-277.867 2243.74,-277.867 2341.21,-277.867 2381.79,-277.867"/>
<polygon fill="midnightblue" stroke="midnightblue" points="1174.37,-268.688 1164.23,-271.762 1174.08,-275.682 1174.37,-268.688"/>
</g>
<!-- Node9 -->
<g id="node17" class="node"><title>Node9</title>
<a xlink:href="procs__visuels__rebuild1_8cpp.html#ae710b6e599e321ad5934a90140067054" target="_top" xlink:title="check_graphics_mouse\l_handling">
<polygon fill="white" stroke="black" points="918.5,-249.867 918.5,-289.867 1037.5,-289.867 1037.5,-249.867 918.5,-249.867"/>
<text text-anchor="start" x="926.5" y="-276.867" font-family="Helvetica,sans-Serif" font-size="10.00">check_graphics_mouse</text>
<text text-anchor="middle" x="978" y="-260.867" font-family="Helvetica,sans-Serif" font-size="10.00">_handling</text>
</a>
</g>
<!-- Node8&#45;&gt;Node9 -->
<g id="edge16" class="edge"><title>Node8&#45;&gt;Node9</title>
<path fill="none" stroke="midnightblue" d="M869.73,-195.682C871.193,-196.719 872.62,-197.781 874,-198.867 893.325,-214.064 890.173,-226.33 910,-240.867 914.451,-244.13 919.325,-247.115 924.354,-249.823"/>
<polygon fill="midnightblue" stroke="midnightblue" points="871.326,-192.545 861.036,-190.02 867.506,-198.41 871.326,-192.545"/>
</g>
<!-- Node9&#45;&gt;Node6 -->
<g id="edge18" class="edge"><title>Node9&#45;&gt;Node6</title>
<path fill="none" stroke="midnightblue" d="M1047.97,-269.867C1059.59,-269.867 1071.29,-269.867 1081.89,-269.867"/>
<polygon fill="midnightblue" stroke="midnightblue" points="1047.81,-266.367 1037.81,-269.867 1047.81,-273.367 1047.81,-266.367"/>
</g>
<!-- Node11 -->
<g id="node22" class="node"><title>Node11</title>
<a xlink:href="i_cat14_8cpp.html#a16285241f82898e7a5f051b03d90b9a3" target="_top" xlink:title="check_button">
<polygon fill="white" stroke="black" points="779.5,-207.867 779.5,-231.867 854.5,-231.867 854.5,-207.867 779.5,-207.867"/>
<text text-anchor="middle" x="817" y="-218.867" font-family="Helvetica,sans-Serif" font-size="10.00">check_button</text>
</a>
</g>
<!-- Node10&#45;&gt;Node11 -->
<g id="edge22" class="edge"><title>Node10&#45;&gt;Node11</title>
<path fill="none" stroke="midnightblue" d="M723.598,-240.012C742.31,-235.976 762.443,-231.634 779.207,-228.018"/>
<polygon fill="midnightblue" stroke="midnightblue" points="722.712,-236.623 713.675,-242.152 724.188,-243.465 722.712,-236.623"/>
</g>
<!-- Node13 -->
<g id="node27" class="node"><title>Node13</title>
<a xlink:href="keyboard__functions2_8cpp.html#af3dd6697323b10b480719c1612bcf29a" target="_top" xlink:title="key_backward">
<polygon fill="white" stroke="black" points="777,-307.867 777,-331.867 857,-331.867 857,-307.867 777,-307.867"/>
<text text-anchor="middle" x="817" y="-318.867" font-family="Helvetica,sans-Serif" font-size="10.00">key_backward</text>
</a>
</g>
<!-- Node10&#45;&gt;Node13 -->
<g id="edge28" class="edge"><title>Node10&#45;&gt;Node13</title>
<path fill="none" stroke="midnightblue" d="M696.892,-269.57C715.267,-278.662 738.691,-289.859 760,-298.867 767.285,-301.946 775.194,-305.024 782.736,-307.836"/>
<polygon fill="midnightblue" stroke="midnightblue" points="698.293,-266.358 687.781,-265.03 695.171,-272.623 698.293,-266.358"/>
</g>
<!-- Node15 -->
<g id="node32" class="node"><title>Node15</title>
<a xlink:href="keyboard__functions2_8cpp.html#a6b73a3669797504ce2e357d9a8b9a2c2" target="_top" xlink:title="key_forward">
<polygon fill="white" stroke="black" points="782,-349.867 782,-373.867 852,-373.867 852,-349.867 782,-349.867"/>
<text text-anchor="middle" x="817" y="-360.867" font-family="Helvetica,sans-Serif" font-size="10.00">key_forward</text>
</a>
</g>
<!-- Node10&#45;&gt;Node15 -->
<g id="edge34" class="edge"><title>Node10&#45;&gt;Node15</title>
<path fill="none" stroke="midnightblue" d="M681.062,-272.458C699.021,-292.057 728.95,-321.938 760,-340.867 766.754,-344.984 774.442,-348.491 781.939,-351.392"/>
<polygon fill="midnightblue" stroke="midnightblue" points="683.64,-270.091 674.348,-264.999 678.436,-274.773 683.64,-270.091"/>
</g>
<!-- Node10&#45;&gt;Node16 -->
<g id="edge38" class="edge"><title>Node10&#45;&gt;Node16</title>
<path fill="none" stroke="midnightblue" d="M680.705,-232.654C699.585,-209.982 731.417,-172.272 760,-140.867 775.147,-124.224 793.309,-105.651 804.995,-93.8688"/>
<polygon fill="midnightblue" stroke="midnightblue" points="677.834,-230.633 674.138,-240.562 683.219,-235.105 677.834,-230.633"/>
</g>
<!-- Node34 -->
<g id="node77" class="node"><title>Node34</title>
<a xlink:href="sequentiel__6__core_8cpp.html#a2a71c851cf25565491dd10423bc80380" target="_top" xlink:title="do_logical_Sequenciel\l_Window">
<polygon fill="white" stroke="black" points="760.5,-249.867 760.5,-289.867 873.5,-289.867 873.5,-249.867 760.5,-249.867"/>
<text text-anchor="start" x="768.5" y="-276.867" font-family="Helvetica,sans-Serif" font-size="10.00">do_logical_Sequenciel</text>
<text text-anchor="middle" x="817" y="-260.867" font-family="Helvetica,sans-Serif" font-size="10.00">_Window</text>
</a>
</g>
<!-- Node10&#45;&gt;Node34 -->
<g id="edge86" class="edge"><title>Node10&#45;&gt;Node34</title>
<path fill="none" stroke="midnightblue" d="M723.662,-259.496C735.75,-260.839 748.429,-262.248 760.408,-263.579"/>
<polygon fill="midnightblue" stroke="midnightblue" points="724,-256.012 713.675,-258.386 723.227,-262.969 724,-256.012"/>
</g>
<!-- Node12 -->
<g id="node24" class="node"><title>Node12</title>
<a xlink:href="i_cat14_8cpp.html#aa9772b548765a631d4bae1c14053b4e1" target="_top" xlink:title="DoJobFantastickTouch">
<polygon fill="white" stroke="black" points="919.5,-207.867 919.5,-231.867 1036.5,-231.867 1036.5,-207.867 919.5,-207.867"/>
<text text-anchor="middle" x="978" y="-218.867" font-family="Helvetica,sans-Serif" font-size="10.00">DoJobFantastickTouch</text>
</a>
</g>
<!-- Node11&#45;&gt;Node12 -->
<g id="edge24" class="edge"><title>Node11&#45;&gt;Node12</title>
<path fill="none" stroke="midnightblue" d="M865.039,-219.867C882.111,-219.867 901.521,-219.867 919.378,-219.867"/>
<polygon fill="midnightblue" stroke="midnightblue" points="864.747,-216.367 854.747,-219.867 864.747,-223.367 864.747,-216.367"/>
</g>
<!-- Node12&#45;&gt;Node6 -->
<g id="edge26" class="edge"><title>Node12&#45;&gt;Node6</title>
<path fill="none" stroke="midnightblue" d="M1028.36,-235.043C1034.32,-236.951 1040.31,-238.918 1046,-240.867 1061.41,-246.141 1078.36,-252.469 1092.43,-257.866"/>
<polygon fill="midnightblue" stroke="midnightblue" points="1028.99,-231.573 1018.4,-231.902 1026.89,-238.248 1028.99,-231.573"/>
</g>
<!-- Node14 -->
<g id="node29" class="node"><title>Node14</title>
<a xlink:href="keyboard__routines2_8cpp.html#a8563320b8eab661232619224650de244" target="_top" xlink:title="commandes_clavier">
<polygon fill="white" stroke="black" points="926,-427.867 926,-451.867 1030,-451.867 1030,-427.867 926,-427.867"/>
<text text-anchor="middle" x="978" y="-438.867" font-family="Helvetica,sans-Serif" font-size="10.00">commandes_clavier</text>
</a>
</g>
<!-- Node13&#45;&gt;Node14 -->
<g id="edge30" class="edge"><title>Node13&#45;&gt;Node14</title>
<path fill="none" stroke="midnightblue" d="M865.688,-336.226C868.561,-337.673 871.355,-339.22 874,-340.867 913.784,-365.637 951.223,-407.417 968.306,-427.865"/>
<polygon fill="midnightblue" stroke="midnightblue" points="866.877,-332.921 856.327,-331.939 863.962,-339.285 866.877,-332.921"/>
</g>
<!-- Node14&#45;&gt;Node6 -->
<g id="edge32" class="edge"><title>Node14&#45;&gt;Node6</title>
<path fill="none" stroke="midnightblue" d="M995.077,-419.845C1025.45,-384.232 1087.99,-310.907 1112.67,-281.982"/>
<polygon fill="midnightblue" stroke="midnightblue" points="992.255,-417.761 988.428,-427.641 997.58,-422.304 992.255,-417.761"/>
</g>
<!-- Node15&#45;&gt;Node14 -->
<g id="edge36" class="edge"><title>Node15&#45;&gt;Node14</title>
<path fill="none" stroke="midnightblue" d="M850.822,-378.252C881.41,-393.072 925.738,-414.547 953.168,-427.836"/>
<polygon fill="midnightblue" stroke="midnightblue" points="852.329,-375.093 841.803,-373.883 849.277,-381.393 852.329,-375.093"/>
</g>
<!-- Node17 -->
<g id="node37" class="node"><title>Node17</title>
<a xlink:href="midi__13_8cpp.html#a6bedf9750195224914cd87c4e73ab626" target="_top" xlink:title="ventilate_midi_to_midiarray">
<polygon fill="white" stroke="black" points="910.5,-84.8666 910.5,-108.867 1045.5,-108.867 1045.5,-84.8666 910.5,-84.8666"/>
<text text-anchor="middle" x="978" y="-95.8666" font-family="Helvetica,sans-Serif" font-size="10.00">ventilate_midi_to_midiarray</text>
</a>
</g>
<!-- Node16&#45;&gt;Node17 -->
<g id="edge40" class="edge"><title>Node16&#45;&gt;Node17</title>
<path fill="none" stroke="midnightblue" d="M861.272,-85.9913C876.455,-87.4059 893.811,-89.0229 910.414,-90.5697"/>
<polygon fill="midnightblue" stroke="midnightblue" points="861.426,-82.4905 851.144,-85.0477 860.776,-89.4603 861.426,-82.4905"/>
</g>
<!-- Node18 -->
<g id="node39" class="node"><title>Node18</title>
<a xlink:href="midi__13_8cpp.html#afa49dd5668303c2448676c8243737c2d" target="_top" xlink:title="simulate_midi">
<polygon fill="white" stroke="black" points="1084.5,-84.8666 1084.5,-108.867 1161.5,-108.867 1161.5,-84.8666 1084.5,-84.8666"/>
<text text-anchor="middle" x="1123" y="-95.8666" font-family="Helvetica,sans-Serif" font-size="10.00">simulate_midi</text>
</a>
</g>
<!-- Node17&#45;&gt;Node18 -->
<g id="edge42" class="edge"><title>Node17&#45;&gt;Node18</title>
<path fill="none" stroke="midnightblue" d="M1056.1,-96.8666C1065.94,-96.8666 1075.64,-96.8666 1084.47,-96.8666"/>
<polygon fill="midnightblue" stroke="midnightblue" points="1055.83,-93.3667 1045.83,-96.8666 1055.83,-100.367 1055.83,-93.3667"/>
</g>
<!-- Node22 -->
<g id="node49" class="node"><title>Node22</title>
<a xlink:href="midi__13_8cpp.html#a4104c2ae7e71376ad9dc78929450dc51" target="_top" xlink:title="EvAquire">
<polygon fill="white" stroke="black" points="1095,-137.867 1095,-161.867 1151,-161.867 1151,-137.867 1095,-137.867"/>
<text text-anchor="middle" x="1123" y="-148.867" font-family="Helvetica,sans-Serif" font-size="10.00">EvAquire</text>
</a>
</g>
<!-- Node17&#45;&gt;Node22 -->
<g id="edge54" class="edge"><title>Node17&#45;&gt;Node22</title>
<path fill="none" stroke="midnightblue" d="M1020.44,-112.379C1044.33,-121.112 1073.51,-131.778 1094.63,-139.497"/>
<polygon fill="midnightblue" stroke="midnightblue" points="1021.5,-109.039 1010.9,-108.893 1019.09,-115.613 1021.5,-109.039"/>
</g>
<!-- Node19 -->
<g id="node41" class="node"><title>Node19</title>
<a xlink:href="arduino__core__6___u_n_o_8cpp.html#ae72d1a8d74d9ab5515962e03e7e664d6" target="_top" xlink:title="arduino_do_analog_in\l_whitecat">
<polygon fill="white" stroke="black" points="1200,-29.8666 1200,-69.8666 1310,-69.8666 1310,-29.8666 1200,-29.8666"/>
<text text-anchor="start" x="1208" y="-56.8666" font-family="Helvetica,sans-Serif" font-size="10.00">arduino_do_analog_in</text>
<text text-anchor="middle" x="1255" y="-40.8666" font-family="Helvetica,sans-Serif" font-size="10.00">_whitecat</text>
</a>
</g>
<!-- Node18&#45;&gt;Node19 -->
<g id="edge44" class="edge"><title>Node18&#45;&gt;Node19</title>
<path fill="none" stroke="midnightblue" d="M1166.5,-81.3766C1177.17,-77.5776 1188.73,-73.4613 1199.87,-69.4962"/>
<polygon fill="midnightblue" stroke="midnightblue" points="1165.24,-78.1113 1156.99,-84.7629 1167.59,-84.7057 1165.24,-78.1113"/>
</g>
<!-- Node21 -->
<g id="node46" class="node"><title>Node21</title>
<a xlink:href="arduino__core__6___u_n_o_8cpp.html#a219226c1cd6cc17c78e62fd4445bb445" target="_top" xlink:title="arduino_do_digital\l_in_whitecat">
<polygon fill="white" stroke="black" points="1207.5,-87.8666 1207.5,-127.867 1302.5,-127.867 1302.5,-87.8666 1207.5,-87.8666"/>
<text text-anchor="start" x="1215.5" y="-114.867" font-family="Helvetica,sans-Serif" font-size="10.00">arduino_do_digital</text>
<text text-anchor="middle" x="1255" y="-98.8666" font-family="Helvetica,sans-Serif" font-size="10.00">_in_whitecat</text>
</a>
</g>
<!-- Node18&#45;&gt;Node21 -->
<g id="edge50" class="edge"><title>Node18&#45;&gt;Node21</title>
<path fill="none" stroke="midnightblue" d="M1171.54,-100.912C1183.2,-101.883 1195.65,-102.921 1207.27,-103.889"/>
<polygon fill="midnightblue" stroke="midnightblue" points="1171.79,-97.4204 1161.53,-100.078 1171.21,-104.396 1171.79,-97.4204"/>
</g>
<!-- Node19&#45;&gt;Node20 -->
<g id="edge46" class="edge"><title>Node19&#45;&gt;Node20</title>
<path fill="none" stroke="midnightblue" d="M1320.38,-62.4227C1329,-64.0782 1337.8,-65.7681 1346.32,-67.404"/>
<polygon fill="midnightblue" stroke="midnightblue" points="1320.85,-58.9494 1310.37,-60.5004 1319.53,-65.8237 1320.85,-58.9494"/>
</g>
<!-- Node20&#45;&gt;Node7 -->
<g id="edge48" class="edge"><title>Node20&#45;&gt;Node7</title>
<path fill="none" stroke="midnightblue" d="M1475.79,-83.8026C1528.56,-87.1116 1602.79,-90.8666 1668,-90.8666 1668,-90.8666 1668,-90.8666 2162,-90.8666 2275.8,-90.8666 2367.71,-223.994 2393.65,-265.597"/>
<polygon fill="midnightblue" stroke="midnightblue" points="1475.74,-80.2921 1465.54,-83.148 1475.29,-87.2779 1475.74,-80.2921"/>
</g>
<!-- Node21&#45;&gt;Node20 -->
<g id="edge52" class="edge"><title>Node21&#45;&gt;Node20</title>
<path fill="none" stroke="midnightblue" d="M1312.71,-96.7839C1323.71,-94.6701 1335.25,-92.4535 1346.32,-90.3281"/>
<polygon fill="midnightblue" stroke="midnightblue" points="1311.94,-93.3674 1302.78,-98.6908 1313.26,-100.242 1311.94,-93.3674"/>
</g>
<!-- Node23 -->
<g id="node51" class="node"><title>Node23</title>
<a xlink:href="midi__13_8cpp.html#a831f1dfc7870ae4f6c64a0e65fbaf3ff" target="_top" xlink:title="Display">
<polygon fill="white" stroke="black" points="1230,-145.867 1230,-169.867 1280,-169.867 1280,-145.867 1230,-145.867"/>
<text text-anchor="middle" x="1255" y="-156.867" font-family="Helvetica,sans-Serif" font-size="10.00">Display</text>
</a>
</g>
<!-- Node22&#45;&gt;Node23 -->
<g id="edge56" class="edge"><title>Node22&#45;&gt;Node23</title>
<path fill="none" stroke="midnightblue" d="M1161.37,-152.192C1183.42,-153.528 1210.5,-155.169 1229.85,-156.342"/>
<polygon fill="midnightblue" stroke="midnightblue" points="1161.51,-148.694 1151.32,-151.583 1161.09,-155.681 1161.51,-148.694"/>
</g>
<!-- Node24 -->
<g id="node53" class="node"><title>Node24</title>
<a xlink:href="midi__13_8cpp.html#aa4aeee5088a4a5462566dfee5c9cc71f" target="_top" xlink:title="DisplayTask">
<polygon fill="white" stroke="black" points="1370.5,-129.867 1370.5,-153.867 1441.5,-153.867 1441.5,-129.867 1370.5,-129.867"/>
<text text-anchor="middle" x="1406" y="-140.867" font-family="Helvetica,sans-Serif" font-size="10.00">DisplayTask</text>
</a>
</g>
<!-- Node23&#45;&gt;Node24 -->
<g id="edge58" class="edge"><title>Node23&#45;&gt;Node24</title>
<path fill="none" stroke="midnightblue" d="M1290.42,-154.113C1314.53,-151.558 1346.32,-148.19 1370.46,-145.633"/>
<polygon fill="midnightblue" stroke="midnightblue" points="1289.85,-150.654 1280.27,-155.189 1290.59,-157.615 1289.85,-150.654"/>
</g>
<!-- Node26 -->
<g id="node58" class="node"><title>Node26</title>
<a xlink:href="midi___c_o_r_e_8cpp.html#a6fcb4c2efe85f50488d7aeeef1fc0a3e" target="_top" xlink:title="ReceiveEvents">
<polygon fill="white" stroke="black" points="1364.5,-171.867 1364.5,-195.867 1447.5,-195.867 1447.5,-171.867 1364.5,-171.867"/>
<text text-anchor="middle" x="1406" y="-182.867" font-family="Helvetica,sans-Serif" font-size="10.00">ReceiveEvents</text>
</a>
</g>
<!-- Node23&#45;&gt;Node26 -->
<g id="edge64" class="edge"><title>Node23&#45;&gt;Node26</title>
<path fill="none" stroke="midnightblue" d="M1290.26,-163.938C1312.42,-167.753 1341.1,-172.692 1364.37,-176.699"/>
<polygon fill="midnightblue" stroke="midnightblue" points="1290.72,-160.466 1280.27,-162.218 1289.54,-167.365 1290.72,-160.466"/>
</g>
<!-- Node25 -->
<g id="node55" class="node"><title>Node25</title>
<a xlink:href="midi___c_o_r_e_8cpp.html#a7d0f82d882071792d6a2df51ef13ec55" target="_top" xlink:title="ReceivePolling">
<polygon fill="white" stroke="black" points="1502,-129.867 1502,-153.867 1584,-153.867 1584,-129.867 1502,-129.867"/>
<text text-anchor="middle" x="1543" y="-140.867" font-family="Helvetica,sans-Serif" font-size="10.00">ReceivePolling</text>
</a>
</g>
<!-- Node24&#45;&gt;Node25 -->
<g id="edge60" class="edge"><title>Node24&#45;&gt;Node25</title>
<path fill="none" stroke="midnightblue" d="M1451.91,-141.867C1468.02,-141.867 1486.01,-141.867 1501.72,-141.867"/>
<polygon fill="midnightblue" stroke="midnightblue" points="1451.64,-138.367 1441.64,-141.867 1451.64,-145.367 1451.64,-138.367"/>
</g>
<!-- Node25&#45;&gt;Node25 -->
<g id="edge62" class="edge"><title>Node25&#45;&gt;Node25</title>
<path fill="none" stroke="midnightblue" d="M1520.51,-163.868C1522.81,-168.514 1530.31,-171.867 1543,-171.867 1563.83,-171.867 1570.66,-162.838 1563.5,-153.88"/>
<polygon fill="midnightblue" stroke="midnightblue" points="1523.98,-164.371 1522.5,-153.88 1517.12,-163.007 1523.98,-164.371"/>
</g>
<!-- Node26&#45;&gt;Node25 -->
<g id="edge66" class="edge"><title>Node26&#45;&gt;Node25</title>
<path fill="none" stroke="midnightblue" d="M1454.99,-168.848C1470.99,-163.942 1488.54,-158.561 1503.74,-153.904"/>
<polygon fill="midnightblue" stroke="midnightblue" points="1453.79,-165.554 1445.26,-171.831 1455.85,-172.246 1453.79,-165.554"/>
</g>
<!-- Node27 -->
<g id="node61" class="node"><title>Node27</title>
<a xlink:href="midi___c_o_r_e_8cpp.html#a0ccf480a33424e626f88d109d53d8366" target="_top" xlink:title="InitMidi">
<polygon fill="white" stroke="black" points="1519,-189.867 1519,-213.867 1567,-213.867 1567,-189.867 1519,-189.867"/>
<text text-anchor="middle" x="1543" y="-200.867" font-family="Helvetica,sans-Serif" font-size="10.00">InitMidi</text>
</a>
</g>
<!-- Node26&#45;&gt;Node27 -->
<g id="edge68" class="edge"><title>Node26&#45;&gt;Node27</title>
<path fill="none" stroke="midnightblue" d="M1457.93,-190.689C1478.89,-193.444 1502.06,-196.488 1518.92,-198.703"/>
<polygon fill="midnightblue" stroke="midnightblue" points="1458.22,-187.198 1447.85,-189.365 1457.31,-194.138 1458.22,-187.198"/>
</g>
<!-- Node27&#45;&gt;Node7 -->
<g id="edge70" class="edge"><title>Node27&#45;&gt;Node7</title>
<path fill="none" stroke="midnightblue" d="M1577.31,-200.97C1625.49,-199.791 1715.92,-197.867 1793,-197.867 1793,-197.867 1793,-197.867 2162,-197.867 2247.76,-197.867 2342.3,-244.761 2381.9,-266.743"/>
<polygon fill="midnightblue" stroke="midnightblue" points="1577.04,-197.476 1567.13,-201.224 1577.22,-204.474 1577.04,-197.476"/>
</g>
<!-- Node28 -->
<g id="node64" class="node"><title>Node28</title>
<a xlink:href="midi__13_8cpp.html#ac7a306aa81e374b447e7341d4d3a3eea" target="_top" xlink:title="midipage_devices">
<polygon fill="white" stroke="black" points="1620.5,-225.867 1620.5,-249.867 1715.5,-249.867 1715.5,-225.867 1620.5,-225.867"/>
<text text-anchor="middle" x="1668" y="-236.867" font-family="Helvetica,sans-Serif" font-size="10.00">midipage_devices</text>
</a>
</g>
<!-- Node27&#45;&gt;Node28 -->
<g id="edge72" class="edge"><title>Node27&#45;&gt;Node28</title>
<path fill="none" stroke="midnightblue" d="M1577.09,-211.685C1592.27,-216.055 1610.28,-221.242 1626.25,-225.842"/>
<polygon fill="midnightblue" stroke="midnightblue" points="1577.68,-208.212 1567.1,-208.808 1575.74,-214.939 1577.68,-208.212"/>
</g>
<!-- Node29 -->
<g id="node66" class="node"><title>Node29</title>
<a xlink:href="midi__13_8cpp.html#a8f70acacad6eaba8867bdd80dda5e277" target="_top" xlink:title="do_midi_config">
<polygon fill="white" stroke="black" points="1752,-225.867 1752,-249.867 1834,-249.867 1834,-225.867 1752,-225.867"/>
<text text-anchor="middle" x="1793" y="-236.867" font-family="Helvetica,sans-Serif" font-size="10.00">do_midi_config</text>
</a>
</g>
<!-- Node28&#45;&gt;Node29 -->
<g id="edge74" class="edge"><title>Node28&#45;&gt;Node29</title>
<path fill="none" stroke="midnightblue" d="M1725.77,-237.867C1734.5,-237.867 1743.35,-237.867 1751.65,-237.867"/>
<polygon fill="midnightblue" stroke="midnightblue" points="1725.61,-234.367 1715.61,-237.867 1725.61,-241.367 1725.61,-234.367"/>
</g>
<!-- Node30 -->
<g id="node68" class="node"><title>Node30</title>
<a xlink:href="_c_f_g__config__panel__8_8cpp.html#ad39c46e2fb3a3ba7ea0460140ead4f96" target="_top" xlink:title="do_panel_config">
<polygon fill="white" stroke="black" points="1870.5,-225.867 1870.5,-249.867 1957.5,-249.867 1957.5,-225.867 1870.5,-225.867"/>
<text text-anchor="middle" x="1914" y="-236.867" font-family="Helvetica,sans-Serif" font-size="10.00">do_panel_config</text>
</a>
</g>
<!-- Node29&#45;&gt;Node30 -->
<g id="edge76" class="edge"><title>Node29&#45;&gt;Node30</title>
<path fill="none" stroke="midnightblue" d="M1844.33,-237.867C1853.01,-237.867 1861.95,-237.867 1870.41,-237.867"/>
<polygon fill="midnightblue" stroke="midnightblue" points="1844.3,-234.367 1834.3,-237.867 1844.3,-241.367 1844.3,-234.367"/>
</g>
<!-- Node31 -->
<g id="node70" class="node"><title>Node31</title>
<a xlink:href="_c_f_g__config__panel__8_8cpp.html#a7968da66bccdba8b864caf6c8435f68e" target="_top" xlink:title="config_general_menu">
<polygon fill="white" stroke="black" points="1994.5,-225.867 1994.5,-249.867 2103.5,-249.867 2103.5,-225.867 1994.5,-225.867"/>
<text text-anchor="middle" x="2049" y="-236.867" font-family="Helvetica,sans-Serif" font-size="10.00">config_general_menu</text>
</a>
</g>
<!-- Node30&#45;&gt;Node31 -->
<g id="edge78" class="edge"><title>Node30&#45;&gt;Node31</title>
<path fill="none" stroke="midnightblue" d="M1968.07,-237.867C1976.62,-237.867 1985.47,-237.867 1994.04,-237.867"/>
<polygon fill="midnightblue" stroke="midnightblue" points="1967.83,-234.367 1957.83,-237.867 1967.83,-241.367 1967.83,-234.367"/>
</g>
<!-- Node32 -->
<g id="node72" class="node"><title>Node32</title>
<a xlink:href="graphics__rebuild1_8cpp.html#ac2eae1e03fb72cc734ffbcef566483bf" target="_top" xlink:title="Boxes">
<polygon fill="white" stroke="black" points="2140,-305.867 2140,-329.867 2184,-329.867 2184,-305.867 2140,-305.867"/>
<text text-anchor="middle" x="2162" y="-316.867" font-family="Helvetica,sans-Serif" font-size="10.00">Boxes</text>
</a>
</g>
<!-- Node31&#45;&gt;Node32 -->
<g id="edge80" class="edge"><title>Node31&#45;&gt;Node32</title>
<path fill="none" stroke="midnightblue" d="M2074.52,-255.937C2096.09,-271.202 2126.36,-292.632 2145.05,-305.864"/>
<polygon fill="midnightblue" stroke="midnightblue" points="2076.35,-252.938 2066.16,-250.017 2072.3,-258.652 2076.35,-252.938"/>
</g>
<!-- Node33 -->
<g id="node74" class="node"><title>Node33</title>
<a xlink:href="_m_a_i_n__avec__objets_8cpp.html#ade8d4ba65d55c94f8ee277829d722155" target="_top" xlink:title="main_actions_on_screen">
<polygon fill="white" stroke="black" points="2220.5,-305.867 2220.5,-329.867 2345.5,-329.867 2345.5,-305.867 2220.5,-305.867"/>
<text text-anchor="middle" x="2283" y="-316.867" font-family="Helvetica,sans-Serif" font-size="10.00">main_actions_on_screen</text>
</a>
</g>
<!-- Node32&#45;&gt;Node33 -->
<g id="edge82" class="edge"><title>Node32&#45;&gt;Node33</title>
<path fill="none" stroke="midnightblue" d="M2194.24,-317.867C2202.32,-317.867 2211.26,-317.867 2220.27,-317.867"/>
<polygon fill="midnightblue" stroke="midnightblue" points="2194.19,-314.367 2184.19,-317.867 2194.19,-321.367 2194.19,-314.367"/>
</g>
<!-- Node33&#45;&gt;Node7 -->
<g id="edge84" class="edge"><title>Node33&#45;&gt;Node7</title>
<path fill="none" stroke="midnightblue" d="M2327.92,-302.639C2346.55,-296.325 2367.16,-289.337 2381.74,-284.397"/>
<polygon fill="midnightblue" stroke="midnightblue" points="2326.75,-299.34 2318.4,-305.865 2329,-305.97 2326.75,-299.34"/>
</g>
<!-- Node34&#45;&gt;Node9 -->
<g id="edge88" class="edge"><title>Node34&#45;&gt;Node9</title>
<path fill="none" stroke="midnightblue" d="M884.106,-269.867C895.511,-269.867 907.286,-269.867 918.478,-269.867"/>
<polygon fill="midnightblue" stroke="midnightblue" points="883.763,-266.367 873.763,-269.867 883.763,-273.367 883.763,-266.367"/>
</g>
<!-- Node35&#45;&gt;Node9 -->
<g id="edge96" class="edge"><title>Node35&#45;&gt;Node9</title>
<path fill="none" stroke="midnightblue" d="M529.042,-231.897C573.463,-256.693 657.176,-305.013 724,-352.867 740.933,-364.993 740.417,-375.776 760,-382.867 807.64,-400.115 827.602,-403.222 874,-382.867 917.216,-363.907 950.389,-317.146 966.747,-290.092"/>
<polygon fill="midnightblue" stroke="midnightblue" points="530.62,-228.77 520.179,-226.971 527.22,-234.889 530.62,-228.77"/>
</g>
<!-- Node37 -->
<g id="node87" class="node"><title>Node37</title>
<a xlink:href="_c_o_r_e__6_8cpp.html#ab9c7e597403ca52d62be2f0431164881" target="_top" xlink:title="affect_time_entry_to_mem">
<polygon fill="white" stroke="black" points="432,-440.867 432,-464.867 564,-464.867 564,-440.867 432,-440.867"/>
<text text-anchor="middle" x="498" y="-451.867" font-family="Helvetica,sans-Serif" font-size="10.00">affect_time_entry_to_mem</text>
</a>
</g>
<!-- Node36&#45;&gt;Node37 -->
<g id="edge100" class="edge"><title>Node36&#45;&gt;Node37</title>
<path fill="none" stroke="midnightblue" d="M402.324,-452.867C412.076,-452.867 422.093,-452.867 431.803,-452.867"/>
<polygon fill="midnightblue" stroke="midnightblue" points="402.282,-449.367 392.282,-452.867 402.282,-456.367 402.282,-449.367"/>
</g>
<!-- Node42 -->
<g id="node101" class="node"><title>Node42</title>
<a xlink:href="keyboard__functions2_8cpp.html#a548548066307f816c5021de7d6e4f26a" target="_top" xlink:title="key_affectation">
<polygon fill="white" stroke="black" points="775.5,-543.867 775.5,-567.867 858.5,-567.867 858.5,-543.867 775.5,-543.867"/>
<text text-anchor="middle" x="817" y="-554.867" font-family="Helvetica,sans-Serif" font-size="10.00">key_affectation</text>
</a>
</g>
<!-- Node36&#45;&gt;Node42 -->
<g id="edge118" class="edge"><title>Node36&#45;&gt;Node42</title>
<path fill="none" stroke="midnightblue" d="M374.596,-468.481C426.826,-487.872 520.754,-520.399 604,-536.867 662.819,-548.502 732.195,-553.018 775.4,-554.767"/>
<polygon fill="midnightblue" stroke="midnightblue" points="375.623,-465.128 365.031,-464.903 373.171,-471.685 375.623,-465.128"/>
</g>
<!-- Node38 -->
<g id="node89" class="node"><title>Node38</title>
<a xlink:href="keyboard__functions2_8cpp.html#a14127becdb98e6a4dc9593f946bc85f5" target="_top" xlink:title="key_time_in">
<polygon fill="white" stroke="black" points="629.5,-503.867 629.5,-527.867 698.5,-527.867 698.5,-503.867 629.5,-503.867"/>
<text text-anchor="middle" x="664" y="-514.867" font-family="Helvetica,sans-Serif" font-size="10.00">key_time_in</text>
</a>
</g>
<!-- Node37&#45;&gt;Node38 -->
<g id="edge102" class="edge"><title>Node37&#45;&gt;Node38</title>
<path fill="none" stroke="midnightblue" d="M536.963,-468.743C556.933,-476.768 581.686,-486.545 604,-494.867 612.169,-497.913 621.01,-501.079 629.33,-504.001"/>
<polygon fill="midnightblue" stroke="midnightblue" points="538.158,-465.451 527.575,-464.957 535.54,-471.943 538.158,-465.451"/>
</g>
<!-- Node39 -->
<g id="node92" class="node"><title>Node39</title>
<a xlink:href="keyboard__functions2_8cpp.html#a2c7a2708e492dd6e781f3a62d6aea4a3" target="_top" xlink:title="key_time_out">
<polygon fill="white" stroke="black" points="626.5,-461.867 626.5,-485.867 701.5,-485.867 701.5,-461.867 626.5,-461.867"/>
<text text-anchor="middle" x="664" y="-472.867" font-family="Helvetica,sans-Serif" font-size="10.00">key_time_out</text>
</a>
</g>
<!-- Node37&#45;&gt;Node39 -->
<g id="edge106" class="edge"><title>Node37&#45;&gt;Node39</title>
<path fill="none" stroke="midnightblue" d="M574.092,-462.493C592.227,-464.787 610.805,-467.137 626.33,-469.101"/>
<polygon fill="midnightblue" stroke="midnightblue" points="574.445,-459.009 564.085,-461.227 573.566,-465.954 574.445,-459.009"/>
</g>
<!-- Node40 -->
<g id="node95" class="node"><title>Node40</title>
<a xlink:href="keyboard__functions2_8cpp.html#acb69de3056922079cff7eb277130e4b0" target="_top" xlink:title="key_time_in_out">
<polygon fill="white" stroke="black" points="620,-419.867 620,-443.867 708,-443.867 708,-419.867 620,-419.867"/>
<text text-anchor="middle" x="664" y="-430.867" font-family="Helvetica,sans-Serif" font-size="10.00">key_time_in_out</text>
</a>
</g>
<!-- Node37&#45;&gt;Node40 -->
<g id="edge110" class="edge"><title>Node37&#45;&gt;Node40</title>
<path fill="none" stroke="midnightblue" d="M574.217,-443.225C589.74,-441.261 605.582,-439.257 619.551,-437.49"/>
<polygon fill="midnightblue" stroke="midnightblue" points="573.566,-439.779 564.085,-444.506 574.445,-446.724 573.566,-439.779"/>
</g>
<!-- Node41 -->
<g id="node98" class="node"><title>Node41</title>
<a xlink:href="sequentiel__6__core_8cpp.html#acff6c79ef275f95ce616c287d2c0a93d" target="_top" xlink:title="do_logical_refresh\l_vision_memories">
<polygon fill="white" stroke="black" points="616.5,-361.867 616.5,-401.867 711.5,-401.867 711.5,-361.867 616.5,-361.867"/>
<text text-anchor="start" x="624.5" y="-388.867" font-family="Helvetica,sans-Serif" font-size="10.00">do_logical_refresh</text>
<text text-anchor="middle" x="664" y="-372.867" font-family="Helvetica,sans-Serif" font-size="10.00">_vision_memories</text>
</a>
</g>
<!-- Node37&#45;&gt;Node41 -->
<g id="edge114" class="edge"><title>Node37&#45;&gt;Node41</title>
<path fill="none" stroke="midnightblue" d="M535.367,-436.884C559.561,-426.536 591.263,-412.977 617.14,-401.909"/>
<polygon fill="midnightblue" stroke="midnightblue" points="533.978,-433.672 526.16,-440.822 536.73,-440.108 533.978,-433.672"/>
</g>
<!-- Node38&#45;&gt;Node14 -->
<g id="edge104" class="edge"><title>Node38&#45;&gt;Node14</title>
<path fill="none" stroke="midnightblue" d="M708.818,-507.324C751.498,-498.939 817.435,-485.334 874,-470.867 896.086,-465.218 920.528,-457.983 940.165,-451.924"/>
<polygon fill="midnightblue" stroke="midnightblue" points="707.897,-503.938 698.753,-509.289 709.239,-510.808 707.897,-503.938"/>
</g>
<!-- Node39&#45;&gt;Node14 -->
<g id="edge108" class="edge"><title>Node39&#45;&gt;Node14</title>
<path fill="none" stroke="midnightblue" d="M711.509,-468.722C769.169,-462.479 866.072,-451.986 925.778,-445.521"/>
<polygon fill="midnightblue" stroke="midnightblue" points="711.129,-465.243 701.564,-469.799 711.883,-472.202 711.129,-465.243"/>
</g>
<!-- Node40&#45;&gt;Node14 -->
<g id="edge112" class="edge"><title>Node40&#45;&gt;Node14</title>
<path fill="none" stroke="midnightblue" d="M718.438,-433.254C776.687,-434.738 868.425,-437.075 925.799,-438.537"/>
<polygon fill="midnightblue" stroke="midnightblue" points="718.408,-429.752 708.323,-432.996 718.23,-436.749 718.408,-429.752"/>
</g>
<!-- Node41&#45;&gt;Node34 -->
<g id="edge116" class="edge"><title>Node41&#45;&gt;Node34</title>
<path fill="none" stroke="midnightblue" d="M691.624,-354.792C710.061,-337.551 735.36,-315.428 760,-298.867 764.607,-295.77 769.59,-292.776 774.624,-289.964"/>
<polygon fill="midnightblue" stroke="midnightblue" points="689.022,-352.435 684.165,-361.851 693.834,-357.52 689.022,-352.435"/>
</g>
<!-- Node42&#45;&gt;Node14 -->
<g id="edge120" class="edge"><title>Node42&#45;&gt;Node14</title>
<path fill="none" stroke="midnightblue" d="M856.898,-539.442C862.78,-536.517 868.654,-533.298 874,-529.867 910.772,-506.263 948.116,-470.415 966.423,-451.89"/>
<polygon fill="midnightblue" stroke="midnightblue" points="855.264,-536.343 847.722,-543.785 858.258,-542.671 855.264,-536.343"/>
</g>
<!-- Node43&#45;&gt;Node7 -->
<g id="edge130" class="edge"><title>Node43&#45;&gt;Node7</title>
<path fill="none" stroke="midnightblue" d="M364.625,-633.743C382.552,-642.798 405.936,-653.227 428,-658.867 529.95,-684.928 558.772,-677.867 664,-677.867 664,-677.867 664,-677.867 2162,-677.867 2347.25,-677.867 2392.32,-357.792 2399.77,-290.276"/>
<polygon fill="midnightblue" stroke="midnightblue" points="365.76,-630.389 355.271,-628.894 362.538,-636.604 365.76,-630.389"/>
</g>
<!-- Node44 -->
<g id="node110" class="node"><title>Node44</title>
<a xlink:href="save__show__13_8cpp.html#a1eafc1ecb75f36c1fe85c967bdea99b0" target="_top" xlink:title="load_the_show">
<polygon fill="white" stroke="black" points="457,-625.867 457,-649.867 539,-649.867 539,-625.867 457,-625.867"/>
<text text-anchor="middle" x="498" y="-636.867" font-family="Helvetica,sans-Serif" font-size="10.00">load_the_show</text>
</a>
</g>
<!-- Node43&#45;&gt;Node44 -->
<g id="edge132" class="edge"><title>Node43&#45;&gt;Node44</title>
<path fill="none" stroke="midnightblue" d="M378.483,-622.563C402.951,-625.696 433.1,-629.556 456.995,-632.616"/>
<polygon fill="midnightblue" stroke="midnightblue" points="378.743,-619.067 368.38,-621.269 377.854,-626.011 378.743,-619.067"/>
</g>
<!-- Node47 -->
<g id="node118" class="node"><title>Node47</title>
<a xlink:href="save__show__13_8cpp.html#a2c8ff847dfaf2dc6c8765b2bee26edfc" target="_top" xlink:title="do_wizard_reload_from_disk">
<polygon fill="white" stroke="black" points="428,-583.867 428,-607.867 568,-607.867 568,-583.867 428,-583.867"/>
<text text-anchor="middle" x="498" y="-594.867" font-family="Helvetica,sans-Serif" font-size="10.00">do_wizard_reload_from_disk</text>
</a>
</g>
<!-- Node43&#45;&gt;Node47 -->
<g id="edge142" class="edge"><title>Node43&#45;&gt;Node47</title>
<path fill="none" stroke="midnightblue" d="M378.521,-611.166C393.727,-609.219 411.123,-606.991 427.847,-604.85"/>
<polygon fill="midnightblue" stroke="midnightblue" points="377.854,-607.722 368.38,-612.464 378.743,-614.666 377.854,-607.722"/>
</g>
<!-- Node45 -->
<g id="node112" class="node"><title>Node45</title>
<a xlink:href="logicals__intres_8cpp.html#a74cf9c04c734ab342f88799efbfc4210" target="_top" xlink:title="operations_confirmation">
<polygon fill="white" stroke="black" points="604,-583.867 604,-607.867 724,-607.867 724,-583.867 604,-583.867"/>
<text text-anchor="middle" x="664" y="-594.867" font-family="Helvetica,sans-Serif" font-size="10.00">operations_confirmation</text>
</a>
</g>
<!-- Node44&#45;&gt;Node45 -->
<g id="edge134" class="edge"><title>Node44&#45;&gt;Node45</title>
<path fill="none" stroke="midnightblue" d="M548.953,-624.975C570.427,-619.542 595.281,-613.253 616.382,-607.914"/>
<polygon fill="midnightblue" stroke="midnightblue" points="547.87,-621.639 539.034,-627.485 549.587,-628.425 547.87,-621.639"/>
</g>
<!-- Node45&#45;&gt;Node42 -->
<g id="edge136" class="edge"><title>Node45&#45;&gt;Node42</title>
<path fill="none" stroke="midnightblue" d="M719.623,-581.325C738.01,-576.518 758.139,-571.255 775.299,-566.769"/>
<polygon fill="midnightblue" stroke="midnightblue" points="718.695,-577.95 709.905,-583.865 720.465,-584.722 718.695,-577.95"/>
</g>
<!-- Node46 -->
<g id="node115" class="node"><title>Node46</title>
<a xlink:href="logicals__intres_8cpp.html#a85967c22135715eca94d08af2ec1a1fb" target="_top" xlink:title="fenetre_confirm">
<polygon fill="white" stroke="black" points="1626,-440.867 1626,-464.867 1710,-464.867 1710,-440.867 1626,-440.867"/>
<text text-anchor="middle" x="1668" y="-451.867" font-family="Helvetica,sans-Serif" font-size="10.00">fenetre_confirm</text>
</a>
</g>
<!-- Node45&#45;&gt;Node46 -->
<g id="edge138" class="edge"><title>Node45&#45;&gt;Node46</title>
<path fill="none" stroke="midnightblue" d="M734.514,-595.867C798.153,-595.867 894.345,-595.867 978,-595.867 978,-595.867 978,-595.867 1406,-595.867 1514.82,-595.867 1621.41,-499.64 1656.2,-465.059"/>
<polygon fill="midnightblue" stroke="midnightblue" points="734.196,-592.367 724.196,-595.867 734.196,-599.367 734.196,-592.367"/>
</g>
<!-- Node46&#45;&gt;Node32 -->
<g id="edge140" class="edge"><title>Node46&#45;&gt;Node32</title>
<path fill="none" stroke="midnightblue" d="M1720.01,-438.652C1826.66,-409.507 2066.28,-344.025 2140,-323.879"/>
<polygon fill="midnightblue" stroke="midnightblue" points="1718.84,-435.344 1710.12,-441.357 1720.69,-442.097 1718.84,-435.344"/>
</g>
<!-- Node47&#45;&gt;Node45 -->
<g id="edge144" class="edge"><title>Node47&#45;&gt;Node45</title>
<path fill="none" stroke="midnightblue" d="M578.451,-595.867C587.047,-595.867 595.679,-595.867 603.979,-595.867"/>
<polygon fill="midnightblue" stroke="midnightblue" points="578.399,-592.367 568.399,-595.867 578.399,-599.367 578.399,-592.367"/>
</g>
</g>
</svg>
