<?xml version="1.0" encoding="UTF-8" standalone="no"?>
<!DOCTYPE svg PUBLIC "-//W3C//DTD SVG 1.1//EN"
 "http://www.w3.org/Graphics/SVG/1.1/DTD/svg11.dtd">
<!-- Generated by graphviz version 2.26.3 (20100126.1600)
 -->
<!-- Title: refresh_ocv_settings Pages: 1 -->
<!--zoomable 151 -->
<svg id="main" version="1.1" xmlns="http://www.w3.org/2000/svg" xmlns:xlink="http://www.w3.org/1999/xlink" xml:space="preserve" onload="init(evt)">
<style type="text/css"><![CDATA[
.edge:hover path { stroke: red; }
.edge:hover polygon { stroke: red; fill: red; }
]]></style>
<script type="text/javascript"><![CDATA[
var edges = document.getElementsByTagName('g');
if (edges && edges.length) {
  for (var i=0;i<edges.length;i++) {
    if (edges[i].id.substr(0,4)=='edge') {
      edges[i].setAttribute('class','edge');
    }
  }
}
]]></script>
        <defs>
                <circle id="rim" cx="0" cy="0" r="7"/>
                <circle id="rim2" cx="0" cy="0" r="3.5"/>
                <g id="zoomPlus">
                        <use xlink:href="#rim" fill="#404040">
                                <set attributeName="fill" to="#808080" begin="zoomplus.mouseover" end="zoomplus.mouseout"/>
                        </use>
                        <path d="M-4,0h8M0,-4v8" fill="none" stroke="white" stroke-width="1.5" pointer-events="none"/>
                </g>
                <g id="zoomMin">
                        <use xlink:href="#rim" fill="#404040">
                                <set attributeName="fill" to="#808080" begin="zoomminus.mouseover" end="zoomminus.mouseout"/>
                        </use>
                        <path d="M-4,0h8" fill="none" stroke="white" stroke-width="1.5" pointer-events="none"/>
                </g>
                <g id="dirArrow">
                        <path fill="none" stroke="white" stroke-width="1.5" d="M0,-3.0v7 M-2.5,-0.5L0,-3.0L2.5,-0.5"/>
                </g>
               <g id="resetDef">
                       <use xlink:href="#rim2" fill="#404040">
                               <set attributeName="fill" to="#808080" begin="reset.mouseover" end="reset.mouseout"/>
                       </use>
               </g>
        </defs>

<script type="text/javascript">
var viewWidth = 1084;
var viewHeight = 151;
var sectionId = 'dynsection-155';
</script>
<script xlink:href="svgpan.js"/>
<svg id="graph" class="graph">
<g id="viewport">
<title>refresh_ocv_settings</title>
<polygon fill="white" stroke="white" points="-4,5 -4,-146.614 1081,-146.614 1081,5 -4,5"/>
<!-- Node1 -->
<g id="node1" class="node"><title>Node1</title>
<polygon fill="#bfbfbf" stroke="black" points="0.5,-69.6141 0.5,-93.6141 107.5,-93.6141 107.5,-69.6141 0.5,-69.6141"/>
<text text-anchor="middle" x="54" y="-80.6141" font-family="Helvetica,sans-Serif" font-size="10.00">refresh_ocv_settings</text>
</g>
<!-- Node2 -->
<g id="node3" class="node"><title>Node2</title>
<a xlink:href="save__show__13_8cpp.html#a8330f725aa2c729bdce098aa4b187589" target="_top" xlink:title="Load_Show">
<polygon fill="white" stroke="black" points="162,-36.6141 162,-60.6141 230,-60.6141 230,-36.6141 162,-36.6141"/>
<text text-anchor="middle" x="196" y="-47.6141" font-family="Helvetica,sans-Serif" font-size="10.00">Load_Show</text>
</a>
</g>
<!-- Node1&#45;&gt;Node2 -->
<g id="edge2" class="edge"><title>Node1&#45;&gt;Node2</title>
<path fill="none" stroke="midnightblue" d="M115.459,-67.3313C131.369,-63.6341 147.929,-59.7856 161.866,-56.5466"/>
<polygon fill="midnightblue" stroke="midnightblue" points="114.615,-63.9341 105.667,-69.607 116.2,-70.7524 114.615,-63.9341"/>
</g>
<!-- Node13 -->
<g id="node28" class="node"><title>Node13</title>
<a xlink:href="video__tracking__core_8cpp.html#a3f57894fb192cb6907464f6466e6c37c" target="_top" xlink:title="do_logical_Interface\l_video_window">
<polygon fill="white" stroke="black" points="144,-94.6141 144,-134.614 248,-134.614 248,-94.6141 144,-94.6141"/>
<text text-anchor="start" x="152" y="-121.614" font-family="Helvetica,sans-Serif" font-size="10.00">do_logical_Interface</text>
<text text-anchor="middle" x="196" y="-105.614" font-family="Helvetica,sans-Serif" font-size="10.00">_video_window</text>
</a>
</g>
<!-- Node1&#45;&gt;Node13 -->
<g id="edge30" class="edge"><title>Node1&#45;&gt;Node13</title>
<path fill="none" stroke="midnightblue" d="M115.673,-95.9466C125.002,-98.1146 134.55,-100.333 143.657,-102.45"/>
<polygon fill="midnightblue" stroke="midnightblue" points="116.2,-92.4757 105.667,-93.6212 114.615,-99.294 116.2,-92.4757"/>
</g>
<!-- Node3 -->
<g id="node5" class="node"><title>Node3</title>
<a xlink:href="_m_a_i_n__avec__objets_8cpp.html#ae66f6b31b5ad750f1fe042a706a4e3d4" target="_top" xlink:title="main">
<polygon fill="white" stroke="black" points="1038,-28.6141 1038,-52.6141 1076,-52.6141 1076,-28.6141 1038,-28.6141"/>
<text text-anchor="middle" x="1057" y="-39.6141" font-family="Helvetica,sans-Serif" font-size="10.00">main</text>
</a>
</g>
<!-- Node2&#45;&gt;Node3 -->
<g id="edge4" class="edge"><title>Node2&#45;&gt;Node3</title>
<path fill="none" stroke="midnightblue" d="M236.311,-33.0945C251.102,-27.9982 268.114,-22.8233 284,-19.6141 387.145,1.2231 414.772,-0.614086 520,-0.614086 520,-0.614086 520,-0.614086 788,-0.614086 883.485,-0.614086 908.957,1.84226 1002,-19.6141 1014.25,-22.4391 1027.43,-27.3973 1037.81,-31.7867"/>
<polygon fill="midnightblue" stroke="midnightblue" points="234.723,-29.9442 226.467,-36.585 237.062,-36.5418 234.723,-29.9442"/>
</g>
<!-- Node4 -->
<g id="node7" class="node"><title>Node4</title>
<a xlink:href="save__show__13_8cpp.html#a1eafc1ecb75f36c1fe85c967bdea99b0" target="_top" xlink:title="load_the_show">
<polygon fill="white" stroke="black" points="313,-28.6141 313,-52.6141 395,-52.6141 395,-28.6141 313,-28.6141"/>
<text text-anchor="middle" x="354" y="-39.6141" font-family="Helvetica,sans-Serif" font-size="10.00">load_the_show</text>
</a>
</g>
<!-- Node2&#45;&gt;Node4 -->
<g id="edge6" class="edge"><title>Node2&#45;&gt;Node4</title>
<path fill="none" stroke="midnightblue" d="M240.346,-46.3687C263.054,-45.2189 290.527,-43.8279 312.773,-42.7015"/>
<polygon fill="midnightblue" stroke="midnightblue" points="240.094,-42.8769 230.284,-46.8782 240.448,-49.868 240.094,-42.8769"/>
</g>
<!-- Node12 -->
<g id="node25" class="node"><title>Node12</title>
<a xlink:href="save__show__13_8cpp.html#a2c8ff847dfaf2dc6c8765b2bee26edfc" target="_top" xlink:title="do_wizard_reload_from_disk">
<polygon fill="white" stroke="black" points="284,-70.6141 284,-94.6141 424,-94.6141 424,-70.6141 284,-70.6141"/>
<text text-anchor="middle" x="354" y="-81.6141" font-family="Helvetica,sans-Serif" font-size="10.00">do_wizard_reload_from_disk</text>
</a>
</g>
<!-- Node2&#45;&gt;Node12 -->
<g id="edge26" class="edge"><title>Node2&#45;&gt;Node12</title>
<path fill="none" stroke="midnightblue" d="M240.185,-58.1223C258.123,-61.9824 279.055,-66.4868 298.041,-70.5724"/>
<polygon fill="midnightblue" stroke="midnightblue" points="240.796,-54.6737 230.284,-55.9916 239.324,-61.5171 240.796,-54.6737"/>
</g>
<!-- Node5 -->
<g id="node9" class="node"><title>Node5</title>
<a xlink:href="logicals__intres_8cpp.html#a74cf9c04c734ab342f88799efbfc4210" target="_top" xlink:title="operations_confirmation">
<polygon fill="white" stroke="black" points="460,-44.6141 460,-68.6141 580,-68.6141 580,-44.6141 460,-44.6141"/>
<text text-anchor="middle" x="520" y="-55.6141" font-family="Helvetica,sans-Serif" font-size="10.00">operations_confirmation</text>
</a>
</g>
<!-- Node4&#45;&gt;Node5 -->
<g id="edge8" class="edge"><title>Node4&#45;&gt;Node5</title>
<path fill="none" stroke="midnightblue" d="M405.422,-45.5704C422.599,-47.226 441.896,-49.086 459.687,-50.8008"/>
<polygon fill="midnightblue" stroke="midnightblue" points="405.323,-42.0448 395.034,-44.5691 404.652,-49.0125 405.323,-42.0448"/>
</g>
<!-- Node6 -->
<g id="node11" class="node"><title>Node6</title>
<a xlink:href="keyboard__functions2_8cpp.html#a548548066307f816c5021de7d6e4f26a" target="_top" xlink:title="key_affectation">
<polygon fill="white" stroke="black" points="616.5,-70.6141 616.5,-94.6141 699.5,-94.6141 699.5,-70.6141 616.5,-70.6141"/>
<text text-anchor="middle" x="658" y="-81.6141" font-family="Helvetica,sans-Serif" font-size="10.00">key_affectation</text>
</a>
</g>
<!-- Node5&#45;&gt;Node6 -->
<g id="edge10" class="edge"><title>Node5&#45;&gt;Node6</title>
<path fill="none" stroke="midnightblue" d="M590.19,-69.8382C599.12,-71.5208 608.024,-73.1984 616.303,-74.7581"/>
<polygon fill="midnightblue" stroke="midnightblue" points="590.603,-66.3545 580.127,-67.9424 589.306,-73.2335 590.603,-66.3545"/>
</g>
<!-- Node9 -->
<g id="node18" class="node"><title>Node9</title>
<a xlink:href="logicals__intres_8cpp.html#a85967c22135715eca94d08af2ec1a1fb" target="_top" xlink:title="fenetre_confirm">
<polygon fill="white" stroke="black" points="616,-28.6141 616,-52.6141 700,-52.6141 700,-28.6141 616,-28.6141"/>
<text text-anchor="middle" x="658" y="-39.6141" font-family="Helvetica,sans-Serif" font-size="10.00">fenetre_confirm</text>
</a>
</g>
<!-- Node5&#45;&gt;Node9 -->
<g id="edge18" class="edge"><title>Node5&#45;&gt;Node9</title>
<path fill="none" stroke="midnightblue" d="M590.07,-48.4901C598.894,-47.4669 607.695,-46.4465 615.896,-45.4958"/>
<polygon fill="midnightblue" stroke="midnightblue" points="589.658,-45.0143 580.127,-49.6428 590.464,-51.9677 589.658,-45.0143"/>
</g>
<!-- Node7 -->
<g id="node13" class="node"><title>Node7</title>
<a xlink:href="keyboard__routines2_8cpp.html#a8563320b8eab661232619224650de244" target="_top" xlink:title="commandes_clavier">
<polygon fill="white" stroke="black" points="736,-70.6141 736,-94.6141 840,-94.6141 840,-70.6141 736,-70.6141"/>
<text text-anchor="middle" x="788" y="-81.6141" font-family="Helvetica,sans-Serif" font-size="10.00">commandes_clavier</text>
</a>
</g>
<!-- Node6&#45;&gt;Node7 -->
<g id="edge12" class="edge"><title>Node6&#45;&gt;Node7</title>
<path fill="none" stroke="midnightblue" d="M709.995,-82.6141C718.473,-82.6141 727.258,-82.6141 735.742,-82.6141"/>
<polygon fill="midnightblue" stroke="midnightblue" points="709.848,-79.1142 699.848,-82.6141 709.848,-86.1142 709.848,-79.1142"/>
</g>
<!-- Node8 -->
<g id="node15" class="node"><title>Node8</title>
<a xlink:href="_m_a_i_n__avec__objets_8cpp.html#a8e80f54ac804eddce8ed6e45adb1db44" target="_top" xlink:title="ticker_full_loop">
<polygon fill="white" stroke="black" points="898,-70.6141 898,-94.6141 980,-94.6141 980,-70.6141 898,-70.6141"/>
<text text-anchor="middle" x="939" y="-81.6141" font-family="Helvetica,sans-Serif" font-size="10.00">ticker_full_loop</text>
</a>
</g>
<!-- Node7&#45;&gt;Node8 -->
<g id="edge14" class="edge"><title>Node7&#45;&gt;Node8</title>
<path fill="none" stroke="midnightblue" d="M850.664,-82.6141C866.516,-82.6141 883.147,-82.6141 897.648,-82.6141"/>
<polygon fill="midnightblue" stroke="midnightblue" points="850.389,-79.1142 840.389,-82.6141 850.389,-86.1142 850.389,-79.1142"/>
</g>
<!-- Node8&#45;&gt;Node3 -->
<g id="edge16" class="edge"><title>Node8&#45;&gt;Node3</title>
<path fill="none" stroke="midnightblue" d="M985.823,-67.2551C991.288,-65.3887 996.775,-63.4814 1002,-61.6141 1014.03,-57.3144 1027.43,-52.2068 1037.98,-48.1054"/>
<polygon fill="midnightblue" stroke="midnightblue" points="984.421,-64.0343 976.069,-70.5528 986.663,-70.6656 984.421,-64.0343"/>
</g>
<!-- Node10 -->
<g id="node20" class="node"><title>Node10</title>
<a xlink:href="graphics__rebuild1_8cpp.html#ac2eae1e03fb72cc734ffbcef566483bf" target="_top" xlink:title="Boxes">
<polygon fill="white" stroke="black" points="766,-28.6141 766,-52.6141 810,-52.6141 810,-28.6141 766,-28.6141"/>
<text text-anchor="middle" x="788" y="-39.6141" font-family="Helvetica,sans-Serif" font-size="10.00">Boxes</text>
</a>
</g>
<!-- Node9&#45;&gt;Node10 -->
<g id="edge20" class="edge"><title>Node9&#45;&gt;Node10</title>
<path fill="none" stroke="midnightblue" d="M710.4,-40.6141C729.658,-40.6141 750.45,-40.6141 765.66,-40.6141"/>
<polygon fill="midnightblue" stroke="midnightblue" points="710.207,-37.1142 700.207,-40.6141 710.207,-44.1142 710.207,-37.1142"/>
</g>
<!-- Node11 -->
<g id="node22" class="node"><title>Node11</title>
<a xlink:href="_m_a_i_n__avec__objets_8cpp.html#ade8d4ba65d55c94f8ee277829d722155" target="_top" xlink:title="main_actions_on_screen">
<polygon fill="white" stroke="black" points="876.5,-28.6141 876.5,-52.6141 1001.5,-52.6141 1001.5,-28.6141 876.5,-28.6141"/>
<text text-anchor="middle" x="939" y="-39.6141" font-family="Helvetica,sans-Serif" font-size="10.00">main_actions_on_screen</text>
</a>
</g>
<!-- Node10&#45;&gt;Node11 -->
<g id="edge22" class="edge"><title>Node10&#45;&gt;Node11</title>
<path fill="none" stroke="midnightblue" d="M820.395,-40.6141C836.76,-40.6141 857.187,-40.6141 876.455,-40.6141"/>
<polygon fill="midnightblue" stroke="midnightblue" points="820.281,-37.1142 810.281,-40.6141 820.281,-44.1142 820.281,-37.1142"/>
</g>
<!-- Node11&#45;&gt;Node3 -->
<g id="edge24" class="edge"><title>Node11&#45;&gt;Node3</title>
<path fill="none" stroke="midnightblue" d="M1011.84,-40.6141C1021.34,-40.6141 1030.33,-40.6141 1037.75,-40.6141"/>
<polygon fill="midnightblue" stroke="midnightblue" points="1011.8,-37.1142 1001.8,-40.6141 1011.8,-44.1142 1011.8,-37.1142"/>
</g>
<!-- Node12&#45;&gt;Node5 -->
<g id="edge28" class="edge"><title>Node12&#45;&gt;Node5</title>
<path fill="none" stroke="midnightblue" d="M434.451,-70.0134C443.047,-68.667 451.679,-67.315 459.979,-66.015"/>
<polygon fill="midnightblue" stroke="midnightblue" points="433.737,-66.5824 424.399,-71.5877 434.82,-73.4981 433.737,-66.5824"/>
</g>
<!-- Node14 -->
<g id="node30" class="node"><title>Node14</title>
<a xlink:href="procs__visuels__rebuild1_8cpp.html#ae710b6e599e321ad5934a90140067054" target="_top" xlink:title="check_graphics_mouse\l_handling">
<polygon fill="white" stroke="black" points="460.5,-102.614 460.5,-142.614 579.5,-142.614 579.5,-102.614 460.5,-102.614"/>
<text text-anchor="start" x="468.5" y="-129.614" font-family="Helvetica,sans-Serif" font-size="10.00">check_graphics_mouse</text>
<text text-anchor="middle" x="520" y="-113.614" font-family="Helvetica,sans-Serif" font-size="10.00">_handling</text>
</a>
</g>
<!-- Node13&#45;&gt;Node14 -->
<g id="edge32" class="edge"><title>Node13&#45;&gt;Node14</title>
<path fill="none" stroke="midnightblue" d="M258.234,-116.151C316.501,-117.589 402.966,-119.724 460.373,-121.142"/>
<polygon fill="midnightblue" stroke="midnightblue" points="258.14,-112.647 248.056,-115.899 257.967,-119.645 258.14,-112.647"/>
</g>
<!-- Node14&#45;&gt;Node8 -->
<g id="edge34" class="edge"><title>Node14&#45;&gt;Node8</title>
<path fill="none" stroke="midnightblue" d="M589.66,-121.478C654.679,-119.709 754.273,-115.185 840,-103.614 859.153,-101.029 880.125,-96.7881 897.817,-92.7918"/>
<polygon fill="midnightblue" stroke="midnightblue" points="589.436,-117.983 579.529,-121.739 589.616,-124.981 589.436,-117.983"/>
</g>
</g>
</svg>
        <g id="navigator" transform="translate(0 0)" fill="#404254">
                <rect fill="#f2f5e9" fill-opacity="0.5" stroke="#606060" stroke-width=".5" x="0" y="0" width="60" height="60"/>
                <use id="zoomplus" xlink:href="#zoomPlus" x="17" y="9" onmousedown="handleZoom(evt,'in')"/>
                <use id="zoomminus" xlink:href="#zoomMin" x="42" y="9" onmousedown="handleZoom(evt,'out')"/>
                <use id="reset" xlink:href="#resetDef" x="30" y="36" onmousedown="handleReset()"/>
                <g id="arrowUp" xlink:href="#dirArrow" transform="translate(30 24)" onmousedown="handlePan(0,-1)">
                  <use xlink:href="#rim" fill="#404040">
                        <set attributeName="fill" to="#808080" begin="arrowUp.mouseover" end="arrowUp.mouseout"/>
                  </use>
                  <path fill="none" stroke="white" stroke-width="1.5" d="M0,-3.0v7 M-2.5,-0.5L0,-3.0L2.5,-0.5"/>
                </g>
                <g id="arrowRight" xlink:href="#dirArrow" transform="rotate(90) translate(36 -43)" onmousedown="handlePan(1,0)">
                  <use xlink:href="#rim" fill="#404040">
                        <set attributeName="fill" to="#808080" begin="arrowRight.mouseover" end="arrowRight.mouseout"/>
                  </use>
                  <path fill="none" stroke="white" stroke-width="1.5" d="M0,-3.0v7 M-2.5,-0.5L0,-3.0L2.5,-0.5"/>
                </g>
                <g id="arrowDown" xlink:href="#dirArrow" transform="rotate(180) translate(-30 -48)" onmousedown="handlePan(0,1)">
                  <use xlink:href="#rim" fill="#404040">
                        <set attributeName="fill" to="#808080" begin="arrowDown.mouseover" end="arrowDown.mouseout"/>
                  </use>
                  <path fill="none" stroke="white" stroke-width="1.5" d="M0,-3.0v7 M-2.5,-0.5L0,-3.0L2.5,-0.5"/>
                </g>
                <g id="arrowLeft" xlink:href="#dirArrow" transform="rotate(270) translate(-36 17)" onmousedown="handlePan(-1,0)">
                  <use xlink:href="#rim" fill="#404040">
                        <set attributeName="fill" to="#808080" begin="arrowLeft.mouseover" end="arrowLeft.mouseout"/>
                  </use>
                  <path fill="none" stroke="white" stroke-width="1.5" d="M0,-3.0v7 M-2.5,-0.5L0,-3.0L2.5,-0.5"/>
                </g>
        </g>
        <svg viewBox="0 0 15 15" width="100%" height="30px" preserveAspectRatio="xMaxYMin meet">
         <g id="arrow_out" transform="scale(0.3 0.3)">
          <a xlink:href="_c_o_r_e__6_8cpp_aef793ce0ef44f4f0dcb3ee0a5af04073_icgraph_org.svg" target="_base">
           <rect id="button" ry="5" rx="5" y="6" x="6" height="38" width="38"
                fill="#f2f5e9" fill-opacity="0.5" stroke="#606060" stroke-width="1.0"/>
           <path id="arrow"
             d="M 11.500037,31.436501 C 11.940474,20.09759 22.043105,11.32322 32.158766,21.979434 L 37.068811,17.246167 C 37.068811,17.246167 37.088388,32 37.088388,32 L 22.160133,31.978069 C 22.160133,31.978069 26.997745,27.140456 26.997745,27.140456 C 18.528582,18.264221 13.291696,25.230495 11.500037,31.436501 z"
             style="fill:#404040;"/>
          </a>
         </g>
        </svg>
</svg>
