<?xml version="1.0" encoding="UTF-8" standalone="no"?>
<!DOCTYPE svg PUBLIC "-//W3C//DTD SVG 1.1//EN"
 "http://www.w3.org/Graphics/SVG/1.1/DTD/svg11.dtd">
<!-- Generated by graphviz version 2.26.3 (20100126.1600)
 -->
<!-- Title: refresh_minifader_state_view_core Pages: 1 -->
<svg width="1850pt" height="272pt"
 viewBox="0.00 0.00 1850.00 272.00" xmlns="http://www.w3.org/2000/svg" xmlns:xlink="http://www.w3.org/1999/xlink">
<g id="graph1" class="graph" transform="scale(1 1) rotate(0) translate(4 268)">
<title>refresh_minifader_state_view_core</title>
<polygon fill="white" stroke="white" points="-4,5 -4,-268 1847,-268 1847,5 -4,5"/>
<!-- Node1 -->
<g id="node1" class="node"><title>Node1</title>
<polygon fill="#bfbfbf" stroke="black" points="0.5,-68 0.5,-108 119.5,-108 119.5,-68 0.5,-68"/>
<text text-anchor="start" x="8.5" y="-95" font-family="Helvetica,sans-Serif" font-size="10.00">refresh_minifader_state</text>
<text text-anchor="middle" x="60" y="-79" font-family="Helvetica,sans-Serif" font-size="10.00">_view_core</text>
</g>
<!-- Node2 -->
<g id="node3" class="node"><title>Node2</title>
<a xlink:href="_m_a_i_n__avec__objets_8cpp.html#ace9c8a9b37c6087c3cffef442d71d70e" target="_top" xlink:title="dixiemes_de_secondes">
<polygon fill="white" stroke="black" points="744.5,-202 744.5,-226 863.5,-226 863.5,-202 744.5,-202"/>
<text text-anchor="middle" x="804" y="-213" font-family="Helvetica,sans-Serif" font-size="10.00">dixiemes_de_secondes</text>
</a>
</g>
<!-- Node1&#45;&gt;Node2 -->
<g id="edge2" class="edge"><title>Node1&#45;&gt;Node2</title>
<path fill="none" stroke="midnightblue" d="M87.0637,-115.394C138.963,-164.859 258.178,-264 380,-264 380,-264 380,-264 523,-264 605.655,-264 627.116,-262.016 708,-245 729.938,-240.385 753.938,-232.635 772.453,-226.039"/>
<polygon fill="midnightblue" stroke="midnightblue" points="89.234,-112.624 79.612,-108.189 84.3683,-117.657 89.234,-112.624"/>
</g>
<!-- Node4 -->
<g id="node7" class="node"><title>Node4</title>
<a xlink:href="midi__13_8cpp.html#a6dff3d42682b58cc0a9875ee30fb4cd4" target="_top" xlink:title="do_midi_job">
<polygon fill="white" stroke="black" points="182,-96 182,-120 250,-120 250,-96 182,-96"/>
<text text-anchor="middle" x="216" y="-107" font-family="Helvetica,sans-Serif" font-size="10.00">do_midi_job</text>
</a>
</g>
<!-- Node1&#45;&gt;Node4 -->
<g id="edge6" class="edge"><title>Node1&#45;&gt;Node4</title>
<path fill="none" stroke="midnightblue" d="M129.806,-96.9494C147.849,-99.2626 166.483,-101.652 181.789,-103.614"/>
<polygon fill="midnightblue" stroke="midnightblue" points="130.231,-93.4755 119.868,-95.6753 129.341,-100.419 130.231,-93.4755"/>
</g>
<!-- Node21 -->
<g id="node47" class="node"><title>Node21</title>
<a xlink:href="minifaders__core_8cpp.html#ac974e1c0e7800b10f4290db4d5ce4db0" target="_top" xlink:title="mini_faders_panel_core">
<polygon fill="white" stroke="black" points="156.5,-12 156.5,-36 275.5,-36 275.5,-12 156.5,-12"/>
<text text-anchor="middle" x="216" y="-23" font-family="Helvetica,sans-Serif" font-size="10.00">mini_faders_panel_core</text>
</a>
</g>
<!-- Node1&#45;&gt;Node21 -->
<g id="edge52" class="edge"><title>Node1&#45;&gt;Node21</title>
<path fill="none" stroke="midnightblue" d="M118.338,-64.0666C141.492,-54.5674 167.119,-44.0536 186.311,-36.1803"/>
<polygon fill="midnightblue" stroke="midnightblue" points="116.855,-60.8919 108.931,-67.9256 119.512,-67.3681 116.855,-60.8919"/>
</g>
<!-- Node24 -->
<g id="node54" class="node"><title>Node24</title>
<a xlink:href="minifaders__visu_8cpp.html#a17d954acc2cae5c05f7d9ee4ff8b0a0a" target="_top" xlink:title="mini_faders_panel_visu">
<polygon fill="white" stroke="black" points="1018.5,-54 1018.5,-78 1137.5,-78 1137.5,-54 1018.5,-54"/>
<text text-anchor="middle" x="1078" y="-65" font-family="Helvetica,sans-Serif" font-size="10.00">mini_faders_panel_visu</text>
</a>
</g>
<!-- Node1&#45;&gt;Node24 -->
<g id="edge60" class="edge"><title>Node1&#45;&gt;Node24</title>
<path fill="none" stroke="midnightblue" d="M129.887,-81.1127C194.662,-75.3281 293.743,-68 380,-68 380,-68 380,-68 804,-68 877.854,-68 962.901,-67.2644 1018.4,-66.6855"/>
<polygon fill="midnightblue" stroke="midnightblue" points="129.436,-77.639 119.792,-82.0264 130.067,-84.6105 129.436,-77.639"/>
</g>
<!-- Node3 -->
<g id="node5" class="node"><title>Node3</title>
<a xlink:href="_m_a_i_n__avec__objets_8cpp.html#ae66f6b31b5ad750f1fe042a706a4e3d4" target="_top" xlink:title="main">
<polygon fill="white" stroke="black" points="1804,-116 1804,-140 1842,-140 1842,-116 1804,-116"/>
<text text-anchor="middle" x="1823" y="-127" font-family="Helvetica,sans-Serif" font-size="10.00">main</text>
</a>
</g>
<!-- Node2&#45;&gt;Node3 -->
<g id="edge4" class="edge"><title>Node2&#45;&gt;Node3</title>
<path fill="none" stroke="midnightblue" d="M873.645,-212.423C929.022,-211.304 1008.47,-210 1078,-210 1078,-210 1078,-210 1584,-210 1669.98,-210 1764.4,-161.933 1803.94,-139.402"/>
<polygon fill="midnightblue" stroke="midnightblue" points="873.519,-208.924 863.593,-212.629 873.662,-215.923 873.519,-208.924"/>
</g>
<!-- Node5 -->
<g id="node9" class="node"><title>Node5</title>
<a xlink:href="midi__13_8cpp.html#a6bedf9750195224914cd87c4e73ab626" target="_top" xlink:title="ventilate_midi_to_midiarray">
<polygon fill="white" stroke="black" points="312.5,-96 312.5,-120 447.5,-120 447.5,-96 312.5,-96"/>
<text text-anchor="middle" x="380" y="-107" font-family="Helvetica,sans-Serif" font-size="10.00">ventilate_midi_to_midiarray</text>
</a>
</g>
<!-- Node4&#45;&gt;Node5 -->
<g id="edge8" class="edge"><title>Node4&#45;&gt;Node5</title>
<path fill="none" stroke="midnightblue" d="M260.467,-108C276.397,-108 294.737,-108 312.192,-108"/>
<polygon fill="midnightblue" stroke="midnightblue" points="260.38,-104.5 250.38,-108 260.38,-111.5 260.38,-104.5"/>
</g>
<!-- Node6 -->
<g id="node11" class="node"><title>Node6</title>
<a xlink:href="midi__13_8cpp.html#afa49dd5668303c2448676c8243737c2d" target="_top" xlink:title="simulate_midi">
<polygon fill="white" stroke="black" points="484.5,-146 484.5,-170 561.5,-170 561.5,-146 484.5,-146"/>
<text text-anchor="middle" x="523" y="-157" font-family="Helvetica,sans-Serif" font-size="10.00">simulate_midi</text>
</a>
</g>
<!-- Node5&#45;&gt;Node6 -->
<g id="edge10" class="edge"><title>Node5&#45;&gt;Node6</title>
<path fill="none" stroke="midnightblue" d="M424.107,-123.422C444.719,-130.629 468.91,-139.087 488.207,-145.835"/>
<polygon fill="midnightblue" stroke="midnightblue" points="425.211,-120.1 414.616,-120.104 422.901,-126.708 425.211,-120.1"/>
</g>
<!-- Node9 -->
<g id="node19" class="node"><title>Node9</title>
<a xlink:href="midi__13_8cpp.html#a4104c2ae7e71376ad9dc78929450dc51" target="_top" xlink:title="EvAquire">
<polygon fill="white" stroke="black" points="495,-96 495,-120 551,-120 551,-96 495,-96"/>
<text text-anchor="middle" x="523" y="-107" font-family="Helvetica,sans-Serif" font-size="10.00">EvAquire</text>
</a>
</g>
<!-- Node5&#45;&gt;Node9 -->
<g id="edge20" class="edge"><title>Node5&#45;&gt;Node9</title>
<path fill="none" stroke="midnightblue" d="M457.852,-108C471.053,-108 483.963,-108 494.762,-108"/>
<polygon fill="midnightblue" stroke="midnightblue" points="457.731,-104.5 447.731,-108 457.731,-111.5 457.731,-104.5"/>
</g>
<!-- Node7 -->
<g id="node13" class="node"><title>Node7</title>
<a xlink:href="arduino__core__6___u_n_o_8cpp.html#ae72d1a8d74d9ab5515962e03e7e664d6" target="_top" xlink:title="arduino_do_analog_in\l_whitecat">
<polygon fill="white" stroke="black" points="598,-138 598,-178 708,-178 708,-138 598,-138"/>
<text text-anchor="start" x="606" y="-165" font-family="Helvetica,sans-Serif" font-size="10.00">arduino_do_analog_in</text>
<text text-anchor="middle" x="653" y="-149" font-family="Helvetica,sans-Serif" font-size="10.00">_whitecat</text>
</a>
</g>
<!-- Node6&#45;&gt;Node7 -->
<g id="edge12" class="edge"><title>Node6&#45;&gt;Node7</title>
<path fill="none" stroke="midnightblue" d="M571.8,-158C580.315,-158 589.227,-158 597.898,-158"/>
<polygon fill="midnightblue" stroke="midnightblue" points="571.652,-154.5 561.652,-158 571.652,-161.5 571.652,-154.5"/>
</g>
<!-- Node8 -->
<g id="node16" class="node"><title>Node8</title>
<a xlink:href="arduino__core__6___u_n_o_8cpp.html#a219226c1cd6cc17c78e62fd4445bb445" target="_top" xlink:title="arduino_do_digital\l_in_whitecat">
<polygon fill="white" stroke="black" points="605.5,-196 605.5,-236 700.5,-236 700.5,-196 605.5,-196"/>
<text text-anchor="start" x="613.5" y="-223" font-family="Helvetica,sans-Serif" font-size="10.00">arduino_do_digital</text>
<text text-anchor="middle" x="653" y="-207" font-family="Helvetica,sans-Serif" font-size="10.00">_in_whitecat</text>
</a>
</g>
<!-- Node6&#45;&gt;Node8 -->
<g id="edge16" class="edge"><title>Node6&#45;&gt;Node8</title>
<path fill="none" stroke="midnightblue" d="M559.415,-174.246C574.467,-180.962 592.072,-188.817 607.927,-195.891"/>
<polygon fill="midnightblue" stroke="midnightblue" points="560.494,-170.896 549.936,-170.018 557.642,-177.288 560.494,-170.896"/>
</g>
<!-- Node7&#45;&gt;Node2 -->
<g id="edge14" class="edge"><title>Node7&#45;&gt;Node2</title>
<path fill="none" stroke="midnightblue" d="M716.543,-181.565C735.415,-188.565 755.311,-195.943 771.35,-201.891"/>
<polygon fill="midnightblue" stroke="midnightblue" points="717.681,-178.255 707.088,-178.059 715.247,-184.818 717.681,-178.255"/>
</g>
<!-- Node8&#45;&gt;Node2 -->
<g id="edge18" class="edge"><title>Node8&#45;&gt;Node2</title>
<path fill="none" stroke="midnightblue" d="M711.043,-215.231C721.948,-215.087 733.367,-214.936 744.321,-214.79"/>
<polygon fill="midnightblue" stroke="midnightblue" points="710.73,-211.735 700.777,-215.367 710.823,-218.734 710.73,-211.735"/>
</g>
<!-- Node10 -->
<g id="node21" class="node"><title>Node10</title>
<a xlink:href="midi__13_8cpp.html#a831f1dfc7870ae4f6c64a0e65fbaf3ff" target="_top" xlink:title="Display">
<polygon fill="white" stroke="black" points="628,-96 628,-120 678,-120 678,-96 628,-96"/>
<text text-anchor="middle" x="653" y="-107" font-family="Helvetica,sans-Serif" font-size="10.00">Display</text>
</a>
</g>
<!-- Node9&#45;&gt;Node10 -->
<g id="edge22" class="edge"><title>Node9&#45;&gt;Node10</title>
<path fill="none" stroke="midnightblue" d="M561.332,-108C582.833,-108 609.044,-108 627.923,-108"/>
<polygon fill="midnightblue" stroke="midnightblue" points="561.208,-104.5 551.208,-108 561.208,-111.5 561.208,-104.5"/>
</g>
<!-- Node11 -->
<g id="node23" class="node"><title>Node11</title>
<a xlink:href="midi__13_8cpp.html#aa4aeee5088a4a5462566dfee5c9cc71f" target="_top" xlink:title="DisplayTask">
<polygon fill="white" stroke="black" points="768.5,-138 768.5,-162 839.5,-162 839.5,-138 768.5,-138"/>
<text text-anchor="middle" x="804" y="-149" font-family="Helvetica,sans-Serif" font-size="10.00">DisplayTask</text>
</a>
</g>
<!-- Node10&#45;&gt;Node11 -->
<g id="edge24" class="edge"><title>Node10&#45;&gt;Node11</title>
<path fill="none" stroke="midnightblue" d="M688.099,-117.763C712.248,-124.479 744.212,-133.37 768.456,-140.113"/>
<polygon fill="midnightblue" stroke="midnightblue" points="688.846,-114.338 678.274,-115.03 686.97,-121.082 688.846,-114.338"/>
</g>
<!-- Node13 -->
<g id="node28" class="node"><title>Node13</title>
<a xlink:href="midi___c_o_r_e_8cpp.html#a6fcb4c2efe85f50488d7aeeef1fc0a3e" target="_top" xlink:title="ReceiveEvents">
<polygon fill="white" stroke="black" points="762.5,-96 762.5,-120 845.5,-120 845.5,-96 762.5,-96"/>
<text text-anchor="middle" x="804" y="-107" font-family="Helvetica,sans-Serif" font-size="10.00">ReceiveEvents</text>
</a>
</g>
<!-- Node10&#45;&gt;Node13 -->
<g id="edge30" class="edge"><title>Node10&#45;&gt;Node13</title>
<path fill="none" stroke="midnightblue" d="M688.562,-108C710.676,-108 739.207,-108 762.372,-108"/>
<polygon fill="midnightblue" stroke="midnightblue" points="688.274,-104.5 678.274,-108 688.274,-111.5 688.274,-104.5"/>
</g>
<!-- Node12 -->
<g id="node25" class="node"><title>Node12</title>
<a xlink:href="midi___c_o_r_e_8cpp.html#a7d0f82d882071792d6a2df51ef13ec55" target="_top" xlink:title="ReceivePolling">
<polygon fill="white" stroke="black" points="900,-138 900,-162 982,-162 982,-138 900,-138"/>
<text text-anchor="middle" x="941" y="-149" font-family="Helvetica,sans-Serif" font-size="10.00">ReceivePolling</text>
</a>
</g>
<!-- Node11&#45;&gt;Node12 -->
<g id="edge26" class="edge"><title>Node11&#45;&gt;Node12</title>
<path fill="none" stroke="midnightblue" d="M849.91,-150C866.021,-150 884.008,-150 899.716,-150"/>
<polygon fill="midnightblue" stroke="midnightblue" points="849.638,-146.5 839.638,-150 849.637,-153.5 849.638,-146.5"/>
</g>
<!-- Node12&#45;&gt;Node12 -->
<g id="edge28" class="edge"><title>Node12&#45;&gt;Node12</title>
<path fill="none" stroke="midnightblue" d="M916.337,-172.001C918.859,-176.647 927.08,-180 941,-180 963.844,-180 971.339,-170.972 963.487,-162.014"/>
<polygon fill="midnightblue" stroke="midnightblue" points="919.804,-172.53 918.513,-162.014 912.964,-171.039 919.804,-172.53"/>
</g>
<!-- Node13&#45;&gt;Node12 -->
<g id="edge32" class="edge"><title>Node13&#45;&gt;Node12</title>
<path fill="none" stroke="midnightblue" d="M852.988,-123.018C868.991,-127.924 886.544,-133.305 901.736,-137.963"/>
<polygon fill="midnightblue" stroke="midnightblue" points="853.845,-119.62 843.259,-120.036 851.794,-126.313 853.845,-119.62"/>
</g>
<!-- Node14 -->
<g id="node31" class="node"><title>Node14</title>
<a xlink:href="midi___c_o_r_e_8cpp.html#a0ccf480a33424e626f88d109d53d8366" target="_top" xlink:title="InitMidi">
<polygon fill="white" stroke="black" points="917,-96 917,-120 965,-120 965,-96 917,-96"/>
<text text-anchor="middle" x="941" y="-107" font-family="Helvetica,sans-Serif" font-size="10.00">InitMidi</text>
</a>
</g>
<!-- Node13&#45;&gt;Node14 -->
<g id="edge34" class="edge"><title>Node13&#45;&gt;Node14</title>
<path fill="none" stroke="midnightblue" d="M855.927,-108C876.893,-108 900.063,-108 916.921,-108"/>
<polygon fill="midnightblue" stroke="midnightblue" points="855.849,-104.5 845.849,-108 855.849,-111.5 855.849,-104.5"/>
</g>
<!-- Node14&#45;&gt;Node3 -->
<g id="edge36" class="edge"><title>Node14&#45;&gt;Node3</title>
<path fill="none" stroke="midnightblue" d="M974.757,-118.543C988.109,-122.36 1003.66,-126.373 1018,-129 1104.52,-144.852 1127.04,-148 1215,-148 1215,-148 1215,-148 1584,-148 1666.03,-148 1763.34,-136.156 1803.84,-130.697"/>
<polygon fill="midnightblue" stroke="midnightblue" points="975.614,-115.147 965.033,-115.688 973.642,-121.863 975.614,-115.147"/>
</g>
<!-- Node15 -->
<g id="node34" class="node"><title>Node15</title>
<a xlink:href="midi__13_8cpp.html#ac7a306aa81e374b447e7341d4d3a3eea" target="_top" xlink:title="midipage_devices">
<polygon fill="white" stroke="black" points="1030.5,-96 1030.5,-120 1125.5,-120 1125.5,-96 1030.5,-96"/>
<text text-anchor="middle" x="1078" y="-107" font-family="Helvetica,sans-Serif" font-size="10.00">midipage_devices</text>
</a>
</g>
<!-- Node14&#45;&gt;Node15 -->
<g id="edge38" class="edge"><title>Node14&#45;&gt;Node15</title>
<path fill="none" stroke="midnightblue" d="M975.499,-108C992.075,-108 1012.21,-108 1030.23,-108"/>
<polygon fill="midnightblue" stroke="midnightblue" points="975.178,-104.5 965.177,-108 975.177,-111.5 975.178,-104.5"/>
</g>
<!-- Node16 -->
<g id="node36" class="node"><title>Node16</title>
<a xlink:href="midi__13_8cpp.html#a8f70acacad6eaba8867bdd80dda5e277" target="_top" xlink:title="do_midi_config">
<polygon fill="white" stroke="black" points="1174,-96 1174,-120 1256,-120 1256,-96 1174,-96"/>
<text text-anchor="middle" x="1215" y="-107" font-family="Helvetica,sans-Serif" font-size="10.00">do_midi_config</text>
</a>
</g>
<!-- Node15&#45;&gt;Node16 -->
<g id="edge40" class="edge"><title>Node15&#45;&gt;Node16</title>
<path fill="none" stroke="midnightblue" d="M1135.69,-108C1148.54,-108 1161.92,-108 1173.94,-108"/>
<polygon fill="midnightblue" stroke="midnightblue" points="1135.53,-104.5 1125.53,-108 1135.53,-111.5 1135.53,-104.5"/>
</g>
<!-- Node17 -->
<g id="node38" class="node"><title>Node17</title>
<a xlink:href="_c_f_g__config__panel__8_8cpp.html#ad39c46e2fb3a3ba7ea0460140ead4f96" target="_top" xlink:title="do_panel_config">
<polygon fill="white" stroke="black" points="1292.5,-96 1292.5,-120 1379.5,-120 1379.5,-96 1292.5,-96"/>
<text text-anchor="middle" x="1336" y="-107" font-family="Helvetica,sans-Serif" font-size="10.00">do_panel_config</text>
</a>
</g>
<!-- Node16&#45;&gt;Node17 -->
<g id="edge42" class="edge"><title>Node16&#45;&gt;Node17</title>
<path fill="none" stroke="midnightblue" d="M1266.33,-108C1275.01,-108 1283.95,-108 1292.41,-108"/>
<polygon fill="midnightblue" stroke="midnightblue" points="1266.3,-104.5 1256.3,-108 1266.3,-111.5 1266.3,-104.5"/>
</g>
<!-- Node18 -->
<g id="node40" class="node"><title>Node18</title>
<a xlink:href="_c_f_g__config__panel__8_8cpp.html#a7968da66bccdba8b864caf6c8435f68e" target="_top" xlink:title="config_general_menu">
<polygon fill="white" stroke="black" points="1416.5,-96 1416.5,-120 1525.5,-120 1525.5,-96 1416.5,-96"/>
<text text-anchor="middle" x="1471" y="-107" font-family="Helvetica,sans-Serif" font-size="10.00">config_general_menu</text>
</a>
</g>
<!-- Node17&#45;&gt;Node18 -->
<g id="edge44" class="edge"><title>Node17&#45;&gt;Node18</title>
<path fill="none" stroke="midnightblue" d="M1390.07,-108C1398.62,-108 1407.47,-108 1416.04,-108"/>
<polygon fill="midnightblue" stroke="midnightblue" points="1389.83,-104.5 1379.83,-108 1389.83,-111.5 1389.83,-104.5"/>
</g>
<!-- Node19 -->
<g id="node42" class="node"><title>Node19</title>
<a xlink:href="graphics__rebuild1_8cpp.html#ac2eae1e03fb72cc734ffbcef566483bf" target="_top" xlink:title="Boxes">
<polygon fill="white" stroke="black" points="1562,-96 1562,-120 1606,-120 1606,-96 1562,-96"/>
<text text-anchor="middle" x="1584" y="-107" font-family="Helvetica,sans-Serif" font-size="10.00">Boxes</text>
</a>
</g>
<!-- Node18&#45;&gt;Node19 -->
<g id="edge46" class="edge"><title>Node18&#45;&gt;Node19</title>
<path fill="none" stroke="midnightblue" d="M1535.75,-108C1545.11,-108 1554.17,-108 1561.86,-108"/>
<polygon fill="midnightblue" stroke="midnightblue" points="1535.51,-104.5 1525.51,-108 1535.51,-111.5 1535.51,-104.5"/>
</g>
<!-- Node20 -->
<g id="node44" class="node"><title>Node20</title>
<a xlink:href="_m_a_i_n__avec__objets_8cpp.html#ade8d4ba65d55c94f8ee277829d722155" target="_top" xlink:title="main_actions_on_screen">
<polygon fill="white" stroke="black" points="1642.5,-96 1642.5,-120 1767.5,-120 1767.5,-96 1642.5,-96"/>
<text text-anchor="middle" x="1705" y="-107" font-family="Helvetica,sans-Serif" font-size="10.00">main_actions_on_screen</text>
</a>
</g>
<!-- Node19&#45;&gt;Node20 -->
<g id="edge48" class="edge"><title>Node19&#45;&gt;Node20</title>
<path fill="none" stroke="midnightblue" d="M1616.24,-108C1624.32,-108 1633.26,-108 1642.27,-108"/>
<polygon fill="midnightblue" stroke="midnightblue" points="1616.19,-104.5 1606.19,-108 1616.19,-111.5 1616.19,-104.5"/>
</g>
<!-- Node20&#45;&gt;Node3 -->
<g id="edge50" class="edge"><title>Node20&#45;&gt;Node3</title>
<path fill="none" stroke="midnightblue" d="M1777.84,-120.345C1787.34,-121.955 1796.33,-123.479 1803.75,-124.737"/>
<polygon fill="midnightblue" stroke="midnightblue" points="1778.24,-116.865 1767.8,-118.644 1777.07,-123.766 1778.24,-116.865"/>
</g>
<!-- Node22 -->
<g id="node49" class="node"><title>Node22</title>
<a xlink:href="procs__visuels__rebuild1_8cpp.html#ae710b6e599e321ad5934a90140067054" target="_top" xlink:title="check_graphics_mouse\l_handling">
<polygon fill="white" stroke="black" points="320.5,-0 320.5,-40 439.5,-40 439.5,-0 320.5,-0"/>
<text text-anchor="start" x="328.5" y="-27" font-family="Helvetica,sans-Serif" font-size="10.00">check_graphics_mouse</text>
<text text-anchor="middle" x="380" y="-11" font-family="Helvetica,sans-Serif" font-size="10.00">_handling</text>
</a>
</g>
<!-- Node21&#45;&gt;Node22 -->
<g id="edge54" class="edge"><title>Node21&#45;&gt;Node22</title>
<path fill="none" stroke="midnightblue" d="M285.702,-22.2999C297.241,-22.0185 309.112,-21.729 320.373,-21.4543"/>
<polygon fill="midnightblue" stroke="midnightblue" points="285.583,-18.8017 275.672,-22.5446 285.754,-25.7996 285.583,-18.8017"/>
</g>
<!-- Node23 -->
<g id="node51" class="node"><title>Node23</title>
<a xlink:href="_m_a_i_n__avec__objets_8cpp.html#a8e80f54ac804eddce8ed6e45adb1db44" target="_top" xlink:title="ticker_full_loop">
<polygon fill="white" stroke="black" points="1174,-13 1174,-37 1256,-37 1256,-13 1174,-13"/>
<text text-anchor="middle" x="1215" y="-24" font-family="Helvetica,sans-Serif" font-size="10.00">ticker_full_loop</text>
</a>
</g>
<!-- Node22&#45;&gt;Node23 -->
<g id="edge56" class="edge"><title>Node22&#45;&gt;Node23</title>
<path fill="none" stroke="midnightblue" d="M449.659,-21.1871C504.823,-22.0253 583.837,-23 653,-23 653,-23 653,-23 941,-23 1023.54,-23 1120.05,-23.9186 1173.69,-24.5107"/>
<polygon fill="midnightblue" stroke="midnightblue" points="449.697,-17.6874 439.644,-21.0324 449.589,-24.6865 449.697,-17.6874"/>
</g>
<!-- Node23&#45;&gt;Node3 -->
<g id="edge58" class="edge"><title>Node23&#45;&gt;Node3</title>
<path fill="none" stroke="midnightblue" d="M1266.47,-25.6382C1318.17,-26.2235 1400.1,-27 1471,-27 1471,-27 1471,-27 1584,-27 1670.02,-27 1691.62,-47.44 1768,-87 1783.23,-94.8876 1798.73,-106.874 1809.37,-115.853"/>
<polygon fill="midnightblue" stroke="midnightblue" points="1266.27,-22.1357 1256.23,-25.5203 1266.19,-29.1353 1266.27,-22.1357"/>
</g>
<!-- Node24&#45;&gt;Node19 -->
<g id="edge62" class="edge"><title>Node24&#45;&gt;Node19</title>
<path fill="none" stroke="midnightblue" d="M1147.97,-62.8463C1236.81,-60.3062 1394.35,-60.7078 1526,-87 1538.18,-89.4328 1551.23,-93.9727 1561.86,-98.2105"/>
<polygon fill="midnightblue" stroke="midnightblue" points="1147.64,-59.3549 1137.75,-63.1605 1147.85,-66.3516 1147.64,-59.3549"/>
</g>
</g>
</svg>
