<?xml version="1.0" encoding="UTF-8" standalone="no"?>
<!DOCTYPE svg PUBLIC "-//W3C//DTD SVG 1.1//EN"
 "http://www.w3.org/Graphics/SVG/1.1/DTD/svg11.dtd">
<!-- Generated by graphviz version 2.26.3 (20100126.1600)
 -->
<!-- Title: load_Fader_state_to_midi_array Pages: 1 -->
<svg width="1064pt" height="133pt"
 viewBox="0.00 0.00 1064.00 133.17" xmlns="http://www.w3.org/2000/svg" xmlns:xlink="http://www.w3.org/1999/xlink">
<g id="graph1" class="graph" transform="scale(1 1) rotate(0) translate(4 129.174)">
<title>load_Fader_state_to_midi_array</title>
<polygon fill="white" stroke="white" points="-4,5 -4,-129.174 1061,-129.174 1061,5 -4,5"/>
<!-- Node1 -->
<g id="node1" class="node"><title>Node1</title>
<polygon fill="#bfbfbf" stroke="black" points="0.5,-62.1741 0.5,-102.174 105.5,-102.174 105.5,-62.1741 0.5,-62.1741"/>
<text text-anchor="start" x="8.5" y="-89.1741" font-family="Helvetica,sans-Serif" font-size="10.00">load_Fader_state_to</text>
<text text-anchor="middle" x="53" y="-73.1741" font-family="Helvetica,sans-Serif" font-size="10.00">_midi_array</text>
</g>
<!-- Node2 -->
<g id="node3" class="node"><title>Node2</title>
<a xlink:href="save__show__13_8cpp.html#a672cfbe22ee035fca45bcaf318ec1bc2" target="_top" xlink:title="load_midipreset">
<polygon fill="white" stroke="black" points="142.5,-101.174 142.5,-125.174 227.5,-125.174 227.5,-101.174 142.5,-101.174"/>
<text text-anchor="middle" x="185" y="-112.174" font-family="Helvetica,sans-Serif" font-size="10.00">load_midipreset</text>
</a>
</g>
<!-- Node1&#45;&gt;Node2 -->
<g id="edge2" class="edge"><title>Node1&#45;&gt;Node2</title>
<path fill="none" stroke="midnightblue" d="M115.392,-96.8267C124.526,-98.9719 133.753,-101.139 142.37,-103.162"/>
<polygon fill="midnightblue" stroke="midnightblue" points="116.085,-93.3943 105.549,-94.5152 114.484,-100.209 116.085,-93.3943"/>
</g>
<!-- Node11 -->
<g id="node22" class="node"><title>Node11</title>
<a xlink:href="save__show__13_8cpp.html#a8330f725aa2c729bdce098aa4b187589" target="_top" xlink:title="Load_Show">
<polygon fill="white" stroke="black" points="151,-39.1741 151,-63.1741 219,-63.1741 219,-39.1741 151,-39.1741"/>
<text text-anchor="middle" x="185" y="-50.1741" font-family="Helvetica,sans-Serif" font-size="10.00">Load_Show</text>
</a>
</g>
<!-- Node1&#45;&gt;Node11 -->
<g id="edge22" class="edge"><title>Node1&#45;&gt;Node11</title>
<path fill="none" stroke="midnightblue" d="M115.296,-67.5441C127.534,-64.6698 139.943,-61.7556 150.832,-59.1983"/>
<polygon fill="midnightblue" stroke="midnightblue" points="114.484,-64.1393 105.549,-69.833 116.085,-70.9539 114.484,-64.1393"/>
</g>
<!-- Node3 -->
<g id="node5" class="node"><title>Node3</title>
<a xlink:href="logicals__intres_8cpp.html#a74cf9c04c734ab342f88799efbfc4210" target="_top" xlink:title="operations_confirmation">
<polygon fill="white" stroke="black" points="440,-71.1741 440,-95.1741 560,-95.1741 560,-71.1741 440,-71.1741"/>
<text text-anchor="middle" x="500" y="-82.1741" font-family="Helvetica,sans-Serif" font-size="10.00">operations_confirmation</text>
</a>
</g>
<!-- Node2&#45;&gt;Node3 -->
<g id="edge4" class="edge"><title>Node2&#45;&gt;Node3</title>
<path fill="none" stroke="midnightblue" d="M237.582,-113.576C282.081,-113.304 347.454,-111.464 404,-104.174 420.075,-102.102 437.439,-98.6755 452.923,-95.1857"/>
<polygon fill="midnightblue" stroke="midnightblue" points="237.565,-110.076 227.578,-113.613 237.591,-117.076 237.565,-110.076"/>
</g>
<!-- Node4 -->
<g id="node7" class="node"><title>Node4</title>
<a xlink:href="keyboard__functions2_8cpp.html#a548548066307f816c5021de7d6e4f26a" target="_top" xlink:title="key_affectation">
<polygon fill="white" stroke="black" points="596.5,-71.1741 596.5,-95.1741 679.5,-95.1741 679.5,-71.1741 596.5,-71.1741"/>
<text text-anchor="middle" x="638" y="-82.1741" font-family="Helvetica,sans-Serif" font-size="10.00">key_affectation</text>
</a>
</g>
<!-- Node3&#45;&gt;Node4 -->
<g id="edge6" class="edge"><title>Node3&#45;&gt;Node4</title>
<path fill="none" stroke="midnightblue" d="M570.19,-83.1741C579.12,-83.1741 588.024,-83.1741 596.303,-83.1741"/>
<polygon fill="midnightblue" stroke="midnightblue" points="570.127,-79.6742 560.127,-83.1741 570.127,-86.6742 570.127,-79.6742"/>
</g>
<!-- Node8 -->
<g id="node15" class="node"><title>Node8</title>
<a xlink:href="logicals__intres_8cpp.html#a85967c22135715eca94d08af2ec1a1fb" target="_top" xlink:title="fenetre_confirm">
<polygon fill="white" stroke="black" points="596,-29.1741 596,-53.1741 680,-53.1741 680,-29.1741 596,-29.1741"/>
<text text-anchor="middle" x="638" y="-40.1741" font-family="Helvetica,sans-Serif" font-size="10.00">fenetre_confirm</text>
</a>
</g>
<!-- Node3&#45;&gt;Node8 -->
<g id="edge14" class="edge"><title>Node3&#45;&gt;Node8</title>
<path fill="none" stroke="midnightblue" d="M549.345,-68.156C565.465,-63.25 583.146,-57.8687 598.449,-53.2114"/>
<polygon fill="midnightblue" stroke="midnightblue" points="548.093,-64.8785 539.545,-71.1386 550.131,-71.5753 548.093,-64.8785"/>
</g>
<!-- Node5 -->
<g id="node9" class="node"><title>Node5</title>
<a xlink:href="keyboard__routines2_8cpp.html#a8563320b8eab661232619224650de244" target="_top" xlink:title="commandes_clavier">
<polygon fill="white" stroke="black" points="716,-71.1741 716,-95.1741 820,-95.1741 820,-71.1741 716,-71.1741"/>
<text text-anchor="middle" x="768" y="-82.1741" font-family="Helvetica,sans-Serif" font-size="10.00">commandes_clavier</text>
</a>
</g>
<!-- Node4&#45;&gt;Node5 -->
<g id="edge8" class="edge"><title>Node4&#45;&gt;Node5</title>
<path fill="none" stroke="midnightblue" d="M689.995,-83.1741C698.473,-83.1741 707.258,-83.1741 715.742,-83.1741"/>
<polygon fill="midnightblue" stroke="midnightblue" points="689.848,-79.6742 679.848,-83.1741 689.848,-86.6742 689.848,-79.6742"/>
</g>
<!-- Node6 -->
<g id="node11" class="node"><title>Node6</title>
<a xlink:href="_m_a_i_n__avec__objets_8cpp.html#a8e80f54ac804eddce8ed6e45adb1db44" target="_top" xlink:title="ticker_full_loop">
<polygon fill="white" stroke="black" points="878,-71.1741 878,-95.1741 960,-95.1741 960,-71.1741 878,-71.1741"/>
<text text-anchor="middle" x="919" y="-82.1741" font-family="Helvetica,sans-Serif" font-size="10.00">ticker_full_loop</text>
</a>
</g>
<!-- Node5&#45;&gt;Node6 -->
<g id="edge10" class="edge"><title>Node5&#45;&gt;Node6</title>
<path fill="none" stroke="midnightblue" d="M830.664,-83.1741C846.516,-83.1741 863.147,-83.1741 877.648,-83.1741"/>
<polygon fill="midnightblue" stroke="midnightblue" points="830.389,-79.6742 820.389,-83.1741 830.389,-86.6742 830.389,-79.6742"/>
</g>
<!-- Node7 -->
<g id="node13" class="node"><title>Node7</title>
<a xlink:href="_m_a_i_n__avec__objets_8cpp.html#ae66f6b31b5ad750f1fe042a706a4e3d4" target="_top" xlink:title="main">
<polygon fill="white" stroke="black" points="1018,-29.1741 1018,-53.1741 1056,-53.1741 1056,-29.1741 1018,-29.1741"/>
<text text-anchor="middle" x="1037" y="-40.1741" font-family="Helvetica,sans-Serif" font-size="10.00">main</text>
</a>
</g>
<!-- Node6&#45;&gt;Node7 -->
<g id="edge12" class="edge"><title>Node6&#45;&gt;Node7</title>
<path fill="none" stroke="midnightblue" d="M965.823,-67.8151C971.288,-65.9487 976.775,-64.0414 982,-62.1741 994.031,-57.8744 1007.43,-52.7668 1017.98,-48.6654"/>
<polygon fill="midnightblue" stroke="midnightblue" points="964.421,-64.5944 956.069,-71.1128 966.663,-71.2256 964.421,-64.5944"/>
</g>
<!-- Node9 -->
<g id="node17" class="node"><title>Node9</title>
<a xlink:href="graphics__rebuild1_8cpp.html#ac2eae1e03fb72cc734ffbcef566483bf" target="_top" xlink:title="Boxes">
<polygon fill="white" stroke="black" points="746,-29.1741 746,-53.1741 790,-53.1741 790,-29.1741 746,-29.1741"/>
<text text-anchor="middle" x="768" y="-40.1741" font-family="Helvetica,sans-Serif" font-size="10.00">Boxes</text>
</a>
</g>
<!-- Node8&#45;&gt;Node9 -->
<g id="edge16" class="edge"><title>Node8&#45;&gt;Node9</title>
<path fill="none" stroke="midnightblue" d="M690.4,-41.1741C709.658,-41.1741 730.45,-41.1741 745.66,-41.1741"/>
<polygon fill="midnightblue" stroke="midnightblue" points="690.207,-37.6742 680.207,-41.1741 690.207,-44.6742 690.207,-37.6742"/>
</g>
<!-- Node10 -->
<g id="node19" class="node"><title>Node10</title>
<a xlink:href="_m_a_i_n__avec__objets_8cpp.html#ade8d4ba65d55c94f8ee277829d722155" target="_top" xlink:title="main_actions_on_screen">
<polygon fill="white" stroke="black" points="856.5,-29.1741 856.5,-53.1741 981.5,-53.1741 981.5,-29.1741 856.5,-29.1741"/>
<text text-anchor="middle" x="919" y="-40.1741" font-family="Helvetica,sans-Serif" font-size="10.00">main_actions_on_screen</text>
</a>
</g>
<!-- Node9&#45;&gt;Node10 -->
<g id="edge18" class="edge"><title>Node9&#45;&gt;Node10</title>
<path fill="none" stroke="midnightblue" d="M800.395,-41.1741C816.76,-41.1741 837.187,-41.1741 856.455,-41.1741"/>
<polygon fill="midnightblue" stroke="midnightblue" points="800.281,-37.6742 790.281,-41.1741 800.281,-44.6742 800.281,-37.6742"/>
</g>
<!-- Node10&#45;&gt;Node7 -->
<g id="edge20" class="edge"><title>Node10&#45;&gt;Node7</title>
<path fill="none" stroke="midnightblue" d="M991.837,-41.1741C1001.34,-41.1741 1010.33,-41.1741 1017.75,-41.1741"/>
<polygon fill="midnightblue" stroke="midnightblue" points="991.8,-37.6742 981.8,-41.1741 991.8,-44.6742 991.8,-37.6742"/>
</g>
<!-- Node11&#45;&gt;Node7 -->
<g id="edge24" class="edge"><title>Node11&#45;&gt;Node7</title>
<path fill="none" stroke="midnightblue" d="M219.452,-35.1141C233.048,-29.4554 248.983,-23.6449 264,-20.1741 366.525,3.5223 394.772,-1.1741 500,-1.1741 500,-1.1741 500,-1.1741 768,-1.1741 863.485,-1.1741 888.957,1.28224 982,-20.1741 994.25,-22.9991 1007.43,-27.9573 1017.81,-32.3467"/>
<polygon fill="midnightblue" stroke="midnightblue" points="217.817,-32.0071 210.012,-39.1719 220.582,-38.4381 217.817,-32.0071"/>
</g>
<!-- Node12 -->
<g id="node25" class="node"><title>Node12</title>
<a xlink:href="save__show__13_8cpp.html#a1eafc1ecb75f36c1fe85c967bdea99b0" target="_top" xlink:title="load_the_show">
<polygon fill="white" stroke="black" points="293,-71.1741 293,-95.1741 375,-95.1741 375,-71.1741 293,-71.1741"/>
<text text-anchor="middle" x="334" y="-82.1741" font-family="Helvetica,sans-Serif" font-size="10.00">load_the_show</text>
</a>
</g>
<!-- Node11&#45;&gt;Node12 -->
<g id="edge26" class="edge"><title>Node11&#45;&gt;Node12</title>
<path fill="none" stroke="midnightblue" d="M229.064,-60.6375C249.237,-64.97 273.005,-70.0746 292.816,-74.3292"/>
<polygon fill="midnightblue" stroke="midnightblue" points="229.696,-57.1934 219.184,-58.5155 228.226,-64.0374 229.696,-57.1934"/>
</g>
<!-- Node13 -->
<g id="node28" class="node"><title>Node13</title>
<a xlink:href="save__show__13_8cpp.html#a2c8ff847dfaf2dc6c8765b2bee26edfc" target="_top" xlink:title="do_wizard_reload_from_disk">
<polygon fill="white" stroke="black" points="264,-29.1741 264,-53.1741 404,-53.1741 404,-29.1741 264,-29.1741"/>
<text text-anchor="middle" x="334" y="-40.1741" font-family="Helvetica,sans-Serif" font-size="10.00">do_wizard_reload_from_disk</text>
</a>
</g>
<!-- Node11&#45;&gt;Node13 -->
<g id="edge30" class="edge"><title>Node11&#45;&gt;Node13</title>
<path fill="none" stroke="midnightblue" d="M229.254,-48.2041C240.128,-47.4742 252.038,-46.6749 263.804,-45.8852"/>
<polygon fill="midnightblue" stroke="midnightblue" points="228.927,-44.718 219.184,-48.8799 229.396,-51.7023 228.927,-44.718"/>
</g>
<!-- Node12&#45;&gt;Node3 -->
<g id="edge28" class="edge"><title>Node12&#45;&gt;Node3</title>
<path fill="none" stroke="midnightblue" d="M385.422,-83.1741C402.599,-83.1741 421.896,-83.1741 439.687,-83.1741"/>
<polygon fill="midnightblue" stroke="midnightblue" points="385.034,-79.6742 375.034,-83.1741 385.034,-86.6742 385.034,-79.6742"/>
</g>
<!-- Node13&#45;&gt;Node3 -->
<g id="edge32" class="edge"><title>Node13&#45;&gt;Node3</title>
<path fill="none" stroke="midnightblue" d="M391.443,-55.7078C411.34,-60.7421 433.409,-66.3257 452.424,-71.1368"/>
<polygon fill="midnightblue" stroke="midnightblue" points="392.122,-52.2694 381.569,-53.2096 390.405,-59.0556 392.122,-52.2694"/>
</g>
</g>
</svg>
