<?xml version="1.0" encoding="UTF-8" standalone="no"?>
<!DOCTYPE svg PUBLIC "-//W3C//DTD SVG 1.1//EN"
 "http://www.w3.org/Graphics/SVG/1.1/DTD/svg11.dtd">
<!-- Generated by graphviz version 2.26.3 (20100126.1600)
 -->
<!-- Title: detect_mem_preset_previous Pages: 1 -->
<svg width="970pt" height="216pt"
 viewBox="0.00 0.00 970.00 216.00" xmlns="http://www.w3.org/2000/svg" xmlns:xlink="http://www.w3.org/1999/xlink">
<g id="graph1" class="graph" transform="scale(1 1) rotate(0) translate(4 212)">
<title>detect_mem_preset_previous</title>
<polygon fill="white" stroke="white" points="-4,5 -4,-212 967,-212 967,5 -4,5"/>
<!-- Node1 -->
<g id="node1" class="node"><title>Node1</title>
<polygon fill="#bfbfbf" stroke="black" points="0.5,-84 0.5,-108 145.5,-108 145.5,-84 0.5,-84"/>
<text text-anchor="middle" x="73" y="-95" font-family="Helvetica,sans-Serif" font-size="10.00">detect_mem_preset_previous</text>
</g>
<!-- Node2 -->
<g id="node3" class="node"><title>Node2</title>
<a xlink:href="arduino__core__6___u_n_o_8cpp.html#a219226c1cd6cc17c78e62fd4445bb445" target="_top" xlink:title="arduino_do_digital\l_in_whitecat">
<polygon fill="white" stroke="black" points="629.5,-0 629.5,-40 724.5,-40 724.5,-0 629.5,-0"/>
<text text-anchor="start" x="637.5" y="-27" font-family="Helvetica,sans-Serif" font-size="10.00">arduino_do_digital</text>
<text text-anchor="middle" x="677" y="-11" font-family="Helvetica,sans-Serif" font-size="10.00">_in_whitecat</text>
</a>
</g>
<!-- Node1&#45;&gt;Node2 -->
<g id="edge2" class="edge"><title>Node1&#45;&gt;Node2</title>
<path fill="none" stroke="midnightblue" d="M96.4173,-77.7997C117.489,-62.6118 149.974,-42.0416 182,-33 340.848,11.8468 539.861,-3.2641 629.44,-13.6225"/>
<polygon fill="midnightblue" stroke="midnightblue" points="94.0832,-75.1726 88.1202,-83.9301 98.2429,-80.8025 94.0832,-75.1726"/>
</g>
<!-- Node5 -->
<g id="node9" class="node"><title>Node5</title>
<a xlink:href="i_cat14_8cpp.html#a16285241f82898e7a5f051b03d90b9a3" target="_top" xlink:title="check_button">
<polygon fill="white" stroke="black" points="201.5,-84 201.5,-108 276.5,-108 276.5,-84 201.5,-84"/>
<text text-anchor="middle" x="239" y="-95" font-family="Helvetica,sans-Serif" font-size="10.00">check_button</text>
</a>
</g>
<!-- Node1&#45;&gt;Node5 -->
<g id="edge8" class="edge"><title>Node1&#45;&gt;Node5</title>
<path fill="none" stroke="midnightblue" d="M156.188,-96C172.016,-96 187.835,-96 201.342,-96"/>
<polygon fill="midnightblue" stroke="midnightblue" points="155.81,-92.5001 145.81,-96 155.81,-99.5001 155.81,-92.5001"/>
</g>
<!-- Node8 -->
<g id="node16" class="node"><title>Node8</title>
<a xlink:href="keyboard__functions2_8cpp.html#af3dd6697323b10b480719c1612bcf29a" target="_top" xlink:title="key_backward">
<polygon fill="white" stroke="black" points="199,-184 199,-208 279,-208 279,-184 199,-184"/>
<text text-anchor="middle" x="239" y="-195" font-family="Helvetica,sans-Serif" font-size="10.00">key_backward</text>
</a>
</g>
<!-- Node1&#45;&gt;Node8 -->
<g id="edge16" class="edge"><title>Node1&#45;&gt;Node8</title>
<path fill="none" stroke="midnightblue" d="M94.7138,-114.511C115.904,-131.883 149.597,-157.714 182,-175 188.141,-178.276 194.904,-181.259 201.561,-183.882"/>
<polygon fill="midnightblue" stroke="midnightblue" points="96.8979,-111.775 86.9684,-108.079 92.4261,-117.16 96.8979,-111.775"/>
</g>
<!-- Node10 -->
<g id="node21" class="node"><title>Node10</title>
<a xlink:href="midi__13_8cpp.html#a6dff3d42682b58cc0a9875ee30fb4cd4" target="_top" xlink:title="do_midi_job">
<polygon fill="white" stroke="black" points="205,-42 205,-66 273,-66 273,-42 205,-42"/>
<text text-anchor="middle" x="239" y="-53" font-family="Helvetica,sans-Serif" font-size="10.00">do_midi_job</text>
</a>
</g>
<!-- Node1&#45;&gt;Node10 -->
<g id="edge22" class="edge"><title>Node1&#45;&gt;Node10</title>
<path fill="none" stroke="midnightblue" d="M130.592,-81.4285C155.366,-75.1605 183.481,-68.0469 204.871,-62.635"/>
<polygon fill="midnightblue" stroke="midnightblue" points="129.405,-78.1185 120.569,-83.9645 131.122,-84.9047 129.405,-78.1185"/>
</g>
<!-- Node14 -->
<g id="node31" class="node"><title>Node14</title>
<a xlink:href="sequentiel__6__core_8cpp.html#a2a71c851cf25565491dd10423bc80380" target="_top" xlink:title="do_logical_Sequenciel\l_Window">
<polygon fill="white" stroke="black" points="182.5,-126 182.5,-166 295.5,-166 295.5,-126 182.5,-126"/>
<text text-anchor="start" x="190.5" y="-153" font-family="Helvetica,sans-Serif" font-size="10.00">do_logical_Sequenciel</text>
<text text-anchor="middle" x="239" y="-137" font-family="Helvetica,sans-Serif" font-size="10.00">_Window</text>
</a>
</g>
<!-- Node1&#45;&gt;Node14 -->
<g id="edge34" class="edge"><title>Node1&#45;&gt;Node14</title>
<path fill="none" stroke="midnightblue" d="M122.97,-111.051C141.652,-116.678 163,-123.109 182.25,-128.906"/>
<polygon fill="midnightblue" stroke="midnightblue" points="123.769,-107.636 113.184,-108.104 121.75,-114.339 123.769,-107.636"/>
</g>
<!-- Node3 -->
<g id="node5" class="node"><title>Node3</title>
<a xlink:href="_m_a_i_n__avec__objets_8cpp.html#ace9c8a9b37c6087c3cffef442d71d70e" target="_top" xlink:title="dixiemes_de_secondes">
<polygon fill="white" stroke="black" points="768.5,-66 768.5,-90 887.5,-90 887.5,-66 768.5,-66"/>
<text text-anchor="middle" x="828" y="-77" font-family="Helvetica,sans-Serif" font-size="10.00">dixiemes_de_secondes</text>
</a>
</g>
<!-- Node2&#45;&gt;Node3 -->
<g id="edge4" class="edge"><title>Node2&#45;&gt;Node3</title>
<path fill="none" stroke="midnightblue" d="M734.336,-42.0229C755.505,-50.1544 778.701,-59.0639 796.713,-65.9824"/>
<polygon fill="midnightblue" stroke="midnightblue" points="735.367,-38.67 724.777,-38.3516 732.857,-45.2045 735.367,-38.67"/>
</g>
<!-- Node4 -->
<g id="node7" class="node"><title>Node4</title>
<a xlink:href="_m_a_i_n__avec__objets_8cpp.html#ae66f6b31b5ad750f1fe042a706a4e3d4" target="_top" xlink:title="main">
<polygon fill="white" stroke="black" points="924,-91 924,-115 962,-115 962,-91 924,-91"/>
<text text-anchor="middle" x="943" y="-102" font-family="Helvetica,sans-Serif" font-size="10.00">main</text>
</a>
</g>
<!-- Node3&#45;&gt;Node4 -->
<g id="edge6" class="edge"><title>Node3&#45;&gt;Node4</title>
<path fill="none" stroke="midnightblue" d="M893.3,-92.1957C904.409,-94.6107 915.122,-96.9396 923.739,-98.8129"/>
<polygon fill="midnightblue" stroke="midnightblue" points="893.994,-88.7649 883.479,-90.0606 892.507,-95.6051 893.994,-88.7649"/>
</g>
<!-- Node6 -->
<g id="node11" class="node"><title>Node6</title>
<a xlink:href="i_cat14_8cpp.html#aa9772b548765a631d4bae1c14053b4e1" target="_top" xlink:title="DoJobFantastickTouch">
<polygon fill="white" stroke="black" points="341.5,-84 341.5,-108 458.5,-108 458.5,-84 341.5,-84"/>
<text text-anchor="middle" x="400" y="-95" font-family="Helvetica,sans-Serif" font-size="10.00">DoJobFantastickTouch</text>
</a>
</g>
<!-- Node5&#45;&gt;Node6 -->
<g id="edge10" class="edge"><title>Node5&#45;&gt;Node6</title>
<path fill="none" stroke="midnightblue" d="M287.039,-96C304.111,-96 323.521,-96 341.378,-96"/>
<polygon fill="midnightblue" stroke="midnightblue" points="286.747,-92.5001 276.747,-96 286.747,-99.5001 286.747,-92.5001"/>
</g>
<!-- Node7 -->
<g id="node13" class="node"><title>Node7</title>
<a xlink:href="_m_a_i_n__avec__objets_8cpp.html#a8e80f54ac804eddce8ed6e45adb1db44" target="_top" xlink:title="ticker_full_loop">
<polygon fill="white" stroke="black" points="504,-130 504,-154 586,-154 586,-130 504,-130"/>
<text text-anchor="middle" x="545" y="-141" font-family="Helvetica,sans-Serif" font-size="10.00">ticker_full_loop</text>
</a>
</g>
<!-- Node6&#45;&gt;Node7 -->
<g id="edge12" class="edge"><title>Node6&#45;&gt;Node7</title>
<path fill="none" stroke="midnightblue" d="M449.112,-111.075C455.471,-113.054 461.893,-115.066 468,-117 481.131,-121.159 495.493,-125.797 508.218,-129.939"/>
<polygon fill="midnightblue" stroke="midnightblue" points="449.813,-107.628 439.225,-108.008 447.739,-114.313 449.813,-107.628"/>
</g>
<!-- Node7&#45;&gt;Node4 -->
<g id="edge14" class="edge"><title>Node7&#45;&gt;Node4</title>
<path fill="none" stroke="midnightblue" d="M596.235,-136.979C685.305,-128.251 864.825,-110.66 923.768,-104.885"/>
<polygon fill="midnightblue" stroke="midnightblue" points="595.705,-133.515 586.094,-137.973 596.388,-140.481 595.705,-133.515"/>
</g>
<!-- Node9 -->
<g id="node18" class="node"><title>Node9</title>
<a xlink:href="keyboard__routines2_8cpp.html#a8563320b8eab661232619224650de244" target="_top" xlink:title="commandes_clavier">
<polygon fill="white" stroke="black" points="348,-184 348,-208 452,-208 452,-184 348,-184"/>
<text text-anchor="middle" x="400" y="-195" font-family="Helvetica,sans-Serif" font-size="10.00">commandes_clavier</text>
</a>
</g>
<!-- Node8&#45;&gt;Node9 -->
<g id="edge18" class="edge"><title>Node8&#45;&gt;Node9</title>
<path fill="none" stroke="midnightblue" d="M289.27,-196C307.898,-196 329.053,-196 347.845,-196"/>
<polygon fill="midnightblue" stroke="midnightblue" points="289.212,-192.5 279.212,-196 289.212,-199.5 289.212,-192.5"/>
</g>
<!-- Node9&#45;&gt;Node7 -->
<g id="edge20" class="edge"><title>Node9&#45;&gt;Node7</title>
<path fill="none" stroke="midnightblue" d="M451.152,-180.841C456.865,-178.959 462.576,-176.993 468,-175 485.064,-168.728 503.822,-160.714 518.552,-154.153"/>
<polygon fill="midnightblue" stroke="midnightblue" points="450.034,-177.524 441.587,-183.919 452.178,-184.188 450.034,-177.524"/>
</g>
<!-- Node11 -->
<g id="node23" class="node"><title>Node11</title>
<a xlink:href="midi__13_8cpp.html#a6bedf9750195224914cd87c4e73ab626" target="_top" xlink:title="ventilate_midi_to_midiarray">
<polygon fill="white" stroke="black" points="332.5,-42 332.5,-66 467.5,-66 467.5,-42 332.5,-42"/>
<text text-anchor="middle" x="400" y="-53" font-family="Helvetica,sans-Serif" font-size="10.00">ventilate_midi_to_midiarray</text>
</a>
</g>
<!-- Node10&#45;&gt;Node11 -->
<g id="edge24" class="edge"><title>Node10&#45;&gt;Node11</title>
<path fill="none" stroke="midnightblue" d="M283.272,-54C298.455,-54 315.811,-54 332.414,-54"/>
<polygon fill="midnightblue" stroke="midnightblue" points="283.144,-50.5001 273.144,-54 283.144,-57.5001 283.144,-50.5001"/>
</g>
<!-- Node12 -->
<g id="node25" class="node"><title>Node12</title>
<a xlink:href="midi__13_8cpp.html#afa49dd5668303c2448676c8243737c2d" target="_top" xlink:title="simulate_midi">
<polygon fill="white" stroke="black" points="506.5,-42 506.5,-66 583.5,-66 583.5,-42 506.5,-42"/>
<text text-anchor="middle" x="545" y="-53" font-family="Helvetica,sans-Serif" font-size="10.00">simulate_midi</text>
</a>
</g>
<!-- Node11&#45;&gt;Node12 -->
<g id="edge26" class="edge"><title>Node11&#45;&gt;Node12</title>
<path fill="none" stroke="midnightblue" d="M478.103,-54C487.941,-54 497.642,-54 506.473,-54"/>
<polygon fill="midnightblue" stroke="midnightblue" points="477.83,-50.5001 467.83,-54 477.83,-57.5001 477.83,-50.5001"/>
</g>
<!-- Node12&#45;&gt;Node2 -->
<g id="edge32" class="edge"><title>Node12&#45;&gt;Node2</title>
<path fill="none" stroke="midnightblue" d="M593.541,-41.4971C605.203,-38.4933 617.648,-35.2877 629.272,-32.2936"/>
<polygon fill="midnightblue" stroke="midnightblue" points="592.346,-38.1906 583.535,-44.0744 594.092,-44.9694 592.346,-38.1906"/>
</g>
<!-- Node13 -->
<g id="node27" class="node"><title>Node13</title>
<a xlink:href="arduino__core__6___u_n_o_8cpp.html#ae72d1a8d74d9ab5515962e03e7e664d6" target="_top" xlink:title="arduino_do_analog_in\l_whitecat">
<polygon fill="white" stroke="black" points="622,-58 622,-98 732,-98 732,-58 622,-58"/>
<text text-anchor="start" x="630" y="-85" font-family="Helvetica,sans-Serif" font-size="10.00">arduino_do_analog_in</text>
<text text-anchor="middle" x="677" y="-69" font-family="Helvetica,sans-Serif" font-size="10.00">_whitecat</text>
</a>
</g>
<!-- Node12&#45;&gt;Node13 -->
<g id="edge28" class="edge"><title>Node12&#45;&gt;Node13</title>
<path fill="none" stroke="midnightblue" d="M593.39,-62.7983C602.691,-64.4893 612.495,-66.2717 621.986,-67.9975"/>
<polygon fill="midnightblue" stroke="midnightblue" points="594,-59.3517 583.535,-61.0063 592.747,-66.2388 594,-59.3517"/>
</g>
<!-- Node13&#45;&gt;Node3 -->
<g id="edge30" class="edge"><title>Node13&#45;&gt;Node3</title>
<path fill="none" stroke="midnightblue" d="M742.379,-78C750.999,-78 759.798,-78 768.316,-78"/>
<polygon fill="midnightblue" stroke="midnightblue" points="742.369,-74.5001 732.369,-78 742.369,-81.5001 742.369,-74.5001"/>
</g>
<!-- Node15 -->
<g id="node33" class="node"><title>Node15</title>
<a xlink:href="procs__visuels__rebuild1_8cpp.html#ae710b6e599e321ad5934a90140067054" target="_top" xlink:title="check_graphics_mouse\l_handling">
<polygon fill="white" stroke="black" points="340.5,-126 340.5,-166 459.5,-166 459.5,-126 340.5,-126"/>
<text text-anchor="start" x="348.5" y="-153" font-family="Helvetica,sans-Serif" font-size="10.00">check_graphics_mouse</text>
<text text-anchor="middle" x="400" y="-137" font-family="Helvetica,sans-Serif" font-size="10.00">_handling</text>
</a>
</g>
<!-- Node14&#45;&gt;Node15 -->
<g id="edge36" class="edge"><title>Node14&#45;&gt;Node15</title>
<path fill="none" stroke="midnightblue" d="M306.106,-146C317.511,-146 329.286,-146 340.478,-146"/>
<polygon fill="midnightblue" stroke="midnightblue" points="305.763,-142.5 295.763,-146 305.763,-149.5 305.763,-142.5"/>
</g>
<!-- Node15&#45;&gt;Node7 -->
<g id="edge38" class="edge"><title>Node15&#45;&gt;Node7</title>
<path fill="none" stroke="midnightblue" d="M469.971,-144.07C481.588,-143.749 493.292,-143.426 503.888,-143.134"/>
<polygon fill="midnightblue" stroke="midnightblue" points="469.714,-140.575 459.814,-144.35 469.907,-147.573 469.714,-140.575"/>
</g>
</g>
</svg>
