<?xml version="1.0" encoding="UTF-8" standalone="no"?>
<!DOCTYPE svg PUBLIC "-//W3C//DTD SVG 1.1//EN"
 "http://www.w3.org/Graphics/SVG/1.1/DTD/svg11.dtd">
<!-- Generated by graphviz version 2.26.3 (20100126.1600)
 -->
<!-- Title: report_selection_in Pages: 1 -->
<svg width="426pt" height="128pt"
 viewBox="0.00 0.00 426.00 128.00" xmlns="http://www.w3.org/2000/svg" xmlns:xlink="http://www.w3.org/1999/xlink">
<g id="graph1" class="graph" transform="scale(1 1) rotate(0) translate(4 124)">
<title>report_selection_in</title>
<polygon fill="white" stroke="white" points="-4,5 -4,-124 423,-124 423,5 -4,5"/>
<!-- Node1 -->
<g id="node1" class="node"><title>Node1</title>
<polygon fill="#bfbfbf" stroke="black" points="0,-56 0,-80 98,-80 98,-56 0,-56"/>
<text text-anchor="middle" x="49" y="-67" font-family="Helvetica,sans-Serif" font-size="10.00">report_selection_in</text>
</g>
<!-- Node2 -->
<g id="node3" class="node"><title>Node2</title>
<a xlink:href="_c_o_r_e__6_8cpp.html#ab88648bb253532281d1c58fb9647290a" target="_top" xlink:title="clear_selection_in">
<polygon fill="white" stroke="black" points="142.5,-96 142.5,-120 237.5,-120 237.5,-96 142.5,-96"/>
<text text-anchor="middle" x="190" y="-107" font-family="Helvetica,sans-Serif" font-size="10.00">clear_selection_in</text>
</a>
</g>
<!-- Node1&#45;&gt;Node2 -->
<g id="edge2" class="edge"><title>Node1&#45;&gt;Node2</title>
<path fill="none" stroke="midnightblue" d="M91.3046,-80.0013C105.811,-84.1165 122.224,-88.7727 137.442,-93.0899"/>
<polygon fill="midnightblue" stroke="midnightblue" points="136.662,-96.5068 147.238,-95.8689 138.573,-89.7725 136.662,-96.5068"/>
</g>
<!-- Node3 -->
<g id="node5" class="node"><title>Node3</title>
<a xlink:href="_c_o_r_e__6_8cpp.html#a39a8fa0905933794d58438ac52b93a76" target="_top" xlink:title="count_number_of_channels\l_in_view">
<polygon fill="white" stroke="black" points="282,-68 282,-108 418,-108 418,-68 282,-68"/>
<text text-anchor="start" x="290" y="-95" font-family="Helvetica,sans-Serif" font-size="10.00">count_number_of_channels</text>
<text text-anchor="middle" x="350" y="-79" font-family="Helvetica,sans-Serif" font-size="10.00">_in_view</text>
</a>
</g>
<!-- Node1&#45;&gt;Node3 -->
<g id="edge6" class="edge"><title>Node1&#45;&gt;Node3</title>
<path fill="none" stroke="midnightblue" d="M98.0308,-71.2579C145.078,-74.3839 216.889,-79.1554 271.828,-82.8059"/>
<polygon fill="midnightblue" stroke="midnightblue" points="271.671,-86.303 281.881,-83.4738 272.135,-79.3184 271.671,-86.303"/>
</g>
<!-- Node4 -->
<g id="node8" class="node"><title>Node4</title>
<a xlink:href="_c_o_r_e__6_8cpp.html#a8ba74bfea445389fb44b94246338b465" target="_top" xlink:title="reorder_channel_view\l_list_of_channels">
<polygon fill="white" stroke="black" points="134.5,-0 134.5,-40 245.5,-40 245.5,-0 134.5,-0"/>
<text text-anchor="start" x="142.5" y="-27" font-family="Helvetica,sans-Serif" font-size="10.00">reorder_channel_view</text>
<text text-anchor="middle" x="190" y="-11" font-family="Helvetica,sans-Serif" font-size="10.00">_list_of_channels</text>
</a>
</g>
<!-- Node1&#45;&gt;Node4 -->
<g id="edge8" class="edge"><title>Node1&#45;&gt;Node4</title>
<path fill="none" stroke="midnightblue" d="M84.5803,-55.8876C96.8431,-51.713 110.992,-46.8965 124.862,-42.1747"/>
<polygon fill="midnightblue" stroke="midnightblue" points="126.055,-45.4659 134.393,-38.93 123.799,-38.8394 126.055,-45.4659"/>
</g>
<!-- Node2&#45;&gt;Node3 -->
<g id="edge4" class="edge"><title>Node2&#45;&gt;Node3</title>
<path fill="none" stroke="midnightblue" d="M237.572,-102.053C248.33,-100.709 260.03,-99.2462 271.683,-97.7897"/>
<polygon fill="midnightblue" stroke="midnightblue" points="272.397,-101.228 281.885,-96.5143 271.529,-94.2818 272.397,-101.228"/>
</g>
</g>
</svg>
