<?xml version="1.0" encoding="UTF-8" standalone="no"?>
<!DOCTYPE svg PUBLIC "-//W3C//DTD SVG 1.1//EN"
 "http://www.w3.org/Graphics/SVG/1.1/DTD/svg11.dtd">
<!-- Generated by graphviz version 2.26.3 (20100126.1600)
 -->
<!-- Title: record_preset_xy_from_symbol Pages: 1 -->
<svg width="980pt" height="154pt"
 viewBox="0.00 0.00 980.00 154.00" xmlns="http://www.w3.org/2000/svg" xmlns:xlink="http://www.w3.org/1999/xlink">
<g id="graph1" class="graph" transform="scale(1 1) rotate(0) translate(4 150)">
<title>record_preset_xy_from_symbol</title>
<polygon fill="white" stroke="white" points="-4,5 -4,-150 977,-150 977,5 -4,5"/>
<!-- Node1 -->
<g id="node1" class="node"><title>Node1</title>
<polygon fill="#bfbfbf" stroke="black" points="0,-25 0,-65 116,-65 116,-25 0,-25"/>
<text text-anchor="start" x="8" y="-52" font-family="Helvetica,sans-Serif" font-size="10.00">record_preset_xy_from</text>
<text text-anchor="middle" x="58" y="-36" font-family="Helvetica,sans-Serif" font-size="10.00">_symbol</text>
</g>
<!-- Node2 -->
<g id="node3" class="node"><title>Node2</title>
<a xlink:href="midi__13_8cpp.html#a6dff3d42682b58cc0a9875ee30fb4cd4" target="_top" xlink:title="do_midi_job">
<polygon fill="white" stroke="black" points="176,-58 176,-82 244,-82 244,-58 176,-58"/>
<text text-anchor="middle" x="210" y="-69" font-family="Helvetica,sans-Serif" font-size="10.00">do_midi_job</text>
</a>
</g>
<!-- Node1&#45;&gt;Node2 -->
<g id="edge2" class="edge"><title>Node1&#45;&gt;Node2</title>
<path fill="none" stroke="midnightblue" d="M126.336,-56.2395C143.475,-59.0583 161.139,-61.9636 175.794,-64.3739"/>
<polygon fill="midnightblue" stroke="midnightblue" points="126.768,-52.7636 116.332,-54.5942 125.632,-59.6708 126.768,-52.7636"/>
</g>
<!-- Node9 -->
<g id="node18" class="node"><title>Node9</title>
<a xlink:href="plot__core9_8cpp.html#afacf9fafd495ceac6c305b0cf88312f2" target="_top" xlink:title="logical_symbol_edition\l_options">
<polygon fill="white" stroke="black" points="152.5,-0 152.5,-40 267.5,-40 267.5,-0 152.5,-0"/>
<text text-anchor="start" x="160.5" y="-27" font-family="Helvetica,sans-Serif" font-size="10.00">logical_symbol_edition</text>
<text text-anchor="middle" x="210" y="-11" font-family="Helvetica,sans-Serif" font-size="10.00">_options</text>
</a>
</g>
<!-- Node1&#45;&gt;Node9 -->
<g id="edge18" class="edge"><title>Node1&#45;&gt;Node9</title>
<path fill="none" stroke="midnightblue" d="M126.408,-33.7487C135.066,-32.3246 143.857,-30.8787 152.325,-29.486"/>
<polygon fill="midnightblue" stroke="midnightblue" points="125.632,-30.3292 116.332,-35.4058 126.768,-37.2364 125.632,-30.3292"/>
</g>
<!-- Node3 -->
<g id="node5" class="node"><title>Node3</title>
<a xlink:href="midi__13_8cpp.html#a6bedf9750195224914cd87c4e73ab626" target="_top" xlink:title="ventilate_midi_to_midiarray">
<polygon fill="white" stroke="black" points="304.5,-58 304.5,-82 439.5,-82 439.5,-58 304.5,-58"/>
<text text-anchor="middle" x="372" y="-69" font-family="Helvetica,sans-Serif" font-size="10.00">ventilate_midi_to_midiarray</text>
</a>
</g>
<!-- Node2&#45;&gt;Node3 -->
<g id="edge4" class="edge"><title>Node2&#45;&gt;Node3</title>
<path fill="none" stroke="midnightblue" d="M254.604,-70C269.968,-70 287.539,-70 304.324,-70"/>
<polygon fill="midnightblue" stroke="midnightblue" points="254.356,-66.5001 244.356,-70 254.356,-73.5001 254.356,-66.5001"/>
</g>
<!-- Node4 -->
<g id="node7" class="node"><title>Node4</title>
<a xlink:href="midi__13_8cpp.html#afa49dd5668303c2448676c8243737c2d" target="_top" xlink:title="simulate_midi">
<polygon fill="white" stroke="black" points="497.5,-58 497.5,-82 574.5,-82 574.5,-58 497.5,-58"/>
<text text-anchor="middle" x="536" y="-69" font-family="Helvetica,sans-Serif" font-size="10.00">simulate_midi</text>
</a>
</g>
<!-- Node3&#45;&gt;Node4 -->
<g id="edge6" class="edge"><title>Node3&#45;&gt;Node4</title>
<path fill="none" stroke="midnightblue" d="M449.828,-70C466.256,-70 482.908,-70 497.138,-70"/>
<polygon fill="midnightblue" stroke="midnightblue" points="449.652,-66.5001 439.652,-70 449.652,-73.5001 449.652,-66.5001"/>
</g>
<!-- Node5 -->
<g id="node9" class="node"><title>Node5</title>
<a xlink:href="arduino__core__6___u_n_o_8cpp.html#ae72d1a8d74d9ab5515962e03e7e664d6" target="_top" xlink:title="arduino_do_analog_in\l_whitecat">
<polygon fill="white" stroke="black" points="632,-106 632,-146 742,-146 742,-106 632,-106"/>
<text text-anchor="start" x="640" y="-133" font-family="Helvetica,sans-Serif" font-size="10.00">arduino_do_analog_in</text>
<text text-anchor="middle" x="687" y="-117" font-family="Helvetica,sans-Serif" font-size="10.00">_whitecat</text>
</a>
</g>
<!-- Node4&#45;&gt;Node5 -->
<g id="edge8" class="edge"><title>Node4&#45;&gt;Node5</title>
<path fill="none" stroke="midnightblue" d="M578.047,-85.5936C595.06,-91.903 614.913,-99.2659 632.978,-105.965"/>
<polygon fill="midnightblue" stroke="midnightblue" points="578.986,-82.2091 568.393,-82.0134 576.552,-88.7723 578.986,-82.2091"/>
</g>
<!-- Node8 -->
<g id="node15" class="node"><title>Node8</title>
<a xlink:href="arduino__core__6___u_n_o_8cpp.html#a219226c1cd6cc17c78e62fd4445bb445" target="_top" xlink:title="arduino_do_digital\l_in_whitecat">
<polygon fill="white" stroke="black" points="639.5,-48 639.5,-88 734.5,-88 734.5,-48 639.5,-48"/>
<text text-anchor="start" x="647.5" y="-75" font-family="Helvetica,sans-Serif" font-size="10.00">arduino_do_digital</text>
<text text-anchor="middle" x="687" y="-59" font-family="Helvetica,sans-Serif" font-size="10.00">_in_whitecat</text>
</a>
</g>
<!-- Node4&#45;&gt;Node8 -->
<g id="edge14" class="edge"><title>Node4&#45;&gt;Node8</title>
<path fill="none" stroke="midnightblue" d="M585.373,-69.3461C602.712,-69.1164 622.149,-68.859 639.344,-68.6312"/>
<polygon fill="midnightblue" stroke="midnightblue" points="584.839,-65.8527 574.886,-69.485 584.932,-72.8521 584.839,-65.8527"/>
</g>
<!-- Node6 -->
<g id="node11" class="node"><title>Node6</title>
<a xlink:href="_m_a_i_n__avec__objets_8cpp.html#ace9c8a9b37c6087c3cffef442d71d70e" target="_top" xlink:title="dixiemes_de_secondes">
<polygon fill="white" stroke="black" points="778.5,-56 778.5,-80 897.5,-80 897.5,-56 778.5,-56"/>
<text text-anchor="middle" x="838" y="-67" font-family="Helvetica,sans-Serif" font-size="10.00">dixiemes_de_secondes</text>
</a>
</g>
<!-- Node5&#45;&gt;Node6 -->
<g id="edge10" class="edge"><title>Node5&#45;&gt;Node6</title>
<path fill="none" stroke="midnightblue" d="M748.956,-102.202C768.704,-94.6169 789.731,-86.5404 806.39,-80.1416"/>
<polygon fill="midnightblue" stroke="midnightblue" points="747.469,-99.0242 739.389,-105.877 749.979,-105.559 747.469,-99.0242"/>
</g>
<!-- Node7 -->
<g id="node13" class="node"><title>Node7</title>
<a xlink:href="_m_a_i_n__avec__objets_8cpp.html#ae66f6b31b5ad750f1fe042a706a4e3d4" target="_top" xlink:title="main">
<polygon fill="white" stroke="black" points="934,-35 934,-59 972,-59 972,-35 934,-35"/>
<text text-anchor="middle" x="953" y="-46" font-family="Helvetica,sans-Serif" font-size="10.00">main</text>
</a>
</g>
<!-- Node6&#45;&gt;Node7 -->
<g id="edge12" class="edge"><title>Node6&#45;&gt;Node7</title>
<path fill="none" stroke="midnightblue" d="M907.619,-55.2869C917.191,-53.539 926.294,-51.8767 933.8,-50.5061"/>
<polygon fill="midnightblue" stroke="midnightblue" points="906.73,-51.8914 897.521,-57.1309 907.987,-58.7775 906.73,-51.8914"/>
</g>
<!-- Node8&#45;&gt;Node6 -->
<g id="edge16" class="edge"><title>Node8&#45;&gt;Node6</title>
<path fill="none" stroke="midnightblue" d="M745.043,-68C755.948,-68 767.367,-68 778.321,-68"/>
<polygon fill="midnightblue" stroke="midnightblue" points="744.777,-64.5001 734.777,-68 744.777,-71.5001 744.777,-64.5001"/>
</g>
<!-- Node10 -->
<g id="node20" class="node"><title>Node10</title>
<a xlink:href="plot__core9_8cpp.html#a8959d98409d30cff9689b28771791f70" target="_top" xlink:title="do_logical_Plot_window">
<polygon fill="white" stroke="black" points="311.5,-8 311.5,-32 432.5,-32 432.5,-8 311.5,-8"/>
<text text-anchor="middle" x="372" y="-19" font-family="Helvetica,sans-Serif" font-size="10.00">do_logical_Plot_window</text>
</a>
</g>
<!-- Node9&#45;&gt;Node10 -->
<g id="edge20" class="edge"><title>Node9&#45;&gt;Node10</title>
<path fill="none" stroke="midnightblue" d="M277.694,-20C288.851,-20 300.354,-20 311.324,-20"/>
<polygon fill="midnightblue" stroke="midnightblue" points="277.571,-16.5001 267.571,-20 277.571,-23.5001 277.571,-16.5001"/>
</g>
<!-- Node11 -->
<g id="node22" class="node"><title>Node11</title>
<a xlink:href="procs__visuels__rebuild1_8cpp.html#ae710b6e599e321ad5934a90140067054" target="_top" xlink:title="check_graphics_mouse\l_handling">
<polygon fill="white" stroke="black" points="476.5,-0 476.5,-40 595.5,-40 595.5,-0 476.5,-0"/>
<text text-anchor="start" x="484.5" y="-27" font-family="Helvetica,sans-Serif" font-size="10.00">check_graphics_mouse</text>
<text text-anchor="middle" x="536" y="-11" font-family="Helvetica,sans-Serif" font-size="10.00">_handling</text>
</a>
</g>
<!-- Node10&#45;&gt;Node11 -->
<g id="edge22" class="edge"><title>Node10&#45;&gt;Node11</title>
<path fill="none" stroke="midnightblue" d="M442.804,-20C454.027,-20 465.536,-20 476.467,-20"/>
<polygon fill="midnightblue" stroke="midnightblue" points="442.602,-16.5001 432.602,-20 442.602,-23.5001 442.602,-16.5001"/>
</g>
<!-- Node12 -->
<g id="node24" class="node"><title>Node12</title>
<a xlink:href="_m_a_i_n__avec__objets_8cpp.html#a8e80f54ac804eddce8ed6e45adb1db44" target="_top" xlink:title="ticker_full_loop">
<polygon fill="white" stroke="black" points="797,-11 797,-35 879,-35 879,-11 797,-11"/>
<text text-anchor="middle" x="838" y="-22" font-family="Helvetica,sans-Serif" font-size="10.00">ticker_full_loop</text>
</a>
</g>
<!-- Node11&#45;&gt;Node12 -->
<g id="edge24" class="edge"><title>Node11&#45;&gt;Node12</title>
<path fill="none" stroke="midnightblue" d="M605.684,-20.6922C664.847,-21.2799 747.743,-22.1034 796.853,-22.5913"/>
<polygon fill="midnightblue" stroke="midnightblue" points="605.7,-17.1923 595.665,-20.5927 605.63,-24.192 605.7,-17.1923"/>
</g>
<!-- Node12&#45;&gt;Node7 -->
<g id="edge26" class="edge"><title>Node12&#45;&gt;Node7</title>
<path fill="none" stroke="midnightblue" d="M889.007,-33.645C904.982,-36.9789 921.635,-40.4542 933.947,-43.0236"/>
<polygon fill="midnightblue" stroke="midnightblue" points="889.697,-30.2136 879.193,-31.5968 888.267,-37.066 889.697,-30.2136"/>
</g>
</g>
</svg>
