<?xml version="1.0" encoding="UTF-8" standalone="no"?>
<!DOCTYPE svg PUBLIC "-//W3C//DTD SVG 1.1//EN"
 "http://www.w3.org/Graphics/SVG/1.1/DTD/svg11.dtd">
<!-- Generated by graphviz version 2.26.3 (20100126.1600)
 -->
<!-- Title: bounce Pages: 1 -->
<svg width="320pt" height="48pt"
 viewBox="0.00 0.00 320.00 48.00" xmlns="http://www.w3.org/2000/svg" xmlns:xlink="http://www.w3.org/1999/xlink">
<g id="graph1" class="graph" transform="scale(1 1) rotate(0) translate(4 44)">
<title>bounce</title>
<polygon fill="white" stroke="white" points="-4,5 -4,-44 317,-44 317,5 -4,5"/>
<!-- Node1 -->
<g id="node1" class="node"><title>Node1</title>
<polygon fill="#bfbfbf" stroke="black" points="0,-8 0,-32 48,-32 48,-8 0,-8"/>
<text text-anchor="middle" x="24" y="-19" font-family="Helvetica,sans-Serif" font-size="10.00">bounce</text>
</g>
<!-- Node2 -->
<g id="node3" class="node"><title>Node2</title>
<a xlink:href="_c_o_r_e__6_8cpp.html#acb60b88f155e303f382267840df74671" target="_top" xlink:title="recall_channel_state\l_in_an_echo">
<polygon fill="white" stroke="black" points="84,-0 84,-40 190,-40 190,-0 84,-0"/>
<text text-anchor="start" x="92" y="-27" font-family="Helvetica,sans-Serif" font-size="10.00">recall_channel_state</text>
<text text-anchor="middle" x="137" y="-11" font-family="Helvetica,sans-Serif" font-size="10.00">_in_an_echo</text>
</a>
</g>
<!-- Node1&#45;&gt;Node2 -->
<g id="edge2" class="edge"><title>Node1&#45;&gt;Node2</title>
<path fill="none" stroke="midnightblue" d="M48.2413,-20C55.7801,-20 64.4712,-20 73.4028,-20"/>
<polygon fill="midnightblue" stroke="midnightblue" points="73.5403,-23.5001 83.5403,-20 73.5402,-16.5001 73.5403,-23.5001"/>
</g>
<!-- Node3 -->
<g id="node5" class="node"><title>Node3</title>
<a xlink:href="_c_o_r_e__6_8cpp.html#a02c0482cf9631910ebc1d59614215ecd" target="_top" xlink:title="prepare_bounce">
<polygon fill="white" stroke="black" points="226,-8 226,-32 312,-32 312,-8 226,-8"/>
<text text-anchor="middle" x="269" y="-19" font-family="Helvetica,sans-Serif" font-size="10.00">prepare_bounce</text>
</a>
</g>
<!-- Node2&#45;&gt;Node3 -->
<g id="edge4" class="edge"><title>Node2&#45;&gt;Node3</title>
<path fill="none" stroke="midnightblue" d="M190.309,-20C198.652,-20 207.275,-20 215.619,-20"/>
<polygon fill="midnightblue" stroke="midnightblue" points="215.621,-23.5001 225.621,-20 215.621,-16.5001 215.621,-23.5001"/>
</g>
</g>
</svg>
