<?xml version="1.0" encoding="UTF-8" standalone="no"?>
<!DOCTYPE svg PUBLIC "-//W3C//DTD SVG 1.1//EN"
 "http://www.w3.org/Graphics/SVG/1.1/DTD/svg11.dtd">
<!-- Generated by graphviz version 2.26.3 (20100126.1600)
 -->
<!-- Title: scan_for_free_dock Pages: 1 -->
<svg width="890pt" height="74pt"
 viewBox="0.00 0.00 890.00 74.00" xmlns="http://www.w3.org/2000/svg" xmlns:xlink="http://www.w3.org/1999/xlink">
<g id="graph1" class="graph" transform="scale(1 1) rotate(0) translate(4 70)">
<title>scan_for_free_dock</title>
<polygon fill="white" stroke="white" points="-4,5 -4,-70 887,-70 887,5 -4,5"/>
<!-- Node1 -->
<g id="node1" class="node"><title>Node1</title>
<polygon fill="#bfbfbf" stroke="black" points="0,-21 0,-45 102,-45 102,-21 0,-21"/>
<text text-anchor="middle" x="51" y="-32" font-family="Helvetica,sans-Serif" font-size="10.00">scan_for_free_dock</text>
</g>
<!-- Node2 -->
<g id="node3" class="node"><title>Node2</title>
<a xlink:href="saves__export__import_8cpp.html#a905bc7e6b97081073c37e69402672358" target="_top" xlink:title="do_ASCII_import">
<polygon fill="white" stroke="black" points="138,-42 138,-66 230,-66 230,-42 138,-42"/>
<text text-anchor="middle" x="184" y="-53" font-family="Helvetica,sans-Serif" font-size="10.00">do_ASCII_import</text>
</a>
</g>
<!-- Node1&#45;&gt;Node2 -->
<g id="edge2" class="edge"><title>Node1&#45;&gt;Node2</title>
<path fill="none" stroke="midnightblue" d="M112.056,-42.6405C120.666,-43.9999 129.398,-45.3786 137.67,-46.6847"/>
<polygon fill="midnightblue" stroke="midnightblue" points="112.464,-39.1616 102.041,-41.0591 111.373,-46.076 112.464,-39.1616"/>
</g>
<!-- Node11 -->
<g id="node22" class="node"><title>Node11</title>
<a xlink:href="saves__export__import_8cpp.html#aa1d9d650676ab451f00cf24b2b7ac0a1" target="_top" xlink:title="do_Alq_import">
<polygon fill="white" stroke="black" points="144.5,-0 144.5,-24 223.5,-24 223.5,-0 144.5,-0"/>
<text text-anchor="middle" x="184" y="-11" font-family="Helvetica,sans-Serif" font-size="10.00">do_Alq_import</text>
</a>
</g>
<!-- Node1&#45;&gt;Node11 -->
<g id="edge22" class="edge"><title>Node1&#45;&gt;Node11</title>
<path fill="none" stroke="midnightblue" d="M112.056,-23.3595C123.062,-21.6219 134.267,-19.8526 144.456,-18.2438"/>
<polygon fill="midnightblue" stroke="midnightblue" points="111.373,-19.924 102.041,-24.9409 112.464,-26.8384 111.373,-19.924"/>
</g>
<!-- Node3 -->
<g id="node5" class="node"><title>Node3</title>
<a xlink:href="logicals__intres_8cpp.html#a74cf9c04c734ab342f88799efbfc4210" target="_top" xlink:title="operations_confirmation">
<polygon fill="white" stroke="black" points="266,-21 266,-45 386,-45 386,-21 266,-21"/>
<text text-anchor="middle" x="326" y="-32" font-family="Helvetica,sans-Serif" font-size="10.00">operations_confirmation</text>
</a>
</g>
<!-- Node2&#45;&gt;Node3 -->
<g id="edge4" class="edge"><title>Node2&#45;&gt;Node3</title>
<path fill="none" stroke="midnightblue" d="M240.218,-45.6861C248.656,-44.4381 257.387,-43.1471 265.902,-41.8877"/>
<polygon fill="midnightblue" stroke="midnightblue" points="239.484,-42.2565 230.103,-47.1819 240.508,-49.1812 239.484,-42.2565"/>
</g>
<!-- Node4 -->
<g id="node7" class="node"><title>Node4</title>
<a xlink:href="keyboard__functions2_8cpp.html#a548548066307f816c5021de7d6e4f26a" target="_top" xlink:title="key_affectation">
<polygon fill="white" stroke="black" points="422.5,-42 422.5,-66 505.5,-66 505.5,-42 422.5,-42"/>
<text text-anchor="middle" x="464" y="-53" font-family="Helvetica,sans-Serif" font-size="10.00">key_affectation</text>
</a>
</g>
<!-- Node3&#45;&gt;Node4 -->
<g id="edge6" class="edge"><title>Node3&#45;&gt;Node4</title>
<path fill="none" stroke="midnightblue" d="M396.19,-43.681C405.12,-45.04 414.024,-46.395 422.303,-47.6548"/>
<polygon fill="midnightblue" stroke="midnightblue" points="396.54,-40.1942 386.127,-42.1498 395.487,-47.1145 396.54,-40.1942"/>
</g>
<!-- Node8 -->
<g id="node15" class="node"><title>Node8</title>
<a xlink:href="logicals__intres_8cpp.html#a85967c22135715eca94d08af2ec1a1fb" target="_top" xlink:title="fenetre_confirm">
<polygon fill="white" stroke="black" points="422,-0 422,-24 506,-24 506,-0 422,-0"/>
<text text-anchor="middle" x="464" y="-11" font-family="Helvetica,sans-Serif" font-size="10.00">fenetre_confirm</text>
</a>
</g>
<!-- Node3&#45;&gt;Node8 -->
<g id="edge14" class="edge"><title>Node3&#45;&gt;Node8</title>
<path fill="none" stroke="midnightblue" d="M396.07,-22.3372C404.894,-20.9944 413.695,-19.6551 421.896,-18.4072"/>
<polygon fill="midnightblue" stroke="midnightblue" points="395.487,-18.8855 386.127,-23.8502 396.54,-25.8058 395.487,-18.8855"/>
</g>
<!-- Node5 -->
<g id="node9" class="node"><title>Node5</title>
<a xlink:href="keyboard__routines2_8cpp.html#a8563320b8eab661232619224650de244" target="_top" xlink:title="commandes_clavier">
<polygon fill="white" stroke="black" points="542,-42 542,-66 646,-66 646,-42 542,-42"/>
<text text-anchor="middle" x="594" y="-53" font-family="Helvetica,sans-Serif" font-size="10.00">commandes_clavier</text>
</a>
</g>
<!-- Node4&#45;&gt;Node5 -->
<g id="edge8" class="edge"><title>Node4&#45;&gt;Node5</title>
<path fill="none" stroke="midnightblue" d="M515.995,-54C524.473,-54 533.258,-54 541.742,-54"/>
<polygon fill="midnightblue" stroke="midnightblue" points="515.848,-50.5001 505.848,-54 515.848,-57.5001 515.848,-50.5001"/>
</g>
<!-- Node6 -->
<g id="node11" class="node"><title>Node6</title>
<a xlink:href="_m_a_i_n__avec__objets_8cpp.html#a8e80f54ac804eddce8ed6e45adb1db44" target="_top" xlink:title="ticker_full_loop">
<polygon fill="white" stroke="black" points="704,-42 704,-66 786,-66 786,-42 704,-42"/>
<text text-anchor="middle" x="745" y="-53" font-family="Helvetica,sans-Serif" font-size="10.00">ticker_full_loop</text>
</a>
</g>
<!-- Node5&#45;&gt;Node6 -->
<g id="edge10" class="edge"><title>Node5&#45;&gt;Node6</title>
<path fill="none" stroke="midnightblue" d="M656.664,-54C672.516,-54 689.147,-54 703.648,-54"/>
<polygon fill="midnightblue" stroke="midnightblue" points="656.389,-50.5001 646.389,-54 656.389,-57.5001 656.389,-50.5001"/>
</g>
<!-- Node7 -->
<g id="node13" class="node"><title>Node7</title>
<a xlink:href="_m_a_i_n__avec__objets_8cpp.html#ae66f6b31b5ad750f1fe042a706a4e3d4" target="_top" xlink:title="main">
<polygon fill="white" stroke="black" points="844,-21 844,-45 882,-45 882,-21 844,-21"/>
<text text-anchor="middle" x="863" y="-32" font-family="Helvetica,sans-Serif" font-size="10.00">main</text>
</a>
</g>
<!-- Node6&#45;&gt;Node7 -->
<g id="edge12" class="edge"><title>Node6&#45;&gt;Node7</title>
<path fill="none" stroke="midnightblue" d="M796.55,-44.8259C813.307,-41.8437 830.879,-38.7164 843.742,-36.4273"/>
<polygon fill="midnightblue" stroke="midnightblue" points="795.503,-41.4572 786.271,-46.6552 796.729,-48.3489 795.503,-41.4572"/>
</g>
<!-- Node9 -->
<g id="node17" class="node"><title>Node9</title>
<a xlink:href="graphics__rebuild1_8cpp.html#ac2eae1e03fb72cc734ffbcef566483bf" target="_top" xlink:title="Boxes">
<polygon fill="white" stroke="black" points="572,-0 572,-24 616,-24 616,-0 572,-0"/>
<text text-anchor="middle" x="594" y="-11" font-family="Helvetica,sans-Serif" font-size="10.00">Boxes</text>
</a>
</g>
<!-- Node8&#45;&gt;Node9 -->
<g id="edge16" class="edge"><title>Node8&#45;&gt;Node9</title>
<path fill="none" stroke="midnightblue" d="M516.4,-12C535.658,-12 556.45,-12 571.66,-12"/>
<polygon fill="midnightblue" stroke="midnightblue" points="516.207,-8.5001 506.207,-12 516.207,-15.5001 516.207,-8.5001"/>
</g>
<!-- Node10 -->
<g id="node19" class="node"><title>Node10</title>
<a xlink:href="_m_a_i_n__avec__objets_8cpp.html#ade8d4ba65d55c94f8ee277829d722155" target="_top" xlink:title="main_actions_on_screen">
<polygon fill="white" stroke="black" points="682.5,-0 682.5,-24 807.5,-24 807.5,-0 682.5,-0"/>
<text text-anchor="middle" x="745" y="-11" font-family="Helvetica,sans-Serif" font-size="10.00">main_actions_on_screen</text>
</a>
</g>
<!-- Node9&#45;&gt;Node10 -->
<g id="edge18" class="edge"><title>Node9&#45;&gt;Node10</title>
<path fill="none" stroke="midnightblue" d="M626.395,-12C642.76,-12 663.187,-12 682.455,-12"/>
<polygon fill="midnightblue" stroke="midnightblue" points="626.281,-8.5001 616.281,-12 626.281,-15.5001 626.281,-8.5001"/>
</g>
<!-- Node10&#45;&gt;Node7 -->
<g id="edge20" class="edge"><title>Node10&#45;&gt;Node7</title>
<path fill="none" stroke="midnightblue" d="M817.837,-24.9626C827.336,-26.6529 836.327,-28.253 843.749,-29.5739"/>
<polygon fill="midnightblue" stroke="midnightblue" points="818.259,-21.4827 807.8,-23.1763 817.032,-28.3744 818.259,-21.4827"/>
</g>
<!-- Node11&#45;&gt;Node3 -->
<g id="edge24" class="edge"><title>Node11&#45;&gt;Node3</title>
<path fill="none" stroke="midnightblue" d="M233.702,-19.3503C244.111,-20.8897 255.193,-22.5286 265.934,-24.1169"/>
<polygon fill="midnightblue" stroke="midnightblue" points="233.959,-15.8504 223.555,-17.8497 232.935,-22.7751 233.959,-15.8504"/>
</g>
</g>
</svg>
