<?xml version="1.0" encoding="UTF-8" standalone="no"?>
<!DOCTYPE svg PUBLIC "-//W3C//DTD SVG 1.1//EN"
 "http://www.w3.org/Graphics/SVG/1.1/DTD/svg11.dtd">
<!-- Generated by graphviz version 2.26.3 (20100126.1600)
 -->
<!-- Title: refresh_decay Pages: 1 -->
<!--zoomable 286 -->
<svg id="main" version="1.1" xmlns="http://www.w3.org/2000/svg" xmlns:xlink="http://www.w3.org/1999/xlink" xml:space="preserve" onload="init(evt)">
<style type="text/css"><![CDATA[
.edge:hover path { stroke: red; }
.edge:hover polygon { stroke: red; fill: red; }
]]></style>
<script type="text/javascript"><![CDATA[
var edges = document.getElementsByTagName('g');
if (edges && edges.length) {
  for (var i=0;i<edges.length;i++) {
    if (edges[i].id.substr(0,4)=='edge') {
      edges[i].setAttribute('class','edge');
    }
  }
}
]]></script>
        <defs>
                <circle id="rim" cx="0" cy="0" r="7"/>
                <circle id="rim2" cx="0" cy="0" r="3.5"/>
                <g id="zoomPlus">
                        <use xlink:href="#rim" fill="#404040">
                                <set attributeName="fill" to="#808080" begin="zoomplus.mouseover" end="zoomplus.mouseout"/>
                        </use>
                        <path d="M-4,0h8M0,-4v8" fill="none" stroke="white" stroke-width="1.5" pointer-events="none"/>
                </g>
                <g id="zoomMin">
                        <use xlink:href="#rim" fill="#404040">
                                <set attributeName="fill" to="#808080" begin="zoomminus.mouseover" end="zoomminus.mouseout"/>
                        </use>
                        <path d="M-4,0h8" fill="none" stroke="white" stroke-width="1.5" pointer-events="none"/>
                </g>
                <g id="dirArrow">
                        <path fill="none" stroke="white" stroke-width="1.5" d="M0,-3.0v7 M-2.5,-0.5L0,-3.0L2.5,-0.5"/>
                </g>
               <g id="resetDef">
                       <use xlink:href="#rim2" fill="#404040">
                               <set attributeName="fill" to="#808080" begin="reset.mouseover" end="reset.mouseout"/>
                       </use>
               </g>
        </defs>

<script type="text/javascript">
var viewWidth = 1096;
var viewHeight = 286;
var sectionId = 'dynsection-148';
</script>
<script xlink:href="svgpan.js"/>
<svg id="graph" class="graph">
<g id="viewport">
<title>refresh_decay</title>
<polygon fill="white" stroke="white" points="-4,5 -4,-282 1093,-282 1093,5 -4,5"/>
<!-- Node1 -->
<g id="node1" class="node"><title>Node1</title>
<polygon fill="#bfbfbf" stroke="black" points="0,-96 0,-120 78,-120 78,-96 0,-96"/>
<text text-anchor="middle" x="39" y="-107" font-family="Helvetica,sans-Serif" font-size="10.00">refresh_decay</text>
</g>
<!-- Node2 -->
<g id="node3" class="node"><title>Node2</title>
<a xlink:href="midi__13_8cpp.html#a6dff3d42682b58cc0a9875ee30fb4cd4" target="_top" xlink:title="do_midi_job">
<polygon fill="white" stroke="black" points="132,-161 132,-185 200,-185 200,-161 132,-161"/>
<text text-anchor="middle" x="166" y="-172" font-family="Helvetica,sans-Serif" font-size="10.00">do_midi_job</text>
</a>
</g>
<!-- Node1&#45;&gt;Node2 -->
<g id="edge2" class="edge"><title>Node1&#45;&gt;Node2</title>
<path fill="none" stroke="midnightblue" d="M71.6407,-124.706C93.8117,-136.053 122.614,-150.795 142.536,-160.991"/>
<polygon fill="midnightblue" stroke="midnightblue" points="73.0866,-121.514 62.5901,-120.074 69.8973,-127.745 73.0866,-121.514"/>
</g>
<!-- Node9 -->
<g id="node18" class="node"><title>Node9</title>
<a xlink:href="save__show__13_8cpp.html#a8330f725aa2c729bdce098aa4b187589" target="_top" xlink:title="Load_Show">
<polygon fill="white" stroke="black" points="132,-96 132,-120 200,-120 200,-96 132,-96"/>
<text text-anchor="middle" x="166" y="-107" font-family="Helvetica,sans-Serif" font-size="10.00">Load_Show</text>
</a>
</g>
<!-- Node1&#45;&gt;Node9 -->
<g id="edge18" class="edge"><title>Node1&#45;&gt;Node9</title>
<path fill="none" stroke="midnightblue" d="M88.4938,-108C103.026,-108 118.589,-108 131.927,-108"/>
<polygon fill="midnightblue" stroke="midnightblue" points="88.1405,-104.5 78.1405,-108 88.1404,-111.5 88.1405,-104.5"/>
</g>
<!-- Node19 -->
<g id="node42" class="node"><title>Node19</title>
<a xlink:href="video__tracking__core_8cpp.html#a3f57894fb192cb6907464f6466e6c37c" target="_top" xlink:title="do_logical_Interface\l_video_window">
<polygon fill="white" stroke="black" points="114,-22 114,-62 218,-62 218,-22 114,-22"/>
<text text-anchor="start" x="122" y="-49" font-family="Helvetica,sans-Serif" font-size="10.00">do_logical_Interface</text>
<text text-anchor="middle" x="166" y="-33" font-family="Helvetica,sans-Serif" font-size="10.00">_video_window</text>
</a>
</g>
<!-- Node1&#45;&gt;Node19 -->
<g id="edge46" class="edge"><title>Node1&#45;&gt;Node19</title>
<path fill="none" stroke="midnightblue" d="M71.3219,-91.2028C88.3949,-82.3302 109.467,-71.3791 127.395,-62.0626"/>
<polygon fill="midnightblue" stroke="midnightblue" points="69.5531,-88.1775 62.2938,-95.8946 72.7811,-94.3889 69.5531,-88.1775"/>
</g>
<!-- Node3 -->
<g id="node5" class="node"><title>Node3</title>
<a xlink:href="midi__13_8cpp.html#a6bedf9750195224914cd87c4e73ab626" target="_top" xlink:title="ventilate_midi_to_midiarray">
<polygon fill="white" stroke="black" points="256.5,-184 256.5,-208 391.5,-208 391.5,-184 256.5,-184"/>
<text text-anchor="middle" x="324" y="-195" font-family="Helvetica,sans-Serif" font-size="10.00">ventilate_midi_to_midiarray</text>
</a>
</g>
<!-- Node2&#45;&gt;Node3 -->
<g id="edge4" class="edge"><title>Node2&#45;&gt;Node3</title>
<path fill="none" stroke="midnightblue" d="M210.314,-179.451C224.595,-181.53 240.764,-183.883 256.333,-186.15"/>
<polygon fill="midnightblue" stroke="midnightblue" points="210.684,-175.968 200.284,-177.991 209.675,-182.895 210.684,-175.968"/>
</g>
<!-- Node4 -->
<g id="node7" class="node"><title>Node4</title>
<a xlink:href="midi__13_8cpp.html#afa49dd5668303c2448676c8243737c2d" target="_top" xlink:title="simulate_midi">
<polygon fill="white" stroke="black" points="451.5,-188 451.5,-212 528.5,-212 528.5,-188 451.5,-188"/>
<text text-anchor="middle" x="490" y="-199" font-family="Helvetica,sans-Serif" font-size="10.00">simulate_midi</text>
</a>
</g>
<!-- Node3&#45;&gt;Node4 -->
<g id="edge6" class="edge"><title>Node3&#45;&gt;Node4</title>
<path fill="none" stroke="midnightblue" d="M401.584,-197.869C418.778,-198.284 436.284,-198.706 451.133,-199.063"/>
<polygon fill="midnightblue" stroke="midnightblue" points="401.6,-194.369 391.519,-197.627 401.431,-201.367 401.6,-194.369"/>
</g>
<!-- Node5 -->
<g id="node9" class="node"><title>Node5</title>
<a xlink:href="arduino__core__6___u_n_o_8cpp.html#ae72d1a8d74d9ab5515962e03e7e664d6" target="_top" xlink:title="arduino_do_analog_in\l_whitecat">
<polygon fill="white" stroke="black" points="586,-238 586,-278 696,-278 696,-238 586,-238"/>
<text text-anchor="start" x="594" y="-265" font-family="Helvetica,sans-Serif" font-size="10.00">arduino_do_analog_in</text>
<text text-anchor="middle" x="641" y="-249" font-family="Helvetica,sans-Serif" font-size="10.00">_whitecat</text>
</a>
</g>
<!-- Node4&#45;&gt;Node5 -->
<g id="edge8" class="edge"><title>Node4&#45;&gt;Node5</title>
<path fill="none" stroke="midnightblue" d="M530.806,-215.674C548.61,-222.513 569.704,-230.615 588.646,-237.891"/>
<polygon fill="midnightblue" stroke="midnightblue" points="531.877,-212.336 521.287,-212.018 529.367,-218.871 531.877,-212.336"/>
</g>
<!-- Node8 -->
<g id="node15" class="node"><title>Node8</title>
<a xlink:href="arduino__core__6___u_n_o_8cpp.html#a219226c1cd6cc17c78e62fd4445bb445" target="_top" xlink:title="arduino_do_digital\l_in_whitecat">
<polygon fill="white" stroke="black" points="593.5,-180 593.5,-220 688.5,-220 688.5,-180 593.5,-180"/>
<text text-anchor="start" x="601.5" y="-207" font-family="Helvetica,sans-Serif" font-size="10.00">arduino_do_digital</text>
<text text-anchor="middle" x="641" y="-191" font-family="Helvetica,sans-Serif" font-size="10.00">_in_whitecat</text>
</a>
</g>
<!-- Node4&#45;&gt;Node8 -->
<g id="edge14" class="edge"><title>Node4&#45;&gt;Node8</title>
<path fill="none" stroke="midnightblue" d="M539.373,-200C556.712,-200 576.149,-200 593.344,-200"/>
<polygon fill="midnightblue" stroke="midnightblue" points="538.886,-196.5 528.886,-200 538.886,-203.5 538.886,-196.5"/>
</g>
<!-- Node6 -->
<g id="node11" class="node"><title>Node6</title>
<a xlink:href="_m_a_i_n__avec__objets_8cpp.html#ace9c8a9b37c6087c3cffef442d71d70e" target="_top" xlink:title="dixiemes_de_secondes">
<polygon fill="white" stroke="black" points="732.5,-188 732.5,-212 851.5,-212 851.5,-188 732.5,-188"/>
<text text-anchor="middle" x="792" y="-199" font-family="Helvetica,sans-Serif" font-size="10.00">dixiemes_de_secondes</text>
</a>
</g>
<!-- Node5&#45;&gt;Node6 -->
<g id="edge10" class="edge"><title>Node5&#45;&gt;Node6</title>
<path fill="none" stroke="midnightblue" d="M702.956,-234.202C722.704,-226.617 743.731,-218.54 760.39,-212.142"/>
<polygon fill="midnightblue" stroke="midnightblue" points="701.469,-231.024 693.389,-237.877 703.979,-237.559 701.469,-231.024"/>
</g>
<!-- Node7 -->
<g id="node13" class="node"><title>Node7</title>
<a xlink:href="_m_a_i_n__avec__objets_8cpp.html#ae66f6b31b5ad750f1fe042a706a4e3d4" target="_top" xlink:title="main">
<polygon fill="white" stroke="black" points="1050,-86 1050,-110 1088,-110 1088,-86 1050,-86"/>
<text text-anchor="middle" x="1069" y="-97" font-family="Helvetica,sans-Serif" font-size="10.00">main</text>
</a>
</g>
<!-- Node6&#45;&gt;Node7 -->
<g id="edge12" class="edge"><title>Node6&#45;&gt;Node7</title>
<path fill="none" stroke="midnightblue" d="M861.615,-193.955C907.121,-187.744 966.671,-175.211 1014,-150 1032.56,-140.115 1049.4,-122.274 1059.43,-110.283"/>
<polygon fill="midnightblue" stroke="midnightblue" points="861.011,-190.504 851.542,-195.259 861.909,-197.447 861.011,-190.504"/>
</g>
<!-- Node8&#45;&gt;Node6 -->
<g id="edge16" class="edge"><title>Node8&#45;&gt;Node6</title>
<path fill="none" stroke="midnightblue" d="M699.043,-200C709.948,-200 721.367,-200 732.321,-200"/>
<polygon fill="midnightblue" stroke="midnightblue" points="698.777,-196.5 688.777,-200 698.777,-203.5 698.777,-196.5"/>
</g>
<!-- Node9&#45;&gt;Node7 -->
<g id="edge20" class="edge"><title>Node9&#45;&gt;Node7</title>
<path fill="none" stroke="midnightblue" d="M209.896,-96.1214C223.899,-92.7104 239.52,-89.2967 254,-87 357.929,-70.5163 384.772,-68 490,-68 490,-68 490,-68 792,-68 889.469,-68 1005.11,-86.5862 1049.93,-94.4999"/>
<polygon fill="midnightblue" stroke="midnightblue" points="208.877,-92.7682 200.024,-98.5885 210.574,-99.5594 208.877,-92.7682"/>
</g>
<!-- Node10 -->
<g id="node21" class="node"><title>Node10</title>
<a xlink:href="save__show__13_8cpp.html#a1eafc1ecb75f36c1fe85c967bdea99b0" target="_top" xlink:title="load_the_show">
<polygon fill="white" stroke="black" points="283,-96 283,-120 365,-120 365,-96 283,-96"/>
<text text-anchor="middle" x="324" y="-107" font-family="Helvetica,sans-Serif" font-size="10.00">load_the_show</text>
</a>
</g>
<!-- Node9&#45;&gt;Node10 -->
<g id="edge22" class="edge"><title>Node9&#45;&gt;Node10</title>
<path fill="none" stroke="midnightblue" d="M210.346,-108C233.054,-108 260.527,-108 282.773,-108"/>
<polygon fill="midnightblue" stroke="midnightblue" points="210.284,-104.5 200.284,-108 210.284,-111.5 210.284,-104.5"/>
</g>
<!-- Node18 -->
<g id="node39" class="node"><title>Node18</title>
<a xlink:href="save__show__13_8cpp.html#a2c8ff847dfaf2dc6c8765b2bee26edfc" target="_top" xlink:title="do_wizard_reload_from_disk">
<polygon fill="white" stroke="black" points="254,-138 254,-162 394,-162 394,-138 254,-138"/>
<text text-anchor="middle" x="324" y="-149" font-family="Helvetica,sans-Serif" font-size="10.00">do_wizard_reload_from_disk</text>
</a>
</g>
<!-- Node9&#45;&gt;Node18 -->
<g id="edge42" class="edge"><title>Node9&#45;&gt;Node18</title>
<path fill="none" stroke="midnightblue" d="M210.09,-119.72C231.476,-125.405 257.136,-132.226 278.682,-137.953"/>
<polygon fill="midnightblue" stroke="midnightblue" points="210.847,-116.3 200.284,-117.113 209.049,-123.065 210.847,-116.3"/>
</g>
<!-- Node11 -->
<g id="node23" class="node"><title>Node11</title>
<a xlink:href="logicals__intres_8cpp.html#a74cf9c04c734ab342f88799efbfc4210" target="_top" xlink:title="operations_confirmation">
<polygon fill="white" stroke="black" points="430,-117 430,-141 550,-141 550,-117 430,-117"/>
<text text-anchor="middle" x="490" y="-128" font-family="Helvetica,sans-Serif" font-size="10.00">operations_confirmation</text>
</a>
</g>
<!-- Node10&#45;&gt;Node11 -->
<g id="edge24" class="edge"><title>Node10&#45;&gt;Node11</title>
<path fill="none" stroke="midnightblue" d="M375.422,-114.505C392.599,-116.678 411.896,-119.119 429.687,-121.37"/>
<polygon fill="midnightblue" stroke="midnightblue" points="375.394,-110.974 365.034,-113.191 374.515,-117.918 375.394,-110.974"/>
</g>
<!-- Node12 -->
<g id="node25" class="node"><title>Node12</title>
<a xlink:href="keyboard__functions2_8cpp.html#a548548066307f816c5021de7d6e4f26a" target="_top" xlink:title="key_affectation">
<polygon fill="white" stroke="black" points="599.5,-96 599.5,-120 682.5,-120 682.5,-96 599.5,-96"/>
<text text-anchor="middle" x="641" y="-107" font-family="Helvetica,sans-Serif" font-size="10.00">key_affectation</text>
</a>
</g>
<!-- Node11&#45;&gt;Node12 -->
<g id="edge26" class="edge"><title>Node11&#45;&gt;Node12</title>
<path fill="none" stroke="midnightblue" d="M560.235,-119.232C573.563,-117.379 587.112,-115.494 599.207,-113.812"/>
<polygon fill="midnightblue" stroke="midnightblue" points="559.536,-115.796 550.113,-120.64 560.5,-122.729 559.536,-115.796"/>
</g>
<!-- Node15 -->
<g id="node32" class="node"><title>Node15</title>
<a xlink:href="logicals__intres_8cpp.html#a85967c22135715eca94d08af2ec1a1fb" target="_top" xlink:title="fenetre_confirm">
<polygon fill="white" stroke="black" points="599,-138 599,-162 683,-162 683,-138 599,-138"/>
<text text-anchor="middle" x="641" y="-149" font-family="Helvetica,sans-Serif" font-size="10.00">fenetre_confirm</text>
</a>
</g>
<!-- Node11&#45;&gt;Node15 -->
<g id="edge34" class="edge"><title>Node11&#45;&gt;Node15</title>
<path fill="none" stroke="midnightblue" d="M560.133,-138.754C573.327,-140.589 586.741,-142.454 598.751,-144.124"/>
<polygon fill="midnightblue" stroke="midnightblue" points="560.5,-135.271 550.113,-137.36 559.536,-142.204 560.5,-135.271"/>
</g>
<!-- Node13 -->
<g id="node27" class="node"><title>Node13</title>
<a xlink:href="keyboard__routines2_8cpp.html#a8563320b8eab661232619224650de244" target="_top" xlink:title="commandes_clavier">
<polygon fill="white" stroke="black" points="740,-96 740,-120 844,-120 844,-96 740,-96"/>
<text text-anchor="middle" x="792" y="-107" font-family="Helvetica,sans-Serif" font-size="10.00">commandes_clavier</text>
</a>
</g>
<!-- Node12&#45;&gt;Node13 -->
<g id="edge28" class="edge"><title>Node12&#45;&gt;Node13</title>
<path fill="none" stroke="midnightblue" d="M692.925,-108C708.128,-108 724.749,-108 739.959,-108"/>
<polygon fill="midnightblue" stroke="midnightblue" points="692.661,-104.5 682.661,-108 692.661,-111.5 692.661,-104.5"/>
</g>
<!-- Node14 -->
<g id="node29" class="node"><title>Node14</title>
<a xlink:href="_m_a_i_n__avec__objets_8cpp.html#a8e80f54ac804eddce8ed6e45adb1db44" target="_top" xlink:title="ticker_full_loop">
<polygon fill="white" stroke="black" points="910,-16 910,-40 992,-40 992,-16 910,-16"/>
<text text-anchor="middle" x="951" y="-27" font-family="Helvetica,sans-Serif" font-size="10.00">ticker_full_loop</text>
</a>
</g>
<!-- Node13&#45;&gt;Node14 -->
<g id="edge30" class="edge"><title>Node13&#45;&gt;Node14</title>
<path fill="none" stroke="midnightblue" d="M825.121,-91.3355C855.587,-76.0063 900.029,-53.6459 927.145,-40.0025"/>
<polygon fill="midnightblue" stroke="midnightblue" points="823.509,-88.2285 816.149,-95.8497 826.655,-94.4816 823.509,-88.2285"/>
</g>
<!-- Node14&#45;&gt;Node7 -->
<g id="edge32" class="edge"><title>Node14&#45;&gt;Node7</title>
<path fill="none" stroke="midnightblue" d="M994.78,-44.1721C1001.37,-47.145 1007.97,-50.4448 1014,-54 1029.38,-63.0727 1045.1,-76.1081 1055.78,-85.6353"/>
<polygon fill="midnightblue" stroke="midnightblue" points="995.769,-40.7875 985.199,-40.0589 993.007,-47.2198 995.769,-40.7875"/>
</g>
<!-- Node16 -->
<g id="node34" class="node"><title>Node16</title>
<a xlink:href="graphics__rebuild1_8cpp.html#ac2eae1e03fb72cc734ffbcef566483bf" target="_top" xlink:title="Boxes">
<polygon fill="white" stroke="black" points="770,-138 770,-162 814,-162 814,-138 770,-138"/>
<text text-anchor="middle" x="792" y="-149" font-family="Helvetica,sans-Serif" font-size="10.00">Boxes</text>
</a>
</g>
<!-- Node15&#45;&gt;Node16 -->
<g id="edge36" class="edge"><title>Node15&#45;&gt;Node16</title>
<path fill="none" stroke="midnightblue" d="M693.226,-150C719.382,-150 749.668,-150 769.737,-150"/>
<polygon fill="midnightblue" stroke="midnightblue" points="693.062,-146.5 683.062,-150 693.062,-153.5 693.062,-146.5"/>
</g>
<!-- Node17 -->
<g id="node36" class="node"><title>Node17</title>
<a xlink:href="_m_a_i_n__avec__objets_8cpp.html#ade8d4ba65d55c94f8ee277829d722155" target="_top" xlink:title="main_actions_on_screen">
<polygon fill="white" stroke="black" points="888.5,-117 888.5,-141 1013.5,-141 1013.5,-117 888.5,-117"/>
<text text-anchor="middle" x="951" y="-128" font-family="Helvetica,sans-Serif" font-size="10.00">main_actions_on_screen</text>
</a>
</g>
<!-- Node16&#45;&gt;Node17 -->
<g id="edge38" class="edge"><title>Node16&#45;&gt;Node17</title>
<path fill="none" stroke="midnightblue" d="M824.277,-145.737C842.676,-143.307 866.369,-140.178 888.28,-137.284"/>
<polygon fill="midnightblue" stroke="midnightblue" points="823.564,-142.301 814.108,-147.08 824.48,-149.24 823.564,-142.301"/>
</g>
<!-- Node17&#45;&gt;Node7 -->
<g id="edge40" class="edge"><title>Node17&#45;&gt;Node7</title>
<path fill="none" stroke="midnightblue" d="M1006.99,-114.29C1022.39,-110.244 1038.06,-106.127 1049.8,-103.044"/>
<polygon fill="midnightblue" stroke="midnightblue" points="1005.74,-111 996.96,-116.926 1007.52,-117.77 1005.74,-111"/>
</g>
<!-- Node18&#45;&gt;Node11 -->
<g id="edge44" class="edge"><title>Node18&#45;&gt;Node11</title>
<path fill="none" stroke="midnightblue" d="M404.451,-139.822C413.047,-138.735 421.679,-137.643 429.979,-136.593"/>
<polygon fill="midnightblue" stroke="midnightblue" points="403.881,-136.367 394.399,-141.094 404.759,-143.311 403.881,-136.367"/>
</g>
<!-- Node20 -->
<g id="node44" class="node"><title>Node20</title>
<a xlink:href="procs__visuels__rebuild1_8cpp.html#ae710b6e599e321ad5934a90140067054" target="_top" xlink:title="check_graphics_mouse\l_handling">
<polygon fill="white" stroke="black" points="430.5,-0 430.5,-40 549.5,-40 549.5,-0 430.5,-0"/>
<text text-anchor="start" x="438.5" y="-27" font-family="Helvetica,sans-Serif" font-size="10.00">check_graphics_mouse</text>
<text text-anchor="middle" x="490" y="-11" font-family="Helvetica,sans-Serif" font-size="10.00">_handling</text>
</a>
</g>
<!-- Node19&#45;&gt;Node20 -->
<g id="edge48" class="edge"><title>Node19&#45;&gt;Node20</title>
<path fill="none" stroke="midnightblue" d="M228.234,-37.7742C286.501,-33.8178 372.966,-27.9468 430.373,-24.0488"/>
<polygon fill="midnightblue" stroke="midnightblue" points="227.796,-34.2958 218.056,-38.4653 228.27,-41.2797 227.796,-34.2958"/>
</g>
<!-- Node20&#45;&gt;Node14 -->
<g id="edge50" class="edge"><title>Node20&#45;&gt;Node14</title>
<path fill="none" stroke="midnightblue" d="M559.839,-21.212C657.203,-22.9016 830.657,-25.9116 909.701,-27.2833"/>
<polygon fill="midnightblue" stroke="midnightblue" points="559.854,-17.7118 549.795,-21.0377 559.733,-24.7107 559.854,-17.7118"/>
</g>
</g>
</svg>
        <g id="navigator" transform="translate(0 0)" fill="#404254">
                <rect fill="#f2f5e9" fill-opacity="0.5" stroke="#606060" stroke-width=".5" x="0" y="0" width="60" height="60"/>
                <use id="zoomplus" xlink:href="#zoomPlus" x="17" y="9" onmousedown="handleZoom(evt,'in')"/>
                <use id="zoomminus" xlink:href="#zoomMin" x="42" y="9" onmousedown="handleZoom(evt,'out')"/>
                <use id="reset" xlink:href="#resetDef" x="30" y="36" onmousedown="handleReset()"/>
                <g id="arrowUp" xlink:href="#dirArrow" transform="translate(30 24)" onmousedown="handlePan(0,-1)">
                  <use xlink:href="#rim" fill="#404040">
                        <set attributeName="fill" to="#808080" begin="arrowUp.mouseover" end="arrowUp.mouseout"/>
                  </use>
                  <path fill="none" stroke="white" stroke-width="1.5" d="M0,-3.0v7 M-2.5,-0.5L0,-3.0L2.5,-0.5"/>
                </g>
                <g id="arrowRight" xlink:href="#dirArrow" transform="rotate(90) translate(36 -43)" onmousedown="handlePan(1,0)">
                  <use xlink:href="#rim" fill="#404040">
                        <set attributeName="fill" to="#808080" begin="arrowRight.mouseover" end="arrowRight.mouseout"/>
                  </use>
                  <path fill="none" stroke="white" stroke-width="1.5" d="M0,-3.0v7 M-2.5,-0.5L0,-3.0L2.5,-0.5"/>
                </g>
                <g id="arrowDown" xlink:href="#dirArrow" transform="rotate(180) translate(-30 -48)" onmousedown="handlePan(0,1)">
                  <use xlink:href="#rim" fill="#404040">
                        <set attributeName="fill" to="#808080" begin="arrowDown.mouseover" end="arrowDown.mouseout"/>
                  </use>
                  <path fill="none" stroke="white" stroke-width="1.5" d="M0,-3.0v7 M-2.5,-0.5L0,-3.0L2.5,-0.5"/>
                </g>
                <g id="arrowLeft" xlink:href="#dirArrow" transform="rotate(270) translate(-36 17)" onmousedown="handlePan(-1,0)">
                  <use xlink:href="#rim" fill="#404040">
                        <set attributeName="fill" to="#808080" begin="arrowLeft.mouseover" end="arrowLeft.mouseout"/>
                  </use>
                  <path fill="none" stroke="white" stroke-width="1.5" d="M0,-3.0v7 M-2.5,-0.5L0,-3.0L2.5,-0.5"/>
                </g>
        </g>
        <svg viewBox="0 0 15 15" width="100%" height="30px" preserveAspectRatio="xMaxYMin meet">
         <g id="arrow_out" transform="scale(0.3 0.3)">
          <a xlink:href="_c_o_r_e__6_8cpp_ae128452d6884960c1b69f7217cbbf577_icgraph_org.svg" target="_base">
           <rect id="button" ry="5" rx="5" y="6" x="6" height="38" width="38"
                fill="#f2f5e9" fill-opacity="0.5" stroke="#606060" stroke-width="1.0"/>
           <path id="arrow"
             d="M 11.500037,31.436501 C 11.940474,20.09759 22.043105,11.32322 32.158766,21.979434 L 37.068811,17.246167 C 37.068811,17.246167 37.088388,32 37.088388,32 L 22.160133,31.978069 C 22.160133,31.978069 26.997745,27.140456 26.997745,27.140456 C 18.528582,18.264221 13.291696,25.230495 11.500037,31.436501 z"
             style="fill:#404040;"/>
          </a>
         </g>
        </svg>
</svg>
