<?xml version="1.0" encoding="UTF-8" standalone="no"?>
<!DOCTYPE svg PUBLIC "-//W3C//DTD SVG 1.1//EN"
 "http://www.w3.org/Graphics/SVG/1.1/DTD/svg11.dtd">
<!-- Generated by graphviz version 2.26.3 (20100126.1600)
 -->
<!-- Title: set_to_default_this_tracker Pages: 1 -->
<!--zoomable 119 -->
<svg id="main" version="1.1" xmlns="http://www.w3.org/2000/svg" xmlns:xlink="http://www.w3.org/1999/xlink" xml:space="preserve" onload="init(evt)">
<style type="text/css"><![CDATA[
.edge:hover path { stroke: red; }
.edge:hover polygon { stroke: red; fill: red; }
]]></style>
<script type="text/javascript"><![CDATA[
var edges = document.getElementsByTagName('g');
if (edges && edges.length) {
  for (var i=0;i<edges.length;i++) {
    if (edges[i].id.substr(0,4)=='edge') {
      edges[i].setAttribute('class','edge');
    }
  }
}
]]></script>
        <defs>
                <circle id="rim" cx="0" cy="0" r="7"/>
                <circle id="rim2" cx="0" cy="0" r="3.5"/>
                <g id="zoomPlus">
                        <use xlink:href="#rim" fill="#404040">
                                <set attributeName="fill" to="#808080" begin="zoomplus.mouseover" end="zoomplus.mouseout"/>
                        </use>
                        <path d="M-4,0h8M0,-4v8" fill="none" stroke="white" stroke-width="1.5" pointer-events="none"/>
                </g>
                <g id="zoomMin">
                        <use xlink:href="#rim" fill="#404040">
                                <set attributeName="fill" to="#808080" begin="zoomminus.mouseover" end="zoomminus.mouseout"/>
                        </use>
                        <path d="M-4,0h8" fill="none" stroke="white" stroke-width="1.5" pointer-events="none"/>
                </g>
                <g id="dirArrow">
                        <path fill="none" stroke="white" stroke-width="1.5" d="M0,-3.0v7 M-2.5,-0.5L0,-3.0L2.5,-0.5"/>
                </g>
               <g id="resetDef">
                       <use xlink:href="#rim2" fill="#404040">
                               <set attributeName="fill" to="#808080" begin="reset.mouseover" end="reset.mouseout"/>
                       </use>
               </g>
        </defs>

<script type="text/javascript">
var viewWidth = 950;
var viewHeight = 119;
var sectionId = 'dynsection-206';
</script>
<script xlink:href="svgpan.js"/>
<svg id="graph" class="graph">
<g id="viewport">
<title>set_to_default_this_tracker</title>
<polygon fill="white" stroke="white" points="-4,5 -4,-114.503 947,-114.503 947,5 -4,5"/>
<!-- Node1 -->
<g id="node1" class="node"><title>Node1</title>
<polygon fill="#bfbfbf" stroke="black" points="0.5,-0 0.5,-40 99.5,-40 99.5,-0 0.5,-0"/>
<text text-anchor="start" x="8.5" y="-27" font-family="Helvetica,sans-Serif" font-size="10.00">set_to_default_this</text>
<text text-anchor="middle" x="50" y="-11" font-family="Helvetica,sans-Serif" font-size="10.00">_tracker</text>
</g>
<!-- Node2 -->
<g id="node3" class="node"><title>Node2</title>
<a xlink:href="_c_o_r_e__6_8cpp.html#a5e53dc8ef589fe38b9d40e3497ac3f13" target="_top" xlink:title="GlobInit">
<polygon fill="white" stroke="black" points="136,-38 136,-62 186,-62 186,-38 136,-38"/>
<text text-anchor="middle" x="161" y="-49" font-family="Helvetica,sans-Serif" font-size="10.00">GlobInit</text>
</a>
</g>
<!-- Node1&#45;&gt;Node2 -->
<g id="edge2" class="edge"><title>Node1&#45;&gt;Node2</title>
<path fill="none" stroke="midnightblue" d="M109.425,-36.0607C118.79,-38.5918 128.005,-41.0824 135.996,-43.2423"/>
<polygon fill="midnightblue" stroke="midnightblue" points="110.223,-32.651 99.6561,-33.4206 108.397,-39.4085 110.223,-32.651"/>
</g>
<!-- Node4 -->
<g id="node7" class="node"><title>Node4</title>
<a xlink:href="logicals__intres_8cpp.html#a74cf9c04c734ab342f88799efbfc4210" target="_top" xlink:title="operations_confirmation">
<polygon fill="white" stroke="black" points="326,-17 326,-41 446,-41 446,-17 326,-17"/>
<text text-anchor="middle" x="386" y="-28" font-family="Helvetica,sans-Serif" font-size="10.00">operations_confirmation</text>
</a>
</g>
<!-- Node1&#45;&gt;Node4 -->
<g id="edge28" class="edge"><title>Node1&#45;&gt;Node4</title>
<path fill="none" stroke="midnightblue" d="M109.819,-21.6023C170.817,-23.2362 264.924,-25.7569 325.99,-27.3926"/>
<polygon fill="midnightblue" stroke="midnightblue" points="109.668,-18.0971 99.578,-21.328 109.481,-25.0946 109.668,-18.0971"/>
</g>
<!-- Node3 -->
<g id="node5" class="node"><title>Node3</title>
<a xlink:href="_c_o_r_e__6_8cpp.html#a29400ad92b676ecb7743384700af5560" target="_top" xlink:title="reset_show">
<polygon fill="white" stroke="black" points="222.5,-57 222.5,-81 289.5,-81 289.5,-57 222.5,-57"/>
<text text-anchor="middle" x="256" y="-68" font-family="Helvetica,sans-Serif" font-size="10.00">reset_show</text>
</a>
</g>
<!-- Node2&#45;&gt;Node3 -->
<g id="edge4" class="edge"><title>Node2&#45;&gt;Node3</title>
<path fill="none" stroke="midnightblue" d="M196.419,-57.0838C204.872,-58.7744 213.872,-60.5744 222.247,-62.2495"/>
<polygon fill="midnightblue" stroke="midnightblue" points="196.95,-53.6209 186.458,-55.0917 195.578,-60.4849 196.95,-53.6209"/>
</g>
<!-- Node2&#45;&gt;Node4 -->
<g id="edge24" class="edge"><title>Node2&#45;&gt;Node4</title>
<path fill="none" stroke="midnightblue" d="M196.48,-46.6885C231.093,-43.458 284.413,-38.4815 325.69,-34.6289"/>
<polygon fill="midnightblue" stroke="midnightblue" points="196.004,-43.2176 186.373,-47.6319 196.655,-50.1873 196.004,-43.2176"/>
</g>
<!-- Node8 -->
<g id="node15" class="node"><title>Node8</title>
<a xlink:href="_m_a_i_n__avec__objets_8cpp.html#ae66f6b31b5ad750f1fe042a706a4e3d4" target="_top" xlink:title="main">
<polygon fill="white" stroke="black" points="904,-57 904,-81 942,-81 942,-57 904,-57"/>
<text text-anchor="middle" x="923" y="-68" font-family="Helvetica,sans-Serif" font-size="10.00">main</text>
</a>
</g>
<!-- Node2&#45;&gt;Node8 -->
<g id="edge26" class="edge"><title>Node2&#45;&gt;Node8</title>
<path fill="none" stroke="midnightblue" d="M183.612,-68.4761C194.56,-76.4289 208.284,-85.0265 222,-90 290.981,-115.014 312.624,-109 386,-109 386,-109 386,-109 654,-109 749.485,-109 774.957,-111.456 868,-90 880.25,-87.175 893.426,-82.2168 903.809,-77.8274"/>
<polygon fill="midnightblue" stroke="midnightblue" points="185.566,-65.5651 175.481,-62.3179 181.34,-71.1454 185.566,-65.5651"/>
</g>
<!-- Node3&#45;&gt;Node4 -->
<g id="edge6" class="edge"><title>Node3&#45;&gt;Node4</title>
<path fill="none" stroke="midnightblue" d="M299.565,-55.5955C314.852,-50.8918 331.92,-45.64 346.825,-41.0539"/>
<polygon fill="midnightblue" stroke="midnightblue" points="298.345,-52.3087 289.817,-58.5949 300.404,-58.9992 298.345,-52.3087"/>
</g>
<!-- Node5 -->
<g id="node9" class="node"><title>Node5</title>
<a xlink:href="keyboard__functions2_8cpp.html#a548548066307f816c5021de7d6e4f26a" target="_top" xlink:title="key_affectation">
<polygon fill="white" stroke="black" points="482.5,-57 482.5,-81 565.5,-81 565.5,-57 482.5,-57"/>
<text text-anchor="middle" x="524" y="-68" font-family="Helvetica,sans-Serif" font-size="10.00">key_affectation</text>
</a>
</g>
<!-- Node4&#45;&gt;Node5 -->
<g id="edge8" class="edge"><title>Node4&#45;&gt;Node5</title>
<path fill="none" stroke="midnightblue" d="M437.396,-43.8975C452.147,-48.1729 468.047,-52.7817 482.148,-56.8689"/>
<polygon fill="midnightblue" stroke="midnightblue" points="437.984,-40.4237 427.405,-41.0013 436.035,-47.147 437.984,-40.4237"/>
</g>
<!-- Node9 -->
<g id="node17" class="node"><title>Node9</title>
<a xlink:href="logicals__intres_8cpp.html#a85967c22135715eca94d08af2ec1a1fb" target="_top" xlink:title="fenetre_confirm">
<polygon fill="white" stroke="black" points="482,-15 482,-39 566,-39 566,-15 482,-15"/>
<text text-anchor="middle" x="524" y="-26" font-family="Helvetica,sans-Serif" font-size="10.00">fenetre_confirm</text>
</a>
</g>
<!-- Node4&#45;&gt;Node9 -->
<g id="edge16" class="edge"><title>Node4&#45;&gt;Node9</title>
<path fill="none" stroke="midnightblue" d="M456.354,-27.9804C465.083,-27.8539 473.783,-27.7278 481.896,-27.6102"/>
<polygon fill="midnightblue" stroke="midnightblue" points="456.076,-24.4839 446.127,-28.1286 456.177,-31.4832 456.076,-24.4839"/>
</g>
<!-- Node6 -->
<g id="node11" class="node"><title>Node6</title>
<a xlink:href="keyboard__routines2_8cpp.html#a8563320b8eab661232619224650de244" target="_top" xlink:title="commandes_clavier">
<polygon fill="white" stroke="black" points="602,-57 602,-81 706,-81 706,-57 602,-57"/>
<text text-anchor="middle" x="654" y="-68" font-family="Helvetica,sans-Serif" font-size="10.00">commandes_clavier</text>
</a>
</g>
<!-- Node5&#45;&gt;Node6 -->
<g id="edge10" class="edge"><title>Node5&#45;&gt;Node6</title>
<path fill="none" stroke="midnightblue" d="M575.995,-69C584.473,-69 593.258,-69 601.742,-69"/>
<polygon fill="midnightblue" stroke="midnightblue" points="575.848,-65.5001 565.848,-69 575.848,-72.5001 575.848,-65.5001"/>
</g>
<!-- Node7 -->
<g id="node13" class="node"><title>Node7</title>
<a xlink:href="_m_a_i_n__avec__objets_8cpp.html#a8e80f54ac804eddce8ed6e45adb1db44" target="_top" xlink:title="ticker_full_loop">
<polygon fill="white" stroke="black" points="764,-57 764,-81 846,-81 846,-57 764,-57"/>
<text text-anchor="middle" x="805" y="-68" font-family="Helvetica,sans-Serif" font-size="10.00">ticker_full_loop</text>
</a>
</g>
<!-- Node6&#45;&gt;Node7 -->
<g id="edge12" class="edge"><title>Node6&#45;&gt;Node7</title>
<path fill="none" stroke="midnightblue" d="M716.664,-69C732.516,-69 749.147,-69 763.648,-69"/>
<polygon fill="midnightblue" stroke="midnightblue" points="716.389,-65.5001 706.389,-69 716.389,-72.5001 716.389,-65.5001"/>
</g>
<!-- Node7&#45;&gt;Node8 -->
<g id="edge14" class="edge"><title>Node7&#45;&gt;Node8</title>
<path fill="none" stroke="midnightblue" d="M856.55,-69C873.307,-69 890.879,-69 903.742,-69"/>
<polygon fill="midnightblue" stroke="midnightblue" points="856.271,-65.5001 846.271,-69 856.271,-72.5001 856.271,-65.5001"/>
</g>
<!-- Node10 -->
<g id="node19" class="node"><title>Node10</title>
<a xlink:href="graphics__rebuild1_8cpp.html#ac2eae1e03fb72cc734ffbcef566483bf" target="_top" xlink:title="Boxes">
<polygon fill="white" stroke="black" points="632,-15 632,-39 676,-39 676,-15 632,-15"/>
<text text-anchor="middle" x="654" y="-26" font-family="Helvetica,sans-Serif" font-size="10.00">Boxes</text>
</a>
</g>
<!-- Node9&#45;&gt;Node10 -->
<g id="edge18" class="edge"><title>Node9&#45;&gt;Node10</title>
<path fill="none" stroke="midnightblue" d="M576.4,-27C595.658,-27 616.45,-27 631.66,-27"/>
<polygon fill="midnightblue" stroke="midnightblue" points="576.207,-23.5001 566.207,-27 576.207,-30.5001 576.207,-23.5001"/>
</g>
<!-- Node11 -->
<g id="node21" class="node"><title>Node11</title>
<a xlink:href="_m_a_i_n__avec__objets_8cpp.html#ade8d4ba65d55c94f8ee277829d722155" target="_top" xlink:title="main_actions_on_screen">
<polygon fill="white" stroke="black" points="742.5,-15 742.5,-39 867.5,-39 867.5,-15 742.5,-15"/>
<text text-anchor="middle" x="805" y="-26" font-family="Helvetica,sans-Serif" font-size="10.00">main_actions_on_screen</text>
</a>
</g>
<!-- Node10&#45;&gt;Node11 -->
<g id="edge20" class="edge"><title>Node10&#45;&gt;Node11</title>
<path fill="none" stroke="midnightblue" d="M686.395,-27C702.76,-27 723.187,-27 742.455,-27"/>
<polygon fill="midnightblue" stroke="midnightblue" points="686.281,-23.5001 676.281,-27 686.281,-30.5001 686.281,-23.5001"/>
</g>
<!-- Node11&#45;&gt;Node8 -->
<g id="edge22" class="edge"><title>Node11&#45;&gt;Node8</title>
<path fill="none" stroke="midnightblue" d="M851.823,-42.359C857.288,-44.2254 862.775,-46.1327 868,-48 880.031,-52.2997 893.426,-57.4073 903.985,-61.5087"/>
<polygon fill="midnightblue" stroke="midnightblue" points="852.663,-38.9485 842.069,-39.0613 850.421,-45.5797 852.663,-38.9485"/>
</g>
</g>
</svg>
        <g id="navigator" transform="translate(0 0)" fill="#404254">
                <rect fill="#f2f5e9" fill-opacity="0.5" stroke="#606060" stroke-width=".5" x="0" y="0" width="60" height="60"/>
                <use id="zoomplus" xlink:href="#zoomPlus" x="17" y="9" onmousedown="handleZoom(evt,'in')"/>
                <use id="zoomminus" xlink:href="#zoomMin" x="42" y="9" onmousedown="handleZoom(evt,'out')"/>
                <use id="reset" xlink:href="#resetDef" x="30" y="36" onmousedown="handleReset()"/>
                <g id="arrowUp" xlink:href="#dirArrow" transform="translate(30 24)" onmousedown="handlePan(0,-1)">
                  <use xlink:href="#rim" fill="#404040">
                        <set attributeName="fill" to="#808080" begin="arrowUp.mouseover" end="arrowUp.mouseout"/>
                  </use>
                  <path fill="none" stroke="white" stroke-width="1.5" d="M0,-3.0v7 M-2.5,-0.5L0,-3.0L2.5,-0.5"/>
                </g>
                <g id="arrowRight" xlink:href="#dirArrow" transform="rotate(90) translate(36 -43)" onmousedown="handlePan(1,0)">
                  <use xlink:href="#rim" fill="#404040">
                        <set attributeName="fill" to="#808080" begin="arrowRight.mouseover" end="arrowRight.mouseout"/>
                  </use>
                  <path fill="none" stroke="white" stroke-width="1.5" d="M0,-3.0v7 M-2.5,-0.5L0,-3.0L2.5,-0.5"/>
                </g>
                <g id="arrowDown" xlink:href="#dirArrow" transform="rotate(180) translate(-30 -48)" onmousedown="handlePan(0,1)">
                  <use xlink:href="#rim" fill="#404040">
                        <set attributeName="fill" to="#808080" begin="arrowDown.mouseover" end="arrowDown.mouseout"/>
                  </use>
                  <path fill="none" stroke="white" stroke-width="1.5" d="M0,-3.0v7 M-2.5,-0.5L0,-3.0L2.5,-0.5"/>
                </g>
                <g id="arrowLeft" xlink:href="#dirArrow" transform="rotate(270) translate(-36 17)" onmousedown="handlePan(-1,0)">
                  <use xlink:href="#rim" fill="#404040">
                        <set attributeName="fill" to="#808080" begin="arrowLeft.mouseover" end="arrowLeft.mouseout"/>
                  </use>
                  <path fill="none" stroke="white" stroke-width="1.5" d="M0,-3.0v7 M-2.5,-0.5L0,-3.0L2.5,-0.5"/>
                </g>
        </g>
        <svg viewBox="0 0 15 15" width="100%" height="30px" preserveAspectRatio="xMaxYMin meet">
         <g id="arrow_out" transform="scale(0.3 0.3)">
          <a xlink:href="_c_o_r_e__6_8cpp_ac213523db01c42c66b07a4bbb6f7f596_icgraph_org.svg" target="_base">
           <rect id="button" ry="5" rx="5" y="6" x="6" height="38" width="38"
                fill="#f2f5e9" fill-opacity="0.5" stroke="#606060" stroke-width="1.0"/>
           <path id="arrow"
             d="M 11.500037,31.436501 C 11.940474,20.09759 22.043105,11.32322 32.158766,21.979434 L 37.068811,17.246167 C 37.068811,17.246167 37.088388,32 37.088388,32 L 22.160133,31.978069 C 22.160133,31.978069 26.997745,27.140456 26.997745,27.140456 C 18.528582,18.264221 13.291696,25.230495 11.500037,31.436501 z"
             style="fill:#404040;"/>
          </a>
         </g>
        </svg>
</svg>
