<?xml version="1.0" encoding="UTF-8" standalone="no"?>
<!DOCTYPE svg PUBLIC "-//W3C//DTD SVG 1.1//EN"
 "http://www.w3.org/Graphics/SVG/1.1/DTD/svg11.dtd">
<!-- Generated by graphviz version 2.26.3 (20100126.1600)
 -->
<!-- Title: build_preset_view_from_all_existing_mems_and_faders Pages: 1 -->
<svg width="452pt" height="128pt"
 viewBox="0.00 0.00 452.00 128.00" xmlns="http://www.w3.org/2000/svg" xmlns:xlink="http://www.w3.org/1999/xlink">
<g id="graph1" class="graph" transform="scale(1 1) rotate(0) translate(4 124)">
<title>build_preset_view_from_all_existing_mems_and_faders</title>
<polygon fill="white" stroke="white" points="-4,5 -4,-124 449,-124 449,5 -4,5"/>
<!-- Node1 -->
<g id="node1" class="node"><title>Node1</title>
<polygon fill="#bfbfbf" stroke="black" points="0,-40 0,-96 124,-96 124,-40 0,-40"/>
<text text-anchor="start" x="8" y="-83" font-family="Helvetica,sans-Serif" font-size="10.00">build_preset_view_from</text>
<text text-anchor="start" x="8" y="-67" font-family="Helvetica,sans-Serif" font-size="10.00">_all_existing_mems_and</text>
<text text-anchor="middle" x="62" y="-51" font-family="Helvetica,sans-Serif" font-size="10.00">_faders</text>
</g>
<!-- Node2 -->
<g id="node3" class="node"><title>Node2</title>
<a xlink:href="_c_o_r_e__6_8cpp.html#ab88648bb253532281d1c58fb9647290a" target="_top" xlink:title="clear_selection_in">
<polygon fill="white" stroke="black" points="168.5,-96 168.5,-120 263.5,-120 263.5,-96 168.5,-96"/>
<text text-anchor="middle" x="216" y="-107" font-family="Helvetica,sans-Serif" font-size="10.00">clear_selection_in</text>
</a>
</g>
<!-- Node1&#45;&gt;Node2 -->
<g id="edge2" class="edge"><title>Node1&#45;&gt;Node2</title>
<path fill="none" stroke="midnightblue" d="M124.194,-84.1542C135.945,-87.2064 148.174,-90.3827 159.729,-93.3843"/>
<polygon fill="midnightblue" stroke="midnightblue" points="159.124,-96.843 169.682,-95.9694 160.883,-90.0678 159.124,-96.843"/>
</g>
<!-- Node3 -->
<g id="node5" class="node"><title>Node3</title>
<a xlink:href="_c_o_r_e__6_8cpp.html#a39a8fa0905933794d58438ac52b93a76" target="_top" xlink:title="count_number_of_channels\l_in_view">
<polygon fill="white" stroke="black" points="308,-68 308,-108 444,-108 444,-68 308,-68"/>
<text text-anchor="start" x="316" y="-95" font-family="Helvetica,sans-Serif" font-size="10.00">count_number_of_channels</text>
<text text-anchor="middle" x="376" y="-79" font-family="Helvetica,sans-Serif" font-size="10.00">_in_view</text>
</a>
</g>
<!-- Node1&#45;&gt;Node3 -->
<g id="edge6" class="edge"><title>Node1&#45;&gt;Node3</title>
<path fill="none" stroke="midnightblue" d="M124.036,-71.9514C173.821,-75.1223 244.012,-79.5931 297.67,-83.0108"/>
<polygon fill="midnightblue" stroke="midnightblue" points="297.627,-86.5151 307.829,-83.6579 298.072,-79.5292 297.627,-86.5151"/>
</g>
<!-- Node4 -->
<g id="node8" class="node"><title>Node4</title>
<a xlink:href="_c_o_r_e__6_8cpp.html#a8ba74bfea445389fb44b94246338b465" target="_top" xlink:title="reorder_channel_view\l_list_of_channels">
<polygon fill="white" stroke="black" points="160.5,-0 160.5,-40 271.5,-40 271.5,-0 160.5,-0"/>
<text text-anchor="start" x="168.5" y="-27" font-family="Helvetica,sans-Serif" font-size="10.00">reorder_channel_view</text>
<text text-anchor="middle" x="216" y="-11" font-family="Helvetica,sans-Serif" font-size="10.00">_list_of_channels</text>
</a>
</g>
<!-- Node1&#45;&gt;Node4 -->
<g id="edge8" class="edge"><title>Node1&#45;&gt;Node4</title>
<path fill="none" stroke="midnightblue" d="M124.194,-48.6149C132.806,-45.9305 141.676,-43.166 150.349,-40.4627"/>
<polygon fill="midnightblue" stroke="midnightblue" points="151.528,-43.7614 160.033,-37.4442 149.445,-37.0785 151.528,-43.7614"/>
</g>
<!-- Node2&#45;&gt;Node3 -->
<g id="edge4" class="edge"><title>Node2&#45;&gt;Node3</title>
<path fill="none" stroke="midnightblue" d="M263.572,-102.053C274.33,-100.709 286.03,-99.2462 297.683,-97.7897"/>
<polygon fill="midnightblue" stroke="midnightblue" points="298.397,-101.228 307.885,-96.5143 297.529,-94.2818 298.397,-101.228"/>
</g>
</g>
</svg>
