<?xml version="1.0" encoding="UTF-8" standalone="no"?>
<!DOCTYPE svg PUBLIC "-//W3C//DTD SVG 1.1//EN"
 "http://www.w3.org/Graphics/SVG/1.1/DTD/svg11.dtd">
<!-- Generated by graphviz version 2.26.3 (20100126.1600)
 -->
<!-- Title: FunctionBoxChannel Pages: 1 -->
<svg width="432pt" height="32pt"
 viewBox="0.00 0.00 432.00 32.00" xmlns="http://www.w3.org/2000/svg" xmlns:xlink="http://www.w3.org/1999/xlink">
<g id="graph1" class="graph" transform="scale(1 1) rotate(0) translate(4 28)">
<title>FunctionBoxChannel</title>
<polygon fill="white" stroke="white" points="-4,5 -4,-28 429,-28 429,5 -4,5"/>
<!-- Node1 -->
<g id="node1" class="node"><title>Node1</title>
<polygon fill="#bfbfbf" stroke="black" points="0.5,-0 0.5,-24 107.5,-24 107.5,-0 0.5,-0"/>
<text text-anchor="middle" x="54" y="-11" font-family="Helvetica,sans-Serif" font-size="10.00">FunctionBoxChannel</text>
</g>
<!-- Node2 -->
<g id="node3" class="node"><title>Node2</title>
<a xlink:href="graphics__rebuild1_8cpp.html#ac2eae1e03fb72cc734ffbcef566483bf" target="_top" xlink:title="Boxes">
<polygon fill="white" stroke="black" points="144,-0 144,-24 188,-24 188,-0 144,-0"/>
<text text-anchor="middle" x="166" y="-11" font-family="Helvetica,sans-Serif" font-size="10.00">Boxes</text>
</a>
</g>
<!-- Node1&#45;&gt;Node2 -->
<g id="edge2" class="edge"><title>Node1&#45;&gt;Node2</title>
<path fill="none" stroke="midnightblue" d="M117.887,-12C127.211,-12 136.237,-12 143.904,-12"/>
<polygon fill="midnightblue" stroke="midnightblue" points="117.704,-8.5001 107.704,-12 117.704,-15.5001 117.704,-8.5001"/>
</g>
<!-- Node3 -->
<g id="node5" class="node"><title>Node3</title>
<a xlink:href="_m_a_i_n__avec__objets_8cpp.html#ade8d4ba65d55c94f8ee277829d722155" target="_top" xlink:title="main_actions_on_screen">
<polygon fill="white" stroke="black" points="224.5,-0 224.5,-24 349.5,-24 349.5,-0 224.5,-0"/>
<text text-anchor="middle" x="287" y="-11" font-family="Helvetica,sans-Serif" font-size="10.00">main_actions_on_screen</text>
</a>
</g>
<!-- Node2&#45;&gt;Node3 -->
<g id="edge4" class="edge"><title>Node2&#45;&gt;Node3</title>
<path fill="none" stroke="midnightblue" d="M198.244,-12C206.32,-12 215.263,-12 224.271,-12"/>
<polygon fill="midnightblue" stroke="midnightblue" points="198.193,-8.5001 188.193,-12 198.193,-15.5001 198.193,-8.5001"/>
</g>
<!-- Node4 -->
<g id="node7" class="node"><title>Node4</title>
<a xlink:href="_m_a_i_n__avec__objets_8cpp.html#ae66f6b31b5ad750f1fe042a706a4e3d4" target="_top" xlink:title="main">
<polygon fill="white" stroke="black" points="386,-0 386,-24 424,-24 424,-0 386,-0"/>
<text text-anchor="middle" x="405" y="-11" font-family="Helvetica,sans-Serif" font-size="10.00">main</text>
</a>
</g>
<!-- Node3&#45;&gt;Node4 -->
<g id="edge6" class="edge"><title>Node3&#45;&gt;Node4</title>
<path fill="none" stroke="midnightblue" d="M359.837,-12C369.336,-12 378.327,-12 385.749,-12"/>
<polygon fill="midnightblue" stroke="midnightblue" points="359.8,-8.5001 349.8,-12 359.8,-15.5001 359.8,-8.5001"/>
</g>
</g>
</svg>
