<?xml version="1.0" encoding="UTF-8" standalone="no"?>
<!DOCTYPE svg PUBLIC "-//W3C//DTD SVG 1.1//EN"
 "http://www.w3.org/Graphics/SVG/1.1/DTD/svg11.dtd">
<!-- Generated by graphviz version 2.26.3 (20100126.1600)
 -->
<!-- Title: do_logical_FunctionBoxChannel Pages: 1 -->
<svg width="512pt" height="48pt"
 viewBox="0.00 0.00 512.00 48.00" xmlns="http://www.w3.org/2000/svg" xmlns:xlink="http://www.w3.org/1999/xlink">
<g id="graph1" class="graph" transform="scale(1 1) rotate(0) translate(4 44)">
<title>do_logical_FunctionBoxChannel</title>
<polygon fill="white" stroke="white" points="-4,5 -4,-44 509,-44 509,5 -4,5"/>
<!-- Node1 -->
<g id="node1" class="node"><title>Node1</title>
<polygon fill="#bfbfbf" stroke="black" points="0,-8 0,-32 156,-32 156,-8 0,-8"/>
<text text-anchor="middle" x="78" y="-19" font-family="Helvetica,sans-Serif" font-size="10.00">do_logical_FunctionBoxChannel</text>
</g>
<!-- Node2 -->
<g id="node3" class="node"><title>Node2</title>
<a xlink:href="procs__visuels__rebuild1_8cpp.html#ae710b6e599e321ad5934a90140067054" target="_top" xlink:title="check_graphics_mouse\l_handling">
<polygon fill="white" stroke="black" points="192.5,-0 192.5,-40 311.5,-40 311.5,-0 192.5,-0"/>
<text text-anchor="start" x="200.5" y="-27" font-family="Helvetica,sans-Serif" font-size="10.00">check_graphics_mouse</text>
<text text-anchor="middle" x="252" y="-11" font-family="Helvetica,sans-Serif" font-size="10.00">_handling</text>
</a>
</g>
<!-- Node1&#45;&gt;Node2 -->
<g id="edge2" class="edge"><title>Node1&#45;&gt;Node2</title>
<path fill="none" stroke="midnightblue" d="M166.131,-20C175.033,-20 183.92,-20 192.418,-20"/>
<polygon fill="midnightblue" stroke="midnightblue" points="166.093,-16.5001 156.093,-20 166.093,-23.5001 166.093,-16.5001"/>
</g>
<!-- Node3 -->
<g id="node5" class="node"><title>Node3</title>
<a xlink:href="_m_a_i_n__avec__objets_8cpp.html#a8e80f54ac804eddce8ed6e45adb1db44" target="_top" xlink:title="ticker_full_loop">
<polygon fill="white" stroke="black" points="348,-8 348,-32 430,-32 430,-8 348,-8"/>
<text text-anchor="middle" x="389" y="-19" font-family="Helvetica,sans-Serif" font-size="10.00">ticker_full_loop</text>
</a>
</g>
<!-- Node2&#45;&gt;Node3 -->
<g id="edge4" class="edge"><title>Node2&#45;&gt;Node3</title>
<path fill="none" stroke="midnightblue" d="M321.967,-20C330.737,-20 339.475,-20 347.605,-20"/>
<polygon fill="midnightblue" stroke="midnightblue" points="321.692,-16.5001 311.692,-20 321.692,-23.5001 321.692,-16.5001"/>
</g>
<!-- Node4 -->
<g id="node7" class="node"><title>Node4</title>
<a xlink:href="_m_a_i_n__avec__objets_8cpp.html#ae66f6b31b5ad750f1fe042a706a4e3d4" target="_top" xlink:title="main">
<polygon fill="white" stroke="black" points="466,-8 466,-32 504,-32 504,-8 466,-8"/>
<text text-anchor="middle" x="485" y="-19" font-family="Helvetica,sans-Serif" font-size="10.00">main</text>
</a>
</g>
<!-- Node3&#45;&gt;Node4 -->
<g id="edge6" class="edge"><title>Node3&#45;&gt;Node4</title>
<path fill="none" stroke="midnightblue" d="M440.509,-20C449.577,-20 458.476,-20 465.904,-20"/>
<polygon fill="midnightblue" stroke="midnightblue" points="440.27,-16.5001 430.27,-20 440.27,-23.5001 440.27,-16.5001"/>
</g>
</g>
</svg>
