<?xml version="1.0" encoding="UTF-8" standalone="no"?>
<!DOCTYPE svg PUBLIC "-//W3C//DTD SVG 1.1//EN"
 "http://www.w3.org/Graphics/SVG/1.1/DTD/svg11.dtd">
<!-- Generated by graphviz version 2.26.3 (20100126.1600)
 -->
<!-- Title: Draw_Window Pages: 1 -->
<svg width="226pt" height="116pt"
 viewBox="0.00 0.00 226.00 116.00" xmlns="http://www.w3.org/2000/svg" xmlns:xlink="http://www.w3.org/1999/xlink">
<g id="graph1" class="graph" transform="scale(1 1) rotate(0) translate(4 112)">
<title>Draw_Window</title>
<polygon fill="white" stroke="white" points="-4,5 -4,-112 223,-112 223,5 -4,5"/>
<!-- Node1 -->
<g id="node1" class="node"><title>Node1</title>
<polygon fill="#bfbfbf" stroke="black" points="0,-42 0,-66 80,-66 80,-42 0,-42"/>
<text text-anchor="middle" x="40" y="-53" font-family="Helvetica,sans-Serif" font-size="10.00">Draw_Window</text>
</g>
<!-- Node2 -->
<g id="node3" class="node"><title>Node2</title>
<a xlink:href="colors__fonts_8h.html#ae86cd6c0de005129d702f0c4352b2a24" target="_top" xlink:title="CouleurGrisMoyen">
<polygon fill="white" stroke="black" points="118,-84 118,-108 216,-108 216,-84 118,-84"/>
<text text-anchor="middle" x="167" y="-95" font-family="Helvetica,sans-Serif" font-size="10.00">CouleurGrisMoyen</text>
</a>
</g>
<!-- Node1&#45;&gt;Node2 -->
<g id="edge2" class="edge"><title>Node1&#45;&gt;Node2</title>
<path fill="none" stroke="midnightblue" d="M76.3931,-66.0355C90.2097,-70.6048 106.134,-75.8711 120.741,-80.7019"/>
<polygon fill="midnightblue" stroke="midnightblue" points="120.008,-84.1458 130.602,-83.9627 122.206,-77.4998 120.008,-84.1458"/>
</g>
<!-- Node3 -->
<g id="node5" class="node"><title>Node3</title>
<a xlink:href="colors__fonts_8h.html#ae9274ddf03277718b9234207fe9a3d3a" target="_top" xlink:title="CouleurGreen">
<polygon fill="white" stroke="black" points="128.5,-42 128.5,-66 205.5,-66 205.5,-42 128.5,-42"/>
<text text-anchor="middle" x="167" y="-53" font-family="Helvetica,sans-Serif" font-size="10.00">CouleurGreen</text>
</a>
</g>
<!-- Node1&#45;&gt;Node3 -->
<g id="edge4" class="edge"><title>Node1&#45;&gt;Node3</title>
<path fill="none" stroke="midnightblue" d="M80.1836,-54C92.2196,-54 105.553,-54 118.086,-54"/>
<polygon fill="midnightblue" stroke="midnightblue" points="118.379,-57.5001 128.379,-54 118.379,-50.5001 118.379,-57.5001"/>
</g>
<!-- Node4 -->
<g id="node7" class="node"><title>Node4</title>
<a xlink:href="_draw3_8cpp.html#ae61bd630c4dfb4d3ca1a35243ed73ad4" target="_top" xlink:title="Draw_TrackingAera">
<polygon fill="white" stroke="black" points="116,-0 116,-24 218,-24 218,-0 116,-0"/>
<text text-anchor="middle" x="167" y="-11" font-family="Helvetica,sans-Serif" font-size="10.00">Draw_TrackingAera</text>
</a>
</g>
<!-- Node1&#45;&gt;Node4 -->
<g id="edge6" class="edge"><title>Node1&#45;&gt;Node4</title>
<path fill="none" stroke="midnightblue" d="M76.3931,-41.9645C90.2097,-37.3952 106.134,-32.1289 120.741,-27.2981"/>
<polygon fill="midnightblue" stroke="midnightblue" points="122.206,-30.5002 130.602,-24.0373 120.008,-23.8542 122.206,-30.5002"/>
</g>
</g>
</svg>
