<?xml version="1.0" encoding="UTF-8" standalone="no"?>
<!DOCTYPE svg PUBLIC "-//W3C//DTD SVG 1.1//EN"
 "http://www.w3.org/Graphics/SVG/1.1/DTD/svg11.dtd">
<!-- Generated by graphviz version 2.26.3 (20100126.1600)
 -->
<!-- Title: do_logical_Draw_Window Pages: 1 -->
<svg width="630pt" height="496pt"
 viewBox="0.00 0.00 630.00 496.00" xmlns="http://www.w3.org/2000/svg" xmlns:xlink="http://www.w3.org/1999/xlink">
<g id="graph1" class="graph" transform="scale(1 1) rotate(0) translate(4 492)">
<title>do_logical_Draw_Window</title>
<polygon fill="white" stroke="white" points="-4,5 -4,-492 627,-492 627,5 -4,5"/>
<!-- Node1 -->
<g id="node1" class="node"><title>Node1</title>
<polygon fill="#bfbfbf" stroke="black" points="0.5,-222 0.5,-246 129.5,-246 129.5,-222 0.5,-222"/>
<text text-anchor="middle" x="65" y="-233" font-family="Helvetica,sans-Serif" font-size="10.00">do_logical_Draw_Window</text>
</g>
<!-- Node2 -->
<g id="node3" class="node"><title>Node2</title>
<a xlink:href="_c_o_r_e__6_8cpp.html#a3680de15f6ccf838397bde99d246125a" target="_top" xlink:title="show_type_midi">
<polygon fill="white" stroke="black" points="198.5,-464 198.5,-488 285.5,-488 285.5,-464 198.5,-464"/>
<text text-anchor="middle" x="242" y="-475" font-family="Helvetica,sans-Serif" font-size="10.00">show_type_midi</text>
</a>
</g>
<!-- Node1&#45;&gt;Node2 -->
<g id="edge2" class="edge"><title>Node1&#45;&gt;Node2</title>
<path fill="none" stroke="midnightblue" d="M66.8934,-246.2C73.3385,-283.498 97.9371,-396.987 166,-455 172.515,-460.553 180.381,-464.646 188.55,-467.661"/>
<polygon fill="midnightblue" stroke="midnightblue" points="187.626,-471.039 198.217,-470.728 189.744,-464.367 187.626,-471.039"/>
</g>
<!-- Node3 -->
<g id="node5" class="node"><title>Node3</title>
<a xlink:href="_c_o_r_e__6_8cpp.html#ad7187a2df52460607db81f8bf0500953" target="_top" xlink:title="attribute_midi_solo\l_affectation">
<polygon fill="white" stroke="black" points="193,-406 193,-446 291,-446 291,-406 193,-406"/>
<text text-anchor="start" x="201" y="-433" font-family="Helvetica,sans-Serif" font-size="10.00">attribute_midi_solo</text>
<text text-anchor="middle" x="242" y="-417" font-family="Helvetica,sans-Serif" font-size="10.00">_affectation</text>
</a>
</g>
<!-- Node1&#45;&gt;Node3 -->
<g id="edge4" class="edge"><title>Node1&#45;&gt;Node3</title>
<path fill="none" stroke="midnightblue" d="M69.3271,-246.091C80.5907,-275.925 113.635,-353.755 166,-397 171.268,-401.35 177.258,-405.092 183.511,-408.3"/>
<polygon fill="midnightblue" stroke="midnightblue" points="182.261,-411.579 192.804,-412.626 185.216,-405.233 182.261,-411.579"/>
</g>
<!-- Node5 -->
<g id="node9" class="node"><title>Node5</title>
<a xlink:href="_c_o_r_e__6_8cpp.html#a9574e0b790211959c7398e42468410d8" target="_top" xlink:title="toggle">
<polygon fill="white" stroke="black" points="220.5,-364 220.5,-388 263.5,-388 263.5,-364 220.5,-364"/>
<text text-anchor="middle" x="242" y="-375" font-family="Helvetica,sans-Serif" font-size="10.00">toggle</text>
</a>
</g>
<!-- Node1&#45;&gt;Node5 -->
<g id="edge8" class="edge"><title>Node1&#45;&gt;Node5</title>
<path fill="none" stroke="midnightblue" d="M71.6142,-246.037C85.663,-270.454 120.917,-325.949 166,-355 179.241,-363.532 195.934,-368.637 210.3,-371.672"/>
<polygon fill="midnightblue" stroke="midnightblue" points="209.794,-375.138 220.267,-373.535 211.081,-368.257 209.794,-375.138"/>
</g>
<!-- Node6 -->
<g id="node11" class="node"><title>Node6</title>
<a xlink:href="_c_o_r_e__6_8cpp.html#a8e3eb77361170284ee5e93f17c56eb19" target="_top" xlink:title="recalculate_draw_sizes">
<polygon fill="white" stroke="black" points="182.5,-322 182.5,-346 301.5,-346 301.5,-322 182.5,-322"/>
<text text-anchor="middle" x="242" y="-333" font-family="Helvetica,sans-Serif" font-size="10.00">recalculate_draw_sizes</text>
</a>
</g>
<!-- Node1&#45;&gt;Node6 -->
<g id="edge10" class="edge"><title>Node1&#45;&gt;Node6</title>
<path fill="none" stroke="midnightblue" d="M77.2569,-246.276C95.2126,-263.591 130.413,-295.071 166,-313 169.958,-314.994 174.13,-316.819 178.399,-318.487"/>
<polygon fill="midnightblue" stroke="midnightblue" points="177.26,-321.797 187.855,-321.89 179.631,-315.211 177.26,-321.797"/>
</g>
<!-- Node7 -->
<g id="node13" class="node"><title>Node7</title>
<a xlink:href="_c_o_r_e__6_8cpp.html#ab5d29b9ad8d00204a0d8d4ed77e7caec" target="_top" xlink:title="constrain_data_to_midi\l_range">
<polygon fill="white" stroke="black" points="183.5,-264 183.5,-304 300.5,-304 300.5,-264 183.5,-264"/>
<text text-anchor="start" x="191.5" y="-291" font-family="Helvetica,sans-Serif" font-size="10.00">constrain_data_to_midi</text>
<text text-anchor="middle" x="242" y="-275" font-family="Helvetica,sans-Serif" font-size="10.00">_range</text>
</a>
</g>
<!-- Node1&#45;&gt;Node7 -->
<g id="edge12" class="edge"><title>Node1&#45;&gt;Node7</title>
<path fill="none" stroke="midnightblue" d="M107.847,-246.104C127.632,-251.693 151.61,-258.466 173.79,-264.732"/>
<polygon fill="midnightblue" stroke="midnightblue" points="172.924,-268.124 183.499,-267.474 174.827,-261.388 172.924,-268.124"/>
</g>
<!-- Node8 -->
<g id="node15" class="node"><title>Node8</title>
<a xlink:href="_c_o_r_e__6_8cpp.html#afc1629fd01e60caf9e9d51f8a0f00093" target="_top" xlink:title="draw_erase_drawing">
<polygon fill="white" stroke="black" points="189,-222 189,-246 295,-246 295,-222 189,-222"/>
<text text-anchor="middle" x="242" y="-233" font-family="Helvetica,sans-Serif" font-size="10.00">draw_erase_drawing</text>
</a>
</g>
<!-- Node1&#45;&gt;Node8 -->
<g id="edge14" class="edge"><title>Node1&#45;&gt;Node8</title>
<path fill="none" stroke="midnightblue" d="M129.652,-234C145.611,-234 162.688,-234 178.588,-234"/>
<polygon fill="midnightblue" stroke="midnightblue" points="178.842,-237.5 188.842,-234 178.842,-230.5 178.842,-237.5"/>
</g>
<!-- Node9 -->
<g id="node17" class="node"><title>Node9</title>
<a xlink:href="_c_o_r_e__6_8cpp.html#a934d136a7c8a752109bc4b160717ee36" target="_top" xlink:title="reset_index_actions">
<polygon fill="white" stroke="black" points="190,-180 190,-204 294,-204 294,-180 190,-180"/>
<text text-anchor="middle" x="242" y="-191" font-family="Helvetica,sans-Serif" font-size="10.00">reset_index_actions</text>
</a>
</g>
<!-- Node1&#45;&gt;Node9 -->
<g id="edge16" class="edge"><title>Node1&#45;&gt;Node9</title>
<path fill="none" stroke="midnightblue" d="M115.721,-221.964C136.181,-217.11 159.957,-211.468 181.324,-206.398"/>
<polygon fill="midnightblue" stroke="midnightblue" points="182.35,-209.752 191.271,-204.037 180.734,-202.941 182.35,-209.752"/>
</g>
<!-- Node10 -->
<g id="node19" class="node"><title>Node10</title>
<a xlink:href="_c_o_r_e__6_8cpp.html#afb9b54a7bc4ccbba5ddcdc2097550188" target="_top" xlink:title="reset_indexs_confirmation">
<polygon fill="white" stroke="black" points="176.5,-138 176.5,-162 307.5,-162 307.5,-138 176.5,-138"/>
<text text-anchor="middle" x="242" y="-149" font-family="Helvetica,sans-Serif" font-size="10.00">reset_indexs_confirmation</text>
</a>
</g>
<!-- Node1&#45;&gt;Node10 -->
<g id="edge18" class="edge"><title>Node1&#45;&gt;Node10</title>
<path fill="none" stroke="midnightblue" d="M80.9855,-221.981C100.247,-207.998 134.02,-185.039 166,-171 170.736,-168.921 175.729,-166.999 180.8,-165.231"/>
<polygon fill="midnightblue" stroke="midnightblue" points="182.187,-168.46 190.603,-162.024 180.01,-161.807 182.187,-168.46"/>
</g>
<!-- Node11 -->
<g id="node21" class="node"><title>Node11</title>
<a xlink:href="_c_o_r_e__6_8cpp.html#a852678868d2a66db68f4a2c9eacfcc78" target="_top" xlink:title="reset_numeric_entry">
<polygon fill="white" stroke="black" points="516.5,-53 516.5,-77 621.5,-77 621.5,-53 516.5,-53"/>
<text text-anchor="middle" x="569" y="-64" font-family="Helvetica,sans-Serif" font-size="10.00">reset_numeric_entry</text>
</a>
</g>
<!-- Node1&#45;&gt;Node11 -->
<g id="edge20" class="edge"><title>Node1&#45;&gt;Node11</title>
<path fill="none" stroke="midnightblue" d="M72.6327,-221.658C87.458,-198.899 122.541,-150.674 166,-129 291.797,-66.2623 342.294,-119.249 480,-91 494.085,-88.1107 509.176,-84.0724 522.856,-80.0387"/>
<polygon fill="midnightblue" stroke="midnightblue" points="523.97,-83.3583 532.533,-77.1189 521.948,-76.6567 523.97,-83.3583"/>
</g>
<!-- Node12 -->
<g id="node23" class="node"><title>Node12</title>
<a xlink:href="_draw3_8cpp.html#a33c146ecc5bc0e25ca452e2e27043b28" target="_top" xlink:title="do_logical_Draw_TrackingAera">
<polygon fill="white" stroke="black" points="166.5,-58 166.5,-82 317.5,-82 317.5,-58 166.5,-58"/>
<text text-anchor="middle" x="242" y="-69" font-family="Helvetica,sans-Serif" font-size="10.00">do_logical_Draw_TrackingAera</text>
</a>
</g>
<!-- Node1&#45;&gt;Node12 -->
<g id="edge22" class="edge"><title>Node1&#45;&gt;Node12</title>
<path fill="none" stroke="midnightblue" d="M70.7138,-221.73C83.7771,-194.98 118.41,-131.013 166,-96 171.16,-92.2036 176.915,-88.9325 182.886,-86.1204"/>
<polygon fill="midnightblue" stroke="midnightblue" points="184.564,-89.2099 192.392,-82.0697 181.82,-82.7702 184.564,-89.2099"/>
</g>
<!-- Node15 -->
<g id="node30" class="node"><title>Node15</title>
<a xlink:href="_c_o_r_e__6_8cpp.html#a5615f7c8a54ba9a586dd910ec1ae5e43" target="_top" xlink:title="constrain_int_data\l_to_this_range">
<polygon fill="white" stroke="black" points="194,-0 194,-40 290,-40 290,-0 194,-0"/>
<text text-anchor="start" x="202" y="-27" font-family="Helvetica,sans-Serif" font-size="10.00">constrain_int_data</text>
<text text-anchor="middle" x="242" y="-11" font-family="Helvetica,sans-Serif" font-size="10.00">_to_this_range</text>
</a>
</g>
<!-- Node1&#45;&gt;Node15 -->
<g id="edge30" class="edge"><title>Node1&#45;&gt;Node15</title>
<path fill="none" stroke="midnightblue" d="M68.4132,-221.737C78.1217,-189.03 108.943,-98.821 166,-49 171.485,-44.2105 177.844,-40.1739 184.502,-36.7812"/>
<polygon fill="midnightblue" stroke="midnightblue" points="186.09,-39.903 193.712,-32.5436 183.165,-33.5437 186.09,-39.903"/>
</g>
<!-- Node4 -->
<g id="node7" class="node"><title>Node4</title>
<a xlink:href="_c_o_r_e__6_8cpp.html#aa6f6d52757e4af2364c17c3e9dee8095" target="_top" xlink:title="search_and_desaffect\l_previous_midi_signal">
<polygon fill="white" stroke="black" points="360.5,-406 360.5,-446 473.5,-446 473.5,-406 360.5,-406"/>
<text text-anchor="start" x="368.5" y="-433" font-family="Helvetica,sans-Serif" font-size="10.00">search_and_desaffect</text>
<text text-anchor="middle" x="417" y="-417" font-family="Helvetica,sans-Serif" font-size="10.00">_previous_midi_signal</text>
</a>
</g>
<!-- Node3&#45;&gt;Node4 -->
<g id="edge6" class="edge"><title>Node3&#45;&gt;Node4</title>
<path fill="none" stroke="midnightblue" d="M291.213,-426C309.55,-426 330.681,-426 350.326,-426"/>
<polygon fill="midnightblue" stroke="midnightblue" points="350.44,-429.5 360.44,-426 350.44,-422.5 350.44,-429.5"/>
</g>
<!-- Node13 -->
<g id="node25" class="node"><title>Node13</title>
<a xlink:href="_draw3_8cpp.html#a28cd54c60d670d5893b869c47a9f5442" target="_top" xlink:title="snap_state_of_draw_grid">
<polygon fill="white" stroke="black" points="354.5,-58 354.5,-82 479.5,-82 479.5,-58 354.5,-58"/>
<text text-anchor="middle" x="417" y="-69" font-family="Helvetica,sans-Serif" font-size="10.00">snap_state_of_draw_grid</text>
</a>
</g>
<!-- Node12&#45;&gt;Node13 -->
<g id="edge24" class="edge"><title>Node12&#45;&gt;Node13</title>
<path fill="none" stroke="midnightblue" d="M317.74,-70C326.504,-70 335.428,-70 344.152,-70"/>
<polygon fill="midnightblue" stroke="midnightblue" points="344.281,-73.5001 354.281,-70 344.281,-66.5001 344.281,-73.5001"/>
</g>
<!-- Node14 -->
<g id="node27" class="node"><title>Node14</title>
<a xlink:href="_c_o_r_e__6_8cpp.html#a6d513b9eb6707de11e0d82ed79097b19" target="_top" xlink:title="Draw_point_and_perform\l_level_on_area_NEW">
<polygon fill="white" stroke="black" points="354.5,-0 354.5,-40 479.5,-40 479.5,-0 354.5,-0"/>
<text text-anchor="start" x="362.5" y="-27" font-family="Helvetica,sans-Serif" font-size="10.00">Draw_point_and_perform</text>
<text text-anchor="middle" x="417" y="-11" font-family="Helvetica,sans-Serif" font-size="10.00">_level_on_area_NEW</text>
</a>
</g>
<!-- Node12&#45;&gt;Node14 -->
<g id="edge26" class="edge"><title>Node12&#45;&gt;Node14</title>
<path fill="none" stroke="midnightblue" d="M286.238,-57.8997C296.664,-55.014 307.73,-51.9227 318,-49 326.665,-46.5338 335.748,-43.9171 344.749,-41.3042"/>
<polygon fill="midnightblue" stroke="midnightblue" points="345.837,-44.6328 354.461,-38.4777 343.881,-37.9116 345.837,-44.6328"/>
</g>
<!-- Node14&#45;&gt;Node11 -->
<g id="edge28" class="edge"><title>Node14&#45;&gt;Node11</title>
<path fill="none" stroke="midnightblue" d="M479.702,-38.563C492.607,-42.3837 506.041,-46.3608 518.451,-50.0348"/>
<polygon fill="midnightblue" stroke="midnightblue" points="517.572,-53.4247 528.154,-52.9075 519.559,-46.7127 517.572,-53.4247"/>
</g>
</g>
</svg>
