<?xml version="1.0" encoding="UTF-8" standalone="no"?>
<!DOCTYPE svg PUBLIC "-//W3C//DTD SVG 1.1//EN"
 "http://www.w3.org/Graphics/SVG/1.1/DTD/svg11.dtd">
<!-- Generated by graphviz version 2.26.3 (20100126.1600)
 -->
<!-- Title: merge_draw_and_grid_player Pages: 1 -->
<svg width="904pt" height="60pt"
 viewBox="0.00 0.00 904.00 60.00" xmlns="http://www.w3.org/2000/svg" xmlns:xlink="http://www.w3.org/1999/xlink">
<g id="graph1" class="graph" transform="scale(1 1) rotate(0) translate(4 56)">
<title>merge_draw_and_grid_player</title>
<polygon fill="white" stroke="white" points="-4,5 -4,-56 901,-56 901,5 -4,5"/>
<!-- Node1 -->
<g id="node1" class="node"><title>Node1</title>
<polygon fill="#bfbfbf" stroke="black" points="0,-0 0,-40 112,-40 112,-0 0,-0"/>
<text text-anchor="start" x="8" y="-27" font-family="Helvetica,sans-Serif" font-size="10.00">merge_draw_and_grid</text>
<text text-anchor="middle" x="56" y="-11" font-family="Helvetica,sans-Serif" font-size="10.00">_player</text>
</g>
<!-- Node2 -->
<g id="node3" class="node"><title>Node2</title>
<a xlink:href="_m_a_i_n__avec__objets_8cpp.html#a6a015280c1363331ada8a329be6eb7c8" target="_top" xlink:title="ticker">
<polygon fill="white" stroke="black" points="148.5,-8 148.5,-32 189.5,-32 189.5,-8 148.5,-8"/>
<text text-anchor="middle" x="169" y="-19" font-family="Helvetica,sans-Serif" font-size="10.00">ticker</text>
</a>
</g>
<!-- Node1&#45;&gt;Node2 -->
<g id="edge2" class="edge"><title>Node1&#45;&gt;Node2</title>
<path fill="none" stroke="midnightblue" d="M122.451,-20C131.838,-20 140.845,-20 148.394,-20"/>
<polygon fill="midnightblue" stroke="midnightblue" points="122.169,-16.5001 112.169,-20 122.169,-23.5001 122.169,-16.5001"/>
</g>
<!-- Node3 -->
<g id="node5" class="node"><title>Node3</title>
<a xlink:href="_c_f_g__config__panel__8_8cpp.html#aff76db94408106be22f658a05f17831a" target="_top" xlink:title="do_core_config">
<polygon fill="white" stroke="black" points="226.5,-28 226.5,-52 309.5,-52 309.5,-28 226.5,-28"/>
<text text-anchor="middle" x="268" y="-39" font-family="Helvetica,sans-Serif" font-size="10.00">do_core_config</text>
</a>
</g>
<!-- Node2&#45;&gt;Node3 -->
<g id="edge4" class="edge"><title>Node2&#45;&gt;Node3</title>
<path fill="none" stroke="midnightblue" d="M199.355,-26.1324C207.855,-27.8494 217.245,-29.7464 226.28,-31.5716"/>
<polygon fill="midnightblue" stroke="midnightblue" points="200.008,-22.6936 189.513,-24.144 198.622,-29.555 200.008,-22.6936"/>
</g>
<!-- Node8 -->
<g id="node15" class="node"><title>Node8</title>
<a xlink:href="_m_a_i_n__avec__objets_8cpp.html#ae66f6b31b5ad750f1fe042a706a4e3d4" target="_top" xlink:title="main">
<polygon fill="white" stroke="black" points="858,-8 858,-32 896,-32 896,-8 858,-8"/>
<text text-anchor="middle" x="877" y="-19" font-family="Helvetica,sans-Serif" font-size="10.00">main</text>
</a>
</g>
<!-- Node2&#45;&gt;Node8 -->
<g id="edge16" class="edge"><title>Node2&#45;&gt;Node8</title>
<path fill="none" stroke="midnightblue" d="M199.667,-15.4617C242.267,-9.56085 321.811,-6.55032e-15 390,-0 390,-0 390,-0 638,-0 720.027,-7.10543e-15 817.34,-11.8436 857.838,-17.3027"/>
<polygon fill="midnightblue" stroke="midnightblue" points="199.074,-12.0106 189.662,-16.875 200.054,-18.9418 199.074,-12.0106"/>
</g>
<!-- Node4 -->
<g id="node7" class="node"><title>Node4</title>
<a xlink:href="_c_f_g__config__panel__8_8cpp.html#ad39c46e2fb3a3ba7ea0460140ead4f96" target="_top" xlink:title="do_panel_config">
<polygon fill="white" stroke="black" points="346.5,-28 346.5,-52 433.5,-52 433.5,-28 346.5,-28"/>
<text text-anchor="middle" x="390" y="-39" font-family="Helvetica,sans-Serif" font-size="10.00">do_panel_config</text>
</a>
</g>
<!-- Node3&#45;&gt;Node4 -->
<g id="edge6" class="edge"><title>Node3&#45;&gt;Node4</title>
<path fill="none" stroke="midnightblue" d="M319.875,-40C328.732,-40 337.851,-40 346.464,-40"/>
<polygon fill="midnightblue" stroke="midnightblue" points="319.644,-36.5001 309.644,-40 319.644,-43.5001 319.644,-36.5001"/>
</g>
<!-- Node5 -->
<g id="node9" class="node"><title>Node5</title>
<a xlink:href="_c_f_g__config__panel__8_8cpp.html#a7968da66bccdba8b864caf6c8435f68e" target="_top" xlink:title="config_general_menu">
<polygon fill="white" stroke="black" points="470.5,-28 470.5,-52 579.5,-52 579.5,-28 470.5,-28"/>
<text text-anchor="middle" x="525" y="-39" font-family="Helvetica,sans-Serif" font-size="10.00">config_general_menu</text>
</a>
</g>
<!-- Node4&#45;&gt;Node5 -->
<g id="edge8" class="edge"><title>Node4&#45;&gt;Node5</title>
<path fill="none" stroke="midnightblue" d="M444.072,-40C452.621,-40 461.471,-40 470.04,-40"/>
<polygon fill="midnightblue" stroke="midnightblue" points="443.831,-36.5001 433.831,-40 443.831,-43.5001 443.831,-36.5001"/>
</g>
<!-- Node6 -->
<g id="node11" class="node"><title>Node6</title>
<a xlink:href="graphics__rebuild1_8cpp.html#ac2eae1e03fb72cc734ffbcef566483bf" target="_top" xlink:title="Boxes">
<polygon fill="white" stroke="black" points="616,-28 616,-52 660,-52 660,-28 616,-28"/>
<text text-anchor="middle" x="638" y="-39" font-family="Helvetica,sans-Serif" font-size="10.00">Boxes</text>
</a>
</g>
<!-- Node5&#45;&gt;Node6 -->
<g id="edge10" class="edge"><title>Node5&#45;&gt;Node6</title>
<path fill="none" stroke="midnightblue" d="M589.747,-40C599.112,-40 608.168,-40 615.856,-40"/>
<polygon fill="midnightblue" stroke="midnightblue" points="589.514,-36.5001 579.514,-40 589.514,-43.5001 589.514,-36.5001"/>
</g>
<!-- Node7 -->
<g id="node13" class="node"><title>Node7</title>
<a xlink:href="_m_a_i_n__avec__objets_8cpp.html#ade8d4ba65d55c94f8ee277829d722155" target="_top" xlink:title="main_actions_on_screen">
<polygon fill="white" stroke="black" points="696.5,-28 696.5,-52 821.5,-52 821.5,-28 696.5,-28"/>
<text text-anchor="middle" x="759" y="-39" font-family="Helvetica,sans-Serif" font-size="10.00">main_actions_on_screen</text>
</a>
</g>
<!-- Node6&#45;&gt;Node7 -->
<g id="edge12" class="edge"><title>Node6&#45;&gt;Node7</title>
<path fill="none" stroke="midnightblue" d="M670.244,-40C678.32,-40 687.263,-40 696.271,-40"/>
<polygon fill="midnightblue" stroke="midnightblue" points="670.193,-36.5001 660.193,-40 670.193,-43.5001 670.193,-36.5001"/>
</g>
<!-- Node7&#45;&gt;Node8 -->
<g id="edge14" class="edge"><title>Node7&#45;&gt;Node8</title>
<path fill="none" stroke="midnightblue" d="M831.837,-27.6547C841.336,-26.0448 850.327,-24.5209 857.749,-23.2629"/>
<polygon fill="midnightblue" stroke="midnightblue" points="831.075,-24.2339 821.8,-29.3559 832.245,-31.1355 831.075,-24.2339"/>
</g>
</g>
</svg>
