<?xml version="1.0" encoding="UTF-8" standalone="no"?>
<!DOCTYPE svg PUBLIC "-//W3C//DTD SVG 1.1//EN"
 "http://www.w3.org/Graphics/SVG/1.1/DTD/svg11.dtd">
<!-- Generated by graphviz version 2.26.3 (20100126.1600)
 -->
<!-- Title: ticker Pages: 1 -->
<svg width="544pt" height="1454pt"
 viewBox="0.00 0.00 544.00 1454.00" xmlns="http://www.w3.org/2000/svg" xmlns:xlink="http://www.w3.org/1999/xlink">
<g id="graph1" class="graph" transform="scale(1 1) rotate(0) translate(4 1450)">
<title>ticker</title>
<polygon fill="white" stroke="white" points="-4,5 -4,-1450 541,-1450 541,5 -4,5"/>
<!-- Node1 -->
<g id="node1" class="node"><title>Node1</title>
<polygon fill="#bfbfbf" stroke="black" points="0.5,-501 0.5,-525 41.5,-525 41.5,-501 0.5,-501"/>
<text text-anchor="middle" x="21" y="-512" font-family="Helvetica,sans-Serif" font-size="10.00">ticker</text>
</g>
<!-- Node2 -->
<g id="node3" class="node"><title>Node2</title>
<a xlink:href="_m_a_i_n__febrier__2014_8cpp.html#a1ef61965eb1754586c339e2c7711f15c" target="_top" xlink:title="time_doing">
<polygon fill="white" stroke="black" points="122,-1393 122,-1417 186,-1417 186,-1393 122,-1393"/>
<text text-anchor="middle" x="154" y="-1404" font-family="Helvetica,sans-Serif" font-size="10.00">time_doing</text>
</a>
</g>
<!-- Node1&#45;&gt;Node2 -->
<g id="edge2" class="edge"><title>Node1&#45;&gt;Node2</title>
<path fill="none" stroke="midnightblue" d="M21.3942,-525.116C24.7834,-627.779 49.5674,-1349.07 78,-1384 86.3196,-1394.22 99.1289,-1399.72 111.875,-1402.61"/>
<polygon fill="midnightblue" stroke="midnightblue" points="111.539,-1406.11 121.997,-1404.41 112.762,-1399.21 111.539,-1406.11"/>
</g>
<!-- Node3 -->
<g id="node5" class="node"><title>Node3</title>
<a xlink:href="_c_o_r_e__6_8cpp.html#ac9596b6b33071db6c7bccd3999afce05" target="_top" xlink:title="detect_actual_master\l_lock_is">
<polygon fill="white" stroke="black" points="99,-1335 99,-1375 209,-1375 209,-1335 99,-1335"/>
<text text-anchor="start" x="107" y="-1362" font-family="Helvetica,sans-Serif" font-size="10.00">detect_actual_master</text>
<text text-anchor="middle" x="154" y="-1346" font-family="Helvetica,sans-Serif" font-size="10.00">_lock_is</text>
</a>
</g>
<!-- Node1&#45;&gt;Node3 -->
<g id="edge4" class="edge"><title>Node1&#45;&gt;Node3</title>
<path fill="none" stroke="midnightblue" d="M21.0743,-525.263C21.7609,-621.902 28.1656,-1258.81 78,-1326 81.3651,-1330.54 85.534,-1334.36 90.1735,-1337.59"/>
<polygon fill="midnightblue" stroke="midnightblue" points="88.5702,-1340.71 98.9607,-1342.78 92.1294,-1334.68 88.5702,-1340.71"/>
</g>
<!-- Node4 -->
<g id="node7" class="node"><title>Node4</title>
<a xlink:href="dmx__functions__13_8cpp.html#ab72876a6ba8c1eae5c792075e8bff19e" target="_top" xlink:title="do_lfos">
<polygon fill="white" stroke="black" points="130,-1293 130,-1317 178,-1317 178,-1293 130,-1293"/>
<text text-anchor="middle" x="154" y="-1304" font-family="Helvetica,sans-Serif" font-size="10.00">do_lfos</text>
</a>
</g>
<!-- Node1&#45;&gt;Node4 -->
<g id="edge6" class="edge"><title>Node1&#45;&gt;Node4</title>
<path fill="none" stroke="midnightblue" d="M21.4143,-525.189C24.532,-614.838 45.0978,-1170.55 78,-1237 88.3022,-1257.81 107.993,-1275.14 124.75,-1287.1"/>
<polygon fill="midnightblue" stroke="midnightblue" points="122.948,-1290.11 133.181,-1292.85 126.894,-1284.33 122.948,-1290.11"/>
</g>
<!-- Node8 -->
<g id="node15" class="node"><title>Node8</title>
<a xlink:href="dmx__functions__13_8cpp.html#af8fd73062784b408e1c53510c7608d74" target="_top" xlink:title="do_crossfade">
<polygon fill="white" stroke="black" points="116.5,-807 116.5,-831 191.5,-831 191.5,-807 116.5,-807"/>
<text text-anchor="middle" x="154" y="-818" font-family="Helvetica,sans-Serif" font-size="10.00">do_crossfade</text>
</a>
</g>
<!-- Node1&#45;&gt;Node8 -->
<g id="edge14" class="edge"><title>Node1&#45;&gt;Node8</title>
<path fill="none" stroke="midnightblue" d="M22.4,-525.25C26.6456,-559.062 41.3988,-655.895 78,-727 92.3894,-754.954 116.426,-782.096 133.616,-799.565"/>
<polygon fill="midnightblue" stroke="midnightblue" points="131.413,-802.311 140.973,-806.879 136.348,-797.346 131.413,-802.311"/>
</g>
<!-- Node14 -->
<g id="node27" class="node"><title>Node14</title>
<a xlink:href="dmx__functions__13_8cpp.html#a3dff324aceb39a982a3202cbbe84e465" target="_top" xlink:title="do_goback">
<polygon fill="white" stroke="black" points="122,-694 122,-718 186,-718 186,-694 122,-694"/>
<text text-anchor="middle" x="154" y="-705" font-family="Helvetica,sans-Serif" font-size="10.00">do_goback</text>
</a>
</g>
<!-- Node1&#45;&gt;Node14 -->
<g id="edge26" class="edge"><title>Node1&#45;&gt;Node14</title>
<path fill="none" stroke="midnightblue" d="M23.4878,-525.207C30.9317,-560.597 54.0053,-662.185 78,-685 87.1454,-693.696 99.5596,-698.852 111.702,-701.89"/>
<polygon fill="midnightblue" stroke="midnightblue" points="111.259,-705.372 121.761,-703.975 112.68,-698.518 111.259,-705.372"/>
</g>
<!-- Node16 -->
<g id="node32" class="node"><title>Node16</title>
<a xlink:href="video__tracking__core_8cpp.html#a76c70a2283a6aca4e4e1fe62868d0a9f" target="_top" xlink:title="ventilation_video_trackers">
<polygon fill="white" stroke="black" points="89,-610 89,-634 219,-634 219,-610 89,-610"/>
<text text-anchor="middle" x="154" y="-621" font-family="Helvetica,sans-Serif" font-size="10.00">ventilation_video_trackers</text>
</a>
</g>
<!-- Node1&#45;&gt;Node16 -->
<g id="edge32" class="edge"><title>Node1&#45;&gt;Node16</title>
<path fill="none" stroke="midnightblue" d="M25.5811,-525.267C33.3618,-544.397 50.9922,-581.192 78,-601 80.1249,-602.558 82.3599,-604.001 84.6766,-605.337"/>
<polygon fill="midnightblue" stroke="midnightblue" points="83.4464,-608.635 93.956,-609.976 86.5768,-602.374 83.4464,-608.635"/>
</g>
<!-- Node17 -->
<g id="node34" class="node"><title>Node17</title>
<a xlink:href="chasers__core__5_8cpp.html#a1d95361a5140157ac0aae6fa94b09cbe" target="_top" xlink:title="do_chaser">
<polygon fill="white" stroke="black" points="123,-1040 123,-1064 185,-1064 185,-1040 123,-1040"/>
<text text-anchor="middle" x="154" y="-1051" font-family="Helvetica,sans-Serif" font-size="10.00">do_chaser</text>
</a>
</g>
<!-- Node1&#45;&gt;Node17 -->
<g id="edge34" class="edge"><title>Node1&#45;&gt;Node17</title>
<path fill="none" stroke="midnightblue" d="M22.3408,-525.038C27.3082,-568.207 46.0456,-719.101 78,-840 96.8129,-911.178 129.068,-992.343 144.812,-1030.29"/>
<polygon fill="midnightblue" stroke="midnightblue" points="141.704,-1031.93 148.79,-1039.81 148.162,-1029.23 141.704,-1031.93"/>
</g>
<!-- Node22 -->
<g id="node44" class="node"><title>Node22</title>
<a xlink:href="grider__calculs8_8cpp.html#aeaf3238cb132a882d874452ae0dc1326" target="_top" xlink:title="do_grid">
<polygon fill="white" stroke="black" points="130,-652 130,-676 178,-676 178,-652 130,-652"/>
<text text-anchor="middle" x="154" y="-663" font-family="Helvetica,sans-Serif" font-size="10.00">do_grid</text>
</a>
</g>
<!-- Node1&#45;&gt;Node22 -->
<g id="edge44" class="edge"><title>Node1&#45;&gt;Node22</title>
<path fill="none" stroke="midnightblue" d="M22.7711,-525.077C27.1867,-550.761 41.1105,-611.062 78,-643 89.5756,-653.022 105.544,-658.295 119.857,-661.056"/>
<polygon fill="midnightblue" stroke="midnightblue" points="119.475,-664.539 129.901,-662.655 120.575,-657.626 119.475,-664.539"/>
</g>
<!-- Node23 -->
<g id="node47" class="node"><title>Node23</title>
<a xlink:href="list__proj__core_8cpp.html#aab448c1fe8b4922feaee7951ee38100d" target="_top" xlink:title="do_channels_macro">
<polygon fill="white" stroke="black" points="102,-568 102,-592 206,-592 206,-568 102,-568"/>
<text text-anchor="middle" x="154" y="-579" font-family="Helvetica,sans-Serif" font-size="10.00">do_channels_macro</text>
</a>
</g>
<!-- Node1&#45;&gt;Node23 -->
<g id="edge48" class="edge"><title>Node1&#45;&gt;Node23</title>
<path fill="none" stroke="midnightblue" d="M33.0647,-525.236C43.9342,-535.611 60.8048,-550.172 78,-559 82.5267,-561.324 87.3412,-563.416 92.2645,-565.294"/>
<polygon fill="midnightblue" stroke="midnightblue" points="91.2245,-568.638 101.819,-568.647 93.5425,-562.033 91.2245,-568.638"/>
</g>
<!-- Node25 -->
<g id="node51" class="node"><title>Node25</title>
<a xlink:href="echo3_8cpp.html#ad0d31b1438de53230c9018eb36fb7bc7" target="_top" xlink:title="do_echo">
<polygon fill="white" stroke="black" points="127.5,-526 127.5,-550 180.5,-550 180.5,-526 127.5,-526"/>
<text text-anchor="middle" x="154" y="-537" font-family="Helvetica,sans-Serif" font-size="10.00">do_echo</text>
</a>
</g>
<!-- Node1&#45;&gt;Node25 -->
<g id="edge52" class="edge"><title>Node1&#45;&gt;Node25</title>
<path fill="none" stroke="midnightblue" d="M41.7812,-516.906C61.9821,-520.703 93.0922,-526.551 117.437,-531.127"/>
<polygon fill="midnightblue" stroke="midnightblue" points="116.931,-534.593 127.405,-533.001 118.224,-527.714 116.931,-534.593"/>
</g>
<!-- Node28 -->
<g id="node57" class="node"><title>Node28</title>
<a xlink:href="_draw3_8cpp.html#a1644b0ceb71a91bac9256d01c9ea6ad1" target="_top" xlink:title="merge_draw_and_grid\l_player">
<polygon fill="white" stroke="black" points="98,-468 98,-508 210,-508 210,-468 98,-468"/>
<text text-anchor="start" x="106" y="-495" font-family="Helvetica,sans-Serif" font-size="10.00">merge_draw_and_grid</text>
<text text-anchor="middle" x="154" y="-479" font-family="Helvetica,sans-Serif" font-size="10.00">_player</text>
</a>
</g>
<!-- Node1&#45;&gt;Node28 -->
<g id="edge58" class="edge"><title>Node1&#45;&gt;Node28</title>
<path fill="none" stroke="midnightblue" d="M41.7812,-509.094C54.3623,-506.729 71.1747,-503.569 87.949,-500.416"/>
<polygon fill="midnightblue" stroke="midnightblue" points="88.6075,-503.853 97.7888,-498.566 87.3143,-496.974 88.6075,-503.853"/>
</g>
<!-- Node29 -->
<g id="node59" class="node"><title>Node29</title>
<a xlink:href="mover__2013_8cpp.html#af1627b55add388ce92ebb0130bc45ede" target="_top" xlink:title="Move_do_crossfade">
<polygon fill="white" stroke="black" points="102,-426 102,-450 206,-450 206,-426 102,-426"/>
<text text-anchor="middle" x="154" y="-437" font-family="Helvetica,sans-Serif" font-size="10.00">Move_do_crossfade</text>
</a>
</g>
<!-- Node1&#45;&gt;Node29 -->
<g id="edge60" class="edge"><title>Node1&#45;&gt;Node29</title>
<path fill="none" stroke="midnightblue" d="M30.6335,-500.896C41.0524,-488.598 58.7702,-469.857 78,-459 82.5036,-456.457 87.3332,-454.208 92.2945,-452.22"/>
<polygon fill="midnightblue" stroke="midnightblue" points="93.7435,-455.418 101.947,-448.713 91.3526,-448.838 93.7435,-455.418"/>
</g>
<!-- Node33 -->
<g id="node67" class="node"><title>Node33</title>
<a xlink:href="mover__2013_8cpp.html#a9882ebf6fd8c8e639a77fe7967b31cdd" target="_top" xlink:title="ventilation_niveaux\l_mover">
<polygon fill="white" stroke="black" points="104,-368 104,-408 204,-408 204,-368 104,-368"/>
<text text-anchor="start" x="112" y="-395" font-family="Helvetica,sans-Serif" font-size="10.00">ventilation_niveaux</text>
<text text-anchor="middle" x="154" y="-379" font-family="Helvetica,sans-Serif" font-size="10.00">_mover</text>
</a>
</g>
<!-- Node1&#45;&gt;Node33 -->
<g id="edge68" class="edge"><title>Node1&#45;&gt;Node33</title>
<path fill="none" stroke="midnightblue" d="M25.1473,-500.925C32.6383,-480.808 50.2715,-440.344 78,-417 82.9629,-412.822 88.5919,-409.209 94.4881,-406.094"/>
<polygon fill="midnightblue" stroke="midnightblue" points="96.3965,-409.062 103.916,-401.598 93.3834,-402.743 96.3965,-409.062"/>
</g>
<!-- Node35 -->
<g id="node71" class="node"><title>Node35</title>
<a xlink:href="dmx__functions__13_8cpp.html#adb29aebba6d2c4fb69de35a3a6496ebf" target="_top" xlink:title="Merger">
<polygon fill="white" stroke="black" points="130.5,-1204 130.5,-1228 177.5,-1228 177.5,-1204 130.5,-1204"/>
<text text-anchor="middle" x="154" y="-1215" font-family="Helvetica,sans-Serif" font-size="10.00">Merger</text>
</a>
</g>
<!-- Node1&#45;&gt;Node35 -->
<g id="edge72" class="edge"><title>Node1&#45;&gt;Node35</title>
<path fill="none" stroke="midnightblue" d="M21.6094,-525.354C25.2671,-597.538 45.2579,-965.237 78,-1073 92.1108,-1119.44 121.754,-1168.28 139.563,-1195.16"/>
<polygon fill="midnightblue" stroke="midnightblue" points="136.834,-1197.38 145.323,-1203.71 142.64,-1193.46 136.834,-1197.38"/>
</g>
<!-- Node39 -->
<g id="node83" class="node"><title>Node39</title>
<a xlink:href="dmx__functions__13_8cpp.html#a4f4e828a2e427a69d166dfa03fe59f28" target="_top" xlink:title="SendData_to_interface">
<polygon fill="white" stroke="red" points="96,-326 96,-350 212,-350 212,-326 96,-326"/>
<text text-anchor="middle" x="154" y="-337" font-family="Helvetica,sans-Serif" font-size="10.00">SendData_to_interface</text>
</a>
</g>
<!-- Node1&#45;&gt;Node39 -->
<g id="edge88" class="edge"><title>Node1&#45;&gt;Node39</title>
<path fill="none" stroke="midnightblue" d="M21.8372,-500.965C24.5102,-472.045 35.378,-398.149 78,-359 80.6511,-356.565 83.5596,-354.409 86.6444,-352.499"/>
<polygon fill="midnightblue" stroke="midnightblue" points="88.4967,-355.48 95.7383,-347.747 85.2544,-349.277 88.4967,-355.48"/>
</g>
<!-- Node44 -->
<g id="node93" class="node"><title>Node44</title>
<a xlink:href="midi__13_8cpp.html#aa54d1dc13cef959eef091cd6c629c547" target="_top" xlink:title="ventilation_midi_sur\l_crossfade">
<polygon fill="white" stroke="black" points="102.5,-268 102.5,-308 205.5,-308 205.5,-268 102.5,-268"/>
<text text-anchor="start" x="110.5" y="-295" font-family="Helvetica,sans-Serif" font-size="10.00">ventilation_midi_sur</text>
<text text-anchor="middle" x="154" y="-279" font-family="Helvetica,sans-Serif" font-size="10.00">_crossfade</text>
</a>
</g>
<!-- Node1&#45;&gt;Node44 -->
<g id="edge98" class="edge"><title>Node1&#45;&gt;Node44</title>
<path fill="none" stroke="midnightblue" d="M23.0716,-500.888C29.8424,-462.56 52.3626,-344.817 78,-317 82.3338,-312.298 87.5122,-308.352 93.101,-305.041"/>
<polygon fill="midnightblue" stroke="midnightblue" points="94.8917,-308.055 102.158,-300.345 91.6697,-301.841 94.8917,-308.055"/>
</g>
<!-- Node45 -->
<g id="node95" class="node"><title>Node45</title>
<a xlink:href="_c_o_r_e__6_8cpp.html#a74b930d30b0187b1de40d1bfc75738ea" target="_top" xlink:title="emit_midi_out">
<polygon fill="white" stroke="red" points="115.5,-226 115.5,-250 192.5,-250 192.5,-226 115.5,-226"/>
<text text-anchor="middle" x="154" y="-237" font-family="Helvetica,sans-Serif" font-size="10.00">emit_midi_out</text>
</a>
</g>
<!-- Node1&#45;&gt;Node45 -->
<g id="edge100" class="edge"><title>Node1&#45;&gt;Node45</title>
<path fill="none" stroke="midnightblue" d="M22.0892,-500.862C26.4207,-455.243 43.872,-294.837 78,-259 85.3686,-251.262 95.3091,-246.291 105.568,-243.118"/>
<polygon fill="midnightblue" stroke="midnightblue" points="106.608,-246.465 115.428,-240.596 104.873,-239.684 106.608,-246.465"/>
</g>
<!-- Node46 -->
<g id="node97" class="node"><title>Node46</title>
<a xlink:href="chasers__core__5_8cpp.html#a36ebf6e3d4378541f968c46f2cec6125" target="_top" xlink:title="refresh_chaser_window\l_timeline_for_midi_out">
<polygon fill="white" stroke="black" points="94.5,-168 94.5,-208 213.5,-208 213.5,-168 94.5,-168"/>
<text text-anchor="start" x="102.5" y="-195" font-family="Helvetica,sans-Serif" font-size="10.00">refresh_chaser_window</text>
<text text-anchor="middle" x="154" y="-179" font-family="Helvetica,sans-Serif" font-size="10.00">_timeline_for_midi_out</text>
</a>
</g>
<!-- Node1&#45;&gt;Node46 -->
<g id="edge102" class="edge"><title>Node1&#45;&gt;Node46</title>
<path fill="none" stroke="midnightblue" d="M21.7965,-500.74C25.2851,-450.56 40.7393,-261.394 78,-217 80.4116,-214.127 83.141,-211.537 86.0962,-209.204"/>
<polygon fill="midnightblue" stroke="midnightblue" points="88.0556,-212.104 94.3833,-203.607 84.1375,-206.304 88.0556,-212.104"/>
</g>
<!-- Node47 -->
<g id="node99" class="node"><title>Node47</title>
<a xlink:href="midi__launchpad_8cpp.html#af9548fa9e59c002812e934498e361e37" target="_top" xlink:title="launchpad_refresh_buffer_led">
<polygon fill="white" stroke="red" points="82.5,-126 82.5,-150 225.5,-150 225.5,-126 82.5,-126"/>
<text text-anchor="middle" x="154" y="-137" font-family="Helvetica,sans-Serif" font-size="10.00">launchpad_refresh_buffer_led</text>
</a>
</g>
<!-- Node1&#45;&gt;Node47 -->
<g id="edge104" class="edge"><title>Node1&#45;&gt;Node47</title>
<path fill="none" stroke="midnightblue" d="M21.2496,-500.979C22.6529,-445.09 31.2761,-211.165 78,-159 78.7763,-158.133 79.5849,-157.301 80.4226,-156.502"/>
<polygon fill="midnightblue" stroke="midnightblue" points="82.8728,-159.033 88.6712,-150.166 78.6086,-153.482 82.8728,-159.033"/>
</g>
<!-- Node48 -->
<g id="node101" class="node"><title>Node48</title>
<a xlink:href="i_cat14_8cpp.html#a94f739df565ae7a37b8c4871384a424a" target="_top" xlink:title="fermeture_clientserveur_iCat">
<polygon fill="white" stroke="red" points="83,-84 83,-108 225,-108 225,-84 83,-84"/>
<text text-anchor="middle" x="154" y="-95" font-family="Helvetica,sans-Serif" font-size="10.00">fermeture_clientserveur_iCat</text>
</a>
</g>
<!-- Node1&#45;&gt;Node48 -->
<g id="edge106" class="edge"><title>Node1&#45;&gt;Node48</title>
<path fill="none" stroke="midnightblue" d="M21.9574,-500.891C27.0626,-437.611 51.8321,-146.711 78,-117 78.7691,-116.127 79.5708,-115.288 80.4023,-114.484"/>
<polygon fill="midnightblue" stroke="midnightblue" points="82.858,-117.008 88.6057,-108.108 78.5622,-111.481 82.858,-117.008"/>
</g>
<!-- Node49 -->
<g id="node103" class="node"><title>Node49</title>
<a xlink:href="i_cat14_8cpp.html#a1ab0b64f45d461bb675425625ee860b0" target="_top" xlink:title="initialisation_clientserveur_iCat">
<polygon fill="white" stroke="red" points="78,-42 78,-66 230,-66 230,-42 78,-42"/>
<text text-anchor="middle" x="154" y="-53" font-family="Helvetica,sans-Serif" font-size="10.00">initialisation_clientserveur_iCat</text>
</a>
</g>
<!-- Node1&#45;&gt;Node49 -->
<g id="edge108" class="edge"><title>Node1&#45;&gt;Node49</title>
<path fill="none" stroke="midnightblue" d="M21.7783,-500.959C26.216,-433.89 49.1447,-108.213 78,-75 78.7631,-74.1216 79.5593,-73.2785 80.3856,-72.4691"/>
<polygon fill="midnightblue" stroke="midnightblue" points="82.8458,-74.9875 88.5521,-66.0607 78.5244,-69.4806 82.8458,-74.9875"/>
</g>
<!-- Node50 -->
<g id="node105" class="node"><title>Node50</title>
<a xlink:href="chasers__core__5_8cpp.html#a8f3e3d1bf89886d68b2f81a669d31874" target="_top" xlink:title="do_autolaunch">
<polygon fill="white" stroke="red" points="114,-0 114,-24 194,-24 194,-0 114,-0"/>
<text text-anchor="middle" x="154" y="-11" font-family="Helvetica,sans-Serif" font-size="10.00">do_autolaunch</text>
</a>
</g>
<!-- Node1&#45;&gt;Node50 -->
<g id="edge110" class="edge"><title>Node1&#45;&gt;Node50</title>
<path fill="none" stroke="midnightblue" d="M21.6461,-500.753C25.5124,-429.445 46.4894,-69.6824 78,-33 84.6898,-25.2122 93.983,-20.1851 103.78,-16.9695"/>
<polygon fill="midnightblue" stroke="midnightblue" points="104.912,-20.2897 113.667,-14.3227 103.102,-13.5278 104.912,-20.2897"/>
</g>
<!-- Node5 -->
<g id="node9" class="node"><title>Node5</title>
<a xlink:href="_c_o_r_e__6_8cpp.html#a1d69e941ecabe5dd73d0b108627b21d6" target="_top" xlink:title="detect_dock_used">
<polygon fill="white" stroke="black" points="278,-1422 278,-1446 374,-1446 374,-1422 278,-1422"/>
<text text-anchor="middle" x="326" y="-1433" font-family="Helvetica,sans-Serif" font-size="10.00">detect_dock_used</text>
</a>
</g>
<!-- Node4&#45;&gt;Node5 -->
<g id="edge8" class="edge"><title>Node4&#45;&gt;Node5</title>
<path fill="none" stroke="midnightblue" d="M178.181,-1306.25C194.565,-1308.29 215.746,-1313.4 230,-1326 261.349,-1353.72 235.598,-1384.25 266,-1413 267.295,-1414.23 268.666,-1415.38 270.098,-1416.47"/>
<polygon fill="midnightblue" stroke="midnightblue" points="268.534,-1419.62 278.86,-1421.99 272.267,-1413.7 268.534,-1419.62"/>
</g>
<!-- Node6 -->
<g id="node11" class="node"><title>Node6</title>
<a xlink:href="dmx__functions__13_8cpp.html#a8450df124a0f6280f71114e9b71de794" target="_top" xlink:title="prepare_lfos">
<polygon fill="white" stroke="black" points="291,-1380 291,-1404 361,-1404 361,-1380 291,-1380"/>
<text text-anchor="middle" x="326" y="-1391" font-family="Helvetica,sans-Serif" font-size="10.00">prepare_lfos</text>
</a>
</g>
<!-- Node4&#45;&gt;Node6 -->
<g id="edge10" class="edge"><title>Node4&#45;&gt;Node6</title>
<path fill="none" stroke="midnightblue" d="M178.004,-1308.06C193.706,-1310.89 214.166,-1316.21 230,-1326 250.343,-1338.58 246.582,-1352.04 266,-1366 270.901,-1369.52 276.354,-1372.71 281.919,-1375.54"/>
<polygon fill="midnightblue" stroke="midnightblue" points="280.775,-1378.87 291.312,-1379.96 283.759,-1372.53 280.775,-1378.87"/>
</g>
<!-- Node7 -->
<g id="node13" class="node"><title>Node7</title>
<a xlink:href="faders__core__24_8cpp.html#a23a336624aeacc63bc9729188b3810e3" target="_top" xlink:title="DoLock">
<polygon fill="white" stroke="black" points="454,-1316 454,-1340 504,-1340 504,-1316 454,-1316"/>
<text text-anchor="middle" x="479" y="-1327" font-family="Helvetica,sans-Serif" font-size="10.00">DoLock</text>
</a>
</g>
<!-- Node4&#45;&gt;Node7 -->
<g id="edge12" class="edge"><title>Node4&#45;&gt;Node7</title>
<path fill="none" stroke="midnightblue" d="M178.19,-1311.79C205.765,-1319.39 249.191,-1330.93 266,-1333 318.934,-1339.52 332.686,-1334.43 386,-1333 405.007,-1332.49 426.176,-1331.39 443.509,-1330.36"/>
<polygon fill="midnightblue" stroke="midnightblue" points="443.987,-1333.83 453.753,-1329.72 443.556,-1326.85 443.987,-1333.83"/>
</g>
<!-- Node9 -->
<g id="node17" class="node"><title>Node9</title>
<a xlink:href="_c_o_r_e__6_8cpp.html#a5c17b7c708caee1d7ff53ba997ad0d83" target="_top" xlink:title="prepare_crossfade">
<polygon fill="white" stroke="black" points="277.5,-940 277.5,-964 374.5,-964 374.5,-940 277.5,-940"/>
<text text-anchor="middle" x="326" y="-951" font-family="Helvetica,sans-Serif" font-size="10.00">prepare_crossfade</text>
</a>
</g>
<!-- Node8&#45;&gt;Node9 -->
<g id="edge16" class="edge"><title>Node8&#45;&gt;Node9</title>
<path fill="none" stroke="midnightblue" d="M163.118,-831.233C180.648,-853.954 221.296,-902.908 266,-931 268.757,-932.732 271.675,-934.344 274.68,-935.84"/>
<polygon fill="midnightblue" stroke="midnightblue" points="273.331,-939.071 283.886,-939.987 276.206,-932.689 273.331,-939.071"/>
</g>
<!-- Node10 -->
<g id="node19" class="node"><title>Node10</title>
<a xlink:href="sequentiel__6__core_8cpp.html#a5f47e7234fc37c17227682d3b3c05d0f" target="_top" xlink:title="next_mem_crossfade\l_finished">
<polygon fill="white" stroke="red" points="271,-882 271,-922 381,-922 381,-882 271,-882"/>
<text text-anchor="start" x="279" y="-909" font-family="Helvetica,sans-Serif" font-size="10.00">next_mem_crossfade</text>
<text text-anchor="middle" x="326" y="-893" font-family="Helvetica,sans-Serif" font-size="10.00">_finished</text>
</a>
</g>
<!-- Node8&#45;&gt;Node10 -->
<g id="edge18" class="edge"><title>Node8&#45;&gt;Node10</title>
<path fill="none" stroke="midnightblue" d="M179.01,-831.069C204.111,-843.182 243.494,-862.186 275.179,-877.476"/>
<polygon fill="midnightblue" stroke="midnightblue" points="273.788,-880.691 284.316,-881.885 276.83,-874.387 273.788,-880.691"/>
</g>
<!-- Node11 -->
<g id="node21" class="node"><title>Node11</title>
<a xlink:href="dmx__functions__13_8cpp.html#a395f98122a0ab76bb36a86b53881916b" target="_top" xlink:title="refresh_modified_levels\l_in_crossfade">
<polygon fill="white" stroke="red" points="266.5,-824 266.5,-864 385.5,-864 385.5,-824 266.5,-824"/>
<text text-anchor="start" x="274.5" y="-851" font-family="Helvetica,sans-Serif" font-size="10.00">refresh_modified_levels</text>
<text text-anchor="middle" x="326" y="-835" font-family="Helvetica,sans-Serif" font-size="10.00">_in_crossfade</text>
</a>
</g>
<!-- Node8&#45;&gt;Node11 -->
<g id="edge20" class="edge"><title>Node8&#45;&gt;Node11</title>
<path fill="none" stroke="midnightblue" d="M191.746,-824.486C210.698,-827.241 234.272,-830.667 256.353,-833.877"/>
<polygon fill="midnightblue" stroke="midnightblue" points="255.972,-837.358 266.372,-835.333 256.979,-830.431 255.972,-837.358"/>
</g>
<!-- Node12 -->
<g id="node23" class="node"><title>Node12</title>
<a xlink:href="banger__core__8_8cpp.html#afa98bbdb588f29b8fc94df9f7754f05f" target="_top" xlink:title="do_send_bang">
<polygon fill="white" stroke="red" points="286,-782 286,-806 366,-806 366,-782 286,-782"/>
<text text-anchor="middle" x="326" y="-793" font-family="Helvetica,sans-Serif" font-size="10.00">do_send_bang</text>
</a>
</g>
<!-- Node8&#45;&gt;Node12 -->
<g id="edge22" class="edge"><title>Node8&#45;&gt;Node12</title>
<path fill="none" stroke="midnightblue" d="M191.746,-813.514C216.474,-809.92 249.071,-805.182 275.952,-801.274"/>
<polygon fill="midnightblue" stroke="midnightblue" points="276.554,-804.724 285.947,-799.822 275.547,-797.797 276.554,-804.724"/>
</g>
<!-- Node13 -->
<g id="node25" class="node"><title>Node13</title>
<a xlink:href="grider__calculs8_8cpp.html#aa5e2775d1f19c4fddd0e6ed08b511e96" target="_top" xlink:title="gridder_prepare_cross">
<polygon fill="white" stroke="red" points="422.5,-694 422.5,-718 535.5,-718 535.5,-694 422.5,-694"/>
<text text-anchor="middle" x="479" y="-705" font-family="Helvetica,sans-Serif" font-size="10.00">gridder_prepare_cross</text>
</a>
</g>
<!-- Node8&#45;&gt;Node13 -->
<g id="edge24" class="edge"><title>Node8&#45;&gt;Node13</title>
<path fill="none" stroke="midnightblue" d="M181.362,-806.999C203.884,-797.307 236.746,-783.587 266,-773 273.963,-770.118 370.328,-739.944 430.679,-721.086"/>
<polygon fill="midnightblue" stroke="midnightblue" points="431.901,-724.371 440.402,-718.048 429.814,-717.689 431.901,-724.371"/>
</g>
<!-- Node15 -->
<g id="node29" class="node"><title>Node15</title>
<a xlink:href="_c_o_r_e__6_8cpp.html#a68896df3fd9c10332440a34a96dfbc68" target="_top" xlink:title="refresh_integrated\l_gridplayer1">
<polygon fill="white" stroke="black" points="278.5,-686 278.5,-726 373.5,-726 373.5,-686 278.5,-686"/>
<text text-anchor="start" x="286.5" y="-713" font-family="Helvetica,sans-Serif" font-size="10.00">refresh_integrated</text>
<text text-anchor="middle" x="326" y="-697" font-family="Helvetica,sans-Serif" font-size="10.00">_gridplayer1</text>
</a>
</g>
<!-- Node14&#45;&gt;Node15 -->
<g id="edge28" class="edge"><title>Node14&#45;&gt;Node15</title>
<path fill="none" stroke="midnightblue" d="M186.352,-706C209.305,-706 240.747,-706 267.985,-706"/>
<polygon fill="midnightblue" stroke="midnightblue" points="268.192,-709.5 278.192,-706 268.192,-702.5 268.192,-709.5"/>
</g>
<!-- Node15&#45;&gt;Node13 -->
<g id="edge30" class="edge"><title>Node15&#45;&gt;Node13</title>
<path fill="none" stroke="midnightblue" d="M373.571,-706C385.754,-706 399.084,-706 412.043,-706"/>
<polygon fill="midnightblue" stroke="midnightblue" points="412.327,-709.5 422.327,-706 412.327,-702.5 412.327,-709.5"/>
</g>
<!-- Node18 -->
<g id="node36" class="node"><title>Node18</title>
<a xlink:href="chasers__core__5_8cpp.html#abb6ff444898fcb4ad35f303696f41ea2" target="_top" xlink:title="chaser_calcul_step">
<polygon fill="white" stroke="red" points="275.5,-1082 275.5,-1106 376.5,-1106 376.5,-1082 275.5,-1082"/>
<text text-anchor="middle" x="326" y="-1093" font-family="Helvetica,sans-Serif" font-size="10.00">chaser_calcul_step</text>
</a>
</g>
<!-- Node17&#45;&gt;Node18 -->
<g id="edge36" class="edge"><title>Node17&#45;&gt;Node18</title>
<path fill="none" stroke="midnightblue" d="M185.148,-1059.61C207.824,-1065.14 239.231,-1072.81 266.636,-1079.5"/>
<polygon fill="midnightblue" stroke="midnightblue" points="265.982,-1082.95 276.527,-1081.92 267.643,-1076.15 265.982,-1082.95"/>
</g>
<!-- Node19 -->
<g id="node38" class="node"><title>Node19</title>
<a xlink:href="_c_o_r_e__6_8cpp.html#a9574e0b790211959c7398e42468410d8" target="_top" xlink:title="toggle">
<polygon fill="white" stroke="black" points="304.5,-1040 304.5,-1064 347.5,-1064 347.5,-1040 304.5,-1040"/>
<text text-anchor="middle" x="326" y="-1051" font-family="Helvetica,sans-Serif" font-size="10.00">toggle</text>
</a>
</g>
<!-- Node17&#45;&gt;Node19 -->
<g id="edge38" class="edge"><title>Node17&#45;&gt;Node19</title>
<path fill="none" stroke="midnightblue" d="M185.148,-1052C215.977,-1052 262.945,-1052 294.05,-1052"/>
<polygon fill="midnightblue" stroke="midnightblue" points="294.339,-1055.5 304.339,-1052 294.339,-1048.5 294.339,-1055.5"/>
</g>
<!-- Node20 -->
<g id="node40" class="node"><title>Node20</title>
<a xlink:href="chasers__core__5_8cpp.html#afaeffdf5e70f64260ab334beb4f46c04" target="_top" xlink:title="chaser_calcul_time\l_joint">
<polygon fill="white" stroke="black" points="275.5,-982 275.5,-1022 376.5,-1022 376.5,-982 275.5,-982"/>
<text text-anchor="start" x="283.5" y="-1009" font-family="Helvetica,sans-Serif" font-size="10.00">chaser_calcul_time</text>
<text text-anchor="middle" x="326" y="-993" font-family="Helvetica,sans-Serif" font-size="10.00">_joint</text>
</a>
</g>
<!-- Node17&#45;&gt;Node20 -->
<g id="edge40" class="edge"><title>Node17&#45;&gt;Node20</title>
<path fill="none" stroke="midnightblue" d="M185.148,-1042.95C207.479,-1036.45 238.278,-1027.5 265.382,-1019.62"/>
<polygon fill="midnightblue" stroke="midnightblue" points="266.553,-1022.93 275.179,-1016.77 264.599,-1016.2 266.553,-1022.93"/>
</g>
<!-- Node21 -->
<g id="node42" class="node"><title>Node21</title>
<a xlink:href="_m_a_i_n__avec__objets_8cpp.html#acd49ac80e8195ee336da1503fd149313" target="_top" xlink:title="Tmax">
<polygon fill="white" stroke="black" points="458.5,-1224 458.5,-1248 499.5,-1248 499.5,-1224 458.5,-1224"/>
<text text-anchor="middle" x="479" y="-1235" font-family="Helvetica,sans-Serif" font-size="10.00">Tmax</text>
</a>
</g>
<!-- Node17&#45;&gt;Node21 -->
<g id="edge42" class="edge"><title>Node17&#45;&gt;Node21</title>
<path fill="none" stroke="midnightblue" d="M172.806,-1064.17C194.575,-1077.88 231.824,-1100.17 266,-1115 317.317,-1137.28 337.386,-1125.32 386,-1153 415.783,-1169.96 444.309,-1197.7 461.735,-1216.39"/>
<polygon fill="midnightblue" stroke="midnightblue" points="459.166,-1218.77 468.495,-1223.79 464.334,-1214.05 459.166,-1218.77"/>
</g>
<!-- Node22&#45;&gt;Node13 -->
<g id="edge46" class="edge"><title>Node22&#45;&gt;Node13</title>
<path fill="none" stroke="midnightblue" d="M178.276,-663.409C220.755,-662.807 311.174,-663.452 386,-677 403.227,-680.119 421.728,-685.458 437.657,-690.71"/>
<polygon fill="midnightblue" stroke="midnightblue" points="436.613,-694.052 447.207,-693.949 438.861,-687.423 436.613,-694.052"/>
</g>
<!-- Node24 -->
<g id="node49" class="node"><title>Node24</title>
<a xlink:href="list__proj__core_8cpp.html#a99d20171657c9d6aa521bcee25202e46" target="_top" xlink:title="do_the_macro_of_the\l_channel">
<polygon fill="white" stroke="red" points="271,-590 271,-630 381,-630 381,-590 271,-590"/>
<text text-anchor="start" x="279" y="-617" font-family="Helvetica,sans-Serif" font-size="10.00">do_the_macro_of_the</text>
<text text-anchor="middle" x="326" y="-601" font-family="Helvetica,sans-Serif" font-size="10.00">_channel</text>
</a>
</g>
<!-- Node23&#45;&gt;Node24 -->
<g id="edge50" class="edge"><title>Node23&#45;&gt;Node24</title>
<path fill="none" stroke="midnightblue" d="M206.072,-589.082C223.342,-592.094 242.784,-595.486 260.908,-598.647"/>
<polygon fill="midnightblue" stroke="midnightblue" points="260.367,-602.105 270.819,-600.375 261.569,-595.209 260.367,-602.105"/>
</g>
<!-- Node26 -->
<g id="node53" class="node"><title>Node26</title>
<a xlink:href="echo3_8cpp.html#a53133866db94754b728c5900e030108e" target="_top" xlink:title="do_bouncing_levels">
<polygon fill="white" stroke="red" points="275,-548 275,-572 377,-572 377,-548 275,-548"/>
<text text-anchor="middle" x="326" y="-559" font-family="Helvetica,sans-Serif" font-size="10.00">do_bouncing_levels</text>
</a>
</g>
<!-- Node25&#45;&gt;Node26 -->
<g id="edge54" class="edge"><title>Node25&#45;&gt;Node26</title>
<path fill="none" stroke="midnightblue" d="M180.875,-541.438C203.272,-544.302 236.039,-548.493 264.772,-552.169"/>
<polygon fill="midnightblue" stroke="midnightblue" points="264.38,-555.647 274.744,-553.444 265.269,-548.703 264.38,-555.647"/>
</g>
<!-- Node27 -->
<g id="node55" class="node"><title>Node27</title>
<a xlink:href="_c_o_r_e__6_8cpp.html#a02c0482cf9631910ebc1d59614215ecd" target="_top" xlink:title="prepare_bounce">
<polygon fill="white" stroke="black" points="283,-506 283,-530 369,-530 369,-506 283,-506"/>
<text text-anchor="middle" x="326" y="-517" font-family="Helvetica,sans-Serif" font-size="10.00">prepare_bounce</text>
</a>
</g>
<!-- Node25&#45;&gt;Node27 -->
<g id="edge56" class="edge"><title>Node25&#45;&gt;Node27</title>
<path fill="none" stroke="midnightblue" d="M180.875,-534.875C205.407,-532.022 242.38,-527.723 272.867,-524.178"/>
<polygon fill="midnightblue" stroke="midnightblue" points="273.401,-527.64 282.93,-523.008 272.593,-520.687 273.401,-527.64"/>
</g>
<!-- Node30 -->
<g id="node61" class="node"><title>Node30</title>
<a xlink:href="mover__2013_8cpp.html#abb003e89ded4a3c6a731f3e7526ef3a6" target="_top" xlink:title="Move_StepForward">
<polygon fill="white" stroke="red" points="275.5,-464 275.5,-488 376.5,-488 376.5,-464 275.5,-464"/>
<text text-anchor="middle" x="326" y="-475" font-family="Helvetica,sans-Serif" font-size="10.00">Move_StepForward</text>
</a>
</g>
<!-- Node29&#45;&gt;Node30 -->
<g id="edge62" class="edge"><title>Node29&#45;&gt;Node30</title>
<path fill="none" stroke="midnightblue" d="M206.072,-449.504C224.764,-453.634 246.003,-458.326 265.359,-462.603"/>
<polygon fill="midnightblue" stroke="midnightblue" points="264.767,-466.056 275.287,-464.796 266.277,-459.221 264.767,-466.056"/>
</g>
<!-- Node31 -->
<g id="node63" class="node"><title>Node31</title>
<a xlink:href="mover__2013_8cpp.html#a09da21b3ee6f5a971c70ce7509a45751" target="_top" xlink:title="Move_StepBackward">
<polygon fill="white" stroke="red" points="271,-422 271,-446 381,-446 381,-422 271,-422"/>
<text text-anchor="middle" x="326" y="-433" font-family="Helvetica,sans-Serif" font-size="10.00">Move_StepBackward</text>
</a>
</g>
<!-- Node29&#45;&gt;Node31 -->
<g id="edge64" class="edge"><title>Node29&#45;&gt;Node31</title>
<path fill="none" stroke="midnightblue" d="M206.072,-436.789C223.262,-436.389 242.604,-435.939 260.657,-435.52"/>
<polygon fill="midnightblue" stroke="midnightblue" points="260.903,-439.015 270.819,-435.283 260.741,-432.017 260.903,-439.015"/>
</g>
<!-- Node32 -->
<g id="node65" class="node"><title>Node32</title>
<a xlink:href="mover__2013_8cpp.html#a4cd6cdd120b9feb87202ddb062daecbb" target="_top" xlink:title="prepare_move_values">
<polygon fill="white" stroke="red" points="270,-380 270,-404 382,-404 382,-380 270,-380"/>
<text text-anchor="middle" x="326" y="-391" font-family="Helvetica,sans-Serif" font-size="10.00">prepare_move_values</text>
</a>
</g>
<!-- Node29&#45;&gt;Node32 -->
<g id="edge66" class="edge"><title>Node29&#45;&gt;Node32</title>
<path fill="none" stroke="midnightblue" d="M199.191,-425.914C221.312,-419.998 248.123,-412.828 271.383,-406.607"/>
<polygon fill="midnightblue" stroke="midnightblue" points="272.355,-409.97 281.111,-404.005 270.546,-403.208 272.355,-409.97"/>
</g>
<!-- Node34 -->
<g id="node69" class="node"><title>Node34</title>
<a xlink:href="mover__2013_8cpp.html#afc6b693a31ec57c83aeb15c402dae22b" target="_top" xlink:title="inversion_of_axes">
<polygon fill="white" stroke="black" points="278.5,-338 278.5,-362 373.5,-362 373.5,-338 278.5,-338"/>
<text text-anchor="middle" x="326" y="-349" font-family="Helvetica,sans-Serif" font-size="10.00">inversion_of_axes</text>
</a>
</g>
<!-- Node33&#45;&gt;Node34 -->
<g id="edge70" class="edge"><title>Node33&#45;&gt;Node34</title>
<path fill="none" stroke="midnightblue" d="M204.212,-376.907C224.322,-372.464 247.61,-367.319 268.403,-362.725"/>
<polygon fill="midnightblue" stroke="midnightblue" points="269.375,-366.095 278.385,-360.52 267.865,-359.259 269.375,-366.095"/>
</g>
<!-- Node35&#45;&gt;Node21 -->
<g id="edge86" class="edge"><title>Node35&#45;&gt;Node21</title>
<path fill="none" stroke="midnightblue" d="M177.851,-1221.8C200.403,-1226.97 235.271,-1234.14 266,-1237 319.104,-1241.94 332.667,-1237.29 386,-1237 406.786,-1236.89 430.184,-1236.64 448.311,-1236.41"/>
<polygon fill="midnightblue" stroke="midnightblue" points="448.361,-1239.91 458.316,-1236.29 448.272,-1232.91 448.361,-1239.91"/>
</g>
<!-- Node36 -->
<g id="node73" class="node"><title>Node36</title>
<a xlink:href="dmx__functions__13_8cpp.html#a5a367dd976b9e5e110756d25c264fbbc" target="_top" xlink:title="Merger_Sequenciel">
<polygon fill="white" stroke="black" points="276,-1162 276,-1186 376,-1186 376,-1162 276,-1162"/>
<text text-anchor="middle" x="326" y="-1173" font-family="Helvetica,sans-Serif" font-size="10.00">Merger_Sequenciel</text>
</a>
</g>
<!-- Node35&#45;&gt;Node36 -->
<g id="edge74" class="edge"><title>Node35&#45;&gt;Node36</title>
<path fill="none" stroke="midnightblue" d="M177.555,-1210.25C200.469,-1204.65 236.214,-1195.92 266.886,-1188.43"/>
<polygon fill="midnightblue" stroke="midnightblue" points="267.759,-1191.82 276.643,-1186.05 266.098,-1185.02 267.759,-1191.82"/>
</g>
<!-- Node37 -->
<g id="node75" class="node"><title>Node37</title>
<a xlink:href="dmx__functions__13_8cpp.html#ac0e932ae0c7050397aecccdf0a97c882" target="_top" xlink:title="calculs_etats_faders\l_et_contenus">
<polygon fill="white" stroke="red" points="272.5,-1284 272.5,-1324 379.5,-1324 379.5,-1284 272.5,-1284"/>
<text text-anchor="start" x="280.5" y="-1311" font-family="Helvetica,sans-Serif" font-size="10.00">calculs_etats_faders</text>
<text text-anchor="middle" x="326" y="-1295" font-family="Helvetica,sans-Serif" font-size="10.00">_et_contenus</text>
</a>
</g>
<!-- Node35&#45;&gt;Node37 -->
<g id="edge76" class="edge"><title>Node35&#45;&gt;Node37</title>
<path fill="none" stroke="midnightblue" d="M177.555,-1228.05C203.205,-1241.17 244.934,-1262.52 277.627,-1279.25"/>
<polygon fill="midnightblue" stroke="midnightblue" points="276.091,-1282.4 286.588,-1283.84 279.279,-1276.16 276.091,-1282.4"/>
</g>
<!-- Node38 -->
<g id="node79" class="node"><title>Node38</title>
<a xlink:href="dmx__functions__13_8cpp.html#afe72c8c1d3c933742658c5d58139f302" target="_top" xlink:title="Merger_Faders">
<polygon fill="white" stroke="black" points="285,-1204 285,-1228 367,-1228 367,-1204 285,-1204"/>
<text text-anchor="middle" x="326" y="-1215" font-family="Helvetica,sans-Serif" font-size="10.00">Merger_Faders</text>
</a>
</g>
<!-- Node35&#45;&gt;Node38 -->
<g id="edge82" class="edge"><title>Node35&#45;&gt;Node38</title>
<path fill="none" stroke="midnightblue" d="M177.555,-1216C202.461,-1216 242.527,-1216 274.76,-1216"/>
<polygon fill="midnightblue" stroke="midnightblue" points="274.921,-1219.5 284.921,-1216 274.921,-1212.5 274.921,-1219.5"/>
</g>
<!-- Node37&#45;&gt;Node7 -->
<g id="edge78" class="edge"><title>Node37&#45;&gt;Node7</title>
<path fill="none" stroke="midnightblue" d="M379.512,-1312.39C400.743,-1315.72 424.578,-1319.46 443.595,-1322.45"/>
<polygon fill="midnightblue" stroke="midnightblue" points="443.196,-1325.93 453.617,-1324.02 444.28,-1319.01 443.196,-1325.93"/>
</g>
<!-- Node37&#45;&gt;Node21 -->
<g id="edge80" class="edge"><title>Node37&#45;&gt;Node21</title>
<path fill="none" stroke="midnightblue" d="M371.078,-1283.97C396.263,-1272.77 426.948,-1259.13 449.151,-1249.27"/>
<polygon fill="midnightblue" stroke="midnightblue" points="450.689,-1252.41 458.405,-1245.15 447.846,-1246.02 450.689,-1252.41"/>
</g>
<!-- Node38&#45;&gt;Node21 -->
<g id="edge84" class="edge"><title>Node38&#45;&gt;Node21</title>
<path fill="none" stroke="midnightblue" d="M367.001,-1221.36C392.486,-1224.69 424.723,-1228.91 448.061,-1231.96"/>
<polygon fill="midnightblue" stroke="midnightblue" points="447.732,-1235.44 458.102,-1233.27 448.64,-1228.5 447.732,-1235.44"/>
</g>
<!-- Node40 -->
<g id="node85" class="node"><title>Node40</title>
<a xlink:href="network__artnet__3_8cpp.html#a52663b2ef9ae55710b667ce7e37b5d3f" target="_top" xlink:title="ArtDmx">
<polygon fill="white" stroke="red" points="301,-296 301,-320 351,-320 351,-296 301,-296"/>
<text text-anchor="middle" x="326" y="-307" font-family="Helvetica,sans-Serif" font-size="10.00">ArtDmx</text>
</a>
</g>
<!-- Node39&#45;&gt;Node40 -->
<g id="edge90" class="edge"><title>Node39&#45;&gt;Node40</title>
<path fill="none" stroke="midnightblue" d="M212.231,-327.843C238.313,-323.294 268.211,-318.079 290.811,-314.138"/>
<polygon fill="midnightblue" stroke="midnightblue" points="291.705,-317.535 300.955,-312.368 290.503,-310.639 291.705,-317.535"/>
</g>
<!-- Node41 -->
<g id="node87" class="node"><title>Node41</title>
<a xlink:href="dmx__functions__13_8cpp.html#aa9ce6ff7bb814d25f1dd955c7e2a1838" target="_top" xlink:title="check_if_dmx_change">
<polygon fill="white" stroke="black" points="269,-254 269,-278 383,-278 383,-254 269,-254"/>
<text text-anchor="middle" x="326" y="-265" font-family="Helvetica,sans-Serif" font-size="10.00">check_if_dmx_change</text>
</a>
</g>
<!-- Node39&#45;&gt;Node41 -->
<g id="edge92" class="edge"><title>Node39&#45;&gt;Node41</title>
<path fill="none" stroke="midnightblue" d="M208.647,-325.948C216.017,-323.451 223.329,-320.491 230,-317 248.453,-307.342 247.881,-297.271 266,-287 269.069,-285.26 272.308,-283.627 275.625,-282.102"/>
<polygon fill="midnightblue" stroke="midnightblue" points="277.264,-285.209 285.109,-278.088 274.535,-278.763 277.264,-285.209"/>
</g>
<!-- Node42 -->
<g id="node89" class="node"><title>Node42</title>
<a xlink:href="dmx__enttec__pro_8cpp.html#a6a5a2ed5121b0102514b55519f421807" target="_top" xlink:title="Enttec_Pro_SendData">
<polygon fill="white" stroke="black" points="269,-212 269,-236 383,-236 383,-212 269,-212"/>
<text text-anchor="middle" x="326" y="-223" font-family="Helvetica,sans-Serif" font-size="10.00">Enttec_Pro_SendData</text>
</a>
</g>
<!-- Node39&#45;&gt;Node42 -->
<g id="edge94" class="edge"><title>Node39&#45;&gt;Node42</title>
<path fill="none" stroke="midnightblue" d="M212.167,-327.537C218.594,-324.799 224.714,-321.348 230,-317 257.63,-294.272 239.148,-268.642 266,-245 267.491,-243.687 269.069,-242.455 270.714,-241.299"/>
<polygon fill="midnightblue" stroke="midnightblue" points="272.604,-244.248 279.411,-236.129 269.027,-238.231 272.604,-244.248"/>
</g>
<!-- Node43 -->
<g id="node91" class="node"><title>Node43</title>
<a xlink:href="dmx__sunlite_8cpp.html#a2fa2d09b0fd94bfa1d215fbb83531865" target="_top" xlink:title="sunlite_send_data">
<polygon fill="white" stroke="black" points="278.5,-170 278.5,-194 373.5,-194 373.5,-170 278.5,-170"/>
<text text-anchor="middle" x="326" y="-181" font-family="Helvetica,sans-Serif" font-size="10.00">sunlite_send_data</text>
</a>
</g>
<!-- Node39&#45;&gt;Node43 -->
<g id="edge96" class="edge"><title>Node39&#45;&gt;Node43</title>
<path fill="none" stroke="midnightblue" d="M212.106,-328.66C218.698,-325.741 224.876,-321.941 230,-317 268.246,-280.117 229.012,-241.145 266,-203 267.215,-201.747 268.509,-200.569 269.867,-199.461"/>
<polygon fill="midnightblue" stroke="midnightblue" points="271.885,-202.322 278.25,-193.852 267.992,-196.504 271.885,-202.322"/>
</g>
</g>
</svg>
