<?xml version="1.0" encoding="UTF-8" standalone="no"?>
<!DOCTYPE svg PUBLIC "-//W3C//DTD SVG 1.1//EN"
 "http://www.w3.org/Graphics/SVG/1.1/DTD/svg11.dtd">
<!-- Generated by graphviz version 2.26.3 (20100126.1600)
 -->
<!-- Title: do_mouse_right_click_menu Pages: 1 -->
<svg width="462pt" height="516pt"
 viewBox="0.00 0.00 462.00 516.00" xmlns="http://www.w3.org/2000/svg" xmlns:xlink="http://www.w3.org/1999/xlink">
<g id="graph1" class="graph" transform="scale(1 1) rotate(0) translate(4 512)">
<title>do_mouse_right_click_menu</title>
<polygon fill="white" stroke="white" points="-4,5 -4,-512 459,-512 459,5 -4,5"/>
<!-- Node1 -->
<g id="node1" class="node"><title>Node1</title>
<polygon fill="#bfbfbf" stroke="black" points="0,-342 0,-366 140,-366 140,-342 0,-342"/>
<text text-anchor="middle" x="70" y="-353" font-family="Helvetica,sans-Serif" font-size="10.00">do_mouse_right_click_menu</text>
</g>
<!-- Node2 -->
<g id="node3" class="node"><title>Node2</title>
<a xlink:href="_c_o_r_e__6_8cpp.html#a9574e0b790211959c7398e42468410d8" target="_top" xlink:title="toggle">
<polygon fill="white" stroke="black" points="207.5,-384 207.5,-408 250.5,-408 250.5,-384 207.5,-384"/>
<text text-anchor="middle" x="229" y="-395" font-family="Helvetica,sans-Serif" font-size="10.00">toggle</text>
</a>
</g>
<!-- Node1&#45;&gt;Node2 -->
<g id="edge2" class="edge"><title>Node1&#45;&gt;Node2</title>
<path fill="none" stroke="midnightblue" d="M115.563,-366.036C141.782,-372.961 174.064,-381.489 197.478,-387.673"/>
<polygon fill="midnightblue" stroke="midnightblue" points="196.678,-391.082 207.241,-390.252 198.466,-384.314 196.678,-391.082"/>
</g>
<!-- Node3 -->
<g id="node5" class="node"><title>Node3</title>
<a xlink:href="gestionaire__fenetres2_8cpp.html#ada3b9703b1aaa1cc37304633bdeb526c" target="_top" xlink:title="add_a_window">
<polygon fill="white" stroke="black" points="188.5,-163 188.5,-187 269.5,-187 269.5,-163 188.5,-163"/>
<text text-anchor="middle" x="229" y="-174" font-family="Helvetica,sans-Serif" font-size="10.00">add_a_window</text>
</a>
</g>
<!-- Node1&#45;&gt;Node3 -->
<g id="edge4" class="edge"><title>Node1&#45;&gt;Node3</title>
<path fill="none" stroke="midnightblue" d="M80.6793,-341.977C107.479,-311.807 177.804,-232.636 211.07,-195.186"/>
<polygon fill="midnightblue" stroke="midnightblue" points="213.922,-197.245 217.947,-187.444 208.689,-192.596 213.922,-197.245"/>
</g>
<!-- Node11 -->
<g id="node21" class="node"><title>Node11</title>
<a xlink:href="_c_o_r_e__6_8cpp.html#ad0ba084ac976c6a4d32088e939ee0dbc" target="_top" xlink:title="substract_a_window">
<polygon fill="white" stroke="black" points="176,-342 176,-366 282,-366 282,-342 176,-342"/>
<text text-anchor="middle" x="229" y="-353" font-family="Helvetica,sans-Serif" font-size="10.00">substract_a_window</text>
</a>
</g>
<!-- Node1&#45;&gt;Node11 -->
<g id="edge20" class="edge"><title>Node1&#45;&gt;Node11</title>
<path fill="none" stroke="midnightblue" d="M140.203,-354C148.719,-354 157.38,-354 165.787,-354"/>
<polygon fill="midnightblue" stroke="midnightblue" points="165.89,-357.5 175.89,-354 165.889,-350.5 165.89,-357.5"/>
</g>
<!-- Node4 -->
<g id="node7" class="node"><title>Node4</title>
<a xlink:href="_c_o_r_e__6_8cpp.html#a492a9badab85a9e07b0200f4e34b607f" target="_top" xlink:title="reset_check_grada_overide\l_dimmers">
<polygon fill="white" stroke="black" points="318,-226 318,-266 454,-266 454,-226 318,-226"/>
<text text-anchor="start" x="326" y="-253" font-family="Helvetica,sans-Serif" font-size="10.00">reset_check_grada_overide</text>
<text text-anchor="middle" x="386" y="-237" font-family="Helvetica,sans-Serif" font-size="10.00">_dimmers</text>
</a>
</g>
<!-- Node3&#45;&gt;Node4 -->
<g id="edge6" class="edge"><title>Node3&#45;&gt;Node4</title>
<path fill="none" stroke="midnightblue" d="M253.819,-187.021C271.607,-195.56 296.179,-207.202 318,-217 321.586,-218.61 325.287,-220.25 329.024,-221.889"/>
<polygon fill="midnightblue" stroke="midnightblue" points="327.778,-225.164 338.344,-225.946 330.572,-218.746 327.778,-225.164"/>
</g>
<!-- Node5 -->
<g id="node9" class="node"><title>Node5</title>
<a xlink:href="_c_o_r_e__6_8cpp.html#aa8157e82745eb3ac355d8f443b19955f" target="_top" xlink:title="refresh_shape_factors">
<polygon fill="white" stroke="black" points="329.5,-42 329.5,-66 442.5,-66 442.5,-42 329.5,-42"/>
<text text-anchor="middle" x="386" y="-53" font-family="Helvetica,sans-Serif" font-size="10.00">refresh_shape_factors</text>
</a>
</g>
<!-- Node3&#45;&gt;Node5 -->
<g id="edge8" class="edge"><title>Node3&#45;&gt;Node5</title>
<path fill="none" stroke="midnightblue" d="M236.506,-162.919C250.151,-141.943 281.055,-98.7605 318,-75 320.617,-73.3166 323.378,-71.7612 326.229,-70.3248"/>
<polygon fill="midnightblue" stroke="midnightblue" points="327.881,-73.4195 335.572,-66.1319 325.015,-67.0331 327.881,-73.4195"/>
</g>
<!-- Node6 -->
<g id="node11" class="node"><title>Node6</title>
<a xlink:href="saves__menu__8_8cpp.html#aa97cd577bd2f433780569b3a20136d23" target="_top" xlink:title="scan_importfolder">
<polygon fill="white" stroke="black" points="339,-0 339,-24 433,-24 433,-0 339,-0"/>
<text text-anchor="middle" x="386" y="-11" font-family="Helvetica,sans-Serif" font-size="10.00">scan_importfolder</text>
</a>
</g>
<!-- Node3&#45;&gt;Node6 -->
<g id="edge10" class="edge"><title>Node3&#45;&gt;Node6</title>
<path fill="none" stroke="midnightblue" d="M233.29,-162.678C243.493,-135.183 271.861,-68.4574 318,-33 321.568,-30.2578 325.498,-27.8709 329.613,-25.7936"/>
<polygon fill="midnightblue" stroke="midnightblue" points="331.112,-28.9578 338.852,-21.7228 328.29,-22.5521 331.112,-28.9578"/>
</g>
<!-- Node7 -->
<g id="node13" class="node"><title>Node7</title>
<a xlink:href="saves__menu__8_8cpp.html#aa54ed73e914394a0efe1c45930c72cbd" target="_top" xlink:title="scan_savesfolder">
<polygon fill="white" stroke="black" points="339.5,-184 339.5,-208 432.5,-208 432.5,-184 339.5,-184"/>
<text text-anchor="middle" x="386" y="-195" font-family="Helvetica,sans-Serif" font-size="10.00">scan_savesfolder</text>
</a>
</g>
<!-- Node3&#45;&gt;Node7 -->
<g id="edge12" class="edge"><title>Node3&#45;&gt;Node7</title>
<path fill="none" stroke="midnightblue" d="M269.84,-180.463C287.945,-182.884 309.552,-185.774 329.192,-188.402"/>
<polygon fill="midnightblue" stroke="midnightblue" points="328.879,-191.891 339.255,-189.748 329.808,-184.953 328.879,-191.891"/>
</g>
<!-- Node8 -->
<g id="node15" class="node"><title>Node8</title>
<a xlink:href="_c_o_r_e__6_8cpp.html#a91e4f7146fd4a20828a9bd7ac93c0baa" target="_top" xlink:title="reset_audio_indexs\l_to_dock">
<polygon fill="white" stroke="black" points="335.5,-284 335.5,-324 436.5,-324 436.5,-284 335.5,-284"/>
<text text-anchor="start" x="343.5" y="-311" font-family="Helvetica,sans-Serif" font-size="10.00">reset_audio_indexs</text>
<text text-anchor="middle" x="386" y="-295" font-family="Helvetica,sans-Serif" font-size="10.00">_to_dock</text>
</a>
</g>
<!-- Node3&#45;&gt;Node8 -->
<g id="edge14" class="edge"><title>Node3&#45;&gt;Node8</title>
<path fill="none" stroke="midnightblue" d="M236.993,-187.02C251.155,-207.52 282.523,-249.494 318,-275 320.657,-276.91 323.46,-278.728 326.352,-280.452"/>
<polygon fill="midnightblue" stroke="midnightblue" points="324.796,-283.591 335.245,-285.345 328.171,-277.458 324.796,-283.591"/>
</g>
<!-- Node9 -->
<g id="node17" class="node"><title>Node9</title>
<a xlink:href="gestionaire__fenetres2_8cpp.html#a3ecbad4b357ed9e70478e6418261f2fd" target="_top" xlink:title="reset_config_indexes">
<polygon fill="white" stroke="black" points="331.5,-142 331.5,-166 440.5,-166 440.5,-142 331.5,-142"/>
<text text-anchor="middle" x="386" y="-153" font-family="Helvetica,sans-Serif" font-size="10.00">reset_config_indexes</text>
</a>
</g>
<!-- Node3&#45;&gt;Node9 -->
<g id="edge16" class="edge"><title>Node3&#45;&gt;Node9</title>
<path fill="none" stroke="midnightblue" d="M269.84,-169.537C285.562,-167.434 303.925,-164.978 321.348,-162.648"/>
<polygon fill="midnightblue" stroke="midnightblue" points="322.023,-166.089 331.47,-161.294 321.095,-159.151 322.023,-166.089"/>
</g>
<!-- Node10 -->
<g id="node19" class="node"><title>Node10</title>
<a xlink:href="gestionaire__fenetres2_8cpp.html#ad38c1b7f03bd1ec3007a87d4c55efacf" target="_top" xlink:title="clear_non_desired_values\l_in_window_list">
<polygon fill="white" stroke="black" points="321.5,-84 321.5,-124 450.5,-124 450.5,-84 321.5,-84"/>
<text text-anchor="start" x="329.5" y="-111" font-family="Helvetica,sans-Serif" font-size="10.00">clear_non_desired_values</text>
<text text-anchor="middle" x="386" y="-95" font-family="Helvetica,sans-Serif" font-size="10.00">_in_window_list</text>
</a>
</g>
<!-- Node3&#45;&gt;Node10 -->
<g id="edge18" class="edge"><title>Node3&#45;&gt;Node10</title>
<path fill="none" stroke="midnightblue" d="M253.819,-162.979C271.607,-154.44 296.179,-142.798 318,-133 321.586,-131.39 325.287,-129.75 329.024,-128.111"/>
<polygon fill="midnightblue" stroke="midnightblue" points="330.572,-131.254 338.344,-124.054 327.778,-124.836 330.572,-131.254"/>
</g>
<!-- Node11&#45;&gt;Node4 -->
<g id="edge26" class="edge"><title>Node11&#45;&gt;Node4</title>
<path fill="none" stroke="midnightblue" d="M240.099,-341.947C256.039,-325.183 286.93,-294.676 318,-275 320.182,-273.618 322.441,-272.274 324.752,-270.971"/>
<polygon fill="midnightblue" stroke="midnightblue" points="326.663,-273.92 333.867,-266.151 323.39,-267.732 326.663,-273.92"/>
</g>
<!-- Node11&#45;&gt;Node8 -->
<g id="edge30" class="edge"><title>Node11&#45;&gt;Node8</title>
<path fill="none" stroke="midnightblue" d="M267.005,-341.896C284.631,-336.283 306.007,-329.475 325.752,-323.187"/>
<polygon fill="midnightblue" stroke="midnightblue" points="326.824,-326.519 335.291,-320.149 324.7,-319.849 326.824,-326.519"/>
</g>
<!-- Node12 -->
<g id="node23" class="node"><title>Node12</title>
<a xlink:href="_c_o_r_e__6_8cpp.html#a934d136a7c8a752109bc4b160717ee36" target="_top" xlink:title="reset_index_actions">
<polygon fill="white" stroke="black" points="334,-442 334,-466 438,-466 438,-442 334,-442"/>
<text text-anchor="middle" x="386" y="-453" font-family="Helvetica,sans-Serif" font-size="10.00">reset_index_actions</text>
</a>
</g>
<!-- Node11&#45;&gt;Node12 -->
<g id="edge22" class="edge"><title>Node11&#45;&gt;Node12</title>
<path fill="none" stroke="midnightblue" d="M267.988,-366.052C272.995,-368.548 277.824,-371.509 282,-375 305.278,-394.459 293.984,-414.46 318,-433 320.097,-434.619 322.319,-436.113 324.631,-437.494"/>
<polygon fill="midnightblue" stroke="midnightblue" points="323.427,-440.81 333.92,-442.27 326.628,-434.585 323.427,-440.81"/>
</g>
<!-- Node13 -->
<g id="node25" class="node"><title>Node13</title>
<a xlink:href="_c_o_r_e__6_8cpp.html#a894b338494d0bdd820df2944b628e2de" target="_top" xlink:title="patch_unselect_all\l_dimmers">
<polygon fill="white" stroke="black" points="337,-384 337,-424 435,-424 435,-384 337,-384"/>
<text text-anchor="start" x="345" y="-411" font-family="Helvetica,sans-Serif" font-size="10.00">patch_unselect_all</text>
<text text-anchor="middle" x="386" y="-395" font-family="Helvetica,sans-Serif" font-size="10.00">_dimmers</text>
</a>
</g>
<!-- Node11&#45;&gt;Node13 -->
<g id="edge24" class="edge"><title>Node11&#45;&gt;Node13</title>
<path fill="none" stroke="midnightblue" d="M267.005,-366.104C285.021,-371.841 306.955,-378.826 327.06,-385.229"/>
<polygon fill="midnightblue" stroke="midnightblue" points="326.168,-388.618 336.758,-388.318 328.292,-381.948 326.168,-388.618"/>
</g>
<!-- Node14 -->
<g id="node28" class="node"><title>Node14</title>
<a xlink:href="_c_o_r_e__6_8cpp.html#afb9b54a7bc4ccbba5ddcdc2097550188" target="_top" xlink:title="reset_indexs_confirmation">
<polygon fill="white" stroke="black" points="320.5,-342 320.5,-366 451.5,-366 451.5,-342 320.5,-342"/>
<text text-anchor="middle" x="386" y="-353" font-family="Helvetica,sans-Serif" font-size="10.00">reset_indexs_confirmation</text>
</a>
</g>
<!-- Node11&#45;&gt;Node14 -->
<g id="edge28" class="edge"><title>Node11&#45;&gt;Node14</title>
<path fill="none" stroke="midnightblue" d="M282.153,-354C291.168,-354 300.684,-354 310.147,-354"/>
<polygon fill="midnightblue" stroke="midnightblue" points="310.37,-357.5 320.37,-354 310.37,-350.5 310.37,-357.5"/>
</g>
<!-- Node15 -->
<g id="node31" class="node"><title>Node15</title>
<a xlink:href="_c_o_r_e__6_8cpp.html#abfbdb9056b43d4acfaf3f39122911bad" target="_top" xlink:title="remember_config_page">
<polygon fill="white" stroke="black" points="327,-484 327,-508 445,-508 445,-484 327,-484"/>
<text text-anchor="middle" x="386" y="-495" font-family="Helvetica,sans-Serif" font-size="10.00">remember_config_page</text>
</a>
</g>
<!-- Node11&#45;&gt;Node15 -->
<g id="edge32" class="edge"><title>Node11&#45;&gt;Node15</title>
<path fill="none" stroke="midnightblue" d="M270.035,-366.005C274.437,-368.479 278.557,-371.446 282,-375 314.868,-408.926 283.839,-442.376 318,-475 319.259,-476.203 320.586,-477.337 321.969,-478.406"/>
<polygon fill="midnightblue" stroke="midnightblue" points="320.123,-481.379 330.426,-483.847 323.91,-475.493 320.123,-481.379"/>
</g>
</g>
</svg>
