<?xml version="1.0" encoding="UTF-8" standalone="no"?>
<!DOCTYPE svg PUBLIC "-//W3C//DTD SVG 1.1//EN"
 "http://www.w3.org/Graphics/SVG/1.1/DTD/svg11.dtd">
<!-- Generated by graphviz version 2.26.3 (20100126.1600)
 -->
<!-- Title: ticker_dmxIn Pages: 1 -->
<svg width="378pt" height="74pt"
 viewBox="0.00 0.00 378.00 74.00" xmlns="http://www.w3.org/2000/svg" xmlns:xlink="http://www.w3.org/1999/xlink">
<g id="graph1" class="graph" transform="scale(1 1) rotate(0) translate(4 70)">
<title>ticker_dmxIn</title>
<polygon fill="white" stroke="white" points="-4,5 -4,-70 375,-70 375,5 -4,5"/>
<!-- Node1 -->
<g id="node1" class="node"><title>Node1</title>
<polygon fill="#bfbfbf" stroke="black" points="0.5,-21 0.5,-45 73.5,-45 73.5,-21 0.5,-21"/>
<text text-anchor="middle" x="37" y="-32" font-family="Helvetica,sans-Serif" font-size="10.00">ticker_dmxIn</text>
</g>
<!-- Node2 -->
<g id="node3" class="node"><title>Node2</title>
<a xlink:href="dmx__functions__13_8cpp.html#a78924a323d6d759f8b9112ddda870cf4" target="_top" xlink:title="Receive_DMX_IN">
<polygon fill="white" stroke="black" points="110,-21 110,-45 206,-45 206,-21 110,-21"/>
<text text-anchor="middle" x="158" y="-32" font-family="Helvetica,sans-Serif" font-size="10.00">Receive_DMX_IN</text>
</a>
</g>
<!-- Node1&#45;&gt;Node2 -->
<g id="edge2" class="edge"><title>Node1&#45;&gt;Node2</title>
<path fill="none" stroke="midnightblue" d="M73.6324,-33C81.9206,-33 90.9205,-33 99.852,-33"/>
<polygon fill="midnightblue" stroke="midnightblue" points="99.8653,-36.5001 109.865,-33 99.8652,-29.5001 99.8653,-36.5001"/>
</g>
<!-- Node3 -->
<g id="node5" class="node"><title>Node3</title>
<a xlink:href="dmx__sunlite_8cpp.html#ae0ba86295c375e6e15cf9bd7a94888c0" target="_top" xlink:title="Receive_sunlite_dmxIN">
<polygon fill="white" stroke="black" points="245.5,-42 245.5,-66 366.5,-66 366.5,-42 245.5,-42"/>
<text text-anchor="middle" x="306" y="-53" font-family="Helvetica,sans-Serif" font-size="10.00">Receive_sunlite_dmxIN</text>
</a>
</g>
<!-- Node2&#45;&gt;Node3 -->
<g id="edge4" class="edge"><title>Node2&#45;&gt;Node3</title>
<path fill="none" stroke="midnightblue" d="M206.051,-39.8181C215.484,-41.1564 225.56,-42.5862 235.549,-44.0036"/>
<polygon fill="midnightblue" stroke="midnightblue" points="235.091,-47.4735 245.483,-45.4132 236.074,-40.543 235.091,-47.4735"/>
</g>
<!-- Node4 -->
<g id="node7" class="node"><title>Node4</title>
<a xlink:href="dmx__enttec__pro_8cpp.html#a29568351e92472b4d93aacdf7a4d6d0a" target="_top" xlink:title="Enttec_Pro_ReceiveData">
<polygon fill="white" stroke="black" points="242,-0 242,-24 370,-24 370,-0 242,-0"/>
<text text-anchor="middle" x="306" y="-11" font-family="Helvetica,sans-Serif" font-size="10.00">Enttec_Pro_ReceiveData</text>
</a>
</g>
<!-- Node2&#45;&gt;Node4 -->
<g id="edge6" class="edge"><title>Node2&#45;&gt;Node4</title>
<path fill="none" stroke="midnightblue" d="M206.051,-26.1819C214.241,-25.0198 222.917,-23.7889 231.599,-22.5568"/>
<polygon fill="midnightblue" stroke="midnightblue" points="232.358,-25.9844 241.767,-21.1142 231.374,-19.0538 232.358,-25.9844"/>
</g>
</g>
</svg>
