<?xml version="1.0" encoding="UTF-8" standalone="no"?>
<!DOCTYPE svg PUBLIC "-//W3C//DTD SVG 1.1//EN"
 "http://www.w3.org/Graphics/SVG/1.1/DTD/svg11.dtd">
<!-- Generated by graphviz version 2.26.3 (20100126.1600)
 -->
<!-- Title: Tmax Pages: 1 -->
<!--zoomable 250 -->
<svg id="main" version="1.1" xmlns="http://www.w3.org/2000/svg" xmlns:xlink="http://www.w3.org/1999/xlink" xml:space="preserve" onload="init(evt)">
<style type="text/css"><![CDATA[
.edge:hover path { stroke: red; }
.edge:hover polygon { stroke: red; fill: red; }
]]></style>
<script type="text/javascript"><![CDATA[
var edges = document.getElementsByTagName('g');
if (edges && edges.length) {
  for (var i=0;i<edges.length;i++) {
    if (edges[i].id.substr(0,4)=='edge') {
      edges[i].setAttribute('class','edge');
    }
  }
}
]]></script>
        <defs>
                <circle id="rim" cx="0" cy="0" r="7"/>
                <circle id="rim2" cx="0" cy="0" r="3.5"/>
                <g id="zoomPlus">
                        <use xlink:href="#rim" fill="#404040">
                                <set attributeName="fill" to="#808080" begin="zoomplus.mouseover" end="zoomplus.mouseout"/>
                        </use>
                        <path d="M-4,0h8M0,-4v8" fill="none" stroke="white" stroke-width="1.5" pointer-events="none"/>
                </g>
                <g id="zoomMin">
                        <use xlink:href="#rim" fill="#404040">
                                <set attributeName="fill" to="#808080" begin="zoomminus.mouseover" end="zoomminus.mouseout"/>
                        </use>
                        <path d="M-4,0h8" fill="none" stroke="white" stroke-width="1.5" pointer-events="none"/>
                </g>
                <g id="dirArrow">
                        <path fill="none" stroke="white" stroke-width="1.5" d="M0,-3.0v7 M-2.5,-0.5L0,-3.0L2.5,-0.5"/>
                </g>
               <g id="resetDef">
                       <use xlink:href="#rim2" fill="#404040">
                               <set attributeName="fill" to="#808080" begin="reset.mouseover" end="reset.mouseout"/>
                       </use>
               </g>
        </defs>

<script type="text/javascript">
var viewWidth = 1248;
var viewHeight = 250;
var sectionId = 'dynsection-18';
</script>
<script xlink:href="svgpan.js"/>
<svg id="graph" class="graph">
<g id="viewport">
<title>Tmax</title>
<polygon fill="white" stroke="white" points="-4,5 -4,-246 1245,-246 1245,5 -4,5"/>
<!-- Node1 -->
<g id="node1" class="node"><title>Node1</title>
<polygon fill="#bfbfbf" stroke="black" points="0.5,-96 0.5,-120 41.5,-120 41.5,-96 0.5,-96"/>
<text text-anchor="middle" x="21" y="-107" font-family="Helvetica,sans-Serif" font-size="10.00">Tmax</text>
</g>
<!-- Node2 -->
<g id="node3" class="node"><title>Node2</title>
<a xlink:href="channels__9__core_8cpp.html#a6339d05fc2a9d7a1dea0adf2ee99bcfc" target="_top" xlink:title="channel_copy">
<polygon fill="white" stroke="black" points="93.5,-176 93.5,-200 170.5,-200 170.5,-176 93.5,-176"/>
<text text-anchor="middle" x="132" y="-187" font-family="Helvetica,sans-Serif" font-size="10.00">channel_copy</text>
</a>
</g>
<!-- Node1&#45;&gt;Node2 -->
<g id="edge2" class="edge"><title>Node1&#45;&gt;Node2</title>
<path fill="none" stroke="midnightblue" d="M38.9409,-127.795C49.5757,-138.778 63.7308,-152.163 78,-162 85.6244,-167.256 94.4742,-172 102.776,-175.953"/>
<polygon fill="midnightblue" stroke="midnightblue" points="41.2793,-125.174 31.868,-120.307 36.1906,-129.98 41.2793,-125.174"/>
</g>
<!-- Node8 -->
<g id="node16" class="node"><title>Node8</title>
<a xlink:href="chasers__core__5_8cpp.html#a1d95361a5140157ac0aae6fa94b09cbe" target="_top" xlink:title="do_chaser">
<polygon fill="white" stroke="black" points="269,-119 269,-143 331,-143 331,-119 269,-119"/>
<text text-anchor="middle" x="300" y="-130" font-family="Helvetica,sans-Serif" font-size="10.00">do_chaser</text>
</a>
</g>
<!-- Node1&#45;&gt;Node8 -->
<g id="edge16" class="edge"><title>Node1&#45;&gt;Node8</title>
<path fill="none" stroke="midnightblue" d="M51.1473,-121.295C59.6641,-124.445 69.0526,-127.363 78,-129 145.107,-141.281 225.543,-137.536 268.797,-134.055"/>
<polygon fill="midnightblue" stroke="midnightblue" points="52.2157,-117.955 41.6285,-117.554 49.6553,-124.47 52.2157,-117.955"/>
</g>
<!-- Node15 -->
<g id="node32" class="node"><title>Node15</title>
<a xlink:href="dmx__functions__13_8cpp.html#afe72c8c1d3c933742658c5d58139f302" target="_top" xlink:title="Merger_Faders">
<polygon fill="white" stroke="black" points="91,-96 91,-120 173,-120 173,-96 91,-96"/>
<text text-anchor="middle" x="132" y="-107" font-family="Helvetica,sans-Serif" font-size="10.00">Merger_Faders</text>
</a>
</g>
<!-- Node1&#45;&gt;Node15 -->
<g id="edge34" class="edge"><title>Node1&#45;&gt;Node15</title>
<path fill="none" stroke="midnightblue" d="M51.6596,-108C63.7558,-108 77.8354,-108 90.7983,-108"/>
<polygon fill="midnightblue" stroke="midnightblue" points="51.6181,-104.5 41.6181,-108 51.6181,-111.5 51.6181,-104.5"/>
</g>
<!-- Node16 -->
<g id="node34" class="node"><title>Node16</title>
<a xlink:href="dmx__functions__13_8cpp.html#adb29aebba6d2c4fb69de35a3a6496ebf" target="_top" xlink:title="Merger">
<polygon fill="white" stroke="black" points="276.5,-68 276.5,-92 323.5,-92 323.5,-68 276.5,-68"/>
<text text-anchor="middle" x="300" y="-79" font-family="Helvetica,sans-Serif" font-size="10.00">Merger</text>
</a>
</g>
<!-- Node1&#45;&gt;Node16 -->
<g id="edge44" class="edge"><title>Node1&#45;&gt;Node16</title>
<path fill="none" stroke="midnightblue" d="M51.1724,-94.8375C59.6893,-91.6886 69.0716,-88.738 78,-87 149.159,-73.1482 235.529,-75.8661 276.393,-78.2873"/>
<polygon fill="midnightblue" stroke="midnightblue" points="49.6873,-91.6601 41.6508,-98.5643 52.2387,-98.1786 49.6873,-91.6601"/>
</g>
<!-- Node17 -->
<g id="node37" class="node"><title>Node17</title>
<a xlink:href="dmx__functions__13_8cpp.html#ac0e932ae0c7050397aecccdf0a97c882" target="_top" xlink:title="calculs_etats_faders\l_et_contenus">
<polygon fill="white" stroke="black" points="78.5,-0 78.5,-40 185.5,-40 185.5,-0 78.5,-0"/>
<text text-anchor="start" x="86.5" y="-27" font-family="Helvetica,sans-Serif" font-size="10.00">calculs_etats_faders</text>
<text text-anchor="middle" x="132" y="-11" font-family="Helvetica,sans-Serif" font-size="10.00">_et_contenus</text>
</a>
</g>
<!-- Node1&#45;&gt;Node17 -->
<g id="edge40" class="edge"><title>Node1&#45;&gt;Node17</title>
<path fill="none" stroke="midnightblue" d="M39.7921,-88.3957C50.5171,-77.6802 64.4834,-64.4936 78,-54 84.2132,-49.1765 91.1336,-44.4132 97.8911,-40.0478"/>
<polygon fill="midnightblue" stroke="midnightblue" points="37.1332,-86.1075 32.6084,-95.6875 42.1198,-91.0202 37.1332,-86.1075"/>
</g>
<!-- Node3 -->
<g id="node5" class="node"><title>Node3</title>
<a xlink:href="_call__everybody__5_8cpp.html#af326410369b61f889c2c6068a6d67f60" target="_top" xlink:title="do_logical_FunctionBoxChannel">
<polygon fill="white" stroke="black" points="222,-206 222,-230 378,-230 378,-206 222,-206"/>
<text text-anchor="middle" x="300" y="-217" font-family="Helvetica,sans-Serif" font-size="10.00">do_logical_FunctionBoxChannel</text>
</a>
</g>
<!-- Node2&#45;&gt;Node3 -->
<g id="edge4" class="edge"><title>Node2&#45;&gt;Node3</title>
<path fill="none" stroke="midnightblue" d="M180.836,-196.721C197.014,-199.61 215.315,-202.878 232.634,-205.97"/>
<polygon fill="midnightblue" stroke="midnightblue" points="181.002,-193.195 170.543,-194.883 179.772,-200.086 181.002,-193.195"/>
</g>
<!-- Node7 -->
<g id="node13" class="node"><title>Node7</title>
<a xlink:href="keyboard__routines2_8cpp.html#a8563320b8eab661232619224650de244" target="_top" xlink:title="commandes_clavier">
<polygon fill="white" stroke="black" points="422,-160 422,-184 526,-184 526,-160 422,-160"/>
<text text-anchor="middle" x="474" y="-171" font-family="Helvetica,sans-Serif" font-size="10.00">commandes_clavier</text>
</a>
</g>
<!-- Node2&#45;&gt;Node7 -->
<g id="edge12" class="edge"><title>Node2&#45;&gt;Node7</title>
<path fill="none" stroke="midnightblue" d="M180.785,-185.718C244.724,-182.726 356.408,-177.501 421.933,-174.436"/>
<polygon fill="midnightblue" stroke="midnightblue" points="180.392,-182.232 170.567,-186.196 180.72,-189.224 180.392,-182.232"/>
</g>
<!-- Node4 -->
<g id="node7" class="node"><title>Node4</title>
<a xlink:href="procs__visuels__rebuild1_8cpp.html#ae710b6e599e321ad5934a90140067054" target="_top" xlink:title="check_graphics_mouse\l_handling">
<polygon fill="white" stroke="black" points="414.5,-202 414.5,-242 533.5,-242 533.5,-202 414.5,-202"/>
<text text-anchor="start" x="422.5" y="-229" font-family="Helvetica,sans-Serif" font-size="10.00">check_graphics_mouse</text>
<text text-anchor="middle" x="474" y="-213" font-family="Helvetica,sans-Serif" font-size="10.00">_handling</text>
</a>
</g>
<!-- Node3&#45;&gt;Node4 -->
<g id="edge6" class="edge"><title>Node3&#45;&gt;Node4</title>
<path fill="none" stroke="midnightblue" d="M388.131,-220.026C397.033,-220.231 405.92,-220.435 414.418,-220.63"/>
<polygon fill="midnightblue" stroke="midnightblue" points="388.171,-216.526 378.093,-219.795 388.01,-223.524 388.171,-216.526"/>
</g>
<!-- Node5 -->
<g id="node9" class="node"><title>Node5</title>
<a xlink:href="_m_a_i_n__avec__objets_8cpp.html#a8e80f54ac804eddce8ed6e45adb1db44" target="_top" xlink:title="ticker_full_loop">
<polygon fill="white" stroke="black" points="571,-163 571,-187 653,-187 653,-163 571,-163"/>
<text text-anchor="middle" x="612" y="-174" font-family="Helvetica,sans-Serif" font-size="10.00">ticker_full_loop</text>
</a>
</g>
<!-- Node4&#45;&gt;Node5 -->
<g id="edge8" class="edge"><title>Node4&#45;&gt;Node5</title>
<path fill="none" stroke="midnightblue" d="M542.697,-198.603C554.37,-194.628 566.053,-190.649 576.413,-187.12"/>
<polygon fill="midnightblue" stroke="midnightblue" points="541.262,-195.394 532.925,-201.931 543.519,-202.021 541.262,-195.394"/>
</g>
<!-- Node6 -->
<g id="node11" class="node"><title>Node6</title>
<a xlink:href="_m_a_i_n__avec__objets_8cpp.html#ae66f6b31b5ad750f1fe042a706a4e3d4" target="_top" xlink:title="main">
<polygon fill="white" stroke="black" points="1202,-123 1202,-147 1240,-147 1240,-123 1202,-123"/>
<text text-anchor="middle" x="1221" y="-134" font-family="Helvetica,sans-Serif" font-size="10.00">main</text>
</a>
</g>
<!-- Node5&#45;&gt;Node6 -->
<g id="edge10" class="edge"><title>Node5&#45;&gt;Node6</title>
<path fill="none" stroke="midnightblue" d="M663.676,-174.681C715.572,-174.388 797.829,-174 869,-174 869,-174 869,-174 982,-174 1064.82,-174 1161.71,-150.905 1201.96,-140.26"/>
<polygon fill="midnightblue" stroke="midnightblue" points="663.375,-171.182 653.396,-174.74 663.416,-178.182 663.375,-171.182"/>
</g>
<!-- Node7&#45;&gt;Node5 -->
<g id="edge14" class="edge"><title>Node7&#45;&gt;Node5</title>
<path fill="none" stroke="midnightblue" d="M536.371,-173.356C548.092,-173.611 560.071,-173.871 570.937,-174.107"/>
<polygon fill="midnightblue" stroke="midnightblue" points="536.246,-169.852 526.172,-173.134 536.093,-176.851 536.246,-169.852"/>
</g>
<!-- Node9 -->
<g id="node18" class="node"><title>Node9</title>
<a xlink:href="_m_a_i_n__avec__objets_8cpp.html#a6a015280c1363331ada8a329be6eb7c8" target="_top" xlink:title="ticker">
<polygon fill="white" stroke="black" points="453.5,-85 453.5,-109 494.5,-109 494.5,-85 453.5,-85"/>
<text text-anchor="middle" x="474" y="-96" font-family="Helvetica,sans-Serif" font-size="10.00">ticker</text>
</a>
</g>
<!-- Node8&#45;&gt;Node9 -->
<g id="edge18" class="edge"><title>Node8&#45;&gt;Node9</title>
<path fill="none" stroke="midnightblue" d="M341.071,-122.975C376.213,-116.108 425.373,-106.502 453.001,-101.103"/>
<polygon fill="midnightblue" stroke="midnightblue" points="340.251,-119.569 331.108,-124.921 341.593,-126.439 340.251,-119.569"/>
</g>
<!-- Node9&#45;&gt;Node6 -->
<g id="edge32" class="edge"><title>Node9&#45;&gt;Node6</title>
<path fill="none" stroke="midnightblue" d="M504.58,-104.411C552.964,-115.469 650.275,-135 734,-135 734,-135 734,-135 982,-135 1063.74,-135 1161.21,-135 1201.79,-135"/>
<polygon fill="midnightblue" stroke="midnightblue" points="505.277,-100.98 494.744,-102.125 503.692,-107.798 505.277,-100.98"/>
</g>
<!-- Node10 -->
<g id="node20" class="node"><title>Node10</title>
<a xlink:href="_c_f_g__config__panel__8_8cpp.html#aff76db94408106be22f658a05f17831a" target="_top" xlink:title="do_core_config">
<polygon fill="white" stroke="black" points="570.5,-83 570.5,-107 653.5,-107 653.5,-83 570.5,-83"/>
<text text-anchor="middle" x="612" y="-94" font-family="Helvetica,sans-Serif" font-size="10.00">do_core_config</text>
</a>
</g>
<!-- Node9&#45;&gt;Node10 -->
<g id="edge20" class="edge"><title>Node9&#45;&gt;Node10</title>
<path fill="none" stroke="midnightblue" d="M504.729,-96.5547C524.05,-96.2746 549.227,-95.9097 570.334,-95.6038"/>
<polygon fill="midnightblue" stroke="midnightblue" points="504.608,-93.0559 494.66,-96.7006 504.71,-100.055 504.608,-93.0559"/>
</g>
<!-- Node11 -->
<g id="node22" class="node"><title>Node11</title>
<a xlink:href="_c_f_g__config__panel__8_8cpp.html#ad39c46e2fb3a3ba7ea0460140ead4f96" target="_top" xlink:title="do_panel_config">
<polygon fill="white" stroke="black" points="690.5,-83 690.5,-107 777.5,-107 777.5,-83 690.5,-83"/>
<text text-anchor="middle" x="734" y="-94" font-family="Helvetica,sans-Serif" font-size="10.00">do_panel_config</text>
</a>
</g>
<!-- Node10&#45;&gt;Node11 -->
<g id="edge22" class="edge"><title>Node10&#45;&gt;Node11</title>
<path fill="none" stroke="midnightblue" d="M663.875,-95C672.732,-95 681.851,-95 690.464,-95"/>
<polygon fill="midnightblue" stroke="midnightblue" points="663.644,-91.5001 653.644,-95 663.644,-98.5001 663.644,-91.5001"/>
</g>
<!-- Node12 -->
<g id="node24" class="node"><title>Node12</title>
<a xlink:href="_c_f_g__config__panel__8_8cpp.html#a7968da66bccdba8b864caf6c8435f68e" target="_top" xlink:title="config_general_menu">
<polygon fill="white" stroke="black" points="814.5,-83 814.5,-107 923.5,-107 923.5,-83 814.5,-83"/>
<text text-anchor="middle" x="869" y="-94" font-family="Helvetica,sans-Serif" font-size="10.00">config_general_menu</text>
</a>
</g>
<!-- Node11&#45;&gt;Node12 -->
<g id="edge24" class="edge"><title>Node11&#45;&gt;Node12</title>
<path fill="none" stroke="midnightblue" d="M788.072,-95C796.621,-95 805.471,-95 814.04,-95"/>
<polygon fill="midnightblue" stroke="midnightblue" points="787.831,-91.5001 777.831,-95 787.831,-98.5001 787.831,-91.5001"/>
</g>
<!-- Node13 -->
<g id="node26" class="node"><title>Node13</title>
<a xlink:href="graphics__rebuild1_8cpp.html#ac2eae1e03fb72cc734ffbcef566483bf" target="_top" xlink:title="Boxes">
<polygon fill="white" stroke="black" points="960,-83 960,-107 1004,-107 1004,-83 960,-83"/>
<text text-anchor="middle" x="982" y="-94" font-family="Helvetica,sans-Serif" font-size="10.00">Boxes</text>
</a>
</g>
<!-- Node12&#45;&gt;Node13 -->
<g id="edge26" class="edge"><title>Node12&#45;&gt;Node13</title>
<path fill="none" stroke="midnightblue" d="M933.747,-95C943.112,-95 952.168,-95 959.856,-95"/>
<polygon fill="midnightblue" stroke="midnightblue" points="933.514,-91.5001 923.514,-95 933.514,-98.5001 933.514,-91.5001"/>
</g>
<!-- Node14 -->
<g id="node28" class="node"><title>Node14</title>
<a xlink:href="_m_a_i_n__avec__objets_8cpp.html#ade8d4ba65d55c94f8ee277829d722155" target="_top" xlink:title="main_actions_on_screen">
<polygon fill="white" stroke="black" points="1040.5,-83 1040.5,-107 1165.5,-107 1165.5,-83 1040.5,-83"/>
<text text-anchor="middle" x="1103" y="-94" font-family="Helvetica,sans-Serif" font-size="10.00">main_actions_on_screen</text>
</a>
</g>
<!-- Node13&#45;&gt;Node14 -->
<g id="edge28" class="edge"><title>Node13&#45;&gt;Node14</title>
<path fill="none" stroke="midnightblue" d="M1014.24,-95C1022.32,-95 1031.26,-95 1040.27,-95"/>
<polygon fill="midnightblue" stroke="midnightblue" points="1014.19,-91.5001 1004.19,-95 1014.19,-98.5001 1014.19,-91.5001"/>
</g>
<!-- Node14&#45;&gt;Node6 -->
<g id="edge30" class="edge"><title>Node14&#45;&gt;Node6</title>
<path fill="none" stroke="midnightblue" d="M1147.92,-110.227C1166.55,-116.542 1187.16,-123.53 1201.74,-128.47"/>
<polygon fill="midnightblue" stroke="midnightblue" points="1149,-106.897 1138.4,-107.001 1146.75,-113.527 1149,-106.897"/>
</g>
<!-- Node15&#45;&gt;Node16 -->
<g id="edge36" class="edge"><title>Node15&#45;&gt;Node16</title>
<path fill="none" stroke="midnightblue" d="M183.314,-99.4477C214.325,-94.2792 252.378,-87.937 276.415,-83.9308"/>
<polygon fill="midnightblue" stroke="midnightblue" points="182.386,-96.054 173.097,-101.15 183.537,-102.959 182.386,-96.054"/>
</g>
<!-- Node16&#45;&gt;Node9 -->
<g id="edge38" class="edge"><title>Node16&#45;&gt;Node9</title>
<path fill="none" stroke="midnightblue" d="M334.191,-83.3405C369.689,-86.8087 424.054,-92.1202 453.438,-94.9911"/>
<polygon fill="midnightblue" stroke="midnightblue" points="334.122,-79.8172 323.829,-82.3281 333.441,-86.784 334.122,-79.8172"/>
</g>
<!-- Node17&#45;&gt;Node16 -->
<g id="edge42" class="edge"><title>Node17&#45;&gt;Node16</title>
<path fill="none" stroke="midnightblue" d="M195.094,-42.5334C223.478,-52.6709 255.265,-64.0231 276.332,-71.5471"/>
<polygon fill="midnightblue" stroke="midnightblue" points="196.213,-39.2167 185.618,-39.1493 193.858,-45.8089 196.213,-39.2167"/>
</g>
</g>
</svg>
        <g id="navigator" transform="translate(0 0)" fill="#404254">
                <rect fill="#f2f5e9" fill-opacity="0.5" stroke="#606060" stroke-width=".5" x="0" y="0" width="60" height="60"/>
                <use id="zoomplus" xlink:href="#zoomPlus" x="17" y="9" onmousedown="handleZoom(evt,'in')"/>
                <use id="zoomminus" xlink:href="#zoomMin" x="42" y="9" onmousedown="handleZoom(evt,'out')"/>
                <use id="reset" xlink:href="#resetDef" x="30" y="36" onmousedown="handleReset()"/>
                <g id="arrowUp" xlink:href="#dirArrow" transform="translate(30 24)" onmousedown="handlePan(0,-1)">
                  <use xlink:href="#rim" fill="#404040">
                        <set attributeName="fill" to="#808080" begin="arrowUp.mouseover" end="arrowUp.mouseout"/>
                  </use>
                  <path fill="none" stroke="white" stroke-width="1.5" d="M0,-3.0v7 M-2.5,-0.5L0,-3.0L2.5,-0.5"/>
                </g>
                <g id="arrowRight" xlink:href="#dirArrow" transform="rotate(90) translate(36 -43)" onmousedown="handlePan(1,0)">
                  <use xlink:href="#rim" fill="#404040">
                        <set attributeName="fill" to="#808080" begin="arrowRight.mouseover" end="arrowRight.mouseout"/>
                  </use>
                  <path fill="none" stroke="white" stroke-width="1.5" d="M0,-3.0v7 M-2.5,-0.5L0,-3.0L2.5,-0.5"/>
                </g>
                <g id="arrowDown" xlink:href="#dirArrow" transform="rotate(180) translate(-30 -48)" onmousedown="handlePan(0,1)">
                  <use xlink:href="#rim" fill="#404040">
                        <set attributeName="fill" to="#808080" begin="arrowDown.mouseover" end="arrowDown.mouseout"/>
                  </use>
                  <path fill="none" stroke="white" stroke-width="1.5" d="M0,-3.0v7 M-2.5,-0.5L0,-3.0L2.5,-0.5"/>
                </g>
                <g id="arrowLeft" xlink:href="#dirArrow" transform="rotate(270) translate(-36 17)" onmousedown="handlePan(-1,0)">
                  <use xlink:href="#rim" fill="#404040">
                        <set attributeName="fill" to="#808080" begin="arrowLeft.mouseover" end="arrowLeft.mouseout"/>
                  </use>
                  <path fill="none" stroke="white" stroke-width="1.5" d="M0,-3.0v7 M-2.5,-0.5L0,-3.0L2.5,-0.5"/>
                </g>
        </g>
        <svg viewBox="0 0 15 15" width="100%" height="30px" preserveAspectRatio="xMaxYMin meet">
         <g id="arrow_out" transform="scale(0.3 0.3)">
          <a xlink:href="_m_a_i_n__avec__objets_8cpp_acd49ac80e8195ee336da1503fd149313_icgraph_org.svg" target="_base">
           <rect id="button" ry="5" rx="5" y="6" x="6" height="38" width="38"
                fill="#f2f5e9" fill-opacity="0.5" stroke="#606060" stroke-width="1.0"/>
           <path id="arrow"
             d="M 11.500037,31.436501 C 11.940474,20.09759 22.043105,11.32322 32.158766,21.979434 L 37.068811,17.246167 C 37.068811,17.246167 37.088388,32 37.088388,32 L 22.160133,31.978069 C 22.160133,31.978069 26.997745,27.140456 26.997745,27.140456 C 18.528582,18.264221 13.291696,25.230495 11.500037,31.436501 z"
             style="fill:#404040;"/>
          </a>
         </g>
        </svg>
</svg>
