<?xml version="1.0" encoding="UTF-8" standalone="no"?>
<!DOCTYPE svg PUBLIC "-//W3C//DTD SVG 1.1//EN"
 "http://www.w3.org/Graphics/SVG/1.1/DTD/svg11.dtd">
<!-- Generated by graphviz version 2.26.3 (20100126.1600)
 -->
<!-- Title: arduino__send_config Pages: 1 -->
<svg width="350pt" height="32pt"
 viewBox="0.00 0.00 350.00 32.00" xmlns="http://www.w3.org/2000/svg" xmlns:xlink="http://www.w3.org/1999/xlink">
<g id="graph1" class="graph" transform="scale(1 1) rotate(0) translate(4 28)">
<title>arduino__send_config</title>
<polygon fill="white" stroke="white" points="-4,5 -4,-28 347,-28 347,5 -4,5"/>
<!-- Node1 -->
<g id="node1" class="node"><title>Node1</title>
<polygon fill="#bfbfbf" stroke="black" points="0.5,-0 0.5,-24 111.5,-24 111.5,-0 0.5,-0"/>
<text text-anchor="middle" x="56" y="-11" font-family="Helvetica,sans-Serif" font-size="10.00">arduino__send_config</text>
</g>
<!-- Node2 -->
<g id="node3" class="node"><title>Node2</title>
<a xlink:href="_m_a_i_n__avec__objets_8cpp.html#ace9c8a9b37c6087c3cffef442d71d70e" target="_top" xlink:title="dixiemes_de_secondes">
<polygon fill="white" stroke="black" points="148.5,-0 148.5,-24 267.5,-24 267.5,-0 148.5,-0"/>
<text text-anchor="middle" x="208" y="-11" font-family="Helvetica,sans-Serif" font-size="10.00">dixiemes_de_secondes</text>
</a>
</g>
<!-- Node1&#45;&gt;Node2 -->
<g id="edge2" class="edge"><title>Node1&#45;&gt;Node2</title>
<path fill="none" stroke="midnightblue" d="M121.958,-12C130.762,-12 139.749,-12 148.435,-12"/>
<polygon fill="midnightblue" stroke="midnightblue" points="121.736,-8.5001 111.736,-12 121.736,-15.5001 121.736,-8.5001"/>
</g>
<!-- Node3 -->
<g id="node5" class="node"><title>Node3</title>
<a xlink:href="_m_a_i_n__avec__objets_8cpp.html#ae66f6b31b5ad750f1fe042a706a4e3d4" target="_top" xlink:title="main">
<polygon fill="white" stroke="black" points="304,-0 304,-24 342,-24 342,-0 304,-0"/>
<text text-anchor="middle" x="323" y="-11" font-family="Helvetica,sans-Serif" font-size="10.00">main</text>
</a>
</g>
<!-- Node2&#45;&gt;Node3 -->
<g id="edge4" class="edge"><title>Node2&#45;&gt;Node3</title>
<path fill="none" stroke="midnightblue" d="M277.619,-12C287.191,-12 296.294,-12 303.8,-12"/>
<polygon fill="midnightblue" stroke="midnightblue" points="277.521,-8.5001 267.521,-12 277.521,-15.5001 277.521,-8.5001"/>
</g>
</g>
</svg>
