<?xml version="1.0" encoding="UTF-8" standalone="no"?>
<!DOCTYPE svg PUBLIC "-//W3C//DTD SVG 1.1//EN"
 "http://www.w3.org/Graphics/SVG/1.1/DTD/svg11.dtd">
<!-- Generated by graphviz version 2.26.3 (20100126.1600)
 -->
<!-- Title: arduino_init Pages: 1 -->
<svg width="2010pt" height="360pt"
 viewBox="0.00 0.00 2010.00 360.00" xmlns="http://www.w3.org/2000/svg" xmlns:xlink="http://www.w3.org/1999/xlink">
<g id="graph1" class="graph" transform="scale(1 1) rotate(0) translate(4 356)">
<title>arduino_init</title>
<polygon fill="white" stroke="white" points="-4,5 -4,-356 2007,-356 2007,5 -4,5"/>
<!-- Node1 -->
<g id="node1" class="node"><title>Node1</title>
<polygon fill="#bfbfbf" stroke="black" points="0,-163 0,-187 66,-187 66,-163 0,-163"/>
<text text-anchor="middle" x="33" y="-174" font-family="Helvetica,sans-Serif" font-size="10.00">arduino_init</text>
</g>
<!-- Node2 -->
<g id="node3" class="node"><title>Node2</title>
<a xlink:href="arduino__6___u_n_o_8cpp.html#a38905c45209df5be7f35a35d9a4f96db" target="_top" xlink:title="do_arduino_config">
<polygon fill="white" stroke="black" points="1202.5,-0 1202.5,-24 1297.5,-24 1297.5,-0 1202.5,-0"/>
<text text-anchor="middle" x="1250" y="-11" font-family="Helvetica,sans-Serif" font-size="10.00">do_arduino_config</text>
</a>
</g>
<!-- Node1&#45;&gt;Node2 -->
<g id="edge2" class="edge"><title>Node1&#45;&gt;Node2</title>
<path fill="none" stroke="midnightblue" d="M46.9205,-154.535C78.5297,-110.764 160.439,-12 256,-12 256,-12 256,-12 988,-12 1062.82,-12 1149.67,-12 1202.19,-12"/>
<polygon fill="midnightblue" stroke="midnightblue" points="44.0291,-152.562 41.1157,-162.749 49.7455,-156.602 44.0291,-152.562"/>
</g>
<!-- Node7 -->
<g id="node13" class="node"><title>Node7</title>
<a xlink:href="_m_a_i_n__avec__objets_8cpp.html#ae66f6b31b5ad750f1fe042a706a4e3d4" target="_top" xlink:title="main">
<polygon fill="white" stroke="black" points="1964,-145 1964,-169 2002,-169 2002,-145 1964,-145"/>
<text text-anchor="middle" x="1983" y="-156" font-family="Helvetica,sans-Serif" font-size="10.00">main</text>
</a>
</g>
<!-- Node1&#45;&gt;Node7 -->
<g id="edge92" class="edge"><title>Node1&#45;&gt;Node7</title>
<path fill="none" stroke="midnightblue" d="M45.6352,-195.9C75.7227,-242.73 156.579,-352 256,-352 256,-352 256,-352 1744,-352 1860.21,-352 1951.13,-211.888 1976.14,-169.198"/>
<polygon fill="midnightblue" stroke="midnightblue" points="48.4326,-193.773 40.1501,-187.166 42.5047,-197.496 48.4326,-193.773"/>
</g>
<!-- Node8 -->
<g id="node15" class="node"><title>Node8</title>
<a xlink:href="banger__core__8_8cpp.html#ae4008269e0575da11cc90e812961ef6f" target="_top" xlink:title="Bang_event">
<polygon fill="white" stroke="black" points="102,-163 102,-187 170,-187 170,-163 102,-163"/>
<text text-anchor="middle" x="136" y="-174" font-family="Helvetica,sans-Serif" font-size="10.00">Bang_event</text>
</a>
</g>
<!-- Node1&#45;&gt;Node8 -->
<g id="edge14" class="edge"><title>Node1&#45;&gt;Node8</title>
<path fill="none" stroke="midnightblue" d="M76.332,-175C84.8513,-175 93.6767,-175 101.843,-175"/>
<polygon fill="midnightblue" stroke="midnightblue" points="76.1568,-171.5 66.1568,-175 76.1568,-178.5 76.1568,-171.5"/>
</g>
<!-- Node3 -->
<g id="node5" class="node"><title>Node3</title>
<a xlink:href="_c_f_g__config__panel__8_8cpp.html#ad39c46e2fb3a3ba7ea0460140ead4f96" target="_top" xlink:title="do_panel_config">
<polygon fill="white" stroke="black" points="1452.5,-42 1452.5,-66 1539.5,-66 1539.5,-42 1452.5,-42"/>
<text text-anchor="middle" x="1496" y="-53" font-family="Helvetica,sans-Serif" font-size="10.00">do_panel_config</text>
</a>
</g>
<!-- Node2&#45;&gt;Node3 -->
<g id="edge4" class="edge"><title>Node2&#45;&gt;Node3</title>
<path fill="none" stroke="midnightblue" d="M1307.93,-17.4483C1339.95,-20.9304 1380.36,-26.0983 1416,-33 1428.55,-35.4296 1442.04,-38.708 1454.3,-41.9514"/>
<polygon fill="midnightblue" stroke="midnightblue" points="1308.16,-13.953 1297.85,-16.377 1307.42,-20.9138 1308.16,-13.953"/>
</g>
<!-- Node4 -->
<g id="node7" class="node"><title>Node4</title>
<a xlink:href="_c_f_g__config__panel__8_8cpp.html#a7968da66bccdba8b864caf6c8435f68e" target="_top" xlink:title="config_general_menu">
<polygon fill="white" stroke="black" points="1576.5,-49 1576.5,-73 1685.5,-73 1685.5,-49 1576.5,-49"/>
<text text-anchor="middle" x="1631" y="-60" font-family="Helvetica,sans-Serif" font-size="10.00">config_general_menu</text>
</a>
</g>
<!-- Node3&#45;&gt;Node4 -->
<g id="edge6" class="edge"><title>Node3&#45;&gt;Node4</title>
<path fill="none" stroke="midnightblue" d="M1550.07,-56.8037C1558.62,-57.247 1567.47,-57.7059 1576.04,-58.1502"/>
<polygon fill="midnightblue" stroke="midnightblue" points="1550,-53.2953 1539.83,-56.2727 1549.64,-60.2859 1550,-53.2953"/>
</g>
<!-- Node5 -->
<g id="node9" class="node"><title>Node5</title>
<a xlink:href="graphics__rebuild1_8cpp.html#ac2eae1e03fb72cc734ffbcef566483bf" target="_top" xlink:title="Boxes">
<polygon fill="white" stroke="black" points="1722,-52 1722,-76 1766,-76 1766,-52 1722,-52"/>
<text text-anchor="middle" x="1744" y="-63" font-family="Helvetica,sans-Serif" font-size="10.00">Boxes</text>
</a>
</g>
<!-- Node4&#45;&gt;Node5 -->
<g id="edge8" class="edge"><title>Node4&#45;&gt;Node5</title>
<path fill="none" stroke="midnightblue" d="M1695.75,-62.7189C1705.11,-62.9676 1714.17,-63.208 1721.86,-63.4121"/>
<polygon fill="midnightblue" stroke="midnightblue" points="1695.6,-59.214 1685.51,-62.4473 1695.42,-66.2115 1695.6,-59.214"/>
</g>
<!-- Node6 -->
<g id="node11" class="node"><title>Node6</title>
<a xlink:href="_m_a_i_n__avec__objets_8cpp.html#ade8d4ba65d55c94f8ee277829d722155" target="_top" xlink:title="main_actions_on_screen">
<polygon fill="white" stroke="black" points="1802.5,-54 1802.5,-78 1927.5,-78 1927.5,-54 1802.5,-54"/>
<text text-anchor="middle" x="1865" y="-65" font-family="Helvetica,sans-Serif" font-size="10.00">main_actions_on_screen</text>
</a>
</g>
<!-- Node5&#45;&gt;Node6 -->
<g id="edge10" class="edge"><title>Node5&#45;&gt;Node6</title>
<path fill="none" stroke="midnightblue" d="M1776.24,-64.533C1784.32,-64.6664 1793.26,-64.8143 1802.27,-64.9632"/>
<polygon fill="midnightblue" stroke="midnightblue" points="1776.25,-61.0327 1766.19,-64.3668 1776.13,-68.0317 1776.25,-61.0327"/>
</g>
<!-- Node6&#45;&gt;Node7 -->
<g id="edge12" class="edge"><title>Node6&#45;&gt;Node7</title>
<path fill="none" stroke="midnightblue" d="M1910.07,-82.2898C1916.35,-85.4106 1922.52,-88.9804 1928,-93 1947.85,-107.558 1965.33,-130.571 1975.01,-144.672"/>
<polygon fill="midnightblue" stroke="midnightblue" points="1911.41,-79.0512 1900.86,-78.0388 1908.47,-85.407 1911.41,-79.0512"/>
</g>
<!-- Node9 -->
<g id="node17" class="node"><title>Node9</title>
<a xlink:href="banger__core__8_8cpp.html#a4003a08a1620546de77b118c91d2fd9d" target="_top" xlink:title="do_bang">
<polygon fill="white" stroke="black" points="229.5,-281 229.5,-305 282.5,-305 282.5,-281 229.5,-281"/>
<text text-anchor="middle" x="256" y="-292" font-family="Helvetica,sans-Serif" font-size="10.00">do_bang</text>
</a>
</g>
<!-- Node8&#45;&gt;Node9 -->
<g id="edge16" class="edge"><title>Node8&#45;&gt;Node9</title>
<path fill="none" stroke="midnightblue" d="M155.823,-194.493C180.714,-218.969 222.672,-260.227 243.497,-280.706"/>
<polygon fill="midnightblue" stroke="midnightblue" points="157.974,-191.699 148.39,-187.184 153.066,-196.691 157.974,-191.699"/>
</g>
<!-- Node11 -->
<g id="node22" class="node"><title>Node11</title>
<a xlink:href="banger__core__8_8cpp.html#a4fe16ad483c0c1609d97aeb9a23c74ee" target="_top" xlink:title="do_logical_fenetre\l_banger">
<polygon fill="white" stroke="black" points="208.5,-185 208.5,-225 303.5,-225 303.5,-185 208.5,-185"/>
<text text-anchor="start" x="216.5" y="-212" font-family="Helvetica,sans-Serif" font-size="10.00">do_logical_fenetre</text>
<text text-anchor="middle" x="256" y="-196" font-family="Helvetica,sans-Serif" font-size="10.00">_banger</text>
</a>
</g>
<!-- Node8&#45;&gt;Node11 -->
<g id="edge22" class="edge"><title>Node8&#45;&gt;Node11</title>
<path fill="none" stroke="midnightblue" d="M179.875,-185.969C189.158,-188.29 198.998,-190.749 208.411,-193.103"/>
<polygon fill="midnightblue" stroke="midnightblue" points="180.617,-182.546 170.066,-183.517 178.919,-189.337 180.617,-182.546"/>
</g>
<!-- Node13 -->
<g id="node27" class="node"><title>Node13</title>
<a xlink:href="banger__core__8_8cpp.html#ab405ab53ea444b049e5ffa258498fcb6" target="_top" xlink:title="refresh_banger_wx">
<polygon fill="white" stroke="black" points="206.5,-133 206.5,-157 305.5,-157 305.5,-133 206.5,-133"/>
<text text-anchor="middle" x="256" y="-144" font-family="Helvetica,sans-Serif" font-size="10.00">refresh_banger_wx</text>
</a>
</g>
<!-- Node8&#45;&gt;Node13 -->
<g id="edge28" class="edge"><title>Node8&#45;&gt;Node13</title>
<path fill="none" stroke="midnightblue" d="M180.051,-163.987C189.135,-161.716 198.746,-159.314 207.964,-157.009"/>
<polygon fill="midnightblue" stroke="midnightblue" points="178.919,-160.663 170.066,-166.483 180.617,-167.454 178.919,-160.663"/>
</g>
<!-- Node19 -->
<g id="node42" class="node"><title>Node19</title>
<a xlink:href="midi__13_8cpp.html#a6dff3d42682b58cc0a9875ee30fb4cd4" target="_top" xlink:title="do_midi_job">
<polygon fill="white" stroke="black" points="365,-40 365,-64 433,-64 433,-40 365,-40"/>
<text text-anchor="middle" x="399" y="-51" font-family="Helvetica,sans-Serif" font-size="10.00">do_midi_job</text>
</a>
</g>
<!-- Node8&#45;&gt;Node19 -->
<g id="edge90" class="edge"><title>Node8&#45;&gt;Node19</title>
<path fill="none" stroke="midnightblue" d="M158.302,-156.339C171.565,-145.873 189.061,-133.127 206,-124 258.735,-95.5862 325.085,-73.531 364.658,-61.6777"/>
<polygon fill="midnightblue" stroke="midnightblue" points="155.839,-153.829 150.246,-162.827 160.23,-159.281 155.839,-153.829"/>
</g>
<!-- Node10 -->
<g id="node19" class="node"><title>Node10</title>
<a xlink:href="_m_a_i_n__avec__objets_8cpp.html#a8e80f54ac804eddce8ed6e45adb1db44" target="_top" xlink:title="ticker_full_loop">
<polygon fill="white" stroke="black" points="664,-197 664,-221 746,-221 746,-197 664,-197"/>
<text text-anchor="middle" x="705" y="-208" font-family="Helvetica,sans-Serif" font-size="10.00">ticker_full_loop</text>
</a>
</g>
<!-- Node9&#45;&gt;Node10 -->
<g id="edge18" class="edge"><title>Node9&#45;&gt;Node10</title>
<path fill="none" stroke="midnightblue" d="M292.791,-294.927C360.927,-297.313 510.511,-296.977 628,-257 651.563,-248.982 675.371,-232.577 690.146,-221.192"/>
<polygon fill="midnightblue" stroke="midnightblue" points="292.701,-291.421 282.572,-294.526 292.427,-298.415 292.701,-291.421"/>
</g>
<!-- Node10&#45;&gt;Node7 -->
<g id="edge20" class="edge"><title>Node10&#45;&gt;Node7</title>
<path fill="none" stroke="midnightblue" d="M756.387,-209C813.092,-209 907.057,-209 988,-209 988,-209 988,-209 1744,-209 1827.44,-209 1923.6,-178.363 1963.79,-164.121"/>
<polygon fill="midnightblue" stroke="midnightblue" points="756.244,-205.5 746.244,-209 756.244,-212.5 756.244,-205.5"/>
</g>
<!-- Node12 -->
<g id="node24" class="node"><title>Node12</title>
<a xlink:href="procs__visuels__rebuild1_8cpp.html#ae710b6e599e321ad5934a90140067054" target="_top" xlink:title="check_graphics_mouse\l_handling">
<polygon fill="white" stroke="black" points="500.5,-208 500.5,-248 619.5,-248 619.5,-208 500.5,-208"/>
<text text-anchor="start" x="508.5" y="-235" font-family="Helvetica,sans-Serif" font-size="10.00">check_graphics_mouse</text>
<text text-anchor="middle" x="560" y="-219" font-family="Helvetica,sans-Serif" font-size="10.00">_handling</text>
</a>
</g>
<!-- Node11&#45;&gt;Node12 -->
<g id="edge24" class="edge"><title>Node11&#45;&gt;Node12</title>
<path fill="none" stroke="midnightblue" d="M289.488,-231.094C304.638,-241.298 323.314,-251.79 342,-257 395.328,-271.869 458.183,-260.591 502.665,-248.015"/>
<polygon fill="midnightblue" stroke="midnightblue" points="291.203,-228.022 281.001,-225.161 287.192,-233.759 291.203,-228.022"/>
</g>
<!-- Node12&#45;&gt;Node10 -->
<g id="edge26" class="edge"><title>Node12&#45;&gt;Node10</title>
<path fill="none" stroke="midnightblue" d="M629.971,-218.831C641.588,-217.309 653.292,-215.775 663.888,-214.387"/>
<polygon fill="midnightblue" stroke="midnightblue" points="629.275,-215.393 619.814,-220.162 630.184,-222.333 629.275,-215.393"/>
</g>
<!-- Node14 -->
<g id="node29" class="node"><title>Node14</title>
<a xlink:href="i_cat14_8cpp.html#a16285241f82898e7a5f051b03d90b9a3" target="_top" xlink:title="check_button">
<polygon fill="white" stroke="black" points="361.5,-166 361.5,-190 436.5,-190 436.5,-166 361.5,-166"/>
<text text-anchor="middle" x="399" y="-177" font-family="Helvetica,sans-Serif" font-size="10.00">check_button</text>
</a>
</g>
<!-- Node13&#45;&gt;Node14 -->
<g id="edge30" class="edge"><title>Node13&#45;&gt;Node14</title>
<path fill="none" stroke="midnightblue" d="M315.613,-158.757C331.044,-162.318 347.235,-166.054 361.202,-169.277"/>
<polygon fill="midnightblue" stroke="midnightblue" points="316.144,-155.287 305.613,-156.449 314.57,-162.108 316.144,-155.287"/>
</g>
<!-- Node16 -->
<g id="node34" class="node"><title>Node16</title>
<a xlink:href="keyboard__functions2_8cpp.html#af3dd6697323b10b480719c1612bcf29a" target="_top" xlink:title="key_backward">
<polygon fill="white" stroke="black" points="359,-82 359,-106 439,-106 439,-82 359,-82"/>
<text text-anchor="middle" x="399" y="-93" font-family="Helvetica,sans-Serif" font-size="10.00">key_backward</text>
</a>
</g>
<!-- Node13&#45;&gt;Node16 -->
<g id="edge36" class="edge"><title>Node13&#45;&gt;Node16</title>
<path fill="none" stroke="midnightblue" d="M299.529,-129.476C320.498,-121.997 345.278,-113.16 364.859,-106.176"/>
<polygon fill="midnightblue" stroke="midnightblue" points="298.132,-126.258 289.889,-132.914 300.484,-132.851 298.132,-126.258"/>
</g>
<!-- Node18 -->
<g id="node39" class="node"><title>Node18</title>
<a xlink:href="keyboard__functions2_8cpp.html#a6b73a3669797504ce2e357d9a8b9a2c2" target="_top" xlink:title="key_forward">
<polygon fill="white" stroke="black" points="364,-124 364,-148 434,-148 434,-124 364,-124"/>
<text text-anchor="middle" x="399" y="-135" font-family="Helvetica,sans-Serif" font-size="10.00">key_forward</text>
</a>
</g>
<!-- Node13&#45;&gt;Node18 -->
<g id="edge42" class="edge"><title>Node13&#45;&gt;Node18</title>
<path fill="none" stroke="midnightblue" d="M315.687,-141.243C332.095,-140.211 349.356,-139.124 363.885,-138.21"/>
<polygon fill="midnightblue" stroke="midnightblue" points="315.374,-137.756 305.613,-141.877 315.813,-144.742 315.374,-137.756"/>
</g>
<!-- Node13&#45;&gt;Node19 -->
<g id="edge46" class="edge"><title>Node13&#45;&gt;Node19</title>
<path fill="none" stroke="midnightblue" d="M275.178,-125.571C291.701,-109.704 316.804,-87.5941 342,-73 349.118,-68.877 357.19,-65.3169 364.974,-62.3595"/>
<polygon fill="midnightblue" stroke="midnightblue" points="272.493,-123.302 267.794,-132.798 277.389,-128.305 272.493,-123.302"/>
</g>
<!-- Node33 -->
<g id="node76" class="node"><title>Node33</title>
<a xlink:href="sequentiel__6__core_8cpp.html#a2a71c851cf25565491dd10423bc80380" target="_top" xlink:title="do_logical_Sequenciel\l_Window">
<polygon fill="white" stroke="black" points="342.5,-208 342.5,-248 455.5,-248 455.5,-208 342.5,-208"/>
<text text-anchor="start" x="350.5" y="-235" font-family="Helvetica,sans-Serif" font-size="10.00">do_logical_Sequenciel</text>
<text text-anchor="middle" x="399" y="-219" font-family="Helvetica,sans-Serif" font-size="10.00">_Window</text>
</a>
</g>
<!-- Node13&#45;&gt;Node33 -->
<g id="edge86" class="edge"><title>Node13&#45;&gt;Node33</title>
<path fill="none" stroke="midnightblue" d="M284.188,-162.384C291.317,-166.806 298.95,-171.563 306,-176 322.069,-186.114 325.519,-189.573 342,-199 347.204,-201.977 352.749,-204.988 358.26,-207.887"/>
<polygon fill="midnightblue" stroke="midnightblue" points="285.854,-159.299 275.509,-157.011 282.169,-165.251 285.854,-159.299"/>
</g>
<!-- Node15 -->
<g id="node31" class="node"><title>Node15</title>
<a xlink:href="i_cat14_8cpp.html#aa9772b548765a631d4bae1c14053b4e1" target="_top" xlink:title="DoJobFantastickTouch">
<polygon fill="white" stroke="black" points="501.5,-166 501.5,-190 618.5,-190 618.5,-166 501.5,-166"/>
<text text-anchor="middle" x="560" y="-177" font-family="Helvetica,sans-Serif" font-size="10.00">DoJobFantastickTouch</text>
</a>
</g>
<!-- Node14&#45;&gt;Node15 -->
<g id="edge32" class="edge"><title>Node14&#45;&gt;Node15</title>
<path fill="none" stroke="midnightblue" d="M447.039,-178C464.111,-178 483.521,-178 501.378,-178"/>
<polygon fill="midnightblue" stroke="midnightblue" points="446.747,-174.5 436.747,-178 446.747,-181.5 446.747,-174.5"/>
</g>
<!-- Node15&#45;&gt;Node10 -->
<g id="edge34" class="edge"><title>Node15&#45;&gt;Node10</title>
<path fill="none" stroke="midnightblue" d="M626.551,-192.228C639.217,-194.936 652.126,-197.696 663.719,-200.174"/>
<polygon fill="midnightblue" stroke="midnightblue" points="626.987,-188.742 616.476,-190.074 625.523,-195.588 626.987,-188.742"/>
</g>
<!-- Node17 -->
<g id="node36" class="node"><title>Node17</title>
<a xlink:href="keyboard__routines2_8cpp.html#a8563320b8eab661232619224650de244" target="_top" xlink:title="commandes_clavier">
<polygon fill="white" stroke="black" points="508,-124 508,-148 612,-148 612,-124 508,-124"/>
<text text-anchor="middle" x="560" y="-135" font-family="Helvetica,sans-Serif" font-size="10.00">commandes_clavier</text>
</a>
</g>
<!-- Node16&#45;&gt;Node17 -->
<g id="edge38" class="edge"><title>Node16&#45;&gt;Node17</title>
<path fill="none" stroke="midnightblue" d="M449.07,-107.062C469.725,-112.45 493.514,-118.656 513.752,-123.935"/>
<polygon fill="midnightblue" stroke="midnightblue" points="449.771,-103.628 439.212,-104.49 448.004,-110.401 449.771,-103.628"/>
</g>
<!-- Node17&#45;&gt;Node10 -->
<g id="edge40" class="edge"><title>Node17&#45;&gt;Node10</title>
<path fill="none" stroke="midnightblue" d="M615.305,-151.555C619.661,-153.24 623.941,-155.056 628,-157 650.985,-168.011 674.929,-185.238 689.893,-196.814"/>
<polygon fill="midnightblue" stroke="midnightblue" points="616.296,-148.191 605.702,-148.076 613.912,-154.773 616.296,-148.191"/>
</g>
<!-- Node18&#45;&gt;Node17 -->
<g id="edge44" class="edge"><title>Node18&#45;&gt;Node17</title>
<path fill="none" stroke="midnightblue" d="M444.598,-136C464.329,-136 487.53,-136 507.934,-136"/>
<polygon fill="midnightblue" stroke="midnightblue" points="444.332,-132.5 434.332,-136 444.332,-139.5 444.332,-132.5"/>
</g>
<!-- Node20 -->
<g id="node44" class="node"><title>Node20</title>
<a xlink:href="midi__13_8cpp.html#a6bedf9750195224914cd87c4e73ab626" target="_top" xlink:title="ventilate_midi_to_midiarray">
<polygon fill="white" stroke="black" points="492.5,-41 492.5,-65 627.5,-65 627.5,-41 492.5,-41"/>
<text text-anchor="middle" x="560" y="-52" font-family="Helvetica,sans-Serif" font-size="10.00">ventilate_midi_to_midiarray</text>
</a>
</g>
<!-- Node19&#45;&gt;Node20 -->
<g id="edge48" class="edge"><title>Node19&#45;&gt;Node20</title>
<path fill="none" stroke="midnightblue" d="M443.272,-52.275C458.455,-52.3693 475.811,-52.4771 492.414,-52.5802"/>
<polygon fill="midnightblue" stroke="midnightblue" points="443.166,-48.7744 433.144,-52.2121 443.122,-55.7742 443.166,-48.7744"/>
</g>
<!-- Node21 -->
<g id="node46" class="node"><title>Node21</title>
<a xlink:href="midi__13_8cpp.html#afa49dd5668303c2448676c8243737c2d" target="_top" xlink:title="simulate_midi">
<polygon fill="white" stroke="black" points="666.5,-91 666.5,-115 743.5,-115 743.5,-91 666.5,-91"/>
<text text-anchor="middle" x="705" y="-102" font-family="Helvetica,sans-Serif" font-size="10.00">simulate_midi</text>
</a>
</g>
<!-- Node20&#45;&gt;Node21 -->
<g id="edge50" class="edge"><title>Node20&#45;&gt;Node21</title>
<path fill="none" stroke="midnightblue" d="M604.76,-68.4346C625.743,-75.67 650.376,-84.164 669.972,-90.9213"/>
<polygon fill="midnightblue" stroke="midnightblue" points="605.695,-65.0548 595.1,-65.1036 603.413,-71.6724 605.695,-65.0548"/>
</g>
<!-- Node25 -->
<g id="node56" class="node"><title>Node25</title>
<a xlink:href="midi__13_8cpp.html#a4104c2ae7e71376ad9dc78929450dc51" target="_top" xlink:title="EvAquire">
<polygon fill="white" stroke="black" points="677,-41 677,-65 733,-65 733,-41 677,-41"/>
<text text-anchor="middle" x="705" y="-52" font-family="Helvetica,sans-Serif" font-size="10.00">EvAquire</text>
</a>
</g>
<!-- Node20&#45;&gt;Node25 -->
<g id="edge62" class="edge"><title>Node20&#45;&gt;Node25</title>
<path fill="none" stroke="midnightblue" d="M637.947,-53C651.817,-53 665.419,-53 676.708,-53"/>
<polygon fill="midnightblue" stroke="midnightblue" points="637.83,-49.5001 627.83,-53 637.83,-56.5001 637.83,-49.5001"/>
</g>
<!-- Node22 -->
<g id="node48" class="node"><title>Node22</title>
<a xlink:href="arduino__core__6___u_n_o_8cpp.html#ae72d1a8d74d9ab5515962e03e7e664d6" target="_top" xlink:title="arduino_do_analog_in\l_whitecat">
<polygon fill="white" stroke="black" points="782,-141 782,-181 892,-181 892,-141 782,-141"/>
<text text-anchor="start" x="790" y="-168" font-family="Helvetica,sans-Serif" font-size="10.00">arduino_do_analog_in</text>
<text text-anchor="middle" x="837" y="-152" font-family="Helvetica,sans-Serif" font-size="10.00">_whitecat</text>
</a>
</g>
<!-- Node21&#45;&gt;Node22 -->
<g id="edge52" class="edge"><title>Node21&#45;&gt;Node22</title>
<path fill="none" stroke="midnightblue" d="M741.539,-119.055C756.918,-125.812 774.982,-133.75 791.234,-140.891"/>
<polygon fill="midnightblue" stroke="midnightblue" points="742.914,-115.836 732.35,-115.018 740.098,-122.245 742.914,-115.836"/>
</g>
<!-- Node24 -->
<g id="node53" class="node"><title>Node24</title>
<a xlink:href="arduino__core__6___u_n_o_8cpp.html#a219226c1cd6cc17c78e62fd4445bb445" target="_top" xlink:title="arduino_do_digital\l_in_whitecat">
<polygon fill="white" stroke="black" points="789.5,-83 789.5,-123 884.5,-123 884.5,-83 789.5,-83"/>
<text text-anchor="start" x="797.5" y="-110" font-family="Helvetica,sans-Serif" font-size="10.00">arduino_do_digital</text>
<text text-anchor="middle" x="837" y="-94" font-family="Helvetica,sans-Serif" font-size="10.00">_in_whitecat</text>
</a>
</g>
<!-- Node21&#45;&gt;Node24 -->
<g id="edge58" class="edge"><title>Node21&#45;&gt;Node24</title>
<path fill="none" stroke="midnightblue" d="M753.541,-103C765.203,-103 777.648,-103 789.272,-103"/>
<polygon fill="midnightblue" stroke="midnightblue" points="753.535,-99.5001 743.535,-103 753.535,-106.5 753.535,-99.5001"/>
</g>
<!-- Node23 -->
<g id="node50" class="node"><title>Node23</title>
<a xlink:href="_m_a_i_n__avec__objets_8cpp.html#ace9c8a9b37c6087c3cffef442d71d70e" target="_top" xlink:title="dixiemes_de_secondes">
<polygon fill="white" stroke="black" points="928.5,-145 928.5,-169 1047.5,-169 1047.5,-145 928.5,-145"/>
<text text-anchor="middle" x="988" y="-156" font-family="Helvetica,sans-Serif" font-size="10.00">dixiemes_de_secondes</text>
</a>
</g>
<!-- Node22&#45;&gt;Node23 -->
<g id="edge54" class="edge"><title>Node22&#45;&gt;Node23</title>
<path fill="none" stroke="midnightblue" d="M902.379,-159.268C910.999,-159.04 919.798,-158.807 928.316,-158.581"/>
<polygon fill="midnightblue" stroke="midnightblue" points="902.273,-155.77 892.369,-159.533 902.459,-162.767 902.273,-155.77"/>
</g>
<!-- Node23&#45;&gt;Node7 -->
<g id="edge56" class="edge"><title>Node23&#45;&gt;Node7</title>
<path fill="none" stroke="midnightblue" d="M1057.83,-157C1110.62,-157 1184.86,-157 1250,-157 1250,-157 1250,-157 1744,-157 1825.74,-157 1923.21,-157 1963.79,-157"/>
<polygon fill="midnightblue" stroke="midnightblue" points="1057.57,-153.5 1047.57,-157 1057.57,-160.5 1057.57,-153.5"/>
</g>
<!-- Node24&#45;&gt;Node23 -->
<g id="edge60" class="edge"><title>Node24&#45;&gt;Node23</title>
<path fill="none" stroke="midnightblue" d="M894.254,-123.475C914.548,-130.732 936.714,-138.659 954.394,-144.982"/>
<polygon fill="midnightblue" stroke="midnightblue" points="895.372,-120.158 884.777,-120.086 893.015,-126.749 895.372,-120.158"/>
</g>
<!-- Node26 -->
<g id="node58" class="node"><title>Node26</title>
<a xlink:href="midi__13_8cpp.html#a831f1dfc7870ae4f6c64a0e65fbaf3ff" target="_top" xlink:title="Display">
<polygon fill="white" stroke="black" points="812,-41 812,-65 862,-65 862,-41 812,-41"/>
<text text-anchor="middle" x="837" y="-52" font-family="Helvetica,sans-Serif" font-size="10.00">Display</text>
</a>
</g>
<!-- Node25&#45;&gt;Node26 -->
<g id="edge64" class="edge"><title>Node25&#45;&gt;Node26</title>
<path fill="none" stroke="midnightblue" d="M743.366,-53C765.419,-53 792.496,-53 811.849,-53"/>
<polygon fill="midnightblue" stroke="midnightblue" points="743.317,-49.5001 733.317,-53 743.317,-56.5001 743.317,-49.5001"/>
</g>
<!-- Node27 -->
<g id="node60" class="node"><title>Node27</title>
<a xlink:href="midi__13_8cpp.html#aa4aeee5088a4a5462566dfee5c9cc71f" target="_top" xlink:title="DisplayTask">
<polygon fill="white" stroke="black" points="952.5,-84 952.5,-108 1023.5,-108 1023.5,-84 952.5,-84"/>
<text text-anchor="middle" x="988" y="-95" font-family="Helvetica,sans-Serif" font-size="10.00">DisplayTask</text>
</a>
</g>
<!-- Node26&#45;&gt;Node27 -->
<g id="edge66" class="edge"><title>Node26&#45;&gt;Node27</title>
<path fill="none" stroke="midnightblue" d="M872.099,-62.9952C896.248,-69.8718 928.212,-78.9743 952.456,-85.8781"/>
<polygon fill="midnightblue" stroke="midnightblue" points="872.85,-59.5699 862.274,-60.1972 870.933,-66.3023 872.85,-59.5699"/>
</g>
<!-- Node29 -->
<g id="node65" class="node"><title>Node29</title>
<a xlink:href="midi___c_o_r_e_8cpp.html#a6fcb4c2efe85f50488d7aeeef1fc0a3e" target="_top" xlink:title="ReceiveEvents">
<polygon fill="white" stroke="black" points="946.5,-42 946.5,-66 1029.5,-66 1029.5,-42 946.5,-42"/>
<text text-anchor="middle" x="988" y="-53" font-family="Helvetica,sans-Serif" font-size="10.00">ReceiveEvents</text>
</a>
</g>
<!-- Node26&#45;&gt;Node29 -->
<g id="edge72" class="edge"><title>Node26&#45;&gt;Node29</title>
<path fill="none" stroke="midnightblue" d="M872.562,-53.2355C894.676,-53.382 923.207,-53.5709 946.372,-53.7243"/>
<polygon fill="midnightblue" stroke="midnightblue" points="872.297,-49.7338 862.274,-53.1674 872.251,-56.7336 872.297,-49.7338"/>
</g>
<!-- Node28 -->
<g id="node62" class="node"><title>Node28</title>
<a xlink:href="midi___c_o_r_e_8cpp.html#a7d0f82d882071792d6a2df51ef13ec55" target="_top" xlink:title="ReceivePolling">
<polygon fill="white" stroke="black" points="1084,-84 1084,-108 1166,-108 1166,-84 1084,-84"/>
<text text-anchor="middle" x="1125" y="-95" font-family="Helvetica,sans-Serif" font-size="10.00">ReceivePolling</text>
</a>
</g>
<!-- Node27&#45;&gt;Node28 -->
<g id="edge68" class="edge"><title>Node27&#45;&gt;Node28</title>
<path fill="none" stroke="midnightblue" d="M1033.91,-96C1050.02,-96 1068.01,-96 1083.72,-96"/>
<polygon fill="midnightblue" stroke="midnightblue" points="1033.64,-92.5001 1023.64,-96 1033.64,-99.5001 1033.64,-92.5001"/>
</g>
<!-- Node28&#45;&gt;Node28 -->
<g id="edge70" class="edge"><title>Node28&#45;&gt;Node28</title>
<path fill="none" stroke="midnightblue" d="M1102.51,-118.001C1104.81,-122.647 1112.31,-126 1125,-126 1145.83,-126 1152.66,-116.972 1145.5,-108.014"/>
<polygon fill="midnightblue" stroke="midnightblue" points="1105.98,-118.504 1104.5,-108.014 1099.12,-117.14 1105.98,-118.504"/>
</g>
<!-- Node29&#45;&gt;Node28 -->
<g id="edge74" class="edge"><title>Node29&#45;&gt;Node28</title>
<path fill="none" stroke="midnightblue" d="M1036.99,-69.0181C1052.99,-73.9241 1070.54,-79.3054 1085.74,-83.9627"/>
<polygon fill="midnightblue" stroke="midnightblue" points="1037.85,-65.6204 1027.26,-66.0355 1035.79,-72.3129 1037.85,-65.6204"/>
</g>
<!-- Node30 -->
<g id="node68" class="node"><title>Node30</title>
<a xlink:href="midi___c_o_r_e_8cpp.html#a0ccf480a33424e626f88d109d53d8366" target="_top" xlink:title="InitMidi">
<polygon fill="white" stroke="black" points="1101,-42 1101,-66 1149,-66 1149,-42 1101,-42"/>
<text text-anchor="middle" x="1125" y="-53" font-family="Helvetica,sans-Serif" font-size="10.00">InitMidi</text>
</a>
</g>
<!-- Node29&#45;&gt;Node30 -->
<g id="edge76" class="edge"><title>Node29&#45;&gt;Node30</title>
<path fill="none" stroke="midnightblue" d="M1039.93,-54C1060.89,-54 1084.06,-54 1100.92,-54"/>
<polygon fill="midnightblue" stroke="midnightblue" points="1039.85,-50.5001 1029.85,-54 1039.85,-57.5001 1039.85,-50.5001"/>
</g>
<!-- Node30&#45;&gt;Node7 -->
<g id="edge78" class="edge"><title>Node30&#45;&gt;Node7</title>
<path fill="none" stroke="midnightblue" d="M1158.61,-65.802C1206.16,-81.4199 1296.09,-107 1375,-107 1375,-107 1375,-107 1744,-107 1827.3,-107 1923.53,-136.459 1963.77,-150.153"/>
<polygon fill="midnightblue" stroke="midnightblue" points="1159.72,-62.4824 1149.12,-62.6333 1157.5,-69.1217 1159.72,-62.4824"/>
</g>
<!-- Node31 -->
<g id="node71" class="node"><title>Node31</title>
<a xlink:href="midi__13_8cpp.html#ac7a306aa81e374b447e7341d4d3a3eea" target="_top" xlink:title="midipage_devices">
<polygon fill="white" stroke="black" points="1202.5,-42 1202.5,-66 1297.5,-66 1297.5,-42 1202.5,-42"/>
<text text-anchor="middle" x="1250" y="-53" font-family="Helvetica,sans-Serif" font-size="10.00">midipage_devices</text>
</a>
</g>
<!-- Node30&#45;&gt;Node31 -->
<g id="edge80" class="edge"><title>Node30&#45;&gt;Node31</title>
<path fill="none" stroke="midnightblue" d="M1159.25,-54C1172.57,-54 1188.05,-54 1202.42,-54"/>
<polygon fill="midnightblue" stroke="midnightblue" points="1159.1,-50.5001 1149.1,-54 1159.1,-57.5001 1159.1,-50.5001"/>
</g>
<!-- Node32 -->
<g id="node73" class="node"><title>Node32</title>
<a xlink:href="midi__13_8cpp.html#a8f70acacad6eaba8867bdd80dda5e277" target="_top" xlink:title="do_midi_config">
<polygon fill="white" stroke="black" points="1334,-42 1334,-66 1416,-66 1416,-42 1334,-42"/>
<text text-anchor="middle" x="1375" y="-53" font-family="Helvetica,sans-Serif" font-size="10.00">do_midi_config</text>
</a>
</g>
<!-- Node31&#45;&gt;Node32 -->
<g id="edge82" class="edge"><title>Node31&#45;&gt;Node32</title>
<path fill="none" stroke="midnightblue" d="M1307.77,-54C1316.5,-54 1325.35,-54 1333.65,-54"/>
<polygon fill="midnightblue" stroke="midnightblue" points="1307.61,-50.5001 1297.61,-54 1307.61,-57.5001 1307.61,-50.5001"/>
</g>
<!-- Node32&#45;&gt;Node3 -->
<g id="edge84" class="edge"><title>Node32&#45;&gt;Node3</title>
<path fill="none" stroke="midnightblue" d="M1426.33,-54C1435.01,-54 1443.95,-54 1452.41,-54"/>
<polygon fill="midnightblue" stroke="midnightblue" points="1426.3,-50.5001 1416.3,-54 1426.3,-57.5001 1426.3,-50.5001"/>
</g>
<!-- Node33&#45;&gt;Node12 -->
<g id="edge88" class="edge"><title>Node33&#45;&gt;Node12</title>
<path fill="none" stroke="midnightblue" d="M466.106,-228C477.511,-228 489.286,-228 500.478,-228"/>
<polygon fill="midnightblue" stroke="midnightblue" points="465.763,-224.5 455.763,-228 465.763,-231.5 465.763,-224.5"/>
</g>
</g>
</svg>
