<?xml version="1.0" encoding="UTF-8" standalone="no"?>
<!DOCTYPE svg PUBLIC "-//W3C//DTD SVG 1.1//EN"
 "http://www.w3.org/Graphics/SVG/1.1/DTD/svg11.dtd">
<!-- Generated by graphviz version 2.26.3 (20100126.1600)
 -->
<!-- Title: AffectSoundFile Pages: 1 -->
<svg width="218pt" height="158pt"
 viewBox="0.00 0.00 218.00 158.00" xmlns="http://www.w3.org/2000/svg" xmlns:xlink="http://www.w3.org/1999/xlink">
<g id="graph1" class="graph" transform="scale(1 1) rotate(0) translate(4 154)">
<title>AffectSoundFile</title>
<polygon fill="white" stroke="white" points="-4,5 -4,-154 215,-154 215,5 -4,5"/>
<!-- Node1 -->
<g id="node1" class="node"><title>Node1</title>
<polygon fill="#bfbfbf" stroke="black" points="0,-63 0,-87 86,-87 86,-63 0,-63"/>
<text text-anchor="middle" x="43" y="-74" font-family="Helvetica,sans-Serif" font-size="10.00">AffectSoundFile</text>
</g>
<!-- Node2 -->
<g id="node3" class="node"><title>Node2</title>
<a xlink:href="_c_o_r_e__6_8cpp.html#a23423256688613149926c4984ff25f79" target="_top" xlink:title="player1_do_stop">
<polygon fill="white" stroke="black" points="122,-126 122,-150 210,-150 210,-126 122,-126"/>
<text text-anchor="middle" x="166" y="-137" font-family="Helvetica,sans-Serif" font-size="10.00">player1_do_stop</text>
</a>
</g>
<!-- Node1&#45;&gt;Node2 -->
<g id="edge2" class="edge"><title>Node1&#45;&gt;Node2</title>
<path fill="none" stroke="midnightblue" d="M65.0007,-87.0253C80.7757,-95.5669 102.582,-107.21 122,-117 124.948,-118.486 128.018,-120.007 131.106,-121.517"/>
<polygon fill="midnightblue" stroke="midnightblue" points="129.789,-124.768 140.315,-125.971 132.837,-118.466 129.789,-124.768"/>
</g>
<!-- Node3 -->
<g id="node5" class="node"><title>Node3</title>
<a xlink:href="_c_o_r_e__6_8cpp.html#a6c41d19d859a2e1292ad64ef915e265f" target="_top" xlink:title="player2_do_stop">
<polygon fill="white" stroke="black" points="122,-84 122,-108 210,-108 210,-84 122,-84"/>
<text text-anchor="middle" x="166" y="-95" font-family="Helvetica,sans-Serif" font-size="10.00">player2_do_stop</text>
</a>
</g>
<!-- Node1&#45;&gt;Node3 -->
<g id="edge4" class="edge"><title>Node1&#45;&gt;Node3</title>
<path fill="none" stroke="midnightblue" d="M86.0194,-82.3448C94.3846,-83.773 103.253,-85.287 111.921,-86.767"/>
<polygon fill="midnightblue" stroke="midnightblue" points="111.517,-90.2486 121.963,-88.4815 112.695,-83.3484 111.517,-90.2486"/>
</g>
<!-- Node4 -->
<g id="node7" class="node"><title>Node4</title>
<a xlink:href="_c_o_r_e__6_8cpp.html#a494249193c56b13a4e1eac04c6dd2d0b" target="_top" xlink:title="player3_do_stop">
<polygon fill="white" stroke="black" points="122,-42 122,-66 210,-66 210,-42 122,-42"/>
<text text-anchor="middle" x="166" y="-53" font-family="Helvetica,sans-Serif" font-size="10.00">player3_do_stop</text>
</a>
</g>
<!-- Node1&#45;&gt;Node4 -->
<g id="edge6" class="edge"><title>Node1&#45;&gt;Node4</title>
<path fill="none" stroke="midnightblue" d="M86.0194,-67.6552C94.3846,-66.227 103.253,-64.713 111.921,-63.233"/>
<polygon fill="midnightblue" stroke="midnightblue" points="112.695,-66.6516 121.963,-61.5185 111.517,-59.7514 112.695,-66.6516"/>
</g>
<!-- Node5 -->
<g id="node9" class="node"><title>Node5</title>
<a xlink:href="_c_o_r_e__6_8cpp.html#afbcf17b50787fb3b8360659f6ce9b193" target="_top" xlink:title="player4_do_stop">
<polygon fill="white" stroke="black" points="122,-0 122,-24 210,-24 210,-0 122,-0"/>
<text text-anchor="middle" x="166" y="-11" font-family="Helvetica,sans-Serif" font-size="10.00">player4_do_stop</text>
</a>
</g>
<!-- Node1&#45;&gt;Node5 -->
<g id="edge8" class="edge"><title>Node1&#45;&gt;Node5</title>
<path fill="none" stroke="midnightblue" d="M65.0007,-62.9747C80.7757,-54.4331 102.582,-42.7899 122,-33 124.948,-31.5139 128.018,-29.9932 131.106,-28.483"/>
<polygon fill="midnightblue" stroke="midnightblue" points="132.837,-31.5337 140.315,-24.0286 129.789,-25.2321 132.837,-31.5337"/>
</g>
</g>
</svg>
