<?xml version="1.0" encoding="UTF-8" standalone="no"?>
<!DOCTYPE svg PUBLIC "-//W3C//DTD SVG 1.1//EN"
 "http://www.w3.org/Graphics/SVG/1.1/DTD/svg11.dtd">
<!-- Generated by graphviz version 2.26.3 (20100126.1600)
 -->
<!-- Title: do_logical_fader_niveau_son Pages: 1 -->
<svg width="762pt" height="48pt"
 viewBox="0.00 0.00 762.00 48.00" xmlns="http://www.w3.org/2000/svg" xmlns:xlink="http://www.w3.org/1999/xlink">
<g id="graph1" class="graph" transform="scale(1 1) rotate(0) translate(4 44)">
<title>do_logical_fader_niveau_son</title>
<polygon fill="white" stroke="white" points="-4,5 -4,-44 759,-44 759,5 -4,5"/>
<!-- Node1 -->
<g id="node1" class="node"><title>Node1</title>
<polygon fill="#bfbfbf" stroke="black" points="0,-8 0,-32 142,-32 142,-8 0,-8"/>
<text text-anchor="middle" x="71" y="-19" font-family="Helvetica,sans-Serif" font-size="10.00">do_logical_fader_niveau_son</text>
</g>
<!-- Node2 -->
<g id="node3" class="node"><title>Node2</title>
<a xlink:href="audio__core5_8cpp.html#a657e082e79a514893ab79a019dfa5e5a" target="_top" xlink:title="do_logical_lecteur\l_audio">
<polygon fill="white" stroke="black" points="178.5,-0 178.5,-40 273.5,-40 273.5,-0 178.5,-0"/>
<text text-anchor="start" x="186.5" y="-27" font-family="Helvetica,sans-Serif" font-size="10.00">do_logical_lecteur</text>
<text text-anchor="middle" x="226" y="-11" font-family="Helvetica,sans-Serif" font-size="10.00">_audio</text>
</a>
</g>
<!-- Node1&#45;&gt;Node2 -->
<g id="edge2" class="edge"><title>Node1&#45;&gt;Node2</title>
<path fill="none" stroke="midnightblue" d="M152.225,-20C161.147,-20 170.004,-20 178.319,-20"/>
<polygon fill="midnightblue" stroke="midnightblue" points="152.149,-16.5001 142.149,-20 152.149,-23.5001 152.149,-16.5001"/>
</g>
<!-- Node3 -->
<g id="node5" class="node"><title>Node3</title>
<a xlink:href="audio__core5_8cpp.html#a58dbea0caa9eacea9a92dace23de4e32" target="_top" xlink:title="do_logical_fenetre\l_audio">
<polygon fill="white" stroke="black" points="310.5,-0 310.5,-40 405.5,-40 405.5,-0 310.5,-0"/>
<text text-anchor="start" x="318.5" y="-27" font-family="Helvetica,sans-Serif" font-size="10.00">do_logical_fenetre</text>
<text text-anchor="middle" x="358" y="-11" font-family="Helvetica,sans-Serif" font-size="10.00">_audio</text>
</a>
</g>
<!-- Node2&#45;&gt;Node3 -->
<g id="edge4" class="edge"><title>Node2&#45;&gt;Node3</title>
<path fill="none" stroke="midnightblue" d="M283.917,-20C292.77,-20 301.819,-20 310.415,-20"/>
<polygon fill="midnightblue" stroke="midnightblue" points="283.655,-16.5001 273.655,-20 283.655,-23.5001 283.655,-16.5001"/>
</g>
<!-- Node4 -->
<g id="node7" class="node"><title>Node4</title>
<a xlink:href="procs__visuels__rebuild1_8cpp.html#ae710b6e599e321ad5934a90140067054" target="_top" xlink:title="check_graphics_mouse\l_handling">
<polygon fill="white" stroke="black" points="442.5,-0 442.5,-40 561.5,-40 561.5,-0 442.5,-0"/>
<text text-anchor="start" x="450.5" y="-27" font-family="Helvetica,sans-Serif" font-size="10.00">check_graphics_mouse</text>
<text text-anchor="middle" x="502" y="-11" font-family="Helvetica,sans-Serif" font-size="10.00">_handling</text>
</a>
</g>
<!-- Node3&#45;&gt;Node4 -->
<g id="edge6" class="edge"><title>Node3&#45;&gt;Node4</title>
<path fill="none" stroke="midnightblue" d="M415.706,-20C424.502,-20 433.594,-20 442.429,-20"/>
<polygon fill="midnightblue" stroke="midnightblue" points="415.55,-16.5001 405.55,-20 415.55,-23.5001 415.55,-16.5001"/>
</g>
<!-- Node5 -->
<g id="node9" class="node"><title>Node5</title>
<a xlink:href="_m_a_i_n__avec__objets_8cpp.html#a8e80f54ac804eddce8ed6e45adb1db44" target="_top" xlink:title="ticker_full_loop">
<polygon fill="white" stroke="black" points="598,-8 598,-32 680,-32 680,-8 598,-8"/>
<text text-anchor="middle" x="639" y="-19" font-family="Helvetica,sans-Serif" font-size="10.00">ticker_full_loop</text>
</a>
</g>
<!-- Node4&#45;&gt;Node5 -->
<g id="edge8" class="edge"><title>Node4&#45;&gt;Node5</title>
<path fill="none" stroke="midnightblue" d="M571.967,-20C580.737,-20 589.475,-20 597.605,-20"/>
<polygon fill="midnightblue" stroke="midnightblue" points="571.692,-16.5001 561.692,-20 571.692,-23.5001 571.692,-16.5001"/>
</g>
<!-- Node6 -->
<g id="node11" class="node"><title>Node6</title>
<a xlink:href="_m_a_i_n__avec__objets_8cpp.html#ae66f6b31b5ad750f1fe042a706a4e3d4" target="_top" xlink:title="main">
<polygon fill="white" stroke="black" points="716,-8 716,-32 754,-32 754,-8 716,-8"/>
<text text-anchor="middle" x="735" y="-19" font-family="Helvetica,sans-Serif" font-size="10.00">main</text>
</a>
</g>
<!-- Node5&#45;&gt;Node6 -->
<g id="edge10" class="edge"><title>Node5&#45;&gt;Node6</title>
<path fill="none" stroke="midnightblue" d="M690.509,-20C699.577,-20 708.476,-20 715.904,-20"/>
<polygon fill="midnightblue" stroke="midnightblue" points="690.27,-16.5001 680.27,-20 690.27,-23.5001 690.27,-16.5001"/>
</g>
</g>
</svg>
