<?xml version="1.0" encoding="UTF-8" standalone="no"?>
<!DOCTYPE svg PUBLIC "-//W3C//DTD SVG 1.1//EN"
 "http://www.w3.org/Graphics/SVG/1.1/DTD/svg11.dtd">
<!-- Generated by graphviz version 2.26.3 (20100126.1600)
 -->
<!-- Title: Chrono_Reset Pages: 1 -->
<svg width="364pt" height="48pt"
 viewBox="0.00 0.00 364.00 48.00" xmlns="http://www.w3.org/2000/svg" xmlns:xlink="http://www.w3.org/1999/xlink">
<g id="graph1" class="graph" transform="scale(1 1) rotate(0) translate(4 44)">
<title>Chrono_Reset</title>
<polygon fill="white" stroke="white" points="-4,5 -4,-44 361,-44 361,5 -4,5"/>
<!-- Node1 -->
<g id="node1" class="node"><title>Node1</title>
<polygon fill="#bfbfbf" stroke="black" points="0,-8 0,-32 80,-32 80,-8 0,-8"/>
<text text-anchor="middle" x="40" y="-19" font-family="Helvetica,sans-Serif" font-size="10.00">Chrono_Reset</text>
</g>
<!-- Node2 -->
<g id="node3" class="node"><title>Node2</title>
<a xlink:href="_c_o_r_e__6_8cpp.html#ac4236bb4164b6b65e8ff01c0549d47a9" target="_top" xlink:title="set_time_cursor_to\l_time_type">
<polygon fill="white" stroke="black" points="116,-0 116,-40 216,-40 216,-0 116,-0"/>
<text text-anchor="start" x="124" y="-27" font-family="Helvetica,sans-Serif" font-size="10.00">set_time_cursor_to</text>
<text text-anchor="middle" x="166" y="-11" font-family="Helvetica,sans-Serif" font-size="10.00">_time_type</text>
</a>
</g>
<!-- Node1&#45;&gt;Node2 -->
<g id="edge2" class="edge"><title>Node1&#45;&gt;Node2</title>
<path fill="none" stroke="midnightblue" d="M80.2136,-20C88.3925,-20 97.1636,-20 105.862,-20"/>
<polygon fill="midnightblue" stroke="midnightblue" points="105.999,-23.5001 115.999,-20 105.999,-16.5001 105.999,-23.5001"/>
</g>
<!-- Node3 -->
<g id="node5" class="node"><title>Node3</title>
<a xlink:href="_c_o_r_e__6_8cpp.html#a23e8581e0717573c80f8fc12ea8606bd" target="_top" xlink:title="refresh_time_cursor">
<polygon fill="white" stroke="black" points="252.5,-8 252.5,-32 355.5,-32 355.5,-8 252.5,-8"/>
<text text-anchor="middle" x="304" y="-19" font-family="Helvetica,sans-Serif" font-size="10.00">refresh_time_cursor</text>
</a>
</g>
<!-- Node2&#45;&gt;Node3 -->
<g id="edge4" class="edge"><title>Node2&#45;&gt;Node3</title>
<path fill="none" stroke="midnightblue" d="M216.212,-20C224.631,-20 233.454,-20 242.126,-20"/>
<polygon fill="midnightblue" stroke="midnightblue" points="242.203,-23.5001 252.203,-20 242.203,-16.5001 242.203,-23.5001"/>
</g>
</g>
</svg>
