<?xml version="1.0" encoding="UTF-8" standalone="no"?>
<!DOCTYPE svg PUBLIC "-//W3C//DTD SVG 1.1//EN"
 "http://www.w3.org/Graphics/SVG/1.1/DTD/svg11.dtd">
<!-- Generated by graphviz version 2.26.3 (20100126.1600)
 -->
<!-- Title: Bang_event Pages: 1 -->
<!--zoomable 303 -->
<svg id="main" version="1.1" xmlns="http://www.w3.org/2000/svg" xmlns:xlink="http://www.w3.org/1999/xlink" xml:space="preserve" onload="init(evt)">
<style type="text/css"><![CDATA[
.edge:hover path { stroke: red; }
.edge:hover polygon { stroke: red; fill: red; }
]]></style>
<script type="text/javascript"><![CDATA[
var edges = document.getElementsByTagName('g');
if (edges && edges.length) {
  for (var i=0;i<edges.length;i++) {
    if (edges[i].id.substr(0,4)=='edge') {
      edges[i].setAttribute('class','edge');
    }
  }
}
]]></script>
        <defs>
                <circle id="rim" cx="0" cy="0" r="7"/>
                <circle id="rim2" cx="0" cy="0" r="3.5"/>
                <g id="zoomPlus">
                        <use xlink:href="#rim" fill="#404040">
                                <set attributeName="fill" to="#808080" begin="zoomplus.mouseover" end="zoomplus.mouseout"/>
                        </use>
                        <path d="M-4,0h8M0,-4v8" fill="none" stroke="white" stroke-width="1.5" pointer-events="none"/>
                </g>
                <g id="zoomMin">
                        <use xlink:href="#rim" fill="#404040">
                                <set attributeName="fill" to="#808080" begin="zoomminus.mouseover" end="zoomminus.mouseout"/>
                        </use>
                        <path d="M-4,0h8" fill="none" stroke="white" stroke-width="1.5" pointer-events="none"/>
                </g>
                <g id="dirArrow">
                        <path fill="none" stroke="white" stroke-width="1.5" d="M0,-3.0v7 M-2.5,-0.5L0,-3.0L2.5,-0.5"/>
                </g>
               <g id="resetDef">
                       <use xlink:href="#rim2" fill="#404040">
                               <set attributeName="fill" to="#808080" begin="reset.mouseover" end="reset.mouseout"/>
                       </use>
               </g>
        </defs>

<script type="text/javascript">
var viewWidth = 1908;
var viewHeight = 303;
var sectionId = 'dynsection-3';
</script>
<script xlink:href="svgpan.js"/>
<svg id="graph" class="graph">
<g id="viewport">
<title>Bang_event</title>
<polygon fill="white" stroke="white" points="-4,5 -4,-299 1905,-299 1905,5 -4,5"/>
<!-- Node1 -->
<g id="node1" class="node"><title>Node1</title>
<polygon fill="#bfbfbf" stroke="black" points="0,-147 0,-171 68,-171 68,-147 0,-147"/>
<text text-anchor="middle" x="34" y="-158" font-family="Helvetica,sans-Serif" font-size="10.00">Bang_event</text>
</g>
<!-- Node2 -->
<g id="node3" class="node"><title>Node2</title>
<a xlink:href="banger__core__8_8cpp.html#a4003a08a1620546de77b118c91d2fd9d" target="_top" xlink:title="do_bang">
<polygon fill="white" stroke="black" points="127.5,-271 127.5,-295 180.5,-295 180.5,-271 127.5,-271"/>
<text text-anchor="middle" x="154" y="-282" font-family="Helvetica,sans-Serif" font-size="10.00">do_bang</text>
</a>
</g>
<!-- Node1&#45;&gt;Node2 -->
<g id="edge2" class="edge"><title>Node1&#45;&gt;Node2</title>
<path fill="none" stroke="midnightblue" d="M53.0861,-178.722C78.1183,-204.589 121.293,-249.203 142.104,-270.707"/>
<polygon fill="midnightblue" stroke="midnightblue" points="55.4141,-176.095 45.9448,-171.343 50.3839,-180.963 55.4141,-176.095"/>
</g>
<!-- Node5 -->
<g id="node9" class="node"><title>Node5</title>
<a xlink:href="banger__core__8_8cpp.html#a4fe16ad483c0c1609d97aeb9a23c74ee" target="_top" xlink:title="do_logical_fenetre\l_banger">
<polygon fill="white" stroke="black" points="106.5,-174 106.5,-214 201.5,-214 201.5,-174 106.5,-174"/>
<text text-anchor="start" x="114.5" y="-201" font-family="Helvetica,sans-Serif" font-size="10.00">do_logical_fenetre</text>
<text text-anchor="middle" x="154" y="-185" font-family="Helvetica,sans-Serif" font-size="10.00">_banger</text>
</a>
</g>
<!-- Node1&#45;&gt;Node5 -->
<g id="edge8" class="edge"><title>Node1&#45;&gt;Node5</title>
<path fill="none" stroke="midnightblue" d="M77.8748,-171.797C87.1582,-174.504 96.9978,-177.374 106.411,-180.12"/>
<polygon fill="midnightblue" stroke="midnightblue" points="78.6462,-168.376 68.0662,-168.936 76.6862,-175.096 78.6462,-168.376"/>
</g>
<!-- Node7 -->
<g id="node14" class="node"><title>Node7</title>
<a xlink:href="banger__core__8_8cpp.html#ab405ab53ea444b049e5ffa258498fcb6" target="_top" xlink:title="refresh_banger_wx">
<polygon fill="white" stroke="black" points="104.5,-113 104.5,-137 203.5,-137 203.5,-113 104.5,-113"/>
<text text-anchor="middle" x="154" y="-124" font-family="Helvetica,sans-Serif" font-size="10.00">refresh_banger_wx</text>
</a>
</g>
<!-- Node1&#45;&gt;Node7 -->
<g id="edge14" class="edge"><title>Node1&#45;&gt;Node7</title>
<path fill="none" stroke="midnightblue" d="M77.8266,-146.582C88.7406,-143.49 100.426,-140.179 111.286,-137.102"/>
<polygon fill="midnightblue" stroke="midnightblue" points="76.7333,-143.254 68.0662,-149.348 78.6416,-149.989 76.7333,-143.254"/>
</g>
<!-- Node13 -->
<g id="node29" class="node"><title>Node13</title>
<a xlink:href="midi__13_8cpp.html#a6dff3d42682b58cc0a9875ee30fb4cd4" target="_top" xlink:title="do_midi_job">
<polygon fill="white" stroke="black" points="263,-19 263,-43 331,-43 331,-19 263,-19"/>
<text text-anchor="middle" x="297" y="-30" font-family="Helvetica,sans-Serif" font-size="10.00">do_midi_job</text>
</a>
</g>
<!-- Node1&#45;&gt;Node13 -->
<g id="edge84" class="edge"><title>Node1&#45;&gt;Node13</title>
<path fill="none" stroke="midnightblue" d="M54.7159,-139.999C68.0581,-128.476 86.1838,-114.097 104,-104 156.36,-74.3267 223.116,-52.1612 262.823,-40.4286"/>
<polygon fill="midnightblue" stroke="midnightblue" points="52.2565,-137.501 47.0723,-146.741 56.887,-142.751 52.2565,-137.501"/>
</g>
<!-- Node3 -->
<g id="node5" class="node"><title>Node3</title>
<a xlink:href="_m_a_i_n__avec__objets_8cpp.html#a8e80f54ac804eddce8ed6e45adb1db44" target="_top" xlink:title="ticker_full_loop">
<polygon fill="white" stroke="black" points="562,-156 562,-180 644,-180 644,-156 562,-156"/>
<text text-anchor="middle" x="603" y="-167" font-family="Helvetica,sans-Serif" font-size="10.00">ticker_full_loop</text>
</a>
</g>
<!-- Node2&#45;&gt;Node3 -->
<g id="edge4" class="edge"><title>Node2&#45;&gt;Node3</title>
<path fill="none" stroke="midnightblue" d="M191.049,-285.321C260.214,-288.177 412.263,-287.413 526,-236 554.44,-223.144 579.979,-196.088 593.294,-180.254"/>
<polygon fill="midnightblue" stroke="midnightblue" points="190.831,-281.807 180.679,-284.838 190.505,-288.799 190.831,-281.807"/>
</g>
<!-- Node4 -->
<g id="node7" class="node"><title>Node4</title>
<a xlink:href="_m_a_i_n__avec__objets_8cpp.html#ae66f6b31b5ad750f1fe042a706a4e3d4" target="_top" xlink:title="main">
<polygon fill="white" stroke="black" points="1862,-78 1862,-102 1900,-102 1900,-78 1862,-78"/>
<text text-anchor="middle" x="1881" y="-89" font-family="Helvetica,sans-Serif" font-size="10.00">main</text>
</a>
</g>
<!-- Node3&#45;&gt;Node4 -->
<g id="edge6" class="edge"><title>Node3&#45;&gt;Node4</title>
<path fill="none" stroke="midnightblue" d="M654.387,-168C711.092,-168 805.057,-168 886,-168 886,-168 886,-168 1642,-168 1727.55,-168 1822.2,-122.278 1861.87,-100.846"/>
<polygon fill="midnightblue" stroke="midnightblue" points="654.244,-164.5 644.244,-168 654.244,-171.5 654.244,-164.5"/>
</g>
<!-- Node6 -->
<g id="node11" class="node"><title>Node6</title>
<a xlink:href="procs__visuels__rebuild1_8cpp.html#ae710b6e599e321ad5934a90140067054" target="_top" xlink:title="check_graphics_mouse\l_handling">
<polygon fill="white" stroke="black" points="398.5,-187 398.5,-227 517.5,-227 517.5,-187 398.5,-187"/>
<text text-anchor="start" x="406.5" y="-214" font-family="Helvetica,sans-Serif" font-size="10.00">check_graphics_mouse</text>
<text text-anchor="middle" x="458" y="-198" font-family="Helvetica,sans-Serif" font-size="10.00">_handling</text>
</a>
</g>
<!-- Node5&#45;&gt;Node6 -->
<g id="edge10" class="edge"><title>Node5&#45;&gt;Node6</title>
<path fill="none" stroke="midnightblue" d="M195.339,-218.889C209.062,-225.85 224.742,-232.473 240,-236 289.365,-247.41 303.801,-242.868 354,-236 368.579,-234.005 383.995,-230.507 398.365,-226.615"/>
<polygon fill="midnightblue" stroke="midnightblue" points="196.657,-215.627 186.18,-214.05 193.386,-221.816 196.657,-215.627"/>
</g>
<!-- Node6&#45;&gt;Node3 -->
<g id="edge12" class="edge"><title>Node6&#45;&gt;Node3</title>
<path fill="none" stroke="midnightblue" d="M527.619,-188.275C539.352,-185.119 551.185,-181.936 561.888,-179.058"/>
<polygon fill="midnightblue" stroke="midnightblue" points="526.562,-184.935 517.814,-190.912 528.38,-191.695 526.562,-184.935"/>
</g>
<!-- Node8 -->
<g id="node16" class="node"><title>Node8</title>
<a xlink:href="i_cat14_8cpp.html#a16285241f82898e7a5f051b03d90b9a3" target="_top" xlink:title="check_button">
<polygon fill="white" stroke="black" points="259.5,-145 259.5,-169 334.5,-169 334.5,-145 259.5,-145"/>
<text text-anchor="middle" x="297" y="-156" font-family="Helvetica,sans-Serif" font-size="10.00">check_button</text>
</a>
</g>
<!-- Node7&#45;&gt;Node8 -->
<g id="edge16" class="edge"><title>Node7&#45;&gt;Node8</title>
<path fill="none" stroke="midnightblue" d="M213.613,-138.34C229.044,-141.793 245.235,-145.416 259.202,-148.542"/>
<polygon fill="midnightblue" stroke="midnightblue" points="214.136,-134.871 203.613,-136.102 212.607,-141.702 214.136,-134.871"/>
</g>
<!-- Node10 -->
<g id="node21" class="node"><title>Node10</title>
<a xlink:href="keyboard__functions2_8cpp.html#af3dd6697323b10b480719c1612bcf29a" target="_top" xlink:title="key_backward">
<polygon fill="white" stroke="black" points="257,-103 257,-127 337,-127 337,-103 257,-103"/>
<text text-anchor="middle" x="297" y="-114" font-family="Helvetica,sans-Serif" font-size="10.00">key_backward</text>
</a>
</g>
<!-- Node7&#45;&gt;Node10 -->
<g id="edge22" class="edge"><title>Node7&#45;&gt;Node10</title>
<path fill="none" stroke="midnightblue" d="M214.007,-120.804C228.486,-119.791 243.612,-118.733 256.923,-117.803"/>
<polygon fill="midnightblue" stroke="midnightblue" points="213.345,-117.341 203.613,-121.531 213.833,-124.324 213.345,-117.341"/>
</g>
<!-- Node12 -->
<g id="node26" class="node"><title>Node12</title>
<a xlink:href="keyboard__functions2_8cpp.html#a6b73a3669797504ce2e357d9a8b9a2c2" target="_top" xlink:title="key_forward">
<polygon fill="white" stroke="black" points="262,-61 262,-85 332,-85 332,-61 262,-61"/>
<text text-anchor="middle" x="297" y="-72" font-family="Helvetica,sans-Serif" font-size="10.00">key_forward</text>
</a>
</g>
<!-- Node7&#45;&gt;Node12 -->
<g id="edge28" class="edge"><title>Node7&#45;&gt;Node12</title>
<path fill="none" stroke="midnightblue" d="M196.666,-109.485C218.05,-101.709 243.568,-92.4297 263.518,-85.1753"/>
<polygon fill="midnightblue" stroke="midnightblue" points="195.368,-106.233 187.167,-112.939 197.761,-112.811 195.368,-106.233"/>
</g>
<!-- Node7&#45;&gt;Node13 -->
<g id="edge32" class="edge"><title>Node7&#45;&gt;Node13</title>
<path fill="none" stroke="midnightblue" d="M172.846,-105.561C189.334,-89.4446 214.564,-66.8488 240,-52 247.104,-47.8528 255.171,-44.2833 262.954,-41.3245"/>
<polygon fill="midnightblue" stroke="midnightblue" points="170.104,-103.352 165.491,-112.889 175.045,-108.31 170.104,-103.352"/>
</g>
<!-- Node31 -->
<g id="node71" class="node"><title>Node31</title>
<a xlink:href="sequentiel__6__core_8cpp.html#a2a71c851cf25565491dd10423bc80380" target="_top" xlink:title="do_logical_Sequenciel\l_Window">
<polygon fill="white" stroke="black" points="240.5,-187 240.5,-227 353.5,-227 353.5,-187 240.5,-187"/>
<text text-anchor="start" x="248.5" y="-214" font-family="Helvetica,sans-Serif" font-size="10.00">do_logical_Sequenciel</text>
<text text-anchor="middle" x="297" y="-198" font-family="Helvetica,sans-Serif" font-size="10.00">_Window</text>
</a>
</g>
<!-- Node7&#45;&gt;Node31 -->
<g id="edge80" class="edge"><title>Node7&#45;&gt;Node31</title>
<path fill="none" stroke="midnightblue" d="M181.243,-142.578C197.989,-153.185 219.999,-166.773 240,-178 245.325,-180.989 250.993,-184.032 256.611,-186.968"/>
<polygon fill="midnightblue" stroke="midnightblue" points="182.841,-139.447 172.527,-137.026 179.081,-145.351 182.841,-139.447"/>
</g>
<!-- Node9 -->
<g id="node18" class="node"><title>Node9</title>
<a xlink:href="i_cat14_8cpp.html#aa9772b548765a631d4bae1c14053b4e1" target="_top" xlink:title="DoJobFantastickTouch">
<polygon fill="white" stroke="black" points="399.5,-145 399.5,-169 516.5,-169 516.5,-145 399.5,-145"/>
<text text-anchor="middle" x="458" y="-156" font-family="Helvetica,sans-Serif" font-size="10.00">DoJobFantastickTouch</text>
</a>
</g>
<!-- Node8&#45;&gt;Node9 -->
<g id="edge18" class="edge"><title>Node8&#45;&gt;Node9</title>
<path fill="none" stroke="midnightblue" d="M345.039,-157C362.111,-157 381.521,-157 399.378,-157"/>
<polygon fill="midnightblue" stroke="midnightblue" points="344.747,-153.5 334.747,-157 344.747,-160.5 344.747,-153.5"/>
</g>
<!-- Node9&#45;&gt;Node3 -->
<g id="edge20" class="edge"><title>Node9&#45;&gt;Node3</title>
<path fill="none" stroke="midnightblue" d="M526.554,-162.201C538.527,-163.109 550.645,-164.028 561.594,-164.859"/>
<polygon fill="midnightblue" stroke="midnightblue" points="526.795,-158.709 516.559,-161.442 526.266,-165.689 526.795,-158.709"/>
</g>
<!-- Node11 -->
<g id="node23" class="node"><title>Node11</title>
<a xlink:href="keyboard__routines2_8cpp.html#a8563320b8eab661232619224650de244" target="_top" xlink:title="commandes_clavier">
<polygon fill="white" stroke="black" points="406,-103 406,-127 510,-127 510,-103 406,-103"/>
<text text-anchor="middle" x="458" y="-114" font-family="Helvetica,sans-Serif" font-size="10.00">commandes_clavier</text>
</a>
</g>
<!-- Node10&#45;&gt;Node11 -->
<g id="edge24" class="edge"><title>Node10&#45;&gt;Node11</title>
<path fill="none" stroke="midnightblue" d="M347.27,-115C365.898,-115 387.053,-115 405.845,-115"/>
<polygon fill="midnightblue" stroke="midnightblue" points="347.212,-111.5 337.212,-115 347.212,-118.5 347.212,-111.5"/>
</g>
<!-- Node11&#45;&gt;Node3 -->
<g id="edge26" class="edge"><title>Node11&#45;&gt;Node3</title>
<path fill="none" stroke="midnightblue" d="M508.896,-130.142C514.691,-132.036 520.491,-134.01 526,-136 542.747,-142.05 561.176,-149.674 575.806,-155.962"/>
<polygon fill="midnightblue" stroke="midnightblue" points="509.791,-126.754 499.2,-127.039 507.658,-133.421 509.791,-126.754"/>
</g>
<!-- Node12&#45;&gt;Node11 -->
<g id="edge30" class="edge"><title>Node12&#45;&gt;Node11</title>
<path fill="none" stroke="midnightblue" d="M342.286,-84.8137C363.979,-90.4727 389.921,-97.2403 411.739,-102.932"/>
<polygon fill="midnightblue" stroke="midnightblue" points="342.892,-81.3547 332.332,-82.2171 341.125,-88.128 342.892,-81.3547"/>
</g>
<!-- Node14 -->
<g id="node31" class="node"><title>Node14</title>
<a xlink:href="midi__13_8cpp.html#a6bedf9750195224914cd87c4e73ab626" target="_top" xlink:title="ventilate_midi_to_midiarray">
<polygon fill="white" stroke="black" points="390.5,-19 390.5,-43 525.5,-43 525.5,-19 390.5,-19"/>
<text text-anchor="middle" x="458" y="-30" font-family="Helvetica,sans-Serif" font-size="10.00">ventilate_midi_to_midiarray</text>
</a>
</g>
<!-- Node13&#45;&gt;Node14 -->
<g id="edge34" class="edge"><title>Node13&#45;&gt;Node14</title>
<path fill="none" stroke="midnightblue" d="M341.272,-31C356.455,-31 373.811,-31 390.414,-31"/>
<polygon fill="midnightblue" stroke="midnightblue" points="341.144,-27.5001 331.144,-31 341.144,-34.5001 341.144,-27.5001"/>
</g>
<!-- Node15 -->
<g id="node33" class="node"><title>Node15</title>
<a xlink:href="midi__13_8cpp.html#afa49dd5668303c2448676c8243737c2d" target="_top" xlink:title="simulate_midi">
<polygon fill="white" stroke="black" points="564.5,-50 564.5,-74 641.5,-74 641.5,-50 564.5,-50"/>
<text text-anchor="middle" x="603" y="-61" font-family="Helvetica,sans-Serif" font-size="10.00">simulate_midi</text>
</a>
</g>
<!-- Node14&#45;&gt;Node15 -->
<g id="edge36" class="edge"><title>Node14&#45;&gt;Node15</title>
<path fill="none" stroke="midnightblue" d="M524.369,-45.1892C538.065,-48.1174 552.056,-51.1084 564.366,-53.7403"/>
<polygon fill="midnightblue" stroke="midnightblue" points="524.987,-41.7423 514.476,-43.0742 523.523,-48.5876 524.987,-41.7423"/>
</g>
<!-- Node19 -->
<g id="node43" class="node"><title>Node19</title>
<a xlink:href="midi__13_8cpp.html#a4104c2ae7e71376ad9dc78929450dc51" target="_top" xlink:title="EvAquire">
<polygon fill="white" stroke="black" points="575,-4 575,-28 631,-28 631,-4 575,-4"/>
<text text-anchor="middle" x="603" y="-15" font-family="Helvetica,sans-Serif" font-size="10.00">EvAquire</text>
</a>
</g>
<!-- Node14&#45;&gt;Node19 -->
<g id="edge48" class="edge"><title>Node14&#45;&gt;Node19</title>
<path fill="none" stroke="midnightblue" d="M535.947,-22.9365C549.817,-21.5017 563.419,-20.0946 574.708,-18.9268"/>
<polygon fill="midnightblue" stroke="midnightblue" points="535.417,-19.4726 525.83,-23.9831 536.137,-26.4354 535.417,-19.4726"/>
</g>
<!-- Node16 -->
<g id="node35" class="node"><title>Node16</title>
<a xlink:href="arduino__core__6___u_n_o_8cpp.html#ae72d1a8d74d9ab5515962e03e7e664d6" target="_top" xlink:title="arduino_do_analog_in\l_whitecat">
<polygon fill="white" stroke="black" points="680,-100 680,-140 790,-140 790,-100 680,-100"/>
<text text-anchor="start" x="688" y="-127" font-family="Helvetica,sans-Serif" font-size="10.00">arduino_do_analog_in</text>
<text text-anchor="middle" x="735" y="-111" font-family="Helvetica,sans-Serif" font-size="10.00">_whitecat</text>
</a>
</g>
<!-- Node15&#45;&gt;Node16 -->
<g id="edge38" class="edge"><title>Node15&#45;&gt;Node16</title>
<path fill="none" stroke="midnightblue" d="M639.539,-78.0549C654.918,-84.8123 672.982,-92.7495 689.234,-99.8905"/>
<polygon fill="midnightblue" stroke="midnightblue" points="640.914,-74.8361 630.35,-74.0176 638.098,-81.2448 640.914,-74.8361"/>
</g>
<!-- Node18 -->
<g id="node40" class="node"><title>Node18</title>
<a xlink:href="arduino__core__6___u_n_o_8cpp.html#a219226c1cd6cc17c78e62fd4445bb445" target="_top" xlink:title="arduino_do_digital\l_in_whitecat">
<polygon fill="white" stroke="black" points="687.5,-42 687.5,-82 782.5,-82 782.5,-42 687.5,-42"/>
<text text-anchor="start" x="695.5" y="-69" font-family="Helvetica,sans-Serif" font-size="10.00">arduino_do_digital</text>
<text text-anchor="middle" x="735" y="-53" font-family="Helvetica,sans-Serif" font-size="10.00">_in_whitecat</text>
</a>
</g>
<!-- Node15&#45;&gt;Node18 -->
<g id="edge44" class="edge"><title>Node15&#45;&gt;Node18</title>
<path fill="none" stroke="midnightblue" d="M651.541,-62C663.203,-62 675.648,-62 687.272,-62"/>
<polygon fill="midnightblue" stroke="midnightblue" points="651.535,-58.5001 641.535,-62 651.535,-65.5001 651.535,-58.5001"/>
</g>
<!-- Node17 -->
<g id="node37" class="node"><title>Node17</title>
<a xlink:href="_m_a_i_n__avec__objets_8cpp.html#ace9c8a9b37c6087c3cffef442d71d70e" target="_top" xlink:title="dixiemes_de_secondes">
<polygon fill="white" stroke="black" points="826.5,-100 826.5,-124 945.5,-124 945.5,-100 826.5,-100"/>
<text text-anchor="middle" x="886" y="-111" font-family="Helvetica,sans-Serif" font-size="10.00">dixiemes_de_secondes</text>
</a>
</g>
<!-- Node16&#45;&gt;Node17 -->
<g id="edge40" class="edge"><title>Node16&#45;&gt;Node17</title>
<path fill="none" stroke="midnightblue" d="M800.379,-116.536C808.999,-116.08 817.798,-115.613 826.316,-115.162"/>
<polygon fill="midnightblue" stroke="midnightblue" points="800.17,-113.042 790.369,-117.067 800.541,-120.032 800.17,-113.042"/>
</g>
<!-- Node17&#45;&gt;Node4 -->
<g id="edge42" class="edge"><title>Node17&#45;&gt;Node4</title>
<path fill="none" stroke="midnightblue" d="M955.833,-112C1008.62,-112 1082.86,-112 1148,-112 1148,-112 1148,-112 1642,-112 1724.09,-112 1821.37,-98.9721 1861.85,-92.967"/>
<polygon fill="midnightblue" stroke="midnightblue" points="955.572,-108.5 945.572,-112 955.572,-115.5 955.572,-108.5"/>
</g>
<!-- Node18&#45;&gt;Node17 -->
<g id="edge46" class="edge"><title>Node18&#45;&gt;Node17</title>
<path fill="none" stroke="midnightblue" d="M792.338,-80.986C811.532,-87.3419 832.392,-94.2491 849.543,-99.9283"/>
<polygon fill="midnightblue" stroke="midnightblue" points="793.371,-77.6412 782.777,-77.8203 791.17,-84.2864 793.371,-77.6412"/>
</g>
<!-- Node20 -->
<g id="node45" class="node"><title>Node20</title>
<a xlink:href="midi__13_8cpp.html#a831f1dfc7870ae4f6c64a0e65fbaf3ff" target="_top" xlink:title="Display">
<polygon fill="white" stroke="black" points="710,-0 710,-24 760,-24 760,-0 710,-0"/>
<text text-anchor="middle" x="735" y="-11" font-family="Helvetica,sans-Serif" font-size="10.00">Display</text>
</a>
</g>
<!-- Node19&#45;&gt;Node20 -->
<g id="edge50" class="edge"><title>Node19&#45;&gt;Node20</title>
<path fill="none" stroke="midnightblue" d="M641.366,-14.8374C663.419,-14.1691 690.496,-13.3486 709.849,-12.7622"/>
<polygon fill="midnightblue" stroke="midnightblue" points="641.207,-11.3405 631.317,-15.1419 641.419,-18.3373 641.207,-11.3405"/>
</g>
<!-- Node21 -->
<g id="node47" class="node"><title>Node21</title>
<a xlink:href="midi__13_8cpp.html#aa4aeee5088a4a5462566dfee5c9cc71f" target="_top" xlink:title="DisplayTask">
<polygon fill="white" stroke="black" points="850.5,-42 850.5,-66 921.5,-66 921.5,-42 850.5,-42"/>
<text text-anchor="middle" x="886" y="-53" font-family="Helvetica,sans-Serif" font-size="10.00">DisplayTask</text>
</a>
</g>
<!-- Node20&#45;&gt;Node21 -->
<g id="edge52" class="edge"><title>Node20&#45;&gt;Node21</title>
<path fill="none" stroke="midnightblue" d="M770.099,-21.7627C794.248,-28.4795 826.212,-37.3702 850.456,-44.1135"/>
<polygon fill="midnightblue" stroke="midnightblue" points="770.846,-18.3377 760.274,-19.0299 768.97,-25.0817 770.846,-18.3377"/>
</g>
<!-- Node23 -->
<g id="node52" class="node"><title>Node23</title>
<a xlink:href="midi___c_o_r_e_8cpp.html#a6fcb4c2efe85f50488d7aeeef1fc0a3e" target="_top" xlink:title="ReceiveEvents">
<polygon fill="white" stroke="black" points="844.5,-0 844.5,-24 927.5,-24 927.5,-0 844.5,-0"/>
<text text-anchor="middle" x="886" y="-11" font-family="Helvetica,sans-Serif" font-size="10.00">ReceiveEvents</text>
</a>
</g>
<!-- Node20&#45;&gt;Node23 -->
<g id="edge58" class="edge"><title>Node20&#45;&gt;Node23</title>
<path fill="none" stroke="midnightblue" d="M770.562,-12C792.676,-12 821.207,-12 844.372,-12"/>
<polygon fill="midnightblue" stroke="midnightblue" points="770.274,-8.5001 760.274,-12 770.274,-15.5001 770.274,-8.5001"/>
</g>
<!-- Node22 -->
<g id="node49" class="node"><title>Node22</title>
<a xlink:href="midi___c_o_r_e_8cpp.html#a7d0f82d882071792d6a2df51ef13ec55" target="_top" xlink:title="ReceivePolling">
<polygon fill="white" stroke="black" points="982,-42 982,-66 1064,-66 1064,-42 982,-42"/>
<text text-anchor="middle" x="1023" y="-53" font-family="Helvetica,sans-Serif" font-size="10.00">ReceivePolling</text>
</a>
</g>
<!-- Node21&#45;&gt;Node22 -->
<g id="edge54" class="edge"><title>Node21&#45;&gt;Node22</title>
<path fill="none" stroke="midnightblue" d="M931.91,-54C948.021,-54 966.008,-54 981.716,-54"/>
<polygon fill="midnightblue" stroke="midnightblue" points="931.638,-50.5001 921.638,-54 931.637,-57.5001 931.638,-50.5001"/>
</g>
<!-- Node22&#45;&gt;Node22 -->
<g id="edge56" class="edge"><title>Node22&#45;&gt;Node22</title>
<path fill="none" stroke="midnightblue" d="M1000.51,-76.0013C1002.81,-80.6474 1010.31,-84 1023,-84 1043.83,-84 1050.66,-74.9717 1043.5,-66.0139"/>
<polygon fill="midnightblue" stroke="midnightblue" points="1003.98,-76.5043 1002.5,-66.0139 997.116,-75.1401 1003.98,-76.5043"/>
</g>
<!-- Node23&#45;&gt;Node22 -->
<g id="edge60" class="edge"><title>Node23&#45;&gt;Node22</title>
<path fill="none" stroke="midnightblue" d="M934.988,-27.0181C950.991,-31.9241 968.544,-37.3054 983.736,-41.9627"/>
<polygon fill="midnightblue" stroke="midnightblue" points="935.845,-23.6204 925.259,-24.0355 933.794,-30.3129 935.845,-23.6204"/>
</g>
<!-- Node24 -->
<g id="node55" class="node"><title>Node24</title>
<a xlink:href="midi___c_o_r_e_8cpp.html#a0ccf480a33424e626f88d109d53d8366" target="_top" xlink:title="InitMidi">
<polygon fill="white" stroke="black" points="999,-0 999,-24 1047,-24 1047,-0 999,-0"/>
<text text-anchor="middle" x="1023" y="-11" font-family="Helvetica,sans-Serif" font-size="10.00">InitMidi</text>
</a>
</g>
<!-- Node23&#45;&gt;Node24 -->
<g id="edge62" class="edge"><title>Node23&#45;&gt;Node24</title>
<path fill="none" stroke="midnightblue" d="M937.927,-12C958.893,-12 982.063,-12 998.921,-12"/>
<polygon fill="midnightblue" stroke="midnightblue" points="937.849,-8.5001 927.849,-12 937.849,-15.5001 937.849,-8.5001"/>
</g>
<!-- Node24&#45;&gt;Node4 -->
<g id="edge64" class="edge"><title>Node24&#45;&gt;Node4</title>
<path fill="none" stroke="midnightblue" d="M1056.3,-28.029C1069.62,-33.8572 1085.28,-39.9906 1100,-44 1174.9,-64.3951 1195.37,-68 1273,-68 1273,-68 1273,-68 1642,-68 1724.09,-68 1821.37,-81.0279 1861.85,-87.033"/>
<polygon fill="midnightblue" stroke="midnightblue" points="1057.61,-24.7826 1047.06,-23.8738 1054.74,-31.1669 1057.61,-24.7826"/>
</g>
<!-- Node25 -->
<g id="node58" class="node"><title>Node25</title>
<a xlink:href="midi__13_8cpp.html#ac7a306aa81e374b447e7341d4d3a3eea" target="_top" xlink:title="midipage_devices">
<polygon fill="white" stroke="black" points="1100.5,-11 1100.5,-35 1195.5,-35 1195.5,-11 1100.5,-11"/>
<text text-anchor="middle" x="1148" y="-22" font-family="Helvetica,sans-Serif" font-size="10.00">midipage_devices</text>
</a>
</g>
<!-- Node24&#45;&gt;Node25 -->
<g id="edge66" class="edge"><title>Node24&#45;&gt;Node25</title>
<path fill="none" stroke="midnightblue" d="M1057.25,-15.0143C1070.57,-16.1862 1086.05,-17.5487 1100.42,-18.8129"/>
<polygon fill="midnightblue" stroke="midnightblue" points="1057.37,-11.5111 1047.1,-14.1209 1056.76,-18.4841 1057.37,-11.5111"/>
</g>
<!-- Node26 -->
<g id="node60" class="node"><title>Node26</title>
<a xlink:href="midi__13_8cpp.html#a8f70acacad6eaba8867bdd80dda5e277" target="_top" xlink:title="do_midi_config">
<polygon fill="white" stroke="black" points="1232,-14 1232,-38 1314,-38 1314,-14 1232,-14"/>
<text text-anchor="middle" x="1273" y="-25" font-family="Helvetica,sans-Serif" font-size="10.00">do_midi_config</text>
</a>
</g>
<!-- Node25&#45;&gt;Node26 -->
<g id="edge68" class="edge"><title>Node25&#45;&gt;Node26</title>
<path fill="none" stroke="midnightblue" d="M1205.77,-24.3864C1214.5,-24.5959 1223.35,-24.8085 1231.65,-25.0075"/>
<polygon fill="midnightblue" stroke="midnightblue" points="1205.69,-20.8838 1195.61,-24.1427 1205.53,-27.8817 1205.69,-20.8838"/>
</g>
<!-- Node27 -->
<g id="node62" class="node"><title>Node27</title>
<a xlink:href="_c_f_g__config__panel__8_8cpp.html#ad39c46e2fb3a3ba7ea0460140ead4f96" target="_top" xlink:title="do_panel_config">
<polygon fill="white" stroke="black" points="1350.5,-15 1350.5,-39 1437.5,-39 1437.5,-15 1350.5,-15"/>
<text text-anchor="middle" x="1394" y="-26" font-family="Helvetica,sans-Serif" font-size="10.00">do_panel_config</text>
</a>
</g>
<!-- Node26&#45;&gt;Node27 -->
<g id="edge70" class="edge"><title>Node26&#45;&gt;Node27</title>
<path fill="none" stroke="midnightblue" d="M1324.33,-26.4242C1333.01,-26.4959 1341.95,-26.5698 1350.41,-26.6397"/>
<polygon fill="midnightblue" stroke="midnightblue" points="1324.33,-22.9242 1314.3,-26.3413 1324.27,-29.924 1324.33,-22.9242"/>
</g>
<!-- Node28 -->
<g id="node64" class="node"><title>Node28</title>
<a xlink:href="_c_f_g__config__panel__8_8cpp.html#a7968da66bccdba8b864caf6c8435f68e" target="_top" xlink:title="config_general_menu">
<polygon fill="white" stroke="black" points="1474.5,-16 1474.5,-40 1583.5,-40 1583.5,-16 1474.5,-16"/>
<text text-anchor="middle" x="1529" y="-27" font-family="Helvetica,sans-Serif" font-size="10.00">config_general_menu</text>
</a>
</g>
<!-- Node27&#45;&gt;Node28 -->
<g id="edge72" class="edge"><title>Node27&#45;&gt;Node28</title>
<path fill="none" stroke="midnightblue" d="M1448.07,-27.4005C1456.62,-27.4639 1465.47,-27.5294 1474.04,-27.5929"/>
<polygon fill="midnightblue" stroke="midnightblue" points="1447.86,-23.8989 1437.83,-27.3247 1447.8,-30.8987 1447.86,-23.8989"/>
</g>
<!-- Node29 -->
<g id="node66" class="node"><title>Node29</title>
<a xlink:href="graphics__rebuild1_8cpp.html#ac2eae1e03fb72cc734ffbcef566483bf" target="_top" xlink:title="Boxes">
<polygon fill="white" stroke="black" points="1620,-16 1620,-40 1664,-40 1664,-16 1620,-16"/>
<text text-anchor="middle" x="1642" y="-27" font-family="Helvetica,sans-Serif" font-size="10.00">Boxes</text>
</a>
</g>
<!-- Node28&#45;&gt;Node29 -->
<g id="edge74" class="edge"><title>Node28&#45;&gt;Node29</title>
<path fill="none" stroke="midnightblue" d="M1593.75,-28C1603.11,-28 1612.17,-28 1619.86,-28"/>
<polygon fill="midnightblue" stroke="midnightblue" points="1593.51,-24.5001 1583.51,-28 1593.51,-31.5001 1593.51,-24.5001"/>
</g>
<!-- Node30 -->
<g id="node68" class="node"><title>Node30</title>
<a xlink:href="_m_a_i_n__avec__objets_8cpp.html#ade8d4ba65d55c94f8ee277829d722155" target="_top" xlink:title="main_actions_on_screen">
<polygon fill="white" stroke="black" points="1700.5,-16 1700.5,-40 1825.5,-40 1825.5,-16 1700.5,-16"/>
<text text-anchor="middle" x="1763" y="-27" font-family="Helvetica,sans-Serif" font-size="10.00">main_actions_on_screen</text>
</a>
</g>
<!-- Node29&#45;&gt;Node30 -->
<g id="edge76" class="edge"><title>Node29&#45;&gt;Node30</title>
<path fill="none" stroke="midnightblue" d="M1674.24,-28C1682.32,-28 1691.26,-28 1700.27,-28"/>
<polygon fill="midnightblue" stroke="midnightblue" points="1674.19,-24.5001 1664.19,-28 1674.19,-31.5001 1674.19,-24.5001"/>
</g>
<!-- Node30&#45;&gt;Node4 -->
<g id="edge78" class="edge"><title>Node30&#45;&gt;Node4</title>
<path fill="none" stroke="midnightblue" d="M1805.11,-44.0835C1812.19,-47.154 1819.38,-50.5077 1826,-54 1839.32,-61.0295 1853.53,-70.3811 1864.17,-77.7912"/>
<polygon fill="midnightblue" stroke="midnightblue" points="1806.16,-40.7302 1795.58,-40.0856 1803.45,-47.1843 1806.16,-40.7302"/>
</g>
<!-- Node31&#45;&gt;Node6 -->
<g id="edge82" class="edge"><title>Node31&#45;&gt;Node6</title>
<path fill="none" stroke="midnightblue" d="M364.106,-207C375.511,-207 387.286,-207 398.478,-207"/>
<polygon fill="midnightblue" stroke="midnightblue" points="363.763,-203.5 353.763,-207 363.763,-210.5 363.763,-203.5"/>
</g>
</g>
</svg>
        <g id="navigator" transform="translate(0 0)" fill="#404254">
                <rect fill="#f2f5e9" fill-opacity="0.5" stroke="#606060" stroke-width=".5" x="0" y="0" width="60" height="60"/>
                <use id="zoomplus" xlink:href="#zoomPlus" x="17" y="9" onmousedown="handleZoom(evt,'in')"/>
                <use id="zoomminus" xlink:href="#zoomMin" x="42" y="9" onmousedown="handleZoom(evt,'out')"/>
                <use id="reset" xlink:href="#resetDef" x="30" y="36" onmousedown="handleReset()"/>
                <g id="arrowUp" xlink:href="#dirArrow" transform="translate(30 24)" onmousedown="handlePan(0,-1)">
                  <use xlink:href="#rim" fill="#404040">
                        <set attributeName="fill" to="#808080" begin="arrowUp.mouseover" end="arrowUp.mouseout"/>
                  </use>
                  <path fill="none" stroke="white" stroke-width="1.5" d="M0,-3.0v7 M-2.5,-0.5L0,-3.0L2.5,-0.5"/>
                </g>
                <g id="arrowRight" xlink:href="#dirArrow" transform="rotate(90) translate(36 -43)" onmousedown="handlePan(1,0)">
                  <use xlink:href="#rim" fill="#404040">
                        <set attributeName="fill" to="#808080" begin="arrowRight.mouseover" end="arrowRight.mouseout"/>
                  </use>
                  <path fill="none" stroke="white" stroke-width="1.5" d="M0,-3.0v7 M-2.5,-0.5L0,-3.0L2.5,-0.5"/>
                </g>
                <g id="arrowDown" xlink:href="#dirArrow" transform="rotate(180) translate(-30 -48)" onmousedown="handlePan(0,1)">
                  <use xlink:href="#rim" fill="#404040">
                        <set attributeName="fill" to="#808080" begin="arrowDown.mouseover" end="arrowDown.mouseout"/>
                  </use>
                  <path fill="none" stroke="white" stroke-width="1.5" d="M0,-3.0v7 M-2.5,-0.5L0,-3.0L2.5,-0.5"/>
                </g>
                <g id="arrowLeft" xlink:href="#dirArrow" transform="rotate(270) translate(-36 17)" onmousedown="handlePan(-1,0)">
                  <use xlink:href="#rim" fill="#404040">
                        <set attributeName="fill" to="#808080" begin="arrowLeft.mouseover" end="arrowLeft.mouseout"/>
                  </use>
                  <path fill="none" stroke="white" stroke-width="1.5" d="M0,-3.0v7 M-2.5,-0.5L0,-3.0L2.5,-0.5"/>
                </g>
        </g>
        <svg viewBox="0 0 15 15" width="100%" height="30px" preserveAspectRatio="xMaxYMin meet">
         <g id="arrow_out" transform="scale(0.3 0.3)">
          <a xlink:href="banger__core__8_8cpp_ae4008269e0575da11cc90e812961ef6f_icgraph_org.svg" target="_base">
           <rect id="button" ry="5" rx="5" y="6" x="6" height="38" width="38"
                fill="#f2f5e9" fill-opacity="0.5" stroke="#606060" stroke-width="1.0"/>
           <path id="arrow"
             d="M 11.500037,31.436501 C 11.940474,20.09759 22.043105,11.32322 32.158766,21.979434 L 37.068811,17.246167 C 37.068811,17.246167 37.088388,32 37.088388,32 L 22.160133,31.978069 C 22.160133,31.978069 26.997745,27.140456 26.997745,27.140456 C 18.528582,18.264221 13.291696,25.230495 11.500037,31.436501 z"
             style="fill:#404040;"/>
          </a>
         </g>
        </svg>
</svg>
