<?xml version="1.0" encoding="UTF-8" standalone="no"?>
<!DOCTYPE svg PUBLIC "-//W3C//DTD SVG 1.1//EN"
 "http://www.w3.org/Graphics/SVG/1.1/DTD/svg11.dtd">
<!-- Generated by graphviz version 2.26.3 (20100126.1600)
 -->
<!-- Title: Bang_event_back Pages: 1 -->
<!--zoomable 414 -->
<svg id="main" version="1.1" xmlns="http://www.w3.org/2000/svg" xmlns:xlink="http://www.w3.org/1999/xlink" xml:space="preserve" onload="init(evt)">
<style type="text/css"><![CDATA[
.edge:hover path { stroke: red; }
.edge:hover polygon { stroke: red; fill: red; }
]]></style>
<script type="text/javascript"><![CDATA[
var edges = document.getElementsByTagName('g');
if (edges && edges.length) {
  for (var i=0;i<edges.length;i++) {
    if (edges[i].id.substr(0,4)=='edge') {
      edges[i].setAttribute('class','edge');
    }
  }
}
]]></script>
        <defs>
                <circle id="rim" cx="0" cy="0" r="7"/>
                <circle id="rim2" cx="0" cy="0" r="3.5"/>
                <g id="zoomPlus">
                        <use xlink:href="#rim" fill="#404040">
                                <set attributeName="fill" to="#808080" begin="zoomplus.mouseover" end="zoomplus.mouseout"/>
                        </use>
                        <path d="M-4,0h8M0,-4v8" fill="none" stroke="white" stroke-width="1.5" pointer-events="none"/>
                </g>
                <g id="zoomMin">
                        <use xlink:href="#rim" fill="#404040">
                                <set attributeName="fill" to="#808080" begin="zoomminus.mouseover" end="zoomminus.mouseout"/>
                        </use>
                        <path d="M-4,0h8" fill="none" stroke="white" stroke-width="1.5" pointer-events="none"/>
                </g>
                <g id="dirArrow">
                        <path fill="none" stroke="white" stroke-width="1.5" d="M0,-3.0v7 M-2.5,-0.5L0,-3.0L2.5,-0.5"/>
                </g>
               <g id="resetDef">
                       <use xlink:href="#rim2" fill="#404040">
                               <set attributeName="fill" to="#808080" begin="reset.mouseover" end="reset.mouseout"/>
                       </use>
               </g>
        </defs>

<script type="text/javascript">
var viewWidth = 1198;
var viewHeight = 414;
var sectionId = 'dynsection-5';
</script>
<script xlink:href="svgpan.js"/>
<svg id="graph" class="graph">
<g id="viewport">
<title>Bang_event_back</title>
<polygon fill="white" stroke="white" points="-4,5 -4,-410.161 1195,-410.161 1195,5 -4,5"/>
<!-- Node1 -->
<g id="node1" class="node"><title>Node1</title>
<polygon fill="#bfbfbf" stroke="black" points="0.5,-125.161 0.5,-149.161 95.5,-149.161 95.5,-125.161 0.5,-125.161"/>
<text text-anchor="middle" x="48" y="-136.161" font-family="Helvetica,sans-Serif" font-size="10.00">Bang_event_back</text>
</g>
<!-- Node2 -->
<g id="node3" class="node"><title>Node2</title>
<a xlink:href="banger__core__8_8cpp.html#ae4008269e0575da11cc90e812961ef6f" target="_top" xlink:title="Bang_event">
<polygon fill="white" stroke="black" points="151,-125.161 151,-149.161 219,-149.161 219,-125.161 151,-125.161"/>
<text text-anchor="middle" x="185" y="-136.161" font-family="Helvetica,sans-Serif" font-size="10.00">Bang_event</text>
</a>
</g>
<!-- Node1&#45;&gt;Node2 -->
<g id="edge2" class="edge"><title>Node1&#45;&gt;Node2</title>
<path fill="none" stroke="midnightblue" d="M105.542,-137.161C120.994,-137.161 137.21,-137.161 150.934,-137.161"/>
<polygon fill="midnightblue" stroke="midnightblue" points="105.532,-133.661 95.5315,-137.161 105.531,-140.661 105.532,-133.661"/>
</g>
<!-- Node9 -->
<g id="node18" class="node"><title>Node9</title>
<a xlink:href="i_cat14_8cpp.html#a16285241f82898e7a5f051b03d90b9a3" target="_top" xlink:title="check_button">
<polygon fill="white" stroke="black" points="429.5,-354.161 429.5,-378.161 504.5,-378.161 504.5,-354.161 429.5,-354.161"/>
<text text-anchor="middle" x="467" y="-365.161" font-family="Helvetica,sans-Serif" font-size="10.00">check_button</text>
</a>
</g>
<!-- Node1&#45;&gt;Node9 -->
<g id="edge74" class="edge"><title>Node1&#45;&gt;Node9</title>
<path fill="none" stroke="midnightblue" d="M49.8049,-159.494C54.6265,-203.231 71.8855,-300.012 132,-347.161 219.204,-415.557 361.812,-392.788 429.314,-376.58"/>
<polygon fill="midnightblue" stroke="midnightblue" points="53.269,-158.956 48.8084,-149.345 46.3025,-159.64 53.269,-158.956"/>
</g>
<!-- Node14 -->
<g id="node31" class="node"><title>Node14</title>
<a xlink:href="midi__13_8cpp.html#a6dff3d42682b58cc0a9875ee30fb4cd4" target="_top" xlink:title="do_midi_job">
<polygon fill="white" stroke="black" points="433,-132.161 433,-156.161 501,-156.161 501,-132.161 433,-132.161"/>
<text text-anchor="middle" x="467" y="-143.161" font-family="Helvetica,sans-Serif" font-size="10.00">do_midi_job</text>
</a>
</g>
<!-- Node1&#45;&gt;Node14 -->
<g id="edge76" class="edge"><title>Node1&#45;&gt;Node14</title>
<path fill="none" stroke="midnightblue" d="M59.3145,-116.129C73.0796,-92.9249 98.6692,-56.6832 132,-40.1613 228.433,7.63976 276.672,14.7887 374,-31.1613 419.033,-52.422 449.624,-107.366 461.49,-131.953"/>
<polygon fill="midnightblue" stroke="midnightblue" points="56.2299,-114.473 54.309,-124.892 62.3081,-117.945 56.2299,-114.473"/>
</g>
<!-- Node21 -->
<g id="node49" class="node"><title>Node21</title>
<a xlink:href="banger__core__8_8cpp.html#a790bd34b44c1055de586eb9f279b3b3e" target="_top" xlink:title="do_go_back_bang">
<polygon fill="white" stroke="black" points="137.5,-314.161 137.5,-338.161 232.5,-338.161 232.5,-314.161 137.5,-314.161"/>
<text text-anchor="middle" x="185" y="-325.161" font-family="Helvetica,sans-Serif" font-size="10.00">do_go_back_bang</text>
</a>
</g>
<!-- Node1&#45;&gt;Node21 -->
<g id="edge56" class="edge"><title>Node1&#45;&gt;Node21</title>
<path fill="none" stroke="midnightblue" d="M62.9842,-157.833C91.5833,-197.287 153.146,-282.217 176.117,-313.907"/>
<polygon fill="midnightblue" stroke="midnightblue" points="65.4812,-155.314 56.7784,-149.272 59.8136,-159.422 65.4812,-155.314"/>
</g>
<!-- Node24 -->
<g id="node59" class="node"><title>Node24</title>
<a xlink:href="banger__core__8_8cpp.html#af7d3486500e160cd24bc1d25fc8cfdae" target="_top" xlink:title="do_logical_feedback\l_banger">
<polygon fill="white" stroke="black" points="132.5,-49.1613 132.5,-89.1613 237.5,-89.1613 237.5,-49.1613 132.5,-49.1613"/>
<text text-anchor="start" x="140.5" y="-76.1613" font-family="Helvetica,sans-Serif" font-size="10.00">do_logical_feedback</text>
<text text-anchor="middle" x="185" y="-60.1613" font-family="Helvetica,sans-Serif" font-size="10.00">_banger</text>
</a>
</g>
<!-- Node1&#45;&gt;Node24 -->
<g id="edge70" class="edge"><title>Node1&#45;&gt;Node24</title>
<path fill="none" stroke="midnightblue" d="M81.3839,-120.591C100.476,-111.115 124.556,-99.1628 144.696,-89.1661"/>
<polygon fill="midnightblue" stroke="midnightblue" points="79.5787,-117.58 72.1775,-125.161 82.6909,-123.85 79.5787,-117.58"/>
</g>
<!-- Node3 -->
<g id="node5" class="node"><title>Node3</title>
<a xlink:href="banger__core__8_8cpp.html#a4003a08a1620546de77b118c91d2fd9d" target="_top" xlink:title="do_bang">
<polygon fill="white" stroke="black" points="601.5,-92.1613 601.5,-116.161 654.5,-116.161 654.5,-92.1613 601.5,-92.1613"/>
<text text-anchor="middle" x="628" y="-103.161" font-family="Helvetica,sans-Serif" font-size="10.00">do_bang</text>
</a>
</g>
<!-- Node2&#45;&gt;Node3 -->
<g id="edge4" class="edge"><title>Node2&#45;&gt;Node3</title>
<path fill="none" stroke="midnightblue" d="M229.045,-133.88C320.301,-127.082 527.652,-111.636 601.374,-106.145"/>
<polygon fill="midnightblue" stroke="midnightblue" points="228.738,-130.393 219.026,-134.627 229.258,-137.374 228.738,-130.393"/>
</g>
<!-- Node6 -->
<g id="node11" class="node"><title>Node6</title>
<a xlink:href="banger__core__8_8cpp.html#a4fe16ad483c0c1609d97aeb9a23c74ee" target="_top" xlink:title="do_logical_fenetre\l_banger">
<polygon fill="white" stroke="black" points="276.5,-40.1613 276.5,-80.1613 371.5,-80.1613 371.5,-40.1613 276.5,-40.1613"/>
<text text-anchor="start" x="284.5" y="-67.1613" font-family="Helvetica,sans-Serif" font-size="10.00">do_logical_fenetre</text>
<text text-anchor="middle" x="324" y="-51.1613" font-family="Helvetica,sans-Serif" font-size="10.00">_banger</text>
</a>
</g>
<!-- Node2&#45;&gt;Node6 -->
<g id="edge10" class="edge"><title>Node2&#45;&gt;Node6</title>
<path fill="none" stroke="midnightblue" d="M215.661,-120.176C236.962,-108.376 265.433,-92.605 287.842,-80.1912"/>
<polygon fill="midnightblue" stroke="midnightblue" points="213.77,-117.223 206.719,-125.13 217.162,-123.346 213.77,-117.223"/>
</g>
<!-- Node8 -->
<g id="node16" class="node"><title>Node8</title>
<a xlink:href="banger__core__8_8cpp.html#ab405ab53ea444b049e5ffa258498fcb6" target="_top" xlink:title="refresh_banger_wx">
<polygon fill="white" stroke="black" points="274.5,-195.161 274.5,-219.161 373.5,-219.161 373.5,-195.161 274.5,-195.161"/>
<text text-anchor="middle" x="324" y="-206.161" font-family="Helvetica,sans-Serif" font-size="10.00">refresh_banger_wx</text>
</a>
</g>
<!-- Node2&#45;&gt;Node8 -->
<g id="edge16" class="edge"><title>Node2&#45;&gt;Node8</title>
<path fill="none" stroke="midnightblue" d="M218.068,-153.814C243.248,-166.495 277.324,-183.655 299.952,-195.051"/>
<polygon fill="midnightblue" stroke="midnightblue" points="219.401,-150.567 208.895,-149.195 216.252,-156.819 219.401,-150.567"/>
</g>
<!-- Node2&#45;&gt;Node14 -->
<g id="edge54" class="edge"><title>Node2&#45;&gt;Node14</title>
<path fill="none" stroke="midnightblue" d="M229.05,-138.255C285.39,-139.653 381.766,-142.046 432.864,-143.314"/>
<polygon fill="midnightblue" stroke="midnightblue" points="229.1,-134.755 219.016,-138.006 228.926,-141.753 229.1,-134.755"/>
</g>
<!-- Node4 -->
<g id="node7" class="node"><title>Node4</title>
<a xlink:href="_m_a_i_n__avec__objets_8cpp.html#a8e80f54ac804eddce8ed6e45adb1db44" target="_top" xlink:title="ticker_full_loop">
<polygon fill="white" stroke="black" points="732,-236.161 732,-260.161 814,-260.161 814,-236.161 732,-236.161"/>
<text text-anchor="middle" x="773" y="-247.161" font-family="Helvetica,sans-Serif" font-size="10.00">ticker_full_loop</text>
</a>
</g>
<!-- Node3&#45;&gt;Node4 -->
<g id="edge6" class="edge"><title>Node3&#45;&gt;Node4</title>
<path fill="none" stroke="midnightblue" d="M664.376,-110.301C675.326,-113.429 686.851,-118.126 696,-125.161 716.172,-140.672 752.452,-208.287 766.86,-236.122"/>
<polygon fill="midnightblue" stroke="midnightblue" points="665.117,-106.879 654.567,-107.847 663.418,-113.669 665.117,-106.879"/>
</g>
<!-- Node5 -->
<g id="node9" class="node"><title>Node5</title>
<a xlink:href="_m_a_i_n__avec__objets_8cpp.html#ae66f6b31b5ad750f1fe042a706a4e3d4" target="_top" xlink:title="main">
<polygon fill="white" stroke="black" points="1152,-215.161 1152,-239.161 1190,-239.161 1190,-215.161 1152,-215.161"/>
<text text-anchor="middle" x="1171" y="-226.161" font-family="Helvetica,sans-Serif" font-size="10.00">main</text>
</a>
</g>
<!-- Node4&#45;&gt;Node5 -->
<g id="edge8" class="edge"><title>Node4&#45;&gt;Node5</title>
<path fill="none" stroke="midnightblue" d="M824.235,-245.458C913.305,-240.758 1092.82,-231.286 1151.77,-228.176"/>
<polygon fill="midnightblue" stroke="midnightblue" points="823.896,-241.971 814.094,-245.993 824.264,-248.961 823.896,-241.971"/>
</g>
<!-- Node7 -->
<g id="node13" class="node"><title>Node7</title>
<a xlink:href="procs__visuels__rebuild1_8cpp.html#ae710b6e599e321ad5934a90140067054" target="_top" xlink:title="check_graphics_mouse\l_handling">
<polygon fill="white" stroke="black" points="568.5,-178.161 568.5,-218.161 687.5,-218.161 687.5,-178.161 568.5,-178.161"/>
<text text-anchor="start" x="576.5" y="-205.161" font-family="Helvetica,sans-Serif" font-size="10.00">check_graphics_mouse</text>
<text text-anchor="middle" x="628" y="-189.161" font-family="Helvetica,sans-Serif" font-size="10.00">_handling</text>
</a>
</g>
<!-- Node6&#45;&gt;Node7 -->
<g id="edge12" class="edge"><title>Node6&#45;&gt;Node7</title>
<path fill="none" stroke="midnightblue" d="M381.686,-69.1693C423.883,-77.8375 481.021,-94.0652 524,-123.161 544.923,-137.326 539.984,-151.742 560,-167.161 565.242,-171.199 571.094,-174.859 577.105,-178.13"/>
<polygon fill="midnightblue" stroke="midnightblue" points="382.329,-65.7287 371.84,-67.2275 380.974,-72.5964 382.329,-65.7287"/>
</g>
<!-- Node7&#45;&gt;Node4 -->
<g id="edge14" class="edge"><title>Node7&#45;&gt;Node4</title>
<path fill="none" stroke="midnightblue" d="M695.658,-221.492C710.235,-226.518 725.074,-231.635 737.804,-236.025"/>
<polygon fill="midnightblue" stroke="midnightblue" points="696.736,-218.161 686.142,-218.21 694.454,-224.779 696.736,-218.161"/>
</g>
<!-- Node8&#45;&gt;Node9 -->
<g id="edge18" class="edge"><title>Node8&#45;&gt;Node9</title>
<path fill="none" stroke="midnightblue" d="M343.405,-226.76C352.879,-236.57 364.298,-248.758 374,-260.161 391.051,-280.202 392.831,-287.222 410,-307.161 424.498,-323.998 442.493,-342.224 454.339,-353.894"/>
<polygon fill="midnightblue" stroke="midnightblue" points="345.78,-224.182 336.294,-219.463 340.767,-229.068 345.78,-224.182"/>
</g>
<!-- Node11 -->
<g id="node23" class="node"><title>Node11</title>
<a xlink:href="keyboard__functions2_8cpp.html#af3dd6697323b10b480719c1612bcf29a" target="_top" xlink:title="key_backward">
<polygon fill="white" stroke="black" points="427,-216.161 427,-240.161 507,-240.161 507,-216.161 427,-216.161"/>
<text text-anchor="middle" x="467" y="-227.161" font-family="Helvetica,sans-Serif" font-size="10.00">key_backward</text>
</a>
</g>
<!-- Node8&#45;&gt;Node11 -->
<g id="edge24" class="edge"><title>Node8&#45;&gt;Node11</title>
<path fill="none" stroke="midnightblue" d="M383.586,-215.912C398.193,-218.057 413.482,-220.302 426.923,-222.276"/>
<polygon fill="midnightblue" stroke="midnightblue" points="384.016,-212.437 373.613,-214.447 382.998,-219.363 384.016,-212.437"/>
</g>
<!-- Node13 -->
<g id="node28" class="node"><title>Node13</title>
<a xlink:href="keyboard__functions2_8cpp.html#a6b73a3669797504ce2e357d9a8b9a2c2" target="_top" xlink:title="key_forward">
<polygon fill="white" stroke="black" points="432,-174.161 432,-198.161 502,-198.161 502,-174.161 432,-174.161"/>
<text text-anchor="middle" x="467" y="-185.161" font-family="Helvetica,sans-Serif" font-size="10.00">key_forward</text>
</a>
</g>
<!-- Node8&#45;&gt;Node13 -->
<g id="edge30" class="edge"><title>Node8&#45;&gt;Node13</title>
<path fill="none" stroke="midnightblue" d="M383.687,-198.396C400.095,-195.987 417.356,-193.452 431.885,-191.318"/>
<polygon fill="midnightblue" stroke="midnightblue" points="382.998,-194.96 373.613,-199.875 384.016,-201.885 382.998,-194.96"/>
</g>
<!-- Node8&#45;&gt;Node14 -->
<g id="edge34" class="edge"><title>Node8&#45;&gt;Node14</title>
<path fill="none" stroke="midnightblue" d="M356.025,-190.562C372.054,-182.501 391.861,-172.908 410,-165.161 417.274,-162.055 425.178,-158.966 432.719,-156.151"/>
<polygon fill="midnightblue" stroke="midnightblue" points="354.4,-187.462 347.065,-195.106 357.567,-193.705 354.4,-187.462"/>
</g>
<!-- Node20 -->
<g id="node45" class="node"><title>Node20</title>
<a xlink:href="sequentiel__6__core_8cpp.html#a2a71c851cf25565491dd10423bc80380" target="_top" xlink:title="do_logical_Sequenciel\l_Window">
<polygon fill="white" stroke="black" points="410.5,-258.161 410.5,-298.161 523.5,-298.161 523.5,-258.161 410.5,-258.161"/>
<text text-anchor="start" x="418.5" y="-285.161" font-family="Helvetica,sans-Serif" font-size="10.00">do_logical_Sequenciel</text>
<text text-anchor="middle" x="467" y="-269.161" font-family="Helvetica,sans-Serif" font-size="10.00">_Window</text>
</a>
</g>
<!-- Node8&#45;&gt;Node20 -->
<g id="edge50" class="edge"><title>Node8&#45;&gt;Node20</title>
<path fill="none" stroke="midnightblue" d="M357.302,-223.696C377.997,-233.971 404.735,-247.247 426.633,-258.119"/>
<polygon fill="midnightblue" stroke="midnightblue" points="358.771,-220.518 348.258,-219.206 355.658,-226.788 358.771,-220.518"/>
</g>
<!-- Node10 -->
<g id="node20" class="node"><title>Node10</title>
<a xlink:href="i_cat14_8cpp.html#aa9772b548765a631d4bae1c14053b4e1" target="_top" xlink:title="DoJobFantastickTouch">
<polygon fill="white" stroke="black" points="569.5,-318.161 569.5,-342.161 686.5,-342.161 686.5,-318.161 569.5,-318.161"/>
<text text-anchor="middle" x="628" y="-329.161" font-family="Helvetica,sans-Serif" font-size="10.00">DoJobFantastickTouch</text>
</a>
</g>
<!-- Node9&#45;&gt;Node10 -->
<g id="edge20" class="edge"><title>Node9&#45;&gt;Node10</title>
<path fill="none" stroke="midnightblue" d="M514.515,-355.537C533.202,-351.358 554.756,-346.539 574.027,-342.23"/>
<polygon fill="midnightblue" stroke="midnightblue" points="513.743,-352.123 504.747,-357.721 515.27,-358.954 513.743,-352.123"/>
</g>
<!-- Node10&#45;&gt;Node4 -->
<g id="edge22" class="edge"><title>Node10&#45;&gt;Node4</title>
<path fill="none" stroke="midnightblue" d="M658.32,-313.015C686.203,-297.246 726.849,-274.261 751.517,-260.31"/>
<polygon fill="midnightblue" stroke="midnightblue" points="656.377,-310.093 649.395,-318.062 659.823,-316.186 656.377,-310.093"/>
</g>
<!-- Node12 -->
<g id="node25" class="node"><title>Node12</title>
<a xlink:href="keyboard__routines2_8cpp.html#a8563320b8eab661232619224650de244" target="_top" xlink:title="commandes_clavier">
<polygon fill="white" stroke="black" points="576,-236.161 576,-260.161 680,-260.161 680,-236.161 576,-236.161"/>
<text text-anchor="middle" x="628" y="-247.161" font-family="Helvetica,sans-Serif" font-size="10.00">commandes_clavier</text>
</a>
</g>
<!-- Node11&#45;&gt;Node12 -->
<g id="edge26" class="edge"><title>Node11&#45;&gt;Node12</title>
<path fill="none" stroke="midnightblue" d="M517.27,-234.406C535.898,-236.72 557.053,-239.348 575.845,-241.682"/>
<polygon fill="midnightblue" stroke="midnightblue" points="517.567,-230.916 507.212,-233.157 516.704,-237.863 517.567,-230.916"/>
</g>
<!-- Node12&#45;&gt;Node4 -->
<g id="edge28" class="edge"><title>Node12&#45;&gt;Node4</title>
<path fill="none" stroke="midnightblue" d="M690.386,-248.161C704.335,-248.161 718.795,-248.161 731.643,-248.161"/>
<polygon fill="midnightblue" stroke="midnightblue" points="690.348,-244.661 680.348,-248.161 690.348,-251.661 690.348,-244.661"/>
</g>
<!-- Node13&#45;&gt;Node12 -->
<g id="edge32" class="edge"><title>Node13&#45;&gt;Node12</title>
<path fill="none" stroke="midnightblue" d="M511.399,-201.755C515.694,-203.491 519.954,-205.306 524,-207.161 540.637,-214.792 543.165,-219.978 560,-227.161 567.728,-230.459 576.148,-233.486 584.348,-236.154"/>
<polygon fill="midnightblue" stroke="midnightblue" points="512.599,-198.466 502.011,-198.092 510.055,-204.988 512.599,-198.466"/>
</g>
<!-- Node15 -->
<g id="node33" class="node"><title>Node15</title>
<a xlink:href="midi__13_8cpp.html#a6bedf9750195224914cd87c4e73ab626" target="_top" xlink:title="ventilate_midi_to_midiarray">
<polygon fill="white" stroke="black" points="560.5,-134.161 560.5,-158.161 695.5,-158.161 695.5,-134.161 560.5,-134.161"/>
<text text-anchor="middle" x="628" y="-145.161" font-family="Helvetica,sans-Serif" font-size="10.00">ventilate_midi_to_midiarray</text>
</a>
</g>
<!-- Node14&#45;&gt;Node15 -->
<g id="edge36" class="edge"><title>Node14&#45;&gt;Node15</title>
<path fill="none" stroke="midnightblue" d="M511.272,-144.711C526.455,-144.9 543.811,-145.116 560.414,-145.322"/>
<polygon fill="midnightblue" stroke="midnightblue" points="511.187,-141.21 501.144,-144.585 511.1,-148.21 511.187,-141.21"/>
</g>
<!-- Node16 -->
<g id="node35" class="node"><title>Node16</title>
<a xlink:href="midi__13_8cpp.html#afa49dd5668303c2448676c8243737c2d" target="_top" xlink:title="simulate_midi">
<polygon fill="white" stroke="black" points="734.5,-134.161 734.5,-158.161 811.5,-158.161 811.5,-134.161 734.5,-134.161"/>
<text text-anchor="middle" x="773" y="-145.161" font-family="Helvetica,sans-Serif" font-size="10.00">simulate_midi</text>
</a>
</g>
<!-- Node15&#45;&gt;Node16 -->
<g id="edge38" class="edge"><title>Node15&#45;&gt;Node16</title>
<path fill="none" stroke="midnightblue" d="M706.103,-146.161C715.941,-146.161 725.642,-146.161 734.473,-146.161"/>
<polygon fill="midnightblue" stroke="midnightblue" points="705.83,-142.661 695.83,-146.161 705.83,-149.661 705.83,-142.661"/>
</g>
<!-- Node17 -->
<g id="node37" class="node"><title>Node17</title>
<a xlink:href="arduino__core__6___u_n_o_8cpp.html#ae72d1a8d74d9ab5515962e03e7e664d6" target="_top" xlink:title="arduino_do_analog_in\l_whitecat">
<polygon fill="white" stroke="black" points="850,-125.161 850,-165.161 960,-165.161 960,-125.161 850,-125.161"/>
<text text-anchor="start" x="858" y="-152.161" font-family="Helvetica,sans-Serif" font-size="10.00">arduino_do_analog_in</text>
<text text-anchor="middle" x="905" y="-136.161" font-family="Helvetica,sans-Serif" font-size="10.00">_whitecat</text>
</a>
</g>
<!-- Node16&#45;&gt;Node17 -->
<g id="edge40" class="edge"><title>Node16&#45;&gt;Node17</title>
<path fill="none" stroke="midnightblue" d="M821.687,-145.792C830.899,-145.723 840.596,-145.649 849.986,-145.578"/>
<polygon fill="midnightblue" stroke="midnightblue" points="821.508,-142.294 811.535,-145.869 821.561,-149.293 821.508,-142.294"/>
</g>
<!-- Node19 -->
<g id="node42" class="node"><title>Node19</title>
<a xlink:href="arduino__core__6___u_n_o_8cpp.html#a219226c1cd6cc17c78e62fd4445bb445" target="_top" xlink:title="arduino_do_digital\l_in_whitecat">
<polygon fill="white" stroke="black" points="857.5,-183.161 857.5,-223.161 952.5,-223.161 952.5,-183.161 857.5,-183.161"/>
<text text-anchor="start" x="865.5" y="-210.161" font-family="Helvetica,sans-Serif" font-size="10.00">arduino_do_digital</text>
<text text-anchor="middle" x="905" y="-194.161" font-family="Helvetica,sans-Serif" font-size="10.00">_in_whitecat</text>
</a>
</g>
<!-- Node16&#45;&gt;Node19 -->
<g id="edge46" class="edge"><title>Node16&#45;&gt;Node19</title>
<path fill="none" stroke="midnightblue" d="M810.445,-162.331C825.426,-168.8 842.837,-176.318 858.607,-183.128"/>
<polygon fill="midnightblue" stroke="midnightblue" points="811.562,-159.001 800.994,-158.25 808.787,-165.427 811.562,-159.001"/>
</g>
<!-- Node18 -->
<g id="node39" class="node"><title>Node18</title>
<a xlink:href="_m_a_i_n__avec__objets_8cpp.html#ace9c8a9b37c6087c3cffef442d71d70e" target="_top" xlink:title="dixiemes_de_secondes">
<polygon fill="white" stroke="black" points="996.5,-191.161 996.5,-215.161 1115.5,-215.161 1115.5,-191.161 996.5,-191.161"/>
<text text-anchor="middle" x="1056" y="-202.161" font-family="Helvetica,sans-Serif" font-size="10.00">dixiemes_de_secondes</text>
</a>
</g>
<!-- Node17&#45;&gt;Node18 -->
<g id="edge42" class="edge"><title>Node17&#45;&gt;Node18</title>
<path fill="none" stroke="midnightblue" d="M966.956,-168.959C986.704,-176.544 1007.73,-184.621 1024.39,-191.02"/>
<polygon fill="midnightblue" stroke="midnightblue" points="967.979,-165.603 957.389,-165.284 965.469,-172.137 967.979,-165.603"/>
</g>
<!-- Node18&#45;&gt;Node5 -->
<g id="edge44" class="edge"><title>Node18&#45;&gt;Node5</title>
<path fill="none" stroke="midnightblue" d="M1123.78,-217.308C1134.06,-219.453 1143.89,-221.503 1151.89,-223.172"/>
<polygon fill="midnightblue" stroke="midnightblue" points="1124.34,-213.848 1113.84,-215.232 1122.91,-220.701 1124.34,-213.848"/>
</g>
<!-- Node19&#45;&gt;Node18 -->
<g id="edge48" class="edge"><title>Node19&#45;&gt;Node18</title>
<path fill="none" stroke="midnightblue" d="M963.043,-203.161C973.948,-203.161 985.367,-203.161 996.321,-203.161"/>
<polygon fill="midnightblue" stroke="midnightblue" points="962.777,-199.661 952.777,-203.161 962.777,-206.661 962.777,-199.661"/>
</g>
<!-- Node20&#45;&gt;Node7 -->
<g id="edge52" class="edge"><title>Node20&#45;&gt;Node7</title>
<path fill="none" stroke="midnightblue" d="M516.32,-253.372C518.928,-251.967 521.501,-250.558 524,-249.161 540.369,-240.014 543.332,-235.751 560,-227.161 565.932,-224.104 572.261,-221.092 578.579,-218.234"/>
<polygon fill="midnightblue" stroke="midnightblue" points="514.575,-250.336 507.379,-258.111 517.854,-256.521 514.575,-250.336"/>
</g>
<!-- Node21&#45;&gt;Node9 -->
<g id="edge60" class="edge"><title>Node21&#45;&gt;Node9</title>
<path fill="none" stroke="midnightblue" d="M240.836,-340.538C251.779,-343.015 263.209,-345.365 274,-347.161 327.637,-356.088 390.41,-361.314 429.446,-363.955"/>
<polygon fill="midnightblue" stroke="midnightblue" points="241.488,-337.097 230.956,-338.241 239.903,-343.915 241.488,-337.097"/>
</g>
<!-- Node21&#45;&gt;Node19 -->
<g id="edge58" class="edge"><title>Node21&#45;&gt;Node19</title>
<path fill="none" stroke="midnightblue" d="M216.734,-342.969C233.405,-351.231 254.398,-360.762 274,-367.161 357.191,-394.319 379.488,-406.161 467,-406.161 467,-406.161 467,-406.161 628,-406.161 750.821,-406.161 855.34,-274.714 891.483,-223.368"/>
<polygon fill="midnightblue" stroke="midnightblue" points="217.965,-339.669 207.461,-338.284 214.808,-345.917 217.965,-339.669"/>
</g>
<!-- Node22 -->
<g id="node53" class="node"><title>Node22</title>
<a xlink:href="keyboard__functions2_8cpp.html#a1069ef07040abfea667ec14eeefe7e56" target="_top" xlink:title="key_go">
<polygon fill="white" stroke="black" points="300,-314.161 300,-338.161 348,-338.161 348,-314.161 300,-314.161"/>
<text text-anchor="middle" x="324" y="-325.161" font-family="Helvetica,sans-Serif" font-size="10.00">key_go</text>
</a>
</g>
<!-- Node21&#45;&gt;Node22 -->
<g id="edge62" class="edge"><title>Node21&#45;&gt;Node22</title>
<path fill="none" stroke="midnightblue" d="M243.096,-326.161C263.01,-326.161 284.207,-326.161 299.907,-326.161"/>
<polygon fill="midnightblue" stroke="midnightblue" points="242.836,-322.661 232.836,-326.161 242.836,-329.661 242.836,-322.661"/>
</g>
<!-- Node23 -->
<g id="node56" class="node"><title>Node23</title>
<a xlink:href="sequentiel__6__core_8cpp.html#a152c03ccf49d8d9a457e048daaa48023" target="_top" xlink:title="do_logical_x1_x2">
<polygon fill="white" stroke="black" points="278,-269.161 278,-293.161 370,-293.161 370,-269.161 278,-269.161"/>
<text text-anchor="middle" x="324" y="-280.161" font-family="Helvetica,sans-Serif" font-size="10.00">do_logical_x1_x2</text>
</a>
</g>
<!-- Node21&#45;&gt;Node23 -->
<g id="edge66" class="edge"><title>Node21&#45;&gt;Node23</title>
<path fill="none" stroke="midnightblue" d="M231.897,-310.979C249.737,-305.203 269.807,-298.706 286.648,-293.254"/>
<polygon fill="midnightblue" stroke="midnightblue" points="230.685,-307.692 222.249,-314.102 232.841,-314.352 230.685,-307.692"/>
</g>
<!-- Node22&#45;&gt;Node12 -->
<g id="edge64" class="edge"><title>Node22&#45;&gt;Node12</title>
<path fill="none" stroke="midnightblue" d="M358.185,-327.21C398.705,-327.484 467.814,-324.873 524,-307.161 557.459,-296.614 592.066,-274.28 611.723,-260.318"/>
<polygon fill="midnightblue" stroke="midnightblue" points="358.083,-323.709 348.037,-327.077 357.99,-330.708 358.083,-323.709"/>
</g>
<!-- Node23&#45;&gt;Node20 -->
<g id="edge68" class="edge"><title>Node23&#45;&gt;Node20</title>
<path fill="none" stroke="midnightblue" d="M380.164,-279.983C390.061,-279.775 400.37,-279.559 410.282,-279.351"/>
<polygon fill="midnightblue" stroke="midnightblue" points="379.958,-276.487 370.033,-280.196 380.104,-283.485 379.958,-276.487"/>
</g>
<!-- Node24&#45;&gt;Node6 -->
<g id="edge72" class="edge"><title>Node24&#45;&gt;Node6</title>
<path fill="none" stroke="midnightblue" d="M247.55,-65.1113C257.241,-64.4839 267.113,-63.8446 276.404,-63.2431"/>
<polygon fill="midnightblue" stroke="midnightblue" points="247.303,-61.6199 237.55,-65.7588 247.755,-68.6053 247.303,-61.6199"/>
</g>
</g>
</svg>
        <g id="navigator" transform="translate(0 0)" fill="#404254">
                <rect fill="#f2f5e9" fill-opacity="0.5" stroke="#606060" stroke-width=".5" x="0" y="0" width="60" height="60"/>
                <use id="zoomplus" xlink:href="#zoomPlus" x="17" y="9" onmousedown="handleZoom(evt,'in')"/>
                <use id="zoomminus" xlink:href="#zoomMin" x="42" y="9" onmousedown="handleZoom(evt,'out')"/>
                <use id="reset" xlink:href="#resetDef" x="30" y="36" onmousedown="handleReset()"/>
                <g id="arrowUp" xlink:href="#dirArrow" transform="translate(30 24)" onmousedown="handlePan(0,-1)">
                  <use xlink:href="#rim" fill="#404040">
                        <set attributeName="fill" to="#808080" begin="arrowUp.mouseover" end="arrowUp.mouseout"/>
                  </use>
                  <path fill="none" stroke="white" stroke-width="1.5" d="M0,-3.0v7 M-2.5,-0.5L0,-3.0L2.5,-0.5"/>
                </g>
                <g id="arrowRight" xlink:href="#dirArrow" transform="rotate(90) translate(36 -43)" onmousedown="handlePan(1,0)">
                  <use xlink:href="#rim" fill="#404040">
                        <set attributeName="fill" to="#808080" begin="arrowRight.mouseover" end="arrowRight.mouseout"/>
                  </use>
                  <path fill="none" stroke="white" stroke-width="1.5" d="M0,-3.0v7 M-2.5,-0.5L0,-3.0L2.5,-0.5"/>
                </g>
                <g id="arrowDown" xlink:href="#dirArrow" transform="rotate(180) translate(-30 -48)" onmousedown="handlePan(0,1)">
                  <use xlink:href="#rim" fill="#404040">
                        <set attributeName="fill" to="#808080" begin="arrowDown.mouseover" end="arrowDown.mouseout"/>
                  </use>
                  <path fill="none" stroke="white" stroke-width="1.5" d="M0,-3.0v7 M-2.5,-0.5L0,-3.0L2.5,-0.5"/>
                </g>
                <g id="arrowLeft" xlink:href="#dirArrow" transform="rotate(270) translate(-36 17)" onmousedown="handlePan(-1,0)">
                  <use xlink:href="#rim" fill="#404040">
                        <set attributeName="fill" to="#808080" begin="arrowLeft.mouseover" end="arrowLeft.mouseout"/>
                  </use>
                  <path fill="none" stroke="white" stroke-width="1.5" d="M0,-3.0v7 M-2.5,-0.5L0,-3.0L2.5,-0.5"/>
                </g>
        </g>
        <svg viewBox="0 0 15 15" width="100%" height="30px" preserveAspectRatio="xMaxYMin meet">
         <g id="arrow_out" transform="scale(0.3 0.3)">
          <a xlink:href="banger__core__8_8cpp_a29583c84f980616502ac7c4f99e1bc29_icgraph_org.svg" target="_base">
           <rect id="button" ry="5" rx="5" y="6" x="6" height="38" width="38"
                fill="#f2f5e9" fill-opacity="0.5" stroke="#606060" stroke-width="1.0"/>
           <path id="arrow"
             d="M 11.500037,31.436501 C 11.940474,20.09759 22.043105,11.32322 32.158766,21.979434 L 37.068811,17.246167 C 37.068811,17.246167 37.088388,32 37.088388,32 L 22.160133,31.978069 C 22.160133,31.978069 26.997745,27.140456 26.997745,27.140456 C 18.528582,18.264221 13.291696,25.230495 11.500037,31.436501 z"
             style="fill:#404040;"/>
          </a>
         </g>
        </svg>
</svg>
