<?xml version="1.0" encoding="UTF-8" standalone="no"?>
<!DOCTYPE svg PUBLIC "-//W3C//DTD SVG 1.1//EN"
 "http://www.w3.org/Graphics/SVG/1.1/DTD/svg11.dtd">
<!-- Generated by graphviz version 2.26.3 (20100126.1600)
 -->
<!-- Title: fenetre_banger Pages: 1 -->
<svg width="406pt" height="32pt"
 viewBox="0.00 0.00 406.00 32.00" xmlns="http://www.w3.org/2000/svg" xmlns:xlink="http://www.w3.org/1999/xlink">
<g id="graph1" class="graph" transform="scale(1 1) rotate(0) translate(4 28)">
<title>fenetre_banger</title>
<polygon fill="white" stroke="white" points="-4,5 -4,-28 403,-28 403,5 -4,5"/>
<!-- Node1 -->
<g id="node1" class="node"><title>Node1</title>
<polygon fill="#bfbfbf" stroke="black" points="0.5,-0 0.5,-24 81.5,-24 81.5,-0 0.5,-0"/>
<text text-anchor="middle" x="41" y="-11" font-family="Helvetica,sans-Serif" font-size="10.00">fenetre_banger</text>
</g>
<!-- Node2 -->
<g id="node3" class="node"><title>Node2</title>
<a xlink:href="graphics__rebuild1_8cpp.html#ac2eae1e03fb72cc734ffbcef566483bf" target="_top" xlink:title="Boxes">
<polygon fill="white" stroke="black" points="118,-0 118,-24 162,-24 162,-0 118,-0"/>
<text text-anchor="middle" x="140" y="-11" font-family="Helvetica,sans-Serif" font-size="10.00">Boxes</text>
</a>
</g>
<!-- Node1&#45;&gt;Node2 -->
<g id="edge2" class="edge"><title>Node1&#45;&gt;Node2</title>
<path fill="none" stroke="midnightblue" d="M91.8223,-12C100.954,-12 110.026,-12 117.794,-12"/>
<polygon fill="midnightblue" stroke="midnightblue" points="91.5528,-8.5001 81.5527,-12 91.5527,-15.5001 91.5528,-8.5001"/>
</g>
<!-- Node3 -->
<g id="node5" class="node"><title>Node3</title>
<a xlink:href="_m_a_i_n__avec__objets_8cpp.html#ade8d4ba65d55c94f8ee277829d722155" target="_top" xlink:title="main_actions_on_screen">
<polygon fill="white" stroke="black" points="198.5,-0 198.5,-24 323.5,-24 323.5,-0 198.5,-0"/>
<text text-anchor="middle" x="261" y="-11" font-family="Helvetica,sans-Serif" font-size="10.00">main_actions_on_screen</text>
</a>
</g>
<!-- Node2&#45;&gt;Node3 -->
<g id="edge4" class="edge"><title>Node2&#45;&gt;Node3</title>
<path fill="none" stroke="midnightblue" d="M172.244,-12C180.32,-12 189.263,-12 198.271,-12"/>
<polygon fill="midnightblue" stroke="midnightblue" points="172.193,-8.5001 162.193,-12 172.193,-15.5001 172.193,-8.5001"/>
</g>
<!-- Node4 -->
<g id="node7" class="node"><title>Node4</title>
<a xlink:href="_m_a_i_n__avec__objets_8cpp.html#ae66f6b31b5ad750f1fe042a706a4e3d4" target="_top" xlink:title="main">
<polygon fill="white" stroke="black" points="360,-0 360,-24 398,-24 398,-0 360,-0"/>
<text text-anchor="middle" x="379" y="-11" font-family="Helvetica,sans-Serif" font-size="10.00">main</text>
</a>
</g>
<!-- Node3&#45;&gt;Node4 -->
<g id="edge6" class="edge"><title>Node3&#45;&gt;Node4</title>
<path fill="none" stroke="midnightblue" d="M333.837,-12C343.336,-12 352.327,-12 359.749,-12"/>
<polygon fill="midnightblue" stroke="midnightblue" points="333.8,-8.5001 323.8,-12 333.8,-15.5001 333.8,-8.5001"/>
</g>
</g>
</svg>
