<?xml version="1.0" encoding="UTF-8" standalone="no"?>
<!DOCTYPE svg PUBLIC "-//W3C//DTD SVG 1.1//EN"
 "http://www.w3.org/Graphics/SVG/1.1/DTD/svg11.dtd">
<!-- Generated by graphviz version 2.26.3 (20100126.1600)
 -->
<!-- Title: Bang_event_back Pages: 1 -->
<svg width="2078pt" height="429pt"
 viewBox="0.00 0.00 2078.00 429.00" xmlns="http://www.w3.org/2000/svg" xmlns:xlink="http://www.w3.org/1999/xlink">
<g id="graph1" class="graph" transform="scale(1 1) rotate(0) translate(4 425)">
<title>Bang_event_back</title>
<polygon fill="white" stroke="white" points="-4,5 -4,-425 2075,-425 2075,5 -4,5"/>
<!-- Node1 -->
<g id="node1" class="node"><title>Node1</title>
<polygon fill="#bfbfbf" stroke="black" points="0.5,-162 0.5,-186 95.5,-186 95.5,-162 0.5,-162"/>
<text text-anchor="middle" x="48" y="-173" font-family="Helvetica,sans-Serif" font-size="10.00">Bang_event_back</text>
</g>
<!-- Node2 -->
<g id="node3" class="node"><title>Node2</title>
<a xlink:href="banger__core__8_8cpp.html#ae4008269e0575da11cc90e812961ef6f" target="_top" xlink:title="Bang_event">
<polygon fill="white" stroke="black" points="151,-240 151,-264 219,-264 219,-240 151,-240"/>
<text text-anchor="middle" x="185" y="-251" font-family="Helvetica,sans-Serif" font-size="10.00">Bang_event</text>
</a>
</g>
<!-- Node1&#45;&gt;Node2 -->
<g id="edge2" class="edge"><title>Node1&#45;&gt;Node2</title>
<path fill="none" stroke="midnightblue" d="M78.1085,-191.142C103.994,-205.88 140.682,-226.768 163.644,-239.841"/>
<polygon fill="midnightblue" stroke="midnightblue" points="79.528,-187.923 69.106,-186.017 76.0645,-194.006 79.528,-187.923"/>
</g>
<!-- Node9 -->
<g id="node18" class="node"><title>Node9</title>
<a xlink:href="i_cat14_8cpp.html#a16285241f82898e7a5f051b03d90b9a3" target="_top" xlink:title="check_button">
<polygon fill="white" stroke="black" points="429.5,-82 429.5,-106 504.5,-106 504.5,-82 429.5,-82"/>
<text text-anchor="middle" x="467" y="-93" font-family="Helvetica,sans-Serif" font-size="10.00">check_button</text>
</a>
</g>
<!-- Node1&#45;&gt;Node9 -->
<g id="edge106" class="edge"><title>Node1&#45;&gt;Node9</title>
<path fill="none" stroke="midnightblue" d="M68.037,-154.852C84.0291,-140.782 107.709,-122.523 132,-113 233.554,-73.1875 365.775,-81.4511 429.467,-88.7609"/>
<polygon fill="midnightblue" stroke="midnightblue" points="65.4737,-152.451 60.4124,-161.759 70.1734,-157.639 65.4737,-152.451"/>
</g>
<!-- Node14 -->
<g id="node31" class="node"><title>Node14</title>
<a xlink:href="midi__13_8cpp.html#a6dff3d42682b58cc0a9875ee30fb4cd4" target="_top" xlink:title="do_midi_job">
<polygon fill="white" stroke="black" points="433,-162 433,-186 501,-186 501,-162 433,-162"/>
<text text-anchor="middle" x="467" y="-173" font-family="Helvetica,sans-Serif" font-size="10.00">do_midi_job</text>
</a>
</g>
<!-- Node1&#45;&gt;Node14 -->
<g id="edge108" class="edge"><title>Node1&#45;&gt;Node14</title>
<path fill="none" stroke="midnightblue" d="M105.812,-174C194.493,-174 361.341,-174 432.946,-174"/>
<polygon fill="midnightblue" stroke="midnightblue" points="105.657,-170.5 95.6567,-174 105.657,-177.5 105.657,-170.5"/>
</g>
<!-- Node33 -->
<g id="node77" class="node"><title>Node33</title>
<a xlink:href="banger__core__8_8cpp.html#a790bd34b44c1055de586eb9f279b3b3e" target="_top" xlink:title="do_go_back_bang">
<polygon fill="white" stroke="black" points="137.5,-122 137.5,-146 232.5,-146 232.5,-122 137.5,-122"/>
<text text-anchor="middle" x="185" y="-133" font-family="Helvetica,sans-Serif" font-size="10.00">do_go_back_bang</text>
</a>
</g>
<!-- Node1&#45;&gt;Node33 -->
<g id="edge88" class="edge"><title>Node1&#45;&gt;Node33</title>
<path fill="none" stroke="midnightblue" d="M99.0238,-159.103C113.667,-154.827 129.452,-150.218 143.451,-146.131"/>
<polygon fill="midnightblue" stroke="midnightblue" points="97.7228,-155.836 89.1045,-161.999 99.6847,-162.556 97.7228,-155.836"/>
</g>
<!-- Node36 -->
<g id="node87" class="node"><title>Node36</title>
<a xlink:href="banger__core__8_8cpp.html#af7d3486500e160cd24bc1d25fc8cfdae" target="_top" xlink:title="do_logical_feedback\l_banger">
<polygon fill="white" stroke="black" points="132.5,-331 132.5,-371 237.5,-371 237.5,-331 132.5,-331"/>
<text text-anchor="start" x="140.5" y="-358" font-family="Helvetica,sans-Serif" font-size="10.00">do_logical_feedback</text>
<text text-anchor="middle" x="185" y="-342" font-family="Helvetica,sans-Serif" font-size="10.00">_banger</text>
</a>
</g>
<!-- Node1&#45;&gt;Node36 -->
<g id="edge102" class="edge"><title>Node1&#45;&gt;Node36</title>
<path fill="none" stroke="midnightblue" d="M63.8374,-194.462C90.2883,-228.635 143.138,-296.915 169.418,-330.868"/>
<polygon fill="midnightblue" stroke="midnightblue" points="66.3052,-191.932 57.4166,-186.166 60.7696,-196.216 66.3052,-191.932"/>
</g>
<!-- Node3 -->
<g id="node5" class="node"><title>Node3</title>
<a xlink:href="banger__core__8_8cpp.html#a4003a08a1620546de77b118c91d2fd9d" target="_top" xlink:title="do_bang">
<polygon fill="white" stroke="black" points="601.5,-344 601.5,-368 654.5,-368 654.5,-344 601.5,-344"/>
<text text-anchor="middle" x="628" y="-355" font-family="Helvetica,sans-Serif" font-size="10.00">do_bang</text>
</a>
</g>
<!-- Node2&#45;&gt;Node3 -->
<g id="edge4" class="edge"><title>Node2&#45;&gt;Node3</title>
<path fill="none" stroke="midnightblue" d="M203.401,-271.637C220.115,-288.101 246.323,-310.683 274,-322 388.582,-368.853 540.828,-363.171 601.456,-358.505"/>
<polygon fill="midnightblue" stroke="midnightblue" points="205.507,-268.787 195.994,-264.122 200.521,-273.701 205.507,-268.787"/>
</g>
<!-- Node6 -->
<g id="node11" class="node"><title>Node6</title>
<a xlink:href="banger__core__8_8cpp.html#a4fe16ad483c0c1609d97aeb9a23c74ee" target="_top" xlink:title="do_logical_fenetre\l_banger">
<polygon fill="white" stroke="black" points="276.5,-381 276.5,-421 371.5,-421 371.5,-381 276.5,-381"/>
<text text-anchor="start" x="284.5" y="-408" font-family="Helvetica,sans-Serif" font-size="10.00">do_logical_fenetre</text>
<text text-anchor="middle" x="324" y="-392" font-family="Helvetica,sans-Serif" font-size="10.00">_banger</text>
</a>
</g>
<!-- Node2&#45;&gt;Node6 -->
<g id="edge10" class="edge"><title>Node2&#45;&gt;Node6</title>
<path fill="none" stroke="midnightblue" d="M200.54,-272.42C224.895,-304.375 269.734,-362.989 274,-367 279.2,-371.89 285.166,-376.581 291.123,-380.834"/>
<polygon fill="midnightblue" stroke="midnightblue" points="203.108,-270.016 194.265,-264.182 197.54,-274.258 203.108,-270.016"/>
</g>
<!-- Node8 -->
<g id="node16" class="node"><title>Node8</title>
<a xlink:href="banger__core__8_8cpp.html#ab405ab53ea444b049e5ffa258498fcb6" target="_top" xlink:title="refresh_banger_wx">
<polygon fill="white" stroke="black" points="274.5,-240 274.5,-264 373.5,-264 373.5,-240 274.5,-240"/>
<text text-anchor="middle" x="324" y="-251" font-family="Helvetica,sans-Serif" font-size="10.00">refresh_banger_wx</text>
</a>
</g>
<!-- Node2&#45;&gt;Node8 -->
<g id="edge16" class="edge"><title>Node2&#45;&gt;Node8</title>
<path fill="none" stroke="midnightblue" d="M229.133,-252C243.512,-252 259.569,-252 274.325,-252"/>
<polygon fill="midnightblue" stroke="midnightblue" points="229.003,-248.5 219.003,-252 229.003,-255.5 229.003,-248.5"/>
</g>
<!-- Node2&#45;&gt;Node14 -->
<g id="edge86" class="edge"><title>Node2&#45;&gt;Node14</title>
<path fill="none" stroke="midnightblue" d="M228.7,-239.913C284.99,-224.343 381.66,-197.605 432.864,-183.442"/>
<polygon fill="midnightblue" stroke="midnightblue" points="227.721,-236.552 219.016,-242.591 229.587,-243.299 227.721,-236.552"/>
</g>
<!-- Node4 -->
<g id="node7" class="node"><title>Node4</title>
<a xlink:href="_m_a_i_n__avec__objets_8cpp.html#a8e80f54ac804eddce8ed6e45adb1db44" target="_top" xlink:title="ticker_full_loop">
<polygon fill="white" stroke="black" points="732,-204 732,-228 814,-228 814,-204 732,-204"/>
<text text-anchor="middle" x="773" y="-215" font-family="Helvetica,sans-Serif" font-size="10.00">ticker_full_loop</text>
</a>
</g>
<!-- Node3&#45;&gt;Node4 -->
<g id="edge6" class="edge"><title>Node3&#45;&gt;Node4</title>
<path fill="none" stroke="midnightblue" d="M664.312,-349.777C675.259,-346.645 686.799,-341.966 696,-335 734.257,-306.036 758.909,-252.151 768.484,-228.116"/>
<polygon fill="midnightblue" stroke="midnightblue" points="663.356,-346.409 654.51,-352.241 665.062,-353.198 663.356,-346.409"/>
</g>
<!-- Node5 -->
<g id="node9" class="node"><title>Node5</title>
<a xlink:href="_m_a_i_n__avec__objets_8cpp.html#ae66f6b31b5ad750f1fe042a706a4e3d4" target="_top" xlink:title="main">
<polygon fill="white" stroke="black" points="2032,-109 2032,-133 2070,-133 2070,-109 2032,-109"/>
<text text-anchor="middle" x="2051" y="-120" font-family="Helvetica,sans-Serif" font-size="10.00">main</text>
</a>
</g>
<!-- Node4&#45;&gt;Node5 -->
<g id="edge8" class="edge"><title>Node4&#45;&gt;Node5</title>
<path fill="none" stroke="midnightblue" d="M824.202,-206.991C880.746,-197.838 974.573,-185 1056,-185 1056,-185 1056,-185 1812,-185 1895.5,-185 1916.8,-173.475 1996,-147 2008.32,-142.881 2021.5,-136.718 2031.87,-131.426"/>
<polygon fill="midnightblue" stroke="midnightblue" points="823.389,-203.578 814.089,-208.653 824.524,-210.485 823.389,-203.578"/>
</g>
<!-- Node7 -->
<g id="node13" class="node"><title>Node7</title>
<a xlink:href="procs__visuels__rebuild1_8cpp.html#ae710b6e599e321ad5934a90140067054" target="_top" xlink:title="check_graphics_mouse\l_handling">
<polygon fill="white" stroke="black" points="568.5,-286 568.5,-326 687.5,-326 687.5,-286 568.5,-286"/>
<text text-anchor="start" x="576.5" y="-313" font-family="Helvetica,sans-Serif" font-size="10.00">check_graphics_mouse</text>
<text text-anchor="middle" x="628" y="-297" font-family="Helvetica,sans-Serif" font-size="10.00">_handling</text>
</a>
</g>
<!-- Node6&#45;&gt;Node7 -->
<g id="edge12" class="edge"><title>Node6&#45;&gt;Node7</title>
<path fill="none" stroke="midnightblue" d="M381.506,-383.029C434.98,-366.319 514.315,-341.526 568.439,-324.613"/>
<polygon fill="midnightblue" stroke="midnightblue" points="380.335,-379.728 371.834,-386.052 382.423,-386.41 380.335,-379.728"/>
</g>
<!-- Node7&#45;&gt;Node4 -->
<g id="edge14" class="edge"><title>Node7&#45;&gt;Node4</title>
<path fill="none" stroke="midnightblue" d="M669.224,-280.413C696.864,-263.257 732.006,-241.445 753.483,-228.114"/>
<polygon fill="midnightblue" stroke="midnightblue" points="667.191,-277.555 660.541,-285.802 670.883,-283.502 667.191,-277.555"/>
</g>
<!-- Node8&#45;&gt;Node9 -->
<g id="edge18" class="edge"><title>Node8&#45;&gt;Node9</title>
<path fill="none" stroke="midnightblue" d="M340.789,-232.054C357.907,-211.866 385.373,-179.879 410,-153 425.202,-136.408 443.351,-117.822 455.019,-106.024"/>
<polygon fill="midnightblue" stroke="midnightblue" points="337.91,-230.039 334.125,-239.935 343.255,-234.559 337.91,-230.039"/>
</g>
<!-- Node11 -->
<g id="node23" class="node"><title>Node11</title>
<a xlink:href="keyboard__functions2_8cpp.html#af3dd6697323b10b480719c1612bcf29a" target="_top" xlink:title="key_backward">
<polygon fill="white" stroke="black" points="427,-204 427,-228 507,-228 507,-204 427,-204"/>
<text text-anchor="middle" x="467" y="-215" font-family="Helvetica,sans-Serif" font-size="10.00">key_backward</text>
</a>
</g>
<!-- Node8&#45;&gt;Node11 -->
<g id="edge24" class="edge"><title>Node8&#45;&gt;Node11</title>
<path fill="none" stroke="midnightblue" d="M381.82,-237.444C396.973,-233.629 412.978,-229.6 426.973,-226.077"/>
<polygon fill="midnightblue" stroke="midnightblue" points="380.858,-234.077 372.015,-239.912 382.567,-240.865 380.858,-234.077"/>
</g>
<!-- Node13 -->
<g id="node28" class="node"><title>Node13</title>
<a xlink:href="keyboard__functions2_8cpp.html#a6b73a3669797504ce2e357d9a8b9a2c2" target="_top" xlink:title="key_forward">
<polygon fill="white" stroke="black" points="432,-246 432,-270 502,-270 502,-246 432,-246"/>
<text text-anchor="middle" x="467" y="-257" font-family="Helvetica,sans-Serif" font-size="10.00">key_forward</text>
</a>
</g>
<!-- Node8&#45;&gt;Node13 -->
<g id="edge30" class="edge"><title>Node8&#45;&gt;Node13</title>
<path fill="none" stroke="midnightblue" d="M383.687,-254.504C400.095,-255.193 417.356,-255.917 431.885,-256.527"/>
<polygon fill="midnightblue" stroke="midnightblue" points="383.751,-251.004 373.613,-254.082 383.458,-257.998 383.751,-251.004"/>
</g>
<!-- Node8&#45;&gt;Node14 -->
<g id="edge34" class="edge"><title>Node8&#45;&gt;Node14</title>
<path fill="none" stroke="midnightblue" d="M359.164,-235.035C364.253,-232.203 369.342,-229.154 374,-226 391.484,-214.161 391.803,-205.71 410,-195 417.089,-190.828 425.15,-187.248 432.932,-184.288"/>
<polygon fill="midnightblue" stroke="midnightblue" points="357.268,-232.079 350.092,-239.874 360.563,-238.256 357.268,-232.079"/>
</g>
<!-- Node32 -->
<g id="node73" class="node"><title>Node32</title>
<a xlink:href="sequentiel__6__core_8cpp.html#a2a71c851cf25565491dd10423bc80380" target="_top" xlink:title="do_logical_Sequenciel\l_Window">
<polygon fill="white" stroke="black" points="410.5,-288 410.5,-328 523.5,-328 523.5,-288 410.5,-288"/>
<text text-anchor="start" x="418.5" y="-315" font-family="Helvetica,sans-Serif" font-size="10.00">do_logical_Sequenciel</text>
<text text-anchor="middle" x="467" y="-299" font-family="Helvetica,sans-Serif" font-size="10.00">_Window</text>
</a>
</g>
<!-- Node8&#45;&gt;Node32 -->
<g id="edge82" class="edge"><title>Node8&#45;&gt;Node32</title>
<path fill="none" stroke="midnightblue" d="M364.272,-267.771C380.282,-274.041 398.893,-281.329 415.84,-287.965"/>
<polygon fill="midnightblue" stroke="midnightblue" points="365.265,-264.401 354.677,-264.013 362.712,-270.919 365.265,-264.401"/>
</g>
<!-- Node10 -->
<g id="node20" class="node"><title>Node10</title>
<a xlink:href="i_cat14_8cpp.html#aa9772b548765a631d4bae1c14053b4e1" target="_top" xlink:title="DoJobFantastickTouch">
<polygon fill="white" stroke="black" points="569.5,-143 569.5,-167 686.5,-167 686.5,-143 569.5,-143"/>
<text text-anchor="middle" x="628" y="-154" font-family="Helvetica,sans-Serif" font-size="10.00">DoJobFantastickTouch</text>
</a>
</g>
<!-- Node9&#45;&gt;Node10 -->
<g id="edge20" class="edge"><title>Node9&#45;&gt;Node10</title>
<path fill="none" stroke="midnightblue" d="M508.496,-109.722C535.853,-120.087 571.137,-133.456 596.258,-142.973"/>
<polygon fill="midnightblue" stroke="midnightblue" points="509.4,-106.322 498.808,-106.052 506.92,-112.868 509.4,-106.322"/>
</g>
<!-- Node10&#45;&gt;Node4 -->
<g id="edge22" class="edge"><title>Node10&#45;&gt;Node4</title>
<path fill="none" stroke="midnightblue" d="M666.022,-170.995C690.568,-181.322 721.987,-194.539 744.412,-203.973"/>
<polygon fill="midnightblue" stroke="midnightblue" points="667.222,-167.703 656.647,-167.052 664.508,-174.156 667.222,-167.703"/>
</g>
<!-- Node12 -->
<g id="node25" class="node"><title>Node12</title>
<a xlink:href="keyboard__routines2_8cpp.html#a8563320b8eab661232619224650de244" target="_top" xlink:title="commandes_clavier">
<polygon fill="white" stroke="black" points="576,-204 576,-228 680,-228 680,-204 576,-204"/>
<text text-anchor="middle" x="628" y="-215" font-family="Helvetica,sans-Serif" font-size="10.00">commandes_clavier</text>
</a>
</g>
<!-- Node11&#45;&gt;Node12 -->
<g id="edge26" class="edge"><title>Node11&#45;&gt;Node12</title>
<path fill="none" stroke="midnightblue" d="M517.27,-216C535.898,-216 557.053,-216 575.845,-216"/>
<polygon fill="midnightblue" stroke="midnightblue" points="517.212,-212.5 507.212,-216 517.212,-219.5 517.212,-212.5"/>
</g>
<!-- Node12&#45;&gt;Node4 -->
<g id="edge28" class="edge"><title>Node12&#45;&gt;Node4</title>
<path fill="none" stroke="midnightblue" d="M690.386,-216C704.335,-216 718.795,-216 731.643,-216"/>
<polygon fill="midnightblue" stroke="midnightblue" points="690.348,-212.5 680.348,-216 690.348,-219.5 690.348,-212.5"/>
</g>
<!-- Node13&#45;&gt;Node12 -->
<g id="edge32" class="edge"><title>Node13&#45;&gt;Node12</title>
<path fill="none" stroke="midnightblue" d="M512.286,-246.186C533.979,-240.527 559.921,-233.76 581.739,-228.068"/>
<polygon fill="midnightblue" stroke="midnightblue" points="511.125,-242.872 502.332,-248.783 512.892,-249.645 511.125,-242.872"/>
</g>
<!-- Node15 -->
<g id="node33" class="node"><title>Node15</title>
<a xlink:href="midi__13_8cpp.html#a6bedf9750195224914cd87c4e73ab626" target="_top" xlink:title="ventilate_midi_to_midiarray">
<polygon fill="white" stroke="black" points="560.5,-91 560.5,-115 695.5,-115 695.5,-91 560.5,-91"/>
<text text-anchor="middle" x="628" y="-102" font-family="Helvetica,sans-Serif" font-size="10.00">ventilate_midi_to_midiarray</text>
</a>
</g>
<!-- Node14&#45;&gt;Node15 -->
<g id="edge36" class="edge"><title>Node14&#45;&gt;Node15</title>
<path fill="none" stroke="midnightblue" d="M503.833,-157.757C533.281,-144.77 573.909,-126.854 600.555,-115.103"/>
<polygon fill="midnightblue" stroke="midnightblue" points="502.049,-154.718 494.311,-161.956 504.874,-161.123 502.049,-154.718"/>
</g>
<!-- Node16 -->
<g id="node35" class="node"><title>Node16</title>
<a xlink:href="midi__13_8cpp.html#afa49dd5668303c2448676c8243737c2d" target="_top" xlink:title="simulate_midi">
<polygon fill="white" stroke="black" points="734.5,-91 734.5,-115 811.5,-115 811.5,-91 734.5,-91"/>
<text text-anchor="middle" x="773" y="-102" font-family="Helvetica,sans-Serif" font-size="10.00">simulate_midi</text>
</a>
</g>
<!-- Node15&#45;&gt;Node16 -->
<g id="edge38" class="edge"><title>Node15&#45;&gt;Node16</title>
<path fill="none" stroke="midnightblue" d="M706.103,-103C715.941,-103 725.642,-103 734.473,-103"/>
<polygon fill="midnightblue" stroke="midnightblue" points="705.83,-99.5001 695.83,-103 705.83,-106.5 705.83,-99.5001"/>
</g>
<!-- Node20 -->
<g id="node45" class="node"><title>Node20</title>
<a xlink:href="midi__13_8cpp.html#a4104c2ae7e71376ad9dc78929450dc51" target="_top" xlink:title="EvAquire">
<polygon fill="white" stroke="black" points="745,-2 745,-26 801,-26 801,-2 745,-2"/>
<text text-anchor="middle" x="773" y="-13" font-family="Helvetica,sans-Serif" font-size="10.00">EvAquire</text>
</a>
</g>
<!-- Node15&#45;&gt;Node20 -->
<g id="edge50" class="edge"><title>Node15&#45;&gt;Node20</title>
<path fill="none" stroke="midnightblue" d="M656.268,-85.649C684.84,-68.1122 728.245,-41.4706 753.291,-26.097"/>
<polygon fill="midnightblue" stroke="midnightblue" points="654.247,-82.783 647.555,-90.9971 657.909,-88.7488 654.247,-82.783"/>
</g>
<!-- Node17 -->
<g id="node37" class="node"><title>Node17</title>
<a xlink:href="arduino__core__6___u_n_o_8cpp.html#ae72d1a8d74d9ab5515962e03e7e664d6" target="_top" xlink:title="arduino_do_analog_in\l_whitecat">
<polygon fill="white" stroke="black" points="850,-112 850,-152 960,-152 960,-112 850,-112"/>
<text text-anchor="start" x="858" y="-139" font-family="Helvetica,sans-Serif" font-size="10.00">arduino_do_analog_in</text>
<text text-anchor="middle" x="905" y="-123" font-family="Helvetica,sans-Serif" font-size="10.00">_whitecat</text>
</a>
</g>
<!-- Node16&#45;&gt;Node17 -->
<g id="edge40" class="edge"><title>Node16&#45;&gt;Node17</title>
<path fill="none" stroke="midnightblue" d="M821.39,-113.631C830.691,-115.675 840.495,-117.828 849.986,-119.914"/>
<polygon fill="midnightblue" stroke="midnightblue" points="822.053,-110.193 811.535,-111.466 820.551,-117.03 822.053,-110.193"/>
</g>
<!-- Node19 -->
<g id="node42" class="node"><title>Node19</title>
<a xlink:href="arduino__core__6___u_n_o_8cpp.html#a219226c1cd6cc17c78e62fd4445bb445" target="_top" xlink:title="arduino_do_digital\l_in_whitecat">
<polygon fill="white" stroke="black" points="857.5,-54 857.5,-94 952.5,-94 952.5,-54 857.5,-54"/>
<text text-anchor="start" x="865.5" y="-81" font-family="Helvetica,sans-Serif" font-size="10.00">arduino_do_digital</text>
<text text-anchor="middle" x="905" y="-65" font-family="Helvetica,sans-Serif" font-size="10.00">_in_whitecat</text>
</a>
</g>
<!-- Node16&#45;&gt;Node19 -->
<g id="edge46" class="edge"><title>Node16&#45;&gt;Node19</title>
<path fill="none" stroke="midnightblue" d="M821.541,-92.3357C833.203,-89.7737 845.648,-87.0395 857.272,-84.4857"/>
<polygon fill="midnightblue" stroke="midnightblue" points="820.551,-88.9697 811.535,-94.534 822.053,-95.8066 820.551,-88.9697"/>
</g>
<!-- Node18 -->
<g id="node39" class="node"><title>Node18</title>
<a xlink:href="_m_a_i_n__avec__objets_8cpp.html#ace9c8a9b37c6087c3cffef442d71d70e" target="_top" xlink:title="dixiemes_de_secondes">
<polygon fill="white" stroke="black" points="996.5,-120 996.5,-144 1115.5,-144 1115.5,-120 996.5,-120"/>
<text text-anchor="middle" x="1056" y="-131" font-family="Helvetica,sans-Serif" font-size="10.00">dixiemes_de_secondes</text>
</a>
</g>
<!-- Node17&#45;&gt;Node18 -->
<g id="edge42" class="edge"><title>Node17&#45;&gt;Node18</title>
<path fill="none" stroke="midnightblue" d="M970.379,-132C978.999,-132 987.798,-132 996.316,-132"/>
<polygon fill="midnightblue" stroke="midnightblue" points="970.369,-128.5 960.369,-132 970.369,-135.5 970.369,-128.5"/>
</g>
<!-- Node18&#45;&gt;Node5 -->
<g id="edge44" class="edge"><title>Node18&#45;&gt;Node5</title>
<path fill="none" stroke="midnightblue" d="M1125.82,-135.291C1178.59,-137.497 1252.83,-140 1318,-140 1318,-140 1318,-140 1812,-140 1894,-140 1991.33,-128.749 2031.83,-123.562"/>
<polygon fill="midnightblue" stroke="midnightblue" points="1125.7,-131.783 1115.56,-134.854 1125.4,-138.776 1125.7,-131.783"/>
</g>
<!-- Node19&#45;&gt;Node18 -->
<g id="edge48" class="edge"><title>Node19&#45;&gt;Node18</title>
<path fill="none" stroke="midnightblue" d="M962.336,-96.0229C983.505,-104.154 1006.7,-113.064 1024.71,-119.982"/>
<polygon fill="midnightblue" stroke="midnightblue" points="963.367,-92.67 952.777,-92.3516 960.857,-99.2045 963.367,-92.67"/>
</g>
<!-- Node21 -->
<g id="node47" class="node"><title>Node21</title>
<a xlink:href="midi__13_8cpp.html#a831f1dfc7870ae4f6c64a0e65fbaf3ff" target="_top" xlink:title="Display">
<polygon fill="white" stroke="black" points="880,-2 880,-26 930,-26 930,-2 880,-2"/>
<text text-anchor="middle" x="905" y="-13" font-family="Helvetica,sans-Serif" font-size="10.00">Display</text>
</a>
</g>
<!-- Node20&#45;&gt;Node21 -->
<g id="edge52" class="edge"><title>Node20&#45;&gt;Node21</title>
<path fill="none" stroke="midnightblue" d="M811.366,-14C833.419,-14 860.496,-14 879.849,-14"/>
<polygon fill="midnightblue" stroke="midnightblue" points="811.317,-10.5001 801.317,-14 811.317,-17.5001 811.317,-10.5001"/>
</g>
<!-- Node22 -->
<g id="node49" class="node"><title>Node22</title>
<a xlink:href="midi__13_8cpp.html#aa4aeee5088a4a5462566dfee5c9cc71f" target="_top" xlink:title="DisplayTask">
<polygon fill="white" stroke="black" points="1020.5,-0 1020.5,-24 1091.5,-24 1091.5,-0 1020.5,-0"/>
<text text-anchor="middle" x="1056" y="-11" font-family="Helvetica,sans-Serif" font-size="10.00">DisplayTask</text>
</a>
</g>
<!-- Node21&#45;&gt;Node22 -->
<g id="edge54" class="edge"><title>Node21&#45;&gt;Node22</title>
<path fill="none" stroke="midnightblue" d="M940.423,-13.5308C964.533,-13.2115 996.32,-12.7905 1020.46,-12.4708"/>
<polygon fill="midnightblue" stroke="midnightblue" points="940.227,-10.033 930.274,-13.6652 940.32,-17.0324 940.227,-10.033"/>
</g>
<!-- Node24 -->
<g id="node54" class="node"><title>Node24</title>
<a xlink:href="midi___c_o_r_e_8cpp.html#a6fcb4c2efe85f50488d7aeeef1fc0a3e" target="_top" xlink:title="ReceiveEvents">
<polygon fill="white" stroke="black" points="1014.5,-42 1014.5,-66 1097.5,-66 1097.5,-42 1014.5,-42"/>
<text text-anchor="middle" x="1056" y="-53" font-family="Helvetica,sans-Serif" font-size="10.00">ReceiveEvents</text>
</a>
</g>
<!-- Node21&#45;&gt;Node24 -->
<g id="edge60" class="edge"><title>Node21&#45;&gt;Node24</title>
<path fill="none" stroke="midnightblue" d="M939.961,-23.2612C962.156,-29.1408 990.997,-36.7806 1014.37,-42.9728"/>
<polygon fill="midnightblue" stroke="midnightblue" points="940.837,-19.8726 930.274,-20.6951 939.044,-26.6392 940.837,-19.8726"/>
</g>
<!-- Node23 -->
<g id="node51" class="node"><title>Node23</title>
<a xlink:href="midi___c_o_r_e_8cpp.html#a7d0f82d882071792d6a2df51ef13ec55" target="_top" xlink:title="ReceivePolling">
<polygon fill="white" stroke="black" points="1152,-0 1152,-24 1234,-24 1234,-0 1152,-0"/>
<text text-anchor="middle" x="1193" y="-11" font-family="Helvetica,sans-Serif" font-size="10.00">ReceivePolling</text>
</a>
</g>
<!-- Node22&#45;&gt;Node23 -->
<g id="edge56" class="edge"><title>Node22&#45;&gt;Node23</title>
<path fill="none" stroke="midnightblue" d="M1101.91,-12C1118.02,-12 1136.01,-12 1151.72,-12"/>
<polygon fill="midnightblue" stroke="midnightblue" points="1101.64,-8.5001 1091.64,-12 1101.64,-15.5001 1101.64,-8.5001"/>
</g>
<!-- Node23&#45;&gt;Node23 -->
<g id="edge58" class="edge"><title>Node23&#45;&gt;Node23</title>
<path fill="none" stroke="midnightblue" d="M1170.51,-34.0013C1172.81,-38.6474 1180.31,-42 1193,-42 1213.83,-42 1220.66,-32.9717 1213.5,-24.0139"/>
<polygon fill="midnightblue" stroke="midnightblue" points="1173.98,-34.5043 1172.5,-24.0139 1167.12,-33.1401 1173.98,-34.5043"/>
</g>
<!-- Node24&#45;&gt;Node23 -->
<g id="edge62" class="edge"><title>Node24&#45;&gt;Node23</title>
<path fill="none" stroke="midnightblue" d="M1104.99,-38.9819C1120.99,-34.0759 1138.54,-28.6946 1153.74,-24.0373"/>
<polygon fill="midnightblue" stroke="midnightblue" points="1103.79,-35.6871 1095.26,-41.9645 1105.85,-42.3796 1103.79,-35.6871"/>
</g>
<!-- Node25 -->
<g id="node57" class="node"><title>Node25</title>
<a xlink:href="midi___c_o_r_e_8cpp.html#a0ccf480a33424e626f88d109d53d8366" target="_top" xlink:title="InitMidi">
<polygon fill="white" stroke="black" points="1169,-60 1169,-84 1217,-84 1217,-60 1169,-60"/>
<text text-anchor="middle" x="1193" y="-71" font-family="Helvetica,sans-Serif" font-size="10.00">InitMidi</text>
</a>
</g>
<!-- Node24&#45;&gt;Node25 -->
<g id="edge64" class="edge"><title>Node24&#45;&gt;Node25</title>
<path fill="none" stroke="midnightblue" d="M1107.93,-60.8225C1128.89,-63.5772 1152.06,-66.6214 1168.92,-68.8363"/>
<polygon fill="midnightblue" stroke="midnightblue" points="1108.22,-57.331 1097.85,-59.4984 1107.31,-64.2713 1108.22,-57.331"/>
</g>
<!-- Node25&#45;&gt;Node5 -->
<g id="edge66" class="edge"><title>Node25&#45;&gt;Node5</title>
<path fill="none" stroke="midnightblue" d="M1226.86,-78.6664C1274.78,-87.5054 1365.21,-102 1443,-102 1443,-102 1443,-102 1812,-102 1894,-102 1991.33,-113.251 2031.83,-118.438"/>
<polygon fill="midnightblue" stroke="midnightblue" points="1227.49,-75.2245 1217.02,-76.82 1226.2,-82.1044 1227.49,-75.2245"/>
</g>
<!-- Node26 -->
<g id="node60" class="node"><title>Node26</title>
<a xlink:href="midi__13_8cpp.html#ac7a306aa81e374b447e7341d4d3a3eea" target="_top" xlink:title="midipage_devices">
<polygon fill="white" stroke="black" points="1270.5,-50 1270.5,-74 1365.5,-74 1365.5,-50 1270.5,-50"/>
<text text-anchor="middle" x="1318" y="-61" font-family="Helvetica,sans-Serif" font-size="10.00">midipage_devices</text>
</a>
</g>
<!-- Node25&#45;&gt;Node26 -->
<g id="edge68" class="edge"><title>Node25&#45;&gt;Node26</title>
<path fill="none" stroke="midnightblue" d="M1227.25,-69.2597C1240.57,-68.1944 1256.05,-66.9557 1270.42,-65.8064"/>
<polygon fill="midnightblue" stroke="midnightblue" points="1226.79,-65.7855 1217.1,-70.0719 1227.35,-72.7632 1226.79,-65.7855"/>
</g>
<!-- Node27 -->
<g id="node62" class="node"><title>Node27</title>
<a xlink:href="midi__13_8cpp.html#a8f70acacad6eaba8867bdd80dda5e277" target="_top" xlink:title="do_midi_config">
<polygon fill="white" stroke="black" points="1402,-50 1402,-74 1484,-74 1484,-50 1402,-50"/>
<text text-anchor="middle" x="1443" y="-61" font-family="Helvetica,sans-Serif" font-size="10.00">do_midi_config</text>
</a>
</g>
<!-- Node26&#45;&gt;Node27 -->
<g id="edge70" class="edge"><title>Node26&#45;&gt;Node27</title>
<path fill="none" stroke="midnightblue" d="M1375.77,-62C1384.5,-62 1393.35,-62 1401.65,-62"/>
<polygon fill="midnightblue" stroke="midnightblue" points="1375.61,-58.5001 1365.61,-62 1375.61,-65.5001 1375.61,-58.5001"/>
</g>
<!-- Node28 -->
<g id="node64" class="node"><title>Node28</title>
<a xlink:href="_c_f_g__config__panel__8_8cpp.html#ad39c46e2fb3a3ba7ea0460140ead4f96" target="_top" xlink:title="do_panel_config">
<polygon fill="white" stroke="black" points="1520.5,-50 1520.5,-74 1607.5,-74 1607.5,-50 1520.5,-50"/>
<text text-anchor="middle" x="1564" y="-61" font-family="Helvetica,sans-Serif" font-size="10.00">do_panel_config</text>
</a>
</g>
<!-- Node27&#45;&gt;Node28 -->
<g id="edge72" class="edge"><title>Node27&#45;&gt;Node28</title>
<path fill="none" stroke="midnightblue" d="M1494.33,-62C1503.01,-62 1511.95,-62 1520.41,-62"/>
<polygon fill="midnightblue" stroke="midnightblue" points="1494.3,-58.5001 1484.3,-62 1494.3,-65.5001 1494.3,-58.5001"/>
</g>
<!-- Node29 -->
<g id="node66" class="node"><title>Node29</title>
<a xlink:href="_c_f_g__config__panel__8_8cpp.html#a7968da66bccdba8b864caf6c8435f68e" target="_top" xlink:title="config_general_menu">
<polygon fill="white" stroke="black" points="1644.5,-50 1644.5,-74 1753.5,-74 1753.5,-50 1644.5,-50"/>
<text text-anchor="middle" x="1699" y="-61" font-family="Helvetica,sans-Serif" font-size="10.00">config_general_menu</text>
</a>
</g>
<!-- Node28&#45;&gt;Node29 -->
<g id="edge74" class="edge"><title>Node28&#45;&gt;Node29</title>
<path fill="none" stroke="midnightblue" d="M1618.07,-62C1626.62,-62 1635.47,-62 1644.04,-62"/>
<polygon fill="midnightblue" stroke="midnightblue" points="1617.83,-58.5001 1607.83,-62 1617.83,-65.5001 1617.83,-58.5001"/>
</g>
<!-- Node30 -->
<g id="node68" class="node"><title>Node30</title>
<a xlink:href="graphics__rebuild1_8cpp.html#ac2eae1e03fb72cc734ffbcef566483bf" target="_top" xlink:title="Boxes">
<polygon fill="white" stroke="black" points="1790,-50 1790,-74 1834,-74 1834,-50 1790,-50"/>
<text text-anchor="middle" x="1812" y="-61" font-family="Helvetica,sans-Serif" font-size="10.00">Boxes</text>
</a>
</g>
<!-- Node29&#45;&gt;Node30 -->
<g id="edge76" class="edge"><title>Node29&#45;&gt;Node30</title>
<path fill="none" stroke="midnightblue" d="M1763.75,-62C1773.11,-62 1782.17,-62 1789.86,-62"/>
<polygon fill="midnightblue" stroke="midnightblue" points="1763.51,-58.5001 1753.51,-62 1763.51,-65.5001 1763.51,-58.5001"/>
</g>
<!-- Node31 -->
<g id="node70" class="node"><title>Node31</title>
<a xlink:href="_m_a_i_n__avec__objets_8cpp.html#ade8d4ba65d55c94f8ee277829d722155" target="_top" xlink:title="main_actions_on_screen">
<polygon fill="white" stroke="black" points="1870.5,-50 1870.5,-74 1995.5,-74 1995.5,-50 1870.5,-50"/>
<text text-anchor="middle" x="1933" y="-61" font-family="Helvetica,sans-Serif" font-size="10.00">main_actions_on_screen</text>
</a>
</g>
<!-- Node30&#45;&gt;Node31 -->
<g id="edge78" class="edge"><title>Node30&#45;&gt;Node31</title>
<path fill="none" stroke="midnightblue" d="M1844.24,-62C1852.32,-62 1861.26,-62 1870.27,-62"/>
<polygon fill="midnightblue" stroke="midnightblue" points="1844.19,-58.5001 1834.19,-62 1844.19,-65.5001 1844.19,-58.5001"/>
</g>
<!-- Node31&#45;&gt;Node5 -->
<g id="edge80" class="edge"><title>Node31&#45;&gt;Node5</title>
<path fill="none" stroke="midnightblue" d="M1974.53,-78.1067C1981.77,-81.2071 1989.17,-84.5648 1996,-88 2008.54,-94.3031 2022.05,-102.396 2032.55,-108.99"/>
<polygon fill="midnightblue" stroke="midnightblue" points="1975.39,-74.6754 1964.82,-74.0552 1972.7,-81.1357 1975.39,-74.6754"/>
</g>
<!-- Node32&#45;&gt;Node7 -->
<g id="edge84" class="edge"><title>Node32&#45;&gt;Node7</title>
<path fill="none" stroke="midnightblue" d="M534.106,-307.166C545.511,-307.025 557.286,-306.878 568.478,-306.739"/>
<polygon fill="midnightblue" stroke="midnightblue" points="533.718,-303.671 523.763,-307.295 533.805,-310.67 533.718,-303.671"/>
</g>
<!-- Node33&#45;&gt;Node9 -->
<g id="edge92" class="edge"><title>Node33&#45;&gt;Node9</title>
<path fill="none" stroke="midnightblue" d="M240.836,-119.623C251.779,-117.147 263.209,-114.796 274,-113 327.637,-104.073 390.41,-98.8476 429.446,-96.2063"/>
<polygon fill="midnightblue" stroke="midnightblue" points="239.903,-116.247 230.956,-121.921 241.488,-123.065 239.903,-116.247"/>
</g>
<!-- Node33&#45;&gt;Node19 -->
<g id="edge90" class="edge"><title>Node33&#45;&gt;Node19</title>
<path fill="none" stroke="midnightblue" d="M219.115,-117.692C271.273,-94.2976 374.537,-54 467,-54 467,-54 467,-54 628,-54 708.52,-54 801.864,-62.511 857.036,-68.4289"/>
<polygon fill="midnightblue" stroke="midnightblue" points="217.635,-114.52 209.985,-121.85 220.536,-120.89 217.635,-114.52"/>
</g>
<!-- Node34 -->
<g id="node81" class="node"><title>Node34</title>
<a xlink:href="keyboard__functions2_8cpp.html#a1069ef07040abfea667ec14eeefe7e56" target="_top" xlink:title="key_go">
<polygon fill="white" stroke="black" points="300,-122 300,-146 348,-146 348,-122 300,-122"/>
<text text-anchor="middle" x="324" y="-133" font-family="Helvetica,sans-Serif" font-size="10.00">key_go</text>
</a>
</g>
<!-- Node33&#45;&gt;Node34 -->
<g id="edge94" class="edge"><title>Node33&#45;&gt;Node34</title>
<path fill="none" stroke="midnightblue" d="M243.096,-134C263.01,-134 284.207,-134 299.907,-134"/>
<polygon fill="midnightblue" stroke="midnightblue" points="242.836,-130.5 232.836,-134 242.836,-137.5 242.836,-130.5"/>
</g>
<!-- Node35 -->
<g id="node84" class="node"><title>Node35</title>
<a xlink:href="sequentiel__6__core_8cpp.html#a152c03ccf49d8d9a457e048daaa48023" target="_top" xlink:title="do_logical_x1_x2">
<polygon fill="white" stroke="black" points="278,-289 278,-313 370,-313 370,-289 278,-289"/>
<text text-anchor="middle" x="324" y="-300" font-family="Helvetica,sans-Serif" font-size="10.00">do_logical_x1_x2</text>
</a>
</g>
<!-- Node33&#45;&gt;Node35 -->
<g id="edge98" class="edge"><title>Node33&#45;&gt;Node35</title>
<path fill="none" stroke="midnightblue" d="M194.624,-155.544C208.638,-185.01 237.069,-238.187 274,-273 280.66,-279.278 288.991,-284.66 296.931,-288.979"/>
<polygon fill="midnightblue" stroke="midnightblue" points="197.662,-153.776 190.278,-146.179 191.313,-156.723 197.662,-153.776"/>
</g>
<!-- Node34&#45;&gt;Node12 -->
<g id="edge96" class="edge"><title>Node34&#45;&gt;Node12</title>
<path fill="none" stroke="midnightblue" d="M358.354,-132.441C399.034,-131.678 468.298,-133.82 524,-153 541.952,-159.182 543.815,-166.074 560,-176 575.646,-185.595 593.543,-196.105 607.049,-203.943"/>
<polygon fill="midnightblue" stroke="midnightblue" points="358.068,-128.947 348.162,-132.705 358.25,-135.945 358.068,-128.947"/>
</g>
<!-- Node35&#45;&gt;Node32 -->
<g id="edge100" class="edge"><title>Node35&#45;&gt;Node32</title>
<path fill="none" stroke="midnightblue" d="M380.164,-303.749C390.061,-304.234 400.37,-304.738 410.282,-305.224"/>
<polygon fill="midnightblue" stroke="midnightblue" points="380.192,-300.247 370.033,-303.253 379.85,-307.238 380.192,-300.247"/>
</g>
<!-- Node36&#45;&gt;Node6 -->
<g id="edge104" class="edge"><title>Node36&#45;&gt;Node6</title>
<path fill="none" stroke="midnightblue" d="M247.245,-373.39C257.033,-376.911 267.016,-380.502 276.404,-383.879"/>
<polygon fill="midnightblue" stroke="midnightblue" points="248.144,-369.994 237.55,-369.903 245.775,-376.581 248.144,-369.994"/>
</g>
</g>
</svg>
