<?xml version="1.0" encoding="UTF-8" standalone="no"?>
<!DOCTYPE svg PUBLIC "-//W3C//DTD SVG 1.1//EN"
 "http://www.w3.org/Graphics/SVG/1.1/DTD/svg11.dtd">
<!-- Generated by graphviz version 2.26.3 (20100126.1600)
 -->
<!-- Title: refresh_banger_wx Pages: 1 -->
<svg width="924pt" height="216pt"
 viewBox="0.00 0.00 924.00 216.00" xmlns="http://www.w3.org/2000/svg" xmlns:xlink="http://www.w3.org/1999/xlink">
<g id="graph1" class="graph" transform="scale(1 1) rotate(0) translate(4 212)">
<title>refresh_banger_wx</title>
<polygon fill="white" stroke="white" points="-4,5 -4,-212 921,-212 921,5 -4,5"/>
<!-- Node1 -->
<g id="node1" class="node"><title>Node1</title>
<polygon fill="#bfbfbf" stroke="black" points="0.5,-84 0.5,-108 99.5,-108 99.5,-84 0.5,-84"/>
<text text-anchor="middle" x="50" y="-95" font-family="Helvetica,sans-Serif" font-size="10.00">refresh_banger_wx</text>
</g>
<!-- Node2 -->
<g id="node3" class="node"><title>Node2</title>
<a xlink:href="i_cat14_8cpp.html#a16285241f82898e7a5f051b03d90b9a3" target="_top" xlink:title="check_button">
<polygon fill="white" stroke="black" points="155.5,-126 155.5,-150 230.5,-150 230.5,-126 155.5,-126"/>
<text text-anchor="middle" x="193" y="-137" font-family="Helvetica,sans-Serif" font-size="10.00">check_button</text>
</a>
</g>
<!-- Node1&#45;&gt;Node2 -->
<g id="edge2" class="edge"><title>Node1&#45;&gt;Node2</title>
<path fill="none" stroke="midnightblue" d="M100.758,-110.908C118.778,-116.201 138.722,-122.058 155.442,-126.969"/>
<polygon fill="midnightblue" stroke="midnightblue" points="101.559,-107.495 90.9781,-108.036 99.5865,-114.212 101.559,-107.495"/>
</g>
<!-- Node6 -->
<g id="node11" class="node"><title>Node6</title>
<a xlink:href="keyboard__functions2_8cpp.html#af3dd6697323b10b480719c1612bcf29a" target="_top" xlink:title="key_backward">
<polygon fill="white" stroke="black" points="153,-84 153,-108 233,-108 233,-84 153,-84"/>
<text text-anchor="middle" x="193" y="-95" font-family="Helvetica,sans-Serif" font-size="10.00">key_backward</text>
</a>
</g>
<!-- Node1&#45;&gt;Node6 -->
<g id="edge10" class="edge"><title>Node1&#45;&gt;Node6</title>
<path fill="none" stroke="midnightblue" d="M110.007,-96C124.486,-96 139.612,-96 152.923,-96"/>
<polygon fill="midnightblue" stroke="midnightblue" points="109.613,-92.5001 99.6131,-96 109.613,-99.5001 109.613,-92.5001"/>
</g>
<!-- Node8 -->
<g id="node16" class="node"><title>Node8</title>
<a xlink:href="keyboard__functions2_8cpp.html#a6b73a3669797504ce2e357d9a8b9a2c2" target="_top" xlink:title="key_forward">
<polygon fill="white" stroke="black" points="158,-42 158,-66 228,-66 228,-42 158,-42"/>
<text text-anchor="middle" x="193" y="-53" font-family="Helvetica,sans-Serif" font-size="10.00">key_forward</text>
</a>
</g>
<!-- Node1&#45;&gt;Node8 -->
<g id="edge16" class="edge"><title>Node1&#45;&gt;Node8</title>
<path fill="none" stroke="midnightblue" d="M100.644,-81.1254C119.562,-75.5693 140.614,-69.3862 157.835,-64.3281"/>
<polygon fill="midnightblue" stroke="midnightblue" points="99.5865,-77.7882 90.9781,-83.9645 101.559,-84.5045 99.5865,-77.7882"/>
</g>
<!-- Node9 -->
<g id="node19" class="node"><title>Node9</title>
<a xlink:href="midi__13_8cpp.html#a6dff3d42682b58cc0a9875ee30fb4cd4" target="_top" xlink:title="do_midi_job">
<polygon fill="white" stroke="black" points="159,-0 159,-24 227,-24 227,-0 159,-0"/>
<text text-anchor="middle" x="193" y="-11" font-family="Helvetica,sans-Serif" font-size="10.00">do_midi_job</text>
</a>
</g>
<!-- Node1&#45;&gt;Node9 -->
<g id="edge20" class="edge"><title>Node1&#45;&gt;Node9</title>
<path fill="none" stroke="midnightblue" d="M71.8233,-77.346C88.5577,-63.7237 112.67,-45.5224 136,-33 143.155,-29.1596 151.162,-25.7295 158.862,-22.8105"/>
<polygon fill="midnightblue" stroke="midnightblue" points="69.2592,-74.925 63.788,-83.9979 73.7229,-80.3171 69.2592,-74.925"/>
</g>
<!-- Node15 -->
<g id="node33" class="node"><title>Node15</title>
<a xlink:href="sequentiel__6__core_8cpp.html#a2a71c851cf25565491dd10423bc80380" target="_top" xlink:title="do_logical_Sequenciel\l_Window">
<polygon fill="white" stroke="black" points="136.5,-168 136.5,-208 249.5,-208 249.5,-168 136.5,-168"/>
<text text-anchor="start" x="144.5" y="-195" font-family="Helvetica,sans-Serif" font-size="10.00">do_logical_Sequenciel</text>
<text text-anchor="middle" x="193" y="-179" font-family="Helvetica,sans-Serif" font-size="10.00">_Window</text>
</a>
</g>
<!-- Node1&#45;&gt;Node15 -->
<g id="edge36" class="edge"><title>Node1&#45;&gt;Node15</title>
<path fill="none" stroke="midnightblue" d="M73.1925,-114.579C90.1068,-127.728 113.849,-145.375 136,-159 140.918,-162.025 146.189,-165.017 151.468,-167.866"/>
<polygon fill="midnightblue" stroke="midnightblue" points="75.0411,-111.58 65.0144,-108.157 70.7181,-117.086 75.0411,-111.58"/>
</g>
<!-- Node3 -->
<g id="node5" class="node"><title>Node3</title>
<a xlink:href="i_cat14_8cpp.html#aa9772b548765a631d4bae1c14053b4e1" target="_top" xlink:title="DoJobFantastickTouch">
<polygon fill="white" stroke="black" points="295.5,-126 295.5,-150 412.5,-150 412.5,-126 295.5,-126"/>
<text text-anchor="middle" x="354" y="-137" font-family="Helvetica,sans-Serif" font-size="10.00">DoJobFantastickTouch</text>
</a>
</g>
<!-- Node2&#45;&gt;Node3 -->
<g id="edge4" class="edge"><title>Node2&#45;&gt;Node3</title>
<path fill="none" stroke="midnightblue" d="M241.039,-138C258.111,-138 277.521,-138 295.378,-138"/>
<polygon fill="midnightblue" stroke="midnightblue" points="240.747,-134.5 230.747,-138 240.747,-141.5 240.747,-134.5"/>
</g>
<!-- Node4 -->
<g id="node7" class="node"><title>Node4</title>
<a xlink:href="_m_a_i_n__avec__objets_8cpp.html#a8e80f54ac804eddce8ed6e45adb1db44" target="_top" xlink:title="ticker_full_loop">
<polygon fill="white" stroke="black" points="458,-124 458,-148 540,-148 540,-124 458,-124"/>
<text text-anchor="middle" x="499" y="-135" font-family="Helvetica,sans-Serif" font-size="10.00">ticker_full_loop</text>
</a>
</g>
<!-- Node3&#45;&gt;Node4 -->
<g id="edge6" class="edge"><title>Node3&#45;&gt;Node4</title>
<path fill="none" stroke="midnightblue" d="M422.913,-137.049C434.77,-136.886 446.754,-136.721 457.594,-136.571"/>
<polygon fill="midnightblue" stroke="midnightblue" points="422.51,-133.555 412.559,-137.192 422.606,-140.554 422.51,-133.555"/>
</g>
<!-- Node5 -->
<g id="node9" class="node"><title>Node5</title>
<a xlink:href="_m_a_i_n__avec__objets_8cpp.html#ae66f6b31b5ad750f1fe042a706a4e3d4" target="_top" xlink:title="main">
<polygon fill="white" stroke="black" points="878,-94 878,-118 916,-118 916,-94 878,-94"/>
<text text-anchor="middle" x="897" y="-105" font-family="Helvetica,sans-Serif" font-size="10.00">main</text>
</a>
</g>
<!-- Node4&#45;&gt;Node5 -->
<g id="edge8" class="edge"><title>Node4&#45;&gt;Node5</title>
<path fill="none" stroke="midnightblue" d="M550.235,-132.138C639.305,-125.424 818.825,-111.893 877.768,-107.45"/>
<polygon fill="midnightblue" stroke="midnightblue" points="549.803,-128.661 540.094,-132.902 550.329,-135.641 549.803,-128.661"/>
</g>
<!-- Node7 -->
<g id="node13" class="node"><title>Node7</title>
<a xlink:href="keyboard__routines2_8cpp.html#a8563320b8eab661232619224650de244" target="_top" xlink:title="commandes_clavier">
<polygon fill="white" stroke="black" points="302,-84 302,-108 406,-108 406,-84 302,-84"/>
<text text-anchor="middle" x="354" y="-95" font-family="Helvetica,sans-Serif" font-size="10.00">commandes_clavier</text>
</a>
</g>
<!-- Node6&#45;&gt;Node7 -->
<g id="edge12" class="edge"><title>Node6&#45;&gt;Node7</title>
<path fill="none" stroke="midnightblue" d="M243.27,-96C261.898,-96 283.053,-96 301.845,-96"/>
<polygon fill="midnightblue" stroke="midnightblue" points="243.212,-92.5001 233.212,-96 243.212,-99.5001 243.212,-92.5001"/>
</g>
<!-- Node7&#45;&gt;Node4 -->
<g id="edge14" class="edge"><title>Node7&#45;&gt;Node4</title>
<path fill="none" stroke="midnightblue" d="M407.561,-110.775C424.057,-115.326 441.96,-120.265 457.516,-124.556"/>
<polygon fill="midnightblue" stroke="midnightblue" points="408.075,-107.287 397.505,-108.001 406.214,-114.035 408.075,-107.287"/>
</g>
<!-- Node8&#45;&gt;Node7 -->
<g id="edge18" class="edge"><title>Node8&#45;&gt;Node7</title>
<path fill="none" stroke="midnightblue" d="M238.286,-65.8137C259.979,-71.4727 285.921,-78.2403 307.739,-83.932"/>
<polygon fill="midnightblue" stroke="midnightblue" points="238.892,-62.3547 228.332,-63.2171 237.125,-69.128 238.892,-62.3547"/>
</g>
<!-- Node10 -->
<g id="node21" class="node"><title>Node10</title>
<a xlink:href="midi__13_8cpp.html#a6bedf9750195224914cd87c4e73ab626" target="_top" xlink:title="ventilate_midi_to_midiarray">
<polygon fill="white" stroke="black" points="286.5,-1 286.5,-25 421.5,-25 421.5,-1 286.5,-1"/>
<text text-anchor="middle" x="354" y="-12" font-family="Helvetica,sans-Serif" font-size="10.00">ventilate_midi_to_midiarray</text>
</a>
</g>
<!-- Node9&#45;&gt;Node10 -->
<g id="edge22" class="edge"><title>Node9&#45;&gt;Node10</title>
<path fill="none" stroke="midnightblue" d="M237.272,-12.275C252.455,-12.3693 269.811,-12.4771 286.414,-12.5802"/>
<polygon fill="midnightblue" stroke="midnightblue" points="237.166,-8.77435 227.144,-12.2121 237.122,-15.7742 237.166,-8.77435"/>
</g>
<!-- Node11 -->
<g id="node23" class="node"><title>Node11</title>
<a xlink:href="midi__13_8cpp.html#afa49dd5668303c2448676c8243737c2d" target="_top" xlink:title="simulate_midi">
<polygon fill="white" stroke="black" points="460.5,-11 460.5,-35 537.5,-35 537.5,-11 460.5,-11"/>
<text text-anchor="middle" x="499" y="-22" font-family="Helvetica,sans-Serif" font-size="10.00">simulate_midi</text>
</a>
</g>
<!-- Node10&#45;&gt;Node11 -->
<g id="edge24" class="edge"><title>Node10&#45;&gt;Node11</title>
<path fill="none" stroke="midnightblue" d="M432.103,-18.3864C441.941,-19.0649 451.642,-19.7339 460.473,-20.343"/>
<polygon fill="midnightblue" stroke="midnightblue" points="432.047,-14.8743 421.83,-17.6779 431.565,-21.8578 432.047,-14.8743"/>
</g>
<!-- Node12 -->
<g id="node25" class="node"><title>Node12</title>
<a xlink:href="arduino__core__6___u_n_o_8cpp.html#ae72d1a8d74d9ab5515962e03e7e664d6" target="_top" xlink:title="arduino_do_analog_in\l_whitecat">
<polygon fill="white" stroke="black" points="576,-61 576,-101 686,-101 686,-61 576,-61"/>
<text text-anchor="start" x="584" y="-88" font-family="Helvetica,sans-Serif" font-size="10.00">arduino_do_analog_in</text>
<text text-anchor="middle" x="631" y="-72" font-family="Helvetica,sans-Serif" font-size="10.00">_whitecat</text>
</a>
</g>
<!-- Node11&#45;&gt;Node12 -->
<g id="edge26" class="edge"><title>Node11&#45;&gt;Node12</title>
<path fill="none" stroke="midnightblue" d="M535.539,-39.0549C550.918,-45.8123 568.982,-53.7495 585.234,-60.8905"/>
<polygon fill="midnightblue" stroke="midnightblue" points="536.914,-35.8361 526.35,-35.0176 534.098,-42.2448 536.914,-35.8361"/>
</g>
<!-- Node14 -->
<g id="node30" class="node"><title>Node14</title>
<a xlink:href="arduino__core__6___u_n_o_8cpp.html#a219226c1cd6cc17c78e62fd4445bb445" target="_top" xlink:title="arduino_do_digital\l_in_whitecat">
<polygon fill="white" stroke="black" points="583.5,-3 583.5,-43 678.5,-43 678.5,-3 583.5,-3"/>
<text text-anchor="start" x="591.5" y="-30" font-family="Helvetica,sans-Serif" font-size="10.00">arduino_do_digital</text>
<text text-anchor="middle" x="631" y="-14" font-family="Helvetica,sans-Serif" font-size="10.00">_in_whitecat</text>
</a>
</g>
<!-- Node11&#45;&gt;Node14 -->
<g id="edge32" class="edge"><title>Node11&#45;&gt;Node14</title>
<path fill="none" stroke="midnightblue" d="M547.541,-23C559.203,-23 571.648,-23 583.272,-23"/>
<polygon fill="midnightblue" stroke="midnightblue" points="547.535,-19.5001 537.535,-23 547.535,-26.5001 547.535,-19.5001"/>
</g>
<!-- Node13 -->
<g id="node27" class="node"><title>Node13</title>
<a xlink:href="_m_a_i_n__avec__objets_8cpp.html#ace9c8a9b37c6087c3cffef442d71d70e" target="_top" xlink:title="dixiemes_de_secondes">
<polygon fill="white" stroke="black" points="722.5,-69 722.5,-93 841.5,-93 841.5,-69 722.5,-69"/>
<text text-anchor="middle" x="782" y="-80" font-family="Helvetica,sans-Serif" font-size="10.00">dixiemes_de_secondes</text>
</a>
</g>
<!-- Node12&#45;&gt;Node13 -->
<g id="edge28" class="edge"><title>Node12&#45;&gt;Node13</title>
<path fill="none" stroke="midnightblue" d="M696.379,-81C704.999,-81 713.798,-81 722.316,-81"/>
<polygon fill="midnightblue" stroke="midnightblue" points="696.369,-77.5001 686.369,-81 696.369,-84.5001 696.369,-77.5001"/>
</g>
<!-- Node13&#45;&gt;Node5 -->
<g id="edge30" class="edge"><title>Node13&#45;&gt;Node5</title>
<path fill="none" stroke="midnightblue" d="M847.3,-95.1957C858.409,-97.6107 869.122,-99.9396 877.739,-101.813"/>
<polygon fill="midnightblue" stroke="midnightblue" points="847.994,-91.7649 837.479,-93.0606 846.507,-98.6051 847.994,-91.7649"/>
</g>
<!-- Node14&#45;&gt;Node13 -->
<g id="edge34" class="edge"><title>Node14&#45;&gt;Node13</title>
<path fill="none" stroke="midnightblue" d="M688.336,-45.0229C709.505,-53.1544 732.701,-62.0639 750.713,-68.9824"/>
<polygon fill="midnightblue" stroke="midnightblue" points="689.367,-41.67 678.777,-41.3516 686.857,-48.2045 689.367,-41.67"/>
</g>
<!-- Node16 -->
<g id="node35" class="node"><title>Node16</title>
<a xlink:href="procs__visuels__rebuild1_8cpp.html#ae710b6e599e321ad5934a90140067054" target="_top" xlink:title="check_graphics_mouse\l_handling">
<polygon fill="white" stroke="black" points="294.5,-168 294.5,-208 413.5,-208 413.5,-168 294.5,-168"/>
<text text-anchor="start" x="302.5" y="-195" font-family="Helvetica,sans-Serif" font-size="10.00">check_graphics_mouse</text>
<text text-anchor="middle" x="354" y="-179" font-family="Helvetica,sans-Serif" font-size="10.00">_handling</text>
</a>
</g>
<!-- Node15&#45;&gt;Node16 -->
<g id="edge38" class="edge"><title>Node15&#45;&gt;Node16</title>
<path fill="none" stroke="midnightblue" d="M260.106,-188C271.511,-188 283.286,-188 294.478,-188"/>
<polygon fill="midnightblue" stroke="midnightblue" points="259.763,-184.5 249.763,-188 259.763,-191.5 259.763,-184.5"/>
</g>
<!-- Node16&#45;&gt;Node4 -->
<g id="edge40" class="edge"><title>Node16&#45;&gt;Node4</title>
<path fill="none" stroke="midnightblue" d="M419.785,-164.408C435.535,-158.76 451.711,-152.959 465.305,-148.084"/>
<polygon fill="midnightblue" stroke="midnightblue" points="418.292,-161.225 410.061,-167.895 420.655,-167.814 418.292,-161.225"/>
</g>
</g>
</svg>
