<?xml version="1.0" encoding="UTF-8" standalone="no"?>
<!DOCTYPE svg PUBLIC "-//W3C//DTD SVG 1.1//EN"
 "http://www.w3.org/Graphics/SVG/1.1/DTD/svg11.dtd">
<!-- Generated by graphviz version 2.26.3 (20100126.1600)
 -->
<!-- Title: back_up_fader_if_a_fader_inside Pages: 1 -->
<!--zoomable 516 -->
<svg id="main" version="1.1" xmlns="http://www.w3.org/2000/svg" xmlns:xlink="http://www.w3.org/1999/xlink" xml:space="preserve" onload="init(evt)">
<style type="text/css"><![CDATA[
.edge:hover path { stroke: red; }
.edge:hover polygon { stroke: red; fill: red; }
]]></style>
<script type="text/javascript"><![CDATA[
var edges = document.getElementsByTagName('g');
if (edges && edges.length) {
  for (var i=0;i<edges.length;i++) {
    if (edges[i].id.substr(0,4)=='edge') {
      edges[i].setAttribute('class','edge');
    }
  }
}
]]></script>
        <defs>
                <circle id="rim" cx="0" cy="0" r="7"/>
                <circle id="rim2" cx="0" cy="0" r="3.5"/>
                <g id="zoomPlus">
                        <use xlink:href="#rim" fill="#404040">
                                <set attributeName="fill" to="#808080" begin="zoomplus.mouseover" end="zoomplus.mouseout"/>
                        </use>
                        <path d="M-4,0h8M0,-4v8" fill="none" stroke="white" stroke-width="1.5" pointer-events="none"/>
                </g>
                <g id="zoomMin">
                        <use xlink:href="#rim" fill="#404040">
                                <set attributeName="fill" to="#808080" begin="zoomminus.mouseover" end="zoomminus.mouseout"/>
                        </use>
                        <path d="M-4,0h8" fill="none" stroke="white" stroke-width="1.5" pointer-events="none"/>
                </g>
                <g id="dirArrow">
                        <path fill="none" stroke="white" stroke-width="1.5" d="M0,-3.0v7 M-2.5,-0.5L0,-3.0L2.5,-0.5"/>
                </g>
               <g id="resetDef">
                       <use xlink:href="#rim2" fill="#404040">
                               <set attributeName="fill" to="#808080" begin="reset.mouseover" end="reset.mouseout"/>
                       </use>
               </g>
        </defs>

<script type="text/javascript">
var viewWidth = 2172;
var viewHeight = 516;
var sectionId = 'dynsection-2';
</script>
<script xlink:href="svgpan.js"/>
<svg id="graph" class="graph">
<g id="viewport">
<title>back_up_fader_if_a_fader_inside</title>
<polygon fill="white" stroke="white" points="-4,5 -4,-512 2169,-512 2169,5 -4,5"/>
<!-- Node1 -->
<g id="node1" class="node"><title>Node1</title>
<polygon fill="#bfbfbf" stroke="black" points="0.5,-221 0.5,-261 101.5,-261 101.5,-221 0.5,-221"/>
<text text-anchor="start" x="8.5" y="-248" font-family="Helvetica,sans-Serif" font-size="10.00">back_up_fader_if_a</text>
<text text-anchor="middle" x="51" y="-232" font-family="Helvetica,sans-Serif" font-size="10.00">_fader_inside</text>
</g>
<!-- Node2 -->
<g id="node3" class="node"><title>Node2</title>
<a xlink:href="banger__core__8_8cpp.html#afa98bbdb588f29b8fc94df9f7754f05f" target="_top" xlink:title="do_send_bang">
<polygon fill="white" stroke="black" points="138,-229 138,-253 218,-253 218,-229 138,-229"/>
<text text-anchor="middle" x="178" y="-240" font-family="Helvetica,sans-Serif" font-size="10.00">do_send_bang</text>
</a>
</g>
<!-- Node1&#45;&gt;Node2 -->
<g id="edge2" class="edge"><title>Node1&#45;&gt;Node2</title>
<path fill="none" stroke="midnightblue" d="M111.827,-241C120.636,-241 129.513,-241 137.78,-241"/>
<polygon fill="midnightblue" stroke="midnightblue" points="111.559,-237.5 101.559,-241 111.559,-244.5 111.559,-237.5"/>
</g>
<!-- Node3 -->
<g id="node5" class="node"><title>Node3</title>
<a xlink:href="arduino__core__6___u_n_o_8cpp.html#a219226c1cd6cc17c78e62fd4445bb445" target="_top" xlink:title="arduino_do_digital\l_in_whitecat">
<polygon fill="white" stroke="black" points="949.5,-468 949.5,-508 1044.5,-508 1044.5,-468 949.5,-468"/>
<text text-anchor="start" x="957.5" y="-495" font-family="Helvetica,sans-Serif" font-size="10.00">arduino_do_digital</text>
<text text-anchor="middle" x="997" y="-479" font-family="Helvetica,sans-Serif" font-size="10.00">_in_whitecat</text>
</a>
</g>
<!-- Node2&#45;&gt;Node3 -->
<g id="edge4" class="edge"><title>Node2&#45;&gt;Node3</title>
<path fill="none" stroke="midnightblue" d="M183.057,-263.423C191.901,-297.973 213.243,-364.465 254,-405 310.125,-460.819 336.844,-479 416,-479 416,-479 416,-479 720,-479 800.594,-479 894.308,-482.853 949.471,-485.517"/>
<polygon fill="midnightblue" stroke="midnightblue" points="186.383,-262.289 180.616,-253.401 179.582,-263.945 186.383,-262.289"/>
</g>
<!-- Node6 -->
<g id="node11" class="node"><title>Node6</title>
<a xlink:href="banger__core__8_8cpp.html#ae4008269e0575da11cc90e812961ef6f" target="_top" xlink:title="Bang_event">
<polygon fill="white" stroke="black" points="258,-229 258,-253 326,-253 326,-229 258,-229"/>
<text text-anchor="middle" x="292" y="-240" font-family="Helvetica,sans-Serif" font-size="10.00">Bang_event</text>
</a>
</g>
<!-- Node2&#45;&gt;Node6 -->
<g id="edge10" class="edge"><title>Node2&#45;&gt;Node6</title>
<path fill="none" stroke="midnightblue" d="M228.409,-241C238.357,-241 248.577,-241 257.834,-241"/>
<polygon fill="midnightblue" stroke="midnightblue" points="228.192,-237.5 218.192,-241 228.192,-244.5 228.192,-237.5"/>
</g>
<!-- Node12 -->
<g id="node25" class="node"><title>Node12</title>
<a xlink:href="i_cat14_8cpp.html#a16285241f82898e7a5f051b03d90b9a3" target="_top" xlink:title="check_button">
<polygon fill="white" stroke="black" points="521.5,-0 521.5,-24 596.5,-24 596.5,-0 521.5,-0"/>
<text text-anchor="middle" x="559" y="-11" font-family="Helvetica,sans-Serif" font-size="10.00">check_button</text>
</a>
</g>
<!-- Node2&#45;&gt;Node12 -->
<g id="edge102" class="edge"><title>Node2&#45;&gt;Node12</title>
<path fill="none" stroke="midnightblue" d="M183.078,-218.715C191.776,-185.723 212.724,-124.217 254,-91 333.474,-27.0423 459.026,-14.3449 521.339,-12.1645"/>
<polygon fill="midnightblue" stroke="midnightblue" points="179.604,-218.179 180.586,-228.728 186.397,-219.869 179.604,-218.179"/>
</g>
<!-- Node17 -->
<g id="node38" class="node"><title>Node17</title>
<a xlink:href="midi__13_8cpp.html#a6dff3d42682b58cc0a9875ee30fb4cd4" target="_top" xlink:title="do_midi_job">
<polygon fill="white" stroke="black" points="525,-300 525,-324 593,-324 593,-300 525,-300"/>
<text text-anchor="middle" x="559" y="-311" font-family="Helvetica,sans-Serif" font-size="10.00">do_midi_job</text>
</a>
</g>
<!-- Node2&#45;&gt;Node17 -->
<g id="edge108" class="edge"><title>Node2&#45;&gt;Node17</title>
<path fill="none" stroke="midnightblue" d="M211.099,-257.4C247.88,-274.645 309.548,-300.68 366,-311 420.88,-321.032 486.014,-318.438 524.849,-315.397"/>
<polygon fill="midnightblue" stroke="midnightblue" points="212.39,-254.139 201.856,-253.005 209.384,-260.46 212.39,-254.139"/>
</g>
<!-- Node34 -->
<g id="node80" class="node"><title>Node34</title>
<a xlink:href="dmx__functions__13_8cpp.html#af8fd73062784b408e1c53510c7608d74" target="_top" xlink:title="do_crossfade">
<polygon fill="white" stroke="black" points="254.5,-372 254.5,-396 329.5,-396 329.5,-372 254.5,-372"/>
<text text-anchor="middle" x="292" y="-383" font-family="Helvetica,sans-Serif" font-size="10.00">do_crossfade</text>
</a>
</g>
<!-- Node2&#45;&gt;Node34 -->
<g id="edge92" class="edge"><title>Node2&#45;&gt;Node34</title>
<path fill="none" stroke="midnightblue" d="M188.344,-261.985C201.301,-286.856 225.319,-328.623 254,-358 259.026,-363.148 265.214,-367.889 271.127,-371.874"/>
<polygon fill="midnightblue" stroke="midnightblue" points="191.444,-260.361 183.784,-253.042 185.208,-263.541 191.444,-260.361"/>
</g>
<!-- Node37 -->
<g id="node89" class="node"><title>Node37</title>
<a xlink:href="keyboard__functions2_8cpp.html#a1069ef07040abfea667ec14eeefe7e56" target="_top" xlink:title="key_go">
<polygon fill="white" stroke="black" points="268,-100 268,-124 316,-124 316,-100 268,-100"/>
<text text-anchor="middle" x="292" y="-111" font-family="Helvetica,sans-Serif" font-size="10.00">key_go</text>
</a>
</g>
<!-- Node2&#45;&gt;Node37 -->
<g id="edge104" class="edge"><title>Node2&#45;&gt;Node37</title>
<path fill="none" stroke="midnightblue" d="M195.741,-220.924C219.69,-193.824 261.621,-146.376 281.269,-124.143"/>
<polygon fill="midnightblue" stroke="midnightblue" points="192.93,-218.82 188.931,-228.631 198.175,-223.455 192.93,-218.82"/>
</g>
<!-- Node38 -->
<g id="node93" class="node"><title>Node38</title>
<a xlink:href="sequentiel__6__core_8cpp.html#a152c03ccf49d8d9a457e048daaa48023" target="_top" xlink:title="do_logical_x1_x2">
<polygon fill="white" stroke="black" points="370,-154 370,-178 462,-178 462,-154 370,-154"/>
<text text-anchor="middle" x="416" y="-165" font-family="Helvetica,sans-Serif" font-size="10.00">do_logical_x1_x2</text>
</a>
</g>
<!-- Node2&#45;&gt;Node38 -->
<g id="edge110" class="edge"><title>Node2&#45;&gt;Node38</title>
<path fill="none" stroke="midnightblue" d="M226.009,-225.871C270.753,-211.771 336.603,-191.02 377.856,-178.02"/>
<polygon fill="midnightblue" stroke="midnightblue" points="224.724,-222.606 216.239,-228.95 226.828,-229.283 224.724,-222.606"/>
</g>
<!-- Node4 -->
<g id="node7" class="node"><title>Node4</title>
<a xlink:href="_m_a_i_n__avec__objets_8cpp.html#ace9c8a9b37c6087c3cffef442d71d70e" target="_top" xlink:title="dixiemes_de_secondes">
<polygon fill="white" stroke="black" points="1088.5,-418 1088.5,-442 1207.5,-442 1207.5,-418 1088.5,-418"/>
<text text-anchor="middle" x="1148" y="-429" font-family="Helvetica,sans-Serif" font-size="10.00">dixiemes_de_secondes</text>
</a>
</g>
<!-- Node3&#45;&gt;Node4 -->
<g id="edge6" class="edge"><title>Node3&#45;&gt;Node4</title>
<path fill="none" stroke="midnightblue" d="M1054.34,-465.977C1075.51,-457.846 1098.7,-448.936 1116.71,-442.018"/>
<polygon fill="midnightblue" stroke="midnightblue" points="1052.86,-462.795 1044.78,-469.648 1055.37,-469.33 1052.86,-462.795"/>
</g>
<!-- Node5 -->
<g id="node9" class="node"><title>Node5</title>
<a xlink:href="_m_a_i_n__avec__objets_8cpp.html#ae66f6b31b5ad750f1fe042a706a4e3d4" target="_top" xlink:title="main">
<polygon fill="white" stroke="black" points="2126,-312 2126,-336 2164,-336 2164,-312 2126,-312"/>
<text text-anchor="middle" x="2145" y="-323" font-family="Helvetica,sans-Serif" font-size="10.00">main</text>
</a>
</g>
<!-- Node4&#45;&gt;Node5 -->
<g id="edge8" class="edge"><title>Node4&#45;&gt;Node5</title>
<path fill="none" stroke="midnightblue" d="M1217.83,-428.355C1270.61,-427.252 1344.85,-426 1410,-426 1410,-426 1410,-426 1906,-426 1990.63,-426 2016.29,-418.577 2090,-377 2108.48,-366.576 2125.34,-348.479 2135.39,-336.372"/>
<polygon fill="midnightblue" stroke="midnightblue" points="1217.49,-424.861 1207.57,-428.573 1217.64,-431.859 1217.49,-424.861"/>
</g>
<!-- Node7 -->
<g id="node13" class="node"><title>Node7</title>
<a xlink:href="banger__core__8_8cpp.html#a4003a08a1620546de77b118c91d2fd9d" target="_top" xlink:title="do_bang">
<polygon fill="white" stroke="black" points="389.5,-254 389.5,-278 442.5,-278 442.5,-254 389.5,-254"/>
<text text-anchor="middle" x="416" y="-265" font-family="Helvetica,sans-Serif" font-size="10.00">do_bang</text>
</a>
</g>
<!-- Node6&#45;&gt;Node7 -->
<g id="edge12" class="edge"><title>Node6&#45;&gt;Node7</title>
<path fill="none" stroke="midnightblue" d="M336.361,-249.944C354.095,-253.519 373.929,-257.518 389.367,-260.63"/>
<polygon fill="midnightblue" stroke="midnightblue" points="336.706,-246.443 326.212,-247.898 335.323,-253.305 336.706,-246.443"/>
</g>
<!-- Node9 -->
<g id="node18" class="node"><title>Node9</title>
<a xlink:href="banger__core__8_8cpp.html#a4fe16ad483c0c1609d97aeb9a23c74ee" target="_top" xlink:title="do_logical_fenetre\l_banger">
<polygon fill="white" stroke="black" points="368.5,-196 368.5,-236 463.5,-236 463.5,-196 368.5,-196"/>
<text text-anchor="start" x="376.5" y="-223" font-family="Helvetica,sans-Serif" font-size="10.00">do_logical_fenetre</text>
<text text-anchor="middle" x="416" y="-207" font-family="Helvetica,sans-Serif" font-size="10.00">_banger</text>
</a>
</g>
<!-- Node6&#45;&gt;Node9 -->
<g id="edge18" class="edge"><title>Node6&#45;&gt;Node9</title>
<path fill="none" stroke="midnightblue" d="M336.336,-232.061C346.751,-229.961 357.892,-227.715 368.442,-225.588"/>
<polygon fill="midnightblue" stroke="midnightblue" points="335.323,-228.695 326.212,-234.102 336.706,-235.557 335.323,-228.695"/>
</g>
<!-- Node11 -->
<g id="node23" class="node"><title>Node11</title>
<a xlink:href="banger__core__8_8cpp.html#ab405ab53ea444b049e5ffa258498fcb6" target="_top" xlink:title="refresh_banger_wx">
<polygon fill="white" stroke="black" points="366.5,-112 366.5,-136 465.5,-136 465.5,-112 366.5,-112"/>
<text text-anchor="middle" x="416" y="-123" font-family="Helvetica,sans-Serif" font-size="10.00">refresh_banger_wx</text>
</a>
</g>
<!-- Node6&#45;&gt;Node11 -->
<g id="edge24" class="edge"><title>Node6&#45;&gt;Node11</title>
<path fill="none" stroke="midnightblue" d="M303.671,-220.094C316.519,-198.72 338.979,-165.793 366,-145 370.477,-141.555 375.602,-138.571 380.825,-136.022"/>
<polygon fill="midnightblue" stroke="midnightblue" points="300.638,-218.346 298.615,-228.746 306.682,-221.878 300.638,-218.346"/>
</g>
<!-- Node6&#45;&gt;Node17 -->
<g id="edge90" class="edge"><title>Node6&#45;&gt;Node17</title>
<path fill="none" stroke="midnightblue" d="M315.6,-259.32C329.508,-269.15 347.883,-280.541 366,-287 419.306,-306.006 485.48,-310.843 524.863,-311.917"/>
<polygon fill="midnightblue" stroke="midnightblue" points="317.294,-256.223 307.154,-253.154 313.166,-261.877 317.294,-256.223"/>
</g>
<!-- Node8 -->
<g id="node15" class="node"><title>Node8</title>
<a xlink:href="_m_a_i_n__avec__objets_8cpp.html#a8e80f54ac804eddce8ed6e45adb1db44" target="_top" xlink:title="ticker_full_loop">
<polygon fill="white" stroke="black" points="824,-182 824,-206 906,-206 906,-182 824,-182"/>
<text text-anchor="middle" x="865" y="-193" font-family="Helvetica,sans-Serif" font-size="10.00">ticker_full_loop</text>
</a>
</g>
<!-- Node7&#45;&gt;Node8 -->
<g id="edge14" class="edge"><title>Node7&#45;&gt;Node8</title>
<path fill="none" stroke="midnightblue" d="M452.646,-264.735C519.958,-261.76 667.445,-252.2 788,-223 804.938,-218.897 823.219,-212.119 837.717,-206.147"/>
<polygon fill="midnightblue" stroke="midnightblue" points="452.392,-261.243 442.547,-265.158 452.685,-268.237 452.392,-261.243"/>
</g>
<!-- Node8&#45;&gt;Node5 -->
<g id="edge16" class="edge"><title>Node8&#45;&gt;Node5</title>
<path fill="none" stroke="midnightblue" d="M916.324,-199.231C972.975,-204.545 1066.89,-212 1148,-212 1148,-212 1148,-212 1906,-212 1990.98,-212 2017.65,-219.427 2090,-264 2109.97,-276.304 2127.17,-297.879 2136.79,-311.529"/>
<polygon fill="midnightblue" stroke="midnightblue" points="916.478,-195.73 906.191,-198.266 915.815,-202.698 916.478,-195.73"/>
</g>
<!-- Node10 -->
<g id="node20" class="node"><title>Node10</title>
<a xlink:href="procs__visuels__rebuild1_8cpp.html#ae710b6e599e321ad5934a90140067054" target="_top" xlink:title="check_graphics_mouse\l_handling">
<polygon fill="white" stroke="black" points="660.5,-174 660.5,-214 779.5,-214 779.5,-174 660.5,-174"/>
<text text-anchor="start" x="668.5" y="-201" font-family="Helvetica,sans-Serif" font-size="10.00">check_graphics_mouse</text>
<text text-anchor="middle" x="720" y="-185" font-family="Helvetica,sans-Serif" font-size="10.00">_handling</text>
</a>
</g>
<!-- Node9&#45;&gt;Node10 -->
<g id="edge20" class="edge"><title>Node9&#45;&gt;Node10</title>
<path fill="none" stroke="midnightblue" d="M473.916,-217.66C513.925,-218.188 568.311,-217.681 616,-213 630.431,-211.583 645.859,-209.232 660.295,-206.657"/>
<polygon fill="midnightblue" stroke="midnightblue" points="473.863,-214.158 463.809,-217.5 473.753,-221.158 473.863,-214.158"/>
</g>
<!-- Node10&#45;&gt;Node8 -->
<g id="edge22" class="edge"><title>Node10&#45;&gt;Node8</title>
<path fill="none" stroke="midnightblue" d="M789.971,-194C801.588,-194 813.292,-194 823.888,-194"/>
<polygon fill="midnightblue" stroke="midnightblue" points="789.814,-190.5 779.814,-194 789.814,-197.5 789.814,-190.5"/>
</g>
<!-- Node11&#45;&gt;Node12 -->
<g id="edge26" class="edge"><title>Node11&#45;&gt;Node12</title>
<path fill="none" stroke="midnightblue" d="M439.658,-105.471C469.064,-82.4392 518.42,-43.7829 543.443,-24.1841"/>
<polygon fill="midnightblue" stroke="midnightblue" points="437.29,-102.879 431.576,-111.801 441.607,-108.39 437.29,-102.879"/>
</g>
<!-- Node14 -->
<g id="node30" class="node"><title>Node14</title>
<a xlink:href="keyboard__functions2_8cpp.html#af3dd6697323b10b480719c1612bcf29a" target="_top" xlink:title="key_backward">
<polygon fill="white" stroke="black" points="519,-80 519,-104 599,-104 599,-80 519,-80"/>
<text text-anchor="middle" x="559" y="-91" font-family="Helvetica,sans-Serif" font-size="10.00">key_backward</text>
</a>
</g>
<!-- Node11&#45;&gt;Node14 -->
<g id="edge32" class="edge"><title>Node11&#45;&gt;Node14</title>
<path fill="none" stroke="midnightblue" d="M475.586,-110.666C490.193,-107.397 505.482,-103.976 518.923,-100.968"/>
<polygon fill="midnightblue" stroke="midnightblue" points="474.607,-107.298 465.613,-112.898 476.136,-114.129 474.607,-107.298"/>
</g>
<!-- Node16 -->
<g id="node35" class="node"><title>Node16</title>
<a xlink:href="keyboard__functions2_8cpp.html#a6b73a3669797504ce2e357d9a8b9a2c2" target="_top" xlink:title="key_forward">
<polygon fill="white" stroke="black" points="524,-122 524,-146 594,-146 594,-122 524,-122"/>
<text text-anchor="middle" x="559" y="-133" font-family="Helvetica,sans-Serif" font-size="10.00">key_forward</text>
</a>
</g>
<!-- Node11&#45;&gt;Node16 -->
<g id="edge38" class="edge"><title>Node11&#45;&gt;Node16</title>
<path fill="none" stroke="midnightblue" d="M475.687,-128.174C492.095,-129.321 509.356,-130.528 523.885,-131.544"/>
<polygon fill="midnightblue" stroke="midnightblue" points="475.833,-124.676 465.613,-127.469 475.345,-131.659 475.833,-124.676"/>
</g>
<!-- Node11&#45;&gt;Node17 -->
<g id="edge42" class="edge"><title>Node11&#45;&gt;Node17</title>
<path fill="none" stroke="midnightblue" d="M461.842,-141.582C463.294,-142.66 464.686,-143.799 466,-145 491.235,-168.077 485.466,-183.067 502,-213 519.452,-244.596 540.899,-281.304 551.84,-299.886"/>
<polygon fill="midnightblue" stroke="midnightblue" points="463.334,-138.387 453.001,-136.046 459.618,-144.319 463.334,-138.387"/>
</g>
<!-- Node33 -->
<g id="node76" class="node"><title>Node33</title>
<a xlink:href="sequentiel__6__core_8cpp.html#a2a71c851cf25565491dd10423bc80380" target="_top" xlink:title="do_logical_Sequenciel\l_Window">
<polygon fill="white" stroke="black" points="502.5,-164 502.5,-204 615.5,-204 615.5,-164 502.5,-164"/>
<text text-anchor="start" x="510.5" y="-191" font-family="Helvetica,sans-Serif" font-size="10.00">do_logical_Sequenciel</text>
<text text-anchor="middle" x="559" y="-175" font-family="Helvetica,sans-Serif" font-size="10.00">_Window</text>
</a>
</g>
<!-- Node11&#45;&gt;Node33 -->
<g id="edge86" class="edge"><title>Node11&#45;&gt;Node33</title>
<path fill="none" stroke="midnightblue" d="M454.277,-140.06C471.787,-147.407 492.715,-156.188 511.243,-163.962"/>
<polygon fill="midnightblue" stroke="midnightblue" points="455.514,-136.784 444.938,-136.142 452.805,-143.238 455.514,-136.784"/>
</g>
<!-- Node13 -->
<g id="node27" class="node"><title>Node13</title>
<a xlink:href="i_cat14_8cpp.html#aa9772b548765a631d4bae1c14053b4e1" target="_top" xlink:title="DoJobFantastickTouch">
<polygon fill="white" stroke="black" points="661.5,-20 661.5,-44 778.5,-44 778.5,-20 661.5,-20"/>
<text text-anchor="middle" x="720" y="-31" font-family="Helvetica,sans-Serif" font-size="10.00">DoJobFantastickTouch</text>
</a>
</g>
<!-- Node12&#45;&gt;Node13 -->
<g id="edge28" class="edge"><title>Node12&#45;&gt;Node13</title>
<path fill="none" stroke="midnightblue" d="M607.039,-17.9676C624.111,-20.0883 643.521,-22.4996 661.378,-24.7178"/>
<polygon fill="midnightblue" stroke="midnightblue" points="607.103,-14.4487 596.747,-16.6891 606.24,-21.3953 607.103,-14.4487"/>
</g>
<!-- Node13&#45;&gt;Node8 -->
<g id="edge30" class="edge"><title>Node13&#45;&gt;Node8</title>
<path fill="none" stroke="midnightblue" d="M743.034,-50.7718C756.693,-62.354 774.013,-77.8494 788,-93 815.67,-122.972 843.56,-162.37 856.902,-181.919"/>
<polygon fill="midnightblue" stroke="midnightblue" points="744.981,-47.8367 735.065,-44.104 740.489,-53.2054 744.981,-47.8367"/>
</g>
<!-- Node15 -->
<g id="node32" class="node"><title>Node15</title>
<a xlink:href="keyboard__routines2_8cpp.html#a8563320b8eab661232619224650de244" target="_top" xlink:title="commandes_clavier">
<polygon fill="white" stroke="black" points="668,-102 668,-126 772,-126 772,-102 668,-102"/>
<text text-anchor="middle" x="720" y="-113" font-family="Helvetica,sans-Serif" font-size="10.00">commandes_clavier</text>
</a>
</g>
<!-- Node14&#45;&gt;Node15 -->
<g id="edge34" class="edge"><title>Node14&#45;&gt;Node15</title>
<path fill="none" stroke="midnightblue" d="M609.27,-98.8692C627.898,-101.415 649.053,-104.305 667.845,-106.873"/>
<polygon fill="midnightblue" stroke="midnightblue" points="609.594,-95.381 599.212,-97.4948 608.646,-102.317 609.594,-95.381"/>
</g>
<!-- Node15&#45;&gt;Node8 -->
<g id="edge36" class="edge"><title>Node15&#45;&gt;Node8</title>
<path fill="none" stroke="midnightblue" d="M750.926,-131.062C778.686,-146.379 818.73,-168.472 843.245,-181.998"/>
<polygon fill="midnightblue" stroke="midnightblue" points="752.469,-127.917 742.022,-126.15 749.087,-134.046 752.469,-127.917"/>
</g>
<!-- Node16&#45;&gt;Node15 -->
<g id="edge40" class="edge"><title>Node16&#45;&gt;Node15</title>
<path fill="none" stroke="midnightblue" d="M604.326,-128.37C624.115,-125.911 647.436,-123.014 667.934,-120.468"/>
<polygon fill="midnightblue" stroke="midnightblue" points="603.824,-124.905 594.332,-129.611 604.687,-131.851 603.824,-124.905"/>
</g>
<!-- Node18 -->
<g id="node40" class="node"><title>Node18</title>
<a xlink:href="midi__13_8cpp.html#a6bedf9750195224914cd87c4e73ab626" target="_top" xlink:title="ventilate_midi_to_midiarray">
<polygon fill="white" stroke="black" points="652.5,-301 652.5,-325 787.5,-325 787.5,-301 652.5,-301"/>
<text text-anchor="middle" x="720" y="-312" font-family="Helvetica,sans-Serif" font-size="10.00">ventilate_midi_to_midiarray</text>
</a>
</g>
<!-- Node17&#45;&gt;Node18 -->
<g id="edge44" class="edge"><title>Node17&#45;&gt;Node18</title>
<path fill="none" stroke="midnightblue" d="M603.272,-312.275C618.455,-312.369 635.811,-312.477 652.414,-312.58"/>
<polygon fill="midnightblue" stroke="midnightblue" points="603.166,-308.774 593.144,-312.212 603.122,-315.774 603.166,-308.774"/>
</g>
<!-- Node19 -->
<g id="node42" class="node"><title>Node19</title>
<a xlink:href="midi__13_8cpp.html#afa49dd5668303c2448676c8243737c2d" target="_top" xlink:title="simulate_midi">
<polygon fill="white" stroke="black" points="826.5,-418 826.5,-442 903.5,-442 903.5,-418 826.5,-418"/>
<text text-anchor="middle" x="865" y="-429" font-family="Helvetica,sans-Serif" font-size="10.00">simulate_midi</text>
</a>
</g>
<!-- Node18&#45;&gt;Node19 -->
<g id="edge46" class="edge"><title>Node18&#45;&gt;Node19</title>
<path fill="none" stroke="midnightblue" d="M742.792,-331.391C772.709,-355.53 824.402,-397.241 849.893,-417.81"/>
<polygon fill="midnightblue" stroke="midnightblue" points="744.952,-328.636 734.971,-325.08 740.556,-334.084 744.952,-328.636"/>
</g>
<!-- Node21 -->
<g id="node48" class="node"><title>Node21</title>
<a xlink:href="midi__13_8cpp.html#a4104c2ae7e71376ad9dc78929450dc51" target="_top" xlink:title="EvAquire">
<polygon fill="white" stroke="black" points="837,-301 837,-325 893,-325 893,-301 837,-301"/>
<text text-anchor="middle" x="865" y="-312" font-family="Helvetica,sans-Serif" font-size="10.00">EvAquire</text>
</a>
</g>
<!-- Node18&#45;&gt;Node21 -->
<g id="edge54" class="edge"><title>Node18&#45;&gt;Node21</title>
<path fill="none" stroke="midnightblue" d="M797.947,-313C811.817,-313 825.419,-313 836.708,-313"/>
<polygon fill="midnightblue" stroke="midnightblue" points="797.83,-309.5 787.83,-313 797.83,-316.5 797.83,-309.5"/>
</g>
<!-- Node19&#45;&gt;Node3 -->
<g id="edge52" class="edge"><title>Node19&#45;&gt;Node3</title>
<path fill="none" stroke="midnightblue" d="M901.539,-446.055C916.918,-452.812 934.982,-460.75 951.234,-467.891"/>
<polygon fill="midnightblue" stroke="midnightblue" points="902.914,-442.836 892.35,-442.018 900.098,-449.245 902.914,-442.836"/>
</g>
<!-- Node20 -->
<g id="node44" class="node"><title>Node20</title>
<a xlink:href="arduino__core__6___u_n_o_8cpp.html#ae72d1a8d74d9ab5515962e03e7e664d6" target="_top" xlink:title="arduino_do_analog_in\l_whitecat">
<polygon fill="white" stroke="black" points="942,-410 942,-450 1052,-450 1052,-410 942,-410"/>
<text text-anchor="start" x="950" y="-437" font-family="Helvetica,sans-Serif" font-size="10.00">arduino_do_analog_in</text>
<text text-anchor="middle" x="997" y="-421" font-family="Helvetica,sans-Serif" font-size="10.00">_whitecat</text>
</a>
</g>
<!-- Node19&#45;&gt;Node20 -->
<g id="edge48" class="edge"><title>Node19&#45;&gt;Node20</title>
<path fill="none" stroke="midnightblue" d="M913.687,-430C922.899,-430 932.596,-430 941.986,-430"/>
<polygon fill="midnightblue" stroke="midnightblue" points="913.535,-426.5 903.535,-430 913.535,-433.5 913.535,-426.5"/>
</g>
<!-- Node20&#45;&gt;Node4 -->
<g id="edge50" class="edge"><title>Node20&#45;&gt;Node4</title>
<path fill="none" stroke="midnightblue" d="M1062.38,-430C1071,-430 1079.8,-430 1088.32,-430"/>
<polygon fill="midnightblue" stroke="midnightblue" points="1062.37,-426.5 1052.37,-430 1062.37,-433.5 1062.37,-426.5"/>
</g>
<!-- Node22 -->
<g id="node50" class="node"><title>Node22</title>
<a xlink:href="midi__13_8cpp.html#a831f1dfc7870ae4f6c64a0e65fbaf3ff" target="_top" xlink:title="Display">
<polygon fill="white" stroke="black" points="972,-301 972,-325 1022,-325 1022,-301 972,-301"/>
<text text-anchor="middle" x="997" y="-312" font-family="Helvetica,sans-Serif" font-size="10.00">Display</text>
</a>
</g>
<!-- Node21&#45;&gt;Node22 -->
<g id="edge56" class="edge"><title>Node21&#45;&gt;Node22</title>
<path fill="none" stroke="midnightblue" d="M903.366,-313C925.419,-313 952.496,-313 971.849,-313"/>
<polygon fill="midnightblue" stroke="midnightblue" points="903.317,-309.5 893.317,-313 903.317,-316.5 903.317,-309.5"/>
</g>
<!-- Node23 -->
<g id="node52" class="node"><title>Node23</title>
<a xlink:href="midi__13_8cpp.html#aa4aeee5088a4a5462566dfee5c9cc71f" target="_top" xlink:title="DisplayTask">
<polygon fill="white" stroke="black" points="1112.5,-308 1112.5,-332 1183.5,-332 1183.5,-308 1112.5,-308"/>
<text text-anchor="middle" x="1148" y="-319" font-family="Helvetica,sans-Serif" font-size="10.00">DisplayTask</text>
</a>
</g>
<!-- Node22&#45;&gt;Node23 -->
<g id="edge58" class="edge"><title>Node22&#45;&gt;Node23</title>
<path fill="none" stroke="midnightblue" d="M1032.42,-314.642C1056.53,-315.76 1088.32,-317.233 1112.46,-318.352"/>
<polygon fill="midnightblue" stroke="midnightblue" points="1032.43,-311.139 1022.27,-314.172 1032.1,-318.131 1032.43,-311.139"/>
</g>
<!-- Node25 -->
<g id="node57" class="node"><title>Node25</title>
<a xlink:href="midi___c_o_r_e_8cpp.html#a6fcb4c2efe85f50488d7aeeef1fc0a3e" target="_top" xlink:title="ReceiveEvents">
<polygon fill="white" stroke="black" points="1106.5,-266 1106.5,-290 1189.5,-290 1189.5,-266 1106.5,-266"/>
<text text-anchor="middle" x="1148" y="-277" font-family="Helvetica,sans-Serif" font-size="10.00">ReceiveEvents</text>
</a>
</g>
<!-- Node22&#45;&gt;Node25 -->
<g id="edge64" class="edge"><title>Node22&#45;&gt;Node25</title>
<path fill="none" stroke="midnightblue" d="M1032.26,-304.827C1054.42,-299.692 1083.1,-293.043 1106.37,-287.649"/>
<polygon fill="midnightblue" stroke="midnightblue" points="1031.23,-301.474 1022.27,-307.142 1032.81,-308.293 1031.23,-301.474"/>
</g>
<!-- Node24 -->
<g id="node54" class="node"><title>Node24</title>
<a xlink:href="midi___c_o_r_e_8cpp.html#a7d0f82d882071792d6a2df51ef13ec55" target="_top" xlink:title="ReceivePolling">
<polygon fill="white" stroke="black" points="1244,-308 1244,-332 1326,-332 1326,-308 1244,-308"/>
<text text-anchor="middle" x="1285" y="-319" font-family="Helvetica,sans-Serif" font-size="10.00">ReceivePolling</text>
</a>
</g>
<!-- Node23&#45;&gt;Node24 -->
<g id="edge60" class="edge"><title>Node23&#45;&gt;Node24</title>
<path fill="none" stroke="midnightblue" d="M1193.91,-320C1210.02,-320 1228.01,-320 1243.72,-320"/>
<polygon fill="midnightblue" stroke="midnightblue" points="1193.64,-316.5 1183.64,-320 1193.64,-323.5 1193.64,-316.5"/>
</g>
<!-- Node24&#45;&gt;Node24 -->
<g id="edge62" class="edge"><title>Node24&#45;&gt;Node24</title>
<path fill="none" stroke="midnightblue" d="M1262.51,-342.001C1264.81,-346.647 1272.31,-350 1285,-350 1305.83,-350 1312.66,-340.972 1305.5,-332.014"/>
<polygon fill="midnightblue" stroke="midnightblue" points="1265.98,-342.504 1264.5,-332.014 1259.12,-341.14 1265.98,-342.504"/>
</g>
<!-- Node25&#45;&gt;Node24 -->
<g id="edge66" class="edge"><title>Node25&#45;&gt;Node24</title>
<path fill="none" stroke="midnightblue" d="M1196.99,-293.018C1212.99,-297.924 1230.54,-303.305 1245.74,-307.963"/>
<polygon fill="midnightblue" stroke="midnightblue" points="1197.85,-289.62 1187.26,-290.036 1195.79,-296.313 1197.85,-289.62"/>
</g>
<!-- Node26 -->
<g id="node60" class="node"><title>Node26</title>
<a xlink:href="midi___c_o_r_e_8cpp.html#a0ccf480a33424e626f88d109d53d8366" target="_top" xlink:title="InitMidi">
<polygon fill="white" stroke="black" points="1261,-266 1261,-290 1309,-290 1309,-266 1261,-266"/>
<text text-anchor="middle" x="1285" y="-277" font-family="Helvetica,sans-Serif" font-size="10.00">InitMidi</text>
</a>
</g>
<!-- Node25&#45;&gt;Node26 -->
<g id="edge68" class="edge"><title>Node25&#45;&gt;Node26</title>
<path fill="none" stroke="midnightblue" d="M1199.93,-278C1220.89,-278 1244.06,-278 1260.92,-278"/>
<polygon fill="midnightblue" stroke="midnightblue" points="1199.85,-274.5 1189.85,-278 1199.85,-281.5 1199.85,-274.5"/>
</g>
<!-- Node26&#45;&gt;Node5 -->
<g id="edge70" class="edge"><title>Node26&#45;&gt;Node5</title>
<path fill="none" stroke="midnightblue" d="M1319.41,-274.639C1367.74,-270.217 1458.48,-263 1536,-263 1536,-263 1536,-263 1906,-263 1990.15,-263 2085.93,-298.94 2125.91,-315.646"/>
<polygon fill="midnightblue" stroke="midnightblue" points="1318.83,-271.178 1309.2,-275.59 1319.48,-278.148 1318.83,-271.178"/>
</g>
<!-- Node27 -->
<g id="node63" class="node"><title>Node27</title>
<a xlink:href="midi__13_8cpp.html#ac7a306aa81e374b447e7341d4d3a3eea" target="_top" xlink:title="midipage_devices">
<polygon fill="white" stroke="black" points="1362.5,-291 1362.5,-315 1457.5,-315 1457.5,-291 1362.5,-291"/>
<text text-anchor="middle" x="1410" y="-302" font-family="Helvetica,sans-Serif" font-size="10.00">midipage_devices</text>
</a>
</g>
<!-- Node26&#45;&gt;Node27 -->
<g id="edge72" class="edge"><title>Node26&#45;&gt;Node27</title>
<path fill="none" stroke="midnightblue" d="M1319.25,-284.851C1332.57,-287.514 1348.05,-290.611 1362.42,-293.484"/>
<polygon fill="midnightblue" stroke="midnightblue" points="1319.59,-281.349 1309.1,-282.82 1318.22,-288.214 1319.59,-281.349"/>
</g>
<!-- Node28 -->
<g id="node65" class="node"><title>Node28</title>
<a xlink:href="midi__13_8cpp.html#a8f70acacad6eaba8867bdd80dda5e277" target="_top" xlink:title="do_midi_config">
<polygon fill="white" stroke="black" points="1495,-291 1495,-315 1577,-315 1577,-291 1495,-291"/>
<text text-anchor="middle" x="1536" y="-302" font-family="Helvetica,sans-Serif" font-size="10.00">do_midi_config</text>
</a>
</g>
<!-- Node27&#45;&gt;Node28 -->
<g id="edge74" class="edge"><title>Node27&#45;&gt;Node28</title>
<path fill="none" stroke="midnightblue" d="M1467.84,-303C1476.97,-303 1486.25,-303 1494.9,-303"/>
<polygon fill="midnightblue" stroke="midnightblue" points="1467.64,-299.5 1457.64,-303 1467.64,-306.5 1467.64,-299.5"/>
</g>
<!-- Node29 -->
<g id="node67" class="node"><title>Node29</title>
<a xlink:href="_c_f_g__config__panel__8_8cpp.html#ad39c46e2fb3a3ba7ea0460140ead4f96" target="_top" xlink:title="do_panel_config">
<polygon fill="white" stroke="black" points="1614.5,-312 1614.5,-336 1701.5,-336 1701.5,-312 1614.5,-312"/>
<text text-anchor="middle" x="1658" y="-323" font-family="Helvetica,sans-Serif" font-size="10.00">do_panel_config</text>
</a>
</g>
<!-- Node28&#45;&gt;Node29 -->
<g id="edge76" class="edge"><title>Node28&#45;&gt;Node29</title>
<path fill="none" stroke="midnightblue" d="M1587.27,-311.824C1596.23,-313.368 1605.49,-314.962 1614.24,-316.467"/>
<polygon fill="midnightblue" stroke="midnightblue" points="1587.75,-308.357 1577.3,-310.11 1586.56,-315.255 1587.75,-308.357"/>
</g>
<!-- Node30 -->
<g id="node69" class="node"><title>Node30</title>
<a xlink:href="_c_f_g__config__panel__8_8cpp.html#a7968da66bccdba8b864caf6c8435f68e" target="_top" xlink:title="config_general_menu">
<polygon fill="white" stroke="black" points="1738.5,-312 1738.5,-336 1847.5,-336 1847.5,-312 1738.5,-312"/>
<text text-anchor="middle" x="1793" y="-323" font-family="Helvetica,sans-Serif" font-size="10.00">config_general_menu</text>
</a>
</g>
<!-- Node29&#45;&gt;Node30 -->
<g id="edge78" class="edge"><title>Node29&#45;&gt;Node30</title>
<path fill="none" stroke="midnightblue" d="M1712.07,-324C1720.62,-324 1729.47,-324 1738.04,-324"/>
<polygon fill="midnightblue" stroke="midnightblue" points="1711.83,-320.5 1701.83,-324 1711.83,-327.5 1711.83,-320.5"/>
</g>
<!-- Node31 -->
<g id="node71" class="node"><title>Node31</title>
<a xlink:href="graphics__rebuild1_8cpp.html#ac2eae1e03fb72cc734ffbcef566483bf" target="_top" xlink:title="Boxes">
<polygon fill="white" stroke="black" points="1884,-312 1884,-336 1928,-336 1928,-312 1884,-312"/>
<text text-anchor="middle" x="1906" y="-323" font-family="Helvetica,sans-Serif" font-size="10.00">Boxes</text>
</a>
</g>
<!-- Node30&#45;&gt;Node31 -->
<g id="edge80" class="edge"><title>Node30&#45;&gt;Node31</title>
<path fill="none" stroke="midnightblue" d="M1857.75,-324C1867.11,-324 1876.17,-324 1883.86,-324"/>
<polygon fill="midnightblue" stroke="midnightblue" points="1857.51,-320.5 1847.51,-324 1857.51,-327.5 1857.51,-320.5"/>
</g>
<!-- Node32 -->
<g id="node73" class="node"><title>Node32</title>
<a xlink:href="_m_a_i_n__avec__objets_8cpp.html#ade8d4ba65d55c94f8ee277829d722155" target="_top" xlink:title="main_actions_on_screen">
<polygon fill="white" stroke="black" points="1964.5,-312 1964.5,-336 2089.5,-336 2089.5,-312 1964.5,-312"/>
<text text-anchor="middle" x="2027" y="-323" font-family="Helvetica,sans-Serif" font-size="10.00">main_actions_on_screen</text>
</a>
</g>
<!-- Node31&#45;&gt;Node32 -->
<g id="edge82" class="edge"><title>Node31&#45;&gt;Node32</title>
<path fill="none" stroke="midnightblue" d="M1938.24,-324C1946.32,-324 1955.26,-324 1964.27,-324"/>
<polygon fill="midnightblue" stroke="midnightblue" points="1938.19,-320.5 1928.19,-324 1938.19,-327.5 1938.19,-320.5"/>
</g>
<!-- Node32&#45;&gt;Node5 -->
<g id="edge84" class="edge"><title>Node32&#45;&gt;Node5</title>
<path fill="none" stroke="midnightblue" d="M2099.84,-324C2109.34,-324 2118.33,-324 2125.75,-324"/>
<polygon fill="midnightblue" stroke="midnightblue" points="2099.8,-320.5 2089.8,-324 2099.8,-327.5 2099.8,-320.5"/>
</g>
<!-- Node33&#45;&gt;Node10 -->
<g id="edge88" class="edge"><title>Node33&#45;&gt;Node10</title>
<path fill="none" stroke="midnightblue" d="M625.757,-188.146C637.271,-188.862 649.171,-189.601 660.478,-190.303"/>
<polygon fill="midnightblue" stroke="midnightblue" points="625.96,-184.652 615.763,-187.526 625.526,-191.639 625.96,-184.652"/>
</g>
<!-- Node35 -->
<g id="node82" class="node"><title>Node35</title>
<a xlink:href="_m_a_i_n__avec__objets_8cpp.html#a6a015280c1363331ada8a329be6eb7c8" target="_top" xlink:title="ticker">
<polygon fill="white" stroke="black" points="1389.5,-370 1389.5,-394 1430.5,-394 1430.5,-370 1389.5,-370"/>
<text text-anchor="middle" x="1410" y="-381" font-family="Helvetica,sans-Serif" font-size="10.00">ticker</text>
</a>
</g>
<!-- Node34&#45;&gt;Node35 -->
<g id="edge94" class="edge"><title>Node34&#45;&gt;Node35</title>
<path fill="none" stroke="midnightblue" d="M339.779,-383.427C393.201,-382.836 482.296,-382 559,-382 559,-382 559,-382 1148,-382 1237.84,-382 1345,-382 1389.28,-382"/>
<polygon fill="midnightblue" stroke="midnightblue" points="339.544,-379.929 329.584,-383.541 339.623,-386.928 339.544,-379.929"/>
</g>
<!-- Node35&#45;&gt;Node5 -->
<g id="edge100" class="edge"><title>Node35&#45;&gt;Node5</title>
<path fill="none" stroke="midnightblue" d="M1440.67,-382.609C1487.51,-383.486 1579.7,-385 1658,-385 1658,-385 1658,-385 1906,-385 1990.15,-385 2085.93,-349.06 2125.91,-332.354"/>
<polygon fill="midnightblue" stroke="midnightblue" points="1440.64,-379.108 1430.58,-382.417 1440.51,-386.107 1440.64,-379.108"/>
</g>
<!-- Node36 -->
<g id="node84" class="node"><title>Node36</title>
<a xlink:href="_c_f_g__config__panel__8_8cpp.html#aff76db94408106be22f658a05f17831a" target="_top" xlink:title="do_core_config">
<polygon fill="white" stroke="black" points="1494.5,-333 1494.5,-357 1577.5,-357 1577.5,-333 1494.5,-333"/>
<text text-anchor="middle" x="1536" y="-344" font-family="Helvetica,sans-Serif" font-size="10.00">do_core_config</text>
</a>
</g>
<!-- Node35&#45;&gt;Node36 -->
<g id="edge96" class="edge"><title>Node35&#45;&gt;Node36</title>
<path fill="none" stroke="midnightblue" d="M1440.17,-373.14C1456.63,-368.308 1477.22,-362.259 1495.1,-357.009"/>
<polygon fill="midnightblue" stroke="midnightblue" points="1439.13,-369.797 1430.52,-375.973 1441.11,-376.514 1439.13,-369.797"/>
</g>
<!-- Node36&#45;&gt;Node29 -->
<g id="edge98" class="edge"><title>Node36&#45;&gt;Node29</title>
<path fill="none" stroke="midnightblue" d="M1587.59,-336.12C1596.53,-334.58 1605.76,-332.993 1614.46,-331.494"/>
<polygon fill="midnightblue" stroke="midnightblue" points="1586.91,-332.686 1577.64,-337.832 1588.09,-339.585 1586.91,-332.686"/>
</g>
<!-- Node37&#45;&gt;Node15 -->
<g id="edge106" class="edge"><title>Node37&#45;&gt;Node15</title>
<path fill="none" stroke="midnightblue" d="M325.749,-100.636C384.932,-82.2822 511.12,-50.1731 616,-71 645.704,-76.8986 677.564,-91.4178 698.08,-101.956"/>
<polygon fill="midnightblue" stroke="midnightblue" points="324.644,-97.3149 316.167,-103.671 326.757,-103.988 324.644,-97.3149"/>
</g>
<!-- Node38&#45;&gt;Node33 -->
<g id="edge112" class="edge"><title>Node38&#45;&gt;Node33</title>
<path fill="none" stroke="midnightblue" d="M472.164,-173.07C482.061,-174.315 492.37,-175.613 502.282,-176.861"/>
<polygon fill="midnightblue" stroke="midnightblue" points="472.392,-169.571 462.033,-171.794 471.518,-176.516 472.392,-169.571"/>
</g>
</g>
</svg>
        <g id="navigator" transform="translate(0 0)" fill="#404254">
                <rect fill="#f2f5e9" fill-opacity="0.5" stroke="#606060" stroke-width=".5" x="0" y="0" width="60" height="60"/>
                <use id="zoomplus" xlink:href="#zoomPlus" x="17" y="9" onmousedown="handleZoom(evt,'in')"/>
                <use id="zoomminus" xlink:href="#zoomMin" x="42" y="9" onmousedown="handleZoom(evt,'out')"/>
                <use id="reset" xlink:href="#resetDef" x="30" y="36" onmousedown="handleReset()"/>
                <g id="arrowUp" xlink:href="#dirArrow" transform="translate(30 24)" onmousedown="handlePan(0,-1)">
                  <use xlink:href="#rim" fill="#404040">
                        <set attributeName="fill" to="#808080" begin="arrowUp.mouseover" end="arrowUp.mouseout"/>
                  </use>
                  <path fill="none" stroke="white" stroke-width="1.5" d="M0,-3.0v7 M-2.5,-0.5L0,-3.0L2.5,-0.5"/>
                </g>
                <g id="arrowRight" xlink:href="#dirArrow" transform="rotate(90) translate(36 -43)" onmousedown="handlePan(1,0)">
                  <use xlink:href="#rim" fill="#404040">
                        <set attributeName="fill" to="#808080" begin="arrowRight.mouseover" end="arrowRight.mouseout"/>
                  </use>
                  <path fill="none" stroke="white" stroke-width="1.5" d="M0,-3.0v7 M-2.5,-0.5L0,-3.0L2.5,-0.5"/>
                </g>
                <g id="arrowDown" xlink:href="#dirArrow" transform="rotate(180) translate(-30 -48)" onmousedown="handlePan(0,1)">
                  <use xlink:href="#rim" fill="#404040">
                        <set attributeName="fill" to="#808080" begin="arrowDown.mouseover" end="arrowDown.mouseout"/>
                  </use>
                  <path fill="none" stroke="white" stroke-width="1.5" d="M0,-3.0v7 M-2.5,-0.5L0,-3.0L2.5,-0.5"/>
                </g>
                <g id="arrowLeft" xlink:href="#dirArrow" transform="rotate(270) translate(-36 17)" onmousedown="handlePan(-1,0)">
                  <use xlink:href="#rim" fill="#404040">
                        <set attributeName="fill" to="#808080" begin="arrowLeft.mouseover" end="arrowLeft.mouseout"/>
                  </use>
                  <path fill="none" stroke="white" stroke-width="1.5" d="M0,-3.0v7 M-2.5,-0.5L0,-3.0L2.5,-0.5"/>
                </g>
        </g>
        <svg viewBox="0 0 15 15" width="100%" height="30px" preserveAspectRatio="xMaxYMin meet">
         <g id="arrow_out" transform="scale(0.3 0.3)">
          <a xlink:href="banger__core__8_8cpp_ae0c6d738503a7f8bea4a0881fd15e7fb_icgraph_org.svg" target="_base">
           <rect id="button" ry="5" rx="5" y="6" x="6" height="38" width="38"
                fill="#f2f5e9" fill-opacity="0.5" stroke="#606060" stroke-width="1.0"/>
           <path id="arrow"
             d="M 11.500037,31.436501 C 11.940474,20.09759 22.043105,11.32322 32.158766,21.979434 L 37.068811,17.246167 C 37.068811,17.246167 37.088388,32 37.088388,32 L 22.160133,31.978069 C 22.160133,31.978069 26.997745,27.140456 26.997745,27.140456 C 18.528582,18.264221 13.291696,25.230495 11.500037,31.436501 z"
             style="fill:#404040;"/>
          </a>
         </g>
        </svg>
</svg>
