<?xml version="1.0" encoding="UTF-8" standalone="no"?>
<!DOCTYPE svg PUBLIC "-//W3C//DTD SVG 1.1//EN"
 "http://www.w3.org/Graphics/SVG/1.1/DTD/svg11.dtd">
<!-- Generated by graphviz version 2.26.3 (20100126.1600)
 -->
<!-- Title: Bang_event_back Pages: 1 -->
<svg width="596pt" height="773pt"
 viewBox="0.00 0.00 596.00 772.77" xmlns="http://www.w3.org/2000/svg" xmlns:xlink="http://www.w3.org/1999/xlink">
<g id="graph1" class="graph" transform="scale(1 1) rotate(0) translate(4 768.77)">
<title>Bang_event_back</title>
<polygon fill="white" stroke="white" points="-4,5 -4,-768.77 593,-768.77 593,5 -4,5"/>
<!-- Node1 -->
<g id="node1" class="node"><title>Node1</title>
<polygon fill="#bfbfbf" stroke="black" points="0.5,-435.77 0.5,-459.77 95.5,-459.77 95.5,-435.77 0.5,-435.77"/>
<text text-anchor="middle" x="48" y="-446.77" font-family="Helvetica,sans-Serif" font-size="10.00">Bang_event_back</text>
</g>
<!-- Node2 -->
<g id="node3" class="node"><title>Node2</title>
<a xlink:href="_c_o_r_e__6_8cpp.html#a1d69e941ecabe5dd73d0b108627b21d6" target="_top" xlink:title="detect_dock_used">
<polygon fill="white" stroke="black" points="151,-725.77 151,-749.77 247,-749.77 247,-725.77 151,-725.77"/>
<text text-anchor="middle" x="199" y="-736.77" font-family="Helvetica,sans-Serif" font-size="10.00">detect_dock_used</text>
</a>
</g>
<!-- Node1&#45;&gt;Node2 -->
<g id="edge2" class="edge"><title>Node1&#45;&gt;Node2</title>
<path fill="none" stroke="midnightblue" d="M50.2597,-459.974C59.2666,-507.398 93.9652,-678.695 132,-716.77 134.874,-719.647 138.137,-722.131 141.638,-724.275"/>
<polygon fill="midnightblue" stroke="midnightblue" points="140.25,-727.496 150.747,-728.936 143.439,-721.265 140.25,-727.496"/>
</g>
<!-- Node3 -->
<g id="node5" class="node"><title>Node3</title>
<a xlink:href="faders__operations_8cpp.html#ad2bcaffecd9b01aee13cb557da2ab705" target="_top" xlink:title="Unselect_other_docks">
<polygon fill="white" stroke="black" points="142,-683.77 142,-707.77 256,-707.77 256,-683.77 142,-683.77"/>
<text text-anchor="middle" x="199" y="-694.77" font-family="Helvetica,sans-Serif" font-size="10.00">Unselect_other_docks</text>
</a>
</g>
<!-- Node1&#45;&gt;Node3 -->
<g id="edge4" class="edge"><title>Node1&#45;&gt;Node3</title>
<path fill="none" stroke="midnightblue" d="M48.8457,-459.876C52.1264,-497.452 67.2788,-613.249 132,-674.77 133.276,-675.982 134.62,-677.125 136.023,-678.201"/>
<polygon fill="midnightblue" stroke="midnightblue" points="134.285,-681.245 144.598,-683.675 138.051,-675.344 134.285,-681.245"/>
</g>
<!-- Node4 -->
<g id="node7" class="node"><title>Node4</title>
<a xlink:href="faders__core__24_8cpp.html#af5590fbbb7ec3390b51704c3c04c640d" target="_top" xlink:title="asservissement_gridplayer">
<polygon fill="white" stroke="black" points="132.5,-641.77 132.5,-665.77 265.5,-665.77 265.5,-641.77 132.5,-641.77"/>
<text text-anchor="middle" x="199" y="-652.77" font-family="Helvetica,sans-Serif" font-size="10.00">asservissement_gridplayer</text>
</a>
</g>
<!-- Node1&#45;&gt;Node4 -->
<g id="edge6" class="edge"><title>Node1&#45;&gt;Node4</title>
<path fill="none" stroke="midnightblue" d="M50.0429,-460.192C56.1413,-493.294 77.3061,-584.396 132,-632.77 133.507,-634.102 135.097,-635.35 136.755,-636.519"/>
<polygon fill="midnightblue" stroke="midnightblue" points="135.138,-639.63 145.523,-641.728 138.714,-633.612 135.138,-639.63"/>
</g>
<!-- Node7 -->
<g id="node13" class="node"><title>Node7</title>
<a xlink:href="_c_o_r_e__6_8cpp.html#a9574e0b790211959c7398e42468410d8" target="_top" xlink:title="toggle">
<polygon fill="white" stroke="black" points="348.5,-698.77 348.5,-722.77 391.5,-722.77 391.5,-698.77 348.5,-698.77"/>
<text text-anchor="middle" x="370" y="-709.77" font-family="Helvetica,sans-Serif" font-size="10.00">toggle</text>
</a>
</g>
<!-- Node1&#45;&gt;Node7 -->
<g id="edge12" class="edge"><title>Node1&#45;&gt;Node7</title>
<path fill="none" stroke="midnightblue" d="M54.3121,-459.869C66.3784,-481.795 94.8555,-528.104 132,-552.77 183.569,-587.015 220.671,-548.611 266,-590.77 300.283,-622.655 268.089,-657.489 302,-689.77 311.886,-699.181 325.902,-704.38 338.643,-707.25"/>
<polygon fill="midnightblue" stroke="midnightblue" points="338.012,-710.693 348.485,-709.089 339.297,-703.812 338.012,-710.693"/>
</g>
<!-- Node8 -->
<g id="node15" class="node"><title>Node8</title>
<a xlink:href="_c_o_r_e__6_8cpp.html#a66525c797b7c3a7c5359c87f0094876c" target="_top" xlink:title="do_recall_fadersstate">
<polygon fill="white" stroke="black" points="144,-519.77 144,-543.77 254,-543.77 254,-519.77 144,-519.77"/>
<text text-anchor="middle" x="199" y="-530.77" font-family="Helvetica,sans-Serif" font-size="10.00">do_recall_fadersstate</text>
</a>
</g>
<!-- Node1&#45;&gt;Node8 -->
<g id="edge14" class="edge"><title>Node1&#45;&gt;Node8</title>
<path fill="none" stroke="midnightblue" d="M61.0113,-459.784C76.7579,-473.763 104.584,-496.718 132,-510.77 135.722,-512.678 139.65,-514.451 143.662,-516.092"/>
<polygon fill="midnightblue" stroke="midnightblue" points="142.527,-519.405 153.118,-519.682 145.011,-512.861 142.527,-519.405"/>
</g>
<!-- Node9 -->
<g id="node17" class="node"><title>Node9</title>
<a xlink:href="_c_o_r_e__6_8cpp.html#aa16450d858e0f6dfaa0be7a31adf4d15" target="_top" xlink:title="do_lock_preset">
<polygon fill="white" stroke="black" points="157.5,-599.77 157.5,-623.77 240.5,-623.77 240.5,-599.77 157.5,-599.77"/>
<text text-anchor="middle" x="199" y="-610.77" font-family="Helvetica,sans-Serif" font-size="10.00">do_lock_preset</text>
</a>
</g>
<!-- Node1&#45;&gt;Node9 -->
<g id="edge16" class="edge"><title>Node1&#45;&gt;Node9</title>
<path fill="none" stroke="midnightblue" d="M52.274,-459.918C62.1851,-486.425 89.2059,-549.937 132,-585.77 136.834,-589.817 142.37,-593.28 148.143,-596.231"/>
<polygon fill="midnightblue" stroke="midnightblue" points="146.794,-599.463 157.342,-600.458 149.716,-593.102 146.794,-599.463"/>
</g>
<!-- Node10 -->
<g id="node20" class="node"><title>Node10</title>
<a xlink:href="_c_o_r_e__6_8cpp.html#ad598ada3395937db3457ab6ee10dcdb7" target="_top" xlink:title="send_my_midi_note">
<polygon fill="white" stroke="black" points="147,-477.77 147,-501.77 251,-501.77 251,-477.77 147,-477.77"/>
<text text-anchor="middle" x="199" y="-488.77" font-family="Helvetica,sans-Serif" font-size="10.00">send_my_midi_note</text>
</a>
</g>
<!-- Node1&#45;&gt;Node10 -->
<g id="edge20" class="edge"><title>Node1&#45;&gt;Node10</title>
<path fill="none" stroke="midnightblue" d="M91.2705,-459.805C108.33,-464.55 128.092,-470.047 145.996,-475.027"/>
<polygon fill="midnightblue" stroke="midnightblue" points="145.151,-478.425 155.723,-477.733 147.027,-471.681 145.151,-478.425"/>
</g>
<!-- Node11 -->
<g id="node22" class="node"><title>Node11</title>
<a xlink:href="gestionaire__fenetres2_8cpp.html#ada3b9703b1aaa1cc37304633bdeb526c" target="_top" xlink:title="add_a_window">
<polygon fill="white" stroke="black" points="158.5,-348.77 158.5,-372.77 239.5,-372.77 239.5,-348.77 158.5,-348.77"/>
<text text-anchor="middle" x="199" y="-359.77" font-family="Helvetica,sans-Serif" font-size="10.00">add_a_window</text>
</a>
</g>
<!-- Node1&#45;&gt;Node11 -->
<g id="edge22" class="edge"><title>Node1&#45;&gt;Node11</title>
<path fill="none" stroke="midnightblue" d="M68.9959,-435.673C94.9934,-420.694 139.453,-395.079 169.031,-378.037"/>
<polygon fill="midnightblue" stroke="midnightblue" points="170.778,-381.069 177.696,-373.045 167.284,-375.004 170.778,-381.069"/>
</g>
<!-- Node19 -->
<g id="node38" class="node"><title>Node19</title>
<a xlink:href="_c_o_r_e__6_8cpp.html#ad0ba084ac976c6a4d32088e939ee0dbc" target="_top" xlink:title="substract_a_window">
<polygon fill="white" stroke="black" points="146,-435.77 146,-459.77 252,-459.77 252,-435.77 146,-435.77"/>
<text text-anchor="middle" x="199" y="-446.77" font-family="Helvetica,sans-Serif" font-size="10.00">substract_a_window</text>
</a>
</g>
<!-- Node1&#45;&gt;Node19 -->
<g id="edge38" class="edge"><title>Node1&#45;&gt;Node19</title>
<path fill="none" stroke="midnightblue" d="M95.7773,-447.77C108.446,-447.77 122.324,-447.77 135.68,-447.77"/>
<polygon fill="midnightblue" stroke="midnightblue" points="135.763,-451.27 145.763,-447.77 135.763,-444.27 135.763,-451.27"/>
</g>
<!-- Node24 -->
<g id="node50" class="node"><title>Node24</title>
<a xlink:href="_c_o_r_e__6_8cpp.html#a52e7364ba887cabb040c29b592557b6c" target="_top" xlink:title="load_etat_picker_dans\l_dockcolor">
<polygon fill="white" stroke="black" points="142,-290.77 142,-330.77 256,-330.77 256,-290.77 142,-290.77"/>
<text text-anchor="start" x="150" y="-317.77" font-family="Helvetica,sans-Serif" font-size="10.00">load_etat_picker_dans</text>
<text text-anchor="middle" x="199" y="-301.77" font-family="Helvetica,sans-Serif" font-size="10.00">_dockcolor</text>
</a>
</g>
<!-- Node1&#45;&gt;Node24 -->
<g id="edge52" class="edge"><title>Node1&#45;&gt;Node24</title>
<path fill="none" stroke="midnightblue" d="M54.7566,-435.447C67.3327,-413.513 96.3218,-367.41 132,-339.77 133.578,-338.547 135.216,-337.365 136.899,-336.224"/>
<polygon fill="midnightblue" stroke="midnightblue" points="138.955,-339.069 145.641,-330.85 135.289,-333.105 138.955,-339.069"/>
</g>
<!-- Node25 -->
<g id="node52" class="node"><title>Node25</title>
<a xlink:href="audio__core5_8cpp.html#a441637bcca17a3226a6b3aadea1defe9" target="_top" xlink:title="AffectSoundFile">
<polygon fill="white" stroke="black" points="156,-88.7698 156,-112.77 242,-112.77 242,-88.7698 156,-88.7698"/>
<text text-anchor="middle" x="199" y="-99.7698" font-family="Helvetica,sans-Serif" font-size="10.00">AffectSoundFile</text>
</a>
</g>
<!-- Node1&#45;&gt;Node25 -->
<g id="edge54" class="edge"><title>Node1&#45;&gt;Node25</title>
<path fill="none" stroke="midnightblue" d="M48.5328,-435.673C50.9816,-392.513 64.1842,-243.562 132,-147.77 140.439,-135.849 152.904,-125.923 164.801,-118.313"/>
<polygon fill="midnightblue" stroke="midnightblue" points="166.949,-121.105 173.712,-112.949 163.339,-115.107 166.949,-121.105"/>
</g>
<!-- Node26 -->
<g id="node54" class="node"><title>Node26</title>
<a xlink:href="_c_o_r_e__6_8cpp.html#a23423256688613149926c4984ff25f79" target="_top" xlink:title="player1_do_stop">
<polygon fill="white" stroke="black" points="326,-130.77 326,-154.77 414,-154.77 414,-130.77 326,-130.77"/>
<text text-anchor="middle" x="370" y="-141.77" font-family="Helvetica,sans-Serif" font-size="10.00">player1_do_stop</text>
</a>
</g>
<!-- Node1&#45;&gt;Node26 -->
<g id="edge64" class="edge"><title>Node1&#45;&gt;Node26</title>
<path fill="none" stroke="midnightblue" d="M51.775,-435.73C61.3561,-406.628 88.9515,-331.226 132,-281.77 192.385,-212.396 219.309,-204.036 302,-163.77 306.535,-161.561 311.354,-159.523 316.25,-157.657"/>
<polygon fill="midnightblue" stroke="midnightblue" points="317.465,-160.94 325.706,-154.281 315.111,-154.347 317.465,-160.94"/>
</g>
<!-- Node27 -->
<g id="node56" class="node"><title>Node27</title>
<a xlink:href="_c_o_r_e__6_8cpp.html#a6c41d19d859a2e1292ad64ef915e265f" target="_top" xlink:title="player2_do_stop">
<polygon fill="white" stroke="black" points="326,-88.7698 326,-112.77 414,-112.77 414,-88.7698 326,-88.7698"/>
<text text-anchor="middle" x="370" y="-99.7698" font-family="Helvetica,sans-Serif" font-size="10.00">player2_do_stop</text>
</a>
</g>
<!-- Node1&#45;&gt;Node27 -->
<g id="edge66" class="edge"><title>Node1&#45;&gt;Node27</title>
<path fill="none" stroke="midnightblue" d="M50.2946,-435.639C59.4316,-388.494 94.552,-218.168 132,-179.77 157.806,-153.309 254.082,-127.195 315.994,-112.609"/>
<polygon fill="midnightblue" stroke="midnightblue" points="317.05,-115.957 325.997,-110.282 315.464,-109.139 317.05,-115.957"/>
</g>
<!-- Node28 -->
<g id="node58" class="node"><title>Node28</title>
<a xlink:href="_c_o_r_e__6_8cpp.html#a494249193c56b13a4e1eac04c6dd2d0b" target="_top" xlink:title="player3_do_stop">
<polygon fill="white" stroke="black" points="326,-46.7698 326,-70.7698 414,-70.7698 414,-46.7698 326,-46.7698"/>
<text text-anchor="middle" x="370" y="-57.7698" font-family="Helvetica,sans-Serif" font-size="10.00">player3_do_stop</text>
</a>
</g>
<!-- Node1&#45;&gt;Node28 -->
<g id="edge68" class="edge"><title>Node1&#45;&gt;Node28</title>
<path fill="none" stroke="midnightblue" d="M48.9216,-435.412C53.5545,-376.878 76.3145,-128.334 132,-79.7698 182.074,-36.0998 262.66,-38.8563 315.973,-47.0385"/>
<polygon fill="midnightblue" stroke="midnightblue" points="315.49,-50.5059 325.926,-48.6771 316.627,-43.5989 315.49,-50.5059"/>
</g>
<!-- Node29 -->
<g id="node60" class="node"><title>Node29</title>
<a xlink:href="_c_o_r_e__6_8cpp.html#afbcf17b50787fb3b8360659f6ce9b193" target="_top" xlink:title="player4_do_stop">
<polygon fill="white" stroke="black" points="326,-4.76982 326,-28.7698 414,-28.7698 414,-4.76982 326,-4.76982"/>
<text text-anchor="middle" x="370" y="-15.7698" font-family="Helvetica,sans-Serif" font-size="10.00">player4_do_stop</text>
</a>
</g>
<!-- Node1&#45;&gt;Node29 -->
<g id="edge70" class="edge"><title>Node1&#45;&gt;Node29</title>
<path fill="none" stroke="midnightblue" d="M48.6073,-435.736C51.9836,-374.019 70.5669,-93.77 132,-38.7698 181.52,5.56467 262.246,3.03257 315.741,-5.0746"/>
<polygon fill="midnightblue" stroke="midnightblue" points="315.296,-8.54826 325.729,-6.70052 316.421,-1.63921 315.296,-8.54826"/>
</g>
<!-- Node5 -->
<g id="node9" class="node"><title>Node5</title>
<a xlink:href="grider__calculs8_8cpp.html#aa5e2775d1f19c4fddd0e6ed08b511e96" target="_top" xlink:title="gridder_prepare_cross">
<polygon fill="white" stroke="black" points="313.5,-740.77 313.5,-764.77 426.5,-764.77 426.5,-740.77 313.5,-740.77"/>
<text text-anchor="middle" x="370" y="-751.77" font-family="Helvetica,sans-Serif" font-size="10.00">gridder_prepare_cross</text>
</a>
</g>
<!-- Node4&#45;&gt;Node5 -->
<g id="edge8" class="edge"><title>Node4&#45;&gt;Node5</title>
<path fill="none" stroke="midnightblue" d="M250.973,-665.922C256.326,-668.359 261.459,-671.277 266,-674.77 289.751,-693.036 278.211,-713.553 302,-731.77 304.017,-733.314 306.149,-734.746 308.364,-736.074"/>
<polygon fill="midnightblue" stroke="midnightblue" points="306.766,-739.188 317.254,-740.693 309.994,-732.977 306.766,-739.188"/>
</g>
<!-- Node6 -->
<g id="node11" class="node"><title>Node6</title>
<a xlink:href="grider__calculs8_8cpp.html#aa649acadfb5dcef5c313de19ddcb2290" target="_top" xlink:title="affichage_time_format">
<polygon fill="white" stroke="black" points="474.5,-740.77 474.5,-764.77 587.5,-764.77 587.5,-740.77 474.5,-740.77"/>
<text text-anchor="middle" x="531" y="-751.77" font-family="Helvetica,sans-Serif" font-size="10.00">affichage_time_format</text>
</a>
</g>
<!-- Node5&#45;&gt;Node6 -->
<g id="edge10" class="edge"><title>Node5&#45;&gt;Node6</title>
<path fill="none" stroke="midnightblue" d="M426.763,-752.77C438.857,-752.77 451.737,-752.77 464.169,-752.77"/>
<polygon fill="midnightblue" stroke="midnightblue" points="464.479,-756.27 474.479,-752.77 464.479,-749.27 464.479,-756.27"/>
</g>
<!-- Node9&#45;&gt;Node7 -->
<g id="edge18" class="edge"><title>Node9&#45;&gt;Node7</title>
<path fill="none" stroke="midnightblue" d="M240.549,-619.82C249.534,-622.868 258.56,-627.048 266,-632.77 289.751,-651.036 278.211,-671.553 302,-689.77 312.5,-697.81 326.106,-702.798 338.386,-705.88"/>
<polygon fill="midnightblue" stroke="midnightblue" points="337.775,-709.329 348.292,-708.047 339.271,-702.491 337.775,-709.329"/>
</g>
<!-- Node12 -->
<g id="node24" class="node"><title>Node12</title>
<a xlink:href="_c_o_r_e__6_8cpp.html#a492a9badab85a9e07b0200f4e34b607f" target="_top" xlink:title="reset_check_grada_overide\l_dimmers">
<polygon fill="white" stroke="black" points="302,-398.77 302,-438.77 438,-438.77 438,-398.77 302,-398.77"/>
<text text-anchor="start" x="310" y="-425.77" font-family="Helvetica,sans-Serif" font-size="10.00">reset_check_grada_overide</text>
<text text-anchor="middle" x="370" y="-409.77" font-family="Helvetica,sans-Serif" font-size="10.00">_dimmers</text>
</a>
</g>
<!-- Node11&#45;&gt;Node12 -->
<g id="edge24" class="edge"><title>Node11&#45;&gt;Node12</title>
<path fill="none" stroke="midnightblue" d="M234.431,-372.787C253.691,-379.32 278.184,-387.627 301.038,-395.379"/>
<polygon fill="midnightblue" stroke="midnightblue" points="300.117,-398.763 310.712,-398.66 302.366,-392.134 300.117,-398.763"/>
</g>
<!-- Node13 -->
<g id="node26" class="node"><title>Node13</title>
<a xlink:href="_c_o_r_e__6_8cpp.html#aa8157e82745eb3ac355d8f443b19955f" target="_top" xlink:title="refresh_shape_factors">
<polygon fill="white" stroke="black" points="313.5,-298.77 313.5,-322.77 426.5,-322.77 426.5,-298.77 313.5,-298.77"/>
<text text-anchor="middle" x="370" y="-309.77" font-family="Helvetica,sans-Serif" font-size="10.00">refresh_shape_factors</text>
</a>
</g>
<!-- Node11&#45;&gt;Node13 -->
<g id="edge26" class="edge"><title>Node11&#45;&gt;Node13</title>
<path fill="none" stroke="midnightblue" d="M239.525,-348.921C263.327,-341.961 293.632,-333.1 319.042,-325.67"/>
<polygon fill="midnightblue" stroke="midnightblue" points="320.261,-328.96 328.876,-322.794 318.296,-322.241 320.261,-328.96"/>
</g>
<!-- Node14 -->
<g id="node28" class="node"><title>Node14</title>
<a xlink:href="saves__menu__8_8cpp.html#aa97cd577bd2f433780569b3a20136d23" target="_top" xlink:title="scan_importfolder">
<polygon fill="white" stroke="black" points="323,-256.77 323,-280.77 417,-280.77 417,-256.77 323,-256.77"/>
<text text-anchor="middle" x="370" y="-267.77" font-family="Helvetica,sans-Serif" font-size="10.00">scan_importfolder</text>
</a>
</g>
<!-- Node11&#45;&gt;Node14 -->
<g id="edge28" class="edge"><title>Node11&#45;&gt;Node14</title>
<path fill="none" stroke="midnightblue" d="M239.599,-352.618C248.822,-349.564 258.192,-345.406 266,-339.77 288.203,-323.742 279.764,-305.75 302,-289.77 305.499,-287.255 309.307,-285.036 313.274,-283.078"/>
<polygon fill="midnightblue" stroke="midnightblue" points="314.969,-286.158 322.751,-278.969 312.184,-279.736 314.969,-286.158"/>
</g>
<!-- Node15 -->
<g id="node30" class="node"><title>Node15</title>
<a xlink:href="saves__menu__8_8cpp.html#aa54ed73e914394a0efe1c45930c72cbd" target="_top" xlink:title="scan_savesfolder">
<polygon fill="white" stroke="black" points="323.5,-214.77 323.5,-238.77 416.5,-238.77 416.5,-214.77 323.5,-214.77"/>
<text text-anchor="middle" x="370" y="-225.77" font-family="Helvetica,sans-Serif" font-size="10.00">scan_savesfolder</text>
</a>
</g>
<!-- Node11&#45;&gt;Node15 -->
<g id="edge30" class="edge"><title>Node11&#45;&gt;Node15</title>
<path fill="none" stroke="midnightblue" d="M239.652,-354.304C249.191,-351.194 258.691,-346.589 266,-339.77 298.104,-309.816 269.833,-277.656 302,-247.77 305.601,-244.424 309.725,-241.611 314.122,-239.246"/>
<polygon fill="midnightblue" stroke="midnightblue" points="315.804,-242.326 323.452,-234.994 312.901,-235.956 315.804,-242.326"/>
</g>
<!-- Node16 -->
<g id="node32" class="node"><title>Node16</title>
<a xlink:href="_c_o_r_e__6_8cpp.html#a91e4f7146fd4a20828a9bd7ac93c0baa" target="_top" xlink:title="reset_audio_indexs\l_to_dock">
<polygon fill="white" stroke="black" points="319.5,-456.77 319.5,-496.77 420.5,-496.77 420.5,-456.77 319.5,-456.77"/>
<text text-anchor="start" x="327.5" y="-483.77" font-family="Helvetica,sans-Serif" font-size="10.00">reset_audio_indexs</text>
<text text-anchor="middle" x="370" y="-467.77" font-family="Helvetica,sans-Serif" font-size="10.00">_to_dock</text>
</a>
</g>
<!-- Node11&#45;&gt;Node16 -->
<g id="edge32" class="edge"><title>Node11&#45;&gt;Node16</title>
<path fill="none" stroke="midnightblue" d="M210.752,-372.773C228.973,-390.877 265.732,-425.421 302,-447.77 304.646,-449.4 307.4,-450.982 310.218,-452.509"/>
<polygon fill="midnightblue" stroke="midnightblue" points="308.885,-455.758 319.381,-457.196 312.072,-449.526 308.885,-455.758"/>
</g>
<!-- Node17 -->
<g id="node34" class="node"><title>Node17</title>
<a xlink:href="gestionaire__fenetres2_8cpp.html#a3ecbad4b357ed9e70478e6418261f2fd" target="_top" xlink:title="reset_config_indexes">
<polygon fill="white" stroke="black" points="315.5,-172.77 315.5,-196.77 424.5,-196.77 424.5,-172.77 315.5,-172.77"/>
<text text-anchor="middle" x="370" y="-183.77" font-family="Helvetica,sans-Serif" font-size="10.00">reset_config_indexes</text>
</a>
</g>
<!-- Node11&#45;&gt;Node17 -->
<g id="edge34" class="edge"><title>Node11&#45;&gt;Node17</title>
<path fill="none" stroke="midnightblue" d="M239.841,-354.963C249.489,-351.844 258.995,-347.07 266,-339.77 308.696,-295.274 259.21,-250.176 302,-205.77 303.447,-204.268 304.998,-202.874 306.634,-201.578"/>
<polygon fill="midnightblue" stroke="midnightblue" points="308.931,-204.261 315.427,-195.892 305.13,-198.383 308.931,-204.261"/>
</g>
<!-- Node18 -->
<g id="node36" class="node"><title>Node18</title>
<a xlink:href="gestionaire__fenetres2_8cpp.html#ad38c1b7f03bd1ec3007a87d4c55efacf" target="_top" xlink:title="clear_non_desired_values\l_in_window_list">
<polygon fill="white" stroke="black" points="305.5,-340.77 305.5,-380.77 434.5,-380.77 434.5,-340.77 305.5,-340.77"/>
<text text-anchor="start" x="313.5" y="-367.77" font-family="Helvetica,sans-Serif" font-size="10.00">clear_non_desired_values</text>
<text text-anchor="middle" x="370" y="-351.77" font-family="Helvetica,sans-Serif" font-size="10.00">_in_window_list</text>
</a>
</g>
<!-- Node11&#45;&gt;Node18 -->
<g id="edge36" class="edge"><title>Node11&#45;&gt;Node18</title>
<path fill="none" stroke="midnightblue" d="M239.525,-360.77C256.184,-360.77 276.029,-360.77 295.152,-360.77"/>
<polygon fill="midnightblue" stroke="midnightblue" points="295.369,-364.27 305.369,-360.77 295.369,-357.27 295.369,-364.27"/>
</g>
<!-- Node19&#45;&gt;Node12 -->
<g id="edge44" class="edge"><title>Node19&#45;&gt;Node12</title>
<path fill="none" stroke="midnightblue" d="M252.168,-438.753C264.668,-436.633 278.25,-434.33 291.599,-432.066"/>
<polygon fill="midnightblue" stroke="midnightblue" points="292.467,-435.469 301.741,-430.346 291.296,-428.567 292.467,-435.469"/>
</g>
<!-- Node19&#45;&gt;Node16 -->
<g id="edge48" class="edge"><title>Node19&#45;&gt;Node16</title>
<path fill="none" stroke="midnightblue" d="M252.168,-456.787C270.368,-459.873 290.861,-463.349 309.591,-466.525"/>
<polygon fill="midnightblue" stroke="midnightblue" points="309.05,-469.983 319.495,-468.205 310.221,-463.082 309.05,-469.983"/>
</g>
<!-- Node20 -->
<g id="node40" class="node"><title>Node20</title>
<a xlink:href="_c_o_r_e__6_8cpp.html#a934d136a7c8a752109bc4b160717ee36" target="_top" xlink:title="reset_index_actions">
<polygon fill="white" stroke="black" points="318,-514.77 318,-538.77 422,-538.77 422,-514.77 318,-514.77"/>
<text text-anchor="middle" x="370" y="-525.77" font-family="Helvetica,sans-Serif" font-size="10.00">reset_index_actions</text>
</a>
</g>
<!-- Node19&#45;&gt;Node20 -->
<g id="edge40" class="edge"><title>Node19&#45;&gt;Node20</title>
<path fill="none" stroke="midnightblue" d="M247.49,-459.782C253.94,-462.285 260.289,-465.257 266,-468.77 285.543,-480.79 282.432,-493.791 302,-505.77 304.934,-507.566 308.034,-509.22 311.23,-510.741"/>
<polygon fill="midnightblue" stroke="midnightblue" points="309.859,-513.962 320.43,-514.685 312.618,-507.528 309.859,-513.962"/>
</g>
<!-- Node21 -->
<g id="node42" class="node"><title>Node21</title>
<a xlink:href="_c_o_r_e__6_8cpp.html#a894b338494d0bdd820df2944b628e2de" target="_top" xlink:title="patch_unselect_all\l_dimmers">
<polygon fill="white" stroke="black" points="321,-640.77 321,-680.77 419,-680.77 419,-640.77 321,-640.77"/>
<text text-anchor="start" x="329" y="-667.77" font-family="Helvetica,sans-Serif" font-size="10.00">patch_unselect_all</text>
<text text-anchor="middle" x="370" y="-651.77" font-family="Helvetica,sans-Serif" font-size="10.00">_dimmers</text>
</a>
</g>
<!-- Node19&#45;&gt;Node21 -->
<g id="edge42" class="edge"><title>Node19&#45;&gt;Node21</title>
<path fill="none" stroke="midnightblue" d="M252.311,-458.463C257.419,-461.168 262.127,-464.548 266,-468.77 316.147,-523.446 254.631,-574.67 302,-631.77 304.937,-635.31 308.385,-638.428 312.143,-641.172"/>
<polygon fill="midnightblue" stroke="midnightblue" points="310.457,-644.246 320.787,-646.6 314.179,-638.318 310.457,-644.246"/>
</g>
<!-- Node22 -->
<g id="node45" class="node"><title>Node22</title>
<a xlink:href="_c_o_r_e__6_8cpp.html#afb9b54a7bc4ccbba5ddcdc2097550188" target="_top" xlink:title="reset_indexs_confirmation">
<polygon fill="white" stroke="black" points="304.5,-598.77 304.5,-622.77 435.5,-622.77 435.5,-598.77 304.5,-598.77"/>
<text text-anchor="middle" x="370" y="-609.77" font-family="Helvetica,sans-Serif" font-size="10.00">reset_indexs_confirmation</text>
</a>
</g>
<!-- Node19&#45;&gt;Node22 -->
<g id="edge46" class="edge"><title>Node19&#45;&gt;Node22</title>
<path fill="none" stroke="midnightblue" d="M252.013,-458.747C257.175,-461.399 261.978,-464.689 266,-468.77 305.384,-508.731 262.532,-549.891 302,-589.77 303.086,-590.868 304.229,-591.908 305.419,-592.895"/>
<polygon fill="midnightblue" stroke="midnightblue" points="303.649,-595.923 313.887,-598.65 307.584,-590.134 303.649,-595.923"/>
</g>
<!-- Node23 -->
<g id="node48" class="node"><title>Node23</title>
<a xlink:href="_c_o_r_e__6_8cpp.html#abfbdb9056b43d4acfaf3f39122911bad" target="_top" xlink:title="remember_config_page">
<polygon fill="white" stroke="black" points="311,-556.77 311,-580.77 429,-580.77 429,-556.77 311,-556.77"/>
<text text-anchor="middle" x="370" y="-567.77" font-family="Helvetica,sans-Serif" font-size="10.00">remember_config_page</text>
</a>
</g>
<!-- Node19&#45;&gt;Node23 -->
<g id="edge50" class="edge"><title>Node19&#45;&gt;Node23</title>
<path fill="none" stroke="midnightblue" d="M252.138,-459.651C257.152,-462.135 261.889,-465.138 266,-468.77 294.92,-494.313 273.027,-522.288 302,-547.77 303.496,-549.086 305.073,-550.319 306.716,-551.475"/>
<polygon fill="midnightblue" stroke="midnightblue" points="305.012,-554.534 315.397,-556.635 308.589,-548.517 305.012,-554.534"/>
</g>
<!-- Node25&#45;&gt;Node26 -->
<g id="edge56" class="edge"><title>Node25&#45;&gt;Node26</title>
<path fill="none" stroke="midnightblue" d="M242.151,-111.368C264.573,-116.875 292.194,-123.66 316.018,-129.511"/>
<polygon fill="midnightblue" stroke="midnightblue" points="315.424,-132.969 325.97,-131.955 317.094,-126.171 315.424,-132.969"/>
</g>
<!-- Node25&#45;&gt;Node27 -->
<g id="edge58" class="edge"><title>Node25&#45;&gt;Node27</title>
<path fill="none" stroke="midnightblue" d="M242.151,-100.77C264.473,-100.77 291.947,-100.77 315.699,-100.77"/>
<polygon fill="midnightblue" stroke="midnightblue" points="315.97,-104.27 325.97,-100.77 315.97,-97.2699 315.97,-104.27"/>
</g>
<!-- Node25&#45;&gt;Node28 -->
<g id="edge60" class="edge"><title>Node25&#45;&gt;Node28</title>
<path fill="none" stroke="midnightblue" d="M242.151,-90.1714C264.573,-84.6642 292.194,-77.8801 316.018,-72.0285"/>
<polygon fill="midnightblue" stroke="midnightblue" points="317.094,-75.3685 325.97,-69.5842 315.424,-68.5705 317.094,-75.3685"/>
</g>
<!-- Node25&#45;&gt;Node29 -->
<g id="edge62" class="edge"><title>Node25&#45;&gt;Node29</title>
<path fill="none" stroke="midnightblue" d="M215.768,-88.6934C235.577,-74.8674 269.906,-52.2655 302,-37.7698 306.597,-35.6933 311.458,-33.745 316.381,-31.9369"/>
<polygon fill="midnightblue" stroke="midnightblue" points="317.577,-35.2266 325.872,-28.6355 315.277,-28.6152 317.577,-35.2266"/>
</g>
</g>
</svg>
