<?xml version="1.0" encoding="UTF-8" standalone="no"?>
<!DOCTYPE svg PUBLIC "-//W3C//DTD SVG 1.1//EN"
 "http://www.w3.org/Graphics/SVG/1.1/DTD/svg11.dtd">
<!-- Generated by graphviz version 2.26.3 (20100126.1600)
 -->
<!-- Title: do_go_back_bang Pages: 1 -->
<svg width="734pt" height="185pt"
 viewBox="0.00 0.00 734.00 185.00" xmlns="http://www.w3.org/2000/svg" xmlns:xlink="http://www.w3.org/1999/xlink">
<g id="graph1" class="graph" transform="scale(1 1) rotate(0) translate(4 181)">
<title>do_go_back_bang</title>
<polygon fill="white" stroke="white" points="-4,5 -4,-181 731,-181 731,5 -4,5"/>
<!-- Node1 -->
<g id="node1" class="node"><title>Node1</title>
<polygon fill="#bfbfbf" stroke="black" points="0.5,-77 0.5,-101 95.5,-101 95.5,-77 0.5,-77"/>
<text text-anchor="middle" x="48" y="-88" font-family="Helvetica,sans-Serif" font-size="10.00">do_go_back_bang</text>
</g>
<!-- Node2 -->
<g id="node3" class="node"><title>Node2</title>
<a xlink:href="arduino__core__6___u_n_o_8cpp.html#a219226c1cd6cc17c78e62fd4445bb445" target="_top" xlink:title="arduino_do_digital\l_in_whitecat">
<polygon fill="white" stroke="black" points="132.5,-137 132.5,-177 227.5,-177 227.5,-137 132.5,-137"/>
<text text-anchor="start" x="140.5" y="-164" font-family="Helvetica,sans-Serif" font-size="10.00">arduino_do_digital</text>
<text text-anchor="middle" x="180" y="-148" font-family="Helvetica,sans-Serif" font-size="10.00">_in_whitecat</text>
</a>
</g>
<!-- Node1&#45;&gt;Node2 -->
<g id="edge2" class="edge"><title>Node1&#45;&gt;Node2</title>
<path fill="none" stroke="midnightblue" d="M80.4178,-105.7C98.7723,-115.155 121.85,-127.044 141.167,-136.995"/>
<polygon fill="midnightblue" stroke="midnightblue" points="81.7877,-102.469 71.2951,-101.001 78.582,-108.692 81.7877,-102.469"/>
</g>
<!-- Node5 -->
<g id="node9" class="node"><title>Node5</title>
<a xlink:href="i_cat14_8cpp.html#a16285241f82898e7a5f051b03d90b9a3" target="_top" xlink:title="check_button">
<polygon fill="white" stroke="black" points="283.5,-100 283.5,-124 358.5,-124 358.5,-100 283.5,-100"/>
<text text-anchor="middle" x="321" y="-111" font-family="Helvetica,sans-Serif" font-size="10.00">check_button</text>
</a>
</g>
<!-- Node1&#45;&gt;Node5 -->
<g id="edge8" class="edge"><title>Node1&#45;&gt;Node5</title>
<path fill="none" stroke="midnightblue" d="M105.575,-93.8506C159.074,-98.3579 237.215,-104.941 283.211,-108.816"/>
<polygon fill="midnightblue" stroke="midnightblue" points="105.812,-90.3583 95.553,-93.0063 105.224,-97.3335 105.812,-90.3583"/>
</g>
<!-- Node8 -->
<g id="node16" class="node"><title>Node8</title>
<a xlink:href="keyboard__functions2_8cpp.html#a1069ef07040abfea667ec14eeefe7e56" target="_top" xlink:title="key_go">
<polygon fill="white" stroke="black" points="156,-57 156,-81 204,-81 204,-57 156,-57"/>
<text text-anchor="middle" x="180" y="-68" font-family="Helvetica,sans-Serif" font-size="10.00">key_go</text>
</a>
</g>
<!-- Node1&#45;&gt;Node8 -->
<g id="edge16" class="edge"><title>Node1&#45;&gt;Node8</title>
<path fill="none" stroke="midnightblue" d="M105.853,-80.2344C123.392,-77.577 141.71,-74.8015 155.751,-72.6741"/>
<polygon fill="midnightblue" stroke="midnightblue" points="105.018,-76.8209 95.655,-81.7795 106.067,-83.7419 105.018,-76.8209"/>
</g>
<!-- Node10 -->
<g id="node21" class="node"><title>Node10</title>
<a xlink:href="sequentiel__6__core_8cpp.html#a152c03ccf49d8d9a457e048daaa48023" target="_top" xlink:title="do_logical_x1_x2">
<polygon fill="white" stroke="black" points="134,-14 134,-38 226,-38 226,-14 134,-14"/>
<text text-anchor="middle" x="180" y="-25" font-family="Helvetica,sans-Serif" font-size="10.00">do_logical_x1_x2</text>
</a>
</g>
<!-- Node1&#45;&gt;Node10 -->
<g id="edge22" class="edge"><title>Node1&#45;&gt;Node10</title>
<path fill="none" stroke="midnightblue" d="M81.6491,-72.3444C96.9684,-64.8214 115.358,-55.8739 132,-48 138.878,-44.746 146.341,-41.2894 153.288,-38.1037"/>
<polygon fill="midnightblue" stroke="midnightblue" points="79.9773,-69.2661 72.5504,-76.8221 83.0682,-75.5468 79.9773,-69.2661"/>
</g>
<!-- Node3 -->
<g id="node5" class="node"><title>Node3</title>
<a xlink:href="_m_a_i_n__avec__objets_8cpp.html#ace9c8a9b37c6087c3cffef442d71d70e" target="_top" xlink:title="dixiemes_de_secondes">
<polygon fill="white" stroke="black" points="414.5,-141 414.5,-165 533.5,-165 533.5,-141 414.5,-141"/>
<text text-anchor="middle" x="474" y="-152" font-family="Helvetica,sans-Serif" font-size="10.00">dixiemes_de_secondes</text>
</a>
</g>
<!-- Node2&#45;&gt;Node3 -->
<g id="edge4" class="edge"><title>Node2&#45;&gt;Node3</title>
<path fill="none" stroke="midnightblue" d="M237.756,-156.214C288.736,-155.521 362.755,-154.514 414.308,-153.812"/>
<polygon fill="midnightblue" stroke="midnightblue" points="237.514,-152.717 227.563,-156.353 237.61,-159.716 237.514,-152.717"/>
</g>
<!-- Node4 -->
<g id="node7" class="node"><title>Node4</title>
<a xlink:href="_m_a_i_n__avec__objets_8cpp.html#ae66f6b31b5ad750f1fe042a706a4e3d4" target="_top" xlink:title="main">
<polygon fill="white" stroke="black" points="688,-99 688,-123 726,-123 726,-99 688,-99"/>
<text text-anchor="middle" x="707" y="-110" font-family="Helvetica,sans-Serif" font-size="10.00">main</text>
</a>
</g>
<!-- Node3&#45;&gt;Node4 -->
<g id="edge6" class="edge"><title>Node3&#45;&gt;Node4</title>
<path fill="none" stroke="midnightblue" d="M543.753,-140.427C593.396,-131.478 656.615,-120.082 687.811,-114.459"/>
<polygon fill="midnightblue" stroke="midnightblue" points="542.921,-137.02 533.701,-142.238 544.163,-143.909 542.921,-137.02"/>
</g>
<!-- Node6 -->
<g id="node11" class="node"><title>Node6</title>
<a xlink:href="i_cat14_8cpp.html#aa9772b548765a631d4bae1c14053b4e1" target="_top" xlink:title="DoJobFantastickTouch">
<polygon fill="white" stroke="black" points="415.5,-99 415.5,-123 532.5,-123 532.5,-99 415.5,-99"/>
<text text-anchor="middle" x="474" y="-110" font-family="Helvetica,sans-Serif" font-size="10.00">DoJobFantastickTouch</text>
</a>
</g>
<!-- Node5&#45;&gt;Node6 -->
<g id="edge10" class="edge"><title>Node5&#45;&gt;Node6</title>
<path fill="none" stroke="midnightblue" d="M369.189,-111.685C383.874,-111.589 400.18,-111.482 415.47,-111.383"/>
<polygon fill="midnightblue" stroke="midnightblue" points="368.797,-108.187 358.82,-111.753 368.843,-115.187 368.797,-108.187"/>
</g>
<!-- Node7 -->
<g id="node13" class="node"><title>Node7</title>
<a xlink:href="_m_a_i_n__avec__objets_8cpp.html#a8e80f54ac804eddce8ed6e45adb1db44" target="_top" xlink:title="ticker_full_loop">
<polygon fill="white" stroke="black" points="570,-69 570,-93 652,-93 652,-69 570,-69"/>
<text text-anchor="middle" x="611" y="-80" font-family="Helvetica,sans-Serif" font-size="10.00">ticker_full_loop</text>
</a>
</g>
<!-- Node6&#45;&gt;Node7 -->
<g id="edge12" class="edge"><title>Node6&#45;&gt;Node7</title>
<path fill="none" stroke="midnightblue" d="M538.986,-96.7696C549.54,-94.4585 560.205,-92.1229 569.977,-89.9832"/>
<polygon fill="midnightblue" stroke="midnightblue" points="537.954,-93.4126 528.934,-98.9707 539.451,-100.251 537.954,-93.4126"/>
</g>
<!-- Node7&#45;&gt;Node4 -->
<g id="edge14" class="edge"><title>Node7&#45;&gt;Node4</title>
<path fill="none" stroke="midnightblue" d="M659.16,-96.05C669.3,-99.2189 679.431,-102.385 687.742,-104.982"/>
<polygon fill="midnightblue" stroke="midnightblue" points="660.083,-92.6714 649.494,-93.0293 657.995,-99.3528 660.083,-92.6714"/>
</g>
<!-- Node9 -->
<g id="node18" class="node"><title>Node9</title>
<a xlink:href="keyboard__routines2_8cpp.html#a8563320b8eab661232619224650de244" target="_top" xlink:title="commandes_clavier">
<polygon fill="white" stroke="black" points="269,-58 269,-82 373,-82 373,-58 269,-58"/>
<text text-anchor="middle" x="321" y="-69" font-family="Helvetica,sans-Serif" font-size="10.00">commandes_clavier</text>
</a>
</g>
<!-- Node8&#45;&gt;Node9 -->
<g id="edge18" class="edge"><title>Node8&#45;&gt;Node9</title>
<path fill="none" stroke="midnightblue" d="M214.409,-69.244C230.746,-69.3599 250.623,-69.5009 268.767,-69.6296"/>
<polygon fill="midnightblue" stroke="midnightblue" points="214.263,-65.743 204.239,-69.1719 214.214,-72.7428 214.263,-65.743"/>
</g>
<!-- Node9&#45;&gt;Node7 -->
<g id="edge20" class="edge"><title>Node9&#45;&gt;Node7</title>
<path fill="none" stroke="midnightblue" d="M383.388,-72.3664C439.677,-74.5015 520.891,-77.5821 569.558,-79.4281"/>
<polygon fill="midnightblue" stroke="midnightblue" points="383.307,-68.8609 373.181,-71.9793 383.041,-75.8559 383.307,-68.8609"/>
</g>
<!-- Node11 -->
<g id="node23" class="node"><title>Node11</title>
<a xlink:href="sequentiel__6__core_8cpp.html#a2a71c851cf25565491dd10423bc80380" target="_top" xlink:title="do_logical_Sequenciel\l_Window">
<polygon fill="white" stroke="black" points="264.5,-0 264.5,-40 377.5,-40 377.5,-0 264.5,-0"/>
<text text-anchor="start" x="272.5" y="-27" font-family="Helvetica,sans-Serif" font-size="10.00">do_logical_Sequenciel</text>
<text text-anchor="middle" x="321" y="-11" font-family="Helvetica,sans-Serif" font-size="10.00">_Window</text>
</a>
</g>
<!-- Node10&#45;&gt;Node11 -->
<g id="edge24" class="edge"><title>Node10&#45;&gt;Node11</title>
<path fill="none" stroke="midnightblue" d="M236.396,-23.6002C245.613,-23.208 255.165,-22.8015 264.386,-22.4091"/>
<polygon fill="midnightblue" stroke="midnightblue" points="236.011,-20.1133 226.169,-24.0354 236.308,-27.107 236.011,-20.1133"/>
</g>
<!-- Node12 -->
<g id="node25" class="node"><title>Node12</title>
<a xlink:href="procs__visuels__rebuild1_8cpp.html#ae710b6e599e321ad5934a90140067054" target="_top" xlink:title="check_graphics_mouse\l_handling">
<polygon fill="white" stroke="black" points="414.5,-1 414.5,-41 533.5,-41 533.5,-1 414.5,-1"/>
<text text-anchor="start" x="422.5" y="-28" font-family="Helvetica,sans-Serif" font-size="10.00">check_graphics_mouse</text>
<text text-anchor="middle" x="474" y="-12" font-family="Helvetica,sans-Serif" font-size="10.00">_handling</text>
</a>
</g>
<!-- Node11&#45;&gt;Node12 -->
<g id="edge26" class="edge"><title>Node11&#45;&gt;Node12</title>
<path fill="none" stroke="midnightblue" d="M387.802,-20.4366C396.641,-20.4944 405.654,-20.5533 414.361,-20.6102"/>
<polygon fill="midnightblue" stroke="midnightblue" points="387.56,-16.9351 377.537,-20.3695 387.514,-23.9349 387.56,-16.9351"/>
</g>
<!-- Node12&#45;&gt;Node7 -->
<g id="edge28" class="edge"><title>Node12&#45;&gt;Node7</title>
<path fill="none" stroke="midnightblue" d="M529.271,-45.2065C547.846,-53.3414 567.77,-62.0671 583.295,-68.8666"/>
<polygon fill="midnightblue" stroke="midnightblue" points="530.564,-41.9518 520,-41.146 527.756,-48.3638 530.564,-41.9518"/>
</g>
</g>
</svg>
