<?xml version="1.0" encoding="UTF-8" standalone="no"?>
<!DOCTYPE svg PUBLIC "-//W3C//DTD SVG 1.1//EN"
 "http://www.w3.org/Graphics/SVG/1.1/DTD/svg11.dtd">
<!-- Generated by graphviz version 2.26.3 (20100126.1600)
 -->
<!-- Title: do_send_bang Pages: 1 -->
<svg width="500pt" height="48pt"
 viewBox="0.00 0.00 500.00 48.00" xmlns="http://www.w3.org/2000/svg" xmlns:xlink="http://www.w3.org/1999/xlink">
<g id="graph1" class="graph" transform="scale(1 1) rotate(0) translate(4 44)">
<title>do_send_bang</title>
<polygon fill="white" stroke="white" points="-4,5 -4,-44 497,-44 497,5 -4,5"/>
<!-- Node1 -->
<g id="node1" class="node"><title>Node1</title>
<polygon fill="#bfbfbf" stroke="black" points="0,-8 0,-32 80,-32 80,-8 0,-8"/>
<text text-anchor="middle" x="40" y="-19" font-family="Helvetica,sans-Serif" font-size="10.00">do_send_bang</text>
</g>
<!-- Node2 -->
<g id="node3" class="node"><title>Node2</title>
<a xlink:href="banger__core__8_8cpp.html#ae0c6d738503a7f8bea4a0881fd15e7fb" target="_top" xlink:title="back_up_fader_if_a\l_fader_inside">
<polygon fill="white" stroke="black" points="116.5,-0 116.5,-40 217.5,-40 217.5,-0 116.5,-0"/>
<text text-anchor="start" x="124.5" y="-27" font-family="Helvetica,sans-Serif" font-size="10.00">back_up_fader_if_a</text>
<text text-anchor="middle" x="167" y="-11" font-family="Helvetica,sans-Serif" font-size="10.00">_fader_inside</text>
</a>
</g>
<!-- Node1&#45;&gt;Node2 -->
<g id="edge2" class="edge"><title>Node1&#45;&gt;Node2</title>
<path fill="none" stroke="midnightblue" d="M80.1836,-20C88.4362,-20 97.2989,-20 106.095,-20"/>
<polygon fill="midnightblue" stroke="midnightblue" points="106.35,-23.5001 116.35,-20 106.35,-16.5001 106.35,-23.5001"/>
</g>
<!-- Node3 -->
<g id="node5" class="node"><title>Node3</title>
<a xlink:href="banger__core__8_8cpp.html#ab6ed5760e29b7576e9acfbc4cb3da75e" target="_top" xlink:title="store_state_of_fader\l_before_bang">
<polygon fill="white" stroke="black" points="254,-0 254,-40 360,-40 360,-0 254,-0"/>
<text text-anchor="start" x="262" y="-27" font-family="Helvetica,sans-Serif" font-size="10.00">store_state_of_fader</text>
<text text-anchor="middle" x="307" y="-11" font-family="Helvetica,sans-Serif" font-size="10.00">_before_bang</text>
</a>
</g>
<!-- Node2&#45;&gt;Node3 -->
<g id="edge4" class="edge"><title>Node2&#45;&gt;Node3</title>
<path fill="none" stroke="midnightblue" d="M217.543,-20C225.987,-20 234.842,-20 243.56,-20"/>
<polygon fill="midnightblue" stroke="midnightblue" points="243.698,-23.5001 253.698,-20 243.698,-16.5001 243.698,-23.5001"/>
</g>
<!-- Node4 -->
<g id="node7" class="node"><title>Node4</title>
<a xlink:href="_c_o_r_e__6_8cpp.html#a1d69e941ecabe5dd73d0b108627b21d6" target="_top" xlink:title="detect_dock_used">
<polygon fill="white" stroke="black" points="396,-8 396,-32 492,-32 492,-8 396,-8"/>
<text text-anchor="middle" x="444" y="-19" font-family="Helvetica,sans-Serif" font-size="10.00">detect_dock_used</text>
</a>
</g>
<!-- Node3&#45;&gt;Node4 -->
<g id="edge6" class="edge"><title>Node3&#45;&gt;Node4</title>
<path fill="none" stroke="midnightblue" d="M360.36,-20C368.693,-20 377.34,-20 385.774,-20"/>
<polygon fill="midnightblue" stroke="midnightblue" points="385.922,-23.5001 395.922,-20 385.922,-16.5001 385.922,-23.5001"/>
</g>
</g>
</svg>
