<?xml version="1.0" encoding="UTF-8" standalone="no"?>
<!DOCTYPE svg PUBLIC "-//W3C//DTD SVG 1.1//EN"
 "http://www.w3.org/Graphics/SVG/1.1/DTD/svg11.dtd">
<!-- Generated by graphviz version 2.26.3 (20100126.1600)
 -->
<!-- Title: do_send_bang Pages: 1 -->
<svg width="1202pt" height="474pt"
 viewBox="0.00 0.00 1202.00 474.00" xmlns="http://www.w3.org/2000/svg" xmlns:xlink="http://www.w3.org/1999/xlink">
<g id="graph1" class="graph" transform="scale(1 1) rotate(0) translate(4 470)">
<title>do_send_bang</title>
<polygon fill="white" stroke="white" points="-4,5 -4,-470 1199,-470 1199,5 -4,5"/>
<!-- Node1 -->
<g id="node1" class="node"><title>Node1</title>
<polygon fill="#bfbfbf" stroke="black" points="0,-240 0,-264 80,-264 80,-240 0,-240"/>
<text text-anchor="middle" x="40" y="-251" font-family="Helvetica,sans-Serif" font-size="10.00">do_send_bang</text>
</g>
<!-- Node2 -->
<g id="node3" class="node"><title>Node2</title>
<a xlink:href="arduino__core__6___u_n_o_8cpp.html#a219226c1cd6cc17c78e62fd4445bb445" target="_top" xlink:title="arduino_do_digital\l_in_whitecat">
<polygon fill="white" stroke="black" points="855.5,-399 855.5,-439 950.5,-439 950.5,-399 855.5,-399"/>
<text text-anchor="start" x="863.5" y="-426" font-family="Helvetica,sans-Serif" font-size="10.00">arduino_do_digital</text>
<text text-anchor="middle" x="903" y="-410" font-family="Helvetica,sans-Serif" font-size="10.00">_in_whitecat</text>
</a>
</g>
<!-- Node1&#45;&gt;Node2 -->
<g id="edge2" class="edge"><title>Node1&#45;&gt;Node2</title>
<path fill="none" stroke="midnightblue" d="M49.9116,-273.284C62.4481,-298.408 86.0579,-340.271 116,-368 182.26,-429.362 203.691,-466 294,-466 294,-466 294,-466 598,-466 689.884,-466 795.54,-444.907 855.279,-430.982"/>
<polygon fill="midnightblue" stroke="midnightblue" points="53.0337,-271.701 45.5156,-264.236 46.7375,-274.76 53.0337,-271.701"/>
</g>
<!-- Node5 -->
<g id="node9" class="node"><title>Node5</title>
<a xlink:href="banger__core__8_8cpp.html#ae4008269e0575da11cc90e812961ef6f" target="_top" xlink:title="Bang_event">
<polygon fill="white" stroke="black" points="128,-288 128,-312 196,-312 196,-288 128,-288"/>
<text text-anchor="middle" x="162" y="-299" font-family="Helvetica,sans-Serif" font-size="10.00">Bang_event</text>
</a>
</g>
<!-- Node1&#45;&gt;Node5 -->
<g id="edge8" class="edge"><title>Node1&#45;&gt;Node5</title>
<path fill="none" stroke="midnightblue" d="M80.2449,-267.834C96.8416,-274.364 115.766,-281.809 131.224,-287.891"/>
<polygon fill="midnightblue" stroke="midnightblue" points="81.3729,-264.517 70.7858,-264.112 78.81,-271.031 81.3729,-264.517"/>
</g>
<!-- Node11 -->
<g id="node23" class="node"><title>Node11</title>
<a xlink:href="i_cat14_8cpp.html#a16285241f82898e7a5f051b03d90b9a3" target="_top" xlink:title="check_button">
<polygon fill="white" stroke="black" points="399.5,-202 399.5,-226 474.5,-226 474.5,-202 399.5,-202"/>
<text text-anchor="middle" x="437" y="-213" font-family="Helvetica,sans-Serif" font-size="10.00">check_button</text>
</a>
</g>
<!-- Node1&#45;&gt;Node11 -->
<g id="edge76" class="edge"><title>Node1&#45;&gt;Node11</title>
<path fill="none" stroke="midnightblue" d="M79.6417,-236.392C120.189,-221.327 185.373,-199.578 244,-191 287.976,-184.566 299.882,-185.625 344,-191 362.491,-193.253 382.604,-197.937 399.379,-202.493"/>
<polygon fill="midnightblue" stroke="midnightblue" points="78.2583,-233.173 70.1319,-239.971 80.7239,-239.724 78.2583,-233.173"/>
</g>
<!-- Node16 -->
<g id="node36" class="node"><title>Node16</title>
<a xlink:href="midi__13_8cpp.html#a6dff3d42682b58cc0a9875ee30fb4cd4" target="_top" xlink:title="do_midi_job">
<polygon fill="white" stroke="black" points="403,-378 403,-402 471,-402 471,-378 403,-378"/>
<text text-anchor="middle" x="437" y="-389" font-family="Helvetica,sans-Serif" font-size="10.00">do_midi_job</text>
</a>
</g>
<!-- Node1&#45;&gt;Node16 -->
<g id="edge82" class="edge"><title>Node1&#45;&gt;Node16</title>
<path fill="none" stroke="midnightblue" d="M57.9712,-271.483C90.8694,-305.406 164.718,-373.732 244,-395 298.064,-409.503 363.723,-402.956 402.842,-396.652"/>
<polygon fill="midnightblue" stroke="midnightblue" points="60.2999,-268.853 50.8668,-264.03 55.233,-273.683 60.2999,-268.853"/>
</g>
<!-- Node21 -->
<g id="node50" class="node"><title>Node21</title>
<a xlink:href="dmx__functions__13_8cpp.html#af8fd73062784b408e1c53510c7608d74" target="_top" xlink:title="do_crossfade">
<polygon fill="white" stroke="black" points="124.5,-48 124.5,-72 199.5,-72 199.5,-48 124.5,-48"/>
<text text-anchor="middle" x="162" y="-59" font-family="Helvetica,sans-Serif" font-size="10.00">do_crossfade</text>
</a>
</g>
<!-- Node1&#45;&gt;Node21 -->
<g id="edge58" class="edge"><title>Node1&#45;&gt;Node21</title>
<path fill="none" stroke="midnightblue" d="M48.007,-230.036C59.8733,-199.264 84.1939,-142.446 116,-101 124.467,-89.9671 136.197,-79.5666 145.692,-72.0014"/>
<polygon fill="midnightblue" stroke="midnightblue" points="44.5913,-229.175 44.3373,-239.767 51.141,-231.645 44.5913,-229.175"/>
</g>
<!-- Node28 -->
<g id="node67" class="node"><title>Node28</title>
<a xlink:href="keyboard__functions2_8cpp.html#a1069ef07040abfea667ec14eeefe7e56" target="_top" xlink:title="key_go">
<polygon fill="white" stroke="black" points="138,-110 138,-134 186,-134 186,-110 138,-110"/>
<text text-anchor="middle" x="162" y="-121" font-family="Helvetica,sans-Serif" font-size="10.00">key_go</text>
</a>
</g>
<!-- Node1&#45;&gt;Node28 -->
<g id="edge78" class="edge"><title>Node1&#45;&gt;Node28</title>
<path fill="none" stroke="midnightblue" d="M54.5432,-231.382C69.0081,-211.549 92.3942,-181.234 116,-158 124.817,-149.321 135.678,-140.738 144.632,-134.131"/>
<polygon fill="midnightblue" stroke="midnightblue" points="51.5608,-229.534 48.5562,-239.694 57.2408,-233.625 51.5608,-229.534"/>
</g>
<!-- Node29 -->
<g id="node71" class="node"><title>Node29</title>
<a xlink:href="sequentiel__6__core_8cpp.html#a152c03ccf49d8d9a457e048daaa48023" target="_top" xlink:title="do_logical_x1_x2">
<polygon fill="white" stroke="black" points="116,-240 116,-264 208,-264 208,-240 116,-240"/>
<text text-anchor="middle" x="162" y="-251" font-family="Helvetica,sans-Serif" font-size="10.00">do_logical_x1_x2</text>
</a>
</g>
<!-- Node1&#45;&gt;Node29 -->
<g id="edge84" class="edge"><title>Node1&#45;&gt;Node29</title>
<path fill="none" stroke="midnightblue" d="M90.3849,-252C98.8151,-252 107.524,-252 115.842,-252"/>
<polygon fill="midnightblue" stroke="midnightblue" points="90.2855,-248.5 80.2855,-252 90.2854,-255.5 90.2855,-248.5"/>
</g>
<!-- Node3 -->
<g id="node5" class="node"><title>Node3</title>
<a xlink:href="_m_a_i_n__avec__objets_8cpp.html#ace9c8a9b37c6087c3cffef442d71d70e" target="_top" xlink:title="dixiemes_de_secondes">
<polygon fill="white" stroke="black" points="997.5,-349 997.5,-373 1116.5,-373 1116.5,-349 997.5,-349"/>
<text text-anchor="middle" x="1057" y="-360" font-family="Helvetica,sans-Serif" font-size="10.00">dixiemes_de_secondes</text>
</a>
</g>
<!-- Node2&#45;&gt;Node3 -->
<g id="edge4" class="edge"><title>Node2&#45;&gt;Node3</title>
<path fill="none" stroke="midnightblue" d="M960.366,-397.395C982.116,-389.203 1006.1,-380.168 1024.74,-373.15"/>
<polygon fill="midnightblue" stroke="midnightblue" points="959.007,-394.166 950.882,-400.966 961.474,-400.717 959.007,-394.166"/>
</g>
<!-- Node4 -->
<g id="node7" class="node"><title>Node4</title>
<a xlink:href="_m_a_i_n__avec__objets_8cpp.html#ae66f6b31b5ad750f1fe042a706a4e3d4" target="_top" xlink:title="main">
<polygon fill="white" stroke="black" points="1156,-90 1156,-114 1194,-114 1194,-90 1156,-90"/>
<text text-anchor="middle" x="1175" y="-101" font-family="Helvetica,sans-Serif" font-size="10.00">main</text>
</a>
</g>
<!-- Node3&#45;&gt;Node4 -->
<g id="edge6" class="edge"><title>Node3&#45;&gt;Node4</title>
<path fill="none" stroke="midnightblue" d="M1066.78,-339.527C1090.58,-287.287 1150.92,-154.864 1169.48,-114.118"/>
<polygon fill="midnightblue" stroke="midnightblue" points="1063.49,-338.304 1062.53,-348.855 1069.86,-341.206 1063.49,-338.304"/>
</g>
<!-- Node6 -->
<g id="node11" class="node"><title>Node6</title>
<a xlink:href="banger__core__8_8cpp.html#a4003a08a1620546de77b118c91d2fd9d" target="_top" xlink:title="do_bang">
<polygon fill="white" stroke="black" points="267.5,-338 267.5,-362 320.5,-362 320.5,-338 267.5,-338"/>
<text text-anchor="middle" x="294" y="-349" font-family="Helvetica,sans-Serif" font-size="10.00">do_bang</text>
</a>
</g>
<!-- Node5&#45;&gt;Node6 -->
<g id="edge10" class="edge"><title>Node5&#45;&gt;Node6</title>
<path fill="none" stroke="midnightblue" d="M203.519,-315.727C224.337,-323.613 248.941,-332.932 267.233,-339.861"/>
<polygon fill="midnightblue" stroke="midnightblue" points="204.545,-312.373 193.954,-312.104 202.065,-318.919 204.545,-312.373"/>
</g>
<!-- Node8 -->
<g id="node16" class="node"><title>Node8</title>
<a xlink:href="banger__core__8_8cpp.html#a4fe16ad483c0c1609d97aeb9a23c74ee" target="_top" xlink:title="do_logical_fenetre\l_banger">
<polygon fill="white" stroke="black" points="246.5,-280 246.5,-320 341.5,-320 341.5,-280 246.5,-280"/>
<text text-anchor="start" x="254.5" y="-307" font-family="Helvetica,sans-Serif" font-size="10.00">do_logical_fenetre</text>
<text text-anchor="middle" x="294" y="-291" font-family="Helvetica,sans-Serif" font-size="10.00">_banger</text>
</a>
</g>
<!-- Node5&#45;&gt;Node8 -->
<g id="edge16" class="edge"><title>Node5&#45;&gt;Node8</title>
<path fill="none" stroke="midnightblue" d="M206.357,-300C219.237,-300 233.352,-300 246.421,-300"/>
<polygon fill="midnightblue" stroke="midnightblue" points="206.337,-296.5 196.337,-300 206.337,-303.5 206.337,-296.5"/>
</g>
<!-- Node10 -->
<g id="node21" class="node"><title>Node10</title>
<a xlink:href="banger__core__8_8cpp.html#ab405ab53ea444b049e5ffa258498fcb6" target="_top" xlink:title="refresh_banger_wx">
<polygon fill="white" stroke="black" points="244.5,-200 244.5,-224 343.5,-224 343.5,-200 244.5,-200"/>
<text text-anchor="middle" x="294" y="-211" font-family="Helvetica,sans-Serif" font-size="10.00">refresh_banger_wx</text>
</a>
</g>
<!-- Node5&#45;&gt;Node10 -->
<g id="edge22" class="edge"><title>Node5&#45;&gt;Node10</title>
<path fill="none" stroke="midnightblue" d="M192.398,-282.657C197.649,-279.52 203.018,-276.22 208,-273 232.904,-256.901 260.728,-236.75 277.803,-224.122"/>
<polygon fill="midnightblue" stroke="midnightblue" points="190.605,-279.652 183.763,-287.741 194.156,-285.684 190.605,-279.652"/>
</g>
<!-- Node5&#45;&gt;Node16 -->
<g id="edge56" class="edge"><title>Node5&#45;&gt;Node16</title>
<path fill="none" stroke="midnightblue" d="M178.295,-319.718C193.419,-336.495 217.535,-359.627 244,-371 295.968,-393.333 362.846,-394.536 402.684,-392.725"/>
<polygon fill="midnightblue" stroke="midnightblue" points="180.834,-317.304 171.622,-312.071 175.56,-321.907 180.834,-317.304"/>
</g>
<!-- Node7 -->
<g id="node13" class="node"><title>Node7</title>
<a xlink:href="_m_a_i_n__avec__objets_8cpp.html#a8e80f54ac804eddce8ed6e45adb1db44" target="_top" xlink:title="ticker_full_loop">
<polygon fill="white" stroke="black" points="716,-202 716,-226 798,-226 798,-202 716,-202"/>
<text text-anchor="middle" x="757" y="-213" font-family="Helvetica,sans-Serif" font-size="10.00">ticker_full_loop</text>
</a>
</g>
<!-- Node6&#45;&gt;Node7 -->
<g id="edge12" class="edge"><title>Node6&#45;&gt;Node7</title>
<path fill="none" stroke="midnightblue" d="M331.058,-350.975C400.237,-351.393 552.309,-345.622 666,-293 700.365,-277.094 731.626,-244.189 746.994,-226.273"/>
<polygon fill="midnightblue" stroke="midnightblue" points="330.723,-347.471 320.685,-350.861 330.646,-354.471 330.723,-347.471"/>
</g>
<!-- Node7&#45;&gt;Node4 -->
<g id="edge14" class="edge"><title>Node7&#45;&gt;Node4</title>
<path fill="none" stroke="midnightblue" d="M807.987,-200.338C901.067,-175.398 1094.58,-123.547 1155.92,-107.113"/>
<polygon fill="midnightblue" stroke="midnightblue" points="806.977,-196.986 798.223,-202.954 808.789,-203.747 806.977,-196.986"/>
</g>
<!-- Node9 -->
<g id="node18" class="node"><title>Node9</title>
<a xlink:href="procs__visuels__rebuild1_8cpp.html#ae710b6e599e321ad5934a90140067054" target="_top" xlink:title="check_graphics_mouse\l_handling">
<polygon fill="white" stroke="black" points="538.5,-244 538.5,-284 657.5,-284 657.5,-244 538.5,-244"/>
<text text-anchor="start" x="546.5" y="-271" font-family="Helvetica,sans-Serif" font-size="10.00">check_graphics_mouse</text>
<text text-anchor="middle" x="598" y="-255" font-family="Helvetica,sans-Serif" font-size="10.00">_handling</text>
</a>
</g>
<!-- Node8&#45;&gt;Node9 -->
<g id="edge18" class="edge"><title>Node8&#45;&gt;Node9</title>
<path fill="none" stroke="midnightblue" d="M351.714,-301.579C391.848,-301.8 446.464,-300.353 494,-293 508.541,-290.751 523.944,-287.154 538.312,-283.248"/>
<polygon fill="midnightblue" stroke="midnightblue" points="351.608,-298.078 341.576,-301.486 351.544,-305.077 351.608,-298.078"/>
</g>
<!-- Node9&#45;&gt;Node7 -->
<g id="edge20" class="edge"><title>Node9&#45;&gt;Node7</title>
<path fill="none" stroke="midnightblue" d="M667.356,-242.19C684.977,-236.649 703.273,-230.895 718.707,-226.042"/>
<polygon fill="midnightblue" stroke="midnightblue" points="666.148,-238.901 657.658,-245.24 668.248,-245.579 666.148,-238.901"/>
</g>
<!-- Node10&#45;&gt;Node11 -->
<g id="edge24" class="edge"><title>Node10&#45;&gt;Node11</title>
<path fill="none" stroke="midnightblue" d="M353.613,-212.834C369.044,-213.05 385.235,-213.276 399.202,-213.471"/>
<polygon fill="midnightblue" stroke="midnightblue" points="353.661,-209.334 343.613,-212.694 353.563,-216.333 353.661,-209.334"/>
</g>
<!-- Node13 -->
<g id="node28" class="node"><title>Node13</title>
<a xlink:href="keyboard__functions2_8cpp.html#af3dd6697323b10b480719c1612bcf29a" target="_top" xlink:title="key_backward">
<polygon fill="white" stroke="black" points="397,-160 397,-184 477,-184 477,-160 397,-160"/>
<text text-anchor="middle" x="437" y="-171" font-family="Helvetica,sans-Serif" font-size="10.00">key_backward</text>
</a>
</g>
<!-- Node10&#45;&gt;Node13 -->
<g id="edge30" class="edge"><title>Node10&#45;&gt;Node13</title>
<path fill="none" stroke="midnightblue" d="M346.911,-197.2C363.327,-192.608 381.149,-187.623 396.574,-183.308"/>
<polygon fill="midnightblue" stroke="midnightblue" points="345.592,-193.934 336.905,-199.999 347.478,-200.675 345.592,-193.934"/>
</g>
<!-- Node15 -->
<g id="node33" class="node"><title>Node15</title>
<a xlink:href="keyboard__functions2_8cpp.html#a6b73a3669797504ce2e357d9a8b9a2c2" target="_top" xlink:title="key_forward">
<polygon fill="white" stroke="black" points="402,-118 402,-142 472,-142 472,-118 402,-118"/>
<text text-anchor="middle" x="437" y="-129" font-family="Helvetica,sans-Serif" font-size="10.00">key_forward</text>
</a>
</g>
<!-- Node10&#45;&gt;Node15 -->
<g id="edge36" class="edge"><title>Node10&#45;&gt;Node15</title>
<path fill="none" stroke="midnightblue" d="M316.52,-193.515C333.275,-180.403 357.108,-163.063 380,-151 386.811,-147.411 394.372,-144.161 401.703,-141.349"/>
<polygon fill="midnightblue" stroke="midnightblue" points="314.095,-190.972 308.446,-199.935 318.452,-196.451 314.095,-190.972"/>
</g>
<!-- Node10&#45;&gt;Node16 -->
<g id="edge40" class="edge"><title>Node10&#45;&gt;Node16</title>
<path fill="none" stroke="midnightblue" d="M311.061,-231.734C320.819,-243.119 333.224,-257.761 344,-271 375.284,-309.434 411.066,-355.98 427.652,-377.711"/>
<polygon fill="midnightblue" stroke="midnightblue" points="313.658,-229.386 304.484,-224.086 308.35,-233.95 313.658,-229.386"/>
</g>
<!-- Node20 -->
<g id="node46" class="node"><title>Node20</title>
<a xlink:href="sequentiel__6__core_8cpp.html#a2a71c851cf25565491dd10423bc80380" target="_top" xlink:title="do_logical_Sequenciel\l_Window">
<polygon fill="white" stroke="black" points="380.5,-244 380.5,-284 493.5,-284 493.5,-244 380.5,-244"/>
<text text-anchor="start" x="388.5" y="-271" font-family="Helvetica,sans-Serif" font-size="10.00">do_logical_Sequenciel</text>
<text text-anchor="middle" x="437" y="-255" font-family="Helvetica,sans-Serif" font-size="10.00">_Window</text>
</a>
</g>
<!-- Node10&#45;&gt;Node20 -->
<g id="edge52" class="edge"><title>Node10&#45;&gt;Node20</title>
<path fill="none" stroke="midnightblue" d="M336.67,-227.516C350.869,-232.679 366.889,-238.505 381.891,-243.961"/>
<polygon fill="midnightblue" stroke="midnightblue" points="337.761,-224.189 327.167,-224.061 335.368,-230.767 337.761,-224.189"/>
</g>
<!-- Node12 -->
<g id="node25" class="node"><title>Node12</title>
<a xlink:href="i_cat14_8cpp.html#aa9772b548765a631d4bae1c14053b4e1" target="_top" xlink:title="DoJobFantastickTouch">
<polygon fill="white" stroke="black" points="539.5,-202 539.5,-226 656.5,-226 656.5,-202 539.5,-202"/>
<text text-anchor="middle" x="598" y="-213" font-family="Helvetica,sans-Serif" font-size="10.00">DoJobFantastickTouch</text>
</a>
</g>
<!-- Node11&#45;&gt;Node12 -->
<g id="edge26" class="edge"><title>Node11&#45;&gt;Node12</title>
<path fill="none" stroke="midnightblue" d="M485.039,-214C502.111,-214 521.521,-214 539.378,-214"/>
<polygon fill="midnightblue" stroke="midnightblue" points="484.747,-210.5 474.747,-214 484.747,-217.5 484.747,-210.5"/>
</g>
<!-- Node12&#45;&gt;Node7 -->
<g id="edge28" class="edge"><title>Node12&#45;&gt;Node7</title>
<path fill="none" stroke="midnightblue" d="M667.014,-214C683.666,-214 700.942,-214 715.852,-214"/>
<polygon fill="midnightblue" stroke="midnightblue" points="666.754,-210.5 656.754,-214 666.754,-217.5 666.754,-210.5"/>
</g>
<!-- Node14 -->
<g id="node30" class="node"><title>Node14</title>
<a xlink:href="keyboard__routines2_8cpp.html#a8563320b8eab661232619224650de244" target="_top" xlink:title="commandes_clavier">
<polygon fill="white" stroke="black" points="546,-139 546,-163 650,-163 650,-139 546,-139"/>
<text text-anchor="middle" x="598" y="-150" font-family="Helvetica,sans-Serif" font-size="10.00">commandes_clavier</text>
</a>
</g>
<!-- Node13&#45;&gt;Node14 -->
<g id="edge32" class="edge"><title>Node13&#45;&gt;Node14</title>
<path fill="none" stroke="midnightblue" d="M487.27,-165.443C505.898,-163.013 527.053,-160.254 545.845,-157.803"/>
<polygon fill="midnightblue" stroke="midnightblue" points="486.675,-161.991 477.212,-166.755 487.581,-168.932 486.675,-161.991"/>
</g>
<!-- Node14&#45;&gt;Node7 -->
<g id="edge34" class="edge"><title>Node14&#45;&gt;Node7</title>
<path fill="none" stroke="midnightblue" d="M638.01,-166.853C665.543,-177.762 701.545,-192.027 726.707,-201.997"/>
<polygon fill="midnightblue" stroke="midnightblue" points="639.243,-163.577 628.657,-163.147 636.664,-170.085 639.243,-163.577"/>
</g>
<!-- Node15&#45;&gt;Node14 -->
<g id="edge38" class="edge"><title>Node15&#45;&gt;Node14</title>
<path fill="none" stroke="midnightblue" d="M482.326,-135.912C502.115,-138.493 525.436,-141.535 545.934,-144.209"/>
<polygon fill="midnightblue" stroke="midnightblue" points="482.701,-132.431 472.332,-134.609 481.795,-139.373 482.701,-132.431"/>
</g>
<!-- Node17 -->
<g id="node38" class="node"><title>Node17</title>
<a xlink:href="midi__13_8cpp.html#a6bedf9750195224914cd87c4e73ab626" target="_top" xlink:title="ventilate_midi_to_midiarray">
<polygon fill="white" stroke="black" points="530.5,-378 530.5,-402 665.5,-402 665.5,-378 530.5,-378"/>
<text text-anchor="middle" x="598" y="-389" font-family="Helvetica,sans-Serif" font-size="10.00">ventilate_midi_to_midiarray</text>
</a>
</g>
<!-- Node16&#45;&gt;Node17 -->
<g id="edge42" class="edge"><title>Node16&#45;&gt;Node17</title>
<path fill="none" stroke="midnightblue" d="M481.272,-390C496.455,-390 513.811,-390 530.414,-390"/>
<polygon fill="midnightblue" stroke="midnightblue" points="481.144,-386.5 471.144,-390 481.144,-393.5 481.144,-386.5"/>
</g>
<!-- Node18 -->
<g id="node40" class="node"><title>Node18</title>
<a xlink:href="midi__13_8cpp.html#afa49dd5668303c2448676c8243737c2d" target="_top" xlink:title="simulate_midi">
<polygon fill="white" stroke="black" points="718.5,-378 718.5,-402 795.5,-402 795.5,-378 718.5,-378"/>
<text text-anchor="middle" x="757" y="-389" font-family="Helvetica,sans-Serif" font-size="10.00">simulate_midi</text>
</a>
</g>
<!-- Node17&#45;&gt;Node18 -->
<g id="edge44" class="edge"><title>Node17&#45;&gt;Node18</title>
<path fill="none" stroke="midnightblue" d="M676.017,-390C690.693,-390 705.437,-390 718.247,-390"/>
<polygon fill="midnightblue" stroke="midnightblue" points="675.892,-386.5 665.892,-390 675.891,-393.5 675.892,-386.5"/>
</g>
<!-- Node18&#45;&gt;Node2 -->
<g id="edge50" class="edge"><title>Node18&#45;&gt;Node2</title>
<path fill="none" stroke="midnightblue" d="M805.948,-399.722C821.914,-402.894 839.608,-406.408 855.468,-409.559"/>
<polygon fill="midnightblue" stroke="midnightblue" points="806.232,-396.211 795.742,-397.695 804.868,-403.077 806.232,-396.211"/>
</g>
<!-- Node19 -->
<g id="node42" class="node"><title>Node19</title>
<a xlink:href="arduino__core__6___u_n_o_8cpp.html#ae72d1a8d74d9ab5515962e03e7e664d6" target="_top" xlink:title="arduino_do_analog_in\l_whitecat">
<polygon fill="white" stroke="black" points="848,-341 848,-381 958,-381 958,-341 848,-341"/>
<text text-anchor="start" x="856" y="-368" font-family="Helvetica,sans-Serif" font-size="10.00">arduino_do_analog_in</text>
<text text-anchor="middle" x="903" y="-352" font-family="Helvetica,sans-Serif" font-size="10.00">_whitecat</text>
</a>
</g>
<!-- Node18&#45;&gt;Node19 -->
<g id="edge46" class="edge"><title>Node18&#45;&gt;Node19</title>
<path fill="none" stroke="midnightblue" d="M805.786,-380.31C819.284,-377.628 834.029,-374.7 847.861,-371.952"/>
<polygon fill="midnightblue" stroke="midnightblue" points="804.868,-376.923 795.742,-382.305 806.232,-383.789 804.868,-376.923"/>
</g>
<!-- Node19&#45;&gt;Node3 -->
<g id="edge48" class="edge"><title>Node19&#45;&gt;Node3</title>
<path fill="none" stroke="midnightblue" d="M968.426,-361C978,-361 987.817,-361 997.269,-361"/>
<polygon fill="midnightblue" stroke="midnightblue" points="968.163,-357.5 958.163,-361 968.163,-364.5 968.163,-357.5"/>
</g>
<!-- Node20&#45;&gt;Node9 -->
<g id="edge54" class="edge"><title>Node20&#45;&gt;Node9</title>
<path fill="none" stroke="midnightblue" d="M504.106,-264C515.511,-264 527.286,-264 538.478,-264"/>
<polygon fill="midnightblue" stroke="midnightblue" points="503.763,-260.5 493.763,-264 503.763,-267.5 503.763,-260.5"/>
</g>
<!-- Node22 -->
<g id="node52" class="node"><title>Node22</title>
<a xlink:href="_m_a_i_n__avec__objets_8cpp.html#a6a015280c1363331ada8a329be6eb7c8" target="_top" xlink:title="ticker">
<polygon fill="white" stroke="black" points="273.5,-38 273.5,-62 314.5,-62 314.5,-38 273.5,-38"/>
<text text-anchor="middle" x="294" y="-49" font-family="Helvetica,sans-Serif" font-size="10.00">ticker</text>
</a>
</g>
<!-- Node21&#45;&gt;Node22 -->
<g id="edge60" class="edge"><title>Node21&#45;&gt;Node22</title>
<path fill="none" stroke="midnightblue" d="M209.936,-56.3685C231.757,-54.7154 256.431,-52.8461 273.374,-51.5626"/>
<polygon fill="midnightblue" stroke="midnightblue" points="209.533,-52.8889 199.826,-57.1344 210.062,-59.8689 209.533,-52.8889"/>
</g>
<!-- Node22&#45;&gt;Node4 -->
<g id="edge74" class="edge"><title>Node22&#45;&gt;Node4</title>
<path fill="none" stroke="midnightblue" d="M324.745,-50.3359C379.619,-50.9056 498.05,-52 598,-52 598,-52 598,-52 903,-52 999.267,-52 1111.59,-82.6704 1155.76,-95.9688"/>
<polygon fill="midnightblue" stroke="midnightblue" points="324.678,-46.8351 314.641,-50.2294 324.604,-53.8347 324.678,-46.8351"/>
</g>
<!-- Node23 -->
<g id="node54" class="node"><title>Node23</title>
<a xlink:href="_c_f_g__config__panel__8_8cpp.html#aff76db94408106be22f658a05f17831a" target="_top" xlink:title="do_core_config">
<polygon fill="white" stroke="black" points="395.5,-0 395.5,-24 478.5,-24 478.5,-0 395.5,-0"/>
<text text-anchor="middle" x="437" y="-11" font-family="Helvetica,sans-Serif" font-size="10.00">do_core_config</text>
</a>
</g>
<!-- Node22&#45;&gt;Node23 -->
<g id="edge62" class="edge"><title>Node22&#45;&gt;Node23</title>
<path fill="none" stroke="midnightblue" d="M324.592,-41.8706C345.189,-36.3973 372.611,-29.1103 395.214,-23.1039"/>
<polygon fill="midnightblue" stroke="midnightblue" points="323.559,-38.5236 314.793,-44.4745 325.357,-45.2888 323.559,-38.5236"/>
</g>
<!-- Node24 -->
<g id="node56" class="node"><title>Node24</title>
<a xlink:href="_c_f_g__config__panel__8_8cpp.html#ad39c46e2fb3a3ba7ea0460140ead4f96" target="_top" xlink:title="do_panel_config">
<polygon fill="white" stroke="black" points="554.5,-0 554.5,-24 641.5,-24 641.5,-0 554.5,-0"/>
<text text-anchor="middle" x="598" y="-11" font-family="Helvetica,sans-Serif" font-size="10.00">do_panel_config</text>
</a>
</g>
<!-- Node23&#45;&gt;Node24 -->
<g id="edge64" class="edge"><title>Node23&#45;&gt;Node24</title>
<path fill="none" stroke="midnightblue" d="M488.97,-12C510.077,-12 534.189,-12 554.362,-12"/>
<polygon fill="midnightblue" stroke="midnightblue" points="488.881,-8.5001 478.881,-12 488.881,-15.5001 488.881,-8.5001"/>
</g>
<!-- Node25 -->
<g id="node58" class="node"><title>Node25</title>
<a xlink:href="_c_f_g__config__panel__8_8cpp.html#a7968da66bccdba8b864caf6c8435f68e" target="_top" xlink:title="config_general_menu">
<polygon fill="white" stroke="black" points="702.5,-0 702.5,-24 811.5,-24 811.5,-0 702.5,-0"/>
<text text-anchor="middle" x="757" y="-11" font-family="Helvetica,sans-Serif" font-size="10.00">config_general_menu</text>
</a>
</g>
<!-- Node24&#45;&gt;Node25 -->
<g id="edge66" class="edge"><title>Node24&#45;&gt;Node25</title>
<path fill="none" stroke="midnightblue" d="M652.267,-12C668.483,-12 686.262,-12 702.493,-12"/>
<polygon fill="midnightblue" stroke="midnightblue" points="651.868,-8.5001 641.868,-12 651.868,-15.5001 651.868,-8.5001"/>
</g>
<!-- Node26 -->
<g id="node60" class="node"><title>Node26</title>
<a xlink:href="graphics__rebuild1_8cpp.html#ac2eae1e03fb72cc734ffbcef566483bf" target="_top" xlink:title="Boxes">
<polygon fill="white" stroke="black" points="881,-0 881,-24 925,-24 925,-0 881,-0"/>
<text text-anchor="middle" x="903" y="-11" font-family="Helvetica,sans-Serif" font-size="10.00">Boxes</text>
</a>
</g>
<!-- Node25&#45;&gt;Node26 -->
<g id="edge68" class="edge"><title>Node25&#45;&gt;Node26</title>
<path fill="none" stroke="midnightblue" d="M822.019,-12C843.086,-12 865.051,-12 880.781,-12"/>
<polygon fill="midnightblue" stroke="midnightblue" points="821.78,-8.5001 811.78,-12 821.78,-15.5001 821.78,-8.5001"/>
</g>
<!-- Node27 -->
<g id="node62" class="node"><title>Node27</title>
<a xlink:href="_m_a_i_n__avec__objets_8cpp.html#ade8d4ba65d55c94f8ee277829d722155" target="_top" xlink:title="main_actions_on_screen">
<polygon fill="white" stroke="black" points="994.5,-0 994.5,-24 1119.5,-24 1119.5,-0 994.5,-0"/>
<text text-anchor="middle" x="1057" y="-11" font-family="Helvetica,sans-Serif" font-size="10.00">main_actions_on_screen</text>
</a>
</g>
<!-- Node26&#45;&gt;Node27 -->
<g id="edge70" class="edge"><title>Node26&#45;&gt;Node27</title>
<path fill="none" stroke="midnightblue" d="M935.111,-12C952.282,-12 974.03,-12 994.387,-12"/>
<polygon fill="midnightblue" stroke="midnightblue" points="935.064,-8.5001 925.064,-12 935.064,-15.5001 935.064,-8.5001"/>
</g>
<!-- Node27&#45;&gt;Node4 -->
<g id="edge72" class="edge"><title>Node27&#45;&gt;Node4</title>
<path fill="none" stroke="midnightblue" d="M1104.01,-28.4714C1109.62,-31.2734 1115.09,-34.4463 1120,-38 1139.94,-52.4236 1157.4,-75.4787 1167.04,-89.6248"/>
<polygon fill="midnightblue" stroke="midnightblue" points="1105.06,-25.1033 1094.51,-24.1039 1102.13,-31.4628 1105.06,-25.1033"/>
</g>
<!-- Node28&#45;&gt;Node14 -->
<g id="edge80" class="edge"><title>Node28&#45;&gt;Node14</title>
<path fill="none" stroke="midnightblue" d="M196.19,-115.545C256.825,-105.227 386.899,-88.1903 494,-109 523.246,-114.682 554.682,-128.575 575.244,-138.834"/>
<polygon fill="midnightblue" stroke="midnightblue" points="195.286,-112.15 186.039,-117.321 196.492,-119.045 195.286,-112.15"/>
</g>
<!-- Node29&#45;&gt;Node20 -->
<g id="edge86" class="edge"><title>Node29&#45;&gt;Node20</title>
<path fill="none" stroke="midnightblue" d="M218.106,-254.448C265.43,-256.513 332.853,-259.455 380.335,-261.527"/>
<polygon fill="midnightblue" stroke="midnightblue" points="218.172,-250.948 208.029,-254.009 217.867,-257.941 218.172,-250.948"/>
</g>
</g>
</svg>
