<?xml version="1.0" encoding="UTF-8" standalone="no"?>
<!DOCTYPE svg PUBLIC "-//W3C//DTD SVG 1.1//EN"
 "http://www.w3.org/Graphics/SVG/1.1/DTD/svg11.dtd">
<!-- Generated by graphviz version 2.26.3 (20100126.1600)
 -->
<!-- Title: store_state_of_fader_before_bang Pages: 1 -->
<svg width="2314pt" height="516pt"
 viewBox="0.00 0.00 2314.00 516.00" xmlns="http://www.w3.org/2000/svg" xmlns:xlink="http://www.w3.org/1999/xlink">
<g id="graph1" class="graph" transform="scale(1 1) rotate(0) translate(4 512)">
<title>store_state_of_fader_before_bang</title>
<polygon fill="white" stroke="white" points="-4,5 -4,-512 2311,-512 2311,5 -4,5"/>
<!-- Node1 -->
<g id="node1" class="node"><title>Node1</title>
<polygon fill="#bfbfbf" stroke="black" points="0,-221 0,-261 106,-261 106,-221 0,-221"/>
<text text-anchor="start" x="8" y="-248" font-family="Helvetica,sans-Serif" font-size="10.00">store_state_of_fader</text>
<text text-anchor="middle" x="53" y="-232" font-family="Helvetica,sans-Serif" font-size="10.00">_before_bang</text>
</g>
<!-- Node2 -->
<g id="node3" class="node"><title>Node2</title>
<a xlink:href="banger__core__8_8cpp.html#ae0c6d738503a7f8bea4a0881fd15e7fb" target="_top" xlink:title="back_up_fader_if_a\l_fader_inside">
<polygon fill="white" stroke="black" points="142.5,-221 142.5,-261 243.5,-261 243.5,-221 142.5,-221"/>
<text text-anchor="start" x="150.5" y="-248" font-family="Helvetica,sans-Serif" font-size="10.00">back_up_fader_if_a</text>
<text text-anchor="middle" x="193" y="-232" font-family="Helvetica,sans-Serif" font-size="10.00">_fader_inside</text>
</a>
</g>
<!-- Node1&#45;&gt;Node2 -->
<g id="edge2" class="edge"><title>Node1&#45;&gt;Node2</title>
<path fill="none" stroke="midnightblue" d="M116.364,-241C124.993,-241 133.759,-241 142.129,-241"/>
<polygon fill="midnightblue" stroke="midnightblue" points="116.327,-237.5 106.327,-241 116.327,-244.5 116.327,-237.5"/>
</g>
<!-- Node3 -->
<g id="node5" class="node"><title>Node3</title>
<a xlink:href="banger__core__8_8cpp.html#afa98bbdb588f29b8fc94df9f7754f05f" target="_top" xlink:title="do_send_bang">
<polygon fill="white" stroke="black" points="280,-229 280,-253 360,-253 360,-229 280,-229"/>
<text text-anchor="middle" x="320" y="-240" font-family="Helvetica,sans-Serif" font-size="10.00">do_send_bang</text>
</a>
</g>
<!-- Node2&#45;&gt;Node3 -->
<g id="edge4" class="edge"><title>Node2&#45;&gt;Node3</title>
<path fill="none" stroke="midnightblue" d="M253.827,-241C262.636,-241 271.513,-241 279.78,-241"/>
<polygon fill="midnightblue" stroke="midnightblue" points="253.559,-237.5 243.559,-241 253.559,-244.5 253.559,-237.5"/>
</g>
<!-- Node4 -->
<g id="node7" class="node"><title>Node4</title>
<a xlink:href="arduino__core__6___u_n_o_8cpp.html#a219226c1cd6cc17c78e62fd4445bb445" target="_top" xlink:title="arduino_do_digital\l_in_whitecat">
<polygon fill="white" stroke="black" points="1091.5,-468 1091.5,-508 1186.5,-508 1186.5,-468 1091.5,-468"/>
<text text-anchor="start" x="1099.5" y="-495" font-family="Helvetica,sans-Serif" font-size="10.00">arduino_do_digital</text>
<text text-anchor="middle" x="1139" y="-479" font-family="Helvetica,sans-Serif" font-size="10.00">_in_whitecat</text>
</a>
</g>
<!-- Node3&#45;&gt;Node4 -->
<g id="edge6" class="edge"><title>Node3&#45;&gt;Node4</title>
<path fill="none" stroke="midnightblue" d="M325.057,-263.423C333.901,-297.973 355.243,-364.465 396,-405 452.125,-460.819 478.844,-479 558,-479 558,-479 558,-479 862,-479 942.594,-479 1036.31,-482.853 1091.47,-485.517"/>
<polygon fill="midnightblue" stroke="midnightblue" points="328.383,-262.289 322.616,-253.401 321.582,-263.945 328.383,-262.289"/>
</g>
<!-- Node7 -->
<g id="node13" class="node"><title>Node7</title>
<a xlink:href="banger__core__8_8cpp.html#ae4008269e0575da11cc90e812961ef6f" target="_top" xlink:title="Bang_event">
<polygon fill="white" stroke="black" points="400,-229 400,-253 468,-253 468,-229 400,-229"/>
<text text-anchor="middle" x="434" y="-240" font-family="Helvetica,sans-Serif" font-size="10.00">Bang_event</text>
</a>
</g>
<!-- Node3&#45;&gt;Node7 -->
<g id="edge12" class="edge"><title>Node3&#45;&gt;Node7</title>
<path fill="none" stroke="midnightblue" d="M370.409,-241C380.357,-241 390.577,-241 399.834,-241"/>
<polygon fill="midnightblue" stroke="midnightblue" points="370.192,-237.5 360.192,-241 370.192,-244.5 370.192,-237.5"/>
</g>
<!-- Node13 -->
<g id="node27" class="node"><title>Node13</title>
<a xlink:href="i_cat14_8cpp.html#a16285241f82898e7a5f051b03d90b9a3" target="_top" xlink:title="check_button">
<polygon fill="white" stroke="black" points="663.5,-0 663.5,-24 738.5,-24 738.5,-0 663.5,-0"/>
<text text-anchor="middle" x="701" y="-11" font-family="Helvetica,sans-Serif" font-size="10.00">check_button</text>
</a>
</g>
<!-- Node3&#45;&gt;Node13 -->
<g id="edge104" class="edge"><title>Node3&#45;&gt;Node13</title>
<path fill="none" stroke="midnightblue" d="M325.078,-218.715C333.776,-185.723 354.724,-124.217 396,-91 475.474,-27.0423 601.026,-14.3449 663.339,-12.1645"/>
<polygon fill="midnightblue" stroke="midnightblue" points="321.604,-218.179 322.586,-228.728 328.397,-219.869 321.604,-218.179"/>
</g>
<!-- Node18 -->
<g id="node40" class="node"><title>Node18</title>
<a xlink:href="midi__13_8cpp.html#a6dff3d42682b58cc0a9875ee30fb4cd4" target="_top" xlink:title="do_midi_job">
<polygon fill="white" stroke="black" points="667,-300 667,-324 735,-324 735,-300 667,-300"/>
<text text-anchor="middle" x="701" y="-311" font-family="Helvetica,sans-Serif" font-size="10.00">do_midi_job</text>
</a>
</g>
<!-- Node3&#45;&gt;Node18 -->
<g id="edge110" class="edge"><title>Node3&#45;&gt;Node18</title>
<path fill="none" stroke="midnightblue" d="M353.099,-257.4C389.88,-274.645 451.548,-300.68 508,-311 562.88,-321.032 628.014,-318.438 666.849,-315.397"/>
<polygon fill="midnightblue" stroke="midnightblue" points="354.39,-254.139 343.856,-253.005 351.384,-260.46 354.39,-254.139"/>
</g>
<!-- Node35 -->
<g id="node82" class="node"><title>Node35</title>
<a xlink:href="dmx__functions__13_8cpp.html#af8fd73062784b408e1c53510c7608d74" target="_top" xlink:title="do_crossfade">
<polygon fill="white" stroke="black" points="396.5,-372 396.5,-396 471.5,-396 471.5,-372 396.5,-372"/>
<text text-anchor="middle" x="434" y="-383" font-family="Helvetica,sans-Serif" font-size="10.00">do_crossfade</text>
</a>
</g>
<!-- Node3&#45;&gt;Node35 -->
<g id="edge94" class="edge"><title>Node3&#45;&gt;Node35</title>
<path fill="none" stroke="midnightblue" d="M330.344,-261.985C343.301,-286.856 367.319,-328.623 396,-358 401.026,-363.148 407.214,-367.889 413.127,-371.874"/>
<polygon fill="midnightblue" stroke="midnightblue" points="333.444,-260.361 325.784,-253.042 327.208,-263.541 333.444,-260.361"/>
</g>
<!-- Node38 -->
<g id="node91" class="node"><title>Node38</title>
<a xlink:href="keyboard__functions2_8cpp.html#a1069ef07040abfea667ec14eeefe7e56" target="_top" xlink:title="key_go">
<polygon fill="white" stroke="black" points="410,-100 410,-124 458,-124 458,-100 410,-100"/>
<text text-anchor="middle" x="434" y="-111" font-family="Helvetica,sans-Serif" font-size="10.00">key_go</text>
</a>
</g>
<!-- Node3&#45;&gt;Node38 -->
<g id="edge106" class="edge"><title>Node3&#45;&gt;Node38</title>
<path fill="none" stroke="midnightblue" d="M337.741,-220.924C361.69,-193.824 403.621,-146.376 423.269,-124.143"/>
<polygon fill="midnightblue" stroke="midnightblue" points="334.93,-218.82 330.931,-228.631 340.175,-223.455 334.93,-218.82"/>
</g>
<!-- Node39 -->
<g id="node95" class="node"><title>Node39</title>
<a xlink:href="sequentiel__6__core_8cpp.html#a152c03ccf49d8d9a457e048daaa48023" target="_top" xlink:title="do_logical_x1_x2">
<polygon fill="white" stroke="black" points="512,-154 512,-178 604,-178 604,-154 512,-154"/>
<text text-anchor="middle" x="558" y="-165" font-family="Helvetica,sans-Serif" font-size="10.00">do_logical_x1_x2</text>
</a>
</g>
<!-- Node3&#45;&gt;Node39 -->
<g id="edge112" class="edge"><title>Node3&#45;&gt;Node39</title>
<path fill="none" stroke="midnightblue" d="M368.009,-225.871C412.753,-211.771 478.603,-191.02 519.856,-178.02"/>
<polygon fill="midnightblue" stroke="midnightblue" points="366.724,-222.606 358.239,-228.95 368.828,-229.283 366.724,-222.606"/>
</g>
<!-- Node5 -->
<g id="node9" class="node"><title>Node5</title>
<a xlink:href="_m_a_i_n__avec__objets_8cpp.html#ace9c8a9b37c6087c3cffef442d71d70e" target="_top" xlink:title="dixiemes_de_secondes">
<polygon fill="white" stroke="black" points="1230.5,-418 1230.5,-442 1349.5,-442 1349.5,-418 1230.5,-418"/>
<text text-anchor="middle" x="1290" y="-429" font-family="Helvetica,sans-Serif" font-size="10.00">dixiemes_de_secondes</text>
</a>
</g>
<!-- Node4&#45;&gt;Node5 -->
<g id="edge8" class="edge"><title>Node4&#45;&gt;Node5</title>
<path fill="none" stroke="midnightblue" d="M1196.34,-465.977C1217.51,-457.846 1240.7,-448.936 1258.71,-442.018"/>
<polygon fill="midnightblue" stroke="midnightblue" points="1194.86,-462.795 1186.78,-469.648 1197.37,-469.33 1194.86,-462.795"/>
</g>
<!-- Node6 -->
<g id="node11" class="node"><title>Node6</title>
<a xlink:href="_m_a_i_n__avec__objets_8cpp.html#ae66f6b31b5ad750f1fe042a706a4e3d4" target="_top" xlink:title="main">
<polygon fill="white" stroke="black" points="2268,-312 2268,-336 2306,-336 2306,-312 2268,-312"/>
<text text-anchor="middle" x="2287" y="-323" font-family="Helvetica,sans-Serif" font-size="10.00">main</text>
</a>
</g>
<!-- Node5&#45;&gt;Node6 -->
<g id="edge10" class="edge"><title>Node5&#45;&gt;Node6</title>
<path fill="none" stroke="midnightblue" d="M1359.83,-428.355C1412.61,-427.252 1486.85,-426 1552,-426 1552,-426 1552,-426 2048,-426 2132.63,-426 2158.29,-418.577 2232,-377 2250.48,-366.576 2267.34,-348.479 2277.39,-336.372"/>
<polygon fill="midnightblue" stroke="midnightblue" points="1359.49,-424.861 1349.57,-428.573 1359.64,-431.859 1359.49,-424.861"/>
</g>
<!-- Node8 -->
<g id="node15" class="node"><title>Node8</title>
<a xlink:href="banger__core__8_8cpp.html#a4003a08a1620546de77b118c91d2fd9d" target="_top" xlink:title="do_bang">
<polygon fill="white" stroke="black" points="531.5,-254 531.5,-278 584.5,-278 584.5,-254 531.5,-254"/>
<text text-anchor="middle" x="558" y="-265" font-family="Helvetica,sans-Serif" font-size="10.00">do_bang</text>
</a>
</g>
<!-- Node7&#45;&gt;Node8 -->
<g id="edge14" class="edge"><title>Node7&#45;&gt;Node8</title>
<path fill="none" stroke="midnightblue" d="M478.361,-249.944C496.095,-253.519 515.929,-257.518 531.367,-260.63"/>
<polygon fill="midnightblue" stroke="midnightblue" points="478.706,-246.443 468.212,-247.898 477.323,-253.305 478.706,-246.443"/>
</g>
<!-- Node10 -->
<g id="node20" class="node"><title>Node10</title>
<a xlink:href="banger__core__8_8cpp.html#a4fe16ad483c0c1609d97aeb9a23c74ee" target="_top" xlink:title="do_logical_fenetre\l_banger">
<polygon fill="white" stroke="black" points="510.5,-196 510.5,-236 605.5,-236 605.5,-196 510.5,-196"/>
<text text-anchor="start" x="518.5" y="-223" font-family="Helvetica,sans-Serif" font-size="10.00">do_logical_fenetre</text>
<text text-anchor="middle" x="558" y="-207" font-family="Helvetica,sans-Serif" font-size="10.00">_banger</text>
</a>
</g>
<!-- Node7&#45;&gt;Node10 -->
<g id="edge20" class="edge"><title>Node7&#45;&gt;Node10</title>
<path fill="none" stroke="midnightblue" d="M478.336,-232.061C488.751,-229.961 499.892,-227.715 510.442,-225.588"/>
<polygon fill="midnightblue" stroke="midnightblue" points="477.323,-228.695 468.212,-234.102 478.706,-235.557 477.323,-228.695"/>
</g>
<!-- Node12 -->
<g id="node25" class="node"><title>Node12</title>
<a xlink:href="banger__core__8_8cpp.html#ab405ab53ea444b049e5ffa258498fcb6" target="_top" xlink:title="refresh_banger_wx">
<polygon fill="white" stroke="black" points="508.5,-112 508.5,-136 607.5,-136 607.5,-112 508.5,-112"/>
<text text-anchor="middle" x="558" y="-123" font-family="Helvetica,sans-Serif" font-size="10.00">refresh_banger_wx</text>
</a>
</g>
<!-- Node7&#45;&gt;Node12 -->
<g id="edge26" class="edge"><title>Node7&#45;&gt;Node12</title>
<path fill="none" stroke="midnightblue" d="M445.671,-220.094C458.519,-198.72 480.979,-165.793 508,-145 512.477,-141.555 517.602,-138.571 522.825,-136.022"/>
<polygon fill="midnightblue" stroke="midnightblue" points="442.638,-218.346 440.615,-228.746 448.682,-221.878 442.638,-218.346"/>
</g>
<!-- Node7&#45;&gt;Node18 -->
<g id="edge92" class="edge"><title>Node7&#45;&gt;Node18</title>
<path fill="none" stroke="midnightblue" d="M457.6,-259.32C471.508,-269.15 489.883,-280.541 508,-287 561.306,-306.006 627.48,-310.843 666.863,-311.917"/>
<polygon fill="midnightblue" stroke="midnightblue" points="459.294,-256.223 449.154,-253.154 455.166,-261.877 459.294,-256.223"/>
</g>
<!-- Node9 -->
<g id="node17" class="node"><title>Node9</title>
<a xlink:href="_m_a_i_n__avec__objets_8cpp.html#a8e80f54ac804eddce8ed6e45adb1db44" target="_top" xlink:title="ticker_full_loop">
<polygon fill="white" stroke="black" points="966,-182 966,-206 1048,-206 1048,-182 966,-182"/>
<text text-anchor="middle" x="1007" y="-193" font-family="Helvetica,sans-Serif" font-size="10.00">ticker_full_loop</text>
</a>
</g>
<!-- Node8&#45;&gt;Node9 -->
<g id="edge16" class="edge"><title>Node8&#45;&gt;Node9</title>
<path fill="none" stroke="midnightblue" d="M594.646,-264.735C661.958,-261.76 809.445,-252.2 930,-223 946.938,-218.897 965.219,-212.119 979.717,-206.147"/>
<polygon fill="midnightblue" stroke="midnightblue" points="594.392,-261.243 584.547,-265.158 594.685,-268.237 594.392,-261.243"/>
</g>
<!-- Node9&#45;&gt;Node6 -->
<g id="edge18" class="edge"><title>Node9&#45;&gt;Node6</title>
<path fill="none" stroke="midnightblue" d="M1058.32,-199.231C1114.97,-204.545 1208.89,-212 1290,-212 1290,-212 1290,-212 2048,-212 2132.98,-212 2159.65,-219.427 2232,-264 2251.97,-276.304 2269.17,-297.879 2278.79,-311.529"/>
<polygon fill="midnightblue" stroke="midnightblue" points="1058.48,-195.73 1048.19,-198.266 1057.81,-202.698 1058.48,-195.73"/>
</g>
<!-- Node11 -->
<g id="node22" class="node"><title>Node11</title>
<a xlink:href="procs__visuels__rebuild1_8cpp.html#ae710b6e599e321ad5934a90140067054" target="_top" xlink:title="check_graphics_mouse\l_handling">
<polygon fill="white" stroke="black" points="802.5,-174 802.5,-214 921.5,-214 921.5,-174 802.5,-174"/>
<text text-anchor="start" x="810.5" y="-201" font-family="Helvetica,sans-Serif" font-size="10.00">check_graphics_mouse</text>
<text text-anchor="middle" x="862" y="-185" font-family="Helvetica,sans-Serif" font-size="10.00">_handling</text>
</a>
</g>
<!-- Node10&#45;&gt;Node11 -->
<g id="edge22" class="edge"><title>Node10&#45;&gt;Node11</title>
<path fill="none" stroke="midnightblue" d="M615.916,-217.66C655.925,-218.188 710.311,-217.681 758,-213 772.431,-211.583 787.859,-209.232 802.295,-206.657"/>
<polygon fill="midnightblue" stroke="midnightblue" points="615.863,-214.158 605.809,-217.5 615.753,-221.158 615.863,-214.158"/>
</g>
<!-- Node11&#45;&gt;Node9 -->
<g id="edge24" class="edge"><title>Node11&#45;&gt;Node9</title>
<path fill="none" stroke="midnightblue" d="M931.971,-194C943.588,-194 955.292,-194 965.888,-194"/>
<polygon fill="midnightblue" stroke="midnightblue" points="931.814,-190.5 921.814,-194 931.814,-197.5 931.814,-190.5"/>
</g>
<!-- Node12&#45;&gt;Node13 -->
<g id="edge28" class="edge"><title>Node12&#45;&gt;Node13</title>
<path fill="none" stroke="midnightblue" d="M581.658,-105.471C611.064,-82.4392 660.42,-43.7829 685.443,-24.1841"/>
<polygon fill="midnightblue" stroke="midnightblue" points="579.29,-102.879 573.576,-111.801 583.607,-108.39 579.29,-102.879"/>
</g>
<!-- Node15 -->
<g id="node32" class="node"><title>Node15</title>
<a xlink:href="keyboard__functions2_8cpp.html#af3dd6697323b10b480719c1612bcf29a" target="_top" xlink:title="key_backward">
<polygon fill="white" stroke="black" points="661,-80 661,-104 741,-104 741,-80 661,-80"/>
<text text-anchor="middle" x="701" y="-91" font-family="Helvetica,sans-Serif" font-size="10.00">key_backward</text>
</a>
</g>
<!-- Node12&#45;&gt;Node15 -->
<g id="edge34" class="edge"><title>Node12&#45;&gt;Node15</title>
<path fill="none" stroke="midnightblue" d="M617.586,-110.666C632.193,-107.397 647.482,-103.976 660.923,-100.968"/>
<polygon fill="midnightblue" stroke="midnightblue" points="616.607,-107.298 607.613,-112.898 618.136,-114.129 616.607,-107.298"/>
</g>
<!-- Node17 -->
<g id="node37" class="node"><title>Node17</title>
<a xlink:href="keyboard__functions2_8cpp.html#a6b73a3669797504ce2e357d9a8b9a2c2" target="_top" xlink:title="key_forward">
<polygon fill="white" stroke="black" points="666,-122 666,-146 736,-146 736,-122 666,-122"/>
<text text-anchor="middle" x="701" y="-133" font-family="Helvetica,sans-Serif" font-size="10.00">key_forward</text>
</a>
</g>
<!-- Node12&#45;&gt;Node17 -->
<g id="edge40" class="edge"><title>Node12&#45;&gt;Node17</title>
<path fill="none" stroke="midnightblue" d="M617.687,-128.174C634.095,-129.321 651.356,-130.528 665.885,-131.544"/>
<polygon fill="midnightblue" stroke="midnightblue" points="617.833,-124.676 607.613,-127.469 617.345,-131.659 617.833,-124.676"/>
</g>
<!-- Node12&#45;&gt;Node18 -->
<g id="edge44" class="edge"><title>Node12&#45;&gt;Node18</title>
<path fill="none" stroke="midnightblue" d="M603.842,-141.582C605.294,-142.66 606.686,-143.799 608,-145 633.235,-168.077 627.466,-183.067 644,-213 661.452,-244.596 682.899,-281.304 693.84,-299.886"/>
<polygon fill="midnightblue" stroke="midnightblue" points="605.334,-138.387 595.001,-136.046 601.618,-144.319 605.334,-138.387"/>
</g>
<!-- Node34 -->
<g id="node78" class="node"><title>Node34</title>
<a xlink:href="sequentiel__6__core_8cpp.html#a2a71c851cf25565491dd10423bc80380" target="_top" xlink:title="do_logical_Sequenciel\l_Window">
<polygon fill="white" stroke="black" points="644.5,-164 644.5,-204 757.5,-204 757.5,-164 644.5,-164"/>
<text text-anchor="start" x="652.5" y="-191" font-family="Helvetica,sans-Serif" font-size="10.00">do_logical_Sequenciel</text>
<text text-anchor="middle" x="701" y="-175" font-family="Helvetica,sans-Serif" font-size="10.00">_Window</text>
</a>
</g>
<!-- Node12&#45;&gt;Node34 -->
<g id="edge88" class="edge"><title>Node12&#45;&gt;Node34</title>
<path fill="none" stroke="midnightblue" d="M596.277,-140.06C613.787,-147.407 634.715,-156.188 653.243,-163.962"/>
<polygon fill="midnightblue" stroke="midnightblue" points="597.514,-136.784 586.938,-136.142 594.805,-143.238 597.514,-136.784"/>
</g>
<!-- Node14 -->
<g id="node29" class="node"><title>Node14</title>
<a xlink:href="i_cat14_8cpp.html#aa9772b548765a631d4bae1c14053b4e1" target="_top" xlink:title="DoJobFantastickTouch">
<polygon fill="white" stroke="black" points="803.5,-20 803.5,-44 920.5,-44 920.5,-20 803.5,-20"/>
<text text-anchor="middle" x="862" y="-31" font-family="Helvetica,sans-Serif" font-size="10.00">DoJobFantastickTouch</text>
</a>
</g>
<!-- Node13&#45;&gt;Node14 -->
<g id="edge30" class="edge"><title>Node13&#45;&gt;Node14</title>
<path fill="none" stroke="midnightblue" d="M749.039,-17.9676C766.111,-20.0883 785.521,-22.4996 803.378,-24.7178"/>
<polygon fill="midnightblue" stroke="midnightblue" points="749.103,-14.4487 738.747,-16.6891 748.24,-21.3953 749.103,-14.4487"/>
</g>
<!-- Node14&#45;&gt;Node9 -->
<g id="edge32" class="edge"><title>Node14&#45;&gt;Node9</title>
<path fill="none" stroke="midnightblue" d="M885.034,-50.7718C898.693,-62.354 916.013,-77.8494 930,-93 957.67,-122.972 985.56,-162.37 998.902,-181.919"/>
<polygon fill="midnightblue" stroke="midnightblue" points="886.981,-47.8367 877.065,-44.104 882.489,-53.2054 886.981,-47.8367"/>
</g>
<!-- Node16 -->
<g id="node34" class="node"><title>Node16</title>
<a xlink:href="keyboard__routines2_8cpp.html#a8563320b8eab661232619224650de244" target="_top" xlink:title="commandes_clavier">
<polygon fill="white" stroke="black" points="810,-102 810,-126 914,-126 914,-102 810,-102"/>
<text text-anchor="middle" x="862" y="-113" font-family="Helvetica,sans-Serif" font-size="10.00">commandes_clavier</text>
</a>
</g>
<!-- Node15&#45;&gt;Node16 -->
<g id="edge36" class="edge"><title>Node15&#45;&gt;Node16</title>
<path fill="none" stroke="midnightblue" d="M751.27,-98.8692C769.898,-101.415 791.053,-104.305 809.845,-106.873"/>
<polygon fill="midnightblue" stroke="midnightblue" points="751.594,-95.381 741.212,-97.4948 750.646,-102.317 751.594,-95.381"/>
</g>
<!-- Node16&#45;&gt;Node9 -->
<g id="edge38" class="edge"><title>Node16&#45;&gt;Node9</title>
<path fill="none" stroke="midnightblue" d="M892.926,-131.062C920.686,-146.379 960.73,-168.472 985.245,-181.998"/>
<polygon fill="midnightblue" stroke="midnightblue" points="894.469,-127.917 884.022,-126.15 891.087,-134.046 894.469,-127.917"/>
</g>
<!-- Node17&#45;&gt;Node16 -->
<g id="edge42" class="edge"><title>Node17&#45;&gt;Node16</title>
<path fill="none" stroke="midnightblue" d="M746.326,-128.37C766.115,-125.911 789.436,-123.014 809.934,-120.468"/>
<polygon fill="midnightblue" stroke="midnightblue" points="745.824,-124.905 736.332,-129.611 746.687,-131.851 745.824,-124.905"/>
</g>
<!-- Node19 -->
<g id="node42" class="node"><title>Node19</title>
<a xlink:href="midi__13_8cpp.html#a6bedf9750195224914cd87c4e73ab626" target="_top" xlink:title="ventilate_midi_to_midiarray">
<polygon fill="white" stroke="black" points="794.5,-301 794.5,-325 929.5,-325 929.5,-301 794.5,-301"/>
<text text-anchor="middle" x="862" y="-312" font-family="Helvetica,sans-Serif" font-size="10.00">ventilate_midi_to_midiarray</text>
</a>
</g>
<!-- Node18&#45;&gt;Node19 -->
<g id="edge46" class="edge"><title>Node18&#45;&gt;Node19</title>
<path fill="none" stroke="midnightblue" d="M745.272,-312.275C760.455,-312.369 777.811,-312.477 794.414,-312.58"/>
<polygon fill="midnightblue" stroke="midnightblue" points="745.166,-308.774 735.144,-312.212 745.122,-315.774 745.166,-308.774"/>
</g>
<!-- Node20 -->
<g id="node44" class="node"><title>Node20</title>
<a xlink:href="midi__13_8cpp.html#afa49dd5668303c2448676c8243737c2d" target="_top" xlink:title="simulate_midi">
<polygon fill="white" stroke="black" points="968.5,-418 968.5,-442 1045.5,-442 1045.5,-418 968.5,-418"/>
<text text-anchor="middle" x="1007" y="-429" font-family="Helvetica,sans-Serif" font-size="10.00">simulate_midi</text>
</a>
</g>
<!-- Node19&#45;&gt;Node20 -->
<g id="edge48" class="edge"><title>Node19&#45;&gt;Node20</title>
<path fill="none" stroke="midnightblue" d="M884.792,-331.391C914.709,-355.53 966.402,-397.241 991.893,-417.81"/>
<polygon fill="midnightblue" stroke="midnightblue" points="886.952,-328.636 876.971,-325.08 882.556,-334.084 886.952,-328.636"/>
</g>
<!-- Node22 -->
<g id="node50" class="node"><title>Node22</title>
<a xlink:href="midi__13_8cpp.html#a4104c2ae7e71376ad9dc78929450dc51" target="_top" xlink:title="EvAquire">
<polygon fill="white" stroke="black" points="979,-301 979,-325 1035,-325 1035,-301 979,-301"/>
<text text-anchor="middle" x="1007" y="-312" font-family="Helvetica,sans-Serif" font-size="10.00">EvAquire</text>
</a>
</g>
<!-- Node19&#45;&gt;Node22 -->
<g id="edge56" class="edge"><title>Node19&#45;&gt;Node22</title>
<path fill="none" stroke="midnightblue" d="M939.947,-313C953.817,-313 967.419,-313 978.708,-313"/>
<polygon fill="midnightblue" stroke="midnightblue" points="939.83,-309.5 929.83,-313 939.83,-316.5 939.83,-309.5"/>
</g>
<!-- Node20&#45;&gt;Node4 -->
<g id="edge54" class="edge"><title>Node20&#45;&gt;Node4</title>
<path fill="none" stroke="midnightblue" d="M1043.54,-446.055C1058.92,-452.812 1076.98,-460.75 1093.23,-467.891"/>
<polygon fill="midnightblue" stroke="midnightblue" points="1044.91,-442.836 1034.35,-442.018 1042.1,-449.245 1044.91,-442.836"/>
</g>
<!-- Node21 -->
<g id="node46" class="node"><title>Node21</title>
<a xlink:href="arduino__core__6___u_n_o_8cpp.html#ae72d1a8d74d9ab5515962e03e7e664d6" target="_top" xlink:title="arduino_do_analog_in\l_whitecat">
<polygon fill="white" stroke="black" points="1084,-410 1084,-450 1194,-450 1194,-410 1084,-410"/>
<text text-anchor="start" x="1092" y="-437" font-family="Helvetica,sans-Serif" font-size="10.00">arduino_do_analog_in</text>
<text text-anchor="middle" x="1139" y="-421" font-family="Helvetica,sans-Serif" font-size="10.00">_whitecat</text>
</a>
</g>
<!-- Node20&#45;&gt;Node21 -->
<g id="edge50" class="edge"><title>Node20&#45;&gt;Node21</title>
<path fill="none" stroke="midnightblue" d="M1055.69,-430C1064.9,-430 1074.6,-430 1083.99,-430"/>
<polygon fill="midnightblue" stroke="midnightblue" points="1055.53,-426.5 1045.53,-430 1055.53,-433.5 1055.53,-426.5"/>
</g>
<!-- Node21&#45;&gt;Node5 -->
<g id="edge52" class="edge"><title>Node21&#45;&gt;Node5</title>
<path fill="none" stroke="midnightblue" d="M1204.38,-430C1213,-430 1221.8,-430 1230.32,-430"/>
<polygon fill="midnightblue" stroke="midnightblue" points="1204.37,-426.5 1194.37,-430 1204.37,-433.5 1204.37,-426.5"/>
</g>
<!-- Node23 -->
<g id="node52" class="node"><title>Node23</title>
<a xlink:href="midi__13_8cpp.html#a831f1dfc7870ae4f6c64a0e65fbaf3ff" target="_top" xlink:title="Display">
<polygon fill="white" stroke="black" points="1114,-301 1114,-325 1164,-325 1164,-301 1114,-301"/>
<text text-anchor="middle" x="1139" y="-312" font-family="Helvetica,sans-Serif" font-size="10.00">Display</text>
</a>
</g>
<!-- Node22&#45;&gt;Node23 -->
<g id="edge58" class="edge"><title>Node22&#45;&gt;Node23</title>
<path fill="none" stroke="midnightblue" d="M1045.37,-313C1067.42,-313 1094.5,-313 1113.85,-313"/>
<polygon fill="midnightblue" stroke="midnightblue" points="1045.32,-309.5 1035.32,-313 1045.32,-316.5 1045.32,-309.5"/>
</g>
<!-- Node24 -->
<g id="node54" class="node"><title>Node24</title>
<a xlink:href="midi__13_8cpp.html#aa4aeee5088a4a5462566dfee5c9cc71f" target="_top" xlink:title="DisplayTask">
<polygon fill="white" stroke="black" points="1254.5,-308 1254.5,-332 1325.5,-332 1325.5,-308 1254.5,-308"/>
<text text-anchor="middle" x="1290" y="-319" font-family="Helvetica,sans-Serif" font-size="10.00">DisplayTask</text>
</a>
</g>
<!-- Node23&#45;&gt;Node24 -->
<g id="edge60" class="edge"><title>Node23&#45;&gt;Node24</title>
<path fill="none" stroke="midnightblue" d="M1174.42,-314.642C1198.53,-315.76 1230.32,-317.233 1254.46,-318.352"/>
<polygon fill="midnightblue" stroke="midnightblue" points="1174.43,-311.139 1164.27,-314.172 1174.1,-318.131 1174.43,-311.139"/>
</g>
<!-- Node26 -->
<g id="node59" class="node"><title>Node26</title>
<a xlink:href="midi___c_o_r_e_8cpp.html#a6fcb4c2efe85f50488d7aeeef1fc0a3e" target="_top" xlink:title="ReceiveEvents">
<polygon fill="white" stroke="black" points="1248.5,-266 1248.5,-290 1331.5,-290 1331.5,-266 1248.5,-266"/>
<text text-anchor="middle" x="1290" y="-277" font-family="Helvetica,sans-Serif" font-size="10.00">ReceiveEvents</text>
</a>
</g>
<!-- Node23&#45;&gt;Node26 -->
<g id="edge66" class="edge"><title>Node23&#45;&gt;Node26</title>
<path fill="none" stroke="midnightblue" d="M1174.26,-304.827C1196.42,-299.692 1225.1,-293.043 1248.37,-287.649"/>
<polygon fill="midnightblue" stroke="midnightblue" points="1173.23,-301.474 1164.27,-307.142 1174.81,-308.293 1173.23,-301.474"/>
</g>
<!-- Node25 -->
<g id="node56" class="node"><title>Node25</title>
<a xlink:href="midi___c_o_r_e_8cpp.html#a7d0f82d882071792d6a2df51ef13ec55" target="_top" xlink:title="ReceivePolling">
<polygon fill="white" stroke="black" points="1386,-308 1386,-332 1468,-332 1468,-308 1386,-308"/>
<text text-anchor="middle" x="1427" y="-319" font-family="Helvetica,sans-Serif" font-size="10.00">ReceivePolling</text>
</a>
</g>
<!-- Node24&#45;&gt;Node25 -->
<g id="edge62" class="edge"><title>Node24&#45;&gt;Node25</title>
<path fill="none" stroke="midnightblue" d="M1335.91,-320C1352.02,-320 1370.01,-320 1385.72,-320"/>
<polygon fill="midnightblue" stroke="midnightblue" points="1335.64,-316.5 1325.64,-320 1335.64,-323.5 1335.64,-316.5"/>
</g>
<!-- Node25&#45;&gt;Node25 -->
<g id="edge64" class="edge"><title>Node25&#45;&gt;Node25</title>
<path fill="none" stroke="midnightblue" d="M1404.51,-342.001C1406.81,-346.647 1414.31,-350 1427,-350 1447.83,-350 1454.66,-340.972 1447.5,-332.014"/>
<polygon fill="midnightblue" stroke="midnightblue" points="1407.98,-342.504 1406.5,-332.014 1401.12,-341.14 1407.98,-342.504"/>
</g>
<!-- Node26&#45;&gt;Node25 -->
<g id="edge68" class="edge"><title>Node26&#45;&gt;Node25</title>
<path fill="none" stroke="midnightblue" d="M1338.99,-293.018C1354.99,-297.924 1372.54,-303.305 1387.74,-307.963"/>
<polygon fill="midnightblue" stroke="midnightblue" points="1339.85,-289.62 1329.26,-290.036 1337.79,-296.313 1339.85,-289.62"/>
</g>
<!-- Node27 -->
<g id="node62" class="node"><title>Node27</title>
<a xlink:href="midi___c_o_r_e_8cpp.html#a0ccf480a33424e626f88d109d53d8366" target="_top" xlink:title="InitMidi">
<polygon fill="white" stroke="black" points="1403,-266 1403,-290 1451,-290 1451,-266 1403,-266"/>
<text text-anchor="middle" x="1427" y="-277" font-family="Helvetica,sans-Serif" font-size="10.00">InitMidi</text>
</a>
</g>
<!-- Node26&#45;&gt;Node27 -->
<g id="edge70" class="edge"><title>Node26&#45;&gt;Node27</title>
<path fill="none" stroke="midnightblue" d="M1341.93,-278C1362.89,-278 1386.06,-278 1402.92,-278"/>
<polygon fill="midnightblue" stroke="midnightblue" points="1341.85,-274.5 1331.85,-278 1341.85,-281.5 1341.85,-274.5"/>
</g>
<!-- Node27&#45;&gt;Node6 -->
<g id="edge72" class="edge"><title>Node27&#45;&gt;Node6</title>
<path fill="none" stroke="midnightblue" d="M1461.41,-274.639C1509.74,-270.217 1600.48,-263 1678,-263 1678,-263 1678,-263 2048,-263 2132.15,-263 2227.93,-298.94 2267.91,-315.646"/>
<polygon fill="midnightblue" stroke="midnightblue" points="1460.83,-271.178 1451.2,-275.59 1461.48,-278.148 1460.83,-271.178"/>
</g>
<!-- Node28 -->
<g id="node65" class="node"><title>Node28</title>
<a xlink:href="midi__13_8cpp.html#ac7a306aa81e374b447e7341d4d3a3eea" target="_top" xlink:title="midipage_devices">
<polygon fill="white" stroke="black" points="1504.5,-291 1504.5,-315 1599.5,-315 1599.5,-291 1504.5,-291"/>
<text text-anchor="middle" x="1552" y="-302" font-family="Helvetica,sans-Serif" font-size="10.00">midipage_devices</text>
</a>
</g>
<!-- Node27&#45;&gt;Node28 -->
<g id="edge74" class="edge"><title>Node27&#45;&gt;Node28</title>
<path fill="none" stroke="midnightblue" d="M1461.25,-284.851C1474.57,-287.514 1490.05,-290.611 1504.42,-293.484"/>
<polygon fill="midnightblue" stroke="midnightblue" points="1461.59,-281.349 1451.1,-282.82 1460.22,-288.214 1461.59,-281.349"/>
</g>
<!-- Node29 -->
<g id="node67" class="node"><title>Node29</title>
<a xlink:href="midi__13_8cpp.html#a8f70acacad6eaba8867bdd80dda5e277" target="_top" xlink:title="do_midi_config">
<polygon fill="white" stroke="black" points="1637,-291 1637,-315 1719,-315 1719,-291 1637,-291"/>
<text text-anchor="middle" x="1678" y="-302" font-family="Helvetica,sans-Serif" font-size="10.00">do_midi_config</text>
</a>
</g>
<!-- Node28&#45;&gt;Node29 -->
<g id="edge76" class="edge"><title>Node28&#45;&gt;Node29</title>
<path fill="none" stroke="midnightblue" d="M1609.84,-303C1618.97,-303 1628.25,-303 1636.9,-303"/>
<polygon fill="midnightblue" stroke="midnightblue" points="1609.64,-299.5 1599.64,-303 1609.64,-306.5 1609.64,-299.5"/>
</g>
<!-- Node30 -->
<g id="node69" class="node"><title>Node30</title>
<a xlink:href="_c_f_g__config__panel__8_8cpp.html#ad39c46e2fb3a3ba7ea0460140ead4f96" target="_top" xlink:title="do_panel_config">
<polygon fill="white" stroke="black" points="1756.5,-312 1756.5,-336 1843.5,-336 1843.5,-312 1756.5,-312"/>
<text text-anchor="middle" x="1800" y="-323" font-family="Helvetica,sans-Serif" font-size="10.00">do_panel_config</text>
</a>
</g>
<!-- Node29&#45;&gt;Node30 -->
<g id="edge78" class="edge"><title>Node29&#45;&gt;Node30</title>
<path fill="none" stroke="midnightblue" d="M1729.27,-311.824C1738.23,-313.368 1747.49,-314.962 1756.24,-316.467"/>
<polygon fill="midnightblue" stroke="midnightblue" points="1729.75,-308.357 1719.3,-310.11 1728.56,-315.255 1729.75,-308.357"/>
</g>
<!-- Node31 -->
<g id="node71" class="node"><title>Node31</title>
<a xlink:href="_c_f_g__config__panel__8_8cpp.html#a7968da66bccdba8b864caf6c8435f68e" target="_top" xlink:title="config_general_menu">
<polygon fill="white" stroke="black" points="1880.5,-312 1880.5,-336 1989.5,-336 1989.5,-312 1880.5,-312"/>
<text text-anchor="middle" x="1935" y="-323" font-family="Helvetica,sans-Serif" font-size="10.00">config_general_menu</text>
</a>
</g>
<!-- Node30&#45;&gt;Node31 -->
<g id="edge80" class="edge"><title>Node30&#45;&gt;Node31</title>
<path fill="none" stroke="midnightblue" d="M1854.07,-324C1862.62,-324 1871.47,-324 1880.04,-324"/>
<polygon fill="midnightblue" stroke="midnightblue" points="1853.83,-320.5 1843.83,-324 1853.83,-327.5 1853.83,-320.5"/>
</g>
<!-- Node32 -->
<g id="node73" class="node"><title>Node32</title>
<a xlink:href="graphics__rebuild1_8cpp.html#ac2eae1e03fb72cc734ffbcef566483bf" target="_top" xlink:title="Boxes">
<polygon fill="white" stroke="black" points="2026,-312 2026,-336 2070,-336 2070,-312 2026,-312"/>
<text text-anchor="middle" x="2048" y="-323" font-family="Helvetica,sans-Serif" font-size="10.00">Boxes</text>
</a>
</g>
<!-- Node31&#45;&gt;Node32 -->
<g id="edge82" class="edge"><title>Node31&#45;&gt;Node32</title>
<path fill="none" stroke="midnightblue" d="M1999.75,-324C2009.11,-324 2018.17,-324 2025.86,-324"/>
<polygon fill="midnightblue" stroke="midnightblue" points="1999.51,-320.5 1989.51,-324 1999.51,-327.5 1999.51,-320.5"/>
</g>
<!-- Node33 -->
<g id="node75" class="node"><title>Node33</title>
<a xlink:href="_m_a_i_n__avec__objets_8cpp.html#ade8d4ba65d55c94f8ee277829d722155" target="_top" xlink:title="main_actions_on_screen">
<polygon fill="white" stroke="black" points="2106.5,-312 2106.5,-336 2231.5,-336 2231.5,-312 2106.5,-312"/>
<text text-anchor="middle" x="2169" y="-323" font-family="Helvetica,sans-Serif" font-size="10.00">main_actions_on_screen</text>
</a>
</g>
<!-- Node32&#45;&gt;Node33 -->
<g id="edge84" class="edge"><title>Node32&#45;&gt;Node33</title>
<path fill="none" stroke="midnightblue" d="M2080.24,-324C2088.32,-324 2097.26,-324 2106.27,-324"/>
<polygon fill="midnightblue" stroke="midnightblue" points="2080.19,-320.5 2070.19,-324 2080.19,-327.5 2080.19,-320.5"/>
</g>
<!-- Node33&#45;&gt;Node6 -->
<g id="edge86" class="edge"><title>Node33&#45;&gt;Node6</title>
<path fill="none" stroke="midnightblue" d="M2241.84,-324C2251.34,-324 2260.33,-324 2267.75,-324"/>
<polygon fill="midnightblue" stroke="midnightblue" points="2241.8,-320.5 2231.8,-324 2241.8,-327.5 2241.8,-320.5"/>
</g>
<!-- Node34&#45;&gt;Node11 -->
<g id="edge90" class="edge"><title>Node34&#45;&gt;Node11</title>
<path fill="none" stroke="midnightblue" d="M767.757,-188.146C779.271,-188.862 791.171,-189.601 802.478,-190.303"/>
<polygon fill="midnightblue" stroke="midnightblue" points="767.96,-184.652 757.763,-187.526 767.526,-191.639 767.96,-184.652"/>
</g>
<!-- Node36 -->
<g id="node84" class="node"><title>Node36</title>
<a xlink:href="_m_a_i_n__avec__objets_8cpp.html#a6a015280c1363331ada8a329be6eb7c8" target="_top" xlink:title="ticker">
<polygon fill="white" stroke="black" points="1531.5,-370 1531.5,-394 1572.5,-394 1572.5,-370 1531.5,-370"/>
<text text-anchor="middle" x="1552" y="-381" font-family="Helvetica,sans-Serif" font-size="10.00">ticker</text>
</a>
</g>
<!-- Node35&#45;&gt;Node36 -->
<g id="edge96" class="edge"><title>Node35&#45;&gt;Node36</title>
<path fill="none" stroke="midnightblue" d="M481.779,-383.427C535.201,-382.836 624.296,-382 701,-382 701,-382 701,-382 1290,-382 1379.84,-382 1487,-382 1531.28,-382"/>
<polygon fill="midnightblue" stroke="midnightblue" points="481.544,-379.929 471.584,-383.541 481.623,-386.928 481.544,-379.929"/>
</g>
<!-- Node36&#45;&gt;Node6 -->
<g id="edge102" class="edge"><title>Node36&#45;&gt;Node6</title>
<path fill="none" stroke="midnightblue" d="M1582.67,-382.609C1629.51,-383.486 1721.7,-385 1800,-385 1800,-385 1800,-385 2048,-385 2132.15,-385 2227.93,-349.06 2267.91,-332.354"/>
<polygon fill="midnightblue" stroke="midnightblue" points="1582.64,-379.108 1572.58,-382.417 1582.51,-386.107 1582.64,-379.108"/>
</g>
<!-- Node37 -->
<g id="node86" class="node"><title>Node37</title>
<a xlink:href="_c_f_g__config__panel__8_8cpp.html#aff76db94408106be22f658a05f17831a" target="_top" xlink:title="do_core_config">
<polygon fill="white" stroke="black" points="1636.5,-333 1636.5,-357 1719.5,-357 1719.5,-333 1636.5,-333"/>
<text text-anchor="middle" x="1678" y="-344" font-family="Helvetica,sans-Serif" font-size="10.00">do_core_config</text>
</a>
</g>
<!-- Node36&#45;&gt;Node37 -->
<g id="edge98" class="edge"><title>Node36&#45;&gt;Node37</title>
<path fill="none" stroke="midnightblue" d="M1582.17,-373.14C1598.63,-368.308 1619.22,-362.259 1637.1,-357.009"/>
<polygon fill="midnightblue" stroke="midnightblue" points="1581.13,-369.797 1572.52,-375.973 1583.11,-376.514 1581.13,-369.797"/>
</g>
<!-- Node37&#45;&gt;Node30 -->
<g id="edge100" class="edge"><title>Node37&#45;&gt;Node30</title>
<path fill="none" stroke="midnightblue" d="M1729.59,-336.12C1738.53,-334.58 1747.76,-332.993 1756.46,-331.494"/>
<polygon fill="midnightblue" stroke="midnightblue" points="1728.91,-332.686 1719.64,-337.832 1730.09,-339.585 1728.91,-332.686"/>
</g>
<!-- Node38&#45;&gt;Node16 -->
<g id="edge108" class="edge"><title>Node38&#45;&gt;Node16</title>
<path fill="none" stroke="midnightblue" d="M467.749,-100.636C526.932,-82.2822 653.12,-50.1731 758,-71 787.704,-76.8986 819.564,-91.4178 840.08,-101.956"/>
<polygon fill="midnightblue" stroke="midnightblue" points="466.644,-97.3149 458.167,-103.671 468.757,-103.988 466.644,-97.3149"/>
</g>
<!-- Node39&#45;&gt;Node34 -->
<g id="edge114" class="edge"><title>Node39&#45;&gt;Node34</title>
<path fill="none" stroke="midnightblue" d="M614.164,-173.07C624.061,-174.315 634.37,-175.613 644.282,-176.861"/>
<polygon fill="midnightblue" stroke="midnightblue" points="614.392,-169.571 604.033,-171.794 613.518,-176.516 614.392,-169.571"/>
</g>
</g>
</svg>
