<?xml version="1.0" encoding="UTF-8" standalone="no"?>
<!DOCTYPE svg PUBLIC "-//W3C//DTD SVG 1.1//EN"
 "http://www.w3.org/Graphics/SVG/1.1/DTD/svg11.dtd">
<!-- Generated by graphviz version 2.26.3 (20100126.1600)
 -->
<!-- Title: ChannelScroller Pages: 1 -->
<svg width="410pt" height="32pt"
 viewBox="0.00 0.00 410.00 32.00" xmlns="http://www.w3.org/2000/svg" xmlns:xlink="http://www.w3.org/1999/xlink">
<g id="graph1" class="graph" transform="scale(1 1) rotate(0) translate(4 28)">
<title>ChannelScroller</title>
<polygon fill="white" stroke="white" points="-4,5 -4,-28 407,-28 407,5 -4,5"/>
<!-- Node1 -->
<g id="node1" class="node"><title>Node1</title>
<polygon fill="#bfbfbf" stroke="black" points="0,-0 0,-24 86,-24 86,-0 0,-0"/>
<text text-anchor="middle" x="43" y="-11" font-family="Helvetica,sans-Serif" font-size="10.00">ChannelScroller</text>
</g>
<!-- Node2 -->
<g id="node3" class="node"><title>Node2</title>
<a xlink:href="graphics__rebuild1_8cpp.html#ac2eae1e03fb72cc734ffbcef566483bf" target="_top" xlink:title="Boxes">
<polygon fill="white" stroke="black" points="122,-0 122,-24 166,-24 166,-0 122,-0"/>
<text text-anchor="middle" x="144" y="-11" font-family="Helvetica,sans-Serif" font-size="10.00">Boxes</text>
</a>
</g>
<!-- Node1&#45;&gt;Node2 -->
<g id="edge2" class="edge"><title>Node1&#45;&gt;Node2</title>
<path fill="none" stroke="midnightblue" d="M96.3145,-12C105.348,-12 114.261,-12 121.893,-12"/>
<polygon fill="midnightblue" stroke="midnightblue" points="96.1261,-8.5001 86.1261,-12 96.126,-15.5001 96.1261,-8.5001"/>
</g>
<!-- Node3 -->
<g id="node5" class="node"><title>Node3</title>
<a xlink:href="_m_a_i_n__avec__objets_8cpp.html#ade8d4ba65d55c94f8ee277829d722155" target="_top" xlink:title="main_actions_on_screen">
<polygon fill="white" stroke="black" points="202.5,-0 202.5,-24 327.5,-24 327.5,-0 202.5,-0"/>
<text text-anchor="middle" x="265" y="-11" font-family="Helvetica,sans-Serif" font-size="10.00">main_actions_on_screen</text>
</a>
</g>
<!-- Node2&#45;&gt;Node3 -->
<g id="edge4" class="edge"><title>Node2&#45;&gt;Node3</title>
<path fill="none" stroke="midnightblue" d="M176.244,-12C184.32,-12 193.263,-12 202.271,-12"/>
<polygon fill="midnightblue" stroke="midnightblue" points="176.193,-8.5001 166.193,-12 176.193,-15.5001 176.193,-8.5001"/>
</g>
<!-- Node4 -->
<g id="node7" class="node"><title>Node4</title>
<a xlink:href="_m_a_i_n__avec__objets_8cpp.html#ae66f6b31b5ad750f1fe042a706a4e3d4" target="_top" xlink:title="main">
<polygon fill="white" stroke="black" points="364,-0 364,-24 402,-24 402,-0 364,-0"/>
<text text-anchor="middle" x="383" y="-11" font-family="Helvetica,sans-Serif" font-size="10.00">main</text>
</a>
</g>
<!-- Node3&#45;&gt;Node4 -->
<g id="edge6" class="edge"><title>Node3&#45;&gt;Node4</title>
<path fill="none" stroke="midnightblue" d="M337.837,-12C347.336,-12 356.327,-12 363.749,-12"/>
<polygon fill="midnightblue" stroke="midnightblue" points="337.8,-8.5001 327.8,-12 337.8,-15.5001 337.8,-8.5001"/>
</g>
</g>
</svg>
