<?xml version="1.0" encoding="UTF-8" standalone="no"?>
<!DOCTYPE svg PUBLIC "-//W3C//DTD SVG 1.1//EN"
 "http://www.w3.org/Graphics/SVG/1.1/DTD/svg11.dtd">
<!-- Generated by graphviz version 2.26.3 (20100126.1600)
 -->
<!-- Title: do_logical_Draw_Channel_Preset_View Pages: 1 -->
<svg width="314pt" height="148pt"
 viewBox="0.00 0.00 314.00 148.00" xmlns="http://www.w3.org/2000/svg" xmlns:xlink="http://www.w3.org/1999/xlink">
<g id="graph1" class="graph" transform="scale(1 1) rotate(0) translate(4 144)">
<title>do_logical_Draw_Channel_Preset_View</title>
<polygon fill="white" stroke="white" points="-4,5 -4,-144 311,-144 311,5 -4,5"/>
<!-- Node1 -->
<g id="node1" class="node"><title>Node1</title>
<polygon fill="#bfbfbf" stroke="black" points="0,-42 0,-82 130,-82 130,-42 0,-42"/>
<text text-anchor="start" x="8" y="-69" font-family="Helvetica,sans-Serif" font-size="10.00">do_logical_Draw_Channel</text>
<text text-anchor="middle" x="65" y="-53" font-family="Helvetica,sans-Serif" font-size="10.00">_Preset_View</text>
</g>
<!-- Node2 -->
<g id="node3" class="node"><title>Node2</title>
<a xlink:href="plot_8cpp.html#a62a28f2a197fa1c11db6a93e2dae6362" target="_top" xlink:title="substract_channel_selection\l_to_layers_plot">
<polygon fill="white" stroke="black" points="166,-100 166,-140 306,-140 306,-100 166,-100"/>
<text text-anchor="start" x="174" y="-127" font-family="Helvetica,sans-Serif" font-size="10.00">substract_channel_selection</text>
<text text-anchor="middle" x="236" y="-111" font-family="Helvetica,sans-Serif" font-size="10.00">_to_layers_plot</text>
</a>
</g>
<!-- Node1&#45;&gt;Node2 -->
<g id="edge2" class="edge"><title>Node1&#45;&gt;Node2</title>
<path fill="none" stroke="midnightblue" d="M124.328,-82.1228C138.122,-86.8015 152.922,-91.8214 167.09,-96.6269"/>
<polygon fill="midnightblue" stroke="midnightblue" points="166.183,-100.015 176.777,-99.9128 168.431,-93.3861 166.183,-100.015"/>
</g>
<!-- Node3 -->
<g id="node5" class="node"><title>Node3</title>
<a xlink:href="plot_8cpp.html#a63d5e7a094f416fd40690d465ffacdd0" target="_top" xlink:title="add_channel_selection\l_to_layers_plot">
<polygon fill="white" stroke="black" points="178,-42 178,-82 294,-82 294,-42 178,-42"/>
<text text-anchor="start" x="186" y="-69" font-family="Helvetica,sans-Serif" font-size="10.00">add_channel_selection</text>
<text text-anchor="middle" x="236" y="-53" font-family="Helvetica,sans-Serif" font-size="10.00">_to_layers_plot</text>
</a>
</g>
<!-- Node1&#45;&gt;Node3 -->
<g id="edge4" class="edge"><title>Node1&#45;&gt;Node3</title>
<path fill="none" stroke="midnightblue" d="M130.136,-62C142.376,-62 155.208,-62 167.546,-62"/>
<polygon fill="midnightblue" stroke="midnightblue" points="167.77,-65.5001 177.77,-62 167.77,-58.5001 167.77,-65.5001"/>
</g>
<!-- Node4 -->
<g id="node7" class="node"><title>Node4</title>
<a xlink:href="channels__9__core_8cpp.html#af4d75c8ca15be28bf4c38e732b739d70" target="_top" xlink:title="Channel_select_thruth">
<polygon fill="white" stroke="black" points="179,-0 179,-24 293,-24 293,-0 179,-0"/>
<text text-anchor="middle" x="236" y="-11" font-family="Helvetica,sans-Serif" font-size="10.00">Channel_select_thruth</text>
</a>
</g>
<!-- Node1&#45;&gt;Node4 -->
<g id="edge6" class="edge"><title>Node1&#45;&gt;Node4</title>
<path fill="none" stroke="midnightblue" d="M130.136,-42.9545C148.282,-37.6484 167.729,-31.9624 184.939,-26.93"/>
<polygon fill="midnightblue" stroke="midnightblue" points="186.172,-30.2162 194.788,-24.0503 184.207,-23.4975 186.172,-30.2162"/>
</g>
</g>
</svg>
