<?xml version="1.0" encoding="UTF-8" standalone="no"?>
<!DOCTYPE svg PUBLIC "-//W3C//DTD SVG 1.1//EN"
 "http://www.w3.org/Graphics/SVG/1.1/DTD/svg11.dtd">
<!-- Generated by graphviz version 2.26.3 (20100126.1600)
 -->
<!-- Title: do_logical_ChannelScroller Pages: 1 -->
<svg width="490pt" height="48pt"
 viewBox="0.00 0.00 490.00 48.00" xmlns="http://www.w3.org/2000/svg" xmlns:xlink="http://www.w3.org/1999/xlink">
<g id="graph1" class="graph" transform="scale(1 1) rotate(0) translate(4 44)">
<title>do_logical_ChannelScroller</title>
<polygon fill="white" stroke="white" points="-4,5 -4,-44 487,-44 487,5 -4,5"/>
<!-- Node1 -->
<g id="node1" class="node"><title>Node1</title>
<polygon fill="#bfbfbf" stroke="black" points="0,-8 0,-32 134,-32 134,-8 0,-8"/>
<text text-anchor="middle" x="67" y="-19" font-family="Helvetica,sans-Serif" font-size="10.00">do_logical_ChannelScroller</text>
</g>
<!-- Node2 -->
<g id="node3" class="node"><title>Node2</title>
<a xlink:href="procs__visuels__rebuild1_8cpp.html#ae710b6e599e321ad5934a90140067054" target="_top" xlink:title="check_graphics_mouse\l_handling">
<polygon fill="white" stroke="black" points="170.5,-0 170.5,-40 289.5,-40 289.5,-0 170.5,-0"/>
<text text-anchor="start" x="178.5" y="-27" font-family="Helvetica,sans-Serif" font-size="10.00">check_graphics_mouse</text>
<text text-anchor="middle" x="230" y="-11" font-family="Helvetica,sans-Serif" font-size="10.00">_handling</text>
</a>
</g>
<!-- Node1&#45;&gt;Node2 -->
<g id="edge2" class="edge"><title>Node1&#45;&gt;Node2</title>
<path fill="none" stroke="midnightblue" d="M144.454,-20C153.199,-20 162.008,-20 170.474,-20"/>
<polygon fill="midnightblue" stroke="midnightblue" points="144.239,-16.5001 134.239,-20 144.239,-23.5001 144.239,-16.5001"/>
</g>
<!-- Node3 -->
<g id="node5" class="node"><title>Node3</title>
<a xlink:href="_m_a_i_n__avec__objets_8cpp.html#a8e80f54ac804eddce8ed6e45adb1db44" target="_top" xlink:title="ticker_full_loop">
<polygon fill="white" stroke="black" points="326,-8 326,-32 408,-32 408,-8 326,-8"/>
<text text-anchor="middle" x="367" y="-19" font-family="Helvetica,sans-Serif" font-size="10.00">ticker_full_loop</text>
</a>
</g>
<!-- Node2&#45;&gt;Node3 -->
<g id="edge4" class="edge"><title>Node2&#45;&gt;Node3</title>
<path fill="none" stroke="midnightblue" d="M299.967,-20C308.737,-20 317.475,-20 325.605,-20"/>
<polygon fill="midnightblue" stroke="midnightblue" points="299.692,-16.5001 289.692,-20 299.692,-23.5001 299.692,-16.5001"/>
</g>
<!-- Node4 -->
<g id="node7" class="node"><title>Node4</title>
<a xlink:href="_m_a_i_n__avec__objets_8cpp.html#ae66f6b31b5ad750f1fe042a706a4e3d4" target="_top" xlink:title="main">
<polygon fill="white" stroke="black" points="444,-8 444,-32 482,-32 482,-8 444,-8"/>
<text text-anchor="middle" x="463" y="-19" font-family="Helvetica,sans-Serif" font-size="10.00">main</text>
</a>
</g>
<!-- Node3&#45;&gt;Node4 -->
<g id="edge6" class="edge"><title>Node3&#45;&gt;Node4</title>
<path fill="none" stroke="midnightblue" d="M418.509,-20C427.577,-20 436.476,-20 443.904,-20"/>
<polygon fill="midnightblue" stroke="midnightblue" points="418.27,-16.5001 408.27,-20 418.27,-23.5001 418.27,-16.5001"/>
</g>
</g>
</svg>
