<?xml version="1.0" encoding="UTF-8" standalone="no"?>
<!DOCTYPE svg PUBLIC "-//W3C//DTD SVG 1.1//EN"
 "http://www.w3.org/Graphics/SVG/1.1/DTD/svg11.dtd">
<!-- Generated by graphviz version 2.26.3 (20100126.1600)
 -->
<!-- Title: channel_copy Pages: 1 -->
<svg width="626pt" height="90pt"
 viewBox="0.00 0.00 626.00 90.00" xmlns="http://www.w3.org/2000/svg" xmlns:xlink="http://www.w3.org/1999/xlink">
<g id="graph1" class="graph" transform="scale(1 1) rotate(0) translate(4 86)">
<title>channel_copy</title>
<polygon fill="white" stroke="white" points="-4,5 -4,-86 623,-86 623,5 -4,5"/>
<!-- Node1 -->
<g id="node1" class="node"><title>Node1</title>
<polygon fill="#bfbfbf" stroke="black" points="0.5,-26 0.5,-50 77.5,-50 77.5,-26 0.5,-26"/>
<text text-anchor="middle" x="39" y="-37" font-family="Helvetica,sans-Serif" font-size="10.00">channel_copy</text>
</g>
<!-- Node2 -->
<g id="node3" class="node"><title>Node2</title>
<a xlink:href="_call__everybody__5_8cpp.html#af326410369b61f889c2c6068a6d67f60" target="_top" xlink:title="do_logical_FunctionBoxChannel">
<polygon fill="white" stroke="black" points="114,-47 114,-71 270,-71 270,-47 114,-47"/>
<text text-anchor="middle" x="192" y="-58" font-family="Helvetica,sans-Serif" font-size="10.00">do_logical_FunctionBoxChannel</text>
</a>
</g>
<!-- Node1&#45;&gt;Node2 -->
<g id="edge2" class="edge"><title>Node1&#45;&gt;Node2</title>
<path fill="none" stroke="midnightblue" d="M87.5265,-44.6605C95.8949,-45.8091 104.781,-47.0288 113.7,-48.253"/>
<polygon fill="midnightblue" stroke="midnightblue" points="87.9914,-41.1916 77.6084,-43.2992 87.0395,-48.1266 87.9914,-41.1916"/>
</g>
<!-- Node6 -->
<g id="node11" class="node"><title>Node6</title>
<a xlink:href="keyboard__routines2_8cpp.html#a8563320b8eab661232619224650de244" target="_top" xlink:title="commandes_clavier">
<polygon fill="white" stroke="black" points="314,-0 314,-24 418,-24 418,-0 314,-0"/>
<text text-anchor="middle" x="366" y="-11" font-family="Helvetica,sans-Serif" font-size="10.00">commandes_clavier</text>
</a>
</g>
<!-- Node1&#45;&gt;Node6 -->
<g id="edge10" class="edge"><title>Node1&#45;&gt;Node6</title>
<path fill="none" stroke="midnightblue" d="M87.8842,-34.1132C148.56,-29.2888 251.609,-21.0953 313.788,-16.1515"/>
<polygon fill="midnightblue" stroke="midnightblue" points="87.4864,-30.6337 77.7953,-34.9154 88.0413,-37.6117 87.4864,-30.6337"/>
</g>
<!-- Node3 -->
<g id="node5" class="node"><title>Node3</title>
<a xlink:href="procs__visuels__rebuild1_8cpp.html#ae710b6e599e321ad5934a90140067054" target="_top" xlink:title="check_graphics_mouse\l_handling">
<polygon fill="white" stroke="black" points="306.5,-42 306.5,-82 425.5,-82 425.5,-42 306.5,-42"/>
<text text-anchor="start" x="314.5" y="-69" font-family="Helvetica,sans-Serif" font-size="10.00">check_graphics_mouse</text>
<text text-anchor="middle" x="366" y="-53" font-family="Helvetica,sans-Serif" font-size="10.00">_handling</text>
</a>
</g>
<!-- Node2&#45;&gt;Node3 -->
<g id="edge4" class="edge"><title>Node2&#45;&gt;Node3</title>
<path fill="none" stroke="midnightblue" d="M280.131,-60.5195C289.033,-60.673 297.92,-60.8262 306.418,-60.9727"/>
<polygon fill="midnightblue" stroke="midnightblue" points="280.152,-57.0194 270.093,-60.3464 280.031,-64.0184 280.152,-57.0194"/>
</g>
<!-- Node4 -->
<g id="node7" class="node"><title>Node4</title>
<a xlink:href="_m_a_i_n__avec__objets_8cpp.html#a8e80f54ac804eddce8ed6e45adb1db44" target="_top" xlink:title="ticker_full_loop">
<polygon fill="white" stroke="black" points="462,-25 462,-49 544,-49 544,-25 462,-25"/>
<text text-anchor="middle" x="503" y="-36" font-family="Helvetica,sans-Serif" font-size="10.00">ticker_full_loop</text>
</a>
</g>
<!-- Node3&#45;&gt;Node4 -->
<g id="edge6" class="edge"><title>Node3&#45;&gt;Node4</title>
<path fill="none" stroke="midnightblue" d="M435.681,-49.2845C444.547,-47.6666 453.386,-46.0536 461.605,-44.5538"/>
<polygon fill="midnightblue" stroke="midnightblue" points="434.901,-45.869 425.692,-51.1074 436.158,-52.7553 434.901,-45.869"/>
</g>
<!-- Node5 -->
<g id="node9" class="node"><title>Node5</title>
<a xlink:href="_m_a_i_n__avec__objets_8cpp.html#ae66f6b31b5ad750f1fe042a706a4e3d4" target="_top" xlink:title="main">
<polygon fill="white" stroke="black" points="580,-25 580,-49 618,-49 618,-25 580,-25"/>
<text text-anchor="middle" x="599" y="-36" font-family="Helvetica,sans-Serif" font-size="10.00">main</text>
</a>
</g>
<!-- Node4&#45;&gt;Node5 -->
<g id="edge8" class="edge"><title>Node4&#45;&gt;Node5</title>
<path fill="none" stroke="midnightblue" d="M554.509,-37C563.577,-37 572.476,-37 579.904,-37"/>
<polygon fill="midnightblue" stroke="midnightblue" points="554.27,-33.5001 544.27,-37 554.27,-40.5001 554.27,-33.5001"/>
</g>
<!-- Node6&#45;&gt;Node4 -->
<g id="edge12" class="edge"><title>Node6&#45;&gt;Node4</title>
<path fill="none" stroke="midnightblue" d="M428.075,-23.3275C439.435,-25.4005 451.033,-27.5169 461.604,-29.4459"/>
<polygon fill="midnightblue" stroke="midnightblue" points="428.651,-19.8749 418.185,-21.5227 427.394,-26.7611 428.651,-19.8749"/>
</g>
</g>
</svg>
