<?xml version="1.0" encoding="UTF-8" standalone="no"?>
<!DOCTYPE svg PUBLIC "-//W3C//DTD SVG 1.1//EN"
 "http://www.w3.org/Graphics/SVG/1.1/DTD/svg11.dtd">
<!-- Generated by graphviz version 2.26.3 (20100126.1600)
 -->
<!-- Title: chaser_calcul_time_joint Pages: 1 -->
<svg width="2240pt" height="462pt"
 viewBox="0.00 0.00 2240.00 462.00" xmlns="http://www.w3.org/2000/svg" xmlns:xlink="http://www.w3.org/1999/xlink">
<g id="graph1" class="graph" transform="scale(1 1) rotate(0) translate(4 458)">
<title>chaser_calcul_time_joint</title>
<polygon fill="white" stroke="white" points="-4,5 -4,-458 2237,-458 2237,5 -4,5"/>
<!-- Node1 -->
<g id="node1" class="node"><title>Node1</title>
<polygon fill="#bfbfbf" stroke="black" points="0.5,-150 0.5,-190 101.5,-190 101.5,-150 0.5,-150"/>
<text text-anchor="start" x="8.5" y="-177" font-family="Helvetica,sans-Serif" font-size="10.00">chaser_calcul_time</text>
<text text-anchor="middle" x="51" y="-161" font-family="Helvetica,sans-Serif" font-size="10.00">_joint</text>
</g>
<!-- Node2 -->
<g id="node3" class="node"><title>Node2</title>
<a xlink:href="chasers__core__5_8cpp.html#a1d95361a5140157ac0aae6fa94b09cbe" target="_top" xlink:title="do_chaser">
<polygon fill="white" stroke="black" points="161,-51 161,-75 223,-75 223,-51 161,-51"/>
<text text-anchor="middle" x="192" y="-62" font-family="Helvetica,sans-Serif" font-size="10.00">do_chaser</text>
</a>
</g>
<!-- Node1&#45;&gt;Node2 -->
<g id="edge2" class="edge"><title>Node1&#45;&gt;Node2</title>
<path fill="none" stroke="midnightblue" d="M85.7212,-143.651C114.58,-121.752 154.321,-91.5934 176.112,-75.0566"/>
<polygon fill="midnightblue" stroke="midnightblue" points="83.3712,-141.041 77.521,-149.874 87.6028,-146.617 83.3712,-141.041"/>
</g>
<!-- Node10 -->
<g id="node20" class="node"><title>Node10</title>
<a xlink:href="chasers__core__5_8cpp.html#a128576bedb198e99fd9ca3dace3304d1" target="_top" xlink:title="chaser_seek_at_beg">
<polygon fill="white" stroke="black" points="138.5,-188 138.5,-212 245.5,-212 245.5,-188 138.5,-188"/>
<text text-anchor="middle" x="192" y="-199" font-family="Helvetica,sans-Serif" font-size="10.00">chaser_seek_at_beg</text>
</a>
</g>
<!-- Node1&#45;&gt;Node10 -->
<g id="edge20" class="edge"><title>Node1&#45;&gt;Node10</title>
<path fill="none" stroke="midnightblue" d="M111.383,-182.847C120.24,-184.732 129.315,-186.663 138.032,-188.517"/>
<polygon fill="midnightblue" stroke="midnightblue" points="112.015,-179.404 101.506,-180.746 110.559,-186.25 112.015,-179.404"/>
</g>
<!-- Node22 -->
<g id="node49" class="node"><title>Node22</title>
<a xlink:href="midi__13_8cpp.html#a6dff3d42682b58cc0a9875ee30fb4cd4" target="_top" xlink:title="do_midi_job">
<polygon fill="white" stroke="black" points="595,-402 595,-426 663,-426 663,-402 595,-402"/>
<text text-anchor="middle" x="629" y="-413" font-family="Helvetica,sans-Serif" font-size="10.00">do_midi_job</text>
</a>
</g>
<!-- Node1&#45;&gt;Node22 -->
<g id="edge118" class="edge"><title>Node1&#45;&gt;Node22</title>
<path fill="none" stroke="midnightblue" d="M79.4958,-197.083C121.104,-235.405 202.24,-305.608 282,-349 345.712,-383.661 364.874,-388.797 436,-403 490.798,-413.942 555.956,-415.304 594.818,-414.919"/>
<polygon fill="midnightblue" stroke="midnightblue" points="81.6659,-194.322 71.9545,-190.087 76.9051,-199.454 81.6659,-194.322"/>
</g>
<!-- Node37 -->
<g id="node87" class="node"><title>Node37</title>
<a xlink:href="chasers__core__5_8cpp.html#a965f16d10083f733b1cfda05f4342212" target="_top" xlink:title="do_logical_fenetre\l_chasers">
<polygon fill="white" stroke="black" points="293.5,-88 293.5,-128 388.5,-128 388.5,-88 293.5,-88"/>
<text text-anchor="start" x="301.5" y="-115" font-family="Helvetica,sans-Serif" font-size="10.00">do_logical_fenetre</text>
<text text-anchor="middle" x="341" y="-99" font-family="Helvetica,sans-Serif" font-size="10.00">_chasers</text>
</a>
</g>
<!-- Node1&#45;&gt;Node37 -->
<g id="edge116" class="edge"><title>Node1&#45;&gt;Node37</title>
<path fill="none" stroke="midnightblue" d="M111.32,-157.104C165.409,-145.54 243.701,-128.802 293.468,-118.162"/>
<polygon fill="midnightblue" stroke="midnightblue" points="110.561,-153.687 101.514,-159.2 112.025,-160.532 110.561,-153.687"/>
</g>
<!-- Node3 -->
<g id="node5" class="node"><title>Node3</title>
<a xlink:href="_m_a_i_n__avec__objets_8cpp.html#a6a015280c1363331ada8a329be6eb7c8" target="_top" xlink:title="ticker">
<polygon fill="white" stroke="black" points="465.5,-24 465.5,-48 506.5,-48 506.5,-24 465.5,-24"/>
<text text-anchor="middle" x="486" y="-35" font-family="Helvetica,sans-Serif" font-size="10.00">ticker</text>
</a>
</g>
<!-- Node2&#45;&gt;Node3 -->
<g id="edge4" class="edge"><title>Node2&#45;&gt;Node3</title>
<path fill="none" stroke="midnightblue" d="M233.292,-59.2079C297.082,-53.3496 417.247,-42.314 465.337,-37.8976"/>
<polygon fill="midnightblue" stroke="midnightblue" points="232.823,-55.7361 223.185,-60.1361 233.463,-62.7068 232.823,-55.7361"/>
</g>
<!-- Node4 -->
<g id="node7" class="node"><title>Node4</title>
<a xlink:href="_c_f_g__config__panel__8_8cpp.html#aff76db94408106be22f658a05f17831a" target="_top" xlink:title="do_core_config">
<polygon fill="white" stroke="black" points="1438.5,-67 1438.5,-91 1521.5,-91 1521.5,-67 1438.5,-67"/>
<text text-anchor="middle" x="1480" y="-78" font-family="Helvetica,sans-Serif" font-size="10.00">do_core_config</text>
</a>
</g>
<!-- Node3&#45;&gt;Node4 -->
<g id="edge6" class="edge"><title>Node3&#45;&gt;Node4</title>
<path fill="none" stroke="midnightblue" d="M516.745,-36.3359C571.619,-36.9056 690.05,-38 790,-38 790,-38 790,-38 1218,-38 1296.5,-38 1386.65,-56.1866 1438.11,-68.3348"/>
<polygon fill="midnightblue" stroke="midnightblue" points="516.678,-32.8351 506.641,-36.2294 516.604,-39.8347 516.678,-32.8351"/>
</g>
<!-- Node9 -->
<g id="node17" class="node"><title>Node9</title>
<a xlink:href="_m_a_i_n__avec__objets_8cpp.html#ae66f6b31b5ad750f1fe042a706a4e3d4" target="_top" xlink:title="main">
<polygon fill="white" stroke="black" points="2194,-209 2194,-233 2232,-233 2232,-209 2194,-209"/>
<text text-anchor="middle" x="2213" y="-220" font-family="Helvetica,sans-Serif" font-size="10.00">main</text>
</a>
</g>
<!-- Node3&#45;&gt;Node9 -->
<g id="edge18" class="edge"><title>Node3&#45;&gt;Node9</title>
<path fill="none" stroke="midnightblue" d="M516.603,-29.9541C571.257,-19.7001 689.354,-1.42109e-14 790,-0 790,-0 790,-0 1974,-0 2098.05,-0 2185.08,-162.473 2207.37,-208.803"/>
<polygon fill="midnightblue" stroke="midnightblue" points="515.711,-26.5611 506.542,-31.8703 517.021,-33.4374 515.711,-26.5611"/>
</g>
<!-- Node5 -->
<g id="node9" class="node"><title>Node5</title>
<a xlink:href="_c_f_g__config__panel__8_8cpp.html#ad39c46e2fb3a3ba7ea0460140ead4f96" target="_top" xlink:title="do_panel_config">
<polygon fill="white" stroke="black" points="1682.5,-169 1682.5,-193 1769.5,-193 1769.5,-169 1682.5,-169"/>
<text text-anchor="middle" x="1726" y="-180" font-family="Helvetica,sans-Serif" font-size="10.00">do_panel_config</text>
</a>
</g>
<!-- Node4&#45;&gt;Node5 -->
<g id="edge8" class="edge"><title>Node4&#45;&gt;Node5</title>
<path fill="none" stroke="midnightblue" d="M1518.58,-94.9947C1567.98,-115.478 1652.49,-150.52 1696.85,-168.914"/>
<polygon fill="midnightblue" stroke="midnightblue" points="1519.76,-91.6984 1509.19,-91.1013 1517.08,-98.1646 1519.76,-91.6984"/>
</g>
<!-- Node6 -->
<g id="node11" class="node"><title>Node6</title>
<a xlink:href="_c_f_g__config__panel__8_8cpp.html#a7968da66bccdba8b864caf6c8435f68e" target="_top" xlink:title="config_general_menu">
<polygon fill="white" stroke="black" points="1806.5,-169 1806.5,-193 1915.5,-193 1915.5,-169 1806.5,-169"/>
<text text-anchor="middle" x="1861" y="-180" font-family="Helvetica,sans-Serif" font-size="10.00">config_general_menu</text>
</a>
</g>
<!-- Node5&#45;&gt;Node6 -->
<g id="edge10" class="edge"><title>Node5&#45;&gt;Node6</title>
<path fill="none" stroke="midnightblue" d="M1780.07,-181C1788.62,-181 1797.47,-181 1806.04,-181"/>
<polygon fill="midnightblue" stroke="midnightblue" points="1779.83,-177.5 1769.83,-181 1779.83,-184.5 1779.83,-177.5"/>
</g>
<!-- Node7 -->
<g id="node13" class="node"><title>Node7</title>
<a xlink:href="graphics__rebuild1_8cpp.html#ac2eae1e03fb72cc734ffbcef566483bf" target="_top" xlink:title="Boxes">
<polygon fill="white" stroke="black" points="1952,-169 1952,-193 1996,-193 1996,-169 1952,-169"/>
<text text-anchor="middle" x="1974" y="-180" font-family="Helvetica,sans-Serif" font-size="10.00">Boxes</text>
</a>
</g>
<!-- Node6&#45;&gt;Node7 -->
<g id="edge12" class="edge"><title>Node6&#45;&gt;Node7</title>
<path fill="none" stroke="midnightblue" d="M1925.75,-181C1935.11,-181 1944.17,-181 1951.86,-181"/>
<polygon fill="midnightblue" stroke="midnightblue" points="1925.51,-177.5 1915.51,-181 1925.51,-184.5 1925.51,-177.5"/>
</g>
<!-- Node8 -->
<g id="node15" class="node"><title>Node8</title>
<a xlink:href="_m_a_i_n__avec__objets_8cpp.html#ade8d4ba65d55c94f8ee277829d722155" target="_top" xlink:title="main_actions_on_screen">
<polygon fill="white" stroke="black" points="2032.5,-169 2032.5,-193 2157.5,-193 2157.5,-169 2032.5,-169"/>
<text text-anchor="middle" x="2095" y="-180" font-family="Helvetica,sans-Serif" font-size="10.00">main_actions_on_screen</text>
</a>
</g>
<!-- Node7&#45;&gt;Node8 -->
<g id="edge14" class="edge"><title>Node7&#45;&gt;Node8</title>
<path fill="none" stroke="midnightblue" d="M2006.24,-181C2014.32,-181 2023.26,-181 2032.27,-181"/>
<polygon fill="midnightblue" stroke="midnightblue" points="2006.19,-177.5 1996.19,-181 2006.19,-184.5 2006.19,-177.5"/>
</g>
<!-- Node8&#45;&gt;Node9 -->
<g id="edge16" class="edge"><title>Node8&#45;&gt;Node9</title>
<path fill="none" stroke="midnightblue" d="M2139.92,-196.227C2158.55,-202.542 2179.16,-209.53 2193.74,-214.47"/>
<polygon fill="midnightblue" stroke="midnightblue" points="2141,-192.897 2130.4,-193.001 2138.75,-199.527 2141,-192.897"/>
</g>
<!-- Node11 -->
<g id="node22" class="node"><title>Node11</title>
<a xlink:href="banger__core__8_8cpp.html#ae4008269e0575da11cc90e812961ef6f" target="_top" xlink:title="Bang_event">
<polygon fill="white" stroke="black" points="307,-238 307,-262 375,-262 375,-238 307,-238"/>
<text text-anchor="middle" x="341" y="-249" font-family="Helvetica,sans-Serif" font-size="10.00">Bang_event</text>
</a>
</g>
<!-- Node10&#45;&gt;Node11 -->
<g id="edge22" class="edge"><title>Node10&#45;&gt;Node11</title>
<path fill="none" stroke="midnightblue" d="M237.66,-215.322C259.937,-222.798 286.284,-231.639 306.799,-238.523"/>
<polygon fill="midnightblue" stroke="midnightblue" points="238.663,-211.967 228.069,-212.104 236.436,-218.603 238.663,-211.967"/>
</g>
<!-- Node17 -->
<g id="node36" class="node"><title>Node17</title>
<a xlink:href="i_cat14_8cpp.html#a16285241f82898e7a5f051b03d90b9a3" target="_top" xlink:title="check_button">
<polygon fill="white" stroke="black" points="591.5,-360 591.5,-384 666.5,-384 666.5,-360 591.5,-360"/>
<text text-anchor="middle" x="629" y="-371" font-family="Helvetica,sans-Serif" font-size="10.00">check_button</text>
</a>
</g>
<!-- Node10&#45;&gt;Node17 -->
<g id="edge112" class="edge"><title>Node10&#45;&gt;Node17</title>
<path fill="none" stroke="midnightblue" d="M211.727,-219.284C228.986,-235.19 255.391,-257.296 282,-271 387.146,-325.151 525.584,-354.316 591.279,-365.932"/>
<polygon fill="midnightblue" stroke="midnightblue" points="213.71,-216.343 204.029,-212.037 208.912,-221.44 213.71,-216.343"/>
</g>
<!-- Node10&#45;&gt;Node22 -->
<g id="edge114" class="edge"><title>Node10&#45;&gt;Node22</title>
<path fill="none" stroke="midnightblue" d="M204.339,-221.167C219.595,-245.536 247.783,-285.134 282,-308 383.212,-375.635 529.355,-401.561 594.918,-410.207"/>
<polygon fill="midnightblue" stroke="midnightblue" points="207.155,-219.062 198.964,-212.343 201.177,-222.704 207.155,-219.062"/>
</g>
<!-- Node10&#45;&gt;Node37 -->
<g id="edge100" class="edge"><title>Node10&#45;&gt;Node37</title>
<path fill="none" stroke="midnightblue" d="M215.852,-181.789C233.615,-168.605 258.718,-150.76 282,-137 287.109,-133.98 292.577,-130.991 298.048,-128.144"/>
<polygon fill="midnightblue" stroke="midnightblue" points="213.668,-179.052 207.762,-187.847 217.864,-184.655 213.668,-179.052"/>
</g>
<!-- Node38 -->
<g id="node90" class="node"><title>Node38</title>
<a xlink:href="chasers__core__5_8cpp.html#a8f3e3d1bf89886d68b2f81a669d31874" target="_top" xlink:title="do_autolaunch">
<polygon fill="white" stroke="black" points="301,-146 301,-170 381,-170 381,-146 301,-146"/>
<text text-anchor="middle" x="341" y="-157" font-family="Helvetica,sans-Serif" font-size="10.00">do_autolaunch</text>
</a>
</g>
<!-- Node10&#45;&gt;Node38 -->
<g id="edge104" class="edge"><title>Node10&#45;&gt;Node38</title>
<path fill="none" stroke="midnightblue" d="M244.462,-185.212C262.988,-179.99 283.512,-174.205 300.855,-169.316"/>
<polygon fill="midnightblue" stroke="midnightblue" points="243.373,-181.883 234.697,-187.964 245.272,-188.62 243.373,-181.883"/>
</g>
<!-- Node39 -->
<g id="node93" class="node"><title>Node39</title>
<a xlink:href="faders__core__24_8cpp.html#a7a87eef3a5459bdd689c77b5b02957d7" target="_top" xlink:title="do_logical_FaderSpace">
<polygon fill="white" stroke="black" points="282,-188 282,-212 400,-212 400,-188 282,-188"/>
<text text-anchor="middle" x="341" y="-199" font-family="Helvetica,sans-Serif" font-size="10.00">do_logical_FaderSpace</text>
</a>
</g>
<!-- Node10&#45;&gt;Node39 -->
<g id="edge108" class="edge"><title>Node10&#45;&gt;Node39</title>
<path fill="none" stroke="midnightblue" d="M255.858,-200C264.533,-200 273.406,-200 281.991,-200"/>
<polygon fill="midnightblue" stroke="midnightblue" points="255.792,-196.5 245.792,-200 255.792,-203.5 255.792,-196.5"/>
</g>
<!-- Node12 -->
<g id="node24" class="node"><title>Node12</title>
<a xlink:href="banger__core__8_8cpp.html#a4003a08a1620546de77b118c91d2fd9d" target="_top" xlink:title="do_bang">
<polygon fill="white" stroke="black" points="459.5,-280 459.5,-304 512.5,-304 512.5,-280 459.5,-280"/>
<text text-anchor="middle" x="486" y="-291" font-family="Helvetica,sans-Serif" font-size="10.00">do_bang</text>
</a>
</g>
<!-- Node11&#45;&gt;Node12 -->
<g id="edge24" class="edge"><title>Node11&#45;&gt;Node12</title>
<path fill="none" stroke="midnightblue" d="M385.028,-262.753C409.189,-269.751 438.364,-278.202 459.127,-284.216"/>
<polygon fill="midnightblue" stroke="midnightblue" points="385.942,-259.374 375.363,-259.953 383.994,-266.097 385.942,-259.374"/>
</g>
<!-- Node14 -->
<g id="node29" class="node"><title>Node14</title>
<a xlink:href="banger__core__8_8cpp.html#a4fe16ad483c0c1609d97aeb9a23c74ee" target="_top" xlink:title="do_logical_fenetre\l_banger">
<polygon fill="white" stroke="black" points="438.5,-161 438.5,-201 533.5,-201 533.5,-161 438.5,-161"/>
<text text-anchor="start" x="446.5" y="-188" font-family="Helvetica,sans-Serif" font-size="10.00">do_logical_fenetre</text>
<text text-anchor="middle" x="486" y="-172" font-family="Helvetica,sans-Serif" font-size="10.00">_banger</text>
</a>
</g>
<!-- Node11&#45;&gt;Node14 -->
<g id="edge30" class="edge"><title>Node11&#45;&gt;Node14</title>
<path fill="none" stroke="midnightblue" d="M375.512,-233.577C395.966,-223.844 422.042,-211.435 443.725,-201.117"/>
<polygon fill="midnightblue" stroke="midnightblue" points="373.783,-230.524 366.257,-237.981 376.791,-236.845 373.783,-230.524"/>
</g>
<!-- Node16 -->
<g id="node34" class="node"><title>Node16</title>
<a xlink:href="banger__core__8_8cpp.html#ab405ab53ea444b049e5ffa258498fcb6" target="_top" xlink:title="refresh_banger_wx">
<polygon fill="white" stroke="black" points="436.5,-238 436.5,-262 535.5,-262 535.5,-238 436.5,-238"/>
<text text-anchor="middle" x="486" y="-249" font-family="Helvetica,sans-Serif" font-size="10.00">refresh_banger_wx</text>
</a>
</g>
<!-- Node11&#45;&gt;Node16 -->
<g id="edge36" class="edge"><title>Node11&#45;&gt;Node16</title>
<path fill="none" stroke="midnightblue" d="M385.551,-250C401.59,-250 419.783,-250 436.237,-250"/>
<polygon fill="midnightblue" stroke="midnightblue" points="385.363,-246.5 375.363,-250 385.363,-253.5 385.363,-246.5"/>
</g>
<!-- Node11&#45;&gt;Node22 -->
<g id="edge98" class="edge"><title>Node11&#45;&gt;Node22</title>
<path fill="none" stroke="midnightblue" d="M365.986,-268.09C407.256,-297.353 492.972,-355.567 572,-393 579.244,-396.431 587.21,-399.676 594.832,-402.542"/>
<polygon fill="midnightblue" stroke="midnightblue" points="367.814,-265.094 357.64,-262.135 363.748,-270.792 367.814,-265.094"/>
</g>
<!-- Node13 -->
<g id="node26" class="node"><title>Node13</title>
<a xlink:href="_m_a_i_n__avec__objets_8cpp.html#a8e80f54ac804eddce8ed6e45adb1db44" target="_top" xlink:title="ticker_full_loop">
<polygon fill="white" stroke="black" points="894,-259 894,-283 976,-283 976,-259 894,-259"/>
<text text-anchor="middle" x="935" y="-270" font-family="Helvetica,sans-Serif" font-size="10.00">ticker_full_loop</text>
</a>
</g>
<!-- Node12&#45;&gt;Node13 -->
<g id="edge26" class="edge"><title>Node12&#45;&gt;Node13</title>
<path fill="none" stroke="midnightblue" d="M522.788,-303.036C537.887,-307.026 555.635,-311.031 572,-313 698.541,-328.226 732.934,-316.555 858,-292 870.237,-289.597 883.387,-286.289 895.295,-283.008"/>
<polygon fill="midnightblue" stroke="midnightblue" points="523.377,-299.569 512.808,-300.302 521.528,-306.32 523.377,-299.569"/>
</g>
<!-- Node13&#45;&gt;Node9 -->
<g id="edge28" class="edge"><title>Node13&#45;&gt;Node9</title>
<path fill="none" stroke="midnightblue" d="M986.042,-256.435C1042.35,-241.675 1135.87,-221 1218,-221 1218,-221 1218,-221 1974,-221 2055.74,-221 2153.21,-221 2193.79,-221"/>
<polygon fill="midnightblue" stroke="midnightblue" points="985.077,-253.07 976.313,-259.024 986.877,-259.834 985.077,-253.07"/>
</g>
<!-- Node15 -->
<g id="node31" class="node"><title>Node15</title>
<a xlink:href="procs__visuels__rebuild1_8cpp.html#ae710b6e599e321ad5934a90140067054" target="_top" xlink:title="check_graphics_mouse\l_handling">
<polygon fill="white" stroke="black" points="730.5,-132 730.5,-172 849.5,-172 849.5,-132 730.5,-132"/>
<text text-anchor="start" x="738.5" y="-159" font-family="Helvetica,sans-Serif" font-size="10.00">check_graphics_mouse</text>
<text text-anchor="middle" x="790" y="-143" font-family="Helvetica,sans-Serif" font-size="10.00">_handling</text>
</a>
</g>
<!-- Node14&#45;&gt;Node15 -->
<g id="edge32" class="edge"><title>Node14&#45;&gt;Node15</title>
<path fill="none" stroke="midnightblue" d="M543.822,-174.045C553.235,-172.979 562.885,-171.927 572,-171 625.481,-165.561 686.443,-160.33 730.276,-156.739"/>
<polygon fill="midnightblue" stroke="midnightblue" points="543.273,-170.585 533.737,-175.201 544.07,-177.539 543.273,-170.585"/>
</g>
<!-- Node15&#45;&gt;Node13 -->
<g id="edge34" class="edge"><title>Node15&#45;&gt;Node13</title>
<path fill="none" stroke="midnightblue" d="M822.415,-178.602C852.9,-203.622 897.177,-239.959 920.06,-258.739"/>
<polygon fill="midnightblue" stroke="midnightblue" points="824.548,-175.825 814.597,-172.187 820.107,-181.236 824.548,-175.825"/>
</g>
<!-- Node16&#45;&gt;Node17 -->
<g id="edge38" class="edge"><title>Node16&#45;&gt;Node17</title>
<path fill="none" stroke="midnightblue" d="M529.596,-266.8C531.819,-268.12 533.97,-269.52 536,-271 555.867,-285.482 555.452,-294.818 572,-313 587.147,-329.642 605.309,-348.216 616.995,-359.998"/>
<polygon fill="midnightblue" stroke="midnightblue" points="531.231,-263.706 520.758,-262.102 527.945,-269.887 531.231,-263.706"/>
</g>
<!-- Node19 -->
<g id="node41" class="node"><title>Node19</title>
<a xlink:href="keyboard__functions2_8cpp.html#af3dd6697323b10b480719c1612bcf29a" target="_top" xlink:title="key_backward">
<polygon fill="white" stroke="black" points="589,-280 589,-304 669,-304 669,-280 589,-280"/>
<text text-anchor="middle" x="629" y="-291" font-family="Helvetica,sans-Serif" font-size="10.00">key_backward</text>
</a>
</g>
<!-- Node16&#45;&gt;Node19 -->
<g id="edge44" class="edge"><title>Node16&#45;&gt;Node19</title>
<path fill="none" stroke="midnightblue" d="M536.746,-264.904C553.727,-269.892 572.418,-275.382 588.51,-280.108"/>
<polygon fill="midnightblue" stroke="midnightblue" points="537.559,-261.495 526.978,-262.036 535.586,-268.212 537.559,-261.495"/>
</g>
<!-- Node21 -->
<g id="node46" class="node"><title>Node21</title>
<a xlink:href="keyboard__functions2_8cpp.html#a6b73a3669797504ce2e357d9a8b9a2c2" target="_top" xlink:title="key_forward">
<polygon fill="white" stroke="black" points="594,-238 594,-262 664,-262 664,-238 594,-238"/>
<text text-anchor="middle" x="629" y="-249" font-family="Helvetica,sans-Serif" font-size="10.00">key_forward</text>
</a>
</g>
<!-- Node16&#45;&gt;Node21 -->
<g id="edge50" class="edge"><title>Node16&#45;&gt;Node21</title>
<path fill="none" stroke="midnightblue" d="M545.687,-250C562.095,-250 579.356,-250 593.885,-250"/>
<polygon fill="midnightblue" stroke="midnightblue" points="545.613,-246.5 535.613,-250 545.613,-253.5 545.613,-246.5"/>
</g>
<!-- Node16&#45;&gt;Node22 -->
<g id="edge54" class="edge"><title>Node16&#45;&gt;Node22</title>
<path fill="none" stroke="midnightblue" d="M533.198,-268.173C534.18,-269.072 535.117,-270.013 536,-271 573.703,-313.125 533.366,-351.727 572,-393 578.126,-399.544 586.468,-404.058 594.879,-407.168"/>
<polygon fill="midnightblue" stroke="midnightblue" points="535.056,-265.195 524.924,-262.096 530.911,-270.837 535.056,-265.195"/>
</g>
<!-- Node36 -->
<g id="node83" class="node"><title>Node36</title>
<a xlink:href="sequentiel__6__core_8cpp.html#a2a71c851cf25565491dd10423bc80380" target="_top" xlink:title="do_logical_Sequenciel\l_Window">
<polygon fill="white" stroke="black" points="572.5,-180 572.5,-220 685.5,-220 685.5,-180 572.5,-180"/>
<text text-anchor="start" x="580.5" y="-207" font-family="Helvetica,sans-Serif" font-size="10.00">do_logical_Sequenciel</text>
<text text-anchor="middle" x="629" y="-191" font-family="Helvetica,sans-Serif" font-size="10.00">_Window</text>
</a>
</g>
<!-- Node16&#45;&gt;Node36 -->
<g id="edge94" class="edge"><title>Node16&#45;&gt;Node36</title>
<path fill="none" stroke="midnightblue" d="M530.445,-234.46C543.718,-229.819 558.451,-224.668 572.393,-219.793"/>
<polygon fill="midnightblue" stroke="midnightblue" points="528.901,-231.292 520.616,-237.896 531.211,-237.9 528.901,-231.292"/>
</g>
<!-- Node18 -->
<g id="node38" class="node"><title>Node18</title>
<a xlink:href="i_cat14_8cpp.html#aa9772b548765a631d4bae1c14053b4e1" target="_top" xlink:title="DoJobFantastickTouch">
<polygon fill="white" stroke="black" points="731.5,-360 731.5,-384 848.5,-384 848.5,-360 731.5,-360"/>
<text text-anchor="middle" x="790" y="-371" font-family="Helvetica,sans-Serif" font-size="10.00">DoJobFantastickTouch</text>
</a>
</g>
<!-- Node17&#45;&gt;Node18 -->
<g id="edge40" class="edge"><title>Node17&#45;&gt;Node18</title>
<path fill="none" stroke="midnightblue" d="M677.039,-372C694.111,-372 713.521,-372 731.378,-372"/>
<polygon fill="midnightblue" stroke="midnightblue" points="676.747,-368.5 666.747,-372 676.747,-375.5 676.747,-368.5"/>
</g>
<!-- Node18&#45;&gt;Node13 -->
<g id="edge42" class="edge"><title>Node18&#45;&gt;Node13</title>
<path fill="none" stroke="midnightblue" d="M839.307,-355.916C845.8,-353.009 852.204,-349.704 858,-346 885.674,-328.312 911.691,-299.496 925.249,-283.213"/>
<polygon fill="midnightblue" stroke="midnightblue" points="837.67,-352.807 829.792,-359.891 840.368,-359.266 837.67,-352.807"/>
</g>
<!-- Node20 -->
<g id="node43" class="node"><title>Node20</title>
<a xlink:href="keyboard__routines2_8cpp.html#a8563320b8eab661232619224650de244" target="_top" xlink:title="commandes_clavier">
<polygon fill="white" stroke="black" points="738,-259 738,-283 842,-283 842,-259 738,-259"/>
<text text-anchor="middle" x="790" y="-270" font-family="Helvetica,sans-Serif" font-size="10.00">commandes_clavier</text>
</a>
</g>
<!-- Node19&#45;&gt;Node20 -->
<g id="edge46" class="edge"><title>Node19&#45;&gt;Node20</title>
<path fill="none" stroke="midnightblue" d="M679.27,-285.443C697.898,-283.013 719.053,-280.254 737.845,-277.803"/>
<polygon fill="midnightblue" stroke="midnightblue" points="678.675,-281.991 669.212,-286.755 679.581,-288.932 678.675,-281.991"/>
</g>
<!-- Node20&#45;&gt;Node13 -->
<g id="edge48" class="edge"><title>Node20&#45;&gt;Node13</title>
<path fill="none" stroke="midnightblue" d="M852.386,-271C866.335,-271 880.795,-271 893.643,-271"/>
<polygon fill="midnightblue" stroke="midnightblue" points="852.348,-267.5 842.348,-271 852.348,-274.5 852.348,-267.5"/>
</g>
<!-- Node21&#45;&gt;Node20 -->
<g id="edge52" class="edge"><title>Node21&#45;&gt;Node20</title>
<path fill="none" stroke="midnightblue" d="M674.326,-255.912C694.115,-258.493 717.436,-261.535 737.934,-264.209"/>
<polygon fill="midnightblue" stroke="midnightblue" points="674.701,-252.431 664.332,-254.609 673.795,-259.373 674.701,-252.431"/>
</g>
<!-- Node23 -->
<g id="node51" class="node"><title>Node23</title>
<a xlink:href="midi__13_8cpp.html#a6bedf9750195224914cd87c4e73ab626" target="_top" xlink:title="ventilate_midi_to_midiarray">
<polygon fill="white" stroke="black" points="722.5,-402 722.5,-426 857.5,-426 857.5,-402 722.5,-402"/>
<text text-anchor="middle" x="790" y="-413" font-family="Helvetica,sans-Serif" font-size="10.00">ventilate_midi_to_midiarray</text>
</a>
</g>
<!-- Node22&#45;&gt;Node23 -->
<g id="edge56" class="edge"><title>Node22&#45;&gt;Node23</title>
<path fill="none" stroke="midnightblue" d="M673.272,-414C688.455,-414 705.811,-414 722.414,-414"/>
<polygon fill="midnightblue" stroke="midnightblue" points="673.144,-410.5 663.144,-414 673.144,-417.5 673.144,-410.5"/>
</g>
<!-- Node24 -->
<g id="node53" class="node"><title>Node24</title>
<a xlink:href="midi__13_8cpp.html#afa49dd5668303c2448676c8243737c2d" target="_top" xlink:title="simulate_midi">
<polygon fill="white" stroke="black" points="896.5,-402 896.5,-426 973.5,-426 973.5,-402 896.5,-402"/>
<text text-anchor="middle" x="935" y="-413" font-family="Helvetica,sans-Serif" font-size="10.00">simulate_midi</text>
</a>
</g>
<!-- Node23&#45;&gt;Node24 -->
<g id="edge58" class="edge"><title>Node23&#45;&gt;Node24</title>
<path fill="none" stroke="midnightblue" d="M868.103,-414C877.941,-414 887.642,-414 896.473,-414"/>
<polygon fill="midnightblue" stroke="midnightblue" points="867.83,-410.5 857.83,-414 867.83,-417.5 867.83,-410.5"/>
</g>
<!-- Node28 -->
<g id="node63" class="node"><title>Node28</title>
<a xlink:href="midi__13_8cpp.html#a4104c2ae7e71376ad9dc78929450dc51" target="_top" xlink:title="EvAquire">
<polygon fill="white" stroke="black" points="907,-331 907,-355 963,-355 963,-331 907,-331"/>
<text text-anchor="middle" x="935" y="-342" font-family="Helvetica,sans-Serif" font-size="10.00">EvAquire</text>
</a>
</g>
<!-- Node23&#45;&gt;Node28 -->
<g id="edge70" class="edge"><title>Node23&#45;&gt;Node28</title>
<path fill="none" stroke="midnightblue" d="M845.059,-398.444C849.495,-396.754 853.859,-394.938 858,-393 880.521,-382.46 904.187,-366.199 919.241,-355.103"/>
<polygon fill="midnightblue" stroke="midnightblue" points="843.526,-395.274 835.289,-401.938 845.884,-401.866 843.526,-395.274"/>
</g>
<!-- Node25 -->
<g id="node55" class="node"><title>Node25</title>
<a xlink:href="arduino__core__6___u_n_o_8cpp.html#ae72d1a8d74d9ab5515962e03e7e664d6" target="_top" xlink:title="arduino_do_analog_in\l_whitecat">
<polygon fill="white" stroke="black" points="1012,-414 1012,-454 1122,-454 1122,-414 1012,-414"/>
<text text-anchor="start" x="1020" y="-441" font-family="Helvetica,sans-Serif" font-size="10.00">arduino_do_analog_in</text>
<text text-anchor="middle" x="1067" y="-425" font-family="Helvetica,sans-Serif" font-size="10.00">_whitecat</text>
</a>
</g>
<!-- Node24&#45;&gt;Node25 -->
<g id="edge60" class="edge"><title>Node24&#45;&gt;Node25</title>
<path fill="none" stroke="midnightblue" d="M983.687,-421.377C992.899,-422.773 1002.6,-424.242 1011.99,-425.665"/>
<polygon fill="midnightblue" stroke="midnightblue" points="983.946,-417.876 973.535,-419.839 982.898,-424.797 983.946,-417.876"/>
</g>
<!-- Node27 -->
<g id="node60" class="node"><title>Node27</title>
<a xlink:href="arduino__core__6___u_n_o_8cpp.html#a219226c1cd6cc17c78e62fd4445bb445" target="_top" xlink:title="arduino_do_digital\l_in_whitecat">
<polygon fill="white" stroke="black" points="1019.5,-356 1019.5,-396 1114.5,-396 1114.5,-356 1019.5,-356"/>
<text text-anchor="start" x="1027.5" y="-383" font-family="Helvetica,sans-Serif" font-size="10.00">arduino_do_digital</text>
<text text-anchor="middle" x="1067" y="-367" font-family="Helvetica,sans-Serif" font-size="10.00">_in_whitecat</text>
</a>
</g>
<!-- Node24&#45;&gt;Node27 -->
<g id="edge66" class="edge"><title>Node24&#45;&gt;Node27</title>
<path fill="none" stroke="midnightblue" d="M983.188,-400.128C994.951,-396.741 1007.53,-393.12 1019.27,-389.74"/>
<polygon fill="midnightblue" stroke="midnightblue" points="982.176,-396.777 973.535,-402.907 984.113,-403.504 982.176,-396.777"/>
</g>
<!-- Node26 -->
<g id="node57" class="node"><title>Node26</title>
<a xlink:href="_m_a_i_n__avec__objets_8cpp.html#ace9c8a9b37c6087c3cffef442d71d70e" target="_top" xlink:title="dixiemes_de_secondes">
<polygon fill="white" stroke="black" points="1158.5,-366 1158.5,-390 1277.5,-390 1277.5,-366 1158.5,-366"/>
<text text-anchor="middle" x="1218" y="-377" font-family="Helvetica,sans-Serif" font-size="10.00">dixiemes_de_secondes</text>
</a>
</g>
<!-- Node25&#45;&gt;Node26 -->
<g id="edge62" class="edge"><title>Node25&#45;&gt;Node26</title>
<path fill="none" stroke="midnightblue" d="M1130.54,-410.435C1149.42,-403.435 1169.31,-396.057 1185.35,-390.109"/>
<polygon fill="midnightblue" stroke="midnightblue" points="1129.25,-407.182 1121.09,-413.941 1131.68,-413.745 1129.25,-407.182"/>
</g>
<!-- Node26&#45;&gt;Node9 -->
<g id="edge64" class="edge"><title>Node26&#45;&gt;Node9</title>
<path fill="none" stroke="midnightblue" d="M1287.83,-378C1340.62,-378 1414.86,-378 1480,-378 1480,-378 1480,-378 1974,-378 2065.43,-378 2086.11,-342.497 2158,-286 2177.53,-270.654 2195.11,-247.457 2204.89,-233.322"/>
<polygon fill="midnightblue" stroke="midnightblue" points="1287.57,-374.5 1277.57,-378 1287.57,-381.5 1287.57,-374.5"/>
</g>
<!-- Node27&#45;&gt;Node26 -->
<g id="edge68" class="edge"><title>Node27&#45;&gt;Node26</title>
<path fill="none" stroke="midnightblue" d="M1125.04,-376.769C1135.95,-376.913 1147.37,-377.064 1158.32,-377.21"/>
<polygon fill="midnightblue" stroke="midnightblue" points="1124.82,-373.266 1114.78,-376.633 1124.73,-380.265 1124.82,-373.266"/>
</g>
<!-- Node29 -->
<g id="node65" class="node"><title>Node29</title>
<a xlink:href="midi__13_8cpp.html#a831f1dfc7870ae4f6c64a0e65fbaf3ff" target="_top" xlink:title="Display">
<polygon fill="white" stroke="black" points="1042,-312 1042,-336 1092,-336 1092,-312 1042,-312"/>
<text text-anchor="middle" x="1067" y="-323" font-family="Helvetica,sans-Serif" font-size="10.00">Display</text>
</a>
</g>
<!-- Node28&#45;&gt;Node29 -->
<g id="edge72" class="edge"><title>Node28&#45;&gt;Node29</title>
<path fill="none" stroke="midnightblue" d="M973.366,-337.478C995.419,-334.303 1022.5,-330.406 1041.85,-327.62"/>
<polygon fill="midnightblue" stroke="midnightblue" points="972.717,-334.035 963.317,-338.924 973.714,-340.964 972.717,-334.035"/>
</g>
<!-- Node30 -->
<g id="node67" class="node"><title>Node30</title>
<a xlink:href="midi__13_8cpp.html#aa4aeee5088a4a5462566dfee5c9cc71f" target="_top" xlink:title="DisplayTask">
<polygon fill="white" stroke="black" points="1182.5,-312 1182.5,-336 1253.5,-336 1253.5,-312 1182.5,-312"/>
<text text-anchor="middle" x="1218" y="-323" font-family="Helvetica,sans-Serif" font-size="10.00">DisplayTask</text>
</a>
</g>
<!-- Node29&#45;&gt;Node30 -->
<g id="edge74" class="edge"><title>Node29&#45;&gt;Node30</title>
<path fill="none" stroke="midnightblue" d="M1102.42,-324C1126.53,-324 1158.32,-324 1182.46,-324"/>
<polygon fill="midnightblue" stroke="midnightblue" points="1102.27,-320.5 1092.27,-324 1102.27,-327.5 1102.27,-320.5"/>
</g>
<!-- Node32 -->
<g id="node72" class="node"><title>Node32</title>
<a xlink:href="midi___c_o_r_e_8cpp.html#a6fcb4c2efe85f50488d7aeeef1fc0a3e" target="_top" xlink:title="ReceiveEvents">
<polygon fill="white" stroke="black" points="1176.5,-270 1176.5,-294 1259.5,-294 1259.5,-270 1176.5,-270"/>
<text text-anchor="middle" x="1218" y="-281" font-family="Helvetica,sans-Serif" font-size="10.00">ReceiveEvents</text>
</a>
</g>
<!-- Node29&#45;&gt;Node32 -->
<g id="edge80" class="edge"><title>Node29&#45;&gt;Node32</title>
<path fill="none" stroke="midnightblue" d="M1101.96,-314.276C1124.16,-308.102 1153,-300.08 1176.37,-293.579"/>
<polygon fill="midnightblue" stroke="midnightblue" points="1100.97,-310.918 1092.27,-316.97 1102.85,-317.662 1100.97,-310.918"/>
</g>
<!-- Node31 -->
<g id="node69" class="node"><title>Node31</title>
<a xlink:href="midi___c_o_r_e_8cpp.html#a7d0f82d882071792d6a2df51ef13ec55" target="_top" xlink:title="ReceivePolling">
<polygon fill="white" stroke="black" points="1314,-308 1314,-332 1396,-332 1396,-308 1314,-308"/>
<text text-anchor="middle" x="1355" y="-319" font-family="Helvetica,sans-Serif" font-size="10.00">ReceivePolling</text>
</a>
</g>
<!-- Node30&#45;&gt;Node31 -->
<g id="edge76" class="edge"><title>Node30&#45;&gt;Node31</title>
<path fill="none" stroke="midnightblue" d="M1263.91,-322.66C1280.02,-322.189 1298.01,-321.664 1313.72,-321.205"/>
<polygon fill="midnightblue" stroke="midnightblue" points="1263.53,-319.169 1253.64,-322.959 1263.74,-326.166 1263.53,-319.169"/>
</g>
<!-- Node31&#45;&gt;Node31 -->
<g id="edge78" class="edge"><title>Node31&#45;&gt;Node31</title>
<path fill="none" stroke="midnightblue" d="M1332.51,-342.001C1334.81,-346.647 1342.31,-350 1355,-350 1375.83,-350 1382.66,-340.972 1375.5,-332.014"/>
<polygon fill="midnightblue" stroke="midnightblue" points="1335.98,-342.504 1334.5,-332.014 1329.12,-341.14 1335.98,-342.504"/>
</g>
<!-- Node32&#45;&gt;Node31 -->
<g id="edge82" class="edge"><title>Node32&#45;&gt;Node31</title>
<path fill="none" stroke="midnightblue" d="M1269.74,-296.352C1284.33,-300.398 1300,-304.745 1313.88,-308.594"/>
<polygon fill="midnightblue" stroke="midnightblue" points="1270.42,-292.908 1259.85,-293.608 1268.55,-299.653 1270.42,-292.908"/>
</g>
<!-- Node33 -->
<g id="node75" class="node"><title>Node33</title>
<a xlink:href="midi___c_o_r_e_8cpp.html#a0ccf480a33424e626f88d109d53d8366" target="_top" xlink:title="InitMidi">
<polygon fill="white" stroke="black" points="1331,-266 1331,-290 1379,-290 1379,-266 1331,-266"/>
<text text-anchor="middle" x="1355" y="-277" font-family="Helvetica,sans-Serif" font-size="10.00">InitMidi</text>
</a>
</g>
<!-- Node32&#45;&gt;Node33 -->
<g id="edge84" class="edge"><title>Node32&#45;&gt;Node33</title>
<path fill="none" stroke="midnightblue" d="M1269.93,-280.484C1290.89,-279.872 1314.06,-279.195 1330.92,-278.703"/>
<polygon fill="midnightblue" stroke="midnightblue" points="1269.74,-276.988 1259.85,-280.778 1269.95,-283.985 1269.74,-276.988"/>
</g>
<!-- Node33&#45;&gt;Node9 -->
<g id="edge86" class="edge"><title>Node33&#45;&gt;Node9</title>
<path fill="none" stroke="midnightblue" d="M1389.22,-283.154C1437.3,-289.934 1527.6,-301 1605,-301 1605,-301 1605,-301 1974,-301 2059.76,-301 2154.3,-254.105 2193.9,-232.124"/>
<polygon fill="midnightblue" stroke="midnightblue" points="1389.46,-279.652 1379.07,-281.695 1388.47,-286.581 1389.46,-279.652"/>
</g>
<!-- Node34 -->
<g id="node78" class="node"><title>Node34</title>
<a xlink:href="midi__13_8cpp.html#ac7a306aa81e374b447e7341d4d3a3eea" target="_top" xlink:title="midipage_devices">
<polygon fill="white" stroke="black" points="1432.5,-249 1432.5,-273 1527.5,-273 1527.5,-249 1432.5,-249"/>
<text text-anchor="middle" x="1480" y="-260" font-family="Helvetica,sans-Serif" font-size="10.00">midipage_devices</text>
</a>
</g>
<!-- Node33&#45;&gt;Node34 -->
<g id="edge88" class="edge"><title>Node33&#45;&gt;Node34</title>
<path fill="none" stroke="midnightblue" d="M1389.25,-273.341C1402.57,-271.53 1418.05,-269.425 1432.42,-267.471"/>
<polygon fill="midnightblue" stroke="midnightblue" points="1388.54,-269.906 1379.1,-274.722 1389.48,-276.843 1388.54,-269.906"/>
</g>
<!-- Node35 -->
<g id="node80" class="node"><title>Node35</title>
<a xlink:href="midi__13_8cpp.html#a8f70acacad6eaba8867bdd80dda5e277" target="_top" xlink:title="do_midi_config">
<polygon fill="white" stroke="black" points="1564,-249 1564,-273 1646,-273 1646,-249 1564,-249"/>
<text text-anchor="middle" x="1605" y="-260" font-family="Helvetica,sans-Serif" font-size="10.00">do_midi_config</text>
</a>
</g>
<!-- Node34&#45;&gt;Node35 -->
<g id="edge90" class="edge"><title>Node34&#45;&gt;Node35</title>
<path fill="none" stroke="midnightblue" d="M1537.77,-261C1546.5,-261 1555.35,-261 1563.65,-261"/>
<polygon fill="midnightblue" stroke="midnightblue" points="1537.61,-257.5 1527.61,-261 1537.61,-264.5 1537.61,-257.5"/>
</g>
<!-- Node35&#45;&gt;Node5 -->
<g id="edge92" class="edge"><title>Node35&#45;&gt;Node5</title>
<path fill="none" stroke="midnightblue" d="M1632.02,-243.132C1655.13,-227.856 1687.74,-206.293 1707.85,-193.002"/>
<polygon fill="midnightblue" stroke="midnightblue" points="1629.79,-240.415 1623.38,-248.85 1633.65,-246.254 1629.79,-240.415"/>
</g>
<!-- Node36&#45;&gt;Node15 -->
<g id="edge96" class="edge"><title>Node36&#45;&gt;Node15</title>
<path fill="none" stroke="midnightblue" d="M695.408,-180.201C707.03,-176.736 719.057,-173.151 730.478,-169.746"/>
<polygon fill="midnightblue" stroke="midnightblue" points="694.346,-176.866 685.763,-183.077 696.346,-183.574 694.346,-176.866"/>
</g>
<!-- Node37&#45;&gt;Node15 -->
<g id="edge102" class="edge"><title>Node37&#45;&gt;Node15</title>
<path fill="none" stroke="midnightblue" d="M398.931,-97.8515C468.235,-87.7151 587.277,-76.6948 686,-100 712.13,-106.168 739.18,-119.963 759.142,-131.795"/>
<polygon fill="midnightblue" stroke="midnightblue" points="398.027,-94.4482 388.661,-99.4008 399.071,-101.37 398.027,-94.4482"/>
</g>
<!-- Node38&#45;&gt;Node3 -->
<g id="edge106" class="edge"><title>Node38&#45;&gt;Node3</title>
<path fill="none" stroke="midnightblue" d="M390.289,-142.747C393.681,-141.01 396.957,-139.099 400,-137 418.485,-124.253 458.708,-72.3234 476.827,-48.2996"/>
<polygon fill="midnightblue" stroke="midnightblue" points="388.75,-139.602 381.114,-146.947 391.664,-145.967 388.75,-139.602"/>
</g>
<!-- Node39&#45;&gt;Node15 -->
<g id="edge110" class="edge"><title>Node39&#45;&gt;Node15</title>
<path fill="none" stroke="midnightblue" d="M389.642,-184.031C393.203,-182.455 396.692,-180.776 400,-179 417.621,-169.539 417.026,-158.325 436,-152 534.972,-119.009 658.338,-129.77 730.231,-140.766"/>
<polygon fill="midnightblue" stroke="midnightblue" points="388.033,-180.908 380.123,-187.957 390.702,-187.38 388.033,-180.908"/>
</g>
</g>
</svg>
