<?xml version="1.0" encoding="UTF-8" standalone="no"?>
<!DOCTYPE svg PUBLIC "-//W3C//DTD SVG 1.1//EN"
 "http://www.w3.org/Graphics/SVG/1.1/DTD/svg11.dtd">
<!-- Generated by graphviz version 2.26.3 (20100126.1600)
 -->
<!-- Title: chaser_seek_at_beg Pages: 1 -->
<svg width="2104pt" height="481pt"
 viewBox="0.00 0.00 2104.00 481.00" xmlns="http://www.w3.org/2000/svg" xmlns:xlink="http://www.w3.org/1999/xlink">
<g id="graph1" class="graph" transform="scale(1 1) rotate(0) translate(4 477)">
<title>chaser_seek_at_beg</title>
<polygon fill="white" stroke="white" points="-4,5 -4,-477 2101,-477 2101,5 -4,5"/>
<!-- Node1 -->
<g id="node1" class="node"><title>Node1</title>
<polygon fill="#bfbfbf" stroke="black" points="0.5,-279 0.5,-303 107.5,-303 107.5,-279 0.5,-279"/>
<text text-anchor="middle" x="54" y="-290" font-family="Helvetica,sans-Serif" font-size="10.00">chaser_seek_at_beg</text>
</g>
<!-- Node2 -->
<g id="node3" class="node"><title>Node2</title>
<a xlink:href="banger__core__8_8cpp.html#ae4008269e0575da11cc90e812961ef6f" target="_top" xlink:title="Bang_event">
<polygon fill="white" stroke="black" points="169,-240 169,-264 237,-264 237,-240 169,-240"/>
<text text-anchor="middle" x="203" y="-251" font-family="Helvetica,sans-Serif" font-size="10.00">Bang_event</text>
</a>
</g>
<!-- Node1&#45;&gt;Node2 -->
<g id="edge2" class="edge"><title>Node1&#45;&gt;Node2</title>
<path fill="none" stroke="midnightblue" d="M109.782,-276.399C129.615,-271.208 151.341,-265.522 168.825,-260.945"/>
<polygon fill="midnightblue" stroke="midnightblue" points="108.709,-273.062 99.9207,-278.98 110.481,-279.834 108.709,-273.062"/>
</g>
<!-- Node9 -->
<g id="node18" class="node"><title>Node9</title>
<a xlink:href="i_cat14_8cpp.html#a16285241f82898e7a5f051b03d90b9a3" target="_top" xlink:title="check_button">
<polygon fill="white" stroke="black" points="453.5,-314 453.5,-338 528.5,-338 528.5,-314 453.5,-314"/>
<text text-anchor="middle" x="491" y="-325" font-family="Helvetica,sans-Serif" font-size="10.00">check_button</text>
</a>
</g>
<!-- Node1&#45;&gt;Node9 -->
<g id="edge106" class="edge"><title>Node1&#45;&gt;Node9</title>
<path fill="none" stroke="midnightblue" d="M117.645,-296.097C210.023,-303.496 378.382,-316.98 453.304,-322.981"/>
<polygon fill="midnightblue" stroke="midnightblue" points="117.832,-292.601 107.585,-295.292 117.273,-299.579 117.832,-292.601"/>
</g>
<!-- Node14 -->
<g id="node31" class="node"><title>Node14</title>
<a xlink:href="midi__13_8cpp.html#a6dff3d42682b58cc0a9875ee30fb4cd4" target="_top" xlink:title="do_midi_job">
<polygon fill="white" stroke="black" points="457,-356 457,-380 525,-380 525,-356 457,-356"/>
<text text-anchor="middle" x="491" y="-367" font-family="Helvetica,sans-Serif" font-size="10.00">do_midi_job</text>
</a>
</g>
<!-- Node1&#45;&gt;Node14 -->
<g id="edge108" class="edge"><title>Node1&#45;&gt;Node14</title>
<path fill="none" stroke="midnightblue" d="M103.026,-305.788C116.248,-309.454 130.603,-313.147 144,-316 257.499,-340.173 394.229,-357.165 456.766,-364.277"/>
<polygon fill="midnightblue" stroke="midnightblue" points="103.746,-302.354 93.171,-303.003 101.842,-309.09 103.746,-302.354"/>
</g>
<!-- Node33 -->
<g id="node77" class="node"><title>Node33</title>
<a xlink:href="chasers__core__5_8cpp.html#a965f16d10083f733b1cfda05f4342212" target="_top" xlink:title="do_logical_fenetre\l_chasers">
<polygon fill="white" stroke="black" points="300.5,-0 300.5,-40 395.5,-40 395.5,-0 300.5,-0"/>
<text text-anchor="start" x="308.5" y="-27" font-family="Helvetica,sans-Serif" font-size="10.00">do_logical_fenetre</text>
<text text-anchor="middle" x="348" y="-11" font-family="Helvetica,sans-Serif" font-size="10.00">_chasers</text>
</a>
</g>
<!-- Node1&#45;&gt;Node33 -->
<g id="edge88" class="edge"><title>Node1&#45;&gt;Node33</title>
<path fill="none" stroke="midnightblue" d="M60.402,-268.97C71.8171,-233.118 98.8215,-161.761 144,-118 188.45,-74.9441 255.422,-47.7728 300.379,-33.2379"/>
<polygon fill="midnightblue" stroke="midnightblue" points="56.9465,-268.3 57.357,-278.887 63.6381,-270.355 56.9465,-268.3"/>
</g>
<!-- Node34 -->
<g id="node80" class="node"><title>Node34</title>
<a xlink:href="chasers__core__5_8cpp.html#a8f3e3d1bf89886d68b2f81a669d31874" target="_top" xlink:title="do_autolaunch">
<polygon fill="white" stroke="black" points="163,-413 163,-437 243,-437 243,-413 163,-413"/>
<text text-anchor="middle" x="203" y="-424" font-family="Helvetica,sans-Serif" font-size="10.00">do_autolaunch</text>
</a>
</g>
<!-- Node1&#45;&gt;Node34 -->
<g id="edge92" class="edge"><title>Node1&#45;&gt;Node34</title>
<path fill="none" stroke="midnightblue" d="M71.643,-310.596C89.206,-329.669 117.321,-359.051 144,-382 157.068,-393.241 172.903,-404.674 184.876,-412.923"/>
<polygon fill="midnightblue" stroke="midnightblue" points="74.1257,-308.124 64.7969,-303.102 68.9576,-312.846 74.1257,-308.124"/>
</g>
<!-- Node37 -->
<g id="node88" class="node"><title>Node37</title>
<a xlink:href="faders__core__24_8cpp.html#a7a87eef3a5459bdd689c77b5b02957d7" target="_top" xlink:title="do_logical_FaderSpace">
<polygon fill="white" stroke="black" points="144,-127 144,-151 262,-151 262,-127 144,-127"/>
<text text-anchor="middle" x="203" y="-138" font-family="Helvetica,sans-Serif" font-size="10.00">do_logical_FaderSpace</text>
</a>
</g>
<!-- Node1&#45;&gt;Node37 -->
<g id="edge102" class="edge"><title>Node1&#45;&gt;Node37</title>
<path fill="none" stroke="midnightblue" d="M73.1972,-271.416C104.402,-239.583 165.231,-177.53 191.002,-151.24"/>
<polygon fill="midnightblue" stroke="midnightblue" points="70.4423,-269.227 65.9414,-278.818 75.4411,-274.127 70.4423,-269.227"/>
</g>
<!-- Node3 -->
<g id="node5" class="node"><title>Node3</title>
<a xlink:href="banger__core__8_8cpp.html#a4003a08a1620546de77b118c91d2fd9d" target="_top" xlink:title="do_bang">
<polygon fill="white" stroke="black" points="321.5,-240 321.5,-264 374.5,-264 374.5,-240 321.5,-240"/>
<text text-anchor="middle" x="348" y="-251" font-family="Helvetica,sans-Serif" font-size="10.00">do_bang</text>
</a>
</g>
<!-- Node2&#45;&gt;Node3 -->
<g id="edge4" class="edge"><title>Node2&#45;&gt;Node3</title>
<path fill="none" stroke="midnightblue" d="M247.674,-252C271.707,-252 300.548,-252 321.127,-252"/>
<polygon fill="midnightblue" stroke="midnightblue" points="247.363,-248.5 237.363,-252 247.363,-255.5 247.363,-248.5"/>
</g>
<!-- Node6 -->
<g id="node11" class="node"><title>Node6</title>
<a xlink:href="banger__core__8_8cpp.html#a4fe16ad483c0c1609d97aeb9a23c74ee" target="_top" xlink:title="do_logical_fenetre\l_banger">
<polygon fill="white" stroke="black" points="300.5,-118 300.5,-158 395.5,-158 395.5,-118 300.5,-118"/>
<text text-anchor="start" x="308.5" y="-145" font-family="Helvetica,sans-Serif" font-size="10.00">do_logical_fenetre</text>
<text text-anchor="middle" x="348" y="-129" font-family="Helvetica,sans-Serif" font-size="10.00">_banger</text>
</a>
</g>
<!-- Node2&#45;&gt;Node6 -->
<g id="edge10" class="edge"><title>Node2&#45;&gt;Node6</title>
<path fill="none" stroke="midnightblue" d="M226.445,-233.568C252.738,-212.896 295.244,-179.477 322.39,-158.135"/>
<polygon fill="midnightblue" stroke="midnightblue" points="224.216,-230.868 218.518,-239.8 228.542,-236.371 224.216,-230.868"/>
</g>
<!-- Node8 -->
<g id="node16" class="node"><title>Node8</title>
<a xlink:href="banger__core__8_8cpp.html#ab405ab53ea444b049e5ffa258498fcb6" target="_top" xlink:title="refresh_banger_wx">
<polygon fill="white" stroke="black" points="298.5,-198 298.5,-222 397.5,-222 397.5,-198 298.5,-198"/>
<text text-anchor="middle" x="348" y="-209" font-family="Helvetica,sans-Serif" font-size="10.00">refresh_banger_wx</text>
</a>
</g>
<!-- Node2&#45;&gt;Node8 -->
<g id="edge16" class="edge"><title>Node2&#45;&gt;Node8</title>
<path fill="none" stroke="midnightblue" d="M247.183,-239.202C266.008,-233.749 287.855,-227.421 306.39,-222.053"/>
<polygon fill="midnightblue" stroke="midnightblue" points="245.994,-235.903 237.363,-242.047 247.942,-242.626 245.994,-235.903"/>
</g>
<!-- Node2&#45;&gt;Node14 -->
<g id="edge86" class="edge"><title>Node2&#45;&gt;Node14</title>
<path fill="none" stroke="midnightblue" d="M240.793,-268.048C286.397,-287.296 365.492,-320.304 434,-347 441.665,-349.987 449.95,-353.103 457.767,-355.992"/>
<polygon fill="midnightblue" stroke="midnightblue" points="241.887,-264.711 231.313,-264.042 239.162,-271.158 241.887,-264.711"/>
</g>
<!-- Node4 -->
<g id="node7" class="node"><title>Node4</title>
<a xlink:href="_m_a_i_n__avec__objets_8cpp.html#a8e80f54ac804eddce8ed6e45adb1db44" target="_top" xlink:title="ticker_full_loop">
<polygon fill="white" stroke="black" points="756,-241 756,-265 838,-265 838,-241 756,-241"/>
<text text-anchor="middle" x="797" y="-252" font-family="Helvetica,sans-Serif" font-size="10.00">ticker_full_loop</text>
</a>
</g>
<!-- Node3&#45;&gt;Node4 -->
<g id="edge6" class="edge"><title>Node3&#45;&gt;Node4</title>
<path fill="none" stroke="midnightblue" d="M384.618,-259.823C399.818,-262.695 417.683,-265.588 434,-267 560.638,-277.961 593.403,-278.415 720,-267 731.638,-265.951 744.146,-264.026 755.627,-261.933"/>
<polygon fill="midnightblue" stroke="midnightblue" points="385.06,-256.343 374.574,-257.857 383.715,-263.213 385.06,-256.343"/>
</g>
<!-- Node5 -->
<g id="node9" class="node"><title>Node5</title>
<a xlink:href="_m_a_i_n__avec__objets_8cpp.html#ae66f6b31b5ad750f1fe042a706a4e3d4" target="_top" xlink:title="main">
<polygon fill="white" stroke="black" points="2058,-338 2058,-362 2096,-362 2096,-338 2058,-338"/>
<text text-anchor="middle" x="2077" y="-349" font-family="Helvetica,sans-Serif" font-size="10.00">main</text>
</a>
</g>
<!-- Node4&#45;&gt;Node5 -->
<g id="edge8" class="edge"><title>Node4&#45;&gt;Node5</title>
<path fill="none" stroke="midnightblue" d="M848.387,-253C905.092,-253 999.057,-253 1080,-253 1080,-253 1080,-253 1838,-253 1921.78,-253 1948.75,-253.331 2022,-294 2041.54,-304.848 2058.62,-324.779 2068.37,-337.704"/>
<polygon fill="midnightblue" stroke="midnightblue" points="848.244,-249.5 838.244,-253 848.244,-256.5 848.244,-249.5"/>
</g>
<!-- Node7 -->
<g id="node13" class="node"><title>Node7</title>
<a xlink:href="procs__visuels__rebuild1_8cpp.html#ae710b6e599e321ad5934a90140067054" target="_top" xlink:title="check_graphics_mouse\l_handling">
<polygon fill="white" stroke="black" points="592.5,-86 592.5,-126 711.5,-126 711.5,-86 592.5,-86"/>
<text text-anchor="start" x="600.5" y="-113" font-family="Helvetica,sans-Serif" font-size="10.00">check_graphics_mouse</text>
<text text-anchor="middle" x="652" y="-97" font-family="Helvetica,sans-Serif" font-size="10.00">_handling</text>
</a>
</g>
<!-- Node6&#45;&gt;Node7 -->
<g id="edge12" class="edge"><title>Node6&#45;&gt;Node7</title>
<path fill="none" stroke="midnightblue" d="M405.779,-128.755C415.198,-127.395 424.86,-126.088 434,-125 487.38,-118.646 548.352,-113.511 592.216,-110.189"/>
<polygon fill="midnightblue" stroke="midnightblue" points="405.073,-125.321 395.691,-130.243 406.095,-132.246 405.073,-125.321"/>
</g>
<!-- Node7&#45;&gt;Node4 -->
<g id="edge14" class="edge"><title>Node7&#45;&gt;Node4</title>
<path fill="none" stroke="midnightblue" d="M679.085,-133.458C710.792,-165.603 761.901,-217.417 784.992,-240.827"/>
<polygon fill="midnightblue" stroke="midnightblue" points="681.372,-130.793 671.858,-126.131 676.388,-135.709 681.372,-130.793"/>
</g>
<!-- Node8&#45;&gt;Node9 -->
<g id="edge18" class="edge"><title>Node8&#45;&gt;Node9</title>
<path fill="none" stroke="midnightblue" d="M390.893,-226.633C393.353,-228.009 395.742,-229.465 398,-231 400.362,-232.605 454.704,-288.557 479.206,-313.828"/>
<polygon fill="midnightblue" stroke="midnightblue" points="392.278,-223.411 381.777,-222.004 389.109,-229.652 392.278,-223.411"/>
</g>
<!-- Node11 -->
<g id="node23" class="node"><title>Node11</title>
<a xlink:href="keyboard__functions2_8cpp.html#af3dd6697323b10b480719c1612bcf29a" target="_top" xlink:title="key_backward">
<polygon fill="white" stroke="black" points="451,-192 451,-216 531,-216 531,-192 451,-192"/>
<text text-anchor="middle" x="491" y="-203" font-family="Helvetica,sans-Serif" font-size="10.00">key_backward</text>
</a>
</g>
<!-- Node8&#45;&gt;Node11 -->
<g id="edge24" class="edge"><title>Node8&#45;&gt;Node11</title>
<path fill="none" stroke="midnightblue" d="M408.007,-207.482C422.486,-206.875 437.612,-206.24 450.923,-205.682"/>
<polygon fill="midnightblue" stroke="midnightblue" points="407.458,-204.002 397.613,-207.918 407.751,-210.996 407.458,-204.002"/>
</g>
<!-- Node13 -->
<g id="node28" class="node"><title>Node13</title>
<a xlink:href="keyboard__functions2_8cpp.html#a6b73a3669797504ce2e357d9a8b9a2c2" target="_top" xlink:title="key_forward">
<polygon fill="white" stroke="black" points="456,-234 456,-258 526,-258 526,-234 456,-234"/>
<text text-anchor="middle" x="491" y="-245" font-family="Helvetica,sans-Serif" font-size="10.00">key_forward</text>
</a>
</g>
<!-- Node8&#45;&gt;Node13 -->
<g id="edge30" class="edge"><title>Node8&#45;&gt;Node13</title>
<path fill="none" stroke="midnightblue" d="M405.863,-224.567C422.851,-228.844 440.906,-233.389 455.997,-237.188"/>
<polygon fill="midnightblue" stroke="midnightblue" points="406.567,-221.135 396.015,-222.088 404.858,-227.923 406.567,-221.135"/>
</g>
<!-- Node8&#45;&gt;Node14 -->
<g id="edge34" class="edge"><title>Node8&#45;&gt;Node14</title>
<path fill="none" stroke="midnightblue" d="M395.18,-228.19C396.167,-229.084 397.11,-230.02 398,-231 434.281,-270.971 396.836,-307.849 434,-347 440.171,-353.501 448.529,-358.001 456.94,-361.111"/>
<polygon fill="midnightblue" stroke="midnightblue" points="397.02,-225.2 386.877,-222.138 392.896,-230.857 397.02,-225.2"/>
</g>
<!-- Node32 -->
<g id="node73" class="node"><title>Node32</title>
<a xlink:href="sequentiel__6__core_8cpp.html#a2a71c851cf25565491dd10423bc80380" target="_top" xlink:title="do_logical_Sequenciel\l_Window">
<polygon fill="white" stroke="black" points="434.5,-134 434.5,-174 547.5,-174 547.5,-134 434.5,-134"/>
<text text-anchor="start" x="442.5" y="-161" font-family="Helvetica,sans-Serif" font-size="10.00">do_logical_Sequenciel</text>
<text text-anchor="middle" x="491" y="-145" font-family="Helvetica,sans-Serif" font-size="10.00">_Window</text>
</a>
</g>
<!-- Node8&#45;&gt;Node32 -->
<g id="edge82" class="edge"><title>Node8&#45;&gt;Node32</title>
<path fill="none" stroke="midnightblue" d="M388.272,-194.229C404.282,-187.959 422.893,-180.671 439.84,-174.035"/>
<polygon fill="midnightblue" stroke="midnightblue" points="386.712,-191.081 378.677,-197.987 389.265,-197.599 386.712,-191.081"/>
</g>
<!-- Node10 -->
<g id="node20" class="node"><title>Node10</title>
<a xlink:href="i_cat14_8cpp.html#aa9772b548765a631d4bae1c14053b4e1" target="_top" xlink:title="DoJobFantastickTouch">
<polygon fill="white" stroke="black" points="593.5,-314 593.5,-338 710.5,-338 710.5,-314 593.5,-314"/>
<text text-anchor="middle" x="652" y="-325" font-family="Helvetica,sans-Serif" font-size="10.00">DoJobFantastickTouch</text>
</a>
</g>
<!-- Node9&#45;&gt;Node10 -->
<g id="edge20" class="edge"><title>Node9&#45;&gt;Node10</title>
<path fill="none" stroke="midnightblue" d="M539.039,-326C556.111,-326 575.521,-326 593.378,-326"/>
<polygon fill="midnightblue" stroke="midnightblue" points="538.747,-322.5 528.747,-326 538.747,-329.5 538.747,-322.5"/>
</g>
<!-- Node10&#45;&gt;Node4 -->
<g id="edge22" class="edge"><title>Node10&#45;&gt;Node4</title>
<path fill="none" stroke="midnightblue" d="M696.613,-310.285C704.513,-307.124 712.58,-303.645 720,-300 741.086,-289.642 763.897,-275.286 779.173,-265.173"/>
<polygon fill="midnightblue" stroke="midnightblue" points="695.171,-307.091 687.116,-313.972 697.705,-313.616 695.171,-307.091"/>
</g>
<!-- Node12 -->
<g id="node25" class="node"><title>Node12</title>
<a xlink:href="keyboard__routines2_8cpp.html#a8563320b8eab661232619224650de244" target="_top" xlink:title="commandes_clavier">
<polygon fill="white" stroke="black" points="600,-234 600,-258 704,-258 704,-234 600,-234"/>
<text text-anchor="middle" x="652" y="-245" font-family="Helvetica,sans-Serif" font-size="10.00">commandes_clavier</text>
</a>
</g>
<!-- Node11&#45;&gt;Node12 -->
<g id="edge26" class="edge"><title>Node11&#45;&gt;Node12</title>
<path fill="none" stroke="midnightblue" d="M541.07,-217.062C561.725,-222.45 585.514,-228.656 605.752,-233.935"/>
<polygon fill="midnightblue" stroke="midnightblue" points="541.771,-213.628 531.212,-214.49 540.004,-220.401 541.771,-213.628"/>
</g>
<!-- Node12&#45;&gt;Node4 -->
<g id="edge28" class="edge"><title>Node12&#45;&gt;Node4</title>
<path fill="none" stroke="midnightblue" d="M714.386,-249.012C728.335,-249.685 742.795,-250.383 755.643,-251.003"/>
<polygon fill="midnightblue" stroke="midnightblue" points="714.505,-245.514 704.348,-248.527 714.168,-252.505 714.505,-245.514"/>
</g>
<!-- Node13&#45;&gt;Node12 -->
<g id="edge32" class="edge"><title>Node13&#45;&gt;Node12</title>
<path fill="none" stroke="midnightblue" d="M536.598,-246C556.329,-246 579.53,-246 599.934,-246"/>
<polygon fill="midnightblue" stroke="midnightblue" points="536.332,-242.5 526.332,-246 536.332,-249.5 536.332,-242.5"/>
</g>
<!-- Node15 -->
<g id="node33" class="node"><title>Node15</title>
<a xlink:href="midi__13_8cpp.html#a6bedf9750195224914cd87c4e73ab626" target="_top" xlink:title="ventilate_midi_to_midiarray">
<polygon fill="white" stroke="black" points="584.5,-356 584.5,-380 719.5,-380 719.5,-356 584.5,-356"/>
<text text-anchor="middle" x="652" y="-367" font-family="Helvetica,sans-Serif" font-size="10.00">ventilate_midi_to_midiarray</text>
</a>
</g>
<!-- Node14&#45;&gt;Node15 -->
<g id="edge36" class="edge"><title>Node14&#45;&gt;Node15</title>
<path fill="none" stroke="midnightblue" d="M535.272,-368C550.455,-368 567.811,-368 584.414,-368"/>
<polygon fill="midnightblue" stroke="midnightblue" points="535.144,-364.5 525.144,-368 535.144,-371.5 535.144,-364.5"/>
</g>
<!-- Node16 -->
<g id="node35" class="node"><title>Node16</title>
<a xlink:href="midi__13_8cpp.html#afa49dd5668303c2448676c8243737c2d" target="_top" xlink:title="simulate_midi">
<polygon fill="white" stroke="black" points="758.5,-356 758.5,-380 835.5,-380 835.5,-356 758.5,-356"/>
<text text-anchor="middle" x="797" y="-367" font-family="Helvetica,sans-Serif" font-size="10.00">simulate_midi</text>
</a>
</g>
<!-- Node15&#45;&gt;Node16 -->
<g id="edge38" class="edge"><title>Node15&#45;&gt;Node16</title>
<path fill="none" stroke="midnightblue" d="M730.103,-368C739.941,-368 749.642,-368 758.473,-368"/>
<polygon fill="midnightblue" stroke="midnightblue" points="729.83,-364.5 719.83,-368 729.83,-371.5 729.83,-364.5"/>
</g>
<!-- Node20 -->
<g id="node45" class="node"><title>Node20</title>
<a xlink:href="midi__13_8cpp.html#a4104c2ae7e71376ad9dc78929450dc51" target="_top" xlink:title="EvAquire">
<polygon fill="white" stroke="black" points="769,-300 769,-324 825,-324 825,-300 769,-300"/>
<text text-anchor="middle" x="797" y="-311" font-family="Helvetica,sans-Serif" font-size="10.00">EvAquire</text>
</a>
</g>
<!-- Node15&#45;&gt;Node20 -->
<g id="edge50" class="edge"><title>Node15&#45;&gt;Node20</title>
<path fill="none" stroke="midnightblue" d="M703.843,-352.743C709.331,-350.904 714.802,-348.975 720,-347 737.845,-340.22 757.422,-331.301 772.371,-324.163"/>
<polygon fill="midnightblue" stroke="midnightblue" points="702.427,-349.523 694.001,-355.946 704.593,-356.179 702.427,-349.523"/>
</g>
<!-- Node17 -->
<g id="node37" class="node"><title>Node17</title>
<a xlink:href="arduino__core__6___u_n_o_8cpp.html#ae72d1a8d74d9ab5515962e03e7e664d6" target="_top" xlink:title="arduino_do_analog_in\l_whitecat">
<polygon fill="white" stroke="black" points="874,-393 874,-433 984,-433 984,-393 874,-393"/>
<text text-anchor="start" x="882" y="-420" font-family="Helvetica,sans-Serif" font-size="10.00">arduino_do_analog_in</text>
<text text-anchor="middle" x="929" y="-404" font-family="Helvetica,sans-Serif" font-size="10.00">_whitecat</text>
</a>
</g>
<!-- Node16&#45;&gt;Node17 -->
<g id="edge40" class="edge"><title>Node16&#45;&gt;Node17</title>
<path fill="none" stroke="midnightblue" d="M841.947,-383.323C852.214,-386.823 863.24,-390.582 873.879,-394.209"/>
<polygon fill="midnightblue" stroke="midnightblue" points="842.968,-379.973 832.374,-380.059 840.709,-386.599 842.968,-379.973"/>
</g>
<!-- Node19 -->
<g id="node42" class="node"><title>Node19</title>
<a xlink:href="arduino__core__6___u_n_o_8cpp.html#a219226c1cd6cc17c78e62fd4445bb445" target="_top" xlink:title="arduino_do_digital\l_in_whitecat">
<polygon fill="white" stroke="black" points="881.5,-335 881.5,-375 976.5,-375 976.5,-335 881.5,-335"/>
<text text-anchor="start" x="889.5" y="-362" font-family="Helvetica,sans-Serif" font-size="10.00">arduino_do_digital</text>
<text text-anchor="middle" x="929" y="-346" font-family="Helvetica,sans-Serif" font-size="10.00">_in_whitecat</text>
</a>
</g>
<!-- Node16&#45;&gt;Node19 -->
<g id="edge46" class="edge"><title>Node16&#45;&gt;Node19</title>
<path fill="none" stroke="midnightblue" d="M845.541,-363.219C857.203,-362.071 869.648,-360.845 881.272,-359.7"/>
<polygon fill="midnightblue" stroke="midnightblue" points="845.143,-359.742 835.535,-364.205 845.83,-366.708 845.143,-359.742"/>
</g>
<!-- Node18 -->
<g id="node39" class="node"><title>Node18</title>
<a xlink:href="_m_a_i_n__avec__objets_8cpp.html#ace9c8a9b37c6087c3cffef442d71d70e" target="_top" xlink:title="dixiemes_de_secondes">
<polygon fill="white" stroke="black" points="1020.5,-381 1020.5,-405 1139.5,-405 1139.5,-381 1020.5,-381"/>
<text text-anchor="middle" x="1080" y="-392" font-family="Helvetica,sans-Serif" font-size="10.00">dixiemes_de_secondes</text>
</a>
</g>
<!-- Node17&#45;&gt;Node18 -->
<g id="edge42" class="edge"><title>Node17&#45;&gt;Node18</title>
<path fill="none" stroke="midnightblue" d="M994.379,-404.341C1003,-403.199 1011.8,-402.033 1020.32,-400.905"/>
<polygon fill="midnightblue" stroke="midnightblue" points="993.823,-400.883 984.369,-405.666 994.742,-407.823 993.823,-400.883"/>
</g>
<!-- Node18&#45;&gt;Node5 -->
<g id="edge44" class="edge"><title>Node18&#45;&gt;Node5</title>
<path fill="none" stroke="midnightblue" d="M1149.83,-393C1202.62,-393 1276.86,-393 1342,-393 1342,-393 1342,-393 1838,-393 1920.36,-393 1942.04,-390.727 2022,-371 2034.21,-367.989 2047.38,-363.023 2057.77,-358.677"/>
<polygon fill="midnightblue" stroke="midnightblue" points="1149.57,-389.5 1139.57,-393 1149.57,-396.5 1149.57,-389.5"/>
</g>
<!-- Node19&#45;&gt;Node18 -->
<g id="edge48" class="edge"><title>Node19&#45;&gt;Node18</title>
<path fill="none" stroke="midnightblue" d="M986.527,-369.477C1001.63,-373.277 1017.75,-377.334 1032.27,-380.99"/>
<polygon fill="midnightblue" stroke="midnightblue" points="987.329,-366.07 976.777,-367.023 985.621,-372.858 987.329,-366.07"/>
</g>
<!-- Node21 -->
<g id="node47" class="node"><title>Node21</title>
<a xlink:href="midi__13_8cpp.html#a831f1dfc7870ae4f6c64a0e65fbaf3ff" target="_top" xlink:title="Display">
<polygon fill="white" stroke="black" points="904,-293 904,-317 954,-317 954,-293 904,-293"/>
<text text-anchor="middle" x="929" y="-304" font-family="Helvetica,sans-Serif" font-size="10.00">Display</text>
</a>
</g>
<!-- Node20&#45;&gt;Node21 -->
<g id="edge52" class="edge"><title>Node20&#45;&gt;Node21</title>
<path fill="none" stroke="midnightblue" d="M835.366,-309.965C857.419,-308.796 884.496,-307.36 903.849,-306.334"/>
<polygon fill="midnightblue" stroke="midnightblue" points="835.118,-306.474 825.317,-310.498 835.489,-313.464 835.118,-306.474"/>
</g>
<!-- Node22 -->
<g id="node49" class="node"><title>Node22</title>
<a xlink:href="midi__13_8cpp.html#aa4aeee5088a4a5462566dfee5c9cc71f" target="_top" xlink:title="DisplayTask">
<polygon fill="white" stroke="black" points="1044.5,-323 1044.5,-347 1115.5,-347 1115.5,-323 1044.5,-323"/>
<text text-anchor="middle" x="1080" y="-334" font-family="Helvetica,sans-Serif" font-size="10.00">DisplayTask</text>
</a>
</g>
<!-- Node21&#45;&gt;Node22 -->
<g id="edge54" class="edge"><title>Node21&#45;&gt;Node22</title>
<path fill="none" stroke="midnightblue" d="M964.099,-311.973C988.248,-316.771 1020.21,-323.122 1044.46,-327.938"/>
<polygon fill="midnightblue" stroke="midnightblue" points="964.764,-308.537 954.274,-310.021 963.4,-315.403 964.764,-308.537"/>
</g>
<!-- Node24 -->
<g id="node54" class="node"><title>Node24</title>
<a xlink:href="midi___c_o_r_e_8cpp.html#a6fcb4c2efe85f50488d7aeeef1fc0a3e" target="_top" xlink:title="ReceiveEvents">
<polygon fill="white" stroke="black" points="1038.5,-281 1038.5,-305 1121.5,-305 1121.5,-281 1038.5,-281"/>
<text text-anchor="middle" x="1080" y="-292" font-family="Helvetica,sans-Serif" font-size="10.00">ReceiveEvents</text>
</a>
</g>
<!-- Node21&#45;&gt;Node24 -->
<g id="edge60" class="edge"><title>Node21&#45;&gt;Node24</title>
<path fill="none" stroke="midnightblue" d="M964.261,-302.198C986.416,-300.437 1015.1,-298.157 1038.37,-296.308"/>
<polygon fill="midnightblue" stroke="midnightblue" points="963.965,-298.71 954.274,-302.991 964.52,-305.688 963.965,-298.71"/>
</g>
<!-- Node23 -->
<g id="node51" class="node"><title>Node23</title>
<a xlink:href="midi___c_o_r_e_8cpp.html#a7d0f82d882071792d6a2df51ef13ec55" target="_top" xlink:title="ReceivePolling">
<polygon fill="white" stroke="black" points="1176,-323 1176,-347 1258,-347 1258,-323 1176,-323"/>
<text text-anchor="middle" x="1217" y="-334" font-family="Helvetica,sans-Serif" font-size="10.00">ReceivePolling</text>
</a>
</g>
<!-- Node22&#45;&gt;Node23 -->
<g id="edge56" class="edge"><title>Node22&#45;&gt;Node23</title>
<path fill="none" stroke="midnightblue" d="M1125.91,-335C1142.02,-335 1160.01,-335 1175.72,-335"/>
<polygon fill="midnightblue" stroke="midnightblue" points="1125.64,-331.5 1115.64,-335 1125.64,-338.5 1125.64,-331.5"/>
</g>
<!-- Node23&#45;&gt;Node23 -->
<g id="edge58" class="edge"><title>Node23&#45;&gt;Node23</title>
<path fill="none" stroke="midnightblue" d="M1194.51,-357.001C1196.81,-361.647 1204.31,-365 1217,-365 1237.83,-365 1244.66,-355.972 1237.5,-347.014"/>
<polygon fill="midnightblue" stroke="midnightblue" points="1197.98,-357.504 1196.5,-347.014 1191.12,-356.14 1197.98,-357.504"/>
</g>
<!-- Node24&#45;&gt;Node23 -->
<g id="edge62" class="edge"><title>Node24&#45;&gt;Node23</title>
<path fill="none" stroke="midnightblue" d="M1128.99,-308.018C1144.99,-312.924 1162.54,-318.305 1177.74,-322.963"/>
<polygon fill="midnightblue" stroke="midnightblue" points="1129.85,-304.62 1119.26,-305.036 1127.79,-311.313 1129.85,-304.62"/>
</g>
<!-- Node25 -->
<g id="node57" class="node"><title>Node25</title>
<a xlink:href="midi___c_o_r_e_8cpp.html#a0ccf480a33424e626f88d109d53d8366" target="_top" xlink:title="InitMidi">
<polygon fill="white" stroke="black" points="1193,-281 1193,-305 1241,-305 1241,-281 1193,-281"/>
<text text-anchor="middle" x="1217" y="-292" font-family="Helvetica,sans-Serif" font-size="10.00">InitMidi</text>
</a>
</g>
<!-- Node24&#45;&gt;Node25 -->
<g id="edge64" class="edge"><title>Node24&#45;&gt;Node25</title>
<path fill="none" stroke="midnightblue" d="M1131.93,-293C1152.89,-293 1176.06,-293 1192.92,-293"/>
<polygon fill="midnightblue" stroke="midnightblue" points="1131.85,-289.5 1121.85,-293 1131.85,-296.5 1131.85,-289.5"/>
</g>
<!-- Node25&#45;&gt;Node5 -->
<g id="edge66" class="edge"><title>Node25&#45;&gt;Node5</title>
<path fill="none" stroke="midnightblue" d="M1251.45,-293.448C1299.82,-294.038 1390.62,-295 1468,-295 1468,-295 1468,-295 1838,-295 1921.16,-295 1941.93,-306.519 2022,-329 2034.2,-332.426 2047.49,-337.46 2057.94,-341.741"/>
<polygon fill="midnightblue" stroke="midnightblue" points="1251.27,-289.946 1241.23,-293.321 1251.19,-296.945 1251.27,-289.946"/>
</g>
<!-- Node26 -->
<g id="node60" class="node"><title>Node26</title>
<a xlink:href="midi__13_8cpp.html#ac7a306aa81e374b447e7341d4d3a3eea" target="_top" xlink:title="midipage_devices">
<polygon fill="white" stroke="black" points="1294.5,-328 1294.5,-352 1389.5,-352 1389.5,-328 1294.5,-328"/>
<text text-anchor="middle" x="1342" y="-339" font-family="Helvetica,sans-Serif" font-size="10.00">midipage_devices</text>
</a>
</g>
<!-- Node25&#45;&gt;Node26 -->
<g id="edge68" class="edge"><title>Node25&#45;&gt;Node26</title>
<path fill="none" stroke="midnightblue" d="M1250.57,-305.622C1269,-312.553 1291.74,-321.103 1309.93,-327.942"/>
<polygon fill="midnightblue" stroke="midnightblue" points="1251.69,-302.306 1241.1,-302.062 1249.23,-308.858 1251.69,-302.306"/>
</g>
<!-- Node27 -->
<g id="node62" class="node"><title>Node27</title>
<a xlink:href="midi__13_8cpp.html#a8f70acacad6eaba8867bdd80dda5e277" target="_top" xlink:title="do_midi_config">
<polygon fill="white" stroke="black" points="1427,-333 1427,-357 1509,-357 1509,-333 1427,-333"/>
<text text-anchor="middle" x="1468" y="-344" font-family="Helvetica,sans-Serif" font-size="10.00">do_midi_config</text>
</a>
</g>
<!-- Node26&#45;&gt;Node27 -->
<g id="edge70" class="edge"><title>Node26&#45;&gt;Node27</title>
<path fill="none" stroke="midnightblue" d="M1399.84,-342.295C1408.97,-342.658 1418.25,-343.026 1426.9,-343.369"/>
<polygon fill="midnightblue" stroke="midnightblue" points="1399.77,-338.79 1389.64,-341.89 1399.49,-345.784 1399.77,-338.79"/>
</g>
<!-- Node28 -->
<g id="node64" class="node"><title>Node28</title>
<a xlink:href="_c_f_g__config__panel__8_8cpp.html#ad39c46e2fb3a3ba7ea0460140ead4f96" target="_top" xlink:title="do_panel_config">
<polygon fill="white" stroke="black" points="1546.5,-338 1546.5,-362 1633.5,-362 1633.5,-338 1546.5,-338"/>
<text text-anchor="middle" x="1590" y="-349" font-family="Helvetica,sans-Serif" font-size="10.00">do_panel_config</text>
</a>
</g>
<!-- Node27&#45;&gt;Node28 -->
<g id="edge72" class="edge"><title>Node27&#45;&gt;Node28</title>
<path fill="none" stroke="midnightblue" d="M1519.55,-347.113C1528.43,-347.477 1537.59,-347.852 1546.24,-348.206"/>
<polygon fill="midnightblue" stroke="midnightblue" points="1519.44,-343.605 1509.3,-346.693 1519.15,-350.599 1519.44,-343.605"/>
</g>
<!-- Node29 -->
<g id="node66" class="node"><title>Node29</title>
<a xlink:href="_c_f_g__config__panel__8_8cpp.html#a7968da66bccdba8b864caf6c8435f68e" target="_top" xlink:title="config_general_menu">
<polygon fill="white" stroke="black" points="1670.5,-338 1670.5,-362 1779.5,-362 1779.5,-338 1670.5,-338"/>
<text text-anchor="middle" x="1725" y="-349" font-family="Helvetica,sans-Serif" font-size="10.00">config_general_menu</text>
</a>
</g>
<!-- Node28&#45;&gt;Node29 -->
<g id="edge74" class="edge"><title>Node28&#45;&gt;Node29</title>
<path fill="none" stroke="midnightblue" d="M1644.07,-350C1652.62,-350 1661.47,-350 1670.04,-350"/>
<polygon fill="midnightblue" stroke="midnightblue" points="1643.83,-346.5 1633.83,-350 1643.83,-353.5 1643.83,-346.5"/>
</g>
<!-- Node30 -->
<g id="node68" class="node"><title>Node30</title>
<a xlink:href="graphics__rebuild1_8cpp.html#ac2eae1e03fb72cc734ffbcef566483bf" target="_top" xlink:title="Boxes">
<polygon fill="white" stroke="black" points="1816,-338 1816,-362 1860,-362 1860,-338 1816,-338"/>
<text text-anchor="middle" x="1838" y="-349" font-family="Helvetica,sans-Serif" font-size="10.00">Boxes</text>
</a>
</g>
<!-- Node29&#45;&gt;Node30 -->
<g id="edge76" class="edge"><title>Node29&#45;&gt;Node30</title>
<path fill="none" stroke="midnightblue" d="M1789.75,-350C1799.11,-350 1808.17,-350 1815.86,-350"/>
<polygon fill="midnightblue" stroke="midnightblue" points="1789.51,-346.5 1779.51,-350 1789.51,-353.5 1789.51,-346.5"/>
</g>
<!-- Node31 -->
<g id="node70" class="node"><title>Node31</title>
<a xlink:href="_m_a_i_n__avec__objets_8cpp.html#ade8d4ba65d55c94f8ee277829d722155" target="_top" xlink:title="main_actions_on_screen">
<polygon fill="white" stroke="black" points="1896.5,-338 1896.5,-362 2021.5,-362 2021.5,-338 1896.5,-338"/>
<text text-anchor="middle" x="1959" y="-349" font-family="Helvetica,sans-Serif" font-size="10.00">main_actions_on_screen</text>
</a>
</g>
<!-- Node30&#45;&gt;Node31 -->
<g id="edge78" class="edge"><title>Node30&#45;&gt;Node31</title>
<path fill="none" stroke="midnightblue" d="M1870.24,-350C1878.32,-350 1887.26,-350 1896.27,-350"/>
<polygon fill="midnightblue" stroke="midnightblue" points="1870.19,-346.5 1860.19,-350 1870.19,-353.5 1870.19,-346.5"/>
</g>
<!-- Node31&#45;&gt;Node5 -->
<g id="edge80" class="edge"><title>Node31&#45;&gt;Node5</title>
<path fill="none" stroke="midnightblue" d="M2031.84,-350C2041.34,-350 2050.33,-350 2057.75,-350"/>
<polygon fill="midnightblue" stroke="midnightblue" points="2031.8,-346.5 2021.8,-350 2031.8,-353.5 2031.8,-346.5"/>
</g>
<!-- Node32&#45;&gt;Node7 -->
<g id="edge84" class="edge"><title>Node32&#45;&gt;Node7</title>
<path fill="none" stroke="midnightblue" d="M557.408,-134.201C569.03,-130.736 581.057,-127.151 592.478,-123.746"/>
<polygon fill="midnightblue" stroke="midnightblue" points="556.346,-130.866 547.763,-137.077 558.346,-137.574 556.346,-130.866"/>
</g>
<!-- Node33&#45;&gt;Node7 -->
<g id="edge90" class="edge"><title>Node33&#45;&gt;Node7</title>
<path fill="none" stroke="midnightblue" d="M405.805,-25.2589C446.343,-30.0435 501.4,-38.7629 548,-54 572.368,-61.9676 598.153,-74.8276 617.953,-85.7648"/>
<polygon fill="midnightblue" stroke="midnightblue" points="406.157,-21.7764 395.826,-24.1256 405.367,-28.7317 406.157,-21.7764"/>
</g>
<!-- Node35 -->
<g id="node82" class="node"><title>Node35</title>
<a xlink:href="_m_a_i_n__avec__objets_8cpp.html#a6a015280c1363331ada8a329be6eb7c8" target="_top" xlink:title="ticker">
<polygon fill="white" stroke="black" points="1321.5,-449 1321.5,-473 1362.5,-473 1362.5,-449 1321.5,-449"/>
<text text-anchor="middle" x="1342" y="-460" font-family="Helvetica,sans-Serif" font-size="10.00">ticker</text>
</a>
</g>
<!-- Node34&#45;&gt;Node35 -->
<g id="edge94" class="edge"><title>Node34&#45;&gt;Node35</title>
<path fill="none" stroke="midnightblue" d="M253.224,-435.123C310.507,-445.771 407.101,-461 491,-461 491,-461 491,-461 1080,-461 1169.84,-461 1277,-461 1321.28,-461"/>
<polygon fill="midnightblue" stroke="midnightblue" points="253.818,-431.674 243.342,-433.259 252.52,-438.552 253.818,-431.674"/>
</g>
<!-- Node35&#45;&gt;Node5 -->
<g id="edge100" class="edge"><title>Node35&#45;&gt;Node5</title>
<path fill="none" stroke="midnightblue" d="M1372.65,-463.438C1419.46,-466.946 1511.62,-473 1590,-473 1590,-473 1590,-473 1838,-473 1924.88,-473 1949.04,-454.163 2022,-407 2040.94,-394.757 2058.19,-374.808 2068.13,-362.05"/>
<polygon fill="midnightblue" stroke="midnightblue" points="1372.8,-459.939 1362.56,-462.669 1372.27,-466.919 1372.8,-459.939"/>
</g>
<!-- Node36 -->
<g id="node84" class="node"><title>Node36</title>
<a xlink:href="_c_f_g__config__panel__8_8cpp.html#aff76db94408106be22f658a05f17831a" target="_top" xlink:title="do_core_config">
<polygon fill="white" stroke="black" points="1426.5,-421 1426.5,-445 1509.5,-445 1509.5,-421 1426.5,-421"/>
<text text-anchor="middle" x="1468" y="-432" font-family="Helvetica,sans-Serif" font-size="10.00">do_core_config</text>
</a>
</g>
<!-- Node35&#45;&gt;Node36 -->
<g id="edge96" class="edge"><title>Node35&#45;&gt;Node36</title>
<path fill="none" stroke="midnightblue" d="M1372.51,-454.22C1388.67,-450.629 1408.75,-446.166 1426.32,-442.261"/>
<polygon fill="midnightblue" stroke="midnightblue" points="1371.53,-450.853 1362.52,-456.439 1373.05,-457.686 1371.53,-450.853"/>
</g>
<!-- Node36&#45;&gt;Node28 -->
<g id="edge98" class="edge"><title>Node36&#45;&gt;Node28</title>
<path fill="none" stroke="midnightblue" d="M1494.21,-415.169C1517.77,-399.143 1551.72,-376.043 1572.24,-362.083"/>
<polygon fill="midnightblue" stroke="midnightblue" points="1492.04,-412.412 1485.74,-420.931 1495.98,-418.2 1492.04,-412.412"/>
</g>
<!-- Node37&#45;&gt;Node7 -->
<g id="edge104" class="edge"><title>Node37&#45;&gt;Node7</title>
<path fill="none" stroke="midnightblue" d="M242.732,-123.552C259.514,-117.792 279.436,-111.942 298,-109 400.436,-92.7655 521.644,-96.6304 592.365,-101.151"/>
<polygon fill="midnightblue" stroke="midnightblue" points="241.506,-120.273 233.248,-126.909 243.842,-126.871 241.506,-120.273"/>
</g>
</g>
</svg>
