<?xml version="1.0" encoding="UTF-8" standalone="no"?>
<!DOCTYPE svg PUBLIC "-//W3C//DTD SVG 1.1//EN"
 "http://www.w3.org/Graphics/SVG/1.1/DTD/svg11.dtd">
<!-- Generated by graphviz version 2.26.3 (20100126.1600)
 -->
<!-- Title: Track_draw_logical Pages: 1 -->
<svg width="420pt" height="270pt"
 viewBox="0.00 0.00 420.00 270.00" xmlns="http://www.w3.org/2000/svg" xmlns:xlink="http://www.w3.org/1999/xlink">
<g id="graph1" class="graph" transform="scale(1 1) rotate(0) translate(4 266)">
<title>Track_draw_logical</title>
<polygon fill="white" stroke="white" points="-4,5 -4,-266 417,-266 417,5 -4,5"/>
<!-- Node1 -->
<g id="node1" class="node"><title>Node1</title>
<polygon fill="#bfbfbf" stroke="black" points="0,-136 0,-160 100,-160 100,-136 0,-136"/>
<text text-anchor="middle" x="50" y="-147" font-family="Helvetica,sans-Serif" font-size="10.00">Track_draw_logical</text>
</g>
<!-- Node2 -->
<g id="node3" class="node"><title>Node2</title>
<a xlink:href="_c_o_r_e__6_8cpp.html#a3680de15f6ccf838397bde99d246125a" target="_top" xlink:title="show_type_midi">
<polygon fill="white" stroke="black" points="155.5,-238 155.5,-262 242.5,-262 242.5,-238 155.5,-238"/>
<text text-anchor="middle" x="199" y="-249" font-family="Helvetica,sans-Serif" font-size="10.00">show_type_midi</text>
</a>
</g>
<!-- Node1&#45;&gt;Node2 -->
<g id="edge2" class="edge"><title>Node1&#45;&gt;Node2</title>
<path fill="none" stroke="midnightblue" d="M59.8589,-160.171C74.6659,-177.711 104.308,-210.063 136,-229 139.155,-230.885 142.5,-232.626 145.941,-234.23"/>
<polygon fill="midnightblue" stroke="midnightblue" points="144.63,-237.476 155.202,-238.16 147.364,-231.032 144.63,-237.476"/>
</g>
<!-- Node3 -->
<g id="node5" class="node"><title>Node3</title>
<a xlink:href="_c_o_r_e__6_8cpp.html#a1dbe2a93b1ce714d4d4bebfddbb276cd" target="_top" xlink:title="attribute_midi_to_control">
<polygon fill="white" stroke="black" points="137.5,-196 137.5,-220 260.5,-220 260.5,-196 137.5,-196"/>
<text text-anchor="middle" x="199" y="-207" font-family="Helvetica,sans-Serif" font-size="10.00">attribute_midi_to_control</text>
</a>
</g>
<!-- Node1&#45;&gt;Node3 -->
<g id="edge4" class="edge"><title>Node1&#45;&gt;Node3</title>
<path fill="none" stroke="midnightblue" d="M80.1524,-160.142C103.049,-169.362 134.732,-182.12 159.628,-192.146"/>
<polygon fill="midnightblue" stroke="midnightblue" points="158.564,-195.49 169.147,-195.979 161.178,-188.997 158.564,-195.49"/>
</g>
<!-- Node5 -->
<g id="node9" class="node"><title>Node5</title>
<a xlink:href="_c_o_r_e__6_8cpp.html#a9574e0b790211959c7398e42468410d8" target="_top" xlink:title="toggle">
<polygon fill="white" stroke="black" points="333.5,-106 333.5,-130 376.5,-130 376.5,-106 333.5,-106"/>
<text text-anchor="middle" x="355" y="-117" font-family="Helvetica,sans-Serif" font-size="10.00">toggle</text>
</a>
</g>
<!-- Node1&#45;&gt;Node5 -->
<g id="edge8" class="edge"><title>Node1&#45;&gt;Node5</title>
<path fill="none" stroke="midnightblue" d="M100.051,-152.86C143.24,-155.955 207.141,-157.902 262,-149 283.262,-145.55 306.231,-137.934 324.023,-131.115"/>
<polygon fill="midnightblue" stroke="midnightblue" points="325.315,-134.368 333.331,-127.44 322.745,-127.857 325.315,-134.368"/>
</g>
<!-- Node6 -->
<g id="node11" class="node"><title>Node6</title>
<a xlink:href="_c_o_r_e__6_8cpp.html#a852678868d2a66db68f4a2c9eacfcc78" target="_top" xlink:title="reset_numeric_entry">
<polygon fill="white" stroke="black" points="146.5,-116 146.5,-140 251.5,-140 251.5,-116 146.5,-116"/>
<text text-anchor="middle" x="199" y="-127" font-family="Helvetica,sans-Serif" font-size="10.00">reset_numeric_entry</text>
</a>
</g>
<!-- Node1&#45;&gt;Node6 -->
<g id="edge10" class="edge"><title>Node1&#45;&gt;Node6</title>
<path fill="none" stroke="midnightblue" d="M100.029,-141.285C111.654,-139.724 124.173,-138.044 136.267,-136.42"/>
<polygon fill="midnightblue" stroke="midnightblue" points="136.852,-139.873 146.298,-135.074 135.921,-132.936 136.852,-139.873"/>
</g>
<!-- Node7 -->
<g id="node13" class="node"><title>Node7</title>
<a xlink:href="gui__boutons__rebuild1_8cpp.html#a968d1aafeff1f4495bd2901ab1c80202" target="_top" xlink:title="raccrochage_midi_logical\l_horizontal_little">
<polygon fill="white" stroke="black" points="136,-58 136,-98 262,-98 262,-58 136,-58"/>
<text text-anchor="start" x="144" y="-85" font-family="Helvetica,sans-Serif" font-size="10.00">raccrochage_midi_logical</text>
<text text-anchor="middle" x="199" y="-69" font-family="Helvetica,sans-Serif" font-size="10.00">_horizontal_little</text>
</a>
</g>
<!-- Node1&#45;&gt;Node7 -->
<g id="edge12" class="edge"><title>Node1&#45;&gt;Node7</title>
<path fill="none" stroke="midnightblue" d="M75.1704,-135.891C92.293,-127.68 115.48,-116.614 136,-107 139.302,-105.453 142.704,-103.866 146.136,-102.271"/>
<polygon fill="midnightblue" stroke="midnightblue" points="147.644,-105.43 155.245,-98.0488 144.701,-99.0788 147.644,-105.43"/>
</g>
<!-- Node8 -->
<g id="node16" class="node"><title>Node8</title>
<a xlink:href="chasers__core__5_8cpp.html#a91fb9c1ef62ff51adbf81dfdc900fb04" target="_top" xlink:title="refresh_launchpad_on\l_chaser">
<polygon fill="white" stroke="black" points="143,-0 143,-40 255,-40 255,-0 143,-0"/>
<text text-anchor="start" x="151" y="-27" font-family="Helvetica,sans-Serif" font-size="10.00">refresh_launchpad_on</text>
<text text-anchor="middle" x="199" y="-11" font-family="Helvetica,sans-Serif" font-size="10.00">_chaser</text>
</a>
</g>
<!-- Node1&#45;&gt;Node8 -->
<g id="edge16" class="edge"><title>Node1&#45;&gt;Node8</title>
<path fill="none" stroke="midnightblue" d="M57.952,-135.868C71.7513,-115.594 101.94,-74.5436 136,-49 137.626,-47.7809 139.31,-46.5966 141.04,-45.4476"/>
<polygon fill="midnightblue" stroke="midnightblue" points="143.267,-48.1899 149.99,-40.0015 139.628,-42.21 143.267,-48.1899"/>
</g>
<!-- Node4 -->
<g id="node7" class="node"><title>Node4</title>
<a xlink:href="_c_o_r_e__6_8cpp.html#aa6f6d52757e4af2364c17c3e9dee8095" target="_top" xlink:title="search_and_desaffect\l_previous_midi_signal">
<polygon fill="white" stroke="black" points="298.5,-188 298.5,-228 411.5,-228 411.5,-188 298.5,-188"/>
<text text-anchor="start" x="306.5" y="-215" font-family="Helvetica,sans-Serif" font-size="10.00">search_and_desaffect</text>
<text text-anchor="middle" x="355" y="-199" font-family="Helvetica,sans-Serif" font-size="10.00">_previous_midi_signal</text>
</a>
</g>
<!-- Node3&#45;&gt;Node4 -->
<g id="edge6" class="edge"><title>Node3&#45;&gt;Node4</title>
<path fill="none" stroke="midnightblue" d="M260.655,-208C269.69,-208 279.03,-208 288.162,-208"/>
<polygon fill="midnightblue" stroke="midnightblue" points="288.356,-211.5 298.356,-208 288.356,-204.5 288.356,-211.5"/>
</g>
<!-- Node7&#45;&gt;Node5 -->
<g id="edge14" class="edge"><title>Node7&#45;&gt;Node5</title>
<path fill="none" stroke="midnightblue" d="M262.002,-94.1542C283.208,-99.5918 305.952,-105.424 323.639,-109.959"/>
<polygon fill="midnightblue" stroke="midnightblue" points="322.863,-113.373 333.419,-112.466 324.602,-106.592 322.863,-113.373"/>
</g>
</g>
</svg>
