<?xml version="1.0" encoding="UTF-8" standalone="no"?>
<!DOCTYPE svg PUBLIC "-//W3C//DTD SVG 1.1//EN"
 "http://www.w3.org/Graphics/SVG/1.1/DTD/svg11.dtd">
<!-- Generated by graphviz version 2.26.3 (20100126.1600)
 -->
<!-- Title: chaser_select_inv_track Pages: 1 -->
<!--zoomable 278 -->
<svg id="main" version="1.1" xmlns="http://www.w3.org/2000/svg" xmlns:xlink="http://www.w3.org/1999/xlink" xml:space="preserve" onload="init(evt)">
<style type="text/css"><![CDATA[
.edge:hover path { stroke: red; }
.edge:hover polygon { stroke: red; fill: red; }
]]></style>
<script type="text/javascript"><![CDATA[
var edges = document.getElementsByTagName('g');
if (edges && edges.length) {
  for (var i=0;i<edges.length;i++) {
    if (edges[i].id.substr(0,4)=='edge') {
      edges[i].setAttribute('class','edge');
    }
  }
}
]]></script>
        <defs>
                <circle id="rim" cx="0" cy="0" r="7"/>
                <circle id="rim2" cx="0" cy="0" r="3.5"/>
                <g id="zoomPlus">
                        <use xlink:href="#rim" fill="#404040">
                                <set attributeName="fill" to="#808080" begin="zoomplus.mouseover" end="zoomplus.mouseout"/>
                        </use>
                        <path d="M-4,0h8M0,-4v8" fill="none" stroke="white" stroke-width="1.5" pointer-events="none"/>
                </g>
                <g id="zoomMin">
                        <use xlink:href="#rim" fill="#404040">
                                <set attributeName="fill" to="#808080" begin="zoomminus.mouseover" end="zoomminus.mouseout"/>
                        </use>
                        <path d="M-4,0h8" fill="none" stroke="white" stroke-width="1.5" pointer-events="none"/>
                </g>
                <g id="dirArrow">
                        <path fill="none" stroke="white" stroke-width="1.5" d="M0,-3.0v7 M-2.5,-0.5L0,-3.0L2.5,-0.5"/>
                </g>
               <g id="resetDef">
                       <use xlink:href="#rim2" fill="#404040">
                               <set attributeName="fill" to="#808080" begin="reset.mouseover" end="reset.mouseout"/>
                       </use>
               </g>
        </defs>

<script type="text/javascript">
var viewWidth = 1214;
var viewHeight = 278;
var sectionId = 'dynsection-14';
</script>
<script xlink:href="svgpan.js"/>
<svg id="graph" class="graph">
<g id="viewport">
<title>chaser_select_inv_track</title>
<polygon fill="white" stroke="white" points="-4,5 -4,-274.381 1211,-274.381 1211,5 -4,5"/>
<!-- Node1 -->
<g id="node1" class="node"><title>Node1</title>
<polygon fill="#bfbfbf" stroke="black" points="0,-116 0,-140 122,-140 122,-116 0,-116"/>
<text text-anchor="middle" x="61" y="-127" font-family="Helvetica,sans-Serif" font-size="10.00">chaser_select_inv_track</text>
</g>
<!-- Node2 -->
<g id="node3" class="node"><title>Node2</title>
<a xlink:href="banger__core__8_8cpp.html#ae4008269e0575da11cc90e812961ef6f" target="_top" xlink:title="Bang_event">
<polygon fill="white" stroke="black" points="172,-116 172,-140 240,-140 240,-116 172,-116"/>
<text text-anchor="middle" x="206" y="-127" font-family="Helvetica,sans-Serif" font-size="10.00">Bang_event</text>
</a>
</g>
<!-- Node1&#45;&gt;Node2 -->
<g id="edge2" class="edge"><title>Node1&#45;&gt;Node2</title>
<path fill="none" stroke="midnightblue" d="M132.12,-128C145.973,-128 159.894,-128 171.858,-128"/>
<polygon fill="midnightblue" stroke="midnightblue" points="132.073,-124.5 122.073,-128 132.073,-131.5 132.073,-124.5"/>
</g>
<!-- Node14 -->
<g id="node31" class="node"><title>Node14</title>
<a xlink:href="midi__13_8cpp.html#a6dff3d42682b58cc0a9875ee30fb4cd4" target="_top" xlink:title="do_midi_job">
<polygon fill="white" stroke="black" points="449,-0 449,-24 517,-24 517,-0 449,-0"/>
<text text-anchor="middle" x="483" y="-11" font-family="Helvetica,sans-Serif" font-size="10.00">do_midi_job</text>
</a>
</g>
<!-- Node1&#45;&gt;Node14 -->
<g id="edge60" class="edge"><title>Node1&#45;&gt;Node14</title>
<path fill="none" stroke="midnightblue" d="M94.8335,-111.714C138.778,-91.2652 218.356,-56.6137 290,-38 344.484,-23.8445 409.737,-17.104 448.703,-14.1211"/>
<polygon fill="midnightblue" stroke="midnightblue" points="93.3197,-108.558 85.7529,-115.974 96.2927,-114.896 93.3197,-108.558"/>
</g>
<!-- Node21 -->
<g id="node49" class="node"><title>Node21</title>
<a xlink:href="chasers__core__5_8cpp.html#a965f16d10083f733b1cfda05f4342212" target="_top" xlink:title="do_logical_fenetre\l_chasers">
<polygon fill="white" stroke="black" points="158.5,-222 158.5,-262 253.5,-262 253.5,-222 158.5,-222"/>
<text text-anchor="start" x="166.5" y="-249" font-family="Helvetica,sans-Serif" font-size="10.00">do_logical_fenetre</text>
<text text-anchor="middle" x="206" y="-233" font-family="Helvetica,sans-Serif" font-size="10.00">_chasers</text>
</a>
</g>
<!-- Node1&#45;&gt;Node21 -->
<g id="edge56" class="edge"><title>Node1&#45;&gt;Node21</title>
<path fill="none" stroke="midnightblue" d="M84.4446,-146.432C110.738,-167.104 153.244,-200.523 180.39,-221.865"/>
<polygon fill="midnightblue" stroke="midnightblue" points="86.5421,-143.629 76.5175,-140.2 82.2156,-149.132 86.5421,-143.629"/>
</g>
<!-- Node3 -->
<g id="node5" class="node"><title>Node3</title>
<a xlink:href="banger__core__8_8cpp.html#a4003a08a1620546de77b118c91d2fd9d" target="_top" xlink:title="do_bang">
<polygon fill="white" stroke="black" points="313.5,-213 313.5,-237 366.5,-237 366.5,-213 313.5,-213"/>
<text text-anchor="middle" x="340" y="-224" font-family="Helvetica,sans-Serif" font-size="10.00">do_bang</text>
</a>
</g>
<!-- Node2&#45;&gt;Node3 -->
<g id="edge4" class="edge"><title>Node2&#45;&gt;Node3</title>
<path fill="none" stroke="midnightblue" d="M230.845,-145.984C257.71,-165.432 299.805,-195.904 323.089,-212.759"/>
<polygon fill="midnightblue" stroke="midnightblue" points="232.853,-143.118 222.7,-140.089 228.748,-148.788 232.853,-143.118"/>
</g>
<!-- Node6 -->
<g id="node11" class="node"><title>Node6</title>
<a xlink:href="banger__core__8_8cpp.html#a4fe16ad483c0c1609d97aeb9a23c74ee" target="_top" xlink:title="do_logical_fenetre\l_banger">
<polygon fill="white" stroke="black" points="292.5,-136 292.5,-176 387.5,-176 387.5,-136 292.5,-136"/>
<text text-anchor="start" x="300.5" y="-163" font-family="Helvetica,sans-Serif" font-size="10.00">do_logical_fenetre</text>
<text text-anchor="middle" x="340" y="-147" font-family="Helvetica,sans-Serif" font-size="10.00">_banger</text>
</a>
</g>
<!-- Node2&#45;&gt;Node6 -->
<g id="edge10" class="edge"><title>Node2&#45;&gt;Node6</title>
<path fill="none" stroke="midnightblue" d="M250.159,-137.227C263.647,-140.046 278.538,-143.157 292.252,-146.023"/>
<polygon fill="midnightblue" stroke="midnightblue" points="250.665,-133.757 240.161,-135.138 249.233,-140.609 250.665,-133.757"/>
</g>
<!-- Node8 -->
<g id="node16" class="node"><title>Node8</title>
<a xlink:href="banger__core__8_8cpp.html#ab405ab53ea444b049e5ffa258498fcb6" target="_top" xlink:title="refresh_banger_wx">
<polygon fill="white" stroke="black" points="290.5,-89 290.5,-113 389.5,-113 389.5,-89 290.5,-89"/>
<text text-anchor="middle" x="340" y="-100" font-family="Helvetica,sans-Serif" font-size="10.00">refresh_banger_wx</text>
</a>
</g>
<!-- Node2&#45;&gt;Node8 -->
<g id="edge16" class="edge"><title>Node2&#45;&gt;Node8</title>
<path fill="none" stroke="midnightblue" d="M250.188,-119.096C263.087,-116.497 277.268,-113.64 290.474,-110.979"/>
<polygon fill="midnightblue" stroke="midnightblue" points="249.272,-115.711 240.161,-121.117 250.655,-122.573 249.272,-115.711"/>
</g>
<!-- Node2&#45;&gt;Node14 -->
<g id="edge54" class="edge"><title>Node2&#45;&gt;Node14</title>
<path fill="none" stroke="midnightblue" d="M233.691,-110.492C249.756,-100.766 270.592,-88.8764 290,-80 343.953,-55.3245 409.646,-33.9053 448.802,-21.9946"/>
<polygon fill="midnightblue" stroke="midnightblue" points="231.523,-107.715 224.831,-115.928 235.184,-113.682 231.523,-107.715"/>
</g>
<!-- Node4 -->
<g id="node7" class="node"><title>Node4</title>
<a xlink:href="_m_a_i_n__avec__objets_8cpp.html#a8e80f54ac804eddce8ed6e45adb1db44" target="_top" xlink:title="ticker_full_loop">
<polygon fill="white" stroke="black" points="748,-126 748,-150 830,-150 830,-126 748,-126"/>
<text text-anchor="middle" x="789" y="-137" font-family="Helvetica,sans-Serif" font-size="10.00">ticker_full_loop</text>
</a>
</g>
<!-- Node3&#45;&gt;Node4 -->
<g id="edge6" class="edge"><title>Node3&#45;&gt;Node4</title>
<path fill="none" stroke="midnightblue" d="M376.224,-237.58C445.65,-259.407 600.449,-296.884 712,-241 750.526,-221.7 774.727,-172.958 784.305,-150.137"/>
<polygon fill="midnightblue" stroke="midnightblue" points="377.207,-234.22 366.615,-234.486 375.061,-240.883 377.207,-234.22"/>
</g>
<!-- Node5 -->
<g id="node9" class="node"><title>Node5</title>
<a xlink:href="_m_a_i_n__avec__objets_8cpp.html#ae66f6b31b5ad750f1fe042a706a4e3d4" target="_top" xlink:title="main">
<polygon fill="white" stroke="black" points="1168,-96 1168,-120 1206,-120 1206,-96 1168,-96"/>
<text text-anchor="middle" x="1187" y="-107" font-family="Helvetica,sans-Serif" font-size="10.00">main</text>
</a>
</g>
<!-- Node4&#45;&gt;Node5 -->
<g id="edge8" class="edge"><title>Node4&#45;&gt;Node5</title>
<path fill="none" stroke="midnightblue" d="M840.235,-134.138C929.305,-127.424 1108.82,-113.893 1167.77,-109.45"/>
<polygon fill="midnightblue" stroke="midnightblue" points="839.803,-130.661 830.094,-134.902 840.329,-137.641 839.803,-130.661"/>
</g>
<!-- Node7 -->
<g id="node13" class="node"><title>Node7</title>
<a xlink:href="procs__visuels__rebuild1_8cpp.html#ae710b6e599e321ad5934a90140067054" target="_top" xlink:title="check_graphics_mouse\l_handling">
<polygon fill="white" stroke="black" points="584.5,-192 584.5,-232 703.5,-232 703.5,-192 584.5,-192"/>
<text text-anchor="start" x="592.5" y="-219" font-family="Helvetica,sans-Serif" font-size="10.00">check_graphics_mouse</text>
<text text-anchor="middle" x="644" y="-203" font-family="Helvetica,sans-Serif" font-size="10.00">_handling</text>
</a>
</g>
<!-- Node6&#45;&gt;Node7 -->
<g id="edge12" class="edge"><title>Node6&#45;&gt;Node7</title>
<path fill="none" stroke="midnightblue" d="M368.291,-182.871C383.983,-195.903 404.613,-210.185 426,-217 477.58,-233.436 539.558,-229.95 584.222,-223.67"/>
<polygon fill="midnightblue" stroke="midnightblue" points="370.421,-180.086 360.558,-176.216 365.855,-185.391 370.421,-180.086"/>
</g>
<!-- Node7&#45;&gt;Node4 -->
<g id="edge14" class="edge"><title>Node7&#45;&gt;Node4</title>
<path fill="none" stroke="midnightblue" d="M692.389,-187.305C716.863,-174.815 745.473,-160.214 765.173,-150.16"/>
<polygon fill="midnightblue" stroke="midnightblue" points="690.555,-184.311 683.239,-191.975 693.737,-190.546 690.555,-184.311"/>
</g>
<!-- Node9 -->
<g id="node18" class="node"><title>Node9</title>
<a xlink:href="i_cat14_8cpp.html#a16285241f82898e7a5f051b03d90b9a3" target="_top" xlink:title="check_button">
<polygon fill="white" stroke="black" points="445.5,-126 445.5,-150 520.5,-150 520.5,-126 445.5,-126"/>
<text text-anchor="middle" x="483" y="-137" font-family="Helvetica,sans-Serif" font-size="10.00">check_button</text>
</a>
</g>
<!-- Node8&#45;&gt;Node9 -->
<g id="edge18" class="edge"><title>Node8&#45;&gt;Node9</title>
<path fill="none" stroke="midnightblue" d="M396.477,-115.613C412.898,-119.862 430.427,-124.397 445.383,-128.267"/>
<polygon fill="midnightblue" stroke="midnightblue" points="396.986,-112.129 386.428,-113.013 395.232,-118.906 396.986,-112.129"/>
</g>
<!-- Node11 -->
<g id="node23" class="node"><title>Node11</title>
<a xlink:href="keyboard__functions2_8cpp.html#af3dd6697323b10b480719c1612bcf29a" target="_top" xlink:title="key_backward">
<polygon fill="white" stroke="black" points="443,-42 443,-66 523,-66 523,-42 443,-42"/>
<text text-anchor="middle" x="483" y="-53" font-family="Helvetica,sans-Serif" font-size="10.00">key_backward</text>
</a>
</g>
<!-- Node8&#45;&gt;Node11 -->
<g id="edge24" class="edge"><title>Node8&#45;&gt;Node11</title>
<path fill="none" stroke="midnightblue" d="M386.392,-85.7524C405.807,-79.371 428.052,-72.0597 446.299,-66.0627"/>
<polygon fill="midnightblue" stroke="midnightblue" points="385.233,-82.4489 376.826,-88.8963 387.419,-89.0989 385.233,-82.4489"/>
</g>
<!-- Node13 -->
<g id="node28" class="node"><title>Node13</title>
<a xlink:href="keyboard__functions2_8cpp.html#a6b73a3669797504ce2e357d9a8b9a2c2" target="_top" xlink:title="key_forward">
<polygon fill="white" stroke="black" points="448,-84 448,-108 518,-108 518,-84 448,-84"/>
<text text-anchor="middle" x="483" y="-95" font-family="Helvetica,sans-Serif" font-size="10.00">key_forward</text>
</a>
</g>
<!-- Node8&#45;&gt;Node13 -->
<g id="edge30" class="edge"><title>Node8&#45;&gt;Node13</title>
<path fill="none" stroke="midnightblue" d="M399.687,-98.913C416.095,-98.3393 433.356,-97.7358 447.885,-97.2278"/>
<polygon fill="midnightblue" stroke="midnightblue" points="399.485,-95.4179 389.613,-99.2653 399.729,-102.414 399.485,-95.4179"/>
</g>
<!-- Node8&#45;&gt;Node14 -->
<g id="edge34" class="edge"><title>Node8&#45;&gt;Node14</title>
<path fill="none" stroke="midnightblue" d="M375.563,-83.8497C380.597,-80.8434 385.563,-77.5345 390,-74 408.967,-58.8902 406.008,-46.7248 426,-33 432.869,-28.2846 440.926,-24.4797 448.785,-21.4723"/>
<polygon fill="midnightblue" stroke="midnightblue" points="373.538,-80.9727 366.529,-88.9176 376.963,-87.0777 373.538,-80.9727"/>
</g>
<!-- Node20 -->
<g id="node45" class="node"><title>Node20</title>
<a xlink:href="sequentiel__6__core_8cpp.html#a2a71c851cf25565491dd10423bc80380" target="_top" xlink:title="do_logical_Sequenciel\l_Window">
<polygon fill="white" stroke="black" points="426.5,-168 426.5,-208 539.5,-208 539.5,-168 426.5,-168"/>
<text text-anchor="start" x="434.5" y="-195" font-family="Helvetica,sans-Serif" font-size="10.00">do_logical_Sequenciel</text>
<text text-anchor="middle" x="483" y="-179" font-family="Helvetica,sans-Serif" font-size="10.00">_Window</text>
</a>
</g>
<!-- Node8&#45;&gt;Node20 -->
<g id="edge50" class="edge"><title>Node8&#45;&gt;Node20</title>
<path fill="none" stroke="midnightblue" d="M375.209,-117.899C380.292,-120.74 385.367,-123.809 390,-127 407.631,-139.142 408.315,-146.937 426,-159 430.586,-162.128 435.555,-165.141 440.583,-167.964"/>
<polygon fill="midnightblue" stroke="midnightblue" points="376.611,-114.68 366.141,-113.054 373.312,-120.854 376.611,-114.68"/>
</g>
<!-- Node10 -->
<g id="node20" class="node"><title>Node10</title>
<a xlink:href="i_cat14_8cpp.html#aa9772b548765a631d4bae1c14053b4e1" target="_top" xlink:title="DoJobFantastickTouch">
<polygon fill="white" stroke="black" points="585.5,-126 585.5,-150 702.5,-150 702.5,-126 585.5,-126"/>
<text text-anchor="middle" x="644" y="-137" font-family="Helvetica,sans-Serif" font-size="10.00">DoJobFantastickTouch</text>
</a>
</g>
<!-- Node9&#45;&gt;Node10 -->
<g id="edge20" class="edge"><title>Node9&#45;&gt;Node10</title>
<path fill="none" stroke="midnightblue" d="M531.039,-138C548.111,-138 567.521,-138 585.378,-138"/>
<polygon fill="midnightblue" stroke="midnightblue" points="530.747,-134.5 520.747,-138 530.747,-141.5 530.747,-134.5"/>
</g>
<!-- Node10&#45;&gt;Node4 -->
<g id="edge22" class="edge"><title>Node10&#45;&gt;Node4</title>
<path fill="none" stroke="midnightblue" d="M712.913,-138C724.77,-138 736.754,-138 747.594,-138"/>
<polygon fill="midnightblue" stroke="midnightblue" points="712.559,-134.5 702.559,-138 712.559,-141.5 712.559,-134.5"/>
</g>
<!-- Node12 -->
<g id="node25" class="node"><title>Node12</title>
<a xlink:href="keyboard__routines2_8cpp.html#a8563320b8eab661232619224650de244" target="_top" xlink:title="commandes_clavier">
<polygon fill="white" stroke="black" points="592,-84 592,-108 696,-108 696,-84 592,-84"/>
<text text-anchor="middle" x="644" y="-95" font-family="Helvetica,sans-Serif" font-size="10.00">commandes_clavier</text>
</a>
</g>
<!-- Node11&#45;&gt;Node12 -->
<g id="edge26" class="edge"><title>Node11&#45;&gt;Node12</title>
<path fill="none" stroke="midnightblue" d="M533.07,-67.0618C553.725,-72.45 577.514,-78.6557 597.752,-83.9353"/>
<polygon fill="midnightblue" stroke="midnightblue" points="533.771,-63.6277 523.212,-64.49 532.004,-70.401 533.771,-63.6277"/>
</g>
<!-- Node12&#45;&gt;Node4 -->
<g id="edge28" class="edge"><title>Node12&#45;&gt;Node4</title>
<path fill="none" stroke="midnightblue" d="M695.456,-110.904C712.675,-115.892 731.627,-121.382 747.944,-126.108"/>
<polygon fill="midnightblue" stroke="midnightblue" points="696.13,-107.456 685.551,-108.036 694.183,-114.18 696.13,-107.456"/>
</g>
<!-- Node13&#45;&gt;Node12 -->
<g id="edge32" class="edge"><title>Node13&#45;&gt;Node12</title>
<path fill="none" stroke="midnightblue" d="M528.598,-96C548.329,-96 571.53,-96 591.934,-96"/>
<polygon fill="midnightblue" stroke="midnightblue" points="528.332,-92.5001 518.332,-96 528.332,-99.5001 528.332,-92.5001"/>
</g>
<!-- Node15 -->
<g id="node33" class="node"><title>Node15</title>
<a xlink:href="midi__13_8cpp.html#a6bedf9750195224914cd87c4e73ab626" target="_top" xlink:title="ventilate_midi_to_midiarray">
<polygon fill="white" stroke="black" points="576.5,-3 576.5,-27 711.5,-27 711.5,-3 576.5,-3"/>
<text text-anchor="middle" x="644" y="-14" font-family="Helvetica,sans-Serif" font-size="10.00">ventilate_midi_to_midiarray</text>
</a>
</g>
<!-- Node14&#45;&gt;Node15 -->
<g id="edge36" class="edge"><title>Node14&#45;&gt;Node15</title>
<path fill="none" stroke="midnightblue" d="M527.272,-12.8249C542.455,-13.1079 559.811,-13.4313 576.414,-13.7406"/>
<polygon fill="midnightblue" stroke="midnightblue" points="527.207,-9.32323 517.144,-12.6362 527.077,-16.322 527.207,-9.32323"/>
</g>
<!-- Node16 -->
<g id="node35" class="node"><title>Node16</title>
<a xlink:href="midi__13_8cpp.html#afa49dd5668303c2448676c8243737c2d" target="_top" xlink:title="simulate_midi">
<polygon fill="white" stroke="black" points="750.5,-13 750.5,-37 827.5,-37 827.5,-13 750.5,-13"/>
<text text-anchor="middle" x="789" y="-24" font-family="Helvetica,sans-Serif" font-size="10.00">simulate_midi</text>
</a>
</g>
<!-- Node15&#45;&gt;Node16 -->
<g id="edge38" class="edge"><title>Node15&#45;&gt;Node16</title>
<path fill="none" stroke="midnightblue" d="M722.103,-20.3864C731.941,-21.0649 741.642,-21.7339 750.473,-22.343"/>
<polygon fill="midnightblue" stroke="midnightblue" points="722.047,-16.8743 711.83,-19.6779 721.565,-23.8578 722.047,-16.8743"/>
</g>
<!-- Node17 -->
<g id="node37" class="node"><title>Node17</title>
<a xlink:href="arduino__core__6___u_n_o_8cpp.html#ae72d1a8d74d9ab5515962e03e7e664d6" target="_top" xlink:title="arduino_do_analog_in\l_whitecat">
<polygon fill="white" stroke="black" points="866,-63 866,-103 976,-103 976,-63 866,-63"/>
<text text-anchor="start" x="874" y="-90" font-family="Helvetica,sans-Serif" font-size="10.00">arduino_do_analog_in</text>
<text text-anchor="middle" x="921" y="-74" font-family="Helvetica,sans-Serif" font-size="10.00">_whitecat</text>
</a>
</g>
<!-- Node16&#45;&gt;Node17 -->
<g id="edge40" class="edge"><title>Node16&#45;&gt;Node17</title>
<path fill="none" stroke="midnightblue" d="M825.539,-41.0549C840.918,-47.8123 858.982,-55.7495 875.234,-62.8905"/>
<polygon fill="midnightblue" stroke="midnightblue" points="826.914,-37.8361 816.35,-37.0176 824.098,-44.2448 826.914,-37.8361"/>
</g>
<!-- Node19 -->
<g id="node42" class="node"><title>Node19</title>
<a xlink:href="arduino__core__6___u_n_o_8cpp.html#a219226c1cd6cc17c78e62fd4445bb445" target="_top" xlink:title="arduino_do_digital\l_in_whitecat">
<polygon fill="white" stroke="black" points="873.5,-5 873.5,-45 968.5,-45 968.5,-5 873.5,-5"/>
<text text-anchor="start" x="881.5" y="-32" font-family="Helvetica,sans-Serif" font-size="10.00">arduino_do_digital</text>
<text text-anchor="middle" x="921" y="-16" font-family="Helvetica,sans-Serif" font-size="10.00">_in_whitecat</text>
</a>
</g>
<!-- Node16&#45;&gt;Node19 -->
<g id="edge46" class="edge"><title>Node16&#45;&gt;Node19</title>
<path fill="none" stroke="midnightblue" d="M837.541,-25C849.203,-25 861.648,-25 873.272,-25"/>
<polygon fill="midnightblue" stroke="midnightblue" points="837.535,-21.5001 827.535,-25 837.535,-28.5001 837.535,-21.5001"/>
</g>
<!-- Node18 -->
<g id="node39" class="node"><title>Node18</title>
<a xlink:href="_m_a_i_n__avec__objets_8cpp.html#ace9c8a9b37c6087c3cffef442d71d70e" target="_top" xlink:title="dixiemes_de_secondes">
<polygon fill="white" stroke="black" points="1012.5,-71 1012.5,-95 1131.5,-95 1131.5,-71 1012.5,-71"/>
<text text-anchor="middle" x="1072" y="-82" font-family="Helvetica,sans-Serif" font-size="10.00">dixiemes_de_secondes</text>
</a>
</g>
<!-- Node17&#45;&gt;Node18 -->
<g id="edge42" class="edge"><title>Node17&#45;&gt;Node18</title>
<path fill="none" stroke="midnightblue" d="M986.379,-83C994.999,-83 1003.8,-83 1012.32,-83"/>
<polygon fill="midnightblue" stroke="midnightblue" points="986.369,-79.5001 976.369,-83 986.369,-86.5001 986.369,-79.5001"/>
</g>
<!-- Node18&#45;&gt;Node5 -->
<g id="edge44" class="edge"><title>Node18&#45;&gt;Node5</title>
<path fill="none" stroke="midnightblue" d="M1137.3,-97.1957C1148.41,-99.6107 1159.12,-101.94 1167.74,-103.813"/>
<polygon fill="midnightblue" stroke="midnightblue" points="1137.99,-93.7649 1127.48,-95.0606 1136.51,-100.605 1137.99,-93.7649"/>
</g>
<!-- Node19&#45;&gt;Node18 -->
<g id="edge48" class="edge"><title>Node19&#45;&gt;Node18</title>
<path fill="none" stroke="midnightblue" d="M978.336,-47.0229C999.505,-55.1544 1022.7,-64.0639 1040.71,-70.9824"/>
<polygon fill="midnightblue" stroke="midnightblue" points="979.367,-43.67 968.777,-43.3516 976.857,-50.2045 979.367,-43.67"/>
</g>
<!-- Node20&#45;&gt;Node7 -->
<g id="edge52" class="edge"><title>Node20&#45;&gt;Node7</title>
<path fill="none" stroke="midnightblue" d="M549.757,-197.951C561.271,-199.668 573.171,-201.442 584.478,-203.127"/>
<polygon fill="midnightblue" stroke="midnightblue" points="550.169,-194.474 539.763,-196.462 549.137,-201.398 550.169,-194.474"/>
</g>
<!-- Node21&#45;&gt;Node7 -->
<g id="edge58" class="edge"><title>Node21&#45;&gt;Node7</title>
<path fill="none" stroke="midnightblue" d="M263.936,-245.446C330.84,-248.39 444.016,-250.181 540,-236 554.482,-233.86 569.929,-230.756 584.368,-227.486"/>
<polygon fill="midnightblue" stroke="midnightblue" points="263.758,-241.934 253.606,-244.966 263.432,-248.926 263.758,-241.934"/>
</g>
</g>
</svg>
        <g id="navigator" transform="translate(0 0)" fill="#404254">
                <rect fill="#f2f5e9" fill-opacity="0.5" stroke="#606060" stroke-width=".5" x="0" y="0" width="60" height="60"/>
                <use id="zoomplus" xlink:href="#zoomPlus" x="17" y="9" onmousedown="handleZoom(evt,'in')"/>
                <use id="zoomminus" xlink:href="#zoomMin" x="42" y="9" onmousedown="handleZoom(evt,'out')"/>
                <use id="reset" xlink:href="#resetDef" x="30" y="36" onmousedown="handleReset()"/>
                <g id="arrowUp" xlink:href="#dirArrow" transform="translate(30 24)" onmousedown="handlePan(0,-1)">
                  <use xlink:href="#rim" fill="#404040">
                        <set attributeName="fill" to="#808080" begin="arrowUp.mouseover" end="arrowUp.mouseout"/>
                  </use>
                  <path fill="none" stroke="white" stroke-width="1.5" d="M0,-3.0v7 M-2.5,-0.5L0,-3.0L2.5,-0.5"/>
                </g>
                <g id="arrowRight" xlink:href="#dirArrow" transform="rotate(90) translate(36 -43)" onmousedown="handlePan(1,0)">
                  <use xlink:href="#rim" fill="#404040">
                        <set attributeName="fill" to="#808080" begin="arrowRight.mouseover" end="arrowRight.mouseout"/>
                  </use>
                  <path fill="none" stroke="white" stroke-width="1.5" d="M0,-3.0v7 M-2.5,-0.5L0,-3.0L2.5,-0.5"/>
                </g>
                <g id="arrowDown" xlink:href="#dirArrow" transform="rotate(180) translate(-30 -48)" onmousedown="handlePan(0,1)">
                  <use xlink:href="#rim" fill="#404040">
                        <set attributeName="fill" to="#808080" begin="arrowDown.mouseover" end="arrowDown.mouseout"/>
                  </use>
                  <path fill="none" stroke="white" stroke-width="1.5" d="M0,-3.0v7 M-2.5,-0.5L0,-3.0L2.5,-0.5"/>
                </g>
                <g id="arrowLeft" xlink:href="#dirArrow" transform="rotate(270) translate(-36 17)" onmousedown="handlePan(-1,0)">
                  <use xlink:href="#rim" fill="#404040">
                        <set attributeName="fill" to="#808080" begin="arrowLeft.mouseover" end="arrowLeft.mouseout"/>
                  </use>
                  <path fill="none" stroke="white" stroke-width="1.5" d="M0,-3.0v7 M-2.5,-0.5L0,-3.0L2.5,-0.5"/>
                </g>
        </g>
        <svg viewBox="0 0 15 15" width="100%" height="30px" preserveAspectRatio="xMaxYMin meet">
         <g id="arrow_out" transform="scale(0.3 0.3)">
          <a xlink:href="chasers__core__5_8cpp_a7fa6ceb1bfc08733e47abe303b3d4a5d_icgraph_org.svg" target="_base">
           <rect id="button" ry="5" rx="5" y="6" x="6" height="38" width="38"
                fill="#f2f5e9" fill-opacity="0.5" stroke="#606060" stroke-width="1.0"/>
           <path id="arrow"
             d="M 11.500037,31.436501 C 11.940474,20.09759 22.043105,11.32322 32.158766,21.979434 L 37.068811,17.246167 C 37.068811,17.246167 37.088388,32 37.088388,32 L 22.160133,31.978069 C 22.160133,31.978069 26.997745,27.140456 26.997745,27.140456 C 18.528582,18.264221 13.291696,25.230495 11.500037,31.436501 z"
             style="fill:#404040;"/>
          </a>
         </g>
        </svg>
</svg>
