<?xml version="1.0" encoding="UTF-8" standalone="no"?>
<!DOCTYPE svg PUBLIC "-//W3C//DTD SVG 1.1//EN"
 "http://www.w3.org/Graphics/SVG/1.1/DTD/svg11.dtd">
<!-- Generated by graphviz version 2.26.3 (20100126.1600)
 -->
<!-- Title: chaser_select_off_all_track Pages: 1 -->
<svg width="1200pt" height="278pt"
 viewBox="0.00 0.00 1200.00 278.38" xmlns="http://www.w3.org/2000/svg" xmlns:xlink="http://www.w3.org/1999/xlink">
<g id="graph1" class="graph" transform="scale(1 1) rotate(0) translate(4 274.381)">
<title>chaser_select_off_all_track</title>
<polygon fill="white" stroke="white" points="-4,5 -4,-274.381 1197,-274.381 1197,5 -4,5"/>
<!-- Node1 -->
<g id="node1" class="node"><title>Node1</title>
<polygon fill="#bfbfbf" stroke="black" points="0,-108 0,-148 108,-148 108,-108 0,-108"/>
<text text-anchor="start" x="8" y="-135" font-family="Helvetica,sans-Serif" font-size="10.00">chaser_select_off_all</text>
<text text-anchor="middle" x="54" y="-119" font-family="Helvetica,sans-Serif" font-size="10.00">_track</text>
</g>
<!-- Node2 -->
<g id="node3" class="node"><title>Node2</title>
<a xlink:href="banger__core__8_8cpp.html#ae4008269e0575da11cc90e812961ef6f" target="_top" xlink:title="Bang_event">
<polygon fill="white" stroke="black" points="158,-116 158,-140 226,-140 226,-116 158,-116"/>
<text text-anchor="middle" x="192" y="-127" font-family="Helvetica,sans-Serif" font-size="10.00">Bang_event</text>
</a>
</g>
<!-- Node1&#45;&gt;Node2 -->
<g id="edge2" class="edge"><title>Node1&#45;&gt;Node2</title>
<path fill="none" stroke="midnightblue" d="M118.477,-128C132.094,-128 145.947,-128 157.903,-128"/>
<polygon fill="midnightblue" stroke="midnightblue" points="118.145,-124.5 108.145,-128 118.145,-131.5 118.145,-124.5"/>
</g>
<!-- Node14 -->
<g id="node31" class="node"><title>Node14</title>
<a xlink:href="midi__13_8cpp.html#a6dff3d42682b58cc0a9875ee30fb4cd4" target="_top" xlink:title="do_midi_job">
<polygon fill="white" stroke="black" points="435,-0 435,-24 503,-24 503,-0 435,-0"/>
<text text-anchor="middle" x="469" y="-11" font-family="Helvetica,sans-Serif" font-size="10.00">do_midi_job</text>
</a>
</g>
<!-- Node1&#45;&gt;Node14 -->
<g id="edge60" class="edge"><title>Node1&#45;&gt;Node14</title>
<path fill="none" stroke="midnightblue" d="M103.743,-103.612C147.94,-82.9758 214.832,-54.2415 276,-38 330.408,-23.5536 395.683,-16.9006 434.675,-14.0144"/>
<polygon fill="midnightblue" stroke="midnightblue" points="102.224,-100.459 94.6671,-107.885 105.205,-106.792 102.224,-100.459"/>
</g>
<!-- Node21 -->
<g id="node49" class="node"><title>Node21</title>
<a xlink:href="chasers__core__5_8cpp.html#a965f16d10083f733b1cfda05f4342212" target="_top" xlink:title="do_logical_fenetre\l_chasers">
<polygon fill="white" stroke="black" points="144.5,-222 144.5,-262 239.5,-262 239.5,-222 144.5,-222"/>
<text text-anchor="start" x="152.5" y="-249" font-family="Helvetica,sans-Serif" font-size="10.00">do_logical_fenetre</text>
<text text-anchor="middle" x="192" y="-233" font-family="Helvetica,sans-Serif" font-size="10.00">_chasers</text>
</a>
</g>
<!-- Node1&#45;&gt;Node21 -->
<g id="edge56" class="edge"><title>Node1&#45;&gt;Node21</title>
<path fill="none" stroke="midnightblue" d="M86.0674,-154.49C110.881,-174.989 144.731,-202.951 167.425,-221.699"/>
<polygon fill="midnightblue" stroke="midnightblue" points="88.2927,-151.789 78.354,-148.118 83.8345,-157.186 88.2927,-151.789"/>
</g>
<!-- Node3 -->
<g id="node5" class="node"><title>Node3</title>
<a xlink:href="banger__core__8_8cpp.html#a4003a08a1620546de77b118c91d2fd9d" target="_top" xlink:title="do_bang">
<polygon fill="white" stroke="black" points="299.5,-213 299.5,-237 352.5,-237 352.5,-213 299.5,-213"/>
<text text-anchor="middle" x="326" y="-224" font-family="Helvetica,sans-Serif" font-size="10.00">do_bang</text>
</a>
</g>
<!-- Node2&#45;&gt;Node3 -->
<g id="edge4" class="edge"><title>Node2&#45;&gt;Node3</title>
<path fill="none" stroke="midnightblue" d="M216.845,-145.984C243.71,-165.432 285.805,-195.904 309.089,-212.759"/>
<polygon fill="midnightblue" stroke="midnightblue" points="218.853,-143.118 208.7,-140.089 214.748,-148.788 218.853,-143.118"/>
</g>
<!-- Node6 -->
<g id="node11" class="node"><title>Node6</title>
<a xlink:href="banger__core__8_8cpp.html#a4fe16ad483c0c1609d97aeb9a23c74ee" target="_top" xlink:title="do_logical_fenetre\l_banger">
<polygon fill="white" stroke="black" points="278.5,-136 278.5,-176 373.5,-176 373.5,-136 278.5,-136"/>
<text text-anchor="start" x="286.5" y="-163" font-family="Helvetica,sans-Serif" font-size="10.00">do_logical_fenetre</text>
<text text-anchor="middle" x="326" y="-147" font-family="Helvetica,sans-Serif" font-size="10.00">_banger</text>
</a>
</g>
<!-- Node2&#45;&gt;Node6 -->
<g id="edge10" class="edge"><title>Node2&#45;&gt;Node6</title>
<path fill="none" stroke="midnightblue" d="M236.159,-137.227C249.647,-140.046 264.538,-143.157 278.252,-146.023"/>
<polygon fill="midnightblue" stroke="midnightblue" points="236.665,-133.757 226.161,-135.138 235.233,-140.609 236.665,-133.757"/>
</g>
<!-- Node8 -->
<g id="node16" class="node"><title>Node8</title>
<a xlink:href="banger__core__8_8cpp.html#ab405ab53ea444b049e5ffa258498fcb6" target="_top" xlink:title="refresh_banger_wx">
<polygon fill="white" stroke="black" points="276.5,-89 276.5,-113 375.5,-113 375.5,-89 276.5,-89"/>
<text text-anchor="middle" x="326" y="-100" font-family="Helvetica,sans-Serif" font-size="10.00">refresh_banger_wx</text>
</a>
</g>
<!-- Node2&#45;&gt;Node8 -->
<g id="edge16" class="edge"><title>Node2&#45;&gt;Node8</title>
<path fill="none" stroke="midnightblue" d="M236.188,-119.096C249.087,-116.497 263.268,-113.64 276.474,-110.979"/>
<polygon fill="midnightblue" stroke="midnightblue" points="235.272,-115.711 226.161,-121.117 236.655,-122.573 235.272,-115.711"/>
</g>
<!-- Node2&#45;&gt;Node14 -->
<g id="edge54" class="edge"><title>Node2&#45;&gt;Node14</title>
<path fill="none" stroke="midnightblue" d="M219.691,-110.492C235.756,-100.766 256.592,-88.8764 276,-80 329.953,-55.3245 395.646,-33.9053 434.802,-21.9946"/>
<polygon fill="midnightblue" stroke="midnightblue" points="217.523,-107.715 210.831,-115.928 221.184,-113.682 217.523,-107.715"/>
</g>
<!-- Node4 -->
<g id="node7" class="node"><title>Node4</title>
<a xlink:href="_m_a_i_n__avec__objets_8cpp.html#a8e80f54ac804eddce8ed6e45adb1db44" target="_top" xlink:title="ticker_full_loop">
<polygon fill="white" stroke="black" points="734,-126 734,-150 816,-150 816,-126 734,-126"/>
<text text-anchor="middle" x="775" y="-137" font-family="Helvetica,sans-Serif" font-size="10.00">ticker_full_loop</text>
</a>
</g>
<!-- Node3&#45;&gt;Node4 -->
<g id="edge6" class="edge"><title>Node3&#45;&gt;Node4</title>
<path fill="none" stroke="midnightblue" d="M362.224,-237.58C431.65,-259.407 586.449,-296.884 698,-241 736.526,-221.7 760.727,-172.958 770.305,-150.137"/>
<polygon fill="midnightblue" stroke="midnightblue" points="363.207,-234.22 352.615,-234.486 361.061,-240.883 363.207,-234.22"/>
</g>
<!-- Node5 -->
<g id="node9" class="node"><title>Node5</title>
<a xlink:href="_m_a_i_n__avec__objets_8cpp.html#ae66f6b31b5ad750f1fe042a706a4e3d4" target="_top" xlink:title="main">
<polygon fill="white" stroke="black" points="1154,-96 1154,-120 1192,-120 1192,-96 1154,-96"/>
<text text-anchor="middle" x="1173" y="-107" font-family="Helvetica,sans-Serif" font-size="10.00">main</text>
</a>
</g>
<!-- Node4&#45;&gt;Node5 -->
<g id="edge8" class="edge"><title>Node4&#45;&gt;Node5</title>
<path fill="none" stroke="midnightblue" d="M826.235,-134.138C915.305,-127.424 1094.82,-113.893 1153.77,-109.45"/>
<polygon fill="midnightblue" stroke="midnightblue" points="825.803,-130.661 816.094,-134.902 826.329,-137.641 825.803,-130.661"/>
</g>
<!-- Node7 -->
<g id="node13" class="node"><title>Node7</title>
<a xlink:href="procs__visuels__rebuild1_8cpp.html#ae710b6e599e321ad5934a90140067054" target="_top" xlink:title="check_graphics_mouse\l_handling">
<polygon fill="white" stroke="black" points="570.5,-192 570.5,-232 689.5,-232 689.5,-192 570.5,-192"/>
<text text-anchor="start" x="578.5" y="-219" font-family="Helvetica,sans-Serif" font-size="10.00">check_graphics_mouse</text>
<text text-anchor="middle" x="630" y="-203" font-family="Helvetica,sans-Serif" font-size="10.00">_handling</text>
</a>
</g>
<!-- Node6&#45;&gt;Node7 -->
<g id="edge12" class="edge"><title>Node6&#45;&gt;Node7</title>
<path fill="none" stroke="midnightblue" d="M354.291,-182.871C369.983,-195.903 390.613,-210.185 412,-217 463.58,-233.436 525.558,-229.95 570.222,-223.67"/>
<polygon fill="midnightblue" stroke="midnightblue" points="356.421,-180.086 346.558,-176.216 351.855,-185.391 356.421,-180.086"/>
</g>
<!-- Node7&#45;&gt;Node4 -->
<g id="edge14" class="edge"><title>Node7&#45;&gt;Node4</title>
<path fill="none" stroke="midnightblue" d="M678.389,-187.305C702.863,-174.815 731.473,-160.214 751.173,-150.16"/>
<polygon fill="midnightblue" stroke="midnightblue" points="676.555,-184.311 669.239,-191.975 679.737,-190.546 676.555,-184.311"/>
</g>
<!-- Node9 -->
<g id="node18" class="node"><title>Node9</title>
<a xlink:href="i_cat14_8cpp.html#a16285241f82898e7a5f051b03d90b9a3" target="_top" xlink:title="check_button">
<polygon fill="white" stroke="black" points="431.5,-126 431.5,-150 506.5,-150 506.5,-126 431.5,-126"/>
<text text-anchor="middle" x="469" y="-137" font-family="Helvetica,sans-Serif" font-size="10.00">check_button</text>
</a>
</g>
<!-- Node8&#45;&gt;Node9 -->
<g id="edge18" class="edge"><title>Node8&#45;&gt;Node9</title>
<path fill="none" stroke="midnightblue" d="M382.477,-115.613C398.898,-119.862 416.427,-124.397 431.383,-128.267"/>
<polygon fill="midnightblue" stroke="midnightblue" points="382.986,-112.129 372.428,-113.013 381.232,-118.906 382.986,-112.129"/>
</g>
<!-- Node11 -->
<g id="node23" class="node"><title>Node11</title>
<a xlink:href="keyboard__functions2_8cpp.html#af3dd6697323b10b480719c1612bcf29a" target="_top" xlink:title="key_backward">
<polygon fill="white" stroke="black" points="429,-42 429,-66 509,-66 509,-42 429,-42"/>
<text text-anchor="middle" x="469" y="-53" font-family="Helvetica,sans-Serif" font-size="10.00">key_backward</text>
</a>
</g>
<!-- Node8&#45;&gt;Node11 -->
<g id="edge24" class="edge"><title>Node8&#45;&gt;Node11</title>
<path fill="none" stroke="midnightblue" d="M372.392,-85.7524C391.807,-79.371 414.052,-72.0597 432.299,-66.0627"/>
<polygon fill="midnightblue" stroke="midnightblue" points="371.233,-82.4489 362.826,-88.8963 373.419,-89.0989 371.233,-82.4489"/>
</g>
<!-- Node13 -->
<g id="node28" class="node"><title>Node13</title>
<a xlink:href="keyboard__functions2_8cpp.html#a6b73a3669797504ce2e357d9a8b9a2c2" target="_top" xlink:title="key_forward">
<polygon fill="white" stroke="black" points="434,-84 434,-108 504,-108 504,-84 434,-84"/>
<text text-anchor="middle" x="469" y="-95" font-family="Helvetica,sans-Serif" font-size="10.00">key_forward</text>
</a>
</g>
<!-- Node8&#45;&gt;Node13 -->
<g id="edge30" class="edge"><title>Node8&#45;&gt;Node13</title>
<path fill="none" stroke="midnightblue" d="M385.687,-98.913C402.095,-98.3393 419.356,-97.7358 433.885,-97.2278"/>
<polygon fill="midnightblue" stroke="midnightblue" points="385.485,-95.4179 375.613,-99.2653 385.729,-102.414 385.485,-95.4179"/>
</g>
<!-- Node8&#45;&gt;Node14 -->
<g id="edge34" class="edge"><title>Node8&#45;&gt;Node14</title>
<path fill="none" stroke="midnightblue" d="M361.563,-83.8497C366.597,-80.8434 371.563,-77.5345 376,-74 394.967,-58.8902 392.008,-46.7248 412,-33 418.869,-28.2846 426.926,-24.4797 434.785,-21.4723"/>
<polygon fill="midnightblue" stroke="midnightblue" points="359.538,-80.9727 352.529,-88.9176 362.963,-87.0777 359.538,-80.9727"/>
</g>
<!-- Node20 -->
<g id="node45" class="node"><title>Node20</title>
<a xlink:href="sequentiel__6__core_8cpp.html#a2a71c851cf25565491dd10423bc80380" target="_top" xlink:title="do_logical_Sequenciel\l_Window">
<polygon fill="white" stroke="black" points="412.5,-168 412.5,-208 525.5,-208 525.5,-168 412.5,-168"/>
<text text-anchor="start" x="420.5" y="-195" font-family="Helvetica,sans-Serif" font-size="10.00">do_logical_Sequenciel</text>
<text text-anchor="middle" x="469" y="-179" font-family="Helvetica,sans-Serif" font-size="10.00">_Window</text>
</a>
</g>
<!-- Node8&#45;&gt;Node20 -->
<g id="edge50" class="edge"><title>Node8&#45;&gt;Node20</title>
<path fill="none" stroke="midnightblue" d="M361.209,-117.899C366.292,-120.74 371.367,-123.809 376,-127 393.631,-139.142 394.315,-146.937 412,-159 416.586,-162.128 421.555,-165.141 426.583,-167.964"/>
<polygon fill="midnightblue" stroke="midnightblue" points="362.611,-114.68 352.141,-113.054 359.312,-120.854 362.611,-114.68"/>
</g>
<!-- Node10 -->
<g id="node20" class="node"><title>Node10</title>
<a xlink:href="i_cat14_8cpp.html#aa9772b548765a631d4bae1c14053b4e1" target="_top" xlink:title="DoJobFantastickTouch">
<polygon fill="white" stroke="black" points="571.5,-126 571.5,-150 688.5,-150 688.5,-126 571.5,-126"/>
<text text-anchor="middle" x="630" y="-137" font-family="Helvetica,sans-Serif" font-size="10.00">DoJobFantastickTouch</text>
</a>
</g>
<!-- Node9&#45;&gt;Node10 -->
<g id="edge20" class="edge"><title>Node9&#45;&gt;Node10</title>
<path fill="none" stroke="midnightblue" d="M517.039,-138C534.111,-138 553.521,-138 571.378,-138"/>
<polygon fill="midnightblue" stroke="midnightblue" points="516.747,-134.5 506.747,-138 516.747,-141.5 516.747,-134.5"/>
</g>
<!-- Node10&#45;&gt;Node4 -->
<g id="edge22" class="edge"><title>Node10&#45;&gt;Node4</title>
<path fill="none" stroke="midnightblue" d="M698.913,-138C710.77,-138 722.754,-138 733.594,-138"/>
<polygon fill="midnightblue" stroke="midnightblue" points="698.559,-134.5 688.559,-138 698.559,-141.5 698.559,-134.5"/>
</g>
<!-- Node12 -->
<g id="node25" class="node"><title>Node12</title>
<a xlink:href="keyboard__routines2_8cpp.html#a8563320b8eab661232619224650de244" target="_top" xlink:title="commandes_clavier">
<polygon fill="white" stroke="black" points="578,-84 578,-108 682,-108 682,-84 578,-84"/>
<text text-anchor="middle" x="630" y="-95" font-family="Helvetica,sans-Serif" font-size="10.00">commandes_clavier</text>
</a>
</g>
<!-- Node11&#45;&gt;Node12 -->
<g id="edge26" class="edge"><title>Node11&#45;&gt;Node12</title>
<path fill="none" stroke="midnightblue" d="M519.07,-67.0618C539.725,-72.45 563.514,-78.6557 583.752,-83.9353"/>
<polygon fill="midnightblue" stroke="midnightblue" points="519.771,-63.6277 509.212,-64.49 518.004,-70.401 519.771,-63.6277"/>
</g>
<!-- Node12&#45;&gt;Node4 -->
<g id="edge28" class="edge"><title>Node12&#45;&gt;Node4</title>
<path fill="none" stroke="midnightblue" d="M681.456,-110.904C698.675,-115.892 717.627,-121.382 733.944,-126.108"/>
<polygon fill="midnightblue" stroke="midnightblue" points="682.13,-107.456 671.551,-108.036 680.183,-114.18 682.13,-107.456"/>
</g>
<!-- Node13&#45;&gt;Node12 -->
<g id="edge32" class="edge"><title>Node13&#45;&gt;Node12</title>
<path fill="none" stroke="midnightblue" d="M514.598,-96C534.329,-96 557.53,-96 577.934,-96"/>
<polygon fill="midnightblue" stroke="midnightblue" points="514.332,-92.5001 504.332,-96 514.332,-99.5001 514.332,-92.5001"/>
</g>
<!-- Node15 -->
<g id="node33" class="node"><title>Node15</title>
<a xlink:href="midi__13_8cpp.html#a6bedf9750195224914cd87c4e73ab626" target="_top" xlink:title="ventilate_midi_to_midiarray">
<polygon fill="white" stroke="black" points="562.5,-3 562.5,-27 697.5,-27 697.5,-3 562.5,-3"/>
<text text-anchor="middle" x="630" y="-14" font-family="Helvetica,sans-Serif" font-size="10.00">ventilate_midi_to_midiarray</text>
</a>
</g>
<!-- Node14&#45;&gt;Node15 -->
<g id="edge36" class="edge"><title>Node14&#45;&gt;Node15</title>
<path fill="none" stroke="midnightblue" d="M513.272,-12.8249C528.455,-13.1079 545.811,-13.4313 562.414,-13.7406"/>
<polygon fill="midnightblue" stroke="midnightblue" points="513.207,-9.32323 503.144,-12.6362 513.077,-16.322 513.207,-9.32323"/>
</g>
<!-- Node16 -->
<g id="node35" class="node"><title>Node16</title>
<a xlink:href="midi__13_8cpp.html#afa49dd5668303c2448676c8243737c2d" target="_top" xlink:title="simulate_midi">
<polygon fill="white" stroke="black" points="736.5,-13 736.5,-37 813.5,-37 813.5,-13 736.5,-13"/>
<text text-anchor="middle" x="775" y="-24" font-family="Helvetica,sans-Serif" font-size="10.00">simulate_midi</text>
</a>
</g>
<!-- Node15&#45;&gt;Node16 -->
<g id="edge38" class="edge"><title>Node15&#45;&gt;Node16</title>
<path fill="none" stroke="midnightblue" d="M708.103,-20.3864C717.941,-21.0649 727.642,-21.7339 736.473,-22.343"/>
<polygon fill="midnightblue" stroke="midnightblue" points="708.047,-16.8743 697.83,-19.6779 707.565,-23.8578 708.047,-16.8743"/>
</g>
<!-- Node17 -->
<g id="node37" class="node"><title>Node17</title>
<a xlink:href="arduino__core__6___u_n_o_8cpp.html#ae72d1a8d74d9ab5515962e03e7e664d6" target="_top" xlink:title="arduino_do_analog_in\l_whitecat">
<polygon fill="white" stroke="black" points="852,-63 852,-103 962,-103 962,-63 852,-63"/>
<text text-anchor="start" x="860" y="-90" font-family="Helvetica,sans-Serif" font-size="10.00">arduino_do_analog_in</text>
<text text-anchor="middle" x="907" y="-74" font-family="Helvetica,sans-Serif" font-size="10.00">_whitecat</text>
</a>
</g>
<!-- Node16&#45;&gt;Node17 -->
<g id="edge40" class="edge"><title>Node16&#45;&gt;Node17</title>
<path fill="none" stroke="midnightblue" d="M811.539,-41.0549C826.918,-47.8123 844.982,-55.7495 861.234,-62.8905"/>
<polygon fill="midnightblue" stroke="midnightblue" points="812.914,-37.8361 802.35,-37.0176 810.098,-44.2448 812.914,-37.8361"/>
</g>
<!-- Node19 -->
<g id="node42" class="node"><title>Node19</title>
<a xlink:href="arduino__core__6___u_n_o_8cpp.html#a219226c1cd6cc17c78e62fd4445bb445" target="_top" xlink:title="arduino_do_digital\l_in_whitecat">
<polygon fill="white" stroke="black" points="859.5,-5 859.5,-45 954.5,-45 954.5,-5 859.5,-5"/>
<text text-anchor="start" x="867.5" y="-32" font-family="Helvetica,sans-Serif" font-size="10.00">arduino_do_digital</text>
<text text-anchor="middle" x="907" y="-16" font-family="Helvetica,sans-Serif" font-size="10.00">_in_whitecat</text>
</a>
</g>
<!-- Node16&#45;&gt;Node19 -->
<g id="edge46" class="edge"><title>Node16&#45;&gt;Node19</title>
<path fill="none" stroke="midnightblue" d="M823.541,-25C835.203,-25 847.648,-25 859.272,-25"/>
<polygon fill="midnightblue" stroke="midnightblue" points="823.535,-21.5001 813.535,-25 823.535,-28.5001 823.535,-21.5001"/>
</g>
<!-- Node18 -->
<g id="node39" class="node"><title>Node18</title>
<a xlink:href="_m_a_i_n__avec__objets_8cpp.html#ace9c8a9b37c6087c3cffef442d71d70e" target="_top" xlink:title="dixiemes_de_secondes">
<polygon fill="white" stroke="black" points="998.5,-71 998.5,-95 1117.5,-95 1117.5,-71 998.5,-71"/>
<text text-anchor="middle" x="1058" y="-82" font-family="Helvetica,sans-Serif" font-size="10.00">dixiemes_de_secondes</text>
</a>
</g>
<!-- Node17&#45;&gt;Node18 -->
<g id="edge42" class="edge"><title>Node17&#45;&gt;Node18</title>
<path fill="none" stroke="midnightblue" d="M972.379,-83C980.999,-83 989.798,-83 998.316,-83"/>
<polygon fill="midnightblue" stroke="midnightblue" points="972.369,-79.5001 962.369,-83 972.369,-86.5001 972.369,-79.5001"/>
</g>
<!-- Node18&#45;&gt;Node5 -->
<g id="edge44" class="edge"><title>Node18&#45;&gt;Node5</title>
<path fill="none" stroke="midnightblue" d="M1123.3,-97.1957C1134.41,-99.6107 1145.12,-101.94 1153.74,-103.813"/>
<polygon fill="midnightblue" stroke="midnightblue" points="1123.99,-93.7649 1113.48,-95.0606 1122.51,-100.605 1123.99,-93.7649"/>
</g>
<!-- Node19&#45;&gt;Node18 -->
<g id="edge48" class="edge"><title>Node19&#45;&gt;Node18</title>
<path fill="none" stroke="midnightblue" d="M964.336,-47.0229C985.505,-55.1544 1008.7,-64.0639 1026.71,-70.9824"/>
<polygon fill="midnightblue" stroke="midnightblue" points="965.367,-43.67 954.777,-43.3516 962.857,-50.2045 965.367,-43.67"/>
</g>
<!-- Node20&#45;&gt;Node7 -->
<g id="edge52" class="edge"><title>Node20&#45;&gt;Node7</title>
<path fill="none" stroke="midnightblue" d="M535.757,-197.951C547.271,-199.668 559.171,-201.442 570.478,-203.127"/>
<polygon fill="midnightblue" stroke="midnightblue" points="536.169,-194.474 525.763,-196.462 535.137,-201.398 536.169,-194.474"/>
</g>
<!-- Node21&#45;&gt;Node7 -->
<g id="edge58" class="edge"><title>Node21&#45;&gt;Node7</title>
<path fill="none" stroke="midnightblue" d="M249.936,-245.446C316.84,-248.39 430.016,-250.181 526,-236 540.482,-233.86 555.929,-230.756 570.368,-227.486"/>
<polygon fill="midnightblue" stroke="midnightblue" points="249.758,-241.934 239.606,-244.966 249.432,-248.926 249.758,-241.934"/>
</g>
</g>
</svg>
