<?xml version="1.0" encoding="UTF-8" standalone="no"?>
<!DOCTYPE svg PUBLIC "-//W3C//DTD SVG 1.1//EN"
 "http://www.w3.org/Graphics/SVG/1.1/DTD/svg11.dtd">
<!-- Generated by graphviz version 2.26.3 (20100126.1600)
 -->
<!-- Title: refresh_launchpad_on_chaser Pages: 1 -->
<!--zoomable 531 -->
<svg id="main" version="1.1" xmlns="http://www.w3.org/2000/svg" xmlns:xlink="http://www.w3.org/1999/xlink" xml:space="preserve" onload="init(evt)">
<style type="text/css"><![CDATA[
.edge:hover path { stroke: red; }
.edge:hover polygon { stroke: red; fill: red; }
]]></style>
<script type="text/javascript"><![CDATA[
var edges = document.getElementsByTagName('g');
if (edges && edges.length) {
  for (var i=0;i<edges.length;i++) {
    if (edges[i].id.substr(0,4)=='edge') {
      edges[i].setAttribute('class','edge');
    }
  }
}
]]></script>
        <defs>
                <circle id="rim" cx="0" cy="0" r="7"/>
                <circle id="rim2" cx="0" cy="0" r="3.5"/>
                <g id="zoomPlus">
                        <use xlink:href="#rim" fill="#404040">
                                <set attributeName="fill" to="#808080" begin="zoomplus.mouseover" end="zoomplus.mouseout"/>
                        </use>
                        <path d="M-4,0h8M0,-4v8" fill="none" stroke="white" stroke-width="1.5" pointer-events="none"/>
                </g>
                <g id="zoomMin">
                        <use xlink:href="#rim" fill="#404040">
                                <set attributeName="fill" to="#808080" begin="zoomminus.mouseover" end="zoomminus.mouseout"/>
                        </use>
                        <path d="M-4,0h8" fill="none" stroke="white" stroke-width="1.5" pointer-events="none"/>
                </g>
                <g id="dirArrow">
                        <path fill="none" stroke="white" stroke-width="1.5" d="M0,-3.0v7 M-2.5,-0.5L0,-3.0L2.5,-0.5"/>
                </g>
               <g id="resetDef">
                       <use xlink:href="#rim2" fill="#404040">
                               <set attributeName="fill" to="#808080" begin="reset.mouseover" end="reset.mouseout"/>
                       </use>
               </g>
        </defs>

<script type="text/javascript">
var viewWidth = 2388;
var viewHeight = 531;
var sectionId = 'dynsection-32';
</script>
<script xlink:href="svgpan.js"/>
<svg id="graph" class="graph">
<g id="viewport">
<title>refresh_launchpad_on_chaser</title>
<polygon fill="white" stroke="white" points="-4,5 -4,-526.7 2385,-526.7 2385,5 -4,5"/>
<!-- Node1 -->
<g id="node1" class="node"><title>Node1</title>
<polygon fill="#bfbfbf" stroke="black" points="0,-332.7 0,-372.7 112,-372.7 112,-332.7 0,-332.7"/>
<text text-anchor="start" x="8" y="-359.7" font-family="Helvetica,sans-Serif" font-size="10.00">refresh_launchpad_on</text>
<text text-anchor="middle" x="56" y="-343.7" font-family="Helvetica,sans-Serif" font-size="10.00">_chaser</text>
</g>
<!-- Node2 -->
<g id="node3" class="node"><title>Node2</title>
<a xlink:href="chasers__core__5_8cpp.html#abb6ff444898fcb4ad35f303696f41ea2" target="_top" xlink:title="chaser_calcul_step">
<polygon fill="white" stroke="black" points="148.5,-340.7 148.5,-364.7 249.5,-364.7 249.5,-340.7 148.5,-340.7"/>
<text text-anchor="middle" x="199" y="-351.7" font-family="Helvetica,sans-Serif" font-size="10.00">chaser_calcul_step</text>
</a>
</g>
<!-- Node1&#45;&gt;Node2 -->
<g id="edge2" class="edge"><title>Node1&#45;&gt;Node2</title>
<path fill="none" stroke="midnightblue" d="M122.252,-352.7C130.962,-352.7 139.777,-352.7 148.175,-352.7"/>
<polygon fill="midnightblue" stroke="midnightblue" points="122.107,-349.2 112.107,-352.7 122.107,-356.2 122.107,-349.2"/>
</g>
<!-- Node23 -->
<g id="node51" class="node"><title>Node23</title>
<a xlink:href="midi__13_8cpp.html#a6dff3d42682b58cc0a9875ee30fb4cd4" target="_top" xlink:title="do_midi_job">
<polygon fill="white" stroke="black" points="743,-331.7 743,-355.7 811,-355.7 811,-331.7 743,-331.7"/>
<text text-anchor="middle" x="777" y="-342.7" font-family="Helvetica,sans-Serif" font-size="10.00">do_midi_job</text>
</a>
</g>
<!-- Node1&#45;&gt;Node23 -->
<g id="edge126" class="edge"><title>Node1&#45;&gt;Node23</title>
<path fill="none" stroke="midnightblue" d="M92.5578,-378.462C136.2,-407.495 212.537,-452.954 286,-470.7 470.012,-515.148 691.262,-395.359 757.411,-355.849"/>
<polygon fill="midnightblue" stroke="midnightblue" points="94.2647,-375.391 84.015,-372.709 90.3549,-381.198 94.2647,-375.391"/>
</g>
<!-- Node41 -->
<g id="node102" class="node"><title>Node41</title>
<a xlink:href="chasers__core__5_8cpp.html#adfa2bcc02958cf7ca155435eb82bb84c" target="_top" xlink:title="Track_draw_logical">
<polygon fill="white" stroke="black" points="149,-260.7 149,-284.7 249,-284.7 249,-260.7 149,-260.7"/>
<text text-anchor="middle" x="199" y="-271.7" font-family="Helvetica,sans-Serif" font-size="10.00">Track_draw_logical</text>
</a>
</g>
<!-- Node1&#45;&gt;Node41 -->
<g id="edge122" class="edge"><title>Node1&#45;&gt;Node41</title>
<path fill="none" stroke="midnightblue" d="M100.838,-327.615C126.276,-313.384 156.969,-296.213 177.184,-284.904"/>
<polygon fill="midnightblue" stroke="midnightblue" points="99.1033,-324.575 92.0849,-332.512 102.521,-330.684 99.1033,-324.575"/>
</g>
<!-- Node3 -->
<g id="node5" class="node"><title>Node3</title>
<a xlink:href="chasers__core__5_8cpp.html#a1d95361a5140157ac0aae6fa94b09cbe" target="_top" xlink:title="do_chaser">
<polygon fill="white" stroke="black" points="309,-437.7 309,-461.7 371,-461.7 371,-437.7 309,-437.7"/>
<text text-anchor="middle" x="340" y="-448.7" font-family="Helvetica,sans-Serif" font-size="10.00">do_chaser</text>
</a>
</g>
<!-- Node2&#45;&gt;Node3 -->
<g id="edge4" class="edge"><title>Node2&#45;&gt;Node3</title>
<path fill="none" stroke="midnightblue" d="M219.454,-371.735C236.445,-386.956 261.686,-408.232 286,-423.7 294.077,-428.838 303.322,-433.641 311.854,-437.686"/>
<polygon fill="midnightblue" stroke="midnightblue" points="221.572,-368.932 211.815,-364.802 216.868,-374.115 221.572,-368.932"/>
</g>
<!-- Node11 -->
<g id="node22" class="node"><title>Node11</title>
<a xlink:href="chasers__core__5_8cpp.html#a128576bedb198e99fd9ca3dace3304d1" target="_top" xlink:title="chaser_seek_at_beg">
<polygon fill="white" stroke="black" points="286.5,-283.7 286.5,-307.7 393.5,-307.7 393.5,-283.7 286.5,-283.7"/>
<text text-anchor="middle" x="340" y="-294.7" font-family="Helvetica,sans-Serif" font-size="10.00">chaser_seek_at_beg</text>
</a>
</g>
<!-- Node2&#45;&gt;Node11 -->
<g id="edge22" class="edge"><title>Node2&#45;&gt;Node11</title>
<path fill="none" stroke="midnightblue" d="M238.282,-336.819C261.031,-327.623 289.213,-316.23 310.141,-307.77"/>
<polygon fill="midnightblue" stroke="midnightblue" points="236.862,-333.618 228.902,-340.611 239.485,-340.108 236.862,-333.618"/>
</g>
<!-- Node2&#45;&gt;Node23 -->
<g id="edge120" class="edge"><title>Node2&#45;&gt;Node23</title>
<path fill="none" stroke="midnightblue" d="M253.605,-367.062C322.266,-383.325 443.783,-406.164 548,-394.7 618.244,-386.972 698.46,-366.293 742.866,-353.768"/>
<polygon fill="midnightblue" stroke="midnightblue" points="254.408,-363.655 243.867,-364.715 252.768,-370.46 254.408,-363.655"/>
</g>
<!-- Node38 -->
<g id="node89" class="node"><title>Node38</title>
<a xlink:href="chasers__core__5_8cpp.html#a965f16d10083f733b1cfda05f4342212" target="_top" xlink:title="do_logical_fenetre\l_chasers">
<polygon fill="white" stroke="black" points="441.5,-143.7 441.5,-183.7 536.5,-183.7 536.5,-143.7 441.5,-143.7"/>
<text text-anchor="start" x="449.5" y="-170.7" font-family="Helvetica,sans-Serif" font-size="10.00">do_logical_fenetre</text>
<text text-anchor="middle" x="489" y="-154.7" font-family="Helvetica,sans-Serif" font-size="10.00">_chasers</text>
</a>
</g>
<!-- Node2&#45;&gt;Node38 -->
<g id="edge118" class="edge"><title>Node2&#45;&gt;Node38</title>
<path fill="none" stroke="midnightblue" d="M217.199,-333.48C233.949,-316.531 260.059,-291.92 286,-274.7 330.225,-245.341 349.484,-252.614 394,-223.7 411.707,-212.198 412.383,-204.339 430,-192.7 434.761,-189.554 439.913,-186.53 445.122,-183.702"/>
<polygon fill="midnightblue" stroke="midnightblue" points="214.663,-331.067 210.195,-340.673 219.679,-335.95 214.663,-331.067"/>
</g>
<!-- Node4 -->
<g id="node7" class="node"><title>Node4</title>
<a xlink:href="_m_a_i_n__avec__objets_8cpp.html#a6a015280c1363331ada8a329be6eb7c8" target="_top" xlink:title="ticker">
<polygon fill="white" stroke="black" points="613.5,-498.7 613.5,-522.7 654.5,-522.7 654.5,-498.7 613.5,-498.7"/>
<text text-anchor="middle" x="634" y="-509.7" font-family="Helvetica,sans-Serif" font-size="10.00">ticker</text>
</a>
</g>
<!-- Node3&#45;&gt;Node4 -->
<g id="edge6" class="edge"><title>Node3&#45;&gt;Node4</title>
<path fill="none" stroke="midnightblue" d="M381.292,-458.267C445.082,-471.502 565.247,-496.434 613.337,-506.412"/>
<polygon fill="midnightblue" stroke="midnightblue" points="381.687,-454.774 371.185,-456.17 380.265,-461.628 381.687,-454.774"/>
</g>
<!-- Node5 -->
<g id="node9" class="node"><title>Node5</title>
<a xlink:href="_c_f_g__config__panel__8_8cpp.html#aff76db94408106be22f658a05f17831a" target="_top" xlink:title="do_core_config">
<polygon fill="white" stroke="black" points="1586.5,-458.7 1586.5,-482.7 1669.5,-482.7 1669.5,-458.7 1586.5,-458.7"/>
<text text-anchor="middle" x="1628" y="-469.7" font-family="Helvetica,sans-Serif" font-size="10.00">do_core_config</text>
</a>
</g>
<!-- Node4&#45;&gt;Node5 -->
<g id="edge8" class="edge"><title>Node4&#45;&gt;Node5</title>
<path fill="none" stroke="midnightblue" d="M664.579,-504.15C719.194,-493.041 837.233,-471.7 938,-471.7 938,-471.7 938,-471.7 1366,-471.7 1443.78,-471.7 1534.55,-471.253 1586.25,-470.957"/>
<polygon fill="midnightblue" stroke="midnightblue" points="663.611,-500.776 654.525,-506.226 665.026,-507.631 663.611,-500.776"/>
</g>
<!-- Node10 -->
<g id="node19" class="node"><title>Node10</title>
<a xlink:href="_m_a_i_n__avec__objets_8cpp.html#ae66f6b31b5ad750f1fe042a706a4e3d4" target="_top" xlink:title="main">
<polygon fill="white" stroke="black" points="2342,-359.7 2342,-383.7 2380,-383.7 2380,-359.7 2342,-359.7"/>
<text text-anchor="middle" x="2361" y="-370.7" font-family="Helvetica,sans-Serif" font-size="10.00">main</text>
</a>
</g>
<!-- Node4&#45;&gt;Node10 -->
<g id="edge20" class="edge"><title>Node4&#45;&gt;Node10</title>
<path fill="none" stroke="midnightblue" d="M664.745,-510.7C719.62,-510.7 838.052,-510.7 938,-510.7 938,-510.7 938,-510.7 2122,-510.7 2222.32,-510.7 2318.13,-418.053 2349.93,-384.035"/>
<polygon fill="midnightblue" stroke="midnightblue" points="664.642,-507.2 654.642,-510.7 664.642,-514.2 664.642,-507.2"/>
</g>
<!-- Node6 -->
<g id="node11" class="node"><title>Node6</title>
<a xlink:href="_c_f_g__config__panel__8_8cpp.html#ad39c46e2fb3a3ba7ea0460140ead4f96" target="_top" xlink:title="do_panel_config">
<polygon fill="white" stroke="black" points="1830.5,-359.7 1830.5,-383.7 1917.5,-383.7 1917.5,-359.7 1830.5,-359.7"/>
<text text-anchor="middle" x="1874" y="-370.7" font-family="Helvetica,sans-Serif" font-size="10.00">do_panel_config</text>
</a>
</g>
<!-- Node5&#45;&gt;Node6 -->
<g id="edge10" class="edge"><title>Node5&#45;&gt;Node6</title>
<path fill="none" stroke="midnightblue" d="M1667.53,-454.79C1716.74,-434.989 1799.67,-401.612 1843.97,-383.783"/>
<polygon fill="midnightblue" stroke="midnightblue" points="1666.13,-451.58 1658.16,-458.56 1668.75,-458.074 1666.13,-451.58"/>
</g>
<!-- Node7 -->
<g id="node13" class="node"><title>Node7</title>
<a xlink:href="_c_f_g__config__panel__8_8cpp.html#a7968da66bccdba8b864caf6c8435f68e" target="_top" xlink:title="config_general_menu">
<polygon fill="white" stroke="black" points="1954.5,-359.7 1954.5,-383.7 2063.5,-383.7 2063.5,-359.7 1954.5,-359.7"/>
<text text-anchor="middle" x="2009" y="-370.7" font-family="Helvetica,sans-Serif" font-size="10.00">config_general_menu</text>
</a>
</g>
<!-- Node6&#45;&gt;Node7 -->
<g id="edge12" class="edge"><title>Node6&#45;&gt;Node7</title>
<path fill="none" stroke="midnightblue" d="M1928.07,-371.7C1936.62,-371.7 1945.47,-371.7 1954.04,-371.7"/>
<polygon fill="midnightblue" stroke="midnightblue" points="1927.83,-368.2 1917.83,-371.7 1927.83,-375.2 1927.83,-368.2"/>
</g>
<!-- Node8 -->
<g id="node15" class="node"><title>Node8</title>
<a xlink:href="graphics__rebuild1_8cpp.html#ac2eae1e03fb72cc734ffbcef566483bf" target="_top" xlink:title="Boxes">
<polygon fill="white" stroke="black" points="2100,-359.7 2100,-383.7 2144,-383.7 2144,-359.7 2100,-359.7"/>
<text text-anchor="middle" x="2122" y="-370.7" font-family="Helvetica,sans-Serif" font-size="10.00">Boxes</text>
</a>
</g>
<!-- Node7&#45;&gt;Node8 -->
<g id="edge14" class="edge"><title>Node7&#45;&gt;Node8</title>
<path fill="none" stroke="midnightblue" d="M2073.75,-371.7C2083.11,-371.7 2092.17,-371.7 2099.86,-371.7"/>
<polygon fill="midnightblue" stroke="midnightblue" points="2073.51,-368.2 2063.51,-371.7 2073.51,-375.2 2073.51,-368.2"/>
</g>
<!-- Node9 -->
<g id="node17" class="node"><title>Node9</title>
<a xlink:href="_m_a_i_n__avec__objets_8cpp.html#ade8d4ba65d55c94f8ee277829d722155" target="_top" xlink:title="main_actions_on_screen">
<polygon fill="white" stroke="black" points="2180.5,-359.7 2180.5,-383.7 2305.5,-383.7 2305.5,-359.7 2180.5,-359.7"/>
<text text-anchor="middle" x="2243" y="-370.7" font-family="Helvetica,sans-Serif" font-size="10.00">main_actions_on_screen</text>
</a>
</g>
<!-- Node8&#45;&gt;Node9 -->
<g id="edge16" class="edge"><title>Node8&#45;&gt;Node9</title>
<path fill="none" stroke="midnightblue" d="M2154.24,-371.7C2162.32,-371.7 2171.26,-371.7 2180.27,-371.7"/>
<polygon fill="midnightblue" stroke="midnightblue" points="2154.19,-368.2 2144.19,-371.7 2154.19,-375.2 2154.19,-368.2"/>
</g>
<!-- Node9&#45;&gt;Node10 -->
<g id="edge18" class="edge"><title>Node9&#45;&gt;Node10</title>
<path fill="none" stroke="midnightblue" d="M2315.84,-371.7C2325.34,-371.7 2334.33,-371.7 2341.75,-371.7"/>
<polygon fill="midnightblue" stroke="midnightblue" points="2315.8,-368.2 2305.8,-371.7 2315.8,-375.2 2315.8,-368.2"/>
</g>
<!-- Node12 -->
<g id="node24" class="node"><title>Node12</title>
<a xlink:href="banger__core__8_8cpp.html#ae4008269e0575da11cc90e812961ef6f" target="_top" xlink:title="Bang_event">
<polygon fill="white" stroke="black" points="455,-243.7 455,-267.7 523,-267.7 523,-243.7 455,-243.7"/>
<text text-anchor="middle" x="489" y="-254.7" font-family="Helvetica,sans-Serif" font-size="10.00">Bang_event</text>
</a>
</g>
<!-- Node11&#45;&gt;Node12 -->
<g id="edge24" class="edge"><title>Node11&#45;&gt;Node12</title>
<path fill="none" stroke="midnightblue" d="M394.408,-281.093C414.578,-275.678 436.873,-269.693 454.749,-264.894"/>
<polygon fill="midnightblue" stroke="midnightblue" points="393.455,-277.725 384.705,-283.698 395.27,-284.486 393.455,-277.725"/>
</g>
<!-- Node18 -->
<g id="node38" class="node"><title>Node18</title>
<a xlink:href="i_cat14_8cpp.html#a16285241f82898e7a5f051b03d90b9a3" target="_top" xlink:title="check_button">
<polygon fill="white" stroke="black" points="739.5,-289.7 739.5,-313.7 814.5,-313.7 814.5,-289.7 739.5,-289.7"/>
<text text-anchor="middle" x="777" y="-300.7" font-family="Helvetica,sans-Serif" font-size="10.00">check_button</text>
</a>
</g>
<!-- Node11&#45;&gt;Node18 -->
<g id="edge114" class="edge"><title>Node11&#45;&gt;Node18</title>
<path fill="none" stroke="midnightblue" d="M403.645,-296.573C496.023,-297.842 664.382,-300.153 739.304,-301.182"/>
<polygon fill="midnightblue" stroke="midnightblue" points="403.632,-293.073 393.585,-296.435 403.536,-300.072 403.632,-293.073"/>
</g>
<!-- Node11&#45;&gt;Node23 -->
<g id="edge116" class="edge"><title>Node11&#45;&gt;Node23</title>
<path fill="none" stroke="midnightblue" d="M403.572,-307.687C412.43,-309.156 421.43,-310.545 430,-311.7 544.218,-327.091 680.597,-337.295 742.908,-341.51"/>
<polygon fill="midnightblue" stroke="midnightblue" points="404.107,-304.227 393.662,-306 402.933,-311.128 404.107,-304.227"/>
</g>
<!-- Node11&#45;&gt;Node38 -->
<g id="edge102" class="edge"><title>Node11&#45;&gt;Node38</title>
<path fill="none" stroke="midnightblue" d="M369.296,-278.01C377.898,-271.944 386.895,-264.657 394,-256.7 415.736,-232.355 406.291,-215.127 430,-192.7 433.482,-189.405 437.41,-186.411 441.544,-183.708"/>
<polygon fill="midnightblue" stroke="midnightblue" points="367.256,-275.165 360.91,-283.649 371.162,-280.974 367.256,-275.165"/>
</g>
<!-- Node39 -->
<g id="node92" class="node"><title>Node39</title>
<a xlink:href="chasers__core__5_8cpp.html#a8f3e3d1bf89886d68b2f81a669d31874" target="_top" xlink:title="do_autolaunch">
<polygon fill="white" stroke="black" points="449,-361.7 449,-385.7 529,-385.7 529,-361.7 449,-361.7"/>
<text text-anchor="middle" x="489" y="-372.7" font-family="Helvetica,sans-Serif" font-size="10.00">do_autolaunch</text>
</a>
</g>
<!-- Node11&#45;&gt;Node39 -->
<g id="edge106" class="edge"><title>Node11&#45;&gt;Node39</title>
<path fill="none" stroke="midnightblue" d="M368.283,-313.102C385.796,-323.609 408.896,-336.993 430,-347.7 439.583,-352.561 450.276,-357.433 459.898,-361.624"/>
<polygon fill="midnightblue" stroke="midnightblue" points="370.043,-310.076 359.674,-307.898 366.422,-316.067 370.043,-310.076"/>
</g>
<!-- Node40 -->
<g id="node95" class="node"><title>Node40</title>
<a xlink:href="faders__core__24_8cpp.html#a7a87eef3a5459bdd689c77b5b02957d7" target="_top" xlink:title="do_logical_FaderSpace">
<polygon fill="white" stroke="black" points="430,-201.7 430,-225.7 548,-225.7 548,-201.7 430,-201.7"/>
<text text-anchor="middle" x="489" y="-212.7" font-family="Helvetica,sans-Serif" font-size="10.00">do_logical_FaderSpace</text>
</a>
</g>
<!-- Node11&#45;&gt;Node40 -->
<g id="edge110" class="edge"><title>Node11&#45;&gt;Node40</title>
<path fill="none" stroke="midnightblue" d="M365.094,-277.641C386.907,-262.14 416.992,-241.287 430,-234.7 436.499,-231.408 443.637,-228.401 450.635,-225.755"/>
<polygon fill="midnightblue" stroke="midnightblue" points="363.011,-274.827 356.903,-283.485 367.077,-280.525 363.011,-274.827"/>
</g>
<!-- Node13 -->
<g id="node26" class="node"><title>Node13</title>
<a xlink:href="banger__core__8_8cpp.html#a4003a08a1620546de77b118c91d2fd9d" target="_top" xlink:title="do_bang">
<polygon fill="white" stroke="black" points="607.5,-163.7 607.5,-187.7 660.5,-187.7 660.5,-163.7 607.5,-163.7"/>
<text text-anchor="middle" x="634" y="-174.7" font-family="Helvetica,sans-Serif" font-size="10.00">do_bang</text>
</a>
</g>
<!-- Node12&#45;&gt;Node13 -->
<g id="edge26" class="edge"><title>Node12&#45;&gt;Node13</title>
<path fill="none" stroke="midnightblue" d="M532.699,-242.807C538.04,-240.47 543.274,-237.777 548,-234.7 567.496,-222.005 564.865,-209.932 584,-196.7 591.047,-191.826 599.402,-187.764 607.244,-184.552"/>
<polygon fill="midnightblue" stroke="midnightblue" points="531.057,-239.693 523.055,-246.637 533.641,-246.199 531.057,-239.693"/>
</g>
<!-- Node15 -->
<g id="node31" class="node"><title>Node15</title>
<a xlink:href="banger__core__8_8cpp.html#a4fe16ad483c0c1609d97aeb9a23c74ee" target="_top" xlink:title="do_logical_fenetre\l_banger">
<polygon fill="white" stroke="black" points="586.5,-88.6995 586.5,-128.7 681.5,-128.7 681.5,-88.6995 586.5,-88.6995"/>
<text text-anchor="start" x="594.5" y="-115.7" font-family="Helvetica,sans-Serif" font-size="10.00">do_logical_fenetre</text>
<text text-anchor="middle" x="634" y="-99.6995" font-family="Helvetica,sans-Serif" font-size="10.00">_banger</text>
</a>
</g>
<!-- Node12&#45;&gt;Node15 -->
<g id="edge32" class="edge"><title>Node12&#45;&gt;Node15</title>
<path fill="none" stroke="midnightblue" d="M532.65,-244.794C538.234,-242.122 543.545,-238.808 548,-234.7 576.662,-208.267 561.189,-186.32 584,-154.7 590.763,-145.325 599.675,-136.387 608.1,-128.924"/>
<polygon fill="midnightblue" stroke="midnightblue" points="531.022,-241.679 523.098,-248.711 533.678,-248.155 531.022,-241.679"/>
</g>
<!-- Node17 -->
<g id="node36" class="node"><title>Node17</title>
<a xlink:href="banger__core__8_8cpp.html#ab405ab53ea444b049e5ffa258498fcb6" target="_top" xlink:title="refresh_banger_wx">
<polygon fill="white" stroke="black" points="584.5,-205.7 584.5,-229.7 683.5,-229.7 683.5,-205.7 584.5,-205.7"/>
<text text-anchor="middle" x="634" y="-216.7" font-family="Helvetica,sans-Serif" font-size="10.00">refresh_banger_wx</text>
</a>
</g>
<!-- Node12&#45;&gt;Node17 -->
<g id="edge38" class="edge"><title>Node12&#45;&gt;Node17</title>
<path fill="none" stroke="midnightblue" d="M533.256,-244.101C550.625,-239.549 570.558,-234.326 588.085,-229.732"/>
<polygon fill="midnightblue" stroke="midnightblue" points="532.149,-240.773 523.363,-246.694 533.924,-247.545 532.149,-240.773"/>
</g>
<!-- Node12&#45;&gt;Node23 -->
<g id="edge100" class="edge"><title>Node12&#45;&gt;Node23</title>
<path fill="none" stroke="midnightblue" d="M533.082,-269.169C590.759,-286.793 690.614,-317.304 742.876,-333.273"/>
<polygon fill="midnightblue" stroke="midnightblue" points="533.755,-265.715 523.168,-266.14 531.709,-272.409 533.755,-265.715"/>
</g>
<!-- Node14 -->
<g id="node28" class="node"><title>Node14</title>
<a xlink:href="_m_a_i_n__avec__objets_8cpp.html#a8e80f54ac804eddce8ed6e45adb1db44" target="_top" xlink:title="ticker_full_loop">
<polygon fill="white" stroke="black" points="1042,-208.7 1042,-232.7 1124,-232.7 1124,-208.7 1042,-208.7"/>
<text text-anchor="middle" x="1083" y="-219.7" font-family="Helvetica,sans-Serif" font-size="10.00">ticker_full_loop</text>
</a>
</g>
<!-- Node13&#45;&gt;Node14 -->
<g id="edge28" class="edge"><title>Node13&#45;&gt;Node14</title>
<path fill="none" stroke="midnightblue" d="M670.906,-175.625C738.058,-176.033 884.51,-179.427 1006,-199.7 1018.85,-201.843 1032.64,-205.244 1044.96,-208.69"/>
<polygon fill="midnightblue" stroke="midnightblue" points="670.84,-172.125 660.825,-175.583 670.81,-179.125 670.84,-172.125"/>
</g>
<!-- Node14&#45;&gt;Node10 -->
<g id="edge30" class="edge"><title>Node14&#45;&gt;Node10</title>
<path fill="none" stroke="midnightblue" d="M1134.37,-223.606C1191.06,-226.558 1285.01,-230.7 1366,-230.7 1366,-230.7 1366,-230.7 2122,-230.7 2211.71,-230.7 2232.87,-261.73 2306,-313.7 2324.32,-326.722 2341.48,-346.489 2351.61,-359.25"/>
<polygon fill="midnightblue" stroke="midnightblue" points="1134.4,-220.102 1124.23,-223.069 1134.03,-227.093 1134.4,-220.102"/>
</g>
<!-- Node16 -->
<g id="node33" class="node"><title>Node16</title>
<a xlink:href="procs__visuels__rebuild1_8cpp.html#ae710b6e599e321ad5934a90140067054" target="_top" xlink:title="check_graphics_mouse\l_handling">
<polygon fill="white" stroke="black" points="878.5,-61.6995 878.5,-101.7 997.5,-101.7 997.5,-61.6995 878.5,-61.6995"/>
<text text-anchor="start" x="886.5" y="-88.6995" font-family="Helvetica,sans-Serif" font-size="10.00">check_graphics_mouse</text>
<text text-anchor="middle" x="938" y="-72.6995" font-family="Helvetica,sans-Serif" font-size="10.00">_handling</text>
</a>
</g>
<!-- Node15&#45;&gt;Node16 -->
<g id="edge34" class="edge"><title>Node15&#45;&gt;Node16</title>
<path fill="none" stroke="midnightblue" d="M691.843,-103.272C701.253,-102.403 710.897,-101.52 720,-100.7 773.54,-95.8762 834.496,-90.5801 878.312,-86.8075"/>
<polygon fill="midnightblue" stroke="midnightblue" points="691.393,-99.7988 681.759,-104.207 692.039,-106.769 691.393,-99.7988"/>
</g>
<!-- Node16&#45;&gt;Node14 -->
<g id="edge36" class="edge"><title>Node16&#45;&gt;Node14</title>
<path fill="none" stroke="midnightblue" d="M966.699,-109.211C998.257,-139.463 1047.52,-186.692 1070.46,-208.682"/>
<polygon fill="midnightblue" stroke="midnightblue" points="968.725,-106.305 959.084,-101.911 963.881,-111.358 968.725,-106.305"/>
</g>
<!-- Node17&#45;&gt;Node18 -->
<g id="edge40" class="edge"><title>Node17&#45;&gt;Node18</title>
<path fill="none" stroke="midnightblue" d="M670.283,-234.793C675.043,-237.542 679.742,-240.534 684,-243.7 702.413,-257.389 700.759,-268.202 720,-280.7 725.926,-284.548 732.654,-287.821 739.359,-290.555"/>
<polygon fill="midnightblue" stroke="midnightblue" points="671.608,-231.529 661.151,-229.824 668.262,-237.678 671.608,-231.529"/>
</g>
<!-- Node20 -->
<g id="node43" class="node"><title>Node20</title>
<a xlink:href="keyboard__functions2_8cpp.html#af3dd6697323b10b480719c1612bcf29a" target="_top" xlink:title="key_backward">
<polygon fill="white" stroke="black" points="737,-247.7 737,-271.7 817,-271.7 817,-247.7 737,-247.7"/>
<text text-anchor="middle" x="777" y="-258.7" font-family="Helvetica,sans-Serif" font-size="10.00">key_backward</text>
</a>
</g>
<!-- Node17&#45;&gt;Node20 -->
<g id="edge46" class="edge"><title>Node17&#45;&gt;Node20</title>
<path fill="none" stroke="midnightblue" d="M684.746,-232.604C701.727,-237.591 720.418,-243.081 736.51,-247.807"/>
<polygon fill="midnightblue" stroke="midnightblue" points="685.559,-229.195 674.978,-229.735 683.586,-235.911 685.559,-229.195"/>
</g>
<!-- Node22 -->
<g id="node48" class="node"><title>Node22</title>
<a xlink:href="keyboard__functions2_8cpp.html#a6b73a3669797504ce2e357d9a8b9a2c2" target="_top" xlink:title="key_forward">
<polygon fill="white" stroke="black" points="742,-205.7 742,-229.7 812,-229.7 812,-205.7 742,-205.7"/>
<text text-anchor="middle" x="777" y="-216.7" font-family="Helvetica,sans-Serif" font-size="10.00">key_forward</text>
</a>
</g>
<!-- Node17&#45;&gt;Node22 -->
<g id="edge52" class="edge"><title>Node17&#45;&gt;Node22</title>
<path fill="none" stroke="midnightblue" d="M693.687,-217.7C710.095,-217.7 727.356,-217.7 741.885,-217.7"/>
<polygon fill="midnightblue" stroke="midnightblue" points="693.613,-214.2 683.613,-217.7 693.613,-221.2 693.613,-214.2"/>
</g>
<!-- Node17&#45;&gt;Node23 -->
<g id="edge56" class="edge"><title>Node17&#45;&gt;Node23</title>
<path fill="none" stroke="midnightblue" d="M673.87,-235.161C677.546,-237.704 681.007,-240.546 684,-243.7 710.566,-271.682 691.718,-296.452 720,-322.7 726.416,-328.654 734.663,-332.955 742.88,-336.048"/>
<polygon fill="midnightblue" stroke="midnightblue" points="675.381,-231.983 665.022,-229.761 671.735,-237.958 675.381,-231.983"/>
</g>
<!-- Node37 -->
<g id="node85" class="node"><title>Node37</title>
<a xlink:href="sequentiel__6__core_8cpp.html#a2a71c851cf25565491dd10423bc80380" target="_top" xlink:title="do_logical_Sequenciel\l_Window">
<polygon fill="white" stroke="black" points="720.5,-109.7 720.5,-149.7 833.5,-149.7 833.5,-109.7 720.5,-109.7"/>
<text text-anchor="start" x="728.5" y="-136.7" font-family="Helvetica,sans-Serif" font-size="10.00">do_logical_Sequenciel</text>
<text text-anchor="middle" x="777" y="-120.7" font-family="Helvetica,sans-Serif" font-size="10.00">_Window</text>
</a>
</g>
<!-- Node17&#45;&gt;Node37 -->
<g id="edge96" class="edge"><title>Node17&#45;&gt;Node37</title>
<path fill="none" stroke="midnightblue" d="M675.025,-201.373C678.103,-199.874 681.126,-198.311 684,-196.7 708.474,-182.978 734.201,-164.047 752.376,-149.807"/>
<polygon fill="midnightblue" stroke="midnightblue" points="673.344,-198.293 665.725,-205.655 676.272,-204.652 673.344,-198.293"/>
</g>
<!-- Node19 -->
<g id="node40" class="node"><title>Node19</title>
<a xlink:href="i_cat14_8cpp.html#aa9772b548765a631d4bae1c14053b4e1" target="_top" xlink:title="DoJobFantastickTouch">
<polygon fill="white" stroke="black" points="879.5,-271.7 879.5,-295.7 996.5,-295.7 996.5,-271.7 879.5,-271.7"/>
<text text-anchor="middle" x="938" y="-282.7" font-family="Helvetica,sans-Serif" font-size="10.00">DoJobFantastickTouch</text>
</a>
</g>
<!-- Node18&#45;&gt;Node19 -->
<g id="edge42" class="edge"><title>Node18&#45;&gt;Node19</title>
<path fill="none" stroke="midnightblue" d="M825.039,-296.329C842.111,-294.42 861.521,-292.25 879.378,-290.254"/>
<polygon fill="midnightblue" stroke="midnightblue" points="824.297,-292.89 814.747,-297.479 825.074,-299.846 824.297,-292.89"/>
</g>
<!-- Node19&#45;&gt;Node14 -->
<g id="edge44" class="edge"><title>Node19&#45;&gt;Node14</title>
<path fill="none" stroke="midnightblue" d="M975.446,-267.43C1000.34,-256.615 1032.49,-242.647 1055.13,-232.809"/>
<polygon fill="midnightblue" stroke="midnightblue" points="973.734,-264.357 965.957,-271.552 976.524,-270.778 973.734,-264.357"/>
</g>
<!-- Node21 -->
<g id="node45" class="node"><title>Node21</title>
<a xlink:href="keyboard__routines2_8cpp.html#a8563320b8eab661232619224650de244" target="_top" xlink:title="commandes_clavier">
<polygon fill="white" stroke="black" points="886,-208.7 886,-232.7 990,-232.7 990,-208.7 886,-208.7"/>
<text text-anchor="middle" x="938" y="-219.7" font-family="Helvetica,sans-Serif" font-size="10.00">commandes_clavier</text>
</a>
</g>
<!-- Node20&#45;&gt;Node21 -->
<g id="edge48" class="edge"><title>Node20&#45;&gt;Node21</title>
<path fill="none" stroke="midnightblue" d="M827.105,-247.562C846.565,-242.848 868.802,-237.462 888.229,-232.756"/>
<polygon fill="midnightblue" stroke="midnightblue" points="826.107,-244.203 817.212,-249.959 827.755,-251.006 826.107,-244.203"/>
</g>
<!-- Node21&#45;&gt;Node14 -->
<g id="edge50" class="edge"><title>Node21&#45;&gt;Node14</title>
<path fill="none" stroke="midnightblue" d="M1000.39,-220.7C1014.34,-220.7 1028.79,-220.7 1041.64,-220.7"/>
<polygon fill="midnightblue" stroke="midnightblue" points="1000.35,-217.2 990.348,-220.7 1000.35,-224.2 1000.35,-217.2"/>
</g>
<!-- Node22&#45;&gt;Node21 -->
<g id="edge54" class="edge"><title>Node22&#45;&gt;Node21</title>
<path fill="none" stroke="midnightblue" d="M822.598,-218.549C842.329,-218.917 865.53,-219.349 885.934,-219.729"/>
<polygon fill="midnightblue" stroke="midnightblue" points="822.396,-215.045 812.332,-218.358 822.265,-222.044 822.396,-215.045"/>
</g>
<!-- Node24 -->
<g id="node53" class="node"><title>Node24</title>
<a xlink:href="midi__13_8cpp.html#a6bedf9750195224914cd87c4e73ab626" target="_top" xlink:title="ventilate_midi_to_midiarray">
<polygon fill="white" stroke="black" points="870.5,-331.7 870.5,-355.7 1005.5,-355.7 1005.5,-331.7 870.5,-331.7"/>
<text text-anchor="middle" x="938" y="-342.7" font-family="Helvetica,sans-Serif" font-size="10.00">ventilate_midi_to_midiarray</text>
</a>
</g>
<!-- Node23&#45;&gt;Node24 -->
<g id="edge58" class="edge"><title>Node23&#45;&gt;Node24</title>
<path fill="none" stroke="midnightblue" d="M821.272,-343.7C836.455,-343.7 853.811,-343.7 870.414,-343.7"/>
<polygon fill="midnightblue" stroke="midnightblue" points="821.144,-340.2 811.144,-343.7 821.144,-347.2 821.144,-340.2"/>
</g>
<!-- Node25 -->
<g id="node55" class="node"><title>Node25</title>
<a xlink:href="midi__13_8cpp.html#afa49dd5668303c2448676c8243737c2d" target="_top" xlink:title="simulate_midi">
<polygon fill="white" stroke="black" points="1044.5,-329.7 1044.5,-353.7 1121.5,-353.7 1121.5,-329.7 1044.5,-329.7"/>
<text text-anchor="middle" x="1083" y="-340.7" font-family="Helvetica,sans-Serif" font-size="10.00">simulate_midi</text>
</a>
</g>
<!-- Node24&#45;&gt;Node25 -->
<g id="edge60" class="edge"><title>Node24&#45;&gt;Node25</title>
<path fill="none" stroke="midnightblue" d="M1016.1,-342.622C1025.94,-342.487 1035.64,-342.353 1044.47,-342.231"/>
<polygon fill="midnightblue" stroke="midnightblue" points="1015.78,-339.126 1005.83,-342.764 1015.88,-346.126 1015.78,-339.126"/>
</g>
<!-- Node29 -->
<g id="node65" class="node"><title>Node29</title>
<a xlink:href="midi__13_8cpp.html#a4104c2ae7e71376ad9dc78929450dc51" target="_top" xlink:title="EvAquire">
<polygon fill="white" stroke="black" points="1055,-375.7 1055,-399.7 1111,-399.7 1111,-375.7 1055,-375.7"/>
<text text-anchor="middle" x="1083" y="-386.7" font-family="Helvetica,sans-Serif" font-size="10.00">EvAquire</text>
</a>
</g>
<!-- Node24&#45;&gt;Node29 -->
<g id="edge72" class="edge"><title>Node24&#45;&gt;Node29</title>
<path fill="none" stroke="midnightblue" d="M987.374,-358.682C1009.91,-365.52 1035.77,-373.368 1054.91,-379.177"/>
<polygon fill="midnightblue" stroke="midnightblue" points="988.207,-355.277 977.622,-355.723 986.175,-361.976 988.207,-355.277"/>
</g>
<!-- Node26 -->
<g id="node57" class="node"><title>Node26</title>
<a xlink:href="arduino__core__6___u_n_o_8cpp.html#ae72d1a8d74d9ab5515962e03e7e664d6" target="_top" xlink:title="arduino_do_analog_in\l_whitecat">
<polygon fill="white" stroke="black" points="1160,-321.7 1160,-361.7 1270,-361.7 1270,-321.7 1160,-321.7"/>
<text text-anchor="start" x="1168" y="-348.7" font-family="Helvetica,sans-Serif" font-size="10.00">arduino_do_analog_in</text>
<text text-anchor="middle" x="1215" y="-332.7" font-family="Helvetica,sans-Serif" font-size="10.00">_whitecat</text>
</a>
</g>
<!-- Node25&#45;&gt;Node26 -->
<g id="edge62" class="edge"><title>Node25&#45;&gt;Node26</title>
<path fill="none" stroke="midnightblue" d="M1131.69,-341.7C1140.9,-341.7 1150.6,-341.7 1159.99,-341.7"/>
<polygon fill="midnightblue" stroke="midnightblue" points="1131.53,-338.2 1121.53,-341.7 1131.53,-345.2 1131.53,-338.2"/>
</g>
<!-- Node28 -->
<g id="node62" class="node"><title>Node28</title>
<a xlink:href="arduino__core__6___u_n_o_8cpp.html#a219226c1cd6cc17c78e62fd4445bb445" target="_top" xlink:title="arduino_do_digital\l_in_whitecat">
<polygon fill="white" stroke="black" points="1167.5,-263.7 1167.5,-303.7 1262.5,-303.7 1262.5,-263.7 1167.5,-263.7"/>
<text text-anchor="start" x="1175.5" y="-290.7" font-family="Helvetica,sans-Serif" font-size="10.00">arduino_do_digital</text>
<text text-anchor="middle" x="1215" y="-274.7" font-family="Helvetica,sans-Serif" font-size="10.00">_in_whitecat</text>
</a>
</g>
<!-- Node25&#45;&gt;Node28 -->
<g id="edge68" class="edge"><title>Node25&#45;&gt;Node28</title>
<path fill="none" stroke="midnightblue" d="M1119.54,-325.645C1134.92,-318.887 1152.98,-310.95 1169.23,-303.809"/>
<polygon fill="midnightblue" stroke="midnightblue" points="1118.1,-322.455 1110.35,-329.682 1120.91,-328.863 1118.1,-322.455"/>
</g>
<!-- Node27 -->
<g id="node59" class="node"><title>Node27</title>
<a xlink:href="_m_a_i_n__avec__objets_8cpp.html#ace9c8a9b37c6087c3cffef442d71d70e" target="_top" xlink:title="dixiemes_de_secondes">
<polygon fill="white" stroke="black" points="1306.5,-300.7 1306.5,-324.7 1425.5,-324.7 1425.5,-300.7 1306.5,-300.7"/>
<text text-anchor="middle" x="1366" y="-311.7" font-family="Helvetica,sans-Serif" font-size="10.00">dixiemes_de_secondes</text>
</a>
</g>
<!-- Node26&#45;&gt;Node27 -->
<g id="edge64" class="edge"><title>Node26&#45;&gt;Node27</title>
<path fill="none" stroke="midnightblue" d="M1280.38,-329.143C1289,-327.488 1297.8,-325.798 1306.32,-324.162"/>
<polygon fill="midnightblue" stroke="midnightblue" points="1279.53,-325.742 1270.37,-331.066 1280.85,-332.617 1279.53,-325.742"/>
</g>
<!-- Node27&#45;&gt;Node10 -->
<g id="edge66" class="edge"><title>Node27&#45;&gt;Node10</title>
<path fill="none" stroke="midnightblue" d="M1435.83,-312.7C1488.62,-312.7 1562.86,-312.7 1628,-312.7 1628,-312.7 1628,-312.7 2122,-312.7 2205.98,-312.7 2301.85,-347.461 2341.88,-363.62"/>
<polygon fill="midnightblue" stroke="midnightblue" points="1435.57,-309.2 1425.57,-312.7 1435.57,-316.2 1435.57,-309.2"/>
</g>
<!-- Node28&#45;&gt;Node27 -->
<g id="edge70" class="edge"><title>Node28&#45;&gt;Node27</title>
<path fill="none" stroke="midnightblue" d="M1272.71,-294.782C1283.71,-296.896 1295.25,-299.113 1306.32,-301.238"/>
<polygon fill="midnightblue" stroke="midnightblue" points="1273.26,-291.324 1262.78,-292.875 1271.94,-298.199 1273.26,-291.324"/>
</g>
<!-- Node30 -->
<g id="node67" class="node"><title>Node30</title>
<a xlink:href="midi__13_8cpp.html#a831f1dfc7870ae4f6c64a0e65fbaf3ff" target="_top" xlink:title="Display">
<polygon fill="white" stroke="black" points="1190,-379.7 1190,-403.7 1240,-403.7 1240,-379.7 1190,-379.7"/>
<text text-anchor="middle" x="1215" y="-390.7" font-family="Helvetica,sans-Serif" font-size="10.00">Display</text>
</a>
</g>
<!-- Node29&#45;&gt;Node30 -->
<g id="edge74" class="edge"><title>Node29&#45;&gt;Node30</title>
<path fill="none" stroke="midnightblue" d="M1121.37,-388.862C1143.42,-389.53 1170.5,-390.351 1189.85,-390.937"/>
<polygon fill="midnightblue" stroke="midnightblue" points="1121.42,-385.362 1111.32,-388.558 1121.21,-392.359 1121.42,-385.362"/>
</g>
<!-- Node31 -->
<g id="node69" class="node"><title>Node31</title>
<a xlink:href="midi__13_8cpp.html#aa4aeee5088a4a5462566dfee5c9cc71f" target="_top" xlink:title="DisplayTask">
<polygon fill="white" stroke="black" points="1330.5,-358.7 1330.5,-382.7 1401.5,-382.7 1401.5,-358.7 1330.5,-358.7"/>
<text text-anchor="middle" x="1366" y="-369.7" font-family="Helvetica,sans-Serif" font-size="10.00">DisplayTask</text>
</a>
</g>
<!-- Node30&#45;&gt;Node31 -->
<g id="edge76" class="edge"><title>Node30&#45;&gt;Node31</title>
<path fill="none" stroke="midnightblue" d="M1250.42,-386.773C1274.53,-383.42 1306.32,-378.999 1330.46,-375.643"/>
<polygon fill="midnightblue" stroke="midnightblue" points="1249.7,-383.34 1240.27,-388.185 1250.66,-390.274 1249.7,-383.34"/>
</g>
<!-- Node33 -->
<g id="node74" class="node"><title>Node33</title>
<a xlink:href="midi___c_o_r_e_8cpp.html#a6fcb4c2efe85f50488d7aeeef1fc0a3e" target="_top" xlink:title="ReceiveEvents">
<polygon fill="white" stroke="black" points="1324.5,-400.7 1324.5,-424.7 1407.5,-424.7 1407.5,-400.7 1324.5,-400.7"/>
<text text-anchor="middle" x="1366" y="-411.7" font-family="Helvetica,sans-Serif" font-size="10.00">ReceiveEvents</text>
</a>
</g>
<!-- Node30&#45;&gt;Node33 -->
<g id="edge82" class="edge"><title>Node30&#45;&gt;Node33</title>
<path fill="none" stroke="midnightblue" d="M1250.26,-396.603C1272.42,-399.685 1301.1,-403.674 1324.37,-406.91"/>
<polygon fill="midnightblue" stroke="midnightblue" points="1250.66,-393.125 1240.27,-395.214 1249.7,-400.059 1250.66,-393.125"/>
</g>
<!-- Node32 -->
<g id="node71" class="node"><title>Node32</title>
<a xlink:href="midi___c_o_r_e_8cpp.html#a7d0f82d882071792d6a2df51ef13ec55" target="_top" xlink:title="ReceivePolling">
<polygon fill="white" stroke="black" points="1462,-358.7 1462,-382.7 1544,-382.7 1544,-358.7 1462,-358.7"/>
<text text-anchor="middle" x="1503" y="-369.7" font-family="Helvetica,sans-Serif" font-size="10.00">ReceivePolling</text>
</a>
</g>
<!-- Node31&#45;&gt;Node32 -->
<g id="edge78" class="edge"><title>Node31&#45;&gt;Node32</title>
<path fill="none" stroke="midnightblue" d="M1411.91,-370.7C1428.02,-370.7 1446.01,-370.7 1461.72,-370.7"/>
<polygon fill="midnightblue" stroke="midnightblue" points="1411.64,-367.2 1401.64,-370.7 1411.64,-374.2 1411.64,-367.2"/>
</g>
<!-- Node32&#45;&gt;Node32 -->
<g id="edge80" class="edge"><title>Node32&#45;&gt;Node32</title>
<path fill="none" stroke="midnightblue" d="M1480.51,-392.701C1482.81,-397.347 1490.31,-400.7 1503,-400.7 1523.83,-400.7 1530.66,-391.671 1523.5,-382.713"/>
<polygon fill="midnightblue" stroke="midnightblue" points="1483.98,-393.204 1482.5,-382.713 1477.12,-391.84 1483.98,-393.204"/>
</g>
<!-- Node33&#45;&gt;Node32 -->
<g id="edge84" class="edge"><title>Node33&#45;&gt;Node32</title>
<path fill="none" stroke="midnightblue" d="M1414.99,-397.681C1430.99,-392.775 1448.54,-387.394 1463.74,-382.737"/>
<polygon fill="midnightblue" stroke="midnightblue" points="1413.79,-394.387 1405.26,-400.664 1415.85,-401.079 1413.79,-394.387"/>
</g>
<!-- Node34 -->
<g id="node77" class="node"><title>Node34</title>
<a xlink:href="midi___c_o_r_e_8cpp.html#a0ccf480a33424e626f88d109d53d8366" target="_top" xlink:title="InitMidi">
<polygon fill="white" stroke="black" points="1479,-418.7 1479,-442.7 1527,-442.7 1527,-418.7 1479,-418.7"/>
<text text-anchor="middle" x="1503" y="-429.7" font-family="Helvetica,sans-Serif" font-size="10.00">InitMidi</text>
</a>
</g>
<!-- Node33&#45;&gt;Node34 -->
<g id="edge86" class="edge"><title>Node33&#45;&gt;Node34</title>
<path fill="none" stroke="midnightblue" d="M1417.93,-419.522C1438.89,-422.277 1462.06,-425.321 1478.92,-427.536"/>
<polygon fill="midnightblue" stroke="midnightblue" points="1418.22,-416.03 1407.85,-418.198 1417.31,-422.971 1418.22,-416.03"/>
</g>
<!-- Node34&#45;&gt;Node10 -->
<g id="edge88" class="edge"><title>Node34&#45;&gt;Node10</title>
<path fill="none" stroke="midnightblue" d="M1537.32,-430.7C1585.49,-430.7 1675.93,-430.7 1753,-430.7 1753,-430.7 1753,-430.7 2122,-430.7 2205.98,-430.7 2301.85,-395.938 2341.88,-379.779"/>
<polygon fill="midnightblue" stroke="midnightblue" points="1537.13,-427.2 1527.13,-430.7 1537.13,-434.2 1537.13,-427.2"/>
</g>
<!-- Node35 -->
<g id="node80" class="node"><title>Node35</title>
<a xlink:href="midi__13_8cpp.html#ac7a306aa81e374b447e7341d4d3a3eea" target="_top" xlink:title="midipage_devices">
<polygon fill="white" stroke="black" points="1580.5,-359.7 1580.5,-383.7 1675.5,-383.7 1675.5,-359.7 1580.5,-359.7"/>
<text text-anchor="middle" x="1628" y="-370.7" font-family="Helvetica,sans-Serif" font-size="10.00">midipage_devices</text>
</a>
</g>
<!-- Node34&#45;&gt;Node35 -->
<g id="edge90" class="edge"><title>Node34&#45;&gt;Node35</title>
<path fill="none" stroke="midnightblue" d="M1536.18,-415.04C1556.88,-405.27 1583.12,-392.881 1602.25,-383.853"/>
<polygon fill="midnightblue" stroke="midnightblue" points="1534.65,-411.89 1527.1,-419.324 1537.64,-418.22 1534.65,-411.89"/>
</g>
<!-- Node36 -->
<g id="node82" class="node"><title>Node36</title>
<a xlink:href="midi__13_8cpp.html#a8f70acacad6eaba8867bdd80dda5e277" target="_top" xlink:title="do_midi_config">
<polygon fill="white" stroke="black" points="1712,-340.7 1712,-364.7 1794,-364.7 1794,-340.7 1712,-340.7"/>
<text text-anchor="middle" x="1753" y="-351.7" font-family="Helvetica,sans-Serif" font-size="10.00">do_midi_config</text>
</a>
</g>
<!-- Node35&#45;&gt;Node36 -->
<g id="edge92" class="edge"><title>Node35&#45;&gt;Node36</title>
<path fill="none" stroke="midnightblue" d="M1685.77,-362.919C1694.5,-361.592 1703.35,-360.246 1711.65,-358.985"/>
<polygon fill="midnightblue" stroke="midnightblue" points="1684.97,-359.499 1675.61,-364.462 1686.03,-366.42 1684.97,-359.499"/>
</g>
<!-- Node36&#45;&gt;Node6 -->
<g id="edge94" class="edge"><title>Node36&#45;&gt;Node6</title>
<path fill="none" stroke="midnightblue" d="M1804.33,-360.76C1813.01,-362.123 1821.95,-363.526 1830.41,-364.854"/>
<polygon fill="midnightblue" stroke="midnightblue" points="1804.72,-357.279 1794.3,-359.185 1803.64,-364.194 1804.72,-357.279"/>
</g>
<!-- Node37&#45;&gt;Node16 -->
<g id="edge98" class="edge"><title>Node37&#45;&gt;Node16</title>
<path fill="none" stroke="midnightblue" d="M843.408,-109.901C855.03,-106.436 867.057,-102.85 878.478,-99.4451"/>
<polygon fill="midnightblue" stroke="midnightblue" points="842.346,-106.565 833.763,-112.777 844.346,-113.273 842.346,-106.565"/>
</g>
<!-- Node38&#45;&gt;Node16 -->
<g id="edge104" class="edge"><title>Node38&#45;&gt;Node16</title>
<path fill="none" stroke="midnightblue" d="M500.186,-134.156C514.239,-101.777 541.757,-51.5334 584,-29.6995 682.706,21.3176 725.861,-4.17141 834,-29.6995 860.13,-35.868 887.18,-49.6625 907.142,-61.4942"/>
<polygon fill="midnightblue" stroke="midnightblue" points="496.874,-133.003 496.255,-143.58 503.335,-135.698 496.874,-133.003"/>
</g>
<!-- Node39&#45;&gt;Node4 -->
<g id="edge108" class="edge"><title>Node39&#45;&gt;Node4</title>
<path fill="none" stroke="midnightblue" d="M509.321,-392.899C539.575,-421.484 595.611,-474.429 620.953,-498.372"/>
<polygon fill="midnightblue" stroke="midnightblue" points="511.54,-390.181 501.868,-385.857 506.733,-395.269 511.54,-390.181"/>
</g>
<!-- Node40&#45;&gt;Node16 -->
<g id="edge112" class="edge"><title>Node40&#45;&gt;Node16</title>
<path fill="none" stroke="midnightblue" d="M544.638,-195.828C545.813,-194.84 546.937,-193.799 548,-192.7 584.641,-154.809 541.446,-110.804 584,-79.6995 670.211,-16.6848 802.467,-40.1289 878.552,-61.6984"/>
<polygon fill="midnightblue" stroke="midnightblue" points="542.508,-193.044 536.24,-201.586 546.467,-198.817 542.508,-193.044"/>
</g>
<!-- Node41&#45;&gt;Node38 -->
<g id="edge124" class="edge"><title>Node41&#45;&gt;Node38</title>
<path fill="none" stroke="midnightblue" d="M229.497,-255.781C245.94,-247.042 266.755,-236.589 286,-228.7 338.045,-207.363 399.852,-188.449 441.481,-176.602"/>
<polygon fill="midnightblue" stroke="midnightblue" points="227.512,-252.874 220.365,-260.695 230.829,-259.038 227.512,-252.874"/>
</g>
</g>
</svg>
        <g id="navigator" transform="translate(0 0)" fill="#404254">
                <rect fill="#f2f5e9" fill-opacity="0.5" stroke="#606060" stroke-width=".5" x="0" y="0" width="60" height="60"/>
                <use id="zoomplus" xlink:href="#zoomPlus" x="17" y="9" onmousedown="handleZoom(evt,'in')"/>
                <use id="zoomminus" xlink:href="#zoomMin" x="42" y="9" onmousedown="handleZoom(evt,'out')"/>
                <use id="reset" xlink:href="#resetDef" x="30" y="36" onmousedown="handleReset()"/>
                <g id="arrowUp" xlink:href="#dirArrow" transform="translate(30 24)" onmousedown="handlePan(0,-1)">
                  <use xlink:href="#rim" fill="#404040">
                        <set attributeName="fill" to="#808080" begin="arrowUp.mouseover" end="arrowUp.mouseout"/>
                  </use>
                  <path fill="none" stroke="white" stroke-width="1.5" d="M0,-3.0v7 M-2.5,-0.5L0,-3.0L2.5,-0.5"/>
                </g>
                <g id="arrowRight" xlink:href="#dirArrow" transform="rotate(90) translate(36 -43)" onmousedown="handlePan(1,0)">
                  <use xlink:href="#rim" fill="#404040">
                        <set attributeName="fill" to="#808080" begin="arrowRight.mouseover" end="arrowRight.mouseout"/>
                  </use>
                  <path fill="none" stroke="white" stroke-width="1.5" d="M0,-3.0v7 M-2.5,-0.5L0,-3.0L2.5,-0.5"/>
                </g>
                <g id="arrowDown" xlink:href="#dirArrow" transform="rotate(180) translate(-30 -48)" onmousedown="handlePan(0,1)">
                  <use xlink:href="#rim" fill="#404040">
                        <set attributeName="fill" to="#808080" begin="arrowDown.mouseover" end="arrowDown.mouseout"/>
                  </use>
                  <path fill="none" stroke="white" stroke-width="1.5" d="M0,-3.0v7 M-2.5,-0.5L0,-3.0L2.5,-0.5"/>
                </g>
                <g id="arrowLeft" xlink:href="#dirArrow" transform="rotate(270) translate(-36 17)" onmousedown="handlePan(-1,0)">
                  <use xlink:href="#rim" fill="#404040">
                        <set attributeName="fill" to="#808080" begin="arrowLeft.mouseover" end="arrowLeft.mouseout"/>
                  </use>
                  <path fill="none" stroke="white" stroke-width="1.5" d="M0,-3.0v7 M-2.5,-0.5L0,-3.0L2.5,-0.5"/>
                </g>
        </g>
        <svg viewBox="0 0 15 15" width="100%" height="30px" preserveAspectRatio="xMaxYMin meet">
         <g id="arrow_out" transform="scale(0.3 0.3)">
          <a xlink:href="chasers__core__5_8cpp_a91fb9c1ef62ff51adbf81dfdc900fb04_icgraph_org.svg" target="_base">
           <rect id="button" ry="5" rx="5" y="6" x="6" height="38" width="38"
                fill="#f2f5e9" fill-opacity="0.5" stroke="#606060" stroke-width="1.0"/>
           <path id="arrow"
             d="M 11.500037,31.436501 C 11.940474,20.09759 22.043105,11.32322 32.158766,21.979434 L 37.068811,17.246167 C 37.068811,17.246167 37.088388,32 37.088388,32 L 22.160133,31.978069 C 22.160133,31.978069 26.997745,27.140456 26.997745,27.140456 C 18.528582,18.264221 13.291696,25.230495 11.500037,31.436501 z"
             style="fill:#404040;"/>
          </a>
         </g>
        </svg>
</svg>
