<?xml version="1.0" encoding="UTF-8" standalone="no"?>
<!DOCTYPE svg PUBLIC "-//W3C//DTD SVG 1.1//EN"
 "http://www.w3.org/Graphics/SVG/1.1/DTD/svg11.dtd">
<!-- Generated by graphviz version 2.26.3 (20100126.1600)
 -->
<!-- Title: refresh_chaser_window_timeline_for_midi_out Pages: 1 -->
<svg width="912pt" height="60pt"
 viewBox="0.00 0.00 912.00 60.00" xmlns="http://www.w3.org/2000/svg" xmlns:xlink="http://www.w3.org/1999/xlink">
<g id="graph1" class="graph" transform="scale(1 1) rotate(0) translate(4 56)">
<title>refresh_chaser_window_timeline_for_midi_out</title>
<polygon fill="white" stroke="white" points="-4,5 -4,-56 909,-56 909,5 -4,5"/>
<!-- Node1 -->
<g id="node1" class="node"><title>Node1</title>
<polygon fill="#bfbfbf" stroke="black" points="0.5,-0 0.5,-40 119.5,-40 119.5,-0 0.5,-0"/>
<text text-anchor="start" x="8.5" y="-27" font-family="Helvetica,sans-Serif" font-size="10.00">refresh_chaser_window</text>
<text text-anchor="middle" x="60" y="-11" font-family="Helvetica,sans-Serif" font-size="10.00">_timeline_for_midi_out</text>
</g>
<!-- Node2 -->
<g id="node3" class="node"><title>Node2</title>
<a xlink:href="_m_a_i_n__avec__objets_8cpp.html#a6a015280c1363331ada8a329be6eb7c8" target="_top" xlink:title="ticker">
<polygon fill="white" stroke="black" points="156.5,-8 156.5,-32 197.5,-32 197.5,-8 156.5,-8"/>
<text text-anchor="middle" x="177" y="-19" font-family="Helvetica,sans-Serif" font-size="10.00">ticker</text>
</a>
</g>
<!-- Node1&#45;&gt;Node2 -->
<g id="edge2" class="edge"><title>Node1&#45;&gt;Node2</title>
<path fill="none" stroke="midnightblue" d="M129.685,-20C139.329,-20 148.552,-20 156.252,-20"/>
<polygon fill="midnightblue" stroke="midnightblue" points="129.528,-16.5001 119.528,-20 129.528,-23.5001 129.528,-16.5001"/>
</g>
<!-- Node3 -->
<g id="node5" class="node"><title>Node3</title>
<a xlink:href="_c_f_g__config__panel__8_8cpp.html#aff76db94408106be22f658a05f17831a" target="_top" xlink:title="do_core_config">
<polygon fill="white" stroke="black" points="234.5,-28 234.5,-52 317.5,-52 317.5,-28 234.5,-28"/>
<text text-anchor="middle" x="276" y="-39" font-family="Helvetica,sans-Serif" font-size="10.00">do_core_config</text>
</a>
</g>
<!-- Node2&#45;&gt;Node3 -->
<g id="edge4" class="edge"><title>Node2&#45;&gt;Node3</title>
<path fill="none" stroke="midnightblue" d="M207.355,-26.1324C215.855,-27.8494 225.245,-29.7464 234.28,-31.5716"/>
<polygon fill="midnightblue" stroke="midnightblue" points="208.008,-22.6936 197.513,-24.144 206.622,-29.555 208.008,-22.6936"/>
</g>
<!-- Node8 -->
<g id="node15" class="node"><title>Node8</title>
<a xlink:href="_m_a_i_n__avec__objets_8cpp.html#ae66f6b31b5ad750f1fe042a706a4e3d4" target="_top" xlink:title="main">
<polygon fill="white" stroke="black" points="866,-8 866,-32 904,-32 904,-8 866,-8"/>
<text text-anchor="middle" x="885" y="-19" font-family="Helvetica,sans-Serif" font-size="10.00">main</text>
</a>
</g>
<!-- Node2&#45;&gt;Node8 -->
<g id="edge16" class="edge"><title>Node2&#45;&gt;Node8</title>
<path fill="none" stroke="midnightblue" d="M207.667,-15.4617C250.267,-9.56085 329.811,-6.55032e-15 398,-0 398,-0 398,-0 646,-0 728.027,-7.10543e-15 825.34,-11.8436 865.838,-17.3027"/>
<polygon fill="midnightblue" stroke="midnightblue" points="207.074,-12.0106 197.662,-16.875 208.054,-18.9418 207.074,-12.0106"/>
</g>
<!-- Node4 -->
<g id="node7" class="node"><title>Node4</title>
<a xlink:href="_c_f_g__config__panel__8_8cpp.html#ad39c46e2fb3a3ba7ea0460140ead4f96" target="_top" xlink:title="do_panel_config">
<polygon fill="white" stroke="black" points="354.5,-28 354.5,-52 441.5,-52 441.5,-28 354.5,-28"/>
<text text-anchor="middle" x="398" y="-39" font-family="Helvetica,sans-Serif" font-size="10.00">do_panel_config</text>
</a>
</g>
<!-- Node3&#45;&gt;Node4 -->
<g id="edge6" class="edge"><title>Node3&#45;&gt;Node4</title>
<path fill="none" stroke="midnightblue" d="M327.875,-40C336.732,-40 345.851,-40 354.464,-40"/>
<polygon fill="midnightblue" stroke="midnightblue" points="327.644,-36.5001 317.644,-40 327.644,-43.5001 327.644,-36.5001"/>
</g>
<!-- Node5 -->
<g id="node9" class="node"><title>Node5</title>
<a xlink:href="_c_f_g__config__panel__8_8cpp.html#a7968da66bccdba8b864caf6c8435f68e" target="_top" xlink:title="config_general_menu">
<polygon fill="white" stroke="black" points="478.5,-28 478.5,-52 587.5,-52 587.5,-28 478.5,-28"/>
<text text-anchor="middle" x="533" y="-39" font-family="Helvetica,sans-Serif" font-size="10.00">config_general_menu</text>
</a>
</g>
<!-- Node4&#45;&gt;Node5 -->
<g id="edge8" class="edge"><title>Node4&#45;&gt;Node5</title>
<path fill="none" stroke="midnightblue" d="M452.072,-40C460.621,-40 469.471,-40 478.04,-40"/>
<polygon fill="midnightblue" stroke="midnightblue" points="451.831,-36.5001 441.831,-40 451.831,-43.5001 451.831,-36.5001"/>
</g>
<!-- Node6 -->
<g id="node11" class="node"><title>Node6</title>
<a xlink:href="graphics__rebuild1_8cpp.html#ac2eae1e03fb72cc734ffbcef566483bf" target="_top" xlink:title="Boxes">
<polygon fill="white" stroke="black" points="624,-28 624,-52 668,-52 668,-28 624,-28"/>
<text text-anchor="middle" x="646" y="-39" font-family="Helvetica,sans-Serif" font-size="10.00">Boxes</text>
</a>
</g>
<!-- Node5&#45;&gt;Node6 -->
<g id="edge10" class="edge"><title>Node5&#45;&gt;Node6</title>
<path fill="none" stroke="midnightblue" d="M597.747,-40C607.112,-40 616.168,-40 623.856,-40"/>
<polygon fill="midnightblue" stroke="midnightblue" points="597.514,-36.5001 587.514,-40 597.514,-43.5001 597.514,-36.5001"/>
</g>
<!-- Node7 -->
<g id="node13" class="node"><title>Node7</title>
<a xlink:href="_m_a_i_n__avec__objets_8cpp.html#ade8d4ba65d55c94f8ee277829d722155" target="_top" xlink:title="main_actions_on_screen">
<polygon fill="white" stroke="black" points="704.5,-28 704.5,-52 829.5,-52 829.5,-28 704.5,-28"/>
<text text-anchor="middle" x="767" y="-39" font-family="Helvetica,sans-Serif" font-size="10.00">main_actions_on_screen</text>
</a>
</g>
<!-- Node6&#45;&gt;Node7 -->
<g id="edge12" class="edge"><title>Node6&#45;&gt;Node7</title>
<path fill="none" stroke="midnightblue" d="M678.244,-40C686.32,-40 695.263,-40 704.271,-40"/>
<polygon fill="midnightblue" stroke="midnightblue" points="678.193,-36.5001 668.193,-40 678.193,-43.5001 678.193,-36.5001"/>
</g>
<!-- Node7&#45;&gt;Node8 -->
<g id="edge14" class="edge"><title>Node7&#45;&gt;Node8</title>
<path fill="none" stroke="midnightblue" d="M839.837,-27.6547C849.336,-26.0448 858.327,-24.5209 865.749,-23.2629"/>
<polygon fill="midnightblue" stroke="midnightblue" points="839.075,-24.2339 829.8,-29.3559 840.245,-31.1355 839.075,-24.2339"/>
</g>
</g>
</svg>
