<?xml version="1.0" encoding="UTF-8" standalone="no"?>
<!DOCTYPE svg PUBLIC "-//W3C//DTD SVG 1.1//EN"
 "http://www.w3.org/Graphics/SVG/1.1/DTD/svg11.dtd">
<!-- Generated by graphviz version 2.26.3 (20100126.1600)
 -->
<!-- Title: curve_node::get_control_points Pages: 1 -->
<!--zoomable 200 -->
<svg id="main" version="1.1" xmlns="http://www.w3.org/2000/svg" xmlns:xlink="http://www.w3.org/1999/xlink" xml:space="preserve" onload="init(evt)">
<style type="text/css"><![CDATA[
.edge:hover path { stroke: red; }
.edge:hover polygon { stroke: red; fill: red; }
]]></style>
<script type="text/javascript"><![CDATA[
var edges = document.getElementsByTagName('g');
if (edges && edges.length) {
  for (var i=0;i<edges.length;i++) {
    if (edges[i].id.substr(0,4)=='edge') {
      edges[i].setAttribute('class','edge');
    }
  }
}
]]></script>
        <defs>
                <circle id="rim" cx="0" cy="0" r="7"/>
                <circle id="rim2" cx="0" cy="0" r="3.5"/>
                <g id="zoomPlus">
                        <use xlink:href="#rim" fill="#404040">
                                <set attributeName="fill" to="#808080" begin="zoomplus.mouseover" end="zoomplus.mouseout"/>
                        </use>
                        <path d="M-4,0h8M0,-4v8" fill="none" stroke="white" stroke-width="1.5" pointer-events="none"/>
                </g>
                <g id="zoomMin">
                        <use xlink:href="#rim" fill="#404040">
                                <set attributeName="fill" to="#808080" begin="zoomminus.mouseover" end="zoomminus.mouseout"/>
                        </use>
                        <path d="M-4,0h8" fill="none" stroke="white" stroke-width="1.5" pointer-events="none"/>
                </g>
                <g id="dirArrow">
                        <path fill="none" stroke="white" stroke-width="1.5" d="M0,-3.0v7 M-2.5,-0.5L0,-3.0L2.5,-0.5"/>
                </g>
               <g id="resetDef">
                       <use xlink:href="#rim2" fill="#404040">
                               <set attributeName="fill" to="#808080" begin="reset.mouseover" end="reset.mouseout"/>
                       </use>
               </g>
        </defs>

<script type="text/javascript">
var viewWidth = 1258;
var viewHeight = 200;
var sectionId = 'dynsection-17';
</script>
<script xlink:href="svgpan.js"/>
<svg id="graph" class="graph">
<g id="viewport">
<title>curve_node::get_control_points</title>
<polygon fill="white" stroke="white" points="-4,5 -4,-196 1255,-196 1255,5 -4,5"/>
<!-- Node1 -->
<g id="node1" class="node"><title>Node1</title>
<polygon fill="#bfbfbf" stroke="black" points="0.5,-76 0.5,-116 121.5,-116 121.5,-76 0.5,-76"/>
<text text-anchor="start" x="8.5" y="-103" font-family="Helvetica,sans-Serif" font-size="10.00">curve_node::get_control</text>
<text text-anchor="middle" x="61" y="-87" font-family="Helvetica,sans-Serif" font-size="10.00">_points</text>
</g>
<!-- Node2 -->
<g id="node3" class="node"><title>Node2</title>
<a xlink:href="classcurve__node.html#abc1a06d649c6dce22334da762f2955b8" target="_top" xlink:title="curve_node::write_curve">
<polygon fill="white" stroke="black" points="158.5,-84 158.5,-108 281.5,-108 281.5,-84 158.5,-84"/>
<text text-anchor="middle" x="220" y="-95" font-family="Helvetica,sans-Serif" font-size="10.00">curve_node::write_curve</text>
</a>
</g>
<!-- Node1&#45;&gt;Node2 -->
<g id="edge2" class="edge"><title>Node1&#45;&gt;Node2</title>
<path fill="none" stroke="midnightblue" d="M131.828,-96C140.65,-96 149.617,-96 158.286,-96"/>
<polygon fill="midnightblue" stroke="midnightblue" points="131.565,-92.5001 121.565,-96 131.565,-99.5001 131.565,-92.5001"/>
</g>
<!-- Node3 -->
<g id="node5" class="node"><title>Node3</title>
<a xlink:href="classcurve__node.html#ab1db9f4ea1c53ab2eab6072b2cdc90eb" target="_top" xlink:title="curve_node::draw">
<polygon fill="white" stroke="black" points="318,-84 318,-108 412,-108 412,-84 318,-84"/>
<text text-anchor="middle" x="365" y="-95" font-family="Helvetica,sans-Serif" font-size="10.00">curve_node::draw</text>
</a>
</g>
<!-- Node2&#45;&gt;Node3 -->
<g id="edge4" class="edge"><title>Node2&#45;&gt;Node3</title>
<path fill="none" stroke="midnightblue" d="M292.109,-96C300.823,-96 309.544,-96 317.769,-96"/>
<polygon fill="midnightblue" stroke="midnightblue" points="291.914,-92.5001 281.914,-96 291.914,-99.5001 291.914,-92.5001"/>
</g>
<!-- Node4 -->
<g id="node7" class="node"><title>Node4</title>
<a xlink:href="classcurve__node.html#aace217c0200a043c2d2f5f071fde8e56" target="_top" xlink:title="curve_node::draw_splines">
<polygon fill="white" stroke="black" points="448,-84 448,-108 578,-108 578,-84 448,-84"/>
<text text-anchor="middle" x="513" y="-95" font-family="Helvetica,sans-Serif" font-size="10.00">curve_node::draw_splines</text>
</a>
</g>
<!-- Node3&#45;&gt;Node4 -->
<g id="edge6" class="edge"><title>Node3&#45;&gt;Node4</title>
<path fill="none" stroke="midnightblue" d="M422.277,-96C430.658,-96 439.341,-96 447.865,-96"/>
<polygon fill="midnightblue" stroke="midnightblue" points="422.235,-92.5001 412.235,-96 422.235,-99.5001 422.235,-92.5001"/>
</g>
<!-- Node5 -->
<g id="node9" class="node"><title>Node5</title>
<a xlink:href="classcurve__node.html#afb8f3c6e6a53e062f5c2fb1cf7243969" target="_top" xlink:title="curve_node::SplineCurve">
<polygon fill="white" stroke="black" points="617,-168 617,-192 743,-192 743,-168 617,-168"/>
<text text-anchor="middle" x="680" y="-179" font-family="Helvetica,sans-Serif" font-size="10.00">curve_node::SplineCurve</text>
</a>
</g>
<!-- Node4&#45;&gt;Node5 -->
<g id="edge8" class="edge"><title>Node4&#45;&gt;Node5</title>
<path fill="none" stroke="midnightblue" d="M537.875,-113.977C557.735,-127.712 586.669,-146.37 614,-159 621.204,-162.329 629.08,-165.337 636.803,-167.969"/>
<polygon fill="midnightblue" stroke="midnightblue" points="539.623,-110.928 529.426,-108.052 535.604,-116.659 539.623,-110.928"/>
</g>
<!-- Node6 -->
<g id="node11" class="node"><title>Node6</title>
<a xlink:href="classcurve__node.html#ac1e52fe7e8f762074b804b88a1b420cf" target="_top" xlink:title="curve_node::build_square">
<polygon fill="white" stroke="black" points="616,-126 616,-150 744,-150 744,-126 616,-126"/>
<text text-anchor="middle" x="680" y="-137" font-family="Helvetica,sans-Serif" font-size="10.00">curve_node::build_square</text>
</a>
</g>
<!-- Node4&#45;&gt;Node6 -->
<g id="edge10" class="edge"><title>Node4&#45;&gt;Node6</title>
<path fill="none" stroke="midnightblue" d="M570.789,-110.534C590.806,-115.568 613.008,-121.152 632.138,-125.963"/>
<polygon fill="midnightblue" stroke="midnightblue" points="571.407,-107.08 560.855,-108.036 569.7,-113.869 571.407,-107.08"/>
</g>
<!-- Node11 -->
<g id="node21" class="node"><title>Node11</title>
<a xlink:href="classcurve__node.html#a51a7bb24aa5832b54ec61507a556dda9" target="_top" xlink:title="curve_node::build_fluo">
<polygon fill="white" stroke="black" points="623,-84 623,-108 737,-108 737,-84 623,-84"/>
<text text-anchor="middle" x="680" y="-95" font-family="Helvetica,sans-Serif" font-size="10.00">curve_node::build_fluo</text>
</a>
</g>
<!-- Node4&#45;&gt;Node11 -->
<g id="edge20" class="edge"><title>Node4&#45;&gt;Node11</title>
<path fill="none" stroke="midnightblue" d="M588.168,-96C599.778,-96 611.604,-96 622.738,-96"/>
<polygon fill="midnightblue" stroke="midnightblue" points="588.045,-92.5001 578.045,-96 588.045,-99.5001 588.045,-92.5001"/>
</g>
<!-- Node12 -->
<g id="node23" class="node"><title>Node12</title>
<a xlink:href="classcurve__node.html#a6338ccf647d5f510c47702f613a3d9d2" target="_top" xlink:title="curve_node::build_preheat">
<polygon fill="white" stroke="black" points="614.5,-42 614.5,-66 745.5,-66 745.5,-42 614.5,-42"/>
<text text-anchor="middle" x="680" y="-53" font-family="Helvetica,sans-Serif" font-size="10.00">curve_node::build_preheat</text>
</a>
</g>
<!-- Node4&#45;&gt;Node12 -->
<g id="edge22" class="edge"><title>Node4&#45;&gt;Node12</title>
<path fill="none" stroke="midnightblue" d="M570.789,-81.4663C590.806,-76.432 613.008,-70.8484 632.138,-66.0373"/>
<polygon fill="midnightblue" stroke="midnightblue" points="569.7,-78.1311 560.855,-83.9645 571.407,-84.9197 569.7,-78.1311"/>
</g>
<!-- Node13 -->
<g id="node25" class="node"><title>Node13</title>
<a xlink:href="classcurve__node.html#a787cd6340d6b9e15da5723ed25eb18ff" target="_top" xlink:title="curve_node::build_inverse">
<polygon fill="white" stroke="black" points="615,-0 615,-24 745,-24 745,-0 615,-0"/>
<text text-anchor="middle" x="680" y="-11" font-family="Helvetica,sans-Serif" font-size="10.00">curve_node::build_inverse</text>
</a>
</g>
<!-- Node4&#45;&gt;Node13 -->
<g id="edge24" class="edge"><title>Node4&#45;&gt;Node13</title>
<path fill="none" stroke="midnightblue" d="M537.875,-78.0231C557.735,-64.2883 586.669,-45.63 614,-33 621.204,-29.6709 629.08,-26.6626 636.803,-24.0309"/>
<polygon fill="midnightblue" stroke="midnightblue" points="535.604,-75.3406 529.426,-83.9479 539.623,-81.0717 535.604,-75.3406"/>
</g>
<!-- Node7 -->
<g id="node13" class="node"><title>Node7</title>
<a xlink:href="patch__core_8cpp.html#a072192232bbd1f5cb8cdffe9bc243870" target="_top" xlink:title="do_logical_menu_curve">
<polygon fill="white" stroke="black" points="782.5,-126 782.5,-150 901.5,-150 901.5,-126 782.5,-126"/>
<text text-anchor="middle" x="842" y="-137" font-family="Helvetica,sans-Serif" font-size="10.00">do_logical_menu_curve</text>
</a>
</g>
<!-- Node6&#45;&gt;Node7 -->
<g id="edge12" class="edge"><title>Node6&#45;&gt;Node7</title>
<path fill="none" stroke="midnightblue" d="M754.203,-138C763.648,-138 773.217,-138 782.392,-138"/>
<polygon fill="midnightblue" stroke="midnightblue" points="754.027,-134.5 744.027,-138 754.027,-141.5 754.027,-134.5"/>
</g>
<!-- Node8 -->
<g id="node15" class="node"><title>Node8</title>
<a xlink:href="procs__visuels__rebuild1_8cpp.html#ae710b6e599e321ad5934a90140067054" target="_top" xlink:title="check_graphics_mouse\l_handling">
<polygon fill="white" stroke="black" points="938.5,-118 938.5,-158 1057.5,-158 1057.5,-118 938.5,-118"/>
<text text-anchor="start" x="946.5" y="-145" font-family="Helvetica,sans-Serif" font-size="10.00">check_graphics_mouse</text>
<text text-anchor="middle" x="998" y="-129" font-family="Helvetica,sans-Serif" font-size="10.00">_handling</text>
</a>
</g>
<!-- Node7&#45;&gt;Node8 -->
<g id="edge14" class="edge"><title>Node7&#45;&gt;Node8</title>
<path fill="none" stroke="midnightblue" d="M912.06,-138C920.819,-138 929.712,-138 938.293,-138"/>
<polygon fill="midnightblue" stroke="midnightblue" points="911.868,-134.5 901.868,-138 911.867,-141.5 911.868,-134.5"/>
</g>
<!-- Node9 -->
<g id="node17" class="node"><title>Node9</title>
<a xlink:href="_m_a_i_n__avec__objets_8cpp.html#a8e80f54ac804eddce8ed6e45adb1db44" target="_top" xlink:title="ticker_full_loop">
<polygon fill="white" stroke="black" points="1094,-126 1094,-150 1176,-150 1176,-126 1094,-126"/>
<text text-anchor="middle" x="1135" y="-137" font-family="Helvetica,sans-Serif" font-size="10.00">ticker_full_loop</text>
</a>
</g>
<!-- Node8&#45;&gt;Node9 -->
<g id="edge16" class="edge"><title>Node8&#45;&gt;Node9</title>
<path fill="none" stroke="midnightblue" d="M1067.97,-138C1076.74,-138 1085.47,-138 1093.61,-138"/>
<polygon fill="midnightblue" stroke="midnightblue" points="1067.69,-134.5 1057.69,-138 1067.69,-141.5 1067.69,-134.5"/>
</g>
<!-- Node10 -->
<g id="node19" class="node"><title>Node10</title>
<a xlink:href="_m_a_i_n__avec__objets_8cpp.html#ae66f6b31b5ad750f1fe042a706a4e3d4" target="_top" xlink:title="main">
<polygon fill="white" stroke="black" points="1212,-126 1212,-150 1250,-150 1250,-126 1212,-126"/>
<text text-anchor="middle" x="1231" y="-137" font-family="Helvetica,sans-Serif" font-size="10.00">main</text>
</a>
</g>
<!-- Node9&#45;&gt;Node10 -->
<g id="edge18" class="edge"><title>Node9&#45;&gt;Node10</title>
<path fill="none" stroke="midnightblue" d="M1186.51,-138C1195.58,-138 1204.48,-138 1211.9,-138"/>
<polygon fill="midnightblue" stroke="midnightblue" points="1186.27,-134.5 1176.27,-138 1186.27,-141.5 1186.27,-134.5"/>
</g>
</g>
</svg>
        <g id="navigator" transform="translate(0 0)" fill="#404254">
                <rect fill="#f2f5e9" fill-opacity="0.5" stroke="#606060" stroke-width=".5" x="0" y="0" width="60" height="60"/>
                <use id="zoomplus" xlink:href="#zoomPlus" x="17" y="9" onmousedown="handleZoom(evt,'in')"/>
                <use id="zoomminus" xlink:href="#zoomMin" x="42" y="9" onmousedown="handleZoom(evt,'out')"/>
                <use id="reset" xlink:href="#resetDef" x="30" y="36" onmousedown="handleReset()"/>
                <g id="arrowUp" xlink:href="#dirArrow" transform="translate(30 24)" onmousedown="handlePan(0,-1)">
                  <use xlink:href="#rim" fill="#404040">
                        <set attributeName="fill" to="#808080" begin="arrowUp.mouseover" end="arrowUp.mouseout"/>
                  </use>
                  <path fill="none" stroke="white" stroke-width="1.5" d="M0,-3.0v7 M-2.5,-0.5L0,-3.0L2.5,-0.5"/>
                </g>
                <g id="arrowRight" xlink:href="#dirArrow" transform="rotate(90) translate(36 -43)" onmousedown="handlePan(1,0)">
                  <use xlink:href="#rim" fill="#404040">
                        <set attributeName="fill" to="#808080" begin="arrowRight.mouseover" end="arrowRight.mouseout"/>
                  </use>
                  <path fill="none" stroke="white" stroke-width="1.5" d="M0,-3.0v7 M-2.5,-0.5L0,-3.0L2.5,-0.5"/>
                </g>
                <g id="arrowDown" xlink:href="#dirArrow" transform="rotate(180) translate(-30 -48)" onmousedown="handlePan(0,1)">
                  <use xlink:href="#rim" fill="#404040">
                        <set attributeName="fill" to="#808080" begin="arrowDown.mouseover" end="arrowDown.mouseout"/>
                  </use>
                  <path fill="none" stroke="white" stroke-width="1.5" d="M0,-3.0v7 M-2.5,-0.5L0,-3.0L2.5,-0.5"/>
                </g>
                <g id="arrowLeft" xlink:href="#dirArrow" transform="rotate(270) translate(-36 17)" onmousedown="handlePan(-1,0)">
                  <use xlink:href="#rim" fill="#404040">
                        <set attributeName="fill" to="#808080" begin="arrowLeft.mouseover" end="arrowLeft.mouseout"/>
                  </use>
                  <path fill="none" stroke="white" stroke-width="1.5" d="M0,-3.0v7 M-2.5,-0.5L0,-3.0L2.5,-0.5"/>
                </g>
        </g>
        <svg viewBox="0 0 15 15" width="100%" height="30px" preserveAspectRatio="xMaxYMin meet">
         <g id="arrow_out" transform="scale(0.3 0.3)">
          <a xlink:href="classcurve__node_a14aba313f46315faae44bcca011136a9_icgraph_org.svg" target="_base">
           <rect id="button" ry="5" rx="5" y="6" x="6" height="38" width="38"
                fill="#f2f5e9" fill-opacity="0.5" stroke="#606060" stroke-width="1.0"/>
           <path id="arrow"
             d="M 11.500037,31.436501 C 11.940474,20.09759 22.043105,11.32322 32.158766,21.979434 L 37.068811,17.246167 C 37.068811,17.246167 37.088388,32 37.088388,32 L 22.160133,31.978069 C 22.160133,31.978069 26.997745,27.140456 26.997745,27.140456 C 18.528582,18.264221 13.291696,25.230495 11.500037,31.436501 z"
             style="fill:#404040;"/>
          </a>
         </g>
        </svg>
</svg>
