<?xml version="1.0" encoding="UTF-8" standalone="no"?>
<!DOCTYPE svg PUBLIC "-//W3C//DTD SVG 1.1//EN"
 "http://www.w3.org/Graphics/SVG/1.1/DTD/svg11.dtd">
<!-- Generated by graphviz version 2.26.3 (20100126.1600)
 -->
<!-- Title: curve_node::draw Pages: 1 -->
<svg width="940pt" height="200pt"
 viewBox="0.00 0.00 940.00 200.00" xmlns="http://www.w3.org/2000/svg" xmlns:xlink="http://www.w3.org/1999/xlink">
<g id="graph1" class="graph" transform="scale(1 1) rotate(0) translate(4 196)">
<title>curve_node::draw</title>
<polygon fill="white" stroke="white" points="-4,5 -4,-196 937,-196 937,5 -4,5"/>
<!-- Node1 -->
<g id="node1" class="node"><title>Node1</title>
<polygon fill="#bfbfbf" stroke="black" points="0,-84 0,-108 94,-108 94,-84 0,-84"/>
<text text-anchor="middle" x="47" y="-95" font-family="Helvetica,sans-Serif" font-size="10.00">curve_node::draw</text>
</g>
<!-- Node2 -->
<g id="node3" class="node"><title>Node2</title>
<a xlink:href="classcurve__node.html#aace217c0200a043c2d2f5f071fde8e56" target="_top" xlink:title="curve_node::draw_splines">
<polygon fill="white" stroke="black" points="130,-84 130,-108 260,-108 260,-84 130,-84"/>
<text text-anchor="middle" x="195" y="-95" font-family="Helvetica,sans-Serif" font-size="10.00">curve_node::draw_splines</text>
</a>
</g>
<!-- Node1&#45;&gt;Node2 -->
<g id="edge2" class="edge"><title>Node1&#45;&gt;Node2</title>
<path fill="none" stroke="midnightblue" d="M104.277,-96C112.658,-96 121.341,-96 129.865,-96"/>
<polygon fill="midnightblue" stroke="midnightblue" points="104.235,-92.5001 94.235,-96 104.235,-99.5001 104.235,-92.5001"/>
</g>
<!-- Node3 -->
<g id="node5" class="node"><title>Node3</title>
<a xlink:href="classcurve__node.html#afb8f3c6e6a53e062f5c2fb1cf7243969" target="_top" xlink:title="curve_node::SplineCurve">
<polygon fill="white" stroke="black" points="299,-168 299,-192 425,-192 425,-168 299,-168"/>
<text text-anchor="middle" x="362" y="-179" font-family="Helvetica,sans-Serif" font-size="10.00">curve_node::SplineCurve</text>
</a>
</g>
<!-- Node2&#45;&gt;Node3 -->
<g id="edge4" class="edge"><title>Node2&#45;&gt;Node3</title>
<path fill="none" stroke="midnightblue" d="M219.875,-113.977C239.735,-127.712 268.669,-146.37 296,-159 303.204,-162.329 311.08,-165.337 318.803,-167.969"/>
<polygon fill="midnightblue" stroke="midnightblue" points="221.623,-110.928 211.426,-108.052 217.604,-116.659 221.623,-110.928"/>
</g>
<!-- Node4 -->
<g id="node7" class="node"><title>Node4</title>
<a xlink:href="classcurve__node.html#ac1e52fe7e8f762074b804b88a1b420cf" target="_top" xlink:title="curve_node::build_square">
<polygon fill="white" stroke="black" points="298,-126 298,-150 426,-150 426,-126 298,-126"/>
<text text-anchor="middle" x="362" y="-137" font-family="Helvetica,sans-Serif" font-size="10.00">curve_node::build_square</text>
</a>
</g>
<!-- Node2&#45;&gt;Node4 -->
<g id="edge6" class="edge"><title>Node2&#45;&gt;Node4</title>
<path fill="none" stroke="midnightblue" d="M252.789,-110.534C272.806,-115.568 295.008,-121.152 314.138,-125.963"/>
<polygon fill="midnightblue" stroke="midnightblue" points="253.407,-107.08 242.855,-108.036 251.7,-113.869 253.407,-107.08"/>
</g>
<!-- Node9 -->
<g id="node17" class="node"><title>Node9</title>
<a xlink:href="classcurve__node.html#a51a7bb24aa5832b54ec61507a556dda9" target="_top" xlink:title="curve_node::build_fluo">
<polygon fill="white" stroke="black" points="305,-84 305,-108 419,-108 419,-84 305,-84"/>
<text text-anchor="middle" x="362" y="-95" font-family="Helvetica,sans-Serif" font-size="10.00">curve_node::build_fluo</text>
</a>
</g>
<!-- Node2&#45;&gt;Node9 -->
<g id="edge16" class="edge"><title>Node2&#45;&gt;Node9</title>
<path fill="none" stroke="midnightblue" d="M270.168,-96C281.778,-96 293.604,-96 304.738,-96"/>
<polygon fill="midnightblue" stroke="midnightblue" points="270.045,-92.5001 260.045,-96 270.045,-99.5001 270.045,-92.5001"/>
</g>
<!-- Node10 -->
<g id="node19" class="node"><title>Node10</title>
<a xlink:href="classcurve__node.html#a6338ccf647d5f510c47702f613a3d9d2" target="_top" xlink:title="curve_node::build_preheat">
<polygon fill="white" stroke="black" points="296.5,-42 296.5,-66 427.5,-66 427.5,-42 296.5,-42"/>
<text text-anchor="middle" x="362" y="-53" font-family="Helvetica,sans-Serif" font-size="10.00">curve_node::build_preheat</text>
</a>
</g>
<!-- Node2&#45;&gt;Node10 -->
<g id="edge18" class="edge"><title>Node2&#45;&gt;Node10</title>
<path fill="none" stroke="midnightblue" d="M252.789,-81.4663C272.806,-76.432 295.008,-70.8484 314.138,-66.0373"/>
<polygon fill="midnightblue" stroke="midnightblue" points="251.7,-78.1311 242.855,-83.9645 253.407,-84.9197 251.7,-78.1311"/>
</g>
<!-- Node11 -->
<g id="node21" class="node"><title>Node11</title>
<a xlink:href="classcurve__node.html#a787cd6340d6b9e15da5723ed25eb18ff" target="_top" xlink:title="curve_node::build_inverse">
<polygon fill="white" stroke="black" points="297,-0 297,-24 427,-24 427,-0 297,-0"/>
<text text-anchor="middle" x="362" y="-11" font-family="Helvetica,sans-Serif" font-size="10.00">curve_node::build_inverse</text>
</a>
</g>
<!-- Node2&#45;&gt;Node11 -->
<g id="edge20" class="edge"><title>Node2&#45;&gt;Node11</title>
<path fill="none" stroke="midnightblue" d="M219.875,-78.0231C239.735,-64.2883 268.669,-45.63 296,-33 303.204,-29.6709 311.08,-26.6626 318.803,-24.0309"/>
<polygon fill="midnightblue" stroke="midnightblue" points="217.604,-75.3406 211.426,-83.9479 221.623,-81.0717 217.604,-75.3406"/>
</g>
<!-- Node5 -->
<g id="node9" class="node"><title>Node5</title>
<a xlink:href="patch__core_8cpp.html#a072192232bbd1f5cb8cdffe9bc243870" target="_top" xlink:title="do_logical_menu_curve">
<polygon fill="white" stroke="black" points="464.5,-126 464.5,-150 583.5,-150 583.5,-126 464.5,-126"/>
<text text-anchor="middle" x="524" y="-137" font-family="Helvetica,sans-Serif" font-size="10.00">do_logical_menu_curve</text>
</a>
</g>
<!-- Node4&#45;&gt;Node5 -->
<g id="edge8" class="edge"><title>Node4&#45;&gt;Node5</title>
<path fill="none" stroke="midnightblue" d="M436.203,-138C445.648,-138 455.217,-138 464.392,-138"/>
<polygon fill="midnightblue" stroke="midnightblue" points="436.027,-134.5 426.027,-138 436.027,-141.5 436.027,-134.5"/>
</g>
<!-- Node6 -->
<g id="node11" class="node"><title>Node6</title>
<a xlink:href="procs__visuels__rebuild1_8cpp.html#ae710b6e599e321ad5934a90140067054" target="_top" xlink:title="check_graphics_mouse\l_handling">
<polygon fill="white" stroke="black" points="620.5,-118 620.5,-158 739.5,-158 739.5,-118 620.5,-118"/>
<text text-anchor="start" x="628.5" y="-145" font-family="Helvetica,sans-Serif" font-size="10.00">check_graphics_mouse</text>
<text text-anchor="middle" x="680" y="-129" font-family="Helvetica,sans-Serif" font-size="10.00">_handling</text>
</a>
</g>
<!-- Node5&#45;&gt;Node6 -->
<g id="edge10" class="edge"><title>Node5&#45;&gt;Node6</title>
<path fill="none" stroke="midnightblue" d="M594.06,-138C602.819,-138 611.712,-138 620.293,-138"/>
<polygon fill="midnightblue" stroke="midnightblue" points="593.868,-134.5 583.868,-138 593.867,-141.5 593.868,-134.5"/>
</g>
<!-- Node7 -->
<g id="node13" class="node"><title>Node7</title>
<a xlink:href="_m_a_i_n__avec__objets_8cpp.html#a8e80f54ac804eddce8ed6e45adb1db44" target="_top" xlink:title="ticker_full_loop">
<polygon fill="white" stroke="black" points="776,-126 776,-150 858,-150 858,-126 776,-126"/>
<text text-anchor="middle" x="817" y="-137" font-family="Helvetica,sans-Serif" font-size="10.00">ticker_full_loop</text>
</a>
</g>
<!-- Node6&#45;&gt;Node7 -->
<g id="edge12" class="edge"><title>Node6&#45;&gt;Node7</title>
<path fill="none" stroke="midnightblue" d="M749.967,-138C758.737,-138 767.475,-138 775.605,-138"/>
<polygon fill="midnightblue" stroke="midnightblue" points="749.692,-134.5 739.692,-138 749.692,-141.5 749.692,-134.5"/>
</g>
<!-- Node8 -->
<g id="node15" class="node"><title>Node8</title>
<a xlink:href="_m_a_i_n__avec__objets_8cpp.html#ae66f6b31b5ad750f1fe042a706a4e3d4" target="_top" xlink:title="main">
<polygon fill="white" stroke="black" points="894,-126 894,-150 932,-150 932,-126 894,-126"/>
<text text-anchor="middle" x="913" y="-137" font-family="Helvetica,sans-Serif" font-size="10.00">main</text>
</a>
</g>
<!-- Node7&#45;&gt;Node8 -->
<g id="edge14" class="edge"><title>Node7&#45;&gt;Node8</title>
<path fill="none" stroke="midnightblue" d="M868.509,-138C877.577,-138 886.476,-138 893.904,-138"/>
<polygon fill="midnightblue" stroke="midnightblue" points="868.27,-134.5 858.27,-138 868.27,-141.5 868.27,-134.5"/>
</g>
</g>
</svg>
