<?xml version="1.0" encoding="UTF-8" standalone="no"?>
<!DOCTYPE svg PUBLIC "-//W3C//DTD SVG 1.1//EN"
 "http://www.w3.org/Graphics/SVG/1.1/DTD/svg11.dtd">
<!-- Generated by graphviz version 2.26.3 (20100126.1600)
 -->
<!-- Title: curve_node::view_after_draw Pages: 1 -->
<!--zoomable 200 -->
<svg id="main" version="1.1" xmlns="http://www.w3.org/2000/svg" xmlns:xlink="http://www.w3.org/1999/xlink" xml:space="preserve" onload="init(evt)">
<style type="text/css"><![CDATA[
.edge:hover path { stroke: red; }
.edge:hover polygon { stroke: red; fill: red; }
]]></style>
<script type="text/javascript"><![CDATA[
var edges = document.getElementsByTagName('g');
if (edges && edges.length) {
  for (var i=0;i<edges.length;i++) {
    if (edges[i].id.substr(0,4)=='edge') {
      edges[i].setAttribute('class','edge');
    }
  }
}
]]></script>
        <defs>
                <circle id="rim" cx="0" cy="0" r="7"/>
                <circle id="rim2" cx="0" cy="0" r="3.5"/>
                <g id="zoomPlus">
                        <use xlink:href="#rim" fill="#404040">
                                <set attributeName="fill" to="#808080" begin="zoomplus.mouseover" end="zoomplus.mouseout"/>
                        </use>
                        <path d="M-4,0h8M0,-4v8" fill="none" stroke="white" stroke-width="1.5" pointer-events="none"/>
                </g>
                <g id="zoomMin">
                        <use xlink:href="#rim" fill="#404040">
                                <set attributeName="fill" to="#808080" begin="zoomminus.mouseover" end="zoomminus.mouseout"/>
                        </use>
                        <path d="M-4,0h8" fill="none" stroke="white" stroke-width="1.5" pointer-events="none"/>
                </g>
                <g id="dirArrow">
                        <path fill="none" stroke="white" stroke-width="1.5" d="M0,-3.0v7 M-2.5,-0.5L0,-3.0L2.5,-0.5"/>
                </g>
               <g id="resetDef">
                       <use xlink:href="#rim2" fill="#404040">
                               <set attributeName="fill" to="#808080" begin="reset.mouseover" end="reset.mouseout"/>
                       </use>
               </g>
        </defs>

<script type="text/javascript">
var viewWidth = 824;
var viewHeight = 200;
var sectionId = 'dynsection-19';
</script>
<script xlink:href="svgpan.js"/>
<svg id="graph" class="graph">
<g id="viewport">
<title>curve_node::view_after_draw</title>
<polygon fill="white" stroke="white" points="-4,5 -4,-196 821,-196 821,5 -4,5"/>
<!-- Node1 -->
<g id="node1" class="node"><title>Node1</title>
<polygon fill="#bfbfbf" stroke="black" points="0,-84 0,-108 144,-108 144,-84 0,-84"/>
<text text-anchor="middle" x="72" y="-95" font-family="Helvetica,sans-Serif" font-size="10.00">curve_node::view_after_draw</text>
</g>
<!-- Node2 -->
<g id="node3" class="node"><title>Node2</title>
<a xlink:href="classcurve__node.html#afb8f3c6e6a53e062f5c2fb1cf7243969" target="_top" xlink:title="curve_node::SplineCurve">
<polygon fill="white" stroke="black" points="183,-168 183,-192 309,-192 309,-168 183,-168"/>
<text text-anchor="middle" x="246" y="-179" font-family="Helvetica,sans-Serif" font-size="10.00">curve_node::SplineCurve</text>
</a>
</g>
<!-- Node1&#45;&gt;Node2 -->
<g id="edge2" class="edge"><title>Node1&#45;&gt;Node2</title>
<path fill="none" stroke="midnightblue" d="M98.5874,-113.737C119.929,-127.42 151.012,-146.122 180,-159 187.362,-162.271 195.392,-165.268 203.235,-167.911"/>
<polygon fill="midnightblue" stroke="midnightblue" points="100.366,-110.719 90.0718,-108.213 96.5559,-116.591 100.366,-110.719"/>
</g>
<!-- Node3 -->
<g id="node5" class="node"><title>Node3</title>
<a xlink:href="classcurve__node.html#ac1e52fe7e8f762074b804b88a1b420cf" target="_top" xlink:title="curve_node::build_square">
<polygon fill="white" stroke="black" points="182,-126 182,-150 310,-150 310,-126 182,-126"/>
<text text-anchor="middle" x="246" y="-137" font-family="Helvetica,sans-Serif" font-size="10.00">curve_node::build_square</text>
</a>
</g>
<!-- Node1&#45;&gt;Node3 -->
<g id="edge4" class="edge"><title>Node1&#45;&gt;Node3</title>
<path fill="none" stroke="midnightblue" d="M131.64,-110.396C152.645,-115.466 176.018,-121.108 196.131,-125.963"/>
<polygon fill="midnightblue" stroke="midnightblue" points="132.404,-106.98 121.861,-108.036 130.761,-113.784 132.404,-106.98"/>
</g>
<!-- Node8 -->
<g id="node15" class="node"><title>Node8</title>
<a xlink:href="classcurve__node.html#a51a7bb24aa5832b54ec61507a556dda9" target="_top" xlink:title="curve_node::build_fluo">
<polygon fill="white" stroke="black" points="189,-84 189,-108 303,-108 303,-84 189,-84"/>
<text text-anchor="middle" x="246" y="-95" font-family="Helvetica,sans-Serif" font-size="10.00">curve_node::build_fluo</text>
</a>
</g>
<!-- Node1&#45;&gt;Node8 -->
<g id="edge14" class="edge"><title>Node1&#45;&gt;Node8</title>
<path fill="none" stroke="midnightblue" d="M154.268,-96C165.978,-96 177.803,-96 188.89,-96"/>
<polygon fill="midnightblue" stroke="midnightblue" points="154.029,-92.5001 144.028,-96 154.028,-99.5001 154.029,-92.5001"/>
</g>
<!-- Node9 -->
<g id="node17" class="node"><title>Node9</title>
<a xlink:href="classcurve__node.html#a6338ccf647d5f510c47702f613a3d9d2" target="_top" xlink:title="curve_node::build_preheat">
<polygon fill="white" stroke="black" points="180.5,-42 180.5,-66 311.5,-66 311.5,-42 180.5,-42"/>
<text text-anchor="middle" x="246" y="-53" font-family="Helvetica,sans-Serif" font-size="10.00">curve_node::build_preheat</text>
</a>
</g>
<!-- Node1&#45;&gt;Node9 -->
<g id="edge16" class="edge"><title>Node1&#45;&gt;Node9</title>
<path fill="none" stroke="midnightblue" d="M131.64,-81.6041C152.645,-76.5341 176.018,-70.8923 196.131,-66.0373"/>
<polygon fill="midnightblue" stroke="midnightblue" points="130.761,-78.2157 121.861,-83.9645 132.404,-85.0203 130.761,-78.2157"/>
</g>
<!-- Node10 -->
<g id="node19" class="node"><title>Node10</title>
<a xlink:href="classcurve__node.html#a787cd6340d6b9e15da5723ed25eb18ff" target="_top" xlink:title="curve_node::build_inverse">
<polygon fill="white" stroke="black" points="181,-0 181,-24 311,-24 311,-0 181,-0"/>
<text text-anchor="middle" x="246" y="-11" font-family="Helvetica,sans-Serif" font-size="10.00">curve_node::build_inverse</text>
</a>
</g>
<!-- Node1&#45;&gt;Node10 -->
<g id="edge18" class="edge"><title>Node1&#45;&gt;Node10</title>
<path fill="none" stroke="midnightblue" d="M98.5874,-78.2627C119.929,-64.5805 151.012,-45.8778 180,-33 187.362,-29.7292 195.392,-26.732 203.235,-24.0893"/>
<polygon fill="midnightblue" stroke="midnightblue" points="96.5559,-75.4085 90.0718,-83.7875 100.366,-81.2809 96.5559,-75.4085"/>
</g>
<!-- Node4 -->
<g id="node7" class="node"><title>Node4</title>
<a xlink:href="patch__core_8cpp.html#a072192232bbd1f5cb8cdffe9bc243870" target="_top" xlink:title="do_logical_menu_curve">
<polygon fill="white" stroke="black" points="348.5,-126 348.5,-150 467.5,-150 467.5,-126 348.5,-126"/>
<text text-anchor="middle" x="408" y="-137" font-family="Helvetica,sans-Serif" font-size="10.00">do_logical_menu_curve</text>
</a>
</g>
<!-- Node3&#45;&gt;Node4 -->
<g id="edge6" class="edge"><title>Node3&#45;&gt;Node4</title>
<path fill="none" stroke="midnightblue" d="M320.203,-138C329.648,-138 339.217,-138 348.392,-138"/>
<polygon fill="midnightblue" stroke="midnightblue" points="320.027,-134.5 310.027,-138 320.027,-141.5 320.027,-134.5"/>
</g>
<!-- Node5 -->
<g id="node9" class="node"><title>Node5</title>
<a xlink:href="procs__visuels__rebuild1_8cpp.html#ae710b6e599e321ad5934a90140067054" target="_top" xlink:title="check_graphics_mouse\l_handling">
<polygon fill="white" stroke="black" points="504.5,-118 504.5,-158 623.5,-158 623.5,-118 504.5,-118"/>
<text text-anchor="start" x="512.5" y="-145" font-family="Helvetica,sans-Serif" font-size="10.00">check_graphics_mouse</text>
<text text-anchor="middle" x="564" y="-129" font-family="Helvetica,sans-Serif" font-size="10.00">_handling</text>
</a>
</g>
<!-- Node4&#45;&gt;Node5 -->
<g id="edge8" class="edge"><title>Node4&#45;&gt;Node5</title>
<path fill="none" stroke="midnightblue" d="M478.06,-138C486.819,-138 495.712,-138 504.293,-138"/>
<polygon fill="midnightblue" stroke="midnightblue" points="477.868,-134.5 467.868,-138 477.867,-141.5 477.868,-134.5"/>
</g>
<!-- Node6 -->
<g id="node11" class="node"><title>Node6</title>
<a xlink:href="_m_a_i_n__avec__objets_8cpp.html#a8e80f54ac804eddce8ed6e45adb1db44" target="_top" xlink:title="ticker_full_loop">
<polygon fill="white" stroke="black" points="660,-126 660,-150 742,-150 742,-126 660,-126"/>
<text text-anchor="middle" x="701" y="-137" font-family="Helvetica,sans-Serif" font-size="10.00">ticker_full_loop</text>
</a>
</g>
<!-- Node5&#45;&gt;Node6 -->
<g id="edge10" class="edge"><title>Node5&#45;&gt;Node6</title>
<path fill="none" stroke="midnightblue" d="M633.967,-138C642.737,-138 651.475,-138 659.605,-138"/>
<polygon fill="midnightblue" stroke="midnightblue" points="633.692,-134.5 623.692,-138 633.692,-141.5 633.692,-134.5"/>
</g>
<!-- Node7 -->
<g id="node13" class="node"><title>Node7</title>
<a xlink:href="_m_a_i_n__avec__objets_8cpp.html#ae66f6b31b5ad750f1fe042a706a4e3d4" target="_top" xlink:title="main">
<polygon fill="white" stroke="black" points="778,-126 778,-150 816,-150 816,-126 778,-126"/>
<text text-anchor="middle" x="797" y="-137" font-family="Helvetica,sans-Serif" font-size="10.00">main</text>
</a>
</g>
<!-- Node6&#45;&gt;Node7 -->
<g id="edge12" class="edge"><title>Node6&#45;&gt;Node7</title>
<path fill="none" stroke="midnightblue" d="M752.509,-138C761.577,-138 770.476,-138 777.904,-138"/>
<polygon fill="midnightblue" stroke="midnightblue" points="752.27,-134.5 742.27,-138 752.27,-141.5 752.27,-134.5"/>
</g>
</g>
</svg>
        <g id="navigator" transform="translate(0 0)" fill="#404254">
                <rect fill="#f2f5e9" fill-opacity="0.5" stroke="#606060" stroke-width=".5" x="0" y="0" width="60" height="60"/>
                <use id="zoomplus" xlink:href="#zoomPlus" x="17" y="9" onmousedown="handleZoom(evt,'in')"/>
                <use id="zoomminus" xlink:href="#zoomMin" x="42" y="9" onmousedown="handleZoom(evt,'out')"/>
                <use id="reset" xlink:href="#resetDef" x="30" y="36" onmousedown="handleReset()"/>
                <g id="arrowUp" xlink:href="#dirArrow" transform="translate(30 24)" onmousedown="handlePan(0,-1)">
                  <use xlink:href="#rim" fill="#404040">
                        <set attributeName="fill" to="#808080" begin="arrowUp.mouseover" end="arrowUp.mouseout"/>
                  </use>
                  <path fill="none" stroke="white" stroke-width="1.5" d="M0,-3.0v7 M-2.5,-0.5L0,-3.0L2.5,-0.5"/>
                </g>
                <g id="arrowRight" xlink:href="#dirArrow" transform="rotate(90) translate(36 -43)" onmousedown="handlePan(1,0)">
                  <use xlink:href="#rim" fill="#404040">
                        <set attributeName="fill" to="#808080" begin="arrowRight.mouseover" end="arrowRight.mouseout"/>
                  </use>
                  <path fill="none" stroke="white" stroke-width="1.5" d="M0,-3.0v7 M-2.5,-0.5L0,-3.0L2.5,-0.5"/>
                </g>
                <g id="arrowDown" xlink:href="#dirArrow" transform="rotate(180) translate(-30 -48)" onmousedown="handlePan(0,1)">
                  <use xlink:href="#rim" fill="#404040">
                        <set attributeName="fill" to="#808080" begin="arrowDown.mouseover" end="arrowDown.mouseout"/>
                  </use>
                  <path fill="none" stroke="white" stroke-width="1.5" d="M0,-3.0v7 M-2.5,-0.5L0,-3.0L2.5,-0.5"/>
                </g>
                <g id="arrowLeft" xlink:href="#dirArrow" transform="rotate(270) translate(-36 17)" onmousedown="handlePan(-1,0)">
                  <use xlink:href="#rim" fill="#404040">
                        <set attributeName="fill" to="#808080" begin="arrowLeft.mouseover" end="arrowLeft.mouseout"/>
                  </use>
                  <path fill="none" stroke="white" stroke-width="1.5" d="M0,-3.0v7 M-2.5,-0.5L0,-3.0L2.5,-0.5"/>
                </g>
        </g>
        <svg viewBox="0 0 15 15" width="100%" height="30px" preserveAspectRatio="xMaxYMin meet">
         <g id="arrow_out" transform="scale(0.3 0.3)">
          <a xlink:href="classcurve__node_a5c54a9611e91814177cf901636d4e8e5_icgraph_org.svg" target="_base">
           <rect id="button" ry="5" rx="5" y="6" x="6" height="38" width="38"
                fill="#f2f5e9" fill-opacity="0.5" stroke="#606060" stroke-width="1.0"/>
           <path id="arrow"
             d="M 11.500037,31.436501 C 11.940474,20.09759 22.043105,11.32322 32.158766,21.979434 L 37.068811,17.246167 C 37.068811,17.246167 37.088388,32 37.088388,32 L 22.160133,31.978069 C 22.160133,31.978069 26.997745,27.140456 26.997745,27.140456 C 18.528582,18.264221 13.291696,25.230495 11.500037,31.436501 z"
             style="fill:#404040;"/>
          </a>
         </g>
        </svg>
</svg>
