<?xml version="1.0" encoding="UTF-8" standalone="no"?>
<!DOCTYPE svg PUBLIC "-//W3C//DTD SVG 1.1//EN"
 "http://www.w3.org/Graphics/SVG/1.1/DTD/svg11.dtd">
<!-- Generated by graphviz version 2.26.3 (20100126.1600)
 -->
<!-- Title: curve_node::curve_node Pages: 1 -->
<!--zoomable 220 -->
<svg id="main" version="1.1" xmlns="http://www.w3.org/2000/svg" xmlns:xlink="http://www.w3.org/1999/xlink" xml:space="preserve" onload="init(evt)">
<style type="text/css"><![CDATA[
.edge:hover path { stroke: red; }
.edge:hover polygon { stroke: red; fill: red; }
]]></style>
<script type="text/javascript"><![CDATA[
var edges = document.getElementsByTagName('g');
if (edges && edges.length) {
  for (var i=0;i<edges.length;i++) {
    if (edges[i].id.substr(0,4)=='edge') {
      edges[i].setAttribute('class','edge');
    }
  }
}
]]></script>
        <defs>
                <circle id="rim" cx="0" cy="0" r="7"/>
                <circle id="rim2" cx="0" cy="0" r="3.5"/>
                <g id="zoomPlus">
                        <use xlink:href="#rim" fill="#404040">
                                <set attributeName="fill" to="#808080" begin="zoomplus.mouseover" end="zoomplus.mouseout"/>
                        </use>
                        <path d="M-4,0h8M0,-4v8" fill="none" stroke="white" stroke-width="1.5" pointer-events="none"/>
                </g>
                <g id="zoomMin">
                        <use xlink:href="#rim" fill="#404040">
                                <set attributeName="fill" to="#808080" begin="zoomminus.mouseover" end="zoomminus.mouseout"/>
                        </use>
                        <path d="M-4,0h8" fill="none" stroke="white" stroke-width="1.5" pointer-events="none"/>
                </g>
                <g id="dirArrow">
                        <path fill="none" stroke="white" stroke-width="1.5" d="M0,-3.0v7 M-2.5,-0.5L0,-3.0L2.5,-0.5"/>
                </g>
               <g id="resetDef">
                       <use xlink:href="#rim2" fill="#404040">
                               <set attributeName="fill" to="#808080" begin="reset.mouseover" end="reset.mouseout"/>
                       </use>
               </g>
        </defs>

<script type="text/javascript">
var viewWidth = 1572;
var viewHeight = 220;
var sectionId = 'dynsection-1';
</script>
<script xlink:href="svgpan.js"/>
<svg id="graph" class="graph">
<g id="viewport">
<title>curve_node::curve_node</title>
<polygon fill="white" stroke="white" points="-4,5 -4,-216 1569,-216 1569,5 -4,5"/>
<!-- Node1 -->
<g id="node1" class="node"><title>Node1</title>
<polygon fill="#bfbfbf" stroke="black" points="0.5,-169 0.5,-193 123.5,-193 123.5,-169 0.5,-169"/>
<text text-anchor="middle" x="62" y="-180" font-family="Helvetica,sans-Serif" font-size="10.00">curve_node::curve_node</text>
</g>
<!-- Node2 -->
<g id="node3" class="node"><title>Node2</title>
<a xlink:href="classcurve__node.html#a55e51b51f9b6ede537c5e11b7f234188" target="_top" xlink:title="curve_node::dummy">
<polygon fill="white" stroke="black" points="160.5,-169 160.5,-193 265.5,-193 265.5,-169 160.5,-169"/>
<text text-anchor="middle" x="213" y="-180" font-family="Helvetica,sans-Serif" font-size="10.00">curve_node::dummy</text>
</a>
</g>
<!-- Node1&#45;&gt;Node2 -->
<g id="edge2" class="edge"><title>Node1&#45;&gt;Node2</title>
<path fill="none" stroke="midnightblue" d="M134.109,-181C142.894,-181 151.74,-181 160.171,-181"/>
<polygon fill="midnightblue" stroke="midnightblue" points="133.853,-177.5 123.853,-181 133.853,-184.5 133.853,-177.5"/>
</g>
<!-- Node3 -->
<g id="node5" class="node"><title>Node3</title>
<a xlink:href="classcurve__node.html#a22f8acf6b081673429257867a4115c57" target="_top" xlink:title="curve_node::calc_tangents">
<polygon fill="white" stroke="black" points="302,-111 302,-135 436,-135 436,-111 302,-111"/>
<text text-anchor="middle" x="369" y="-122" font-family="Helvetica,sans-Serif" font-size="10.00">curve_node::calc_tangents</text>
</a>
</g>
<!-- Node2&#45;&gt;Node3 -->
<g id="edge4" class="edge"><title>Node2&#45;&gt;Node3</title>
<path fill="none" stroke="midnightblue" d="M254.817,-165.453C280.532,-155.892 312.988,-143.825 336.718,-135.002"/>
<polygon fill="midnightblue" stroke="midnightblue" points="253.477,-162.217 245.323,-168.982 255.916,-168.778 253.477,-162.217"/>
</g>
<!-- Node6 -->
<g id="node11" class="node"><title>Node6</title>
<a xlink:href="classcurve__node.html#aace217c0200a043c2d2f5f071fde8e56" target="_top" xlink:title="curve_node::draw_splines">
<polygon fill="white" stroke="black" points="762,-111 762,-135 892,-135 892,-111 762,-111"/>
<text text-anchor="middle" x="827" y="-122" font-family="Helvetica,sans-Serif" font-size="10.00">curve_node::draw_splines</text>
</a>
</g>
<!-- Node2&#45;&gt;Node6 -->
<g id="edge40" class="edge"><title>Node2&#45;&gt;Node6</title>
<path fill="none" stroke="midnightblue" d="M275.897,-179.157C372.911,-175.708 564.727,-166.48 726,-144 742.319,-141.725 759.953,-138.373 775.849,-135.012"/>
<polygon fill="midnightblue" stroke="midnightblue" points="275.549,-175.667 265.676,-179.511 275.791,-182.663 275.549,-175.667"/>
</g>
<!-- Node4 -->
<g id="node7" class="node"><title>Node4</title>
<a xlink:href="classcurve__node.html#abc1a06d649c6dce22334da762f2955b8" target="_top" xlink:title="curve_node::write_curve">
<polygon fill="white" stroke="black" points="472.5,-111 472.5,-135 595.5,-135 595.5,-111 472.5,-111"/>
<text text-anchor="middle" x="534" y="-122" font-family="Helvetica,sans-Serif" font-size="10.00">curve_node::write_curve</text>
</a>
</g>
<!-- Node3&#45;&gt;Node4 -->
<g id="edge6" class="edge"><title>Node3&#45;&gt;Node4</title>
<path fill="none" stroke="midnightblue" d="M446.282,-123C454.996,-123 463.788,-123 472.267,-123"/>
<polygon fill="midnightblue" stroke="midnightblue" points="446.112,-119.5 436.112,-123 446.112,-126.5 446.112,-119.5"/>
</g>
<!-- Node7 -->
<g id="node13" class="node"><title>Node7</title>
<a xlink:href="classcurve__node.html#afb8f3c6e6a53e062f5c2fb1cf7243969" target="_top" xlink:title="curve_node::SplineCurve">
<polygon fill="white" stroke="black" points="931,-101 931,-125 1057,-125 1057,-101 931,-101"/>
<text text-anchor="middle" x="994" y="-112" font-family="Helvetica,sans-Serif" font-size="10.00">curve_node::SplineCurve</text>
</a>
</g>
<!-- Node3&#45;&gt;Node7 -->
<g id="edge30" class="edge"><title>Node3&#45;&gt;Node7</title>
<path fill="none" stroke="midnightblue" d="M427.496,-108.952C441.956,-106.068 457.468,-103.466 472,-102 657.724,-83.2598 705.603,-91.9782 892,-102 904.628,-102.679 918.097,-103.827 930.969,-105.133"/>
<polygon fill="midnightblue" stroke="midnightblue" points="426.762,-105.53 417.679,-110.984 428.181,-112.385 426.762,-105.53"/>
</g>
<!-- Node8 -->
<g id="node15" class="node"><title>Node8</title>
<a xlink:href="classcurve__node.html#ac1e52fe7e8f762074b804b88a1b420cf" target="_top" xlink:title="curve_node::build_square">
<polygon fill="white" stroke="black" points="930,-8 930,-32 1058,-32 1058,-8 930,-8"/>
<text text-anchor="middle" x="994" y="-19" font-family="Helvetica,sans-Serif" font-size="10.00">curve_node::build_square</text>
</a>
</g>
<!-- Node3&#45;&gt;Node8 -->
<g id="edge32" class="edge"><title>Node3&#45;&gt;Node8</title>
<path fill="none" stroke="midnightblue" d="M395.69,-105.669C415.816,-93.5141 444.556,-78.0513 472,-70 631.865,-23.1005 829.916,-17.7025 929.868,-18.4376"/>
<polygon fill="midnightblue" stroke="midnightblue" points="393.754,-102.75 387.085,-110.982 397.432,-108.706 393.754,-102.75"/>
</g>
<!-- Node13 -->
<g id="node25" class="node"><title>Node13</title>
<a xlink:href="classcurve__node.html#a51a7bb24aa5832b54ec61507a556dda9" target="_top" xlink:title="curve_node::build_fluo">
<polygon fill="white" stroke="black" points="937,-188 937,-212 1051,-212 1051,-188 937,-188"/>
<text text-anchor="middle" x="994" y="-199" font-family="Helvetica,sans-Serif" font-size="10.00">curve_node::build_fluo</text>
</a>
</g>
<!-- Node3&#45;&gt;Node13 -->
<g id="edge34" class="edge"><title>Node3&#45;&gt;Node13</title>
<path fill="none" stroke="midnightblue" d="M402.463,-139.389C422.21,-148.274 447.97,-158.529 472,-164 637.633,-201.708 839.818,-203.536 936.775,-201.782"/>
<polygon fill="midnightblue" stroke="midnightblue" points="403.833,-136.166 393.285,-135.164 400.905,-142.525 403.833,-136.166"/>
</g>
<!-- Node14 -->
<g id="node27" class="node"><title>Node14</title>
<a xlink:href="classcurve__node.html#a6338ccf647d5f510c47702f613a3d9d2" target="_top" xlink:title="curve_node::build_preheat">
<polygon fill="white" stroke="black" points="928.5,-145 928.5,-169 1059.5,-169 1059.5,-145 928.5,-145"/>
<text text-anchor="middle" x="994" y="-156" font-family="Helvetica,sans-Serif" font-size="10.00">curve_node::build_preheat</text>
</a>
</g>
<!-- Node3&#45;&gt;Node14 -->
<g id="edge36" class="edge"><title>Node3&#45;&gt;Node14</title>
<path fill="none" stroke="midnightblue" d="M429.035,-137.092C443.059,-139.868 457.992,-142.41 472,-144 635.261,-162.53 829.007,-161.338 928.233,-159.062"/>
<polygon fill="midnightblue" stroke="midnightblue" points="429.509,-133.617 419.01,-135.04 428.105,-140.474 429.509,-133.617"/>
</g>
<!-- Node15 -->
<g id="node29" class="node"><title>Node15</title>
<a xlink:href="classcurve__node.html#a787cd6340d6b9e15da5723ed25eb18ff" target="_top" xlink:title="curve_node::build_inverse">
<polygon fill="white" stroke="black" points="929,-56 929,-80 1059,-80 1059,-56 929,-56"/>
<text text-anchor="middle" x="994" y="-67" font-family="Helvetica,sans-Serif" font-size="10.00">curve_node::build_inverse</text>
</a>
</g>
<!-- Node3&#45;&gt;Node15 -->
<g id="edge38" class="edge"><title>Node3&#45;&gt;Node15</title>
<path fill="none" stroke="midnightblue" d="M407.698,-107.385C426.738,-100.44 450.226,-92.9514 472,-89 634.195,-59.5656 829.197,-61.3408 928.669,-64.8467"/>
<polygon fill="midnightblue" stroke="midnightblue" points="406.319,-104.164 398.18,-110.946 408.772,-110.72 406.319,-104.164"/>
</g>
<!-- Node5 -->
<g id="node9" class="node"><title>Node5</title>
<a xlink:href="classcurve__node.html#ab1db9f4ea1c53ab2eab6072b2cdc90eb" target="_top" xlink:title="curve_node::draw">
<polygon fill="white" stroke="black" points="632,-111 632,-135 726,-135 726,-111 632,-111"/>
<text text-anchor="middle" x="679" y="-122" font-family="Helvetica,sans-Serif" font-size="10.00">curve_node::draw</text>
</a>
</g>
<!-- Node4&#45;&gt;Node5 -->
<g id="edge8" class="edge"><title>Node4&#45;&gt;Node5</title>
<path fill="none" stroke="midnightblue" d="M606.109,-123C614.823,-123 623.544,-123 631.769,-123"/>
<polygon fill="midnightblue" stroke="midnightblue" points="605.914,-119.5 595.914,-123 605.914,-126.5 605.914,-119.5"/>
</g>
<!-- Node5&#45;&gt;Node6 -->
<g id="edge10" class="edge"><title>Node5&#45;&gt;Node6</title>
<path fill="none" stroke="midnightblue" d="M736.277,-123C744.658,-123 753.341,-123 761.865,-123"/>
<polygon fill="midnightblue" stroke="midnightblue" points="736.235,-119.5 726.235,-123 736.235,-126.5 736.235,-119.5"/>
</g>
<!-- Node6&#45;&gt;Node7 -->
<g id="edge12" class="edge"><title>Node6&#45;&gt;Node7</title>
<path fill="none" stroke="midnightblue" d="M902.293,-118.491C911.811,-117.921 921.473,-117.343 930.777,-116.786"/>
<polygon fill="midnightblue" stroke="midnightblue" points="901.818,-115.014 892.045,-119.105 902.236,-122.001 901.818,-115.014"/>
</g>
<!-- Node6&#45;&gt;Node8 -->
<g id="edge14" class="edge"><title>Node6&#45;&gt;Node8</title>
<path fill="none" stroke="midnightblue" d="M848.331,-104.37C868.036,-87.8065 898.617,-63.695 928,-47 937.903,-41.3733 949.212,-36.3038 959.638,-32.1176"/>
<polygon fill="midnightblue" stroke="midnightblue" points="845.933,-101.815 840.587,-110.963 850.47,-107.145 845.933,-101.815"/>
</g>
<!-- Node6&#45;&gt;Node13 -->
<g id="edge24" class="edge"><title>Node6&#45;&gt;Node13</title>
<path fill="none" stroke="midnightblue" d="M855.435,-140.249C875.308,-151.861 902.71,-167.002 928,-178 936.307,-181.613 945.412,-184.997 954.133,-187.976"/>
<polygon fill="midnightblue" stroke="midnightblue" points="856.988,-137.101 846.598,-135.028 853.427,-143.128 856.988,-137.101"/>
</g>
<!-- Node6&#45;&gt;Node14 -->
<g id="edge26" class="edge"><title>Node6&#45;&gt;Node14</title>
<path fill="none" stroke="midnightblue" d="M896.459,-137.141C909.216,-139.739 922.423,-142.427 934.843,-144.956"/>
<polygon fill="midnightblue" stroke="midnightblue" points="896.845,-133.648 886.348,-135.083 895.449,-140.508 896.845,-133.648"/>
</g>
<!-- Node6&#45;&gt;Node15 -->
<g id="edge28" class="edge"><title>Node6&#45;&gt;Node15</title>
<path fill="none" stroke="midnightblue" d="M873.477,-107.693C899.998,-98.9589 932.765,-88.1671 957.437,-80.0418"/>
<polygon fill="midnightblue" stroke="midnightblue" points="872.052,-104.477 863.649,-110.93 874.242,-111.126 872.052,-104.477"/>
</g>
<!-- Node9 -->
<g id="node17" class="node"><title>Node9</title>
<a xlink:href="patch__core_8cpp.html#a072192232bbd1f5cb8cdffe9bc243870" target="_top" xlink:title="do_logical_menu_curve">
<polygon fill="white" stroke="black" points="1096.5,-8 1096.5,-32 1215.5,-32 1215.5,-8 1096.5,-8"/>
<text text-anchor="middle" x="1156" y="-19" font-family="Helvetica,sans-Serif" font-size="10.00">do_logical_menu_curve</text>
</a>
</g>
<!-- Node8&#45;&gt;Node9 -->
<g id="edge16" class="edge"><title>Node8&#45;&gt;Node9</title>
<path fill="none" stroke="midnightblue" d="M1068.2,-20C1077.65,-20 1087.22,-20 1096.39,-20"/>
<polygon fill="midnightblue" stroke="midnightblue" points="1068.03,-16.5001 1058.03,-20 1068.03,-23.5001 1068.03,-16.5001"/>
</g>
<!-- Node10 -->
<g id="node19" class="node"><title>Node10</title>
<a xlink:href="procs__visuels__rebuild1_8cpp.html#ae710b6e599e321ad5934a90140067054" target="_top" xlink:title="check_graphics_mouse\l_handling">
<polygon fill="white" stroke="black" points="1252.5,-0 1252.5,-40 1371.5,-40 1371.5,-0 1252.5,-0"/>
<text text-anchor="start" x="1260.5" y="-27" font-family="Helvetica,sans-Serif" font-size="10.00">check_graphics_mouse</text>
<text text-anchor="middle" x="1312" y="-11" font-family="Helvetica,sans-Serif" font-size="10.00">_handling</text>
</a>
</g>
<!-- Node9&#45;&gt;Node10 -->
<g id="edge18" class="edge"><title>Node9&#45;&gt;Node10</title>
<path fill="none" stroke="midnightblue" d="M1226.06,-20C1234.82,-20 1243.71,-20 1252.29,-20"/>
<polygon fill="midnightblue" stroke="midnightblue" points="1225.87,-16.5001 1215.87,-20 1225.87,-23.5001 1225.87,-16.5001"/>
</g>
<!-- Node11 -->
<g id="node21" class="node"><title>Node11</title>
<a xlink:href="_m_a_i_n__avec__objets_8cpp.html#a8e80f54ac804eddce8ed6e45adb1db44" target="_top" xlink:title="ticker_full_loop">
<polygon fill="white" stroke="black" points="1408,-8 1408,-32 1490,-32 1490,-8 1408,-8"/>
<text text-anchor="middle" x="1449" y="-19" font-family="Helvetica,sans-Serif" font-size="10.00">ticker_full_loop</text>
</a>
</g>
<!-- Node10&#45;&gt;Node11 -->
<g id="edge20" class="edge"><title>Node10&#45;&gt;Node11</title>
<path fill="none" stroke="midnightblue" d="M1381.97,-20C1390.74,-20 1399.47,-20 1407.61,-20"/>
<polygon fill="midnightblue" stroke="midnightblue" points="1381.69,-16.5001 1371.69,-20 1381.69,-23.5001 1381.69,-16.5001"/>
</g>
<!-- Node12 -->
<g id="node23" class="node"><title>Node12</title>
<a xlink:href="_m_a_i_n__avec__objets_8cpp.html#ae66f6b31b5ad750f1fe042a706a4e3d4" target="_top" xlink:title="main">
<polygon fill="white" stroke="black" points="1526,-8 1526,-32 1564,-32 1564,-8 1526,-8"/>
<text text-anchor="middle" x="1545" y="-19" font-family="Helvetica,sans-Serif" font-size="10.00">main</text>
</a>
</g>
<!-- Node11&#45;&gt;Node12 -->
<g id="edge22" class="edge"><title>Node11&#45;&gt;Node12</title>
<path fill="none" stroke="midnightblue" d="M1500.51,-20C1509.58,-20 1518.48,-20 1525.9,-20"/>
<polygon fill="midnightblue" stroke="midnightblue" points="1500.27,-16.5001 1490.27,-20 1500.27,-23.5001 1500.27,-16.5001"/>
</g>
</g>
</svg>
        <g id="navigator" transform="translate(0 0)" fill="#404254">
                <rect fill="#f2f5e9" fill-opacity="0.5" stroke="#606060" stroke-width=".5" x="0" y="0" width="60" height="60"/>
                <use id="zoomplus" xlink:href="#zoomPlus" x="17" y="9" onmousedown="handleZoom(evt,'in')"/>
                <use id="zoomminus" xlink:href="#zoomMin" x="42" y="9" onmousedown="handleZoom(evt,'out')"/>
                <use id="reset" xlink:href="#resetDef" x="30" y="36" onmousedown="handleReset()"/>
                <g id="arrowUp" xlink:href="#dirArrow" transform="translate(30 24)" onmousedown="handlePan(0,-1)">
                  <use xlink:href="#rim" fill="#404040">
                        <set attributeName="fill" to="#808080" begin="arrowUp.mouseover" end="arrowUp.mouseout"/>
                  </use>
                  <path fill="none" stroke="white" stroke-width="1.5" d="M0,-3.0v7 M-2.5,-0.5L0,-3.0L2.5,-0.5"/>
                </g>
                <g id="arrowRight" xlink:href="#dirArrow" transform="rotate(90) translate(36 -43)" onmousedown="handlePan(1,0)">
                  <use xlink:href="#rim" fill="#404040">
                        <set attributeName="fill" to="#808080" begin="arrowRight.mouseover" end="arrowRight.mouseout"/>
                  </use>
                  <path fill="none" stroke="white" stroke-width="1.5" d="M0,-3.0v7 M-2.5,-0.5L0,-3.0L2.5,-0.5"/>
                </g>
                <g id="arrowDown" xlink:href="#dirArrow" transform="rotate(180) translate(-30 -48)" onmousedown="handlePan(0,1)">
                  <use xlink:href="#rim" fill="#404040">
                        <set attributeName="fill" to="#808080" begin="arrowDown.mouseover" end="arrowDown.mouseout"/>
                  </use>
                  <path fill="none" stroke="white" stroke-width="1.5" d="M0,-3.0v7 M-2.5,-0.5L0,-3.0L2.5,-0.5"/>
                </g>
                <g id="arrowLeft" xlink:href="#dirArrow" transform="rotate(270) translate(-36 17)" onmousedown="handlePan(-1,0)">
                  <use xlink:href="#rim" fill="#404040">
                        <set attributeName="fill" to="#808080" begin="arrowLeft.mouseover" end="arrowLeft.mouseout"/>
                  </use>
                  <path fill="none" stroke="white" stroke-width="1.5" d="M0,-3.0v7 M-2.5,-0.5L0,-3.0L2.5,-0.5"/>
                </g>
        </g>
        <svg viewBox="0 0 15 15" width="100%" height="30px" preserveAspectRatio="xMaxYMin meet">
         <g id="arrow_out" transform="scale(0.3 0.3)">
          <a xlink:href="classcurve__node_add0d28f291f1cfe22e11f5436a8ba161_icgraph_org.svg" target="_base">
           <rect id="button" ry="5" rx="5" y="6" x="6" height="38" width="38"
                fill="#f2f5e9" fill-opacity="0.5" stroke="#606060" stroke-width="1.0"/>
           <path id="arrow"
             d="M 11.500037,31.436501 C 11.940474,20.09759 22.043105,11.32322 32.158766,21.979434 L 37.068811,17.246167 C 37.068811,17.246167 37.088388,32 37.088388,32 L 22.160133,31.978069 C 22.160133,31.978069 26.997745,27.140456 26.997745,27.140456 C 18.528582,18.264221 13.291696,25.230495 11.500037,31.436501 z"
             style="fill:#404040;"/>
          </a>
         </g>
        </svg>
</svg>
