<?xml version="1.0" encoding="UTF-8" standalone="no"?>
<!DOCTYPE svg PUBLIC "-//W3C//DTD SVG 1.1//EN"
 "http://www.w3.org/Graphics/SVG/1.1/DTD/svg11.dtd">
<!-- Generated by graphviz version 2.26.3 (20100126.1600)
 -->
<!-- Title: curve_node::build_fluo Pages: 1 -->
<svg width="1064pt" height="127pt"
 viewBox="0.00 0.00 1064.00 127.00" xmlns="http://www.w3.org/2000/svg" xmlns:xlink="http://www.w3.org/1999/xlink">
<g id="graph1" class="graph" transform="scale(1 1) rotate(0) translate(4 123)">
<title>curve_node::build_fluo</title>
<polygon fill="white" stroke="white" points="-4,5 -4,-123 1061,-123 1061,5 -4,5"/>
<!-- Node1 -->
<g id="node1" class="node"><title>Node1</title>
<polygon fill="#bfbfbf" stroke="black" points="0,-47 0,-71 114,-71 114,-47 0,-47"/>
<text text-anchor="middle" x="57" y="-58" font-family="Helvetica,sans-Serif" font-size="10.00">curve_node::build_fluo</text>
</g>
<!-- Node2 -->
<g id="node3" class="node"><title>Node2</title>
<a xlink:href="classcurve__node.html#a22f8acf6b081673429257867a4115c57" target="_top" xlink:title="curve_node::calc_tangents">
<polygon fill="white" stroke="black" points="620,-95 620,-119 754,-119 754,-95 620,-95"/>
<text text-anchor="middle" x="687" y="-106" font-family="Helvetica,sans-Serif" font-size="10.00">curve_node::calc_tangents</text>
</a>
</g>
<!-- Node1&#45;&gt;Node2 -->
<g id="edge2" class="edge"><title>Node1&#45;&gt;Node2</title>
<path fill="none" stroke="midnightblue" d="M103.072,-71.0479C117.951,-74.4956 134.585,-77.888 150,-80 312.447,-102.256 504.783,-106.682 609.515,-107.268"/>
<polygon fill="midnightblue" stroke="midnightblue" points="609.666,-110.768 619.682,-107.314 609.698,-103.768 609.666,-110.768"/>
</g>
<!-- Node5 -->
<g id="node9" class="node"><title>Node5</title>
<a xlink:href="classcurve__node.html#aace217c0200a043c2d2f5f071fde8e56" target="_top" xlink:title="curve_node::draw_splines">
<polygon fill="white" stroke="black" points="157,-47 157,-71 287,-71 287,-47 157,-47"/>
<text text-anchor="middle" x="222" y="-58" font-family="Helvetica,sans-Serif" font-size="10.00">curve_node::draw_splines</text>
</a>
</g>
<!-- Node1&#45;&gt;Node5 -->
<g id="edge8" class="edge"><title>Node1&#45;&gt;Node5</title>
<path fill="none" stroke="midnightblue" d="M114.246,-59C124.793,-59 135.949,-59 146.929,-59"/>
<polygon fill="midnightblue" stroke="midnightblue" points="146.939,-62.5001 156.939,-59 146.939,-55.5001 146.939,-62.5001"/>
</g>
<!-- Node10 -->
<g id="node21" class="node"><title>Node10</title>
<a xlink:href="classcurve__node.html#a5c54a9611e91814177cf901636d4e8e5" target="_top" xlink:title="curve_node::view_after_draw">
<polygon fill="white" stroke="black" points="150,-5 150,-29 294,-29 294,-5 150,-5"/>
<text text-anchor="middle" x="222" y="-16" font-family="Helvetica,sans-Serif" font-size="10.00">curve_node::view_after_draw</text>
</a>
</g>
<!-- Node1&#45;&gt;Node10 -->
<g id="edge22" class="edge"><title>Node1&#45;&gt;Node10</title>
<path fill="none" stroke="midnightblue" d="M104.282,-46.9645C123.182,-42.1536 145.118,-36.57 164.896,-31.5355"/>
<polygon fill="midnightblue" stroke="midnightblue" points="165.883,-34.896 174.711,-29.0373 164.156,-28.1123 165.883,-34.896"/>
</g>
<!-- Node3 -->
<g id="node5" class="node"><title>Node3</title>
<a xlink:href="classcurve__node.html#a55e51b51f9b6ede537c5e11b7f234188" target="_top" xlink:title="curve_node::dummy">
<polygon fill="white" stroke="black" points="790.5,-0 790.5,-24 895.5,-24 895.5,-0 790.5,-0"/>
<text text-anchor="middle" x="843" y="-11" font-family="Helvetica,sans-Serif" font-size="10.00">curve_node::dummy</text>
</a>
</g>
<!-- Node2&#45;&gt;Node3 -->
<g id="edge4" class="edge"><title>Node2&#45;&gt;Node3</title>
<path fill="none" stroke="midnightblue" d="M738.076,-94.871C743.713,-92.4231 749.157,-89.4961 754,-86 776.203,-69.9727 768.811,-53.3454 790,-36 793.12,-33.4457 796.556,-31.1044 800.134,-28.9718"/>
<polygon fill="midnightblue" stroke="midnightblue" points="802.061,-31.9099 809.218,-24.0981 798.751,-25.7416 802.061,-31.9099"/>
</g>
<!-- Node4 -->
<g id="node7" class="node"><title>Node4</title>
<a xlink:href="classcurve__node.html#add0d28f291f1cfe22e11f5436a8ba161" target="_top" xlink:title="curve_node::curve_node">
<polygon fill="white" stroke="black" points="932.5,-0 932.5,-24 1055.5,-24 1055.5,-0 932.5,-0"/>
<text text-anchor="middle" x="994" y="-11" font-family="Helvetica,sans-Serif" font-size="10.00">curve_node::curve_node</text>
</a>
</g>
<!-- Node3&#45;&gt;Node4 -->
<g id="edge6" class="edge"><title>Node3&#45;&gt;Node4</title>
<path fill="none" stroke="midnightblue" d="M895.812,-12C904.402,-12 913.422,-12 922.371,-12"/>
<polygon fill="midnightblue" stroke="midnightblue" points="922.416,-15.5001 932.416,-12 922.416,-8.5001 922.416,-15.5001"/>
</g>
<!-- Node5&#45;&gt;Node3 -->
<g id="edge10" class="edge"><title>Node5&#45;&gt;Node3</title>
<path fill="none" stroke="midnightblue" d="M275.874,-46.9709C293.087,-43.5458 312.272,-40.1618 330,-38 491.423,-18.3157 683.175,-13.482 780.14,-12.33"/>
<polygon fill="midnightblue" stroke="midnightblue" points="780.395,-15.8275 790.356,-12.2182 780.318,-8.82796 780.395,-15.8275"/>
</g>
<!-- Node6 -->
<g id="node12" class="node"><title>Node6</title>
<a xlink:href="classcurve__node.html#ab1db9f4ea1c53ab2eab6072b2cdc90eb" target="_top" xlink:title="curve_node::draw">
<polygon fill="white" stroke="black" points="330,-47 330,-71 424,-71 424,-47 330,-47"/>
<text text-anchor="middle" x="377" y="-58" font-family="Helvetica,sans-Serif" font-size="10.00">curve_node::draw</text>
</a>
</g>
<!-- Node5&#45;&gt;Node6 -->
<g id="edge12" class="edge"><title>Node5&#45;&gt;Node6</title>
<path fill="none" stroke="midnightblue" d="M287.285,-59C297.958,-59 308.947,-59 319.417,-59"/>
<polygon fill="midnightblue" stroke="midnightblue" points="319.682,-62.5001 329.682,-59 319.682,-55.5001 319.682,-62.5001"/>
</g>
<!-- Node7 -->
<g id="node14" class="node"><title>Node7</title>
<a xlink:href="classcurve__node.html#abc1a06d649c6dce22334da762f2955b8" target="_top" xlink:title="curve_node::write_curve">
<polygon fill="white" stroke="black" points="460.5,-47 460.5,-71 583.5,-71 583.5,-47 460.5,-47"/>
<text text-anchor="middle" x="522" y="-58" font-family="Helvetica,sans-Serif" font-size="10.00">curve_node::write_curve</text>
</a>
</g>
<!-- Node6&#45;&gt;Node7 -->
<g id="edge14" class="edge"><title>Node6&#45;&gt;Node7</title>
<path fill="none" stroke="midnightblue" d="M424.077,-59C432.489,-59 441.423,-59 450.34,-59"/>
<polygon fill="midnightblue" stroke="midnightblue" points="450.372,-62.5001 460.372,-59 450.372,-55.5001 450.372,-62.5001"/>
</g>
<!-- Node7&#45;&gt;Node2 -->
<g id="edge16" class="edge"><title>Node7&#45;&gt;Node2</title>
<path fill="none" stroke="midnightblue" d="M563.636,-71.1124C585.606,-77.5036 612.748,-85.3995 635.975,-92.1563"/>
<polygon fill="midnightblue" stroke="midnightblue" points="635.083,-95.542 645.663,-94.9747 637.039,-88.8206 635.083,-95.542"/>
</g>
<!-- Node8 -->
<g id="node17" class="node"><title>Node8</title>
<a xlink:href="classcurve__node.html#a14aba313f46315faae44bcca011136a9" target="_top" xlink:title="curve_node::get_control\l_points">
<polygon fill="white" stroke="black" points="626.5,-37 626.5,-77 747.5,-77 747.5,-37 626.5,-37"/>
<text text-anchor="start" x="634.5" y="-64" font-family="Helvetica,sans-Serif" font-size="10.00">curve_node::get_control</text>
<text text-anchor="middle" x="687" y="-48" font-family="Helvetica,sans-Serif" font-size="10.00">_points</text>
</a>
</g>
<!-- Node7&#45;&gt;Node8 -->
<g id="edge18" class="edge"><title>Node7&#45;&gt;Node8</title>
<path fill="none" stroke="midnightblue" d="M583.909,-58.2496C594.443,-58.1219 605.454,-57.9884 616.196,-57.8582"/>
<polygon fill="midnightblue" stroke="midnightblue" points="616.431,-61.3557 626.387,-57.7347 616.346,-54.3563 616.431,-61.3557"/>
</g>
<!-- Node9 -->
<g id="node19" class="node"><title>Node9</title>
<a xlink:href="classcurve__node.html#a1146c27b9e6c0b3a5f6fb3faced5cea2" target="_top" xlink:title="curve_node::dist">
<polygon fill="white" stroke="black" points="798.5,-45 798.5,-69 887.5,-69 887.5,-45 798.5,-45"/>
<text text-anchor="middle" x="843" y="-56" font-family="Helvetica,sans-Serif" font-size="10.00">curve_node::dist</text>
</a>
</g>
<!-- Node8&#45;&gt;Node9 -->
<g id="edge20" class="edge"><title>Node8&#45;&gt;Node9</title>
<path fill="none" stroke="midnightblue" d="M747.76,-57C760.991,-57 774.919,-57 787.915,-57"/>
<polygon fill="midnightblue" stroke="midnightblue" points="788.107,-60.5001 798.107,-57 788.107,-53.5001 788.107,-60.5001"/>
</g>
</g>
</svg>
