<?xml version="1.0" encoding="UTF-8" standalone="no"?>
<!DOCTYPE svg PUBLIC "-//W3C//DTD SVG 1.1//EN"
 "http://www.w3.org/Graphics/SVG/1.1/DTD/svg11.dtd">
<!-- Generated by graphviz version 2.26.3 (20100126.1600)
 -->
<!-- Title: curve_node::draw Pages: 1 -->
<!--zoomable 90 -->
<svg id="main" version="1.1" xmlns="http://www.w3.org/2000/svg" xmlns:xlink="http://www.w3.org/1999/xlink" xml:space="preserve" onload="init(evt)">
<style type="text/css"><![CDATA[
.edge:hover path { stroke: red; }
.edge:hover polygon { stroke: red; fill: red; }
]]></style>
<script type="text/javascript"><![CDATA[
var edges = document.getElementsByTagName('g');
if (edges && edges.length) {
  for (var i=0;i<edges.length;i++) {
    if (edges[i].id.substr(0,4)=='edge') {
      edges[i].setAttribute('class','edge');
    }
  }
}
]]></script>
        <defs>
                <circle id="rim" cx="0" cy="0" r="7"/>
                <circle id="rim2" cx="0" cy="0" r="3.5"/>
                <g id="zoomPlus">
                        <use xlink:href="#rim" fill="#404040">
                                <set attributeName="fill" to="#808080" begin="zoomplus.mouseover" end="zoomplus.mouseout"/>
                        </use>
                        <path d="M-4,0h8M0,-4v8" fill="none" stroke="white" stroke-width="1.5" pointer-events="none"/>
                </g>
                <g id="zoomMin">
                        <use xlink:href="#rim" fill="#404040">
                                <set attributeName="fill" to="#808080" begin="zoomminus.mouseover" end="zoomminus.mouseout"/>
                        </use>
                        <path d="M-4,0h8" fill="none" stroke="white" stroke-width="1.5" pointer-events="none"/>
                </g>
                <g id="dirArrow">
                        <path fill="none" stroke="white" stroke-width="1.5" d="M0,-3.0v7 M-2.5,-0.5L0,-3.0L2.5,-0.5"/>
                </g>
               <g id="resetDef">
                       <use xlink:href="#rim2" fill="#404040">
                               <set attributeName="fill" to="#808080" begin="reset.mouseover" end="reset.mouseout"/>
                       </use>
               </g>
        </defs>

<script type="text/javascript">
var viewWidth = 734;
var viewHeight = 90;
var sectionId = 'dynsection-10';
</script>
<script xlink:href="svgpan.js"/>
<svg id="graph" class="graph">
<g id="viewport">
<title>curve_node::draw</title>
<polygon fill="white" stroke="white" points="-4,5 -4,-86 731,-86 731,5 -4,5"/>
<!-- Node1 -->
<g id="node1" class="node"><title>Node1</title>
<polygon fill="#bfbfbf" stroke="black" points="0,-33 0,-57 94,-57 94,-33 0,-33"/>
<text text-anchor="middle" x="47" y="-44" font-family="Helvetica,sans-Serif" font-size="10.00">curve_node::draw</text>
</g>
<!-- Node2 -->
<g id="node3" class="node"><title>Node2</title>
<a xlink:href="classcurve__node.html#abc1a06d649c6dce22334da762f2955b8" target="_top" xlink:title="curve_node::write_curve">
<polygon fill="white" stroke="black" points="130.5,-33 130.5,-57 253.5,-57 253.5,-33 130.5,-33"/>
<text text-anchor="middle" x="192" y="-44" font-family="Helvetica,sans-Serif" font-size="10.00">curve_node::write_curve</text>
</a>
</g>
<!-- Node1&#45;&gt;Node2 -->
<g id="edge2" class="edge"><title>Node1&#45;&gt;Node2</title>
<path fill="none" stroke="midnightblue" d="M94.0773,-45C102.489,-45 111.423,-45 120.34,-45"/>
<polygon fill="midnightblue" stroke="midnightblue" points="120.372,-48.5001 130.372,-45 120.372,-41.5001 120.372,-48.5001"/>
</g>
<!-- Node3 -->
<g id="node5" class="node"><title>Node3</title>
<a xlink:href="classcurve__node.html#a22f8acf6b081673429257867a4115c57" target="_top" xlink:title="curve_node::calc_tangents">
<polygon fill="white" stroke="black" points="290,-58 290,-82 424,-82 424,-58 290,-58"/>
<text text-anchor="middle" x="357" y="-69" font-family="Helvetica,sans-Serif" font-size="10.00">curve_node::calc_tangents</text>
</a>
</g>
<!-- Node2&#45;&gt;Node3 -->
<g id="edge4" class="edge"><title>Node2&#45;&gt;Node3</title>
<path fill="none" stroke="midnightblue" d="M253.909,-54.3802C262.322,-55.6549 271.04,-56.9758 279.682,-58.2852"/>
<polygon fill="midnightblue" stroke="midnightblue" points="279.358,-61.7759 289.769,-59.8135 280.406,-54.8549 279.358,-61.7759"/>
</g>
<!-- Node6 -->
<g id="node11" class="node"><title>Node6</title>
<a xlink:href="classcurve__node.html#a14aba313f46315faae44bcca011136a9" target="_top" xlink:title="curve_node::get_control\l_points">
<polygon fill="white" stroke="black" points="296.5,-0 296.5,-40 417.5,-40 417.5,-0 296.5,-0"/>
<text text-anchor="start" x="304.5" y="-27" font-family="Helvetica,sans-Serif" font-size="10.00">curve_node::get_control</text>
<text text-anchor="middle" x="357" y="-11" font-family="Helvetica,sans-Serif" font-size="10.00">_points</text>
</a>
</g>
<!-- Node2&#45;&gt;Node6 -->
<g id="edge10" class="edge"><title>Node2&#45;&gt;Node6</title>
<path fill="none" stroke="midnightblue" d="M253.909,-35.6198C264.443,-34.0239 275.454,-32.3554 286.196,-30.7279"/>
<polygon fill="midnightblue" stroke="midnightblue" points="287.025,-34.1424 296.387,-29.1837 285.976,-27.2214 287.025,-34.1424"/>
</g>
<!-- Node4 -->
<g id="node7" class="node"><title>Node4</title>
<a xlink:href="classcurve__node.html#a55e51b51f9b6ede537c5e11b7f234188" target="_top" xlink:title="curve_node::dummy">
<polygon fill="white" stroke="black" points="460.5,-58 460.5,-82 565.5,-82 565.5,-58 460.5,-58"/>
<text text-anchor="middle" x="513" y="-69" font-family="Helvetica,sans-Serif" font-size="10.00">curve_node::dummy</text>
</a>
</g>
<!-- Node3&#45;&gt;Node4 -->
<g id="edge6" class="edge"><title>Node3&#45;&gt;Node4</title>
<path fill="none" stroke="midnightblue" d="M424.063,-70C432.635,-70 441.386,-70 449.892,-70"/>
<polygon fill="midnightblue" stroke="midnightblue" points="450.118,-73.5001 460.118,-70 450.117,-66.5001 450.118,-73.5001"/>
</g>
<!-- Node5 -->
<g id="node9" class="node"><title>Node5</title>
<a xlink:href="classcurve__node.html#add0d28f291f1cfe22e11f5436a8ba161" target="_top" xlink:title="curve_node::curve_node">
<polygon fill="white" stroke="black" points="602.5,-58 602.5,-82 725.5,-82 725.5,-58 602.5,-58"/>
<text text-anchor="middle" x="664" y="-69" font-family="Helvetica,sans-Serif" font-size="10.00">curve_node::curve_node</text>
</a>
</g>
<!-- Node4&#45;&gt;Node5 -->
<g id="edge8" class="edge"><title>Node4&#45;&gt;Node5</title>
<path fill="none" stroke="midnightblue" d="M565.812,-70C574.402,-70 583.422,-70 592.371,-70"/>
<polygon fill="midnightblue" stroke="midnightblue" points="592.416,-73.5001 602.416,-70 592.416,-66.5001 592.416,-73.5001"/>
</g>
<!-- Node7 -->
<g id="node13" class="node"><title>Node7</title>
<a xlink:href="classcurve__node.html#a1146c27b9e6c0b3a5f6fb3faced5cea2" target="_top" xlink:title="curve_node::dist">
<polygon fill="white" stroke="black" points="468.5,-8 468.5,-32 557.5,-32 557.5,-8 468.5,-8"/>
<text text-anchor="middle" x="513" y="-19" font-family="Helvetica,sans-Serif" font-size="10.00">curve_node::dist</text>
</a>
</g>
<!-- Node6&#45;&gt;Node7 -->
<g id="edge12" class="edge"><title>Node6&#45;&gt;Node7</title>
<path fill="none" stroke="midnightblue" d="M417.76,-20C430.991,-20 444.919,-20 457.915,-20"/>
<polygon fill="midnightblue" stroke="midnightblue" points="458.107,-23.5001 468.107,-20 458.107,-16.5001 458.107,-23.5001"/>
</g>
</g>
</svg>
        <g id="navigator" transform="translate(0 0)" fill="#404254">
                <rect fill="#f2f5e9" fill-opacity="0.5" stroke="#606060" stroke-width=".5" x="0" y="0" width="60" height="60"/>
                <use id="zoomplus" xlink:href="#zoomPlus" x="17" y="9" onmousedown="handleZoom(evt,'in')"/>
                <use id="zoomminus" xlink:href="#zoomMin" x="42" y="9" onmousedown="handleZoom(evt,'out')"/>
                <use id="reset" xlink:href="#resetDef" x="30" y="36" onmousedown="handleReset()"/>
                <g id="arrowUp" xlink:href="#dirArrow" transform="translate(30 24)" onmousedown="handlePan(0,-1)">
                  <use xlink:href="#rim" fill="#404040">
                        <set attributeName="fill" to="#808080" begin="arrowUp.mouseover" end="arrowUp.mouseout"/>
                  </use>
                  <path fill="none" stroke="white" stroke-width="1.5" d="M0,-3.0v7 M-2.5,-0.5L0,-3.0L2.5,-0.5"/>
                </g>
                <g id="arrowRight" xlink:href="#dirArrow" transform="rotate(90) translate(36 -43)" onmousedown="handlePan(1,0)">
                  <use xlink:href="#rim" fill="#404040">
                        <set attributeName="fill" to="#808080" begin="arrowRight.mouseover" end="arrowRight.mouseout"/>
                  </use>
                  <path fill="none" stroke="white" stroke-width="1.5" d="M0,-3.0v7 M-2.5,-0.5L0,-3.0L2.5,-0.5"/>
                </g>
                <g id="arrowDown" xlink:href="#dirArrow" transform="rotate(180) translate(-30 -48)" onmousedown="handlePan(0,1)">
                  <use xlink:href="#rim" fill="#404040">
                        <set attributeName="fill" to="#808080" begin="arrowDown.mouseover" end="arrowDown.mouseout"/>
                  </use>
                  <path fill="none" stroke="white" stroke-width="1.5" d="M0,-3.0v7 M-2.5,-0.5L0,-3.0L2.5,-0.5"/>
                </g>
                <g id="arrowLeft" xlink:href="#dirArrow" transform="rotate(270) translate(-36 17)" onmousedown="handlePan(-1,0)">
                  <use xlink:href="#rim" fill="#404040">
                        <set attributeName="fill" to="#808080" begin="arrowLeft.mouseover" end="arrowLeft.mouseout"/>
                  </use>
                  <path fill="none" stroke="white" stroke-width="1.5" d="M0,-3.0v7 M-2.5,-0.5L0,-3.0L2.5,-0.5"/>
                </g>
        </g>
        <svg viewBox="0 0 15 15" width="100%" height="30px" preserveAspectRatio="xMaxYMin meet">
         <g id="arrow_out" transform="scale(0.3 0.3)">
          <a xlink:href="classcurve__node_ab1db9f4ea1c53ab2eab6072b2cdc90eb_cgraph_org.svg" target="_base">
           <rect id="button" ry="5" rx="5" y="6" x="6" height="38" width="38"
                fill="#f2f5e9" fill-opacity="0.5" stroke="#606060" stroke-width="1.0"/>
           <path id="arrow"
             d="M 11.500037,31.436501 C 11.940474,20.09759 22.043105,11.32322 32.158766,21.979434 L 37.068811,17.246167 C 37.068811,17.246167 37.088388,32 37.088388,32 L 22.160133,31.978069 C 22.160133,31.978069 26.997745,27.140456 26.997745,27.140456 C 18.528582,18.264221 13.291696,25.230495 11.500037,31.436501 z"
             style="fill:#404040;"/>
          </a>
         </g>
        </svg>
</svg>
