<?xml version="1.0" encoding="UTF-8" standalone="no"?>
<!DOCTYPE svg PUBLIC "-//W3C//DTD SVG 1.1//EN"
 "http://www.w3.org/Graphics/SVG/1.1/DTD/svg11.dtd">
<!-- Generated by graphviz version 2.26.3 (20100126.1600)
 -->
<!-- Title: curve_node::SplineCurve Pages: 1 -->
<!--zoomable 127 -->
<svg id="main" version="1.1" xmlns="http://www.w3.org/2000/svg" xmlns:xlink="http://www.w3.org/1999/xlink" xml:space="preserve" onload="init(evt)">
<style type="text/css"><![CDATA[
.edge:hover path { stroke: red; }
.edge:hover polygon { stroke: red; fill: red; }
]]></style>
<script type="text/javascript"><![CDATA[
var edges = document.getElementsByTagName('g');
if (edges && edges.length) {
  for (var i=0;i<edges.length;i++) {
    if (edges[i].id.substr(0,4)=='edge') {
      edges[i].setAttribute('class','edge');
    }
  }
}
]]></script>
        <defs>
                <circle id="rim" cx="0" cy="0" r="7"/>
                <circle id="rim2" cx="0" cy="0" r="3.5"/>
                <g id="zoomPlus">
                        <use xlink:href="#rim" fill="#404040">
                                <set attributeName="fill" to="#808080" begin="zoomplus.mouseover" end="zoomplus.mouseout"/>
                        </use>
                        <path d="M-4,0h8M0,-4v8" fill="none" stroke="white" stroke-width="1.5" pointer-events="none"/>
                </g>
                <g id="zoomMin">
                        <use xlink:href="#rim" fill="#404040">
                                <set attributeName="fill" to="#808080" begin="zoomminus.mouseover" end="zoomminus.mouseout"/>
                        </use>
                        <path d="M-4,0h8" fill="none" stroke="white" stroke-width="1.5" pointer-events="none"/>
                </g>
                <g id="dirArrow">
                        <path fill="none" stroke="white" stroke-width="1.5" d="M0,-3.0v7 M-2.5,-0.5L0,-3.0L2.5,-0.5"/>
                </g>
               <g id="resetDef">
                       <use xlink:href="#rim2" fill="#404040">
                               <set attributeName="fill" to="#808080" begin="reset.mouseover" end="reset.mouseout"/>
                       </use>
               </g>
        </defs>

<script type="text/javascript">
var viewWidth = 1076;
var viewHeight = 127;
var sectionId = 'dynsection-18';
</script>
<script xlink:href="svgpan.js"/>
<svg id="graph" class="graph">
<g id="viewport">
<title>curve_node::SplineCurve</title>
<polygon fill="white" stroke="white" points="-4,5 -4,-123 1073,-123 1073,5 -4,5"/>
<!-- Node1 -->
<g id="node1" class="node"><title>Node1</title>
<polygon fill="#bfbfbf" stroke="black" points="0,-47 0,-71 126,-71 126,-47 0,-47"/>
<text text-anchor="middle" x="63" y="-58" font-family="Helvetica,sans-Serif" font-size="10.00">curve_node::SplineCurve</text>
</g>
<!-- Node2 -->
<g id="node3" class="node"><title>Node2</title>
<a xlink:href="classcurve__node.html#a22f8acf6b081673429257867a4115c57" target="_top" xlink:title="curve_node::calc_tangents">
<polygon fill="white" stroke="black" points="632,-95 632,-119 766,-119 766,-95 632,-95"/>
<text text-anchor="middle" x="699" y="-106" font-family="Helvetica,sans-Serif" font-size="10.00">curve_node::calc_tangents</text>
</a>
</g>
<!-- Node1&#45;&gt;Node2 -->
<g id="edge2" class="edge"><title>Node1&#45;&gt;Node2</title>
<path fill="none" stroke="midnightblue" d="M112.084,-71.0204C127.925,-74.4666 145.623,-77.8651 162,-80 324.589,-101.195 516.872,-106.016 621.557,-106.954"/>
<polygon fill="midnightblue" stroke="midnightblue" points="621.691,-110.455 631.719,-107.035 621.747,-103.455 621.691,-110.455"/>
</g>
<!-- Node5 -->
<g id="node9" class="node"><title>Node5</title>
<a xlink:href="classcurve__node.html#aace217c0200a043c2d2f5f071fde8e56" target="_top" xlink:title="curve_node::draw_splines">
<polygon fill="white" stroke="black" points="169,-47 169,-71 299,-71 299,-47 169,-47"/>
<text text-anchor="middle" x="234" y="-58" font-family="Helvetica,sans-Serif" font-size="10.00">curve_node::draw_splines</text>
</a>
</g>
<!-- Node1&#45;&gt;Node5 -->
<g id="edge8" class="edge"><title>Node1&#45;&gt;Node5</title>
<path fill="none" stroke="midnightblue" d="M126.188,-59C136.715,-59 147.726,-59 158.521,-59"/>
<polygon fill="midnightblue" stroke="midnightblue" points="158.782,-62.5001 168.782,-59 158.782,-55.5001 158.782,-62.5001"/>
</g>
<!-- Node10 -->
<g id="node21" class="node"><title>Node10</title>
<a xlink:href="classcurve__node.html#a5c54a9611e91814177cf901636d4e8e5" target="_top" xlink:title="curve_node::view_after_draw">
<polygon fill="white" stroke="black" points="162,-5 162,-29 306,-29 306,-5 162,-5"/>
<text text-anchor="middle" x="234" y="-16" font-family="Helvetica,sans-Serif" font-size="10.00">curve_node::view_after_draw</text>
</a>
</g>
<!-- Node1&#45;&gt;Node10 -->
<g id="edge22" class="edge"><title>Node1&#45;&gt;Node10</title>
<path fill="none" stroke="midnightblue" d="M112.002,-46.9645C131.678,-42.1316 154.53,-36.5189 175.1,-31.4666"/>
<polygon fill="midnightblue" stroke="midnightblue" points="176.115,-34.8216 184.991,-29.0373 174.445,-28.0236 176.115,-34.8216"/>
</g>
<!-- Node3 -->
<g id="node5" class="node"><title>Node3</title>
<a xlink:href="classcurve__node.html#a55e51b51f9b6ede537c5e11b7f234188" target="_top" xlink:title="curve_node::dummy">
<polygon fill="white" stroke="black" points="802.5,-0 802.5,-24 907.5,-24 907.5,-0 802.5,-0"/>
<text text-anchor="middle" x="855" y="-11" font-family="Helvetica,sans-Serif" font-size="10.00">curve_node::dummy</text>
</a>
</g>
<!-- Node2&#45;&gt;Node3 -->
<g id="edge4" class="edge"><title>Node2&#45;&gt;Node3</title>
<path fill="none" stroke="midnightblue" d="M750.076,-94.871C755.713,-92.4231 761.157,-89.4961 766,-86 788.203,-69.9727 780.811,-53.3454 802,-36 805.12,-33.4457 808.556,-31.1044 812.134,-28.9718"/>
<polygon fill="midnightblue" stroke="midnightblue" points="814.061,-31.9099 821.218,-24.0981 810.751,-25.7416 814.061,-31.9099"/>
</g>
<!-- Node4 -->
<g id="node7" class="node"><title>Node4</title>
<a xlink:href="classcurve__node.html#add0d28f291f1cfe22e11f5436a8ba161" target="_top" xlink:title="curve_node::curve_node">
<polygon fill="white" stroke="black" points="944.5,-0 944.5,-24 1067.5,-24 1067.5,-0 944.5,-0"/>
<text text-anchor="middle" x="1006" y="-11" font-family="Helvetica,sans-Serif" font-size="10.00">curve_node::curve_node</text>
</a>
</g>
<!-- Node3&#45;&gt;Node4 -->
<g id="edge6" class="edge"><title>Node3&#45;&gt;Node4</title>
<path fill="none" stroke="midnightblue" d="M907.812,-12C916.402,-12 925.422,-12 934.371,-12"/>
<polygon fill="midnightblue" stroke="midnightblue" points="934.416,-15.5001 944.416,-12 934.416,-8.5001 934.416,-15.5001"/>
</g>
<!-- Node5&#45;&gt;Node3 -->
<g id="edge10" class="edge"><title>Node5&#45;&gt;Node3</title>
<path fill="none" stroke="midnightblue" d="M287.874,-46.9709C305.087,-43.5458 324.272,-40.1618 342,-38 503.423,-18.3157 695.175,-13.482 792.14,-12.33"/>
<polygon fill="midnightblue" stroke="midnightblue" points="792.395,-15.8275 802.356,-12.2182 792.318,-8.82796 792.395,-15.8275"/>
</g>
<!-- Node6 -->
<g id="node12" class="node"><title>Node6</title>
<a xlink:href="classcurve__node.html#ab1db9f4ea1c53ab2eab6072b2cdc90eb" target="_top" xlink:title="curve_node::draw">
<polygon fill="white" stroke="black" points="342,-47 342,-71 436,-71 436,-47 342,-47"/>
<text text-anchor="middle" x="389" y="-58" font-family="Helvetica,sans-Serif" font-size="10.00">curve_node::draw</text>
</a>
</g>
<!-- Node5&#45;&gt;Node6 -->
<g id="edge12" class="edge"><title>Node5&#45;&gt;Node6</title>
<path fill="none" stroke="midnightblue" d="M299.285,-59C309.958,-59 320.947,-59 331.417,-59"/>
<polygon fill="midnightblue" stroke="midnightblue" points="331.682,-62.5001 341.682,-59 331.682,-55.5001 331.682,-62.5001"/>
</g>
<!-- Node7 -->
<g id="node14" class="node"><title>Node7</title>
<a xlink:href="classcurve__node.html#abc1a06d649c6dce22334da762f2955b8" target="_top" xlink:title="curve_node::write_curve">
<polygon fill="white" stroke="black" points="472.5,-47 472.5,-71 595.5,-71 595.5,-47 472.5,-47"/>
<text text-anchor="middle" x="534" y="-58" font-family="Helvetica,sans-Serif" font-size="10.00">curve_node::write_curve</text>
</a>
</g>
<!-- Node6&#45;&gt;Node7 -->
<g id="edge14" class="edge"><title>Node6&#45;&gt;Node7</title>
<path fill="none" stroke="midnightblue" d="M436.077,-59C444.489,-59 453.423,-59 462.34,-59"/>
<polygon fill="midnightblue" stroke="midnightblue" points="462.372,-62.5001 472.372,-59 462.372,-55.5001 462.372,-62.5001"/>
</g>
<!-- Node7&#45;&gt;Node2 -->
<g id="edge16" class="edge"><title>Node7&#45;&gt;Node2</title>
<path fill="none" stroke="midnightblue" d="M575.636,-71.1124C597.606,-77.5036 624.748,-85.3995 647.975,-92.1563"/>
<polygon fill="midnightblue" stroke="midnightblue" points="647.083,-95.542 657.663,-94.9747 649.039,-88.8206 647.083,-95.542"/>
</g>
<!-- Node8 -->
<g id="node17" class="node"><title>Node8</title>
<a xlink:href="classcurve__node.html#a14aba313f46315faae44bcca011136a9" target="_top" xlink:title="curve_node::get_control\l_points">
<polygon fill="white" stroke="black" points="638.5,-37 638.5,-77 759.5,-77 759.5,-37 638.5,-37"/>
<text text-anchor="start" x="646.5" y="-64" font-family="Helvetica,sans-Serif" font-size="10.00">curve_node::get_control</text>
<text text-anchor="middle" x="699" y="-48" font-family="Helvetica,sans-Serif" font-size="10.00">_points</text>
</a>
</g>
<!-- Node7&#45;&gt;Node8 -->
<g id="edge18" class="edge"><title>Node7&#45;&gt;Node8</title>
<path fill="none" stroke="midnightblue" d="M595.909,-58.2496C606.443,-58.1219 617.454,-57.9884 628.196,-57.8582"/>
<polygon fill="midnightblue" stroke="midnightblue" points="628.431,-61.3557 638.387,-57.7347 628.346,-54.3563 628.431,-61.3557"/>
</g>
<!-- Node9 -->
<g id="node19" class="node"><title>Node9</title>
<a xlink:href="classcurve__node.html#a1146c27b9e6c0b3a5f6fb3faced5cea2" target="_top" xlink:title="curve_node::dist">
<polygon fill="white" stroke="black" points="810.5,-45 810.5,-69 899.5,-69 899.5,-45 810.5,-45"/>
<text text-anchor="middle" x="855" y="-56" font-family="Helvetica,sans-Serif" font-size="10.00">curve_node::dist</text>
</a>
</g>
<!-- Node8&#45;&gt;Node9 -->
<g id="edge20" class="edge"><title>Node8&#45;&gt;Node9</title>
<path fill="none" stroke="midnightblue" d="M759.76,-57C772.991,-57 786.919,-57 799.915,-57"/>
<polygon fill="midnightblue" stroke="midnightblue" points="800.107,-60.5001 810.107,-57 800.107,-53.5001 800.107,-60.5001"/>
</g>
</g>
</svg>
        <g id="navigator" transform="translate(0 0)" fill="#404254">
                <rect fill="#f2f5e9" fill-opacity="0.5" stroke="#606060" stroke-width=".5" x="0" y="0" width="60" height="60"/>
                <use id="zoomplus" xlink:href="#zoomPlus" x="17" y="9" onmousedown="handleZoom(evt,'in')"/>
                <use id="zoomminus" xlink:href="#zoomMin" x="42" y="9" onmousedown="handleZoom(evt,'out')"/>
                <use id="reset" xlink:href="#resetDef" x="30" y="36" onmousedown="handleReset()"/>
                <g id="arrowUp" xlink:href="#dirArrow" transform="translate(30 24)" onmousedown="handlePan(0,-1)">
                  <use xlink:href="#rim" fill="#404040">
                        <set attributeName="fill" to="#808080" begin="arrowUp.mouseover" end="arrowUp.mouseout"/>
                  </use>
                  <path fill="none" stroke="white" stroke-width="1.5" d="M0,-3.0v7 M-2.5,-0.5L0,-3.0L2.5,-0.5"/>
                </g>
                <g id="arrowRight" xlink:href="#dirArrow" transform="rotate(90) translate(36 -43)" onmousedown="handlePan(1,0)">
                  <use xlink:href="#rim" fill="#404040">
                        <set attributeName="fill" to="#808080" begin="arrowRight.mouseover" end="arrowRight.mouseout"/>
                  </use>
                  <path fill="none" stroke="white" stroke-width="1.5" d="M0,-3.0v7 M-2.5,-0.5L0,-3.0L2.5,-0.5"/>
                </g>
                <g id="arrowDown" xlink:href="#dirArrow" transform="rotate(180) translate(-30 -48)" onmousedown="handlePan(0,1)">
                  <use xlink:href="#rim" fill="#404040">
                        <set attributeName="fill" to="#808080" begin="arrowDown.mouseover" end="arrowDown.mouseout"/>
                  </use>
                  <path fill="none" stroke="white" stroke-width="1.5" d="M0,-3.0v7 M-2.5,-0.5L0,-3.0L2.5,-0.5"/>
                </g>
                <g id="arrowLeft" xlink:href="#dirArrow" transform="rotate(270) translate(-36 17)" onmousedown="handlePan(-1,0)">
                  <use xlink:href="#rim" fill="#404040">
                        <set attributeName="fill" to="#808080" begin="arrowLeft.mouseover" end="arrowLeft.mouseout"/>
                  </use>
                  <path fill="none" stroke="white" stroke-width="1.5" d="M0,-3.0v7 M-2.5,-0.5L0,-3.0L2.5,-0.5"/>
                </g>
        </g>
        <svg viewBox="0 0 15 15" width="100%" height="30px" preserveAspectRatio="xMaxYMin meet">
         <g id="arrow_out" transform="scale(0.3 0.3)">
          <a xlink:href="classcurve__node_afb8f3c6e6a53e062f5c2fb1cf7243969_cgraph_org.svg" target="_base">
           <rect id="button" ry="5" rx="5" y="6" x="6" height="38" width="38"
                fill="#f2f5e9" fill-opacity="0.5" stroke="#606060" stroke-width="1.0"/>
           <path id="arrow"
             d="M 11.500037,31.436501 C 11.940474,20.09759 22.043105,11.32322 32.158766,21.979434 L 37.068811,17.246167 C 37.068811,17.246167 37.088388,32 37.088388,32 L 22.160133,31.978069 C 22.160133,31.978069 26.997745,27.140456 26.997745,27.140456 C 18.528582,18.264221 13.291696,25.230495 11.500037,31.436501 z"
             style="fill:#404040;"/>
          </a>
         </g>
        </svg>
</svg>
