<?xml version="1.0" encoding="UTF-8" standalone="no"?>
<!DOCTYPE svg PUBLIC "-//W3C//DTD SVG 1.1//EN"
 "http://www.w3.org/Graphics/SVG/1.1/DTD/svg11.dtd">
<!-- Generated by graphviz version 2.26.3 (20100126.1600)
 -->
<!-- Title: CouleurLockDefaut Pages: 1 -->
<!--zoomable 292 -->
<svg id="main" version="1.1" xmlns="http://www.w3.org/2000/svg" xmlns:xlink="http://www.w3.org/1999/xlink" xml:space="preserve" onload="init(evt)">
<style type="text/css"><![CDATA[
.edge:hover path { stroke: red; }
.edge:hover polygon { stroke: red; fill: red; }
]]></style>
<script type="text/javascript"><![CDATA[
var edges = document.getElementsByTagName('g');
if (edges && edges.length) {
  for (var i=0;i<edges.length;i++) {
    if (edges[i].id.substr(0,4)=='edge') {
      edges[i].setAttribute('class','edge');
    }
  }
}
]]></script>
        <defs>
                <circle id="rim" cx="0" cy="0" r="7"/>
                <circle id="rim2" cx="0" cy="0" r="3.5"/>
                <g id="zoomPlus">
                        <use xlink:href="#rim" fill="#404040">
                                <set attributeName="fill" to="#808080" begin="zoomplus.mouseover" end="zoomplus.mouseout"/>
                        </use>
                        <path d="M-4,0h8M0,-4v8" fill="none" stroke="white" stroke-width="1.5" pointer-events="none"/>
                </g>
                <g id="zoomMin">
                        <use xlink:href="#rim" fill="#404040">
                                <set attributeName="fill" to="#808080" begin="zoomminus.mouseover" end="zoomminus.mouseout"/>
                        </use>
                        <path d="M-4,0h8" fill="none" stroke="white" stroke-width="1.5" pointer-events="none"/>
                </g>
                <g id="dirArrow">
                        <path fill="none" stroke="white" stroke-width="1.5" d="M0,-3.0v7 M-2.5,-0.5L0,-3.0L2.5,-0.5"/>
                </g>
               <g id="resetDef">
                       <use xlink:href="#rim2" fill="#404040">
                               <set attributeName="fill" to="#808080" begin="reset.mouseover" end="reset.mouseout"/>
                       </use>
               </g>
        </defs>

<script type="text/javascript">
var viewWidth = 1230;
var viewHeight = 292;
var sectionId = 'dynsection-18';
</script>
<script xlink:href="svgpan.js"/>
<svg id="graph" class="graph">
<g id="viewport">
<title>CouleurLockDefaut</title>
<polygon fill="white" stroke="white" points="-4,5 -4,-288.378 1227,-288.378 1227,5 -4,5"/>
<!-- Node1 -->
<g id="node1" class="node"><title>Node1</title>
<polygon fill="#bfbfbf" stroke="black" points="0.5,-188.378 0.5,-212.378 101.5,-212.378 101.5,-188.378 0.5,-188.378"/>
<text text-anchor="middle" x="51" y="-199.378" font-family="Helvetica,sans-Serif" font-size="10.00">CouleurLockDefaut</text>
</g>
<!-- Node2 -->
<g id="node3" class="node"><title>Node2</title>
<a xlink:href="_c_o_r_e__6_8cpp.html#a3151aaac61e3f1704869ba4e3ea06226" target="_top" xlink:title="LoadWhiteCatColorProfil">
<polygon fill="white" stroke="black" points="138.5,-188.378 138.5,-212.378 263.5,-212.378 263.5,-188.378 138.5,-188.378"/>
<text text-anchor="middle" x="201" y="-199.378" font-family="Helvetica,sans-Serif" font-size="10.00">LoadWhiteCatColorProfil</text>
</a>
</g>
<!-- Node1&#45;&gt;Node2 -->
<g id="edge2" class="edge"><title>Node1&#45;&gt;Node2</title>
<path fill="none" stroke="midnightblue" d="M111.86,-200.378C120.572,-200.378 129.549,-200.378 138.296,-200.378"/>
<polygon fill="midnightblue" stroke="midnightblue" points="111.783,-196.878 101.783,-200.378 111.783,-203.878 111.783,-196.878"/>
</g>
<!-- Node3 -->
<g id="node5" class="node"><title>Node3</title>
<a xlink:href="_c_f_g__screen_8cpp.html#ac3bf4b5c2955a4f8d1f21437308ead37" target="_top" xlink:title="do_screen_config">
<polygon fill="white" stroke="black" points="300.5,-214.378 300.5,-238.378 393.5,-238.378 393.5,-214.378 300.5,-214.378"/>
<text text-anchor="middle" x="347" y="-225.378" font-family="Helvetica,sans-Serif" font-size="10.00">do_screen_config</text>
</a>
</g>
<!-- Node2&#45;&gt;Node3 -->
<g id="edge4" class="edge"><title>Node2&#45;&gt;Node3</title>
<path fill="none" stroke="midnightblue" d="M273.84,-213.35C282.791,-214.944 291.745,-216.538 300.165,-218.038"/>
<polygon fill="midnightblue" stroke="midnightblue" points="274.223,-209.863 263.764,-211.556 272.996,-216.755 274.223,-209.863"/>
</g>
<!-- Node8 -->
<g id="node15" class="node"><title>Node8</title>
<a xlink:href="_m_a_i_n__avec__objets_8cpp.html#ae66f6b31b5ad750f1fe042a706a4e3d4" target="_top" xlink:title="main">
<polygon fill="white" stroke="black" points="1184,-152.378 1184,-176.378 1222,-176.378 1222,-152.378 1184,-152.378"/>
<text text-anchor="middle" x="1203" y="-163.378" font-family="Helvetica,sans-Serif" font-size="10.00">main</text>
</a>
</g>
<!-- Node2&#45;&gt;Node8 -->
<g id="edge38" class="edge"><title>Node2&#45;&gt;Node8</title>
<path fill="none" stroke="midnightblue" d="M231.213,-217.254C250.399,-227.325 276.044,-239.623 300,-247.378 386.003,-275.22 409.603,-284.378 500,-284.378 500,-284.378 500,-284.378 934,-284.378 1034.93,-284.378 1059.81,-257.474 1148,-208.378 1163.81,-199.575 1179.72,-186.245 1190.34,-176.564"/>
<polygon fill="midnightblue" stroke="midnightblue" points="232.819,-214.144 222.349,-212.519 229.52,-220.318 232.819,-214.144"/>
</g>
<!-- Node9 -->
<g id="node17" class="node"><title>Node9</title>
<a xlink:href="_c_o_r_e__6_8cpp.html#a5e53dc8ef589fe38b9d40e3497ac3f13" target="_top" xlink:title="GlobInit">
<polygon fill="white" stroke="black" points="322,-163.378 322,-187.378 372,-187.378 372,-163.378 322,-163.378"/>
<text text-anchor="middle" x="347" y="-174.378" font-family="Helvetica,sans-Serif" font-size="10.00">GlobInit</text>
</a>
</g>
<!-- Node2&#45;&gt;Node9 -->
<g id="edge16" class="edge"><title>Node2&#45;&gt;Node9</title>
<path fill="none" stroke="midnightblue" d="M273.866,-187.901C291.073,-184.955 308.291,-182.007 321.694,-179.712"/>
<polygon fill="midnightblue" stroke="midnightblue" points="273.03,-184.493 263.764,-189.631 274.212,-191.393 273.03,-184.493"/>
</g>
<!-- Node16 -->
<g id="node36" class="node"><title>Node16</title>
<a xlink:href="save__show__13_8cpp.html#a8330f725aa2c729bdce098aa4b187589" target="_top" xlink:title="Load_Show">
<polygon fill="white" stroke="black" points="313,-51.3783 313,-75.3783 381,-75.3783 381,-51.3783 313,-51.3783"/>
<text text-anchor="middle" x="347" y="-62.3783" font-family="Helvetica,sans-Serif" font-size="10.00">Load_Show</text>
</a>
</g>
<!-- Node2&#45;&gt;Node16 -->
<g id="edge40" class="edge"><title>Node2&#45;&gt;Node16</title>
<path fill="none" stroke="midnightblue" d="M221.461,-181.179C251.924,-152.594 308.347,-99.6489 333.863,-75.7058"/>
<polygon fill="midnightblue" stroke="midnightblue" points="218.854,-178.825 213.957,-188.22 223.644,-183.93 218.854,-178.825"/>
</g>
<!-- Node4 -->
<g id="node7" class="node"><title>Node4</title>
<a xlink:href="_c_f_g__config__panel__8_8cpp.html#ad39c46e2fb3a3ba7ea0460140ead4f96" target="_top" xlink:title="do_panel_config">
<polygon fill="white" stroke="black" points="456.5,-232.378 456.5,-256.378 543.5,-256.378 543.5,-232.378 456.5,-232.378"/>
<text text-anchor="middle" x="500" y="-243.378" font-family="Helvetica,sans-Serif" font-size="10.00">do_panel_config</text>
</a>
</g>
<!-- Node3&#45;&gt;Node4 -->
<g id="edge6" class="edge"><title>Node3&#45;&gt;Node4</title>
<path fill="none" stroke="midnightblue" d="M403.783,-233.059C421.185,-235.106 440.047,-237.325 456.422,-239.251"/>
<polygon fill="midnightblue" stroke="midnightblue" points="404.077,-229.569 393.736,-231.877 403.259,-236.521 404.077,-229.569"/>
</g>
<!-- Node5 -->
<g id="node9" class="node"><title>Node5</title>
<a xlink:href="_c_f_g__config__panel__8_8cpp.html#a7968da66bccdba8b864caf6c8435f68e" target="_top" xlink:title="config_general_menu">
<polygon fill="white" stroke="black" points="611.5,-232.378 611.5,-256.378 720.5,-256.378 720.5,-232.378 611.5,-232.378"/>
<text text-anchor="middle" x="666" y="-243.378" font-family="Helvetica,sans-Serif" font-size="10.00">config_general_menu</text>
</a>
</g>
<!-- Node4&#45;&gt;Node5 -->
<g id="edge8" class="edge"><title>Node4&#45;&gt;Node5</title>
<path fill="none" stroke="midnightblue" d="M553.626,-244.378C572.11,-244.378 592.825,-244.378 611.387,-244.378"/>
<polygon fill="midnightblue" stroke="midnightblue" points="553.615,-240.878 543.615,-244.378 553.615,-247.878 553.615,-240.878"/>
</g>
<!-- Node6 -->
<g id="node11" class="node"><title>Node6</title>
<a xlink:href="graphics__rebuild1_8cpp.html#ac2eae1e03fb72cc734ffbcef566483bf" target="_top" xlink:title="Boxes">
<polygon fill="white" stroke="black" points="912,-152.378 912,-176.378 956,-176.378 956,-152.378 912,-152.378"/>
<text text-anchor="middle" x="934" y="-163.378" font-family="Helvetica,sans-Serif" font-size="10.00">Boxes</text>
</a>
</g>
<!-- Node5&#45;&gt;Node6 -->
<g id="edge10" class="edge"><title>Node5&#45;&gt;Node6</title>
<path fill="none" stroke="midnightblue" d="M716.209,-229.39C774.821,-211.894 869.156,-183.735 911.801,-171.005"/>
<polygon fill="midnightblue" stroke="midnightblue" points="714.994,-226.101 706.412,-232.315 716.996,-232.808 714.994,-226.101"/>
</g>
<!-- Node7 -->
<g id="node13" class="node"><title>Node7</title>
<a xlink:href="_m_a_i_n__avec__objets_8cpp.html#ade8d4ba65d55c94f8ee277829d722155" target="_top" xlink:title="main_actions_on_screen">
<polygon fill="white" stroke="black" points="1022.5,-152.378 1022.5,-176.378 1147.5,-176.378 1147.5,-152.378 1022.5,-152.378"/>
<text text-anchor="middle" x="1085" y="-163.378" font-family="Helvetica,sans-Serif" font-size="10.00">main_actions_on_screen</text>
</a>
</g>
<!-- Node6&#45;&gt;Node7 -->
<g id="edge12" class="edge"><title>Node6&#45;&gt;Node7</title>
<path fill="none" stroke="midnightblue" d="M966.395,-164.378C982.76,-164.378 1003.19,-164.378 1022.46,-164.378"/>
<polygon fill="midnightblue" stroke="midnightblue" points="966.281,-160.878 956.281,-164.378 966.281,-167.878 966.281,-160.878"/>
</g>
<!-- Node7&#45;&gt;Node8 -->
<g id="edge14" class="edge"><title>Node7&#45;&gt;Node8</title>
<path fill="none" stroke="midnightblue" d="M1157.84,-164.378C1167.34,-164.378 1176.33,-164.378 1183.75,-164.378"/>
<polygon fill="midnightblue" stroke="midnightblue" points="1157.8,-160.878 1147.8,-164.378 1157.8,-167.878 1157.8,-160.878"/>
</g>
<!-- Node9&#45;&gt;Node8 -->
<g id="edge36" class="edge"><title>Node9&#45;&gt;Node8</title>
<path fill="none" stroke="midnightblue" d="M382.377,-180.707C441.13,-189.081 562.605,-204.378 666,-204.378 666,-204.378 666,-204.378 934,-204.378 1029.49,-204.378 1054.96,-206.835 1148,-185.378 1160.25,-182.553 1173.43,-177.595 1183.81,-173.206"/>
<polygon fill="midnightblue" stroke="midnightblue" points="382.553,-177.196 372.155,-179.229 381.551,-184.124 382.553,-177.196"/>
</g>
<!-- Node10 -->
<g id="node19" class="node"><title>Node10</title>
<a xlink:href="_c_o_r_e__6_8cpp.html#a29400ad92b676ecb7743384700af5560" target="_top" xlink:title="reset_show">
<polygon fill="white" stroke="black" points="466.5,-114.378 466.5,-138.378 533.5,-138.378 533.5,-114.378 466.5,-114.378"/>
<text text-anchor="middle" x="500" y="-125.378" font-family="Helvetica,sans-Serif" font-size="10.00">reset_show</text>
</a>
</g>
<!-- Node9&#45;&gt;Node10 -->
<g id="edge18" class="edge"><title>Node9&#45;&gt;Node10</title>
<path fill="none" stroke="midnightblue" d="M381.853,-164.216C407.201,-156.098 441.323,-145.17 466.379,-137.146"/>
<polygon fill="midnightblue" stroke="midnightblue" points="380.721,-160.904 372.265,-167.287 382.856,-167.57 380.721,-160.904"/>
</g>
<!-- Node11 -->
<g id="node21" class="node"><title>Node11</title>
<a xlink:href="logicals__intres_8cpp.html#a74cf9c04c734ab342f88799efbfc4210" target="_top" xlink:title="operations_confirmation">
<polygon fill="white" stroke="black" points="606,-112.378 606,-136.378 726,-136.378 726,-112.378 606,-112.378"/>
<text text-anchor="middle" x="666" y="-123.378" font-family="Helvetica,sans-Serif" font-size="10.00">operations_confirmation</text>
</a>
</g>
<!-- Node9&#45;&gt;Node11 -->
<g id="edge34" class="edge"><title>Node9&#45;&gt;Node11</title>
<path fill="none" stroke="midnightblue" d="M382.431,-172.147C426.574,-167.842 504.213,-159.351 570,-147.378 586.524,-144.371 604.465,-140.296 620.317,-136.411"/>
<polygon fill="midnightblue" stroke="midnightblue" points="381.84,-168.687 372.22,-173.126 382.509,-175.655 381.84,-168.687"/>
</g>
<!-- Node10&#45;&gt;Node11 -->
<g id="edge20" class="edge"><title>Node10&#45;&gt;Node11</title>
<path fill="none" stroke="midnightblue" d="M543.757,-125.851C562.778,-125.622 585.37,-125.35 605.927,-125.102"/>
<polygon fill="midnightblue" stroke="midnightblue" points="543.55,-122.353 533.593,-125.974 543.634,-129.353 543.55,-122.353"/>
</g>
<!-- Node12 -->
<g id="node23" class="node"><title>Node12</title>
<a xlink:href="keyboard__functions2_8cpp.html#a548548066307f816c5021de7d6e4f26a" target="_top" xlink:title="key_affectation">
<polygon fill="white" stroke="black" points="762.5,-110.378 762.5,-134.378 845.5,-134.378 845.5,-110.378 762.5,-110.378"/>
<text text-anchor="middle" x="804" y="-121.378" font-family="Helvetica,sans-Serif" font-size="10.00">key_affectation</text>
</a>
</g>
<!-- Node11&#45;&gt;Node12 -->
<g id="edge22" class="edge"><title>Node11&#45;&gt;Node12</title>
<path fill="none" stroke="midnightblue" d="M736.19,-123.361C745.12,-123.232 754.024,-123.103 762.303,-122.983"/>
<polygon fill="midnightblue" stroke="midnightblue" points="736.076,-119.862 726.127,-123.507 736.177,-126.862 736.076,-119.862"/>
</g>
<!-- Node15 -->
<g id="node30" class="node"><title>Node15</title>
<a xlink:href="logicals__intres_8cpp.html#a85967c22135715eca94d08af2ec1a1fb" target="_top" xlink:title="fenetre_confirm">
<polygon fill="white" stroke="black" points="762,-152.378 762,-176.378 846,-176.378 846,-152.378 762,-152.378"/>
<text text-anchor="middle" x="804" y="-163.378" font-family="Helvetica,sans-Serif" font-size="10.00">fenetre_confirm</text>
</a>
</g>
<!-- Node11&#45;&gt;Node15 -->
<g id="edge30" class="edge"><title>Node11&#45;&gt;Node15</title>
<path fill="none" stroke="midnightblue" d="M717.396,-139.276C732.147,-143.551 748.047,-148.16 762.148,-152.247"/>
<polygon fill="midnightblue" stroke="midnightblue" points="717.984,-135.802 707.405,-136.38 716.035,-142.525 717.984,-135.802"/>
</g>
<!-- Node13 -->
<g id="node25" class="node"><title>Node13</title>
<a xlink:href="keyboard__routines2_8cpp.html#a8563320b8eab661232619224650de244" target="_top" xlink:title="commandes_clavier">
<polygon fill="white" stroke="black" points="882,-110.378 882,-134.378 986,-134.378 986,-110.378 882,-110.378"/>
<text text-anchor="middle" x="934" y="-121.378" font-family="Helvetica,sans-Serif" font-size="10.00">commandes_clavier</text>
</a>
</g>
<!-- Node12&#45;&gt;Node13 -->
<g id="edge24" class="edge"><title>Node12&#45;&gt;Node13</title>
<path fill="none" stroke="midnightblue" d="M855.995,-122.378C864.473,-122.378 873.258,-122.378 881.742,-122.378"/>
<polygon fill="midnightblue" stroke="midnightblue" points="855.848,-118.878 845.848,-122.378 855.848,-125.878 855.848,-118.878"/>
</g>
<!-- Node14 -->
<g id="node27" class="node"><title>Node14</title>
<a xlink:href="_m_a_i_n__avec__objets_8cpp.html#a8e80f54ac804eddce8ed6e45adb1db44" target="_top" xlink:title="ticker_full_loop">
<polygon fill="white" stroke="black" points="1044,-110.378 1044,-134.378 1126,-134.378 1126,-110.378 1044,-110.378"/>
<text text-anchor="middle" x="1085" y="-121.378" font-family="Helvetica,sans-Serif" font-size="10.00">ticker_full_loop</text>
</a>
</g>
<!-- Node13&#45;&gt;Node14 -->
<g id="edge26" class="edge"><title>Node13&#45;&gt;Node14</title>
<path fill="none" stroke="midnightblue" d="M996.664,-122.378C1012.52,-122.378 1029.15,-122.378 1043.65,-122.378"/>
<polygon fill="midnightblue" stroke="midnightblue" points="996.389,-118.878 986.389,-122.378 996.389,-125.878 996.389,-118.878"/>
</g>
<!-- Node14&#45;&gt;Node8 -->
<g id="edge28" class="edge"><title>Node14&#45;&gt;Node8</title>
<path fill="none" stroke="midnightblue" d="M1131.82,-137.737C1137.29,-139.604 1142.78,-141.511 1148,-143.378 1160.03,-147.678 1173.43,-152.786 1183.98,-156.887"/>
<polygon fill="midnightblue" stroke="midnightblue" points="1132.66,-134.327 1122.07,-134.44 1130.42,-140.958 1132.66,-134.327"/>
</g>
<!-- Node15&#45;&gt;Node6 -->
<g id="edge32" class="edge"><title>Node15&#45;&gt;Node6</title>
<path fill="none" stroke="midnightblue" d="M856.4,-164.378C875.658,-164.378 896.45,-164.378 911.66,-164.378"/>
<polygon fill="midnightblue" stroke="midnightblue" points="856.207,-160.878 846.207,-164.378 856.207,-167.878 856.207,-160.878"/>
</g>
<!-- Node16&#45;&gt;Node8 -->
<g id="edge42" class="edge"><title>Node16&#45;&gt;Node8</title>
<path fill="none" stroke="midnightblue" d="M374.235,-46.2002C389.927,-37.1895 410.378,-26.9019 430,-21.3783 531.292,7.13487 560.772,-2.37829 666,-2.37829 666,-2.37829 666,-2.37829 934,-2.37829 1038.8,-2.37829 1064.14,-38.5267 1148,-101.378 1167.52,-116.008 1185.11,-138.568 1194.89,-152.349"/>
<polygon fill="midnightblue" stroke="midnightblue" points="372.415,-43.2102 365.588,-51.3123 375.977,-49.2359 372.415,-43.2102"/>
</g>
<!-- Node17 -->
<g id="node39" class="node"><title>Node17</title>
<a xlink:href="save__show__13_8cpp.html#a1eafc1ecb75f36c1fe85c967bdea99b0" target="_top" xlink:title="load_the_show">
<polygon fill="white" stroke="black" points="459,-72.3783 459,-96.3783 541,-96.3783 541,-72.3783 459,-72.3783"/>
<text text-anchor="middle" x="500" y="-83.3783" font-family="Helvetica,sans-Serif" font-size="10.00">load_the_show</text>
</a>
</g>
<!-- Node16&#45;&gt;Node17 -->
<g id="edge44" class="edge"><title>Node16&#45;&gt;Node17</title>
<path fill="none" stroke="midnightblue" d="M391.438,-69.4777C412.757,-72.4037 438.131,-75.8865 458.985,-78.7488"/>
<polygon fill="midnightblue" stroke="midnightblue" points="391.719,-65.9835 381.336,-68.0911 390.767,-72.9185 391.719,-65.9835"/>
</g>
<!-- Node18 -->
<g id="node42" class="node"><title>Node18</title>
<a xlink:href="save__show__13_8cpp.html#a2c8ff847dfaf2dc6c8765b2bee26edfc" target="_top" xlink:title="do_wizard_reload_from_disk">
<polygon fill="white" stroke="black" points="430,-30.3783 430,-54.3783 570,-54.3783 570,-30.3783 430,-30.3783"/>
<text text-anchor="middle" x="500" y="-41.3783" font-family="Helvetica,sans-Serif" font-size="10.00">do_wizard_reload_from_disk</text>
</a>
</g>
<!-- Node16&#45;&gt;Node18 -->
<g id="edge48" class="edge"><title>Node16&#45;&gt;Node18</title>
<path fill="none" stroke="midnightblue" d="M391.503,-57.2701C403.49,-55.6248 416.756,-53.804 429.777,-52.0167"/>
<polygon fill="midnightblue" stroke="midnightblue" points="390.767,-53.8381 381.336,-58.6655 391.719,-60.7731 390.767,-53.8381"/>
</g>
<!-- Node17&#45;&gt;Node11 -->
<g id="edge46" class="edge"><title>Node17&#45;&gt;Node11</title>
<path fill="none" stroke="midnightblue" d="M550.901,-96.6435C571.571,-101.624 595.381,-107.362 615.962,-112.321"/>
<polygon fill="midnightblue" stroke="midnightblue" points="551.575,-93.206 541.034,-94.2659 549.936,-100.011 551.575,-93.206"/>
</g>
<!-- Node18&#45;&gt;Node11 -->
<g id="edge50" class="edge"><title>Node18&#45;&gt;Node11</title>
<path fill="none" stroke="midnightblue" d="M556.291,-57.7669C560.989,-59.5018 565.615,-61.3738 570,-63.3783 599.992,-77.0881 631.707,-98.8696 650.134,-112.358"/>
<polygon fill="midnightblue" stroke="midnightblue" points="557.195,-54.3756 546.6,-54.4002 554.898,-60.988 557.195,-54.3756"/>
</g>
</g>
</svg>
        <g id="navigator" transform="translate(0 0)" fill="#404254">
                <rect fill="#f2f5e9" fill-opacity="0.5" stroke="#606060" stroke-width=".5" x="0" y="0" width="60" height="60"/>
                <use id="zoomplus" xlink:href="#zoomPlus" x="17" y="9" onmousedown="handleZoom(evt,'in')"/>
                <use id="zoomminus" xlink:href="#zoomMin" x="42" y="9" onmousedown="handleZoom(evt,'out')"/>
                <use id="reset" xlink:href="#resetDef" x="30" y="36" onmousedown="handleReset()"/>
                <g id="arrowUp" xlink:href="#dirArrow" transform="translate(30 24)" onmousedown="handlePan(0,-1)">
                  <use xlink:href="#rim" fill="#404040">
                        <set attributeName="fill" to="#808080" begin="arrowUp.mouseover" end="arrowUp.mouseout"/>
                  </use>
                  <path fill="none" stroke="white" stroke-width="1.5" d="M0,-3.0v7 M-2.5,-0.5L0,-3.0L2.5,-0.5"/>
                </g>
                <g id="arrowRight" xlink:href="#dirArrow" transform="rotate(90) translate(36 -43)" onmousedown="handlePan(1,0)">
                  <use xlink:href="#rim" fill="#404040">
                        <set attributeName="fill" to="#808080" begin="arrowRight.mouseover" end="arrowRight.mouseout"/>
                  </use>
                  <path fill="none" stroke="white" stroke-width="1.5" d="M0,-3.0v7 M-2.5,-0.5L0,-3.0L2.5,-0.5"/>
                </g>
                <g id="arrowDown" xlink:href="#dirArrow" transform="rotate(180) translate(-30 -48)" onmousedown="handlePan(0,1)">
                  <use xlink:href="#rim" fill="#404040">
                        <set attributeName="fill" to="#808080" begin="arrowDown.mouseover" end="arrowDown.mouseout"/>
                  </use>
                  <path fill="none" stroke="white" stroke-width="1.5" d="M0,-3.0v7 M-2.5,-0.5L0,-3.0L2.5,-0.5"/>
                </g>
                <g id="arrowLeft" xlink:href="#dirArrow" transform="rotate(270) translate(-36 17)" onmousedown="handlePan(-1,0)">
                  <use xlink:href="#rim" fill="#404040">
                        <set attributeName="fill" to="#808080" begin="arrowLeft.mouseover" end="arrowLeft.mouseout"/>
                  </use>
                  <path fill="none" stroke="white" stroke-width="1.5" d="M0,-3.0v7 M-2.5,-0.5L0,-3.0L2.5,-0.5"/>
                </g>
        </g>
        <svg viewBox="0 0 15 15" width="100%" height="30px" preserveAspectRatio="xMaxYMin meet">
         <g id="arrow_out" transform="scale(0.3 0.3)">
          <a xlink:href="colors__fonts_8h_adf3a6fb43a7f54bbbfaefee4da14171f_icgraph_org.svg" target="_base">
           <rect id="button" ry="5" rx="5" y="6" x="6" height="38" width="38"
                fill="#f2f5e9" fill-opacity="0.5" stroke="#606060" stroke-width="1.0"/>
           <path id="arrow"
             d="M 11.500037,31.436501 C 11.940474,20.09759 22.043105,11.32322 32.158766,21.979434 L 37.068811,17.246167 C 37.068811,17.246167 37.088388,32 37.088388,32 L 22.160133,31.978069 C 22.160133,31.978069 26.997745,27.140456 26.997745,27.140456 C 18.528582,18.264221 13.291696,25.230495 11.500037,31.436501 z"
             style="fill:#404040;"/>
          </a>
         </g>
        </svg>
</svg>
