<?xml version="1.0" encoding="UTF-8" standalone="no"?>
<!DOCTYPE svg PUBLIC "-//W3C//DTD SVG 1.1//EN"
 "http://www.w3.org/Graphics/SVG/1.1/DTD/svg11.dtd">
<!-- Generated by graphviz version 2.26.3 (20100126.1600)
 -->
<!-- Title: CouleurRougePur Pages: 1 -->
<!--zoomable 158 -->
<svg id="main" version="1.1" xmlns="http://www.w3.org/2000/svg" xmlns:xlink="http://www.w3.org/1999/xlink" xml:space="preserve" onload="init(evt)">
<style type="text/css"><![CDATA[
.edge:hover path { stroke: red; }
.edge:hover polygon { stroke: red; fill: red; }
]]></style>
<script type="text/javascript"><![CDATA[
var edges = document.getElementsByTagName('g');
if (edges && edges.length) {
  for (var i=0;i<edges.length;i++) {
    if (edges[i].id.substr(0,4)=='edge') {
      edges[i].setAttribute('class','edge');
    }
  }
}
]]></script>
        <defs>
                <circle id="rim" cx="0" cy="0" r="7"/>
                <circle id="rim2" cx="0" cy="0" r="3.5"/>
                <g id="zoomPlus">
                        <use xlink:href="#rim" fill="#404040">
                                <set attributeName="fill" to="#808080" begin="zoomplus.mouseover" end="zoomplus.mouseout"/>
                        </use>
                        <path d="M-4,0h8M0,-4v8" fill="none" stroke="white" stroke-width="1.5" pointer-events="none"/>
                </g>
                <g id="zoomMin">
                        <use xlink:href="#rim" fill="#404040">
                                <set attributeName="fill" to="#808080" begin="zoomminus.mouseover" end="zoomminus.mouseout"/>
                        </use>
                        <path d="M-4,0h8" fill="none" stroke="white" stroke-width="1.5" pointer-events="none"/>
                </g>
                <g id="dirArrow">
                        <path fill="none" stroke="white" stroke-width="1.5" d="M0,-3.0v7 M-2.5,-0.5L0,-3.0L2.5,-0.5"/>
                </g>
               <g id="resetDef">
                       <use xlink:href="#rim2" fill="#404040">
                               <set attributeName="fill" to="#808080" begin="reset.mouseover" end="reset.mouseout"/>
                       </use>
               </g>
        </defs>

<script type="text/javascript">
var viewWidth = 596;
var viewHeight = 158;
var sectionId = 'dynsection-23';
</script>
<script xlink:href="svgpan.js"/>
<svg id="graph" class="graph">
<g id="viewport">
<title>CouleurRougePur</title>
<polygon fill="white" stroke="white" points="-4,5 -4,-154 593,-154 593,5 -4,5"/>
<!-- Node1 -->
<g id="node1" class="node"><title>Node1</title>
<polygon fill="#bfbfbf" stroke="black" points="0,-63 0,-87 94,-87 94,-63 0,-63"/>
<text text-anchor="middle" x="47" y="-74" font-family="Helvetica,sans-Serif" font-size="10.00">CouleurRougePur</text>
</g>
<!-- Node2 -->
<g id="node3" class="node"><title>Node2</title>
<a xlink:href="channels__10__visu_8cpp.html#a4db85cfe81cd5f91be5c54593d93c908" target="_top" xlink:title="ClassicalChannelSpace">
<polygon fill="white" stroke="black" points="140.5,-126 140.5,-150 261.5,-150 261.5,-126 140.5,-126"/>
<text text-anchor="middle" x="201" y="-137" font-family="Helvetica,sans-Serif" font-size="10.00">ClassicalChannelSpace</text>
</a>
</g>
<!-- Node1&#45;&gt;Node2 -->
<g id="edge2" class="edge"><title>Node1&#45;&gt;Node2</title>
<path fill="none" stroke="midnightblue" d="M77.4267,-92.0654C92.8677,-100.293 112.101,-109.892 130,-117 138.243,-120.274 147.201,-123.308 155.889,-125.994"/>
<polygon fill="midnightblue" stroke="midnightblue" points="78.8093,-88.834 68.3484,-87.1545 75.4787,-94.9909 78.8093,-88.834"/>
</g>
<!-- Node6 -->
<g id="node11" class="node"><title>Node6</title>
<a xlink:href="channels__10__visu_8cpp.html#a1b490fcdc049aa2ff24f7ef9126d357a" target="_top" xlink:title="Draw_Channel_Preset_View">
<polygon fill="white" stroke="black" points="130,-84 130,-108 272,-108 272,-84 130,-84"/>
<text text-anchor="middle" x="201" y="-95" font-family="Helvetica,sans-Serif" font-size="10.00">Draw_Channel_Preset_View</text>
</a>
</g>
<!-- Node1&#45;&gt;Node6 -->
<g id="edge10" class="edge"><title>Node1&#45;&gt;Node6</title>
<path fill="none" stroke="midnightblue" d="M104.087,-82.7847C112.485,-83.9298 121.222,-85.1212 129.86,-86.2991"/>
<polygon fill="midnightblue" stroke="midnightblue" points="104.423,-79.2981 94.0419,-81.4148 103.477,-86.2339 104.423,-79.2981"/>
</g>
<!-- Node7 -->
<g id="node14" class="node"><title>Node7</title>
<a xlink:href="faders__visuels__26_8cpp.html#a9ea1e5a2798eea88240ff9ea8500b339" target="_top" xlink:title="FaderSpace">
<polygon fill="white" stroke="black" points="166.5,-42 166.5,-66 235.5,-66 235.5,-42 166.5,-42"/>
<text text-anchor="middle" x="201" y="-53" font-family="Helvetica,sans-Serif" font-size="10.00">FaderSpace</text>
</a>
</g>
<!-- Node1&#45;&gt;Node7 -->
<g id="edge14" class="edge"><title>Node1&#45;&gt;Node7</title>
<path fill="none" stroke="midnightblue" d="M104.122,-67.2106C125.061,-64.3553 148.105,-61.213 166.463,-58.7095"/>
<polygon fill="midnightblue" stroke="midnightblue" points="103.477,-63.7661 94.0419,-68.5852 104.423,-70.7019 103.477,-63.7661"/>
</g>
<!-- Node8 -->
<g id="node17" class="node"><title>Node8</title>
<a xlink:href="minifaders__visu_8cpp.html#a17d954acc2cae5c05f7d9ee4ff8b0a0a" target="_top" xlink:title="mini_faders_panel_visu">
<polygon fill="white" stroke="black" points="141.5,-0 141.5,-24 260.5,-24 260.5,-0 141.5,-0"/>
<text text-anchor="middle" x="201" y="-11" font-family="Helvetica,sans-Serif" font-size="10.00">mini_faders_panel_visu</text>
</a>
</g>
<!-- Node1&#45;&gt;Node8 -->
<g id="edge18" class="edge"><title>Node1&#45;&gt;Node8</title>
<path fill="none" stroke="midnightblue" d="M77.4267,-57.9346C92.8677,-49.7072 112.101,-40.1078 130,-33 138.243,-29.7265 147.201,-26.692 155.889,-24.0055"/>
<polygon fill="midnightblue" stroke="midnightblue" points="75.4787,-55.0091 68.3484,-62.8455 78.8093,-61.166 75.4787,-55.0091"/>
</g>
<!-- Node3 -->
<g id="node5" class="node"><title>Node3</title>
<a xlink:href="graphics__rebuild1_8cpp.html#ac2eae1e03fb72cc734ffbcef566483bf" target="_top" xlink:title="Boxes">
<polygon fill="white" stroke="black" points="308,-63 308,-87 352,-87 352,-63 308,-63"/>
<text text-anchor="middle" x="330" y="-74" font-family="Helvetica,sans-Serif" font-size="10.00">Boxes</text>
</a>
</g>
<!-- Node2&#45;&gt;Node3 -->
<g id="edge4" class="edge"><title>Node2&#45;&gt;Node3</title>
<path fill="none" stroke="midnightblue" d="M259.472,-122.465C263.779,-120.788 267.999,-118.968 272,-117 288.287,-108.988 304.862,-96.454 316.098,-87.1617"/>
<polygon fill="midnightblue" stroke="midnightblue" points="258.171,-119.214 249.958,-125.907 260.552,-125.796 258.171,-119.214"/>
</g>
<!-- Node4 -->
<g id="node7" class="node"><title>Node4</title>
<a xlink:href="_m_a_i_n__avec__objets_8cpp.html#ade8d4ba65d55c94f8ee277829d722155" target="_top" xlink:title="main_actions_on_screen">
<polygon fill="white" stroke="black" points="388.5,-63 388.5,-87 513.5,-87 513.5,-63 388.5,-63"/>
<text text-anchor="middle" x="451" y="-74" font-family="Helvetica,sans-Serif" font-size="10.00">main_actions_on_screen</text>
</a>
</g>
<!-- Node3&#45;&gt;Node4 -->
<g id="edge6" class="edge"><title>Node3&#45;&gt;Node4</title>
<path fill="none" stroke="midnightblue" d="M362.244,-75C370.32,-75 379.263,-75 388.271,-75"/>
<polygon fill="midnightblue" stroke="midnightblue" points="362.193,-71.5001 352.193,-75 362.193,-78.5001 362.193,-71.5001"/>
</g>
<!-- Node5 -->
<g id="node9" class="node"><title>Node5</title>
<a xlink:href="_m_a_i_n__avec__objets_8cpp.html#ae66f6b31b5ad750f1fe042a706a4e3d4" target="_top" xlink:title="main">
<polygon fill="white" stroke="black" points="550,-63 550,-87 588,-87 588,-63 550,-63"/>
<text text-anchor="middle" x="569" y="-74" font-family="Helvetica,sans-Serif" font-size="10.00">main</text>
</a>
</g>
<!-- Node4&#45;&gt;Node5 -->
<g id="edge8" class="edge"><title>Node4&#45;&gt;Node5</title>
<path fill="none" stroke="midnightblue" d="M523.837,-75C533.336,-75 542.327,-75 549.749,-75"/>
<polygon fill="midnightblue" stroke="midnightblue" points="523.8,-71.5001 513.8,-75 523.8,-78.5001 523.8,-71.5001"/>
</g>
<!-- Node6&#45;&gt;Node3 -->
<g id="edge12" class="edge"><title>Node6&#45;&gt;Node3</title>
<path fill="none" stroke="midnightblue" d="M282.187,-82.7835C291.543,-81.2605 300.395,-79.8194 307.881,-78.6007"/>
<polygon fill="midnightblue" stroke="midnightblue" points="281.599,-79.333 272.292,-84.3944 282.724,-86.2421 281.599,-79.333"/>
</g>
<!-- Node7&#45;&gt;Node3 -->
<g id="edge16" class="edge"><title>Node7&#45;&gt;Node3</title>
<path fill="none" stroke="midnightblue" d="M245.609,-61.2619C266.663,-64.6894 290.852,-68.6271 307.92,-71.4056"/>
<polygon fill="midnightblue" stroke="midnightblue" points="246.002,-57.7799 235.57,-59.6276 244.877,-64.689 246.002,-57.7799"/>
</g>
<!-- Node8&#45;&gt;Node3 -->
<g id="edge20" class="edge"><title>Node8&#45;&gt;Node3</title>
<path fill="none" stroke="midnightblue" d="M259.472,-27.5351C263.779,-29.2115 267.999,-31.0319 272,-33 288.287,-41.0119 304.862,-53.546 316.098,-62.8383"/>
<polygon fill="midnightblue" stroke="midnightblue" points="260.552,-24.2038 249.958,-24.0934 258.171,-30.7864 260.552,-24.2038"/>
</g>
</g>
</svg>
        <g id="navigator" transform="translate(0 0)" fill="#404254">
                <rect fill="#f2f5e9" fill-opacity="0.5" stroke="#606060" stroke-width=".5" x="0" y="0" width="60" height="60"/>
                <use id="zoomplus" xlink:href="#zoomPlus" x="17" y="9" onmousedown="handleZoom(evt,'in')"/>
                <use id="zoomminus" xlink:href="#zoomMin" x="42" y="9" onmousedown="handleZoom(evt,'out')"/>
                <use id="reset" xlink:href="#resetDef" x="30" y="36" onmousedown="handleReset()"/>
                <g id="arrowUp" xlink:href="#dirArrow" transform="translate(30 24)" onmousedown="handlePan(0,-1)">
                  <use xlink:href="#rim" fill="#404040">
                        <set attributeName="fill" to="#808080" begin="arrowUp.mouseover" end="arrowUp.mouseout"/>
                  </use>
                  <path fill="none" stroke="white" stroke-width="1.5" d="M0,-3.0v7 M-2.5,-0.5L0,-3.0L2.5,-0.5"/>
                </g>
                <g id="arrowRight" xlink:href="#dirArrow" transform="rotate(90) translate(36 -43)" onmousedown="handlePan(1,0)">
                  <use xlink:href="#rim" fill="#404040">
                        <set attributeName="fill" to="#808080" begin="arrowRight.mouseover" end="arrowRight.mouseout"/>
                  </use>
                  <path fill="none" stroke="white" stroke-width="1.5" d="M0,-3.0v7 M-2.5,-0.5L0,-3.0L2.5,-0.5"/>
                </g>
                <g id="arrowDown" xlink:href="#dirArrow" transform="rotate(180) translate(-30 -48)" onmousedown="handlePan(0,1)">
                  <use xlink:href="#rim" fill="#404040">
                        <set attributeName="fill" to="#808080" begin="arrowDown.mouseover" end="arrowDown.mouseout"/>
                  </use>
                  <path fill="none" stroke="white" stroke-width="1.5" d="M0,-3.0v7 M-2.5,-0.5L0,-3.0L2.5,-0.5"/>
                </g>
                <g id="arrowLeft" xlink:href="#dirArrow" transform="rotate(270) translate(-36 17)" onmousedown="handlePan(-1,0)">
                  <use xlink:href="#rim" fill="#404040">
                        <set attributeName="fill" to="#808080" begin="arrowLeft.mouseover" end="arrowLeft.mouseout"/>
                  </use>
                  <path fill="none" stroke="white" stroke-width="1.5" d="M0,-3.0v7 M-2.5,-0.5L0,-3.0L2.5,-0.5"/>
                </g>
        </g>
        <svg viewBox="0 0 15 15" width="100%" height="30px" preserveAspectRatio="xMaxYMin meet">
         <g id="arrow_out" transform="scale(0.3 0.3)">
          <a xlink:href="colors__fonts_8h_a0681e6c857773e39158b582969b6934b_icgraph_org.svg" target="_base">
           <rect id="button" ry="5" rx="5" y="6" x="6" height="38" width="38"
                fill="#f2f5e9" fill-opacity="0.5" stroke="#606060" stroke-width="1.0"/>
           <path id="arrow"
             d="M 11.500037,31.436501 C 11.940474,20.09759 22.043105,11.32322 32.158766,21.979434 L 37.068811,17.246167 C 37.068811,17.246167 37.088388,32 37.088388,32 L 22.160133,31.978069 C 22.160133,31.978069 26.997745,27.140456 26.997745,27.140456 C 18.528582,18.264221 13.291696,25.230495 11.500037,31.436501 z"
             style="fill:#404040;"/>
          </a>
         </g>
        </svg>
</svg>
