<?xml version="1.0" encoding="UTF-8" standalone="no"?>
<!DOCTYPE svg PUBLIC "-//W3C//DTD SVG 1.1//EN"
 "http://www.w3.org/Graphics/SVG/1.1/DTD/svg11.dtd">
<!-- Generated by graphviz version 2.26.3 (20100126.1600)
 -->
<!-- Title: colors_fonts.h Pages: 1 -->
<!--zoomable 174 -->
<svg id="main" version="1.1" xmlns="http://www.w3.org/2000/svg" xmlns:xlink="http://www.w3.org/1999/xlink" xml:space="preserve" onload="init(evt)">
<style type="text/css"><![CDATA[
.edge:hover path { stroke: red; }
.edge:hover polygon { stroke: red; fill: red; }
]]></style>
<script type="text/javascript"><![CDATA[
var edges = document.getElementsByTagName('g');
if (edges && edges.length) {
  for (var i=0;i<edges.length;i++) {
    if (edges[i].id.substr(0,4)=='edge') {
      edges[i].setAttribute('class','edge');
    }
  }
}
]]></script>
        <defs>
                <circle id="rim" cx="0" cy="0" r="7"/>
                <circle id="rim2" cx="0" cy="0" r="3.5"/>
                <g id="zoomPlus">
                        <use xlink:href="#rim" fill="#404040">
                                <set attributeName="fill" to="#808080" begin="zoomplus.mouseover" end="zoomplus.mouseout"/>
                        </use>
                        <path d="M-4,0h8M0,-4v8" fill="none" stroke="white" stroke-width="1.5" pointer-events="none"/>
                </g>
                <g id="zoomMin">
                        <use xlink:href="#rim" fill="#404040">
                                <set attributeName="fill" to="#808080" begin="zoomminus.mouseover" end="zoomminus.mouseout"/>
                        </use>
                        <path d="M-4,0h8" fill="none" stroke="white" stroke-width="1.5" pointer-events="none"/>
                </g>
                <g id="dirArrow">
                        <path fill="none" stroke="white" stroke-width="1.5" d="M0,-3.0v7 M-2.5,-0.5L0,-3.0L2.5,-0.5"/>
                </g>
               <g id="resetDef">
                       <use xlink:href="#rim2" fill="#404040">
                               <set attributeName="fill" to="#808080" begin="reset.mouseover" end="reset.mouseout"/>
                       </use>
               </g>
        </defs>

<script type="text/javascript">
var viewWidth = 562;
var viewHeight = 174;
var sectionId = 'dynsection-0';
</script>
<script xlink:href="svgpan.js"/>
<svg id="graph" class="graph">
<g id="viewport">
<title>colors_fonts.h</title>
<polygon fill="white" stroke="white" points="-4,5 -4,-170 559,-170 559,5 -4,5"/>
<!-- Node1 -->
<g id="node1" class="node"><title>Node1</title>
<polygon fill="#bfbfbf" stroke="black" points="241,-141 241,-165 319,-165 319,-141 241,-141"/>
<text text-anchor="middle" x="280" y="-152" font-family="Helvetica,sans-Serif" font-size="10.00">colors_fonts.h</text>
</g>
<!-- Node2 -->
<g id="node3" class="node"><title>Node2</title>
<a xlink:href="whitecat_8h.html" target="_top" xlink:title="{header file for all the global variable in whitecat} ">
<polygon fill="white" stroke="black" points="198,-79 198,-103 260,-103 260,-79 198,-79"/>
<text text-anchor="middle" x="229" y="-90" font-family="Helvetica,sans-Serif" font-size="10.00">whitecat.h</text>
</a>
</g>
<!-- Node1&#45;&gt;Node2 -->
<g id="edge2" class="edge"><title>Node1&#45;&gt;Node2</title>
<path fill="none" stroke="midnightblue" d="M263.56,-133.014C255.493,-123.207 246.035,-111.71 239.055,-103.224"/>
<polygon fill="midnightblue" stroke="midnightblue" points="260.868,-135.251 269.924,-140.751 266.274,-130.804 260.868,-135.251"/>
</g>
<!-- Node7 -->
<g id="node13" class="node"><title>Node7</title>
<a xlink:href="patch__splines__2_8cpp.html" target="_top" xlink:title="{Curves calcul for each canal in the patch} ">
<polygon fill="white" stroke="black" points="278,-79 278,-103 384,-103 384,-79 278,-79"/>
<text text-anchor="middle" x="331" y="-90" font-family="Helvetica,sans-Serif" font-size="10.00">patch_splines_2.cpp</text>
</a>
</g>
<!-- Node1&#45;&gt;Node7 -->
<g id="edge12" class="edge"><title>Node1&#45;&gt;Node7</title>
<path fill="none" stroke="midnightblue" d="M296.44,-133.014C304.507,-123.207 313.965,-111.71 320.945,-103.224"/>
<polygon fill="midnightblue" stroke="midnightblue" points="293.726,-130.804 290.076,-140.751 299.132,-135.251 293.726,-130.804"/>
</g>
<!-- Node3 -->
<g id="node5" class="node"><title>Node3</title>
<a xlink:href="_m_a_i_n__avec__objets_8cpp.html" target="_top" xlink:title="MAIN_avec_objets.cpp">
<polygon fill="white" stroke="black" points="-0.5,-9 -0.5,-33 118.5,-33 118.5,-9 -0.5,-9"/>
<text text-anchor="middle" x="59" y="-20" font-family="Helvetica,sans-Serif" font-size="10.00">MAIN_avec_objets.cpp</text>
</a>
</g>
<!-- Node2&#45;&gt;Node3 -->
<g id="edge4" class="edge"><title>Node2&#45;&gt;Node3</title>
<path fill="none" stroke="midnightblue" d="M190.175,-75.0133C159.234,-62.2729 116.573,-44.7066 88.4116,-33.1107"/>
<polygon fill="midnightblue" stroke="midnightblue" points="189.197,-78.3954 199.776,-78.9666 191.862,-71.9226 189.197,-78.3954"/>
</g>
<!-- Node4 -->
<g id="node7" class="node"><title>Node4</title>
<a xlink:href="_m_a_i_n__febrier__2014_8cpp.html" target="_top" xlink:title="MAIN_febrier_2014.cpp">
<polygon fill="white" stroke="black" points="135.5,-9 135.5,-33 254.5,-33 254.5,-9 135.5,-9"/>
<text text-anchor="middle" x="195" y="-20" font-family="Helvetica,sans-Serif" font-size="10.00">MAIN_febrier_2014.cpp</text>
</a>
</g>
<!-- Node2&#45;&gt;Node4 -->
<g id="edge6" class="edge"><title>Node2&#45;&gt;Node4</title>
<path fill="none" stroke="midnightblue" d="M218.55,-69.4854C212.734,-57.5106 205.71,-43.0495 200.854,-33.0533"/>
<polygon fill="midnightblue" stroke="midnightblue" points="215.56,-71.341 223.078,-78.8069 221.857,-68.2827 215.56,-71.341"/>
</g>
<!-- Node5 -->
<g id="node9" class="node"><title>Node5</title>
<a xlink:href="_m_a_i_n__fevrier__2014_8cpp.html" target="_top" xlink:title="MAIN_fevrier_2014.cpp">
<polygon fill="white" stroke="black" points="271.5,-9 271.5,-33 390.5,-33 390.5,-9 271.5,-9"/>
<text text-anchor="middle" x="331" y="-20" font-family="Helvetica,sans-Serif" font-size="10.00">MAIN_fevrier_2014.cpp</text>
</a>
</g>
<!-- Node2&#45;&gt;Node5 -->
<g id="edge8" class="edge"><title>Node2&#45;&gt;Node5</title>
<path fill="none" stroke="midnightblue" d="M255.234,-72.9964C273.519,-60.4475 297.414,-44.0491 313.437,-33.0533"/>
<polygon fill="midnightblue" stroke="midnightblue" points="253.032,-70.2627 246.767,-78.8069 256.993,-76.0343 253.032,-70.2627"/>
</g>
<!-- Node6 -->
<g id="node11" class="node"><title>Node6</title>
<a xlink:href="_m_a_i_n__janv__2014__opensource__kbd_8cpp.html" target="_top" xlink:title="{main loop} ">
<polygon fill="white" stroke="black" points="407.5,-1 407.5,-41 554.5,-41 554.5,-1 407.5,-1"/>
<text text-anchor="start" x="415.5" y="-28" font-family="Helvetica,sans-Serif" font-size="10.00">MAIN_janv_2014_opensource</text>
<text text-anchor="middle" x="481" y="-12" font-family="Helvetica,sans-Serif" font-size="10.00">_kbd.cpp</text>
</a>
</g>
<!-- Node2&#45;&gt;Node6 -->
<g id="edge10" class="edge"><title>Node2&#45;&gt;Node6</title>
<path fill="none" stroke="midnightblue" d="M270.223,-77.7138C320.884,-62.7757 368.762,-49.8936 407.153,-39.8558"/>
<polygon fill="midnightblue" stroke="midnightblue" points="268.988,-74.4294 260.395,-80.6275 270.978,-81.1407 268.988,-74.4294"/>
</g>
<!-- Node7&#45;&gt;Node4 -->
<g id="edge14" class="edge"><title>Node7&#45;&gt;Node4</title>
<path fill="none" stroke="midnightblue" d="M298.646,-74.3472C274.009,-61.6664 240.669,-44.5058 218.529,-33.1107"/>
<polygon fill="midnightblue" stroke="midnightblue" points="297.128,-77.5021 307.621,-78.9666 300.331,-71.2781 297.128,-77.5021"/>
</g>
<!-- Node7&#45;&gt;Node5 -->
<g id="edge16" class="edge"><title>Node7&#45;&gt;Node5</title>
<path fill="none" stroke="midnightblue" d="M331,-68.764C331,-56.934 331,-42.8496 331,-33.0533"/>
<polygon fill="midnightblue" stroke="midnightblue" points="327.5,-68.8069 331,-78.8069 334.5,-68.807 327.5,-68.8069"/>
</g>
<!-- Node7&#45;&gt;Node6 -->
<g id="edge18" class="edge"><title>Node7&#45;&gt;Node6</title>
<path fill="none" stroke="midnightblue" d="M365.884,-74.7209C387.38,-64.6894 415.106,-51.7506 437.961,-41.0848"/>
<polygon fill="midnightblue" stroke="midnightblue" points="364.368,-71.566 356.786,-78.9666 367.328,-77.9093 364.368,-71.566"/>
</g>
</g>
</svg>
        <g id="navigator" transform="translate(0 0)" fill="#404254">
                <rect fill="#f2f5e9" fill-opacity="0.5" stroke="#606060" stroke-width=".5" x="0" y="0" width="60" height="60"/>
                <use id="zoomplus" xlink:href="#zoomPlus" x="17" y="9" onmousedown="handleZoom(evt,'in')"/>
                <use id="zoomminus" xlink:href="#zoomMin" x="42" y="9" onmousedown="handleZoom(evt,'out')"/>
                <use id="reset" xlink:href="#resetDef" x="30" y="36" onmousedown="handleReset()"/>
                <g id="arrowUp" xlink:href="#dirArrow" transform="translate(30 24)" onmousedown="handlePan(0,-1)">
                  <use xlink:href="#rim" fill="#404040">
                        <set attributeName="fill" to="#808080" begin="arrowUp.mouseover" end="arrowUp.mouseout"/>
                  </use>
                  <path fill="none" stroke="white" stroke-width="1.5" d="M0,-3.0v7 M-2.5,-0.5L0,-3.0L2.5,-0.5"/>
                </g>
                <g id="arrowRight" xlink:href="#dirArrow" transform="rotate(90) translate(36 -43)" onmousedown="handlePan(1,0)">
                  <use xlink:href="#rim" fill="#404040">
                        <set attributeName="fill" to="#808080" begin="arrowRight.mouseover" end="arrowRight.mouseout"/>
                  </use>
                  <path fill="none" stroke="white" stroke-width="1.5" d="M0,-3.0v7 M-2.5,-0.5L0,-3.0L2.5,-0.5"/>
                </g>
                <g id="arrowDown" xlink:href="#dirArrow" transform="rotate(180) translate(-30 -48)" onmousedown="handlePan(0,1)">
                  <use xlink:href="#rim" fill="#404040">
                        <set attributeName="fill" to="#808080" begin="arrowDown.mouseover" end="arrowDown.mouseout"/>
                  </use>
                  <path fill="none" stroke="white" stroke-width="1.5" d="M0,-3.0v7 M-2.5,-0.5L0,-3.0L2.5,-0.5"/>
                </g>
                <g id="arrowLeft" xlink:href="#dirArrow" transform="rotate(270) translate(-36 17)" onmousedown="handlePan(-1,0)">
                  <use xlink:href="#rim" fill="#404040">
                        <set attributeName="fill" to="#808080" begin="arrowLeft.mouseover" end="arrowLeft.mouseout"/>
                  </use>
                  <path fill="none" stroke="white" stroke-width="1.5" d="M0,-3.0v7 M-2.5,-0.5L0,-3.0L2.5,-0.5"/>
                </g>
        </g>
        <svg viewBox="0 0 15 15" width="100%" height="30px" preserveAspectRatio="xMaxYMin meet">
         <g id="arrow_out" transform="scale(0.3 0.3)">
          <a xlink:href="colors__fonts_8h__dep__incl_org.svg" target="_base">
           <rect id="button" ry="5" rx="5" y="6" x="6" height="38" width="38"
                fill="#f2f5e9" fill-opacity="0.5" stroke="#606060" stroke-width="1.0"/>
           <path id="arrow"
             d="M 11.500037,31.436501 C 11.940474,20.09759 22.043105,11.32322 32.158766,21.979434 L 37.068811,17.246167 C 37.068811,17.246167 37.088388,32 37.088388,32 L 22.160133,31.978069 C 22.160133,31.978069 26.997745,27.140456 26.997745,27.140456 C 18.528582,18.264221 13.291696,25.230495 11.500037,31.436501 z"
             style="fill:#404040;"/>
          </a>
         </g>
        </svg>
</svg>
