<?xml version="1.0" encoding="UTF-8" standalone="no"?>
<!DOCTYPE svg PUBLIC "-//W3C//DTD SVG 1.1//EN"
 "http://www.w3.org/Graphics/SVG/1.1/DTD/svg11.dtd">
<!-- Generated by graphviz version 2.26.3 (20100126.1600)
 -->
<!-- Title: CouleurPatchDefaut Pages: 1 -->
<!--zoomable 292 -->
<svg id="main" version="1.1" xmlns="http://www.w3.org/2000/svg" xmlns:xlink="http://www.w3.org/1999/xlink" xml:space="preserve" onload="init(evt)">
<style type="text/css"><![CDATA[
.edge:hover path { stroke: red; }
.edge:hover polygon { stroke: red; fill: red; }
]]></style>
<script type="text/javascript"><![CDATA[
var edges = document.getElementsByTagName('g');
if (edges && edges.length) {
  for (var i=0;i<edges.length;i++) {
    if (edges[i].id.substr(0,4)=='edge') {
      edges[i].setAttribute('class','edge');
    }
  }
}
]]></script>
        <defs>
                <circle id="rim" cx="0" cy="0" r="7"/>
                <circle id="rim2" cx="0" cy="0" r="3.5"/>
                <g id="zoomPlus">
                        <use xlink:href="#rim" fill="#404040">
                                <set attributeName="fill" to="#808080" begin="zoomplus.mouseover" end="zoomplus.mouseout"/>
                        </use>
                        <path d="M-4,0h8M0,-4v8" fill="none" stroke="white" stroke-width="1.5" pointer-events="none"/>
                </g>
                <g id="zoomMin">
                        <use xlink:href="#rim" fill="#404040">
                                <set attributeName="fill" to="#808080" begin="zoomminus.mouseover" end="zoomminus.mouseout"/>
                        </use>
                        <path d="M-4,0h8" fill="none" stroke="white" stroke-width="1.5" pointer-events="none"/>
                </g>
                <g id="dirArrow">
                        <path fill="none" stroke="white" stroke-width="1.5" d="M0,-3.0v7 M-2.5,-0.5L0,-3.0L2.5,-0.5"/>
                </g>
               <g id="resetDef">
                       <use xlink:href="#rim2" fill="#404040">
                               <set attributeName="fill" to="#808080" begin="reset.mouseover" end="reset.mouseout"/>
                       </use>
               </g>
        </defs>

<script type="text/javascript">
var viewWidth = 1234;
var viewHeight = 292;
var sectionId = 'dynsection-21';
</script>
<script xlink:href="svgpan.js"/>
<svg id="graph" class="graph">
<g id="viewport">
<title>CouleurPatchDefaut</title>
<polygon fill="white" stroke="white" points="-4,5 -4,-288.378 1231,-288.378 1231,5 -4,5"/>
<!-- Node1 -->
<g id="node1" class="node"><title>Node1</title>
<polygon fill="#bfbfbf" stroke="black" points="0.5,-188.378 0.5,-212.378 105.5,-212.378 105.5,-188.378 0.5,-188.378"/>
<text text-anchor="middle" x="53" y="-199.378" font-family="Helvetica,sans-Serif" font-size="10.00">CouleurPatchDefaut</text>
</g>
<!-- Node2 -->
<g id="node3" class="node"><title>Node2</title>
<a xlink:href="_c_o_r_e__6_8cpp.html#a3151aaac61e3f1704869ba4e3ea06226" target="_top" xlink:title="LoadWhiteCatColorProfil">
<polygon fill="white" stroke="black" points="142.5,-188.378 142.5,-212.378 267.5,-212.378 267.5,-188.378 142.5,-188.378"/>
<text text-anchor="middle" x="205" y="-199.378" font-family="Helvetica,sans-Serif" font-size="10.00">LoadWhiteCatColorProfil</text>
</a>
</g>
<!-- Node1&#45;&gt;Node2 -->
<g id="edge2" class="edge"><title>Node1&#45;&gt;Node2</title>
<path fill="none" stroke="midnightblue" d="M115.888,-200.378C124.655,-200.378 133.662,-200.378 142.423,-200.378"/>
<polygon fill="midnightblue" stroke="midnightblue" points="115.736,-196.878 105.736,-200.378 115.736,-203.878 115.736,-196.878"/>
</g>
<!-- Node3 -->
<g id="node5" class="node"><title>Node3</title>
<a xlink:href="_c_f_g__screen_8cpp.html#ac3bf4b5c2955a4f8d1f21437308ead37" target="_top" xlink:title="do_screen_config">
<polygon fill="white" stroke="black" points="304.5,-214.378 304.5,-238.378 397.5,-238.378 397.5,-214.378 304.5,-214.378"/>
<text text-anchor="middle" x="351" y="-225.378" font-family="Helvetica,sans-Serif" font-size="10.00">do_screen_config</text>
</a>
</g>
<!-- Node2&#45;&gt;Node3 -->
<g id="edge4" class="edge"><title>Node2&#45;&gt;Node3</title>
<path fill="none" stroke="midnightblue" d="M277.84,-213.35C286.791,-214.944 295.745,-216.538 304.165,-218.038"/>
<polygon fill="midnightblue" stroke="midnightblue" points="278.223,-209.863 267.764,-211.556 276.996,-216.755 278.223,-209.863"/>
</g>
<!-- Node8 -->
<g id="node15" class="node"><title>Node8</title>
<a xlink:href="_m_a_i_n__avec__objets_8cpp.html#ae66f6b31b5ad750f1fe042a706a4e3d4" target="_top" xlink:title="main">
<polygon fill="white" stroke="black" points="1188,-152.378 1188,-176.378 1226,-176.378 1226,-152.378 1188,-152.378"/>
<text text-anchor="middle" x="1207" y="-163.378" font-family="Helvetica,sans-Serif" font-size="10.00">main</text>
</a>
</g>
<!-- Node2&#45;&gt;Node8 -->
<g id="edge38" class="edge"><title>Node2&#45;&gt;Node8</title>
<path fill="none" stroke="midnightblue" d="M235.213,-217.254C254.399,-227.325 280.044,-239.623 304,-247.378 390.003,-275.22 413.603,-284.378 504,-284.378 504,-284.378 504,-284.378 938,-284.378 1038.93,-284.378 1063.81,-257.474 1152,-208.378 1167.81,-199.575 1183.72,-186.245 1194.34,-176.564"/>
<polygon fill="midnightblue" stroke="midnightblue" points="236.819,-214.144 226.349,-212.519 233.52,-220.318 236.819,-214.144"/>
</g>
<!-- Node9 -->
<g id="node17" class="node"><title>Node9</title>
<a xlink:href="_c_o_r_e__6_8cpp.html#a5e53dc8ef589fe38b9d40e3497ac3f13" target="_top" xlink:title="GlobInit">
<polygon fill="white" stroke="black" points="326,-163.378 326,-187.378 376,-187.378 376,-163.378 326,-163.378"/>
<text text-anchor="middle" x="351" y="-174.378" font-family="Helvetica,sans-Serif" font-size="10.00">GlobInit</text>
</a>
</g>
<!-- Node2&#45;&gt;Node9 -->
<g id="edge16" class="edge"><title>Node2&#45;&gt;Node9</title>
<path fill="none" stroke="midnightblue" d="M277.866,-187.901C295.073,-184.955 312.291,-182.007 325.694,-179.712"/>
<polygon fill="midnightblue" stroke="midnightblue" points="277.03,-184.493 267.764,-189.631 278.212,-191.393 277.03,-184.493"/>
</g>
<!-- Node16 -->
<g id="node36" class="node"><title>Node16</title>
<a xlink:href="save__show__13_8cpp.html#a8330f725aa2c729bdce098aa4b187589" target="_top" xlink:title="Load_Show">
<polygon fill="white" stroke="black" points="317,-51.3783 317,-75.3783 385,-75.3783 385,-51.3783 317,-51.3783"/>
<text text-anchor="middle" x="351" y="-62.3783" font-family="Helvetica,sans-Serif" font-size="10.00">Load_Show</text>
</a>
</g>
<!-- Node2&#45;&gt;Node16 -->
<g id="edge40" class="edge"><title>Node2&#45;&gt;Node16</title>
<path fill="none" stroke="midnightblue" d="M225.461,-181.179C255.924,-152.594 312.347,-99.6489 337.863,-75.7058"/>
<polygon fill="midnightblue" stroke="midnightblue" points="222.854,-178.825 217.957,-188.22 227.644,-183.93 222.854,-178.825"/>
</g>
<!-- Node4 -->
<g id="node7" class="node"><title>Node4</title>
<a xlink:href="_c_f_g__config__panel__8_8cpp.html#ad39c46e2fb3a3ba7ea0460140ead4f96" target="_top" xlink:title="do_panel_config">
<polygon fill="white" stroke="black" points="460.5,-232.378 460.5,-256.378 547.5,-256.378 547.5,-232.378 460.5,-232.378"/>
<text text-anchor="middle" x="504" y="-243.378" font-family="Helvetica,sans-Serif" font-size="10.00">do_panel_config</text>
</a>
</g>
<!-- Node3&#45;&gt;Node4 -->
<g id="edge6" class="edge"><title>Node3&#45;&gt;Node4</title>
<path fill="none" stroke="midnightblue" d="M407.783,-233.059C425.185,-235.106 444.047,-237.325 460.422,-239.251"/>
<polygon fill="midnightblue" stroke="midnightblue" points="408.077,-229.569 397.736,-231.877 407.259,-236.521 408.077,-229.569"/>
</g>
<!-- Node5 -->
<g id="node9" class="node"><title>Node5</title>
<a xlink:href="_c_f_g__config__panel__8_8cpp.html#a7968da66bccdba8b864caf6c8435f68e" target="_top" xlink:title="config_general_menu">
<polygon fill="white" stroke="black" points="615.5,-232.378 615.5,-256.378 724.5,-256.378 724.5,-232.378 615.5,-232.378"/>
<text text-anchor="middle" x="670" y="-243.378" font-family="Helvetica,sans-Serif" font-size="10.00">config_general_menu</text>
</a>
</g>
<!-- Node4&#45;&gt;Node5 -->
<g id="edge8" class="edge"><title>Node4&#45;&gt;Node5</title>
<path fill="none" stroke="midnightblue" d="M557.626,-244.378C576.11,-244.378 596.825,-244.378 615.387,-244.378"/>
<polygon fill="midnightblue" stroke="midnightblue" points="557.615,-240.878 547.615,-244.378 557.615,-247.878 557.615,-240.878"/>
</g>
<!-- Node6 -->
<g id="node11" class="node"><title>Node6</title>
<a xlink:href="graphics__rebuild1_8cpp.html#ac2eae1e03fb72cc734ffbcef566483bf" target="_top" xlink:title="Boxes">
<polygon fill="white" stroke="black" points="916,-152.378 916,-176.378 960,-176.378 960,-152.378 916,-152.378"/>
<text text-anchor="middle" x="938" y="-163.378" font-family="Helvetica,sans-Serif" font-size="10.00">Boxes</text>
</a>
</g>
<!-- Node5&#45;&gt;Node6 -->
<g id="edge10" class="edge"><title>Node5&#45;&gt;Node6</title>
<path fill="none" stroke="midnightblue" d="M720.209,-229.39C778.821,-211.894 873.156,-183.735 915.801,-171.005"/>
<polygon fill="midnightblue" stroke="midnightblue" points="718.994,-226.101 710.412,-232.315 720.996,-232.808 718.994,-226.101"/>
</g>
<!-- Node7 -->
<g id="node13" class="node"><title>Node7</title>
<a xlink:href="_m_a_i_n__avec__objets_8cpp.html#ade8d4ba65d55c94f8ee277829d722155" target="_top" xlink:title="main_actions_on_screen">
<polygon fill="white" stroke="black" points="1026.5,-152.378 1026.5,-176.378 1151.5,-176.378 1151.5,-152.378 1026.5,-152.378"/>
<text text-anchor="middle" x="1089" y="-163.378" font-family="Helvetica,sans-Serif" font-size="10.00">main_actions_on_screen</text>
</a>
</g>
<!-- Node6&#45;&gt;Node7 -->
<g id="edge12" class="edge"><title>Node6&#45;&gt;Node7</title>
<path fill="none" stroke="midnightblue" d="M970.395,-164.378C986.76,-164.378 1007.19,-164.378 1026.46,-164.378"/>
<polygon fill="midnightblue" stroke="midnightblue" points="970.281,-160.878 960.281,-164.378 970.281,-167.878 970.281,-160.878"/>
</g>
<!-- Node7&#45;&gt;Node8 -->
<g id="edge14" class="edge"><title>Node7&#45;&gt;Node8</title>
<path fill="none" stroke="midnightblue" d="M1161.84,-164.378C1171.34,-164.378 1180.33,-164.378 1187.75,-164.378"/>
<polygon fill="midnightblue" stroke="midnightblue" points="1161.8,-160.878 1151.8,-164.378 1161.8,-167.878 1161.8,-160.878"/>
</g>
<!-- Node9&#45;&gt;Node8 -->
<g id="edge36" class="edge"><title>Node9&#45;&gt;Node8</title>
<path fill="none" stroke="midnightblue" d="M386.377,-180.707C445.13,-189.081 566.605,-204.378 670,-204.378 670,-204.378 670,-204.378 938,-204.378 1033.49,-204.378 1058.96,-206.835 1152,-185.378 1164.25,-182.553 1177.43,-177.595 1187.81,-173.206"/>
<polygon fill="midnightblue" stroke="midnightblue" points="386.553,-177.196 376.155,-179.229 385.551,-184.124 386.553,-177.196"/>
</g>
<!-- Node10 -->
<g id="node19" class="node"><title>Node10</title>
<a xlink:href="_c_o_r_e__6_8cpp.html#a29400ad92b676ecb7743384700af5560" target="_top" xlink:title="reset_show">
<polygon fill="white" stroke="black" points="470.5,-114.378 470.5,-138.378 537.5,-138.378 537.5,-114.378 470.5,-114.378"/>
<text text-anchor="middle" x="504" y="-125.378" font-family="Helvetica,sans-Serif" font-size="10.00">reset_show</text>
</a>
</g>
<!-- Node9&#45;&gt;Node10 -->
<g id="edge18" class="edge"><title>Node9&#45;&gt;Node10</title>
<path fill="none" stroke="midnightblue" d="M385.853,-164.216C411.201,-156.098 445.323,-145.17 470.379,-137.146"/>
<polygon fill="midnightblue" stroke="midnightblue" points="384.721,-160.904 376.265,-167.287 386.856,-167.57 384.721,-160.904"/>
</g>
<!-- Node11 -->
<g id="node21" class="node"><title>Node11</title>
<a xlink:href="logicals__intres_8cpp.html#a74cf9c04c734ab342f88799efbfc4210" target="_top" xlink:title="operations_confirmation">
<polygon fill="white" stroke="black" points="610,-112.378 610,-136.378 730,-136.378 730,-112.378 610,-112.378"/>
<text text-anchor="middle" x="670" y="-123.378" font-family="Helvetica,sans-Serif" font-size="10.00">operations_confirmation</text>
</a>
</g>
<!-- Node9&#45;&gt;Node11 -->
<g id="edge34" class="edge"><title>Node9&#45;&gt;Node11</title>
<path fill="none" stroke="midnightblue" d="M386.431,-172.147C430.574,-167.842 508.213,-159.351 574,-147.378 590.524,-144.371 608.465,-140.296 624.317,-136.411"/>
<polygon fill="midnightblue" stroke="midnightblue" points="385.84,-168.687 376.22,-173.126 386.509,-175.655 385.84,-168.687"/>
</g>
<!-- Node10&#45;&gt;Node11 -->
<g id="edge20" class="edge"><title>Node10&#45;&gt;Node11</title>
<path fill="none" stroke="midnightblue" d="M547.757,-125.851C566.778,-125.622 589.37,-125.35 609.927,-125.102"/>
<polygon fill="midnightblue" stroke="midnightblue" points="547.55,-122.353 537.593,-125.974 547.634,-129.353 547.55,-122.353"/>
</g>
<!-- Node12 -->
<g id="node23" class="node"><title>Node12</title>
<a xlink:href="keyboard__functions2_8cpp.html#a548548066307f816c5021de7d6e4f26a" target="_top" xlink:title="key_affectation">
<polygon fill="white" stroke="black" points="766.5,-110.378 766.5,-134.378 849.5,-134.378 849.5,-110.378 766.5,-110.378"/>
<text text-anchor="middle" x="808" y="-121.378" font-family="Helvetica,sans-Serif" font-size="10.00">key_affectation</text>
</a>
</g>
<!-- Node11&#45;&gt;Node12 -->
<g id="edge22" class="edge"><title>Node11&#45;&gt;Node12</title>
<path fill="none" stroke="midnightblue" d="M740.19,-123.361C749.12,-123.232 758.024,-123.103 766.303,-122.983"/>
<polygon fill="midnightblue" stroke="midnightblue" points="740.076,-119.862 730.127,-123.507 740.177,-126.862 740.076,-119.862"/>
</g>
<!-- Node15 -->
<g id="node30" class="node"><title>Node15</title>
<a xlink:href="logicals__intres_8cpp.html#a85967c22135715eca94d08af2ec1a1fb" target="_top" xlink:title="fenetre_confirm">
<polygon fill="white" stroke="black" points="766,-152.378 766,-176.378 850,-176.378 850,-152.378 766,-152.378"/>
<text text-anchor="middle" x="808" y="-163.378" font-family="Helvetica,sans-Serif" font-size="10.00">fenetre_confirm</text>
</a>
</g>
<!-- Node11&#45;&gt;Node15 -->
<g id="edge30" class="edge"><title>Node11&#45;&gt;Node15</title>
<path fill="none" stroke="midnightblue" d="M721.396,-139.276C736.147,-143.551 752.047,-148.16 766.148,-152.247"/>
<polygon fill="midnightblue" stroke="midnightblue" points="721.984,-135.802 711.405,-136.38 720.035,-142.525 721.984,-135.802"/>
</g>
<!-- Node13 -->
<g id="node25" class="node"><title>Node13</title>
<a xlink:href="keyboard__routines2_8cpp.html#a8563320b8eab661232619224650de244" target="_top" xlink:title="commandes_clavier">
<polygon fill="white" stroke="black" points="886,-110.378 886,-134.378 990,-134.378 990,-110.378 886,-110.378"/>
<text text-anchor="middle" x="938" y="-121.378" font-family="Helvetica,sans-Serif" font-size="10.00">commandes_clavier</text>
</a>
</g>
<!-- Node12&#45;&gt;Node13 -->
<g id="edge24" class="edge"><title>Node12&#45;&gt;Node13</title>
<path fill="none" stroke="midnightblue" d="M859.995,-122.378C868.473,-122.378 877.258,-122.378 885.742,-122.378"/>
<polygon fill="midnightblue" stroke="midnightblue" points="859.848,-118.878 849.848,-122.378 859.848,-125.878 859.848,-118.878"/>
</g>
<!-- Node14 -->
<g id="node27" class="node"><title>Node14</title>
<a xlink:href="_m_a_i_n__avec__objets_8cpp.html#a8e80f54ac804eddce8ed6e45adb1db44" target="_top" xlink:title="ticker_full_loop">
<polygon fill="white" stroke="black" points="1048,-110.378 1048,-134.378 1130,-134.378 1130,-110.378 1048,-110.378"/>
<text text-anchor="middle" x="1089" y="-121.378" font-family="Helvetica,sans-Serif" font-size="10.00">ticker_full_loop</text>
</a>
</g>
<!-- Node13&#45;&gt;Node14 -->
<g id="edge26" class="edge"><title>Node13&#45;&gt;Node14</title>
<path fill="none" stroke="midnightblue" d="M1000.66,-122.378C1016.52,-122.378 1033.15,-122.378 1047.65,-122.378"/>
<polygon fill="midnightblue" stroke="midnightblue" points="1000.39,-118.878 990.389,-122.378 1000.39,-125.878 1000.39,-118.878"/>
</g>
<!-- Node14&#45;&gt;Node8 -->
<g id="edge28" class="edge"><title>Node14&#45;&gt;Node8</title>
<path fill="none" stroke="midnightblue" d="M1135.82,-137.737C1141.29,-139.604 1146.78,-141.511 1152,-143.378 1164.03,-147.678 1177.43,-152.786 1187.98,-156.887"/>
<polygon fill="midnightblue" stroke="midnightblue" points="1136.66,-134.327 1126.07,-134.44 1134.42,-140.958 1136.66,-134.327"/>
</g>
<!-- Node15&#45;&gt;Node6 -->
<g id="edge32" class="edge"><title>Node15&#45;&gt;Node6</title>
<path fill="none" stroke="midnightblue" d="M860.4,-164.378C879.658,-164.378 900.45,-164.378 915.66,-164.378"/>
<polygon fill="midnightblue" stroke="midnightblue" points="860.207,-160.878 850.207,-164.378 860.207,-167.878 860.207,-160.878"/>
</g>
<!-- Node16&#45;&gt;Node8 -->
<g id="edge42" class="edge"><title>Node16&#45;&gt;Node8</title>
<path fill="none" stroke="midnightblue" d="M378.235,-46.2002C393.927,-37.1895 414.378,-26.9019 434,-21.3783 535.292,7.13487 564.772,-2.37829 670,-2.37829 670,-2.37829 670,-2.37829 938,-2.37829 1042.8,-2.37829 1068.14,-38.5267 1152,-101.378 1171.52,-116.008 1189.11,-138.568 1198.89,-152.349"/>
<polygon fill="midnightblue" stroke="midnightblue" points="376.415,-43.2102 369.588,-51.3123 379.977,-49.2359 376.415,-43.2102"/>
</g>
<!-- Node17 -->
<g id="node39" class="node"><title>Node17</title>
<a xlink:href="save__show__13_8cpp.html#a1eafc1ecb75f36c1fe85c967bdea99b0" target="_top" xlink:title="load_the_show">
<polygon fill="white" stroke="black" points="463,-72.3783 463,-96.3783 545,-96.3783 545,-72.3783 463,-72.3783"/>
<text text-anchor="middle" x="504" y="-83.3783" font-family="Helvetica,sans-Serif" font-size="10.00">load_the_show</text>
</a>
</g>
<!-- Node16&#45;&gt;Node17 -->
<g id="edge44" class="edge"><title>Node16&#45;&gt;Node17</title>
<path fill="none" stroke="midnightblue" d="M395.438,-69.4777C416.757,-72.4037 442.131,-75.8865 462.985,-78.7488"/>
<polygon fill="midnightblue" stroke="midnightblue" points="395.719,-65.9835 385.336,-68.0911 394.767,-72.9185 395.719,-65.9835"/>
</g>
<!-- Node18 -->
<g id="node42" class="node"><title>Node18</title>
<a xlink:href="save__show__13_8cpp.html#a2c8ff847dfaf2dc6c8765b2bee26edfc" target="_top" xlink:title="do_wizard_reload_from_disk">
<polygon fill="white" stroke="black" points="434,-30.3783 434,-54.3783 574,-54.3783 574,-30.3783 434,-30.3783"/>
<text text-anchor="middle" x="504" y="-41.3783" font-family="Helvetica,sans-Serif" font-size="10.00">do_wizard_reload_from_disk</text>
</a>
</g>
<!-- Node16&#45;&gt;Node18 -->
<g id="edge48" class="edge"><title>Node16&#45;&gt;Node18</title>
<path fill="none" stroke="midnightblue" d="M395.503,-57.2701C407.49,-55.6248 420.756,-53.804 433.777,-52.0167"/>
<polygon fill="midnightblue" stroke="midnightblue" points="394.767,-53.8381 385.336,-58.6655 395.719,-60.7731 394.767,-53.8381"/>
</g>
<!-- Node17&#45;&gt;Node11 -->
<g id="edge46" class="edge"><title>Node17&#45;&gt;Node11</title>
<path fill="none" stroke="midnightblue" d="M554.901,-96.6435C575.571,-101.624 599.381,-107.362 619.962,-112.321"/>
<polygon fill="midnightblue" stroke="midnightblue" points="555.575,-93.206 545.034,-94.2659 553.936,-100.011 555.575,-93.206"/>
</g>
<!-- Node18&#45;&gt;Node11 -->
<g id="edge50" class="edge"><title>Node18&#45;&gt;Node11</title>
<path fill="none" stroke="midnightblue" d="M560.291,-57.7669C564.989,-59.5018 569.615,-61.3738 574,-63.3783 603.992,-77.0881 635.707,-98.8696 654.134,-112.358"/>
<polygon fill="midnightblue" stroke="midnightblue" points="561.195,-54.3756 550.6,-54.4002 558.898,-60.988 561.195,-54.3756"/>
</g>
</g>
</svg>
        <g id="navigator" transform="translate(0 0)" fill="#404254">
                <rect fill="#f2f5e9" fill-opacity="0.5" stroke="#606060" stroke-width=".5" x="0" y="0" width="60" height="60"/>
                <use id="zoomplus" xlink:href="#zoomPlus" x="17" y="9" onmousedown="handleZoom(evt,'in')"/>
                <use id="zoomminus" xlink:href="#zoomMin" x="42" y="9" onmousedown="handleZoom(evt,'out')"/>
                <use id="reset" xlink:href="#resetDef" x="30" y="36" onmousedown="handleReset()"/>
                <g id="arrowUp" xlink:href="#dirArrow" transform="translate(30 24)" onmousedown="handlePan(0,-1)">
                  <use xlink:href="#rim" fill="#404040">
                        <set attributeName="fill" to="#808080" begin="arrowUp.mouseover" end="arrowUp.mouseout"/>
                  </use>
                  <path fill="none" stroke="white" stroke-width="1.5" d="M0,-3.0v7 M-2.5,-0.5L0,-3.0L2.5,-0.5"/>
                </g>
                <g id="arrowRight" xlink:href="#dirArrow" transform="rotate(90) translate(36 -43)" onmousedown="handlePan(1,0)">
                  <use xlink:href="#rim" fill="#404040">
                        <set attributeName="fill" to="#808080" begin="arrowRight.mouseover" end="arrowRight.mouseout"/>
                  </use>
                  <path fill="none" stroke="white" stroke-width="1.5" d="M0,-3.0v7 M-2.5,-0.5L0,-3.0L2.5,-0.5"/>
                </g>
                <g id="arrowDown" xlink:href="#dirArrow" transform="rotate(180) translate(-30 -48)" onmousedown="handlePan(0,1)">
                  <use xlink:href="#rim" fill="#404040">
                        <set attributeName="fill" to="#808080" begin="arrowDown.mouseover" end="arrowDown.mouseout"/>
                  </use>
                  <path fill="none" stroke="white" stroke-width="1.5" d="M0,-3.0v7 M-2.5,-0.5L0,-3.0L2.5,-0.5"/>
                </g>
                <g id="arrowLeft" xlink:href="#dirArrow" transform="rotate(270) translate(-36 17)" onmousedown="handlePan(-1,0)">
                  <use xlink:href="#rim" fill="#404040">
                        <set attributeName="fill" to="#808080" begin="arrowLeft.mouseover" end="arrowLeft.mouseout"/>
                  </use>
                  <path fill="none" stroke="white" stroke-width="1.5" d="M0,-3.0v7 M-2.5,-0.5L0,-3.0L2.5,-0.5"/>
                </g>
        </g>
        <svg viewBox="0 0 15 15" width="100%" height="30px" preserveAspectRatio="xMaxYMin meet">
         <g id="arrow_out" transform="scale(0.3 0.3)">
          <a xlink:href="colors__fonts_8h_adf5f11e2e6c252f0a0bcd9690ba1b35e_icgraph_org.svg" target="_base">
           <rect id="button" ry="5" rx="5" y="6" x="6" height="38" width="38"
                fill="#f2f5e9" fill-opacity="0.5" stroke="#606060" stroke-width="1.0"/>
           <path id="arrow"
             d="M 11.500037,31.436501 C 11.940474,20.09759 22.043105,11.32322 32.158766,21.979434 L 37.068811,17.246167 C 37.068811,17.246167 37.088388,32 37.088388,32 L 22.160133,31.978069 C 22.160133,31.978069 26.997745,27.140456 26.997745,27.140456 C 18.528582,18.264221 13.291696,25.230495 11.500037,31.436501 z"
             style="fill:#404040;"/>
          </a>
         </g>
        </svg>
</svg>
