<?xml version="1.0" encoding="UTF-8" standalone="no"?>
<!DOCTYPE svg PUBLIC "-//W3C//DTD SVG 1.1//EN"
 "http://www.w3.org/Graphics/SVG/1.1/DTD/svg11.dtd">
<!-- Generated by graphviz version 2.26.3 (20100126.1600)
 -->
<!-- Title: CouleurBleu2 Pages: 1 -->
<svg width="1204pt" height="292pt"
 viewBox="0.00 0.00 1204.00 292.38" xmlns="http://www.w3.org/2000/svg" xmlns:xlink="http://www.w3.org/1999/xlink">
<g id="graph1" class="graph" transform="scale(1 1) rotate(0) translate(4 288.378)">
<title>CouleurBleu2</title>
<polygon fill="white" stroke="white" points="-4,5 -4,-288.378 1201,-288.378 1201,5 -4,5"/>
<!-- Node1 -->
<g id="node1" class="node"><title>Node1</title>
<polygon fill="#bfbfbf" stroke="black" points="0.5,-188.378 0.5,-212.378 75.5,-212.378 75.5,-188.378 0.5,-188.378"/>
<text text-anchor="middle" x="38" y="-199.378" font-family="Helvetica,sans-Serif" font-size="10.00">CouleurBleu2</text>
</g>
<!-- Node2 -->
<g id="node3" class="node"><title>Node2</title>
<a xlink:href="_c_o_r_e__6_8cpp.html#a3151aaac61e3f1704869ba4e3ea06226" target="_top" xlink:title="LoadWhiteCatColorProfil">
<polygon fill="white" stroke="black" points="112.5,-188.378 112.5,-212.378 237.5,-212.378 237.5,-188.378 112.5,-188.378"/>
<text text-anchor="middle" x="175" y="-199.378" font-family="Helvetica,sans-Serif" font-size="10.00">LoadWhiteCatColorProfil</text>
</a>
</g>
<!-- Node1&#45;&gt;Node2 -->
<g id="edge2" class="edge"><title>Node1&#45;&gt;Node2</title>
<path fill="none" stroke="midnightblue" d="M85.9336,-200.378C94.4665,-200.378 103.469,-200.378 112.339,-200.378"/>
<polygon fill="midnightblue" stroke="midnightblue" points="85.7985,-196.878 75.7985,-200.378 85.7985,-203.878 85.7985,-196.878"/>
</g>
<!-- Node3 -->
<g id="node5" class="node"><title>Node3</title>
<a xlink:href="_c_f_g__screen_8cpp.html#ac3bf4b5c2955a4f8d1f21437308ead37" target="_top" xlink:title="do_screen_config">
<polygon fill="white" stroke="black" points="274.5,-214.378 274.5,-238.378 367.5,-238.378 367.5,-214.378 274.5,-214.378"/>
<text text-anchor="middle" x="321" y="-225.378" font-family="Helvetica,sans-Serif" font-size="10.00">do_screen_config</text>
</a>
</g>
<!-- Node2&#45;&gt;Node3 -->
<g id="edge4" class="edge"><title>Node2&#45;&gt;Node3</title>
<path fill="none" stroke="midnightblue" d="M247.84,-213.35C256.791,-214.944 265.745,-216.538 274.165,-218.038"/>
<polygon fill="midnightblue" stroke="midnightblue" points="248.223,-209.863 237.764,-211.556 246.996,-216.755 248.223,-209.863"/>
</g>
<!-- Node8 -->
<g id="node15" class="node"><title>Node8</title>
<a xlink:href="_m_a_i_n__avec__objets_8cpp.html#ae66f6b31b5ad750f1fe042a706a4e3d4" target="_top" xlink:title="main">
<polygon fill="white" stroke="black" points="1158,-152.378 1158,-176.378 1196,-176.378 1196,-152.378 1158,-152.378"/>
<text text-anchor="middle" x="1177" y="-163.378" font-family="Helvetica,sans-Serif" font-size="10.00">main</text>
</a>
</g>
<!-- Node2&#45;&gt;Node8 -->
<g id="edge38" class="edge"><title>Node2&#45;&gt;Node8</title>
<path fill="none" stroke="midnightblue" d="M205.213,-217.254C224.399,-227.325 250.044,-239.623 274,-247.378 360.003,-275.22 383.603,-284.378 474,-284.378 474,-284.378 474,-284.378 908,-284.378 1008.93,-284.378 1033.81,-257.474 1122,-208.378 1137.81,-199.575 1153.72,-186.245 1164.34,-176.564"/>
<polygon fill="midnightblue" stroke="midnightblue" points="206.819,-214.144 196.349,-212.519 203.52,-220.318 206.819,-214.144"/>
</g>
<!-- Node9 -->
<g id="node17" class="node"><title>Node9</title>
<a xlink:href="_c_o_r_e__6_8cpp.html#a5e53dc8ef589fe38b9d40e3497ac3f13" target="_top" xlink:title="GlobInit">
<polygon fill="white" stroke="black" points="296,-163.378 296,-187.378 346,-187.378 346,-163.378 296,-163.378"/>
<text text-anchor="middle" x="321" y="-174.378" font-family="Helvetica,sans-Serif" font-size="10.00">GlobInit</text>
</a>
</g>
<!-- Node2&#45;&gt;Node9 -->
<g id="edge16" class="edge"><title>Node2&#45;&gt;Node9</title>
<path fill="none" stroke="midnightblue" d="M247.866,-187.901C265.073,-184.955 282.291,-182.007 295.694,-179.712"/>
<polygon fill="midnightblue" stroke="midnightblue" points="247.03,-184.493 237.764,-189.631 248.212,-191.393 247.03,-184.493"/>
</g>
<!-- Node16 -->
<g id="node36" class="node"><title>Node16</title>
<a xlink:href="save__show__13_8cpp.html#a8330f725aa2c729bdce098aa4b187589" target="_top" xlink:title="Load_Show">
<polygon fill="white" stroke="black" points="287,-51.3783 287,-75.3783 355,-75.3783 355,-51.3783 287,-51.3783"/>
<text text-anchor="middle" x="321" y="-62.3783" font-family="Helvetica,sans-Serif" font-size="10.00">Load_Show</text>
</a>
</g>
<!-- Node2&#45;&gt;Node16 -->
<g id="edge40" class="edge"><title>Node2&#45;&gt;Node16</title>
<path fill="none" stroke="midnightblue" d="M195.461,-181.179C225.924,-152.594 282.347,-99.6489 307.863,-75.7058"/>
<polygon fill="midnightblue" stroke="midnightblue" points="192.854,-178.825 187.957,-188.22 197.644,-183.93 192.854,-178.825"/>
</g>
<!-- Node4 -->
<g id="node7" class="node"><title>Node4</title>
<a xlink:href="_c_f_g__config__panel__8_8cpp.html#ad39c46e2fb3a3ba7ea0460140ead4f96" target="_top" xlink:title="do_panel_config">
<polygon fill="white" stroke="black" points="430.5,-232.378 430.5,-256.378 517.5,-256.378 517.5,-232.378 430.5,-232.378"/>
<text text-anchor="middle" x="474" y="-243.378" font-family="Helvetica,sans-Serif" font-size="10.00">do_panel_config</text>
</a>
</g>
<!-- Node3&#45;&gt;Node4 -->
<g id="edge6" class="edge"><title>Node3&#45;&gt;Node4</title>
<path fill="none" stroke="midnightblue" d="M377.783,-233.059C395.185,-235.106 414.047,-237.325 430.422,-239.251"/>
<polygon fill="midnightblue" stroke="midnightblue" points="378.077,-229.569 367.736,-231.877 377.259,-236.521 378.077,-229.569"/>
</g>
<!-- Node5 -->
<g id="node9" class="node"><title>Node5</title>
<a xlink:href="_c_f_g__config__panel__8_8cpp.html#a7968da66bccdba8b864caf6c8435f68e" target="_top" xlink:title="config_general_menu">
<polygon fill="white" stroke="black" points="585.5,-232.378 585.5,-256.378 694.5,-256.378 694.5,-232.378 585.5,-232.378"/>
<text text-anchor="middle" x="640" y="-243.378" font-family="Helvetica,sans-Serif" font-size="10.00">config_general_menu</text>
</a>
</g>
<!-- Node4&#45;&gt;Node5 -->
<g id="edge8" class="edge"><title>Node4&#45;&gt;Node5</title>
<path fill="none" stroke="midnightblue" d="M527.626,-244.378C546.11,-244.378 566.825,-244.378 585.387,-244.378"/>
<polygon fill="midnightblue" stroke="midnightblue" points="527.615,-240.878 517.615,-244.378 527.615,-247.878 527.615,-240.878"/>
</g>
<!-- Node6 -->
<g id="node11" class="node"><title>Node6</title>
<a xlink:href="graphics__rebuild1_8cpp.html#ac2eae1e03fb72cc734ffbcef566483bf" target="_top" xlink:title="Boxes">
<polygon fill="white" stroke="black" points="886,-152.378 886,-176.378 930,-176.378 930,-152.378 886,-152.378"/>
<text text-anchor="middle" x="908" y="-163.378" font-family="Helvetica,sans-Serif" font-size="10.00">Boxes</text>
</a>
</g>
<!-- Node5&#45;&gt;Node6 -->
<g id="edge10" class="edge"><title>Node5&#45;&gt;Node6</title>
<path fill="none" stroke="midnightblue" d="M690.209,-229.39C748.821,-211.894 843.156,-183.735 885.801,-171.005"/>
<polygon fill="midnightblue" stroke="midnightblue" points="688.994,-226.101 680.412,-232.315 690.996,-232.808 688.994,-226.101"/>
</g>
<!-- Node7 -->
<g id="node13" class="node"><title>Node7</title>
<a xlink:href="_m_a_i_n__avec__objets_8cpp.html#ade8d4ba65d55c94f8ee277829d722155" target="_top" xlink:title="main_actions_on_screen">
<polygon fill="white" stroke="black" points="996.5,-152.378 996.5,-176.378 1121.5,-176.378 1121.5,-152.378 996.5,-152.378"/>
<text text-anchor="middle" x="1059" y="-163.378" font-family="Helvetica,sans-Serif" font-size="10.00">main_actions_on_screen</text>
</a>
</g>
<!-- Node6&#45;&gt;Node7 -->
<g id="edge12" class="edge"><title>Node6&#45;&gt;Node7</title>
<path fill="none" stroke="midnightblue" d="M940.395,-164.378C956.76,-164.378 977.187,-164.378 996.455,-164.378"/>
<polygon fill="midnightblue" stroke="midnightblue" points="940.281,-160.878 930.281,-164.378 940.281,-167.878 940.281,-160.878"/>
</g>
<!-- Node7&#45;&gt;Node8 -->
<g id="edge14" class="edge"><title>Node7&#45;&gt;Node8</title>
<path fill="none" stroke="midnightblue" d="M1131.84,-164.378C1141.34,-164.378 1150.33,-164.378 1157.75,-164.378"/>
<polygon fill="midnightblue" stroke="midnightblue" points="1131.8,-160.878 1121.8,-164.378 1131.8,-167.878 1131.8,-160.878"/>
</g>
<!-- Node9&#45;&gt;Node8 -->
<g id="edge36" class="edge"><title>Node9&#45;&gt;Node8</title>
<path fill="none" stroke="midnightblue" d="M356.377,-180.707C415.13,-189.081 536.605,-204.378 640,-204.378 640,-204.378 640,-204.378 908,-204.378 1003.49,-204.378 1028.96,-206.835 1122,-185.378 1134.25,-182.553 1147.43,-177.595 1157.81,-173.206"/>
<polygon fill="midnightblue" stroke="midnightblue" points="356.553,-177.196 346.155,-179.229 355.551,-184.124 356.553,-177.196"/>
</g>
<!-- Node10 -->
<g id="node19" class="node"><title>Node10</title>
<a xlink:href="_c_o_r_e__6_8cpp.html#a29400ad92b676ecb7743384700af5560" target="_top" xlink:title="reset_show">
<polygon fill="white" stroke="black" points="440.5,-114.378 440.5,-138.378 507.5,-138.378 507.5,-114.378 440.5,-114.378"/>
<text text-anchor="middle" x="474" y="-125.378" font-family="Helvetica,sans-Serif" font-size="10.00">reset_show</text>
</a>
</g>
<!-- Node9&#45;&gt;Node10 -->
<g id="edge18" class="edge"><title>Node9&#45;&gt;Node10</title>
<path fill="none" stroke="midnightblue" d="M355.853,-164.216C381.201,-156.098 415.323,-145.17 440.379,-137.146"/>
<polygon fill="midnightblue" stroke="midnightblue" points="354.721,-160.904 346.265,-167.287 356.856,-167.57 354.721,-160.904"/>
</g>
<!-- Node11 -->
<g id="node21" class="node"><title>Node11</title>
<a xlink:href="logicals__intres_8cpp.html#a74cf9c04c734ab342f88799efbfc4210" target="_top" xlink:title="operations_confirmation">
<polygon fill="white" stroke="black" points="580,-112.378 580,-136.378 700,-136.378 700,-112.378 580,-112.378"/>
<text text-anchor="middle" x="640" y="-123.378" font-family="Helvetica,sans-Serif" font-size="10.00">operations_confirmation</text>
</a>
</g>
<!-- Node9&#45;&gt;Node11 -->
<g id="edge34" class="edge"><title>Node9&#45;&gt;Node11</title>
<path fill="none" stroke="midnightblue" d="M356.431,-172.147C400.574,-167.842 478.213,-159.351 544,-147.378 560.524,-144.371 578.465,-140.296 594.317,-136.411"/>
<polygon fill="midnightblue" stroke="midnightblue" points="355.84,-168.687 346.22,-173.126 356.509,-175.655 355.84,-168.687"/>
</g>
<!-- Node10&#45;&gt;Node11 -->
<g id="edge20" class="edge"><title>Node10&#45;&gt;Node11</title>
<path fill="none" stroke="midnightblue" d="M517.757,-125.851C536.778,-125.622 559.37,-125.35 579.927,-125.102"/>
<polygon fill="midnightblue" stroke="midnightblue" points="517.55,-122.353 507.593,-125.974 517.634,-129.353 517.55,-122.353"/>
</g>
<!-- Node12 -->
<g id="node23" class="node"><title>Node12</title>
<a xlink:href="keyboard__functions2_8cpp.html#a548548066307f816c5021de7d6e4f26a" target="_top" xlink:title="key_affectation">
<polygon fill="white" stroke="black" points="736.5,-110.378 736.5,-134.378 819.5,-134.378 819.5,-110.378 736.5,-110.378"/>
<text text-anchor="middle" x="778" y="-121.378" font-family="Helvetica,sans-Serif" font-size="10.00">key_affectation</text>
</a>
</g>
<!-- Node11&#45;&gt;Node12 -->
<g id="edge22" class="edge"><title>Node11&#45;&gt;Node12</title>
<path fill="none" stroke="midnightblue" d="M710.19,-123.361C719.12,-123.232 728.024,-123.103 736.303,-122.983"/>
<polygon fill="midnightblue" stroke="midnightblue" points="710.076,-119.862 700.127,-123.507 710.177,-126.862 710.076,-119.862"/>
</g>
<!-- Node15 -->
<g id="node30" class="node"><title>Node15</title>
<a xlink:href="logicals__intres_8cpp.html#a85967c22135715eca94d08af2ec1a1fb" target="_top" xlink:title="fenetre_confirm">
<polygon fill="white" stroke="black" points="736,-152.378 736,-176.378 820,-176.378 820,-152.378 736,-152.378"/>
<text text-anchor="middle" x="778" y="-163.378" font-family="Helvetica,sans-Serif" font-size="10.00">fenetre_confirm</text>
</a>
</g>
<!-- Node11&#45;&gt;Node15 -->
<g id="edge30" class="edge"><title>Node11&#45;&gt;Node15</title>
<path fill="none" stroke="midnightblue" d="M691.396,-139.276C706.147,-143.551 722.047,-148.16 736.148,-152.247"/>
<polygon fill="midnightblue" stroke="midnightblue" points="691.984,-135.802 681.405,-136.38 690.035,-142.525 691.984,-135.802"/>
</g>
<!-- Node13 -->
<g id="node25" class="node"><title>Node13</title>
<a xlink:href="keyboard__routines2_8cpp.html#a8563320b8eab661232619224650de244" target="_top" xlink:title="commandes_clavier">
<polygon fill="white" stroke="black" points="856,-110.378 856,-134.378 960,-134.378 960,-110.378 856,-110.378"/>
<text text-anchor="middle" x="908" y="-121.378" font-family="Helvetica,sans-Serif" font-size="10.00">commandes_clavier</text>
</a>
</g>
<!-- Node12&#45;&gt;Node13 -->
<g id="edge24" class="edge"><title>Node12&#45;&gt;Node13</title>
<path fill="none" stroke="midnightblue" d="M829.995,-122.378C838.473,-122.378 847.258,-122.378 855.742,-122.378"/>
<polygon fill="midnightblue" stroke="midnightblue" points="829.848,-118.878 819.848,-122.378 829.848,-125.878 829.848,-118.878"/>
</g>
<!-- Node14 -->
<g id="node27" class="node"><title>Node14</title>
<a xlink:href="_m_a_i_n__avec__objets_8cpp.html#a8e80f54ac804eddce8ed6e45adb1db44" target="_top" xlink:title="ticker_full_loop">
<polygon fill="white" stroke="black" points="1018,-110.378 1018,-134.378 1100,-134.378 1100,-110.378 1018,-110.378"/>
<text text-anchor="middle" x="1059" y="-121.378" font-family="Helvetica,sans-Serif" font-size="10.00">ticker_full_loop</text>
</a>
</g>
<!-- Node13&#45;&gt;Node14 -->
<g id="edge26" class="edge"><title>Node13&#45;&gt;Node14</title>
<path fill="none" stroke="midnightblue" d="M970.664,-122.378C986.516,-122.378 1003.15,-122.378 1017.65,-122.378"/>
<polygon fill="midnightblue" stroke="midnightblue" points="970.389,-118.878 960.389,-122.378 970.389,-125.878 970.389,-118.878"/>
</g>
<!-- Node14&#45;&gt;Node8 -->
<g id="edge28" class="edge"><title>Node14&#45;&gt;Node8</title>
<path fill="none" stroke="midnightblue" d="M1105.82,-137.737C1111.29,-139.604 1116.78,-141.511 1122,-143.378 1134.03,-147.678 1147.43,-152.786 1157.98,-156.887"/>
<polygon fill="midnightblue" stroke="midnightblue" points="1106.66,-134.327 1096.07,-134.44 1104.42,-140.958 1106.66,-134.327"/>
</g>
<!-- Node15&#45;&gt;Node6 -->
<g id="edge32" class="edge"><title>Node15&#45;&gt;Node6</title>
<path fill="none" stroke="midnightblue" d="M830.4,-164.378C849.658,-164.378 870.45,-164.378 885.66,-164.378"/>
<polygon fill="midnightblue" stroke="midnightblue" points="830.207,-160.878 820.207,-164.378 830.207,-167.878 830.207,-160.878"/>
</g>
<!-- Node16&#45;&gt;Node8 -->
<g id="edge42" class="edge"><title>Node16&#45;&gt;Node8</title>
<path fill="none" stroke="midnightblue" d="M348.235,-46.2002C363.927,-37.1895 384.378,-26.9019 404,-21.3783 505.292,7.13487 534.772,-2.37829 640,-2.37829 640,-2.37829 640,-2.37829 908,-2.37829 1012.8,-2.37829 1038.14,-38.5267 1122,-101.378 1141.52,-116.008 1159.11,-138.568 1168.89,-152.349"/>
<polygon fill="midnightblue" stroke="midnightblue" points="346.415,-43.2102 339.588,-51.3123 349.977,-49.2359 346.415,-43.2102"/>
</g>
<!-- Node17 -->
<g id="node39" class="node"><title>Node17</title>
<a xlink:href="save__show__13_8cpp.html#a1eafc1ecb75f36c1fe85c967bdea99b0" target="_top" xlink:title="load_the_show">
<polygon fill="white" stroke="black" points="433,-72.3783 433,-96.3783 515,-96.3783 515,-72.3783 433,-72.3783"/>
<text text-anchor="middle" x="474" y="-83.3783" font-family="Helvetica,sans-Serif" font-size="10.00">load_the_show</text>
</a>
</g>
<!-- Node16&#45;&gt;Node17 -->
<g id="edge44" class="edge"><title>Node16&#45;&gt;Node17</title>
<path fill="none" stroke="midnightblue" d="M365.438,-69.4777C386.757,-72.4037 412.131,-75.8865 432.985,-78.7488"/>
<polygon fill="midnightblue" stroke="midnightblue" points="365.719,-65.9835 355.336,-68.0911 364.767,-72.9185 365.719,-65.9835"/>
</g>
<!-- Node18 -->
<g id="node42" class="node"><title>Node18</title>
<a xlink:href="save__show__13_8cpp.html#a2c8ff847dfaf2dc6c8765b2bee26edfc" target="_top" xlink:title="do_wizard_reload_from_disk">
<polygon fill="white" stroke="black" points="404,-30.3783 404,-54.3783 544,-54.3783 544,-30.3783 404,-30.3783"/>
<text text-anchor="middle" x="474" y="-41.3783" font-family="Helvetica,sans-Serif" font-size="10.00">do_wizard_reload_from_disk</text>
</a>
</g>
<!-- Node16&#45;&gt;Node18 -->
<g id="edge48" class="edge"><title>Node16&#45;&gt;Node18</title>
<path fill="none" stroke="midnightblue" d="M365.503,-57.2701C377.49,-55.6248 390.756,-53.804 403.777,-52.0167"/>
<polygon fill="midnightblue" stroke="midnightblue" points="364.767,-53.8381 355.336,-58.6655 365.719,-60.7731 364.767,-53.8381"/>
</g>
<!-- Node17&#45;&gt;Node11 -->
<g id="edge46" class="edge"><title>Node17&#45;&gt;Node11</title>
<path fill="none" stroke="midnightblue" d="M524.901,-96.6435C545.571,-101.624 569.381,-107.362 589.962,-112.321"/>
<polygon fill="midnightblue" stroke="midnightblue" points="525.575,-93.206 515.034,-94.2659 523.936,-100.011 525.575,-93.206"/>
</g>
<!-- Node18&#45;&gt;Node11 -->
<g id="edge50" class="edge"><title>Node18&#45;&gt;Node11</title>
<path fill="none" stroke="midnightblue" d="M530.291,-57.7669C534.989,-59.5018 539.615,-61.3738 544,-63.3783 573.992,-77.0881 605.707,-98.8696 624.134,-112.358"/>
<polygon fill="midnightblue" stroke="midnightblue" points="531.195,-54.3756 520.6,-54.4002 528.898,-60.988 531.195,-54.3756"/>
</g>
</g>
</svg>
