<?xml version="1.0" encoding="UTF-8" standalone="no"?>
<!DOCTYPE svg PUBLIC "-//W3C//DTD SVG 1.1//EN"
 "http://www.w3.org/Graphics/SVG/1.1/DTD/svg11.dtd">
<!-- Generated by graphviz version 2.26.3 (20100126.1600)
 -->
<!-- Title: Init_dmx_interface Pages: 1 -->
<svg width="944pt" height="98pt"
 viewBox="0.00 0.00 944.00 98.00" xmlns="http://www.w3.org/2000/svg" xmlns:xlink="http://www.w3.org/1999/xlink">
<g id="graph1" class="graph" transform="scale(1 1) rotate(0) translate(4 94)">
<title>Init_dmx_interface</title>
<polygon fill="white" stroke="white" points="-4,5 -4,-94 941,-94 941,5 -4,5"/>
<!-- Node1 -->
<g id="node1" class="node"><title>Node1</title>
<polygon fill="#bfbfbf" stroke="black" points="0.5,-26 0.5,-50 97.5,-50 97.5,-26 0.5,-26"/>
<text text-anchor="middle" x="49" y="-37" font-family="Helvetica,sans-Serif" font-size="10.00">Init_dmx_interface</text>
</g>
<!-- Node2 -->
<g id="node3" class="node"><title>Node2</title>
<a xlink:href="_c_f_g__config__panel__8_8cpp.html#ab6b381db258889ff1d6e45119c1b24fc" target="_top" xlink:title="SelectDmxDevice">
<polygon fill="white" stroke="black" points="134,-66 134,-90 230,-90 230,-66 134,-66"/>
<text text-anchor="middle" x="182" y="-77" font-family="Helvetica,sans-Serif" font-size="10.00">SelectDmxDevice</text>
</a>
</g>
<!-- Node1&#45;&gt;Node2 -->
<g id="edge2" class="edge"><title>Node1&#45;&gt;Node2</title>
<path fill="none" stroke="midnightblue" d="M98.5341,-52.8975C112.75,-57.1729 128.074,-61.7817 141.664,-65.8689"/>
<polygon fill="midnightblue" stroke="midnightblue" points="99.4887,-49.5298 88.9044,-50.0013 97.4726,-56.2332 99.4887,-49.5298"/>
</g>
<!-- Node3 -->
<g id="node5" class="node"><title>Node3</title>
<a xlink:href="_c_f_g__config__panel__8_8cpp.html#af492ee2130c3aed1b5f2ee4ff61a4416" target="_top" xlink:title="do_dmx_config">
<polygon fill="white" stroke="black" points="266.5,-28 266.5,-52 349.5,-52 349.5,-28 266.5,-28"/>
<text text-anchor="middle" x="308" y="-39" font-family="Helvetica,sans-Serif" font-size="10.00">do_dmx_config</text>
</a>
</g>
<!-- Node1&#45;&gt;Node3 -->
<g id="edge16" class="edge"><title>Node1&#45;&gt;Node3</title>
<path fill="none" stroke="midnightblue" d="M107.727,-38.4535C156.067,-38.8268 223.396,-39.3467 266.342,-39.6783"/>
<polygon fill="midnightblue" stroke="midnightblue" points="107.743,-34.9536 97.7159,-38.3762 107.689,-41.9534 107.743,-34.9536"/>
</g>
<!-- Node8 -->
<g id="node15" class="node"><title>Node8</title>
<a xlink:href="_m_a_i_n__avec__objets_8cpp.html#ae66f6b31b5ad750f1fe042a706a4e3d4" target="_top" xlink:title="main">
<polygon fill="white" stroke="black" points="898,-8 898,-32 936,-32 936,-8 898,-8"/>
<text text-anchor="middle" x="917" y="-19" font-family="Helvetica,sans-Serif" font-size="10.00">main</text>
</a>
</g>
<!-- Node1&#45;&gt;Node8 -->
<g id="edge18" class="edge"><title>Node1&#45;&gt;Node8</title>
<path fill="none" stroke="midnightblue" d="M107.949,-24.3549C160.211,-13.4571 238.765,-0 308,-0 308,-0 308,-0 678,-0 760.027,-7.10543e-15 857.34,-11.8436 897.838,-17.3027"/>
<polygon fill="midnightblue" stroke="midnightblue" points="106.913,-20.9966 97.8572,-26.4956 108.366,-27.8442 106.913,-20.9966"/>
</g>
<!-- Node2&#45;&gt;Node3 -->
<g id="edge4" class="edge"><title>Node2&#45;&gt;Node3</title>
<path fill="none" stroke="midnightblue" d="M231.759,-62.9933C243.772,-59.3704 256.457,-55.5447 267.96,-52.0756"/>
<polygon fill="midnightblue" stroke="midnightblue" points="230.431,-59.7381 221.867,-65.9766 232.452,-66.44 230.431,-59.7381"/>
</g>
<!-- Node4 -->
<g id="node7" class="node"><title>Node4</title>
<a xlink:href="_c_f_g__config__panel__8_8cpp.html#ad39c46e2fb3a3ba7ea0460140ead4f96" target="_top" xlink:title="do_panel_config">
<polygon fill="white" stroke="black" points="386.5,-28 386.5,-52 473.5,-52 473.5,-28 386.5,-28"/>
<text text-anchor="middle" x="430" y="-39" font-family="Helvetica,sans-Serif" font-size="10.00">do_panel_config</text>
</a>
</g>
<!-- Node3&#45;&gt;Node4 -->
<g id="edge6" class="edge"><title>Node3&#45;&gt;Node4</title>
<path fill="none" stroke="midnightblue" d="M359.875,-40C368.732,-40 377.851,-40 386.464,-40"/>
<polygon fill="midnightblue" stroke="midnightblue" points="359.644,-36.5001 349.644,-40 359.644,-43.5001 359.644,-36.5001"/>
</g>
<!-- Node5 -->
<g id="node9" class="node"><title>Node5</title>
<a xlink:href="_c_f_g__config__panel__8_8cpp.html#a7968da66bccdba8b864caf6c8435f68e" target="_top" xlink:title="config_general_menu">
<polygon fill="white" stroke="black" points="510.5,-28 510.5,-52 619.5,-52 619.5,-28 510.5,-28"/>
<text text-anchor="middle" x="565" y="-39" font-family="Helvetica,sans-Serif" font-size="10.00">config_general_menu</text>
</a>
</g>
<!-- Node4&#45;&gt;Node5 -->
<g id="edge8" class="edge"><title>Node4&#45;&gt;Node5</title>
<path fill="none" stroke="midnightblue" d="M484.072,-40C492.621,-40 501.471,-40 510.04,-40"/>
<polygon fill="midnightblue" stroke="midnightblue" points="483.831,-36.5001 473.831,-40 483.831,-43.5001 483.831,-36.5001"/>
</g>
<!-- Node6 -->
<g id="node11" class="node"><title>Node6</title>
<a xlink:href="graphics__rebuild1_8cpp.html#ac2eae1e03fb72cc734ffbcef566483bf" target="_top" xlink:title="Boxes">
<polygon fill="white" stroke="black" points="656,-28 656,-52 700,-52 700,-28 656,-28"/>
<text text-anchor="middle" x="678" y="-39" font-family="Helvetica,sans-Serif" font-size="10.00">Boxes</text>
</a>
</g>
<!-- Node5&#45;&gt;Node6 -->
<g id="edge10" class="edge"><title>Node5&#45;&gt;Node6</title>
<path fill="none" stroke="midnightblue" d="M629.747,-40C639.112,-40 648.168,-40 655.856,-40"/>
<polygon fill="midnightblue" stroke="midnightblue" points="629.514,-36.5001 619.514,-40 629.514,-43.5001 629.514,-36.5001"/>
</g>
<!-- Node7 -->
<g id="node13" class="node"><title>Node7</title>
<a xlink:href="_m_a_i_n__avec__objets_8cpp.html#ade8d4ba65d55c94f8ee277829d722155" target="_top" xlink:title="main_actions_on_screen">
<polygon fill="white" stroke="black" points="736.5,-28 736.5,-52 861.5,-52 861.5,-28 736.5,-28"/>
<text text-anchor="middle" x="799" y="-39" font-family="Helvetica,sans-Serif" font-size="10.00">main_actions_on_screen</text>
</a>
</g>
<!-- Node6&#45;&gt;Node7 -->
<g id="edge12" class="edge"><title>Node6&#45;&gt;Node7</title>
<path fill="none" stroke="midnightblue" d="M710.244,-40C718.32,-40 727.263,-40 736.271,-40"/>
<polygon fill="midnightblue" stroke="midnightblue" points="710.193,-36.5001 700.193,-40 710.193,-43.5001 710.193,-36.5001"/>
</g>
<!-- Node7&#45;&gt;Node8 -->
<g id="edge14" class="edge"><title>Node7&#45;&gt;Node8</title>
<path fill="none" stroke="midnightblue" d="M871.837,-27.6547C881.336,-26.0448 890.327,-24.5209 897.749,-23.2629"/>
<polygon fill="midnightblue" stroke="midnightblue" points="871.075,-24.2339 861.8,-29.3559 872.245,-31.1355 871.075,-24.2339"/>
</g>
</g>
</svg>
