<?xml version="1.0" encoding="UTF-8" standalone="no"?>
<!DOCTYPE svg PUBLIC "-//W3C//DTD SVG 1.1//EN"
 "http://www.w3.org/Graphics/SVG/1.1/DTD/svg11.dtd">
<!-- Generated by graphviz version 2.26.3 (20100126.1600)
 -->
<!-- Title: do_lfos Pages: 1 -->
<svg width="188pt" height="116pt"
 viewBox="0.00 0.00 188.00 116.00" xmlns="http://www.w3.org/2000/svg" xmlns:xlink="http://www.w3.org/1999/xlink">
<g id="graph1" class="graph" transform="scale(1 1) rotate(0) translate(4 112)">
<title>do_lfos</title>
<polygon fill="white" stroke="white" points="-4,5 -4,-112 185,-112 185,5 -4,5"/>
<!-- Node1 -->
<g id="node1" class="node"><title>Node1</title>
<polygon fill="#bfbfbf" stroke="black" points="0,-42 0,-66 48,-66 48,-42 0,-42"/>
<text text-anchor="middle" x="24" y="-53" font-family="Helvetica,sans-Serif" font-size="10.00">do_lfos</text>
</g>
<!-- Node2 -->
<g id="node3" class="node"><title>Node2</title>
<a xlink:href="_c_o_r_e__6_8cpp.html#a1d69e941ecabe5dd73d0b108627b21d6" target="_top" xlink:title="detect_dock_used">
<polygon fill="white" stroke="black" points="84,-84 84,-108 180,-108 180,-84 84,-84"/>
<text text-anchor="middle" x="132" y="-95" font-family="Helvetica,sans-Serif" font-size="10.00">detect_dock_used</text>
</a>
</g>
<!-- Node1&#45;&gt;Node2 -->
<g id="edge2" class="edge"><title>Node1&#45;&gt;Node2</title>
<path fill="none" stroke="midnightblue" d="M48.2373,-63.4256C60.9914,-68.3855 76.9668,-74.5982 91.5368,-80.2643"/>
<polygon fill="midnightblue" stroke="midnightblue" points="90.2718,-83.5277 100.86,-83.8902 92.809,-77.0036 90.2718,-83.5277"/>
</g>
<!-- Node3 -->
<g id="node5" class="node"><title>Node3</title>
<a xlink:href="dmx__functions__13_8cpp.html#a8450df124a0f6280f71114e9b71de794" target="_top" xlink:title="prepare_lfos">
<polygon fill="white" stroke="black" points="97,-42 97,-66 167,-66 167,-42 97,-42"/>
<text text-anchor="middle" x="132" y="-53" font-family="Helvetica,sans-Serif" font-size="10.00">prepare_lfos</text>
</a>
</g>
<!-- Node1&#45;&gt;Node3 -->
<g id="edge4" class="edge"><title>Node1&#45;&gt;Node3</title>
<path fill="none" stroke="midnightblue" d="M48.2373,-54C59.5241,-54 73.3336,-54 86.4593,-54"/>
<polygon fill="midnightblue" stroke="midnightblue" points="86.7781,-57.5001 96.778,-54 86.778,-50.5001 86.7781,-57.5001"/>
</g>
<!-- Node4 -->
<g id="node7" class="node"><title>Node4</title>
<a xlink:href="faders__core__24_8cpp.html#a23a336624aeacc63bc9729188b3810e3" target="_top" xlink:title="DoLock">
<polygon fill="white" stroke="black" points="107,-0 107,-24 157,-24 157,-0 107,-0"/>
<text text-anchor="middle" x="132" y="-11" font-family="Helvetica,sans-Serif" font-size="10.00">DoLock</text>
</a>
</g>
<!-- Node1&#45;&gt;Node4 -->
<g id="edge6" class="edge"><title>Node1&#45;&gt;Node4</title>
<path fill="none" stroke="midnightblue" d="M48.2373,-44.5744C62.6579,-38.9664 81.1967,-31.7568 97.1659,-25.5466"/>
<polygon fill="midnightblue" stroke="midnightblue" points="98.6657,-28.7188 106.717,-21.8322 96.1285,-22.1947 98.6657,-28.7188"/>
</g>
</g>
</svg>
