<?xml version="1.0" encoding="UTF-8" standalone="no"?>
<!DOCTYPE svg PUBLIC "-//W3C//DTD SVG 1.1//EN"
 "http://www.w3.org/Graphics/SVG/1.1/DTD/svg11.dtd">
<!-- Generated by graphviz version 2.26.3 (20100126.1600)
 -->
<!-- Title: Merger Pages: 1 -->
<svg width="344pt" height="170pt"
 viewBox="0.00 0.00 344.00 170.00" xmlns="http://www.w3.org/2000/svg" xmlns:xlink="http://www.w3.org/1999/xlink">
<g id="graph1" class="graph" transform="scale(1 1) rotate(0) translate(4 166)">
<title>Merger</title>
<polygon fill="white" stroke="white" points="-4,5 -4,-166 341,-166 341,5 -4,5"/>
<!-- Node1 -->
<g id="node1" class="node"><title>Node1</title>
<polygon fill="#bfbfbf" stroke="black" points="0.5,-64 0.5,-88 47.5,-88 47.5,-64 0.5,-64"/>
<text text-anchor="middle" x="24" y="-75" font-family="Helvetica,sans-Serif" font-size="10.00">Merger</text>
</g>
<!-- Node2 -->
<g id="node3" class="node"><title>Node2</title>
<a xlink:href="dmx__functions__13_8cpp.html#a5a367dd976b9e5e110756d25c264fbbc" target="_top" xlink:title="Merger_Sequenciel">
<polygon fill="white" stroke="black" points="88,-138 88,-162 188,-162 188,-138 88,-138"/>
<text text-anchor="middle" x="138" y="-149" font-family="Helvetica,sans-Serif" font-size="10.00">Merger_Sequenciel</text>
</a>
</g>
<!-- Node1&#45;&gt;Node2 -->
<g id="edge2" class="edge"><title>Node1&#45;&gt;Node2</title>
<path fill="none" stroke="midnightblue" d="M35.4016,-88.331C46.7868,-100.063 65.2467,-117.574 84,-129 86.6629,-130.622 89.4728,-132.16 92.3549,-133.609"/>
<polygon fill="midnightblue" stroke="midnightblue" points="91.1689,-136.917 101.715,-137.934 94.1049,-130.562 91.1689,-136.917"/>
</g>
<!-- Node3 -->
<g id="node5" class="node"><title>Node3</title>
<a xlink:href="dmx__functions__13_8cpp.html#ac0e932ae0c7050397aecccdf0a97c882" target="_top" xlink:title="calculs_etats_faders\l_et_contenus">
<polygon fill="white" stroke="black" points="84.5,-80 84.5,-120 191.5,-120 191.5,-80 84.5,-80"/>
<text text-anchor="start" x="92.5" y="-107" font-family="Helvetica,sans-Serif" font-size="10.00">calculs_etats_faders</text>
<text text-anchor="middle" x="138" y="-91" font-family="Helvetica,sans-Serif" font-size="10.00">_et_contenus</text>
</a>
</g>
<!-- Node1&#45;&gt;Node3 -->
<g id="edge4" class="edge"><title>Node1&#45;&gt;Node3</title>
<path fill="none" stroke="midnightblue" d="M47.6209,-80.9728C55.5591,-82.644 64.8308,-84.596 74.3535,-86.6007"/>
<polygon fill="midnightblue" stroke="midnightblue" points="73.8159,-90.0642 84.3225,-88.6995 75.2581,-83.2144 73.8159,-90.0642"/>
</g>
<!-- Node6 -->
<g id="node11" class="node"><title>Node6</title>
<a xlink:href="_m_a_i_n__avec__objets_8cpp.html#acd49ac80e8195ee336da1503fd149313" target="_top" xlink:title="Tmax">
<polygon fill="white" stroke="black" points="261.5,-38 261.5,-62 302.5,-62 302.5,-38 261.5,-38"/>
<text text-anchor="middle" x="282" y="-49" font-family="Helvetica,sans-Serif" font-size="10.00">Tmax</text>
</a>
</g>
<!-- Node1&#45;&gt;Node6 -->
<g id="edge16" class="edge"><title>Node1&#45;&gt;Node6</title>
<path fill="none" stroke="midnightblue" d="M47.8096,-73.6006C94.7254,-68.8726 199.078,-58.3565 251.173,-53.1066"/>
<polygon fill="midnightblue" stroke="midnightblue" points="251.561,-56.5853 261.16,-52.1002 250.859,-49.6206 251.561,-56.5853"/>
</g>
<!-- Node7 -->
<g id="node13" class="node"><title>Node7</title>
<a xlink:href="dmx__functions__13_8cpp.html#afe72c8c1d3c933742658c5d58139f302" target="_top" xlink:title="Merger_Faders">
<polygon fill="white" stroke="black" points="97,-0 97,-24 179,-24 179,-0 97,-0"/>
<text text-anchor="middle" x="138" y="-11" font-family="Helvetica,sans-Serif" font-size="10.00">Merger_Faders</text>
</a>
</g>
<!-- Node1&#45;&gt;Node7 -->
<g id="edge12" class="edge"><title>Node1&#45;&gt;Node7</title>
<path fill="none" stroke="midnightblue" d="M41.7869,-63.9705C53.556,-56.203 69.4455,-46.0772 84,-38 89.7317,-34.8191 95.9127,-31.6292 101.975,-28.6273"/>
<polygon fill="midnightblue" stroke="midnightblue" points="103.852,-31.607 111.321,-24.0933 100.796,-25.309 103.852,-31.607"/>
</g>
<!-- Node4 -->
<g id="node7" class="node"><title>Node4</title>
<a xlink:href="faders__core__24_8cpp.html#a23a336624aeacc63bc9729188b3810e3" target="_top" xlink:title="DoLock">
<polygon fill="white" stroke="black" points="257,-138 257,-162 307,-162 307,-138 257,-138"/>
<text text-anchor="middle" x="282" y="-149" font-family="Helvetica,sans-Serif" font-size="10.00">DoLock</text>
</a>
</g>
<!-- Node3&#45;&gt;Node4 -->
<g id="edge6" class="edge"><title>Node3&#45;&gt;Node4</title>
<path fill="none" stroke="midnightblue" d="M191.62,-118.618C210.162,-125.056 230.446,-132.099 247.092,-137.879"/>
<polygon fill="midnightblue" stroke="midnightblue" points="246.343,-141.324 256.938,-141.298 248.639,-134.711 246.343,-141.324"/>
</g>
<!-- Node5 -->
<g id="node9" class="node"><title>Node5</title>
<a xlink:href="audio__core5_8cpp.html#a7a2fe6aee0064f868114dc5c2d58df9f" target="_top" xlink:title="Control_Audio_thruth\l_faders">
<polygon fill="white" stroke="black" points="228,-80 228,-120 336,-120 336,-80 228,-80"/>
<text text-anchor="start" x="236" y="-107" font-family="Helvetica,sans-Serif" font-size="10.00">Control_Audio_thruth</text>
<text text-anchor="middle" x="282" y="-91" font-family="Helvetica,sans-Serif" font-size="10.00">_faders</text>
</a>
</g>
<!-- Node3&#45;&gt;Node5 -->
<g id="edge8" class="edge"><title>Node3&#45;&gt;Node5</title>
<path fill="none" stroke="midnightblue" d="M191.62,-100C200.126,-100 208.999,-100 217.719,-100"/>
<polygon fill="midnightblue" stroke="midnightblue" points="217.855,-103.5 227.855,-100 217.855,-96.5001 217.855,-103.5"/>
</g>
<!-- Node3&#45;&gt;Node6 -->
<g id="edge10" class="edge"><title>Node3&#45;&gt;Node6</title>
<path fill="none" stroke="midnightblue" d="M191.62,-81.3818C211.941,-74.3261 234.355,-66.5434 251.778,-60.4937"/>
<polygon fill="midnightblue" stroke="midnightblue" points="253.108,-63.737 261.407,-57.1505 250.812,-57.1243 253.108,-63.737"/>
</g>
<!-- Node7&#45;&gt;Node6 -->
<g id="edge14" class="edge"><title>Node7&#45;&gt;Node6</title>
<path fill="none" stroke="midnightblue" d="M179.265,-22.8893C202.262,-28.9581 230.411,-36.3861 251.424,-41.9314"/>
<polygon fill="midnightblue" stroke="midnightblue" points="250.551,-45.3207 261.113,-44.4881 252.337,-38.5524 250.551,-45.3207"/>
</g>
</g>
</svg>
