<?xml version="1.0" encoding="UTF-8" standalone="no"?>
<!DOCTYPE svg PUBLIC "-//W3C//DTD SVG 1.1//EN"
 "http://www.w3.org/Graphics/SVG/1.1/DTD/svg11.dtd">
<!-- Generated by graphviz version 2.26.3 (20100126.1600)
 -->
<!-- Title: dmx_enttec_pro.cpp Pages: 1 -->
<svg width="200pt" height="96pt"
 viewBox="0.00 0.00 200.00 96.00" xmlns="http://www.w3.org/2000/svg" xmlns:xlink="http://www.w3.org/1999/xlink">
<g id="graph1" class="graph" transform="scale(1 1) rotate(0) translate(4 92)">
<title>dmx_enttec_pro.cpp</title>
<polygon fill="white" stroke="white" points="-4,5 -4,-92 197,-92 197,5 -4,5"/>
<!-- Node1 -->
<g id="node1" class="node"><title>Node1</title>
<polygon fill="#bfbfbf" stroke="black" points="49.5,-63 49.5,-87 154.5,-87 154.5,-63 49.5,-63"/>
<text text-anchor="middle" x="102" y="-74" font-family="Helvetica,sans-Serif" font-size="10.00">dmx_enttec_pro.cpp</text>
</g>
<!-- Node2 -->
<g id="node3" class="node"><title>Node2</title>
<polygon fill="white" stroke="#bfbfbf" points="-0.5,-1 -0.5,-25 58.5,-25 58.5,-1 -0.5,-1"/>
<text text-anchor="middle" x="29" y="-12" font-family="Helvetica,sans-Serif" font-size="10.00">process.h</text>
</g>
<!-- Node1&#45;&gt;Node2 -->
<g id="edge2" class="edge"><title>Node1&#45;&gt;Node2</title>
<path fill="none" stroke="midnightblue" d="M87.5775,-62.7508C77.1793,-53.9194 62.9518,-41.8358 51.1224,-31.7889"/>
<polygon fill="midnightblue" stroke="midnightblue" points="53.2802,-29.0295 43.3925,-25.2238 48.7488,-34.3649 53.2802,-29.0295"/>
</g>
<!-- Node3 -->
<g id="node5" class="node"><title>Node3</title>
<polygon fill="white" stroke="#bfbfbf" points="76,-1 76,-25 128,-25 128,-1 76,-1"/>
<text text-anchor="middle" x="102" y="-12" font-family="Helvetica,sans-Serif" font-size="10.00">assert.h</text>
</g>
<!-- Node1&#45;&gt;Node3 -->
<g id="edge4" class="edge"><title>Node1&#45;&gt;Node3</title>
<path fill="none" stroke="midnightblue" d="M102,-62.7508C102,-54.9384 102,-44.581 102,-35.3399"/>
<polygon fill="midnightblue" stroke="midnightblue" points="105.5,-35.2237 102,-25.2238 98.5001,-35.2238 105.5,-35.2237"/>
</g>
<!-- Node4 -->
<g id="node7" class="node"><title>Node4</title>
<polygon fill="white" stroke="#bfbfbf" points="146,-1 146,-25 192,-25 192,-1 146,-1"/>
<text text-anchor="middle" x="169" y="-12" font-family="Helvetica,sans-Serif" font-size="10.00">tchar.h</text>
</g>
<!-- Node1&#45;&gt;Node4 -->
<g id="edge6" class="edge"><title>Node1&#45;&gt;Node4</title>
<path fill="none" stroke="midnightblue" d="M115.237,-62.7508C124.689,-54.0043 137.588,-42.0678 148.382,-32.0793"/>
<polygon fill="midnightblue" stroke="midnightblue" points="150.828,-34.5846 155.79,-25.2238 146.074,-29.4468 150.828,-34.5846"/>
</g>
</g>
</svg>
