<?xml version="1.0" encoding="UTF-8" standalone="no"?>
<!DOCTYPE svg PUBLIC "-//W3C//DTD SVG 1.1//EN"
 "http://www.w3.org/Graphics/SVG/1.1/DTD/svg11.dtd">
<!-- Generated by graphviz version 2.26.3 (20100126.1600)
 -->
<!-- Title: refresh_modified_levels_in_crossfade Pages: 1 -->
<svg width="1024pt" height="60pt"
 viewBox="0.00 0.00 1024.00 60.00" xmlns="http://www.w3.org/2000/svg" xmlns:xlink="http://www.w3.org/1999/xlink">
<g id="graph1" class="graph" transform="scale(1 1) rotate(0) translate(4 56)">
<title>refresh_modified_levels_in_crossfade</title>
<polygon fill="white" stroke="white" points="-4,5 -4,-56 1021,-56 1021,5 -4,5"/>
<!-- Node1 -->
<g id="node1" class="node"><title>Node1</title>
<polygon fill="#bfbfbf" stroke="black" points="0.5,-0 0.5,-40 119.5,-40 119.5,-0 0.5,-0"/>
<text text-anchor="start" x="8.5" y="-27" font-family="Helvetica,sans-Serif" font-size="10.00">refresh_modified_levels</text>
<text text-anchor="middle" x="60" y="-11" font-family="Helvetica,sans-Serif" font-size="10.00">_in_crossfade</text>
</g>
<!-- Node2 -->
<g id="node3" class="node"><title>Node2</title>
<a xlink:href="dmx__functions__13_8cpp.html#af8fd73062784b408e1c53510c7608d74" target="_top" xlink:title="do_crossfade">
<polygon fill="white" stroke="black" points="156.5,-8 156.5,-32 231.5,-32 231.5,-8 156.5,-8"/>
<text text-anchor="middle" x="194" y="-19" font-family="Helvetica,sans-Serif" font-size="10.00">do_crossfade</text>
</a>
</g>
<!-- Node1&#45;&gt;Node2 -->
<g id="edge2" class="edge"><title>Node1&#45;&gt;Node2</title>
<path fill="none" stroke="midnightblue" d="M129.803,-20C138.886,-20 147.9,-20 156.176,-20"/>
<polygon fill="midnightblue" stroke="midnightblue" points="129.555,-16.5001 119.555,-20 129.555,-23.5001 129.555,-16.5001"/>
</g>
<!-- Node3 -->
<g id="node5" class="node"><title>Node3</title>
<a xlink:href="_m_a_i_n__avec__objets_8cpp.html#a6a015280c1363331ada8a329be6eb7c8" target="_top" xlink:title="ticker">
<polygon fill="white" stroke="black" points="268.5,-8 268.5,-32 309.5,-32 309.5,-8 268.5,-8"/>
<text text-anchor="middle" x="289" y="-19" font-family="Helvetica,sans-Serif" font-size="10.00">ticker</text>
</a>
</g>
<!-- Node2&#45;&gt;Node3 -->
<g id="edge4" class="edge"><title>Node2&#45;&gt;Node3</title>
<path fill="none" stroke="midnightblue" d="M241.684,-20C251.087,-20 260.48,-20 268.39,-20"/>
<polygon fill="midnightblue" stroke="midnightblue" points="241.547,-16.5001 231.547,-20 241.546,-23.5001 241.547,-16.5001"/>
</g>
<!-- Node4 -->
<g id="node7" class="node"><title>Node4</title>
<a xlink:href="_c_f_g__config__panel__8_8cpp.html#aff76db94408106be22f658a05f17831a" target="_top" xlink:title="do_core_config">
<polygon fill="white" stroke="black" points="346.5,-28 346.5,-52 429.5,-52 429.5,-28 346.5,-28"/>
<text text-anchor="middle" x="388" y="-39" font-family="Helvetica,sans-Serif" font-size="10.00">do_core_config</text>
</a>
</g>
<!-- Node3&#45;&gt;Node4 -->
<g id="edge6" class="edge"><title>Node3&#45;&gt;Node4</title>
<path fill="none" stroke="midnightblue" d="M319.355,-26.1324C327.855,-27.8494 337.245,-29.7464 346.28,-31.5716"/>
<polygon fill="midnightblue" stroke="midnightblue" points="320.008,-22.6936 309.513,-24.144 318.622,-29.555 320.008,-22.6936"/>
</g>
<!-- Node9 -->
<g id="node17" class="node"><title>Node9</title>
<a xlink:href="_m_a_i_n__avec__objets_8cpp.html#ae66f6b31b5ad750f1fe042a706a4e3d4" target="_top" xlink:title="main">
<polygon fill="white" stroke="black" points="978,-8 978,-32 1016,-32 1016,-8 978,-8"/>
<text text-anchor="middle" x="997" y="-19" font-family="Helvetica,sans-Serif" font-size="10.00">main</text>
</a>
</g>
<!-- Node3&#45;&gt;Node9 -->
<g id="edge18" class="edge"><title>Node3&#45;&gt;Node9</title>
<path fill="none" stroke="midnightblue" d="M319.667,-15.4617C362.267,-9.56085 441.811,-6.55032e-15 510,-0 510,-0 510,-0 758,-0 840.027,-7.10543e-15 937.34,-11.8436 977.838,-17.3027"/>
<polygon fill="midnightblue" stroke="midnightblue" points="319.074,-12.0106 309.662,-16.875 320.054,-18.9418 319.074,-12.0106"/>
</g>
<!-- Node5 -->
<g id="node9" class="node"><title>Node5</title>
<a xlink:href="_c_f_g__config__panel__8_8cpp.html#ad39c46e2fb3a3ba7ea0460140ead4f96" target="_top" xlink:title="do_panel_config">
<polygon fill="white" stroke="black" points="466.5,-28 466.5,-52 553.5,-52 553.5,-28 466.5,-28"/>
<text text-anchor="middle" x="510" y="-39" font-family="Helvetica,sans-Serif" font-size="10.00">do_panel_config</text>
</a>
</g>
<!-- Node4&#45;&gt;Node5 -->
<g id="edge8" class="edge"><title>Node4&#45;&gt;Node5</title>
<path fill="none" stroke="midnightblue" d="M439.875,-40C448.732,-40 457.851,-40 466.464,-40"/>
<polygon fill="midnightblue" stroke="midnightblue" points="439.644,-36.5001 429.644,-40 439.644,-43.5001 439.644,-36.5001"/>
</g>
<!-- Node6 -->
<g id="node11" class="node"><title>Node6</title>
<a xlink:href="_c_f_g__config__panel__8_8cpp.html#a7968da66bccdba8b864caf6c8435f68e" target="_top" xlink:title="config_general_menu">
<polygon fill="white" stroke="black" points="590.5,-28 590.5,-52 699.5,-52 699.5,-28 590.5,-28"/>
<text text-anchor="middle" x="645" y="-39" font-family="Helvetica,sans-Serif" font-size="10.00">config_general_menu</text>
</a>
</g>
<!-- Node5&#45;&gt;Node6 -->
<g id="edge10" class="edge"><title>Node5&#45;&gt;Node6</title>
<path fill="none" stroke="midnightblue" d="M564.072,-40C572.621,-40 581.471,-40 590.04,-40"/>
<polygon fill="midnightblue" stroke="midnightblue" points="563.831,-36.5001 553.831,-40 563.831,-43.5001 563.831,-36.5001"/>
</g>
<!-- Node7 -->
<g id="node13" class="node"><title>Node7</title>
<a xlink:href="graphics__rebuild1_8cpp.html#ac2eae1e03fb72cc734ffbcef566483bf" target="_top" xlink:title="Boxes">
<polygon fill="white" stroke="black" points="736,-28 736,-52 780,-52 780,-28 736,-28"/>
<text text-anchor="middle" x="758" y="-39" font-family="Helvetica,sans-Serif" font-size="10.00">Boxes</text>
</a>
</g>
<!-- Node6&#45;&gt;Node7 -->
<g id="edge12" class="edge"><title>Node6&#45;&gt;Node7</title>
<path fill="none" stroke="midnightblue" d="M709.747,-40C719.112,-40 728.168,-40 735.856,-40"/>
<polygon fill="midnightblue" stroke="midnightblue" points="709.514,-36.5001 699.514,-40 709.514,-43.5001 709.514,-36.5001"/>
</g>
<!-- Node8 -->
<g id="node15" class="node"><title>Node8</title>
<a xlink:href="_m_a_i_n__avec__objets_8cpp.html#ade8d4ba65d55c94f8ee277829d722155" target="_top" xlink:title="main_actions_on_screen">
<polygon fill="white" stroke="black" points="816.5,-28 816.5,-52 941.5,-52 941.5,-28 816.5,-28"/>
<text text-anchor="middle" x="879" y="-39" font-family="Helvetica,sans-Serif" font-size="10.00">main_actions_on_screen</text>
</a>
</g>
<!-- Node7&#45;&gt;Node8 -->
<g id="edge14" class="edge"><title>Node7&#45;&gt;Node8</title>
<path fill="none" stroke="midnightblue" d="M790.244,-40C798.32,-40 807.263,-40 816.271,-40"/>
<polygon fill="midnightblue" stroke="midnightblue" points="790.193,-36.5001 780.193,-40 790.193,-43.5001 790.193,-36.5001"/>
</g>
<!-- Node8&#45;&gt;Node9 -->
<g id="edge16" class="edge"><title>Node8&#45;&gt;Node9</title>
<path fill="none" stroke="midnightblue" d="M951.837,-27.6547C961.336,-26.0448 970.327,-24.5209 977.749,-23.2629"/>
<polygon fill="midnightblue" stroke="midnightblue" points="951.075,-24.2339 941.8,-29.3559 952.245,-31.1355 951.075,-24.2339"/>
</g>
</g>
</svg>
