<?xml version="1.0" encoding="UTF-8" standalone="no"?>
<!DOCTYPE svg PUBLIC "-//W3C//DTD SVG 1.1//EN"
 "http://www.w3.org/Graphics/SVG/1.1/DTD/svg11.dtd">
<!-- Generated by graphviz version 2.26.3 (20100126.1600)
 -->
<!-- Title: Receive_DMX_IN Pages: 1 -->
<svg width="268pt" height="74pt"
 viewBox="0.00 0.00 268.00 74.00" xmlns="http://www.w3.org/2000/svg" xmlns:xlink="http://www.w3.org/1999/xlink">
<g id="graph1" class="graph" transform="scale(1 1) rotate(0) translate(4 70)">
<title>Receive_DMX_IN</title>
<polygon fill="white" stroke="white" points="-4,5 -4,-70 265,-70 265,5 -4,5"/>
<!-- Node1 -->
<g id="node1" class="node"><title>Node1</title>
<polygon fill="#bfbfbf" stroke="black" points="0,-21 0,-45 96,-45 96,-21 0,-21"/>
<text text-anchor="middle" x="48" y="-32" font-family="Helvetica,sans-Serif" font-size="10.00">Receive_DMX_IN</text>
</g>
<!-- Node2 -->
<g id="node3" class="node"><title>Node2</title>
<a xlink:href="dmx__sunlite_8cpp.html#ae0ba86295c375e6e15cf9bd7a94888c0" target="_top" xlink:title="Receive_sunlite_dmxIN">
<polygon fill="white" stroke="black" points="135.5,-42 135.5,-66 256.5,-66 256.5,-42 135.5,-42"/>
<text text-anchor="middle" x="196" y="-53" font-family="Helvetica,sans-Serif" font-size="10.00">Receive_sunlite_dmxIN</text>
</a>
</g>
<!-- Node1&#45;&gt;Node2 -->
<g id="edge2" class="edge"><title>Node1&#45;&gt;Node2</title>
<path fill="none" stroke="midnightblue" d="M96.0514,-39.8181C105.484,-41.1564 115.56,-42.5862 125.549,-44.0036"/>
<polygon fill="midnightblue" stroke="midnightblue" points="125.091,-47.4735 135.483,-45.4132 126.074,-40.543 125.091,-47.4735"/>
</g>
<!-- Node3 -->
<g id="node5" class="node"><title>Node3</title>
<a xlink:href="dmx__enttec__pro_8cpp.html#a29568351e92472b4d93aacdf7a4d6d0a" target="_top" xlink:title="Enttec_Pro_ReceiveData">
<polygon fill="white" stroke="black" points="132,-0 132,-24 260,-24 260,-0 132,-0"/>
<text text-anchor="middle" x="196" y="-11" font-family="Helvetica,sans-Serif" font-size="10.00">Enttec_Pro_ReceiveData</text>
</a>
</g>
<!-- Node1&#45;&gt;Node3 -->
<g id="edge4" class="edge"><title>Node1&#45;&gt;Node3</title>
<path fill="none" stroke="midnightblue" d="M96.0514,-26.1819C104.241,-25.0198 112.917,-23.7889 121.599,-22.5568"/>
<polygon fill="midnightblue" stroke="midnightblue" points="122.358,-25.9844 131.767,-21.1142 121.374,-19.0538 122.358,-25.9844"/>
</g>
</g>
</svg>
