<?xml version="1.0" encoding="UTF-8" standalone="no"?>
<!DOCTYPE svg PUBLIC "-//W3C//DTD SVG 1.1//EN"
 "http://www.w3.org/Graphics/SVG/1.1/DTD/svg11.dtd">
<!-- Generated by graphviz version 2.26.3 (20100126.1600)
 -->
<!-- Title: do_logical_Echo_Aera Pages: 1 -->
<svg width="632pt" height="48pt"
 viewBox="0.00 0.00 632.00 48.00" xmlns="http://www.w3.org/2000/svg" xmlns:xlink="http://www.w3.org/1999/xlink">
<g id="graph1" class="graph" transform="scale(1 1) rotate(0) translate(4 44)">
<title>do_logical_Echo_Aera</title>
<polygon fill="white" stroke="white" points="-4,5 -4,-44 629,-44 629,5 -4,5"/>
<!-- Node1 -->
<g id="node1" class="node"><title>Node1</title>
<polygon fill="#bfbfbf" stroke="black" points="0.5,-8 0.5,-32 113.5,-32 113.5,-8 0.5,-8"/>
<text text-anchor="middle" x="57" y="-19" font-family="Helvetica,sans-Serif" font-size="10.00">do_logical_Echo_Aera</text>
</g>
<!-- Node2 -->
<g id="node3" class="node"><title>Node2</title>
<a xlink:href="echo3_8cpp.html#a440d7e78e4b39340e539bef8b9d7e2e1" target="_top" xlink:title="do_logical_echo_window">
<polygon fill="white" stroke="black" points="150.5,-8 150.5,-32 275.5,-32 275.5,-8 150.5,-8"/>
<text text-anchor="middle" x="213" y="-19" font-family="Helvetica,sans-Serif" font-size="10.00">do_logical_echo_window</text>
</a>
</g>
<!-- Node1&#45;&gt;Node2 -->
<g id="edge2" class="edge"><title>Node1&#45;&gt;Node2</title>
<path fill="none" stroke="midnightblue" d="M123.974,-20C132.772,-20 141.762,-20 150.482,-20"/>
<polygon fill="midnightblue" stroke="midnightblue" points="123.761,-16.5001 113.761,-20 123.761,-23.5001 123.761,-16.5001"/>
</g>
<!-- Node3 -->
<g id="node5" class="node"><title>Node3</title>
<a xlink:href="procs__visuels__rebuild1_8cpp.html#ae710b6e599e321ad5934a90140067054" target="_top" xlink:title="check_graphics_mouse\l_handling">
<polygon fill="white" stroke="black" points="312.5,-0 312.5,-40 431.5,-40 431.5,-0 312.5,-0"/>
<text text-anchor="start" x="320.5" y="-27" font-family="Helvetica,sans-Serif" font-size="10.00">check_graphics_mouse</text>
<text text-anchor="middle" x="372" y="-11" font-family="Helvetica,sans-Serif" font-size="10.00">_handling</text>
</a>
</g>
<!-- Node2&#45;&gt;Node3 -->
<g id="edge4" class="edge"><title>Node2&#45;&gt;Node3</title>
<path fill="none" stroke="midnightblue" d="M286.122,-20C294.944,-20 303.871,-20 312.466,-20"/>
<polygon fill="midnightblue" stroke="midnightblue" points="285.841,-16.5001 275.841,-20 285.841,-23.5001 285.841,-16.5001"/>
</g>
<!-- Node4 -->
<g id="node7" class="node"><title>Node4</title>
<a xlink:href="_m_a_i_n__avec__objets_8cpp.html#a8e80f54ac804eddce8ed6e45adb1db44" target="_top" xlink:title="ticker_full_loop">
<polygon fill="white" stroke="black" points="468,-8 468,-32 550,-32 550,-8 468,-8"/>
<text text-anchor="middle" x="509" y="-19" font-family="Helvetica,sans-Serif" font-size="10.00">ticker_full_loop</text>
</a>
</g>
<!-- Node3&#45;&gt;Node4 -->
<g id="edge6" class="edge"><title>Node3&#45;&gt;Node4</title>
<path fill="none" stroke="midnightblue" d="M441.967,-20C450.737,-20 459.475,-20 467.605,-20"/>
<polygon fill="midnightblue" stroke="midnightblue" points="441.692,-16.5001 431.692,-20 441.692,-23.5001 441.692,-16.5001"/>
</g>
<!-- Node5 -->
<g id="node9" class="node"><title>Node5</title>
<a xlink:href="_m_a_i_n__avec__objets_8cpp.html#ae66f6b31b5ad750f1fe042a706a4e3d4" target="_top" xlink:title="main">
<polygon fill="white" stroke="black" points="586,-8 586,-32 624,-32 624,-8 586,-8"/>
<text text-anchor="middle" x="605" y="-19" font-family="Helvetica,sans-Serif" font-size="10.00">main</text>
</a>
</g>
<!-- Node4&#45;&gt;Node5 -->
<g id="edge8" class="edge"><title>Node4&#45;&gt;Node5</title>
<path fill="none" stroke="midnightblue" d="M560.509,-20C569.577,-20 578.476,-20 585.904,-20"/>
<polygon fill="midnightblue" stroke="midnightblue" points="560.27,-16.5001 550.27,-20 560.27,-23.5001 560.27,-16.5001"/>
</g>
</g>
</svg>
