<?xml version="1.0" encoding="UTF-8" standalone="no"?>
<!DOCTYPE svg PUBLIC "-//W3C//DTD SVG 1.1//EN"
 "http://www.w3.org/Graphics/SVG/1.1/DTD/svg11.dtd">
<!-- Generated by graphviz version 2.26.3 (20100126.1600)
 -->
<!-- Title: do_logical_echo_window Pages: 1 -->
<!--zoomable 616 -->
<svg id="main" version="1.1" xmlns="http://www.w3.org/2000/svg" xmlns:xlink="http://www.w3.org/1999/xlink" xml:space="preserve" onload="init(evt)">
<style type="text/css"><![CDATA[
.edge:hover path { stroke: red; }
.edge:hover polygon { stroke: red; fill: red; }
]]></style>
<script type="text/javascript"><![CDATA[
var edges = document.getElementsByTagName('g');
if (edges && edges.length) {
  for (var i=0;i<edges.length;i++) {
    if (edges[i].id.substr(0,4)=='edge') {
      edges[i].setAttribute('class','edge');
    }
  }
}
]]></script>
        <defs>
                <circle id="rim" cx="0" cy="0" r="7"/>
                <circle id="rim2" cx="0" cy="0" r="3.5"/>
                <g id="zoomPlus">
                        <use xlink:href="#rim" fill="#404040">
                                <set attributeName="fill" to="#808080" begin="zoomplus.mouseover" end="zoomplus.mouseout"/>
                        </use>
                        <path d="M-4,0h8M0,-4v8" fill="none" stroke="white" stroke-width="1.5" pointer-events="none"/>
                </g>
                <g id="zoomMin">
                        <use xlink:href="#rim" fill="#404040">
                                <set attributeName="fill" to="#808080" begin="zoomminus.mouseover" end="zoomminus.mouseout"/>
                        </use>
                        <path d="M-4,0h8" fill="none" stroke="white" stroke-width="1.5" pointer-events="none"/>
                </g>
                <g id="dirArrow">
                        <path fill="none" stroke="white" stroke-width="1.5" d="M0,-3.0v7 M-2.5,-0.5L0,-3.0L2.5,-0.5"/>
                </g>
               <g id="resetDef">
                       <use xlink:href="#rim2" fill="#404040">
                               <set attributeName="fill" to="#808080" begin="reset.mouseover" end="reset.mouseout"/>
                       </use>
               </g>
        </defs>

<script type="text/javascript">
var viewWidth = 736;
var viewHeight = 616;
var sectionId = 'dynsection-7';
</script>
<script xlink:href="svgpan.js"/>
<svg id="graph" class="graph">
<g id="viewport">
<title>do_logical_echo_window</title>
<polygon fill="white" stroke="white" points="-4,5 -4,-612 733,-612 733,5 -4,5"/>
<!-- Node1 -->
<g id="node1" class="node"><title>Node1</title>
<polygon fill="#bfbfbf" stroke="black" points="0.5,-286 0.5,-310 125.5,-310 125.5,-286 0.5,-286"/>
<text text-anchor="middle" x="63" y="-297" font-family="Helvetica,sans-Serif" font-size="10.00">do_logical_echo_window</text>
</g>
<!-- Node2 -->
<g id="node3" class="node"><title>Node2</title>
<a xlink:href="_c_o_r_e__6_8cpp.html#a9574e0b790211959c7398e42468410d8" target="_top" xlink:title="toggle">
<polygon fill="white" stroke="black" points="206.5,-584 206.5,-608 249.5,-608 249.5,-584 206.5,-584"/>
<text text-anchor="middle" x="228" y="-595" font-family="Helvetica,sans-Serif" font-size="10.00">toggle</text>
</a>
</g>
<!-- Node1&#45;&gt;Node2 -->
<g id="edge2" class="edge"><title>Node1&#45;&gt;Node2</title>
<path fill="none" stroke="midnightblue" d="M63.9482,-310.152C67.8513,-352.062 86.2585,-492.247 162,-570 171.265,-579.511 184.432,-585.622 196.571,-589.511"/>
<polygon fill="midnightblue" stroke="midnightblue" points="195.844,-592.942 206.418,-592.28 197.739,-586.203 195.844,-592.942"/>
</g>
<!-- Node3 -->
<g id="node5" class="node"><title>Node3</title>
<a xlink:href="_c_o_r_e__6_8cpp.html#a1dbe2a93b1ce714d4d4bebfddbb276cd" target="_top" xlink:title="attribute_midi_to_control">
<polygon fill="white" stroke="black" points="331.5,-565 331.5,-589 454.5,-589 454.5,-565 331.5,-565"/>
<text text-anchor="middle" x="393" y="-576" font-family="Helvetica,sans-Serif" font-size="10.00">attribute_midi_to_control</text>
</a>
</g>
<!-- Node1&#45;&gt;Node3 -->
<g id="edge4" class="edge"><title>Node1&#45;&gt;Node3</title>
<path fill="none" stroke="midnightblue" d="M64.2604,-310.238C68.9708,-349.283 89.2004,-471.793 162,-531 186.104,-550.603 262.985,-563.142 321.494,-570.096"/>
<polygon fill="midnightblue" stroke="midnightblue" points="321.114,-573.575 331.45,-571.247 321.918,-566.622 321.114,-573.575"/>
</g>
<!-- Node5 -->
<g id="node9" class="node"><title>Node5</title>
<a xlink:href="_c_o_r_e__6_8cpp.html#a5615f7c8a54ba9a586dd910ec1ae5e43" target="_top" xlink:title="constrain_int_data\l_to_this_range">
<polygon fill="white" stroke="black" points="180,-370 180,-410 276,-410 276,-370 180,-370"/>
<text text-anchor="start" x="188" y="-397" font-family="Helvetica,sans-Serif" font-size="10.00">constrain_int_data</text>
<text text-anchor="middle" x="228" y="-381" font-family="Helvetica,sans-Serif" font-size="10.00">_to_this_range</text>
</a>
</g>
<!-- Node1&#45;&gt;Node5 -->
<g id="edge8" class="edge"><title>Node1&#45;&gt;Node5</title>
<path fill="none" stroke="midnightblue" d="M80.394,-310.221C99.7916,-323.574 132.346,-345.169 162,-361 164.871,-362.532 167.839,-364.053 170.855,-365.548"/>
<polygon fill="midnightblue" stroke="midnightblue" points="169.471,-368.766 180,-369.942 172.503,-362.456 169.471,-368.766"/>
</g>
<!-- Node6 -->
<g id="node11" class="node"><title>Node6</title>
<a xlink:href="_c_o_r_e__6_8cpp.html#a852678868d2a66db68f4a2c9eacfcc78" target="_top" xlink:title="reset_numeric_entry">
<polygon fill="white" stroke="black" points="175.5,-328 175.5,-352 280.5,-352 280.5,-328 175.5,-328"/>
<text text-anchor="middle" x="228" y="-339" font-family="Helvetica,sans-Serif" font-size="10.00">reset_numeric_entry</text>
</a>
</g>
<!-- Node1&#45;&gt;Node6 -->
<g id="edge10" class="edge"><title>Node1&#45;&gt;Node6</title>
<path fill="none" stroke="midnightblue" d="M110.282,-310.036C129.182,-314.846 151.118,-320.43 170.896,-325.464"/>
<polygon fill="midnightblue" stroke="midnightblue" points="170.156,-328.888 180.711,-327.963 171.883,-322.104 170.156,-328.888"/>
</g>
<!-- Node7 -->
<g id="node13" class="node"><title>Node7</title>
<a xlink:href="_c_o_r_e__6_8cpp.html#ad7187a2df52460607db81f8bf0500953" target="_top" xlink:title="attribute_midi_solo\l_affectation">
<polygon fill="white" stroke="black" points="344,-507 344,-547 442,-547 442,-507 344,-507"/>
<text text-anchor="start" x="352" y="-534" font-family="Helvetica,sans-Serif" font-size="10.00">attribute_midi_solo</text>
<text text-anchor="middle" x="393" y="-518" font-family="Helvetica,sans-Serif" font-size="10.00">_affectation</text>
</a>
</g>
<!-- Node1&#45;&gt;Node7 -->
<g id="edge12" class="edge"><title>Node1&#45;&gt;Node7</title>
<path fill="none" stroke="midnightblue" d="M64.8956,-310.047C71.2089,-345.761 95.051,-451.519 162,-499 211.787,-534.31 283.271,-537.693 333.498,-534.537"/>
<polygon fill="midnightblue" stroke="midnightblue" points="333.845,-538.021 343.562,-533.799 333.333,-531.039 333.845,-538.021"/>
</g>
<!-- Node8 -->
<g id="node16" class="node"><title>Node8</title>
<a xlink:href="_c_o_r_e__6_8cpp.html#ae46ccc9515b4dfbae80f22ad0d12d970" target="_top" xlink:title="snap_fader_state">
<polygon fill="white" stroke="black" points="347,-248 347,-272 439,-272 439,-248 347,-248"/>
<text text-anchor="middle" x="393" y="-259" font-family="Helvetica,sans-Serif" font-size="10.00">snap_fader_state</text>
</a>
</g>
<!-- Node1&#45;&gt;Node8 -->
<g id="edge16" class="edge"><title>Node1&#45;&gt;Node8</title>
<path fill="none" stroke="midnightblue" d="M113.129,-285.989C128.71,-282.628 145.997,-279.275 162,-277 221.221,-268.58 289.612,-264.205 336.522,-262.017"/>
<polygon fill="midnightblue" stroke="midnightblue" points="336.95,-265.502 346.783,-261.558 336.637,-258.509 336.95,-265.502"/>
</g>
<!-- Node11 -->
<g id="node23" class="node"><title>Node11</title>
<a xlink:href="_c_o_r_e__6_8cpp.html#a4b0f1aba504cdfe03c231a0d30b67f67" target="_top" xlink:title="bounce">
<polygon fill="white" stroke="black" points="369,-205 369,-229 417,-229 417,-205 369,-205"/>
<text text-anchor="middle" x="393" y="-216" font-family="Helvetica,sans-Serif" font-size="10.00">bounce</text>
</a>
</g>
<!-- Node1&#45;&gt;Node11 -->
<g id="edge24" class="edge"><title>Node1&#45;&gt;Node11</title>
<path fill="none" stroke="midnightblue" d="M90.2811,-285.979C109.913,-277.714 137.196,-267.006 162,-260 230.652,-240.61 313.305,-227.645 358.794,-221.376"/>
<polygon fill="midnightblue" stroke="midnightblue" points="359.283,-224.842 368.724,-220.033 358.345,-217.905 359.283,-224.842"/>
</g>
<!-- Node12 -->
<g id="node26" class="node"><title>Node12</title>
<a xlink:href="_c_o_r_e__6_8cpp.html#ace96027c239724d93e5b27365ce0eea9" target="_top" xlink:title="snap_kill_and_bounce">
<polygon fill="white" stroke="black" points="171.5,-286 171.5,-310 284.5,-310 284.5,-286 171.5,-286"/>
<text text-anchor="middle" x="228" y="-297" font-family="Helvetica,sans-Serif" font-size="10.00">snap_kill_and_bounce</text>
</a>
</g>
<!-- Node1&#45;&gt;Node12 -->
<g id="edge28" class="edge"><title>Node1&#45;&gt;Node12</title>
<path fill="none" stroke="midnightblue" d="M125.85,-298C137.402,-298 149.5,-298 161.164,-298"/>
<polygon fill="midnightblue" stroke="midnightblue" points="161.278,-301.5 171.278,-298 161.278,-294.5 161.278,-301.5"/>
</g>
<!-- Node13 -->
<g id="node30" class="node"><title>Node13</title>
<a xlink:href="_c_o_r_e__6_8cpp.html#a92972cb220bff54c3b0678a13710da1c" target="_top" xlink:title="recall_fader_state_echo">
<polygon fill="white" stroke="black" points="168,-168 168,-192 288,-192 288,-168 168,-168"/>
<text text-anchor="middle" x="228" y="-179" font-family="Helvetica,sans-Serif" font-size="10.00">recall_fader_state_echo</text>
</a>
</g>
<!-- Node1&#45;&gt;Node13 -->
<g id="edge34" class="edge"><title>Node1&#45;&gt;Node13</title>
<path fill="none" stroke="midnightblue" d="M73.4191,-285.721C90.3074,-266.468 125.468,-229.006 162,-206 167.811,-202.34 174.223,-199.041 180.697,-196.119"/>
<polygon fill="midnightblue" stroke="midnightblue" points="182.321,-199.232 190.165,-192.11 179.592,-192.787 182.321,-199.232"/>
</g>
<!-- Node14 -->
<g id="node32" class="node"><title>Node14</title>
<a xlink:href="_c_o_r_e__6_8cpp.html#a934d136a7c8a752109bc4b160717ee36" target="_top" xlink:title="reset_index_actions">
<polygon fill="white" stroke="black" points="176,-126 176,-150 280,-150 280,-126 176,-126"/>
<text text-anchor="middle" x="228" y="-137" font-family="Helvetica,sans-Serif" font-size="10.00">reset_index_actions</text>
</a>
</g>
<!-- Node1&#45;&gt;Node14 -->
<g id="edge36" class="edge"><title>Node1&#45;&gt;Node14</title>
<path fill="none" stroke="midnightblue" d="M68.266,-285.967C80.6279,-259.111 114.12,-193.908 162,-159 164.125,-157.45 166.369,-156.012 168.696,-154.678"/>
<polygon fill="midnightblue" stroke="midnightblue" points="170.624,-157.628 178.007,-150.029 167.496,-151.365 170.624,-157.628"/>
</g>
<!-- Node15 -->
<g id="node34" class="node"><title>Node15</title>
<a xlink:href="_c_o_r_e__6_8cpp.html#afb9b54a7bc4ccbba5ddcdc2097550188" target="_top" xlink:title="reset_indexs_confirmation">
<polygon fill="white" stroke="black" points="162.5,-84 162.5,-108 293.5,-108 293.5,-84 162.5,-84"/>
<text text-anchor="middle" x="228" y="-95" font-family="Helvetica,sans-Serif" font-size="10.00">reset_indexs_confirmation</text>
</a>
</g>
<!-- Node1&#45;&gt;Node15 -->
<g id="edge38" class="edge"><title>Node1&#45;&gt;Node15</title>
<path fill="none" stroke="midnightblue" d="M66.2035,-285.827C75.3669,-253.39 104.78,-164.146 162,-117 163.734,-115.571 165.567,-114.239 167.475,-112.997"/>
<polygon fill="midnightblue" stroke="midnightblue" points="169.214,-116.035 176.245,-108.109 165.806,-109.92 169.214,-116.035"/>
</g>
<!-- Node16 -->
<g id="node36" class="node"><title>Node16</title>
<a xlink:href="_c_o_r_e__6_8cpp.html#a97b36de7f5074b4fd47b66be07e6061d" target="_top" xlink:title="clear_echo_levels">
<polygon fill="white" stroke="black" points="180.5,-42 180.5,-66 275.5,-66 275.5,-42 180.5,-42"/>
<text text-anchor="middle" x="228" y="-53" font-family="Helvetica,sans-Serif" font-size="10.00">clear_echo_levels</text>
</a>
</g>
<!-- Node1&#45;&gt;Node16 -->
<g id="edge40" class="edge"><title>Node1&#45;&gt;Node16</title>
<path fill="none" stroke="midnightblue" d="M64.8407,-285.812C71.1145,-248.529 95.1137,-134.92 162,-75 164.807,-72.4852 167.916,-70.2714 171.211,-68.3226"/>
<polygon fill="midnightblue" stroke="midnightblue" points="172.927,-71.3776 180.288,-63.7581 169.782,-65.1238 172.927,-71.3776"/>
</g>
<!-- Node17 -->
<g id="node38" class="node"><title>Node17</title>
<a xlink:href="_c_o_r_e__6_8cpp.html#a124c49947ef1a65abaefad3f880f99f9" target="_top" xlink:title="clear_ground_levels">
<polygon fill="white" stroke="black" points="176.5,-0 176.5,-24 279.5,-24 279.5,-0 176.5,-0"/>
<text text-anchor="middle" x="228" y="-11" font-family="Helvetica,sans-Serif" font-size="10.00">clear_ground_levels</text>
</a>
</g>
<!-- Node1&#45;&gt;Node17 -->
<g id="edge42" class="edge"><title>Node1&#45;&gt;Node17</title>
<path fill="none" stroke="midnightblue" d="M63.8674,-285.969C67.5065,-244.512 85.1553,-106.134 162,-33 163.698,-31.3835 165.521,-29.8915 167.439,-28.5143"/>
<polygon fill="midnightblue" stroke="midnightblue" points="169.579,-31.3131 176.371,-23.1817 165.991,-25.3028 169.579,-31.3131"/>
</g>
<!-- Node18 -->
<g id="node40" class="node"><title>Node18</title>
<a xlink:href="_c_o_r_e__6_8cpp.html#ab5d29b9ad8d00204a0d8d4ed77e7caec" target="_top" xlink:title="constrain_data_to_midi\l_range">
<polygon fill="white" stroke="black" points="334.5,-391 334.5,-431 451.5,-431 451.5,-391 334.5,-391"/>
<text text-anchor="start" x="342.5" y="-418" font-family="Helvetica,sans-Serif" font-size="10.00">constrain_data_to_midi</text>
<text text-anchor="middle" x="393" y="-402" font-family="Helvetica,sans-Serif" font-size="10.00">_range</text>
</a>
</g>
<!-- Node1&#45;&gt;Node18 -->
<g id="edge44" class="edge"><title>Node1&#45;&gt;Node18</title>
<path fill="none" stroke="midnightblue" d="M68.464,-310.275C80.7718,-336.189 113.435,-395.986 162,-419 212.613,-442.984 276.701,-438.438 324.527,-429.342"/>
<polygon fill="midnightblue" stroke="midnightblue" points="325.361,-432.744 334.475,-427.34 323.981,-425.881 325.361,-432.744"/>
</g>
<!-- Node19 -->
<g id="node42" class="node"><title>Node19</title>
<a xlink:href="echo3_8cpp.html#ab232f374279854445118919ce3fff8a8" target="_top" xlink:title="do_logical_Echo_Aera">
<polygon fill="white" stroke="black" points="171.5,-466 171.5,-490 284.5,-490 284.5,-466 171.5,-466"/>
<text text-anchor="middle" x="228" y="-477" font-family="Helvetica,sans-Serif" font-size="10.00">do_logical_Echo_Aera</text>
</a>
</g>
<!-- Node1&#45;&gt;Node19 -->
<g id="edge46" class="edge"><title>Node1&#45;&gt;Node19</title>
<path fill="none" stroke="midnightblue" d="M67.7325,-310.228C79.4253,-338.93 112.375,-411.262 162,-452 166.343,-455.565 171.234,-458.685 176.341,-461.406"/>
<polygon fill="midnightblue" stroke="midnightblue" points="175.161,-464.722 185.692,-465.882 178.183,-458.407 175.161,-464.722"/>
</g>
<!-- Node4 -->
<g id="node7" class="node"><title>Node4</title>
<a xlink:href="_c_o_r_e__6_8cpp.html#aa6f6d52757e4af2364c17c3e9dee8095" target="_top" xlink:title="search_and_desaffect\l_previous_midi_signal">
<polygon fill="white" stroke="black" points="492.5,-532 492.5,-572 605.5,-572 605.5,-532 492.5,-532"/>
<text text-anchor="start" x="500.5" y="-559" font-family="Helvetica,sans-Serif" font-size="10.00">search_and_desaffect</text>
<text text-anchor="middle" x="549" y="-543" font-family="Helvetica,sans-Serif" font-size="10.00">_previous_midi_signal</text>
</a>
</g>
<!-- Node3&#45;&gt;Node4 -->
<g id="edge6" class="edge"><title>Node3&#45;&gt;Node4</title>
<path fill="none" stroke="midnightblue" d="M454.655,-567.119C463.787,-565.656 473.231,-564.142 482.457,-562.664"/>
<polygon fill="midnightblue" stroke="midnightblue" points="483.036,-566.116 492.356,-561.077 481.929,-559.204 483.036,-566.116"/>
</g>
<!-- Node7&#45;&gt;Node4 -->
<g id="edge14" class="edge"><title>Node7&#45;&gt;Node4</title>
<path fill="none" stroke="midnightblue" d="M442.359,-534.91C455.021,-536.939 468.852,-539.156 482.232,-541.3"/>
<polygon fill="midnightblue" stroke="midnightblue" points="481.922,-544.795 492.35,-542.921 483.029,-537.883 481.922,-544.795"/>
</g>
<!-- Node9 -->
<g id="node18" class="node"><title>Node9</title>
<a xlink:href="_c_o_r_e__6_8cpp.html#acb60b88f155e303f382267840df74671" target="_top" xlink:title="recall_channel_state\l_in_an_echo">
<polygon fill="white" stroke="black" points="496,-196 496,-236 602,-236 602,-196 496,-196"/>
<text text-anchor="start" x="504" y="-223" font-family="Helvetica,sans-Serif" font-size="10.00">recall_channel_state</text>
<text text-anchor="middle" x="549" y="-207" font-family="Helvetica,sans-Serif" font-size="10.00">_in_an_echo</text>
</a>
</g>
<!-- Node8&#45;&gt;Node9 -->
<g id="edge18" class="edge"><title>Node8&#45;&gt;Node9</title>
<path fill="none" stroke="midnightblue" d="M435.628,-247.977C451.163,-243.595 469.072,-238.544 486.002,-233.769"/>
<polygon fill="midnightblue" stroke="midnightblue" points="487.157,-237.079 495.832,-230.996 485.257,-230.342 487.157,-237.079"/>
</g>
<!-- Node10 -->
<g id="node20" class="node"><title>Node10</title>
<a xlink:href="_c_o_r_e__6_8cpp.html#a02c0482cf9631910ebc1d59614215ecd" target="_top" xlink:title="prepare_bounce">
<polygon fill="white" stroke="black" points="642,-252 642,-276 728,-276 728,-252 642,-252"/>
<text text-anchor="middle" x="685" y="-263" font-family="Helvetica,sans-Serif" font-size="10.00">prepare_bounce</text>
</a>
</g>
<!-- Node8&#45;&gt;Node10 -->
<g id="edge22" class="edge"><title>Node8&#45;&gt;Node10</title>
<path fill="none" stroke="midnightblue" d="M439.268,-260.634C491.541,-261.35 576.484,-262.513 631.547,-263.268"/>
<polygon fill="midnightblue" stroke="midnightblue" points="631.757,-266.771 641.804,-263.408 631.853,-259.772 631.757,-266.771"/>
</g>
<!-- Node9&#45;&gt;Node10 -->
<g id="edge20" class="edge"><title>Node9&#45;&gt;Node10</title>
<path fill="none" stroke="midnightblue" d="M602.36,-234.833C615.279,-239.392 628.937,-244.213 641.348,-248.594"/>
<polygon fill="midnightblue" stroke="midnightblue" points="640.402,-251.971 650.997,-251.999 642.732,-245.37 640.402,-251.971"/>
</g>
<!-- Node11&#45;&gt;Node9 -->
<g id="edge26" class="edge"><title>Node11&#45;&gt;Node9</title>
<path fill="none" stroke="midnightblue" d="M417.033,-216.846C435.355,-216.728 461.469,-216.561 485.639,-216.406"/>
<polygon fill="midnightblue" stroke="midnightblue" points="485.872,-219.905 495.85,-216.341 485.827,-212.905 485.872,-219.905"/>
</g>
<!-- Node12&#45;&gt;Node8 -->
<g id="edge30" class="edge"><title>Node12&#45;&gt;Node8</title>
<path fill="none" stroke="midnightblue" d="M280.207,-285.977C298.29,-281.812 318.628,-277.128 337.004,-272.896"/>
<polygon fill="midnightblue" stroke="midnightblue" points="338.024,-276.253 346.983,-270.598 336.453,-269.431 338.024,-276.253"/>
</g>
<!-- Node12&#45;&gt;Node10 -->
<g id="edge32" class="edge"><title>Node12&#45;&gt;Node10</title>
<path fill="none" stroke="midnightblue" d="M284.808,-296.334C358.882,-293.786 492.406,-287.907 606,-276 614.33,-275.127 623.125,-273.998 631.702,-272.783"/>
<polygon fill="midnightblue" stroke="midnightblue" points="632.244,-276.241 641.63,-271.327 631.228,-269.315 632.244,-276.241"/>
</g>
<!-- Node19&#45;&gt;Node7 -->
<g id="edge52" class="edge"><title>Node19&#45;&gt;Node7</title>
<path fill="none" stroke="midnightblue" d="M268.787,-490.112C288.483,-495.962 312.484,-503.089 334.118,-509.514"/>
<polygon fill="midnightblue" stroke="midnightblue" points="333.285,-512.918 343.868,-512.409 335.278,-506.207 333.285,-512.918"/>
</g>
<!-- Node19&#45;&gt;Node18 -->
<g id="edge48" class="edge"><title>Node19&#45;&gt;Node18</title>
<path fill="none" stroke="midnightblue" d="M258.935,-465.942C270.013,-461.59 282.581,-456.613 294,-452 307.524,-446.536 322.051,-440.573 335.697,-434.93"/>
<polygon fill="midnightblue" stroke="midnightblue" points="337.082,-438.144 344.98,-431.083 334.402,-431.677 337.082,-438.144"/>
</g>
<!-- Node20 -->
<g id="node45" class="node"><title>Node20</title>
<a xlink:href="_c_o_r_e__6_8cpp.html#abbe1dbb26f5bf5fd7c9411e15817ca37" target="_top" xlink:title="record_channel_ch_state\l_in_an_echo">
<polygon fill="white" stroke="black" points="330.5,-449 330.5,-489 455.5,-489 455.5,-449 330.5,-449"/>
<text text-anchor="start" x="338.5" y="-476" font-family="Helvetica,sans-Serif" font-size="10.00">record_channel_ch_state</text>
<text text-anchor="middle" x="393" y="-460" font-family="Helvetica,sans-Serif" font-size="10.00">_in_an_echo</text>
</a>
</g>
<!-- Node19&#45;&gt;Node20 -->
<g id="edge50" class="edge"><title>Node19&#45;&gt;Node20</title>
<path fill="none" stroke="midnightblue" d="M284.784,-474.903C296.175,-474.281 308.294,-473.62 320.144,-472.974"/>
<polygon fill="midnightblue" stroke="midnightblue" points="320.668,-476.451 330.463,-472.411 320.287,-469.461 320.668,-476.451"/>
</g>
</g>
</svg>
        <g id="navigator" transform="translate(0 0)" fill="#404254">
                <rect fill="#f2f5e9" fill-opacity="0.5" stroke="#606060" stroke-width=".5" x="0" y="0" width="60" height="60"/>
                <use id="zoomplus" xlink:href="#zoomPlus" x="17" y="9" onmousedown="handleZoom(evt,'in')"/>
                <use id="zoomminus" xlink:href="#zoomMin" x="42" y="9" onmousedown="handleZoom(evt,'out')"/>
                <use id="reset" xlink:href="#resetDef" x="30" y="36" onmousedown="handleReset()"/>
                <g id="arrowUp" xlink:href="#dirArrow" transform="translate(30 24)" onmousedown="handlePan(0,-1)">
                  <use xlink:href="#rim" fill="#404040">
                        <set attributeName="fill" to="#808080" begin="arrowUp.mouseover" end="arrowUp.mouseout"/>
                  </use>
                  <path fill="none" stroke="white" stroke-width="1.5" d="M0,-3.0v7 M-2.5,-0.5L0,-3.0L2.5,-0.5"/>
                </g>
                <g id="arrowRight" xlink:href="#dirArrow" transform="rotate(90) translate(36 -43)" onmousedown="handlePan(1,0)">
                  <use xlink:href="#rim" fill="#404040">
                        <set attributeName="fill" to="#808080" begin="arrowRight.mouseover" end="arrowRight.mouseout"/>
                  </use>
                  <path fill="none" stroke="white" stroke-width="1.5" d="M0,-3.0v7 M-2.5,-0.5L0,-3.0L2.5,-0.5"/>
                </g>
                <g id="arrowDown" xlink:href="#dirArrow" transform="rotate(180) translate(-30 -48)" onmousedown="handlePan(0,1)">
                  <use xlink:href="#rim" fill="#404040">
                        <set attributeName="fill" to="#808080" begin="arrowDown.mouseover" end="arrowDown.mouseout"/>
                  </use>
                  <path fill="none" stroke="white" stroke-width="1.5" d="M0,-3.0v7 M-2.5,-0.5L0,-3.0L2.5,-0.5"/>
                </g>
                <g id="arrowLeft" xlink:href="#dirArrow" transform="rotate(270) translate(-36 17)" onmousedown="handlePan(-1,0)">
                  <use xlink:href="#rim" fill="#404040">
                        <set attributeName="fill" to="#808080" begin="arrowLeft.mouseover" end="arrowLeft.mouseout"/>
                  </use>
                  <path fill="none" stroke="white" stroke-width="1.5" d="M0,-3.0v7 M-2.5,-0.5L0,-3.0L2.5,-0.5"/>
                </g>
        </g>
        <svg viewBox="0 0 15 15" width="100%" height="30px" preserveAspectRatio="xMaxYMin meet">
         <g id="arrow_out" transform="scale(0.3 0.3)">
          <a xlink:href="echo3_8cpp_a440d7e78e4b39340e539bef8b9d7e2e1_cgraph_org.svg" target="_base">
           <rect id="button" ry="5" rx="5" y="6" x="6" height="38" width="38"
                fill="#f2f5e9" fill-opacity="0.5" stroke="#606060" stroke-width="1.0"/>
           <path id="arrow"
             d="M 11.500037,31.436501 C 11.940474,20.09759 22.043105,11.32322 32.158766,21.979434 L 37.068811,17.246167 C 37.068811,17.246167 37.088388,32 37.088388,32 L 22.160133,31.978069 C 22.160133,31.978069 26.997745,27.140456 26.997745,27.140456 C 18.528582,18.264221 13.291696,25.230495 11.500037,31.436501 z"
             style="fill:#404040;"/>
          </a>
         </g>
        </svg>
</svg>
