<?xml version="1.0" encoding="UTF-8" standalone="no"?>
<!DOCTYPE svg PUBLIC "-//W3C//DTD SVG 1.1//EN"
 "http://www.w3.org/Graphics/SVG/1.1/DTD/svg11.dtd">
<!-- Generated by graphviz version 2.26.3 (20100126.1600)
 -->
<!-- Title: do_logical_Echo_Aera Pages: 1 -->
<svg width="434pt" height="164pt"
 viewBox="0.00 0.00 434.00 164.00" xmlns="http://www.w3.org/2000/svg" xmlns:xlink="http://www.w3.org/1999/xlink">
<g id="graph1" class="graph" transform="scale(1 1) rotate(0) translate(4 160)">
<title>do_logical_Echo_Aera</title>
<polygon fill="white" stroke="white" points="-4,5 -4,-160 431,-160 431,5 -4,5"/>
<!-- Node1 -->
<g id="node1" class="node"><title>Node1</title>
<polygon fill="#bfbfbf" stroke="black" points="0.5,-66 0.5,-90 113.5,-90 113.5,-66 0.5,-66"/>
<text text-anchor="middle" x="57" y="-77" font-family="Helvetica,sans-Serif" font-size="10.00">do_logical_Echo_Aera</text>
</g>
<!-- Node2 -->
<g id="node3" class="node"><title>Node2</title>
<a xlink:href="_c_o_r_e__6_8cpp.html#ab5d29b9ad8d00204a0d8d4ed77e7caec" target="_top" xlink:title="constrain_data_to_midi\l_range">
<polygon fill="white" stroke="black" points="154.5,-116 154.5,-156 271.5,-156 271.5,-116 154.5,-116"/>
<text text-anchor="start" x="162.5" y="-143" font-family="Helvetica,sans-Serif" font-size="10.00">constrain_data_to_midi</text>
<text text-anchor="middle" x="213" y="-127" font-family="Helvetica,sans-Serif" font-size="10.00">_range</text>
</a>
</g>
<!-- Node1&#45;&gt;Node2 -->
<g id="edge2" class="edge"><title>Node1&#45;&gt;Node2</title>
<path fill="none" stroke="midnightblue" d="M89.3233,-90.0176C106.737,-96.4918 128.839,-104.709 149.528,-112.401"/>
<polygon fill="midnightblue" stroke="midnightblue" points="148.32,-115.686 158.912,-115.891 150.759,-109.125 148.32,-115.686"/>
</g>
<!-- Node3 -->
<g id="node5" class="node"><title>Node3</title>
<a xlink:href="_c_o_r_e__6_8cpp.html#abbe1dbb26f5bf5fd7c9411e15817ca37" target="_top" xlink:title="record_channel_ch_state\l_in_an_echo">
<polygon fill="white" stroke="black" points="150.5,-58 150.5,-98 275.5,-98 275.5,-58 150.5,-58"/>
<text text-anchor="start" x="158.5" y="-85" font-family="Helvetica,sans-Serif" font-size="10.00">record_channel_ch_state</text>
<text text-anchor="middle" x="213" y="-69" font-family="Helvetica,sans-Serif" font-size="10.00">_in_an_echo</text>
</a>
</g>
<!-- Node1&#45;&gt;Node3 -->
<g id="edge4" class="edge"><title>Node1&#45;&gt;Node3</title>
<path fill="none" stroke="midnightblue" d="M113.761,-78C122.432,-78 131.483,-78 140.438,-78"/>
<polygon fill="midnightblue" stroke="midnightblue" points="140.482,-81.5001 150.482,-78 140.482,-74.5001 140.482,-81.5001"/>
</g>
<!-- Node4 -->
<g id="node7" class="node"><title>Node4</title>
<a xlink:href="_c_o_r_e__6_8cpp.html#ad7187a2df52460607db81f8bf0500953" target="_top" xlink:title="attribute_midi_solo\l_affectation">
<polygon fill="white" stroke="black" points="164,-0 164,-40 262,-40 262,-0 164,-0"/>
<text text-anchor="start" x="172" y="-27" font-family="Helvetica,sans-Serif" font-size="10.00">attribute_midi_solo</text>
<text text-anchor="middle" x="213" y="-11" font-family="Helvetica,sans-Serif" font-size="10.00">_affectation</text>
</a>
</g>
<!-- Node1&#45;&gt;Node4 -->
<g id="edge6" class="edge"><title>Node1&#45;&gt;Node4</title>
<path fill="none" stroke="midnightblue" d="M89.3233,-65.9824C108.059,-59.0166 132.223,-50.0325 154.214,-41.8563"/>
<polygon fill="midnightblue" stroke="midnightblue" points="155.656,-45.0543 163.81,-38.2887 153.217,-38.4931 155.656,-45.0543"/>
</g>
<!-- Node5 -->
<g id="node9" class="node"><title>Node5</title>
<a xlink:href="_c_o_r_e__6_8cpp.html#aa6f6d52757e4af2364c17c3e9dee8095" target="_top" xlink:title="search_and_desaffect\l_previous_midi_signal">
<polygon fill="white" stroke="black" points="312.5,-0 312.5,-40 425.5,-40 425.5,-0 312.5,-0"/>
<text text-anchor="start" x="320.5" y="-27" font-family="Helvetica,sans-Serif" font-size="10.00">search_and_desaffect</text>
<text text-anchor="middle" x="369" y="-11" font-family="Helvetica,sans-Serif" font-size="10.00">_previous_midi_signal</text>
</a>
</g>
<!-- Node4&#45;&gt;Node5 -->
<g id="edge8" class="edge"><title>Node4&#45;&gt;Node5</title>
<path fill="none" stroke="midnightblue" d="M262.359,-20C275.021,-20 288.852,-20 302.232,-20"/>
<polygon fill="midnightblue" stroke="midnightblue" points="302.35,-23.5001 312.35,-20 302.349,-16.5001 302.35,-23.5001"/>
</g>
</g>
</svg>
