<?xml version="1.0" encoding="UTF-8" standalone="no"?>
<!DOCTYPE svg PUBLIC "-//W3C//DTD SVG 1.1//EN"
 "http://www.w3.org/Graphics/SVG/1.1/DTD/svg11.dtd">
<!-- Generated by graphviz version 2.26.3 (20100126.1600)
 -->
<!-- Title: echo_window Pages: 1 -->
<svg width="342pt" height="185pt"
 viewBox="0.00 0.00 342.00 185.00" xmlns="http://www.w3.org/2000/svg" xmlns:xlink="http://www.w3.org/1999/xlink">
<g id="graph1" class="graph" transform="scale(1 1) rotate(0) translate(4 181)">
<title>echo_window</title>
<polygon fill="white" stroke="white" points="-4,5 -4,-181 339,-181 339,5 -4,5"/>
<!-- Node1 -->
<g id="node1" class="node"><title>Node1</title>
<polygon fill="#bfbfbf" stroke="black" points="0,-80 0,-104 76,-104 76,-80 0,-80"/>
<text text-anchor="middle" x="38" y="-91" font-family="Helvetica,sans-Serif" font-size="10.00">echo_window</text>
</g>
<!-- Node2 -->
<g id="node3" class="node"><title>Node2</title>
<a xlink:href="_c_o_r_e__6_8cpp.html#a3680de15f6ccf838397bde99d246125a" target="_top" xlink:title="show_type_midi">
<polygon fill="white" stroke="black" points="246.5,-153 246.5,-177 333.5,-177 333.5,-153 246.5,-153"/>
<text text-anchor="middle" x="290" y="-164" font-family="Helvetica,sans-Serif" font-size="10.00">show_type_midi</text>
</a>
</g>
<!-- Node1&#45;&gt;Node2 -->
<g id="edge2" class="edge"><title>Node1&#45;&gt;Node2</title>
<path fill="none" stroke="midnightblue" d="M57.7372,-104.071C72.2688,-112.47 92.7638,-123.319 112,-130 152.482,-144.06 200.217,-153.061 236.058,-158.41"/>
<polygon fill="midnightblue" stroke="midnightblue" points="235.909,-161.924 246.306,-159.888 236.909,-154.996 235.909,-161.924"/>
</g>
<!-- Node3 -->
<g id="node5" class="node"><title>Node3</title>
<a xlink:href="colors__fonts_8h.html#ae9be49e36dd551563724b7b6f799214f" target="_top" xlink:title="Discrete2">
<polygon fill="white" stroke="black" points="260.5,-107 260.5,-131 319.5,-131 319.5,-107 260.5,-107"/>
<text text-anchor="middle" x="290" y="-118" font-family="Helvetica,sans-Serif" font-size="10.00">Discrete2</text>
</a>
</g>
<!-- Node1&#45;&gt;Node3 -->
<g id="edge4" class="edge"><title>Node1&#45;&gt;Node3</title>
<path fill="none" stroke="midnightblue" d="M73.7425,-104.035C85.7607,-107.571 99.3336,-111.019 112,-113 158.99,-120.347 213.773,-121.032 250.02,-120.407"/>
<polygon fill="midnightblue" stroke="midnightblue" points="250.265,-123.903 260.187,-120.189 250.115,-116.904 250.265,-123.903"/>
</g>
<!-- Node4 -->
<g id="node7" class="node"><title>Node4</title>
<a xlink:href="colors__fonts_8h.html#a1f7c9a56f1b079299541dfbd31a981ba" target="_top" xlink:title="Discrete8">
<polygon fill="white" stroke="black" points="260.5,-57 260.5,-81 319.5,-81 319.5,-57 260.5,-57"/>
<text text-anchor="middle" x="290" y="-68" font-family="Helvetica,sans-Serif" font-size="10.00">Discrete8</text>
</a>
</g>
<!-- Node1&#45;&gt;Node4 -->
<g id="edge6" class="edge"><title>Node1&#45;&gt;Node4</title>
<path fill="none" stroke="midnightblue" d="M73.3423,-79.9095C85.4509,-76.3221 99.18,-72.8573 112,-71 159.045,-64.1843 213.817,-64.8369 250.047,-66.4438"/>
<polygon fill="midnightblue" stroke="midnightblue" points="250.049,-69.948 260.209,-66.9413 250.392,-62.9564 250.049,-69.948"/>
</g>
<!-- Node5 -->
<g id="node9" class="node"><title>Node5</title>
<a xlink:href="echo3_8cpp.html#af8f09303dcec52f3cc0b2036b3f87beb" target="_top" xlink:title="Echo_Aera">
<polygon fill="white" stroke="black" points="128.5,-80 128.5,-104 193.5,-104 193.5,-80 128.5,-80"/>
<text text-anchor="middle" x="161" y="-91" font-family="Helvetica,sans-Serif" font-size="10.00">Echo_Aera</text>
</a>
</g>
<!-- Node1&#45;&gt;Node5 -->
<g id="edge8" class="edge"><title>Node1&#45;&gt;Node5</title>
<path fill="none" stroke="midnightblue" d="M76.2437,-92C89.5062,-92 104.461,-92 118.075,-92"/>
<polygon fill="midnightblue" stroke="midnightblue" points="118.175,-95.5001 128.175,-92 118.175,-88.5001 118.175,-95.5001"/>
</g>
<!-- Node6 -->
<g id="node14" class="node"><title>Node6</title>
<a xlink:href="colors__fonts_8h.html#ae86cd6c0de005129d702f0c4352b2a24" target="_top" xlink:title="CouleurGrisMoyen">
<polygon fill="white" stroke="black" points="112,-0 112,-24 210,-24 210,-0 112,-0"/>
<text text-anchor="middle" x="161" y="-11" font-family="Helvetica,sans-Serif" font-size="10.00">CouleurGrisMoyen</text>
</a>
</g>
<!-- Node1&#45;&gt;Node6 -->
<g id="edge16" class="edge"><title>Node1&#45;&gt;Node6</title>
<path fill="none" stroke="midnightblue" d="M53.1442,-79.9611C67.7961,-68.5542 90.8328,-51.2448 112,-38 117.021,-34.8584 122.457,-31.7257 127.82,-28.779"/>
<polygon fill="midnightblue" stroke="midnightblue" points="129.527,-31.8349 136.688,-24.0266 126.221,-25.6649 129.527,-31.8349"/>
</g>
<!-- Node5&#45;&gt;Node2 -->
<g id="edge14" class="edge"><title>Node5&#45;&gt;Node2</title>
<path fill="none" stroke="midnightblue" d="M182.302,-104.054C203.402,-115.995 235.918,-134.396 259.703,-147.855"/>
<polygon fill="midnightblue" stroke="midnightblue" points="258.24,-151.049 268.667,-152.928 261.687,-144.956 258.24,-151.049"/>
</g>
<!-- Node5&#45;&gt;Node3 -->
<g id="edge12" class="edge"><title>Node5&#45;&gt;Node3</title>
<path fill="none" stroke="midnightblue" d="M193.552,-98.8132C210.728,-102.408 231.947,-106.849 250.106,-110.65"/>
<polygon fill="midnightblue" stroke="midnightblue" points="249.606,-114.121 260.111,-112.744 251.04,-107.27 249.606,-114.121"/>
</g>
<!-- Node5&#45;&gt;Node4 -->
<g id="edge10" class="edge"><title>Node5&#45;&gt;Node4</title>
<path fill="none" stroke="midnightblue" d="M193.552,-86.1961C210.728,-83.1338 231.947,-79.3505 250.106,-76.1129"/>
<polygon fill="midnightblue" stroke="midnightblue" points="250.881,-79.5301 260.111,-74.329 249.652,-72.6387 250.881,-79.5301"/>
</g>
</g>
</svg>
