<?xml version="1.0" encoding="UTF-8" standalone="no"?>
<!DOCTYPE svg PUBLIC "-//W3C//DTD SVG 1.1//EN"
 "http://www.w3.org/Graphics/SVG/1.1/DTD/svg11.dtd">
<!-- Generated by graphviz version 2.26.3 (20100126.1600)
 -->
<!-- Title: affect_video_tracking_to_dock Pages: 1 -->
<svg width="770pt" height="74pt"
 viewBox="0.00 0.00 770.00 74.00" xmlns="http://www.w3.org/2000/svg" xmlns:xlink="http://www.w3.org/1999/xlink">
<g id="graph1" class="graph" transform="scale(1 1) rotate(0) translate(4 70)">
<title>affect_video_tracking_to_dock</title>
<polygon fill="white" stroke="white" points="-4,5 -4,-70 767,-70 767,5 -4,5"/>
<!-- Node1 -->
<g id="node1" class="node"><title>Node1</title>
<polygon fill="#bfbfbf" stroke="black" points="0.5,-13 0.5,-53 109.5,-53 109.5,-13 0.5,-13"/>
<text text-anchor="start" x="8.5" y="-40" font-family="Helvetica,sans-Serif" font-size="10.00">affect_video_tracking</text>
<text text-anchor="middle" x="55" y="-24" font-family="Helvetica,sans-Serif" font-size="10.00">_to_dock</text>
</g>
<!-- Node2 -->
<g id="node3" class="node"><title>Node2</title>
<a xlink:href="logicals__intres_8cpp.html#a74cf9c04c734ab342f88799efbfc4210" target="_top" xlink:title="operations_confirmation">
<polygon fill="white" stroke="black" points="146,-21 146,-45 266,-45 266,-21 146,-21"/>
<text text-anchor="middle" x="206" y="-32" font-family="Helvetica,sans-Serif" font-size="10.00">operations_confirmation</text>
</a>
</g>
<!-- Node1&#45;&gt;Node2 -->
<g id="edge2" class="edge"><title>Node1&#45;&gt;Node2</title>
<path fill="none" stroke="midnightblue" d="M119.642,-33C128.37,-33 137.297,-33 145.941,-33"/>
<polygon fill="midnightblue" stroke="midnightblue" points="119.514,-29.5001 109.514,-33 119.514,-36.5001 119.514,-29.5001"/>
</g>
<!-- Node3 -->
<g id="node5" class="node"><title>Node3</title>
<a xlink:href="keyboard__functions2_8cpp.html#a548548066307f816c5021de7d6e4f26a" target="_top" xlink:title="key_affectation">
<polygon fill="white" stroke="black" points="302.5,-42 302.5,-66 385.5,-66 385.5,-42 302.5,-42"/>
<text text-anchor="middle" x="344" y="-53" font-family="Helvetica,sans-Serif" font-size="10.00">key_affectation</text>
</a>
</g>
<!-- Node2&#45;&gt;Node3 -->
<g id="edge4" class="edge"><title>Node2&#45;&gt;Node3</title>
<path fill="none" stroke="midnightblue" d="M276.19,-43.681C285.12,-45.04 294.024,-46.395 302.303,-47.6548"/>
<polygon fill="midnightblue" stroke="midnightblue" points="276.54,-40.1942 266.127,-42.1498 275.487,-47.1145 276.54,-40.1942"/>
</g>
<!-- Node7 -->
<g id="node13" class="node"><title>Node7</title>
<a xlink:href="logicals__intres_8cpp.html#a85967c22135715eca94d08af2ec1a1fb" target="_top" xlink:title="fenetre_confirm">
<polygon fill="white" stroke="black" points="302,-0 302,-24 386,-24 386,-0 302,-0"/>
<text text-anchor="middle" x="344" y="-11" font-family="Helvetica,sans-Serif" font-size="10.00">fenetre_confirm</text>
</a>
</g>
<!-- Node2&#45;&gt;Node7 -->
<g id="edge12" class="edge"><title>Node2&#45;&gt;Node7</title>
<path fill="none" stroke="midnightblue" d="M276.07,-22.3372C284.894,-20.9944 293.695,-19.6551 301.896,-18.4072"/>
<polygon fill="midnightblue" stroke="midnightblue" points="275.487,-18.8855 266.127,-23.8502 276.54,-25.8058 275.487,-18.8855"/>
</g>
<!-- Node4 -->
<g id="node7" class="node"><title>Node4</title>
<a xlink:href="keyboard__routines2_8cpp.html#a8563320b8eab661232619224650de244" target="_top" xlink:title="commandes_clavier">
<polygon fill="white" stroke="black" points="422,-42 422,-66 526,-66 526,-42 422,-42"/>
<text text-anchor="middle" x="474" y="-53" font-family="Helvetica,sans-Serif" font-size="10.00">commandes_clavier</text>
</a>
</g>
<!-- Node3&#45;&gt;Node4 -->
<g id="edge6" class="edge"><title>Node3&#45;&gt;Node4</title>
<path fill="none" stroke="midnightblue" d="M395.995,-54C404.473,-54 413.258,-54 421.742,-54"/>
<polygon fill="midnightblue" stroke="midnightblue" points="395.848,-50.5001 385.848,-54 395.848,-57.5001 395.848,-50.5001"/>
</g>
<!-- Node5 -->
<g id="node9" class="node"><title>Node5</title>
<a xlink:href="_m_a_i_n__avec__objets_8cpp.html#a8e80f54ac804eddce8ed6e45adb1db44" target="_top" xlink:title="ticker_full_loop">
<polygon fill="white" stroke="black" points="584,-42 584,-66 666,-66 666,-42 584,-42"/>
<text text-anchor="middle" x="625" y="-53" font-family="Helvetica,sans-Serif" font-size="10.00">ticker_full_loop</text>
</a>
</g>
<!-- Node4&#45;&gt;Node5 -->
<g id="edge8" class="edge"><title>Node4&#45;&gt;Node5</title>
<path fill="none" stroke="midnightblue" d="M536.664,-54C552.516,-54 569.147,-54 583.648,-54"/>
<polygon fill="midnightblue" stroke="midnightblue" points="536.389,-50.5001 526.389,-54 536.389,-57.5001 536.389,-50.5001"/>
</g>
<!-- Node6 -->
<g id="node11" class="node"><title>Node6</title>
<a xlink:href="_m_a_i_n__avec__objets_8cpp.html#ae66f6b31b5ad750f1fe042a706a4e3d4" target="_top" xlink:title="main">
<polygon fill="white" stroke="black" points="724,-21 724,-45 762,-45 762,-21 724,-21"/>
<text text-anchor="middle" x="743" y="-32" font-family="Helvetica,sans-Serif" font-size="10.00">main</text>
</a>
</g>
<!-- Node5&#45;&gt;Node6 -->
<g id="edge10" class="edge"><title>Node5&#45;&gt;Node6</title>
<path fill="none" stroke="midnightblue" d="M676.55,-44.8259C693.307,-41.8437 710.879,-38.7164 723.742,-36.4273"/>
<polygon fill="midnightblue" stroke="midnightblue" points="675.503,-41.4572 666.271,-46.6552 676.729,-48.3489 675.503,-41.4572"/>
</g>
<!-- Node8 -->
<g id="node15" class="node"><title>Node8</title>
<a xlink:href="graphics__rebuild1_8cpp.html#ac2eae1e03fb72cc734ffbcef566483bf" target="_top" xlink:title="Boxes">
<polygon fill="white" stroke="black" points="452,-0 452,-24 496,-24 496,-0 452,-0"/>
<text text-anchor="middle" x="474" y="-11" font-family="Helvetica,sans-Serif" font-size="10.00">Boxes</text>
</a>
</g>
<!-- Node7&#45;&gt;Node8 -->
<g id="edge14" class="edge"><title>Node7&#45;&gt;Node8</title>
<path fill="none" stroke="midnightblue" d="M396.4,-12C415.658,-12 436.45,-12 451.66,-12"/>
<polygon fill="midnightblue" stroke="midnightblue" points="396.207,-8.5001 386.207,-12 396.207,-15.5001 396.207,-8.5001"/>
</g>
<!-- Node9 -->
<g id="node17" class="node"><title>Node9</title>
<a xlink:href="_m_a_i_n__avec__objets_8cpp.html#ade8d4ba65d55c94f8ee277829d722155" target="_top" xlink:title="main_actions_on_screen">
<polygon fill="white" stroke="black" points="562.5,-0 562.5,-24 687.5,-24 687.5,-0 562.5,-0"/>
<text text-anchor="middle" x="625" y="-11" font-family="Helvetica,sans-Serif" font-size="10.00">main_actions_on_screen</text>
</a>
</g>
<!-- Node8&#45;&gt;Node9 -->
<g id="edge16" class="edge"><title>Node8&#45;&gt;Node9</title>
<path fill="none" stroke="midnightblue" d="M506.395,-12C522.76,-12 543.187,-12 562.455,-12"/>
<polygon fill="midnightblue" stroke="midnightblue" points="506.281,-8.5001 496.281,-12 506.281,-15.5001 506.281,-8.5001"/>
</g>
<!-- Node9&#45;&gt;Node6 -->
<g id="edge18" class="edge"><title>Node9&#45;&gt;Node6</title>
<path fill="none" stroke="midnightblue" d="M697.837,-24.9626C707.336,-26.6529 716.327,-28.253 723.749,-29.5739"/>
<polygon fill="midnightblue" stroke="midnightblue" points="698.259,-21.4827 687.8,-23.1763 697.032,-28.3744 698.259,-21.4827"/>
</g>
</g>
</svg>
