<?xml version="1.0" encoding="UTF-8" standalone="no"?>
<!DOCTYPE svg PUBLIC "-//W3C//DTD SVG 1.1//EN"
 "http://www.w3.org/Graphics/SVG/1.1/DTD/svg11.dtd">
<!-- Generated by graphviz version 2.26.3 (20100126.1600)
 -->
<!-- Title: DoTimeToDock Pages: 1 -->
<svg width="1952pt" height="654pt"
 viewBox="0.00 0.00 1952.00 654.00" xmlns="http://www.w3.org/2000/svg" xmlns:xlink="http://www.w3.org/1999/xlink">
<g id="graph1" class="graph" transform="scale(1 1) rotate(0) translate(4 650)">
<title>DoTimeToDock</title>
<polygon fill="white" stroke="white" points="-4,5 -4,-650 1949,-650 1949,5 -4,5"/>
<!-- Node1 -->
<g id="node1" class="node"><title>Node1</title>
<polygon fill="#bfbfbf" stroke="black" points="0,-370 0,-394 84,-394 84,-370 0,-370"/>
<text text-anchor="middle" x="42" y="-381" font-family="Helvetica,sans-Serif" font-size="10.00">DoTimeToDock</text>
</g>
<!-- Node2 -->
<g id="node3" class="node"><title>Node2</title>
<a xlink:href="faders__core__24_8cpp.html#a7a87eef3a5459bdd689c77b5b02957d7" target="_top" xlink:title="do_logical_FaderSpace">
<polygon fill="white" stroke="black" points="121,-562 121,-586 239,-586 239,-562 121,-562"/>
<text text-anchor="middle" x="180" y="-573" font-family="Helvetica,sans-Serif" font-size="10.00">do_logical_FaderSpace</text>
</a>
</g>
<!-- Node1&#45;&gt;Node2 -->
<g id="edge2" class="edge"><title>Node1&#45;&gt;Node2</title>
<path fill="none" stroke="midnightblue" d="M56.516,-402.196C85.1952,-442.098 148.334,-529.943 171.371,-561.994"/>
<polygon fill="midnightblue" stroke="midnightblue" points="59.311,-400.088 50.6325,-394.01 53.6269,-404.173 59.311,-400.088"/>
</g>
<!-- Node6 -->
<g id="node11" class="node"><title>Node6</title>
<a xlink:href="faders__operations_8cpp.html#ac93160d2b68a41a47ae2a84e32e8db21" target="_top" xlink:title="ClearDock">
<polygon fill="white" stroke="black" points="148.5,-324 148.5,-348 211.5,-348 211.5,-324 148.5,-324"/>
<text text-anchor="middle" x="180" y="-335" font-family="Helvetica,sans-Serif" font-size="10.00">ClearDock</text>
</a>
</g>
<!-- Node1&#45;&gt;Node6 -->
<g id="edge10" class="edge"><title>Node1&#45;&gt;Node6</title>
<path fill="none" stroke="midnightblue" d="M87.9926,-366.669C107.752,-360.083 130.353,-352.549 148.21,-346.597"/>
<polygon fill="midnightblue" stroke="midnightblue" points="86.6379,-363.431 78.2579,-369.914 88.8515,-370.072 86.6379,-363.431"/>
</g>
<!-- Node24 -->
<g id="node60" class="node"><title>Node24</title>
<a xlink:href="midi__13_8cpp.html#a5d7de871851b10e9d1115c33d25140bb" target="_top" xlink:title="do_midi_call_order">
<polygon fill="white" stroke="black" points="131,-141 131,-165 229,-165 229,-141 131,-141"/>
<text text-anchor="middle" x="180" y="-152" font-family="Helvetica,sans-Serif" font-size="10.00">do_midi_call_order</text>
</a>
</g>
<!-- Node1&#45;&gt;Node24 -->
<g id="edge72" class="edge"><title>Node1&#45;&gt;Node24</title>
<path fill="none" stroke="midnightblue" d="M54.6768,-360.964C82.9477,-314.051 150.418,-202.09 172.711,-165.095"/>
<polygon fill="midnightblue" stroke="midnightblue" points="51.5832,-359.316 49.4195,-369.688 57.5787,-362.929 51.5832,-359.316"/>
</g>
<!-- Node41 -->
<g id="node100" class="node"><title>Node41</title>
<a xlink:href="minifaders__core_8cpp.html#ac974e1c0e7800b10f4290db4d5ce4db0" target="_top" xlink:title="mini_faders_panel_core">
<polygon fill="white" stroke="black" points="120.5,-417 120.5,-441 239.5,-441 239.5,-417 120.5,-417"/>
<text text-anchor="middle" x="180" y="-428" font-family="Helvetica,sans-Serif" font-size="10.00">mini_faders_panel_core</text>
</a>
</g>
<!-- Node1&#45;&gt;Node41 -->
<g id="edge118" class="edge"><title>Node1&#45;&gt;Node41</title>
<path fill="none" stroke="midnightblue" d="M87.0264,-397.335C105.702,-403.696 127.054,-410.968 144.582,-416.937"/>
<polygon fill="midnightblue" stroke="midnightblue" points="88.1329,-394.015 77.5384,-394.104 85.8761,-400.641 88.1329,-394.015"/>
</g>
<!-- Node3 -->
<g id="node5" class="node"><title>Node3</title>
<a xlink:href="procs__visuels__rebuild1_8cpp.html#ae710b6e599e321ad5934a90140067054" target="_top" xlink:title="check_graphics_mouse\l_handling">
<polygon fill="white" stroke="black" points="276.5,-606 276.5,-646 395.5,-646 395.5,-606 276.5,-606"/>
<text text-anchor="start" x="284.5" y="-633" font-family="Helvetica,sans-Serif" font-size="10.00">check_graphics_mouse</text>
<text text-anchor="middle" x="336" y="-617" font-family="Helvetica,sans-Serif" font-size="10.00">_handling</text>
</a>
</g>
<!-- Node2&#45;&gt;Node3 -->
<g id="edge4" class="edge"><title>Node2&#45;&gt;Node3</title>
<path fill="none" stroke="midnightblue" d="M225.757,-589.252C241.634,-594.545 259.673,-600.558 276.495,-606.165"/>
<polygon fill="midnightblue" stroke="midnightblue" points="226.775,-585.902 216.182,-586.061 224.562,-592.543 226.775,-585.902"/>
</g>
<!-- Node4 -->
<g id="node7" class="node"><title>Node4</title>
<a xlink:href="_m_a_i_n__avec__objets_8cpp.html#a8e80f54ac804eddce8ed6e45adb1db44" target="_top" xlink:title="ticker_full_loop">
<polygon fill="white" stroke="black" points="889,-293 889,-317 971,-317 971,-293 889,-293"/>
<text text-anchor="middle" x="930" y="-304" font-family="Helvetica,sans-Serif" font-size="10.00">ticker_full_loop</text>
</a>
</g>
<!-- Node3&#45;&gt;Node4 -->
<g id="edge6" class="edge"><title>Node3&#45;&gt;Node4</title>
<path fill="none" stroke="midnightblue" d="M387.149,-601.493C390.152,-599.988 393.12,-598.482 396,-597 597.994,-493.041 837.351,-357.742 908.839,-317.071"/>
<polygon fill="midnightblue" stroke="midnightblue" points="385.497,-598.405 378.095,-605.985 388.608,-604.676 385.497,-598.405"/>
</g>
<!-- Node5 -->
<g id="node9" class="node"><title>Node5</title>
<a xlink:href="_m_a_i_n__avec__objets_8cpp.html#ae66f6b31b5ad750f1fe042a706a4e3d4" target="_top" xlink:title="main">
<polygon fill="white" stroke="black" points="1906,-191 1906,-215 1944,-215 1944,-191 1906,-191"/>
<text text-anchor="middle" x="1925" y="-202" font-family="Helvetica,sans-Serif" font-size="10.00">main</text>
</a>
</g>
<!-- Node4&#45;&gt;Node5 -->
<g id="edge8" class="edge"><title>Node4&#45;&gt;Node5</title>
<path fill="none" stroke="midnightblue" d="M981.423,-305C1034.25,-305 1118.87,-305 1192,-305 1192,-305 1192,-305 1686,-305 1772.15,-305 1793.6,-283.811 1870,-244 1885.21,-236.075 1900.71,-224.093 1911.36,-215.126"/>
<polygon fill="midnightblue" stroke="midnightblue" points="981.294,-301.5 971.294,-305 981.294,-308.5 981.294,-301.5"/>
</g>
<!-- Node7 -->
<g id="node13" class="node"><title>Node7</title>
<a xlink:href="faders__operations_8cpp.html#a05f4b8feada0c75e33539e3163ab0aed" target="_top" xlink:title="affect_echo_to_dock">
<polygon fill="white" stroke="black" points="282.5,-364 282.5,-388 389.5,-388 389.5,-364 282.5,-364"/>
<text text-anchor="middle" x="336" y="-375" font-family="Helvetica,sans-Serif" font-size="10.00">affect_echo_to_dock</text>
</a>
</g>
<!-- Node6&#45;&gt;Node7 -->
<g id="edge12" class="edge"><title>Node6&#45;&gt;Node7</title>
<path fill="none" stroke="midnightblue" d="M221.393,-346.614C242.216,-351.953 267.54,-358.446 289.082,-363.97"/>
<polygon fill="midnightblue" stroke="midnightblue" points="222.125,-343.188 211.569,-344.095 220.386,-349.969 222.125,-343.188"/>
</g>
<!-- Node8 -->
<g id="node15" class="node"><title>Node8</title>
<a xlink:href="logicals__intres_8cpp.html#a74cf9c04c734ab342f88799efbfc4210" target="_top" xlink:title="operations_confirmation">
<polygon fill="white" stroke="black" points="440,-286 440,-310 560,-310 560,-286 440,-286"/>
<text text-anchor="middle" x="500" y="-297" font-family="Helvetica,sans-Serif" font-size="10.00">operations_confirmation</text>
</a>
</g>
<!-- Node6&#45;&gt;Node8 -->
<g id="edge70" class="edge"><title>Node6&#45;&gt;Node8</title>
<path fill="none" stroke="midnightblue" d="M221.802,-333.479C265.407,-330.579 335.687,-325.144 396,-317 410.279,-315.072 425.579,-312.54 439.933,-309.955"/>
<polygon fill="midnightblue" stroke="midnightblue" points="221.332,-330.002 211.581,-334.145 221.787,-336.988 221.332,-330.002"/>
</g>
<!-- Node14 -->
<g id="node29" class="node"><title>Node14</title>
<a xlink:href="faders__operations_8cpp.html#aa3cd798eea2030ea63c067f15062bdee" target="_top" xlink:title="affect_draw_preset\l_to_dock">
<polygon fill="white" stroke="black" points="286.5,-268 286.5,-308 385.5,-308 385.5,-268 286.5,-268"/>
<text text-anchor="start" x="294.5" y="-295" font-family="Helvetica,sans-Serif" font-size="10.00">affect_draw_preset</text>
<text text-anchor="middle" x="336" y="-279" font-family="Helvetica,sans-Serif" font-size="10.00">_to_dock</text>
</a>
</g>
<!-- Node6&#45;&gt;Node14 -->
<g id="edge30" class="edge"><title>Node6&#45;&gt;Node14</title>
<path fill="none" stroke="midnightblue" d="M221.299,-323.293C241.268,-317.148 265.393,-309.725 286.356,-303.275"/>
<polygon fill="midnightblue" stroke="midnightblue" points="220.097,-320 211.569,-326.286 222.156,-326.691 220.097,-320"/>
</g>
<!-- Node15 -->
<g id="node32" class="node"><title>Node15</title>
<a xlink:href="faders__operations_8cpp.html#a2aebdef821440431b05b1028ca7622ae" target="_top" xlink:title="ClearFader">
<polygon fill="white" stroke="black" points="303.5,-226 303.5,-250 368.5,-250 368.5,-226 303.5,-226"/>
<text text-anchor="middle" x="336" y="-237" font-family="Helvetica,sans-Serif" font-size="10.00">ClearFader</text>
</a>
</g>
<!-- Node6&#45;&gt;Node15 -->
<g id="edge34" class="edge"><title>Node6&#45;&gt;Node15</title>
<path fill="none" stroke="midnightblue" d="M199.806,-316.73C218.261,-299.639 247.191,-274.976 276,-259 284.493,-254.29 294.237,-250.337 303.369,-247.176"/>
<polygon fill="midnightblue" stroke="midnightblue" points="197.215,-314.363 192.336,-323.767 202.015,-319.458 197.215,-314.363"/>
</g>
<!-- Node16 -->
<g id="node35" class="node"><title>Node16</title>
<a xlink:href="faders__operations_8cpp.html#a551ffd1b093a8918621736a709977a08" target="_top" xlink:title="affect_selected_faders\l_to_fgroup">
<polygon fill="white" stroke="black" points="278.5,-168 278.5,-208 393.5,-208 393.5,-168 278.5,-168"/>
<text text-anchor="start" x="286.5" y="-195" font-family="Helvetica,sans-Serif" font-size="10.00">affect_selected_faders</text>
<text text-anchor="middle" x="336" y="-179" font-family="Helvetica,sans-Serif" font-size="10.00">_to_fgroup</text>
</a>
</g>
<!-- Node6&#45;&gt;Node16 -->
<g id="edge38" class="edge"><title>Node6&#45;&gt;Node16</title>
<path fill="none" stroke="midnightblue" d="M192.708,-315.092C209.239,-289.294 240.268,-245.373 276,-217 280.077,-213.762 284.575,-210.767 289.22,-208.029"/>
<polygon fill="midnightblue" stroke="midnightblue" points="189.647,-313.385 187.291,-323.715 195.574,-317.109 189.647,-313.385"/>
</g>
<!-- Node17 -->
<g id="node38" class="node"><title>Node17</title>
<a xlink:href="faders__operations_8cpp.html#a3571b5afaa0932ae3302580cd79fc9e2" target="_top" xlink:title="DoDock">
<polygon fill="white" stroke="black" points="309.5,-126 309.5,-150 362.5,-150 362.5,-126 309.5,-126"/>
<text text-anchor="middle" x="336" y="-137" font-family="Helvetica,sans-Serif" font-size="10.00">DoDock</text>
</a>
</g>
<!-- Node6&#45;&gt;Node17 -->
<g id="edge42" class="edge"><title>Node6&#45;&gt;Node17</title>
<path fill="none" stroke="midnightblue" d="M186.223,-313.885C197.794,-276.682 226.092,-201.487 276,-159 285.412,-150.988 298.073,-145.966 309.338,-142.853"/>
<polygon fill="midnightblue" stroke="midnightblue" points="182.793,-313.14 183.281,-323.724 189.499,-315.146 182.793,-313.14"/>
</g>
<!-- Node18 -->
<g id="node41" class="node"><title>Node18</title>
<a xlink:href="faders__operations_8cpp.html#aa78052f1e3cdab13a7993a2dbe360e56" target="_top" xlink:title="affect_color_to_dock">
<polygon fill="white" stroke="black" points="282.5,-84 282.5,-108 389.5,-108 389.5,-84 282.5,-84"/>
<text text-anchor="middle" x="336" y="-95" font-family="Helvetica,sans-Serif" font-size="10.00">affect_color_to_dock</text>
</a>
</g>
<!-- Node6&#45;&gt;Node18 -->
<g id="edge46" class="edge"><title>Node6&#45;&gt;Node18</title>
<path fill="none" stroke="midnightblue" d="M187.094,-314.118C203.57,-264.467 245.357,-145.385 276,-117 279.805,-113.475 284.236,-110.537 288.933,-108.088"/>
<polygon fill="midnightblue" stroke="midnightblue" points="183.688,-313.269 183.89,-323.862 190.338,-315.456 183.688,-313.269"/>
</g>
<!-- Node19 -->
<g id="node44" class="node"><title>Node19</title>
<a xlink:href="faders__operations_8cpp.html#acc9c7cebe2c499a652cf57035ef0f3d7" target="_top" xlink:title="affect_network_to_dock">
<polygon fill="white" stroke="black" points="276,-42 276,-66 396,-66 396,-42 276,-42"/>
<text text-anchor="middle" x="336" y="-53" font-family="Helvetica,sans-Serif" font-size="10.00">affect_network_to_dock</text>
</a>
</g>
<!-- Node6&#45;&gt;Node19 -->
<g id="edge50" class="edge"><title>Node6&#45;&gt;Node19</title>
<path fill="none" stroke="midnightblue" d="M188.04,-314.417C199.591,-283.382 221.525,-224.339 240,-174 256.13,-130.048 242.694,-107.905 276,-75 279.611,-71.432 283.862,-68.4682 288.406,-66.0067"/>
<polygon fill="midnightblue" stroke="midnightblue" points="184.75,-313.223 184.541,-323.816 191.31,-315.665 184.75,-313.223"/>
</g>
<!-- Node20 -->
<g id="node47" class="node"><title>Node20</title>
<a xlink:href="faders__operations_8cpp.html#a07c9bb4ee301ef022b2bfe45a6d5dc65" target="_top" xlink:title="affect_dmxIN_to_dock">
<polygon fill="white" stroke="black" points="278.5,-564 278.5,-588 393.5,-588 393.5,-564 278.5,-564"/>
<text text-anchor="middle" x="336" y="-575" font-family="Helvetica,sans-Serif" font-size="10.00">affect_dmxIN_to_dock</text>
</a>
</g>
<!-- Node6&#45;&gt;Node20 -->
<g id="edge54" class="edge"><title>Node6&#45;&gt;Node20</title>
<path fill="none" stroke="midnightblue" d="M200.544,-355.53C213.656,-369.087 230.009,-388.208 240,-408 270.31,-468.048 230.787,-505.198 276,-555 279.19,-558.514 283.001,-561.439 287.135,-563.876"/>
<polygon fill="midnightblue" stroke="midnightblue" points="202.807,-352.843 193.27,-348.228 197.848,-357.783 202.807,-352.843"/>
</g>
<!-- Node21 -->
<g id="node50" class="node"><title>Node21</title>
<a xlink:href="faders__operations_8cpp.html#a5f070913b27903dd6d9eff3192863f78" target="_top" xlink:title="affect_video_tracking\l_to_dock">
<polygon fill="white" stroke="black" points="281.5,-506 281.5,-546 390.5,-546 390.5,-506 281.5,-506"/>
<text text-anchor="start" x="289.5" y="-533" font-family="Helvetica,sans-Serif" font-size="10.00">affect_video_tracking</text>
<text text-anchor="middle" x="336" y="-517" font-family="Helvetica,sans-Serif" font-size="10.00">_to_dock</text>
</a>
</g>
<!-- Node6&#45;&gt;Node21 -->
<g id="edge58" class="edge"><title>Node6&#45;&gt;Node21</title>
<path fill="none" stroke="midnightblue" d="M199.391,-355.784C212.147,-369.573 228.54,-388.862 240,-408 261.921,-444.607 246.838,-465.852 276,-497 279.084,-500.294 282.621,-503.257 286.401,-505.914"/>
<polygon fill="midnightblue" stroke="midnightblue" points="201.776,-353.211 192.366,-348.343 196.686,-358.017 201.776,-353.211"/>
</g>
<!-- Node22 -->
<g id="node53" class="node"><title>Node22</title>
<a xlink:href="faders__operations_8cpp.html#abc3533cac990a3df34abb6180a160c16" target="_top" xlink:title="affect_audio_control\l_to_dock">
<polygon fill="white" stroke="black" points="284,-448 284,-488 388,-488 388,-448 284,-448"/>
<text text-anchor="start" x="292" y="-475" font-family="Helvetica,sans-Serif" font-size="10.00">affect_audio_control</text>
<text text-anchor="middle" x="336" y="-459" font-family="Helvetica,sans-Serif" font-size="10.00">_to_dock</text>
</a>
</g>
<!-- Node6&#45;&gt;Node22 -->
<g id="edge62" class="edge"><title>Node6&#45;&gt;Node22</title>
<path fill="none" stroke="midnightblue" d="M195.153,-356.323C212.683,-378.772 243.347,-414.922 276,-439 280.283,-442.159 284.965,-445.118 289.763,-447.849"/>
<polygon fill="midnightblue" stroke="midnightblue" points="197.759,-353.969 188.893,-348.168 192.206,-358.232 197.759,-353.969"/>
</g>
<!-- Node23 -->
<g id="node56" class="node"><title>Node23</title>
<a xlink:href="faders__operations_8cpp.html#a06eba13b16b946de5033694ebc7bd02f" target="_top" xlink:title="affect_chaser_to_dock">
<polygon fill="white" stroke="black" points="278.5,-406 278.5,-430 393.5,-430 393.5,-406 278.5,-406"/>
<text text-anchor="middle" x="336" y="-417" font-family="Helvetica,sans-Serif" font-size="10.00">affect_chaser_to_dock</text>
</a>
</g>
<!-- Node6&#45;&gt;Node23 -->
<g id="edge66" class="edge"><title>Node6&#45;&gt;Node23</title>
<path fill="none" stroke="midnightblue" d="M204.628,-353.88C223.498,-367.018 250.536,-384.657 276,-397 282.753,-400.273 290.152,-403.29 297.377,-405.954"/>
<polygon fill="midnightblue" stroke="midnightblue" points="206.505,-350.92 196.316,-348.015 202.469,-356.64 206.505,-350.92"/>
</g>
<!-- Node7&#45;&gt;Node8 -->
<g id="edge14" class="edge"><title>Node7&#45;&gt;Node8</title>
<path fill="none" stroke="midnightblue" d="M374.429,-359.719C381.628,-356.564 389.068,-353.232 396,-350 423.993,-336.949 455.673,-320.924 476.635,-310.141"/>
<polygon fill="midnightblue" stroke="midnightblue" points="372.61,-356.693 364.831,-363.886 375.397,-363.114 372.61,-356.693"/>
</g>
<!-- Node9 -->
<g id="node17" class="node"><title>Node9</title>
<a xlink:href="keyboard__functions2_8cpp.html#a548548066307f816c5021de7d6e4f26a" target="_top" xlink:title="key_affectation">
<polygon fill="white" stroke="black" points="604.5,-293 604.5,-317 687.5,-317 687.5,-293 604.5,-293"/>
<text text-anchor="middle" x="646" y="-304" font-family="Helvetica,sans-Serif" font-size="10.00">key_affectation</text>
</a>
</g>
<!-- Node8&#45;&gt;Node9 -->
<g id="edge16" class="edge"><title>Node8&#45;&gt;Node9</title>
<path fill="none" stroke="midnightblue" d="M570.345,-301.373C581.919,-301.928 593.582,-302.487 604.168,-302.994"/>
<polygon fill="midnightblue" stroke="midnightblue" points="570.383,-297.871 560.227,-300.888 570.048,-304.863 570.383,-297.871"/>
</g>
<!-- Node11 -->
<g id="node22" class="node"><title>Node11</title>
<a xlink:href="logicals__intres_8cpp.html#a85967c22135715eca94d08af2ec1a1fb" target="_top" xlink:title="fenetre_confirm">
<polygon fill="white" stroke="black" points="1150,-253 1150,-277 1234,-277 1234,-253 1150,-253"/>
<text text-anchor="middle" x="1192" y="-264" font-family="Helvetica,sans-Serif" font-size="10.00">fenetre_confirm</text>
</a>
</g>
<!-- Node8&#45;&gt;Node11 -->
<g id="edge22" class="edge"><title>Node8&#45;&gt;Node11</title>
<path fill="none" stroke="midnightblue" d="M570.376,-285.031C626.626,-275.791 707.599,-265 779,-265 779,-265 779,-265 930,-265 1007.55,-265 1098.02,-265 1149.8,-265"/>
<polygon fill="midnightblue" stroke="midnightblue" points="569.455,-281.636 560.168,-286.736 570.608,-288.541 569.455,-281.636"/>
</g>
<!-- Node10 -->
<g id="node19" class="node"><title>Node10</title>
<a xlink:href="keyboard__routines2_8cpp.html#a8563320b8eab661232619224650de244" target="_top" xlink:title="commandes_clavier">
<polygon fill="white" stroke="black" points="727,-293 727,-317 831,-317 831,-293 727,-293"/>
<text text-anchor="middle" x="779" y="-304" font-family="Helvetica,sans-Serif" font-size="10.00">commandes_clavier</text>
</a>
</g>
<!-- Node9&#45;&gt;Node10 -->
<g id="edge18" class="edge"><title>Node9&#45;&gt;Node10</title>
<path fill="none" stroke="midnightblue" d="M697.794,-305C707.268,-305 717.161,-305 726.651,-305"/>
<polygon fill="midnightblue" stroke="midnightblue" points="697.717,-301.5 687.717,-305 697.717,-308.5 697.717,-301.5"/>
</g>
<!-- Node10&#45;&gt;Node4 -->
<g id="edge20" class="edge"><title>Node10&#45;&gt;Node4</title>
<path fill="none" stroke="midnightblue" d="M841.664,-305C857.516,-305 874.147,-305 888.648,-305"/>
<polygon fill="midnightblue" stroke="midnightblue" points="841.389,-301.5 831.389,-305 841.389,-308.5 841.389,-301.5"/>
</g>
<!-- Node12 -->
<g id="node24" class="node"><title>Node12</title>
<a xlink:href="graphics__rebuild1_8cpp.html#ac2eae1e03fb72cc734ffbcef566483bf" target="_top" xlink:title="Boxes">
<polygon fill="white" stroke="black" points="1664,-211 1664,-235 1708,-235 1708,-211 1664,-211"/>
<text text-anchor="middle" x="1686" y="-222" font-family="Helvetica,sans-Serif" font-size="10.00">Boxes</text>
</a>
</g>
<!-- Node11&#45;&gt;Node12 -->
<g id="edge24" class="edge"><title>Node11&#45;&gt;Node12</title>
<path fill="none" stroke="midnightblue" d="M1244.42,-267.479C1326.92,-270.266 1491.72,-271.307 1628,-244 1640.18,-241.559 1653.23,-237.019 1663.86,-232.782"/>
<polygon fill="midnightblue" stroke="midnightblue" points="1244.41,-263.977 1234.29,-267.114 1244.16,-270.972 1244.41,-263.977"/>
</g>
<!-- Node13 -->
<g id="node26" class="node"><title>Node13</title>
<a xlink:href="_m_a_i_n__avec__objets_8cpp.html#ade8d4ba65d55c94f8ee277829d722155" target="_top" xlink:title="main_actions_on_screen">
<polygon fill="white" stroke="black" points="1744.5,-211 1744.5,-235 1869.5,-235 1869.5,-211 1744.5,-211"/>
<text text-anchor="middle" x="1807" y="-222" font-family="Helvetica,sans-Serif" font-size="10.00">main_actions_on_screen</text>
</a>
</g>
<!-- Node12&#45;&gt;Node13 -->
<g id="edge26" class="edge"><title>Node12&#45;&gt;Node13</title>
<path fill="none" stroke="midnightblue" d="M1718.24,-223C1726.32,-223 1735.26,-223 1744.27,-223"/>
<polygon fill="midnightblue" stroke="midnightblue" points="1718.19,-219.5 1708.19,-223 1718.19,-226.5 1718.19,-219.5"/>
</g>
<!-- Node13&#45;&gt;Node5 -->
<g id="edge28" class="edge"><title>Node13&#45;&gt;Node5</title>
<path fill="none" stroke="midnightblue" d="M1879.84,-210.655C1889.34,-209.045 1898.33,-207.521 1905.75,-206.263"/>
<polygon fill="midnightblue" stroke="midnightblue" points="1879.07,-207.234 1869.8,-212.356 1880.24,-214.135 1879.07,-207.234"/>
</g>
<!-- Node14&#45;&gt;Node8 -->
<g id="edge32" class="edge"><title>Node14&#45;&gt;Node8</title>
<path fill="none" stroke="midnightblue" d="M395.876,-291.651C410.193,-292.524 425.483,-293.456 439.814,-294.33"/>
<polygon fill="midnightblue" stroke="midnightblue" points="395.845,-288.143 385.65,-291.027 395.419,-295.13 395.845,-288.143"/>
</g>
<!-- Node15&#45;&gt;Node8 -->
<g id="edge36" class="edge"><title>Node15&#45;&gt;Node8</title>
<path fill="none" stroke="midnightblue" d="M378.505,-252.746C384.389,-254.825 390.35,-256.952 396,-259 420.293,-267.805 447.649,-278.078 468.205,-285.869"/>
<polygon fill="midnightblue" stroke="midnightblue" points="379.338,-249.329 368.743,-249.313 377.016,-255.932 379.338,-249.329"/>
</g>
<!-- Node16&#45;&gt;Node8 -->
<g id="edge40" class="edge"><title>Node16&#45;&gt;Node8</title>
<path fill="none" stroke="midnightblue" d="M389.231,-212.972C391.541,-214.292 393.807,-215.638 396,-217 430.407,-238.379 466.952,-268.916 486.231,-285.727"/>
<polygon fill="midnightblue" stroke="midnightblue" points="390.617,-209.741 380.163,-208.015 387.259,-215.883 390.617,-209.741"/>
</g>
<!-- Node17&#45;&gt;Node8 -->
<g id="edge44" class="edge"><title>Node17&#45;&gt;Node8</title>
<path fill="none" stroke="midnightblue" d="M372.281,-146.835C380.549,-149.866 388.963,-153.841 396,-159 444.372,-194.459 480.384,-258.783 494.023,-285.669"/>
<polygon fill="midnightblue" stroke="midnightblue" points="373.326,-143.494 362.733,-143.697 371.14,-150.144 373.326,-143.494"/>
</g>
<!-- Node18&#45;&gt;Node8 -->
<g id="edge48" class="edge"><title>Node18&#45;&gt;Node8</title>
<path fill="none" stroke="midnightblue" d="M390.541,-112.983C392.447,-114.231 394.275,-115.568 396,-117 453.717,-164.925 486.092,-253.688 496.372,-285.912"/>
<polygon fill="midnightblue" stroke="midnightblue" points="392.213,-109.908 381.781,-108.062 388.785,-116.011 392.213,-109.908"/>
</g>
<!-- Node19&#45;&gt;Node8 -->
<g id="edge52" class="edge"><title>Node19&#45;&gt;Node8</title>
<path fill="none" stroke="midnightblue" d="M391.333,-71.2469C392.965,-72.4177 394.527,-73.6671 396,-75 463.15,-135.767 490.405,-248.82 497.79,-285.887"/>
<polygon fill="midnightblue" stroke="midnightblue" points="393.053,-68.1972 382.684,-66.0224 389.434,-74.1889 393.053,-68.1972"/>
</g>
<!-- Node20&#45;&gt;Node8 -->
<g id="edge56" class="edge"><title>Node20&#45;&gt;Node8</title>
<path fill="none" stroke="midnightblue" d="M392.006,-558.41C393.401,-557.34 394.737,-556.204 396,-555 400.834,-550.392 475.494,-360.508 495.24,-310.152"/>
<polygon fill="midnightblue" stroke="midnightblue" points="390.012,-555.531 383.466,-563.862 393.779,-561.431 390.012,-555.531"/>
</g>
<!-- Node21&#45;&gt;Node8 -->
<g id="edge60" class="edge"><title>Node21&#45;&gt;Node8</title>
<path fill="none" stroke="midnightblue" d="M393.025,-499.711C394.049,-498.832 395.042,-497.928 396,-497 454.226,-440.571 486.491,-344.468 496.543,-310.413"/>
<polygon fill="midnightblue" stroke="midnightblue" points="390.568,-497.179 384.668,-505.979 394.768,-502.779 390.568,-497.179"/>
</g>
<!-- Node22&#45;&gt;Node8 -->
<g id="edge64" class="edge"><title>Node22&#45;&gt;Node8</title>
<path fill="none" stroke="midnightblue" d="M391.82,-442.26C393.257,-441.204 394.653,-440.118 396,-439 442.578,-400.341 479.585,-336.584 493.756,-310.108"/>
<polygon fill="midnightblue" stroke="midnightblue" points="389.626,-439.516 383.233,-447.964 393.499,-445.347 389.626,-439.516"/>
</g>
<!-- Node23&#45;&gt;Node8 -->
<g id="edge68" class="edge"><title>Node23&#45;&gt;Node8</title>
<path fill="none" stroke="midnightblue" d="M387.117,-401.835C390.188,-400.338 393.175,-398.727 396,-397 435.985,-372.555 473.33,-330.622 490.348,-310.07"/>
<polygon fill="midnightblue" stroke="midnightblue" points="385.45,-398.746 377.722,-405.994 388.283,-405.147 385.45,-398.746"/>
</g>
<!-- Node25 -->
<g id="node62" class="node"><title>Node25</title>
<a xlink:href="midi__13_8cpp.html#a6dff3d42682b58cc0a9875ee30fb4cd4" target="_top" xlink:title="do_midi_job">
<polygon fill="white" stroke="black" points="302,-0 302,-24 370,-24 370,-0 302,-0"/>
<text text-anchor="middle" x="336" y="-11" font-family="Helvetica,sans-Serif" font-size="10.00">do_midi_job</text>
</a>
</g>
<!-- Node24&#45;&gt;Node25 -->
<g id="edge74" class="edge"><title>Node24&#45;&gt;Node25</title>
<path fill="none" stroke="midnightblue" d="M191.669,-132.061C207.499,-105.456 238.191,-59.7851 276,-33 283.655,-27.5772 292.841,-23.4403 301.698,-20.3333"/>
<polygon fill="midnightblue" stroke="midnightblue" points="188.514,-130.524 186.523,-140.93 194.569,-134.036 188.514,-130.524"/>
</g>
<!-- Node26 -->
<g id="node64" class="node"><title>Node26</title>
<a xlink:href="midi__13_8cpp.html#a6bedf9750195224914cd87c4e73ab626" target="_top" xlink:title="ventilate_midi_to_midiarray">
<polygon fill="white" stroke="black" points="432.5,-19 432.5,-43 567.5,-43 567.5,-19 432.5,-19"/>
<text text-anchor="middle" x="500" y="-30" font-family="Helvetica,sans-Serif" font-size="10.00">ventilate_midi_to_midiarray</text>
</a>
</g>
<!-- Node25&#45;&gt;Node26 -->
<g id="edge76" class="edge"><title>Node25&#45;&gt;Node26</title>
<path fill="none" stroke="midnightblue" d="M380.467,-17.1516C396.397,-18.9972 414.737,-21.1219 432.192,-23.1442"/>
<polygon fill="midnightblue" stroke="midnightblue" points="380.716,-13.6572 370.38,-15.983 379.911,-20.6107 380.716,-13.6572"/>
</g>
<!-- Node27 -->
<g id="node66" class="node"><title>Node27</title>
<a xlink:href="midi__13_8cpp.html#afa49dd5668303c2448676c8243737c2d" target="_top" xlink:title="simulate_midi">
<polygon fill="white" stroke="black" points="607.5,-19 607.5,-43 684.5,-43 684.5,-19 607.5,-19"/>
<text text-anchor="middle" x="646" y="-30" font-family="Helvetica,sans-Serif" font-size="10.00">simulate_midi</text>
</a>
</g>
<!-- Node26&#45;&gt;Node27 -->
<g id="edge78" class="edge"><title>Node26&#45;&gt;Node27</title>
<path fill="none" stroke="midnightblue" d="M578.051,-31C588.216,-31 598.25,-31 607.36,-31"/>
<polygon fill="midnightblue" stroke="midnightblue" points="577.871,-27.5001 567.871,-31 577.871,-34.5001 577.871,-27.5001"/>
</g>
<!-- Node31 -->
<g id="node76" class="node"><title>Node31</title>
<a xlink:href="midi__13_8cpp.html#a4104c2ae7e71376ad9dc78929450dc51" target="_top" xlink:title="EvAquire">
<polygon fill="white" stroke="black" points="618,-94 618,-118 674,-118 674,-94 618,-94"/>
<text text-anchor="middle" x="646" y="-105" font-family="Helvetica,sans-Serif" font-size="10.00">EvAquire</text>
</a>
</g>
<!-- Node26&#45;&gt;Node31 -->
<g id="edge90" class="edge"><title>Node26&#45;&gt;Node31</title>
<path fill="none" stroke="midnightblue" d="M532.619,-47.7562C559.933,-61.7873 598.251,-81.4716 622.601,-93.9799"/>
<polygon fill="midnightblue" stroke="midnightblue" points="533.952,-44.5062 523.457,-43.05 530.753,-50.7327 533.952,-44.5062"/>
</g>
<!-- Node28 -->
<g id="node68" class="node"><title>Node28</title>
<a xlink:href="arduino__core__6___u_n_o_8cpp.html#ae72d1a8d74d9ab5515962e03e7e664d6" target="_top" xlink:title="arduino_do_analog_in\l_whitecat">
<polygon fill="white" stroke="black" points="724,-8 724,-48 834,-48 834,-8 724,-8"/>
<text text-anchor="start" x="732" y="-35" font-family="Helvetica,sans-Serif" font-size="10.00">arduino_do_analog_in</text>
<text text-anchor="middle" x="779" y="-19" font-family="Helvetica,sans-Serif" font-size="10.00">_whitecat</text>
</a>
</g>
<!-- Node27&#45;&gt;Node28 -->
<g id="edge80" class="edge"><title>Node27&#45;&gt;Node28</title>
<path fill="none" stroke="midnightblue" d="M695.056,-29.8935C704.338,-29.6841 714.108,-29.4637 723.57,-29.2503"/>
<polygon fill="midnightblue" stroke="midnightblue" points="694.745,-26.3995 684.827,-30.1242 694.903,-33.3977 694.745,-26.3995"/>
</g>
<!-- Node30 -->
<g id="node73" class="node"><title>Node30</title>
<a xlink:href="arduino__core__6___u_n_o_8cpp.html#a219226c1cd6cc17c78e62fd4445bb445" target="_top" xlink:title="arduino_do_digital\l_in_whitecat">
<polygon fill="white" stroke="black" points="731.5,-66 731.5,-106 826.5,-106 826.5,-66 731.5,-66"/>
<text text-anchor="start" x="739.5" y="-93" font-family="Helvetica,sans-Serif" font-size="10.00">arduino_do_digital</text>
<text text-anchor="middle" x="779" y="-77" font-family="Helvetica,sans-Serif" font-size="10.00">_in_whitecat</text>
</a>
</g>
<!-- Node27&#45;&gt;Node30 -->
<g id="edge86" class="edge"><title>Node27&#45;&gt;Node30</title>
<path fill="none" stroke="midnightblue" d="M684.447,-46.899C699.082,-52.9513 715.937,-59.9215 731.327,-66.2854"/>
<polygon fill="midnightblue" stroke="midnightblue" points="685.766,-43.6572 675.187,-43.07 683.091,-50.1259 685.766,-43.6572"/>
</g>
<!-- Node29 -->
<g id="node70" class="node"><title>Node29</title>
<a xlink:href="_m_a_i_n__avec__objets_8cpp.html#ace9c8a9b37c6087c3cffef442d71d70e" target="_top" xlink:title="dixiemes_de_secondes">
<polygon fill="white" stroke="black" points="870.5,-74 870.5,-98 989.5,-98 989.5,-74 870.5,-74"/>
<text text-anchor="middle" x="930" y="-85" font-family="Helvetica,sans-Serif" font-size="10.00">dixiemes_de_secondes</text>
</a>
</g>
<!-- Node28&#45;&gt;Node29 -->
<g id="edge82" class="edge"><title>Node28&#45;&gt;Node29</title>
<path fill="none" stroke="midnightblue" d="M840.956,-51.7977C860.704,-59.3831 881.731,-67.4596 898.39,-73.8584"/>
<polygon fill="midnightblue" stroke="midnightblue" points="841.979,-48.4413 831.389,-48.1228 839.469,-54.9758 841.979,-48.4413"/>
</g>
<!-- Node29&#45;&gt;Node5 -->
<g id="edge84" class="edge"><title>Node29&#45;&gt;Node5</title>
<path fill="none" stroke="midnightblue" d="M999.829,-87.6454C1052.61,-88.7483 1126.85,-90 1192,-90 1192,-90 1192,-90 1686,-90 1779.63,-90 1875.8,-161.756 1911.01,-190.907"/>
<polygon fill="midnightblue" stroke="midnightblue" points="999.64,-84.1406 989.568,-87.4272 999.491,-91.1391 999.64,-84.1406"/>
</g>
<!-- Node30&#45;&gt;Node29 -->
<g id="edge88" class="edge"><title>Node30&#45;&gt;Node29</title>
<path fill="none" stroke="midnightblue" d="M837.043,-86C847.948,-86 859.367,-86 870.321,-86"/>
<polygon fill="midnightblue" stroke="midnightblue" points="836.777,-82.5001 826.777,-86 836.777,-89.5001 836.777,-82.5001"/>
</g>
<!-- Node32 -->
<g id="node78" class="node"><title>Node32</title>
<a xlink:href="midi__13_8cpp.html#a831f1dfc7870ae4f6c64a0e65fbaf3ff" target="_top" xlink:title="Display">
<polygon fill="white" stroke="black" points="754,-124 754,-148 804,-148 804,-124 754,-124"/>
<text text-anchor="middle" x="779" y="-135" font-family="Helvetica,sans-Serif" font-size="10.00">Display</text>
</a>
</g>
<!-- Node31&#45;&gt;Node32 -->
<g id="edge92" class="edge"><title>Node31&#45;&gt;Node32</title>
<path fill="none" stroke="midnightblue" d="M684.094,-114.593C706.535,-119.654 734.289,-125.915 753.974,-130.355"/>
<polygon fill="midnightblue" stroke="midnightblue" points="684.731,-111.148 674.206,-112.362 683.191,-117.977 684.731,-111.148"/>
</g>
<!-- Node33 -->
<g id="node80" class="node"><title>Node33</title>
<a xlink:href="midi__13_8cpp.html#aa4aeee5088a4a5462566dfee5c9cc71f" target="_top" xlink:title="DisplayTask">
<polygon fill="white" stroke="black" points="894.5,-122 894.5,-146 965.5,-146 965.5,-122 894.5,-122"/>
<text text-anchor="middle" x="930" y="-133" font-family="Helvetica,sans-Serif" font-size="10.00">DisplayTask</text>
</a>
</g>
<!-- Node32&#45;&gt;Node33 -->
<g id="edge94" class="edge"><title>Node32&#45;&gt;Node33</title>
<path fill="none" stroke="midnightblue" d="M814.423,-135.531C838.533,-135.211 870.32,-134.79 894.456,-134.471"/>
<polygon fill="midnightblue" stroke="midnightblue" points="814.227,-132.033 804.274,-135.665 814.32,-139.032 814.227,-132.033"/>
</g>
<!-- Node35 -->
<g id="node85" class="node"><title>Node35</title>
<a xlink:href="midi___c_o_r_e_8cpp.html#a6fcb4c2efe85f50488d7aeeef1fc0a3e" target="_top" xlink:title="ReceiveEvents">
<polygon fill="white" stroke="black" points="888.5,-164 888.5,-188 971.5,-188 971.5,-164 888.5,-164"/>
<text text-anchor="middle" x="930" y="-175" font-family="Helvetica,sans-Serif" font-size="10.00">ReceiveEvents</text>
</a>
</g>
<!-- Node32&#45;&gt;Node35 -->
<g id="edge100" class="edge"><title>Node32&#45;&gt;Node35</title>
<path fill="none" stroke="midnightblue" d="M813.961,-145.261C836.156,-151.141 864.997,-158.781 888.372,-164.973"/>
<polygon fill="midnightblue" stroke="midnightblue" points="814.837,-141.873 804.274,-142.695 813.044,-148.639 814.837,-141.873"/>
</g>
<!-- Node34 -->
<g id="node82" class="node"><title>Node34</title>
<a xlink:href="midi___c_o_r_e_8cpp.html#a7d0f82d882071792d6a2df51ef13ec55" target="_top" xlink:title="ReceivePolling">
<polygon fill="white" stroke="black" points="1026,-122 1026,-146 1108,-146 1108,-122 1026,-122"/>
<text text-anchor="middle" x="1067" y="-133" font-family="Helvetica,sans-Serif" font-size="10.00">ReceivePolling</text>
</a>
</g>
<!-- Node33&#45;&gt;Node34 -->
<g id="edge96" class="edge"><title>Node33&#45;&gt;Node34</title>
<path fill="none" stroke="midnightblue" d="M975.91,-134C992.021,-134 1010.01,-134 1025.72,-134"/>
<polygon fill="midnightblue" stroke="midnightblue" points="975.638,-130.5 965.638,-134 975.637,-137.5 975.638,-130.5"/>
</g>
<!-- Node34&#45;&gt;Node34 -->
<g id="edge98" class="edge"><title>Node34&#45;&gt;Node34</title>
<path fill="none" stroke="midnightblue" d="M1044.51,-156.001C1046.81,-160.647 1054.31,-164 1067,-164 1087.83,-164 1094.66,-154.972 1087.5,-146.014"/>
<polygon fill="midnightblue" stroke="midnightblue" points="1047.98,-156.504 1046.5,-146.014 1041.12,-155.14 1047.98,-156.504"/>
</g>
<!-- Node35&#45;&gt;Node34 -->
<g id="edge102" class="edge"><title>Node35&#45;&gt;Node34</title>
<path fill="none" stroke="midnightblue" d="M978.988,-160.982C994.991,-156.076 1012.54,-150.695 1027.74,-146.037"/>
<polygon fill="midnightblue" stroke="midnightblue" points="977.794,-157.687 969.259,-163.964 979.845,-164.38 977.794,-157.687"/>
</g>
<!-- Node36 -->
<g id="node88" class="node"><title>Node36</title>
<a xlink:href="midi___c_o_r_e_8cpp.html#a0ccf480a33424e626f88d109d53d8366" target="_top" xlink:title="InitMidi">
<polygon fill="white" stroke="black" points="1043,-182 1043,-206 1091,-206 1091,-182 1043,-182"/>
<text text-anchor="middle" x="1067" y="-193" font-family="Helvetica,sans-Serif" font-size="10.00">InitMidi</text>
</a>
</g>
<!-- Node35&#45;&gt;Node36 -->
<g id="edge104" class="edge"><title>Node35&#45;&gt;Node36</title>
<path fill="none" stroke="midnightblue" d="M981.927,-182.823C1002.89,-185.577 1026.06,-188.621 1042.92,-190.836"/>
<polygon fill="midnightblue" stroke="midnightblue" points="982.22,-179.331 971.849,-181.498 981.308,-186.271 982.22,-179.331"/>
</g>
<!-- Node36&#45;&gt;Node5 -->
<g id="edge106" class="edge"><title>Node36&#45;&gt;Node5</title>
<path fill="none" stroke="midnightblue" d="M1101.29,-191.535C1149.45,-188.292 1239.85,-183 1317,-183 1317,-183 1317,-183 1686,-183 1768.03,-183 1865.34,-194.844 1905.84,-200.303"/>
<polygon fill="midnightblue" stroke="midnightblue" points="1100.86,-188.057 1091.12,-192.233 1101.33,-195.041 1100.86,-188.057"/>
</g>
<!-- Node37 -->
<g id="node91" class="node"><title>Node37</title>
<a xlink:href="midi__13_8cpp.html#ac7a306aa81e374b447e7341d4d3a3eea" target="_top" xlink:title="midipage_devices">
<polygon fill="white" stroke="black" points="1144.5,-211 1144.5,-235 1239.5,-235 1239.5,-211 1144.5,-211"/>
<text text-anchor="middle" x="1192" y="-222" font-family="Helvetica,sans-Serif" font-size="10.00">midipage_devices</text>
</a>
</g>
<!-- Node36&#45;&gt;Node37 -->
<g id="edge108" class="edge"><title>Node36&#45;&gt;Node37</title>
<path fill="none" stroke="midnightblue" d="M1100.86,-201.855C1114.26,-204.965 1129.91,-208.595 1144.42,-211.961"/>
<polygon fill="midnightblue" stroke="midnightblue" points="1101.63,-198.442 1091.1,-199.591 1100.05,-205.261 1101.63,-198.442"/>
</g>
<!-- Node38 -->
<g id="node93" class="node"><title>Node38</title>
<a xlink:href="midi__13_8cpp.html#a8f70acacad6eaba8867bdd80dda5e277" target="_top" xlink:title="do_midi_config">
<polygon fill="white" stroke="black" points="1276,-211 1276,-235 1358,-235 1358,-211 1276,-211"/>
<text text-anchor="middle" x="1317" y="-222" font-family="Helvetica,sans-Serif" font-size="10.00">do_midi_config</text>
</a>
</g>
<!-- Node37&#45;&gt;Node38 -->
<g id="edge110" class="edge"><title>Node37&#45;&gt;Node38</title>
<path fill="none" stroke="midnightblue" d="M1249.77,-223C1258.5,-223 1267.35,-223 1275.65,-223"/>
<polygon fill="midnightblue" stroke="midnightblue" points="1249.61,-219.5 1239.61,-223 1249.61,-226.5 1249.61,-219.5"/>
</g>
<!-- Node39 -->
<g id="node95" class="node"><title>Node39</title>
<a xlink:href="_c_f_g__config__panel__8_8cpp.html#ad39c46e2fb3a3ba7ea0460140ead4f96" target="_top" xlink:title="do_panel_config">
<polygon fill="white" stroke="black" points="1394.5,-211 1394.5,-235 1481.5,-235 1481.5,-211 1394.5,-211"/>
<text text-anchor="middle" x="1438" y="-222" font-family="Helvetica,sans-Serif" font-size="10.00">do_panel_config</text>
</a>
</g>
<!-- Node38&#45;&gt;Node39 -->
<g id="edge112" class="edge"><title>Node38&#45;&gt;Node39</title>
<path fill="none" stroke="midnightblue" d="M1368.33,-223C1377.01,-223 1385.95,-223 1394.41,-223"/>
<polygon fill="midnightblue" stroke="midnightblue" points="1368.3,-219.5 1358.3,-223 1368.3,-226.5 1368.3,-219.5"/>
</g>
<!-- Node40 -->
<g id="node97" class="node"><title>Node40</title>
<a xlink:href="_c_f_g__config__panel__8_8cpp.html#a7968da66bccdba8b864caf6c8435f68e" target="_top" xlink:title="config_general_menu">
<polygon fill="white" stroke="black" points="1518.5,-211 1518.5,-235 1627.5,-235 1627.5,-211 1518.5,-211"/>
<text text-anchor="middle" x="1573" y="-222" font-family="Helvetica,sans-Serif" font-size="10.00">config_general_menu</text>
</a>
</g>
<!-- Node39&#45;&gt;Node40 -->
<g id="edge114" class="edge"><title>Node39&#45;&gt;Node40</title>
<path fill="none" stroke="midnightblue" d="M1492.07,-223C1500.62,-223 1509.47,-223 1518.04,-223"/>
<polygon fill="midnightblue" stroke="midnightblue" points="1491.83,-219.5 1481.83,-223 1491.83,-226.5 1491.83,-219.5"/>
</g>
<!-- Node40&#45;&gt;Node12 -->
<g id="edge116" class="edge"><title>Node40&#45;&gt;Node12</title>
<path fill="none" stroke="midnightblue" d="M1637.75,-223C1647.11,-223 1656.17,-223 1663.86,-223"/>
<polygon fill="midnightblue" stroke="midnightblue" points="1637.51,-219.5 1627.51,-223 1637.51,-226.5 1637.51,-219.5"/>
</g>
<!-- Node41&#45;&gt;Node3 -->
<g id="edge120" class="edge"><title>Node41&#45;&gt;Node3</title>
<path fill="none" stroke="midnightblue" d="M190.374,-450.702C209.917,-490.913 252.342,-574.919 276,-597 279.468,-600.237 283.364,-603.18 287.462,-605.842"/>
<polygon fill="midnightblue" stroke="midnightblue" points="193.425,-448.97 185.924,-441.487 187.121,-452.014 193.425,-448.97"/>
</g>
</g>
</svg>
