<?xml version="1.0" encoding="UTF-8" standalone="no"?>
<!DOCTYPE svg PUBLIC "-//W3C//DTD SVG 1.1//EN"
 "http://www.w3.org/Graphics/SVG/1.1/DTD/svg11.dtd">
<!-- Generated by graphviz version 2.26.3 (20100126.1600)
 -->
<!-- Title: Unselect_other_docks Pages: 1 -->
<!--zoomable 518 -->
<svg id="main" version="1.1" xmlns="http://www.w3.org/2000/svg" xmlns:xlink="http://www.w3.org/1999/xlink" xml:space="preserve" onload="init(evt)">
<style type="text/css"><![CDATA[
.edge:hover path { stroke: red; }
.edge:hover polygon { stroke: red; fill: red; }
]]></style>
<script type="text/javascript"><![CDATA[
var edges = document.getElementsByTagName('g');
if (edges && edges.length) {
  for (var i=0;i<edges.length;i++) {
    if (edges[i].id.substr(0,4)=='edge') {
      edges[i].setAttribute('class','edge');
    }
  }
}
]]></script>
        <defs>
                <circle id="rim" cx="0" cy="0" r="7"/>
                <circle id="rim2" cx="0" cy="0" r="3.5"/>
                <g id="zoomPlus">
                        <use xlink:href="#rim" fill="#404040">
                                <set attributeName="fill" to="#808080" begin="zoomplus.mouseover" end="zoomplus.mouseout"/>
                        </use>
                        <path d="M-4,0h8M0,-4v8" fill="none" stroke="white" stroke-width="1.5" pointer-events="none"/>
                </g>
                <g id="zoomMin">
                        <use xlink:href="#rim" fill="#404040">
                                <set attributeName="fill" to="#808080" begin="zoomminus.mouseover" end="zoomminus.mouseout"/>
                        </use>
                        <path d="M-4,0h8" fill="none" stroke="white" stroke-width="1.5" pointer-events="none"/>
                </g>
                <g id="dirArrow">
                        <path fill="none" stroke="white" stroke-width="1.5" d="M0,-3.0v7 M-2.5,-0.5L0,-3.0L2.5,-0.5"/>
                </g>
               <g id="resetDef">
                       <use xlink:href="#rim2" fill="#404040">
                               <set attributeName="fill" to="#808080" begin="reset.mouseover" end="reset.mouseout"/>
                       </use>
               </g>
        </defs>

<script type="text/javascript">
var viewWidth = 1368;
var viewHeight = 518;
var sectionId = 'dynsection-37';
</script>
<script xlink:href="svgpan.js"/>
<svg id="graph" class="graph">
<g id="viewport">
<title>Unselect_other_docks</title>
<polygon fill="white" stroke="white" points="-4,5 -4,-514 1365,-514 1365,5 -4,5"/>
<!-- Node1 -->
<g id="node1" class="node"><title>Node1</title>
<polygon fill="#bfbfbf" stroke="black" points="0,-294 0,-318 114,-318 114,-294 0,-294"/>
<text text-anchor="middle" x="57" y="-305" font-family="Helvetica,sans-Serif" font-size="10.00">Unselect_other_docks</text>
</g>
<!-- Node2 -->
<g id="node3" class="node"><title>Node2</title>
<a xlink:href="banger__core__8_8cpp.html#a29583c84f980616502ac7c4f99e1bc29" target="_top" xlink:title="Bang_event_back">
<polygon fill="white" stroke="black" points="150.5,-318 150.5,-342 245.5,-342 245.5,-318 150.5,-318"/>
<text text-anchor="middle" x="198" y="-329" font-family="Helvetica,sans-Serif" font-size="10.00">Bang_event_back</text>
</a>
</g>
<!-- Node1&#45;&gt;Node2 -->
<g id="edge2" class="edge"><title>Node1&#45;&gt;Node2</title>
<path fill="none" stroke="midnightblue" d="M124.477,-317.485C133.154,-318.962 141.893,-320.45 150.165,-321.858"/>
<polygon fill="midnightblue" stroke="midnightblue" points="124.796,-313.989 114.35,-315.762 123.621,-320.89 124.796,-313.989"/>
</g>
<!-- Node3 -->
<g id="node5" class="node"><title>Node3</title>
<a xlink:href="banger__core__8_8cpp.html#ae4008269e0575da11cc90e812961ef6f" target="_top" xlink:title="Bang_event">
<polygon fill="white" stroke="black" points="308,-362 308,-386 376,-386 376,-362 308,-362"/>
<text text-anchor="middle" x="342" y="-373" font-family="Helvetica,sans-Serif" font-size="10.00">Bang_event</text>
</a>
</g>
<!-- Node1&#45;&gt;Node3 -->
<g id="edge80" class="edge"><title>Node1&#45;&gt;Node3</title>
<path fill="none" stroke="midnightblue" d="M85.6792,-322.953C103.575,-332.741 127.426,-344.388 150,-351 203.643,-366.713 268.726,-371.716 307.676,-373.294"/>
<polygon fill="midnightblue" stroke="midnightblue" points="87.3376,-319.871 76.902,-318.041 83.9188,-325.979 87.3376,-319.871"/>
</g>
<!-- Node26 -->
<g id="node67" class="node"><title>Node26</title>
<a xlink:href="faders__core__24_8cpp.html#a7a87eef3a5459bdd689c77b5b02957d7" target="_top" xlink:title="do_logical_FaderSpace">
<polygon fill="white" stroke="black" points="283,-486 283,-510 401,-510 401,-486 283,-486"/>
<text text-anchor="middle" x="342" y="-497" font-family="Helvetica,sans-Serif" font-size="10.00">do_logical_FaderSpace</text>
</a>
</g>
<!-- Node1&#45;&gt;Node26 -->
<g id="edge82" class="edge"><title>Node1&#45;&gt;Node26</title>
<path fill="none" stroke="midnightblue" d="M79.8429,-324.65C119.484,-356.526 204.238,-422.537 282,-469 292.329,-475.172 304.168,-481.115 314.586,-485.997"/>
<polygon fill="midnightblue" stroke="midnightblue" points="81.6235,-321.589 71.6454,-318.027 77.2242,-327.034 81.6235,-321.589"/>
</g>
<!-- Node27 -->
<g id="node70" class="node"><title>Node27</title>
<a xlink:href="faders__operations_8cpp.html#a2aebdef821440431b05b1028ca7622ae" target="_top" xlink:title="ClearFader">
<polygon fill="white" stroke="black" points="165.5,-271 165.5,-295 230.5,-295 230.5,-271 165.5,-271"/>
<text text-anchor="middle" x="198" y="-282" font-family="Helvetica,sans-Serif" font-size="10.00">ClearFader</text>
</a>
</g>
<!-- Node1&#45;&gt;Node27 -->
<g id="edge86" class="edge"><title>Node1&#45;&gt;Node27</title>
<path fill="none" stroke="midnightblue" d="M124.629,-294.968C138.829,-292.652 153.185,-290.31 165.386,-288.32"/>
<polygon fill="midnightblue" stroke="midnightblue" points="123.656,-291.581 114.35,-296.645 124.783,-298.489 123.656,-291.581"/>
</g>
<!-- Node33 -->
<g id="node84" class="node"><title>Node33</title>
<a xlink:href="faders__operations_8cpp.html#a3571b5afaa0932ae3302580cd79fc9e2" target="_top" xlink:title="DoDock">
<polygon fill="white" stroke="black" points="171.5,-220 171.5,-244 224.5,-244 224.5,-220 171.5,-220"/>
<text text-anchor="middle" x="198" y="-231" font-family="Helvetica,sans-Serif" font-size="10.00">DoDock</text>
</a>
</g>
<!-- Node1&#45;&gt;Node33 -->
<g id="edge102" class="edge"><title>Node1&#45;&gt;Node33</title>
<path fill="none" stroke="midnightblue" d="M89.1176,-289.144C115.318,-275.393 151.694,-256.303 175.042,-244.049"/>
<polygon fill="midnightblue" stroke="midnightblue" points="87.196,-286.2 79.9679,-293.946 90.449,-292.398 87.196,-286.2"/>
</g>
<!-- Node34 -->
<g id="node87" class="node"><title>Node34</title>
<a xlink:href="faders__operations_8cpp.html#a2d6d1dfe3a86de65bda20275d59814e6" target="_top" xlink:title="DoReport">
<polygon fill="white" stroke="black" points="168.5,-159 168.5,-183 227.5,-183 227.5,-159 168.5,-159"/>
<text text-anchor="middle" x="198" y="-170" font-family="Helvetica,sans-Serif" font-size="10.00">DoReport</text>
</a>
</g>
<!-- Node1&#45;&gt;Node34 -->
<g id="edge106" class="edge"><title>Node1&#45;&gt;Node34</title>
<path fill="none" stroke="midnightblue" d="M74.9911,-286.494C93.3341,-266.88 122.87,-236.041 150,-211 160.522,-201.288 172.955,-190.957 182.53,-183.227"/>
<polygon fill="midnightblue" stroke="midnightblue" points="72.333,-284.212 68.0824,-293.917 77.4573,-288.981 72.333,-284.212"/>
</g>
<!-- Node2&#45;&gt;Node3 -->
<g id="edge4" class="edge"><title>Node2&#45;&gt;Node3</title>
<path fill="none" stroke="midnightblue" d="M247.17,-345.024C267.051,-351.099 289.523,-357.965 307.6,-363.489"/>
<polygon fill="midnightblue" stroke="midnightblue" points="247.935,-341.598 237.349,-342.023 245.889,-348.293 247.935,-341.598"/>
</g>
<!-- Node10 -->
<g id="node20" class="node"><title>Node10</title>
<a xlink:href="i_cat14_8cpp.html#a16285241f82898e7a5f051b03d90b9a3" target="_top" xlink:title="check_button">
<polygon fill="white" stroke="black" points="593.5,-157 593.5,-181 668.5,-181 668.5,-157 593.5,-157"/>
<text text-anchor="middle" x="631" y="-168" font-family="Helvetica,sans-Serif" font-size="10.00">check_button</text>
</a>
</g>
<!-- Node2&#45;&gt;Node10 -->
<g id="edge76" class="edge"><title>Node2&#45;&gt;Node10</title>
<path fill="none" stroke="midnightblue" d="M255.695,-315.937C346.342,-293.536 514.286,-250.681 538,-235 559.364,-220.873 553.222,-204.976 574,-190 579.818,-185.807 586.566,-182.36 593.341,-179.558"/>
<polygon fill="midnightblue" stroke="midnightblue" points="254.71,-312.575 245.839,-318.367 256.386,-319.371 254.71,-312.575"/>
</g>
<!-- Node15 -->
<g id="node33" class="node"><title>Node15</title>
<a xlink:href="midi__13_8cpp.html#a6dff3d42682b58cc0a9875ee30fb4cd4" target="_top" xlink:title="do_midi_job">
<polygon fill="white" stroke="black" points="597,-341 597,-365 665,-365 665,-341 597,-341"/>
<text text-anchor="middle" x="631" y="-352" font-family="Helvetica,sans-Serif" font-size="10.00">do_midi_job</text>
</a>
</g>
<!-- Node2&#45;&gt;Node15 -->
<g id="edge78" class="edge"><title>Node2&#45;&gt;Node15</title>
<path fill="none" stroke="midnightblue" d="M255.781,-333.069C347.365,-337.934 523.044,-347.266 596.931,-351.19"/>
<polygon fill="midnightblue" stroke="midnightblue" points="255.749,-329.563 245.577,-332.527 255.377,-336.553 255.749,-329.563"/>
</g>
<!-- Node22 -->
<g id="node51" class="node"><title>Node22</title>
<a xlink:href="banger__core__8_8cpp.html#a790bd34b44c1055de586eb9f279b3b3e" target="_top" xlink:title="do_go_back_bang">
<polygon fill="white" stroke="black" points="294.5,-163 294.5,-187 389.5,-187 389.5,-163 294.5,-163"/>
<text text-anchor="middle" x="342" y="-174" font-family="Helvetica,sans-Serif" font-size="10.00">do_go_back_bang</text>
</a>
</g>
<!-- Node2&#45;&gt;Node22 -->
<g id="edge58" class="edge"><title>Node2&#45;&gt;Node22</title>
<path fill="none" stroke="midnightblue" d="M235.153,-312.716C239.046,-310.097 242.759,-307.19 246,-304 269.26,-281.108 262.802,-266.392 282,-240 296.455,-220.129 316.279,-199.706 329.114,-187.183"/>
<polygon fill="midnightblue" stroke="midnightblue" points="233.193,-309.811 226.454,-317.986 236.82,-315.798 233.193,-309.811"/>
</g>
<!-- Node25 -->
<g id="node61" class="node"><title>Node25</title>
<a xlink:href="banger__core__8_8cpp.html#af7d3486500e160cd24bc1d25fc8cfdae" target="_top" xlink:title="do_logical_feedback\l_banger">
<polygon fill="white" stroke="black" points="289.5,-420 289.5,-460 394.5,-460 394.5,-420 289.5,-420"/>
<text text-anchor="start" x="297.5" y="-447" font-family="Helvetica,sans-Serif" font-size="10.00">do_logical_feedback</text>
<text text-anchor="middle" x="342" y="-431" font-family="Helvetica,sans-Serif" font-size="10.00">_banger</text>
</a>
</g>
<!-- Node2&#45;&gt;Node25 -->
<g id="edge72" class="edge"><title>Node2&#45;&gt;Node25</title>
<path fill="none" stroke="midnightblue" d="M221.586,-348.403C238.382,-361.471 261.515,-379.394 282,-395 292.772,-403.206 304.694,-412.172 315.054,-419.925"/>
<polygon fill="midnightblue" stroke="midnightblue" points="223.468,-345.433 213.428,-342.05 219.167,-350.956 223.468,-345.433"/>
</g>
<!-- Node4 -->
<g id="node7" class="node"><title>Node4</title>
<a xlink:href="banger__core__8_8cpp.html#a4003a08a1620546de77b118c91d2fd9d" target="_top" xlink:title="do_bang">
<polygon fill="white" stroke="black" points="765.5,-411 765.5,-435 818.5,-435 818.5,-411 765.5,-411"/>
<text text-anchor="middle" x="792" y="-422" font-family="Helvetica,sans-Serif" font-size="10.00">do_bang</text>
</a>
</g>
<!-- Node3&#45;&gt;Node4 -->
<g id="edge6" class="edge"><title>Node3&#45;&gt;Node4</title>
<path fill="none" stroke="midnightblue" d="M386.366,-378.831C479.073,-388.926 690.896,-411.991 765.447,-420.109"/>
<polygon fill="midnightblue" stroke="midnightblue" points="386.513,-375.326 376.192,-377.723 385.755,-382.285 386.513,-375.326"/>
</g>
<!-- Node7 -->
<g id="node13" class="node"><title>Node7</title>
<a xlink:href="banger__core__8_8cpp.html#a4fe16ad483c0c1609d97aeb9a23c74ee" target="_top" xlink:title="do_logical_fenetre\l_banger">
<polygon fill="white" stroke="black" points="440.5,-438 440.5,-478 535.5,-478 535.5,-438 440.5,-438"/>
<text text-anchor="start" x="448.5" y="-465" font-family="Helvetica,sans-Serif" font-size="10.00">do_logical_fenetre</text>
<text text-anchor="middle" x="488" y="-449" font-family="Helvetica,sans-Serif" font-size="10.00">_banger</text>
</a>
</g>
<!-- Node3&#45;&gt;Node7 -->
<g id="edge12" class="edge"><title>Node3&#45;&gt;Node7</title>
<path fill="none" stroke="midnightblue" d="M371.757,-391.12C395.299,-404.665 428.225,-423.609 453.026,-437.878"/>
<polygon fill="midnightblue" stroke="midnightblue" points="373.331,-387.988 362.918,-386.035 369.841,-394.056 373.331,-387.988"/>
</g>
<!-- Node9 -->
<g id="node18" class="node"><title>Node9</title>
<a xlink:href="banger__core__8_8cpp.html#ab405ab53ea444b049e5ffa258498fcb6" target="_top" xlink:title="refresh_banger_wx">
<polygon fill="white" stroke="black" points="438.5,-282 438.5,-306 537.5,-306 537.5,-282 438.5,-282"/>
<text text-anchor="middle" x="488" y="-293" font-family="Helvetica,sans-Serif" font-size="10.00">refresh_banger_wx</text>
</a>
</g>
<!-- Node3&#45;&gt;Node9 -->
<g id="edge18" class="edge"><title>Node3&#45;&gt;Node9</title>
<path fill="none" stroke="midnightblue" d="M373.139,-356.938C401.091,-341.621 441.411,-319.528 466.095,-306.002"/>
<polygon fill="midnightblue" stroke="midnightblue" points="371.262,-353.975 364.174,-361.85 374.626,-360.114 371.262,-353.975"/>
</g>
<!-- Node3&#45;&gt;Node15 -->
<g id="edge56" class="edge"><title>Node3&#45;&gt;Node15</title>
<path fill="none" stroke="midnightblue" d="M386.293,-370.781C444.15,-366.577 544.233,-359.305 596.68,-355.494"/>
<polygon fill="midnightblue" stroke="midnightblue" points="385.722,-367.314 376.002,-371.529 386.229,-374.295 385.722,-367.314"/>
</g>
<!-- Node5 -->
<g id="node9" class="node"><title>Node5</title>
<a xlink:href="_m_a_i_n__avec__objets_8cpp.html#a8e80f54ac804eddce8ed6e45adb1db44" target="_top" xlink:title="ticker_full_loop">
<polygon fill="white" stroke="black" points="896,-166 896,-190 978,-190 978,-166 896,-166"/>
<text text-anchor="middle" x="937" y="-177" font-family="Helvetica,sans-Serif" font-size="10.00">ticker_full_loop</text>
</a>
</g>
<!-- Node4&#45;&gt;Node5 -->
<g id="edge8" class="edge"><title>Node4&#45;&gt;Node5</title>
<path fill="none" stroke="midnightblue" d="M828.009,-409.991C839.483,-404.387 851.414,-396.821 860,-387 913.196,-326.158 930.855,-225.357 935.546,-190.395"/>
<polygon fill="midnightblue" stroke="midnightblue" points="826.244,-406.947 818.561,-414.242 829.117,-413.33 826.244,-406.947"/>
</g>
<!-- Node6 -->
<g id="node11" class="node"><title>Node6</title>
<a xlink:href="_m_a_i_n__avec__objets_8cpp.html#ae66f6b31b5ad750f1fe042a706a4e3d4" target="_top" xlink:title="main">
<polygon fill="white" stroke="black" points="1322,-86 1322,-110 1360,-110 1360,-86 1322,-86"/>
<text text-anchor="middle" x="1341" y="-97" font-family="Helvetica,sans-Serif" font-size="10.00">main</text>
</a>
</g>
<!-- Node5&#45;&gt;Node6 -->
<g id="edge10" class="edge"><title>Node5&#45;&gt;Node6</title>
<path fill="none" stroke="midnightblue" d="M988.264,-173.467C1025.96,-169.77 1078.36,-163.873 1124,-156 1196.78,-143.445 1215.33,-140.447 1286,-119 1298.13,-115.32 1311.41,-110.278 1321.88,-106.056"/>
<polygon fill="midnightblue" stroke="midnightblue" points="987.658,-170.009 978.039,-174.451 988.328,-176.977 987.658,-170.009"/>
</g>
<!-- Node8 -->
<g id="node15" class="node"><title>Node8</title>
<a xlink:href="procs__visuels__rebuild1_8cpp.html#ae710b6e599e321ad5934a90140067054" target="_top" xlink:title="check_graphics_mouse\l_handling">
<polygon fill="white" stroke="black" points="732.5,-338 732.5,-378 851.5,-378 851.5,-338 732.5,-338"/>
<text text-anchor="start" x="740.5" y="-365" font-family="Helvetica,sans-Serif" font-size="10.00">check_graphics_mouse</text>
<text text-anchor="middle" x="792" y="-349" font-family="Helvetica,sans-Serif" font-size="10.00">_handling</text>
</a>
</g>
<!-- Node7&#45;&gt;Node8 -->
<g id="edge14" class="edge"><title>Node7&#45;&gt;Node8</title>
<path fill="none" stroke="midnightblue" d="M545.506,-439.083C598.98,-421.493 678.315,-395.396 732.439,-377.592"/>
<polygon fill="midnightblue" stroke="midnightblue" points="544.24,-435.815 535.834,-442.265 546.427,-442.465 544.24,-435.815"/>
</g>
<!-- Node8&#45;&gt;Node5 -->
<g id="edge16" class="edge"><title>Node8&#45;&gt;Node5</title>
<path fill="none" stroke="midnightblue" d="M827.14,-331.476C838.307,-322.175 850.272,-311.231 860,-300 891.485,-263.651 919.055,-213.2 930.872,-190.247"/>
<polygon fill="midnightblue" stroke="midnightblue" points="824.744,-328.913 819.193,-337.938 829.16,-334.344 824.744,-328.913"/>
</g>
<!-- Node9&#45;&gt;Node10 -->
<g id="edge20" class="edge"><title>Node9&#45;&gt;Node10</title>
<path fill="none" stroke="midnightblue" d="M527.854,-276.524C531.533,-273.983 534.999,-271.146 538,-268 564.355,-240.374 545.952,-215.905 574,-190 579.501,-184.92 586.335,-181.042 593.339,-178.091"/>
<polygon fill="midnightblue" stroke="midnightblue" points="525.719,-273.726 519.003,-281.92 529.363,-279.703 525.719,-273.726"/>
</g>
<!-- Node12 -->
<g id="node25" class="node"><title>Node12</title>
<a xlink:href="keyboard__functions2_8cpp.html#af3dd6697323b10b480719c1612bcf29a" target="_top" xlink:title="key_backward">
<polygon fill="white" stroke="black" points="591,-299 591,-323 671,-323 671,-299 591,-299"/>
<text text-anchor="middle" x="631" y="-310" font-family="Helvetica,sans-Serif" font-size="10.00">key_backward</text>
</a>
</g>
<!-- Node9&#45;&gt;Node12 -->
<g id="edge26" class="edge"><title>Node9&#45;&gt;Node12</title>
<path fill="none" stroke="midnightblue" d="M547.586,-301.084C562.193,-302.82 577.482,-304.638 590.923,-306.236"/>
<polygon fill="midnightblue" stroke="midnightblue" points="547.956,-297.603 537.613,-299.898 547.13,-304.554 547.956,-297.603"/>
</g>
<!-- Node14 -->
<g id="node30" class="node"><title>Node14</title>
<a xlink:href="keyboard__functions2_8cpp.html#a6b73a3669797504ce2e357d9a8b9a2c2" target="_top" xlink:title="key_forward">
<polygon fill="white" stroke="black" points="596,-257 596,-281 666,-281 666,-257 596,-257"/>
<text text-anchor="middle" x="631" y="-268" font-family="Helvetica,sans-Serif" font-size="10.00">key_forward</text>
</a>
</g>
<!-- Node9&#45;&gt;Node14 -->
<g id="edge32" class="edge"><title>Node9&#45;&gt;Node14</title>
<path fill="none" stroke="midnightblue" d="M547.687,-283.565C564.095,-280.697 581.356,-277.679 595.885,-275.139"/>
<polygon fill="midnightblue" stroke="midnightblue" points="546.861,-280.156 537.613,-285.326 548.067,-287.052 546.861,-280.156"/>
</g>
<!-- Node9&#45;&gt;Node15 -->
<g id="edge36" class="edge"><title>Node9&#45;&gt;Node15</title>
<path fill="none" stroke="midnightblue" d="M523.364,-310.227C538.816,-317.161 557.209,-325.205 574,-332 581.43,-335.007 589.472,-338.079 597.108,-340.913"/>
<polygon fill="midnightblue" stroke="midnightblue" points="524.719,-306.999 514.164,-306.075 521.839,-313.379 524.719,-306.999"/>
</g>
<!-- Node21 -->
<g id="node47" class="node"><title>Node21</title>
<a xlink:href="sequentiel__6__core_8cpp.html#a2a71c851cf25565491dd10423bc80380" target="_top" xlink:title="do_logical_Sequenciel\l_Window">
<polygon fill="white" stroke="black" points="574.5,-199 574.5,-239 687.5,-239 687.5,-199 574.5,-199"/>
<text text-anchor="start" x="582.5" y="-226" font-family="Helvetica,sans-Serif" font-size="10.00">do_logical_Sequenciel</text>
<text text-anchor="middle" x="631" y="-210" font-family="Helvetica,sans-Serif" font-size="10.00">_Window</text>
</a>
</g>
<!-- Node9&#45;&gt;Node21 -->
<g id="edge52" class="edge"><title>Node9&#45;&gt;Node21</title>
<path fill="none" stroke="midnightblue" d="M520.445,-277.294C526.303,-274.231 532.345,-271.041 538,-268 554.121,-259.333 557.841,-256.596 574,-248 579.489,-245.08 585.305,-242.05 591.041,-239.097"/>
<polygon fill="midnightblue" stroke="midnightblue" points="518.727,-274.243 511.472,-281.964 521.959,-280.452 518.727,-274.243"/>
</g>
<!-- Node11 -->
<g id="node22" class="node"><title>Node11</title>
<a xlink:href="i_cat14_8cpp.html#aa9772b548765a631d4bae1c14053b4e1" target="_top" xlink:title="DoJobFantastickTouch">
<polygon fill="white" stroke="black" points="733.5,-166 733.5,-190 850.5,-190 850.5,-166 733.5,-166"/>
<text text-anchor="middle" x="792" y="-177" font-family="Helvetica,sans-Serif" font-size="10.00">DoJobFantastickTouch</text>
</a>
</g>
<!-- Node10&#45;&gt;Node11 -->
<g id="edge22" class="edge"><title>Node10&#45;&gt;Node11</title>
<path fill="none" stroke="midnightblue" d="M679.039,-171.685C696.111,-172.64 715.521,-173.725 733.378,-174.723"/>
<polygon fill="midnightblue" stroke="midnightblue" points="678.927,-168.174 668.747,-171.11 678.536,-175.163 678.927,-168.174"/>
</g>
<!-- Node11&#45;&gt;Node5 -->
<g id="edge24" class="edge"><title>Node11&#45;&gt;Node5</title>
<path fill="none" stroke="midnightblue" d="M860.913,-178C872.77,-178 884.754,-178 895.594,-178"/>
<polygon fill="midnightblue" stroke="midnightblue" points="860.559,-174.5 850.559,-178 860.559,-181.5 860.559,-174.5"/>
</g>
<!-- Node13 -->
<g id="node27" class="node"><title>Node13</title>
<a xlink:href="keyboard__routines2_8cpp.html#a8563320b8eab661232619224650de244" target="_top" xlink:title="commandes_clavier">
<polygon fill="white" stroke="black" points="740,-124 740,-148 844,-148 844,-124 740,-124"/>
<text text-anchor="middle" x="792" y="-135" font-family="Helvetica,sans-Serif" font-size="10.00">commandes_clavier</text>
</a>
</g>
<!-- Node12&#45;&gt;Node13 -->
<g id="edge28" class="edge"><title>Node12&#45;&gt;Node13</title>
<path fill="none" stroke="midnightblue" d="M679.918,-296.894C682.876,-294.892 685.614,-292.608 688,-290 729.341,-244.822 681.467,-201.057 724,-157 728.462,-152.378 733.918,-148.767 739.778,-145.947"/>
<polygon fill="midnightblue" stroke="midnightblue" points="678.132,-293.883 671.114,-301.819 681.55,-299.992 678.132,-293.883"/>
</g>
<!-- Node13&#45;&gt;Node5 -->
<g id="edge30" class="edge"><title>Node13&#45;&gt;Node5</title>
<path fill="none" stroke="midnightblue" d="M843.456,-150.904C860.675,-155.892 879.627,-161.382 895.944,-166.108"/>
<polygon fill="midnightblue" stroke="midnightblue" points="844.13,-147.456 833.551,-148.036 842.183,-154.18 844.13,-147.456"/>
</g>
<!-- Node14&#45;&gt;Node13 -->
<g id="edge34" class="edge"><title>Node14&#45;&gt;Node13</title>
<path fill="none" stroke="midnightblue" d="M675.354,-257.057C679.977,-254.578 684.322,-251.592 688,-248 719.118,-217.612 692.081,-186.546 724,-157 728.624,-152.719 734.105,-149.311 739.917,-146.597"/>
<polygon fill="midnightblue" stroke="midnightblue" points="673.863,-253.891 666.221,-261.229 676.771,-260.258 673.863,-253.891"/>
</g>
<!-- Node16 -->
<g id="node35" class="node"><title>Node16</title>
<a xlink:href="midi__13_8cpp.html#a6bedf9750195224914cd87c4e73ab626" target="_top" xlink:title="ventilate_midi_to_midiarray">
<polygon fill="white" stroke="black" points="724.5,-267 724.5,-291 859.5,-291 859.5,-267 724.5,-267"/>
<text text-anchor="middle" x="792" y="-278" font-family="Helvetica,sans-Serif" font-size="10.00">ventilate_midi_to_midiarray</text>
</a>
</g>
<!-- Node15&#45;&gt;Node16 -->
<g id="edge38" class="edge"><title>Node15&#45;&gt;Node16</title>
<path fill="none" stroke="midnightblue" d="M674.435,-337.608C679.045,-335.793 683.64,-333.906 688,-332 716.966,-319.336 749.249,-302.426 770.05,-291.146"/>
<polygon fill="midnightblue" stroke="midnightblue" points="673.105,-334.369 665.02,-341.215 675.61,-340.906 673.105,-334.369"/>
</g>
<!-- Node17 -->
<g id="node37" class="node"><title>Node17</title>
<a xlink:href="midi__13_8cpp.html#afa49dd5668303c2448676c8243737c2d" target="_top" xlink:title="simulate_midi">
<polygon fill="white" stroke="black" points="898.5,-115 898.5,-139 975.5,-139 975.5,-115 898.5,-115"/>
<text text-anchor="middle" x="937" y="-126" font-family="Helvetica,sans-Serif" font-size="10.00">simulate_midi</text>
</a>
</g>
<!-- Node16&#45;&gt;Node17 -->
<g id="edge40" class="edge"><title>Node16&#45;&gt;Node17</title>
<path fill="none" stroke="midnightblue" d="M808.975,-259.028C838.144,-224.717 894.79,-158.124 896,-157 902.852,-150.639 911.059,-144.402 918.324,-139.277"/>
<polygon fill="midnightblue" stroke="midnightblue" points="806.012,-257.11 802.202,-266.996 811.345,-261.643 806.012,-257.11"/>
</g>
<!-- Node18 -->
<g id="node39" class="node"><title>Node18</title>
<a xlink:href="arduino__core__6___u_n_o_8cpp.html#ae72d1a8d74d9ab5515962e03e7e664d6" target="_top" xlink:title="arduino_do_analog_in\l_whitecat">
<polygon fill="white" stroke="black" points="1014,-107 1014,-147 1124,-147 1124,-107 1014,-107"/>
<text text-anchor="start" x="1022" y="-134" font-family="Helvetica,sans-Serif" font-size="10.00">arduino_do_analog_in</text>
<text text-anchor="middle" x="1069" y="-118" font-family="Helvetica,sans-Serif" font-size="10.00">_whitecat</text>
</a>
</g>
<!-- Node17&#45;&gt;Node18 -->
<g id="edge42" class="edge"><title>Node17&#45;&gt;Node18</title>
<path fill="none" stroke="midnightblue" d="M985.687,-127C994.899,-127 1004.6,-127 1013.99,-127"/>
<polygon fill="midnightblue" stroke="midnightblue" points="985.535,-123.5 975.535,-127 985.535,-130.5 985.535,-123.5"/>
</g>
<!-- Node20 -->
<g id="node44" class="node"><title>Node20</title>
<a xlink:href="arduino__core__6___u_n_o_8cpp.html#a219226c1cd6cc17c78e62fd4445bb445" target="_top" xlink:title="arduino_do_digital\l_in_whitecat">
<polygon fill="white" stroke="black" points="1021.5,-49 1021.5,-89 1116.5,-89 1116.5,-49 1021.5,-49"/>
<text text-anchor="start" x="1029.5" y="-76" font-family="Helvetica,sans-Serif" font-size="10.00">arduino_do_digital</text>
<text text-anchor="middle" x="1069" y="-60" font-family="Helvetica,sans-Serif" font-size="10.00">_in_whitecat</text>
</a>
</g>
<!-- Node17&#45;&gt;Node20 -->
<g id="edge48" class="edge"><title>Node17&#45;&gt;Node20</title>
<path fill="none" stroke="midnightblue" d="M973.539,-110.945C988.918,-104.188 1006.98,-96.2505 1023.23,-89.1095"/>
<polygon fill="midnightblue" stroke="midnightblue" points="972.098,-107.755 964.35,-114.982 974.914,-114.164 972.098,-107.755"/>
</g>
<!-- Node19 -->
<g id="node41" class="node"><title>Node19</title>
<a xlink:href="_m_a_i_n__avec__objets_8cpp.html#ace9c8a9b37c6087c3cffef442d71d70e" target="_top" xlink:title="dixiemes_de_secondes">
<polygon fill="white" stroke="black" points="1163.5,-86 1163.5,-110 1282.5,-110 1282.5,-86 1163.5,-86"/>
<text text-anchor="middle" x="1223" y="-97" font-family="Helvetica,sans-Serif" font-size="10.00">dixiemes_de_secondes</text>
</a>
</g>
<!-- Node18&#45;&gt;Node19 -->
<g id="edge44" class="edge"><title>Node18&#45;&gt;Node19</title>
<path fill="none" stroke="midnightblue" d="M1134.12,-114.737C1143.79,-112.916 1153.72,-111.047 1163.27,-109.248"/>
<polygon fill="midnightblue" stroke="midnightblue" points="1133.34,-111.322 1124.16,-116.612 1134.64,-118.201 1133.34,-111.322"/>
</g>
<!-- Node19&#45;&gt;Node6 -->
<g id="edge46" class="edge"><title>Node19&#45;&gt;Node6</title>
<path fill="none" stroke="midnightblue" d="M1292.94,-98C1303.51,-98 1313.61,-98 1321.79,-98"/>
<polygon fill="midnightblue" stroke="midnightblue" points="1292.69,-94.5001 1282.69,-98 1292.69,-101.5 1292.69,-94.5001"/>
</g>
<!-- Node20&#45;&gt;Node19 -->
<g id="edge50" class="edge"><title>Node20&#45;&gt;Node19</title>
<path fill="none" stroke="midnightblue" d="M1126.77,-79.879C1138.76,-82.1371 1151.42,-84.5204 1163.47,-86.7901"/>
<polygon fill="midnightblue" stroke="midnightblue" points="1127.36,-76.4279 1116.88,-78.0168 1126.06,-83.307 1127.36,-76.4279"/>
</g>
<!-- Node21&#45;&gt;Node8 -->
<g id="edge54" class="edge"><title>Node21&#45;&gt;Node8</title>
<path fill="none" stroke="midnightblue" d="M684.436,-245.06C685.659,-246.016 686.85,-246.996 688,-248 709.171,-266.491 705.149,-279.149 724,-300 736.487,-313.812 752.209,-327.419 765.389,-337.979"/>
<polygon fill="midnightblue" stroke="midnightblue" points="686.154,-241.99 675.957,-239.113 682.134,-247.721 686.154,-241.99"/>
</g>
<!-- Node22&#45;&gt;Node10 -->
<g id="edge62" class="edge"><title>Node22&#45;&gt;Node10</title>
<path fill="none" stroke="midnightblue" d="M399.765,-173.801C457.35,-172.605 544.106,-170.804 593.348,-169.782"/>
<polygon fill="midnightblue" stroke="midnightblue" points="399.648,-170.302 389.722,-174.009 399.793,-177.301 399.648,-170.302"/>
</g>
<!-- Node22&#45;&gt;Node20 -->
<g id="edge60" class="edge"><title>Node22&#45;&gt;Node20</title>
<path fill="none" stroke="midnightblue" d="M397.875,-157.438C399.314,-156.359 400.694,-155.214 402,-154 431.445,-126.618 405.506,-94.6839 438,-71 507.654,-20.2313 544.808,-52 631,-52 631,-52 631,-52 792,-52 872.462,-52 965.824,-59.2344 1021.02,-64.2646"/>
<polygon fill="midnightblue" stroke="midnightblue" points="395.71,-154.663 389.08,-162.927 399.417,-160.601 395.71,-154.663"/>
</g>
<!-- Node23 -->
<g id="node55" class="node"><title>Node23</title>
<a xlink:href="keyboard__functions2_8cpp.html#a1069ef07040abfea667ec14eeefe7e56" target="_top" xlink:title="key_go">
<polygon fill="white" stroke="black" points="464,-122 464,-146 512,-146 512,-122 464,-122"/>
<text text-anchor="middle" x="488" y="-133" font-family="Helvetica,sans-Serif" font-size="10.00">key_go</text>
</a>
</g>
<!-- Node22&#45;&gt;Node23 -->
<g id="edge64" class="edge"><title>Node22&#45;&gt;Node23</title>
<path fill="none" stroke="midnightblue" d="M394.917,-160.14C418.532,-153.508 445.186,-146.023 463.901,-140.767"/>
<polygon fill="midnightblue" stroke="midnightblue" points="393.696,-156.847 385.015,-162.92 395.589,-163.586 393.696,-156.847"/>
</g>
<!-- Node24 -->
<g id="node58" class="node"><title>Node24</title>
<a xlink:href="sequentiel__6__core_8cpp.html#a152c03ccf49d8d9a457e048daaa48023" target="_top" xlink:title="do_logical_x1_x2">
<polygon fill="white" stroke="black" points="442,-202 442,-226 534,-226 534,-202 442,-202"/>
<text text-anchor="middle" x="488" y="-213" font-family="Helvetica,sans-Serif" font-size="10.00">do_logical_x1_x2</text>
</a>
</g>
<!-- Node22&#45;&gt;Node24 -->
<g id="edge68" class="edge"><title>Node22&#45;&gt;Node24</title>
<path fill="none" stroke="midnightblue" d="M396.794,-189.637C411.995,-193.697 428.322,-198.059 442.901,-201.953"/>
<polygon fill="midnightblue" stroke="midnightblue" points="397.561,-186.219 386.996,-187.02 395.754,-192.982 397.561,-186.219"/>
</g>
<!-- Node23&#45;&gt;Node13 -->
<g id="edge66" class="edge"><title>Node23&#45;&gt;Node13</title>
<path fill="none" stroke="midnightblue" d="M522.344,-134.226C575.399,-134.575 677.648,-135.248 739.861,-135.657"/>
<polygon fill="midnightblue" stroke="midnightblue" points="522.131,-130.725 512.108,-134.159 522.085,-137.724 522.131,-130.725"/>
</g>
<!-- Node24&#45;&gt;Node21 -->
<g id="edge70" class="edge"><title>Node24&#45;&gt;Node21</title>
<path fill="none" stroke="midnightblue" d="M544.164,-215.964C554.061,-216.31 564.37,-216.67 574.282,-217.017"/>
<polygon fill="midnightblue" stroke="midnightblue" points="544.149,-212.461 534.033,-215.61 543.905,-219.457 544.149,-212.461"/>
</g>
<!-- Node25&#45;&gt;Node7 -->
<g id="edge74" class="edge"><title>Node25&#45;&gt;Node7</title>
<path fill="none" stroke="midnightblue" d="M404.969,-447.763C416.785,-449.22 428.959,-450.721 440.219,-452.109"/>
<polygon fill="midnightblue" stroke="midnightblue" points="405.063,-444.248 394.709,-446.498 404.206,-451.196 405.063,-444.248"/>
</g>
<!-- Node26&#45;&gt;Node8 -->
<g id="edge84" class="edge"><title>Node26&#45;&gt;Node8</title>
<path fill="none" stroke="midnightblue" d="M411.463,-499.827C449.311,-499.397 496.718,-496.529 538,-487 608.455,-470.738 623.915,-457.49 688,-424 695.463,-420.1 733.108,-396.017 760.973,-378.062"/>
<polygon fill="midnightblue" stroke="midnightblue" points="411.033,-496.329 401.054,-499.887 411.074,-503.329 411.033,-496.329"/>
</g>
<!-- Node28 -->
<g id="node72" class="node"><title>Node28</title>
<a xlink:href="logicals__intres_8cpp.html#a74cf9c04c734ab342f88799efbfc4210" target="_top" xlink:title="operations_confirmation">
<polygon fill="white" stroke="black" points="282,-121 282,-145 402,-145 402,-121 282,-121"/>
<text text-anchor="middle" x="342" y="-132" font-family="Helvetica,sans-Serif" font-size="10.00">operations_confirmation</text>
</a>
</g>
<!-- Node27&#45;&gt;Node28 -->
<g id="edge88" class="edge"><title>Node27&#45;&gt;Node28</title>
<path fill="none" stroke="midnightblue" d="M232.749,-265.27C237.649,-261.695 242.277,-257.6 246,-253 275.457,-216.609 248.694,-186.905 282,-154 285.611,-150.432 289.862,-147.468 294.406,-145.007"/>
<polygon fill="midnightblue" stroke="midnightblue" points="230.787,-262.371 224.355,-270.79 234.634,-268.219 230.787,-262.371"/>
</g>
<!-- Node29 -->
<g id="node74" class="node"><title>Node29</title>
<a xlink:href="keyboard__functions2_8cpp.html#a548548066307f816c5021de7d6e4f26a" target="_top" xlink:title="key_affectation">
<polygon fill="white" stroke="black" points="446.5,-80 446.5,-104 529.5,-104 529.5,-80 446.5,-80"/>
<text text-anchor="middle" x="488" y="-91" font-family="Helvetica,sans-Serif" font-size="10.00">key_affectation</text>
</a>
</g>
<!-- Node28&#45;&gt;Node29 -->
<g id="edge90" class="edge"><title>Node28&#45;&gt;Node29</title>
<path fill="none" stroke="midnightblue" d="M394.781,-118.178C411.729,-113.418 430.256,-108.216 446.297,-103.711"/>
<polygon fill="midnightblue" stroke="midnightblue" points="393.696,-114.847 385.015,-120.92 395.589,-121.586 393.696,-114.847"/>
</g>
<!-- Node30 -->
<g id="node77" class="node"><title>Node30</title>
<a xlink:href="logicals__intres_8cpp.html#a85967c22135715eca94d08af2ec1a1fb" target="_top" xlink:title="fenetre_confirm">
<polygon fill="white" stroke="black" points="446,-0 446,-24 530,-24 530,-0 446,-0"/>
<text text-anchor="middle" x="488" y="-11" font-family="Helvetica,sans-Serif" font-size="10.00">fenetre_confirm</text>
</a>
</g>
<!-- Node28&#45;&gt;Node30 -->
<g id="edge94" class="edge"><title>Node28&#45;&gt;Node30</title>
<path fill="none" stroke="midnightblue" d="M359.003,-112.923C377.119,-92.3624 407.356,-60.3352 438,-38 445.116,-32.8133 453.408,-28.0601 461.17,-24.0765"/>
<polygon fill="midnightblue" stroke="midnightblue" points="356.152,-110.869 352.236,-120.714 361.436,-115.459 356.152,-110.869"/>
</g>
<!-- Node29&#45;&gt;Node13 -->
<g id="edge92" class="edge"><title>Node29&#45;&gt;Node13</title>
<path fill="none" stroke="midnightblue" d="M539.662,-99.4774C595.49,-107.558 683.958,-120.362 739.941,-128.465"/>
<polygon fill="midnightblue" stroke="midnightblue" points="540.031,-95.9944 529.632,-98.0258 539.028,-102.922 540.031,-95.9944"/>
</g>
<!-- Node31 -->
<g id="node79" class="node"><title>Node31</title>
<a xlink:href="graphics__rebuild1_8cpp.html#ac2eae1e03fb72cc734ffbcef566483bf" target="_top" xlink:title="Boxes">
<polygon fill="white" stroke="black" points="609,-0 609,-24 653,-24 653,-0 609,-0"/>
<text text-anchor="middle" x="631" y="-11" font-family="Helvetica,sans-Serif" font-size="10.00">Boxes</text>
</a>
</g>
<!-- Node30&#45;&gt;Node31 -->
<g id="edge96" class="edge"><title>Node30&#45;&gt;Node31</title>
<path fill="none" stroke="midnightblue" d="M540.341,-12C563.862,-12 590.369,-12 608.617,-12"/>
<polygon fill="midnightblue" stroke="midnightblue" points="540.131,-8.5001 530.131,-12 540.131,-15.5001 540.131,-8.5001"/>
</g>
<!-- Node32 -->
<g id="node81" class="node"><title>Node32</title>
<a xlink:href="_m_a_i_n__avec__objets_8cpp.html#ade8d4ba65d55c94f8ee277829d722155" target="_top" xlink:title="main_actions_on_screen">
<polygon fill="white" stroke="black" points="1160.5,-40 1160.5,-64 1285.5,-64 1285.5,-40 1160.5,-40"/>
<text text-anchor="middle" x="1223" y="-51" font-family="Helvetica,sans-Serif" font-size="10.00">main_actions_on_screen</text>
</a>
</g>
<!-- Node31&#45;&gt;Node32 -->
<g id="edge98" class="edge"><title>Node31&#45;&gt;Node32</title>
<path fill="none" stroke="midnightblue" d="M663.407,-13.1236C742.321,-16.0158 950.695,-24.5911 1124,-40 1135.81,-41.0503 1148.39,-42.3977 1160.48,-43.808"/>
<polygon fill="midnightblue" stroke="midnightblue" points="663.268,-9.61641 653.148,-12.7531 663.016,-16.6118 663.268,-9.61641"/>
</g>
<!-- Node32&#45;&gt;Node6 -->
<g id="edge100" class="edge"><title>Node32&#45;&gt;Node6</title>
<path fill="none" stroke="midnightblue" d="M1263.39,-67.7434C1283.09,-75.4259 1305.89,-84.3118 1321.65,-90.4572"/>
<polygon fill="midnightblue" stroke="midnightblue" points="1264.59,-64.4571 1254,-64.086 1262.05,-70.9791 1264.59,-64.4571"/>
</g>
<!-- Node33&#45;&gt;Node28 -->
<g id="edge104" class="edge"><title>Node33&#45;&gt;Node28</title>
<path fill="none" stroke="midnightblue" d="M221.432,-213.404C229.402,-206.836 238.25,-199.272 246,-192 262.965,-176.081 262.471,-166.643 282,-154 287.373,-150.521 293.392,-147.541 299.487,-145.012"/>
<polygon fill="midnightblue" stroke="midnightblue" points="219.076,-210.808 213.526,-219.833 223.492,-216.239 219.076,-210.808"/>
</g>
<!-- Node34&#45;&gt;Node28 -->
<g id="edge108" class="edge"><title>Node34&#45;&gt;Node28</title>
<path fill="none" stroke="midnightblue" d="M237.544,-160.565C255.737,-155.764 277.426,-150.04 296.314,-145.056"/>
<polygon fill="midnightblue" stroke="midnightblue" points="236.613,-157.191 227.837,-163.126 238.399,-163.959 236.613,-157.191"/>
</g>
</g>
</svg>
        <g id="navigator" transform="translate(0 0)" fill="#404254">
                <rect fill="#f2f5e9" fill-opacity="0.5" stroke="#606060" stroke-width=".5" x="0" y="0" width="60" height="60"/>
                <use id="zoomplus" xlink:href="#zoomPlus" x="17" y="9" onmousedown="handleZoom(evt,'in')"/>
                <use id="zoomminus" xlink:href="#zoomMin" x="42" y="9" onmousedown="handleZoom(evt,'out')"/>
                <use id="reset" xlink:href="#resetDef" x="30" y="36" onmousedown="handleReset()"/>
                <g id="arrowUp" xlink:href="#dirArrow" transform="translate(30 24)" onmousedown="handlePan(0,-1)">
                  <use xlink:href="#rim" fill="#404040">
                        <set attributeName="fill" to="#808080" begin="arrowUp.mouseover" end="arrowUp.mouseout"/>
                  </use>
                  <path fill="none" stroke="white" stroke-width="1.5" d="M0,-3.0v7 M-2.5,-0.5L0,-3.0L2.5,-0.5"/>
                </g>
                <g id="arrowRight" xlink:href="#dirArrow" transform="rotate(90) translate(36 -43)" onmousedown="handlePan(1,0)">
                  <use xlink:href="#rim" fill="#404040">
                        <set attributeName="fill" to="#808080" begin="arrowRight.mouseover" end="arrowRight.mouseout"/>
                  </use>
                  <path fill="none" stroke="white" stroke-width="1.5" d="M0,-3.0v7 M-2.5,-0.5L0,-3.0L2.5,-0.5"/>
                </g>
                <g id="arrowDown" xlink:href="#dirArrow" transform="rotate(180) translate(-30 -48)" onmousedown="handlePan(0,1)">
                  <use xlink:href="#rim" fill="#404040">
                        <set attributeName="fill" to="#808080" begin="arrowDown.mouseover" end="arrowDown.mouseout"/>
                  </use>
                  <path fill="none" stroke="white" stroke-width="1.5" d="M0,-3.0v7 M-2.5,-0.5L0,-3.0L2.5,-0.5"/>
                </g>
                <g id="arrowLeft" xlink:href="#dirArrow" transform="rotate(270) translate(-36 17)" onmousedown="handlePan(-1,0)">
                  <use xlink:href="#rim" fill="#404040">
                        <set attributeName="fill" to="#808080" begin="arrowLeft.mouseover" end="arrowLeft.mouseout"/>
                  </use>
                  <path fill="none" stroke="white" stroke-width="1.5" d="M0,-3.0v7 M-2.5,-0.5L0,-3.0L2.5,-0.5"/>
                </g>
        </g>
        <svg viewBox="0 0 15 15" width="100%" height="30px" preserveAspectRatio="xMaxYMin meet">
         <g id="arrow_out" transform="scale(0.3 0.3)">
          <a xlink:href="faders__operations_8cpp_ad2bcaffecd9b01aee13cb557da2ab705_icgraph_org.svg" target="_base">
           <rect id="button" ry="5" rx="5" y="6" x="6" height="38" width="38"
                fill="#f2f5e9" fill-opacity="0.5" stroke="#606060" stroke-width="1.0"/>
           <path id="arrow"
             d="M 11.500037,31.436501 C 11.940474,20.09759 22.043105,11.32322 32.158766,21.979434 L 37.068811,17.246167 C 37.068811,17.246167 37.088388,32 37.088388,32 L 22.160133,31.978069 C 22.160133,31.978069 26.997745,27.140456 26.997745,27.140456 C 18.528582,18.264221 13.291696,25.230495 11.500037,31.436501 z"
             style="fill:#404040;"/>
          </a>
         </g>
        </svg>
</svg>
