<?xml version="1.0" encoding="UTF-8" standalone="no"?>
<!DOCTYPE svg PUBLIC "-//W3C//DTD SVG 1.1//EN"
 "http://www.w3.org/Graphics/SVG/1.1/DTD/svg11.dtd">
<!-- Generated by graphviz version 2.26.3 (20100126.1600)
 -->
<!-- Title: affect_to_tracker Pages: 1 -->
<svg width="750pt" height="74pt"
 viewBox="0.00 0.00 750.00 74.00" xmlns="http://www.w3.org/2000/svg" xmlns:xlink="http://www.w3.org/1999/xlink">
<g id="graph1" class="graph" transform="scale(1 1) rotate(0) translate(4 70)">
<title>affect_to_tracker</title>
<polygon fill="white" stroke="white" points="-4,5 -4,-70 747,-70 747,5 -4,5"/>
<!-- Node1 -->
<g id="node1" class="node"><title>Node1</title>
<polygon fill="#bfbfbf" stroke="black" points="0.5,-21 0.5,-45 89.5,-45 89.5,-21 0.5,-21"/>
<text text-anchor="middle" x="45" y="-32" font-family="Helvetica,sans-Serif" font-size="10.00">affect_to_tracker</text>
</g>
<!-- Node2 -->
<g id="node3" class="node"><title>Node2</title>
<a xlink:href="logicals__intres_8cpp.html#a74cf9c04c734ab342f88799efbfc4210" target="_top" xlink:title="operations_confirmation">
<polygon fill="white" stroke="black" points="126,-21 126,-45 246,-45 246,-21 126,-21"/>
<text text-anchor="middle" x="186" y="-32" font-family="Helvetica,sans-Serif" font-size="10.00">operations_confirmation</text>
</a>
</g>
<!-- Node1&#45;&gt;Node2 -->
<g id="edge2" class="edge"><title>Node1&#45;&gt;Node2</title>
<path fill="none" stroke="midnightblue" d="M99.8514,-33C108.406,-33 117.285,-33 125.948,-33"/>
<polygon fill="midnightblue" stroke="midnightblue" points="99.6133,-29.5001 89.6133,-33 99.6132,-36.5001 99.6133,-29.5001"/>
</g>
<!-- Node3 -->
<g id="node5" class="node"><title>Node3</title>
<a xlink:href="keyboard__functions2_8cpp.html#a548548066307f816c5021de7d6e4f26a" target="_top" xlink:title="key_affectation">
<polygon fill="white" stroke="black" points="282.5,-42 282.5,-66 365.5,-66 365.5,-42 282.5,-42"/>
<text text-anchor="middle" x="324" y="-53" font-family="Helvetica,sans-Serif" font-size="10.00">key_affectation</text>
</a>
</g>
<!-- Node2&#45;&gt;Node3 -->
<g id="edge4" class="edge"><title>Node2&#45;&gt;Node3</title>
<path fill="none" stroke="midnightblue" d="M256.19,-43.681C265.12,-45.04 274.024,-46.395 282.303,-47.6548"/>
<polygon fill="midnightblue" stroke="midnightblue" points="256.54,-40.1942 246.127,-42.1498 255.487,-47.1145 256.54,-40.1942"/>
</g>
<!-- Node7 -->
<g id="node13" class="node"><title>Node7</title>
<a xlink:href="logicals__intres_8cpp.html#a85967c22135715eca94d08af2ec1a1fb" target="_top" xlink:title="fenetre_confirm">
<polygon fill="white" stroke="black" points="282,-0 282,-24 366,-24 366,-0 282,-0"/>
<text text-anchor="middle" x="324" y="-11" font-family="Helvetica,sans-Serif" font-size="10.00">fenetre_confirm</text>
</a>
</g>
<!-- Node2&#45;&gt;Node7 -->
<g id="edge12" class="edge"><title>Node2&#45;&gt;Node7</title>
<path fill="none" stroke="midnightblue" d="M256.07,-22.3372C264.894,-20.9944 273.695,-19.6551 281.896,-18.4072"/>
<polygon fill="midnightblue" stroke="midnightblue" points="255.487,-18.8855 246.127,-23.8502 256.54,-25.8058 255.487,-18.8855"/>
</g>
<!-- Node4 -->
<g id="node7" class="node"><title>Node4</title>
<a xlink:href="keyboard__routines2_8cpp.html#a8563320b8eab661232619224650de244" target="_top" xlink:title="commandes_clavier">
<polygon fill="white" stroke="black" points="402,-42 402,-66 506,-66 506,-42 402,-42"/>
<text text-anchor="middle" x="454" y="-53" font-family="Helvetica,sans-Serif" font-size="10.00">commandes_clavier</text>
</a>
</g>
<!-- Node3&#45;&gt;Node4 -->
<g id="edge6" class="edge"><title>Node3&#45;&gt;Node4</title>
<path fill="none" stroke="midnightblue" d="M375.995,-54C384.473,-54 393.258,-54 401.742,-54"/>
<polygon fill="midnightblue" stroke="midnightblue" points="375.848,-50.5001 365.848,-54 375.848,-57.5001 375.848,-50.5001"/>
</g>
<!-- Node5 -->
<g id="node9" class="node"><title>Node5</title>
<a xlink:href="_m_a_i_n__avec__objets_8cpp.html#a8e80f54ac804eddce8ed6e45adb1db44" target="_top" xlink:title="ticker_full_loop">
<polygon fill="white" stroke="black" points="564,-42 564,-66 646,-66 646,-42 564,-42"/>
<text text-anchor="middle" x="605" y="-53" font-family="Helvetica,sans-Serif" font-size="10.00">ticker_full_loop</text>
</a>
</g>
<!-- Node4&#45;&gt;Node5 -->
<g id="edge8" class="edge"><title>Node4&#45;&gt;Node5</title>
<path fill="none" stroke="midnightblue" d="M516.664,-54C532.516,-54 549.147,-54 563.648,-54"/>
<polygon fill="midnightblue" stroke="midnightblue" points="516.389,-50.5001 506.389,-54 516.389,-57.5001 516.389,-50.5001"/>
</g>
<!-- Node6 -->
<g id="node11" class="node"><title>Node6</title>
<a xlink:href="_m_a_i_n__avec__objets_8cpp.html#ae66f6b31b5ad750f1fe042a706a4e3d4" target="_top" xlink:title="main">
<polygon fill="white" stroke="black" points="704,-21 704,-45 742,-45 742,-21 704,-21"/>
<text text-anchor="middle" x="723" y="-32" font-family="Helvetica,sans-Serif" font-size="10.00">main</text>
</a>
</g>
<!-- Node5&#45;&gt;Node6 -->
<g id="edge10" class="edge"><title>Node5&#45;&gt;Node6</title>
<path fill="none" stroke="midnightblue" d="M656.55,-44.8259C673.307,-41.8437 690.879,-38.7164 703.742,-36.4273"/>
<polygon fill="midnightblue" stroke="midnightblue" points="655.503,-41.4572 646.271,-46.6552 656.729,-48.3489 655.503,-41.4572"/>
</g>
<!-- Node8 -->
<g id="node15" class="node"><title>Node8</title>
<a xlink:href="graphics__rebuild1_8cpp.html#ac2eae1e03fb72cc734ffbcef566483bf" target="_top" xlink:title="Boxes">
<polygon fill="white" stroke="black" points="432,-0 432,-24 476,-24 476,-0 432,-0"/>
<text text-anchor="middle" x="454" y="-11" font-family="Helvetica,sans-Serif" font-size="10.00">Boxes</text>
</a>
</g>
<!-- Node7&#45;&gt;Node8 -->
<g id="edge14" class="edge"><title>Node7&#45;&gt;Node8</title>
<path fill="none" stroke="midnightblue" d="M376.4,-12C395.658,-12 416.45,-12 431.66,-12"/>
<polygon fill="midnightblue" stroke="midnightblue" points="376.207,-8.5001 366.207,-12 376.207,-15.5001 376.207,-8.5001"/>
</g>
<!-- Node9 -->
<g id="node17" class="node"><title>Node9</title>
<a xlink:href="_m_a_i_n__avec__objets_8cpp.html#ade8d4ba65d55c94f8ee277829d722155" target="_top" xlink:title="main_actions_on_screen">
<polygon fill="white" stroke="black" points="542.5,-0 542.5,-24 667.5,-24 667.5,-0 542.5,-0"/>
<text text-anchor="middle" x="605" y="-11" font-family="Helvetica,sans-Serif" font-size="10.00">main_actions_on_screen</text>
</a>
</g>
<!-- Node8&#45;&gt;Node9 -->
<g id="edge16" class="edge"><title>Node8&#45;&gt;Node9</title>
<path fill="none" stroke="midnightblue" d="M486.395,-12C502.76,-12 523.187,-12 542.455,-12"/>
<polygon fill="midnightblue" stroke="midnightblue" points="486.281,-8.5001 476.281,-12 486.281,-15.5001 486.281,-8.5001"/>
</g>
<!-- Node9&#45;&gt;Node6 -->
<g id="edge18" class="edge"><title>Node9&#45;&gt;Node6</title>
<path fill="none" stroke="midnightblue" d="M677.837,-24.9626C687.336,-26.6529 696.327,-28.253 703.749,-29.5739"/>
<polygon fill="midnightblue" stroke="midnightblue" points="678.259,-21.4827 667.8,-23.1763 677.032,-28.3744 678.259,-21.4827"/>
</g>
</g>
</svg>
