<?xml version="1.0" encoding="UTF-8" standalone="no"?>
<!DOCTYPE svg PUBLIC "-//W3C//DTD SVG 1.1//EN"
 "http://www.w3.org/Graphics/SVG/1.1/DTD/svg11.dtd">
<!-- Generated by graphviz version 2.26.3 (20100126.1600)
 -->
<!-- Title: Unselect_other_docks Pages: 1 -->
<svg width="2242pt" height="470pt"
 viewBox="0.00 0.00 2242.00 470.00" xmlns="http://www.w3.org/2000/svg" xmlns:xlink="http://www.w3.org/1999/xlink">
<g id="graph1" class="graph" transform="scale(1 1) rotate(0) translate(4 466)">
<title>Unselect_other_docks</title>
<polygon fill="white" stroke="white" points="-4,5 -4,-466 2239,-466 2239,5 -4,5"/>
<!-- Node1 -->
<g id="node1" class="node"><title>Node1</title>
<polygon fill="#bfbfbf" stroke="black" points="0,-341 0,-365 114,-365 114,-341 0,-341"/>
<text text-anchor="middle" x="57" y="-352" font-family="Helvetica,sans-Serif" font-size="10.00">Unselect_other_docks</text>
</g>
<!-- Node2 -->
<g id="node3" class="node"><title>Node2</title>
<a xlink:href="banger__core__8_8cpp.html#a29583c84f980616502ac7c4f99e1bc29" target="_top" xlink:title="Bang_event_back">
<polygon fill="white" stroke="black" points="150.5,-229 150.5,-253 245.5,-253 245.5,-229 150.5,-229"/>
<text text-anchor="middle" x="198" y="-240" font-family="Helvetica,sans-Serif" font-size="10.00">Bang_event_back</text>
</a>
</g>
<!-- Node1&#45;&gt;Node2 -->
<g id="edge2" class="edge"><title>Node1&#45;&gt;Node2</title>
<path fill="none" stroke="midnightblue" d="M79.7094,-334.456C98.4706,-319.191 125.847,-297.044 150,-278 160.576,-269.661 172.576,-260.411 181.932,-253.246"/>
<polygon fill="midnightblue" stroke="midnightblue" points="77.2808,-331.92 71.7381,-340.949 81.7018,-337.347 77.2808,-331.92"/>
</g>
<!-- Node3 -->
<g id="node5" class="node"><title>Node3</title>
<a xlink:href="banger__core__8_8cpp.html#ae4008269e0575da11cc90e812961ef6f" target="_top" xlink:title="Bang_event">
<polygon fill="white" stroke="black" points="308,-296 308,-320 376,-320 376,-296 308,-296"/>
<text text-anchor="middle" x="342" y="-307" font-family="Helvetica,sans-Serif" font-size="10.00">Bang_event</text>
</a>
</g>
<!-- Node1&#45;&gt;Node3 -->
<g id="edge112" class="edge"><title>Node1&#45;&gt;Node3</title>
<path fill="none" stroke="midnightblue" d="M86.4493,-335.947C104.222,-326.627 127.681,-315.989 150,-311 204.17,-298.892 269.094,-301.265 307.869,-304.404"/>
<polygon fill="midnightblue" stroke="midnightblue" points="84.3359,-333.111 77.2037,-340.946 87.6649,-339.269 84.3359,-333.111"/>
</g>
<!-- Node38 -->
<g id="node95" class="node"><title>Node38</title>
<a xlink:href="faders__core__24_8cpp.html#a7a87eef3a5459bdd689c77b5b02957d7" target="_top" xlink:title="do_logical_FaderSpace">
<polygon fill="white" stroke="black" points="283,-424 283,-448 401,-448 401,-424 283,-424"/>
<text text-anchor="middle" x="342" y="-435" font-family="Helvetica,sans-Serif" font-size="10.00">do_logical_FaderSpace</text>
</a>
</g>
<!-- Node1&#45;&gt;Node38 -->
<g id="edge114" class="edge"><title>Node1&#45;&gt;Node38</title>
<path fill="none" stroke="midnightblue" d="M71.8746,-373.255C88.3367,-393.787 116.952,-424.285 150,-437 192.31,-453.279 243.853,-451.979 282.878,-447.184"/>
<polygon fill="midnightblue" stroke="midnightblue" points="74.4804,-370.904 65.586,-365.147 68.9491,-375.194 74.4804,-370.904"/>
</g>
<!-- Node39 -->
<g id="node98" class="node"><title>Node39</title>
<a xlink:href="faders__operations_8cpp.html#a2aebdef821440431b05b1028ca7622ae" target="_top" xlink:title="ClearFader">
<polygon fill="white" stroke="black" points="165.5,-404 165.5,-428 230.5,-428 230.5,-404 165.5,-404"/>
<text text-anchor="middle" x="198" y="-415" font-family="Helvetica,sans-Serif" font-size="10.00">ClearFader</text>
</a>
</g>
<!-- Node1&#45;&gt;Node39 -->
<g id="edge118" class="edge"><title>Node1&#45;&gt;Node39</title>
<path fill="none" stroke="midnightblue" d="M92.603,-369.197C109.905,-377.038 131.014,-386.56 150,-395 156.566,-397.919 163.651,-401.036 170.309,-403.951"/>
<polygon fill="midnightblue" stroke="midnightblue" points="93.9728,-365.975 83.4201,-365.031 91.081,-372.35 93.9728,-365.975"/>
</g>
<!-- Node43 -->
<g id="node108" class="node"><title>Node43</title>
<a xlink:href="faders__operations_8cpp.html#a3571b5afaa0932ae3302580cd79fc9e2" target="_top" xlink:title="DoDock">
<polygon fill="white" stroke="black" points="171.5,-362 171.5,-386 224.5,-386 224.5,-362 171.5,-362"/>
<text text-anchor="middle" x="198" y="-373" font-family="Helvetica,sans-Serif" font-size="10.00">DoDock</text>
</a>
</g>
<!-- Node1&#45;&gt;Node43 -->
<g id="edge130" class="edge"><title>Node1&#45;&gt;Node43</title>
<path fill="none" stroke="midnightblue" d="M124.586,-363.066C141.122,-365.529 157.872,-368.023 171.189,-370.007"/>
<polygon fill="midnightblue" stroke="midnightblue" points="124.757,-359.553 114.35,-361.542 123.725,-366.477 124.757,-359.553"/>
</g>
<!-- Node44 -->
<g id="node111" class="node"><title>Node44</title>
<a xlink:href="faders__operations_8cpp.html#a2d6d1dfe3a86de65bda20275d59814e6" target="_top" xlink:title="DoReport">
<polygon fill="white" stroke="black" points="168.5,-320 168.5,-344 227.5,-344 227.5,-320 168.5,-320"/>
<text text-anchor="middle" x="198" y="-331" font-family="Helvetica,sans-Serif" font-size="10.00">DoReport</text>
</a>
</g>
<!-- Node1&#45;&gt;Node44 -->
<g id="edge134" class="edge"><title>Node1&#45;&gt;Node44</title>
<path fill="none" stroke="midnightblue" d="M124.386,-342.964C139.749,-340.676 155.309,-338.358 168.141,-336.447"/>
<polygon fill="midnightblue" stroke="midnightblue" points="123.725,-339.523 114.35,-344.458 124.757,-346.447 123.725,-339.523"/>
</g>
<!-- Node2&#45;&gt;Node3 -->
<g id="edge4" class="edge"><title>Node2&#45;&gt;Node3</title>
<path fill="none" stroke="midnightblue" d="M231.239,-257.652C246.609,-265.242 265.155,-274.244 282,-282 292.209,-286.701 303.495,-291.654 313.498,-295.961"/>
<polygon fill="midnightblue" stroke="midnightblue" points="232.637,-254.439 222.123,-253.133 229.527,-260.71 232.637,-254.439"/>
</g>
<!-- Node10 -->
<g id="node20" class="node"><title>Node10</title>
<a xlink:href="i_cat14_8cpp.html#a16285241f82898e7a5f051b03d90b9a3" target="_top" xlink:title="check_button">
<polygon fill="white" stroke="black" points="593.5,-28 593.5,-52 668.5,-52 668.5,-28 593.5,-28"/>
<text text-anchor="middle" x="631" y="-39" font-family="Helvetica,sans-Serif" font-size="10.00">check_button</text>
</a>
</g>
<!-- Node2&#45;&gt;Node10 -->
<g id="edge108" class="edge"><title>Node2&#45;&gt;Node10</title>
<path fill="none" stroke="midnightblue" d="M201.091,-218.756C207.863,-179.398 227.971,-98.1443 282,-61 377.537,4.68107 524.788,-15.9566 593.404,-30.671"/>
<polygon fill="midnightblue" stroke="midnightblue" points="197.628,-218.25 199.518,-228.675 204.541,-219.346 197.628,-218.25"/>
</g>
<!-- Node15 -->
<g id="node33" class="node"><title>Node15</title>
<a xlink:href="midi__13_8cpp.html#a6dff3d42682b58cc0a9875ee30fb4cd4" target="_top" xlink:title="do_midi_job">
<polygon fill="white" stroke="black" points="597,-292 597,-316 665,-316 665,-292 597,-292"/>
<text text-anchor="middle" x="631" y="-303" font-family="Helvetica,sans-Serif" font-size="10.00">do_midi_job</text>
</a>
</g>
<!-- Node2&#45;&gt;Node15 -->
<g id="edge110" class="edge"><title>Node2&#45;&gt;Node15</title>
<path fill="none" stroke="midnightblue" d="M255.502,-249.366C347.009,-262.68 522.969,-288.282 596.931,-299.043"/>
<polygon fill="midnightblue" stroke="midnightblue" points="255.977,-245.899 245.577,-247.922 254.969,-252.826 255.977,-245.899"/>
</g>
<!-- Node34 -->
<g id="node79" class="node"><title>Node34</title>
<a xlink:href="banger__core__8_8cpp.html#a790bd34b44c1055de586eb9f279b3b3e" target="_top" xlink:title="do_go_back_bang">
<polygon fill="white" stroke="black" points="294.5,-70 294.5,-94 389.5,-94 389.5,-70 294.5,-70"/>
<text text-anchor="middle" x="342" y="-81" font-family="Helvetica,sans-Serif" font-size="10.00">do_go_back_bang</text>
</a>
</g>
<!-- Node2&#45;&gt;Node34 -->
<g id="edge90" class="edge"><title>Node2&#45;&gt;Node34</title>
<path fill="none" stroke="midnightblue" d="M216.08,-221.037C246.373,-187.588 306.481,-121.219 331.099,-94.0364"/>
<polygon fill="midnightblue" stroke="midnightblue" points="213.179,-219.026 209.06,-228.788 218.367,-223.725 213.179,-219.026"/>
</g>
<!-- Node37 -->
<g id="node89" class="node"><title>Node37</title>
<a xlink:href="banger__core__8_8cpp.html#af7d3486500e160cd24bc1d25fc8cfdae" target="_top" xlink:title="do_logical_feedback\l_banger">
<polygon fill="white" stroke="black" points="289.5,-200 289.5,-240 394.5,-240 394.5,-200 289.5,-200"/>
<text text-anchor="start" x="297.5" y="-227" font-family="Helvetica,sans-Serif" font-size="10.00">do_logical_feedback</text>
<text text-anchor="middle" x="342" y="-211" font-family="Helvetica,sans-Serif" font-size="10.00">_banger</text>
</a>
</g>
<!-- Node2&#45;&gt;Node37 -->
<g id="edge104" class="edge"><title>Node2&#45;&gt;Node37</title>
<path fill="none" stroke="midnightblue" d="M255.599,-232.6C266.722,-230.978 278.323,-229.286 289.281,-227.688"/>
<polygon fill="midnightblue" stroke="midnightblue" points="254.94,-229.159 245.55,-234.066 255.951,-236.086 254.94,-229.159"/>
</g>
<!-- Node4 -->
<g id="node7" class="node"><title>Node4</title>
<a xlink:href="banger__core__8_8cpp.html#a4003a08a1620546de77b118c91d2fd9d" target="_top" xlink:title="do_bang">
<polygon fill="white" stroke="black" points="765.5,-254 765.5,-278 818.5,-278 818.5,-254 765.5,-254"/>
<text text-anchor="middle" x="792" y="-265" font-family="Helvetica,sans-Serif" font-size="10.00">do_bang</text>
</a>
</g>
<!-- Node3&#45;&gt;Node4 -->
<g id="edge6" class="edge"><title>Node3&#45;&gt;Node4</title>
<path fill="none" stroke="midnightblue" d="M386.113,-322.085C454.079,-341.227 587.104,-368.399 688,-325 709.371,-315.808 704.24,-299.278 724,-287 736.594,-279.175 752.322,-274.071 765.479,-270.858"/>
<polygon fill="midnightblue" stroke="midnightblue" points="386.752,-318.626 376.173,-319.211 384.808,-325.351 386.752,-318.626"/>
</g>
<!-- Node7 -->
<g id="node13" class="node"><title>Node7</title>
<a xlink:href="banger__core__8_8cpp.html#a4fe16ad483c0c1609d97aeb9a23c74ee" target="_top" xlink:title="do_logical_fenetre\l_banger">
<polygon fill="white" stroke="black" points="440.5,-200 440.5,-240 535.5,-240 535.5,-200 440.5,-200"/>
<text text-anchor="start" x="448.5" y="-227" font-family="Helvetica,sans-Serif" font-size="10.00">do_logical_fenetre</text>
<text text-anchor="middle" x="488" y="-211" font-family="Helvetica,sans-Serif" font-size="10.00">_banger</text>
</a>
</g>
<!-- Node3&#45;&gt;Node7 -->
<g id="edge12" class="edge"><title>Node3&#45;&gt;Node7</title>
<path fill="none" stroke="midnightblue" d="M370.678,-290.715C394.763,-276.197 429.207,-255.437 454.545,-240.164"/>
<polygon fill="midnightblue" stroke="midnightblue" points="368.752,-287.789 361.995,-295.948 372.366,-293.784 368.752,-287.789"/>
</g>
<!-- Node9 -->
<g id="node18" class="node"><title>Node9</title>
<a xlink:href="banger__core__8_8cpp.html#ab405ab53ea444b049e5ffa258498fcb6" target="_top" xlink:title="refresh_banger_wx">
<polygon fill="white" stroke="black" points="438.5,-116 438.5,-140 537.5,-140 537.5,-116 438.5,-116"/>
<text text-anchor="middle" x="488" y="-127" font-family="Helvetica,sans-Serif" font-size="10.00">refresh_banger_wx</text>
</a>
</g>
<!-- Node3&#45;&gt;Node9 -->
<g id="edge18" class="edge"><title>Node3&#45;&gt;Node9</title>
<path fill="none" stroke="midnightblue" d="M365.409,-289.463C377.687,-278.732 392.175,-264.339 402,-249 427.478,-209.223 405.479,-183.26 438,-149 441.241,-145.586 445.123,-142.704 449.273,-140.277"/>
<polygon fill="midnightblue" stroke="midnightblue" points="363.105,-286.827 357.731,-295.958 367.626,-292.171 363.105,-286.827"/>
</g>
<!-- Node3&#45;&gt;Node15 -->
<g id="edge88" class="edge"><title>Node3&#45;&gt;Node15</title>
<path fill="none" stroke="midnightblue" d="M386.293,-307.387C444.15,-306.586 544.233,-305.201 596.68,-304.475"/>
<polygon fill="midnightblue" stroke="midnightblue" points="385.952,-303.891 376.002,-307.529 386.049,-310.891 385.952,-303.891"/>
</g>
<!-- Node5 -->
<g id="node9" class="node"><title>Node5</title>
<a xlink:href="_m_a_i_n__avec__objets_8cpp.html#a8e80f54ac804eddce8ed6e45adb1db44" target="_top" xlink:title="ticker_full_loop">
<polygon fill="white" stroke="black" points="896,-172 896,-196 978,-196 978,-172 896,-172"/>
<text text-anchor="middle" x="937" y="-183" font-family="Helvetica,sans-Serif" font-size="10.00">ticker_full_loop</text>
</a>
</g>
<!-- Node4&#45;&gt;Node5 -->
<g id="edge8" class="edge"><title>Node4&#45;&gt;Node5</title>
<path fill="none" stroke="midnightblue" d="M828.488,-257.437C838.981,-254.263 850.224,-250.149 860,-245 885.2,-231.728 910.289,-209.813 924.689,-196.18"/>
<polygon fill="midnightblue" stroke="midnightblue" points="827.401,-254.107 818.73,-260.195 829.306,-260.843 827.401,-254.107"/>
</g>
<!-- Node6 -->
<g id="node11" class="node"><title>Node6</title>
<a xlink:href="_m_a_i_n__avec__objets_8cpp.html#ae66f6b31b5ad750f1fe042a706a4e3d4" target="_top" xlink:title="main">
<polygon fill="white" stroke="black" points="2196,-286 2196,-310 2234,-310 2234,-286 2196,-286"/>
<text text-anchor="middle" x="2215" y="-297" font-family="Helvetica,sans-Serif" font-size="10.00">main</text>
</a>
</g>
<!-- Node5&#45;&gt;Node6 -->
<g id="edge10" class="edge"><title>Node5&#45;&gt;Node6</title>
<path fill="none" stroke="midnightblue" d="M988.387,-184C1045.09,-184 1139.06,-184 1220,-184 1220,-184 1220,-184 1976,-184 2069.78,-184 2165.87,-256.391 2201.03,-285.8"/>
<polygon fill="midnightblue" stroke="midnightblue" points="988.244,-180.5 978.244,-184 988.244,-187.5 988.244,-180.5"/>
</g>
<!-- Node8 -->
<g id="node15" class="node"><title>Node8</title>
<a xlink:href="procs__visuels__rebuild1_8cpp.html#ae710b6e599e321ad5934a90140067054" target="_top" xlink:title="check_graphics_mouse\l_handling">
<polygon fill="white" stroke="black" points="732.5,-196 732.5,-236 851.5,-236 851.5,-196 732.5,-196"/>
<text text-anchor="start" x="740.5" y="-223" font-family="Helvetica,sans-Serif" font-size="10.00">check_graphics_mouse</text>
<text text-anchor="middle" x="792" y="-207" font-family="Helvetica,sans-Serif" font-size="10.00">_handling</text>
</a>
</g>
<!-- Node7&#45;&gt;Node8 -->
<g id="edge14" class="edge"><title>Node7&#45;&gt;Node8</title>
<path fill="none" stroke="midnightblue" d="M545.399,-239.108C554.857,-241.553 564.632,-243.666 574,-245 624.161,-252.143 637.801,-251.868 688,-245 702.579,-243.005 717.995,-239.507 732.365,-235.615"/>
<polygon fill="midnightblue" stroke="midnightblue" points="546.257,-235.714 535.688,-236.457 544.413,-242.467 546.257,-235.714"/>
</g>
<!-- Node8&#45;&gt;Node5 -->
<g id="edge16" class="edge"><title>Node8&#45;&gt;Node5</title>
<path fill="none" stroke="midnightblue" d="M861.619,-200.636C873.352,-198.046 885.185,-195.435 895.888,-193.073"/>
<polygon fill="midnightblue" stroke="midnightblue" points="860.825,-197.227 851.814,-202.8 862.334,-204.062 860.825,-197.227"/>
</g>
<!-- Node9&#45;&gt;Node10 -->
<g id="edge20" class="edge"><title>Node9&#45;&gt;Node10</title>
<path fill="none" stroke="midnightblue" d="M508.287,-109.243C524.952,-94.5916 549.691,-74.5152 574,-61 580.083,-57.6178 586.819,-54.5837 593.465,-51.9431"/>
<polygon fill="midnightblue" stroke="midnightblue" points="505.912,-106.672 500.792,-115.947 510.579,-111.889 505.912,-106.672"/>
</g>
<!-- Node12 -->
<g id="node25" class="node"><title>Node12</title>
<a xlink:href="keyboard__functions2_8cpp.html#af3dd6697323b10b480719c1612bcf29a" target="_top" xlink:title="key_backward">
<polygon fill="white" stroke="black" points="591,-112 591,-136 671,-136 671,-112 591,-112"/>
<text text-anchor="middle" x="631" y="-123" font-family="Helvetica,sans-Serif" font-size="10.00">key_backward</text>
</a>
</g>
<!-- Node9&#45;&gt;Node12 -->
<g id="edge26" class="edge"><title>Node9&#45;&gt;Node12</title>
<path fill="none" stroke="midnightblue" d="M548.007,-126.321C562.486,-125.916 577.612,-125.493 590.923,-125.121"/>
<polygon fill="midnightblue" stroke="midnightblue" points="547.511,-122.834 537.613,-126.612 547.707,-129.831 547.511,-122.834"/>
</g>
<!-- Node14 -->
<g id="node30" class="node"><title>Node14</title>
<a xlink:href="keyboard__functions2_8cpp.html#a6b73a3669797504ce2e357d9a8b9a2c2" target="_top" xlink:title="key_forward">
<polygon fill="white" stroke="black" points="596,-154 596,-178 666,-178 666,-154 596,-154"/>
<text text-anchor="middle" x="631" y="-165" font-family="Helvetica,sans-Serif" font-size="10.00">key_forward</text>
</a>
</g>
<!-- Node9&#45;&gt;Node14 -->
<g id="edge32" class="edge"><title>Node9&#45;&gt;Node14</title>
<path fill="none" stroke="midnightblue" d="M543.379,-142.716C560.916,-147.376 579.818,-152.399 595.56,-156.582"/>
<polygon fill="midnightblue" stroke="midnightblue" points="543.81,-139.209 533.246,-140.023 542.012,-145.974 543.81,-139.209"/>
</g>
<!-- Node9&#45;&gt;Node15 -->
<g id="edge36" class="edge"><title>Node9&#45;&gt;Node15</title>
<path fill="none" stroke="midnightblue" d="M534.63,-145.856C535.812,-146.85 536.939,-147.897 538,-149 569.589,-181.841 549.661,-206.476 574,-245 585.563,-263.302 603.49,-280.67 616.147,-291.761"/>
<polygon fill="midnightblue" stroke="midnightblue" points="536.403,-142.826 526.183,-140.031 532.429,-148.589 536.403,-142.826"/>
</g>
<!-- Node33 -->
<g id="node75" class="node"><title>Node33</title>
<a xlink:href="sequentiel__6__core_8cpp.html#a2a71c851cf25565491dd10423bc80380" target="_top" xlink:title="do_logical_Sequenciel\l_Window">
<polygon fill="white" stroke="black" points="574.5,-196 574.5,-236 687.5,-236 687.5,-196 574.5,-196"/>
<text text-anchor="start" x="582.5" y="-223" font-family="Helvetica,sans-Serif" font-size="10.00">do_logical_Sequenciel</text>
<text text-anchor="middle" x="631" y="-207" font-family="Helvetica,sans-Serif" font-size="10.00">_Window</text>
</a>
</g>
<!-- Node9&#45;&gt;Node33 -->
<g id="edge84" class="edge"><title>Node9&#45;&gt;Node33</title>
<path fill="none" stroke="midnightblue" d="M531.287,-144.796C533.611,-146.122 535.866,-147.524 538,-149 557.135,-162.232 555.361,-173.078 574,-187 578.27,-190.189 582.942,-193.202 587.717,-195.992"/>
<polygon fill="midnightblue" stroke="midnightblue" points="532.58,-141.525 522.087,-140.058 529.375,-147.748 532.58,-141.525"/>
</g>
<!-- Node11 -->
<g id="node22" class="node"><title>Node11</title>
<a xlink:href="i_cat14_8cpp.html#aa9772b548765a631d4bae1c14053b4e1" target="_top" xlink:title="DoJobFantastickTouch">
<polygon fill="white" stroke="black" points="733.5,-70 733.5,-94 850.5,-94 850.5,-70 733.5,-70"/>
<text text-anchor="middle" x="792" y="-81" font-family="Helvetica,sans-Serif" font-size="10.00">DoJobFantastickTouch</text>
</a>
</g>
<!-- Node10&#45;&gt;Node11 -->
<g id="edge22" class="edge"><title>Node10&#45;&gt;Node11</title>
<path fill="none" stroke="midnightblue" d="M678.541,-52.4019C699.804,-57.9489 724.776,-64.4632 745.871,-69.9662"/>
<polygon fill="midnightblue" stroke="midnightblue" points="679.307,-48.9848 668.747,-49.8471 677.54,-55.7581 679.307,-48.9848"/>
</g>
<!-- Node11&#45;&gt;Node5 -->
<g id="edge24" class="edge"><title>Node11&#45;&gt;Node5</title>
<path fill="none" stroke="midnightblue" d="M817.717,-100.09C847.151,-120.796 894.542,-154.133 919.82,-171.914"/>
<polygon fill="midnightblue" stroke="midnightblue" points="819.396,-96.9922 809.203,-94.1013 815.368,-102.718 819.396,-96.9922"/>
</g>
<!-- Node13 -->
<g id="node27" class="node"><title>Node13</title>
<a xlink:href="keyboard__routines2_8cpp.html#a8563320b8eab661232619224650de244" target="_top" xlink:title="commandes_clavier">
<polygon fill="white" stroke="black" points="740,-154 740,-178 844,-178 844,-154 740,-154"/>
<text text-anchor="middle" x="792" y="-165" font-family="Helvetica,sans-Serif" font-size="10.00">commandes_clavier</text>
</a>
</g>
<!-- Node12&#45;&gt;Node13 -->
<g id="edge28" class="edge"><title>Node12&#45;&gt;Node13</title>
<path fill="none" stroke="midnightblue" d="M681.07,-137.062C701.725,-142.45 725.514,-148.656 745.752,-153.935"/>
<polygon fill="midnightblue" stroke="midnightblue" points="681.771,-133.628 671.212,-134.49 680.004,-140.401 681.771,-133.628"/>
</g>
<!-- Node13&#45;&gt;Node5 -->
<g id="edge30" class="edge"><title>Node13&#45;&gt;Node5</title>
<path fill="none" stroke="midnightblue" d="M854.386,-173.744C868.335,-175.476 882.795,-177.271 895.643,-178.866"/>
<polygon fill="midnightblue" stroke="midnightblue" points="854.703,-170.257 844.348,-172.498 853.841,-177.204 854.703,-170.257"/>
</g>
<!-- Node14&#45;&gt;Node13 -->
<g id="edge34" class="edge"><title>Node14&#45;&gt;Node13</title>
<path fill="none" stroke="midnightblue" d="M676.598,-166C696.329,-166 719.53,-166 739.934,-166"/>
<polygon fill="midnightblue" stroke="midnightblue" points="676.332,-162.5 666.332,-166 676.332,-169.5 676.332,-162.5"/>
</g>
<!-- Node16 -->
<g id="node35" class="node"><title>Node16</title>
<a xlink:href="midi__13_8cpp.html#a6bedf9750195224914cd87c4e73ab626" target="_top" xlink:title="ventilate_midi_to_midiarray">
<polygon fill="white" stroke="black" points="724.5,-296 724.5,-320 859.5,-320 859.5,-296 724.5,-296"/>
<text text-anchor="middle" x="792" y="-307" font-family="Helvetica,sans-Serif" font-size="10.00">ventilate_midi_to_midiarray</text>
</a>
</g>
<!-- Node15&#45;&gt;Node16 -->
<g id="edge38" class="edge"><title>Node15&#45;&gt;Node16</title>
<path fill="none" stroke="midnightblue" d="M675.272,-305.1C690.455,-305.477 707.811,-305.908 724.414,-306.321"/>
<polygon fill="midnightblue" stroke="midnightblue" points="675.228,-301.598 665.144,-304.848 675.054,-308.596 675.228,-301.598"/>
</g>
<!-- Node17 -->
<g id="node37" class="node"><title>Node17</title>
<a xlink:href="midi__13_8cpp.html#afa49dd5668303c2448676c8243737c2d" target="_top" xlink:title="simulate_midi">
<polygon fill="white" stroke="black" points="898.5,-278 898.5,-302 975.5,-302 975.5,-278 898.5,-278"/>
<text text-anchor="middle" x="937" y="-289" font-family="Helvetica,sans-Serif" font-size="10.00">simulate_midi</text>
</a>
</g>
<!-- Node16&#45;&gt;Node17 -->
<g id="edge40" class="edge"><title>Node16&#45;&gt;Node17</title>
<path fill="none" stroke="midnightblue" d="M869.792,-298.343C879.737,-297.109 889.549,-295.891 898.473,-294.783"/>
<polygon fill="midnightblue" stroke="midnightblue" points="869.323,-294.874 859.83,-299.58 870.185,-301.821 869.323,-294.874"/>
</g>
<!-- Node21 -->
<g id="node47" class="node"><title>Node21</title>
<a xlink:href="midi__13_8cpp.html#a4104c2ae7e71376ad9dc78929450dc51" target="_top" xlink:title="EvAquire">
<polygon fill="white" stroke="black" points="909,-324 909,-348 965,-348 965,-324 909,-324"/>
<text text-anchor="middle" x="937" y="-335" font-family="Helvetica,sans-Serif" font-size="10.00">EvAquire</text>
</a>
</g>
<!-- Node16&#45;&gt;Node21 -->
<g id="edge52" class="edge"><title>Node16&#45;&gt;Node21</title>
<path fill="none" stroke="midnightblue" d="M864.207,-321.943C880.111,-325.015 896.033,-328.089 908.914,-330.576"/>
<polygon fill="midnightblue" stroke="midnightblue" points="864.817,-318.497 854.335,-320.037 863.49,-325.37 864.817,-318.497"/>
</g>
<!-- Node18 -->
<g id="node39" class="node"><title>Node18</title>
<a xlink:href="arduino__core__6___u_n_o_8cpp.html#ae72d1a8d74d9ab5515962e03e7e664d6" target="_top" xlink:title="arduino_do_analog_in\l_whitecat">
<polygon fill="white" stroke="black" points="1014,-270 1014,-310 1124,-310 1124,-270 1014,-270"/>
<text text-anchor="start" x="1022" y="-297" font-family="Helvetica,sans-Serif" font-size="10.00">arduino_do_analog_in</text>
<text text-anchor="middle" x="1069" y="-281" font-family="Helvetica,sans-Serif" font-size="10.00">_whitecat</text>
</a>
</g>
<!-- Node17&#45;&gt;Node18 -->
<g id="edge42" class="edge"><title>Node17&#45;&gt;Node18</title>
<path fill="none" stroke="midnightblue" d="M985.687,-290C994.899,-290 1004.6,-290 1013.99,-290"/>
<polygon fill="midnightblue" stroke="midnightblue" points="985.535,-286.5 975.535,-290 985.535,-293.5 985.535,-286.5"/>
</g>
<!-- Node20 -->
<g id="node44" class="node"><title>Node20</title>
<a xlink:href="arduino__core__6___u_n_o_8cpp.html#a219226c1cd6cc17c78e62fd4445bb445" target="_top" xlink:title="arduino_do_digital\l_in_whitecat">
<polygon fill="white" stroke="black" points="1021.5,-212 1021.5,-252 1116.5,-252 1116.5,-212 1021.5,-212"/>
<text text-anchor="start" x="1029.5" y="-239" font-family="Helvetica,sans-Serif" font-size="10.00">arduino_do_digital</text>
<text text-anchor="middle" x="1069" y="-223" font-family="Helvetica,sans-Serif" font-size="10.00">_in_whitecat</text>
</a>
</g>
<!-- Node17&#45;&gt;Node20 -->
<g id="edge48" class="edge"><title>Node17&#45;&gt;Node20</title>
<path fill="none" stroke="midnightblue" d="M973.539,-273.945C988.918,-267.188 1006.98,-259.25 1023.23,-252.109"/>
<polygon fill="midnightblue" stroke="midnightblue" points="972.098,-270.755 964.35,-277.982 974.914,-277.164 972.098,-270.755"/>
</g>
<!-- Node19 -->
<g id="node41" class="node"><title>Node19</title>
<a xlink:href="_m_a_i_n__avec__objets_8cpp.html#ace9c8a9b37c6087c3cffef442d71d70e" target="_top" xlink:title="dixiemes_de_secondes">
<polygon fill="white" stroke="black" points="1160.5,-261 1160.5,-285 1279.5,-285 1279.5,-261 1160.5,-261"/>
<text text-anchor="middle" x="1220" y="-272" font-family="Helvetica,sans-Serif" font-size="10.00">dixiemes_de_secondes</text>
</a>
</g>
<!-- Node18&#45;&gt;Node19 -->
<g id="edge44" class="edge"><title>Node18&#45;&gt;Node19</title>
<path fill="none" stroke="midnightblue" d="M1134.38,-282.64C1143,-281.669 1151.8,-280.678 1160.32,-279.719"/>
<polygon fill="midnightblue" stroke="midnightblue" points="1133.92,-279.169 1124.37,-283.766 1134.7,-286.126 1133.92,-279.169"/>
</g>
<!-- Node19&#45;&gt;Node6 -->
<g id="edge46" class="edge"><title>Node19&#45;&gt;Node6</title>
<path fill="none" stroke="midnightblue" d="M1289.83,-273C1342.62,-273 1416.86,-273 1482,-273 1482,-273 1482,-273 1976,-273 2058.19,-273 2155.41,-287.804 2195.86,-294.628"/>
<polygon fill="midnightblue" stroke="midnightblue" points="1289.57,-269.5 1279.57,-273 1289.57,-276.5 1289.57,-269.5"/>
</g>
<!-- Node20&#45;&gt;Node19 -->
<g id="edge50" class="edge"><title>Node20&#45;&gt;Node19</title>
<path fill="none" stroke="midnightblue" d="M1126.7,-247.666C1142.92,-252.07 1160.3,-256.79 1175.61,-260.948"/>
<polygon fill="midnightblue" stroke="midnightblue" points="1127.35,-244.215 1116.78,-244.973 1125.51,-250.971 1127.35,-244.215"/>
</g>
<!-- Node22 -->
<g id="node49" class="node"><title>Node22</title>
<a xlink:href="midi__13_8cpp.html#a831f1dfc7870ae4f6c64a0e65fbaf3ff" target="_top" xlink:title="Display">
<polygon fill="white" stroke="black" points="1044,-328 1044,-352 1094,-352 1094,-328 1044,-328"/>
<text text-anchor="middle" x="1069" y="-339" font-family="Helvetica,sans-Serif" font-size="10.00">Display</text>
</a>
</g>
<!-- Node21&#45;&gt;Node22 -->
<g id="edge54" class="edge"><title>Node21&#45;&gt;Node22</title>
<path fill="none" stroke="midnightblue" d="M975.366,-337.163C997.419,-337.831 1024.5,-338.651 1043.85,-339.238"/>
<polygon fill="midnightblue" stroke="midnightblue" points="975.419,-333.663 965.317,-336.858 975.207,-340.659 975.419,-333.663"/>
</g>
<!-- Node23 -->
<g id="node51" class="node"><title>Node23</title>
<a xlink:href="midi__13_8cpp.html#aa4aeee5088a4a5462566dfee5c9cc71f" target="_top" xlink:title="DisplayTask">
<polygon fill="white" stroke="black" points="1184.5,-303 1184.5,-327 1255.5,-327 1255.5,-303 1184.5,-303"/>
<text text-anchor="middle" x="1220" y="-314" font-family="Helvetica,sans-Serif" font-size="10.00">DisplayTask</text>
</a>
</g>
<!-- Node22&#45;&gt;Node23 -->
<g id="edge56" class="edge"><title>Node22&#45;&gt;Node23</title>
<path fill="none" stroke="midnightblue" d="M1104.42,-334.135C1128.53,-330.144 1160.32,-324.881 1184.46,-320.885"/>
<polygon fill="midnightblue" stroke="midnightblue" points="1103.57,-330.729 1094.27,-335.816 1104.71,-337.635 1103.57,-330.729"/>
</g>
<!-- Node25 -->
<g id="node56" class="node"><title>Node25</title>
<a xlink:href="midi___c_o_r_e_8cpp.html#a6fcb4c2efe85f50488d7aeeef1fc0a3e" target="_top" xlink:title="ReceiveEvents">
<polygon fill="white" stroke="black" points="1178.5,-345 1178.5,-369 1261.5,-369 1261.5,-345 1178.5,-345"/>
<text text-anchor="middle" x="1220" y="-356" font-family="Helvetica,sans-Serif" font-size="10.00">ReceiveEvents</text>
</a>
</g>
<!-- Node22&#45;&gt;Node25 -->
<g id="edge62" class="edge"><title>Node22&#45;&gt;Node25</title>
<path fill="none" stroke="midnightblue" d="M1104.26,-343.97C1126.42,-346.464 1155.1,-349.694 1178.37,-352.313"/>
<polygon fill="midnightblue" stroke="midnightblue" points="1104.6,-340.486 1094.27,-342.845 1103.82,-347.442 1104.6,-340.486"/>
</g>
<!-- Node24 -->
<g id="node53" class="node"><title>Node24</title>
<a xlink:href="midi___c_o_r_e_8cpp.html#a7d0f82d882071792d6a2df51ef13ec55" target="_top" xlink:title="ReceivePolling">
<polygon fill="white" stroke="black" points="1316,-302 1316,-326 1398,-326 1398,-302 1316,-302"/>
<text text-anchor="middle" x="1357" y="-313" font-family="Helvetica,sans-Serif" font-size="10.00">ReceivePolling</text>
</a>
</g>
<!-- Node23&#45;&gt;Node24 -->
<g id="edge58" class="edge"><title>Node23&#45;&gt;Node24</title>
<path fill="none" stroke="midnightblue" d="M1265.91,-314.665C1282.02,-314.547 1300.01,-314.416 1315.72,-314.301"/>
<polygon fill="midnightblue" stroke="midnightblue" points="1265.61,-311.167 1255.64,-314.74 1265.66,-318.167 1265.61,-311.167"/>
</g>
<!-- Node24&#45;&gt;Node24 -->
<g id="edge60" class="edge"><title>Node24&#45;&gt;Node24</title>
<path fill="none" stroke="midnightblue" d="M1334.51,-336.001C1336.81,-340.647 1344.31,-344 1357,-344 1377.83,-344 1384.66,-334.972 1377.5,-326.014"/>
<polygon fill="midnightblue" stroke="midnightblue" points="1337.98,-336.504 1336.5,-326.014 1331.12,-335.14 1337.98,-336.504"/>
</g>
<!-- Node25&#45;&gt;Node24 -->
<g id="edge64" class="edge"><title>Node25&#45;&gt;Node24</title>
<path fill="none" stroke="midnightblue" d="M1268.07,-341.913C1284.68,-336.7 1303.05,-330.933 1318.76,-326.002"/>
<polygon fill="midnightblue" stroke="midnightblue" points="1267.02,-338.574 1258.53,-344.908 1269.12,-345.252 1267.02,-338.574"/>
</g>
<!-- Node26 -->
<g id="node59" class="node"><title>Node26</title>
<a xlink:href="midi___c_o_r_e_8cpp.html#a0ccf480a33424e626f88d109d53d8366" target="_top" xlink:title="InitMidi">
<polygon fill="white" stroke="black" points="1333,-362 1333,-386 1381,-386 1381,-362 1333,-362"/>
<text text-anchor="middle" x="1357" y="-373" font-family="Helvetica,sans-Serif" font-size="10.00">InitMidi</text>
</a>
</g>
<!-- Node25&#45;&gt;Node26 -->
<g id="edge66" class="edge"><title>Node25&#45;&gt;Node26</title>
<path fill="none" stroke="midnightblue" d="M1271.93,-363.443C1292.89,-366.045 1316.06,-368.92 1332.92,-371.012"/>
<polygon fill="midnightblue" stroke="midnightblue" points="1272.2,-359.951 1261.85,-362.193 1271.34,-366.898 1272.2,-359.951"/>
</g>
<!-- Node26&#45;&gt;Node6 -->
<g id="edge68" class="edge"><title>Node26&#45;&gt;Node6</title>
<path fill="none" stroke="midnightblue" d="M1391.32,-374C1439.49,-374 1529.93,-374 1607,-374 1607,-374 1607,-374 1976,-374 2058.79,-374 2084.81,-379.641 2160,-345 2177.8,-336.801 2194.33,-321.142 2204.53,-310.159"/>
<polygon fill="midnightblue" stroke="midnightblue" points="1391.13,-370.5 1381.13,-374 1391.13,-377.5 1391.13,-370.5"/>
</g>
<!-- Node27 -->
<g id="node62" class="node"><title>Node27</title>
<a xlink:href="midi__13_8cpp.html#ac7a306aa81e374b447e7341d4d3a3eea" target="_top" xlink:title="midipage_devices">
<polygon fill="white" stroke="black" points="1434.5,-322 1434.5,-346 1529.5,-346 1529.5,-322 1434.5,-322"/>
<text text-anchor="middle" x="1482" y="-333" font-family="Helvetica,sans-Serif" font-size="10.00">midipage_devices</text>
</a>
</g>
<!-- Node26&#45;&gt;Node27 -->
<g id="edge70" class="edge"><title>Node26&#45;&gt;Node27</title>
<path fill="none" stroke="midnightblue" d="M1390.87,-363.162C1407.35,-357.887 1427.22,-351.528 1444.2,-346.096"/>
<polygon fill="midnightblue" stroke="midnightblue" points="1389.56,-359.906 1381.1,-366.288 1391.69,-366.573 1389.56,-359.906"/>
</g>
<!-- Node28 -->
<g id="node64" class="node"><title>Node28</title>
<a xlink:href="midi__13_8cpp.html#a8f70acacad6eaba8867bdd80dda5e277" target="_top" xlink:title="do_midi_config">
<polygon fill="white" stroke="black" points="1566,-322 1566,-346 1648,-346 1648,-322 1566,-322"/>
<text text-anchor="middle" x="1607" y="-333" font-family="Helvetica,sans-Serif" font-size="10.00">do_midi_config</text>
</a>
</g>
<!-- Node27&#45;&gt;Node28 -->
<g id="edge72" class="edge"><title>Node27&#45;&gt;Node28</title>
<path fill="none" stroke="midnightblue" d="M1539.77,-334C1548.5,-334 1557.35,-334 1565.65,-334"/>
<polygon fill="midnightblue" stroke="midnightblue" points="1539.61,-330.5 1529.61,-334 1539.61,-337.5 1539.61,-330.5"/>
</g>
<!-- Node29 -->
<g id="node66" class="node"><title>Node29</title>
<a xlink:href="_c_f_g__config__panel__8_8cpp.html#ad39c46e2fb3a3ba7ea0460140ead4f96" target="_top" xlink:title="do_panel_config">
<polygon fill="white" stroke="black" points="1684.5,-322 1684.5,-346 1771.5,-346 1771.5,-322 1684.5,-322"/>
<text text-anchor="middle" x="1728" y="-333" font-family="Helvetica,sans-Serif" font-size="10.00">do_panel_config</text>
</a>
</g>
<!-- Node28&#45;&gt;Node29 -->
<g id="edge74" class="edge"><title>Node28&#45;&gt;Node29</title>
<path fill="none" stroke="midnightblue" d="M1658.33,-334C1667.01,-334 1675.95,-334 1684.41,-334"/>
<polygon fill="midnightblue" stroke="midnightblue" points="1658.3,-330.5 1648.3,-334 1658.3,-337.5 1658.3,-330.5"/>
</g>
<!-- Node30 -->
<g id="node68" class="node"><title>Node30</title>
<a xlink:href="_c_f_g__config__panel__8_8cpp.html#a7968da66bccdba8b864caf6c8435f68e" target="_top" xlink:title="config_general_menu">
<polygon fill="white" stroke="black" points="1808.5,-322 1808.5,-346 1917.5,-346 1917.5,-322 1808.5,-322"/>
<text text-anchor="middle" x="1863" y="-333" font-family="Helvetica,sans-Serif" font-size="10.00">config_general_menu</text>
</a>
</g>
<!-- Node29&#45;&gt;Node30 -->
<g id="edge76" class="edge"><title>Node29&#45;&gt;Node30</title>
<path fill="none" stroke="midnightblue" d="M1782.07,-334C1790.62,-334 1799.47,-334 1808.04,-334"/>
<polygon fill="midnightblue" stroke="midnightblue" points="1781.83,-330.5 1771.83,-334 1781.83,-337.5 1781.83,-330.5"/>
</g>
<!-- Node31 -->
<g id="node70" class="node"><title>Node31</title>
<a xlink:href="graphics__rebuild1_8cpp.html#ac2eae1e03fb72cc734ffbcef566483bf" target="_top" xlink:title="Boxes">
<polygon fill="white" stroke="black" points="1954,-322 1954,-346 1998,-346 1998,-322 1954,-322"/>
<text text-anchor="middle" x="1976" y="-333" font-family="Helvetica,sans-Serif" font-size="10.00">Boxes</text>
</a>
</g>
<!-- Node30&#45;&gt;Node31 -->
<g id="edge78" class="edge"><title>Node30&#45;&gt;Node31</title>
<path fill="none" stroke="midnightblue" d="M1927.75,-334C1937.11,-334 1946.17,-334 1953.86,-334"/>
<polygon fill="midnightblue" stroke="midnightblue" points="1927.51,-330.5 1917.51,-334 1927.51,-337.5 1927.51,-330.5"/>
</g>
<!-- Node32 -->
<g id="node72" class="node"><title>Node32</title>
<a xlink:href="_m_a_i_n__avec__objets_8cpp.html#ade8d4ba65d55c94f8ee277829d722155" target="_top" xlink:title="main_actions_on_screen">
<polygon fill="white" stroke="black" points="2034.5,-312 2034.5,-336 2159.5,-336 2159.5,-312 2034.5,-312"/>
<text text-anchor="middle" x="2097" y="-323" font-family="Helvetica,sans-Serif" font-size="10.00">main_actions_on_screen</text>
</a>
</g>
<!-- Node31&#45;&gt;Node32 -->
<g id="edge80" class="edge"><title>Node31&#45;&gt;Node32</title>
<path fill="none" stroke="midnightblue" d="M2008.24,-331.335C2016.32,-330.668 2025.26,-329.929 2034.27,-329.184"/>
<polygon fill="midnightblue" stroke="midnightblue" points="2007.87,-327.854 1998.19,-332.166 2008.45,-334.83 2007.87,-327.854"/>
</g>
<!-- Node32&#45;&gt;Node6 -->
<g id="edge82" class="edge"><title>Node32&#45;&gt;Node6</title>
<path fill="none" stroke="midnightblue" d="M2161.61,-309.763C2174.17,-306.996 2186.39,-304.303 2195.96,-302.194"/>
<polygon fill="midnightblue" stroke="midnightblue" points="2160.52,-306.42 2151.51,-311.989 2162.03,-313.256 2160.52,-306.42"/>
</g>
<!-- Node33&#45;&gt;Node8 -->
<g id="edge86" class="edge"><title>Node33&#45;&gt;Node8</title>
<path fill="none" stroke="midnightblue" d="M698.106,-216C709.511,-216 721.286,-216 732.478,-216"/>
<polygon fill="midnightblue" stroke="midnightblue" points="697.763,-212.5 687.763,-216 697.763,-219.5 697.763,-212.5"/>
</g>
<!-- Node34&#45;&gt;Node10 -->
<g id="edge94" class="edge"><title>Node34&#45;&gt;Node10</title>
<path fill="none" stroke="midnightblue" d="M399.765,-73.6051C457.35,-65.2364 544.106,-52.6281 593.348,-45.4719"/>
<polygon fill="midnightblue" stroke="midnightblue" points="399.115,-70.1627 389.722,-75.0646 400.122,-77.0899 399.115,-70.1627"/>
</g>
<!-- Node34&#45;&gt;Node20 -->
<g id="edge92" class="edge"><title>Node34&#45;&gt;Node20</title>
<path fill="none" stroke="midnightblue" d="M376.135,-65.6554C429.317,-41.7341 535.749,-0 631,-0 631,-0 631,-0 792,-0 923.418,-0 1025.25,-155.373 1057.91,-211.817"/>
<polygon fill="midnightblue" stroke="midnightblue" points="374.481,-62.5627 366.839,-69.9006 377.389,-68.9301 374.481,-62.5627"/>
</g>
<!-- Node35 -->
<g id="node83" class="node"><title>Node35</title>
<a xlink:href="keyboard__functions2_8cpp.html#a1069ef07040abfea667ec14eeefe7e56" target="_top" xlink:title="key_go">
<polygon fill="white" stroke="black" points="607,-70 607,-94 655,-94 655,-70 607,-70"/>
<text text-anchor="middle" x="631" y="-81" font-family="Helvetica,sans-Serif" font-size="10.00">key_go</text>
</a>
</g>
<!-- Node34&#45;&gt;Node35 -->
<g id="edge96" class="edge"><title>Node34&#45;&gt;Node35</title>
<path fill="none" stroke="midnightblue" d="M399.945,-82C463.195,-82 561.481,-82 606.714,-82"/>
<polygon fill="midnightblue" stroke="midnightblue" points="399.723,-78.5001 389.722,-82 399.722,-85.5001 399.723,-78.5001"/>
</g>
<!-- Node36 -->
<g id="node86" class="node"><title>Node36</title>
<a xlink:href="sequentiel__6__core_8cpp.html#a152c03ccf49d8d9a457e048daaa48023" target="_top" xlink:title="do_logical_x1_x2">
<polygon fill="white" stroke="black" points="442,-158 442,-182 534,-182 534,-158 442,-158"/>
<text text-anchor="middle" x="488" y="-169" font-family="Helvetica,sans-Serif" font-size="10.00">do_logical_x1_x2</text>
</a>
</g>
<!-- Node34&#45;&gt;Node36 -->
<g id="edge100" class="edge"><title>Node34&#45;&gt;Node36</title>
<path fill="none" stroke="midnightblue" d="M365.33,-100.387C384.23,-114.754 411.91,-134.629 438,-149 443.773,-152.18 450.127,-155.191 456.313,-157.887"/>
<polygon fill="midnightblue" stroke="midnightblue" points="367.363,-97.5346 357.302,-94.2128 363.095,-103.083 367.363,-97.5346"/>
</g>
<!-- Node35&#45;&gt;Node13 -->
<g id="edge98" class="edge"><title>Node35&#45;&gt;Node13</title>
<path fill="none" stroke="midnightblue" d="M664.798,-93.2365C672.54,-96.1433 680.651,-99.4608 688,-103 719.762,-118.297 754.342,-140.446 774.547,-153.997"/>
<polygon fill="midnightblue" stroke="midnightblue" points="665.868,-89.9017 655.274,-89.7886 663.485,-96.4837 665.868,-89.9017"/>
</g>
<!-- Node36&#45;&gt;Node33 -->
<g id="edge102" class="edge"><title>Node36&#45;&gt;Node33</title>
<path fill="none" stroke="midnightblue" d="M535.305,-185.217C547.781,-189.23 561.372,-193.602 574.29,-197.758"/>
<polygon fill="midnightblue" stroke="midnightblue" points="536.163,-181.816 525.572,-182.086 534.019,-188.48 536.163,-181.816"/>
</g>
<!-- Node37&#45;&gt;Node7 -->
<g id="edge106" class="edge"><title>Node37&#45;&gt;Node7</title>
<path fill="none" stroke="midnightblue" d="M404.969,-220C416.785,-220 428.959,-220 440.219,-220"/>
<polygon fill="midnightblue" stroke="midnightblue" points="404.709,-216.5 394.709,-220 404.709,-223.5 404.709,-216.5"/>
</g>
<!-- Node38&#45;&gt;Node8 -->
<g id="edge116" class="edge"><title>Node38&#45;&gt;Node8</title>
<path fill="none" stroke="midnightblue" d="M411.385,-442.059C489.278,-444.805 614.373,-436.389 688,-365 727.976,-326.239 686.886,-286.509 724,-245 726.994,-241.651 730.441,-238.676 734.16,-236.035"/>
<polygon fill="midnightblue" stroke="midnightblue" points="411.327,-438.553 401.187,-441.626 411.03,-445.547 411.327,-438.553"/>
</g>
<!-- Node40 -->
<g id="node100" class="node"><title>Node40</title>
<a xlink:href="logicals__intres_8cpp.html#a74cf9c04c734ab342f88799efbfc4210" target="_top" xlink:title="operations_confirmation">
<polygon fill="white" stroke="black" points="282,-372 282,-396 402,-396 402,-372 282,-372"/>
<text text-anchor="middle" x="342" y="-383" font-family="Helvetica,sans-Serif" font-size="10.00">operations_confirmation</text>
</a>
</g>
<!-- Node39&#45;&gt;Node40 -->
<g id="edge120" class="edge"><title>Node39&#45;&gt;Node40</title>
<path fill="none" stroke="midnightblue" d="M240.599,-406.533C255.456,-403.232 272.329,-399.482 287.989,-396.002"/>
<polygon fill="midnightblue" stroke="midnightblue" points="239.678,-403.153 230.676,-408.739 241.197,-409.986 239.678,-403.153"/>
</g>
<!-- Node41 -->
<g id="node102" class="node"><title>Node41</title>
<a xlink:href="keyboard__functions2_8cpp.html#a548548066307f816c5021de7d6e4f26a" target="_top" xlink:title="key_affectation">
<polygon fill="white" stroke="black" points="446.5,-372 446.5,-396 529.5,-396 529.5,-372 446.5,-372"/>
<text text-anchor="middle" x="488" y="-383" font-family="Helvetica,sans-Serif" font-size="10.00">key_affectation</text>
</a>
</g>
<!-- Node40&#45;&gt;Node41 -->
<g id="edge122" class="edge"><title>Node40&#45;&gt;Node41</title>
<path fill="none" stroke="midnightblue" d="M412.345,-384C423.919,-384 435.582,-384 446.168,-384"/>
<polygon fill="midnightblue" stroke="midnightblue" points="412.227,-380.5 402.227,-384 412.227,-387.5 412.227,-380.5"/>
</g>
<!-- Node42 -->
<g id="node105" class="node"><title>Node42</title>
<a xlink:href="logicals__intres_8cpp.html#a85967c22135715eca94d08af2ec1a1fb" target="_top" xlink:title="fenetre_confirm">
<polygon fill="white" stroke="black" points="1440,-417 1440,-441 1524,-441 1524,-417 1440,-417"/>
<text text-anchor="middle" x="1482" y="-428" font-family="Helvetica,sans-Serif" font-size="10.00">fenetre_confirm</text>
</a>
</g>
<!-- Node40&#45;&gt;Node42 -->
<g id="edge126" class="edge"><title>Node40&#45;&gt;Node42</title>
<path fill="none" stroke="midnightblue" d="M377.464,-400.078C431.158,-422.913 536.822,-462 631,-462 631,-462 631,-462 1220,-462 1297.94,-462 1387.9,-447.448 1439.55,-437.67"/>
<polygon fill="midnightblue" stroke="midnightblue" points="378.626,-396.767 368.057,-396.017 375.851,-403.194 378.626,-396.767"/>
</g>
<!-- Node41&#45;&gt;Node13 -->
<g id="edge124" class="edge"><title>Node41&#45;&gt;Node13</title>
<path fill="none" stroke="midnightblue" d="M539.881,-382.397C585.097,-378.179 649.324,-364.921 688,-325 732.105,-279.475 680.184,-232.803 724,-187 728.441,-182.357 733.884,-178.734 739.738,-175.908"/>
<polygon fill="midnightblue" stroke="midnightblue" points="539.365,-378.927 529.682,-383.226 539.933,-385.904 539.365,-378.927"/>
</g>
<!-- Node42&#45;&gt;Node31 -->
<g id="edge128" class="edge"><title>Node42&#45;&gt;Node31</title>
<path fill="none" stroke="midnightblue" d="M1534.13,-423.221C1616.56,-413.398 1781.66,-390.942 1918,-355 1930.12,-351.806 1943.27,-347.145 1953.99,-343.025"/>
<polygon fill="midnightblue" stroke="midnightblue" points="1533.53,-419.766 1524.01,-424.412 1534.35,-426.718 1533.53,-419.766"/>
</g>
<!-- Node43&#45;&gt;Node40 -->
<g id="edge132" class="edge"><title>Node43&#45;&gt;Node40</title>
<path fill="none" stroke="midnightblue" d="M235.137,-376.579C249.406,-377.57 266.084,-378.728 281.962,-379.831"/>
<polygon fill="midnightblue" stroke="midnightblue" points="234.966,-373.059 224.748,-375.857 234.481,-380.042 234.966,-373.059"/>
</g>
<!-- Node44&#45;&gt;Node40 -->
<g id="edge136" class="edge"><title>Node44&#45;&gt;Node40</title>
<path fill="none" stroke="midnightblue" d="M237.374,-346.218C259.729,-354.291 287.406,-364.286 308.678,-371.967"/>
<polygon fill="midnightblue" stroke="midnightblue" points="238.431,-342.879 227.837,-342.774 236.054,-349.463 238.431,-342.879"/>
</g>
</g>
</svg>
