<?xml version="1.0" encoding="UTF-8" standalone="no"?>
<!DOCTYPE svg PUBLIC "-//W3C//DTD SVG 1.1//EN"
 "http://www.w3.org/Graphics/SVG/1.1/DTD/svg11.dtd">
<!-- Generated by graphviz version 2.26.3 (20100126.1600)
 -->
<!-- Title: affect_selected_faders_to_fgroup Pages: 1 -->
<svg width="448pt" height="111pt"
 viewBox="0.00 0.00 448.00 111.00" xmlns="http://www.w3.org/2000/svg" xmlns:xlink="http://www.w3.org/1999/xlink">
<g id="graph1" class="graph" transform="scale(1 1) rotate(0) translate(4 107)">
<title>affect_selected_faders_to_fgroup</title>
<polygon fill="white" stroke="white" points="-4,5 -4,-107 445,-107 445,5 -4,5"/>
<!-- Node1 -->
<g id="node1" class="node"><title>Node1</title>
<polygon fill="#bfbfbf" stroke="black" points="0.5,-25 0.5,-65 115.5,-65 115.5,-25 0.5,-25"/>
<text text-anchor="start" x="8.5" y="-52" font-family="Helvetica,sans-Serif" font-size="10.00">affect_selected_faders</text>
<text text-anchor="middle" x="58" y="-36" font-family="Helvetica,sans-Serif" font-size="10.00">_to_fgroup</text>
</g>
<!-- Node2 -->
<g id="node3" class="node"><title>Node2</title>
<a xlink:href="faders__operations_8cpp.html#ac93160d2b68a41a47ae2a84e32e8db21" target="_top" xlink:title="ClearDock">
<polygon fill="white" stroke="black" points="188.5,-58 188.5,-82 251.5,-82 251.5,-58 188.5,-58"/>
<text text-anchor="middle" x="220" y="-69" font-family="Helvetica,sans-Serif" font-size="10.00">ClearDock</text>
</a>
</g>
<!-- Node1&#45;&gt;Node2 -->
<g id="edge2" class="edge"><title>Node1&#45;&gt;Node2</title>
<path fill="none" stroke="midnightblue" d="M115.571,-53.8845C136.136,-57.058 158.905,-60.5718 177.921,-63.5063"/>
<polygon fill="midnightblue" stroke="midnightblue" points="177.644,-67.0049 188.061,-65.0711 178.711,-60.0868 177.644,-67.0049"/>
</g>
<!-- Node5 -->
<g id="node9" class="node"><title>Node5</title>
<a xlink:href="faders__operations_8cpp.html#a9c1937969096c0a6d760fd4411d253a7" target="_top" xlink:title="record_minifaders_selected\l_as_fgroup">
<polygon fill="white" stroke="black" points="152,-0 152,-40 288,-40 288,-0 152,-0"/>
<text text-anchor="start" x="160" y="-27" font-family="Helvetica,sans-Serif" font-size="10.00">record_minifaders_selected</text>
<text text-anchor="middle" x="220" y="-11" font-family="Helvetica,sans-Serif" font-size="10.00">_as_fgroup</text>
</a>
</g>
<!-- Node1&#45;&gt;Node5 -->
<g id="edge8" class="edge"><title>Node1&#45;&gt;Node5</title>
<path fill="none" stroke="midnightblue" d="M115.571,-36.1155C124.095,-34.8001 132.998,-33.4263 141.855,-32.0594"/>
<polygon fill="midnightblue" stroke="midnightblue" points="142.464,-35.507 151.813,-30.5227 141.396,-28.5889 142.464,-35.507"/>
</g>
<!-- Node3 -->
<g id="node5" class="node"><title>Node3</title>
<a xlink:href="_c_o_r_e__6_8cpp.html#a7323ff870691e50a22fe13a920fed4a8" target="_top" xlink:title="show_who_is_in_dock">
<polygon fill="white" stroke="black" points="324.5,-79 324.5,-103 439.5,-103 439.5,-79 324.5,-79"/>
<text text-anchor="middle" x="382" y="-90" font-family="Helvetica,sans-Serif" font-size="10.00">show_who_is_in_dock</text>
</a>
</g>
<!-- Node2&#45;&gt;Node3 -->
<g id="edge4" class="edge"><title>Node2&#45;&gt;Node3</title>
<path fill="none" stroke="midnightblue" d="M251.62,-74.0989C269.426,-76.407 292.38,-79.3826 314.053,-82.1921"/>
<polygon fill="midnightblue" stroke="midnightblue" points="313.862,-85.6965 324.229,-83.5112 314.762,-78.7546 313.862,-85.6965"/>
</g>
<!-- Node4 -->
<g id="node7" class="node"><title>Node4</title>
<a xlink:href="faders__operations_8cpp.html#a85b6979e04dd2e2b3f6b5e26fcbb34ec" target="_top" xlink:title="DoTimeToDock">
<polygon fill="white" stroke="black" points="340,-37 340,-61 424,-61 424,-37 340,-37"/>
<text text-anchor="middle" x="382" y="-48" font-family="Helvetica,sans-Serif" font-size="10.00">DoTimeToDock</text>
</a>
</g>
<!-- Node2&#45;&gt;Node4 -->
<g id="edge6" class="edge"><title>Node2&#45;&gt;Node4</title>
<path fill="none" stroke="midnightblue" d="M251.62,-65.9011C273.812,-63.0244 304.001,-59.111 329.74,-55.7744"/>
<polygon fill="midnightblue" stroke="midnightblue" points="330.259,-59.2365 339.726,-54.4799 329.359,-52.2946 330.259,-59.2365"/>
</g>
</g>
</svg>
