<?xml version="1.0" encoding="UTF-8" standalone="no"?>
<!DOCTYPE svg PUBLIC "-//W3C//DTD SVG 1.1//EN"
 "http://www.w3.org/Graphics/SVG/1.1/DTD/svg11.dtd">
<!-- Generated by graphviz version 2.26.3 (20100126.1600)
 -->
<!-- Title: DoModify Pages: 1 -->
<svg width="720pt" height="74pt"
 viewBox="0.00 0.00 720.00 74.00" xmlns="http://www.w3.org/2000/svg" xmlns:xlink="http://www.w3.org/1999/xlink">
<g id="graph1" class="graph" transform="scale(1 1) rotate(0) translate(4 70)">
<title>DoModify</title>
<polygon fill="white" stroke="white" points="-4,5 -4,-70 717,-70 717,5 -4,5"/>
<!-- Node1 -->
<g id="node1" class="node"><title>Node1</title>
<polygon fill="#bfbfbf" stroke="black" points="0.5,-21 0.5,-45 59.5,-45 59.5,-21 0.5,-21"/>
<text text-anchor="middle" x="30" y="-32" font-family="Helvetica,sans-Serif" font-size="10.00">DoModify</text>
</g>
<!-- Node2 -->
<g id="node3" class="node"><title>Node2</title>
<a xlink:href="logicals__intres_8cpp.html#a74cf9c04c734ab342f88799efbfc4210" target="_top" xlink:title="operations_confirmation">
<polygon fill="white" stroke="black" points="96,-21 96,-45 216,-45 216,-21 96,-21"/>
<text text-anchor="middle" x="156" y="-32" font-family="Helvetica,sans-Serif" font-size="10.00">operations_confirmation</text>
</a>
</g>
<!-- Node1&#45;&gt;Node2 -->
<g id="edge2" class="edge"><title>Node1&#45;&gt;Node2</title>
<path fill="none" stroke="midnightblue" d="M69.704,-33C78.0365,-33 87.0018,-33 95.8902,-33"/>
<polygon fill="midnightblue" stroke="midnightblue" points="69.5414,-29.5001 59.5414,-33 69.5414,-36.5001 69.5414,-29.5001"/>
</g>
<!-- Node3 -->
<g id="node5" class="node"><title>Node3</title>
<a xlink:href="keyboard__functions2_8cpp.html#a548548066307f816c5021de7d6e4f26a" target="_top" xlink:title="key_affectation">
<polygon fill="white" stroke="black" points="252.5,-42 252.5,-66 335.5,-66 335.5,-42 252.5,-42"/>
<text text-anchor="middle" x="294" y="-53" font-family="Helvetica,sans-Serif" font-size="10.00">key_affectation</text>
</a>
</g>
<!-- Node2&#45;&gt;Node3 -->
<g id="edge4" class="edge"><title>Node2&#45;&gt;Node3</title>
<path fill="none" stroke="midnightblue" d="M226.19,-43.681C235.12,-45.04 244.024,-46.395 252.303,-47.6548"/>
<polygon fill="midnightblue" stroke="midnightblue" points="226.54,-40.1942 216.127,-42.1498 225.487,-47.1145 226.54,-40.1942"/>
</g>
<!-- Node7 -->
<g id="node13" class="node"><title>Node7</title>
<a xlink:href="logicals__intres_8cpp.html#a85967c22135715eca94d08af2ec1a1fb" target="_top" xlink:title="fenetre_confirm">
<polygon fill="white" stroke="black" points="252,-0 252,-24 336,-24 336,-0 252,-0"/>
<text text-anchor="middle" x="294" y="-11" font-family="Helvetica,sans-Serif" font-size="10.00">fenetre_confirm</text>
</a>
</g>
<!-- Node2&#45;&gt;Node7 -->
<g id="edge12" class="edge"><title>Node2&#45;&gt;Node7</title>
<path fill="none" stroke="midnightblue" d="M226.07,-22.3372C234.894,-20.9944 243.695,-19.6551 251.896,-18.4072"/>
<polygon fill="midnightblue" stroke="midnightblue" points="225.487,-18.8855 216.127,-23.8502 226.54,-25.8058 225.487,-18.8855"/>
</g>
<!-- Node4 -->
<g id="node7" class="node"><title>Node4</title>
<a xlink:href="keyboard__routines2_8cpp.html#a8563320b8eab661232619224650de244" target="_top" xlink:title="commandes_clavier">
<polygon fill="white" stroke="black" points="372,-42 372,-66 476,-66 476,-42 372,-42"/>
<text text-anchor="middle" x="424" y="-53" font-family="Helvetica,sans-Serif" font-size="10.00">commandes_clavier</text>
</a>
</g>
<!-- Node3&#45;&gt;Node4 -->
<g id="edge6" class="edge"><title>Node3&#45;&gt;Node4</title>
<path fill="none" stroke="midnightblue" d="M345.995,-54C354.473,-54 363.258,-54 371.742,-54"/>
<polygon fill="midnightblue" stroke="midnightblue" points="345.848,-50.5001 335.848,-54 345.848,-57.5001 345.848,-50.5001"/>
</g>
<!-- Node5 -->
<g id="node9" class="node"><title>Node5</title>
<a xlink:href="_m_a_i_n__avec__objets_8cpp.html#a8e80f54ac804eddce8ed6e45adb1db44" target="_top" xlink:title="ticker_full_loop">
<polygon fill="white" stroke="black" points="534,-42 534,-66 616,-66 616,-42 534,-42"/>
<text text-anchor="middle" x="575" y="-53" font-family="Helvetica,sans-Serif" font-size="10.00">ticker_full_loop</text>
</a>
</g>
<!-- Node4&#45;&gt;Node5 -->
<g id="edge8" class="edge"><title>Node4&#45;&gt;Node5</title>
<path fill="none" stroke="midnightblue" d="M486.664,-54C502.516,-54 519.147,-54 533.648,-54"/>
<polygon fill="midnightblue" stroke="midnightblue" points="486.389,-50.5001 476.389,-54 486.389,-57.5001 486.389,-50.5001"/>
</g>
<!-- Node6 -->
<g id="node11" class="node"><title>Node6</title>
<a xlink:href="_m_a_i_n__avec__objets_8cpp.html#ae66f6b31b5ad750f1fe042a706a4e3d4" target="_top" xlink:title="main">
<polygon fill="white" stroke="black" points="674,-21 674,-45 712,-45 712,-21 674,-21"/>
<text text-anchor="middle" x="693" y="-32" font-family="Helvetica,sans-Serif" font-size="10.00">main</text>
</a>
</g>
<!-- Node5&#45;&gt;Node6 -->
<g id="edge10" class="edge"><title>Node5&#45;&gt;Node6</title>
<path fill="none" stroke="midnightblue" d="M626.55,-44.8259C643.307,-41.8437 660.879,-38.7164 673.742,-36.4273"/>
<polygon fill="midnightblue" stroke="midnightblue" points="625.503,-41.4572 616.271,-46.6552 626.729,-48.3489 625.503,-41.4572"/>
</g>
<!-- Node8 -->
<g id="node15" class="node"><title>Node8</title>
<a xlink:href="graphics__rebuild1_8cpp.html#ac2eae1e03fb72cc734ffbcef566483bf" target="_top" xlink:title="Boxes">
<polygon fill="white" stroke="black" points="402,-0 402,-24 446,-24 446,-0 402,-0"/>
<text text-anchor="middle" x="424" y="-11" font-family="Helvetica,sans-Serif" font-size="10.00">Boxes</text>
</a>
</g>
<!-- Node7&#45;&gt;Node8 -->
<g id="edge14" class="edge"><title>Node7&#45;&gt;Node8</title>
<path fill="none" stroke="midnightblue" d="M346.4,-12C365.658,-12 386.45,-12 401.66,-12"/>
<polygon fill="midnightblue" stroke="midnightblue" points="346.207,-8.5001 336.207,-12 346.207,-15.5001 346.207,-8.5001"/>
</g>
<!-- Node9 -->
<g id="node17" class="node"><title>Node9</title>
<a xlink:href="_m_a_i_n__avec__objets_8cpp.html#ade8d4ba65d55c94f8ee277829d722155" target="_top" xlink:title="main_actions_on_screen">
<polygon fill="white" stroke="black" points="512.5,-0 512.5,-24 637.5,-24 637.5,-0 512.5,-0"/>
<text text-anchor="middle" x="575" y="-11" font-family="Helvetica,sans-Serif" font-size="10.00">main_actions_on_screen</text>
</a>
</g>
<!-- Node8&#45;&gt;Node9 -->
<g id="edge16" class="edge"><title>Node8&#45;&gt;Node9</title>
<path fill="none" stroke="midnightblue" d="M456.395,-12C472.76,-12 493.187,-12 512.455,-12"/>
<polygon fill="midnightblue" stroke="midnightblue" points="456.281,-8.5001 446.281,-12 456.281,-15.5001 456.281,-8.5001"/>
</g>
<!-- Node9&#45;&gt;Node6 -->
<g id="edge18" class="edge"><title>Node9&#45;&gt;Node6</title>
<path fill="none" stroke="midnightblue" d="M647.837,-24.9626C657.336,-26.6529 666.327,-28.253 673.749,-29.5739"/>
<polygon fill="midnightblue" stroke="midnightblue" points="648.259,-21.4827 637.8,-23.1763 647.032,-28.3744 648.259,-21.4827"/>
</g>
</g>
</svg>
