<?xml version="1.0" encoding="UTF-8" standalone="no"?>
<!DOCTYPE svg PUBLIC "-//W3C//DTD SVG 1.1//EN"
 "http://www.w3.org/Graphics/SVG/1.1/DTD/svg11.dtd">
<!-- Generated by graphviz version 2.26.3 (20100126.1600)
 -->
<!-- Title: record_minifaders_selected_as_fgroup Pages: 1 -->
<svg width="948pt" height="74pt"
 viewBox="0.00 0.00 948.00 74.00" xmlns="http://www.w3.org/2000/svg" xmlns:xlink="http://www.w3.org/1999/xlink">
<g id="graph1" class="graph" transform="scale(1 1) rotate(0) translate(4 70)">
<title>record_minifaders_selected_as_fgroup</title>
<polygon fill="white" stroke="white" points="-4,5 -4,-70 945,-70 945,5 -4,5"/>
<!-- Node1 -->
<g id="node1" class="node"><title>Node1</title>
<polygon fill="#bfbfbf" stroke="black" points="0,-13 0,-53 136,-53 136,-13 0,-13"/>
<text text-anchor="start" x="8" y="-40" font-family="Helvetica,sans-Serif" font-size="10.00">record_minifaders_selected</text>
<text text-anchor="middle" x="68" y="-24" font-family="Helvetica,sans-Serif" font-size="10.00">_as_fgroup</text>
</g>
<!-- Node2 -->
<g id="node3" class="node"><title>Node2</title>
<a xlink:href="faders__operations_8cpp.html#a551ffd1b093a8918621736a709977a08" target="_top" xlink:title="affect_selected_faders\l_to_fgroup">
<polygon fill="white" stroke="black" points="172.5,-13 172.5,-53 287.5,-53 287.5,-13 172.5,-13"/>
<text text-anchor="start" x="180.5" y="-40" font-family="Helvetica,sans-Serif" font-size="10.00">affect_selected_faders</text>
<text text-anchor="middle" x="230" y="-24" font-family="Helvetica,sans-Serif" font-size="10.00">_to_fgroup</text>
</a>
</g>
<!-- Node1&#45;&gt;Node2 -->
<g id="edge2" class="edge"><title>Node1&#45;&gt;Node2</title>
<path fill="none" stroke="midnightblue" d="M146.442,-33C155.174,-33 163.946,-33 172.351,-33"/>
<polygon fill="midnightblue" stroke="midnightblue" points="146.233,-29.5001 136.233,-33 146.233,-36.5001 146.233,-29.5001"/>
</g>
<!-- Node3 -->
<g id="node5" class="node"><title>Node3</title>
<a xlink:href="logicals__intres_8cpp.html#a74cf9c04c734ab342f88799efbfc4210" target="_top" xlink:title="operations_confirmation">
<polygon fill="white" stroke="black" points="324,-21 324,-45 444,-45 444,-21 324,-21"/>
<text text-anchor="middle" x="384" y="-32" font-family="Helvetica,sans-Serif" font-size="10.00">operations_confirmation</text>
</a>
</g>
<!-- Node2&#45;&gt;Node3 -->
<g id="edge4" class="edge"><title>Node2&#45;&gt;Node3</title>
<path fill="none" stroke="midnightblue" d="M297.845,-33C306.501,-33 315.314,-33 323.838,-33"/>
<polygon fill="midnightblue" stroke="midnightblue" points="297.782,-29.5001 287.782,-33 297.782,-36.5001 297.782,-29.5001"/>
</g>
<!-- Node4 -->
<g id="node7" class="node"><title>Node4</title>
<a xlink:href="keyboard__functions2_8cpp.html#a548548066307f816c5021de7d6e4f26a" target="_top" xlink:title="key_affectation">
<polygon fill="white" stroke="black" points="480.5,-42 480.5,-66 563.5,-66 563.5,-42 480.5,-42"/>
<text text-anchor="middle" x="522" y="-53" font-family="Helvetica,sans-Serif" font-size="10.00">key_affectation</text>
</a>
</g>
<!-- Node3&#45;&gt;Node4 -->
<g id="edge6" class="edge"><title>Node3&#45;&gt;Node4</title>
<path fill="none" stroke="midnightblue" d="M454.19,-43.681C463.12,-45.04 472.024,-46.395 480.303,-47.6548"/>
<polygon fill="midnightblue" stroke="midnightblue" points="454.54,-40.1942 444.127,-42.1498 453.487,-47.1145 454.54,-40.1942"/>
</g>
<!-- Node8 -->
<g id="node15" class="node"><title>Node8</title>
<a xlink:href="logicals__intres_8cpp.html#a85967c22135715eca94d08af2ec1a1fb" target="_top" xlink:title="fenetre_confirm">
<polygon fill="white" stroke="black" points="480,-0 480,-24 564,-24 564,-0 480,-0"/>
<text text-anchor="middle" x="522" y="-11" font-family="Helvetica,sans-Serif" font-size="10.00">fenetre_confirm</text>
</a>
</g>
<!-- Node3&#45;&gt;Node8 -->
<g id="edge14" class="edge"><title>Node3&#45;&gt;Node8</title>
<path fill="none" stroke="midnightblue" d="M454.07,-22.3372C462.894,-20.9944 471.695,-19.6551 479.896,-18.4072"/>
<polygon fill="midnightblue" stroke="midnightblue" points="453.487,-18.8855 444.127,-23.8502 454.54,-25.8058 453.487,-18.8855"/>
</g>
<!-- Node5 -->
<g id="node9" class="node"><title>Node5</title>
<a xlink:href="keyboard__routines2_8cpp.html#a8563320b8eab661232619224650de244" target="_top" xlink:title="commandes_clavier">
<polygon fill="white" stroke="black" points="600,-42 600,-66 704,-66 704,-42 600,-42"/>
<text text-anchor="middle" x="652" y="-53" font-family="Helvetica,sans-Serif" font-size="10.00">commandes_clavier</text>
</a>
</g>
<!-- Node4&#45;&gt;Node5 -->
<g id="edge8" class="edge"><title>Node4&#45;&gt;Node5</title>
<path fill="none" stroke="midnightblue" d="M573.995,-54C582.473,-54 591.258,-54 599.742,-54"/>
<polygon fill="midnightblue" stroke="midnightblue" points="573.848,-50.5001 563.848,-54 573.848,-57.5001 573.848,-50.5001"/>
</g>
<!-- Node6 -->
<g id="node11" class="node"><title>Node6</title>
<a xlink:href="_m_a_i_n__avec__objets_8cpp.html#a8e80f54ac804eddce8ed6e45adb1db44" target="_top" xlink:title="ticker_full_loop">
<polygon fill="white" stroke="black" points="762,-42 762,-66 844,-66 844,-42 762,-42"/>
<text text-anchor="middle" x="803" y="-53" font-family="Helvetica,sans-Serif" font-size="10.00">ticker_full_loop</text>
</a>
</g>
<!-- Node5&#45;&gt;Node6 -->
<g id="edge10" class="edge"><title>Node5&#45;&gt;Node6</title>
<path fill="none" stroke="midnightblue" d="M714.664,-54C730.516,-54 747.147,-54 761.648,-54"/>
<polygon fill="midnightblue" stroke="midnightblue" points="714.389,-50.5001 704.389,-54 714.389,-57.5001 714.389,-50.5001"/>
</g>
<!-- Node7 -->
<g id="node13" class="node"><title>Node7</title>
<a xlink:href="_m_a_i_n__avec__objets_8cpp.html#ae66f6b31b5ad750f1fe042a706a4e3d4" target="_top" xlink:title="main">
<polygon fill="white" stroke="black" points="902,-21 902,-45 940,-45 940,-21 902,-21"/>
<text text-anchor="middle" x="921" y="-32" font-family="Helvetica,sans-Serif" font-size="10.00">main</text>
</a>
</g>
<!-- Node6&#45;&gt;Node7 -->
<g id="edge12" class="edge"><title>Node6&#45;&gt;Node7</title>
<path fill="none" stroke="midnightblue" d="M854.55,-44.8259C871.307,-41.8437 888.879,-38.7164 901.742,-36.4273"/>
<polygon fill="midnightblue" stroke="midnightblue" points="853.503,-41.4572 844.271,-46.6552 854.729,-48.3489 853.503,-41.4572"/>
</g>
<!-- Node9 -->
<g id="node17" class="node"><title>Node9</title>
<a xlink:href="graphics__rebuild1_8cpp.html#ac2eae1e03fb72cc734ffbcef566483bf" target="_top" xlink:title="Boxes">
<polygon fill="white" stroke="black" points="630,-0 630,-24 674,-24 674,-0 630,-0"/>
<text text-anchor="middle" x="652" y="-11" font-family="Helvetica,sans-Serif" font-size="10.00">Boxes</text>
</a>
</g>
<!-- Node8&#45;&gt;Node9 -->
<g id="edge16" class="edge"><title>Node8&#45;&gt;Node9</title>
<path fill="none" stroke="midnightblue" d="M574.4,-12C593.658,-12 614.45,-12 629.66,-12"/>
<polygon fill="midnightblue" stroke="midnightblue" points="574.207,-8.5001 564.207,-12 574.207,-15.5001 574.207,-8.5001"/>
</g>
<!-- Node10 -->
<g id="node19" class="node"><title>Node10</title>
<a xlink:href="_m_a_i_n__avec__objets_8cpp.html#ade8d4ba65d55c94f8ee277829d722155" target="_top" xlink:title="main_actions_on_screen">
<polygon fill="white" stroke="black" points="740.5,-0 740.5,-24 865.5,-24 865.5,-0 740.5,-0"/>
<text text-anchor="middle" x="803" y="-11" font-family="Helvetica,sans-Serif" font-size="10.00">main_actions_on_screen</text>
</a>
</g>
<!-- Node9&#45;&gt;Node10 -->
<g id="edge18" class="edge"><title>Node9&#45;&gt;Node10</title>
<path fill="none" stroke="midnightblue" d="M684.395,-12C700.76,-12 721.187,-12 740.455,-12"/>
<polygon fill="midnightblue" stroke="midnightblue" points="684.281,-8.5001 674.281,-12 684.281,-15.5001 684.281,-8.5001"/>
</g>
<!-- Node10&#45;&gt;Node7 -->
<g id="edge20" class="edge"><title>Node10&#45;&gt;Node7</title>
<path fill="none" stroke="midnightblue" d="M875.837,-24.9626C885.336,-26.6529 894.327,-28.253 901.749,-29.5739"/>
<polygon fill="midnightblue" stroke="midnightblue" points="876.259,-21.4827 865.8,-23.1763 875.032,-28.3744 876.259,-21.4827"/>
</g>
</g>
</svg>
