<?xml version="1.0" encoding="UTF-8" standalone="no"?>
<!DOCTYPE svg PUBLIC "-//W3C//DTD SVG 1.1//EN"
 "http://www.w3.org/Graphics/SVG/1.1/DTD/svg11.dtd">
<!-- Generated by graphviz version 2.26.3 (20100126.1600)
 -->
<!-- Title: lfo_fader_functions Pages: 1 -->
<svg width="418pt" height="140pt"
 viewBox="0.00 0.00 418.00 140.00" xmlns="http://www.w3.org/2000/svg" xmlns:xlink="http://www.w3.org/1999/xlink">
<g id="graph1" class="graph" transform="scale(1 1) rotate(0) translate(4 136)">
<title>lfo_fader_functions</title>
<polygon fill="white" stroke="white" points="-4,5 -4,-136 415,-136 415,5 -4,5"/>
<!-- Node1 -->
<g id="node1" class="node"><title>Node1</title>
<polygon fill="#bfbfbf" stroke="black" points="0.5,-58 0.5,-82 99.5,-82 99.5,-58 0.5,-58"/>
<text text-anchor="middle" x="50" y="-69" font-family="Helvetica,sans-Serif" font-size="10.00">lfo_fader_functions</text>
</g>
<!-- Node2 -->
<g id="node3" class="node"><title>Node2</title>
<a xlink:href="colors__fonts_8h.html#ae86cd6c0de005129d702f0c4352b2a24" target="_top" xlink:title="CouleurGrisMoyen">
<polygon fill="white" stroke="black" points="149,-108 149,-132 247,-132 247,-108 149,-108"/>
<text text-anchor="middle" x="198" y="-119" font-family="Helvetica,sans-Serif" font-size="10.00">CouleurGrisMoyen</text>
</a>
</g>
<!-- Node1&#45;&gt;Node2 -->
<g id="edge2" class="edge"><title>Node1&#45;&gt;Node2</title>
<path fill="none" stroke="midnightblue" d="M85.8267,-82.1036C105.931,-88.8957 131.213,-97.4367 152.683,-104.69"/>
<polygon fill="midnightblue" stroke="midnightblue" points="151.653,-108.036 162.247,-107.921 153.893,-101.405 151.653,-108.036"/>
</g>
<!-- Node3 -->
<g id="node5" class="node"><title>Node3</title>
<a xlink:href="gui__boutons__rebuild1_8cpp.html#a039e24b1deea8472aa6312f1201a9264" target="_top" xlink:title="raccrochage_midi_visuel\l_horizontal">
<polygon fill="white" stroke="black" points="136,-50 136,-90 260,-90 260,-50 136,-50"/>
<text text-anchor="start" x="144" y="-77" font-family="Helvetica,sans-Serif" font-size="10.00">raccrochage_midi_visuel</text>
<text text-anchor="middle" x="198" y="-61" font-family="Helvetica,sans-Serif" font-size="10.00">_horizontal</text>
</a>
</g>
<!-- Node1&#45;&gt;Node3 -->
<g id="edge4" class="edge"><title>Node1&#45;&gt;Node3</title>
<path fill="none" stroke="midnightblue" d="M99.6936,-70C108.023,-70 116.814,-70 125.576,-70"/>
<polygon fill="midnightblue" stroke="midnightblue" points="125.819,-73.5001 135.819,-70 125.819,-66.5001 125.819,-73.5001"/>
</g>
<!-- Node4 -->
<g id="node7" class="node"><title>Node4</title>
<a xlink:href="_c_o_r_e__6_8cpp.html#a1dbe2a93b1ce714d4d4bebfddbb276cd" target="_top" xlink:title="attribute_midi_to_control">
<polygon fill="white" stroke="black" points="136.5,-8 136.5,-32 259.5,-32 259.5,-8 136.5,-8"/>
<text text-anchor="middle" x="198" y="-19" font-family="Helvetica,sans-Serif" font-size="10.00">attribute_midi_to_control</text>
</a>
</g>
<!-- Node1&#45;&gt;Node4 -->
<g id="edge6" class="edge"><title>Node1&#45;&gt;Node4</title>
<path fill="none" stroke="midnightblue" d="M85.8267,-57.8964C105.931,-51.1043 131.213,-42.5633 152.683,-35.3098"/>
<polygon fill="midnightblue" stroke="midnightblue" points="153.893,-38.5953 162.247,-32.0787 151.653,-31.9635 153.893,-38.5953"/>
</g>
<!-- Node5 -->
<g id="node9" class="node"><title>Node5</title>
<a xlink:href="_c_o_r_e__6_8cpp.html#aa6f6d52757e4af2364c17c3e9dee8095" target="_top" xlink:title="search_and_desaffect\l_previous_midi_signal">
<polygon fill="white" stroke="black" points="296.5,-0 296.5,-40 409.5,-40 409.5,-0 296.5,-0"/>
<text text-anchor="start" x="304.5" y="-27" font-family="Helvetica,sans-Serif" font-size="10.00">search_and_desaffect</text>
<text text-anchor="middle" x="353" y="-11" font-family="Helvetica,sans-Serif" font-size="10.00">_previous_midi_signal</text>
</a>
</g>
<!-- Node4&#45;&gt;Node5 -->
<g id="edge8" class="edge"><title>Node4&#45;&gt;Node5</title>
<path fill="none" stroke="midnightblue" d="M259.705,-20C268.383,-20 277.336,-20 286.104,-20"/>
<polygon fill="midnightblue" stroke="midnightblue" points="286.285,-23.5001 296.285,-20 286.285,-16.5001 286.285,-23.5001"/>
</g>
</g>
</svg>
