<?xml version="1.0" encoding="UTF-8" standalone="no"?>
<!DOCTYPE svg PUBLIC "-//W3C//DTD SVG 1.1//EN"
 "http://www.w3.org/Graphics/SVG/1.1/DTD/svg11.dtd">
<!-- Generated by graphviz version 2.26.3 (20100126.1600)
 -->
<!-- Title: DoDock Pages: 1 -->
<svg width="364pt" height="137pt"
 viewBox="0.00 0.00 364.00 137.00" xmlns="http://www.w3.org/2000/svg" xmlns:xlink="http://www.w3.org/1999/xlink">
<g id="graph1" class="graph" transform="scale(1 1) rotate(0) translate(4 133)">
<title>DoDock</title>
<polygon fill="white" stroke="white" points="-4,5 -4,-133 361,-133 361,5 -4,5"/>
<!-- Node1 -->
<g id="node1" class="node"><title>Node1</title>
<polygon fill="#bfbfbf" stroke="black" points="0.5,-42 0.5,-66 53.5,-66 53.5,-42 0.5,-42"/>
<text text-anchor="middle" x="27" y="-53" font-family="Helvetica,sans-Serif" font-size="10.00">DoDock</text>
</g>
<!-- Node2 -->
<g id="node3" class="node"><title>Node2</title>
<a xlink:href="faders__operations_8cpp.html#ac93160d2b68a41a47ae2a84e32e8db21" target="_top" xlink:title="ClearDock">
<polygon fill="white" stroke="black" points="115.5,-84 115.5,-108 178.5,-108 178.5,-84 115.5,-84"/>
<text text-anchor="middle" x="147" y="-95" font-family="Helvetica,sans-Serif" font-size="10.00">ClearDock</text>
</a>
</g>
<!-- Node1&#45;&gt;Node2 -->
<g id="edge2" class="edge"><title>Node1&#45;&gt;Node2</title>
<path fill="none" stroke="midnightblue" d="M53.6319,-63.3212C68.8701,-68.6545 88.3186,-75.4615 105.517,-81.4809"/>
<polygon fill="midnightblue" stroke="midnightblue" points="104.739,-84.9169 115.334,-84.9169 107.052,-78.3099 104.739,-84.9169"/>
</g>
<!-- Node5 -->
<g id="node9" class="node"><title>Node5</title>
<a xlink:href="faders__operations_8cpp.html#ad2bcaffecd9b01aee13cb557da2ab705" target="_top" xlink:title="Unselect_other_docks">
<polygon fill="white" stroke="black" points="90,-42 90,-66 204,-66 204,-42 90,-42"/>
<text text-anchor="middle" x="147" y="-53" font-family="Helvetica,sans-Serif" font-size="10.00">Unselect_other_docks</text>
</a>
</g>
<!-- Node1&#45;&gt;Node5 -->
<g id="edge8" class="edge"><title>Node1&#45;&gt;Node5</title>
<path fill="none" stroke="midnightblue" d="M53.6319,-54C61.5423,-54 70.5873,-54 79.8631,-54"/>
<polygon fill="midnightblue" stroke="midnightblue" points="79.9762,-57.5001 89.9762,-54 79.9762,-50.5001 79.9762,-57.5001"/>
</g>
<!-- Node6 -->
<g id="node11" class="node"><title>Node6</title>
<a xlink:href="_c_o_r_e__6_8cpp.html#a852678868d2a66db68f4a2c9eacfcc78" target="_top" xlink:title="reset_numeric_entry">
<polygon fill="white" stroke="black" points="94.5,-0 94.5,-24 199.5,-24 199.5,-0 94.5,-0"/>
<text text-anchor="middle" x="147" y="-11" font-family="Helvetica,sans-Serif" font-size="10.00">reset_numeric_entry</text>
</a>
</g>
<!-- Node1&#45;&gt;Node6 -->
<g id="edge10" class="edge"><title>Node1&#45;&gt;Node6</title>
<path fill="none" stroke="midnightblue" d="M53.6319,-44.6788C68.1774,-39.5879 86.5593,-33.1543 103.158,-27.3446"/>
<polygon fill="midnightblue" stroke="midnightblue" points="104.401,-30.618 112.683,-24.0109 102.088,-24.011 104.401,-30.618"/>
</g>
<!-- Node3 -->
<g id="node5" class="node"><title>Node3</title>
<a xlink:href="_c_o_r_e__6_8cpp.html#a7323ff870691e50a22fe13a920fed4a8" target="_top" xlink:title="show_who_is_in_dock">
<polygon fill="white" stroke="black" points="240.5,-105 240.5,-129 355.5,-129 355.5,-105 240.5,-105"/>
<text text-anchor="middle" x="298" y="-116" font-family="Helvetica,sans-Serif" font-size="10.00">show_who_is_in_dock</text>
</a>
</g>
<!-- Node2&#45;&gt;Node3 -->
<g id="edge4" class="edge"><title>Node2&#45;&gt;Node3</title>
<path fill="none" stroke="midnightblue" d="M178.655,-100.402C193.759,-102.503 212.446,-105.102 230.514,-107.615"/>
<polygon fill="midnightblue" stroke="midnightblue" points="230.075,-111.087 240.462,-108.998 231.039,-104.154 230.075,-111.087"/>
</g>
<!-- Node4 -->
<g id="node7" class="node"><title>Node4</title>
<a xlink:href="faders__operations_8cpp.html#a85b6979e04dd2e2b3f6b5e26fcbb34ec" target="_top" xlink:title="DoTimeToDock">
<polygon fill="white" stroke="black" points="256,-63 256,-87 340,-87 340,-63 256,-63"/>
<text text-anchor="middle" x="298" y="-74" font-family="Helvetica,sans-Serif" font-size="10.00">DoTimeToDock</text>
</a>
</g>
<!-- Node2&#45;&gt;Node4 -->
<g id="edge6" class="edge"><title>Node2&#45;&gt;Node4</title>
<path fill="none" stroke="midnightblue" d="M178.655,-91.5977C198.078,-88.8964 223.427,-85.3711 245.764,-82.2646"/>
<polygon fill="midnightblue" stroke="midnightblue" points="246.361,-85.7153 255.784,-80.8712 245.397,-78.7821 246.361,-85.7153"/>
</g>
</g>
</svg>
