<?xml version="1.0" encoding="UTF-8" standalone="no"?>
<!DOCTYPE svg PUBLIC "-//W3C//DTD SVG 1.1//EN"
 "http://www.w3.org/Graphics/SVG/1.1/DTD/svg11.dtd">
<!-- Generated by graphviz version 2.26.3 (20100126.1600)
 -->
<!-- Title: affect_chaser_to_dock Pages: 1 -->
<svg width="376pt" height="74pt"
 viewBox="0.00 0.00 376.00 74.00" xmlns="http://www.w3.org/2000/svg" xmlns:xlink="http://www.w3.org/1999/xlink">
<g id="graph1" class="graph" transform="scale(1 1) rotate(0) translate(4 70)">
<title>affect_chaser_to_dock</title>
<polygon fill="white" stroke="white" points="-4,5 -4,-70 373,-70 373,5 -4,5"/>
<!-- Node1 -->
<g id="node1" class="node"><title>Node1</title>
<polygon fill="#bfbfbf" stroke="black" points="0.5,-21 0.5,-45 115.5,-45 115.5,-21 0.5,-21"/>
<text text-anchor="middle" x="58" y="-32" font-family="Helvetica,sans-Serif" font-size="10.00">affect_chaser_to_dock</text>
</g>
<!-- Node2 -->
<g id="node3" class="node"><title>Node2</title>
<a xlink:href="faders__operations_8cpp.html#ac93160d2b68a41a47ae2a84e32e8db21" target="_top" xlink:title="ClearDock">
<polygon fill="white" stroke="black" points="152.5,-21 152.5,-45 215.5,-45 215.5,-21 152.5,-21"/>
<text text-anchor="middle" x="184" y="-32" font-family="Helvetica,sans-Serif" font-size="10.00">ClearDock</text>
</a>
</g>
<!-- Node1&#45;&gt;Node2 -->
<g id="edge2" class="edge"><title>Node1&#45;&gt;Node2</title>
<path fill="none" stroke="midnightblue" d="M115.837,-33C124.76,-33 133.822,-33 142.3,-33"/>
<polygon fill="midnightblue" stroke="midnightblue" points="142.304,-36.5001 152.304,-33 142.304,-29.5001 142.304,-36.5001"/>
</g>
<!-- Node3 -->
<g id="node5" class="node"><title>Node3</title>
<a xlink:href="_c_o_r_e__6_8cpp.html#a7323ff870691e50a22fe13a920fed4a8" target="_top" xlink:title="show_who_is_in_dock">
<polygon fill="white" stroke="black" points="252.5,-42 252.5,-66 367.5,-66 367.5,-42 252.5,-42"/>
<text text-anchor="middle" x="310" y="-53" font-family="Helvetica,sans-Serif" font-size="10.00">show_who_is_in_dock</text>
</a>
</g>
<!-- Node2&#45;&gt;Node3 -->
<g id="edge4" class="edge"><title>Node2&#45;&gt;Node3</title>
<path fill="none" stroke="midnightblue" d="M215.795,-38.2992C223.933,-39.6555 233,-41.1667 242.205,-42.7008"/>
<polygon fill="midnightblue" stroke="midnightblue" points="241.769,-46.1764 252.209,-44.3681 242.92,-39.2717 241.769,-46.1764"/>
</g>
<!-- Node4 -->
<g id="node7" class="node"><title>Node4</title>
<a xlink:href="faders__operations_8cpp.html#a85b6979e04dd2e2b3f6b5e26fcbb34ec" target="_top" xlink:title="DoTimeToDock">
<polygon fill="white" stroke="black" points="268,-0 268,-24 352,-24 352,-0 268,-0"/>
<text text-anchor="middle" x="310" y="-11" font-family="Helvetica,sans-Serif" font-size="10.00">DoTimeToDock</text>
</a>
</g>
<!-- Node2&#45;&gt;Node4 -->
<g id="edge6" class="edge"><title>Node2&#45;&gt;Node4</title>
<path fill="none" stroke="midnightblue" d="M215.795,-27.7008C228.467,-25.5889 243.391,-23.1014 257.579,-20.7368"/>
<polygon fill="midnightblue" stroke="midnightblue" points="258.449,-24.1403 267.737,-19.0438 257.298,-17.2355 258.449,-24.1403"/>
</g>
</g>
</svg>
