<?xml version="1.0" encoding="UTF-8" standalone="no"?>
<!DOCTYPE svg PUBLIC "-//W3C//DTD SVG 1.1//EN"
 "http://www.w3.org/Graphics/SVG/1.1/DTD/svg11.dtd">
<!-- Generated by graphviz version 2.26.3 (20100126.1600)
 -->
<!-- Title: DoTimeToDock Pages: 1 -->
<svg width="1078pt" height="654pt"
 viewBox="0.00 0.00 1078.00 654.00" xmlns="http://www.w3.org/2000/svg" xmlns:xlink="http://www.w3.org/1999/xlink">
<g id="graph1" class="graph" transform="scale(1 1) rotate(0) translate(4 650)">
<title>DoTimeToDock</title>
<polygon fill="white" stroke="white" points="-4,5 -4,-650 1075,-650 1075,5 -4,5"/>
<!-- Node1 -->
<g id="node1" class="node"><title>Node1</title>
<polygon fill="#bfbfbf" stroke="black" points="0,-372 0,-396 84,-396 84,-372 0,-372"/>
<text text-anchor="middle" x="42" y="-383" font-family="Helvetica,sans-Serif" font-size="10.00">DoTimeToDock</text>
</g>
<!-- Node2 -->
<g id="node3" class="node"><title>Node2</title>
<a xlink:href="faders__core__24_8cpp.html#a7a87eef3a5459bdd689c77b5b02957d7" target="_top" xlink:title="do_logical_FaderSpace">
<polygon fill="white" stroke="black" points="121,-563 121,-587 239,-587 239,-563 121,-563"/>
<text text-anchor="middle" x="180" y="-574" font-family="Helvetica,sans-Serif" font-size="10.00">do_logical_FaderSpace</text>
</a>
</g>
<!-- Node1&#45;&gt;Node2 -->
<g id="edge2" class="edge"><title>Node1&#45;&gt;Node2</title>
<path fill="none" stroke="midnightblue" d="M56.7307,-404.388C85.3774,-444.037 147.816,-530.456 171.053,-562.616"/>
<polygon fill="midnightblue" stroke="midnightblue" points="59.5359,-402.294 50.8424,-396.238 53.862,-406.394 59.5359,-402.294"/>
</g>
<!-- Node6 -->
<g id="node11" class="node"><title>Node6</title>
<a xlink:href="faders__operations_8cpp.html#ac93160d2b68a41a47ae2a84e32e8db21" target="_top" xlink:title="ClearDock">
<polygon fill="white" stroke="black" points="148.5,-326 148.5,-350 211.5,-350 211.5,-326 148.5,-326"/>
<text text-anchor="middle" x="180" y="-337" font-family="Helvetica,sans-Serif" font-size="10.00">ClearDock</text>
</a>
</g>
<!-- Node1&#45;&gt;Node6 -->
<g id="edge10" class="edge"><title>Node1&#45;&gt;Node6</title>
<path fill="none" stroke="midnightblue" d="M87.9926,-368.669C107.752,-362.083 130.353,-354.549 148.21,-348.597"/>
<polygon fill="midnightblue" stroke="midnightblue" points="86.6379,-365.431 78.2579,-371.914 88.8515,-372.072 86.6379,-365.431"/>
</g>
<!-- Node24 -->
<g id="node60" class="node"><title>Node24</title>
<a xlink:href="midi__13_8cpp.html#a5d7de871851b10e9d1115c33d25140bb" target="_top" xlink:title="do_midi_call_order">
<polygon fill="white" stroke="black" points="131,-142 131,-166 229,-166 229,-142 131,-142"/>
<text text-anchor="middle" x="180" y="-153" font-family="Helvetica,sans-Serif" font-size="10.00">do_midi_call_order</text>
</a>
</g>
<!-- Node1&#45;&gt;Node24 -->
<g id="edge72" class="edge"><title>Node1&#45;&gt;Node24</title>
<path fill="none" stroke="midnightblue" d="M54.4451,-363.258C82.5641,-316.393 150.293,-203.512 172.68,-166.2"/>
<polygon fill="midnightblue" stroke="midnightblue" points="51.369,-361.582 49.2252,-371.958 57.3714,-365.184 51.369,-361.582"/>
</g>
<!-- Node31 -->
<g id="node76" class="node"><title>Node31</title>
<a xlink:href="minifaders__core_8cpp.html#ac974e1c0e7800b10f4290db4d5ce4db0" target="_top" xlink:title="mini_faders_panel_core">
<polygon fill="white" stroke="black" points="120.5,-419 120.5,-443 239.5,-443 239.5,-419 120.5,-419"/>
<text text-anchor="middle" x="180" y="-430" font-family="Helvetica,sans-Serif" font-size="10.00">mini_faders_panel_core</text>
</a>
</g>
<!-- Node1&#45;&gt;Node31 -->
<g id="edge90" class="edge"><title>Node1&#45;&gt;Node31</title>
<path fill="none" stroke="midnightblue" d="M87.0264,-399.335C105.702,-405.696 127.054,-412.968 144.582,-418.937"/>
<polygon fill="midnightblue" stroke="midnightblue" points="88.1329,-396.015 77.5384,-396.104 85.8761,-402.641 88.1329,-396.015"/>
</g>
<!-- Node3 -->
<g id="node5" class="node"><title>Node3</title>
<a xlink:href="procs__visuels__rebuild1_8cpp.html#ae710b6e599e321ad5934a90140067054" target="_top" xlink:title="check_graphics_mouse\l_handling">
<polygon fill="white" stroke="black" points="276.5,-606 276.5,-646 395.5,-646 395.5,-606 276.5,-606"/>
<text text-anchor="start" x="284.5" y="-633" font-family="Helvetica,sans-Serif" font-size="10.00">check_graphics_mouse</text>
<text text-anchor="middle" x="336" y="-617" font-family="Helvetica,sans-Serif" font-size="10.00">_handling</text>
</a>
</g>
<!-- Node2&#45;&gt;Node3 -->
<g id="edge4" class="edge"><title>Node2&#45;&gt;Node3</title>
<path fill="none" stroke="midnightblue" d="M226.889,-590.329C242.467,-595.422 260.026,-601.162 276.43,-606.525"/>
<polygon fill="midnightblue" stroke="midnightblue" points="227.562,-586.867 216.97,-587.086 225.387,-593.52 227.562,-586.867"/>
</g>
<!-- Node4 -->
<g id="node7" class="node"><title>Node4</title>
<a xlink:href="_m_a_i_n__avec__objets_8cpp.html#a8e80f54ac804eddce8ed6e45adb1db44" target="_top" xlink:title="ticker_full_loop">
<polygon fill="white" stroke="black" points="892,-326 892,-350 974,-350 974,-326 892,-326"/>
<text text-anchor="middle" x="933" y="-337" font-family="Helvetica,sans-Serif" font-size="10.00">ticker_full_loop</text>
</a>
</g>
<!-- Node3&#45;&gt;Node4 -->
<g id="edge6" class="edge"><title>Node3&#45;&gt;Node4</title>
<path fill="none" stroke="midnightblue" d="M386.691,-601.546C509.15,-542.47 817.642,-393.65 907.855,-350.13"/>
<polygon fill="midnightblue" stroke="midnightblue" points="384.992,-598.48 377.506,-605.977 388.033,-604.784 384.992,-598.48"/>
</g>
<!-- Node5 -->
<g id="node9" class="node"><title>Node5</title>
<a xlink:href="_m_a_i_n__avec__objets_8cpp.html#ae66f6b31b5ad750f1fe042a706a4e3d4" target="_top" xlink:title="main">
<polygon fill="white" stroke="black" points="1032,-284 1032,-308 1070,-308 1070,-284 1032,-284"/>
<text text-anchor="middle" x="1051" y="-295" font-family="Helvetica,sans-Serif" font-size="10.00">main</text>
</a>
</g>
<!-- Node4&#45;&gt;Node5 -->
<g id="edge8" class="edge"><title>Node4&#45;&gt;Node5</title>
<path fill="none" stroke="midnightblue" d="M979.823,-322.641C985.288,-320.775 990.775,-318.867 996,-317 1008.03,-312.7 1021.43,-307.593 1031.98,-303.491"/>
<polygon fill="midnightblue" stroke="midnightblue" points="978.421,-319.42 970.069,-325.939 980.663,-326.052 978.421,-319.42"/>
</g>
<!-- Node7 -->
<g id="node13" class="node"><title>Node7</title>
<a xlink:href="faders__operations_8cpp.html#a05f4b8feada0c75e33539e3163ab0aed" target="_top" xlink:title="affect_echo_to_dock">
<polygon fill="white" stroke="black" points="282.5,-564 282.5,-588 389.5,-588 389.5,-564 282.5,-564"/>
<text text-anchor="middle" x="336" y="-575" font-family="Helvetica,sans-Serif" font-size="10.00">affect_echo_to_dock</text>
</a>
</g>
<!-- Node6&#45;&gt;Node7 -->
<g id="edge12" class="edge"><title>Node6&#45;&gt;Node7</title>
<path fill="none" stroke="midnightblue" d="M200.228,-357.319C213.349,-370.907 229.834,-390.144 240,-410 269.28,-467.186 234.279,-501.144 276,-550 280.939,-555.784 287.403,-560.322 294.255,-563.869"/>
<polygon fill="midnightblue" stroke="midnightblue" points="202.497,-354.636 192.965,-350.01 197.531,-359.57 202.497,-354.636"/>
</g>
<!-- Node8 -->
<g id="node15" class="node"><title>Node8</title>
<a xlink:href="logicals__intres_8cpp.html#a74cf9c04c734ab342f88799efbfc4210" target="_top" xlink:title="operations_confirmation">
<polygon fill="white" stroke="black" points="440,-305 440,-329 560,-329 560,-305 440,-305"/>
<text text-anchor="middle" x="500" y="-316" font-family="Helvetica,sans-Serif" font-size="10.00">operations_confirmation</text>
</a>
</g>
<!-- Node6&#45;&gt;Node8 -->
<g id="edge70" class="edge"><title>Node6&#45;&gt;Node8</title>
<path fill="none" stroke="midnightblue" d="M199.765,-357.567C212.683,-371.263 229.117,-390.528 240,-410 264.479,-453.799 235.255,-487.719 276,-517 319.31,-548.124 354.191,-550.113 396,-517 450.762,-473.628 392.639,-421.712 432,-364 442.35,-348.824 459.35,-337.074 473.763,-329.118"/>
<polygon fill="midnightblue" stroke="midnightblue" points="202.099,-354.946 192.633,-350.188 197.066,-359.811 202.099,-354.946"/>
</g>
<!-- Node14 -->
<g id="node29" class="node"><title>Node14</title>
<a xlink:href="faders__operations_8cpp.html#aa3cd798eea2030ea63c067f15062bdee" target="_top" xlink:title="affect_draw_preset\l_to_dock">
<polygon fill="white" stroke="black" points="286.5,-468 286.5,-508 385.5,-508 385.5,-468 286.5,-468"/>
<text text-anchor="start" x="294.5" y="-495" font-family="Helvetica,sans-Serif" font-size="10.00">affect_draw_preset</text>
<text text-anchor="middle" x="336" y="-479" font-family="Helvetica,sans-Serif" font-size="10.00">_to_dock</text>
</a>
</g>
<!-- Node6&#45;&gt;Node14 -->
<g id="edge30" class="edge"><title>Node6&#45;&gt;Node14</title>
<path fill="none" stroke="midnightblue" d="M197.03,-357.77C209.226,-372.087 225.914,-392.007 240,-410 256.658,-431.279 255.222,-441.722 276,-459 279.914,-462.255 284.255,-465.248 288.761,-467.972"/>
<polygon fill="midnightblue" stroke="midnightblue" points="199.582,-355.368 190.422,-350.044 194.262,-359.918 199.582,-355.368"/>
</g>
<!-- Node15 -->
<g id="node32" class="node"><title>Node15</title>
<a xlink:href="faders__operations_8cpp.html#a2aebdef821440431b05b1028ca7622ae" target="_top" xlink:title="ClearFader">
<polygon fill="white" stroke="black" points="303.5,-426 303.5,-450 368.5,-450 368.5,-426 303.5,-426"/>
<text text-anchor="middle" x="336" y="-437" font-family="Helvetica,sans-Serif" font-size="10.00">ClearFader</text>
</a>
</g>
<!-- Node6&#45;&gt;Node15 -->
<g id="edge34" class="edge"><title>Node6&#45;&gt;Node15</title>
<path fill="none" stroke="midnightblue" d="M199.157,-357.271C217.521,-374.845 246.703,-400.512 276,-417 284.464,-421.763 294.198,-425.733 303.33,-428.892"/>
<polygon fill="midnightblue" stroke="midnightblue" points="201.588,-354.752 191.981,-350.285 196.705,-359.768 201.588,-354.752"/>
</g>
<!-- Node16 -->
<g id="node35" class="node"><title>Node16</title>
<a xlink:href="faders__operations_8cpp.html#a551ffd1b093a8918621736a709977a08" target="_top" xlink:title="affect_selected_faders\l_to_fgroup">
<polygon fill="white" stroke="black" points="278.5,-368 278.5,-408 393.5,-408 393.5,-368 278.5,-368"/>
<text text-anchor="start" x="286.5" y="-395" font-family="Helvetica,sans-Serif" font-size="10.00">affect_selected_faders</text>
<text text-anchor="middle" x="336" y="-379" font-family="Helvetica,sans-Serif" font-size="10.00">_to_fgroup</text>
</a>
</g>
<!-- Node6&#45;&gt;Node16 -->
<g id="edge38" class="edge"><title>Node6&#45;&gt;Node16</title>
<path fill="none" stroke="midnightblue" d="M221.427,-351.278C238.85,-356.862 259.421,-363.455 278.289,-369.503"/>
<polygon fill="midnightblue" stroke="midnightblue" points="222.16,-347.838 211.569,-348.118 220.023,-354.503 222.16,-347.838"/>
</g>
<!-- Node17 -->
<g id="node38" class="node"><title>Node17</title>
<a xlink:href="faders__operations_8cpp.html#a3571b5afaa0932ae3302580cd79fc9e2" target="_top" xlink:title="DoDock">
<polygon fill="white" stroke="black" points="309.5,-326 309.5,-350 362.5,-350 362.5,-326 309.5,-326"/>
<text text-anchor="middle" x="336" y="-337" font-family="Helvetica,sans-Serif" font-size="10.00">DoDock</text>
</a>
</g>
<!-- Node6&#45;&gt;Node17 -->
<g id="edge42" class="edge"><title>Node6&#45;&gt;Node17</title>
<path fill="none" stroke="midnightblue" d="M221.811,-338C249.649,-338 285.389,-338 309.407,-338"/>
<polygon fill="midnightblue" stroke="midnightblue" points="221.569,-334.5 211.569,-338 221.569,-341.5 221.569,-334.5"/>
</g>
<!-- Node18 -->
<g id="node41" class="node"><title>Node18</title>
<a xlink:href="faders__operations_8cpp.html#aa78052f1e3cdab13a7993a2dbe360e56" target="_top" xlink:title="affect_color_to_dock">
<polygon fill="white" stroke="black" points="282.5,-284 282.5,-308 389.5,-308 389.5,-284 282.5,-284"/>
<text text-anchor="middle" x="336" y="-295" font-family="Helvetica,sans-Serif" font-size="10.00">affect_color_to_dock</text>
</a>
</g>
<!-- Node6&#45;&gt;Node18 -->
<g id="edge46" class="edge"><title>Node6&#45;&gt;Node18</title>
<path fill="none" stroke="midnightblue" d="M221.387,-326.857C242.89,-321.068 269.193,-313.986 291.176,-308.068"/>
<polygon fill="midnightblue" stroke="midnightblue" points="220.315,-323.521 211.569,-329.501 222.135,-330.281 220.315,-323.521"/>
</g>
<!-- Node19 -->
<g id="node44" class="node"><title>Node19</title>
<a xlink:href="faders__operations_8cpp.html#acc9c7cebe2c499a652cf57035ef0f3d7" target="_top" xlink:title="affect_network_to_dock">
<polygon fill="white" stroke="black" points="276,-242 276,-266 396,-266 396,-242 276,-242"/>
<text text-anchor="middle" x="336" y="-253" font-family="Helvetica,sans-Serif" font-size="10.00">affect_network_to_dock</text>
</a>
</g>
<!-- Node6&#45;&gt;Node19 -->
<g id="edge50" class="edge"><title>Node6&#45;&gt;Node19</title>
<path fill="none" stroke="midnightblue" d="M204.201,-319.722C223.04,-306.099 250.231,-287.726 276,-275 282.63,-271.726 289.899,-268.727 297.019,-266.084"/>
<polygon fill="midnightblue" stroke="midnightblue" points="201.912,-317.06 195.918,-325.796 206.052,-322.705 201.912,-317.06"/>
</g>
<!-- Node20 -->
<g id="node47" class="node"><title>Node20</title>
<a xlink:href="faders__operations_8cpp.html#a07c9bb4ee301ef022b2bfe45a6d5dc65" target="_top" xlink:title="affect_dmxIN_to_dock">
<polygon fill="white" stroke="black" points="278.5,-200 278.5,-224 393.5,-224 393.5,-200 278.5,-200"/>
<text text-anchor="middle" x="336" y="-211" font-family="Helvetica,sans-Serif" font-size="10.00">affect_dmxIN_to_dock</text>
</a>
</g>
<!-- Node6&#45;&gt;Node20 -->
<g id="edge54" class="edge"><title>Node6&#45;&gt;Node20</title>
<path fill="none" stroke="midnightblue" d="M193.812,-317.611C210.674,-294.151 241.27,-255.924 276,-233 281.25,-229.535 287.137,-226.571 293.116,-224.058"/>
<polygon fill="midnightblue" stroke="midnightblue" points="190.932,-315.623 188.042,-325.816 196.658,-319.649 190.932,-315.623"/>
</g>
<!-- Node21 -->
<g id="node50" class="node"><title>Node21</title>
<a xlink:href="faders__operations_8cpp.html#a5f070913b27903dd6d9eff3192863f78" target="_top" xlink:title="affect_video_tracking\l_to_dock">
<polygon fill="white" stroke="black" points="281.5,-142 281.5,-182 390.5,-182 390.5,-142 281.5,-142"/>
<text text-anchor="start" x="289.5" y="-169" font-family="Helvetica,sans-Serif" font-size="10.00">affect_video_tracking</text>
<text text-anchor="middle" x="336" y="-153" font-family="Helvetica,sans-Serif" font-size="10.00">_to_dock</text>
</a>
</g>
<!-- Node6&#45;&gt;Node21 -->
<g id="edge58" class="edge"><title>Node6&#45;&gt;Node21</title>
<path fill="none" stroke="midnightblue" d="M189.351,-316.648C203.915,-285.488 234.69,-227.323 276,-191 279.649,-187.791 283.716,-184.855 287.965,-182.188"/>
<polygon fill="midnightblue" stroke="midnightblue" points="186.163,-315.203 185.199,-325.754 192.532,-318.107 186.163,-315.203"/>
</g>
<!-- Node22 -->
<g id="node53" class="node"><title>Node22</title>
<a xlink:href="faders__operations_8cpp.html#abc3533cac990a3df34abb6180a160c16" target="_top" xlink:title="affect_audio_control\l_to_dock">
<polygon fill="white" stroke="black" points="284,-84 284,-124 388,-124 388,-84 284,-84"/>
<text text-anchor="start" x="292" y="-111" font-family="Helvetica,sans-Serif" font-size="10.00">affect_audio_control</text>
<text text-anchor="middle" x="336" y="-95" font-family="Helvetica,sans-Serif" font-size="10.00">_to_dock</text>
</a>
</g>
<!-- Node6&#45;&gt;Node22 -->
<g id="edge62" class="edge"><title>Node6&#45;&gt;Node22</title>
<path fill="none" stroke="midnightblue" d="M185.081,-315.942C195.528,-275.02 223.013,-186.64 276,-133 279.252,-129.708 282.953,-126.736 286.883,-124.066"/>
<polygon fill="midnightblue" stroke="midnightblue" points="181.667,-315.17 182.683,-325.716 188.465,-316.839 181.667,-315.17"/>
</g>
<!-- Node23 -->
<g id="node56" class="node"><title>Node23</title>
<a xlink:href="faders__operations_8cpp.html#a06eba13b16b946de5033694ebc7bd02f" target="_top" xlink:title="affect_chaser_to_dock">
<polygon fill="white" stroke="black" points="278.5,-42 278.5,-66 393.5,-66 393.5,-42 278.5,-42"/>
<text text-anchor="middle" x="336" y="-53" font-family="Helvetica,sans-Serif" font-size="10.00">affect_chaser_to_dock</text>
</a>
</g>
<!-- Node6&#45;&gt;Node23 -->
<g id="edge66" class="edge"><title>Node6&#45;&gt;Node23</title>
<path fill="none" stroke="midnightblue" d="M188.049,-316.287C199.61,-285.063 221.557,-225.661 240,-175 256.159,-130.613 242.451,-108.253 276,-75 279.527,-71.5039 283.668,-68.588 288.099,-66.1564"/>
<polygon fill="midnightblue" stroke="midnightblue" points="184.738,-315.149 184.546,-325.742 191.302,-317.581 184.738,-315.149"/>
</g>
<!-- Node7&#45;&gt;Node8 -->
<g id="edge14" class="edge"><title>Node7&#45;&gt;Node8</title>
<path fill="none" stroke="midnightblue" d="M387.079,-558.478C390.4,-556.006 393.435,-553.195 396,-550 448.718,-484.345 385.955,-434.495 432,-364 441.967,-348.741 458.78,-337.054 473.194,-329.151"/>
<polygon fill="midnightblue" stroke="midnightblue" points="384.959,-555.675 378.34,-563.948 388.673,-561.609 384.959,-555.675"/>
</g>
<!-- Node9 -->
<g id="node17" class="node"><title>Node9</title>
<a xlink:href="keyboard__functions2_8cpp.html#a548548066307f816c5021de7d6e4f26a" target="_top" xlink:title="key_affectation">
<polygon fill="white" stroke="black" points="604.5,-326 604.5,-350 687.5,-350 687.5,-326 604.5,-326"/>
<text text-anchor="middle" x="646" y="-337" font-family="Helvetica,sans-Serif" font-size="10.00">key_affectation</text>
</a>
</g>
<!-- Node8&#45;&gt;Node9 -->
<g id="edge16" class="edge"><title>Node8&#45;&gt;Node9</title>
<path fill="none" stroke="midnightblue" d="M570.345,-327.118C581.919,-328.783 593.582,-330.46 604.168,-331.983"/>
<polygon fill="midnightblue" stroke="midnightblue" points="570.623,-323.622 560.227,-325.663 569.627,-330.551 570.623,-323.622"/>
</g>
<!-- Node11 -->
<g id="node22" class="node"><title>Node11</title>
<a xlink:href="logicals__intres_8cpp.html#a85967c22135715eca94d08af2ec1a1fb" target="_top" xlink:title="fenetre_confirm">
<polygon fill="white" stroke="black" points="604,-284 604,-308 688,-308 688,-284 604,-284"/>
<text text-anchor="middle" x="646" y="-295" font-family="Helvetica,sans-Serif" font-size="10.00">fenetre_confirm</text>
</a>
</g>
<!-- Node8&#45;&gt;Node11 -->
<g id="edge22" class="edge"><title>Node8&#45;&gt;Node11</title>
<path fill="none" stroke="midnightblue" d="M570.237,-306.897C581.687,-305.25 593.228,-303.59 603.731,-302.08"/>
<polygon fill="midnightblue" stroke="midnightblue" points="569.627,-303.449 560.227,-308.337 570.623,-310.378 569.627,-303.449"/>
</g>
<!-- Node10 -->
<g id="node19" class="node"><title>Node10</title>
<a xlink:href="keyboard__routines2_8cpp.html#a8563320b8eab661232619224650de244" target="_top" xlink:title="commandes_clavier">
<polygon fill="white" stroke="black" points="727,-326 727,-350 831,-350 831,-326 727,-326"/>
<text text-anchor="middle" x="779" y="-337" font-family="Helvetica,sans-Serif" font-size="10.00">commandes_clavier</text>
</a>
</g>
<!-- Node9&#45;&gt;Node10 -->
<g id="edge18" class="edge"><title>Node9&#45;&gt;Node10</title>
<path fill="none" stroke="midnightblue" d="M697.794,-338C707.268,-338 717.161,-338 726.651,-338"/>
<polygon fill="midnightblue" stroke="midnightblue" points="697.717,-334.5 687.717,-338 697.717,-341.5 697.717,-334.5"/>
</g>
<!-- Node10&#45;&gt;Node4 -->
<g id="edge20" class="edge"><title>Node10&#45;&gt;Node4</title>
<path fill="none" stroke="midnightblue" d="M841.491,-338C858.37,-338 876.213,-338 891.617,-338"/>
<polygon fill="midnightblue" stroke="midnightblue" points="841.137,-334.5 831.137,-338 841.137,-341.5 841.137,-334.5"/>
</g>
<!-- Node12 -->
<g id="node24" class="node"><title>Node12</title>
<a xlink:href="graphics__rebuild1_8cpp.html#ac2eae1e03fb72cc734ffbcef566483bf" target="_top" xlink:title="Boxes">
<polygon fill="white" stroke="black" points="757,-284 757,-308 801,-308 801,-284 757,-284"/>
<text text-anchor="middle" x="779" y="-295" font-family="Helvetica,sans-Serif" font-size="10.00">Boxes</text>
</a>
</g>
<!-- Node11&#45;&gt;Node12 -->
<g id="edge24" class="edge"><title>Node11&#45;&gt;Node12</title>
<path fill="none" stroke="midnightblue" d="M698.221,-296C718.622,-296 740.904,-296 756.888,-296"/>
<polygon fill="midnightblue" stroke="midnightblue" points="698.082,-292.5 688.082,-296 698.082,-299.5 698.082,-292.5"/>
</g>
<!-- Node13 -->
<g id="node26" class="node"><title>Node13</title>
<a xlink:href="_m_a_i_n__avec__objets_8cpp.html#ade8d4ba65d55c94f8ee277829d722155" target="_top" xlink:title="main_actions_on_screen">
<polygon fill="white" stroke="black" points="870.5,-284 870.5,-308 995.5,-308 995.5,-284 870.5,-284"/>
<text text-anchor="middle" x="933" y="-295" font-family="Helvetica,sans-Serif" font-size="10.00">main_actions_on_screen</text>
</a>
</g>
<!-- Node12&#45;&gt;Node13 -->
<g id="edge26" class="edge"><title>Node12&#45;&gt;Node13</title>
<path fill="none" stroke="midnightblue" d="M811.111,-296C828.282,-296 850.03,-296 870.387,-296"/>
<polygon fill="midnightblue" stroke="midnightblue" points="811.064,-292.5 801.064,-296 811.064,-299.5 811.064,-292.5"/>
</g>
<!-- Node13&#45;&gt;Node5 -->
<g id="edge28" class="edge"><title>Node13&#45;&gt;Node5</title>
<path fill="none" stroke="midnightblue" d="M1005.84,-296C1015.34,-296 1024.33,-296 1031.75,-296"/>
<polygon fill="midnightblue" stroke="midnightblue" points="1005.8,-292.5 995.8,-296 1005.8,-299.5 1005.8,-292.5"/>
</g>
<!-- Node14&#45;&gt;Node8 -->
<g id="edge32" class="edge"><title>Node14&#45;&gt;Node8</title>
<path fill="none" stroke="midnightblue" d="M393.631,-461.432C394.447,-460.643 395.238,-459.832 396,-459 426.492,-425.699 404.17,-399.555 432,-364 443.588,-349.196 461.122,-337.236 475.483,-329.085"/>
<polygon fill="midnightblue" stroke="midnightblue" points="391.169,-458.926 385.678,-467.987 395.621,-464.328 391.169,-458.926"/>
</g>
<!-- Node15&#45;&gt;Node8 -->
<g id="edge36" class="edge"><title>Node15&#45;&gt;Node8</title>
<path fill="none" stroke="midnightblue" d="M378.513,-426.979C384.722,-424.303 390.775,-421.017 396,-417 418.576,-399.645 411.947,-384.217 432,-364 445.745,-350.143 464.077,-337.745 478.244,-329.166"/>
<polygon fill="midnightblue" stroke="midnightblue" points="376.826,-423.877 368.723,-430.702 379.314,-430.419 376.826,-423.877"/>
</g>
<!-- Node16&#45;&gt;Node8 -->
<g id="edge40" class="edge"><title>Node16&#45;&gt;Node8</title>
<path fill="none" stroke="midnightblue" d="M391.885,-363.806C418.812,-352.148 449.935,-338.674 471.854,-329.185"/>
<polygon fill="midnightblue" stroke="midnightblue" points="390.344,-360.659 382.557,-367.844 393.125,-367.083 390.344,-360.659"/>
</g>
<!-- Node17&#45;&gt;Node8 -->
<g id="edge44" class="edge"><title>Node17&#45;&gt;Node8</title>
<path fill="none" stroke="midnightblue" d="M372.835,-333.283C392.601,-330.752 417.455,-327.57 439.935,-324.691"/>
<polygon fill="midnightblue" stroke="midnightblue" points="372.189,-329.837 362.714,-334.579 373.078,-336.781 372.189,-329.837"/>
</g>
<!-- Node18&#45;&gt;Node8 -->
<g id="edge48" class="edge"><title>Node18&#45;&gt;Node8</title>
<path fill="none" stroke="midnightblue" d="M399.671,-304.153C412.914,-305.849 426.829,-307.63 439.936,-309.309"/>
<polygon fill="midnightblue" stroke="midnightblue" points="400.063,-300.675 389.7,-302.876 399.174,-307.618 400.063,-300.675"/>
</g>
<!-- Node19&#45;&gt;Node8 -->
<g id="edge52" class="edge"><title>Node19&#45;&gt;Node8</title>
<path fill="none" stroke="midnightblue" d="M380.995,-269.489C386.069,-271.313 391.154,-273.175 396,-275 421.511,-284.61 450.223,-296.27 471.005,-304.864"/>
<polygon fill="midnightblue" stroke="midnightblue" points="381.912,-266.101 371.317,-266.05 379.567,-272.697 381.912,-266.101"/>
</g>
<!-- Node20&#45;&gt;Node8 -->
<g id="edge56" class="edge"><title>Node20&#45;&gt;Node8</title>
<path fill="none" stroke="midnightblue" d="M385.876,-227.944C389.364,-229.517 392.773,-231.203 396,-233 432.703,-253.436 469.495,-286.965 487.902,-304.857"/>
<polygon fill="midnightblue" stroke="midnightblue" points="387.106,-224.665 376.529,-224.043 384.41,-231.125 387.106,-224.665"/>
</g>
<!-- Node21&#45;&gt;Node8 -->
<g id="edge60" class="edge"><title>Node21&#45;&gt;Node8</title>
<path fill="none" stroke="midnightblue" d="M391.232,-187.483C392.87,-188.622 394.464,-189.795 396,-191 439.507,-225.151 477.076,-280.382 492.51,-304.764"/>
<polygon fill="midnightblue" stroke="midnightblue" points="393.058,-184.496 382.744,-182.075 389.297,-190.4 393.058,-184.496"/>
</g>
<!-- Node22&#45;&gt;Node8 -->
<g id="edge64" class="edge"><title>Node22&#45;&gt;Node8</title>
<path fill="none" stroke="midnightblue" d="M392.637,-130.044C393.795,-131.001 394.919,-131.986 396,-133 451.139,-184.706 484.881,-272.342 495.958,-304.602"/>
<polygon fill="midnightblue" stroke="midnightblue" points="394.694,-127.213 384.554,-124.141 390.565,-132.865 394.694,-127.213"/>
</g>
<!-- Node23&#45;&gt;Node8 -->
<g id="edge68" class="edge"><title>Node23&#45;&gt;Node8</title>
<path fill="none" stroke="midnightblue" d="M391.88,-71.5564C393.318,-72.637 394.696,-73.7836 396,-75 467.551,-141.762 492.152,-266.014 498.298,-304.987"/>
<polygon fill="midnightblue" stroke="midnightblue" points="393.426,-68.3953 383.092,-66.0606 389.715,-74.3304 393.426,-68.3953"/>
</g>
<!-- Node25 -->
<g id="node62" class="node"><title>Node25</title>
<a xlink:href="midi__13_8cpp.html#a6dff3d42682b58cc0a9875ee30fb4cd4" target="_top" xlink:title="do_midi_job">
<polygon fill="white" stroke="black" points="302,-0 302,-24 370,-24 370,-0 302,-0"/>
<text text-anchor="middle" x="336" y="-11" font-family="Helvetica,sans-Serif" font-size="10.00">do_midi_job</text>
</a>
</g>
<!-- Node24&#45;&gt;Node25 -->
<g id="edge74" class="edge"><title>Node24&#45;&gt;Node25</title>
<path fill="none" stroke="midnightblue" d="M191.626,-132.883C207.411,-106.053 238.053,-59.9982 276,-33 283.734,-27.4978 293.042,-23.3224 301.995,-20.2034"/>
<polygon fill="midnightblue" stroke="midnightblue" points="188.436,-131.411 186.497,-141.827 194.508,-134.893 188.436,-131.411"/>
</g>
<!-- Node26 -->
<g id="node64" class="node"><title>Node26</title>
<a xlink:href="midi__13_8cpp.html#a6bedf9750195224914cd87c4e73ab626" target="_top" xlink:title="ventilate_midi_to_midiarray">
<polygon fill="white" stroke="black" points="432.5,-39 432.5,-63 567.5,-63 567.5,-39 432.5,-39"/>
<text text-anchor="middle" x="500" y="-50" font-family="Helvetica,sans-Serif" font-size="10.00">ventilate_midi_to_midiarray</text>
</a>
</g>
<!-- Node25&#45;&gt;Node26 -->
<g id="edge76" class="edge"><title>Node25&#45;&gt;Node26</title>
<path fill="none" stroke="midnightblue" d="M380.174,-22.5047C401.55,-27.5882 427.319,-33.7161 449.474,-38.9846"/>
<polygon fill="midnightblue" stroke="midnightblue" points="380.918,-19.0842 370.38,-20.1757 379.299,-25.8943 380.918,-19.0842"/>
</g>
<!-- Node27 -->
<g id="node66" class="node"><title>Node27</title>
<a xlink:href="midi__13_8cpp.html#afa49dd5668303c2448676c8243737c2d" target="_top" xlink:title="simulate_midi">
<polygon fill="white" stroke="black" points="607.5,-99 607.5,-123 684.5,-123 684.5,-99 607.5,-99"/>
<text text-anchor="middle" x="646" y="-110" font-family="Helvetica,sans-Serif" font-size="10.00">simulate_midi</text>
</a>
</g>
<!-- Node26&#45;&gt;Node27 -->
<g id="edge78" class="edge"><title>Node26&#45;&gt;Node27</title>
<path fill="none" stroke="midnightblue" d="M538.867,-66.9729C563.234,-76.9865 594.148,-89.6909 616.499,-98.8762"/>
<polygon fill="midnightblue" stroke="midnightblue" points="540.125,-63.7058 529.545,-63.1419 537.464,-70.1804 540.125,-63.7058"/>
</g>
<!-- Node28 -->
<g id="node68" class="node"><title>Node28</title>
<a xlink:href="arduino__core__6___u_n_o_8cpp.html#ae72d1a8d74d9ab5515962e03e7e664d6" target="_top" xlink:title="arduino_do_analog_in\l_whitecat">
<polygon fill="white" stroke="black" points="724,-149 724,-189 834,-189 834,-149 724,-149"/>
<text text-anchor="start" x="732" y="-176" font-family="Helvetica,sans-Serif" font-size="10.00">arduino_do_analog_in</text>
<text text-anchor="middle" x="779" y="-160" font-family="Helvetica,sans-Serif" font-size="10.00">_whitecat</text>
</a>
</g>
<!-- Node27&#45;&gt;Node28 -->
<g id="edge80" class="edge"><title>Node27&#45;&gt;Node28</title>
<path fill="none" stroke="midnightblue" d="M682.816,-127.055C698.311,-133.812 716.512,-141.75 732.887,-148.891"/>
<polygon fill="midnightblue" stroke="midnightblue" points="684.123,-123.807 673.558,-123.018 681.325,-130.223 684.123,-123.807"/>
</g>
<!-- Node30 -->
<g id="node73" class="node"><title>Node30</title>
<a xlink:href="arduino__core__6___u_n_o_8cpp.html#a219226c1cd6cc17c78e62fd4445bb445" target="_top" xlink:title="arduino_do_digital\l_in_whitecat">
<polygon fill="white" stroke="black" points="731.5,-91 731.5,-131 826.5,-131 826.5,-91 731.5,-91"/>
<text text-anchor="start" x="739.5" y="-118" font-family="Helvetica,sans-Serif" font-size="10.00">arduino_do_digital</text>
<text text-anchor="middle" x="779" y="-102" font-family="Helvetica,sans-Serif" font-size="10.00">_in_whitecat</text>
</a>
</g>
<!-- Node27&#45;&gt;Node30 -->
<g id="edge86" class="edge"><title>Node27&#45;&gt;Node30</title>
<path fill="none" stroke="midnightblue" d="M695.018,-111C706.898,-111 719.58,-111 731.393,-111"/>
<polygon fill="midnightblue" stroke="midnightblue" points="694.827,-107.5 684.827,-111 694.827,-114.5 694.827,-107.5"/>
</g>
<!-- Node29 -->
<g id="node70" class="node"><title>Node29</title>
<a xlink:href="_m_a_i_n__avec__objets_8cpp.html#ace9c8a9b37c6087c3cffef442d71d70e" target="_top" xlink:title="dixiemes_de_secondes">
<polygon fill="white" stroke="black" points="873.5,-157 873.5,-181 992.5,-181 992.5,-157 873.5,-157"/>
<text text-anchor="middle" x="933" y="-168" font-family="Helvetica,sans-Serif" font-size="10.00">dixiemes_de_secondes</text>
</a>
</g>
<!-- Node28&#45;&gt;Node29 -->
<g id="edge82" class="edge"><title>Node28&#45;&gt;Node29</title>
<path fill="none" stroke="midnightblue" d="M844.426,-169C854,-169 863.817,-169 873.269,-169"/>
<polygon fill="midnightblue" stroke="midnightblue" points="844.163,-165.5 834.163,-169 844.163,-172.5 844.163,-165.5"/>
</g>
<!-- Node29&#45;&gt;Node5 -->
<g id="edge84" class="edge"><title>Node29&#45;&gt;Node5</title>
<path fill="none" stroke="midnightblue" d="M951.325,-188.722C975.968,-215.245 1019.06,-261.62 1039.55,-283.673"/>
<polygon fill="midnightblue" stroke="midnightblue" points="953.685,-186.121 944.314,-181.177 948.557,-190.886 953.685,-186.121"/>
</g>
<!-- Node30&#45;&gt;Node29 -->
<g id="edge88" class="edge"><title>Node30&#45;&gt;Node29</title>
<path fill="none" stroke="midnightblue" d="M836.366,-132.605C858.116,-140.797 882.105,-149.832 900.74,-156.85"/>
<polygon fill="midnightblue" stroke="midnightblue" points="837.474,-129.283 826.882,-129.034 835.007,-135.834 837.474,-129.283"/>
</g>
<!-- Node31&#45;&gt;Node3 -->
<g id="edge92" class="edge"><title>Node31&#45;&gt;Node3</title>
<path fill="none" stroke="midnightblue" d="M190.403,-452.443C209.993,-492.174 252.497,-575.177 276,-597 279.476,-600.228 283.378,-603.165 287.48,-605.823"/>
<polygon fill="midnightblue" stroke="midnightblue" points="193.485,-450.778 185.941,-443.338 187.199,-453.858 193.485,-450.778"/>
</g>
</g>
</svg>
