<?xml version="1.0" encoding="UTF-8" standalone="no"?>
<!DOCTYPE svg PUBLIC "-//W3C//DTD SVG 1.1//EN"
 "http://www.w3.org/Graphics/SVG/1.1/DTD/svg11.dtd">
<!-- Generated by graphviz version 2.26.3 (20100126.1600)
 -->
<!-- Title: do_logical_lfo_fader_functions Pages: 1 -->
<svg width="614pt" height="48pt"
 viewBox="0.00 0.00 614.00 48.00" xmlns="http://www.w3.org/2000/svg" xmlns:xlink="http://www.w3.org/1999/xlink">
<g id="graph1" class="graph" transform="scale(1 1) rotate(0) translate(4 44)">
<title>do_logical_lfo_fader_functions</title>
<polygon fill="white" stroke="white" points="-4,5 -4,-44 611,-44 611,5 -4,5"/>
<!-- Node1 -->
<g id="node1" class="node"><title>Node1</title>
<polygon fill="#bfbfbf" stroke="black" points="0.5,-0 0.5,-40 103.5,-40 103.5,-0 0.5,-0"/>
<text text-anchor="start" x="8.5" y="-27" font-family="Helvetica,sans-Serif" font-size="10.00">do_logical_lfo_fader</text>
<text text-anchor="middle" x="52" y="-11" font-family="Helvetica,sans-Serif" font-size="10.00">_functions</text>
</g>
<!-- Node2 -->
<g id="node3" class="node"><title>Node2</title>
<a xlink:href="faders__core__24_8cpp.html#a7a87eef3a5459bdd689c77b5b02957d7" target="_top" xlink:title="do_logical_FaderSpace">
<polygon fill="white" stroke="black" points="140,-8 140,-32 258,-32 258,-8 140,-8"/>
<text text-anchor="middle" x="199" y="-19" font-family="Helvetica,sans-Serif" font-size="10.00">do_logical_FaderSpace</text>
</a>
</g>
<!-- Node1&#45;&gt;Node2 -->
<g id="edge2" class="edge"><title>Node1&#45;&gt;Node2</title>
<path fill="none" stroke="midnightblue" d="M114.102,-20C122.638,-20 131.384,-20 139.864,-20"/>
<polygon fill="midnightblue" stroke="midnightblue" points="113.827,-16.5001 103.827,-20 113.827,-23.5001 113.827,-16.5001"/>
</g>
<!-- Node3 -->
<g id="node5" class="node"><title>Node3</title>
<a xlink:href="procs__visuels__rebuild1_8cpp.html#ae710b6e599e321ad5934a90140067054" target="_top" xlink:title="check_graphics_mouse\l_handling">
<polygon fill="white" stroke="black" points="294.5,-0 294.5,-40 413.5,-40 413.5,-0 294.5,-0"/>
<text text-anchor="start" x="302.5" y="-27" font-family="Helvetica,sans-Serif" font-size="10.00">check_graphics_mouse</text>
<text text-anchor="middle" x="354" y="-11" font-family="Helvetica,sans-Serif" font-size="10.00">_handling</text>
</a>
</g>
<!-- Node2&#45;&gt;Node3 -->
<g id="edge4" class="edge"><title>Node2&#45;&gt;Node3</title>
<path fill="none" stroke="midnightblue" d="M268.194,-20C276.921,-20 285.791,-20 294.353,-20"/>
<polygon fill="midnightblue" stroke="midnightblue" points="268.041,-16.5001 258.041,-20 268.041,-23.5001 268.041,-16.5001"/>
</g>
<!-- Node4 -->
<g id="node7" class="node"><title>Node4</title>
<a xlink:href="_m_a_i_n__avec__objets_8cpp.html#a8e80f54ac804eddce8ed6e45adb1db44" target="_top" xlink:title="ticker_full_loop">
<polygon fill="white" stroke="black" points="450,-8 450,-32 532,-32 532,-8 450,-8"/>
<text text-anchor="middle" x="491" y="-19" font-family="Helvetica,sans-Serif" font-size="10.00">ticker_full_loop</text>
</a>
</g>
<!-- Node3&#45;&gt;Node4 -->
<g id="edge6" class="edge"><title>Node3&#45;&gt;Node4</title>
<path fill="none" stroke="midnightblue" d="M423.967,-20C432.737,-20 441.475,-20 449.605,-20"/>
<polygon fill="midnightblue" stroke="midnightblue" points="423.692,-16.5001 413.692,-20 423.692,-23.5001 423.692,-16.5001"/>
</g>
<!-- Node5 -->
<g id="node9" class="node"><title>Node5</title>
<a xlink:href="_m_a_i_n__avec__objets_8cpp.html#ae66f6b31b5ad750f1fe042a706a4e3d4" target="_top" xlink:title="main">
<polygon fill="white" stroke="black" points="568,-8 568,-32 606,-32 606,-8 568,-8"/>
<text text-anchor="middle" x="587" y="-19" font-family="Helvetica,sans-Serif" font-size="10.00">main</text>
</a>
</g>
<!-- Node4&#45;&gt;Node5 -->
<g id="edge8" class="edge"><title>Node4&#45;&gt;Node5</title>
<path fill="none" stroke="midnightblue" d="M542.509,-20C551.577,-20 560.476,-20 567.904,-20"/>
<polygon fill="midnightblue" stroke="midnightblue" points="542.27,-16.5001 532.27,-20 542.27,-23.5001 542.27,-16.5001"/>
</g>
</g>
</svg>
