<?xml version="1.0" encoding="UTF-8" standalone="no"?>
<!DOCTYPE svg PUBLIC "-//W3C//DTD SVG 1.1//EN"
 "http://www.w3.org/Graphics/SVG/1.1/DTD/svg11.dtd">
<!-- Generated by graphviz version 2.26.3 (20100126.1600)
 -->
<!-- Title: affect_network_to_dock Pages: 1 -->
<svg width="780pt" height="74pt"
 viewBox="0.00 0.00 780.00 74.00" xmlns="http://www.w3.org/2000/svg" xmlns:xlink="http://www.w3.org/1999/xlink">
<g id="graph1" class="graph" transform="scale(1 1) rotate(0) translate(4 70)">
<title>affect_network_to_dock</title>
<polygon fill="white" stroke="white" points="-4,5 -4,-70 777,-70 777,5 -4,5"/>
<!-- Node1 -->
<g id="node1" class="node"><title>Node1</title>
<polygon fill="#bfbfbf" stroke="black" points="0,-21 0,-45 120,-45 120,-21 0,-21"/>
<text text-anchor="middle" x="60" y="-32" font-family="Helvetica,sans-Serif" font-size="10.00">affect_network_to_dock</text>
</g>
<!-- Node2 -->
<g id="node3" class="node"><title>Node2</title>
<a xlink:href="logicals__intres_8cpp.html#a74cf9c04c734ab342f88799efbfc4210" target="_top" xlink:title="operations_confirmation">
<polygon fill="white" stroke="black" points="156,-21 156,-45 276,-45 276,-21 156,-21"/>
<text text-anchor="middle" x="216" y="-32" font-family="Helvetica,sans-Serif" font-size="10.00">operations_confirmation</text>
</a>
</g>
<!-- Node1&#45;&gt;Node2 -->
<g id="edge2" class="edge"><title>Node1&#45;&gt;Node2</title>
<path fill="none" stroke="midnightblue" d="M130.538,-33C138.99,-33 147.56,-33 155.847,-33"/>
<polygon fill="midnightblue" stroke="midnightblue" points="130.314,-29.5001 120.314,-33 130.314,-36.5001 130.314,-29.5001"/>
</g>
<!-- Node3 -->
<g id="node5" class="node"><title>Node3</title>
<a xlink:href="keyboard__functions2_8cpp.html#a548548066307f816c5021de7d6e4f26a" target="_top" xlink:title="key_affectation">
<polygon fill="white" stroke="black" points="312.5,-42 312.5,-66 395.5,-66 395.5,-42 312.5,-42"/>
<text text-anchor="middle" x="354" y="-53" font-family="Helvetica,sans-Serif" font-size="10.00">key_affectation</text>
</a>
</g>
<!-- Node2&#45;&gt;Node3 -->
<g id="edge4" class="edge"><title>Node2&#45;&gt;Node3</title>
<path fill="none" stroke="midnightblue" d="M286.19,-43.681C295.12,-45.04 304.024,-46.395 312.303,-47.6548"/>
<polygon fill="midnightblue" stroke="midnightblue" points="286.54,-40.1942 276.127,-42.1498 285.487,-47.1145 286.54,-40.1942"/>
</g>
<!-- Node7 -->
<g id="node13" class="node"><title>Node7</title>
<a xlink:href="logicals__intres_8cpp.html#a85967c22135715eca94d08af2ec1a1fb" target="_top" xlink:title="fenetre_confirm">
<polygon fill="white" stroke="black" points="312,-0 312,-24 396,-24 396,-0 312,-0"/>
<text text-anchor="middle" x="354" y="-11" font-family="Helvetica,sans-Serif" font-size="10.00">fenetre_confirm</text>
</a>
</g>
<!-- Node2&#45;&gt;Node7 -->
<g id="edge12" class="edge"><title>Node2&#45;&gt;Node7</title>
<path fill="none" stroke="midnightblue" d="M286.07,-22.3372C294.894,-20.9944 303.695,-19.6551 311.896,-18.4072"/>
<polygon fill="midnightblue" stroke="midnightblue" points="285.487,-18.8855 276.127,-23.8502 286.54,-25.8058 285.487,-18.8855"/>
</g>
<!-- Node4 -->
<g id="node7" class="node"><title>Node4</title>
<a xlink:href="keyboard__routines2_8cpp.html#a8563320b8eab661232619224650de244" target="_top" xlink:title="commandes_clavier">
<polygon fill="white" stroke="black" points="432,-42 432,-66 536,-66 536,-42 432,-42"/>
<text text-anchor="middle" x="484" y="-53" font-family="Helvetica,sans-Serif" font-size="10.00">commandes_clavier</text>
</a>
</g>
<!-- Node3&#45;&gt;Node4 -->
<g id="edge6" class="edge"><title>Node3&#45;&gt;Node4</title>
<path fill="none" stroke="midnightblue" d="M405.995,-54C414.473,-54 423.258,-54 431.742,-54"/>
<polygon fill="midnightblue" stroke="midnightblue" points="405.848,-50.5001 395.848,-54 405.848,-57.5001 405.848,-50.5001"/>
</g>
<!-- Node5 -->
<g id="node9" class="node"><title>Node5</title>
<a xlink:href="_m_a_i_n__avec__objets_8cpp.html#a8e80f54ac804eddce8ed6e45adb1db44" target="_top" xlink:title="ticker_full_loop">
<polygon fill="white" stroke="black" points="594,-42 594,-66 676,-66 676,-42 594,-42"/>
<text text-anchor="middle" x="635" y="-53" font-family="Helvetica,sans-Serif" font-size="10.00">ticker_full_loop</text>
</a>
</g>
<!-- Node4&#45;&gt;Node5 -->
<g id="edge8" class="edge"><title>Node4&#45;&gt;Node5</title>
<path fill="none" stroke="midnightblue" d="M546.664,-54C562.516,-54 579.147,-54 593.648,-54"/>
<polygon fill="midnightblue" stroke="midnightblue" points="546.389,-50.5001 536.389,-54 546.389,-57.5001 546.389,-50.5001"/>
</g>
<!-- Node6 -->
<g id="node11" class="node"><title>Node6</title>
<a xlink:href="_m_a_i_n__avec__objets_8cpp.html#ae66f6b31b5ad750f1fe042a706a4e3d4" target="_top" xlink:title="main">
<polygon fill="white" stroke="black" points="734,-21 734,-45 772,-45 772,-21 734,-21"/>
<text text-anchor="middle" x="753" y="-32" font-family="Helvetica,sans-Serif" font-size="10.00">main</text>
</a>
</g>
<!-- Node5&#45;&gt;Node6 -->
<g id="edge10" class="edge"><title>Node5&#45;&gt;Node6</title>
<path fill="none" stroke="midnightblue" d="M686.55,-44.8259C703.307,-41.8437 720.879,-38.7164 733.742,-36.4273"/>
<polygon fill="midnightblue" stroke="midnightblue" points="685.503,-41.4572 676.271,-46.6552 686.729,-48.3489 685.503,-41.4572"/>
</g>
<!-- Node8 -->
<g id="node15" class="node"><title>Node8</title>
<a xlink:href="graphics__rebuild1_8cpp.html#ac2eae1e03fb72cc734ffbcef566483bf" target="_top" xlink:title="Boxes">
<polygon fill="white" stroke="black" points="462,-0 462,-24 506,-24 506,-0 462,-0"/>
<text text-anchor="middle" x="484" y="-11" font-family="Helvetica,sans-Serif" font-size="10.00">Boxes</text>
</a>
</g>
<!-- Node7&#45;&gt;Node8 -->
<g id="edge14" class="edge"><title>Node7&#45;&gt;Node8</title>
<path fill="none" stroke="midnightblue" d="M406.4,-12C425.658,-12 446.45,-12 461.66,-12"/>
<polygon fill="midnightblue" stroke="midnightblue" points="406.207,-8.5001 396.207,-12 406.207,-15.5001 406.207,-8.5001"/>
</g>
<!-- Node9 -->
<g id="node17" class="node"><title>Node9</title>
<a xlink:href="_m_a_i_n__avec__objets_8cpp.html#ade8d4ba65d55c94f8ee277829d722155" target="_top" xlink:title="main_actions_on_screen">
<polygon fill="white" stroke="black" points="572.5,-0 572.5,-24 697.5,-24 697.5,-0 572.5,-0"/>
<text text-anchor="middle" x="635" y="-11" font-family="Helvetica,sans-Serif" font-size="10.00">main_actions_on_screen</text>
</a>
</g>
<!-- Node8&#45;&gt;Node9 -->
<g id="edge16" class="edge"><title>Node8&#45;&gt;Node9</title>
<path fill="none" stroke="midnightblue" d="M516.395,-12C532.76,-12 553.187,-12 572.455,-12"/>
<polygon fill="midnightblue" stroke="midnightblue" points="516.281,-8.5001 506.281,-12 516.281,-15.5001 516.281,-8.5001"/>
</g>
<!-- Node9&#45;&gt;Node6 -->
<g id="edge18" class="edge"><title>Node9&#45;&gt;Node6</title>
<path fill="none" stroke="midnightblue" d="M707.837,-24.9626C717.336,-26.6529 726.327,-28.253 733.749,-29.5739"/>
<polygon fill="midnightblue" stroke="midnightblue" points="708.259,-21.4827 697.8,-23.1763 707.032,-28.3744 708.259,-21.4827"/>
</g>
</g>
</svg>
