<?xml version="1.0" encoding="UTF-8" standalone="no"?>
<!DOCTYPE svg PUBLIC "-//W3C//DTD SVG 1.1//EN"
 "http://www.w3.org/Graphics/SVG/1.1/DTD/svg11.dtd">
<!-- Generated by graphviz version 2.26.3 (20100126.1600)
 -->
<!-- Title: graphic_context.h Pages: 1 -->
<svg width="426pt" height="236pt"
 viewBox="0.00 0.00 426.00 236.00" xmlns="http://www.w3.org/2000/svg" xmlns:xlink="http://www.w3.org/1999/xlink">
<g id="graph1" class="graph" transform="scale(1 1) rotate(0) translate(4 232)">
<title>graphic_context.h</title>
<polygon fill="white" stroke="white" points="-4,5 -4,-232 423,-232 423,5 -4,5"/>
<!-- Node1 -->
<g id="node1" class="node"><title>Node1</title>
<polygon fill="#bfbfbf" stroke="black" points="83,-203 83,-227 177,-227 177,-203 83,-203"/>
<text text-anchor="middle" x="130" y="-214" font-family="Helvetica,sans-Serif" font-size="10.00">graphic_context.h</text>
</g>
<!-- Node2 -->
<g id="node3" class="node"><title>Node2</title>
<a xlink:href="patch__splines__2_8h.html" target="_top" xlink:title="Functions for each channel in the dmx patch. ">
<polygon fill="white" stroke="black" points="82.5,-141 82.5,-165 177.5,-165 177.5,-141 82.5,-141"/>
<text text-anchor="middle" x="130" y="-152" font-family="Helvetica,sans-Serif" font-size="10.00">patch_splines_2.h</text>
</a>
</g>
<!-- Node1&#45;&gt;Node2 -->
<g id="edge2" class="edge"><title>Node1&#45;&gt;Node2</title>
<path fill="none" stroke="midnightblue" d="M130,-192.63C130,-183.386 130,-173.031 130,-165.224"/>
<polygon fill="midnightblue" stroke="midnightblue" points="126.5,-192.751 130,-202.751 133.5,-192.751 126.5,-192.751"/>
</g>
<!-- Node3 -->
<g id="node5" class="node"><title>Node3</title>
<a xlink:href="_m_a_i_n__avec__objets_8cpp.html" target="_top" xlink:title="MAIN_avec_objets.cpp">
<polygon fill="white" stroke="black" points="5.5,-79 5.5,-103 124.5,-103 124.5,-79 5.5,-79"/>
<text text-anchor="middle" x="65" y="-90" font-family="Helvetica,sans-Serif" font-size="10.00">MAIN_avec_objets.cpp</text>
</a>
</g>
<!-- Node2&#45;&gt;Node3 -->
<g id="edge4" class="edge"><title>Node2&#45;&gt;Node3</title>
<path fill="none" stroke="midnightblue" d="M109.661,-133.6C99.2486,-123.668 86.8895,-111.879 77.8152,-103.224"/>
<polygon fill="midnightblue" stroke="midnightblue" points="107.506,-136.381 117.158,-140.751 112.338,-131.316 107.506,-136.381"/>
</g>
<!-- Node4 -->
<g id="node7" class="node"><title>Node4</title>
<a xlink:href="patch__splines__2_8cpp.html" target="_top" xlink:title="Curves calcul for each canal in the patch. ">
<polygon fill="white" stroke="black" points="142,-79 142,-103 248,-103 248,-79 142,-79"/>
<text text-anchor="middle" x="195" y="-90" font-family="Helvetica,sans-Serif" font-size="10.00">patch_splines_2.cpp</text>
</a>
</g>
<!-- Node2&#45;&gt;Node4 -->
<g id="edge6" class="edge"><title>Node2&#45;&gt;Node4</title>
<path fill="none" stroke="midnightblue" d="M150.339,-133.6C160.751,-123.668 173.11,-111.879 182.185,-103.224"/>
<polygon fill="midnightblue" stroke="midnightblue" points="147.662,-131.316 142.842,-140.751 152.494,-136.381 147.662,-131.316"/>
</g>
<!-- Node5 -->
<g id="node9" class="node"><title>Node5</title>
<a xlink:href="_m_a_i_n__febrier__2014_8cpp.html" target="_top" xlink:title="MAIN_febrier_2014.cpp">
<polygon fill="white" stroke="black" points="-0.5,-9 -0.5,-33 118.5,-33 118.5,-9 -0.5,-9"/>
<text text-anchor="middle" x="59" y="-20" font-family="Helvetica,sans-Serif" font-size="10.00">MAIN_febrier_2014.cpp</text>
</a>
</g>
<!-- Node4&#45;&gt;Node5 -->
<g id="edge8" class="edge"><title>Node4&#45;&gt;Node5</title>
<path fill="none" stroke="midnightblue" d="M162.646,-74.3472C138.009,-61.6664 104.669,-44.5058 82.5293,-33.1107"/>
<polygon fill="midnightblue" stroke="midnightblue" points="161.128,-77.5021 171.621,-78.9666 164.331,-71.2781 161.128,-77.5021"/>
</g>
<!-- Node6 -->
<g id="node11" class="node"><title>Node6</title>
<a xlink:href="_m_a_i_n__fevrier__2014_8cpp.html" target="_top" xlink:title="MAIN_fevrier_2014.cpp">
<polygon fill="white" stroke="black" points="135.5,-9 135.5,-33 254.5,-33 254.5,-9 135.5,-9"/>
<text text-anchor="middle" x="195" y="-20" font-family="Helvetica,sans-Serif" font-size="10.00">MAIN_fevrier_2014.cpp</text>
</a>
</g>
<!-- Node4&#45;&gt;Node6 -->
<g id="edge10" class="edge"><title>Node4&#45;&gt;Node6</title>
<path fill="none" stroke="midnightblue" d="M195,-68.764C195,-56.934 195,-42.8496 195,-33.0533"/>
<polygon fill="midnightblue" stroke="midnightblue" points="191.5,-68.8069 195,-78.8069 198.5,-68.807 191.5,-68.8069"/>
</g>
<!-- Node7 -->
<g id="node13" class="node"><title>Node7</title>
<a xlink:href="_m_a_i_n__janv__2014__opensource__kbd_8cpp.html" target="_top" xlink:title="{main loop} ">
<polygon fill="white" stroke="black" points="271.5,-1 271.5,-41 418.5,-41 418.5,-1 271.5,-1"/>
<text text-anchor="start" x="279.5" y="-28" font-family="Helvetica,sans-Serif" font-size="10.00">MAIN_janv_2014_opensource</text>
<text text-anchor="middle" x="345" y="-12" font-family="Helvetica,sans-Serif" font-size="10.00">_kbd.cpp</text>
</a>
</g>
<!-- Node4&#45;&gt;Node7 -->
<g id="edge12" class="edge"><title>Node4&#45;&gt;Node7</title>
<path fill="none" stroke="midnightblue" d="M229.884,-74.7209C251.38,-64.6894 279.106,-51.7506 301.961,-41.0848"/>
<polygon fill="midnightblue" stroke="midnightblue" points="228.368,-71.566 220.786,-78.9666 231.328,-77.9093 228.368,-71.566"/>
</g>
</g>
</svg>
