<?xml version="1.0" encoding="UTF-8" standalone="no"?>
<!DOCTYPE svg PUBLIC "-//W3C//DTD SVG 1.1//EN"
 "http://www.w3.org/Graphics/SVG/1.1/DTD/svg11.dtd">
<!-- Generated by graphviz version 2.26.3 (20100126.1600)
 -->
<!-- Title: show_windows_list_id Pages: 1 -->
<svg width="438pt" height="32pt"
 viewBox="0.00 0.00 438.00 32.00" xmlns="http://www.w3.org/2000/svg" xmlns:xlink="http://www.w3.org/1999/xlink">
<g id="graph1" class="graph" transform="scale(1 1) rotate(0) translate(4 28)">
<title>show_windows_list_id</title>
<polygon fill="white" stroke="white" points="-4,5 -4,-28 435,-28 435,5 -4,5"/>
<!-- Node1 -->
<g id="node1" class="node"><title>Node1</title>
<polygon fill="#bfbfbf" stroke="black" points="0,-0 0,-24 114,-24 114,-0 0,-0"/>
<text text-anchor="middle" x="57" y="-11" font-family="Helvetica,sans-Serif" font-size="10.00">show_windows_list_id</text>
</g>
<!-- Node2 -->
<g id="node3" class="node"><title>Node2</title>
<a xlink:href="graphics__rebuild1_8cpp.html#ac2eae1e03fb72cc734ffbcef566483bf" target="_top" xlink:title="Boxes">
<polygon fill="white" stroke="black" points="150,-0 150,-24 194,-24 194,-0 150,-0"/>
<text text-anchor="middle" x="172" y="-11" font-family="Helvetica,sans-Serif" font-size="10.00">Boxes</text>
</a>
</g>
<!-- Node1&#45;&gt;Node2 -->
<g id="edge2" class="edge"><title>Node1&#45;&gt;Node2</title>
<path fill="none" stroke="midnightblue" d="M124.273,-12C133.508,-12 142.396,-12 149.947,-12"/>
<polygon fill="midnightblue" stroke="midnightblue" points="124.163,-8.5001 114.163,-12 124.163,-15.5001 124.163,-8.5001"/>
</g>
<!-- Node3 -->
<g id="node5" class="node"><title>Node3</title>
<a xlink:href="_m_a_i_n__avec__objets_8cpp.html#ade8d4ba65d55c94f8ee277829d722155" target="_top" xlink:title="main_actions_on_screen">
<polygon fill="white" stroke="black" points="230.5,-0 230.5,-24 355.5,-24 355.5,-0 230.5,-0"/>
<text text-anchor="middle" x="293" y="-11" font-family="Helvetica,sans-Serif" font-size="10.00">main_actions_on_screen</text>
</a>
</g>
<!-- Node2&#45;&gt;Node3 -->
<g id="edge4" class="edge"><title>Node2&#45;&gt;Node3</title>
<path fill="none" stroke="midnightblue" d="M204.244,-12C212.32,-12 221.263,-12 230.271,-12"/>
<polygon fill="midnightblue" stroke="midnightblue" points="204.193,-8.5001 194.193,-12 204.193,-15.5001 204.193,-8.5001"/>
</g>
<!-- Node4 -->
<g id="node7" class="node"><title>Node4</title>
<a xlink:href="_m_a_i_n__avec__objets_8cpp.html#ae66f6b31b5ad750f1fe042a706a4e3d4" target="_top" xlink:title="main">
<polygon fill="white" stroke="black" points="392,-0 392,-24 430,-24 430,-0 392,-0"/>
<text text-anchor="middle" x="411" y="-11" font-family="Helvetica,sans-Serif" font-size="10.00">main</text>
</a>
</g>
<!-- Node3&#45;&gt;Node4 -->
<g id="edge6" class="edge"><title>Node3&#45;&gt;Node4</title>
<path fill="none" stroke="midnightblue" d="M365.837,-12C375.336,-12 384.327,-12 391.749,-12"/>
<polygon fill="midnightblue" stroke="midnightblue" points="365.8,-8.5001 355.8,-12 365.8,-15.5001 365.8,-8.5001"/>
</g>
</g>
</svg>
