<?xml version="1.0" encoding="UTF-8" standalone="no"?>
<!DOCTYPE svg PUBLIC "-//W3C//DTD SVG 1.1//EN"
 "http://www.w3.org/Graphics/SVG/1.1/DTD/svg11.dtd">
<!-- Generated by graphviz version 2.26.3 (20100126.1600)
 -->
<!-- Title: clear_a_grid Pages: 1 -->
<svg width="920pt" height="111pt"
 viewBox="0.00 0.00 920.00 110.50" xmlns="http://www.w3.org/2000/svg" xmlns:xlink="http://www.w3.org/1999/xlink">
<g id="graph1" class="graph" transform="scale(1 1) rotate(0) translate(4 106.503)">
<title>clear_a_grid</title>
<polygon fill="white" stroke="white" points="-4,5 -4,-106.503 917,-106.503 917,5 -4,5"/>
<!-- Node1 -->
<g id="node1" class="node"><title>Node1</title>
<polygon fill="#bfbfbf" stroke="black" points="0.5,-0 0.5,-24 69.5,-24 69.5,-0 0.5,-0"/>
<text text-anchor="middle" x="35" y="-11" font-family="Helvetica,sans-Serif" font-size="10.00">clear_a_grid</text>
</g>
<!-- Node2 -->
<g id="node3" class="node"><title>Node2</title>
<a xlink:href="_c_o_r_e__6_8cpp.html#a5e53dc8ef589fe38b9d40e3497ac3f13" target="_top" xlink:title="GlobInit">
<polygon fill="white" stroke="black" points="106,-30 106,-54 156,-54 156,-30 106,-30"/>
<text text-anchor="middle" x="131" y="-41" font-family="Helvetica,sans-Serif" font-size="10.00">GlobInit</text>
</a>
</g>
<!-- Node1&#45;&gt;Node2 -->
<g id="edge2" class="edge"><title>Node1&#45;&gt;Node2</title>
<path fill="none" stroke="midnightblue" d="M79.3505,-25.8595C88.4021,-28.6881 97.6278,-31.5712 105.73,-34.1031"/>
<polygon fill="midnightblue" stroke="midnightblue" points="80.247,-22.4728 69.6582,-22.8307 78.159,-29.1542 80.247,-22.4728"/>
</g>
<!-- Node4 -->
<g id="node7" class="node"><title>Node4</title>
<a xlink:href="logicals__intres_8cpp.html#a74cf9c04c734ab342f88799efbfc4210" target="_top" xlink:title="operations_confirmation">
<polygon fill="white" stroke="black" points="296,-9 296,-33 416,-33 416,-9 296,-9"/>
<text text-anchor="middle" x="356" y="-20" font-family="Helvetica,sans-Serif" font-size="10.00">operations_confirmation</text>
</a>
</g>
<!-- Node1&#45;&gt;Node4 -->
<g id="edge28" class="edge"><title>Node1&#45;&gt;Node4</title>
<path fill="none" stroke="midnightblue" d="M79.685,-13.2528C136.018,-14.8323 233.069,-17.5533 295.871,-19.3141"/>
<polygon fill="midnightblue" stroke="midnightblue" points="79.7518,-9.75344 69.6576,-12.9717 79.5556,-16.7507 79.7518,-9.75344"/>
</g>
<!-- Node3 -->
<g id="node5" class="node"><title>Node3</title>
<a xlink:href="_c_o_r_e__6_8cpp.html#a29400ad92b676ecb7743384700af5560" target="_top" xlink:title="reset_show">
<polygon fill="white" stroke="black" points="192.5,-49 192.5,-73 259.5,-73 259.5,-49 192.5,-49"/>
<text text-anchor="middle" x="226" y="-60" font-family="Helvetica,sans-Serif" font-size="10.00">reset_show</text>
</a>
</g>
<!-- Node2&#45;&gt;Node3 -->
<g id="edge4" class="edge"><title>Node2&#45;&gt;Node3</title>
<path fill="none" stroke="midnightblue" d="M166.419,-49.0838C174.872,-50.7744 183.872,-52.5744 192.247,-54.2495"/>
<polygon fill="midnightblue" stroke="midnightblue" points="166.95,-45.6209 156.458,-47.0917 165.578,-52.4849 166.95,-45.6209"/>
</g>
<!-- Node2&#45;&gt;Node4 -->
<g id="edge24" class="edge"><title>Node2&#45;&gt;Node4</title>
<path fill="none" stroke="midnightblue" d="M166.48,-38.6885C201.093,-35.458 254.413,-30.4815 295.69,-26.6289"/>
<polygon fill="midnightblue" stroke="midnightblue" points="166.004,-35.2176 156.373,-39.6319 166.655,-42.1873 166.004,-35.2176"/>
</g>
<!-- Node8 -->
<g id="node15" class="node"><title>Node8</title>
<a xlink:href="_m_a_i_n__avec__objets_8cpp.html#ae66f6b31b5ad750f1fe042a706a4e3d4" target="_top" xlink:title="main">
<polygon fill="white" stroke="black" points="874,-49 874,-73 912,-73 912,-49 874,-49"/>
<text text-anchor="middle" x="893" y="-60" font-family="Helvetica,sans-Serif" font-size="10.00">main</text>
</a>
</g>
<!-- Node2&#45;&gt;Node8 -->
<g id="edge26" class="edge"><title>Node2&#45;&gt;Node8</title>
<path fill="none" stroke="midnightblue" d="M153.612,-60.4761C164.56,-68.4289 178.284,-77.0265 192,-82 260.981,-107.014 282.624,-101 356,-101 356,-101 356,-101 624,-101 719.485,-101 744.957,-103.456 838,-82 850.25,-79.175 863.426,-74.2168 873.809,-69.8274"/>
<polygon fill="midnightblue" stroke="midnightblue" points="155.566,-57.5651 145.481,-54.3179 151.34,-63.1454 155.566,-57.5651"/>
</g>
<!-- Node3&#45;&gt;Node4 -->
<g id="edge6" class="edge"><title>Node3&#45;&gt;Node4</title>
<path fill="none" stroke="midnightblue" d="M269.565,-47.5955C284.852,-42.8918 301.92,-37.64 316.825,-33.0539"/>
<polygon fill="midnightblue" stroke="midnightblue" points="268.345,-44.3087 259.817,-50.5949 270.404,-50.9992 268.345,-44.3087"/>
</g>
<!-- Node5 -->
<g id="node9" class="node"><title>Node5</title>
<a xlink:href="keyboard__functions2_8cpp.html#a548548066307f816c5021de7d6e4f26a" target="_top" xlink:title="key_affectation">
<polygon fill="white" stroke="black" points="452.5,-49 452.5,-73 535.5,-73 535.5,-49 452.5,-49"/>
<text text-anchor="middle" x="494" y="-60" font-family="Helvetica,sans-Serif" font-size="10.00">key_affectation</text>
</a>
</g>
<!-- Node4&#45;&gt;Node5 -->
<g id="edge8" class="edge"><title>Node4&#45;&gt;Node5</title>
<path fill="none" stroke="midnightblue" d="M407.396,-35.8975C422.147,-40.1729 438.047,-44.7817 452.148,-48.8689"/>
<polygon fill="midnightblue" stroke="midnightblue" points="407.984,-32.4237 397.405,-33.0013 406.035,-39.147 407.984,-32.4237"/>
</g>
<!-- Node9 -->
<g id="node17" class="node"><title>Node9</title>
<a xlink:href="logicals__intres_8cpp.html#a85967c22135715eca94d08af2ec1a1fb" target="_top" xlink:title="fenetre_confirm">
<polygon fill="white" stroke="black" points="452,-7 452,-31 536,-31 536,-7 452,-7"/>
<text text-anchor="middle" x="494" y="-18" font-family="Helvetica,sans-Serif" font-size="10.00">fenetre_confirm</text>
</a>
</g>
<!-- Node4&#45;&gt;Node9 -->
<g id="edge16" class="edge"><title>Node4&#45;&gt;Node9</title>
<path fill="none" stroke="midnightblue" d="M426.354,-19.9804C435.083,-19.8539 443.783,-19.7278 451.896,-19.6102"/>
<polygon fill="midnightblue" stroke="midnightblue" points="426.076,-16.4839 416.127,-20.1286 426.177,-23.4832 426.076,-16.4839"/>
</g>
<!-- Node6 -->
<g id="node11" class="node"><title>Node6</title>
<a xlink:href="keyboard__routines2_8cpp.html#a8563320b8eab661232619224650de244" target="_top" xlink:title="commandes_clavier">
<polygon fill="white" stroke="black" points="572,-49 572,-73 676,-73 676,-49 572,-49"/>
<text text-anchor="middle" x="624" y="-60" font-family="Helvetica,sans-Serif" font-size="10.00">commandes_clavier</text>
</a>
</g>
<!-- Node5&#45;&gt;Node6 -->
<g id="edge10" class="edge"><title>Node5&#45;&gt;Node6</title>
<path fill="none" stroke="midnightblue" d="M545.995,-61C554.473,-61 563.258,-61 571.742,-61"/>
<polygon fill="midnightblue" stroke="midnightblue" points="545.848,-57.5001 535.848,-61 545.848,-64.5001 545.848,-57.5001"/>
</g>
<!-- Node7 -->
<g id="node13" class="node"><title>Node7</title>
<a xlink:href="_m_a_i_n__avec__objets_8cpp.html#a8e80f54ac804eddce8ed6e45adb1db44" target="_top" xlink:title="ticker_full_loop">
<polygon fill="white" stroke="black" points="734,-49 734,-73 816,-73 816,-49 734,-49"/>
<text text-anchor="middle" x="775" y="-60" font-family="Helvetica,sans-Serif" font-size="10.00">ticker_full_loop</text>
</a>
</g>
<!-- Node6&#45;&gt;Node7 -->
<g id="edge12" class="edge"><title>Node6&#45;&gt;Node7</title>
<path fill="none" stroke="midnightblue" d="M686.664,-61C702.516,-61 719.147,-61 733.648,-61"/>
<polygon fill="midnightblue" stroke="midnightblue" points="686.389,-57.5001 676.389,-61 686.389,-64.5001 686.389,-57.5001"/>
</g>
<!-- Node7&#45;&gt;Node8 -->
<g id="edge14" class="edge"><title>Node7&#45;&gt;Node8</title>
<path fill="none" stroke="midnightblue" d="M826.55,-61C843.307,-61 860.879,-61 873.742,-61"/>
<polygon fill="midnightblue" stroke="midnightblue" points="826.271,-57.5001 816.271,-61 826.271,-64.5001 826.271,-57.5001"/>
</g>
<!-- Node10 -->
<g id="node19" class="node"><title>Node10</title>
<a xlink:href="graphics__rebuild1_8cpp.html#ac2eae1e03fb72cc734ffbcef566483bf" target="_top" xlink:title="Boxes">
<polygon fill="white" stroke="black" points="602,-7 602,-31 646,-31 646,-7 602,-7"/>
<text text-anchor="middle" x="624" y="-18" font-family="Helvetica,sans-Serif" font-size="10.00">Boxes</text>
</a>
</g>
<!-- Node9&#45;&gt;Node10 -->
<g id="edge18" class="edge"><title>Node9&#45;&gt;Node10</title>
<path fill="none" stroke="midnightblue" d="M546.4,-19C565.658,-19 586.45,-19 601.66,-19"/>
<polygon fill="midnightblue" stroke="midnightblue" points="546.207,-15.5001 536.207,-19 546.207,-22.5001 546.207,-15.5001"/>
</g>
<!-- Node11 -->
<g id="node21" class="node"><title>Node11</title>
<a xlink:href="_m_a_i_n__avec__objets_8cpp.html#ade8d4ba65d55c94f8ee277829d722155" target="_top" xlink:title="main_actions_on_screen">
<polygon fill="white" stroke="black" points="712.5,-7 712.5,-31 837.5,-31 837.5,-7 712.5,-7"/>
<text text-anchor="middle" x="775" y="-18" font-family="Helvetica,sans-Serif" font-size="10.00">main_actions_on_screen</text>
</a>
</g>
<!-- Node10&#45;&gt;Node11 -->
<g id="edge20" class="edge"><title>Node10&#45;&gt;Node11</title>
<path fill="none" stroke="midnightblue" d="M656.395,-19C672.76,-19 693.187,-19 712.455,-19"/>
<polygon fill="midnightblue" stroke="midnightblue" points="656.281,-15.5001 646.281,-19 656.281,-22.5001 656.281,-15.5001"/>
</g>
<!-- Node11&#45;&gt;Node8 -->
<g id="edge22" class="edge"><title>Node11&#45;&gt;Node8</title>
<path fill="none" stroke="midnightblue" d="M821.823,-34.359C827.288,-36.2254 832.775,-38.1327 838,-40 850.031,-44.2997 863.426,-49.4073 873.985,-53.5087"/>
<polygon fill="midnightblue" stroke="midnightblue" points="822.663,-30.9485 812.069,-31.0613 820.421,-37.5797 822.663,-30.9485"/>
</g>
</g>
</svg>
