<?xml version="1.0" encoding="UTF-8" standalone="no"?>
<!DOCTYPE svg PUBLIC "-//W3C//DTD SVG 1.1//EN"
 "http://www.w3.org/Graphics/SVG/1.1/DTD/svg11.dtd">
<!-- Generated by graphviz version 2.26.3 (20100126.1600)
 -->
<!-- Title: do_logical_TheGrid_commands Pages: 1 -->
<svg width="408pt" height="174pt"
 viewBox="0.00 0.00 408.00 174.00" xmlns="http://www.w3.org/2000/svg" xmlns:xlink="http://www.w3.org/1999/xlink">
<g id="graph1" class="graph" transform="scale(1 1) rotate(0) translate(4 170)">
<title>do_logical_TheGrid_commands</title>
<polygon fill="white" stroke="white" points="-4,5 -4,-170 405,-170 405,5 -4,5"/>
<!-- Node1 -->
<g id="node1" class="node"><title>Node1</title>
<polygon fill="#bfbfbf" stroke="black" points="0,-55 0,-95 100,-95 100,-55 0,-55"/>
<text text-anchor="start" x="8" y="-82" font-family="Helvetica,sans-Serif" font-size="10.00">do_logical_TheGrid</text>
<text text-anchor="middle" x="50" y="-66" font-family="Helvetica,sans-Serif" font-size="10.00">_commands</text>
</g>
<!-- Node2 -->
<g id="node3" class="node"><title>Node2</title>
<a xlink:href="_c_o_r_e__6_8cpp.html#ad7187a2df52460607db81f8bf0500953" target="_top" xlink:title="attribute_midi_solo\l_affectation">
<polygon fill="white" stroke="black" points="144,-126 144,-166 242,-166 242,-126 144,-126"/>
<text text-anchor="start" x="152" y="-153" font-family="Helvetica,sans-Serif" font-size="10.00">attribute_midi_solo</text>
<text text-anchor="middle" x="193" y="-137" font-family="Helvetica,sans-Serif" font-size="10.00">_affectation</text>
</a>
</g>
<!-- Node1&#45;&gt;Node2 -->
<g id="edge2" class="edge"><title>Node1&#45;&gt;Node2</title>
<path fill="none" stroke="midnightblue" d="M90.5956,-95.1558C106.898,-103.25 125.856,-112.663 142.996,-121.173"/>
<polygon fill="midnightblue" stroke="midnightblue" points="141.79,-124.482 152.303,-125.794 144.903,-118.212 141.79,-124.482"/>
</g>
<!-- Node4 -->
<g id="node7" class="node"><title>Node4</title>
<a xlink:href="grider__calculs8_8cpp.html#aa5e2775d1f19c4fddd0e6ed08b511e96" target="_top" xlink:title="gridder_prepare_cross">
<polygon fill="white" stroke="black" points="136.5,-84 136.5,-108 249.5,-108 249.5,-84 136.5,-84"/>
<text text-anchor="middle" x="193" y="-95" font-family="Helvetica,sans-Serif" font-size="10.00">gridder_prepare_cross</text>
</a>
</g>
<!-- Node1&#45;&gt;Node4 -->
<g id="edge6" class="edge"><title>Node1&#45;&gt;Node4</title>
<path fill="none" stroke="midnightblue" d="M100.014,-82.3448C108.558,-83.5994 117.553,-84.9204 126.445,-86.2262"/>
<polygon fill="midnightblue" stroke="midnightblue" points="126.01,-89.6997 136.412,-87.6899 127.027,-82.774 126.01,-89.6997"/>
</g>
<!-- Node6 -->
<g id="node11" class="node"><title>Node6</title>
<a xlink:href="_c_o_r_e__6_8cpp.html#a9574e0b790211959c7398e42468410d8" target="_top" xlink:title="toggle">
<polygon fill="white" stroke="black" points="171.5,-42 171.5,-66 214.5,-66 214.5,-42 171.5,-42"/>
<text text-anchor="middle" x="193" y="-53" font-family="Helvetica,sans-Serif" font-size="10.00">toggle</text>
</a>
</g>
<!-- Node1&#45;&gt;Node6 -->
<g id="edge10" class="edge"><title>Node1&#45;&gt;Node6</title>
<path fill="none" stroke="midnightblue" d="M100.014,-67.6552C120.347,-64.6693 143.236,-61.308 161.216,-58.6676"/>
<polygon fill="midnightblue" stroke="midnightblue" points="161.794,-62.1203 171.179,-57.2044 160.777,-55.1946 161.794,-62.1203"/>
</g>
<!-- Node7 -->
<g id="node13" class="node"><title>Node7</title>
<a xlink:href="_c_o_r_e__6_8cpp.html#a852678868d2a66db68f4a2c9eacfcc78" target="_top" xlink:title="reset_numeric_entry">
<polygon fill="white" stroke="black" points="140.5,-0 140.5,-24 245.5,-24 245.5,-0 140.5,-0"/>
<text text-anchor="middle" x="193" y="-11" font-family="Helvetica,sans-Serif" font-size="10.00">reset_numeric_entry</text>
</a>
</g>
<!-- Node1&#45;&gt;Node7 -->
<g id="edge12" class="edge"><title>Node1&#45;&gt;Node7</title>
<path fill="none" stroke="midnightblue" d="M89.0005,-54.9164C103.595,-47.6766 120.414,-39.6568 136,-33 140.149,-31.2279 144.503,-29.4616 148.878,-27.7487"/>
<polygon fill="midnightblue" stroke="midnightblue" points="150.326,-30.9424 158.417,-24.1025 147.827,-24.4038 150.326,-30.9424"/>
</g>
<!-- Node3 -->
<g id="node5" class="node"><title>Node3</title>
<a xlink:href="_c_o_r_e__6_8cpp.html#aa6f6d52757e4af2364c17c3e9dee8095" target="_top" xlink:title="search_and_desaffect\l_previous_midi_signal">
<polygon fill="white" stroke="black" points="286.5,-126 286.5,-166 399.5,-166 399.5,-126 286.5,-126"/>
<text text-anchor="start" x="294.5" y="-153" font-family="Helvetica,sans-Serif" font-size="10.00">search_and_desaffect</text>
<text text-anchor="middle" x="343" y="-137" font-family="Helvetica,sans-Serif" font-size="10.00">_previous_midi_signal</text>
</a>
</g>
<!-- Node2&#45;&gt;Node3 -->
<g id="edge4" class="edge"><title>Node2&#45;&gt;Node3</title>
<path fill="none" stroke="midnightblue" d="M242.116,-146C253.086,-146 264.898,-146 276.44,-146"/>
<polygon fill="midnightblue" stroke="midnightblue" points="276.485,-149.5 286.485,-146 276.485,-142.5 276.485,-149.5"/>
</g>
<!-- Node5 -->
<g id="node9" class="node"><title>Node5</title>
<a xlink:href="grider__calculs8_8cpp.html#aa649acadfb5dcef5c313de19ddcb2290" target="_top" xlink:title="affichage_time_format">
<polygon fill="white" stroke="black" points="286.5,-84 286.5,-108 399.5,-108 399.5,-84 286.5,-84"/>
<text text-anchor="middle" x="343" y="-95" font-family="Helvetica,sans-Serif" font-size="10.00">affichage_time_format</text>
</a>
</g>
<!-- Node4&#45;&gt;Node5 -->
<g id="edge8" class="edge"><title>Node4&#45;&gt;Node5</title>
<path fill="none" stroke="midnightblue" d="M249.709,-96C258.295,-96 267.223,-96 276.002,-96"/>
<polygon fill="midnightblue" stroke="midnightblue" points="276.211,-99.5001 286.211,-96 276.211,-92.5001 276.211,-99.5001"/>
</g>
</g>
</svg>
