<?xml version="1.0" encoding="UTF-8" standalone="no"?>
<!DOCTYPE svg PUBLIC "-//W3C//DTD SVG 1.1//EN"
 "http://www.w3.org/Graphics/SVG/1.1/DTD/svg11.dtd">
<!-- Generated by graphviz version 2.26.3 (20100126.1600)
 -->
<!-- Title: gridplayer_step_plus Pages: 1 -->
<svg width="1238pt" height="355pt"
 viewBox="0.00 0.00 1238.00 355.00" xmlns="http://www.w3.org/2000/svg" xmlns:xlink="http://www.w3.org/1999/xlink">
<g id="graph1" class="graph" transform="scale(1 1) rotate(0) translate(4 351)">
<title>gridplayer_step_plus</title>
<polygon fill="white" stroke="white" points="-4,5 -4,-351 1235,-351 1235,5 -4,5"/>
<!-- Node1 -->
<g id="node1" class="node"><title>Node1</title>
<polygon fill="#bfbfbf" stroke="black" points="0,-121 0,-145 106,-145 106,-121 0,-121"/>
<text text-anchor="middle" x="53" y="-132" font-family="Helvetica,sans-Serif" font-size="10.00">gridplayer_step_plus</text>
</g>
<!-- Node2 -->
<g id="node3" class="node"><title>Node2</title>
<a xlink:href="banger__core__8_8cpp.html#ae4008269e0575da11cc90e812961ef6f" target="_top" xlink:title="Bang_event">
<polygon fill="white" stroke="black" points="168,-121 168,-145 236,-145 236,-121 168,-121"/>
<text text-anchor="middle" x="202" y="-132" font-family="Helvetica,sans-Serif" font-size="10.00">Bang_event</text>
</a>
</g>
<!-- Node1&#45;&gt;Node2 -->
<g id="edge2" class="edge"><title>Node1&#45;&gt;Node2</title>
<path fill="none" stroke="midnightblue" d="M116.555,-133C134.065,-133 152.398,-133 167.574,-133"/>
<polygon fill="midnightblue" stroke="midnightblue" points="116.372,-129.5 106.372,-133 116.372,-136.5 116.372,-129.5"/>
</g>
<!-- Node14 -->
<g id="node31" class="node"><title>Node14</title>
<a xlink:href="midi__13_8cpp.html#a6dff3d42682b58cc0a9875ee30fb4cd4" target="_top" xlink:title="do_midi_job">
<polygon fill="white" stroke="black" points="473,-21 473,-45 541,-45 541,-21 473,-21"/>
<text text-anchor="middle" x="507" y="-32" font-family="Helvetica,sans-Serif" font-size="10.00">do_midi_job</text>
</a>
</g>
<!-- Node1&#45;&gt;Node14 -->
<g id="edge66" class="edge"><title>Node1&#45;&gt;Node14</title>
<path fill="none" stroke="midnightblue" d="M91.9327,-117.324C139.663,-98.8033 223.416,-68.5471 298,-53 358.84,-40.3177 431.347,-35.6571 472.993,-33.9586"/>
<polygon fill="midnightblue" stroke="midnightblue" points="90.6334,-114.074 82.5954,-120.977 93.1833,-120.593 90.6334,-114.074"/>
</g>
<!-- Node21 -->
<g id="node49" class="node"><title>Node21</title>
<a xlink:href="grider__core8_8cpp.html#a9454180ba697c0696084a05e20ad19ae" target="_top" xlink:title="do_logical_TheStepBox">
<polygon fill="white" stroke="black" points="142.5,-273 142.5,-297 261.5,-297 261.5,-273 142.5,-273"/>
<text text-anchor="middle" x="202" y="-284" font-family="Helvetica,sans-Serif" font-size="10.00">do_logical_TheStepBox</text>
</a>
</g>
<!-- Node1&#45;&gt;Node21 -->
<g id="edge56" class="edge"><title>Node1&#45;&gt;Node21</title>
<path fill="none" stroke="midnightblue" d="M72.1972,-152.584C103.402,-184.417 164.231,-246.47 190.002,-272.76"/>
<polygon fill="midnightblue" stroke="midnightblue" points="74.4411,-149.873 64.9414,-145.182 69.4423,-154.773 74.4411,-149.873"/>
</g>
<!-- Node3 -->
<g id="node5" class="node"><title>Node3</title>
<a xlink:href="banger__core__8_8cpp.html#a4003a08a1620546de77b118c91d2fd9d" target="_top" xlink:title="do_bang">
<polygon fill="white" stroke="black" points="329.5,-100 329.5,-124 382.5,-124 382.5,-100 329.5,-100"/>
<text text-anchor="middle" x="356" y="-111" font-family="Helvetica,sans-Serif" font-size="10.00">do_bang</text>
</a>
</g>
<!-- Node2&#45;&gt;Node3 -->
<g id="edge4" class="edge"><title>Node2&#45;&gt;Node3</title>
<path fill="none" stroke="midnightblue" d="M246.439,-126.94C273.156,-123.297 306.285,-118.779 329.076,-115.671"/>
<polygon fill="midnightblue" stroke="midnightblue" points="245.613,-123.52 236.178,-128.339 246.559,-130.456 245.613,-123.52"/>
</g>
<!-- Node6 -->
<g id="node11" class="node"><title>Node6</title>
<a xlink:href="banger__core__8_8cpp.html#a4fe16ad483c0c1609d97aeb9a23c74ee" target="_top" xlink:title="do_logical_fenetre\l_banger">
<polygon fill="white" stroke="black" points="308.5,-201 308.5,-241 403.5,-241 403.5,-201 308.5,-201"/>
<text text-anchor="start" x="316.5" y="-228" font-family="Helvetica,sans-Serif" font-size="10.00">do_logical_fenetre</text>
<text text-anchor="middle" x="356" y="-212" font-family="Helvetica,sans-Serif" font-size="10.00">_banger</text>
</a>
</g>
<!-- Node2&#45;&gt;Node6 -->
<g id="edge10" class="edge"><title>Node2&#45;&gt;Node6</title>
<path fill="none" stroke="midnightblue" d="M231.914,-150.094C257.334,-164.62 293.867,-185.496 320.712,-200.836"/>
<polygon fill="midnightblue" stroke="midnightblue" points="233.509,-146.974 223.09,-145.052 230.036,-153.052 233.509,-146.974"/>
</g>
<!-- Node8 -->
<g id="node16" class="node"><title>Node8</title>
<a xlink:href="banger__core__8_8cpp.html#ab405ab53ea444b049e5ffa258498fcb6" target="_top" xlink:title="refresh_banger_wx">
<polygon fill="white" stroke="black" points="306.5,-143 306.5,-167 405.5,-167 405.5,-143 306.5,-143"/>
<text text-anchor="middle" x="356" y="-154" font-family="Helvetica,sans-Serif" font-size="10.00">refresh_banger_wx</text>
</a>
</g>
<!-- Node2&#45;&gt;Node8 -->
<g id="edge16" class="edge"><title>Node2&#45;&gt;Node8</title>
<path fill="none" stroke="midnightblue" d="M246.26,-139.323C265.067,-142.01 287.078,-145.154 306.429,-147.918"/>
<polygon fill="midnightblue" stroke="midnightblue" points="246.572,-135.832 236.178,-137.883 245.582,-142.762 246.572,-135.832"/>
</g>
<!-- Node2&#45;&gt;Node14 -->
<g id="edge54" class="edge"><title>Node2&#45;&gt;Node14</title>
<path fill="none" stroke="midnightblue" d="M236.407,-116.533C254.492,-108.24 277.174,-98.4035 298,-91 358.495,-69.4949 431.116,-50.9078 472.877,-40.891"/>
<polygon fill="midnightblue" stroke="midnightblue" points="234.472,-113.572 226.873,-120.956 237.418,-119.922 234.472,-113.572"/>
</g>
<!-- Node4 -->
<g id="node7" class="node"><title>Node4</title>
<a xlink:href="_m_a_i_n__avec__objets_8cpp.html#a8e80f54ac804eddce8ed6e45adb1db44" target="_top" xlink:title="ticker_full_loop">
<polygon fill="white" stroke="black" points="772,-114 772,-138 854,-138 854,-114 772,-114"/>
<text text-anchor="middle" x="813" y="-125" font-family="Helvetica,sans-Serif" font-size="10.00">ticker_full_loop</text>
</a>
</g>
<!-- Node3&#45;&gt;Node4 -->
<g id="edge6" class="edge"><title>Node3&#45;&gt;Node4</title>
<path fill="none" stroke="midnightblue" d="M392.233,-102.435C409.576,-98.3358 430.72,-94.0284 450,-92 576.413,-78.7006 611.626,-65.7628 736,-92 756.018,-96.2229 777.17,-105.995 792.229,-113.985"/>
<polygon fill="midnightblue" stroke="midnightblue" points="391.39,-99.0382 382.503,-104.806 393.048,-105.839 391.39,-99.0382"/>
</g>
<!-- Node5 -->
<g id="node9" class="node"><title>Node5</title>
<a xlink:href="_m_a_i_n__avec__objets_8cpp.html#ae66f6b31b5ad750f1fe042a706a4e3d4" target="_top" xlink:title="main">
<polygon fill="white" stroke="black" points="1192,-90 1192,-114 1230,-114 1230,-90 1192,-90"/>
<text text-anchor="middle" x="1211" y="-101" font-family="Helvetica,sans-Serif" font-size="10.00">main</text>
</a>
</g>
<!-- Node4&#45;&gt;Node5 -->
<g id="edge8" class="edge"><title>Node4&#45;&gt;Node5</title>
<path fill="none" stroke="midnightblue" d="M864.235,-122.91C953.305,-117.539 1132.82,-106.714 1191.77,-103.16"/>
<polygon fill="midnightblue" stroke="midnightblue" points="863.865,-119.426 854.094,-123.522 864.287,-126.414 863.865,-119.426"/>
</g>
<!-- Node7 -->
<g id="node13" class="node"><title>Node7</title>
<a xlink:href="procs__visuels__rebuild1_8cpp.html#ae710b6e599e321ad5934a90140067054" target="_top" xlink:title="check_graphics_mouse\l_handling">
<polygon fill="white" stroke="black" points="608.5,-241 608.5,-281 727.5,-281 727.5,-241 608.5,-241"/>
<text text-anchor="start" x="616.5" y="-268" font-family="Helvetica,sans-Serif" font-size="10.00">check_graphics_mouse</text>
<text text-anchor="middle" x="668" y="-252" font-family="Helvetica,sans-Serif" font-size="10.00">_handling</text>
</a>
</g>
<!-- Node6&#45;&gt;Node7 -->
<g id="edge12" class="edge"><title>Node6&#45;&gt;Node7</title>
<path fill="none" stroke="midnightblue" d="M413.723,-228.4C469.067,-235.496 552.253,-246.161 608.262,-253.341"/>
<polygon fill="midnightblue" stroke="midnightblue" points="414.09,-224.919 403.726,-227.119 413.199,-231.862 414.09,-224.919"/>
</g>
<!-- Node7&#45;&gt;Node4 -->
<g id="edge14" class="edge"><title>Node7&#45;&gt;Node4</title>
<path fill="none" stroke="midnightblue" d="M697.271,-233.748C728.553,-204.623 776.748,-159.751 799.815,-138.275"/>
<polygon fill="midnightblue" stroke="midnightblue" points="694.642,-231.413 689.708,-240.789 699.412,-236.537 694.642,-231.413"/>
</g>
<!-- Node9 -->
<g id="node18" class="node"><title>Node9</title>
<a xlink:href="i_cat14_8cpp.html#a16285241f82898e7a5f051b03d90b9a3" target="_top" xlink:title="check_button">
<polygon fill="white" stroke="black" points="469.5,-101 469.5,-125 544.5,-125 544.5,-101 469.5,-101"/>
<text text-anchor="middle" x="507" y="-112" font-family="Helvetica,sans-Serif" font-size="10.00">check_button</text>
</a>
</g>
<!-- Node8&#45;&gt;Node9 -->
<g id="edge18" class="edge"><title>Node8&#45;&gt;Node9</title>
<path fill="none" stroke="midnightblue" d="M409.124,-140.224C429.007,-134.693 451.167,-128.53 469.366,-123.468"/>
<polygon fill="midnightblue" stroke="midnightblue" points="407.967,-136.913 399.271,-142.964 409.843,-143.657 407.967,-136.913"/>
</g>
<!-- Node11 -->
<g id="node23" class="node"><title>Node11</title>
<a xlink:href="keyboard__functions2_8cpp.html#af3dd6697323b10b480719c1612bcf29a" target="_top" xlink:title="key_backward">
<polygon fill="white" stroke="black" points="467,-185 467,-209 547,-209 547,-185 467,-185"/>
<text text-anchor="middle" x="507" y="-196" font-family="Helvetica,sans-Serif" font-size="10.00">key_backward</text>
</a>
</g>
<!-- Node8&#45;&gt;Node11 -->
<g id="edge24" class="edge"><title>Node8&#45;&gt;Node11</title>
<path fill="none" stroke="midnightblue" d="M408.988,-169.739C427.992,-175.024 449.09,-180.893 466.829,-185.827"/>
<polygon fill="midnightblue" stroke="midnightblue" points="409.843,-166.343 399.271,-167.036 407.967,-173.087 409.843,-166.343"/>
</g>
<!-- Node13 -->
<g id="node28" class="node"><title>Node13</title>
<a xlink:href="keyboard__functions2_8cpp.html#a6b73a3669797504ce2e357d9a8b9a2c2" target="_top" xlink:title="key_forward">
<polygon fill="white" stroke="black" points="472,-143 472,-167 542,-167 542,-143 472,-143"/>
<text text-anchor="middle" x="507" y="-154" font-family="Helvetica,sans-Serif" font-size="10.00">key_forward</text>
</a>
</g>
<!-- Node8&#45;&gt;Node13 -->
<g id="edge30" class="edge"><title>Node8&#45;&gt;Node13</title>
<path fill="none" stroke="midnightblue" d="M415.948,-155C434.957,-155 455.341,-155 471.993,-155"/>
<polygon fill="midnightblue" stroke="midnightblue" points="415.862,-151.5 405.862,-155 415.861,-158.5 415.862,-151.5"/>
</g>
<!-- Node8&#45;&gt;Node14 -->
<g id="edge34" class="edge"><title>Node8&#45;&gt;Node14</title>
<path fill="none" stroke="midnightblue" d="M404.861,-138.532C408.046,-136.836 411.125,-134.994 414,-133 433.926,-119.18 433.571,-109.836 450,-92 465.246,-75.4484 483.385,-56.8534 495.039,-45.0421"/>
<polygon fill="midnightblue" stroke="midnightblue" points="403.187,-135.454 395.685,-142.935 406.215,-141.765 403.187,-135.454"/>
</g>
<!-- Node20 -->
<g id="node45" class="node"><title>Node20</title>
<a xlink:href="sequentiel__6__core_8cpp.html#a2a71c851cf25565491dd10423bc80380" target="_top" xlink:title="do_logical_Sequenciel\l_Window">
<polygon fill="white" stroke="black" points="450.5,-265 450.5,-305 563.5,-305 563.5,-265 450.5,-265"/>
<text text-anchor="start" x="458.5" y="-292" font-family="Helvetica,sans-Serif" font-size="10.00">do_logical_Sequenciel</text>
<text text-anchor="middle" x="507" y="-276" font-family="Helvetica,sans-Serif" font-size="10.00">_Window</text>
</a>
</g>
<!-- Node8&#45;&gt;Node20 -->
<g id="edge50" class="edge"><title>Node8&#45;&gt;Node20</title>
<path fill="none" stroke="midnightblue" d="M386.002,-172.4C395.271,-178.229 405.32,-185.029 414,-192 442.307,-214.733 471.327,-245.103 489.254,-264.854"/>
<polygon fill="midnightblue" stroke="midnightblue" points="387.777,-169.383 377.423,-167.135 384.115,-175.349 387.777,-169.383"/>
</g>
<!-- Node10 -->
<g id="node20" class="node"><title>Node10</title>
<a xlink:href="i_cat14_8cpp.html#aa9772b548765a631d4bae1c14053b4e1" target="_top" xlink:title="DoJobFantastickTouch">
<polygon fill="white" stroke="black" points="609.5,-101 609.5,-125 726.5,-125 726.5,-101 609.5,-101"/>
<text text-anchor="middle" x="668" y="-112" font-family="Helvetica,sans-Serif" font-size="10.00">DoJobFantastickTouch</text>
</a>
</g>
<!-- Node9&#45;&gt;Node10 -->
<g id="edge20" class="edge"><title>Node9&#45;&gt;Node10</title>
<path fill="none" stroke="midnightblue" d="M555.039,-113C572.111,-113 591.521,-113 609.378,-113"/>
<polygon fill="midnightblue" stroke="midnightblue" points="554.747,-109.5 544.747,-113 554.747,-116.5 554.747,-109.5"/>
</g>
<!-- Node10&#45;&gt;Node4 -->
<g id="edge22" class="edge"><title>Node10&#45;&gt;Node4</title>
<path fill="none" stroke="midnightblue" d="M736.554,-119.146C748.527,-120.22 760.645,-121.306 771.594,-122.288"/>
<polygon fill="midnightblue" stroke="midnightblue" points="736.832,-115.657 726.559,-118.25 736.207,-122.629 736.832,-115.657"/>
</g>
<!-- Node12 -->
<g id="node25" class="node"><title>Node12</title>
<a xlink:href="keyboard__routines2_8cpp.html#a8563320b8eab661232619224650de244" target="_top" xlink:title="commandes_clavier">
<polygon fill="white" stroke="black" points="616,-143 616,-167 720,-167 720,-143 616,-143"/>
<text text-anchor="middle" x="668" y="-154" font-family="Helvetica,sans-Serif" font-size="10.00">commandes_clavier</text>
</a>
</g>
<!-- Node11&#45;&gt;Node12 -->
<g id="edge26" class="edge"><title>Node11&#45;&gt;Node12</title>
<path fill="none" stroke="midnightblue" d="M557.07,-183.938C577.725,-178.55 601.514,-172.344 621.752,-167.065"/>
<polygon fill="midnightblue" stroke="midnightblue" points="556.004,-180.599 547.212,-186.51 557.771,-187.372 556.004,-180.599"/>
</g>
<!-- Node12&#45;&gt;Node4 -->
<g id="edge28" class="edge"><title>Node12&#45;&gt;Node4</title>
<path fill="none" stroke="midnightblue" d="M730.386,-142.523C744.335,-139.733 758.795,-136.841 771.643,-134.271"/>
<polygon fill="midnightblue" stroke="midnightblue" points="729.468,-139.137 720.348,-144.53 730.841,-146.001 729.468,-139.137"/>
</g>
<!-- Node13&#45;&gt;Node12 -->
<g id="edge32" class="edge"><title>Node13&#45;&gt;Node12</title>
<path fill="none" stroke="midnightblue" d="M552.598,-155C572.329,-155 595.53,-155 615.934,-155"/>
<polygon fill="midnightblue" stroke="midnightblue" points="552.332,-151.5 542.332,-155 552.332,-158.5 552.332,-151.5"/>
</g>
<!-- Node15 -->
<g id="node33" class="node"><title>Node15</title>
<a xlink:href="midi__13_8cpp.html#a6bedf9750195224914cd87c4e73ab626" target="_top" xlink:title="ventilate_midi_to_midiarray">
<polygon fill="white" stroke="black" points="600.5,-21 600.5,-45 735.5,-45 735.5,-21 600.5,-21"/>
<text text-anchor="middle" x="668" y="-32" font-family="Helvetica,sans-Serif" font-size="10.00">ventilate_midi_to_midiarray</text>
</a>
</g>
<!-- Node14&#45;&gt;Node15 -->
<g id="edge36" class="edge"><title>Node14&#45;&gt;Node15</title>
<path fill="none" stroke="midnightblue" d="M551.272,-33C566.455,-33 583.811,-33 600.414,-33"/>
<polygon fill="midnightblue" stroke="midnightblue" points="551.144,-29.5001 541.144,-33 551.144,-36.5001 551.144,-29.5001"/>
</g>
<!-- Node16 -->
<g id="node35" class="node"><title>Node16</title>
<a xlink:href="midi__13_8cpp.html#afa49dd5668303c2448676c8243737c2d" target="_top" xlink:title="simulate_midi">
<polygon fill="white" stroke="black" points="774.5,-21 774.5,-45 851.5,-45 851.5,-21 774.5,-21"/>
<text text-anchor="middle" x="813" y="-32" font-family="Helvetica,sans-Serif" font-size="10.00">simulate_midi</text>
</a>
</g>
<!-- Node15&#45;&gt;Node16 -->
<g id="edge38" class="edge"><title>Node15&#45;&gt;Node16</title>
<path fill="none" stroke="midnightblue" d="M746.103,-33C755.941,-33 765.642,-33 774.473,-33"/>
<polygon fill="midnightblue" stroke="midnightblue" points="745.83,-29.5001 735.83,-33 745.83,-36.5001 745.83,-29.5001"/>
</g>
<!-- Node17 -->
<g id="node37" class="node"><title>Node17</title>
<a xlink:href="arduino__core__6___u_n_o_8cpp.html#ae72d1a8d74d9ab5515962e03e7e664d6" target="_top" xlink:title="arduino_do_analog_in\l_whitecat">
<polygon fill="white" stroke="black" points="890,-58 890,-98 1000,-98 1000,-58 890,-58"/>
<text text-anchor="start" x="898" y="-85" font-family="Helvetica,sans-Serif" font-size="10.00">arduino_do_analog_in</text>
<text text-anchor="middle" x="945" y="-69" font-family="Helvetica,sans-Serif" font-size="10.00">_whitecat</text>
</a>
</g>
<!-- Node16&#45;&gt;Node17 -->
<g id="edge40" class="edge"><title>Node16&#45;&gt;Node17</title>
<path fill="none" stroke="midnightblue" d="M857.947,-48.3229C868.214,-51.823 879.24,-55.582 889.879,-59.2087"/>
<polygon fill="midnightblue" stroke="midnightblue" points="858.968,-44.9732 848.374,-45.0592 856.709,-51.5988 858.968,-44.9732"/>
</g>
<!-- Node19 -->
<g id="node42" class="node"><title>Node19</title>
<a xlink:href="arduino__core__6___u_n_o_8cpp.html#a219226c1cd6cc17c78e62fd4445bb445" target="_top" xlink:title="arduino_do_digital\l_in_whitecat">
<polygon fill="white" stroke="black" points="897.5,-0 897.5,-40 992.5,-40 992.5,-0 897.5,-0"/>
<text text-anchor="start" x="905.5" y="-27" font-family="Helvetica,sans-Serif" font-size="10.00">arduino_do_digital</text>
<text text-anchor="middle" x="945" y="-11" font-family="Helvetica,sans-Serif" font-size="10.00">_in_whitecat</text>
</a>
</g>
<!-- Node16&#45;&gt;Node19 -->
<g id="edge46" class="edge"><title>Node16&#45;&gt;Node19</title>
<path fill="none" stroke="midnightblue" d="M861.541,-28.2195C873.203,-27.071 885.648,-25.8453 897.272,-24.7005"/>
<polygon fill="midnightblue" stroke="midnightblue" points="861.143,-24.7416 851.535,-29.2049 861.83,-31.7079 861.143,-24.7416"/>
</g>
<!-- Node18 -->
<g id="node39" class="node"><title>Node18</title>
<a xlink:href="_m_a_i_n__avec__objets_8cpp.html#ace9c8a9b37c6087c3cffef442d71d70e" target="_top" xlink:title="dixiemes_de_secondes">
<polygon fill="white" stroke="black" points="1036.5,-66 1036.5,-90 1155.5,-90 1155.5,-66 1036.5,-66"/>
<text text-anchor="middle" x="1096" y="-77" font-family="Helvetica,sans-Serif" font-size="10.00">dixiemes_de_secondes</text>
</a>
</g>
<!-- Node17&#45;&gt;Node18 -->
<g id="edge42" class="edge"><title>Node17&#45;&gt;Node18</title>
<path fill="none" stroke="midnightblue" d="M1010.38,-78C1019,-78 1027.8,-78 1036.32,-78"/>
<polygon fill="midnightblue" stroke="midnightblue" points="1010.37,-74.5001 1000.37,-78 1010.37,-81.5001 1010.37,-74.5001"/>
</g>
<!-- Node18&#45;&gt;Node5 -->
<g id="edge44" class="edge"><title>Node18&#45;&gt;Node5</title>
<path fill="none" stroke="midnightblue" d="M1163.78,-92.1464C1174.06,-94.2912 1183.89,-96.3415 1191.89,-98.011"/>
<polygon fill="midnightblue" stroke="midnightblue" points="1164.34,-88.6871 1153.84,-90.0703 1162.91,-95.5395 1164.34,-88.6871"/>
</g>
<!-- Node19&#45;&gt;Node18 -->
<g id="edge48" class="edge"><title>Node19&#45;&gt;Node18</title>
<path fill="none" stroke="midnightblue" d="M1002.34,-42.0229C1023.51,-50.1544 1046.7,-59.0639 1064.71,-65.9824"/>
<polygon fill="midnightblue" stroke="midnightblue" points="1003.37,-38.67 992.777,-38.3516 1000.86,-45.2045 1003.37,-38.67"/>
</g>
<!-- Node20&#45;&gt;Node7 -->
<g id="edge52" class="edge"><title>Node20&#45;&gt;Node7</title>
<path fill="none" stroke="midnightblue" d="M573.757,-275.049C585.271,-273.332 597.171,-271.558 608.478,-269.873"/>
<polygon fill="midnightblue" stroke="midnightblue" points="573.137,-271.602 563.763,-276.538 574.169,-278.526 573.137,-271.602"/>
</g>
<!-- Node21&#45;&gt;Node20 -->
<g id="edge64" class="edge"><title>Node21&#45;&gt;Node20</title>
<path fill="none" stroke="midnightblue" d="M271.738,-285C325.876,-285 399.976,-285 450.453,-285"/>
<polygon fill="midnightblue" stroke="midnightblue" points="271.531,-281.5 261.531,-285 271.531,-288.5 271.531,-281.5"/>
</g>
<!-- Node22 -->
<g id="node51" class="node"><title>Node22</title>
<a xlink:href="grider__core8_8cpp.html#a97c488ed9c4659770bf99f8fd23a6dcb" target="_top" xlink:title="do_logical_Grid_player">
<polygon fill="white" stroke="black" points="298.5,-318 298.5,-342 413.5,-342 413.5,-318 298.5,-318"/>
<text text-anchor="middle" x="356" y="-329" font-family="Helvetica,sans-Serif" font-size="10.00">do_logical_Grid_player</text>
</a>
</g>
<!-- Node21&#45;&gt;Node22 -->
<g id="edge58" class="edge"><title>Node21&#45;&gt;Node22</title>
<path fill="none" stroke="midnightblue" d="M252.902,-299.874C273.022,-305.753 295.839,-312.421 314.884,-317.986"/>
<polygon fill="midnightblue" stroke="midnightblue" points="253.849,-296.505 243.269,-297.059 251.886,-303.224 253.849,-296.505"/>
</g>
<!-- Node23 -->
<g id="node53" class="node"><title>Node23</title>
<a xlink:href="grider__core8_8cpp.html#af4c10d29c9b0e0c3d16d715f7b7bc2d2" target="_top" xlink:title="do_logical_Grider_Box">
<polygon fill="white" stroke="black" points="450,-323 450,-347 564,-347 564,-323 450,-323"/>
<text text-anchor="middle" x="507" y="-334" font-family="Helvetica,sans-Serif" font-size="10.00">do_logical_Grider_Box</text>
</a>
</g>
<!-- Node22&#45;&gt;Node23 -->
<g id="edge60" class="edge"><title>Node22&#45;&gt;Node23</title>
<path fill="none" stroke="midnightblue" d="M423.696,-332.242C432.445,-332.531 441.337,-332.826 449.892,-333.109"/>
<polygon fill="midnightblue" stroke="midnightblue" points="423.628,-328.738 413.517,-331.905 423.396,-335.734 423.628,-328.738"/>
</g>
<!-- Node23&#45;&gt;Node7 -->
<g id="edge62" class="edge"><title>Node23&#45;&gt;Node7</title>
<path fill="none" stroke="midnightblue" d="M551.153,-319.325C555.522,-317.597 559.866,-315.807 564,-314 586.653,-304.096 611.334,-291.595 630.966,-281.222"/>
<polygon fill="midnightblue" stroke="midnightblue" points="549.7,-316.134 541.623,-322.99 552.213,-322.667 549.7,-316.134"/>
</g>
</g>
</svg>
