<?xml version="1.0" encoding="UTF-8" standalone="no"?>
<!DOCTYPE svg PUBLIC "-//W3C//DTD SVG 1.1//EN"
 "http://www.w3.org/Graphics/SVG/1.1/DTD/svg11.dtd">
<!-- Generated by graphviz version 2.26.3 (20100126.1600)
 -->
<!-- Title: gridplayer_step_minus Pages: 1 -->
<svg width="422pt" height="32pt"
 viewBox="0.00 0.00 422.00 32.00" xmlns="http://www.w3.org/2000/svg" xmlns:xlink="http://www.w3.org/1999/xlink">
<g id="graph1" class="graph" transform="scale(1 1) rotate(0) translate(4 28)">
<title>gridplayer_step_minus</title>
<polygon fill="white" stroke="white" points="-4,5 -4,-28 419,-28 419,5 -4,5"/>
<!-- Node1 -->
<g id="node1" class="node"><title>Node1</title>
<polygon fill="#bfbfbf" stroke="black" points="0,-0 0,-24 114,-24 114,-0 0,-0"/>
<text text-anchor="middle" x="57" y="-11" font-family="Helvetica,sans-Serif" font-size="10.00">gridplayer_step_minus</text>
</g>
<!-- Node2 -->
<g id="node3" class="node"><title>Node2</title>
<a xlink:href="grider__calculs8_8cpp.html#aa5e2775d1f19c4fddd0e6ed08b511e96" target="_top" xlink:title="gridder_prepare_cross">
<polygon fill="white" stroke="black" points="150.5,-0 150.5,-24 263.5,-24 263.5,-0 150.5,-0"/>
<text text-anchor="middle" x="207" y="-11" font-family="Helvetica,sans-Serif" font-size="10.00">gridder_prepare_cross</text>
</a>
</g>
<!-- Node1&#45;&gt;Node2 -->
<g id="edge2" class="edge"><title>Node1&#45;&gt;Node2</title>
<path fill="none" stroke="midnightblue" d="M114.136,-12C122.587,-12 131.358,-12 139.986,-12"/>
<polygon fill="midnightblue" stroke="midnightblue" points="140.022,-15.5001 150.022,-12 140.022,-8.5001 140.022,-15.5001"/>
</g>
<!-- Node3 -->
<g id="node5" class="node"><title>Node3</title>
<a xlink:href="grider__calculs8_8cpp.html#aa649acadfb5dcef5c313de19ddcb2290" target="_top" xlink:title="affichage_time_format">
<polygon fill="white" stroke="black" points="300.5,-0 300.5,-24 413.5,-24 413.5,-0 300.5,-0"/>
<text text-anchor="middle" x="357" y="-11" font-family="Helvetica,sans-Serif" font-size="10.00">affichage_time_format</text>
</a>
</g>
<!-- Node2&#45;&gt;Node3 -->
<g id="edge4" class="edge"><title>Node2&#45;&gt;Node3</title>
<path fill="none" stroke="midnightblue" d="M263.709,-12C272.295,-12 281.223,-12 290.002,-12"/>
<polygon fill="midnightblue" stroke="midnightblue" points="290.211,-15.5001 300.211,-12 290.211,-8.5001 290.211,-15.5001"/>
</g>
</g>
</svg>
