<?xml version="1.0" encoding="UTF-8" standalone="no"?>
<!DOCTYPE svg PUBLIC "-//W3C//DTD SVG 1.1//EN"
 "http://www.w3.org/Graphics/SVG/1.1/DTD/svg11.dtd">
<!-- Generated by graphviz version 2.26.3 (20100126.1600)
 -->
<!-- Title: Grid_player Pages: 1 -->
<svg width="362pt" height="326pt"
 viewBox="0.00 0.00 362.00 326.00" xmlns="http://www.w3.org/2000/svg" xmlns:xlink="http://www.w3.org/1999/xlink">
<g id="graph1" class="graph" transform="scale(1 1) rotate(0) translate(4 322)">
<title>Grid_player</title>
<polygon fill="white" stroke="white" points="-4,5 -4,-322 359,-322 359,5 -4,5"/>
<!-- Node1 -->
<g id="node1" class="node"><title>Node1</title>
<polygon fill="#bfbfbf" stroke="black" points="0,-189 0,-213 66,-213 66,-189 0,-189"/>
<text text-anchor="middle" x="33" y="-200" font-family="Helvetica,sans-Serif" font-size="10.00">Grid_player</text>
</g>
<!-- Node2 -->
<g id="node3" class="node"><title>Node2</title>
<a xlink:href="grider8_8cpp.html#af5dc421b53c2888c17d1b7ca3370ef0e" target="_top" xlink:title="TheCallGridBox">
<polygon fill="white" stroke="black" points="111,-294 111,-318 197,-318 197,-294 111,-294"/>
<text text-anchor="middle" x="154" y="-305" font-family="Helvetica,sans-Serif" font-size="10.00">TheCallGridBox</text>
</a>
</g>
<!-- Node1&#45;&gt;Node2 -->
<g id="edge2" class="edge"><title>Node1&#45;&gt;Node2</title>
<path fill="none" stroke="midnightblue" d="M40.2077,-213.198C51.3755,-231.161 74.4683,-264.779 102,-285 104.026,-286.488 106.171,-287.889 108.392,-289.206"/>
<polygon fill="midnightblue" stroke="midnightblue" points="106.76,-292.302 117.238,-293.873 110.027,-286.111 106.76,-292.302"/>
</g>
<!-- Node4 -->
<g id="node7" class="node"><title>Node4</title>
<a xlink:href="grider8_8cpp.html#adf34126e40458873ce6c6e9dd5cdbaab" target="_top" xlink:title="TheStepBox">
<polygon fill="white" stroke="black" points="118.5,-168 118.5,-192 189.5,-192 189.5,-168 118.5,-168"/>
<text text-anchor="middle" x="154" y="-179" font-family="Helvetica,sans-Serif" font-size="10.00">TheStepBox</text>
</a>
</g>
<!-- Node1&#45;&gt;Node4 -->
<g id="edge6" class="edge"><title>Node1&#45;&gt;Node4</title>
<path fill="none" stroke="midnightblue" d="M66.0638,-195.262C79.1268,-192.995 94.3548,-190.352 108.432,-187.908"/>
<polygon fill="midnightblue" stroke="midnightblue" points="109.178,-191.331 118.432,-186.173 107.981,-184.435 109.178,-191.331"/>
</g>
<!-- Node7 -->
<g id="node14" class="node"><title>Node7</title>
<a xlink:href="grider8_8cpp.html#ad2a7a08d5d1c725b77f84719741dae4c" target="_top" xlink:title="ThePlayCommands">
<polygon fill="white" stroke="black" points="102.5,-126 102.5,-150 205.5,-150 205.5,-126 102.5,-126"/>
<text text-anchor="middle" x="154" y="-137" font-family="Helvetica,sans-Serif" font-size="10.00">ThePlayCommands</text>
</a>
</g>
<!-- Node1&#45;&gt;Node7 -->
<g id="edge14" class="edge"><title>Node1&#45;&gt;Node7</title>
<path fill="none" stroke="midnightblue" d="M50.9875,-188.934C64.6483,-180.049 84.0779,-167.998 102,-159 105.328,-157.329 108.823,-155.689 112.359,-154.107"/>
<polygon fill="midnightblue" stroke="midnightblue" points="113.931,-157.241 121.735,-150.076 111.166,-150.81 113.931,-157.241"/>
</g>
<!-- Node11 -->
<g id="node23" class="node"><title>Node11</title>
<a xlink:href="grider8_8cpp.html#aca8abe8ebc9a78836e9214a351c32259" target="_top" xlink:title="TheGrid_commands">
<polygon fill="white" stroke="black" points="102,-252 102,-276 206,-276 206,-252 102,-252"/>
<text text-anchor="middle" x="154" y="-263" font-family="Helvetica,sans-Serif" font-size="10.00">TheGrid_commands</text>
</a>
</g>
<!-- Node1&#45;&gt;Node11 -->
<g id="edge24" class="edge"><title>Node1&#45;&gt;Node11</title>
<path fill="none" stroke="midnightblue" d="M50.9875,-213.066C64.6483,-221.951 84.0779,-234.002 102,-243 105.328,-244.671 108.823,-246.311 112.359,-247.893"/>
<polygon fill="midnightblue" stroke="midnightblue" points="111.166,-251.19 121.735,-251.924 113.931,-244.759 111.166,-251.19"/>
</g>
<!-- Node12 -->
<g id="node26" class="node"><title>Node12</title>
<a xlink:href="grider8_8cpp.html#a85b783a040afd52187e370bd9b01cae7" target="_top" xlink:title="TheGrid_divers">
<polygon fill="white" stroke="black" points="112.5,-210 112.5,-234 195.5,-234 195.5,-210 112.5,-210"/>
<text text-anchor="middle" x="154" y="-221" font-family="Helvetica,sans-Serif" font-size="10.00">TheGrid_divers</text>
</a>
</g>
<!-- Node1&#45;&gt;Node12 -->
<g id="edge28" class="edge"><title>Node1&#45;&gt;Node12</title>
<path fill="none" stroke="midnightblue" d="M66.0638,-206.738C77.2156,-208.674 89.9454,-210.883 102.19,-213.008"/>
<polygon fill="midnightblue" stroke="midnightblue" points="101.865,-216.504 112.316,-214.766 103.062,-209.607 101.865,-216.504"/>
</g>
<!-- Node13 -->
<g id="node29" class="node"><title>Node13</title>
<a xlink:href="grider8_8cpp.html#a9e1ee0eba138b4a8fc72f527af97617f" target="_top" xlink:title="TheGrid_matrix">
<polygon fill="white" stroke="black" points="112.5,-42 112.5,-66 195.5,-66 195.5,-42 112.5,-42"/>
<text text-anchor="middle" x="154" y="-53" font-family="Helvetica,sans-Serif" font-size="10.00">TheGrid_matrix</text>
</a>
</g>
<!-- Node1&#45;&gt;Node13 -->
<g id="edge32" class="edge"><title>Node1&#45;&gt;Node13</title>
<path fill="none" stroke="midnightblue" d="M43.0468,-188.751C56.4712,-172.387 81.0063,-142.496 102,-117 113.866,-102.589 127.276,-86.3429 137.507,-73.9578"/>
<polygon fill="midnightblue" stroke="midnightblue" points="140.352,-76.0091 144.023,-66.0705 134.955,-71.5507 140.352,-76.0091"/>
</g>
<!-- Node3 -->
<g id="node5" class="node"><title>Node3</title>
<a xlink:href="_c_o_r_e__6_8cpp.html#a3680de15f6ccf838397bde99d246125a" target="_top" xlink:title="show_type_midi">
<polygon fill="white" stroke="black" points="254.5,-252 254.5,-276 341.5,-276 341.5,-252 254.5,-252"/>
<text text-anchor="middle" x="298" y="-263" font-family="Helvetica,sans-Serif" font-size="10.00">show_type_midi</text>
</a>
</g>
<!-- Node2&#45;&gt;Node3 -->
<g id="edge4" class="edge"><title>Node2&#45;&gt;Node3</title>
<path fill="none" stroke="midnightblue" d="M195.265,-293.964C211.383,-289.263 230.03,-283.825 246.979,-278.881"/>
<polygon fill="midnightblue" stroke="midnightblue" points="248.109,-282.197 256.729,-276.037 246.149,-275.477 248.109,-282.197"/>
</g>
<!-- Node4&#45;&gt;Node3 -->
<g id="edge12" class="edge"><title>Node4&#45;&gt;Node3</title>
<path fill="none" stroke="midnightblue" d="M189.608,-191.708C195.34,-194.332 201.019,-197.421 206,-201 225.967,-215.345 221.855,-228.906 242,-243 244.236,-244.564 246.603,-246.029 249.051,-247.397"/>
<polygon fill="midnightblue" stroke="midnightblue" points="247.665,-250.617 258.177,-251.941 250.785,-244.351 247.665,-250.617"/>
</g>
<!-- Node5 -->
<g id="node9" class="node"><title>Node5</title>
<a xlink:href="gui__boutons__rebuild1_8cpp.html#a602e186310541aea863c7368fef4b3f1" target="_top" xlink:title="previous_button_view">
<polygon fill="white" stroke="black" points="242.5,-168 242.5,-192 353.5,-192 353.5,-168 242.5,-168"/>
<text text-anchor="middle" x="298" y="-179" font-family="Helvetica,sans-Serif" font-size="10.00">previous_button_view</text>
</a>
</g>
<!-- Node4&#45;&gt;Node5 -->
<g id="edge8" class="edge"><title>Node4&#45;&gt;Node5</title>
<path fill="none" stroke="midnightblue" d="M189.596,-180C202.52,-180 217.569,-180 232.267,-180"/>
<polygon fill="midnightblue" stroke="midnightblue" points="232.356,-183.5 242.356,-180 232.356,-176.5 232.356,-183.5"/>
</g>
<!-- Node6 -->
<g id="node11" class="node"><title>Node6</title>
<a xlink:href="gui__boutons__rebuild1_8cpp.html#a25048f0a097129c29226ec04caae26a5" target="_top" xlink:title="next_button_view">
<polygon fill="white" stroke="black" points="251.5,-210 251.5,-234 344.5,-234 344.5,-210 251.5,-210"/>
<text text-anchor="middle" x="298" y="-221" font-family="Helvetica,sans-Serif" font-size="10.00">next_button_view</text>
</a>
</g>
<!-- Node4&#45;&gt;Node6 -->
<g id="edge10" class="edge"><title>Node4&#45;&gt;Node6</title>
<path fill="none" stroke="midnightblue" d="M189.596,-190.382C206.901,-195.429 228.014,-201.587 246.994,-207.123"/>
<polygon fill="midnightblue" stroke="midnightblue" points="246.113,-210.512 256.693,-209.952 248.073,-203.792 246.113,-210.512"/>
</g>
<!-- Node7&#45;&gt;Node3 -->
<g id="edge22" class="edge"><title>Node7&#45;&gt;Node3</title>
<path fill="none" stroke="midnightblue" d="M193.544,-150.005C198.089,-152.488 202.383,-155.458 206,-159 235.022,-187.417 212.624,-214.949 242,-243 243.265,-244.208 244.606,-245.348 246.007,-246.423"/>
<polygon fill="midnightblue" stroke="midnightblue" points="244.276,-249.47 254.587,-251.906 248.045,-243.572 244.276,-249.47"/>
</g>
<!-- Node8 -->
<g id="node16" class="node"><title>Node8</title>
<a xlink:href="gui__boutons__rebuild1_8cpp.html#aa6052f3f1534f1a69a06d1498f27af78" target="_top" xlink:title="play_button_view">
<polygon fill="white" stroke="black" points="252,-126 252,-150 344,-150 344,-126 252,-126"/>
<text text-anchor="middle" x="298" y="-137" font-family="Helvetica,sans-Serif" font-size="10.00">play_button_view</text>
</a>
</g>
<!-- Node7&#45;&gt;Node8 -->
<g id="edge16" class="edge"><title>Node7&#45;&gt;Node8</title>
<path fill="none" stroke="midnightblue" d="M205.581,-138C217.19,-138 229.572,-138 241.376,-138"/>
<polygon fill="midnightblue" stroke="midnightblue" points="241.566,-141.5 251.566,-138 241.566,-134.5 241.566,-141.5"/>
</g>
<!-- Node9 -->
<g id="node18" class="node"><title>Node9</title>
<a xlink:href="gui__boutons__rebuild1_8cpp.html#a49d3463d08aebc6ce155aa1baae271bd" target="_top" xlink:title="seek_button_view">
<polygon fill="white" stroke="black" points="250.5,-84 250.5,-108 345.5,-108 345.5,-84 250.5,-84"/>
<text text-anchor="middle" x="298" y="-95" font-family="Helvetica,sans-Serif" font-size="10.00">seek_button_view</text>
</a>
</g>
<!-- Node7&#45;&gt;Node9 -->
<g id="edge18" class="edge"><title>Node7&#45;&gt;Node9</title>
<path fill="none" stroke="midnightblue" d="M195.265,-125.964C211.383,-121.263 230.03,-115.825 246.979,-110.881"/>
<polygon fill="midnightblue" stroke="midnightblue" points="248.109,-114.197 256.729,-108.037 246.149,-107.477 248.109,-114.197"/>
</g>
<!-- Node10 -->
<g id="node20" class="node"><title>Node10</title>
<a xlink:href="gui__boutons__rebuild1_8cpp.html#aaf89aac5edeb61d30e001c9abb9b341f" target="_top" xlink:title="playstop_button_view">
<polygon fill="white" stroke="black" points="242.5,-42 242.5,-66 353.5,-66 353.5,-42 242.5,-42"/>
<text text-anchor="middle" x="298" y="-53" font-family="Helvetica,sans-Serif" font-size="10.00">playstop_button_view</text>
</a>
</g>
<!-- Node7&#45;&gt;Node10 -->
<g id="edge20" class="edge"><title>Node7&#45;&gt;Node10</title>
<path fill="none" stroke="midnightblue" d="M168.474,-125.806C185.301,-112.079 214.315,-89.7687 242,-75 245.261,-73.2605 248.698,-71.5987 252.198,-70.0268"/>
<polygon fill="midnightblue" stroke="midnightblue" points="253.686,-73.1979 261.537,-66.0835 250.963,-66.7492 253.686,-73.1979"/>
</g>
<!-- Node11&#45;&gt;Node3 -->
<g id="edge26" class="edge"><title>Node11&#45;&gt;Node3</title>
<path fill="none" stroke="midnightblue" d="M206.395,-264C218.708,-264 231.85,-264 244.224,-264"/>
<polygon fill="midnightblue" stroke="midnightblue" points="244.401,-267.5 254.401,-264 244.401,-260.5 244.401,-267.5"/>
</g>
<!-- Node12&#45;&gt;Node3 -->
<g id="edge30" class="edge"><title>Node12&#45;&gt;Node3</title>
<path fill="none" stroke="midnightblue" d="M195.265,-234.036C211.383,-238.737 230.03,-244.175 246.979,-249.119"/>
<polygon fill="midnightblue" stroke="midnightblue" points="246.149,-252.523 256.729,-251.963 248.109,-245.803 246.149,-252.523"/>
</g>
<!-- Node14 -->
<g id="node31" class="node"><title>Node14</title>
<a xlink:href="colors__fonts_8h.html#ae9274ddf03277718b9234207fe9a3d3a" target="_top" xlink:title="CouleurGreen">
<polygon fill="white" stroke="black" points="259.5,-0 259.5,-24 336.5,-24 336.5,-0 259.5,-0"/>
<text text-anchor="middle" x="298" y="-11" font-family="Helvetica,sans-Serif" font-size="10.00">CouleurGreen</text>
</a>
</g>
<!-- Node13&#45;&gt;Node14 -->
<g id="edge34" class="edge"><title>Node13&#45;&gt;Node14</title>
<path fill="none" stroke="midnightblue" d="M195.265,-41.9645C212.077,-37.0608 231.643,-31.3543 249.16,-26.2449"/>
<polygon fill="midnightblue" stroke="midnightblue" points="250.582,-29.4762 259.202,-23.3161 248.622,-22.7562 250.582,-29.4762"/>
</g>
</g>
</svg>
