<?xml version="1.0" encoding="UTF-8" standalone="no"?>
<!DOCTYPE svg PUBLIC "-//W3C//DTD SVG 1.1//EN"
 "http://www.w3.org/Graphics/SVG/1.1/DTD/svg11.dtd">
<!-- Generated by graphviz version 2.26.3 (20100126.1600)
 -->
<!-- Title: TheStepBox Pages: 1 -->
<svg width="228pt" height="116pt"
 viewBox="0.00 0.00 228.00 116.00" xmlns="http://www.w3.org/2000/svg" xmlns:xlink="http://www.w3.org/1999/xlink">
<g id="graph1" class="graph" transform="scale(1 1) rotate(0) translate(4 112)">
<title>TheStepBox</title>
<polygon fill="white" stroke="white" points="-4,5 -4,-112 225,-112 225,5 -4,5"/>
<!-- Node1 -->
<g id="node1" class="node"><title>Node1</title>
<polygon fill="#bfbfbf" stroke="black" points="0.5,-42 0.5,-66 71.5,-66 71.5,-42 0.5,-42"/>
<text text-anchor="middle" x="36" y="-53" font-family="Helvetica,sans-Serif" font-size="10.00">TheStepBox</text>
</g>
<!-- Node2 -->
<g id="node3" class="node"><title>Node2</title>
<a xlink:href="gui__boutons__rebuild1_8cpp.html#a602e186310541aea863c7368fef4b3f1" target="_top" xlink:title="previous_button_view">
<polygon fill="white" stroke="black" points="108.5,-84 108.5,-108 219.5,-108 219.5,-84 108.5,-84"/>
<text text-anchor="middle" x="164" y="-95" font-family="Helvetica,sans-Serif" font-size="10.00">previous_button_view</text>
</a>
</g>
<!-- Node1&#45;&gt;Node2 -->
<g id="edge2" class="edge"><title>Node1&#45;&gt;Node2</title>
<path fill="none" stroke="midnightblue" d="M71.6551,-65.6993C85.8545,-70.3585 102.387,-75.7831 117.506,-80.7443"/>
<polygon fill="midnightblue" stroke="midnightblue" points="116.607,-84.1327 127.2,-83.9249 118.789,-77.4816 116.607,-84.1327"/>
</g>
<!-- Node3 -->
<g id="node5" class="node"><title>Node3</title>
<a xlink:href="gui__boutons__rebuild1_8cpp.html#a25048f0a097129c29226ec04caae26a5" target="_top" xlink:title="next_button_view">
<polygon fill="white" stroke="black" points="117.5,-42 117.5,-66 210.5,-66 210.5,-42 117.5,-42"/>
<text text-anchor="middle" x="164" y="-53" font-family="Helvetica,sans-Serif" font-size="10.00">next_button_view</text>
</a>
</g>
<!-- Node1&#45;&gt;Node3 -->
<g id="edge4" class="edge"><title>Node1&#45;&gt;Node3</title>
<path fill="none" stroke="midnightblue" d="M71.6551,-54C82.5257,-54 94.7635,-54 106.688,-54"/>
<polygon fill="midnightblue" stroke="midnightblue" points="107.045,-57.5001 117.044,-54 107.044,-50.5001 107.045,-57.5001"/>
</g>
<!-- Node4 -->
<g id="node7" class="node"><title>Node4</title>
<a xlink:href="_c_o_r_e__6_8cpp.html#a3680de15f6ccf838397bde99d246125a" target="_top" xlink:title="show_type_midi">
<polygon fill="white" stroke="black" points="120.5,-0 120.5,-24 207.5,-24 207.5,-0 120.5,-0"/>
<text text-anchor="middle" x="164" y="-11" font-family="Helvetica,sans-Serif" font-size="10.00">show_type_midi</text>
</a>
</g>
<!-- Node1&#45;&gt;Node4 -->
<g id="edge6" class="edge"><title>Node1&#45;&gt;Node4</title>
<path fill="none" stroke="midnightblue" d="M71.6551,-42.3007C85.8545,-37.6415 102.387,-32.2169 117.506,-27.2557"/>
<polygon fill="midnightblue" stroke="midnightblue" points="118.789,-30.5184 127.2,-24.0751 116.607,-23.8673 118.789,-30.5184"/>
</g>
</g>
</svg>
