<?xml version="1.0" encoding="UTF-8" standalone="no"?>
<!DOCTYPE svg PUBLIC "-//W3C//DTD SVG 1.1//EN"
 "http://www.w3.org/Graphics/SVG/1.1/DTD/svg11.dtd">
<!-- Generated by graphviz version 2.26.3 (20100126.1600)
 -->
<!-- Title: clear_a_grid_step Pages: 1 -->
<svg width="1050pt" height="158pt"
 viewBox="0.00 0.00 1050.00 157.50" xmlns="http://www.w3.org/2000/svg" xmlns:xlink="http://www.w3.org/1999/xlink">
<g id="graph1" class="graph" transform="scale(1 1) rotate(0) translate(4 153.503)">
<title>clear_a_grid_step</title>
<polygon fill="white" stroke="white" points="-4,5 -4,-153.503 1047,-153.503 1047,5 -4,5"/>
<!-- Node1 -->
<g id="node1" class="node"><title>Node1</title>
<polygon fill="#bfbfbf" stroke="black" points="0.5,-0 0.5,-24 93.5,-24 93.5,-0 0.5,-0"/>
<text text-anchor="middle" x="47" y="-11" font-family="Helvetica,sans-Serif" font-size="10.00">clear_a_grid_step</text>
</g>
<!-- Node2 -->
<g id="node3" class="node"><title>Node2</title>
<a xlink:href="grider__calculs8_8cpp.html#ae3acba08cb12792550ddb8fb0d8e97ff" target="_top" xlink:title="clear_a_grid">
<polygon fill="white" stroke="black" points="130.5,-20 130.5,-44 199.5,-44 199.5,-20 130.5,-20"/>
<text text-anchor="middle" x="165" y="-31" font-family="Helvetica,sans-Serif" font-size="10.00">clear_a_grid</text>
</a>
</g>
<!-- Node1&#45;&gt;Node2 -->
<g id="edge2" class="edge"><title>Node1&#45;&gt;Node2</title>
<path fill="none" stroke="midnightblue" d="M103.506,-21.5772C112.668,-23.1302 121.911,-24.6968 130.349,-26.1269"/>
<polygon fill="midnightblue" stroke="midnightblue" points="104.081,-18.1249 93.6367,-19.9045 102.911,-25.0265 104.081,-18.1249"/>
</g>
<!-- Node5 -->
<g id="node9" class="node"><title>Node5</title>
<a xlink:href="logicals__intres_8cpp.html#a74cf9c04c734ab342f88799efbfc4210" target="_top" xlink:title="operations_confirmation">
<polygon fill="white" stroke="black" points="426,-55 426,-79 546,-79 546,-55 426,-55"/>
<text text-anchor="middle" x="486" y="-66" font-family="Helvetica,sans-Serif" font-size="10.00">operations_confirmation</text>
</a>
</g>
<!-- Node1&#45;&gt;Node5 -->
<g id="edge32" class="edge"><title>Node1&#45;&gt;Node5</title>
<path fill="none" stroke="midnightblue" d="M103.73,-11.2256C112.525,-11.1318 121.507,-11.0512 130,-11 161.111,-10.8126 169.018,-8.17019 200,-11 285.509,-18.8102 305.825,-29.0453 390,-46 403.798,-48.7792 418.673,-51.9481 432.498,-54.9669"/>
<polygon fill="midnightblue" stroke="midnightblue" points="103.491,-7.72793 93.5311,-11.3407 103.57,-14.7275 103.491,-7.72793"/>
</g>
<!-- Node3 -->
<g id="node5" class="node"><title>Node3</title>
<a xlink:href="_c_o_r_e__6_8cpp.html#a5e53dc8ef589fe38b9d40e3497ac3f13" target="_top" xlink:title="GlobInit">
<polygon fill="white" stroke="black" points="236,-77 236,-101 286,-101 286,-77 236,-77"/>
<text text-anchor="middle" x="261" y="-88" font-family="Helvetica,sans-Serif" font-size="10.00">GlobInit</text>
</a>
</g>
<!-- Node2&#45;&gt;Node3 -->
<g id="edge4" class="edge"><title>Node2&#45;&gt;Node3</title>
<path fill="none" stroke="midnightblue" d="M194.265,-49.3761C209.275,-58.2886 227.185,-68.9225 240.67,-76.9292"/>
<polygon fill="midnightblue" stroke="midnightblue" points="195.745,-46.1842 185.359,-44.0882 192.171,-52.2032 195.745,-46.1842"/>
</g>
<!-- Node2&#45;&gt;Node5 -->
<g id="edge30" class="edge"><title>Node2&#45;&gt;Node5</title>
<path fill="none" stroke="midnightblue" d="M209.685,-36.8722C266.018,-43.0144 363.069,-53.5963 425.871,-60.4439"/>
<polygon fill="midnightblue" stroke="midnightblue" points="209.978,-33.3835 199.658,-35.7789 209.219,-40.3423 209.978,-33.3835"/>
</g>
<!-- Node4 -->
<g id="node7" class="node"><title>Node4</title>
<a xlink:href="_c_o_r_e__6_8cpp.html#a29400ad92b676ecb7743384700af5560" target="_top" xlink:title="reset_show">
<polygon fill="white" stroke="black" points="322.5,-96 322.5,-120 389.5,-120 389.5,-96 322.5,-96"/>
<text text-anchor="middle" x="356" y="-107" font-family="Helvetica,sans-Serif" font-size="10.00">reset_show</text>
</a>
</g>
<!-- Node3&#45;&gt;Node4 -->
<g id="edge6" class="edge"><title>Node3&#45;&gt;Node4</title>
<path fill="none" stroke="midnightblue" d="M296.419,-96.0838C304.872,-97.7744 313.872,-99.5744 322.247,-101.249"/>
<polygon fill="midnightblue" stroke="midnightblue" points="296.95,-92.6209 286.458,-94.0917 295.578,-99.4849 296.95,-92.6209"/>
</g>
<!-- Node3&#45;&gt;Node5 -->
<g id="edge26" class="edge"><title>Node3&#45;&gt;Node5</title>
<path fill="none" stroke="midnightblue" d="M296.48,-85.5308C331.093,-82.1465 384.413,-76.933 425.69,-72.897"/>
<polygon fill="midnightblue" stroke="midnightblue" points="295.985,-82.0625 286.373,-86.5191 296.666,-89.0292 295.985,-82.0625"/>
</g>
<!-- Node9 -->
<g id="node17" class="node"><title>Node9</title>
<a xlink:href="_m_a_i_n__avec__objets_8cpp.html#ae66f6b31b5ad750f1fe042a706a4e3d4" target="_top" xlink:title="main">
<polygon fill="white" stroke="black" points="1004,-96 1004,-120 1042,-120 1042,-96 1004,-96"/>
<text text-anchor="middle" x="1023" y="-107" font-family="Helvetica,sans-Serif" font-size="10.00">main</text>
</a>
</g>
<!-- Node3&#45;&gt;Node9 -->
<g id="edge28" class="edge"><title>Node3&#45;&gt;Node9</title>
<path fill="none" stroke="midnightblue" d="M283.612,-107.476C294.56,-115.429 308.284,-124.027 322,-129 390.981,-154.014 412.624,-148 486,-148 486,-148 486,-148 754,-148 849.485,-148 874.957,-150.456 968,-129 980.25,-126.175 993.426,-121.217 1003.81,-116.827"/>
<polygon fill="midnightblue" stroke="midnightblue" points="285.566,-104.565 275.481,-101.318 281.34,-110.145 285.566,-104.565"/>
</g>
<!-- Node4&#45;&gt;Node5 -->
<g id="edge8" class="edge"><title>Node4&#45;&gt;Node5</title>
<path fill="none" stroke="midnightblue" d="M399.738,-94.2058C415.302,-89.297 432.694,-83.8118 447.762,-79.0597"/>
<polygon fill="midnightblue" stroke="midnightblue" points="398.301,-90.989 389.817,-97.3348 400.406,-97.6648 398.301,-90.989"/>
</g>
<!-- Node6 -->
<g id="node11" class="node"><title>Node6</title>
<a xlink:href="keyboard__functions2_8cpp.html#a548548066307f816c5021de7d6e4f26a" target="_top" xlink:title="key_affectation">
<polygon fill="white" stroke="black" points="582.5,-96 582.5,-120 665.5,-120 665.5,-96 582.5,-96"/>
<text text-anchor="middle" x="624" y="-107" font-family="Helvetica,sans-Serif" font-size="10.00">key_affectation</text>
</a>
</g>
<!-- Node5&#45;&gt;Node6 -->
<g id="edge10" class="edge"><title>Node5&#45;&gt;Node6</title>
<path fill="none" stroke="midnightblue" d="M536.518,-82.0091C551.865,-86.5687 568.529,-91.5195 583.156,-95.8651"/>
<polygon fill="midnightblue" stroke="midnightblue" points="537.241,-78.5726 526.658,-79.0796 535.247,-85.2827 537.241,-78.5726"/>
</g>
<!-- Node10 -->
<g id="node19" class="node"><title>Node10</title>
<a xlink:href="logicals__intres_8cpp.html#a85967c22135715eca94d08af2ec1a1fb" target="_top" xlink:title="fenetre_confirm">
<polygon fill="white" stroke="black" points="582,-54 582,-78 666,-78 666,-54 582,-54"/>
<text text-anchor="middle" x="624" y="-65" font-family="Helvetica,sans-Serif" font-size="10.00">fenetre_confirm</text>
</a>
</g>
<!-- Node5&#45;&gt;Node10 -->
<g id="edge18" class="edge"><title>Node5&#45;&gt;Node10</title>
<path fill="none" stroke="midnightblue" d="M556.354,-66.4902C565.083,-66.4269 573.783,-66.3639 581.896,-66.3051"/>
<polygon fill="midnightblue" stroke="midnightblue" points="556.102,-62.9918 546.127,-66.5643 556.152,-69.9916 556.102,-62.9918"/>
</g>
<!-- Node7 -->
<g id="node13" class="node"><title>Node7</title>
<a xlink:href="keyboard__routines2_8cpp.html#a8563320b8eab661232619224650de244" target="_top" xlink:title="commandes_clavier">
<polygon fill="white" stroke="black" points="702,-96 702,-120 806,-120 806,-96 702,-96"/>
<text text-anchor="middle" x="754" y="-107" font-family="Helvetica,sans-Serif" font-size="10.00">commandes_clavier</text>
</a>
</g>
<!-- Node6&#45;&gt;Node7 -->
<g id="edge12" class="edge"><title>Node6&#45;&gt;Node7</title>
<path fill="none" stroke="midnightblue" d="M675.995,-108C684.473,-108 693.258,-108 701.742,-108"/>
<polygon fill="midnightblue" stroke="midnightblue" points="675.848,-104.5 665.848,-108 675.848,-111.5 675.848,-104.5"/>
</g>
<!-- Node8 -->
<g id="node15" class="node"><title>Node8</title>
<a xlink:href="_m_a_i_n__avec__objets_8cpp.html#a8e80f54ac804eddce8ed6e45adb1db44" target="_top" xlink:title="ticker_full_loop">
<polygon fill="white" stroke="black" points="864,-96 864,-120 946,-120 946,-96 864,-96"/>
<text text-anchor="middle" x="905" y="-107" font-family="Helvetica,sans-Serif" font-size="10.00">ticker_full_loop</text>
</a>
</g>
<!-- Node7&#45;&gt;Node8 -->
<g id="edge14" class="edge"><title>Node7&#45;&gt;Node8</title>
<path fill="none" stroke="midnightblue" d="M816.664,-108C832.516,-108 849.147,-108 863.648,-108"/>
<polygon fill="midnightblue" stroke="midnightblue" points="816.389,-104.5 806.389,-108 816.389,-111.5 816.389,-104.5"/>
</g>
<!-- Node8&#45;&gt;Node9 -->
<g id="edge16" class="edge"><title>Node8&#45;&gt;Node9</title>
<path fill="none" stroke="midnightblue" d="M956.55,-108C973.307,-108 990.879,-108 1003.74,-108"/>
<polygon fill="midnightblue" stroke="midnightblue" points="956.271,-104.5 946.271,-108 956.271,-111.5 956.271,-104.5"/>
</g>
<!-- Node11 -->
<g id="node21" class="node"><title>Node11</title>
<a xlink:href="graphics__rebuild1_8cpp.html#ac2eae1e03fb72cc734ffbcef566483bf" target="_top" xlink:title="Boxes">
<polygon fill="white" stroke="black" points="732,-54 732,-78 776,-78 776,-54 732,-54"/>
<text text-anchor="middle" x="754" y="-65" font-family="Helvetica,sans-Serif" font-size="10.00">Boxes</text>
</a>
</g>
<!-- Node10&#45;&gt;Node11 -->
<g id="edge20" class="edge"><title>Node10&#45;&gt;Node11</title>
<path fill="none" stroke="midnightblue" d="M676.4,-66C695.658,-66 716.45,-66 731.66,-66"/>
<polygon fill="midnightblue" stroke="midnightblue" points="676.207,-62.5001 666.207,-66 676.207,-69.5001 676.207,-62.5001"/>
</g>
<!-- Node12 -->
<g id="node23" class="node"><title>Node12</title>
<a xlink:href="_m_a_i_n__avec__objets_8cpp.html#ade8d4ba65d55c94f8ee277829d722155" target="_top" xlink:title="main_actions_on_screen">
<polygon fill="white" stroke="black" points="842.5,-54 842.5,-78 967.5,-78 967.5,-54 842.5,-54"/>
<text text-anchor="middle" x="905" y="-65" font-family="Helvetica,sans-Serif" font-size="10.00">main_actions_on_screen</text>
</a>
</g>
<!-- Node11&#45;&gt;Node12 -->
<g id="edge22" class="edge"><title>Node11&#45;&gt;Node12</title>
<path fill="none" stroke="midnightblue" d="M786.395,-66C802.76,-66 823.187,-66 842.455,-66"/>
<polygon fill="midnightblue" stroke="midnightblue" points="786.281,-62.5001 776.281,-66 786.281,-69.5001 786.281,-62.5001"/>
</g>
<!-- Node12&#45;&gt;Node9 -->
<g id="edge24" class="edge"><title>Node12&#45;&gt;Node9</title>
<path fill="none" stroke="midnightblue" d="M951.823,-81.359C957.288,-83.2254 962.775,-85.1327 968,-87 980.031,-91.2997 993.426,-96.4073 1003.98,-100.509"/>
<polygon fill="midnightblue" stroke="midnightblue" points="952.663,-77.9485 942.069,-78.0613 950.421,-84.5797 952.663,-77.9485"/>
</g>
</g>
</svg>
