<?xml version="1.0" encoding="UTF-8" standalone="no"?>
<!DOCTYPE svg PUBLIC "-//W3C//DTD SVG 1.1//EN"
 "http://www.w3.org/Graphics/SVG/1.1/DTD/svg11.dtd">
<!-- Generated by graphviz version 2.26.3 (20100126.1600)
 -->
<!-- Title: copy_step_to_step Pages: 1 -->
<svg width="760pt" height="74pt"
 viewBox="0.00 0.00 760.00 74.00" xmlns="http://www.w3.org/2000/svg" xmlns:xlink="http://www.w3.org/1999/xlink">
<g id="graph1" class="graph" transform="scale(1 1) rotate(0) translate(4 70)">
<title>copy_step_to_step</title>
<polygon fill="white" stroke="white" points="-4,5 -4,-70 757,-70 757,5 -4,5"/>
<!-- Node1 -->
<g id="node1" class="node"><title>Node1</title>
<polygon fill="#bfbfbf" stroke="black" points="0.5,-21 0.5,-45 99.5,-45 99.5,-21 0.5,-21"/>
<text text-anchor="middle" x="50" y="-32" font-family="Helvetica,sans-Serif" font-size="10.00">copy_step_to_step</text>
</g>
<!-- Node2 -->
<g id="node3" class="node"><title>Node2</title>
<a xlink:href="logicals__intres_8cpp.html#a74cf9c04c734ab342f88799efbfc4210" target="_top" xlink:title="operations_confirmation">
<polygon fill="white" stroke="black" points="136,-21 136,-45 256,-45 256,-21 136,-21"/>
<text text-anchor="middle" x="196" y="-32" font-family="Helvetica,sans-Serif" font-size="10.00">operations_confirmation</text>
</a>
</g>
<!-- Node1&#45;&gt;Node2 -->
<g id="edge2" class="edge"><title>Node1&#45;&gt;Node2</title>
<path fill="none" stroke="midnightblue" d="M110.05,-33C118.548,-33 127.289,-33 135.79,-33"/>
<polygon fill="midnightblue" stroke="midnightblue" points="109.837,-29.5001 99.8366,-33 109.837,-36.5001 109.837,-29.5001"/>
</g>
<!-- Node3 -->
<g id="node5" class="node"><title>Node3</title>
<a xlink:href="keyboard__functions2_8cpp.html#a548548066307f816c5021de7d6e4f26a" target="_top" xlink:title="key_affectation">
<polygon fill="white" stroke="black" points="292.5,-42 292.5,-66 375.5,-66 375.5,-42 292.5,-42"/>
<text text-anchor="middle" x="334" y="-53" font-family="Helvetica,sans-Serif" font-size="10.00">key_affectation</text>
</a>
</g>
<!-- Node2&#45;&gt;Node3 -->
<g id="edge4" class="edge"><title>Node2&#45;&gt;Node3</title>
<path fill="none" stroke="midnightblue" d="M266.19,-43.681C275.12,-45.04 284.024,-46.395 292.303,-47.6548"/>
<polygon fill="midnightblue" stroke="midnightblue" points="266.54,-40.1942 256.127,-42.1498 265.487,-47.1145 266.54,-40.1942"/>
</g>
<!-- Node7 -->
<g id="node13" class="node"><title>Node7</title>
<a xlink:href="logicals__intres_8cpp.html#a85967c22135715eca94d08af2ec1a1fb" target="_top" xlink:title="fenetre_confirm">
<polygon fill="white" stroke="black" points="292,-0 292,-24 376,-24 376,-0 292,-0"/>
<text text-anchor="middle" x="334" y="-11" font-family="Helvetica,sans-Serif" font-size="10.00">fenetre_confirm</text>
</a>
</g>
<!-- Node2&#45;&gt;Node7 -->
<g id="edge12" class="edge"><title>Node2&#45;&gt;Node7</title>
<path fill="none" stroke="midnightblue" d="M266.07,-22.3372C274.894,-20.9944 283.695,-19.6551 291.896,-18.4072"/>
<polygon fill="midnightblue" stroke="midnightblue" points="265.487,-18.8855 256.127,-23.8502 266.54,-25.8058 265.487,-18.8855"/>
</g>
<!-- Node4 -->
<g id="node7" class="node"><title>Node4</title>
<a xlink:href="keyboard__routines2_8cpp.html#a8563320b8eab661232619224650de244" target="_top" xlink:title="commandes_clavier">
<polygon fill="white" stroke="black" points="412,-42 412,-66 516,-66 516,-42 412,-42"/>
<text text-anchor="middle" x="464" y="-53" font-family="Helvetica,sans-Serif" font-size="10.00">commandes_clavier</text>
</a>
</g>
<!-- Node3&#45;&gt;Node4 -->
<g id="edge6" class="edge"><title>Node3&#45;&gt;Node4</title>
<path fill="none" stroke="midnightblue" d="M385.995,-54C394.473,-54 403.258,-54 411.742,-54"/>
<polygon fill="midnightblue" stroke="midnightblue" points="385.848,-50.5001 375.848,-54 385.848,-57.5001 385.848,-50.5001"/>
</g>
<!-- Node5 -->
<g id="node9" class="node"><title>Node5</title>
<a xlink:href="_m_a_i_n__avec__objets_8cpp.html#a8e80f54ac804eddce8ed6e45adb1db44" target="_top" xlink:title="ticker_full_loop">
<polygon fill="white" stroke="black" points="574,-42 574,-66 656,-66 656,-42 574,-42"/>
<text text-anchor="middle" x="615" y="-53" font-family="Helvetica,sans-Serif" font-size="10.00">ticker_full_loop</text>
</a>
</g>
<!-- Node4&#45;&gt;Node5 -->
<g id="edge8" class="edge"><title>Node4&#45;&gt;Node5</title>
<path fill="none" stroke="midnightblue" d="M526.664,-54C542.516,-54 559.147,-54 573.648,-54"/>
<polygon fill="midnightblue" stroke="midnightblue" points="526.389,-50.5001 516.389,-54 526.389,-57.5001 526.389,-50.5001"/>
</g>
<!-- Node6 -->
<g id="node11" class="node"><title>Node6</title>
<a xlink:href="_m_a_i_n__avec__objets_8cpp.html#ae66f6b31b5ad750f1fe042a706a4e3d4" target="_top" xlink:title="main">
<polygon fill="white" stroke="black" points="714,-21 714,-45 752,-45 752,-21 714,-21"/>
<text text-anchor="middle" x="733" y="-32" font-family="Helvetica,sans-Serif" font-size="10.00">main</text>
</a>
</g>
<!-- Node5&#45;&gt;Node6 -->
<g id="edge10" class="edge"><title>Node5&#45;&gt;Node6</title>
<path fill="none" stroke="midnightblue" d="M666.55,-44.8259C683.307,-41.8437 700.879,-38.7164 713.742,-36.4273"/>
<polygon fill="midnightblue" stroke="midnightblue" points="665.503,-41.4572 656.271,-46.6552 666.729,-48.3489 665.503,-41.4572"/>
</g>
<!-- Node8 -->
<g id="node15" class="node"><title>Node8</title>
<a xlink:href="graphics__rebuild1_8cpp.html#ac2eae1e03fb72cc734ffbcef566483bf" target="_top" xlink:title="Boxes">
<polygon fill="white" stroke="black" points="442,-0 442,-24 486,-24 486,-0 442,-0"/>
<text text-anchor="middle" x="464" y="-11" font-family="Helvetica,sans-Serif" font-size="10.00">Boxes</text>
</a>
</g>
<!-- Node7&#45;&gt;Node8 -->
<g id="edge14" class="edge"><title>Node7&#45;&gt;Node8</title>
<path fill="none" stroke="midnightblue" d="M386.4,-12C405.658,-12 426.45,-12 441.66,-12"/>
<polygon fill="midnightblue" stroke="midnightblue" points="386.207,-8.5001 376.207,-12 386.207,-15.5001 386.207,-8.5001"/>
</g>
<!-- Node9 -->
<g id="node17" class="node"><title>Node9</title>
<a xlink:href="_m_a_i_n__avec__objets_8cpp.html#ade8d4ba65d55c94f8ee277829d722155" target="_top" xlink:title="main_actions_on_screen">
<polygon fill="white" stroke="black" points="552.5,-0 552.5,-24 677.5,-24 677.5,-0 552.5,-0"/>
<text text-anchor="middle" x="615" y="-11" font-family="Helvetica,sans-Serif" font-size="10.00">main_actions_on_screen</text>
</a>
</g>
<!-- Node8&#45;&gt;Node9 -->
<g id="edge16" class="edge"><title>Node8&#45;&gt;Node9</title>
<path fill="none" stroke="midnightblue" d="M496.395,-12C512.76,-12 533.187,-12 552.455,-12"/>
<polygon fill="midnightblue" stroke="midnightblue" points="496.281,-8.5001 486.281,-12 496.281,-15.5001 496.281,-8.5001"/>
</g>
<!-- Node9&#45;&gt;Node6 -->
<g id="edge18" class="edge"><title>Node9&#45;&gt;Node6</title>
<path fill="none" stroke="midnightblue" d="M687.837,-24.9626C697.336,-26.6529 706.327,-28.253 713.749,-29.5739"/>
<polygon fill="midnightblue" stroke="midnightblue" points="688.259,-21.4827 677.8,-23.1763 687.032,-28.3744 688.259,-21.4827"/>
</g>
</g>
</svg>
