<?xml version="1.0" encoding="UTF-8" standalone="no"?>
<!DOCTYPE svg PUBLIC "-//W3C//DTD SVG 1.1//EN"
 "http://www.w3.org/Graphics/SVG/1.1/DTD/svg11.dtd">
<!-- Generated by graphviz version 2.26.3 (20100126.1600)
 -->
<!-- Title: raccrochage_midi_logical_horizontal Pages: 1 -->
<svg width="776pt" height="156pt"
 viewBox="0.00 0.00 776.00 156.00" xmlns="http://www.w3.org/2000/svg" xmlns:xlink="http://www.w3.org/1999/xlink">
<g id="graph1" class="graph" transform="scale(1 1) rotate(0) translate(4 152)">
<title>raccrochage_midi_logical_horizontal</title>
<polygon fill="white" stroke="white" points="-4,5 -4,-152 773,-152 773,5 -4,5"/>
<!-- Node1 -->
<g id="node1" class="node"><title>Node1</title>
<polygon fill="#bfbfbf" stroke="black" points="0,-58 0,-98 126,-98 126,-58 0,-58"/>
<text text-anchor="start" x="8" y="-85" font-family="Helvetica,sans-Serif" font-size="10.00">raccrochage_midi_logical</text>
<text text-anchor="middle" x="63" y="-69" font-family="Helvetica,sans-Serif" font-size="10.00">_horizontal</text>
</g>
<!-- Node2 -->
<g id="node3" class="node"><title>Node2</title>
<a xlink:href="faders__core__24_8cpp.html#ac54ebc5164ea44b43ace93804e9948ad" target="_top" xlink:title="do_logical_lfo_fader\l_functions">
<polygon fill="white" stroke="black" points="162.5,-108 162.5,-148 265.5,-148 265.5,-108 162.5,-108"/>
<text text-anchor="start" x="170.5" y="-135" font-family="Helvetica,sans-Serif" font-size="10.00">do_logical_lfo_fader</text>
<text text-anchor="middle" x="214" y="-119" font-family="Helvetica,sans-Serif" font-size="10.00">_functions</text>
</a>
</g>
<!-- Node1&#45;&gt;Node2 -->
<g id="edge2" class="edge"><title>Node1&#45;&gt;Node2</title>
<path fill="none" stroke="midnightblue" d="M133.235,-101.257C142.986,-104.485 152.855,-107.753 162.186,-110.843"/>
<polygon fill="midnightblue" stroke="midnightblue" points="134.141,-97.8697 123.547,-98.0488 131.94,-104.515 134.141,-97.8697"/>
</g>
<!-- Node7 -->
<g id="node13" class="node"><title>Node7</title>
<a xlink:href="sequentiel__6__core_8cpp.html#a152c03ccf49d8d9a457e048daaa48023" target="_top" xlink:title="do_logical_x1_x2">
<polygon fill="white" stroke="black" points="168,-66 168,-90 260,-90 260,-66 168,-66"/>
<text text-anchor="middle" x="214" y="-77" font-family="Helvetica,sans-Serif" font-size="10.00">do_logical_x1_x2</text>
</a>
</g>
<!-- Node1&#45;&gt;Node7 -->
<g id="edge12" class="edge"><title>Node1&#45;&gt;Node7</title>
<path fill="none" stroke="midnightblue" d="M136.335,-78C146.993,-78 157.708,-78 167.63,-78"/>
<polygon fill="midnightblue" stroke="midnightblue" points="136.163,-74.5001 126.163,-78 136.163,-81.5001 136.163,-74.5001"/>
</g>
<!-- Node9 -->
<g id="node18" class="node"><title>Node9</title>
<a xlink:href="video__tracking__core_8cpp.html#a3f57894fb192cb6907464f6466e6c37c" target="_top" xlink:title="do_logical_Interface\l_video_window">
<polygon fill="white" stroke="black" points="309,-0 309,-40 413,-40 413,-0 309,-0"/>
<text text-anchor="start" x="317" y="-27" font-family="Helvetica,sans-Serif" font-size="10.00">do_logical_Interface</text>
<text text-anchor="middle" x="361" y="-11" font-family="Helvetica,sans-Serif" font-size="10.00">_video_window</text>
</a>
</g>
<!-- Node1&#45;&gt;Node9 -->
<g id="edge18" class="edge"><title>Node1&#45;&gt;Node9</title>
<path fill="none" stroke="midnightblue" d="M135.922,-62.3141C144.702,-60.4898 153.549,-58.6817 162,-57 211.802,-47.0898 268.785,-36.5788 308.975,-29.3027"/>
<polygon fill="midnightblue" stroke="midnightblue" points="135.134,-58.903 126.062,-64.3748 136.567,-65.755 135.134,-58.903"/>
</g>
<!-- Node3 -->
<g id="node5" class="node"><title>Node3</title>
<a xlink:href="faders__core__24_8cpp.html#a7a87eef3a5459bdd689c77b5b02957d7" target="_top" xlink:title="do_logical_FaderSpace">
<polygon fill="white" stroke="black" points="302,-116 302,-140 420,-140 420,-116 302,-116"/>
<text text-anchor="middle" x="361" y="-127" font-family="Helvetica,sans-Serif" font-size="10.00">do_logical_FaderSpace</text>
</a>
</g>
<!-- Node2&#45;&gt;Node3 -->
<g id="edge4" class="edge"><title>Node2&#45;&gt;Node3</title>
<path fill="none" stroke="midnightblue" d="M276.102,-128C284.638,-128 293.384,-128 301.864,-128"/>
<polygon fill="midnightblue" stroke="midnightblue" points="275.827,-124.5 265.827,-128 275.827,-131.5 275.827,-124.5"/>
</g>
<!-- Node4 -->
<g id="node7" class="node"><title>Node4</title>
<a xlink:href="procs__visuels__rebuild1_8cpp.html#ae710b6e599e321ad5934a90140067054" target="_top" xlink:title="check_graphics_mouse\l_handling">
<polygon fill="white" stroke="black" points="456.5,-58 456.5,-98 575.5,-98 575.5,-58 456.5,-58"/>
<text text-anchor="start" x="464.5" y="-85" font-family="Helvetica,sans-Serif" font-size="10.00">check_graphics_mouse</text>
<text text-anchor="middle" x="516" y="-69" font-family="Helvetica,sans-Serif" font-size="10.00">_handling</text>
</a>
</g>
<!-- Node3&#45;&gt;Node4 -->
<g id="edge6" class="edge"><title>Node3&#45;&gt;Node4</title>
<path fill="none" stroke="midnightblue" d="M408.218,-112.768C423.425,-107.863 440.478,-102.362 456.454,-97.2084"/>
<polygon fill="midnightblue" stroke="midnightblue" points="406.964,-109.495 398.521,-115.896 409.113,-116.157 406.964,-109.495"/>
</g>
<!-- Node5 -->
<g id="node9" class="node"><title>Node5</title>
<a xlink:href="_m_a_i_n__avec__objets_8cpp.html#a8e80f54ac804eddce8ed6e45adb1db44" target="_top" xlink:title="ticker_full_loop">
<polygon fill="white" stroke="black" points="612,-66 612,-90 694,-90 694,-66 612,-66"/>
<text text-anchor="middle" x="653" y="-77" font-family="Helvetica,sans-Serif" font-size="10.00">ticker_full_loop</text>
</a>
</g>
<!-- Node4&#45;&gt;Node5 -->
<g id="edge8" class="edge"><title>Node4&#45;&gt;Node5</title>
<path fill="none" stroke="midnightblue" d="M585.967,-78C594.737,-78 603.475,-78 611.605,-78"/>
<polygon fill="midnightblue" stroke="midnightblue" points="585.692,-74.5001 575.692,-78 585.692,-81.5001 585.692,-74.5001"/>
</g>
<!-- Node6 -->
<g id="node11" class="node"><title>Node6</title>
<a xlink:href="_m_a_i_n__avec__objets_8cpp.html#ae66f6b31b5ad750f1fe042a706a4e3d4" target="_top" xlink:title="main">
<polygon fill="white" stroke="black" points="730,-66 730,-90 768,-90 768,-66 730,-66"/>
<text text-anchor="middle" x="749" y="-77" font-family="Helvetica,sans-Serif" font-size="10.00">main</text>
</a>
</g>
<!-- Node5&#45;&gt;Node6 -->
<g id="edge10" class="edge"><title>Node5&#45;&gt;Node6</title>
<path fill="none" stroke="midnightblue" d="M704.509,-78C713.577,-78 722.476,-78 729.904,-78"/>
<polygon fill="midnightblue" stroke="midnightblue" points="704.27,-74.5001 694.27,-78 704.27,-81.5001 704.27,-74.5001"/>
</g>
<!-- Node8 -->
<g id="node15" class="node"><title>Node8</title>
<a xlink:href="sequentiel__6__core_8cpp.html#a2a71c851cf25565491dd10423bc80380" target="_top" xlink:title="do_logical_Sequenciel\l_Window">
<polygon fill="white" stroke="black" points="304.5,-58 304.5,-98 417.5,-98 417.5,-58 304.5,-58"/>
<text text-anchor="start" x="312.5" y="-85" font-family="Helvetica,sans-Serif" font-size="10.00">do_logical_Sequenciel</text>
<text text-anchor="middle" x="361" y="-69" font-family="Helvetica,sans-Serif" font-size="10.00">_Window</text>
</a>
</g>
<!-- Node7&#45;&gt;Node8 -->
<g id="edge14" class="edge"><title>Node7&#45;&gt;Node8</title>
<path fill="none" stroke="midnightblue" d="M270.22,-78C281.44,-78 293.23,-78 304.461,-78"/>
<polygon fill="midnightblue" stroke="midnightblue" points="270.108,-74.5001 260.108,-78 270.108,-81.5001 270.108,-74.5001"/>
</g>
<!-- Node8&#45;&gt;Node4 -->
<g id="edge16" class="edge"><title>Node8&#45;&gt;Node4</title>
<path fill="none" stroke="midnightblue" d="M427.957,-78C437.385,-78 447.026,-78 456.307,-78"/>
<polygon fill="midnightblue" stroke="midnightblue" points="427.836,-74.5001 417.836,-78 427.836,-81.5001 427.836,-74.5001"/>
</g>
<!-- Node9&#45;&gt;Node4 -->
<g id="edge20" class="edge"><title>Node9&#45;&gt;Node4</title>
<path fill="none" stroke="midnightblue" d="M422.532,-43.025C435.752,-47.9719 449.62,-53.1612 462.506,-57.9829"/>
<polygon fill="midnightblue" stroke="midnightblue" points="423.636,-39.7012 413.044,-39.4745 421.183,-46.2572 423.636,-39.7012"/>
</g>
</g>
</svg>
