<?xml version="1.0" encoding="UTF-8" standalone="no"?>
<!DOCTYPE svg PUBLIC "-//W3C//DTD SVG 1.1//EN"
 "http://www.w3.org/Graphics/SVG/1.1/DTD/svg11.dtd">
<!-- Generated by graphviz version 2.26.3 (20100126.1600)
 -->
<!-- Title: previous_button_view Pages: 1 -->
<!--zoomable 249 -->
<svg id="main" version="1.1" xmlns="http://www.w3.org/2000/svg" xmlns:xlink="http://www.w3.org/1999/xlink" xml:space="preserve" onload="init(evt)">
<style type="text/css"><![CDATA[
.edge:hover path { stroke: red; }
.edge:hover polygon { stroke: red; fill: red; }
]]></style>
<script type="text/javascript"><![CDATA[
var edges = document.getElementsByTagName('g');
if (edges && edges.length) {
  for (var i=0;i<edges.length;i++) {
    if (edges[i].id.substr(0,4)=='edge') {
      edges[i].setAttribute('class','edge');
    }
  }
}
]]></script>
        <defs>
                <circle id="rim" cx="0" cy="0" r="7"/>
                <circle id="rim2" cx="0" cy="0" r="3.5"/>
                <g id="zoomPlus">
                        <use xlink:href="#rim" fill="#404040">
                                <set attributeName="fill" to="#808080" begin="zoomplus.mouseover" end="zoomplus.mouseout"/>
                        </use>
                        <path d="M-4,0h8M0,-4v8" fill="none" stroke="white" stroke-width="1.5" pointer-events="none"/>
                </g>
                <g id="zoomMin">
                        <use xlink:href="#rim" fill="#404040">
                                <set attributeName="fill" to="#808080" begin="zoomminus.mouseover" end="zoomminus.mouseout"/>
                        </use>
                        <path d="M-4,0h8" fill="none" stroke="white" stroke-width="1.5" pointer-events="none"/>
                </g>
                <g id="dirArrow">
                        <path fill="none" stroke="white" stroke-width="1.5" d="M0,-3.0v7 M-2.5,-0.5L0,-3.0L2.5,-0.5"/>
                </g>
               <g id="resetDef">
                       <use xlink:href="#rim2" fill="#404040">
                               <set attributeName="fill" to="#808080" begin="reset.mouseover" end="reset.mouseout"/>
                       </use>
               </g>
        </defs>

<script type="text/javascript">
var viewWidth = 892;
var viewHeight = 249;
var sectionId = 'dynsection-17';
</script>
<script xlink:href="svgpan.js"/>
<svg id="graph" class="graph">
<g id="viewport">
<title>previous_button_view</title>
<polygon fill="white" stroke="white" points="-4,5 -4,-245 889,-245 889,5 -4,5"/>
<!-- Node1 -->
<g id="node1" class="node"><title>Node1</title>
<polygon fill="#bfbfbf" stroke="black" points="0.5,-105 0.5,-129 111.5,-129 111.5,-105 0.5,-105"/>
<text text-anchor="middle" x="56" y="-116" font-family="Helvetica,sans-Serif" font-size="10.00">previous_button_view</text>
</g>
<!-- Node2 -->
<g id="node3" class="node"><title>Node2</title>
<a xlink:href="grider8_8cpp.html#adf34126e40458873ce6c6e9dd5cdbaab" target="_top" xlink:title="TheStepBox">
<polygon fill="white" stroke="black" points="182.5,-206 182.5,-230 253.5,-230 253.5,-206 182.5,-206"/>
<text text-anchor="middle" x="218" y="-217" font-family="Helvetica,sans-Serif" font-size="10.00">TheStepBox</text>
</a>
</g>
<!-- Node1&#45;&gt;Node2 -->
<g id="edge2" class="edge"><title>Node1&#45;&gt;Node2</title>
<path fill="none" stroke="midnightblue" d="M75.5358,-136.17C93.2532,-152.725 120.702,-176.378 148,-192 158.689,-198.117 171.085,-203.275 182.448,-207.343"/>
<polygon fill="midnightblue" stroke="midnightblue" points="77.7753,-133.47 68.1157,-129.117 72.9528,-138.544 77.7753,-133.47"/>
</g>
<!-- Node9 -->
<g id="node18" class="node"><title>Node9</title>
<a xlink:href="grider8_8cpp.html#aa19f8422b692ed5ac7b03a322aed9ef9" target="_top" xlink:title="GlobalGridViewer">
<polygon fill="white" stroke="black" points="329,-145 329,-169 421,-169 421,-145 329,-145"/>
<text text-anchor="middle" x="375" y="-156" font-family="Helvetica,sans-Serif" font-size="10.00">GlobalGridViewer</text>
</a>
</g>
<!-- Node1&#45;&gt;Node9 -->
<g id="edge18" class="edge"><title>Node1&#45;&gt;Node9</title>
<path fill="none" stroke="midnightblue" d="M85.0817,-134.18C102.646,-143.544 125.852,-154.183 148,-159 209.425,-172.358 282.427,-168.294 328.736,-163.333"/>
<polygon fill="midnightblue" stroke="midnightblue" points="86.3953,-130.908 75.9467,-129.154 83.0208,-137.041 86.3953,-130.908"/>
</g>
<!-- Node10 -->
<g id="node21" class="node"><title>Node10</title>
<a xlink:href="i_cat14_8cpp.html#a7426d98eb8f682691db780eb7c04addc" target="_top" xlink:title="Menu_edition_iCat_sliders">
<polygon fill="white" stroke="black" points="152.5,-126 152.5,-150 283.5,-150 283.5,-126 152.5,-126"/>
<text text-anchor="middle" x="218" y="-137" font-family="Helvetica,sans-Serif" font-size="10.00">Menu_edition_iCat_sliders</text>
</a>
</g>
<!-- Node1&#45;&gt;Node10 -->
<g id="edge22" class="edge"><title>Node1&#45;&gt;Node10</title>
<path fill="none" stroke="midnightblue" d="M121.726,-125.52C131.835,-126.83 142.273,-128.184 152.38,-129.494"/>
<polygon fill="midnightblue" stroke="midnightblue" points="122.118,-122.042 111.751,-124.227 121.218,-128.984 122.118,-122.042"/>
</g>
<!-- Node12 -->
<g id="node26" class="node"><title>Node12</title>
<a xlink:href="i_cat14_8cpp.html#a78e4867c9daa670552f0b1c1ccf8e202" target="_top" xlink:title="Menu_edition_iCat_boutons">
<polygon fill="white" stroke="black" points="149.5,-84 149.5,-108 286.5,-108 286.5,-84 149.5,-84"/>
<text text-anchor="middle" x="218" y="-95" font-family="Helvetica,sans-Serif" font-size="10.00">Menu_edition_iCat_boutons</text>
</a>
</g>
<!-- Node1&#45;&gt;Node12 -->
<g id="edge28" class="edge"><title>Node1&#45;&gt;Node12</title>
<path fill="none" stroke="midnightblue" d="M121.823,-108.467C130.865,-107.295 140.168,-106.089 149.261,-104.911"/>
<polygon fill="midnightblue" stroke="midnightblue" points="121.218,-105.016 111.751,-109.773 122.118,-111.958 121.218,-105.016"/>
</g>
<!-- Node13 -->
<g id="node29" class="node"><title>Node13</title>
<a xlink:href="i_cat14_8cpp.html#a764d8450adbc4acf5723d1867f2f9238" target="_top" xlink:title="Menu_edition_iCat_strings">
<polygon fill="white" stroke="black" points="152,-42 152,-66 284,-66 284,-42 152,-42"/>
<text text-anchor="middle" x="218" y="-53" font-family="Helvetica,sans-Serif" font-size="10.00">Menu_edition_iCat_strings</text>
</a>
</g>
<!-- Node1&#45;&gt;Node13 -->
<g id="edge32" class="edge"><title>Node1&#45;&gt;Node13</title>
<path fill="none" stroke="midnightblue" d="M89.3283,-100.45C106.598,-92.2178 128.172,-82.4601 148,-75 156.431,-71.8278 165.57,-68.7998 174.376,-66.0801"/>
<polygon fill="midnightblue" stroke="midnightblue" points="87.7038,-97.3478 80.2152,-104.843 90.7431,-103.654 87.7038,-97.3478"/>
</g>
<!-- Node14 -->
<g id="node32" class="node"><title>Node14</title>
<a xlink:href="i_cat14_8cpp.html#a0b170fa87838ed3b3a31c40d00f980e9" target="_top" xlink:title="Menu_edition_tracking_zone">
<polygon fill="white" stroke="black" points="148,-0 148,-24 288,-24 288,-0 148,-0"/>
<text text-anchor="middle" x="218" y="-11" font-family="Helvetica,sans-Serif" font-size="10.00">Menu_edition_tracking_zone</text>
</a>
</g>
<!-- Node1&#45;&gt;Node14 -->
<g id="edge36" class="edge"><title>Node1&#45;&gt;Node14</title>
<path fill="none" stroke="midnightblue" d="M72.6499,-97.3536C89.7505,-78.3446 118.037,-49.9859 148,-33 154.181,-29.496 161.008,-26.5201 167.901,-24.009"/>
<polygon fill="midnightblue" stroke="midnightblue" points="70.0154,-95.0493 66.0336,-104.867 75.269,-99.6753 70.0154,-95.0493"/>
</g>
<!-- Node3 -->
<g id="node5" class="node"><title>Node3</title>
<a xlink:href="grider8_8cpp.html#af2ccd6607b93f2a83feb55dd4b66c25c" target="_top" xlink:title="Grid_player">
<polygon fill="white" stroke="black" points="342,-187 342,-211 408,-211 408,-187 342,-187"/>
<text text-anchor="middle" x="375" y="-198" font-family="Helvetica,sans-Serif" font-size="10.00">Grid_player</text>
</a>
</g>
<!-- Node2&#45;&gt;Node3 -->
<g id="edge4" class="edge"><title>Node2&#45;&gt;Node3</title>
<path fill="none" stroke="midnightblue" d="M263.635,-212.477C288.685,-209.446 319.185,-205.755 341.928,-203.002"/>
<polygon fill="midnightblue" stroke="midnightblue" points="263.133,-209.012 253.626,-213.689 263.974,-215.962 263.133,-209.012"/>
</g>
<!-- Node8 -->
<g id="node15" class="node"><title>Node8</title>
<a xlink:href="sequentiel__7__visu_8cpp.html#a5f032ba7b767bdb2b20d73c06bacf34b" target="_top" xlink:title="Sequenciel_Window">
<polygon fill="white" stroke="black" points="462.5,-217 462.5,-241 567.5,-241 567.5,-217 462.5,-217"/>
<text text-anchor="middle" x="515" y="-228" font-family="Helvetica,sans-Serif" font-size="10.00">Sequenciel_Window</text>
</a>
</g>
<!-- Node2&#45;&gt;Node8 -->
<g id="edge14" class="edge"><title>Node2&#45;&gt;Node8</title>
<path fill="none" stroke="midnightblue" d="M263.766,-219.695C317.382,-221.681 406.037,-224.964 462.428,-227.053"/>
<polygon fill="midnightblue" stroke="midnightblue" points="263.653,-216.189 253.53,-219.316 263.394,-223.184 263.653,-216.189"/>
</g>
<!-- Node4 -->
<g id="node7" class="node"><title>Node4</title>
<a xlink:href="grider8_8cpp.html#a2272f8103848683416a11f9f5828b595" target="_top" xlink:title="Grider_Box">
<polygon fill="white" stroke="black" points="482.5,-155 482.5,-179 547.5,-179 547.5,-155 482.5,-155"/>
<text text-anchor="middle" x="515" y="-166" font-family="Helvetica,sans-Serif" font-size="10.00">Grider_Box</text>
</a>
</g>
<!-- Node3&#45;&gt;Node4 -->
<g id="edge6" class="edge"><title>Node3&#45;&gt;Node4</title>
<path fill="none" stroke="midnightblue" d="M417.968,-189.179C438.596,-184.464 462.924,-178.903 482.06,-174.529"/>
<polygon fill="midnightblue" stroke="midnightblue" points="417.147,-185.776 408.178,-191.416 418.707,-192.6 417.147,-185.776"/>
</g>
<!-- Node5 -->
<g id="node9" class="node"><title>Node5</title>
<a xlink:href="graphics__rebuild1_8cpp.html#ac2eae1e03fb72cc734ffbcef566483bf" target="_top" xlink:title="Boxes">
<polygon fill="white" stroke="black" points="604,-155 604,-179 648,-179 648,-155 604,-155"/>
<text text-anchor="middle" x="626" y="-166" font-family="Helvetica,sans-Serif" font-size="10.00">Boxes</text>
</a>
</g>
<!-- Node4&#45;&gt;Node5 -->
<g id="edge8" class="edge"><title>Node4&#45;&gt;Node5</title>
<path fill="none" stroke="midnightblue" d="M557.745,-167C573.425,-167 590.543,-167 603.713,-167"/>
<polygon fill="midnightblue" stroke="midnightblue" points="557.703,-163.5 547.703,-167 557.703,-170.5 557.703,-163.5"/>
</g>
<!-- Node6 -->
<g id="node11" class="node"><title>Node6</title>
<a xlink:href="_m_a_i_n__avec__objets_8cpp.html#ade8d4ba65d55c94f8ee277829d722155" target="_top" xlink:title="main_actions_on_screen">
<polygon fill="white" stroke="black" points="684.5,-155 684.5,-179 809.5,-179 809.5,-155 684.5,-155"/>
<text text-anchor="middle" x="747" y="-166" font-family="Helvetica,sans-Serif" font-size="10.00">main_actions_on_screen</text>
</a>
</g>
<!-- Node5&#45;&gt;Node6 -->
<g id="edge10" class="edge"><title>Node5&#45;&gt;Node6</title>
<path fill="none" stroke="midnightblue" d="M658.244,-167C666.32,-167 675.263,-167 684.271,-167"/>
<polygon fill="midnightblue" stroke="midnightblue" points="658.193,-163.5 648.193,-167 658.193,-170.5 658.193,-163.5"/>
</g>
<!-- Node7 -->
<g id="node13" class="node"><title>Node7</title>
<a xlink:href="_m_a_i_n__avec__objets_8cpp.html#ae66f6b31b5ad750f1fe042a706a4e3d4" target="_top" xlink:title="main">
<polygon fill="white" stroke="black" points="846,-155 846,-179 884,-179 884,-155 846,-155"/>
<text text-anchor="middle" x="865" y="-166" font-family="Helvetica,sans-Serif" font-size="10.00">main</text>
</a>
</g>
<!-- Node6&#45;&gt;Node7 -->
<g id="edge12" class="edge"><title>Node6&#45;&gt;Node7</title>
<path fill="none" stroke="midnightblue" d="M819.837,-167C829.336,-167 838.327,-167 845.749,-167"/>
<polygon fill="midnightblue" stroke="midnightblue" points="819.8,-163.5 809.8,-167 819.8,-170.5 819.8,-163.5"/>
</g>
<!-- Node8&#45;&gt;Node5 -->
<g id="edge16" class="edge"><title>Node8&#45;&gt;Node5</title>
<path fill="none" stroke="midnightblue" d="M545.404,-212.018C564.095,-201.578 587.596,-188.451 604.389,-179.071"/>
<polygon fill="midnightblue" stroke="midnightblue" points="543.689,-208.966 536.665,-216.899 547.103,-215.078 543.689,-208.966"/>
</g>
<!-- Node9&#45;&gt;Node4 -->
<g id="edge20" class="edge"><title>Node9&#45;&gt;Node4</title>
<path fill="none" stroke="midnightblue" d="M431.231,-161.017C448.504,-162.25 466.941,-163.567 482.109,-164.651"/>
<polygon fill="midnightblue" stroke="midnightblue" points="431.453,-157.524 421.229,-160.302 430.954,-164.506 431.453,-157.524"/>
</g>
<!-- Node11 -->
<g id="node23" class="node"><title>Node11</title>
<a xlink:href="i_cat14_8cpp.html#a3dd96bb8dc1ec3e640f104b2d2db4065" target="_top" xlink:title="BoxGuiBuilder_iCat">
<polygon fill="white" stroke="black" points="324,-84 324,-108 426,-108 426,-84 324,-84"/>
<text text-anchor="middle" x="375" y="-95" font-family="Helvetica,sans-Serif" font-size="10.00">BoxGuiBuilder_iCat</text>
</a>
</g>
<!-- Node10&#45;&gt;Node11 -->
<g id="edge24" class="edge"><title>Node10&#45;&gt;Node11</title>
<path fill="none" stroke="midnightblue" d="M272.844,-123.328C291.528,-118.33 312.183,-112.804 330.004,-108.037"/>
<polygon fill="midnightblue" stroke="midnightblue" points="271.746,-119.999 262.99,-125.964 273.555,-126.761 271.746,-119.999"/>
</g>
<!-- Node11&#45;&gt;Node5 -->
<g id="edge26" class="edge"><title>Node11&#45;&gt;Node5</title>
<path fill="none" stroke="midnightblue" d="M436.097,-110.272C474.266,-119.571 524.295,-132.459 568,-146 579.968,-149.708 593.112,-154.413 603.856,-158.429"/>
<polygon fill="midnightblue" stroke="midnightblue" points="436.705,-106.818 426.162,-107.867 435.058,-113.621 436.705,-106.818"/>
</g>
<!-- Node12&#45;&gt;Node11 -->
<g id="edge30" class="edge"><title>Node12&#45;&gt;Node11</title>
<path fill="none" stroke="midnightblue" d="M297.047,-96C306.087,-96 315.118,-96 323.659,-96"/>
<polygon fill="midnightblue" stroke="midnightblue" points="296.863,-92.5001 286.862,-96 296.862,-99.5001 296.863,-92.5001"/>
</g>
<!-- Node13&#45;&gt;Node11 -->
<g id="edge34" class="edge"><title>Node13&#45;&gt;Node11</title>
<path fill="none" stroke="midnightblue" d="M272.844,-68.6718C291.528,-73.6699 312.183,-79.1956 330.004,-83.9627"/>
<polygon fill="midnightblue" stroke="midnightblue" points="273.555,-65.2388 262.99,-66.0355 271.746,-72.001 273.555,-65.2388"/>
</g>
<!-- Node14&#45;&gt;Node11 -->
<g id="edge38" class="edge"><title>Node14&#45;&gt;Node11</title>
<path fill="none" stroke="midnightblue" d="M275.434,-27.4918C279.754,-29.1821 283.989,-31.0172 288,-33 316.252,-46.966 345.118,-69.9483 361.475,-83.9561"/>
<polygon fill="midnightblue" stroke="midnightblue" points="276.488,-24.1507 265.894,-24.0213 274.095,-30.7289 276.488,-24.1507"/>
</g>
</g>
</svg>
        <g id="navigator" transform="translate(0 0)" fill="#404254">
                <rect fill="#f2f5e9" fill-opacity="0.5" stroke="#606060" stroke-width=".5" x="0" y="0" width="60" height="60"/>
                <use id="zoomplus" xlink:href="#zoomPlus" x="17" y="9" onmousedown="handleZoom(evt,'in')"/>
                <use id="zoomminus" xlink:href="#zoomMin" x="42" y="9" onmousedown="handleZoom(evt,'out')"/>
                <use id="reset" xlink:href="#resetDef" x="30" y="36" onmousedown="handleReset()"/>
                <g id="arrowUp" xlink:href="#dirArrow" transform="translate(30 24)" onmousedown="handlePan(0,-1)">
                  <use xlink:href="#rim" fill="#404040">
                        <set attributeName="fill" to="#808080" begin="arrowUp.mouseover" end="arrowUp.mouseout"/>
                  </use>
                  <path fill="none" stroke="white" stroke-width="1.5" d="M0,-3.0v7 M-2.5,-0.5L0,-3.0L2.5,-0.5"/>
                </g>
                <g id="arrowRight" xlink:href="#dirArrow" transform="rotate(90) translate(36 -43)" onmousedown="handlePan(1,0)">
                  <use xlink:href="#rim" fill="#404040">
                        <set attributeName="fill" to="#808080" begin="arrowRight.mouseover" end="arrowRight.mouseout"/>
                  </use>
                  <path fill="none" stroke="white" stroke-width="1.5" d="M0,-3.0v7 M-2.5,-0.5L0,-3.0L2.5,-0.5"/>
                </g>
                <g id="arrowDown" xlink:href="#dirArrow" transform="rotate(180) translate(-30 -48)" onmousedown="handlePan(0,1)">
                  <use xlink:href="#rim" fill="#404040">
                        <set attributeName="fill" to="#808080" begin="arrowDown.mouseover" end="arrowDown.mouseout"/>
                  </use>
                  <path fill="none" stroke="white" stroke-width="1.5" d="M0,-3.0v7 M-2.5,-0.5L0,-3.0L2.5,-0.5"/>
                </g>
                <g id="arrowLeft" xlink:href="#dirArrow" transform="rotate(270) translate(-36 17)" onmousedown="handlePan(-1,0)">
                  <use xlink:href="#rim" fill="#404040">
                        <set attributeName="fill" to="#808080" begin="arrowLeft.mouseover" end="arrowLeft.mouseout"/>
                  </use>
                  <path fill="none" stroke="white" stroke-width="1.5" d="M0,-3.0v7 M-2.5,-0.5L0,-3.0L2.5,-0.5"/>
                </g>
        </g>
        <svg viewBox="0 0 15 15" width="100%" height="30px" preserveAspectRatio="xMaxYMin meet">
         <g id="arrow_out" transform="scale(0.3 0.3)">
          <a xlink:href="gui__boutons__rebuild1_8cpp_a602e186310541aea863c7368fef4b3f1_icgraph_org.svg" target="_base">
           <rect id="button" ry="5" rx="5" y="6" x="6" height="38" width="38"
                fill="#f2f5e9" fill-opacity="0.5" stroke="#606060" stroke-width="1.0"/>
           <path id="arrow"
             d="M 11.500037,31.436501 C 11.940474,20.09759 22.043105,11.32322 32.158766,21.979434 L 37.068811,17.246167 C 37.068811,17.246167 37.088388,32 37.088388,32 L 22.160133,31.978069 C 22.160133,31.978069 26.997745,27.140456 26.997745,27.140456 C 18.528582,18.264221 13.291696,25.230495 11.500037,31.436501 z"
             style="fill:#404040;"/>
          </a>
         </g>
        </svg>
</svg>
