<?xml version="1.0" encoding="UTF-8" standalone="no"?>
<!DOCTYPE svg PUBLIC "-//W3C//DTD SVG 1.1//EN"
 "http://www.w3.org/Graphics/SVG/1.1/DTD/svg11.dtd">
<!-- Generated by graphviz version 2.26.3 (20100126.1600)
 -->
<!-- Title: Menu_edition_iCat_boutons Pages: 1 -->
<svg width="600pt" height="32pt"
 viewBox="0.00 0.00 600.00 32.00" xmlns="http://www.w3.org/2000/svg" xmlns:xlink="http://www.w3.org/1999/xlink">
<g id="graph1" class="graph" transform="scale(1 1) rotate(0) translate(4 28)">
<title>Menu_edition_iCat_boutons</title>
<polygon fill="white" stroke="white" points="-4,5 -4,-28 597,-28 597,5 -4,5"/>
<!-- Node1 -->
<g id="node1" class="node"><title>Node1</title>
<polygon fill="#bfbfbf" stroke="black" points="0.5,-0 0.5,-24 137.5,-24 137.5,-0 0.5,-0"/>
<text text-anchor="middle" x="69" y="-11" font-family="Helvetica,sans-Serif" font-size="10.00">Menu_edition_iCat_boutons</text>
</g>
<!-- Node2 -->
<g id="node3" class="node"><title>Node2</title>
<a xlink:href="i_cat14_8cpp.html#a3dd96bb8dc1ec3e640f104b2d2db4065" target="_top" xlink:title="BoxGuiBuilder_iCat">
<polygon fill="white" stroke="black" points="174,-0 174,-24 276,-24 276,-0 174,-0"/>
<text text-anchor="middle" x="225" y="-11" font-family="Helvetica,sans-Serif" font-size="10.00">BoxGuiBuilder_iCat</text>
</a>
</g>
<!-- Node1&#45;&gt;Node2 -->
<g id="edge2" class="edge"><title>Node1&#45;&gt;Node2</title>
<path fill="none" stroke="midnightblue" d="M148.114,-12C156.849,-12 165.566,-12 173.825,-12"/>
<polygon fill="midnightblue" stroke="midnightblue" points="147.878,-8.5001 137.878,-12 147.878,-15.5001 147.878,-8.5001"/>
</g>
<!-- Node3 -->
<g id="node5" class="node"><title>Node3</title>
<a xlink:href="graphics__rebuild1_8cpp.html#ac2eae1e03fb72cc734ffbcef566483bf" target="_top" xlink:title="Boxes">
<polygon fill="white" stroke="black" points="312,-0 312,-24 356,-24 356,-0 312,-0"/>
<text text-anchor="middle" x="334" y="-11" font-family="Helvetica,sans-Serif" font-size="10.00">Boxes</text>
</a>
</g>
<!-- Node2&#45;&gt;Node3 -->
<g id="edge4" class="edge"><title>Node2&#45;&gt;Node3</title>
<path fill="none" stroke="midnightblue" d="M286.542,-12C295.555,-12 304.306,-12 311.788,-12"/>
<polygon fill="midnightblue" stroke="midnightblue" points="286.308,-8.5001 276.308,-12 286.308,-15.5001 286.308,-8.5001"/>
</g>
<!-- Node4 -->
<g id="node7" class="node"><title>Node4</title>
<a xlink:href="_m_a_i_n__avec__objets_8cpp.html#ade8d4ba65d55c94f8ee277829d722155" target="_top" xlink:title="main_actions_on_screen">
<polygon fill="white" stroke="black" points="392.5,-0 392.5,-24 517.5,-24 517.5,-0 392.5,-0"/>
<text text-anchor="middle" x="455" y="-11" font-family="Helvetica,sans-Serif" font-size="10.00">main_actions_on_screen</text>
</a>
</g>
<!-- Node3&#45;&gt;Node4 -->
<g id="edge6" class="edge"><title>Node3&#45;&gt;Node4</title>
<path fill="none" stroke="midnightblue" d="M366.244,-12C374.32,-12 383.263,-12 392.271,-12"/>
<polygon fill="midnightblue" stroke="midnightblue" points="366.193,-8.5001 356.193,-12 366.193,-15.5001 366.193,-8.5001"/>
</g>
<!-- Node5 -->
<g id="node9" class="node"><title>Node5</title>
<a xlink:href="_m_a_i_n__avec__objets_8cpp.html#ae66f6b31b5ad750f1fe042a706a4e3d4" target="_top" xlink:title="main">
<polygon fill="white" stroke="black" points="554,-0 554,-24 592,-24 592,-0 554,-0"/>
<text text-anchor="middle" x="573" y="-11" font-family="Helvetica,sans-Serif" font-size="10.00">main</text>
</a>
</g>
<!-- Node4&#45;&gt;Node5 -->
<g id="edge8" class="edge"><title>Node4&#45;&gt;Node5</title>
<path fill="none" stroke="midnightblue" d="M527.837,-12C537.336,-12 546.327,-12 553.749,-12"/>
<polygon fill="midnightblue" stroke="midnightblue" points="527.8,-8.5001 517.8,-12 527.8,-15.5001 527.8,-8.5001"/>
</g>
</g>
</svg>
