<?xml version="1.0" encoding="UTF-8" standalone="no"?>
<!DOCTYPE svg PUBLIC "-//W3C//DTD SVG 1.1//EN"
 "http://www.w3.org/Graphics/SVG/1.1/DTD/svg11.dtd">
<!-- Generated by graphviz version 2.26.3 (20100126.1600)
 -->
<!-- Title: fermeture_clientserveur_iCat Pages: 1 -->
<svg width="958pt" height="130pt"
 viewBox="0.00 0.00 958.00 130.00" xmlns="http://www.w3.org/2000/svg" xmlns:xlink="http://www.w3.org/1999/xlink">
<g id="graph1" class="graph" transform="scale(1 1) rotate(0) translate(4 126)">
<title>fermeture_clientserveur_iCat</title>
<polygon fill="white" stroke="white" points="-4,5 -4,-126 955,-126 955,5 -4,5"/>
<!-- Node1 -->
<g id="node1" class="node"><title>Node1</title>
<polygon fill="#bfbfbf" stroke="black" points="0,-70 0,-94 142,-94 142,-70 0,-70"/>
<text text-anchor="middle" x="71" y="-81" font-family="Helvetica,sans-Serif" font-size="10.00">fermeture_clientserveur_iCat</text>
</g>
<!-- Node2 -->
<g id="node3" class="node"><title>Node2</title>
<a xlink:href="i_cat14_8cpp.html#a5aa7fe4e46d3895b5ff922cc793d541c" target="_top" xlink:title="BoxiCat">
<polygon fill="white" stroke="black" points="178,-70 178,-94 230,-94 230,-70 178,-70"/>
<text text-anchor="middle" x="204" y="-81" font-family="Helvetica,sans-Serif" font-size="10.00">BoxiCat</text>
</a>
</g>
<!-- Node1&#45;&gt;Node2 -->
<g id="edge2" class="edge"><title>Node1&#45;&gt;Node2</title>
<path fill="none" stroke="midnightblue" d="M152.227,-82C161.384,-82 170.148,-82 177.778,-82"/>
<polygon fill="midnightblue" stroke="midnightblue" points="152.172,-78.5001 142.172,-82 152.172,-85.5001 152.172,-78.5001"/>
</g>
<!-- Node8 -->
<g id="node15" class="node"><title>Node8</title>
<a xlink:href="_m_a_i_n__avec__objets_8cpp.html#ae66f6b31b5ad750f1fe042a706a4e3d4" target="_top" xlink:title="main">
<polygon fill="white" stroke="black" points="912,-49 912,-73 950,-73 950,-49 912,-49"/>
<text text-anchor="middle" x="931" y="-60" font-family="Helvetica,sans-Serif" font-size="10.00">main</text>
</a>
</g>
<!-- Node1&#45;&gt;Node8 -->
<g id="edge24" class="edge"><title>Node1&#45;&gt;Node8</title>
<path fill="none" stroke="midnightblue" d="M126.305,-96.3293C175.486,-107.807 249.54,-122 315,-122 315,-122 315,-122 692,-122 776.148,-122 871.929,-86.0603 911.906,-69.3539"/>
<polygon fill="midnightblue" stroke="midnightblue" points="127.044,-92.9074 116.505,-94.0013 125.426,-99.7178 127.044,-92.9074"/>
</g>
<!-- Node9 -->
<g id="node17" class="node"><title>Node9</title>
<a xlink:href="_m_a_i_n__avec__objets_8cpp.html#a6a015280c1363331ada8a329be6eb7c8" target="_top" xlink:title="ticker">
<polygon fill="white" stroke="black" points="183.5,-28 183.5,-52 224.5,-52 224.5,-28 183.5,-28"/>
<text text-anchor="middle" x="204" y="-39" font-family="Helvetica,sans-Serif" font-size="10.00">ticker</text>
</a>
</g>
<!-- Node1&#45;&gt;Node9 -->
<g id="edge16" class="edge"><title>Node1&#45;&gt;Node9</title>
<path fill="none" stroke="midnightblue" d="M118.703,-66.9358C140.835,-59.947 165.992,-52.0025 183.218,-46.5629"/>
<polygon fill="midnightblue" stroke="midnightblue" points="117.594,-63.6156 109.112,-69.9645 119.702,-70.2906 117.594,-63.6156"/>
</g>
<!-- Node3 -->
<g id="node5" class="node"><title>Node3</title>
<a xlink:href="_c_f_g__config__panel__8_8cpp.html#abeed1d561a8752f4dcf1f8e84086660e" target="_top" xlink:title="do_network_config">
<polygon fill="white" stroke="black" points="266,-70 266,-94 364,-94 364,-70 266,-70"/>
<text text-anchor="middle" x="315" y="-81" font-family="Helvetica,sans-Serif" font-size="10.00">do_network_config</text>
</a>
</g>
<!-- Node2&#45;&gt;Node3 -->
<g id="edge4" class="edge"><title>Node2&#45;&gt;Node3</title>
<path fill="none" stroke="midnightblue" d="M240.245,-82C248.346,-82 257.072,-82 265.603,-82"/>
<polygon fill="midnightblue" stroke="midnightblue" points="240.025,-78.5001 230.025,-82 240.025,-85.5001 240.025,-78.5001"/>
</g>
<!-- Node4 -->
<g id="node7" class="node"><title>Node4</title>
<a xlink:href="_c_f_g__config__panel__8_8cpp.html#ad39c46e2fb3a3ba7ea0460140ead4f96" target="_top" xlink:title="do_panel_config">
<polygon fill="white" stroke="black" points="400.5,-49 400.5,-73 487.5,-73 487.5,-49 400.5,-49"/>
<text text-anchor="middle" x="444" y="-60" font-family="Helvetica,sans-Serif" font-size="10.00">do_panel_config</text>
</a>
</g>
<!-- Node3&#45;&gt;Node4 -->
<g id="edge6" class="edge"><title>Node3&#45;&gt;Node4</title>
<path fill="none" stroke="midnightblue" d="M374.081,-72.3821C382.973,-70.9346 392.003,-69.4646 400.489,-68.0831"/>
<polygon fill="midnightblue" stroke="midnightblue" points="373.445,-68.9395 364.137,-74.0009 374.57,-75.8486 373.445,-68.9395"/>
</g>
<!-- Node5 -->
<g id="node9" class="node"><title>Node5</title>
<a xlink:href="_c_f_g__config__panel__8_8cpp.html#a7968da66bccdba8b864caf6c8435f68e" target="_top" xlink:title="config_general_menu">
<polygon fill="white" stroke="black" points="524.5,-49 524.5,-73 633.5,-73 633.5,-49 524.5,-49"/>
<text text-anchor="middle" x="579" y="-60" font-family="Helvetica,sans-Serif" font-size="10.00">config_general_menu</text>
</a>
</g>
<!-- Node4&#45;&gt;Node5 -->
<g id="edge8" class="edge"><title>Node4&#45;&gt;Node5</title>
<path fill="none" stroke="midnightblue" d="M498.072,-61C506.621,-61 515.471,-61 524.04,-61"/>
<polygon fill="midnightblue" stroke="midnightblue" points="497.831,-57.5001 487.831,-61 497.831,-64.5001 497.831,-57.5001"/>
</g>
<!-- Node6 -->
<g id="node11" class="node"><title>Node6</title>
<a xlink:href="graphics__rebuild1_8cpp.html#ac2eae1e03fb72cc734ffbcef566483bf" target="_top" xlink:title="Boxes">
<polygon fill="white" stroke="black" points="670,-49 670,-73 714,-73 714,-49 670,-49"/>
<text text-anchor="middle" x="692" y="-60" font-family="Helvetica,sans-Serif" font-size="10.00">Boxes</text>
</a>
</g>
<!-- Node5&#45;&gt;Node6 -->
<g id="edge10" class="edge"><title>Node5&#45;&gt;Node6</title>
<path fill="none" stroke="midnightblue" d="M643.747,-61C653.112,-61 662.168,-61 669.856,-61"/>
<polygon fill="midnightblue" stroke="midnightblue" points="643.514,-57.5001 633.514,-61 643.514,-64.5001 643.514,-57.5001"/>
</g>
<!-- Node7 -->
<g id="node13" class="node"><title>Node7</title>
<a xlink:href="_m_a_i_n__avec__objets_8cpp.html#ade8d4ba65d55c94f8ee277829d722155" target="_top" xlink:title="main_actions_on_screen">
<polygon fill="white" stroke="black" points="750.5,-49 750.5,-73 875.5,-73 875.5,-49 750.5,-49"/>
<text text-anchor="middle" x="813" y="-60" font-family="Helvetica,sans-Serif" font-size="10.00">main_actions_on_screen</text>
</a>
</g>
<!-- Node6&#45;&gt;Node7 -->
<g id="edge12" class="edge"><title>Node6&#45;&gt;Node7</title>
<path fill="none" stroke="midnightblue" d="M724.244,-61C732.32,-61 741.263,-61 750.271,-61"/>
<polygon fill="midnightblue" stroke="midnightblue" points="724.193,-57.5001 714.193,-61 724.193,-64.5001 724.193,-57.5001"/>
</g>
<!-- Node7&#45;&gt;Node8 -->
<g id="edge14" class="edge"><title>Node7&#45;&gt;Node8</title>
<path fill="none" stroke="midnightblue" d="M885.837,-61C895.336,-61 904.327,-61 911.749,-61"/>
<polygon fill="midnightblue" stroke="midnightblue" points="885.8,-57.5001 875.8,-61 885.8,-64.5001 885.8,-57.5001"/>
</g>
<!-- Node9&#45;&gt;Node8 -->
<g id="edge22" class="edge"><title>Node9&#45;&gt;Node8</title>
<path fill="none" stroke="midnightblue" d="M234.132,-28.3082C244.14,-24.8269 255.428,-21.3249 266,-19 343.704,-1.91249 364.439,-4.87168e-15 444,-0 444,-0 444,-0 692,-0 776.148,-7.10543e-15 871.929,-35.9397 911.906,-52.6461"/>
<polygon fill="midnightblue" stroke="midnightblue" points="232.844,-25.0521 224.625,-31.7383 235.22,-31.6366 232.844,-25.0521"/>
</g>
<!-- Node10 -->
<g id="node19" class="node"><title>Node10</title>
<a xlink:href="_c_f_g__config__panel__8_8cpp.html#aff76db94408106be22f658a05f17831a" target="_top" xlink:title="do_core_config">
<polygon fill="white" stroke="black" points="273.5,-28 273.5,-52 356.5,-52 356.5,-28 273.5,-28"/>
<text text-anchor="middle" x="315" y="-39" font-family="Helvetica,sans-Serif" font-size="10.00">do_core_config</text>
</a>
</g>
<!-- Node9&#45;&gt;Node10 -->
<g id="edge18" class="edge"><title>Node9&#45;&gt;Node10</title>
<path fill="none" stroke="midnightblue" d="M234.926,-40C246.82,-40 260.6,-40 273.341,-40"/>
<polygon fill="midnightblue" stroke="midnightblue" points="234.618,-36.5001 224.618,-40 234.618,-43.5001 234.618,-36.5001"/>
</g>
<!-- Node10&#45;&gt;Node4 -->
<g id="edge20" class="edge"><title>Node10&#45;&gt;Node4</title>
<path fill="none" stroke="midnightblue" d="M366.599,-48.3998C377.776,-50.2194 389.492,-52.1266 400.329,-53.8908"/>
<polygon fill="midnightblue" stroke="midnightblue" points="366.959,-44.9124 356.526,-46.7601 365.834,-51.8215 366.959,-44.9124"/>
</g>
</g>
</svg>
