<?xml version="1.0" encoding="UTF-8" standalone="no"?>
<!DOCTYPE svg PUBLIC "-//W3C//DTD SVG 1.1//EN"
 "http://www.w3.org/Graphics/SVG/1.1/DTD/svg11.dtd">
<!-- Generated by graphviz version 2.26.3 (20100126.1600)
 -->
<!-- Title: Menu_edition_tracking_zone Pages: 1 -->
<svg width="602pt" height="32pt"
 viewBox="0.00 0.00 602.00 32.00" xmlns="http://www.w3.org/2000/svg" xmlns:xlink="http://www.w3.org/1999/xlink">
<g id="graph1" class="graph" transform="scale(1 1) rotate(0) translate(4 28)">
<title>Menu_edition_tracking_zone</title>
<polygon fill="white" stroke="white" points="-4,5 -4,-28 599,-28 599,5 -4,5"/>
<!-- Node1 -->
<g id="node1" class="node"><title>Node1</title>
<polygon fill="#bfbfbf" stroke="black" points="0,-0 0,-24 140,-24 140,-0 0,-0"/>
<text text-anchor="middle" x="70" y="-11" font-family="Helvetica,sans-Serif" font-size="10.00">Menu_edition_tracking_zone</text>
</g>
<!-- Node2 -->
<g id="node3" class="node"><title>Node2</title>
<a xlink:href="i_cat14_8cpp.html#a3dd96bb8dc1ec3e640f104b2d2db4065" target="_top" xlink:title="BoxGuiBuilder_iCat">
<polygon fill="white" stroke="black" points="176,-0 176,-24 278,-24 278,-0 176,-0"/>
<text text-anchor="middle" x="227" y="-11" font-family="Helvetica,sans-Serif" font-size="10.00">BoxGuiBuilder_iCat</text>
</a>
</g>
<!-- Node1&#45;&gt;Node2 -->
<g id="edge2" class="edge"><title>Node1&#45;&gt;Node2</title>
<path fill="none" stroke="midnightblue" d="M150.328,-12C158.936,-12 167.515,-12 175.65,-12"/>
<polygon fill="midnightblue" stroke="midnightblue" points="150.234,-8.5001 140.234,-12 150.234,-15.5001 150.234,-8.5001"/>
</g>
<!-- Node3 -->
<g id="node5" class="node"><title>Node3</title>
<a xlink:href="graphics__rebuild1_8cpp.html#ac2eae1e03fb72cc734ffbcef566483bf" target="_top" xlink:title="Boxes">
<polygon fill="white" stroke="black" points="314,-0 314,-24 358,-24 358,-0 314,-0"/>
<text text-anchor="middle" x="336" y="-11" font-family="Helvetica,sans-Serif" font-size="10.00">Boxes</text>
</a>
</g>
<!-- Node2&#45;&gt;Node3 -->
<g id="edge4" class="edge"><title>Node2&#45;&gt;Node3</title>
<path fill="none" stroke="midnightblue" d="M288.542,-12C297.555,-12 306.306,-12 313.788,-12"/>
<polygon fill="midnightblue" stroke="midnightblue" points="288.308,-8.5001 278.308,-12 288.308,-15.5001 288.308,-8.5001"/>
</g>
<!-- Node4 -->
<g id="node7" class="node"><title>Node4</title>
<a xlink:href="_m_a_i_n__avec__objets_8cpp.html#ade8d4ba65d55c94f8ee277829d722155" target="_top" xlink:title="main_actions_on_screen">
<polygon fill="white" stroke="black" points="394.5,-0 394.5,-24 519.5,-24 519.5,-0 394.5,-0"/>
<text text-anchor="middle" x="457" y="-11" font-family="Helvetica,sans-Serif" font-size="10.00">main_actions_on_screen</text>
</a>
</g>
<!-- Node3&#45;&gt;Node4 -->
<g id="edge6" class="edge"><title>Node3&#45;&gt;Node4</title>
<path fill="none" stroke="midnightblue" d="M368.244,-12C376.32,-12 385.263,-12 394.271,-12"/>
<polygon fill="midnightblue" stroke="midnightblue" points="368.193,-8.5001 358.193,-12 368.193,-15.5001 368.193,-8.5001"/>
</g>
<!-- Node5 -->
<g id="node9" class="node"><title>Node5</title>
<a xlink:href="_m_a_i_n__avec__objets_8cpp.html#ae66f6b31b5ad750f1fe042a706a4e3d4" target="_top" xlink:title="main">
<polygon fill="white" stroke="black" points="556,-0 556,-24 594,-24 594,-0 556,-0"/>
<text text-anchor="middle" x="575" y="-11" font-family="Helvetica,sans-Serif" font-size="10.00">main</text>
</a>
</g>
<!-- Node4&#45;&gt;Node5 -->
<g id="edge8" class="edge"><title>Node4&#45;&gt;Node5</title>
<path fill="none" stroke="midnightblue" d="M529.837,-12C539.336,-12 548.327,-12 555.749,-12"/>
<polygon fill="midnightblue" stroke="midnightblue" points="529.8,-8.5001 519.8,-12 529.8,-15.5001 529.8,-8.5001"/>
</g>
</g>
</svg>
