<?xml version="1.0" encoding="UTF-8" standalone="no"?>
<!DOCTYPE svg PUBLIC "-//W3C//DTD SVG 1.1//EN"
 "http://www.w3.org/Graphics/SVG/1.1/DTD/svg11.dtd">
<!-- Generated by graphviz version 2.26.3 (20100126.1600)
 -->
<!-- Title: check_tracker_zone Pages: 1 -->
<svg width="416pt" height="164pt"
 viewBox="0.00 0.00 416.00 164.00" xmlns="http://www.w3.org/2000/svg" xmlns:xlink="http://www.w3.org/1999/xlink">
<g id="graph1" class="graph" transform="scale(1 1) rotate(0) translate(4 160)">
<title>check_tracker_zone</title>
<polygon fill="white" stroke="white" points="-4,5 -4,-160 413,-160 413,5 -4,5"/>
<!-- Node1 -->
<g id="node1" class="node"><title>Node1</title>
<polygon fill="#bfbfbf" stroke="black" points="0,-66 0,-90 104,-90 104,-66 0,-66"/>
<text text-anchor="middle" x="52" y="-77" font-family="Helvetica,sans-Serif" font-size="10.00">check_tracker_zone</text>
</g>
<!-- Node2 -->
<g id="node3" class="node"><title>Node2</title>
<a xlink:href="_c_o_r_e__6_8cpp.html#aef30e64107a2c00a305094e218631bcd" target="_top" xlink:title="constrain_data_to_dmx\l_range">
<polygon fill="white" stroke="black" points="144,-116 144,-156 262,-156 262,-116 144,-116"/>
<text text-anchor="start" x="152" y="-143" font-family="Helvetica,sans-Serif" font-size="10.00">constrain_data_to_dmx</text>
<text text-anchor="middle" x="203" y="-127" font-family="Helvetica,sans-Serif" font-size="10.00">_range</text>
</a>
</g>
<!-- Node1&#45;&gt;Node2 -->
<g id="edge2" class="edge"><title>Node1&#45;&gt;Node2</title>
<path fill="none" stroke="midnightblue" d="M83.2873,-90.0176C100.066,-96.4626 121.344,-104.635 141.292,-112.297"/>
<polygon fill="midnightblue" stroke="midnightblue" points="140.056,-115.572 150.646,-115.891 142.566,-109.038 140.056,-115.572"/>
</g>
<!-- Node3 -->
<g id="node5" class="node"><title>Node3</title>
<a xlink:href="_c_o_r_e__6_8cpp.html#a5615f7c8a54ba9a586dd910ec1ae5e43" target="_top" xlink:title="constrain_int_data\l_to_this_range">
<polygon fill="white" stroke="black" points="155,-58 155,-98 251,-98 251,-58 155,-58"/>
<text text-anchor="start" x="163" y="-85" font-family="Helvetica,sans-Serif" font-size="10.00">constrain_int_data</text>
<text text-anchor="middle" x="203" y="-69" font-family="Helvetica,sans-Serif" font-size="10.00">_to_this_range</text>
</a>
</g>
<!-- Node1&#45;&gt;Node3 -->
<g id="edge4" class="edge"><title>Node1&#45;&gt;Node3</title>
<path fill="none" stroke="midnightblue" d="M104.389,-78C117.294,-78 131.195,-78 144.374,-78"/>
<polygon fill="midnightblue" stroke="midnightblue" points="144.756,-81.5001 154.756,-78 144.756,-74.5001 144.756,-81.5001"/>
</g>
<!-- Node4 -->
<g id="node7" class="node"><title>Node4</title>
<a xlink:href="_c_o_r_e__6_8cpp.html#a6d513b9eb6707de11e0d82ed79097b19" target="_top" xlink:title="Draw_point_and_perform\l_level_on_area_NEW">
<polygon fill="white" stroke="black" points="140.5,-0 140.5,-40 265.5,-40 265.5,-0 140.5,-0"/>
<text text-anchor="start" x="148.5" y="-27" font-family="Helvetica,sans-Serif" font-size="10.00">Draw_point_and_perform</text>
<text text-anchor="middle" x="203" y="-11" font-family="Helvetica,sans-Serif" font-size="10.00">_level_on_area_NEW</text>
</a>
</g>
<!-- Node1&#45;&gt;Node4 -->
<g id="edge6" class="edge"><title>Node1&#45;&gt;Node4</title>
<path fill="none" stroke="midnightblue" d="M83.2873,-65.9824C100.066,-59.5374 121.344,-51.3646 141.292,-43.7025"/>
<polygon fill="midnightblue" stroke="midnightblue" points="142.566,-46.9625 150.646,-40.1095 140.056,-40.4279 142.566,-46.9625"/>
</g>
<!-- Node5 -->
<g id="node9" class="node"><title>Node5</title>
<a xlink:href="_c_o_r_e__6_8cpp.html#a852678868d2a66db68f4a2c9eacfcc78" target="_top" xlink:title="reset_numeric_entry">
<polygon fill="white" stroke="black" points="302.5,-8 302.5,-32 407.5,-32 407.5,-8 302.5,-8"/>
<text text-anchor="middle" x="355" y="-19" font-family="Helvetica,sans-Serif" font-size="10.00">reset_numeric_entry</text>
</a>
</g>
<!-- Node4&#45;&gt;Node5 -->
<g id="edge8" class="edge"><title>Node4&#45;&gt;Node5</title>
<path fill="none" stroke="midnightblue" d="M265.702,-20C274.401,-20 283.34,-20 292.044,-20"/>
<polygon fill="midnightblue" stroke="midnightblue" points="292.125,-23.5001 302.124,-20 292.124,-16.5001 292.125,-23.5001"/>
</g>
</g>
</svg>
