<?xml version="1.0" encoding="UTF-8" standalone="no"?>
<!DOCTYPE svg PUBLIC "-//W3C//DTD SVG 1.1//EN"
 "http://www.w3.org/Graphics/SVG/1.1/DTD/svg11.dtd">
<!-- Generated by graphviz version 2.26.3 (20100126.1600)
 -->
<!-- Title: Menu_edition_iCat_sliders Pages: 1 -->
<svg width="288pt" height="326pt"
 viewBox="0.00 0.00 288.00 326.00" xmlns="http://www.w3.org/2000/svg" xmlns:xlink="http://www.w3.org/1999/xlink">
<g id="graph1" class="graph" transform="scale(1 1) rotate(0) translate(4 322)">
<title>Menu_edition_iCat_sliders</title>
<polygon fill="white" stroke="white" points="-4,5 -4,-322 285,-322 285,5 -4,5"/>
<!-- Node1 -->
<g id="node1" class="node"><title>Node1</title>
<polygon fill="#bfbfbf" stroke="black" points="0.5,-147 0.5,-171 131.5,-171 131.5,-147 0.5,-147"/>
<text text-anchor="middle" x="66" y="-158" font-family="Helvetica,sans-Serif" font-size="10.00">Menu_edition_iCat_sliders</text>
</g>
<!-- Node2 -->
<g id="node3" class="node"><title>Node2</title>
<a xlink:href="gui__boutons__rebuild1_8cpp.html#a602e186310541aea863c7368fef4b3f1" target="_top" xlink:title="previous_button_view">
<polygon fill="white" stroke="black" points="168.5,-294 168.5,-318 279.5,-318 279.5,-294 168.5,-294"/>
<text text-anchor="middle" x="224" y="-305" font-family="Helvetica,sans-Serif" font-size="10.00">previous_button_view</text>
</a>
</g>
<!-- Node1&#45;&gt;Node2 -->
<g id="edge2" class="edge"><title>Node1&#45;&gt;Node2</title>
<path fill="none" stroke="midnightblue" d="M72.808,-171.204C87.2327,-196.022 123.25,-252.746 168,-285 170.101,-286.514 172.323,-287.932 174.624,-289.259"/>
<polygon fill="midnightblue" stroke="midnightblue" points="173.297,-292.511 183.796,-293.933 176.476,-286.274 173.297,-292.511"/>
</g>
<!-- Node3 -->
<g id="node5" class="node"><title>Node3</title>
<a xlink:href="gui__boutons__rebuild1_8cpp.html#a25048f0a097129c29226ec04caae26a5" target="_top" xlink:title="next_button_view">
<polygon fill="white" stroke="black" points="177.5,-252 177.5,-276 270.5,-276 270.5,-252 177.5,-252"/>
<text text-anchor="middle" x="224" y="-263" font-family="Helvetica,sans-Serif" font-size="10.00">next_button_view</text>
</a>
</g>
<!-- Node1&#45;&gt;Node3 -->
<g id="edge4" class="edge"><title>Node1&#45;&gt;Node3</title>
<path fill="none" stroke="midnightblue" d="M77.8766,-171.057C95.9441,-188.839 132.046,-222.23 168,-243 170.967,-244.714 174.1,-246.335 177.306,-247.859"/>
<polygon fill="midnightblue" stroke="midnightblue" points="175.898,-251.063 186.46,-251.891 178.719,-244.657 175.898,-251.063"/>
</g>
<!-- Node4 -->
<g id="node7" class="node"><title>Node4</title>
<a xlink:href="gui__boutons__rebuild1_8cpp.html#aabe7e4ca1f83ca56984eb02767aece7d" target="_top" xlink:title="case_moins_view">
<polygon fill="white" stroke="black" points="176.5,-210 176.5,-234 271.5,-234 271.5,-210 176.5,-210"/>
<text text-anchor="middle" x="224" y="-221" font-family="Helvetica,sans-Serif" font-size="10.00">case_moins_view</text>
</a>
</g>
<!-- Node1&#45;&gt;Node4 -->
<g id="edge6" class="edge"><title>Node1&#45;&gt;Node4</title>
<path fill="none" stroke="midnightblue" d="M94.4801,-171.011C114.883,-179.546 143.049,-191.188 168,-201 172.475,-202.76 177.164,-204.57 181.842,-206.355"/>
<polygon fill="midnightblue" stroke="midnightblue" points="180.768,-209.691 191.36,-209.96 183.248,-203.145 180.768,-209.691"/>
</g>
<!-- Node5 -->
<g id="node9" class="node"><title>Node5</title>
<a xlink:href="gui__boutons__rebuild1_8cpp.html#a61fe50bce3e45b6ebb295ba656a05b9f" target="_top" xlink:title="case_plus_view">
<polygon fill="white" stroke="black" points="181,-168 181,-192 267,-192 267,-168 181,-168"/>
<text text-anchor="middle" x="224" y="-179" font-family="Helvetica,sans-Serif" font-size="10.00">case_plus_view</text>
</a>
</g>
<!-- Node1&#45;&gt;Node5 -->
<g id="edge8" class="edge"><title>Node1&#45;&gt;Node5</title>
<path fill="none" stroke="midnightblue" d="M131.634,-167.723C144.616,-169.449 158.095,-171.241 170.612,-172.904"/>
<polygon fill="midnightblue" stroke="midnightblue" points="170.494,-176.419 180.868,-174.267 171.417,-169.48 170.494,-176.419"/>
</g>
<!-- Node6 -->
<g id="node11" class="node"><title>Node6</title>
<a xlink:href="gui__boutons__rebuild1_8cpp.html#ab21a3bdb57480d3c80b64c2da8ba3d0e" target="_top" xlink:title="pulse_bar_view">
<polygon fill="white" stroke="black" points="182,-126 182,-150 266,-150 266,-126 182,-126"/>
<text text-anchor="middle" x="224" y="-137" font-family="Helvetica,sans-Serif" font-size="10.00">pulse_bar_view</text>
</a>
</g>
<!-- Node1&#45;&gt;Node6 -->
<g id="edge10" class="edge"><title>Node1&#45;&gt;Node6</title>
<path fill="none" stroke="midnightblue" d="M131.634,-150.277C145.014,-148.498 158.921,-146.65 171.759,-144.943"/>
<polygon fill="midnightblue" stroke="midnightblue" points="172.343,-148.397 181.795,-143.61 171.421,-141.458 172.343,-148.397"/>
</g>
<!-- Node7 -->
<g id="node13" class="node"><title>Node7</title>
<a xlink:href="gui__boutons__rebuild1_8cpp.html#ab0ea33493c26853e0c8a8d19042043dc" target="_top" xlink:title="toggling_bar_view">
<polygon fill="white" stroke="black" points="176.5,-84 176.5,-108 271.5,-108 271.5,-84 176.5,-84"/>
<text text-anchor="middle" x="224" y="-95" font-family="Helvetica,sans-Serif" font-size="10.00">toggling_bar_view</text>
</a>
</g>
<!-- Node1&#45;&gt;Node7 -->
<g id="edge12" class="edge"><title>Node1&#45;&gt;Node7</title>
<path fill="none" stroke="midnightblue" d="M94.4801,-146.989C114.883,-138.454 143.049,-126.812 168,-117 172.475,-115.24 177.164,-113.43 181.842,-111.645"/>
<polygon fill="midnightblue" stroke="midnightblue" points="183.248,-114.855 191.36,-108.04 180.768,-108.309 183.248,-114.855"/>
</g>
<!-- Node8 -->
<g id="node15" class="node"><title>Node8</title>
<a xlink:href="_c_o_r_e__6_8cpp.html#a9574e0b790211959c7398e42468410d8" target="_top" xlink:title="toggle">
<polygon fill="white" stroke="black" points="202.5,-42 202.5,-66 245.5,-66 245.5,-42 202.5,-42"/>
<text text-anchor="middle" x="224" y="-53" font-family="Helvetica,sans-Serif" font-size="10.00">toggle</text>
</a>
</g>
<!-- Node1&#45;&gt;Node8 -->
<g id="edge14" class="edge"><title>Node1&#45;&gt;Node8</title>
<path fill="none" stroke="midnightblue" d="M77.8766,-146.943C95.9441,-129.161 132.046,-95.7699 168,-75 175.69,-70.5576 184.493,-66.7395 192.806,-63.6244"/>
<polygon fill="midnightblue" stroke="midnightblue" points="193.978,-66.9224 202.244,-60.2952 191.649,-60.321 193.978,-66.9224"/>
</g>
<!-- Node9 -->
<g id="node17" class="node"><title>Node9</title>
<a xlink:href="_c_o_r_e__6_8cpp.html#a852678868d2a66db68f4a2c9eacfcc78" target="_top" xlink:title="reset_numeric_entry">
<polygon fill="white" stroke="black" points="171.5,-0 171.5,-24 276.5,-24 276.5,-0 171.5,-0"/>
<text text-anchor="middle" x="224" y="-11" font-family="Helvetica,sans-Serif" font-size="10.00">reset_numeric_entry</text>
</a>
</g>
<!-- Node1&#45;&gt;Node9 -->
<g id="edge16" class="edge"><title>Node1&#45;&gt;Node9</title>
<path fill="none" stroke="midnightblue" d="M72.808,-146.796C87.2327,-121.978 123.25,-65.2543 168,-33 170.101,-31.486 172.323,-30.0677 174.624,-28.7408"/>
<polygon fill="midnightblue" stroke="midnightblue" points="176.476,-31.7258 183.796,-24.067 173.297,-25.4889 176.476,-31.7258"/>
</g>
</g>
</svg>
