<?xml version="1.0" encoding="UTF-8" standalone="no"?>
<!DOCTYPE svg PUBLIC "-//W3C//DTD SVG 1.1//EN"
 "http://www.w3.org/Graphics/SVG/1.1/DTD/svg11.dtd">
<!-- Generated by graphviz version 2.26.3 (20100126.1600)
 -->
<!-- Title: do_refresh_iCat Pages: 1 -->
<svg width="1190pt" height="402pt"
 viewBox="0.00 0.00 1190.00 401.73" xmlns="http://www.w3.org/2000/svg" xmlns:xlink="http://www.w3.org/1999/xlink">
<g id="graph1" class="graph" transform="scale(1 1) rotate(0) translate(4 397.732)">
<title>do_refresh_iCat</title>
<polygon fill="white" stroke="white" points="-4,5 -4,-397.732 1187,-397.732 1187,5 -4,5"/>
<!-- Node1 -->
<g id="node1" class="node"><title>Node1</title>
<polygon fill="#bfbfbf" stroke="black" points="0,-169 0,-193 86,-193 86,-169 0,-169"/>
<text text-anchor="middle" x="43" y="-180" font-family="Helvetica,sans-Serif" font-size="10.00">do_refresh_iCat</text>
</g>
<!-- Node2 -->
<g id="node3" class="node"><title>Node2</title>
<a xlink:href="banger__core__8_8cpp.html#ae4008269e0575da11cc90e812961ef6f" target="_top" xlink:title="Bang_event">
<polygon fill="white" stroke="black" points="139,-214 139,-238 207,-238 207,-214 139,-214"/>
<text text-anchor="middle" x="173" y="-225" font-family="Helvetica,sans-Serif" font-size="10.00">Bang_event</text>
</a>
</g>
<!-- Node1&#45;&gt;Node2 -->
<g id="edge2" class="edge"><title>Node1&#45;&gt;Node2</title>
<path fill="none" stroke="midnightblue" d="M87.4816,-196.397C104.33,-202.23 123.228,-208.771 138.966,-214.219"/>
<polygon fill="midnightblue" stroke="midnightblue" points="88.4324,-193.023 77.8376,-193.059 86.1426,-199.638 88.4324,-193.023"/>
</g>
<!-- Node5 -->
<g id="node9" class="node"><title>Node5</title>
<a xlink:href="_m_a_i_n__avec__objets_8cpp.html#ae66f6b31b5ad750f1fe042a706a4e3d4" target="_top" xlink:title="main">
<polygon fill="white" stroke="black" points="1144,-75 1144,-99 1182,-99 1182,-75 1144,-75"/>
<text text-anchor="middle" x="1163" y="-86" font-family="Helvetica,sans-Serif" font-size="10.00">main</text>
</a>
</g>
<!-- Node1&#45;&gt;Node5 -->
<g id="edge68" class="edge"><title>Node1&#45;&gt;Node5</title>
<path fill="none" stroke="midnightblue" d="M64.4669,-162.26C107.734,-126.488 209.854,-52 310,-52 310,-52 310,-52 891,-52 986.699,-52 1099.8,-73.5765 1143.98,-82.8476"/>
<polygon fill="midnightblue" stroke="midnightblue" points="62.0154,-159.748 56.6163,-168.864 66.5218,-165.105 62.0154,-159.748"/>
</g>
<!-- Node9 -->
<g id="node18" class="node"><title>Node9</title>
<a xlink:href="i_cat14_8cpp.html#a16285241f82898e7a5f051b03d90b9a3" target="_top" xlink:title="check_button">
<polygon fill="white" stroke="black" points="415.5,-80 415.5,-104 490.5,-104 490.5,-80 415.5,-80"/>
<text text-anchor="middle" x="453" y="-91" font-family="Helvetica,sans-Serif" font-size="10.00">check_button</text>
</a>
</g>
<!-- Node1&#45;&gt;Node9 -->
<g id="edge64" class="edge"><title>Node1&#45;&gt;Node9</title>
<path fill="none" stroke="midnightblue" d="M95.9553,-169.505C180.007,-151.259 341.931,-116.11 415.266,-100.191"/>
<polygon fill="midnightblue" stroke="midnightblue" points="95.1322,-166.102 86.1023,-171.644 96.6172,-172.943 95.1322,-166.102"/>
</g>
<!-- Node14 -->
<g id="node31" class="node"><title>Node14</title>
<a xlink:href="midi__13_8cpp.html#a6dff3d42682b58cc0a9875ee30fb4cd4" target="_top" xlink:title="do_midi_job">
<polygon fill="white" stroke="black" points="419,-340 419,-364 487,-364 487,-340 419,-340"/>
<text text-anchor="middle" x="453" y="-351" font-family="Helvetica,sans-Serif" font-size="10.00">do_midi_job</text>
</a>
</g>
<!-- Node1&#45;&gt;Node14 -->
<g id="edge70" class="edge"><title>Node1&#45;&gt;Node14</title>
<path fill="none" stroke="midnightblue" d="M62.7027,-199.912C98.5423,-232.941 178.279,-300.26 260,-328 313.555,-346.179 379.652,-350.844 418.952,-351.896"/>
<polygon fill="midnightblue" stroke="midnightblue" points="65.0398,-197.306 55.3424,-193.038 60.2621,-202.422 65.0398,-197.306"/>
</g>
<!-- Node18 -->
<g id="node39" class="node"><title>Node18</title>
<a xlink:href="_m_a_i_n__avec__objets_8cpp.html#ace9c8a9b37c6087c3cffef442d71d70e" target="_top" xlink:title="dixiemes_de_secondes">
<polygon fill="white" stroke="black" points="985.5,-303 985.5,-327 1104.5,-327 1104.5,-303 985.5,-303"/>
<text text-anchor="middle" x="1045" y="-314" font-family="Helvetica,sans-Serif" font-size="10.00">dixiemes_de_secondes</text>
</a>
</g>
<!-- Node1&#45;&gt;Node18 -->
<g id="edge66" class="edge"><title>Node1&#45;&gt;Node18</title>
<path fill="none" stroke="midnightblue" d="M53.3956,-202.238C66.5172,-227.28 91.1468,-268.912 122,-296 192.503,-357.898 216.181,-392 310,-392 310,-392 310,-392 759,-392 842.539,-392 866.587,-398.93 946,-373 977.813,-362.613 1010.51,-340.88 1029.23,-327.166"/>
<polygon fill="midnightblue" stroke="midnightblue" points="56.4542,-200.532 48.7909,-193.216 50.2192,-203.714 56.4542,-200.532"/>
</g>
<!-- Node21 -->
<g id="node49" class="node"><title>Node21</title>
<a xlink:href="i_cat14_8cpp.html#a3dd96bb8dc1ec3e640f104b2d2db4065" target="_top" xlink:title="BoxGuiBuilder_iCat">
<polygon fill="white" stroke="black" points="122,-0 122,-24 224,-24 224,-0 122,-0"/>
<text text-anchor="middle" x="173" y="-11" font-family="Helvetica,sans-Serif" font-size="10.00">BoxGuiBuilder_iCat</text>
</a>
</g>
<!-- Node1&#45;&gt;Node21 -->
<g id="edge56" class="edge"><title>Node1&#45;&gt;Node21</title>
<path fill="none" stroke="midnightblue" d="M50.4242,-159.045C61.6907,-128.531 85.7098,-73.1028 122,-38 127.715,-32.4723 134.838,-27.8603 141.932,-24.1316"/>
<polygon fill="midnightblue" stroke="midnightblue" points="47.0345,-158.131 46.9717,-168.725 53.6277,-160.482 47.0345,-158.131"/>
</g>
<!-- Node3 -->
<g id="node5" class="node"><title>Node3</title>
<a xlink:href="banger__core__8_8cpp.html#a4003a08a1620546de77b118c91d2fd9d" target="_top" xlink:title="do_bang">
<polygon fill="white" stroke="black" points="283.5,-264 283.5,-288 336.5,-288 336.5,-264 283.5,-264"/>
<text text-anchor="middle" x="310" y="-275" font-family="Helvetica,sans-Serif" font-size="10.00">do_bang</text>
</a>
</g>
<!-- Node2&#45;&gt;Node3 -->
<g id="edge4" class="edge"><title>Node2&#45;&gt;Node3</title>
<path fill="none" stroke="midnightblue" d="M215.638,-241.561C237.679,-249.606 263.908,-259.178 283.112,-266.187"/>
<polygon fill="midnightblue" stroke="midnightblue" points="216.758,-238.244 206.164,-238.104 214.358,-244.82 216.758,-238.244"/>
</g>
<!-- Node6 -->
<g id="node11" class="node"><title>Node6</title>
<a xlink:href="banger__core__8_8cpp.html#a4fe16ad483c0c1609d97aeb9a23c74ee" target="_top" xlink:title="do_logical_fenetre\l_banger">
<polygon fill="white" stroke="black" points="262.5,-206 262.5,-246 357.5,-246 357.5,-206 262.5,-206"/>
<text text-anchor="start" x="270.5" y="-233" font-family="Helvetica,sans-Serif" font-size="10.00">do_logical_fenetre</text>
<text text-anchor="middle" x="310" y="-217" font-family="Helvetica,sans-Serif" font-size="10.00">_banger</text>
</a>
</g>
<!-- Node2&#45;&gt;Node6 -->
<g id="edge10" class="edge"><title>Node2&#45;&gt;Node6</title>
<path fill="none" stroke="midnightblue" d="M217.343,-226C231.702,-226 247.685,-226 262.278,-226"/>
<polygon fill="midnightblue" stroke="midnightblue" points="217.218,-222.5 207.217,-226 217.217,-229.5 217.218,-222.5"/>
</g>
<!-- Node8 -->
<g id="node16" class="node"><title>Node8</title>
<a xlink:href="banger__core__8_8cpp.html#ab405ab53ea444b049e5ffa258498fcb6" target="_top" xlink:title="refresh_banger_wx">
<polygon fill="white" stroke="black" points="260.5,-164 260.5,-188 359.5,-188 359.5,-164 260.5,-164"/>
<text text-anchor="middle" x="310" y="-175" font-family="Helvetica,sans-Serif" font-size="10.00">refresh_banger_wx</text>
</a>
</g>
<!-- Node2&#45;&gt;Node8 -->
<g id="edge16" class="edge"><title>Node2&#45;&gt;Node8</title>
<path fill="none" stroke="midnightblue" d="M215.793,-210.382C235.423,-203.218 258.347,-194.851 276.667,-188.165"/>
<polygon fill="midnightblue" stroke="midnightblue" points="214.358,-207.18 206.164,-213.896 216.758,-213.756 214.358,-207.18"/>
</g>
<!-- Node2&#45;&gt;Node14 -->
<g id="edge54" class="edge"><title>Node2&#45;&gt;Node14</title>
<path fill="none" stroke="midnightblue" d="M191.932,-245.354C208.53,-261.304 234.008,-283.434 260,-297 311.89,-324.084 378.793,-339.306 418.656,-346.572"/>
<polygon fill="midnightblue" stroke="midnightblue" points="194.12,-242.597 184.534,-238.085 189.214,-247.59 194.12,-242.597"/>
</g>
<!-- Node4 -->
<g id="node7" class="node"><title>Node4</title>
<a xlink:href="_m_a_i_n__avec__objets_8cpp.html#a8e80f54ac804eddce8ed6e45adb1db44" target="_top" xlink:title="ticker_full_loop">
<polygon fill="white" stroke="black" points="718,-143 718,-167 800,-167 800,-143 718,-143"/>
<text text-anchor="middle" x="759" y="-154" font-family="Helvetica,sans-Serif" font-size="10.00">ticker_full_loop</text>
</a>
</g>
<!-- Node3&#45;&gt;Node4 -->
<g id="edge6" class="edge"><title>Node3&#45;&gt;Node4</title>
<path fill="none" stroke="midnightblue" d="M347.057,-283.836C417.375,-296.668 572.88,-315.136 682,-255 718.653,-234.8 743.476,-189.077 753.718,-167.16"/>
<polygon fill="midnightblue" stroke="midnightblue" points="347.395,-280.338 336.919,-281.916 346.093,-287.216 347.395,-280.338"/>
</g>
<!-- Node4&#45;&gt;Node5 -->
<g id="edge8" class="edge"><title>Node4&#45;&gt;Node5</title>
<path fill="none" stroke="midnightblue" d="M810.359,-146.355C900.742,-131.142 1084.3,-100.246 1143.87,-90.2202"/>
<polygon fill="midnightblue" stroke="midnightblue" points="809.617,-142.931 800.337,-148.042 810.779,-149.834 809.617,-142.931"/>
</g>
<!-- Node7 -->
<g id="node13" class="node"><title>Node7</title>
<a xlink:href="procs__visuels__rebuild1_8cpp.html#ae710b6e599e321ad5934a90140067054" target="_top" xlink:title="check_graphics_mouse\l_handling">
<polygon fill="white" stroke="black" points="554.5,-206 554.5,-246 673.5,-246 673.5,-206 554.5,-206"/>
<text text-anchor="start" x="562.5" y="-233" font-family="Helvetica,sans-Serif" font-size="10.00">check_graphics_mouse</text>
<text text-anchor="middle" x="614" y="-217" font-family="Helvetica,sans-Serif" font-size="10.00">_handling</text>
</a>
</g>
<!-- Node6&#45;&gt;Node7 -->
<g id="edge12" class="edge"><title>Node6&#45;&gt;Node7</title>
<path fill="none" stroke="midnightblue" d="M367.234,-248.156C376.713,-250.994 386.537,-253.447 396,-255 445.998,-263.203 459.801,-261.868 510,-255 524.579,-253.005 539.995,-249.507 554.365,-245.615"/>
<polygon fill="midnightblue" stroke="midnightblue" points="368.101,-244.759 357.511,-245.081 365.99,-251.434 368.101,-244.759"/>
</g>
<!-- Node7&#45;&gt;Node4 -->
<g id="edge14" class="edge"><title>Node7&#45;&gt;Node4</title>
<path fill="none" stroke="midnightblue" d="M664.348,-201.347C687.938,-189.796 714.989,-176.55 734.115,-167.185"/>
<polygon fill="midnightblue" stroke="midnightblue" points="662.605,-198.303 655.163,-205.844 665.684,-204.59 662.605,-198.303"/>
</g>
<!-- Node8&#45;&gt;Node9 -->
<g id="edge18" class="edge"><title>Node8&#45;&gt;Node9</title>
<path fill="none" stroke="midnightblue" d="M331.823,-157.346C348.558,-143.724 372.67,-125.522 396,-113 402.133,-109.708 408.892,-106.718 415.547,-104.092"/>
<polygon fill="midnightblue" stroke="midnightblue" points="329.259,-154.925 323.788,-163.998 333.723,-160.317 329.259,-154.925"/>
</g>
<!-- Node11 -->
<g id="node23" class="node"><title>Node11</title>
<a xlink:href="keyboard__functions2_8cpp.html#af3dd6697323b10b480719c1612bcf29a" target="_top" xlink:title="key_backward">
<polygon fill="white" stroke="black" points="413,-122 413,-146 493,-146 493,-122 413,-122"/>
<text text-anchor="middle" x="453" y="-133" font-family="Helvetica,sans-Serif" font-size="10.00">key_backward</text>
</a>
</g>
<!-- Node8&#45;&gt;Node11 -->
<g id="edge24" class="edge"><title>Node8&#45;&gt;Node11</title>
<path fill="none" stroke="midnightblue" d="M360.746,-161.096C377.727,-156.108 396.418,-150.618 412.51,-145.892"/>
<polygon fill="midnightblue" stroke="midnightblue" points="359.586,-157.788 350.978,-163.964 361.559,-164.505 359.586,-157.788"/>
</g>
<!-- Node13 -->
<g id="node28" class="node"><title>Node13</title>
<a xlink:href="keyboard__functions2_8cpp.html#a6b73a3669797504ce2e357d9a8b9a2c2" target="_top" xlink:title="key_forward">
<polygon fill="white" stroke="black" points="418,-164 418,-188 488,-188 488,-164 418,-164"/>
<text text-anchor="middle" x="453" y="-175" font-family="Helvetica,sans-Serif" font-size="10.00">key_forward</text>
</a>
</g>
<!-- Node8&#45;&gt;Node13 -->
<g id="edge30" class="edge"><title>Node8&#45;&gt;Node13</title>
<path fill="none" stroke="midnightblue" d="M369.687,-176C386.095,-176 403.356,-176 417.885,-176"/>
<polygon fill="midnightblue" stroke="midnightblue" points="369.613,-172.5 359.613,-176 369.613,-179.5 369.613,-172.5"/>
</g>
<!-- Node8&#45;&gt;Node14 -->
<g id="edge34" class="edge"><title>Node8&#45;&gt;Node14</title>
<path fill="none" stroke="midnightblue" d="M355.268,-193.326C356.92,-194.482 358.506,-195.705 360,-197 363.135,-199.717 424.568,-303.741 445.831,-339.824"/>
<polygon fill="midnightblue" stroke="midnightblue" points="356.948,-190.252 346.573,-188.103 353.343,-196.252 356.948,-190.252"/>
</g>
<!-- Node20 -->
<g id="node45" class="node"><title>Node20</title>
<a xlink:href="sequentiel__6__core_8cpp.html#a2a71c851cf25565491dd10423bc80380" target="_top" xlink:title="do_logical_Sequenciel\l_Window">
<polygon fill="white" stroke="black" points="396.5,-206 396.5,-246 509.5,-246 509.5,-206 396.5,-206"/>
<text text-anchor="start" x="404.5" y="-233" font-family="Helvetica,sans-Serif" font-size="10.00">do_logical_Sequenciel</text>
<text text-anchor="middle" x="453" y="-217" font-family="Helvetica,sans-Serif" font-size="10.00">_Window</text>
</a>
</g>
<!-- Node8&#45;&gt;Node20 -->
<g id="edge50" class="edge"><title>Node8&#45;&gt;Node20</title>
<path fill="none" stroke="midnightblue" d="M354.445,-191.54C367.718,-196.181 382.451,-201.332 396.393,-206.207"/>
<polygon fill="midnightblue" stroke="midnightblue" points="355.211,-188.1 344.616,-188.104 352.901,-194.708 355.211,-188.1"/>
</g>
<!-- Node10 -->
<g id="node20" class="node"><title>Node10</title>
<a xlink:href="i_cat14_8cpp.html#aa9772b548765a631d4bae1c14053b4e1" target="_top" xlink:title="DoJobFantastickTouch">
<polygon fill="white" stroke="black" points="555.5,-90 555.5,-114 672.5,-114 672.5,-90 555.5,-90"/>
<text text-anchor="middle" x="614" y="-101" font-family="Helvetica,sans-Serif" font-size="10.00">DoJobFantastickTouch</text>
</a>
</g>
<!-- Node9&#45;&gt;Node10 -->
<g id="edge20" class="edge"><title>Node9&#45;&gt;Node10</title>
<path fill="none" stroke="midnightblue" d="M501.039,-94.9838C518.111,-96.0441 537.521,-97.2498 555.378,-98.3589"/>
<polygon fill="midnightblue" stroke="midnightblue" points="500.945,-91.4713 490.747,-94.3446 500.511,-98.4578 500.945,-91.4713"/>
</g>
<!-- Node10&#45;&gt;Node4 -->
<g id="edge22" class="edge"><title>Node10&#45;&gt;Node4</title>
<path fill="none" stroke="midnightblue" d="M656.417,-117.504C678.601,-125.613 705.354,-135.392 725.977,-142.929"/>
<polygon fill="midnightblue" stroke="midnightblue" points="657.497,-114.172 646.903,-114.027 655.093,-120.747 657.497,-114.172"/>
</g>
<!-- Node12 -->
<g id="node25" class="node"><title>Node12</title>
<a xlink:href="keyboard__routines2_8cpp.html#a8563320b8eab661232619224650de244" target="_top" xlink:title="commandes_clavier">
<polygon fill="white" stroke="black" points="562,-143 562,-167 666,-167 666,-143 562,-143"/>
<text text-anchor="middle" x="614" y="-154" font-family="Helvetica,sans-Serif" font-size="10.00">commandes_clavier</text>
</a>
</g>
<!-- Node11&#45;&gt;Node12 -->
<g id="edge26" class="edge"><title>Node11&#45;&gt;Node12</title>
<path fill="none" stroke="midnightblue" d="M503.27,-140.557C521.898,-142.987 543.053,-145.746 561.845,-148.197"/>
<polygon fill="midnightblue" stroke="midnightblue" points="503.581,-137.068 493.212,-139.245 502.675,-144.009 503.581,-137.068"/>
</g>
<!-- Node12&#45;&gt;Node4 -->
<g id="edge28" class="edge"><title>Node12&#45;&gt;Node4</title>
<path fill="none" stroke="midnightblue" d="M676.386,-155C690.335,-155 704.795,-155 717.643,-155"/>
<polygon fill="midnightblue" stroke="midnightblue" points="676.348,-151.5 666.348,-155 676.348,-158.5 676.348,-151.5"/>
</g>
<!-- Node13&#45;&gt;Node12 -->
<g id="edge32" class="edge"><title>Node13&#45;&gt;Node12</title>
<path fill="none" stroke="midnightblue" d="M498.326,-170.088C518.115,-167.507 541.436,-164.465 561.934,-161.791"/>
<polygon fill="midnightblue" stroke="midnightblue" points="497.795,-166.627 488.332,-171.391 498.701,-173.569 497.795,-166.627"/>
</g>
<!-- Node15 -->
<g id="node33" class="node"><title>Node15</title>
<a xlink:href="midi__13_8cpp.html#a6bedf9750195224914cd87c4e73ab626" target="_top" xlink:title="ventilate_midi_to_midiarray">
<polygon fill="white" stroke="black" points="546.5,-340 546.5,-364 681.5,-364 681.5,-340 546.5,-340"/>
<text text-anchor="middle" x="614" y="-351" font-family="Helvetica,sans-Serif" font-size="10.00">ventilate_midi_to_midiarray</text>
</a>
</g>
<!-- Node14&#45;&gt;Node15 -->
<g id="edge36" class="edge"><title>Node14&#45;&gt;Node15</title>
<path fill="none" stroke="midnightblue" d="M497.272,-352C512.455,-352 529.811,-352 546.414,-352"/>
<polygon fill="midnightblue" stroke="midnightblue" points="497.144,-348.5 487.144,-352 497.144,-355.5 497.144,-348.5"/>
</g>
<!-- Node16 -->
<g id="node35" class="node"><title>Node16</title>
<a xlink:href="midi__13_8cpp.html#afa49dd5668303c2448676c8243737c2d" target="_top" xlink:title="simulate_midi">
<polygon fill="white" stroke="black" points="720.5,-332 720.5,-356 797.5,-356 797.5,-332 720.5,-332"/>
<text text-anchor="middle" x="759" y="-343" font-family="Helvetica,sans-Serif" font-size="10.00">simulate_midi</text>
</a>
</g>
<!-- Node15&#45;&gt;Node16 -->
<g id="edge38" class="edge"><title>Node15&#45;&gt;Node16</title>
<path fill="none" stroke="midnightblue" d="M692.103,-347.691C701.941,-347.148 711.642,-346.613 720.473,-346.126"/>
<polygon fill="midnightblue" stroke="midnightblue" points="691.622,-344.212 681.83,-348.258 692.008,-351.201 691.622,-344.212"/>
</g>
<!-- Node17 -->
<g id="node37" class="node"><title>Node17</title>
<a xlink:href="arduino__core__6___u_n_o_8cpp.html#ae72d1a8d74d9ab5515962e03e7e664d6" target="_top" xlink:title="arduino_do_analog_in\l_whitecat">
<polygon fill="white" stroke="black" points="836,-324 836,-364 946,-364 946,-324 836,-324"/>
<text text-anchor="start" x="844" y="-351" font-family="Helvetica,sans-Serif" font-size="10.00">arduino_do_analog_in</text>
<text text-anchor="middle" x="891" y="-335" font-family="Helvetica,sans-Serif" font-size="10.00">_whitecat</text>
</a>
</g>
<!-- Node16&#45;&gt;Node17 -->
<g id="edge40" class="edge"><title>Node16&#45;&gt;Node17</title>
<path fill="none" stroke="midnightblue" d="M807.687,-344C816.899,-344 826.596,-344 835.986,-344"/>
<polygon fill="midnightblue" stroke="midnightblue" points="807.535,-340.5 797.535,-344 807.535,-347.5 807.535,-340.5"/>
</g>
<!-- Node19 -->
<g id="node42" class="node"><title>Node19</title>
<a xlink:href="arduino__core__6___u_n_o_8cpp.html#a219226c1cd6cc17c78e62fd4445bb445" target="_top" xlink:title="arduino_do_digital\l_in_whitecat">
<polygon fill="white" stroke="black" points="843.5,-266 843.5,-306 938.5,-306 938.5,-266 843.5,-266"/>
<text text-anchor="start" x="851.5" y="-293" font-family="Helvetica,sans-Serif" font-size="10.00">arduino_do_digital</text>
<text text-anchor="middle" x="891" y="-277" font-family="Helvetica,sans-Serif" font-size="10.00">_in_whitecat</text>
</a>
</g>
<!-- Node16&#45;&gt;Node19 -->
<g id="edge46" class="edge"><title>Node16&#45;&gt;Node19</title>
<path fill="none" stroke="midnightblue" d="M795.539,-327.945C810.918,-321.188 828.982,-313.25 845.234,-306.109"/>
<polygon fill="midnightblue" stroke="midnightblue" points="794.098,-324.755 786.35,-331.982 796.914,-331.164 794.098,-324.755"/>
</g>
<!-- Node17&#45;&gt;Node18 -->
<g id="edge42" class="edge"><title>Node17&#45;&gt;Node18</title>
<path fill="none" stroke="midnightblue" d="M956.121,-331.737C965.791,-329.916 975.717,-328.047 985.269,-326.248"/>
<polygon fill="midnightblue" stroke="midnightblue" points="955.342,-328.322 946.163,-333.612 956.638,-335.201 955.342,-328.322"/>
</g>
<!-- Node18&#45;&gt;Node5 -->
<g id="edge44" class="edge"><title>Node18&#45;&gt;Node5</title>
<path fill="none" stroke="midnightblue" d="M1055.99,-293.762C1080.25,-246.882 1137.74,-135.798 1156.77,-99.0422"/>
<polygon fill="midnightblue" stroke="midnightblue" points="1052.83,-292.252 1051.34,-302.742 1059.05,-295.469 1052.83,-292.252"/>
</g>
<!-- Node19&#45;&gt;Node18 -->
<g id="edge48" class="edge"><title>Node19&#45;&gt;Node18</title>
<path fill="none" stroke="midnightblue" d="M948.771,-296.879C960.762,-299.137 973.418,-301.52 985.472,-303.79"/>
<polygon fill="midnightblue" stroke="midnightblue" points="949.357,-293.428 938.882,-295.017 948.062,-300.307 949.357,-293.428"/>
</g>
<!-- Node20&#45;&gt;Node7 -->
<g id="edge52" class="edge"><title>Node20&#45;&gt;Node7</title>
<path fill="none" stroke="midnightblue" d="M520.106,-226C531.511,-226 543.286,-226 554.478,-226"/>
<polygon fill="midnightblue" stroke="midnightblue" points="519.763,-222.5 509.763,-226 519.763,-229.5 519.763,-222.5"/>
</g>
<!-- Node22 -->
<g id="node51" class="node"><title>Node22</title>
<a xlink:href="graphics__rebuild1_8cpp.html#ac2eae1e03fb72cc734ffbcef566483bf" target="_top" xlink:title="Boxes">
<polygon fill="white" stroke="black" points="737,-0 737,-24 781,-24 781,-0 737,-0"/>
<text text-anchor="middle" x="759" y="-11" font-family="Helvetica,sans-Serif" font-size="10.00">Boxes</text>
</a>
</g>
<!-- Node21&#45;&gt;Node22 -->
<g id="edge58" class="edge"><title>Node21&#45;&gt;Node22</title>
<path fill="none" stroke="midnightblue" d="M234.293,-12C362.623,-12 654.522,-12 736.953,-12"/>
<polygon fill="midnightblue" stroke="midnightblue" points="234.234,-8.5001 224.234,-12 234.234,-15.5001 234.234,-8.5001"/>
</g>
<!-- Node23 -->
<g id="node53" class="node"><title>Node23</title>
<a xlink:href="_m_a_i_n__avec__objets_8cpp.html#ade8d4ba65d55c94f8ee277829d722155" target="_top" xlink:title="main_actions_on_screen">
<polygon fill="white" stroke="black" points="982.5,-0 982.5,-24 1107.5,-24 1107.5,-0 982.5,-0"/>
<text text-anchor="middle" x="1045" y="-11" font-family="Helvetica,sans-Serif" font-size="10.00">main_actions_on_screen</text>
</a>
</g>
<!-- Node22&#45;&gt;Node23 -->
<g id="edge60" class="edge"><title>Node22&#45;&gt;Node23</title>
<path fill="none" stroke="midnightblue" d="M791.501,-12C837.757,-12 923.483,-12 982.336,-12"/>
<polygon fill="midnightblue" stroke="midnightblue" points="791.442,-8.5001 781.442,-12 791.442,-15.5001 791.442,-8.5001"/>
</g>
<!-- Node23&#45;&gt;Node5 -->
<g id="edge62" class="edge"><title>Node23&#45;&gt;Node5</title>
<path fill="none" stroke="midnightblue" d="M1089.4,-28.0968C1095.82,-31.0552 1102.21,-34.3707 1108,-38 1124.69,-48.4544 1141.2,-64.0628 1151.71,-74.8412"/>
<polygon fill="midnightblue" stroke="midnightblue" points="1090.6,-24.8044 1080.04,-24.0227 1087.81,-31.2228 1090.6,-24.8044"/>
</g>
</g>
</svg>
