<?xml version="1.0" encoding="UTF-8" standalone="no"?>
<!DOCTYPE svg PUBLIC "-//W3C//DTD SVG 1.1//EN"
 "http://www.w3.org/Graphics/SVG/1.1/DTD/svg11.dtd">
<!-- Generated by graphviz version 2.26.3 (20100126.1600)
 -->
<!-- Title: To_iCat_DrawTrackingZone Pages: 1 -->
<!--zoomable 427 -->
<svg id="main" version="1.1" xmlns="http://www.w3.org/2000/svg" xmlns:xlink="http://www.w3.org/1999/xlink" xml:space="preserve" onload="init(evt)">
<style type="text/css"><![CDATA[
.edge:hover path { stroke: red; }
.edge:hover polygon { stroke: red; fill: red; }
]]></style>
<script type="text/javascript"><![CDATA[
var edges = document.getElementsByTagName('g');
if (edges && edges.length) {
  for (var i=0;i<edges.length;i++) {
    if (edges[i].id.substr(0,4)=='edge') {
      edges[i].setAttribute('class','edge');
    }
  }
}
]]></script>
        <defs>
                <circle id="rim" cx="0" cy="0" r="7"/>
                <circle id="rim2" cx="0" cy="0" r="3.5"/>
                <g id="zoomPlus">
                        <use xlink:href="#rim" fill="#404040">
                                <set attributeName="fill" to="#808080" begin="zoomplus.mouseover" end="zoomplus.mouseout"/>
                        </use>
                        <path d="M-4,0h8M0,-4v8" fill="none" stroke="white" stroke-width="1.5" pointer-events="none"/>
                </g>
                <g id="zoomMin">
                        <use xlink:href="#rim" fill="#404040">
                                <set attributeName="fill" to="#808080" begin="zoomminus.mouseover" end="zoomminus.mouseout"/>
                        </use>
                        <path d="M-4,0h8" fill="none" stroke="white" stroke-width="1.5" pointer-events="none"/>
                </g>
                <g id="dirArrow">
                        <path fill="none" stroke="white" stroke-width="1.5" d="M0,-3.0v7 M-2.5,-0.5L0,-3.0L2.5,-0.5"/>
                </g>
               <g id="resetDef">
                       <use xlink:href="#rim2" fill="#404040">
                               <set attributeName="fill" to="#808080" begin="reset.mouseover" end="reset.mouseout"/>
                       </use>
               </g>
        </defs>

<script type="text/javascript">
var viewWidth = 2210;
var viewHeight = 427;
var sectionId = 'dynsection-15';
</script>
<script xlink:href="svgpan.js"/>
<svg id="graph" class="graph">
<g id="viewport">
<title>To_iCat_DrawTrackingZone</title>
<polygon fill="white" stroke="white" points="-4,5 -4,-423 2207,-423 2207,5 -4,5"/>
<!-- Node1 -->
<g id="node1" class="node"><title>Node1</title>
<polygon fill="#bfbfbf" stroke="black" points="0.5,-126 0.5,-150 137.5,-150 137.5,-126 0.5,-126"/>
<text text-anchor="middle" x="69" y="-137" font-family="Helvetica,sans-Serif" font-size="10.00">To_iCat_DrawTrackingZone</text>
</g>
<!-- Node2 -->
<g id="node3" class="node"><title>Node2</title>
<a xlink:href="icat__core14_8cpp.html#a469dfea8228721f299af4b56df39989b" target="_top" xlink:title="do_refresh_iCat">
<polygon fill="white" stroke="black" points="174,-126 174,-150 260,-150 260,-126 174,-126"/>
<text text-anchor="middle" x="217" y="-137" font-family="Helvetica,sans-Serif" font-size="10.00">do_refresh_iCat</text>
</a>
</g>
<!-- Node1&#45;&gt;Node2 -->
<g id="edge2" class="edge"><title>Node1&#45;&gt;Node2</title>
<path fill="none" stroke="midnightblue" d="M147.847,-138C156.735,-138 165.529,-138 173.713,-138"/>
<polygon fill="midnightblue" stroke="midnightblue" points="147.801,-134.5 137.801,-138 147.801,-141.5 147.801,-134.5"/>
</g>
<!-- Node3 -->
<g id="node5" class="node"><title>Node3</title>
<a xlink:href="banger__core__8_8cpp.html#ae4008269e0575da11cc90e812961ef6f" target="_top" xlink:title="Bang_event">
<polygon fill="white" stroke="black" points="296,-223 296,-247 364,-247 364,-223 296,-223"/>
<text text-anchor="middle" x="330" y="-234" font-family="Helvetica,sans-Serif" font-size="10.00">Bang_event</text>
</a>
</g>
<!-- Node2&#45;&gt;Node3 -->
<g id="edge4" class="edge"><title>Node2&#45;&gt;Node3</title>
<path fill="none" stroke="midnightblue" d="M239.088,-156.96C261.804,-176.46 296.508,-206.25 315.805,-222.815"/>
<polygon fill="midnightblue" stroke="midnightblue" points="241.179,-154.143 231.312,-150.285 236.62,-159.454 241.179,-154.143"/>
</g>
<!-- Node6 -->
<g id="node11" class="node"><title>Node6</title>
<a xlink:href="_m_a_i_n__avec__objets_8cpp.html#ae66f6b31b5ad750f1fe042a706a4e3d4" target="_top" xlink:title="main">
<polygon fill="white" stroke="black" points="2164,-147 2164,-171 2202,-171 2202,-147 2164,-147"/>
<text text-anchor="middle" x="2183" y="-158" font-family="Helvetica,sans-Serif" font-size="10.00">main</text>
</a>
</g>
<!-- Node2&#45;&gt;Node6 -->
<g id="edge98" class="edge"><title>Node2&#45;&gt;Node6</title>
<path fill="none" stroke="midnightblue" d="M223.322,-159.874C243.9,-225.952 315.528,-419 450,-419 450,-419 450,-419 1944,-419 2080.42,-419 2160.25,-222.595 2178.8,-171.192"/>
<polygon fill="midnightblue" stroke="midnightblue" points="226.603,-158.633 220.357,-150.074 219.903,-160.659 226.603,-158.633"/>
</g>
<!-- Node10 -->
<g id="node20" class="node"><title>Node10</title>
<a xlink:href="i_cat14_8cpp.html#a16285241f82898e7a5f051b03d90b9a3" target="_top" xlink:title="check_button">
<polygon fill="white" stroke="black" points="555.5,-149 555.5,-173 630.5,-173 630.5,-149 555.5,-149"/>
<text text-anchor="middle" x="593" y="-160" font-family="Helvetica,sans-Serif" font-size="10.00">check_button</text>
</a>
</g>
<!-- Node2&#45;&gt;Node10 -->
<g id="edge94" class="edge"><title>Node2&#45;&gt;Node10</title>
<path fill="none" stroke="midnightblue" d="M270.077,-141.379C278.741,-141.925 287.62,-142.481 296,-143 389.32,-148.781 499.148,-155.385 555.491,-158.759"/>
<polygon fill="midnightblue" stroke="midnightblue" points="270.25,-137.883 260.049,-140.746 269.809,-144.869 270.25,-137.883"/>
</g>
<!-- Node15 -->
<g id="node33" class="node"><title>Node15</title>
<a xlink:href="midi__13_8cpp.html#a6dff3d42682b58cc0a9875ee30fb4cd4" target="_top" xlink:title="do_midi_job">
<polygon fill="white" stroke="black" points="559,-107 559,-131 627,-131 627,-107 559,-107"/>
<text text-anchor="middle" x="593" y="-118" font-family="Helvetica,sans-Serif" font-size="10.00">do_midi_job</text>
</a>
</g>
<!-- Node2&#45;&gt;Node15 -->
<g id="edge100" class="edge"><title>Node2&#45;&gt;Node15</title>
<path fill="none" stroke="midnightblue" d="M270.292,-135.307C348.783,-131.341 493.251,-124.041 558.915,-120.722"/>
<polygon fill="midnightblue" stroke="midnightblue" points="269.943,-131.82 260.132,-135.82 270.296,-138.811 269.943,-131.82"/>
</g>
<!-- Node19 -->
<g id="node41" class="node"><title>Node19</title>
<a xlink:href="_m_a_i_n__avec__objets_8cpp.html#ace9c8a9b37c6087c3cffef442d71d70e" target="_top" xlink:title="dixiemes_de_secondes">
<polygon fill="white" stroke="black" points="1122.5,-132 1122.5,-156 1241.5,-156 1241.5,-132 1122.5,-132"/>
<text text-anchor="middle" x="1182" y="-143" font-family="Helvetica,sans-Serif" font-size="10.00">dixiemes_de_secondes</text>
</a>
</g>
<!-- Node2&#45;&gt;Node19 -->
<g id="edge96" class="edge"><title>Node2&#45;&gt;Node19</title>
<path fill="none" stroke="midnightblue" d="M254.931,-122.218C300.439,-104.741 379.441,-79 450,-79 450,-79 450,-79 754,-79 901.85,-79 942.617,-63.9278 1086,-100 1113.38,-106.889 1142.56,-121.412 1161.46,-131.892"/>
<polygon fill="midnightblue" stroke="midnightblue" points="253.509,-119.016 245.471,-125.918 256.059,-125.535 253.509,-119.016"/>
</g>
<!-- Node34 -->
<g id="node79" class="node"><title>Node34</title>
<a xlink:href="i_cat14_8cpp.html#a3dd96bb8dc1ec3e640f104b2d2db4065" target="_top" xlink:title="BoxGuiBuilder_iCat">
<polygon fill="white" stroke="black" points="1396,-8 1396,-32 1498,-32 1498,-8 1396,-8"/>
<text text-anchor="middle" x="1447" y="-19" font-family="Helvetica,sans-Serif" font-size="10.00">BoxGuiBuilder_iCat</text>
</a>
</g>
<!-- Node2&#45;&gt;Node34 -->
<g id="edge90" class="edge"><title>Node2&#45;&gt;Node34</title>
<path fill="none" stroke="midnightblue" d="M234.7,-118.299C271.012,-80.1692 358.266,-0 450,-0 450,-0 450,-0 1182,-0 1256.51,-7.10543e-15 1342.48,-7.95967 1395.79,-13.8361"/>
<polygon fill="midnightblue" stroke="midnightblue" points="232.007,-116.055 227.741,-125.753 237.124,-120.832 232.007,-116.055"/>
</g>
<!-- Node4 -->
<g id="node7" class="node"><title>Node4</title>
<a xlink:href="banger__core__8_8cpp.html#a4003a08a1620546de77b118c91d2fd9d" target="_top" xlink:title="do_bang">
<polygon fill="white" stroke="black" points="423.5,-345 423.5,-369 476.5,-369 476.5,-345 423.5,-345"/>
<text text-anchor="middle" x="450" y="-356" font-family="Helvetica,sans-Serif" font-size="10.00">do_bang</text>
</a>
</g>
<!-- Node3&#45;&gt;Node4 -->
<g id="edge6" class="edge"><title>Node3&#45;&gt;Node4</title>
<path fill="none" stroke="midnightblue" d="M342.979,-255.528C355.883,-274.907 377.023,-304.04 400,-325 408.299,-332.571 418.596,-339.496 427.684,-344.953"/>
<polygon fill="midnightblue" stroke="midnightblue" points="345.891,-253.587 337.494,-247.127 340.03,-257.413 345.891,-253.587"/>
</g>
<!-- Node7 -->
<g id="node13" class="node"><title>Node7</title>
<a xlink:href="banger__core__8_8cpp.html#a4fe16ad483c0c1609d97aeb9a23c74ee" target="_top" xlink:title="do_logical_fenetre\l_banger">
<polygon fill="white" stroke="black" points="402.5,-276 402.5,-316 497.5,-316 497.5,-276 402.5,-276"/>
<text text-anchor="start" x="410.5" y="-303" font-family="Helvetica,sans-Serif" font-size="10.00">do_logical_fenetre</text>
<text text-anchor="middle" x="450" y="-287" font-family="Helvetica,sans-Serif" font-size="10.00">_banger</text>
</a>
</g>
<!-- Node3&#45;&gt;Node7 -->
<g id="edge12" class="edge"><title>Node3&#45;&gt;Node7</title>
<path fill="none" stroke="midnightblue" d="M362.89,-251.719C377.536,-259.164 394.911,-267.997 410.276,-275.807"/>
<polygon fill="midnightblue" stroke="midnightblue" points="364.209,-248.463 353.708,-247.052 361.036,-254.703 364.209,-248.463"/>
</g>
<!-- Node9 -->
<g id="node18" class="node"><title>Node9</title>
<a xlink:href="banger__core__8_8cpp.html#ab405ab53ea444b049e5ffa258498fcb6" target="_top" xlink:title="refresh_banger_wx">
<polygon fill="white" stroke="black" points="400.5,-223 400.5,-247 499.5,-247 499.5,-223 400.5,-223"/>
<text text-anchor="middle" x="450" y="-234" font-family="Helvetica,sans-Serif" font-size="10.00">refresh_banger_wx</text>
</a>
</g>
<!-- Node3&#45;&gt;Node9 -->
<g id="edge18" class="edge"><title>Node3&#45;&gt;Node9</title>
<path fill="none" stroke="midnightblue" d="M374.126,-235C382.6,-235 391.529,-235 400.168,-235"/>
<polygon fill="midnightblue" stroke="midnightblue" points="374.066,-231.5 364.066,-235 374.066,-238.5 374.066,-231.5"/>
</g>
<!-- Node3&#45;&gt;Node15 -->
<g id="edge88" class="edge"><title>Node3&#45;&gt;Node15</title>
<path fill="none" stroke="midnightblue" d="M363.597,-218.509C404.079,-198.872 474.352,-165.524 536,-140 543.308,-136.974 551.226,-133.919 558.77,-131.111"/>
<polygon fill="midnightblue" stroke="midnightblue" points="361.916,-215.435 354.455,-222.957 364.978,-221.729 361.916,-215.435"/>
</g>
<!-- Node5 -->
<g id="node9" class="node"><title>Node5</title>
<a xlink:href="_m_a_i_n__avec__objets_8cpp.html#a8e80f54ac804eddce8ed6e45adb1db44" target="_top" xlink:title="ticker_full_loop">
<polygon fill="white" stroke="black" points="858,-227 858,-251 940,-251 940,-227 858,-227"/>
<text text-anchor="middle" x="899" y="-238" font-family="Helvetica,sans-Serif" font-size="10.00">ticker_full_loop</text>
</a>
</g>
<!-- Node4&#45;&gt;Node5 -->
<g id="edge8" class="edge"><title>Node4&#45;&gt;Node5</title>
<path fill="none" stroke="midnightblue" d="M486.583,-362.207C556.101,-370.344 710.306,-379.861 822,-324 854.946,-307.523 880.487,-270.471 892.119,-251.186"/>
<polygon fill="midnightblue" stroke="midnightblue" points="486.917,-358.721 476.564,-360.973 486.062,-365.669 486.917,-358.721"/>
</g>
<!-- Node5&#45;&gt;Node6 -->
<g id="edge10" class="edge"><title>Node5&#45;&gt;Node6</title>
<path fill="none" stroke="midnightblue" d="M950.385,-238.128C1007.09,-237.242 1101.05,-236 1182,-236 1182,-236 1182,-236 1944,-236 2029.44,-236 2124.15,-190.864 2163.85,-169.707"/>
<polygon fill="midnightblue" stroke="midnightblue" points="950.185,-234.631 940.242,-238.289 950.296,-241.63 950.185,-234.631"/>
</g>
<!-- Node8 -->
<g id="node15" class="node"><title>Node8</title>
<a xlink:href="procs__visuels__rebuild1_8cpp.html#ae710b6e599e321ad5934a90140067054" target="_top" xlink:title="check_graphics_mouse\l_handling">
<polygon fill="white" stroke="black" points="694.5,-275 694.5,-315 813.5,-315 813.5,-275 694.5,-275"/>
<text text-anchor="start" x="702.5" y="-302" font-family="Helvetica,sans-Serif" font-size="10.00">check_graphics_mouse</text>
<text text-anchor="middle" x="754" y="-286" font-family="Helvetica,sans-Serif" font-size="10.00">_handling</text>
</a>
</g>
<!-- Node7&#45;&gt;Node8 -->
<g id="edge14" class="edge"><title>Node7&#45;&gt;Node8</title>
<path fill="none" stroke="midnightblue" d="M507.278,-317.394C516.751,-320.134 526.562,-322.502 536,-324 586.041,-331.941 599.801,-330.868 650,-324 664.579,-322.005 679.995,-318.507 694.365,-314.615"/>
<polygon fill="midnightblue" stroke="midnightblue" points="508.144,-313.999 497.558,-314.425 506.099,-320.694 508.144,-313.999"/>
</g>
<!-- Node8&#45;&gt;Node5 -->
<g id="edge16" class="edge"><title>Node8&#45;&gt;Node5</title>
<path fill="none" stroke="midnightblue" d="M815.763,-271.147C833.663,-264.233 852.457,-256.975 867.647,-251.109"/>
<polygon fill="midnightblue" stroke="midnightblue" points="814.006,-268.073 805.939,-274.941 816.528,-274.603 814.006,-268.073"/>
</g>
<!-- Node9&#45;&gt;Node10 -->
<g id="edge20" class="edge"><title>Node9&#45;&gt;Node10</title>
<path fill="none" stroke="midnightblue" d="M484.08,-218.236C489.49,-215.303 494.96,-212.171 500,-209 516.929,-198.351 518.432,-191.558 536,-182 542.114,-178.674 548.864,-175.667 555.516,-173.036"/>
<polygon fill="midnightblue" stroke="midnightblue" points="482.335,-215.2 475.118,-222.957 485.597,-221.393 482.335,-215.2"/>
</g>
<!-- Node12 -->
<g id="node25" class="node"><title>Node12</title>
<a xlink:href="keyboard__functions2_8cpp.html#af3dd6697323b10b480719c1612bcf29a" target="_top" xlink:title="key_backward">
<polygon fill="white" stroke="black" points="553,-191 553,-215 633,-215 633,-191 553,-191"/>
<text text-anchor="middle" x="593" y="-202" font-family="Helvetica,sans-Serif" font-size="10.00">key_backward</text>
</a>
</g>
<!-- Node9&#45;&gt;Node12 -->
<g id="edge26" class="edge"><title>Node9&#45;&gt;Node12</title>
<path fill="none" stroke="midnightblue" d="M509.586,-221.666C524.193,-218.397 539.482,-214.976 552.923,-211.968"/>
<polygon fill="midnightblue" stroke="midnightblue" points="508.607,-218.298 499.613,-223.898 510.136,-225.129 508.607,-218.298"/>
</g>
<!-- Node14 -->
<g id="node30" class="node"><title>Node14</title>
<a xlink:href="keyboard__functions2_8cpp.html#a6b73a3669797504ce2e357d9a8b9a2c2" target="_top" xlink:title="key_forward">
<polygon fill="white" stroke="black" points="558,-233 558,-257 628,-257 628,-233 558,-233"/>
<text text-anchor="middle" x="593" y="-244" font-family="Helvetica,sans-Serif" font-size="10.00">key_forward</text>
</a>
</g>
<!-- Node9&#45;&gt;Node14 -->
<g id="edge32" class="edge"><title>Node9&#45;&gt;Node14</title>
<path fill="none" stroke="midnightblue" d="M509.687,-239.174C526.095,-240.321 543.356,-241.528 557.885,-242.544"/>
<polygon fill="midnightblue" stroke="midnightblue" points="509.833,-235.676 499.613,-238.469 509.345,-242.659 509.833,-235.676"/>
</g>
<!-- Node9&#45;&gt;Node15 -->
<g id="edge36" class="edge"><title>Node9&#45;&gt;Node15</title>
<path fill="none" stroke="midnightblue" d="M489.245,-217.679C493.121,-215.088 496.798,-212.198 500,-209 524.475,-184.558 510.028,-162.846 536,-140 542.493,-134.288 550.675,-130.081 558.797,-127.001"/>
<polygon fill="midnightblue" stroke="midnightblue" points="487.34,-214.74 480.55,-222.873 490.93,-220.75 487.34,-214.74"/>
</g>
<!-- Node33 -->
<g id="node75" class="node"><title>Node33</title>
<a xlink:href="sequentiel__6__core_8cpp.html#a2a71c851cf25565491dd10423bc80380" target="_top" xlink:title="do_logical_Sequenciel\l_Window">
<polygon fill="white" stroke="black" points="536.5,-275 536.5,-315 649.5,-315 649.5,-275 536.5,-275"/>
<text text-anchor="start" x="544.5" y="-302" font-family="Helvetica,sans-Serif" font-size="10.00">do_logical_Sequenciel</text>
<text text-anchor="middle" x="593" y="-286" font-family="Helvetica,sans-Serif" font-size="10.00">_Window</text>
</a>
</g>
<!-- Node9&#45;&gt;Node33 -->
<g id="edge84" class="edge"><title>Node9&#45;&gt;Node33</title>
<path fill="none" stroke="midnightblue" d="M488.277,-251.06C505.787,-258.407 526.715,-267.188 545.243,-274.962"/>
<polygon fill="midnightblue" stroke="midnightblue" points="489.514,-247.784 478.938,-247.142 486.805,-254.238 489.514,-247.784"/>
</g>
<!-- Node11 -->
<g id="node22" class="node"><title>Node11</title>
<a xlink:href="i_cat14_8cpp.html#aa9772b548765a631d4bae1c14053b4e1" target="_top" xlink:title="DoJobFantastickTouch">
<polygon fill="white" stroke="black" points="695.5,-167 695.5,-191 812.5,-191 812.5,-167 695.5,-167"/>
<text text-anchor="middle" x="754" y="-178" font-family="Helvetica,sans-Serif" font-size="10.00">DoJobFantastickTouch</text>
</a>
</g>
<!-- Node10&#45;&gt;Node11 -->
<g id="edge22" class="edge"><title>Node10&#45;&gt;Node11</title>
<path fill="none" stroke="midnightblue" d="M641.039,-166.371C658.111,-168.279 677.521,-170.45 695.378,-172.446"/>
<polygon fill="midnightblue" stroke="midnightblue" points="641.074,-162.853 630.747,-165.22 640.297,-169.81 641.074,-162.853"/>
</g>
<!-- Node11&#45;&gt;Node5 -->
<g id="edge24" class="edge"><title>Node11&#45;&gt;Node5</title>
<path fill="none" stroke="midnightblue" d="M792.601,-194.973C816.801,-204.986 847.503,-217.691 869.701,-226.876"/>
<polygon fill="midnightblue" stroke="midnightblue" points="793.921,-191.731 783.343,-191.142 791.245,-198.2 793.921,-191.731"/>
</g>
<!-- Node13 -->
<g id="node27" class="node"><title>Node13</title>
<a xlink:href="keyboard__routines2_8cpp.html#a8563320b8eab661232619224650de244" target="_top" xlink:title="commandes_clavier">
<polygon fill="white" stroke="black" points="702,-227 702,-251 806,-251 806,-227 702,-227"/>
<text text-anchor="middle" x="754" y="-238" font-family="Helvetica,sans-Serif" font-size="10.00">commandes_clavier</text>
</a>
</g>
<!-- Node12&#45;&gt;Node13 -->
<g id="edge28" class="edge"><title>Node12&#45;&gt;Node13</title>
<path fill="none" stroke="midnightblue" d="M643.011,-214.183C661.702,-218.362 682.966,-223.117 701.845,-227.338"/>
<polygon fill="midnightblue" stroke="midnightblue" points="643.735,-210.758 633.212,-211.991 642.207,-217.589 643.735,-210.758"/>
</g>
<!-- Node13&#45;&gt;Node5 -->
<g id="edge30" class="edge"><title>Node13&#45;&gt;Node5</title>
<path fill="none" stroke="midnightblue" d="M816.386,-239C830.335,-239 844.795,-239 857.643,-239"/>
<polygon fill="midnightblue" stroke="midnightblue" points="816.348,-235.5 806.348,-239 816.348,-242.5 816.348,-235.5"/>
</g>
<!-- Node14&#45;&gt;Node13 -->
<g id="edge34" class="edge"><title>Node14&#45;&gt;Node13</title>
<path fill="none" stroke="midnightblue" d="M638.326,-243.311C658.115,-242.573 681.436,-241.704 701.934,-240.94"/>
<polygon fill="midnightblue" stroke="midnightblue" points="638.195,-239.813 628.332,-243.683 638.456,-246.808 638.195,-239.813"/>
</g>
<!-- Node16 -->
<g id="node35" class="node"><title>Node16</title>
<a xlink:href="midi__13_8cpp.html#a6bedf9750195224914cd87c4e73ab626" target="_top" xlink:title="ventilate_midi_to_midiarray">
<polygon fill="white" stroke="black" points="686.5,-107 686.5,-131 821.5,-131 821.5,-107 686.5,-107"/>
<text text-anchor="middle" x="754" y="-118" font-family="Helvetica,sans-Serif" font-size="10.00">ventilate_midi_to_midiarray</text>
</a>
</g>
<!-- Node15&#45;&gt;Node16 -->
<g id="edge38" class="edge"><title>Node15&#45;&gt;Node16</title>
<path fill="none" stroke="midnightblue" d="M637.272,-119C652.455,-119 669.811,-119 686.414,-119"/>
<polygon fill="midnightblue" stroke="midnightblue" points="637.144,-115.5 627.144,-119 637.144,-122.5 637.144,-115.5"/>
</g>
<!-- Node17 -->
<g id="node37" class="node"><title>Node17</title>
<a xlink:href="midi__13_8cpp.html#afa49dd5668303c2448676c8243737c2d" target="_top" xlink:title="simulate_midi">
<polygon fill="white" stroke="black" points="860.5,-149 860.5,-173 937.5,-173 937.5,-149 860.5,-149"/>
<text text-anchor="middle" x="899" y="-160" font-family="Helvetica,sans-Serif" font-size="10.00">simulate_midi</text>
</a>
</g>
<!-- Node16&#45;&gt;Node17 -->
<g id="edge40" class="edge"><title>Node16&#45;&gt;Node17</title>
<path fill="none" stroke="midnightblue" d="M805.386,-133.884C823.503,-139.132 843.548,-144.938 860.425,-149.827"/>
<polygon fill="midnightblue" stroke="midnightblue" points="806.13,-130.456 795.551,-131.036 804.183,-137.18 806.13,-130.456"/>
</g>
<!-- Node21 -->
<g id="node47" class="node"><title>Node21</title>
<a xlink:href="midi__13_8cpp.html#a4104c2ae7e71376ad9dc78929450dc51" target="_top" xlink:title="EvAquire">
<polygon fill="white" stroke="black" points="871,-107 871,-131 927,-131 927,-107 871,-107"/>
<text text-anchor="middle" x="899" y="-118" font-family="Helvetica,sans-Serif" font-size="10.00">EvAquire</text>
</a>
</g>
<!-- Node16&#45;&gt;Node21 -->
<g id="edge52" class="edge"><title>Node16&#45;&gt;Node21</title>
<path fill="none" stroke="midnightblue" d="M831.947,-119C845.817,-119 859.419,-119 870.708,-119"/>
<polygon fill="midnightblue" stroke="midnightblue" points="831.83,-115.5 821.83,-119 831.83,-122.5 831.83,-115.5"/>
</g>
<!-- Node18 -->
<g id="node39" class="node"><title>Node18</title>
<a xlink:href="arduino__core__6___u_n_o_8cpp.html#ae72d1a8d74d9ab5515962e03e7e664d6" target="_top" xlink:title="arduino_do_analog_in\l_whitecat">
<polygon fill="white" stroke="black" points="976,-109 976,-149 1086,-149 1086,-109 976,-109"/>
<text text-anchor="start" x="984" y="-136" font-family="Helvetica,sans-Serif" font-size="10.00">arduino_do_analog_in</text>
<text text-anchor="middle" x="1031" y="-120" font-family="Helvetica,sans-Serif" font-size="10.00">_whitecat</text>
</a>
</g>
<!-- Node17&#45;&gt;Node18 -->
<g id="edge42" class="edge"><title>Node17&#45;&gt;Node18</title>
<path fill="none" stroke="midnightblue" d="M947.39,-149.269C956.691,-147.014 966.495,-144.638 975.986,-142.337"/>
<polygon fill="midnightblue" stroke="midnightblue" points="946.429,-145.901 937.535,-151.658 948.078,-152.704 946.429,-145.901"/>
</g>
<!-- Node20 -->
<g id="node44" class="node"><title>Node20</title>
<a xlink:href="arduino__core__6___u_n_o_8cpp.html#a219226c1cd6cc17c78e62fd4445bb445" target="_top" xlink:title="arduino_do_digital\l_in_whitecat">
<polygon fill="white" stroke="black" points="983.5,-167 983.5,-207 1078.5,-207 1078.5,-167 983.5,-167"/>
<text text-anchor="start" x="991.5" y="-194" font-family="Helvetica,sans-Serif" font-size="10.00">arduino_do_digital</text>
<text text-anchor="middle" x="1031" y="-178" font-family="Helvetica,sans-Serif" font-size="10.00">_in_whitecat</text>
</a>
</g>
<!-- Node17&#45;&gt;Node20 -->
<g id="edge48" class="edge"><title>Node17&#45;&gt;Node20</title>
<path fill="none" stroke="midnightblue" d="M947.541,-170.561C959.203,-172.858 971.648,-175.309 983.272,-177.599"/>
<polygon fill="midnightblue" stroke="midnightblue" points="948.023,-167.089 937.535,-168.59 946.67,-173.957 948.023,-167.089"/>
</g>
<!-- Node18&#45;&gt;Node19 -->
<g id="edge44" class="edge"><title>Node18&#45;&gt;Node19</title>
<path fill="none" stroke="midnightblue" d="M1096.38,-135.495C1105,-136.351 1113.8,-137.225 1122.32,-138.071"/>
<polygon fill="midnightblue" stroke="midnightblue" points="1096.67,-132.006 1086.37,-134.5 1095.97,-138.972 1096.67,-132.006"/>
</g>
<!-- Node19&#45;&gt;Node6 -->
<g id="edge46" class="edge"><title>Node19&#45;&gt;Node6</title>
<path fill="none" stroke="midnightblue" d="M1251.71,-150.104C1305.12,-154.256 1380.66,-159 1447,-159 1447,-159 1447,-159 1944,-159 2025.74,-159 2123.21,-159 2163.79,-159"/>
<polygon fill="midnightblue" stroke="midnightblue" points="1251.92,-146.609 1241.67,-149.31 1251.37,-153.587 1251.92,-146.609"/>
</g>
<!-- Node20&#45;&gt;Node19 -->
<g id="edge50" class="edge"><title>Node20&#45;&gt;Node19</title>
<path fill="none" stroke="midnightblue" d="M1088.59,-170.6C1105.56,-165.767 1123.81,-160.57 1139.64,-156.064"/>
<polygon fill="midnightblue" stroke="midnightblue" points="1087.44,-167.289 1078.78,-173.395 1089.35,-174.022 1087.44,-167.289"/>
</g>
<!-- Node22 -->
<g id="node49" class="node"><title>Node22</title>
<a xlink:href="midi__13_8cpp.html#a831f1dfc7870ae4f6c64a0e65fbaf3ff" target="_top" xlink:title="Display">
<polygon fill="white" stroke="black" points="1006,-28 1006,-52 1056,-52 1056,-28 1006,-28"/>
<text text-anchor="middle" x="1031" y="-39" font-family="Helvetica,sans-Serif" font-size="10.00">Display</text>
</a>
</g>
<!-- Node21&#45;&gt;Node22 -->
<g id="edge54" class="edge"><title>Node21&#45;&gt;Node22</title>
<path fill="none" stroke="midnightblue" d="M928.063,-101.606C953.165,-86.5831 988.78,-65.268 1010.86,-52.0548"/>
<polygon fill="midnightblue" stroke="midnightblue" points="926.119,-98.6907 919.336,-106.829 929.714,-104.697 926.119,-98.6907"/>
</g>
<!-- Node23 -->
<g id="node51" class="node"><title>Node23</title>
<a xlink:href="midi__13_8cpp.html#aa4aeee5088a4a5462566dfee5c9cc71f" target="_top" xlink:title="DisplayTask">
<polygon fill="white" stroke="black" points="1146.5,-28 1146.5,-52 1217.5,-52 1217.5,-28 1146.5,-28"/>
<text text-anchor="middle" x="1182" y="-39" font-family="Helvetica,sans-Serif" font-size="10.00">DisplayTask</text>
</a>
</g>
<!-- Node22&#45;&gt;Node23 -->
<g id="edge56" class="edge"><title>Node22&#45;&gt;Node23</title>
<path fill="none" stroke="midnightblue" d="M1066.42,-40C1090.53,-40 1122.32,-40 1146.46,-40"/>
<polygon fill="midnightblue" stroke="midnightblue" points="1066.27,-36.5001 1056.27,-40 1066.27,-43.5001 1066.27,-36.5001"/>
</g>
<!-- Node25 -->
<g id="node56" class="node"><title>Node25</title>
<a xlink:href="midi___c_o_r_e_8cpp.html#a6fcb4c2efe85f50488d7aeeef1fc0a3e" target="_top" xlink:title="ReceiveEvents">
<polygon fill="white" stroke="black" points="1140.5,-70 1140.5,-94 1223.5,-94 1223.5,-70 1140.5,-70"/>
<text text-anchor="middle" x="1182" y="-81" font-family="Helvetica,sans-Serif" font-size="10.00">ReceiveEvents</text>
</a>
</g>
<!-- Node22&#45;&gt;Node25 -->
<g id="edge62" class="edge"><title>Node22&#45;&gt;Node25</title>
<path fill="none" stroke="midnightblue" d="M1065.96,-49.7242C1088.16,-55.8978 1117,-63.9197 1140.37,-70.4215"/>
<polygon fill="midnightblue" stroke="midnightblue" points="1066.85,-46.3377 1056.27,-47.0299 1064.97,-53.0817 1066.85,-46.3377"/>
</g>
<!-- Node24 -->
<g id="node53" class="node"><title>Node24</title>
<a xlink:href="midi___c_o_r_e_8cpp.html#a7d0f82d882071792d6a2df51ef13ec55" target="_top" xlink:title="ReceivePolling">
<polygon fill="white" stroke="black" points="1278,-28 1278,-52 1360,-52 1360,-28 1278,-28"/>
<text text-anchor="middle" x="1319" y="-39" font-family="Helvetica,sans-Serif" font-size="10.00">ReceivePolling</text>
</a>
</g>
<!-- Node23&#45;&gt;Node24 -->
<g id="edge58" class="edge"><title>Node23&#45;&gt;Node24</title>
<path fill="none" stroke="midnightblue" d="M1227.91,-40C1244.02,-40 1262.01,-40 1277.72,-40"/>
<polygon fill="midnightblue" stroke="midnightblue" points="1227.64,-36.5001 1217.64,-40 1227.64,-43.5001 1227.64,-36.5001"/>
</g>
<!-- Node24&#45;&gt;Node24 -->
<g id="edge60" class="edge"><title>Node24&#45;&gt;Node24</title>
<path fill="none" stroke="midnightblue" d="M1295.79,-62.0013C1298.16,-66.6474 1305.9,-70 1319,-70 1340.5,-70 1347.55,-60.9717 1340.16,-52.0139"/>
<polygon fill="midnightblue" stroke="midnightblue" points="1299.26,-62.5132 1297.84,-52.0139 1292.4,-61.1068 1299.26,-62.5132"/>
</g>
<!-- Node25&#45;&gt;Node24 -->
<g id="edge64" class="edge"><title>Node25&#45;&gt;Node24</title>
<path fill="none" stroke="midnightblue" d="M1230.99,-66.9819C1246.99,-62.0759 1264.54,-56.6946 1279.74,-52.0373"/>
<polygon fill="midnightblue" stroke="midnightblue" points="1229.79,-63.6871 1221.26,-69.9645 1231.85,-70.3796 1229.79,-63.6871"/>
</g>
<!-- Node26 -->
<g id="node59" class="node"><title>Node26</title>
<a xlink:href="midi___c_o_r_e_8cpp.html#a0ccf480a33424e626f88d109d53d8366" target="_top" xlink:title="InitMidi">
<polygon fill="white" stroke="black" points="1295,-88 1295,-112 1343,-112 1343,-88 1295,-88"/>
<text text-anchor="middle" x="1319" y="-99" font-family="Helvetica,sans-Serif" font-size="10.00">InitMidi</text>
</a>
</g>
<!-- Node25&#45;&gt;Node26 -->
<g id="edge66" class="edge"><title>Node25&#45;&gt;Node26</title>
<path fill="none" stroke="midnightblue" d="M1233.93,-88.8225C1254.89,-91.5772 1278.06,-94.6214 1294.92,-96.8363"/>
<polygon fill="midnightblue" stroke="midnightblue" points="1234.22,-85.331 1223.85,-87.4984 1233.31,-92.2713 1234.22,-85.331"/>
</g>
<!-- Node26&#45;&gt;Node6 -->
<g id="edge68" class="edge"><title>Node26&#45;&gt;Node6</title>
<path fill="none" stroke="midnightblue" d="M1353.37,-104.618C1402.44,-110.801 1495.44,-121 1575,-121 1575,-121 1575,-121 1944,-121 2026.47,-121 2047.01,-129.467 2128,-145 2140,-147.301 2153.28,-150.658 2163.78,-153.507"/>
<polygon fill="midnightblue" stroke="midnightblue" points="1353.66,-101.127 1343.3,-103.328 1352.77,-108.07 1353.66,-101.127"/>
</g>
<!-- Node27 -->
<g id="node62" class="node"><title>Node27</title>
<a xlink:href="midi__13_8cpp.html#ac7a306aa81e374b447e7341d4d3a3eea" target="_top" xlink:title="midipage_devices">
<polygon fill="white" stroke="black" points="1399.5,-69 1399.5,-93 1494.5,-93 1494.5,-69 1399.5,-69"/>
<text text-anchor="middle" x="1447" y="-80" font-family="Helvetica,sans-Serif" font-size="10.00">midipage_devices</text>
</a>
</g>
<!-- Node26&#45;&gt;Node27 -->
<g id="edge70" class="edge"><title>Node26&#45;&gt;Node27</title>
<path fill="none" stroke="midnightblue" d="M1353.35,-94.901C1367.5,-92.8002 1384.14,-90.3308 1399.43,-88.0608"/>
<polygon fill="midnightblue" stroke="midnightblue" points="1352.45,-91.4958 1343.08,-96.4262 1353.48,-98.4199 1352.45,-91.4958"/>
</g>
<!-- Node28 -->
<g id="node64" class="node"><title>Node28</title>
<a xlink:href="midi__13_8cpp.html#a8f70acacad6eaba8867bdd80dda5e277" target="_top" xlink:title="do_midi_config">
<polygon fill="white" stroke="black" points="1534,-69 1534,-93 1616,-93 1616,-69 1534,-69"/>
<text text-anchor="middle" x="1575" y="-80" font-family="Helvetica,sans-Serif" font-size="10.00">do_midi_config</text>
</a>
</g>
<!-- Node27&#45;&gt;Node28 -->
<g id="edge72" class="edge"><title>Node27&#45;&gt;Node28</title>
<path fill="none" stroke="midnightblue" d="M1504.71,-81C1514.45,-81 1524.39,-81 1533.61,-81"/>
<polygon fill="midnightblue" stroke="midnightblue" points="1504.66,-77.5001 1494.66,-81 1504.66,-84.5001 1504.66,-77.5001"/>
</g>
<!-- Node29 -->
<g id="node66" class="node"><title>Node29</title>
<a xlink:href="_c_f_g__config__panel__8_8cpp.html#ad39c46e2fb3a3ba7ea0460140ead4f96" target="_top" xlink:title="do_panel_config">
<polygon fill="white" stroke="black" points="1652.5,-69 1652.5,-93 1739.5,-93 1739.5,-69 1652.5,-69"/>
<text text-anchor="middle" x="1696" y="-80" font-family="Helvetica,sans-Serif" font-size="10.00">do_panel_config</text>
</a>
</g>
<!-- Node28&#45;&gt;Node29 -->
<g id="edge74" class="edge"><title>Node28&#45;&gt;Node29</title>
<path fill="none" stroke="midnightblue" d="M1626.33,-81C1635.01,-81 1643.95,-81 1652.41,-81"/>
<polygon fill="midnightblue" stroke="midnightblue" points="1626.3,-77.5001 1616.3,-81 1626.3,-84.5001 1626.3,-77.5001"/>
</g>
<!-- Node30 -->
<g id="node68" class="node"><title>Node30</title>
<a xlink:href="_c_f_g__config__panel__8_8cpp.html#a7968da66bccdba8b864caf6c8435f68e" target="_top" xlink:title="config_general_menu">
<polygon fill="white" stroke="black" points="1776.5,-69 1776.5,-93 1885.5,-93 1885.5,-69 1776.5,-69"/>
<text text-anchor="middle" x="1831" y="-80" font-family="Helvetica,sans-Serif" font-size="10.00">config_general_menu</text>
</a>
</g>
<!-- Node29&#45;&gt;Node30 -->
<g id="edge76" class="edge"><title>Node29&#45;&gt;Node30</title>
<path fill="none" stroke="midnightblue" d="M1750.07,-81C1758.62,-81 1767.47,-81 1776.04,-81"/>
<polygon fill="midnightblue" stroke="midnightblue" points="1749.83,-77.5001 1739.83,-81 1749.83,-84.5001 1749.83,-77.5001"/>
</g>
<!-- Node31 -->
<g id="node70" class="node"><title>Node31</title>
<a xlink:href="graphics__rebuild1_8cpp.html#ac2eae1e03fb72cc734ffbcef566483bf" target="_top" xlink:title="Boxes">
<polygon fill="white" stroke="black" points="1922,-69 1922,-93 1966,-93 1966,-69 1922,-69"/>
<text text-anchor="middle" x="1944" y="-80" font-family="Helvetica,sans-Serif" font-size="10.00">Boxes</text>
</a>
</g>
<!-- Node30&#45;&gt;Node31 -->
<g id="edge78" class="edge"><title>Node30&#45;&gt;Node31</title>
<path fill="none" stroke="midnightblue" d="M1895.75,-81C1905.11,-81 1914.17,-81 1921.86,-81"/>
<polygon fill="midnightblue" stroke="midnightblue" points="1895.51,-77.5001 1885.51,-81 1895.51,-84.5001 1895.51,-77.5001"/>
</g>
<!-- Node32 -->
<g id="node72" class="node"><title>Node32</title>
<a xlink:href="_m_a_i_n__avec__objets_8cpp.html#ade8d4ba65d55c94f8ee277829d722155" target="_top" xlink:title="main_actions_on_screen">
<polygon fill="white" stroke="black" points="2002.5,-69 2002.5,-93 2127.5,-93 2127.5,-69 2002.5,-69"/>
<text text-anchor="middle" x="2065" y="-80" font-family="Helvetica,sans-Serif" font-size="10.00">main_actions_on_screen</text>
</a>
</g>
<!-- Node31&#45;&gt;Node32 -->
<g id="edge80" class="edge"><title>Node31&#45;&gt;Node32</title>
<path fill="none" stroke="midnightblue" d="M1976.24,-81C1984.32,-81 1993.26,-81 2002.27,-81"/>
<polygon fill="midnightblue" stroke="midnightblue" points="1976.19,-77.5001 1966.19,-81 1976.19,-84.5001 1976.19,-77.5001"/>
</g>
<!-- Node32&#45;&gt;Node6 -->
<g id="edge82" class="edge"><title>Node32&#45;&gt;Node6</title>
<path fill="none" stroke="midnightblue" d="M2110.38,-97.3566C2116.49,-100.233 2122.52,-103.456 2128,-107 2145.43,-118.281 2162.3,-135.445 2172.65,-146.933"/>
<polygon fill="midnightblue" stroke="midnightblue" points="2111.36,-93.965 2100.8,-93.126 2108.54,-100.368 2111.36,-93.965"/>
</g>
<!-- Node33&#45;&gt;Node8 -->
<g id="edge86" class="edge"><title>Node33&#45;&gt;Node8</title>
<path fill="none" stroke="midnightblue" d="M660.106,-295C671.511,-295 683.286,-295 694.478,-295"/>
<polygon fill="midnightblue" stroke="midnightblue" points="659.763,-291.5 649.763,-295 659.763,-298.5 659.763,-291.5"/>
</g>
<!-- Node34&#45;&gt;Node31 -->
<g id="edge92" class="edge"><title>Node34&#45;&gt;Node31</title>
<path fill="none" stroke="midnightblue" d="M1508.07,-20.646C1593.57,-22.6576 1753.38,-30.4655 1886,-60 1898.13,-62.7004 1911.17,-67.2653 1921.81,-71.4506"/>
<polygon fill="midnightblue" stroke="midnightblue" points="1508.09,-17.1457 1498.02,-20.4283 1507.94,-24.1441 1508.09,-17.1457"/>
</g>
</g>
</svg>
        <g id="navigator" transform="translate(0 0)" fill="#404254">
                <rect fill="#f2f5e9" fill-opacity="0.5" stroke="#606060" stroke-width=".5" x="0" y="0" width="60" height="60"/>
                <use id="zoomplus" xlink:href="#zoomPlus" x="17" y="9" onmousedown="handleZoom(evt,'in')"/>
                <use id="zoomminus" xlink:href="#zoomMin" x="42" y="9" onmousedown="handleZoom(evt,'out')"/>
                <use id="reset" xlink:href="#resetDef" x="30" y="36" onmousedown="handleReset()"/>
                <g id="arrowUp" xlink:href="#dirArrow" transform="translate(30 24)" onmousedown="handlePan(0,-1)">
                  <use xlink:href="#rim" fill="#404040">
                        <set attributeName="fill" to="#808080" begin="arrowUp.mouseover" end="arrowUp.mouseout"/>
                  </use>
                  <path fill="none" stroke="white" stroke-width="1.5" d="M0,-3.0v7 M-2.5,-0.5L0,-3.0L2.5,-0.5"/>
                </g>
                <g id="arrowRight" xlink:href="#dirArrow" transform="rotate(90) translate(36 -43)" onmousedown="handlePan(1,0)">
                  <use xlink:href="#rim" fill="#404040">
                        <set attributeName="fill" to="#808080" begin="arrowRight.mouseover" end="arrowRight.mouseout"/>
                  </use>
                  <path fill="none" stroke="white" stroke-width="1.5" d="M0,-3.0v7 M-2.5,-0.5L0,-3.0L2.5,-0.5"/>
                </g>
                <g id="arrowDown" xlink:href="#dirArrow" transform="rotate(180) translate(-30 -48)" onmousedown="handlePan(0,1)">
                  <use xlink:href="#rim" fill="#404040">
                        <set attributeName="fill" to="#808080" begin="arrowDown.mouseover" end="arrowDown.mouseout"/>
                  </use>
                  <path fill="none" stroke="white" stroke-width="1.5" d="M0,-3.0v7 M-2.5,-0.5L0,-3.0L2.5,-0.5"/>
                </g>
                <g id="arrowLeft" xlink:href="#dirArrow" transform="rotate(270) translate(-36 17)" onmousedown="handlePan(-1,0)">
                  <use xlink:href="#rim" fill="#404040">
                        <set attributeName="fill" to="#808080" begin="arrowLeft.mouseover" end="arrowLeft.mouseout"/>
                  </use>
                  <path fill="none" stroke="white" stroke-width="1.5" d="M0,-3.0v7 M-2.5,-0.5L0,-3.0L2.5,-0.5"/>
                </g>
        </g>
        <svg viewBox="0 0 15 15" width="100%" height="30px" preserveAspectRatio="xMaxYMin meet">
         <g id="arrow_out" transform="scale(0.3 0.3)">
          <a xlink:href="icat__core14_8cpp_ae03469250a821b30c7857d581c9b5abb_icgraph_org.svg" target="_base">
           <rect id="button" ry="5" rx="5" y="6" x="6" height="38" width="38"
                fill="#f2f5e9" fill-opacity="0.5" stroke="#606060" stroke-width="1.0"/>
           <path id="arrow"
             d="M 11.500037,31.436501 C 11.940474,20.09759 22.043105,11.32322 32.158766,21.979434 L 37.068811,17.246167 C 37.068811,17.246167 37.088388,32 37.088388,32 L 22.160133,31.978069 C 22.160133,31.978069 26.997745,27.140456 26.997745,27.140456 C 18.528582,18.264221 13.291696,25.230495 11.500037,31.436501 z"
             style="fill:#404040;"/>
          </a>
         </g>
        </svg>
</svg>
