<?xml version="1.0" encoding="UTF-8" standalone="no"?>
<!DOCTYPE svg PUBLIC "-//W3C//DTD SVG 1.1//EN"
 "http://www.w3.org/Graphics/SVG/1.1/DTD/svg11.dtd">
<!-- Generated by graphviz version 2.26.3 (20100126.1600)
 -->
<!-- Title: key_minus_ch Pages: 1 -->
<svg width="408pt" height="232pt"
 viewBox="0.00 0.00 408.00 232.00" xmlns="http://www.w3.org/2000/svg" xmlns:xlink="http://www.w3.org/1999/xlink">
<g id="graph1" class="graph" transform="scale(1 1) rotate(0) translate(4 228)">
<title>key_minus_ch</title>
<polygon fill="white" stroke="white" points="-4,5 -4,-228 405,-228 405,5 -4,5"/>
<!-- Node1 -->
<g id="node1" class="node"><title>Node1</title>
<polygon fill="#bfbfbf" stroke="black" points="0,-108 0,-132 80,-132 80,-108 0,-108"/>
<text text-anchor="middle" x="40" y="-119" font-family="Helvetica,sans-Serif" font-size="10.00">key_minus_ch</text>
</g>
<!-- Node2 -->
<g id="node3" class="node"><title>Node2</title>
<a xlink:href="_c_o_r_e__6_8cpp.html#a852678868d2a66db68f4a2c9eacfcc78" target="_top" xlink:title="reset_numeric_entry">
<polygon fill="white" stroke="black" points="133.5,-200 133.5,-224 238.5,-224 238.5,-200 133.5,-200"/>
<text text-anchor="middle" x="186" y="-211" font-family="Helvetica,sans-Serif" font-size="10.00">reset_numeric_entry</text>
</a>
</g>
<!-- Node1&#45;&gt;Node2 -->
<g id="edge2" class="edge"><title>Node1&#45;&gt;Node2</title>
<path fill="none" stroke="midnightblue" d="M49.7818,-132.099C63.1464,-147.861 88.6005,-175.26 116,-191 119.215,-192.847 122.607,-194.545 126.095,-196.106"/>
<polygon fill="midnightblue" stroke="midnightblue" points="124.913,-199.403 135.496,-199.92 127.545,-192.917 124.913,-199.403"/>
</g>
<!-- Node3 -->
<g id="node5" class="node"><title>Node3</title>
<a xlink:href="_c_o_r_e__6_8cpp.html#a7a305990bfcccbbd39386b5d4e5d40b9" target="_top" xlink:title="set_patch_scroll">
<polygon fill="white" stroke="black" points="142,-158 142,-182 230,-182 230,-158 142,-158"/>
<text text-anchor="middle" x="186" y="-169" font-family="Helvetica,sans-Serif" font-size="10.00">set_patch_scroll</text>
</a>
</g>
<!-- Node1&#45;&gt;Node3 -->
<g id="edge4" class="edge"><title>Node1&#45;&gt;Node3</title>
<path fill="none" stroke="midnightblue" d="M70.1413,-132.082C84.0207,-137.496 100.759,-143.814 116,-149 121.912,-151.012 128.138,-153.026 134.339,-154.968"/>
<polygon fill="midnightblue" stroke="midnightblue" points="133.427,-158.349 144.014,-157.948 135.488,-151.659 133.427,-158.349"/>
</g>
<!-- Node4 -->
<g id="node7" class="node"><title>Node4</title>
<a xlink:href="_c_o_r_e__6_8cpp.html#a7cadb552191a09a09e8844e4c1099b61" target="_top" xlink:title="check_presence_of_a\l_channel_in_views">
<polygon fill="white" stroke="black" points="130,-100 130,-140 242,-140 242,-100 130,-100"/>
<text text-anchor="start" x="138" y="-127" font-family="Helvetica,sans-Serif" font-size="10.00">check_presence_of_a</text>
<text text-anchor="middle" x="186" y="-111" font-family="Helvetica,sans-Serif" font-size="10.00">_channel_in_views</text>
</a>
</g>
<!-- Node1&#45;&gt;Node4 -->
<g id="edge6" class="edge"><title>Node1&#45;&gt;Node4</title>
<path fill="none" stroke="midnightblue" d="M80.2816,-120C92.4557,-120 106.16,-120 119.567,-120"/>
<polygon fill="midnightblue" stroke="midnightblue" points="119.731,-123.5 129.731,-120 119.731,-116.5 119.731,-123.5"/>
</g>
<!-- Node5 -->
<g id="node9" class="node"><title>Node5</title>
<a xlink:href="_c_o_r_e__6_8cpp.html#a08d71e04855f7642fff10b3d45f7b39e" target="_top" xlink:title="set_channel_scroll">
<polygon fill="white" stroke="black" points="137,-58 137,-82 235,-82 235,-58 137,-58"/>
<text text-anchor="middle" x="186" y="-69" font-family="Helvetica,sans-Serif" font-size="10.00">set_channel_scroll</text>
</a>
</g>
<!-- Node1&#45;&gt;Node5 -->
<g id="edge8" class="edge"><title>Node1&#45;&gt;Node5</title>
<path fill="none" stroke="midnightblue" d="M70.1413,-107.918C84.0207,-102.504 100.759,-96.1863 116,-91 121.912,-88.9883 128.138,-86.9739 134.339,-85.0321"/>
<polygon fill="midnightblue" stroke="midnightblue" points="135.488,-88.3407 144.014,-82.0516 133.427,-81.6509 135.488,-88.3407"/>
</g>
<!-- Node7 -->
<g id="node13" class="node"><title>Node7</title>
<a xlink:href="plot_8cpp.html#a62a28f2a197fa1c11db6a93e2dae6362" target="_top" xlink:title="substract_channel_selection\l_to_layers_plot">
<polygon fill="white" stroke="black" points="116,-0 116,-40 256,-40 256,-0 116,-0"/>
<text text-anchor="start" x="124" y="-27" font-family="Helvetica,sans-Serif" font-size="10.00">substract_channel_selection</text>
<text text-anchor="middle" x="186" y="-11" font-family="Helvetica,sans-Serif" font-size="10.00">_to_layers_plot</text>
</a>
</g>
<!-- Node1&#45;&gt;Node7 -->
<g id="edge12" class="edge"><title>Node1&#45;&gt;Node7</title>
<path fill="none" stroke="midnightblue" d="M50.5041,-107.783C64.2618,-92.3903 89.7362,-65.9114 116,-49 118.177,-47.5979 120.434,-46.24 122.745,-44.9277"/>
<polygon fill="midnightblue" stroke="midnightblue" points="124.671,-47.8679 131.871,-40.0956 121.396,-41.6814 124.671,-47.8679"/>
</g>
<!-- Node6 -->
<g id="node11" class="node"><title>Node6</title>
<a xlink:href="_c_o_r_e__6_8cpp.html#a98e71a49462cd163ce5236edcf7d3a7d" target="_top" xlink:title="check_wich_channel\l_is_in_view">
<polygon fill="white" stroke="black" points="292.5,-50 292.5,-90 399.5,-90 399.5,-50 292.5,-50"/>
<text text-anchor="start" x="300.5" y="-77" font-family="Helvetica,sans-Serif" font-size="10.00">check_wich_channel</text>
<text text-anchor="middle" x="346" y="-61" font-family="Helvetica,sans-Serif" font-size="10.00">_is_in_view</text>
</a>
</g>
<!-- Node5&#45;&gt;Node6 -->
<g id="edge10" class="edge"><title>Node5&#45;&gt;Node6</title>
<path fill="none" stroke="midnightblue" d="M235.311,-70C250.149,-70 266.648,-70 282.28,-70"/>
<polygon fill="midnightblue" stroke="midnightblue" points="282.402,-73.5001 292.402,-70 282.402,-66.5001 282.402,-73.5001"/>
</g>
</g>
</svg>
