<?xml version="1.0" encoding="UTF-8" standalone="no"?>
<!DOCTYPE svg PUBLIC "-//W3C//DTD SVG 1.1//EN"
 "http://www.w3.org/Graphics/SVG/1.1/DTD/svg11.dtd">
<!-- Generated by graphviz version 2.26.3 (20100126.1600)
 -->
<!-- Title: check_channel_plus Pages: 1 -->
<svg width="538pt" height="32pt"
 viewBox="0.00 0.00 538.00 32.00" xmlns="http://www.w3.org/2000/svg" xmlns:xlink="http://www.w3.org/1999/xlink">
<g id="graph1" class="graph" transform="scale(1 1) rotate(0) translate(4 28)">
<title>check_channel_plus</title>
<polygon fill="white" stroke="white" points="-4,5 -4,-28 535,-28 535,5 -4,5"/>
<!-- Node1 -->
<g id="node1" class="node"><title>Node1</title>
<polygon fill="#bfbfbf" stroke="black" points="0.5,-0 0.5,-24 105.5,-24 105.5,-0 0.5,-0"/>
<text text-anchor="middle" x="53" y="-11" font-family="Helvetica,sans-Serif" font-size="10.00">check_channel_plus</text>
</g>
<!-- Node2 -->
<g id="node3" class="node"><title>Node2</title>
<a xlink:href="keyboard__functions2_8cpp.html#a026fb5d0426005247d9f1037553d212a" target="_top" xlink:title="key_right">
<polygon fill="white" stroke="black" points="142,-0 142,-24 198,-24 198,-0 142,-0"/>
<text text-anchor="middle" x="170" y="-11" font-family="Helvetica,sans-Serif" font-size="10.00">key_right</text>
</a>
</g>
<!-- Node1&#45;&gt;Node2 -->
<g id="edge2" class="edge"><title>Node1&#45;&gt;Node2</title>
<path fill="none" stroke="midnightblue" d="M115.964,-12C125.059,-12 134.009,-12 141.928,-12"/>
<polygon fill="midnightblue" stroke="midnightblue" points="115.681,-8.5001 105.681,-12 115.681,-15.5001 115.681,-8.5001"/>
</g>
<!-- Node3 -->
<g id="node5" class="node"><title>Node3</title>
<a xlink:href="keyboard__routines2_8cpp.html#a8563320b8eab661232619224650de244" target="_top" xlink:title="commandes_clavier">
<polygon fill="white" stroke="black" points="234,-0 234,-24 338,-24 338,-0 234,-0"/>
<text text-anchor="middle" x="286" y="-11" font-family="Helvetica,sans-Serif" font-size="10.00">commandes_clavier</text>
</a>
</g>
<!-- Node2&#45;&gt;Node3 -->
<g id="edge4" class="edge"><title>Node2&#45;&gt;Node3</title>
<path fill="none" stroke="midnightblue" d="M208.348,-12C216.46,-12 225.155,-12 233.684,-12"/>
<polygon fill="midnightblue" stroke="midnightblue" points="208.08,-8.5001 198.08,-12 208.08,-15.5001 208.08,-8.5001"/>
</g>
<!-- Node4 -->
<g id="node7" class="node"><title>Node4</title>
<a xlink:href="_m_a_i_n__avec__objets_8cpp.html#a8e80f54ac804eddce8ed6e45adb1db44" target="_top" xlink:title="ticker_full_loop">
<polygon fill="white" stroke="black" points="374,-0 374,-24 456,-24 456,-0 374,-0"/>
<text text-anchor="middle" x="415" y="-11" font-family="Helvetica,sans-Serif" font-size="10.00">ticker_full_loop</text>
</a>
</g>
<!-- Node3&#45;&gt;Node4 -->
<g id="edge6" class="edge"><title>Node3&#45;&gt;Node4</title>
<path fill="none" stroke="midnightblue" d="M348.228,-12C356.912,-12 365.651,-12 373.814,-12"/>
<polygon fill="midnightblue" stroke="midnightblue" points="348.097,-8.5001 338.097,-12 348.097,-15.5001 348.097,-8.5001"/>
</g>
<!-- Node5 -->
<g id="node9" class="node"><title>Node5</title>
<a xlink:href="_m_a_i_n__avec__objets_8cpp.html#ae66f6b31b5ad750f1fe042a706a4e3d4" target="_top" xlink:title="main">
<polygon fill="white" stroke="black" points="492,-0 492,-24 530,-24 530,-0 492,-0"/>
<text text-anchor="middle" x="511" y="-11" font-family="Helvetica,sans-Serif" font-size="10.00">main</text>
</a>
</g>
<!-- Node4&#45;&gt;Node5 -->
<g id="edge8" class="edge"><title>Node4&#45;&gt;Node5</title>
<path fill="none" stroke="midnightblue" d="M466.509,-12C475.577,-12 484.476,-12 491.904,-12"/>
<polygon fill="midnightblue" stroke="midnightblue" points="466.27,-8.5001 456.27,-12 466.27,-15.5001 466.27,-8.5001"/>
</g>
</g>
</svg>
