<?xml version="1.0" encoding="UTF-8" standalone="no"?>
<!DOCTYPE svg PUBLIC "-//W3C//DTD SVG 1.1//EN"
 "http://www.w3.org/Graphics/SVG/1.1/DTD/svg11.dtd">
<!-- Generated by graphviz version 2.26.3 (20100126.1600)
 -->
<!-- Title: key_full Pages: 1 -->
<svg width="390pt" height="32pt"
 viewBox="0.00 0.00 390.00 32.00" xmlns="http://www.w3.org/2000/svg" xmlns:xlink="http://www.w3.org/1999/xlink">
<g id="graph1" class="graph" transform="scale(1 1) rotate(0) translate(4 28)">
<title>key_full</title>
<polygon fill="white" stroke="white" points="-4,5 -4,-28 387,-28 387,5 -4,5"/>
<!-- Node1 -->
<g id="node1" class="node"><title>Node1</title>
<polygon fill="#bfbfbf" stroke="black" points="0,-0 0,-24 50,-24 50,-0 0,-0"/>
<text text-anchor="middle" x="25" y="-11" font-family="Helvetica,sans-Serif" font-size="10.00">key_full</text>
</g>
<!-- Node2 -->
<g id="node3" class="node"><title>Node2</title>
<a xlink:href="keyboard__routines2_8cpp.html#a8563320b8eab661232619224650de244" target="_top" xlink:title="commandes_clavier">
<polygon fill="white" stroke="black" points="86,-0 86,-24 190,-24 190,-0 86,-0"/>
<text text-anchor="middle" x="138" y="-11" font-family="Helvetica,sans-Serif" font-size="10.00">commandes_clavier</text>
</a>
</g>
<!-- Node1&#45;&gt;Node2 -->
<g id="edge2" class="edge"><title>Node1&#45;&gt;Node2</title>
<path fill="none" stroke="midnightblue" d="M60.2335,-12C68.3074,-12 77.0596,-12 85.6813,-12"/>
<polygon fill="midnightblue" stroke="midnightblue" points="60.0784,-8.5001 50.0784,-12 60.0783,-15.5001 60.0784,-8.5001"/>
</g>
<!-- Node3 -->
<g id="node5" class="node"><title>Node3</title>
<a xlink:href="_m_a_i_n__avec__objets_8cpp.html#a8e80f54ac804eddce8ed6e45adb1db44" target="_top" xlink:title="ticker_full_loop">
<polygon fill="white" stroke="black" points="226,-0 226,-24 308,-24 308,-0 226,-0"/>
<text text-anchor="middle" x="267" y="-11" font-family="Helvetica,sans-Serif" font-size="10.00">ticker_full_loop</text>
</a>
</g>
<!-- Node2&#45;&gt;Node3 -->
<g id="edge4" class="edge"><title>Node2&#45;&gt;Node3</title>
<path fill="none" stroke="midnightblue" d="M200.228,-12C208.912,-12 217.651,-12 225.814,-12"/>
<polygon fill="midnightblue" stroke="midnightblue" points="200.097,-8.5001 190.097,-12 200.097,-15.5001 200.097,-8.5001"/>
</g>
<!-- Node4 -->
<g id="node7" class="node"><title>Node4</title>
<a xlink:href="_m_a_i_n__avec__objets_8cpp.html#ae66f6b31b5ad750f1fe042a706a4e3d4" target="_top" xlink:title="main">
<polygon fill="white" stroke="black" points="344,-0 344,-24 382,-24 382,-0 344,-0"/>
<text text-anchor="middle" x="363" y="-11" font-family="Helvetica,sans-Serif" font-size="10.00">main</text>
</a>
</g>
<!-- Node3&#45;&gt;Node4 -->
<g id="edge6" class="edge"><title>Node3&#45;&gt;Node4</title>
<path fill="none" stroke="midnightblue" d="M318.509,-12C327.577,-12 336.476,-12 343.904,-12"/>
<polygon fill="midnightblue" stroke="midnightblue" points="318.27,-8.5001 308.27,-12 318.27,-15.5001 318.27,-8.5001"/>
</g>
</g>
</svg>
