<?xml version="1.0" encoding="UTF-8" standalone="no"?>
<!DOCTYPE svg PUBLIC "-//W3C//DTD SVG 1.1//EN"
 "http://www.w3.org/Graphics/SVG/1.1/DTD/svg11.dtd">
<!-- Generated by graphviz version 2.26.3 (20100126.1600)
 -->
<!-- Title: key_go Pages: 1 -->
<!--zoomable 1122 -->
<svg id="main" version="1.1" xmlns="http://www.w3.org/2000/svg" xmlns:xlink="http://www.w3.org/1999/xlink" xml:space="preserve" onload="init(evt)">
<style type="text/css"><![CDATA[
.edge:hover path { stroke: red; }
.edge:hover polygon { stroke: red; fill: red; }
]]></style>
<script type="text/javascript"><![CDATA[
var edges = document.getElementsByTagName('g');
if (edges && edges.length) {
  for (var i=0;i<edges.length;i++) {
    if (edges[i].id.substr(0,4)=='edge') {
      edges[i].setAttribute('class','edge');
    }
  }
}
]]></script>
        <defs>
                <circle id="rim" cx="0" cy="0" r="7"/>
                <circle id="rim2" cx="0" cy="0" r="3.5"/>
                <g id="zoomPlus">
                        <use xlink:href="#rim" fill="#404040">
                                <set attributeName="fill" to="#808080" begin="zoomplus.mouseover" end="zoomplus.mouseout"/>
                        </use>
                        <path d="M-4,0h8M0,-4v8" fill="none" stroke="white" stroke-width="1.5" pointer-events="none"/>
                </g>
                <g id="zoomMin">
                        <use xlink:href="#rim" fill="#404040">
                                <set attributeName="fill" to="#808080" begin="zoomminus.mouseover" end="zoomminus.mouseout"/>
                        </use>
                        <path d="M-4,0h8" fill="none" stroke="white" stroke-width="1.5" pointer-events="none"/>
                </g>
                <g id="dirArrow">
                        <path fill="none" stroke="white" stroke-width="1.5" d="M0,-3.0v7 M-2.5,-0.5L0,-3.0L2.5,-0.5"/>
                </g>
               <g id="resetDef">
                       <use xlink:href="#rim2" fill="#404040">
                               <set attributeName="fill" to="#808080" begin="reset.mouseover" end="reset.mouseout"/>
                       </use>
               </g>
        </defs>

<script type="text/javascript">
var viewWidth = 832;
var viewHeight = 1122;
var sectionId = 'dynsection-19';
</script>
<script xlink:href="svgpan.js"/>
<svg id="graph" class="graph">
<g id="viewport">
<title>key_go</title>
<polygon fill="white" stroke="white" points="-4,5 -4,-1117.95 829,-1117.95 829,5 -4,5"/>
<!-- Node1 -->
<g id="node1" class="node"><title>Node1</title>
<polygon fill="#bfbfbf" stroke="black" points="0,-830.643 0,-854.643 48,-854.643 48,-830.643 0,-830.643"/>
<text text-anchor="middle" x="24" y="-841.643" font-family="Helvetica,sans-Serif" font-size="10.00">key_go</text>
</g>
<!-- Node2 -->
<g id="node3" class="node"><title>Node2</title>
<a xlink:href="_c_o_r_e__6_8cpp.html#a727c508c955b8c290ab136ab41e97d2c" target="_top" xlink:title="do_go_back_function">
<polygon fill="white" stroke="black" points="219.5,-1045.64 219.5,-1069.64 328.5,-1069.64 328.5,-1045.64 219.5,-1045.64"/>
<text text-anchor="middle" x="274" y="-1056.64" font-family="Helvetica,sans-Serif" font-size="10.00">do_go_back_function</text>
</a>
</g>
<!-- Node1&#45;&gt;Node2 -->
<g id="edge2" class="edge"><title>Node1&#45;&gt;Node2</title>
<path fill="none" stroke="midnightblue" d="M33.0679,-854.708C44.2523,-869.219 64.2211,-893.956 84,-912.643 137.892,-963.559 209.112,-1014.04 247.219,-1039.88"/>
<polygon fill="midnightblue" stroke="midnightblue" points="245.471,-1042.93 255.719,-1045.61 249.383,-1037.12 245.471,-1042.93"/>
</g>
<!-- Node7 -->
<g id="node13" class="node"><title>Node7</title>
<a xlink:href="banger__core__8_8cpp.html#a790bd34b44c1055de586eb9f279b3b3e" target="_top" xlink:title="do_go_back_bang">
<polygon fill="white" stroke="black" points="84.5,-572.643 84.5,-596.643 179.5,-596.643 179.5,-572.643 84.5,-572.643"/>
<text text-anchor="middle" x="132" y="-583.643" font-family="Helvetica,sans-Serif" font-size="10.00">do_go_back_bang</text>
</a>
</g>
<!-- Node1&#45;&gt;Node7 -->
<g id="edge12" class="edge"><title>Node1&#45;&gt;Node7</title>
<path fill="none" stroke="midnightblue" d="M29.0642,-830.545C46.0713,-789.917 101.291,-658.003 123.06,-605.999"/>
<polygon fill="midnightblue" stroke="midnightblue" points="126.314,-607.29 126.947,-596.714 119.857,-604.587 126.314,-607.29"/>
</g>
<!-- Node35 -->
<g id="node77" class="node"><title>Node35</title>
<a xlink:href="_c_o_r_e__6_8cpp.html#a3f79baaac498a118cee794775ff1781e" target="_top" xlink:title="do_double_go_function">
<polygon fill="white" stroke="black" points="216,-960.643 216,-984.643 332,-984.643 332,-960.643 216,-960.643"/>
<text text-anchor="middle" x="274" y="-971.643" font-family="Helvetica,sans-Serif" font-size="10.00">do_double_go_function</text>
</a>
</g>
<!-- Node1&#45;&gt;Node35 -->
<g id="edge84" class="edge"><title>Node1&#45;&gt;Node35</title>
<path fill="none" stroke="midnightblue" d="M47.5194,-854.873C92.4899,-878.258 190.727,-929.341 241.768,-955.882"/>
<polygon fill="midnightblue" stroke="midnightblue" points="240.238,-959.032 250.725,-960.54 243.468,-952.821 240.238,-959.032"/>
</g>
<!-- Node38 -->
<g id="node87" class="node"><title>Node38</title>
<a xlink:href="banger__core__8_8cpp.html#afa98bbdb588f29b8fc94df9f7754f05f" target="_top" xlink:title="do_send_bang">
<polygon fill="white" stroke="black" points="92,-774.643 92,-798.643 172,-798.643 172,-774.643 92,-774.643"/>
<text text-anchor="middle" x="132" y="-785.643" font-family="Helvetica,sans-Serif" font-size="10.00">do_send_bang</text>
</a>
</g>
<!-- Node1&#45;&gt;Node38 -->
<g id="edge98" class="edge"><title>Node1&#45;&gt;Node38</title>
<path fill="none" stroke="midnightblue" d="M47.1687,-830.629C62.4391,-822.711 82.6563,-812.228 99.5236,-803.482"/>
<polygon fill="midnightblue" stroke="midnightblue" points="101.231,-806.54 108.497,-798.83 98.0083,-800.326 101.231,-806.54"/>
</g>
<!-- Node41 -->
<g id="node94" class="node"><title>Node41</title>
<a xlink:href="_c_o_r_e__6_8cpp.html#a725f41ccb23fb27040531d4bf9966f0a" target="_top" xlink:title="do_go_function">
<polygon fill="white" stroke="black" points="90.5,-830.643 90.5,-854.643 173.5,-854.643 173.5,-830.643 90.5,-830.643"/>
<text text-anchor="middle" x="132" y="-841.643" font-family="Helvetica,sans-Serif" font-size="10.00">do_go_function</text>
</a>
</g>
<!-- Node1&#45;&gt;Node41 -->
<g id="edge106" class="edge"><title>Node1&#45;&gt;Node41</title>
<path fill="none" stroke="midnightblue" d="M48.2373,-842.643C57.7604,-842.643 69.0793,-842.643 80.2682,-842.643"/>
<polygon fill="midnightblue" stroke="midnightblue" points="80.452,-846.143 90.4519,-842.643 80.4519,-839.143 80.452,-846.143"/>
</g>
<!-- Node3 -->
<g id="node5" class="node"><title>Node3</title>
<a xlink:href="_c_o_r_e__6_8cpp.html#a68c3767f8e350737e991a726e0ef1438" target="_top" xlink:title="refresh_mem_onpreset">
<polygon fill="white" stroke="black" points="377,-1066.64 377,-1090.64 493,-1090.64 493,-1066.64 377,-1066.64"/>
<text text-anchor="middle" x="435" y="-1077.64" font-family="Helvetica,sans-Serif" font-size="10.00">refresh_mem_onpreset</text>
</a>
</g>
<!-- Node2&#45;&gt;Node3 -->
<g id="edge4" class="edge"><title>Node2&#45;&gt;Node3</title>
<path fill="none" stroke="midnightblue" d="M328.507,-1064.75C340.816,-1066.36 354.034,-1068.08 366.825,-1069.75"/>
<polygon fill="midnightblue" stroke="midnightblue" points="366.599,-1073.25 376.968,-1071.07 367.504,-1066.31 366.599,-1073.25"/>
</g>
<!-- Node4 -->
<g id="node7" class="node"><title>Node4</title>
<a xlink:href="_c_o_r_e__6_8cpp.html#a5c17b7c708caee1d7ff53ba997ad0d83" target="_top" xlink:title="prepare_crossfade">
<polygon fill="white" stroke="black" points="386.5,-1024.64 386.5,-1048.64 483.5,-1048.64 483.5,-1024.64 386.5,-1024.64"/>
<text text-anchor="middle" x="435" y="-1035.64" font-family="Helvetica,sans-Serif" font-size="10.00">prepare_crossfade</text>
</a>
</g>
<!-- Node2&#45;&gt;Node4 -->
<g id="edge6" class="edge"><title>Node2&#45;&gt;Node4</title>
<path fill="none" stroke="midnightblue" d="M328.507,-1050.53C343.923,-1048.52 360.763,-1046.33 376.408,-1044.29"/>
<polygon fill="midnightblue" stroke="midnightblue" points="377.027,-1047.73 386.49,-1042.97 376.121,-1040.79 377.027,-1047.73"/>
</g>
<!-- Node5 -->
<g id="node9" class="node"><title>Node5</title>
<a xlink:href="grider__calculs8_8cpp.html#aa5e2775d1f19c4fddd0e6ed08b511e96" target="_top" xlink:title="gridder_prepare_cross">
<polygon fill="white" stroke="black" points="549.5,-936.643 549.5,-960.643 662.5,-960.643 662.5,-936.643 549.5,-936.643"/>
<text text-anchor="middle" x="606" y="-947.643" font-family="Helvetica,sans-Serif" font-size="10.00">gridder_prepare_cross</text>
</a>
</g>
<!-- Node2&#45;&gt;Node5 -->
<g id="edge8" class="edge"><title>Node2&#45;&gt;Node5</title>
<path fill="none" stroke="midnightblue" d="M294.512,-1069.7C336.108,-1092.45 432.344,-1136.25 502,-1099.64 554.094,-1072.27 585.185,-1005.68 598.441,-970.794"/>
<polygon fill="midnightblue" stroke="midnightblue" points="601.851,-971.657 601.985,-961.063 595.274,-969.262 601.851,-971.657"/>
</g>
<!-- Node6 -->
<g id="node11" class="node"><title>Node6</title>
<a xlink:href="grider__calculs8_8cpp.html#aa649acadfb5dcef5c313de19ddcb2290" target="_top" xlink:title="affichage_time_format">
<polygon fill="white" stroke="black" points="710.5,-936.643 710.5,-960.643 823.5,-960.643 823.5,-936.643 710.5,-936.643"/>
<text text-anchor="middle" x="767" y="-947.643" font-family="Helvetica,sans-Serif" font-size="10.00">affichage_time_format</text>
</a>
</g>
<!-- Node5&#45;&gt;Node6 -->
<g id="edge10" class="edge"><title>Node5&#45;&gt;Node6</title>
<path fill="none" stroke="midnightblue" d="M662.763,-948.643C674.857,-948.643 687.737,-948.643 700.169,-948.643"/>
<polygon fill="midnightblue" stroke="midnightblue" points="700.479,-952.143 710.479,-948.643 700.479,-945.143 700.479,-952.143"/>
</g>
<!-- Node8 -->
<g id="node15" class="node"><title>Node8</title>
<a xlink:href="banger__core__8_8cpp.html#a29583c84f980616502ac7c4f99e1bc29" target="_top" xlink:title="Bang_event_back">
<polygon fill="white" stroke="black" points="226.5,-467.643 226.5,-491.643 321.5,-491.643 321.5,-467.643 226.5,-467.643"/>
<text text-anchor="middle" x="274" y="-478.643" font-family="Helvetica,sans-Serif" font-size="10.00">Bang_event_back</text>
</a>
</g>
<!-- Node7&#45;&gt;Node8 -->
<g id="edge14" class="edge"><title>Node7&#45;&gt;Node8</title>
<path fill="none" stroke="midnightblue" d="M148.289,-572.598C172.981,-554.34 220.071,-519.52 249.084,-498.066"/>
<polygon fill="midnightblue" stroke="midnightblue" points="251.504,-500.63 257.463,-491.871 247.342,-495.002 251.504,-500.63"/>
</g>
<!-- Node9 -->
<g id="node17" class="node"><title>Node9</title>
<a xlink:href="_c_o_r_e__6_8cpp.html#a1d69e941ecabe5dd73d0b108627b21d6" target="_top" xlink:title="detect_dock_used">
<polygon fill="white" stroke="black" points="558,-740.643 558,-764.643 654,-764.643 654,-740.643 558,-740.643"/>
<text text-anchor="middle" x="606" y="-751.643" font-family="Helvetica,sans-Serif" font-size="10.00">detect_dock_used</text>
</a>
</g>
<!-- Node8&#45;&gt;Node9 -->
<g id="edge16" class="edge"><title>Node8&#45;&gt;Node9</title>
<path fill="none" stroke="midnightblue" d="M275.898,-491.749C282.11,-527.22 305.168,-631.794 368,-685.643 368.904,-686.418 482.997,-718.335 552.866,-737.832"/>
<polygon fill="midnightblue" stroke="midnightblue" points="552.262,-741.297 562.835,-740.613 554.144,-734.554 552.262,-741.297"/>
</g>
<!-- Node10 -->
<g id="node19" class="node"><title>Node10</title>
<a xlink:href="faders__operations_8cpp.html#ad2bcaffecd9b01aee13cb557da2ab705" target="_top" xlink:title="Unselect_other_docks">
<polygon fill="white" stroke="black" points="378,-652.643 378,-676.643 492,-676.643 492,-652.643 378,-652.643"/>
<text text-anchor="middle" x="435" y="-663.643" font-family="Helvetica,sans-Serif" font-size="10.00">Unselect_other_docks</text>
</a>
</g>
<!-- Node8&#45;&gt;Node10 -->
<g id="edge18" class="edge"><title>Node8&#45;&gt;Node10</title>
<path fill="none" stroke="midnightblue" d="M278.036,-491.851C288.339,-521.227 318.359,-596.531 368,-638.643 372.222,-642.225 376.994,-645.346 381.997,-648.059"/>
<polygon fill="midnightblue" stroke="midnightblue" points="380.66,-651.3 391.186,-652.512 383.713,-645.001 380.66,-651.3"/>
</g>
<!-- Node11 -->
<g id="node21" class="node"><title>Node11</title>
<a xlink:href="faders__core__24_8cpp.html#af5590fbbb7ec3390b51704c3c04c640d" target="_top" xlink:title="asservissement_gridplayer">
<polygon fill="white" stroke="black" points="368.5,-790.643 368.5,-814.643 501.5,-814.643 501.5,-790.643 368.5,-790.643"/>
<text text-anchor="middle" x="435" y="-801.643" font-family="Helvetica,sans-Serif" font-size="10.00">asservissement_gridplayer</text>
</a>
</g>
<!-- Node8&#45;&gt;Node11 -->
<g id="edge20" class="edge"><title>Node8&#45;&gt;Node11</title>
<path fill="none" stroke="midnightblue" d="M276.255,-491.926C285.874,-543.075 324.943,-738.501 368,-781.643 369.103,-782.748 370.264,-783.796 371.474,-784.788"/>
<polygon fill="midnightblue" stroke="midnightblue" points="369.824,-787.897 380.076,-790.572 373.73,-782.088 369.824,-787.897"/>
</g>
<!-- Node12 -->
<g id="node24" class="node"><title>Node12</title>
<a xlink:href="_c_o_r_e__6_8cpp.html#a9574e0b790211959c7398e42468410d8" target="_top" xlink:title="toggle">
<polygon fill="white" stroke="black" points="584.5,-698.643 584.5,-722.643 627.5,-722.643 627.5,-698.643 584.5,-698.643"/>
<text text-anchor="middle" x="606" y="-709.643" font-family="Helvetica,sans-Serif" font-size="10.00">toggle</text>
</a>
</g>
<!-- Node8&#45;&gt;Node12 -->
<g id="edge24" class="edge"><title>Node8&#45;&gt;Node12</title>
<path fill="none" stroke="midnightblue" d="M279.621,-491.776C291.925,-516.972 323.72,-575.148 368,-605.643 418.984,-640.754 450.615,-609.123 502,-643.643 523.55,-658.12 516.62,-674.917 538,-689.643 548.812,-697.089 562.362,-701.972 574.516,-705.136"/>
<polygon fill="midnightblue" stroke="midnightblue" points="573.773,-708.557 584.306,-707.409 575.356,-701.738 573.773,-708.557"/>
</g>
<!-- Node13 -->
<g id="node26" class="node"><title>Node13</title>
<a xlink:href="_c_o_r_e__6_8cpp.html#a66525c797b7c3a7c5359c87f0094876c" target="_top" xlink:title="do_recall_fadersstate">
<polygon fill="white" stroke="black" points="380,-530.643 380,-554.643 490,-554.643 490,-530.643 380,-530.643"/>
<text text-anchor="middle" x="435" y="-541.643" font-family="Helvetica,sans-Serif" font-size="10.00">do_recall_fadersstate</text>
</a>
</g>
<!-- Node8&#45;&gt;Node13 -->
<g id="edge26" class="edge"><title>Node8&#45;&gt;Node13</title>
<path fill="none" stroke="midnightblue" d="M298.804,-491.678C317.567,-500.547 344.096,-512.592 368,-521.643 373.201,-523.612 378.677,-525.547 384.163,-527.396"/>
<polygon fill="midnightblue" stroke="midnightblue" points="383.402,-530.83 393.995,-530.622 385.585,-524.179 383.402,-530.83"/>
</g>
<!-- Node14 -->
<g id="node28" class="node"><title>Node14</title>
<a xlink:href="_c_o_r_e__6_8cpp.html#aa16450d858e0f6dfaa0be7a31adf4d15" target="_top" xlink:title="do_lock_preset">
<polygon fill="white" stroke="black" points="393.5,-572.643 393.5,-596.643 476.5,-596.643 476.5,-572.643 393.5,-572.643"/>
<text text-anchor="middle" x="435" y="-583.643" font-family="Helvetica,sans-Serif" font-size="10.00">do_lock_preset</text>
</a>
</g>
<!-- Node8&#45;&gt;Node14 -->
<g id="edge28" class="edge"><title>Node8&#45;&gt;Node14</title>
<path fill="none" stroke="midnightblue" d="M284.34,-491.71C300.465,-509.814 333.364,-543.972 368,-563.643 373.025,-566.497 378.486,-569.014 384.05,-571.221"/>
<polygon fill="midnightblue" stroke="midnightblue" points="382.858,-574.511 393.452,-574.647 385.255,-567.934 382.858,-574.511"/>
</g>
<!-- Node15 -->
<g id="node31" class="node"><title>Node15</title>
<a xlink:href="_c_o_r_e__6_8cpp.html#ad598ada3395937db3457ab6ee10dcdb7" target="_top" xlink:title="send_my_midi_note">
<polygon fill="white" stroke="black" points="383,-488.643 383,-512.643 487,-512.643 487,-488.643 383,-488.643"/>
<text text-anchor="middle" x="435" y="-499.643" font-family="Helvetica,sans-Serif" font-size="10.00">send_my_midi_note</text>
</a>
</g>
<!-- Node8&#45;&gt;Node15 -->
<g id="edge32" class="edge"><title>Node8&#45;&gt;Node15</title>
<path fill="none" stroke="midnightblue" d="M321.869,-485.887C337.759,-487.959 355.69,-490.298 372.515,-492.493"/>
<polygon fill="midnightblue" stroke="midnightblue" points="372.45,-496.014 382.819,-493.837 373.356,-489.072 372.45,-496.014"/>
</g>
<!-- Node16 -->
<g id="node33" class="node"><title>Node16</title>
<a xlink:href="gestionaire__fenetres2_8cpp.html#ada3b9703b1aaa1cc37304633bdeb526c" target="_top" xlink:title="add_a_window">
<polygon fill="white" stroke="black" points="394.5,-356.643 394.5,-380.643 475.5,-380.643 475.5,-356.643 394.5,-356.643"/>
<text text-anchor="middle" x="435" y="-367.643" font-family="Helvetica,sans-Serif" font-size="10.00">add_a_window</text>
</a>
</g>
<!-- Node8&#45;&gt;Node16 -->
<g id="edge34" class="edge"><title>Node8&#45;&gt;Node16</title>
<path fill="none" stroke="midnightblue" d="M291.536,-467.553C319.966,-447.952 376.249,-409.148 409.237,-386.405"/>
<polygon fill="midnightblue" stroke="midnightblue" points="411.239,-389.276 417.485,-380.718 407.266,-383.513 411.239,-389.276"/>
</g>
<!-- Node24 -->
<g id="node49" class="node"><title>Node24</title>
<a xlink:href="_c_o_r_e__6_8cpp.html#ad0ba084ac976c6a4d32088e939ee0dbc" target="_top" xlink:title="substract_a_window">
<polygon fill="white" stroke="black" points="382,-446.643 382,-470.643 488,-470.643 488,-446.643 382,-446.643"/>
<text text-anchor="middle" x="435" y="-457.643" font-family="Helvetica,sans-Serif" font-size="10.00">substract_a_window</text>
</a>
</g>
<!-- Node8&#45;&gt;Node24 -->
<g id="edge50" class="edge"><title>Node8&#45;&gt;Node24</title>
<path fill="none" stroke="midnightblue" d="M321.869,-473.399C337.529,-471.356 355.171,-469.055 371.782,-466.889"/>
<polygon fill="midnightblue" stroke="midnightblue" points="372.502,-470.324 381.965,-465.56 371.597,-463.383 372.502,-470.324"/>
</g>
<!-- Node29 -->
<g id="node61" class="node"><title>Node29</title>
<a xlink:href="_c_o_r_e__6_8cpp.html#a52e7364ba887cabb040c29b592557b6c" target="_top" xlink:title="load_etat_picker_dans\l_dockcolor">
<polygon fill="white" stroke="black" points="378,-298.643 378,-338.643 492,-338.643 492,-298.643 378,-298.643"/>
<text text-anchor="start" x="386" y="-325.643" font-family="Helvetica,sans-Serif" font-size="10.00">load_etat_picker_dans</text>
<text text-anchor="middle" x="435" y="-309.643" font-family="Helvetica,sans-Serif" font-size="10.00">_dockcolor</text>
</a>
</g>
<!-- Node8&#45;&gt;Node29 -->
<g id="edge64" class="edge"><title>Node8&#45;&gt;Node29</title>
<path fill="none" stroke="midnightblue" d="M279.811,-467.395C292.475,-441.879 324.913,-382.503 368,-347.643 369.515,-346.417 371.09,-345.234 372.711,-344.093"/>
<polygon fill="midnightblue" stroke="midnightblue" points="374.587,-347.048 381.154,-338.733 370.836,-341.138 374.587,-347.048"/>
</g>
<!-- Node30 -->
<g id="node63" class="node"><title>Node30</title>
<a xlink:href="audio__core5_8cpp.html#a441637bcca17a3226a6b3aadea1defe9" target="_top" xlink:title="AffectSoundFile">
<polygon fill="white" stroke="black" points="392,-88.6428 392,-112.643 478,-112.643 478,-88.6428 392,-88.6428"/>
<text text-anchor="middle" x="435" y="-99.6428" font-family="Helvetica,sans-Serif" font-size="10.00">AffectSoundFile</text>
</a>
</g>
<!-- Node8&#45;&gt;Node30 -->
<g id="edge66" class="edge"><title>Node8&#45;&gt;Node30</title>
<path fill="none" stroke="midnightblue" d="M274.671,-467.35C277.726,-421.334 293.603,-256.447 368,-149.643 376.815,-136.987 389.97,-126.35 402.295,-118.254"/>
<polygon fill="midnightblue" stroke="midnightblue" points="404.401,-121.066 411.049,-112.816 400.707,-115.12 404.401,-121.066"/>
</g>
<!-- Node31 -->
<g id="node65" class="node"><title>Node31</title>
<a xlink:href="_c_o_r_e__6_8cpp.html#a23423256688613149926c4984ff25f79" target="_top" xlink:title="player1_do_stop">
<polygon fill="white" stroke="black" points="562,-130.643 562,-154.643 650,-154.643 650,-130.643 562,-130.643"/>
<text text-anchor="middle" x="606" y="-141.643" font-family="Helvetica,sans-Serif" font-size="10.00">player1_do_stop</text>
</a>
</g>
<!-- Node8&#45;&gt;Node31 -->
<g id="edge76" class="edge"><title>Node8&#45;&gt;Node31</title>
<path fill="none" stroke="midnightblue" d="M277.793,-467.387C288.141,-435.395 319.381,-347.813 368,-289.643 428.312,-217.483 454.096,-206.124 538,-163.643 542.568,-161.33 547.438,-159.216 552.394,-157.296"/>
<polygon fill="midnightblue" stroke="midnightblue" points="553.751,-160.528 561.972,-153.845 551.378,-153.942 553.751,-160.528"/>
</g>
<!-- Node32 -->
<g id="node67" class="node"><title>Node32</title>
<a xlink:href="_c_o_r_e__6_8cpp.html#a6c41d19d859a2e1292ad64ef915e265f" target="_top" xlink:title="player2_do_stop">
<polygon fill="white" stroke="black" points="562,-88.6428 562,-112.643 650,-112.643 650,-88.6428 562,-88.6428"/>
<text text-anchor="middle" x="606" y="-99.6428" font-family="Helvetica,sans-Serif" font-size="10.00">player2_do_stop</text>
</a>
</g>
<!-- Node8&#45;&gt;Node32 -->
<g id="edge78" class="edge"><title>Node8&#45;&gt;Node32</title>
<path fill="none" stroke="midnightblue" d="M276.284,-467.422C286.016,-416.531 325.48,-222.057 368,-178.643 393.794,-152.306 489.83,-126.639 551.743,-112.308"/>
<polygon fill="midnightblue" stroke="midnightblue" points="552.779,-115.661 561.748,-110.022 551.22,-108.837 552.779,-115.661"/>
</g>
<!-- Node33 -->
<g id="node69" class="node"><title>Node33</title>
<a xlink:href="_c_o_r_e__6_8cpp.html#a494249193c56b13a4e1eac04c6dd2d0b" target="_top" xlink:title="player3_do_stop">
<polygon fill="white" stroke="black" points="562,-46.6428 562,-70.6428 650,-70.6428 650,-46.6428 562,-46.6428"/>
<text text-anchor="middle" x="606" y="-57.6428" font-family="Helvetica,sans-Serif" font-size="10.00">player3_do_stop</text>
</a>
</g>
<!-- Node8&#45;&gt;Node33 -->
<g id="edge80" class="edge"><title>Node8&#45;&gt;Node33</title>
<path fill="none" stroke="midnightblue" d="M274.99,-467.448C280.227,-406.164 306.809,-132.664 368,-79.6428 418.213,-36.1331 498.765,-38.8494 552.032,-46.9788"/>
<polygon fill="midnightblue" stroke="midnightblue" points="551.541,-50.445 561.976,-48.6072 552.673,-43.537 551.541,-50.445"/>
</g>
<!-- Node34 -->
<g id="node71" class="node"><title>Node34</title>
<a xlink:href="_c_o_r_e__6_8cpp.html#afbcf17b50787fb3b8360659f6ce9b193" target="_top" xlink:title="player4_do_stop">
<polygon fill="white" stroke="black" points="562,-4.64278 562,-28.6428 650,-28.6428 650,-4.64278 562,-4.64278"/>
<text text-anchor="middle" x="606" y="-15.6428" font-family="Helvetica,sans-Serif" font-size="10.00">player4_do_stop</text>
</a>
</g>
<!-- Node8&#45;&gt;Node34 -->
<g id="edge82" class="edge"><title>Node8&#45;&gt;Node34</title>
<path fill="none" stroke="midnightblue" d="M274.707,-467.526C278.747,-402.749 301.144,-98.0512 368,-38.6428 417.685,5.50702 498.369,3.02135 551.81,-5.02519"/>
<polygon fill="midnightblue" stroke="midnightblue" points="551.357,-8.49732 561.787,-6.63926 552.475,-1.58715 551.357,-8.49732"/>
</g>
<!-- Node11&#45;&gt;Node5 -->
<g id="edge22" class="edge"><title>Node11&#45;&gt;Node5</title>
<path fill="none" stroke="midnightblue" d="M475.589,-814.747C484.714,-818.438 494.042,-823.04 502,-828.643 541.119,-856.185 574.993,-901.53 592.756,-927.884"/>
<polygon fill="midnightblue" stroke="midnightblue" points="589.918,-929.938 598.35,-936.354 595.759,-926.081 589.918,-929.938"/>
</g>
<!-- Node14&#45;&gt;Node12 -->
<g id="edge30" class="edge"><title>Node14&#45;&gt;Node12</title>
<path fill="none" stroke="midnightblue" d="M476.518,-595.038C485.709,-598.809 494.833,-603.876 502,-610.643 530.055,-637.132 509.027,-664.161 538,-689.643 548.075,-698.504 561.839,-703.626 574.348,-706.587"/>
<polygon fill="midnightblue" stroke="midnightblue" points="573.962,-710.079 584.453,-708.6 575.33,-703.214 573.962,-710.079"/>
</g>
<!-- Node17 -->
<g id="node35" class="node"><title>Node17</title>
<a xlink:href="_c_o_r_e__6_8cpp.html#a492a9badab85a9e07b0200f4e34b607f" target="_top" xlink:title="reset_check_grada_overide\l_dimmers">
<polygon fill="white" stroke="black" points="538,-456.643 538,-496.643 674,-496.643 674,-456.643 538,-456.643"/>
<text text-anchor="start" x="546" y="-483.643" font-family="Helvetica,sans-Serif" font-size="10.00">reset_check_grada_overide</text>
<text text-anchor="middle" x="606" y="-467.643" font-family="Helvetica,sans-Serif" font-size="10.00">_dimmers</text>
</a>
</g>
<!-- Node16&#45;&gt;Node17 -->
<g id="edge36" class="edge"><title>Node16&#45;&gt;Node17</title>
<path fill="none" stroke="midnightblue" d="M448.532,-380.821C467.504,-397.459 503.558,-427.522 538,-447.643 540.493,-449.099 543.074,-450.524 545.707,-451.911"/>
<polygon fill="midnightblue" stroke="midnightblue" points="544.302,-455.122 554.81,-456.473 547.438,-448.864 544.302,-455.122"/>
</g>
<!-- Node18 -->
<g id="node37" class="node"><title>Node18</title>
<a xlink:href="_c_o_r_e__6_8cpp.html#aa8157e82745eb3ac355d8f443b19955f" target="_top" xlink:title="refresh_shape_factors">
<polygon fill="white" stroke="black" points="549.5,-356.643 549.5,-380.643 662.5,-380.643 662.5,-356.643 549.5,-356.643"/>
<text text-anchor="middle" x="606" y="-367.643" font-family="Helvetica,sans-Serif" font-size="10.00">refresh_shape_factors</text>
</a>
</g>
<!-- Node16&#45;&gt;Node18 -->
<g id="edge38" class="edge"><title>Node16&#45;&gt;Node18</title>
<path fill="none" stroke="midnightblue" d="M475.525,-368.643C494.538,-368.643 517.699,-368.643 539.201,-368.643"/>
<polygon fill="midnightblue" stroke="midnightblue" points="539.269,-372.143 549.269,-368.643 539.269,-365.143 539.269,-372.143"/>
</g>
<!-- Node19 -->
<g id="node39" class="node"><title>Node19</title>
<a xlink:href="saves__menu__8_8cpp.html#aa97cd577bd2f433780569b3a20136d23" target="_top" xlink:title="scan_importfolder">
<polygon fill="white" stroke="black" points="559,-314.643 559,-338.643 653,-338.643 653,-314.643 559,-314.643"/>
<text text-anchor="middle" x="606" y="-325.643" font-family="Helvetica,sans-Serif" font-size="10.00">scan_importfolder</text>
</a>
</g>
<!-- Node16&#45;&gt;Node19 -->
<g id="edge40" class="edge"><title>Node16&#45;&gt;Node19</title>
<path fill="none" stroke="midnightblue" d="M475.525,-358.689C497.486,-353.295 524.982,-346.542 549.062,-340.627"/>
<polygon fill="midnightblue" stroke="midnightblue" points="549.921,-344.021 558.798,-338.236 548.252,-337.223 549.921,-344.021"/>
</g>
<!-- Node20 -->
<g id="node41" class="node"><title>Node20</title>
<a xlink:href="saves__menu__8_8cpp.html#aa54ed73e914394a0efe1c45930c72cbd" target="_top" xlink:title="scan_savesfolder">
<polygon fill="white" stroke="black" points="559.5,-272.643 559.5,-296.643 652.5,-296.643 652.5,-272.643 559.5,-272.643"/>
<text text-anchor="middle" x="606" y="-283.643" font-family="Helvetica,sans-Serif" font-size="10.00">scan_savesfolder</text>
</a>
</g>
<!-- Node16&#45;&gt;Node20 -->
<g id="edge42" class="edge"><title>Node16&#45;&gt;Node20</title>
<path fill="none" stroke="midnightblue" d="M475.618,-359.895C484.742,-356.871 494.062,-352.877 502,-347.643 522.525,-334.109 517.447,-319.134 538,-305.643 541.762,-303.173 545.83,-300.982 550.041,-299.038"/>
<polygon fill="midnightblue" stroke="midnightblue" points="551.513,-302.217 559.424,-295.17 548.845,-295.746 551.513,-302.217"/>
</g>
<!-- Node21 -->
<g id="node43" class="node"><title>Node21</title>
<a xlink:href="_c_o_r_e__6_8cpp.html#a91e4f7146fd4a20828a9bd7ac93c0baa" target="_top" xlink:title="reset_audio_indexs\l_to_dock">
<polygon fill="white" stroke="black" points="555.5,-398.643 555.5,-438.643 656.5,-438.643 656.5,-398.643 555.5,-398.643"/>
<text text-anchor="start" x="563.5" y="-425.643" font-family="Helvetica,sans-Serif" font-size="10.00">reset_audio_indexs</text>
<text text-anchor="middle" x="606" y="-409.643" font-family="Helvetica,sans-Serif" font-size="10.00">_to_dock</text>
</a>
</g>
<!-- Node16&#45;&gt;Node21 -->
<g id="edge44" class="edge"><title>Node16&#45;&gt;Node21</title>
<path fill="none" stroke="midnightblue" d="M475.525,-380.492C496.438,-386.607 522.37,-394.189 545.592,-400.98"/>
<polygon fill="midnightblue" stroke="midnightblue" points="544.776,-404.387 555.356,-403.835 546.74,-397.669 544.776,-404.387"/>
</g>
<!-- Node22 -->
<g id="node45" class="node"><title>Node22</title>
<a xlink:href="gestionaire__fenetres2_8cpp.html#a3ecbad4b357ed9e70478e6418261f2fd" target="_top" xlink:title="reset_config_indexes">
<polygon fill="white" stroke="black" points="551.5,-230.643 551.5,-254.643 660.5,-254.643 660.5,-230.643 551.5,-230.643"/>
<text text-anchor="middle" x="606" y="-241.643" font-family="Helvetica,sans-Serif" font-size="10.00">reset_config_indexes</text>
</a>
</g>
<!-- Node16&#45;&gt;Node22 -->
<g id="edge46" class="edge"><title>Node16&#45;&gt;Node22</title>
<path fill="none" stroke="midnightblue" d="M475.503,-362.014C485.044,-358.907 494.584,-354.344 502,-347.643 532.136,-320.411 507.807,-290.811 538,-263.643 539.481,-262.31 541.045,-261.062 542.676,-259.893"/>
<polygon fill="midnightblue" stroke="midnightblue" points="544.558,-262.846 551.313,-254.684 540.943,-256.851 544.558,-262.846"/>
</g>
<!-- Node23 -->
<g id="node47" class="node"><title>Node23</title>
<a xlink:href="gestionaire__fenetres2_8cpp.html#ad38c1b7f03bd1ec3007a87d4c55efacf" target="_top" xlink:title="clear_non_desired_values\l_in_window_list">
<polygon fill="white" stroke="black" points="541.5,-172.643 541.5,-212.643 670.5,-212.643 670.5,-172.643 541.5,-172.643"/>
<text text-anchor="start" x="549.5" y="-199.643" font-family="Helvetica,sans-Serif" font-size="10.00">clear_non_desired_values</text>
<text text-anchor="middle" x="606" y="-183.643" font-family="Helvetica,sans-Serif" font-size="10.00">_in_window_list</text>
</a>
</g>
<!-- Node16&#45;&gt;Node23 -->
<g id="edge48" class="edge"><title>Node16&#45;&gt;Node23</title>
<path fill="none" stroke="midnightblue" d="M475.762,-362.759C485.411,-359.642 494.937,-354.887 502,-347.643 542.655,-305.94 499.466,-265.314 538,-221.643 538.632,-220.927 539.284,-220.228 539.955,-219.546"/>
<polygon fill="midnightblue" stroke="midnightblue" points="542.455,-222.014 547.793,-212.862 537.913,-216.688 542.455,-222.014"/>
</g>
<!-- Node24&#45;&gt;Node17 -->
<g id="edge56" class="edge"><title>Node24&#45;&gt;Node17</title>
<path fill="none" stroke="midnightblue" d="M488.168,-464.239C500.668,-465.555 514.25,-466.985 527.599,-468.39"/>
<polygon fill="midnightblue" stroke="midnightblue" points="527.429,-471.891 537.741,-469.458 528.162,-464.93 527.429,-471.891"/>
</g>
<!-- Node24&#45;&gt;Node21 -->
<g id="edge60" class="edge"><title>Node24&#45;&gt;Node21</title>
<path fill="none" stroke="midnightblue" d="M486.306,-446.641C504.904,-442.291 526.086,-437.336 545.408,-432.816"/>
<polygon fill="midnightblue" stroke="midnightblue" points="546.38,-436.184 555.32,-430.498 544.785,-429.368 546.38,-436.184"/>
</g>
<!-- Node25 -->
<g id="node51" class="node"><title>Node25</title>
<a xlink:href="_c_o_r_e__6_8cpp.html#a934d136a7c8a752109bc4b160717ee36" target="_top" xlink:title="reset_index_actions">
<polygon fill="white" stroke="black" points="554,-656.643 554,-680.643 658,-680.643 658,-656.643 554,-656.643"/>
<text text-anchor="middle" x="606" y="-667.643" font-family="Helvetica,sans-Serif" font-size="10.00">reset_index_actions</text>
</a>
</g>
<!-- Node24&#45;&gt;Node25 -->
<g id="edge52" class="edge"><title>Node24&#45;&gt;Node25</title>
<path fill="none" stroke="midnightblue" d="M488.011,-469.14C493.24,-471.877 498.059,-475.318 502,-479.643 553.438,-536.081 486.444,-591.313 538,-647.643 540.072,-649.907 542.383,-651.93 544.866,-653.736"/>
<polygon fill="midnightblue" stroke="midnightblue" points="543.491,-656.99 553.877,-659.083 547.063,-650.97 543.491,-656.99"/>
</g>
<!-- Node26 -->
<g id="node53" class="node"><title>Node26</title>
<a xlink:href="_c_o_r_e__6_8cpp.html#a894b338494d0bdd820df2944b628e2de" target="_top" xlink:title="patch_unselect_all\l_dimmers">
<polygon fill="white" stroke="black" points="557,-598.643 557,-638.643 655,-638.643 655,-598.643 557,-598.643"/>
<text text-anchor="start" x="565" y="-625.643" font-family="Helvetica,sans-Serif" font-size="10.00">patch_unselect_all</text>
<text text-anchor="middle" x="606" y="-609.643" font-family="Helvetica,sans-Serif" font-size="10.00">_dimmers</text>
</a>
</g>
<!-- Node24&#45;&gt;Node26 -->
<g id="edge54" class="edge"><title>Node24&#45;&gt;Node26</title>
<path fill="none" stroke="midnightblue" d="M488.233,-469.898C493.291,-472.501 498.01,-475.703 502,-479.643 538.601,-515.788 503.239,-551.724 538,-589.643 541.059,-592.979 544.565,-595.947 548.337,-598.583"/>
<polygon fill="midnightblue" stroke="midnightblue" points="546.593,-601.619 556.951,-603.843 550.241,-595.645 546.593,-601.619"/>
</g>
<!-- Node27 -->
<g id="node56" class="node"><title>Node27</title>
<a xlink:href="_c_o_r_e__6_8cpp.html#afb9b54a7bc4ccbba5ddcdc2097550188" target="_top" xlink:title="reset_indexs_confirmation">
<polygon fill="white" stroke="black" points="540.5,-556.643 540.5,-580.643 671.5,-580.643 671.5,-556.643 540.5,-556.643"/>
<text text-anchor="middle" x="606" y="-567.643" font-family="Helvetica,sans-Serif" font-size="10.00">reset_indexs_confirmation</text>
</a>
</g>
<!-- Node24&#45;&gt;Node27 -->
<g id="edge58" class="edge"><title>Node24&#45;&gt;Node27</title>
<path fill="none" stroke="midnightblue" d="M487.922,-470.775C492.978,-473.211 497.783,-476.135 502,-479.643 528.29,-501.51 511.664,-525.83 538,-547.643 539.74,-549.084 541.578,-550.426 543.491,-551.676"/>
<polygon fill="midnightblue" stroke="midnightblue" points="541.854,-554.771 552.292,-556.589 545.266,-548.658 541.854,-554.771"/>
</g>
<!-- Node28 -->
<g id="node59" class="node"><title>Node28</title>
<a xlink:href="_c_o_r_e__6_8cpp.html#abfbdb9056b43d4acfaf3f39122911bad" target="_top" xlink:title="remember_config_page">
<polygon fill="white" stroke="black" points="547,-514.643 547,-538.643 665,-538.643 665,-514.643 547,-514.643"/>
<text text-anchor="middle" x="606" y="-525.643" font-family="Helvetica,sans-Serif" font-size="10.00">remember_config_page</text>
</a>
</g>
<!-- Node24&#45;&gt;Node28 -->
<g id="edge62" class="edge"><title>Node24&#45;&gt;Node28</title>
<path fill="none" stroke="midnightblue" d="M480.473,-470.71C487.83,-473.278 495.243,-476.256 502,-479.643 519.644,-488.486 520.337,-496.836 538,-505.643 541.963,-507.619 546.15,-509.453 550.42,-511.147"/>
<polygon fill="midnightblue" stroke="midnightblue" points="549.252,-514.447 559.845,-514.63 551.678,-507.881 549.252,-514.447"/>
</g>
<!-- Node30&#45;&gt;Node31 -->
<g id="edge68" class="edge"><title>Node30&#45;&gt;Node31</title>
<path fill="none" stroke="midnightblue" d="M478.151,-111.241C500.573,-116.748 528.194,-123.532 552.018,-129.384"/>
<polygon fill="midnightblue" stroke="midnightblue" points="551.424,-132.842 561.97,-131.828 553.094,-126.044 551.424,-132.842"/>
</g>
<!-- Node30&#45;&gt;Node32 -->
<g id="edge70" class="edge"><title>Node30&#45;&gt;Node32</title>
<path fill="none" stroke="midnightblue" d="M478.151,-100.643C500.473,-100.643 527.947,-100.643 551.699,-100.643"/>
<polygon fill="midnightblue" stroke="midnightblue" points="551.97,-104.143 561.97,-100.643 551.97,-97.1429 551.97,-104.143"/>
</g>
<!-- Node30&#45;&gt;Node33 -->
<g id="edge72" class="edge"><title>Node30&#45;&gt;Node33</title>
<path fill="none" stroke="midnightblue" d="M478.151,-90.0444C500.573,-84.5372 528.194,-77.7531 552.018,-71.9014"/>
<polygon fill="midnightblue" stroke="midnightblue" points="553.094,-75.2414 561.97,-69.4571 551.424,-68.4435 553.094,-75.2414"/>
</g>
<!-- Node30&#45;&gt;Node34 -->
<g id="edge74" class="edge"><title>Node30&#45;&gt;Node34</title>
<path fill="none" stroke="midnightblue" d="M451.768,-88.5663C471.577,-74.7404 505.906,-52.1384 538,-37.6428 542.597,-35.5663 547.458,-33.618 552.381,-31.8098"/>
<polygon fill="midnightblue" stroke="midnightblue" points="553.577,-35.0996 561.872,-28.5084 551.277,-28.4882 553.577,-35.0996"/>
</g>
<!-- Node35&#45;&gt;Node3 -->
<g id="edge88" class="edge"><title>Node35&#45;&gt;Node3</title>
<path fill="none" stroke="midnightblue" d="M284.309,-984.861C300.393,-1003.19 333.238,-1037.77 368,-1057.64 371.204,-1059.48 374.588,-1061.17 378.064,-1062.73"/>
<polygon fill="midnightblue" stroke="midnightblue" points="376.839,-1066.01 387.42,-1066.55 379.489,-1059.53 376.839,-1066.01"/>
</g>
<!-- Node35&#45;&gt;Node4 -->
<g id="edge90" class="edge"><title>Node35&#45;&gt;Node4</title>
<path fill="none" stroke="midnightblue" d="M303.593,-984.729C322.081,-992.25 346.398,-1002.09 368,-1010.64 376.428,-1013.98 385.469,-1017.52 394.096,-1020.87"/>
<polygon fill="midnightblue" stroke="midnightblue" points="393.017,-1024.21 403.606,-1024.56 395.549,-1017.68 393.017,-1024.21"/>
</g>
<!-- Node35&#45;&gt;Node5 -->
<g id="edge96" class="edge"><title>Node35&#45;&gt;Node5</title>
<path fill="none" stroke="midnightblue" d="M332.389,-978.959C378.623,-982.75 444.728,-985.478 502,-977.643 522.15,-974.886 543.901,-969.257 562.277,-963.685"/>
<polygon fill="midnightblue" stroke="midnightblue" points="563.326,-967.024 571.829,-960.704 561.24,-960.342 563.326,-967.024"/>
</g>
<!-- Node36 -->
<g id="node79" class="node"><title>Node36</title>
<a xlink:href="_c_o_r_e__6_8cpp.html#a30cbf636d9bf3de2518c9f2da7252d7c" target="_top" xlink:title="reset_modified_levels\l_in_crossfade">
<polygon fill="white" stroke="black" points="379.5,-870.643 379.5,-910.643 490.5,-910.643 490.5,-870.643 379.5,-870.643"/>
<text text-anchor="start" x="387.5" y="-897.643" font-family="Helvetica,sans-Serif" font-size="10.00">reset_modified_levels</text>
<text text-anchor="middle" x="435" y="-881.643" font-family="Helvetica,sans-Serif" font-size="10.00">_in_crossfade</text>
</a>
</g>
<!-- Node35&#45;&gt;Node36 -->
<g id="edge86" class="edge"><title>Node35&#45;&gt;Node36</title>
<path fill="none" stroke="midnightblue" d="M294.205,-960.435C313.018,-949.264 341.992,-932.559 368,-919.643 371.102,-918.102 374.306,-916.56 377.553,-915.034"/>
<polygon fill="midnightblue" stroke="midnightblue" points="379.153,-918.151 386.776,-910.792 376.228,-911.791 379.153,-918.151"/>
</g>
<!-- Node37 -->
<g id="node83" class="node"><title>Node37</title>
<a xlink:href="_c_o_r_e__6_8cpp.html#a68896df3fd9c10332440a34a96dfbc68" target="_top" xlink:title="refresh_integrated\l_gridplayer1">
<polygon fill="white" stroke="black" points="387.5,-928.643 387.5,-968.643 482.5,-968.643 482.5,-928.643 387.5,-928.643"/>
<text text-anchor="start" x="395.5" y="-955.643" font-family="Helvetica,sans-Serif" font-size="10.00">refresh_integrated</text>
<text text-anchor="middle" x="435" y="-939.643" font-family="Helvetica,sans-Serif" font-size="10.00">_gridplayer1</text>
</a>
</g>
<!-- Node35&#45;&gt;Node37 -->
<g id="edge92" class="edge"><title>Node35&#45;&gt;Node37</title>
<path fill="none" stroke="midnightblue" d="M332.125,-963.978C346.834,-961.785 362.627,-959.431 377.315,-957.242"/>
<polygon fill="midnightblue" stroke="midnightblue" points="377.906,-960.693 387.28,-955.756 376.873,-953.769 377.906,-960.693"/>
</g>
<!-- Node37&#45;&gt;Node5 -->
<g id="edge94" class="edge"><title>Node37&#45;&gt;Node5</title>
<path fill="none" stroke="midnightblue" d="M482.633,-948.643C500.141,-948.643 520.303,-948.643 539.186,-948.643"/>
<polygon fill="midnightblue" stroke="midnightblue" points="539.221,-952.143 549.221,-948.643 539.221,-945.143 539.221,-952.143"/>
</g>
<!-- Node39 -->
<g id="node89" class="node"><title>Node39</title>
<a xlink:href="banger__core__8_8cpp.html#ae0c6d738503a7f8bea4a0881fd15e7fb" target="_top" xlink:title="back_up_fader_if_a\l_fader_inside">
<polygon fill="white" stroke="black" points="223.5,-753.643 223.5,-793.643 324.5,-793.643 324.5,-753.643 223.5,-753.643"/>
<text text-anchor="start" x="231.5" y="-780.643" font-family="Helvetica,sans-Serif" font-size="10.00">back_up_fader_if_a</text>
<text text-anchor="middle" x="274" y="-764.643" font-family="Helvetica,sans-Serif" font-size="10.00">_fader_inside</text>
</a>
</g>
<!-- Node38&#45;&gt;Node39 -->
<g id="edge100" class="edge"><title>Node38&#45;&gt;Node39</title>
<path fill="none" stroke="midnightblue" d="M172.312,-782.952C185.112,-781.78 199.56,-780.458 213.461,-779.185"/>
<polygon fill="midnightblue" stroke="midnightblue" points="213.816,-782.667 223.455,-778.27 213.178,-775.696 213.816,-782.667"/>
</g>
<!-- Node40 -->
<g id="node91" class="node"><title>Node40</title>
<a xlink:href="banger__core__8_8cpp.html#ab6ed5760e29b7576e9acfbc4cb3da75e" target="_top" xlink:title="store_state_of_fader\l_before_bang">
<polygon fill="white" stroke="black" points="382,-732.643 382,-772.643 488,-772.643 488,-732.643 382,-732.643"/>
<text text-anchor="start" x="390" y="-759.643" font-family="Helvetica,sans-Serif" font-size="10.00">store_state_of_fader</text>
<text text-anchor="middle" x="435" y="-743.643" font-family="Helvetica,sans-Serif" font-size="10.00">_before_bang</text>
</a>
</g>
<!-- Node39&#45;&gt;Node40 -->
<g id="edge102" class="edge"><title>Node39&#45;&gt;Node40</title>
<path fill="none" stroke="midnightblue" d="M324.941,-766.998C339.829,-765.056 356.283,-762.91 371.831,-760.882"/>
<polygon fill="midnightblue" stroke="midnightblue" points="372.429,-764.334 381.892,-759.57 371.523,-757.393 372.429,-764.334"/>
</g>
<!-- Node40&#45;&gt;Node9 -->
<g id="edge104" class="edge"><title>Node40&#45;&gt;Node9</title>
<path fill="none" stroke="midnightblue" d="M488.168,-752.643C507.033,-752.643 528.361,-752.643 547.636,-752.643"/>
<polygon fill="midnightblue" stroke="midnightblue" points="547.803,-756.143 557.803,-752.643 547.803,-749.143 547.803,-756.143"/>
</g>
<!-- Node41&#45;&gt;Node5 -->
<g id="edge108" class="edge"><title>Node41&#45;&gt;Node5</title>
<path fill="none" stroke="midnightblue" d="M173.746,-836.463C244.217,-827.819 390.033,-817.703 502,-861.643 538.176,-875.839 570.943,-907.905 589.654,-928.89"/>
<polygon fill="midnightblue" stroke="midnightblue" points="587.141,-931.334 596.338,-936.594 592.428,-926.747 587.141,-931.334"/>
</g>
</g>
</svg>
        <g id="navigator" transform="translate(0 0)" fill="#404254">
                <rect fill="#f2f5e9" fill-opacity="0.5" stroke="#606060" stroke-width=".5" x="0" y="0" width="60" height="60"/>
                <use id="zoomplus" xlink:href="#zoomPlus" x="17" y="9" onmousedown="handleZoom(evt,'in')"/>
                <use id="zoomminus" xlink:href="#zoomMin" x="42" y="9" onmousedown="handleZoom(evt,'out')"/>
                <use id="reset" xlink:href="#resetDef" x="30" y="36" onmousedown="handleReset()"/>
                <g id="arrowUp" xlink:href="#dirArrow" transform="translate(30 24)" onmousedown="handlePan(0,-1)">
                  <use xlink:href="#rim" fill="#404040">
                        <set attributeName="fill" to="#808080" begin="arrowUp.mouseover" end="arrowUp.mouseout"/>
                  </use>
                  <path fill="none" stroke="white" stroke-width="1.5" d="M0,-3.0v7 M-2.5,-0.5L0,-3.0L2.5,-0.5"/>
                </g>
                <g id="arrowRight" xlink:href="#dirArrow" transform="rotate(90) translate(36 -43)" onmousedown="handlePan(1,0)">
                  <use xlink:href="#rim" fill="#404040">
                        <set attributeName="fill" to="#808080" begin="arrowRight.mouseover" end="arrowRight.mouseout"/>
                  </use>
                  <path fill="none" stroke="white" stroke-width="1.5" d="M0,-3.0v7 M-2.5,-0.5L0,-3.0L2.5,-0.5"/>
                </g>
                <g id="arrowDown" xlink:href="#dirArrow" transform="rotate(180) translate(-30 -48)" onmousedown="handlePan(0,1)">
                  <use xlink:href="#rim" fill="#404040">
                        <set attributeName="fill" to="#808080" begin="arrowDown.mouseover" end="arrowDown.mouseout"/>
                  </use>
                  <path fill="none" stroke="white" stroke-width="1.5" d="M0,-3.0v7 M-2.5,-0.5L0,-3.0L2.5,-0.5"/>
                </g>
                <g id="arrowLeft" xlink:href="#dirArrow" transform="rotate(270) translate(-36 17)" onmousedown="handlePan(-1,0)">
                  <use xlink:href="#rim" fill="#404040">
                        <set attributeName="fill" to="#808080" begin="arrowLeft.mouseover" end="arrowLeft.mouseout"/>
                  </use>
                  <path fill="none" stroke="white" stroke-width="1.5" d="M0,-3.0v7 M-2.5,-0.5L0,-3.0L2.5,-0.5"/>
                </g>
        </g>
        <svg viewBox="0 0 15 15" width="100%" height="30px" preserveAspectRatio="xMaxYMin meet">
         <g id="arrow_out" transform="scale(0.3 0.3)">
          <a xlink:href="keyboard__functions2_8cpp_a1069ef07040abfea667ec14eeefe7e56_cgraph_org.svg" target="_base">
           <rect id="button" ry="5" rx="5" y="6" x="6" height="38" width="38"
                fill="#f2f5e9" fill-opacity="0.5" stroke="#606060" stroke-width="1.0"/>
           <path id="arrow"
             d="M 11.500037,31.436501 C 11.940474,20.09759 22.043105,11.32322 32.158766,21.979434 L 37.068811,17.246167 C 37.068811,17.246167 37.088388,32 37.088388,32 L 22.160133,31.978069 C 22.160133,31.978069 26.997745,27.140456 26.997745,27.140456 C 18.528582,18.264221 13.291696,25.230495 11.500037,31.436501 z"
             style="fill:#404040;"/>
          </a>
         </g>
        </svg>
</svg>
