<?xml version="1.0" encoding="UTF-8" standalone="no"?>
<!DOCTYPE svg PUBLIC "-//W3C//DTD SVG 1.1//EN"
 "http://www.w3.org/Graphics/SVG/1.1/DTD/svg11.dtd">
<!-- Generated by graphviz version 2.26.3 (20100126.1600)
 -->
<!-- Title: key_switch_window_down Pages: 1 -->
<svg width="474pt" height="32pt"
 viewBox="0.00 0.00 474.00 32.00" xmlns="http://www.w3.org/2000/svg" xmlns:xlink="http://www.w3.org/1999/xlink">
<g id="graph1" class="graph" transform="scale(1 1) rotate(0) translate(4 28)">
<title>key_switch_window_down</title>
<polygon fill="white" stroke="white" points="-4,5 -4,-28 471,-28 471,5 -4,5"/>
<!-- Node1 -->
<g id="node1" class="node"><title>Node1</title>
<polygon fill="#bfbfbf" stroke="black" points="0.5,-0 0.5,-24 133.5,-24 133.5,-0 0.5,-0"/>
<text text-anchor="middle" x="67" y="-11" font-family="Helvetica,sans-Serif" font-size="10.00">key_switch_window_down</text>
</g>
<!-- Node2 -->
<g id="node3" class="node"><title>Node2</title>
<a xlink:href="keyboard__routines2_8cpp.html#a8563320b8eab661232619224650de244" target="_top" xlink:title="commandes_clavier">
<polygon fill="white" stroke="black" points="170,-0 170,-24 274,-24 274,-0 170,-0"/>
<text text-anchor="middle" x="222" y="-11" font-family="Helvetica,sans-Serif" font-size="10.00">commandes_clavier</text>
</a>
</g>
<!-- Node1&#45;&gt;Node2 -->
<g id="edge2" class="edge"><title>Node1&#45;&gt;Node2</title>
<path fill="none" stroke="midnightblue" d="M143.651,-12C152.552,-12 161.468,-12 169.929,-12"/>
<polygon fill="midnightblue" stroke="midnightblue" points="143.634,-8.5001 133.633,-12 143.633,-15.5001 143.634,-8.5001"/>
</g>
<!-- Node3 -->
<g id="node5" class="node"><title>Node3</title>
<a xlink:href="_m_a_i_n__avec__objets_8cpp.html#a8e80f54ac804eddce8ed6e45adb1db44" target="_top" xlink:title="ticker_full_loop">
<polygon fill="white" stroke="black" points="310,-0 310,-24 392,-24 392,-0 310,-0"/>
<text text-anchor="middle" x="351" y="-11" font-family="Helvetica,sans-Serif" font-size="10.00">ticker_full_loop</text>
</a>
</g>
<!-- Node2&#45;&gt;Node3 -->
<g id="edge4" class="edge"><title>Node2&#45;&gt;Node3</title>
<path fill="none" stroke="midnightblue" d="M284.228,-12C292.912,-12 301.651,-12 309.814,-12"/>
<polygon fill="midnightblue" stroke="midnightblue" points="284.097,-8.5001 274.097,-12 284.097,-15.5001 284.097,-8.5001"/>
</g>
<!-- Node4 -->
<g id="node7" class="node"><title>Node4</title>
<a xlink:href="_m_a_i_n__avec__objets_8cpp.html#ae66f6b31b5ad750f1fe042a706a4e3d4" target="_top" xlink:title="main">
<polygon fill="white" stroke="black" points="428,-0 428,-24 466,-24 466,-0 428,-0"/>
<text text-anchor="middle" x="447" y="-11" font-family="Helvetica,sans-Serif" font-size="10.00">main</text>
</a>
</g>
<!-- Node3&#45;&gt;Node4 -->
<g id="edge6" class="edge"><title>Node3&#45;&gt;Node4</title>
<path fill="none" stroke="midnightblue" d="M402.509,-12C411.577,-12 420.476,-12 427.904,-12"/>
<polygon fill="midnightblue" stroke="midnightblue" points="402.27,-8.5001 392.27,-12 402.27,-15.5001 402.27,-8.5001"/>
</g>
</g>
</svg>
