<?xml version="1.0" encoding="UTF-8" standalone="no"?>
<!DOCTYPE svg PUBLIC "-//W3C//DTD SVG 1.1//EN"
 "http://www.w3.org/Graphics/SVG/1.1/DTD/svg11.dtd">
<!-- Generated by graphviz version 2.26.3 (20100126.1600)
 -->
<!-- Title: key_switch_window_down Pages: 1 -->
<svg width="498pt" height="516pt"
 viewBox="0.00 0.00 498.00 516.00" xmlns="http://www.w3.org/2000/svg" xmlns:xlink="http://www.w3.org/1999/xlink">
<g id="graph1" class="graph" transform="scale(1 1) rotate(0) translate(4 512)">
<title>key_switch_window_down</title>
<polygon fill="white" stroke="white" points="-4,5 -4,-512 495,-512 495,5 -4,5"/>
<!-- Node1 -->
<g id="node1" class="node"><title>Node1</title>
<polygon fill="#bfbfbf" stroke="black" points="0.5,-142 0.5,-166 133.5,-166 133.5,-142 0.5,-142"/>
<text text-anchor="middle" x="67" y="-153" font-family="Helvetica,sans-Serif" font-size="10.00">key_switch_window_down</text>
</g>
<!-- Node2 -->
<g id="node3" class="node"><title>Node2</title>
<a xlink:href="_c_o_r_e__6_8cpp.html#ad0ba084ac976c6a4d32088e939ee0dbc" target="_top" xlink:title="substract_a_window">
<polygon fill="white" stroke="black" points="191,-342 191,-366 297,-366 297,-342 191,-342"/>
<text text-anchor="middle" x="244" y="-353" font-family="Helvetica,sans-Serif" font-size="10.00">substract_a_window</text>
</a>
</g>
<!-- Node1&#45;&gt;Node2 -->
<g id="edge2" class="edge"><title>Node1&#45;&gt;Node2</title>
<path fill="none" stroke="midnightblue" d="M77.8057,-166.21C107.438,-199.693 190.189,-293.197 226.52,-334.249"/>
<polygon fill="midnightblue" stroke="midnightblue" points="224.087,-336.781 233.336,-341.95 229.329,-332.142 224.087,-336.781"/>
</g>
<!-- Node9 -->
<g id="node17" class="node"><title>Node9</title>
<a xlink:href="gestionaire__fenetres2_8cpp.html#ada3b9703b1aaa1cc37304633bdeb526c" target="_top" xlink:title="add_a_window">
<polygon fill="white" stroke="black" points="203.5,-163 203.5,-187 284.5,-187 284.5,-163 203.5,-163"/>
<text text-anchor="middle" x="244" y="-174" font-family="Helvetica,sans-Serif" font-size="10.00">add_a_window</text>
</a>
</g>
<!-- Node1&#45;&gt;Node9 -->
<g id="edge16" class="edge"><title>Node1&#45;&gt;Node9</title>
<path fill="none" stroke="midnightblue" d="M133.664,-161.909C153.425,-164.254 174.736,-166.782 193.311,-168.986"/>
<polygon fill="midnightblue" stroke="midnightblue" points="192.978,-172.471 203.321,-170.174 193.803,-165.52 192.978,-172.471"/>
</g>
<!-- Node15 -->
<g id="node31" class="node"><title>Node15</title>
<a xlink:href="gestionaire__fenetres2_8cpp.html#a2ccc804649f44cb5fed71045ff451c3a" target="_top" xlink:title="check_nbre_opened_windows">
<polygon fill="white" stroke="black" points="170.5,-121 170.5,-145 317.5,-145 317.5,-121 170.5,-121"/>
<text text-anchor="middle" x="244" y="-132" font-family="Helvetica,sans-Serif" font-size="10.00">check_nbre_opened_windows</text>
</a>
</g>
<!-- Node1&#45;&gt;Node15 -->
<g id="edge32" class="edge"><title>Node1&#45;&gt;Node15</title>
<path fill="none" stroke="midnightblue" d="M133.664,-146.091C142.35,-145.06 151.336,-143.994 160.257,-142.936"/>
<polygon fill="midnightblue" stroke="midnightblue" points="160.765,-146.4 170.283,-141.746 159.94,-139.449 160.765,-146.4"/>
</g>
<!-- Node16 -->
<g id="node33" class="node"><title>Node16</title>
<a xlink:href="gestionaire__fenetres2_8cpp.html#ac3bd0e2081750b56f44edcd478f0e2bf" target="_top" xlink:title="window_bring_to_front">
<polygon fill="white" stroke="black" points="187,-79 187,-103 301,-103 301,-79 187,-79"/>
<text text-anchor="middle" x="244" y="-90" font-family="Helvetica,sans-Serif" font-size="10.00">window_bring_to_front</text>
</a>
</g>
<!-- Node1&#45;&gt;Node16 -->
<g id="edge34" class="edge"><title>Node1&#45;&gt;Node16</title>
<path fill="none" stroke="midnightblue" d="M94.2277,-141.933C114.812,-133.048 143.891,-120.997 170,-112 175.966,-109.944 182.25,-107.932 188.532,-106.017"/>
<polygon fill="midnightblue" stroke="midnightblue" points="189.769,-109.301 198.357,-103.096 187.774,-102.591 189.769,-109.301"/>
</g>
<!-- Node3 -->
<g id="node5" class="node"><title>Node3</title>
<a xlink:href="_c_o_r_e__6_8cpp.html#a934d136a7c8a752109bc4b160717ee36" target="_top" xlink:title="reset_index_actions">
<polygon fill="white" stroke="black" points="370,-442 370,-466 474,-466 474,-442 370,-442"/>
<text text-anchor="middle" x="422" y="-453" font-family="Helvetica,sans-Serif" font-size="10.00">reset_index_actions</text>
</a>
</g>
<!-- Node2&#45;&gt;Node3 -->
<g id="edge4" class="edge"><title>Node2&#45;&gt;Node3</title>
<path fill="none" stroke="midnightblue" d="M257.639,-366.059C277.548,-383.11 316.31,-414.271 354,-433 357.966,-434.971 362.155,-436.801 366.426,-438.492"/>
<polygon fill="midnightblue" stroke="midnightblue" points="365.259,-441.793 375.853,-441.972 367.683,-435.226 365.259,-441.793"/>
</g>
<!-- Node4 -->
<g id="node7" class="node"><title>Node4</title>
<a xlink:href="_c_o_r_e__6_8cpp.html#a894b338494d0bdd820df2944b628e2de" target="_top" xlink:title="patch_unselect_all\l_dimmers">
<polygon fill="white" stroke="black" points="373,-384 373,-424 471,-424 471,-384 373,-384"/>
<text text-anchor="start" x="381" y="-411" font-family="Helvetica,sans-Serif" font-size="10.00">patch_unselect_all</text>
<text text-anchor="middle" x="422" y="-395" font-family="Helvetica,sans-Serif" font-size="10.00">_dimmers</text>
</a>
</g>
<!-- Node2&#45;&gt;Node4 -->
<g id="edge6" class="edge"><title>Node2&#45;&gt;Node4</title>
<path fill="none" stroke="midnightblue" d="M287.089,-366.104C309.888,-372.508 338.222,-380.467 363.03,-387.435"/>
<polygon fill="midnightblue" stroke="midnightblue" points="362.128,-390.817 372.701,-390.152 364.021,-384.078 362.128,-390.817"/>
</g>
<!-- Node5 -->
<g id="node9" class="node"><title>Node5</title>
<a xlink:href="_c_o_r_e__6_8cpp.html#a492a9badab85a9e07b0200f4e34b607f" target="_top" xlink:title="reset_check_grada_overide\l_dimmers">
<polygon fill="white" stroke="black" points="354,-226 354,-266 490,-266 490,-226 354,-226"/>
<text text-anchor="start" x="362" y="-253" font-family="Helvetica,sans-Serif" font-size="10.00">reset_check_grada_overide</text>
<text text-anchor="middle" x="422" y="-237" font-family="Helvetica,sans-Serif" font-size="10.00">_dimmers</text>
</a>
</g>
<!-- Node2&#45;&gt;Node5 -->
<g id="edge8" class="edge"><title>Node2&#45;&gt;Node5</title>
<path fill="none" stroke="midnightblue" d="M258.602,-341.909C279.036,-325.371 317.74,-295.424 354,-275 356.654,-273.505 359.401,-272.038 362.199,-270.607"/>
<polygon fill="midnightblue" stroke="midnightblue" points="363.826,-273.707 371.268,-266.166 360.748,-267.421 363.826,-273.707"/>
</g>
<!-- Node6 -->
<g id="node11" class="node"><title>Node6</title>
<a xlink:href="_c_o_r_e__6_8cpp.html#afb9b54a7bc4ccbba5ddcdc2097550188" target="_top" xlink:title="reset_indexs_confirmation">
<polygon fill="white" stroke="black" points="356.5,-342 356.5,-366 487.5,-366 487.5,-342 356.5,-342"/>
<text text-anchor="middle" x="422" y="-353" font-family="Helvetica,sans-Serif" font-size="10.00">reset_indexs_confirmation</text>
</a>
</g>
<!-- Node2&#45;&gt;Node6 -->
<g id="edge10" class="edge"><title>Node2&#45;&gt;Node6</title>
<path fill="none" stroke="midnightblue" d="M297.406,-354C312.755,-354 329.796,-354 346.222,-354"/>
<polygon fill="midnightblue" stroke="midnightblue" points="346.349,-357.5 356.349,-354 346.349,-350.5 346.349,-357.5"/>
</g>
<!-- Node7 -->
<g id="node13" class="node"><title>Node7</title>
<a xlink:href="_c_o_r_e__6_8cpp.html#a91e4f7146fd4a20828a9bd7ac93c0baa" target="_top" xlink:title="reset_audio_indexs\l_to_dock">
<polygon fill="white" stroke="black" points="371.5,-284 371.5,-324 472.5,-324 472.5,-284 371.5,-284"/>
<text text-anchor="start" x="379.5" y="-311" font-family="Helvetica,sans-Serif" font-size="10.00">reset_audio_indexs</text>
<text text-anchor="middle" x="422" y="-295" font-family="Helvetica,sans-Serif" font-size="10.00">_to_dock</text>
</a>
</g>
<!-- Node2&#45;&gt;Node7 -->
<g id="edge12" class="edge"><title>Node2&#45;&gt;Node7</title>
<path fill="none" stroke="midnightblue" d="M287.089,-341.896C309.425,-335.622 337.074,-327.856 361.515,-320.99"/>
<polygon fill="midnightblue" stroke="midnightblue" points="362.732,-324.284 371.413,-318.21 360.839,-317.545 362.732,-324.284"/>
</g>
<!-- Node8 -->
<g id="node15" class="node"><title>Node8</title>
<a xlink:href="_c_o_r_e__6_8cpp.html#abfbdb9056b43d4acfaf3f39122911bad" target="_top" xlink:title="remember_config_page">
<polygon fill="white" stroke="black" points="363,-484 363,-508 481,-508 481,-484 363,-484"/>
<text text-anchor="middle" x="422" y="-495" font-family="Helvetica,sans-Serif" font-size="10.00">remember_config_page</text>
</a>
</g>
<!-- Node2&#45;&gt;Node8 -->
<g id="edge14" class="edge"><title>Node2&#45;&gt;Node8</title>
<path fill="none" stroke="midnightblue" d="M251.802,-366.277C267.911,-390.64 307.28,-445.3 354,-475 356.763,-476.757 359.683,-478.374 362.697,-479.864"/>
<polygon fill="midnightblue" stroke="midnightblue" points="361.4,-483.117 371.962,-483.955 364.228,-476.713 361.4,-483.117"/>
</g>
<!-- Node9&#45;&gt;Node5 -->
<g id="edge18" class="edge"><title>Node9&#45;&gt;Node5</title>
<path fill="none" stroke="midnightblue" d="M274.195,-187.044C298.271,-196.647 332.739,-210.396 362.334,-222.201"/>
<polygon fill="midnightblue" stroke="midnightblue" points="361.167,-225.503 371.752,-225.957 363.761,-219.002 361.167,-225.503"/>
</g>
<!-- Node9&#45;&gt;Node7 -->
<g id="edge26" class="edge"><title>Node9&#45;&gt;Node7</title>
<path fill="none" stroke="midnightblue" d="M254.813,-187.198C273.409,-207.592 313.379,-248.937 354,-275 356.616,-276.679 359.346,-278.299 362.144,-279.857"/>
<polygon fill="midnightblue" stroke="midnightblue" points="360.776,-283.092 371.26,-284.618 364.017,-276.887 360.776,-283.092"/>
</g>
<!-- Node10 -->
<g id="node20" class="node"><title>Node10</title>
<a xlink:href="_c_o_r_e__6_8cpp.html#aa8157e82745eb3ac355d8f443b19955f" target="_top" xlink:title="refresh_shape_factors">
<polygon fill="white" stroke="black" points="365.5,-42 365.5,-66 478.5,-66 478.5,-42 365.5,-42"/>
<text text-anchor="middle" x="422" y="-53" font-family="Helvetica,sans-Serif" font-size="10.00">refresh_shape_factors</text>
</a>
</g>
<!-- Node9&#45;&gt;Node10 -->
<g id="edge20" class="edge"><title>Node9&#45;&gt;Node10</title>
<path fill="none" stroke="midnightblue" d="M284.725,-170.046C296.504,-166.971 308.682,-162.007 318,-154 347.265,-128.853 325.027,-100.482 354,-75 355.496,-73.6842 357.073,-72.4509 358.716,-71.2948"/>
<polygon fill="midnightblue" stroke="midnightblue" points="360.589,-74.253 367.397,-66.1345 357.012,-68.2359 360.589,-74.253"/>
</g>
<!-- Node11 -->
<g id="node22" class="node"><title>Node11</title>
<a xlink:href="saves__menu__8_8cpp.html#aa97cd577bd2f433780569b3a20136d23" target="_top" xlink:title="scan_importfolder">
<polygon fill="white" stroke="black" points="375,-0 375,-24 469,-24 469,-0 375,-0"/>
<text text-anchor="middle" x="422" y="-11" font-family="Helvetica,sans-Serif" font-size="10.00">scan_importfolder</text>
</a>
</g>
<!-- Node9&#45;&gt;Node11 -->
<g id="edge22" class="edge"><title>Node9&#45;&gt;Node11</title>
<path fill="none" stroke="midnightblue" d="M284.664,-171.011C296.718,-167.994 309.067,-162.82 318,-154 357.924,-114.578 314.532,-72.8788 354,-33 357.406,-29.5586 361.363,-26.6787 365.621,-24.2691"/>
<polygon fill="midnightblue" stroke="midnightblue" points="367.176,-27.4053 374.708,-19.9541 364.174,-21.082 367.176,-27.4053"/>
</g>
<!-- Node12 -->
<g id="node24" class="node"><title>Node12</title>
<a xlink:href="saves__menu__8_8cpp.html#aa54ed73e914394a0efe1c45930c72cbd" target="_top" xlink:title="scan_savesfolder">
<polygon fill="white" stroke="black" points="375.5,-184 375.5,-208 468.5,-208 468.5,-184 375.5,-184"/>
<text text-anchor="middle" x="422" y="-195" font-family="Helvetica,sans-Serif" font-size="10.00">scan_savesfolder</text>
</a>
</g>
<!-- Node9&#45;&gt;Node12 -->
<g id="edge24" class="edge"><title>Node9&#45;&gt;Node12</title>
<path fill="none" stroke="midnightblue" d="M284.837,-179.818C308.668,-182.629 339.091,-186.219 365.228,-189.302"/>
<polygon fill="midnightblue" stroke="midnightblue" points="365.043,-192.805 375.384,-190.5 365.863,-185.853 365.043,-192.805"/>
</g>
<!-- Node13 -->
<g id="node27" class="node"><title>Node13</title>
<a xlink:href="gestionaire__fenetres2_8cpp.html#a3ecbad4b357ed9e70478e6418261f2fd" target="_top" xlink:title="reset_config_indexes">
<polygon fill="white" stroke="black" points="367.5,-142 367.5,-166 476.5,-166 476.5,-142 367.5,-142"/>
<text text-anchor="middle" x="422" y="-153" font-family="Helvetica,sans-Serif" font-size="10.00">reset_config_indexes</text>
</a>
</g>
<!-- Node9&#45;&gt;Node13 -->
<g id="edge28" class="edge"><title>Node9&#45;&gt;Node13</title>
<path fill="none" stroke="midnightblue" d="M284.837,-170.182C306.212,-167.66 332.89,-164.513 357.022,-161.666"/>
<polygon fill="midnightblue" stroke="midnightblue" points="357.664,-165.115 367.185,-160.467 356.844,-158.163 357.664,-165.115"/>
</g>
<!-- Node14 -->
<g id="node29" class="node"><title>Node14</title>
<a xlink:href="gestionaire__fenetres2_8cpp.html#ad38c1b7f03bd1ec3007a87d4c55efacf" target="_top" xlink:title="clear_non_desired_values\l_in_window_list">
<polygon fill="white" stroke="black" points="357.5,-84 357.5,-124 486.5,-124 486.5,-84 357.5,-84"/>
<text text-anchor="start" x="365.5" y="-111" font-family="Helvetica,sans-Serif" font-size="10.00">clear_non_desired_values</text>
<text text-anchor="middle" x="422" y="-95" font-family="Helvetica,sans-Serif" font-size="10.00">_in_window_list</text>
</a>
</g>
<!-- Node9&#45;&gt;Node14 -->
<g id="edge30" class="edge"><title>Node9&#45;&gt;Node14</title>
<path fill="none" stroke="midnightblue" d="M284.577,-165.466C295.613,-162.342 307.432,-158.497 318,-154 335.044,-146.748 337.448,-141.316 354,-133 357.134,-131.425 360.374,-129.856 363.661,-128.31"/>
<polygon fill="midnightblue" stroke="midnightblue" points="365.373,-131.376 373.003,-124.025 362.454,-125.013 365.373,-131.376"/>
</g>
</g>
</svg>
