<?xml version="1.0" encoding="UTF-8" standalone="no"?>
<!DOCTYPE svg PUBLIC "-//W3C//DTD SVG 1.1//EN"
 "http://www.w3.org/Graphics/SVG/1.1/DTD/svg11.dtd">
<!-- Generated by graphviz version 2.26.3 (20100126.1600)
 -->
<!-- Title: key_switch_window_up Pages: 1 -->
<svg width="460pt" height="32pt"
 viewBox="0.00 0.00 460.00 32.00" xmlns="http://www.w3.org/2000/svg" xmlns:xlink="http://www.w3.org/1999/xlink">
<g id="graph1" class="graph" transform="scale(1 1) rotate(0) translate(4 28)">
<title>key_switch_window_up</title>
<polygon fill="white" stroke="white" points="-4,5 -4,-28 457,-28 457,5 -4,5"/>
<!-- Node1 -->
<g id="node1" class="node"><title>Node1</title>
<polygon fill="#bfbfbf" stroke="black" points="0,-0 0,-24 120,-24 120,-0 0,-0"/>
<text text-anchor="middle" x="60" y="-11" font-family="Helvetica,sans-Serif" font-size="10.00">key_switch_window_up</text>
</g>
<!-- Node2 -->
<g id="node3" class="node"><title>Node2</title>
<a xlink:href="keyboard__routines2_8cpp.html#a8563320b8eab661232619224650de244" target="_top" xlink:title="commandes_clavier">
<polygon fill="white" stroke="black" points="156,-0 156,-24 260,-24 260,-0 156,-0"/>
<text text-anchor="middle" x="208" y="-11" font-family="Helvetica,sans-Serif" font-size="10.00">commandes_clavier</text>
</a>
</g>
<!-- Node1&#45;&gt;Node2 -->
<g id="edge2" class="edge"><title>Node1&#45;&gt;Node2</title>
<path fill="none" stroke="midnightblue" d="M130.279,-12C138.917,-12 147.623,-12 155.925,-12"/>
<polygon fill="midnightblue" stroke="midnightblue" points="130.197,-8.5001 120.197,-12 130.197,-15.5001 130.197,-8.5001"/>
</g>
<!-- Node3 -->
<g id="node5" class="node"><title>Node3</title>
<a xlink:href="_m_a_i_n__avec__objets_8cpp.html#a8e80f54ac804eddce8ed6e45adb1db44" target="_top" xlink:title="ticker_full_loop">
<polygon fill="white" stroke="black" points="296,-0 296,-24 378,-24 378,-0 296,-0"/>
<text text-anchor="middle" x="337" y="-11" font-family="Helvetica,sans-Serif" font-size="10.00">ticker_full_loop</text>
</a>
</g>
<!-- Node2&#45;&gt;Node3 -->
<g id="edge4" class="edge"><title>Node2&#45;&gt;Node3</title>
<path fill="none" stroke="midnightblue" d="M270.228,-12C278.912,-12 287.651,-12 295.814,-12"/>
<polygon fill="midnightblue" stroke="midnightblue" points="270.097,-8.5001 260.097,-12 270.097,-15.5001 270.097,-8.5001"/>
</g>
<!-- Node4 -->
<g id="node7" class="node"><title>Node4</title>
<a xlink:href="_m_a_i_n__avec__objets_8cpp.html#ae66f6b31b5ad750f1fe042a706a4e3d4" target="_top" xlink:title="main">
<polygon fill="white" stroke="black" points="414,-0 414,-24 452,-24 452,-0 414,-0"/>
<text text-anchor="middle" x="433" y="-11" font-family="Helvetica,sans-Serif" font-size="10.00">main</text>
</a>
</g>
<!-- Node3&#45;&gt;Node4 -->
<g id="edge6" class="edge"><title>Node3&#45;&gt;Node4</title>
<path fill="none" stroke="midnightblue" d="M388.509,-12C397.577,-12 406.476,-12 413.904,-12"/>
<polygon fill="midnightblue" stroke="midnightblue" points="388.27,-8.5001 378.27,-12 388.27,-15.5001 388.27,-8.5001"/>
</g>
</g>
</svg>
