<?xml version="1.0" encoding="UTF-8" standalone="no"?>
<!DOCTYPE svg PUBLIC "-//W3C//DTD SVG 1.1//EN"
 "http://www.w3.org/Graphics/SVG/1.1/DTD/svg11.dtd">
<!-- Generated by graphviz version 2.26.3 (20100126.1600)
 -->
<!-- Title: key_left Pages: 1 -->
<svg width="392pt" height="32pt"
 viewBox="0.00 0.00 392.00 32.00" xmlns="http://www.w3.org/2000/svg" xmlns:xlink="http://www.w3.org/1999/xlink">
<g id="graph1" class="graph" transform="scale(1 1) rotate(0) translate(4 28)">
<title>key_left</title>
<polygon fill="white" stroke="white" points="-4,5 -4,-28 389,-28 389,5 -4,5"/>
<!-- Node1 -->
<g id="node1" class="node"><title>Node1</title>
<polygon fill="#bfbfbf" stroke="black" points="0.5,-0 0.5,-24 51.5,-24 51.5,-0 0.5,-0"/>
<text text-anchor="middle" x="26" y="-11" font-family="Helvetica,sans-Serif" font-size="10.00">key_left</text>
</g>
<!-- Node2 -->
<g id="node3" class="node"><title>Node2</title>
<a xlink:href="keyboard__routines2_8cpp.html#a8563320b8eab661232619224650de244" target="_top" xlink:title="commandes_clavier">
<polygon fill="white" stroke="black" points="88,-0 88,-24 192,-24 192,-0 88,-0"/>
<text text-anchor="middle" x="140" y="-11" font-family="Helvetica,sans-Serif" font-size="10.00">commandes_clavier</text>
</a>
</g>
<!-- Node1&#45;&gt;Node2 -->
<g id="edge2" class="edge"><title>Node1&#45;&gt;Node2</title>
<path fill="none" stroke="midnightblue" d="M61.6819,-12C70.0048,-12 79.0362,-12 87.9078,-12"/>
<polygon fill="midnightblue" stroke="midnightblue" points="61.5839,-8.5001 51.5838,-12 61.5838,-15.5001 61.5839,-8.5001"/>
</g>
<!-- Node3 -->
<g id="node5" class="node"><title>Node3</title>
<a xlink:href="_m_a_i_n__avec__objets_8cpp.html#a8e80f54ac804eddce8ed6e45adb1db44" target="_top" xlink:title="ticker_full_loop">
<polygon fill="white" stroke="black" points="228,-0 228,-24 310,-24 310,-0 228,-0"/>
<text text-anchor="middle" x="269" y="-11" font-family="Helvetica,sans-Serif" font-size="10.00">ticker_full_loop</text>
</a>
</g>
<!-- Node2&#45;&gt;Node3 -->
<g id="edge4" class="edge"><title>Node2&#45;&gt;Node3</title>
<path fill="none" stroke="midnightblue" d="M202.228,-12C210.912,-12 219.651,-12 227.814,-12"/>
<polygon fill="midnightblue" stroke="midnightblue" points="202.097,-8.5001 192.097,-12 202.097,-15.5001 202.097,-8.5001"/>
</g>
<!-- Node4 -->
<g id="node7" class="node"><title>Node4</title>
<a xlink:href="_m_a_i_n__avec__objets_8cpp.html#ae66f6b31b5ad750f1fe042a706a4e3d4" target="_top" xlink:title="main">
<polygon fill="white" stroke="black" points="346,-0 346,-24 384,-24 384,-0 346,-0"/>
<text text-anchor="middle" x="365" y="-11" font-family="Helvetica,sans-Serif" font-size="10.00">main</text>
</a>
</g>
<!-- Node3&#45;&gt;Node4 -->
<g id="edge6" class="edge"><title>Node3&#45;&gt;Node4</title>
<path fill="none" stroke="midnightblue" d="M320.509,-12C329.577,-12 338.476,-12 345.904,-12"/>
<polygon fill="midnightblue" stroke="midnightblue" points="320.27,-8.5001 310.27,-12 320.27,-15.5001 320.27,-8.5001"/>
</g>
</g>
</svg>
