<?xml version="1.0" encoding="UTF-8" standalone="no"?>
<!DOCTYPE svg PUBLIC "-//W3C//DTD SVG 1.1//EN"
 "http://www.w3.org/Graphics/SVG/1.1/DTD/svg11.dtd">
<!-- Generated by graphviz version 2.26.3 (20100126.1600)
 -->
<!-- Title: check_channel_minus Pages: 1 -->
<svg width="542pt" height="32pt"
 viewBox="0.00 0.00 542.00 32.00" xmlns="http://www.w3.org/2000/svg" xmlns:xlink="http://www.w3.org/1999/xlink">
<g id="graph1" class="graph" transform="scale(1 1) rotate(0) translate(4 28)">
<title>check_channel_minus</title>
<polygon fill="white" stroke="white" points="-4,5 -4,-28 539,-28 539,5 -4,5"/>
<!-- Node1 -->
<g id="node1" class="node"><title>Node1</title>
<polygon fill="#bfbfbf" stroke="black" points="0.5,-0 0.5,-24 113.5,-24 113.5,-0 0.5,-0"/>
<text text-anchor="middle" x="57" y="-11" font-family="Helvetica,sans-Serif" font-size="10.00">check_channel_minus</text>
</g>
<!-- Node2 -->
<g id="node3" class="node"><title>Node2</title>
<a xlink:href="keyboard__functions2_8cpp.html#a550bced3dbf99b30877939e8931f68c7" target="_top" xlink:title="key_left">
<polygon fill="white" stroke="black" points="150.5,-0 150.5,-24 201.5,-24 201.5,-0 150.5,-0"/>
<text text-anchor="middle" x="176" y="-11" font-family="Helvetica,sans-Serif" font-size="10.00">key_left</text>
</a>
</g>
<!-- Node1&#45;&gt;Node2 -->
<g id="edge2" class="edge"><title>Node1&#45;&gt;Node2</title>
<path fill="none" stroke="midnightblue" d="M123.912,-12C133.264,-12 142.368,-12 150.28,-12"/>
<polygon fill="midnightblue" stroke="midnightblue" points="123.712,-8.5001 113.712,-12 123.712,-15.5001 123.712,-8.5001"/>
</g>
<!-- Node3 -->
<g id="node5" class="node"><title>Node3</title>
<a xlink:href="keyboard__routines2_8cpp.html#a8563320b8eab661232619224650de244" target="_top" xlink:title="commandes_clavier">
<polygon fill="white" stroke="black" points="238,-0 238,-24 342,-24 342,-0 238,-0"/>
<text text-anchor="middle" x="290" y="-11" font-family="Helvetica,sans-Serif" font-size="10.00">commandes_clavier</text>
</a>
</g>
<!-- Node2&#45;&gt;Node3 -->
<g id="edge4" class="edge"><title>Node2&#45;&gt;Node3</title>
<path fill="none" stroke="midnightblue" d="M211.682,-12C220.005,-12 229.036,-12 237.908,-12"/>
<polygon fill="midnightblue" stroke="midnightblue" points="211.584,-8.5001 201.584,-12 211.584,-15.5001 211.584,-8.5001"/>
</g>
<!-- Node4 -->
<g id="node7" class="node"><title>Node4</title>
<a xlink:href="_m_a_i_n__avec__objets_8cpp.html#a8e80f54ac804eddce8ed6e45adb1db44" target="_top" xlink:title="ticker_full_loop">
<polygon fill="white" stroke="black" points="378,-0 378,-24 460,-24 460,-0 378,-0"/>
<text text-anchor="middle" x="419" y="-11" font-family="Helvetica,sans-Serif" font-size="10.00">ticker_full_loop</text>
</a>
</g>
<!-- Node3&#45;&gt;Node4 -->
<g id="edge6" class="edge"><title>Node3&#45;&gt;Node4</title>
<path fill="none" stroke="midnightblue" d="M352.228,-12C360.912,-12 369.651,-12 377.814,-12"/>
<polygon fill="midnightblue" stroke="midnightblue" points="352.097,-8.5001 342.097,-12 352.097,-15.5001 352.097,-8.5001"/>
</g>
<!-- Node5 -->
<g id="node9" class="node"><title>Node5</title>
<a xlink:href="_m_a_i_n__avec__objets_8cpp.html#ae66f6b31b5ad750f1fe042a706a4e3d4" target="_top" xlink:title="main">
<polygon fill="white" stroke="black" points="496,-0 496,-24 534,-24 534,-0 496,-0"/>
<text text-anchor="middle" x="515" y="-11" font-family="Helvetica,sans-Serif" font-size="10.00">main</text>
</a>
</g>
<!-- Node4&#45;&gt;Node5 -->
<g id="edge8" class="edge"><title>Node4&#45;&gt;Node5</title>
<path fill="none" stroke="midnightblue" d="M470.509,-12C479.577,-12 488.476,-12 495.904,-12"/>
<polygon fill="midnightblue" stroke="midnightblue" points="470.27,-8.5001 460.27,-12 470.27,-15.5001 470.27,-8.5001"/>
</g>
</g>
</svg>
