<?xml version="1.0" encoding="UTF-8" standalone="no"?>
<!DOCTYPE svg PUBLIC "-//W3C//DTD SVG 1.1//EN"
 "http://www.w3.org/Graphics/SVG/1.1/DTD/svg11.dtd">
<!-- Generated by graphviz version 2.26.3 (20100126.1600)
 -->
<!-- Title: check_channel_minus Pages: 1 -->
<svg width="288pt" height="222pt"
 viewBox="0.00 0.00 288.00 222.00" xmlns="http://www.w3.org/2000/svg" xmlns:xlink="http://www.w3.org/1999/xlink">
<g id="graph1" class="graph" transform="scale(1 1) rotate(0) translate(4 218)">
<title>check_channel_minus</title>
<polygon fill="white" stroke="white" points="-4,5 -4,-218 285,-218 285,5 -4,5"/>
<!-- Node1 -->
<g id="node1" class="node"><title>Node1</title>
<polygon fill="#bfbfbf" stroke="black" points="0.5,-95 0.5,-119 113.5,-119 113.5,-95 0.5,-95"/>
<text text-anchor="middle" x="57" y="-106" font-family="Helvetica,sans-Serif" font-size="10.00">check_channel_minus</text>
</g>
<!-- Node2 -->
<g id="node3" class="node"><title>Node2</title>
<a xlink:href="_c_o_r_e__6_8cpp.html#aa0329053411635ed42b29bcdb7287acf" target="_top" xlink:title="check_presence_of_any\l_channel_in_A_view">
<polygon fill="white" stroke="black" points="154,-174 154,-214 276,-214 276,-174 154,-174"/>
<text text-anchor="start" x="162" y="-201" font-family="Helvetica,sans-Serif" font-size="10.00">check_presence_of_any</text>
<text text-anchor="middle" x="215" y="-185" font-family="Helvetica,sans-Serif" font-size="10.00">_channel_in_A_view</text>
</a>
</g>
<!-- Node1&#45;&gt;Node2 -->
<g id="edge2" class="edge"><title>Node1&#45;&gt;Node2</title>
<path fill="none" stroke="midnightblue" d="M74.7406,-119.092C93.1398,-131.386 122.949,-150.619 150,-165 152.837,-166.508 155.768,-168.009 158.745,-169.489"/>
<polygon fill="midnightblue" stroke="midnightblue" points="157.238,-172.648 167.765,-173.85 160.285,-166.346 157.238,-172.648"/>
</g>
<!-- Node3 -->
<g id="node5" class="node"><title>Node3</title>
<a xlink:href="_c_o_r_e__6_8cpp.html#abe9a3b526c970e74827588b9e7dac195" target="_top" xlink:title="detect_last_activ_channel\l_in_activ_view">
<polygon fill="white" stroke="black" points="150,-116 150,-156 280,-156 280,-116 150,-116"/>
<text text-anchor="start" x="158" y="-143" font-family="Helvetica,sans-Serif" font-size="10.00">detect_last_activ_channel</text>
<text text-anchor="middle" x="215" y="-127" font-family="Helvetica,sans-Serif" font-size="10.00">_in_activ_view</text>
</a>
</g>
<!-- Node1&#45;&gt;Node3 -->
<g id="edge4" class="edge"><title>Node1&#45;&gt;Node3</title>
<path fill="none" stroke="midnightblue" d="M113.595,-117.388C122.152,-118.958 131.091,-120.599 139.963,-122.227"/>
<polygon fill="midnightblue" stroke="midnightblue" points="139.46,-125.693 149.927,-124.056 140.724,-118.808 139.46,-125.693"/>
</g>
<!-- Node4 -->
<g id="node7" class="node"><title>Node4</title>
<a xlink:href="_c_o_r_e__6_8cpp.html#a894b338494d0bdd820df2944b628e2de" target="_top" xlink:title="patch_unselect_all\l_dimmers">
<polygon fill="white" stroke="black" points="166,-58 166,-98 264,-98 264,-58 166,-58"/>
<text text-anchor="start" x="174" y="-85" font-family="Helvetica,sans-Serif" font-size="10.00">patch_unselect_all</text>
<text text-anchor="middle" x="215" y="-69" font-family="Helvetica,sans-Serif" font-size="10.00">_dimmers</text>
</a>
</g>
<!-- Node1&#45;&gt;Node4 -->
<g id="edge6" class="edge"><title>Node1&#45;&gt;Node4</title>
<path fill="none" stroke="midnightblue" d="M113.595,-96.6122C127.347,-94.0882 142.087,-91.3829 155.949,-88.8385"/>
<polygon fill="midnightblue" stroke="midnightblue" points="156.657,-92.267 165.861,-87.0191 155.394,-85.382 156.657,-92.267"/>
</g>
<!-- Node5 -->
<g id="node9" class="node"><title>Node5</title>
<a xlink:href="plot_8cpp.html#a63d5e7a094f416fd40690d465ffacdd0" target="_top" xlink:title="add_channel_selection\l_to_layers_plot">
<polygon fill="white" stroke="black" points="157,-0 157,-40 273,-40 273,-0 157,-0"/>
<text text-anchor="start" x="165" y="-27" font-family="Helvetica,sans-Serif" font-size="10.00">add_channel_selection</text>
<text text-anchor="middle" x="215" y="-11" font-family="Helvetica,sans-Serif" font-size="10.00">_to_layers_plot</text>
</a>
</g>
<!-- Node1&#45;&gt;Node5 -->
<g id="edge8" class="edge"><title>Node1&#45;&gt;Node5</title>
<path fill="none" stroke="midnightblue" d="M74.7406,-94.9077C93.1398,-82.6139 122.949,-63.3813 150,-49 152.837,-47.4918 155.768,-45.9909 158.745,-44.5112"/>
<polygon fill="midnightblue" stroke="midnightblue" points="160.285,-47.6542 167.765,-40.1503 157.238,-41.3521 160.285,-47.6542"/>
</g>
</g>
</svg>
