<?xml version="1.0" encoding="UTF-8" standalone="no"?>
<!DOCTYPE svg PUBLIC "-//W3C//DTD SVG 1.1//EN"
 "http://www.w3.org/Graphics/SVG/1.1/DTD/svg11.dtd">
<!-- Generated by graphviz version 2.26.3 (20100126.1600)
 -->
<!-- Title: key_full Pages: 1 -->
<svg width="386pt" height="82pt"
 viewBox="0.00 0.00 386.00 82.00" xmlns="http://www.w3.org/2000/svg" xmlns:xlink="http://www.w3.org/1999/xlink">
<g id="graph1" class="graph" transform="scale(1 1) rotate(0) translate(4 78)">
<title>key_full</title>
<polygon fill="white" stroke="white" points="-4,5 -4,-78 383,-78 383,5 -4,5"/>
<!-- Node1 -->
<g id="node1" class="node"><title>Node1</title>
<polygon fill="#bfbfbf" stroke="black" points="0,-21 0,-45 50,-45 50,-21 0,-21"/>
<text text-anchor="middle" x="25" y="-32" font-family="Helvetica,sans-Serif" font-size="10.00">key_full</text>
</g>
<!-- Node2 -->
<g id="node3" class="node"><title>Node2</title>
<a xlink:href="_c_o_r_e__6_8cpp.html#aa788448f95d9a014495e26c5ea74d944" target="_top" xlink:title="patch_to_default_selected">
<polygon fill="white" stroke="black" points="86.5,-42 86.5,-66 217.5,-66 217.5,-42 86.5,-42"/>
<text text-anchor="middle" x="152" y="-53" font-family="Helvetica,sans-Serif" font-size="10.00">patch_to_default_selected</text>
</a>
</g>
<!-- Node1&#45;&gt;Node2 -->
<g id="edge2" class="edge"><title>Node1&#45;&gt;Node2</title>
<path fill="none" stroke="midnightblue" d="M50.0911,-37.1489C57.9242,-38.4442 67.0064,-39.9459 76.458,-41.5088"/>
<polygon fill="midnightblue" stroke="midnightblue" points="75.9675,-44.9751 86.4045,-43.1535 77.1095,-38.0689 75.9675,-44.9751"/>
</g>
<!-- Node4 -->
<g id="node7" class="node"><title>Node4</title>
<a xlink:href="_c_o_r_e__6_8cpp.html#a852678868d2a66db68f4a2c9eacfcc78" target="_top" xlink:title="reset_numeric_entry">
<polygon fill="white" stroke="black" points="99.5,-0 99.5,-24 204.5,-24 204.5,-0 99.5,-0"/>
<text text-anchor="middle" x="152" y="-11" font-family="Helvetica,sans-Serif" font-size="10.00">reset_numeric_entry</text>
</a>
</g>
<!-- Node1&#45;&gt;Node4 -->
<g id="edge6" class="edge"><title>Node1&#45;&gt;Node4</title>
<path fill="none" stroke="midnightblue" d="M50.0911,-28.8511C61.4342,-26.9754 75.3964,-24.6667 89.307,-22.3666"/>
<polygon fill="midnightblue" stroke="midnightblue" points="90.0938,-25.7841 99.3888,-20.6995 88.9517,-18.8779 90.0938,-25.7841"/>
</g>
<!-- Node3 -->
<g id="node5" class="node"><title>Node3</title>
<a xlink:href="_c_o_r_e__6_8cpp.html#a4c85f2143a3ecf799c3fbfe6e0d0d62a" target="_top" xlink:title="reconstruct_plot_dimmer\l_list_from_patch">
<polygon fill="white" stroke="black" points="254,-34 254,-74 378,-74 378,-34 254,-34"/>
<text text-anchor="start" x="262" y="-61" font-family="Helvetica,sans-Serif" font-size="10.00">reconstruct_plot_dimmer</text>
<text text-anchor="middle" x="316" y="-45" font-family="Helvetica,sans-Serif" font-size="10.00">_list_from_patch</text>
</a>
</g>
<!-- Node2&#45;&gt;Node3 -->
<g id="edge4" class="edge"><title>Node2&#45;&gt;Node3</title>
<path fill="none" stroke="midnightblue" d="M217.76,-54C226.343,-54 235.173,-54 243.853,-54"/>
<polygon fill="midnightblue" stroke="midnightblue" points="243.951,-57.5001 253.951,-54 243.951,-50.5001 243.951,-57.5001"/>
</g>
</g>
</svg>
