<?xml version="1.0" encoding="UTF-8" standalone="no"?>
<!DOCTYPE svg PUBLIC "-//W3C//DTD SVG 1.1//EN"
 "http://www.w3.org/Graphics/SVG/1.1/DTD/svg11.dtd">
<!-- Generated by graphviz version 2.26.3 (20100126.1600)
 -->
<!-- Title: do_channels_macro Pages: 1 -->
<!--zoomable 195 -->
<svg id="main" version="1.1" xmlns="http://www.w3.org/2000/svg" xmlns:xlink="http://www.w3.org/1999/xlink" xml:space="preserve" onload="init(evt)">
<style type="text/css"><![CDATA[
.edge:hover path { stroke: red; }
.edge:hover polygon { stroke: red; fill: red; }
]]></style>
<script type="text/javascript"><![CDATA[
var edges = document.getElementsByTagName('g');
if (edges && edges.length) {
  for (var i=0;i<edges.length;i++) {
    if (edges[i].id.substr(0,4)=='edge') {
      edges[i].setAttribute('class','edge');
    }
  }
}
]]></script>
        <defs>
                <circle id="rim" cx="0" cy="0" r="7"/>
                <circle id="rim2" cx="0" cy="0" r="3.5"/>
                <g id="zoomPlus">
                        <use xlink:href="#rim" fill="#404040">
                                <set attributeName="fill" to="#808080" begin="zoomplus.mouseover" end="zoomplus.mouseout"/>
                        </use>
                        <path d="M-4,0h8M0,-4v8" fill="none" stroke="white" stroke-width="1.5" pointer-events="none"/>
                </g>
                <g id="zoomMin">
                        <use xlink:href="#rim" fill="#404040">
                                <set attributeName="fill" to="#808080" begin="zoomminus.mouseover" end="zoomminus.mouseout"/>
                        </use>
                        <path d="M-4,0h8" fill="none" stroke="white" stroke-width="1.5" pointer-events="none"/>
                </g>
                <g id="dirArrow">
                        <path fill="none" stroke="white" stroke-width="1.5" d="M0,-3.0v7 M-2.5,-0.5L0,-3.0L2.5,-0.5"/>
                </g>
               <g id="resetDef">
                       <use xlink:href="#rim2" fill="#404040">
                               <set attributeName="fill" to="#808080" begin="reset.mouseover" end="reset.mouseout"/>
                       </use>
               </g>
        </defs>

<script type="text/javascript">
var viewWidth = 534;
var viewHeight = 195;
var sectionId = 'dynsection-3';
</script>
<script xlink:href="svgpan.js"/>
<svg id="graph" class="graph">
<g id="viewport">
<title>do_channels_macro</title>
<polygon fill="white" stroke="white" points="-4,5 -4,-191 531,-191 531,5 -4,5"/>
<!-- Node1 -->
<g id="node1" class="node"><title>Node1</title>
<polygon fill="#bfbfbf" stroke="black" points="0,-50 0,-74 104,-74 104,-50 0,-50"/>
<text text-anchor="middle" x="52" y="-61" font-family="Helvetica,sans-Serif" font-size="10.00">do_channels_macro</text>
</g>
<!-- Node2 -->
<g id="node3" class="node"><title>Node2</title>
<a xlink:href="list__proj__core_8cpp.html#a99d20171657c9d6aa521bcee25202e46" target="_top" xlink:title="do_the_macro_of_the\l_channel">
<polygon fill="white" stroke="black" points="140,-42 140,-82 250,-82 250,-42 140,-42"/>
<text text-anchor="start" x="148" y="-69" font-family="Helvetica,sans-Serif" font-size="10.00">do_the_macro_of_the</text>
<text text-anchor="middle" x="195" y="-53" font-family="Helvetica,sans-Serif" font-size="10.00">_channel</text>
</a>
</g>
<!-- Node1&#45;&gt;Node2 -->
<g id="edge2" class="edge"><title>Node1&#45;&gt;Node2</title>
<path fill="none" stroke="midnightblue" d="M104.031,-62C112.411,-62 121.177,-62 129.819,-62"/>
<polygon fill="midnightblue" stroke="midnightblue" points="129.877,-65.5001 139.877,-62 129.877,-58.5001 129.877,-65.5001"/>
</g>
<!-- Node3 -->
<g id="node5" class="node"><title>Node3</title>
<a xlink:href="audio__core5_8cpp.html#a441637bcca17a3226a6b3aadea1defe9" target="_top" xlink:title="AffectSoundFile">
<polygon fill="white" stroke="black" points="301,-100 301,-124 387,-124 387,-100 301,-100"/>
<text text-anchor="middle" x="344" y="-111" font-family="Helvetica,sans-Serif" font-size="10.00">AffectSoundFile</text>
</a>
</g>
<!-- Node2&#45;&gt;Node3 -->
<g id="edge4" class="edge"><title>Node2&#45;&gt;Node3</title>
<path fill="none" stroke="midnightblue" d="M250.059,-80.4761C265.972,-85.816 283.157,-91.5828 298.424,-96.7059"/>
<polygon fill="midnightblue" stroke="midnightblue" points="297.552,-100.105 308.146,-99.9686 299.779,-93.469 297.552,-100.105"/>
</g>
<!-- Node8 -->
<g id="node15" class="node"><title>Node8</title>
<a xlink:href="_c_o_r_e__6_8cpp.html#a508dbd6f669f4288435f15723ee22a24" target="_top" xlink:title="send_immidiateley_my\l_midi_cc">
<polygon fill="white" stroke="black" points="286,-42 286,-82 402,-82 402,-42 286,-42"/>
<text text-anchor="start" x="294" y="-69" font-family="Helvetica,sans-Serif" font-size="10.00">send_immidiateley_my</text>
<text text-anchor="middle" x="344" y="-53" font-family="Helvetica,sans-Serif" font-size="10.00">_midi_cc</text>
</a>
</g>
<!-- Node2&#45;&gt;Node8 -->
<g id="edge14" class="edge"><title>Node2&#45;&gt;Node8</title>
<path fill="none" stroke="midnightblue" d="M250.059,-62C258.46,-62 267.216,-62 275.857,-62"/>
<polygon fill="midnightblue" stroke="midnightblue" points="275.92,-65.5001 285.92,-62 275.92,-58.5001 275.92,-65.5001"/>
</g>
<!-- Node9 -->
<g id="node17" class="node"><title>Node9</title>
<a xlink:href="_c_o_r_e__6_8cpp.html#ad598ada3395937db3457ab6ee10dcdb7" target="_top" xlink:title="send_my_midi_note">
<polygon fill="white" stroke="black" points="292,-0 292,-24 396,-24 396,-0 292,-0"/>
<text text-anchor="middle" x="344" y="-11" font-family="Helvetica,sans-Serif" font-size="10.00">send_my_midi_note</text>
</a>
</g>
<!-- Node2&#45;&gt;Node9 -->
<g id="edge16" class="edge"><title>Node2&#45;&gt;Node9</title>
<path fill="none" stroke="midnightblue" d="M250.059,-43.5239C265.972,-38.184 283.157,-32.4172 298.424,-27.2941"/>
<polygon fill="midnightblue" stroke="midnightblue" points="299.779,-30.531 308.146,-24.0314 297.552,-23.8947 299.779,-30.531"/>
</g>
<!-- Node4 -->
<g id="node7" class="node"><title>Node4</title>
<a xlink:href="_c_o_r_e__6_8cpp.html#a23423256688613149926c4984ff25f79" target="_top" xlink:title="player1_do_stop">
<polygon fill="white" stroke="black" points="438,-163 438,-187 526,-187 526,-163 438,-163"/>
<text text-anchor="middle" x="482" y="-174" font-family="Helvetica,sans-Serif" font-size="10.00">player1_do_stop</text>
</a>
</g>
<!-- Node3&#45;&gt;Node4 -->
<g id="edge6" class="edge"><title>Node3&#45;&gt;Node4</title>
<path fill="none" stroke="midnightblue" d="M370.608,-124.147C392.085,-133.952 422.51,-147.841 446.136,-158.628"/>
<polygon fill="midnightblue" stroke="midnightblue" points="444.923,-161.921 455.474,-162.89 447.831,-155.553 444.923,-161.921"/>
</g>
<!-- Node5 -->
<g id="node9" class="node"><title>Node5</title>
<a xlink:href="_c_o_r_e__6_8cpp.html#a6c41d19d859a2e1292ad64ef915e265f" target="_top" xlink:title="player2_do_stop">
<polygon fill="white" stroke="black" points="438,-121 438,-145 526,-145 526,-121 438,-121"/>
<text text-anchor="middle" x="482" y="-132" font-family="Helvetica,sans-Serif" font-size="10.00">player2_do_stop</text>
</a>
</g>
<!-- Node3&#45;&gt;Node5 -->
<g id="edge8" class="edge"><title>Node3&#45;&gt;Node5</title>
<path fill="none" stroke="midnightblue" d="M387.285,-118.587C400.135,-120.542 414.373,-122.709 427.823,-124.756"/>
<polygon fill="midnightblue" stroke="midnightblue" points="427.505,-128.248 437.918,-126.292 428.558,-121.327 427.505,-128.248"/>
</g>
<!-- Node6 -->
<g id="node11" class="node"><title>Node6</title>
<a xlink:href="_c_o_r_e__6_8cpp.html#a494249193c56b13a4e1eac04c6dd2d0b" target="_top" xlink:title="player3_do_stop">
<polygon fill="white" stroke="black" points="438,-79 438,-103 526,-103 526,-79 438,-79"/>
<text text-anchor="middle" x="482" y="-90" font-family="Helvetica,sans-Serif" font-size="10.00">player3_do_stop</text>
</a>
</g>
<!-- Node3&#45;&gt;Node6 -->
<g id="edge10" class="edge"><title>Node3&#45;&gt;Node6</title>
<path fill="none" stroke="midnightblue" d="M387.285,-105.413C400.135,-103.458 414.373,-101.291 427.823,-99.2444"/>
<polygon fill="midnightblue" stroke="midnightblue" points="428.558,-102.673 437.918,-97.7081 427.505,-95.7525 428.558,-102.673"/>
</g>
<!-- Node7 -->
<g id="node13" class="node"><title>Node7</title>
<a xlink:href="_c_o_r_e__6_8cpp.html#afbcf17b50787fb3b8360659f6ce9b193" target="_top" xlink:title="player4_do_stop">
<polygon fill="white" stroke="black" points="438,-37 438,-61 526,-61 526,-37 438,-37"/>
<text text-anchor="middle" x="482" y="-48" font-family="Helvetica,sans-Serif" font-size="10.00">player4_do_stop</text>
</a>
</g>
<!-- Node3&#45;&gt;Node7 -->
<g id="edge12" class="edge"><title>Node3&#45;&gt;Node7</title>
<path fill="none" stroke="midnightblue" d="M380.301,-99.9994C387.585,-97.2736 395.113,-94.223 402,-91 418.777,-83.1483 421.628,-78.6633 438,-70 440.754,-68.5427 443.626,-67.0702 446.525,-65.6172"/>
<polygon fill="midnightblue" stroke="midnightblue" points="448.328,-68.631 455.764,-61.0841 445.245,-62.3466 448.328,-68.631"/>
</g>
</g>
</svg>
        <g id="navigator" transform="translate(0 0)" fill="#404254">
                <rect fill="#f2f5e9" fill-opacity="0.5" stroke="#606060" stroke-width=".5" x="0" y="0" width="60" height="60"/>
                <use id="zoomplus" xlink:href="#zoomPlus" x="17" y="9" onmousedown="handleZoom(evt,'in')"/>
                <use id="zoomminus" xlink:href="#zoomMin" x="42" y="9" onmousedown="handleZoom(evt,'out')"/>
                <use id="reset" xlink:href="#resetDef" x="30" y="36" onmousedown="handleReset()"/>
                <g id="arrowUp" xlink:href="#dirArrow" transform="translate(30 24)" onmousedown="handlePan(0,-1)">
                  <use xlink:href="#rim" fill="#404040">
                        <set attributeName="fill" to="#808080" begin="arrowUp.mouseover" end="arrowUp.mouseout"/>
                  </use>
                  <path fill="none" stroke="white" stroke-width="1.5" d="M0,-3.0v7 M-2.5,-0.5L0,-3.0L2.5,-0.5"/>
                </g>
                <g id="arrowRight" xlink:href="#dirArrow" transform="rotate(90) translate(36 -43)" onmousedown="handlePan(1,0)">
                  <use xlink:href="#rim" fill="#404040">
                        <set attributeName="fill" to="#808080" begin="arrowRight.mouseover" end="arrowRight.mouseout"/>
                  </use>
                  <path fill="none" stroke="white" stroke-width="1.5" d="M0,-3.0v7 M-2.5,-0.5L0,-3.0L2.5,-0.5"/>
                </g>
                <g id="arrowDown" xlink:href="#dirArrow" transform="rotate(180) translate(-30 -48)" onmousedown="handlePan(0,1)">
                  <use xlink:href="#rim" fill="#404040">
                        <set attributeName="fill" to="#808080" begin="arrowDown.mouseover" end="arrowDown.mouseout"/>
                  </use>
                  <path fill="none" stroke="white" stroke-width="1.5" d="M0,-3.0v7 M-2.5,-0.5L0,-3.0L2.5,-0.5"/>
                </g>
                <g id="arrowLeft" xlink:href="#dirArrow" transform="rotate(270) translate(-36 17)" onmousedown="handlePan(-1,0)">
                  <use xlink:href="#rim" fill="#404040">
                        <set attributeName="fill" to="#808080" begin="arrowLeft.mouseover" end="arrowLeft.mouseout"/>
                  </use>
                  <path fill="none" stroke="white" stroke-width="1.5" d="M0,-3.0v7 M-2.5,-0.5L0,-3.0L2.5,-0.5"/>
                </g>
        </g>
        <svg viewBox="0 0 15 15" width="100%" height="30px" preserveAspectRatio="xMaxYMin meet">
         <g id="arrow_out" transform="scale(0.3 0.3)">
          <a xlink:href="list__proj__core_8cpp_aab448c1fe8b4922feaee7951ee38100d_cgraph_org.svg" target="_base">
           <rect id="button" ry="5" rx="5" y="6" x="6" height="38" width="38"
                fill="#f2f5e9" fill-opacity="0.5" stroke="#606060" stroke-width="1.0"/>
           <path id="arrow"
             d="M 11.500037,31.436501 C 11.940474,20.09759 22.043105,11.32322 32.158766,21.979434 L 37.068811,17.246167 C 37.068811,17.246167 37.088388,32 37.088388,32 L 22.160133,31.978069 C 22.160133,31.978069 26.997745,27.140456 26.997745,27.140456 C 18.528582,18.264221 13.291696,25.230495 11.500037,31.436501 z"
             style="fill:#404040;"/>
          </a>
         </g>
        </svg>
</svg>
