<?xml version="1.0" encoding="UTF-8" standalone="no"?>
<!DOCTYPE svg PUBLIC "-//W3C//DTD SVG 1.1//EN"
 "http://www.w3.org/Graphics/SVG/1.1/DTD/svg11.dtd">
<!-- Generated by graphviz version 2.26.3 (20100126.1600)
 -->
<!-- Title: Channel_macros_core Pages: 1 -->
<svg width="644pt" height="48pt"
 viewBox="0.00 0.00 644.00 48.00" xmlns="http://www.w3.org/2000/svg" xmlns:xlink="http://www.w3.org/1999/xlink">
<g id="graph1" class="graph" transform="scale(1 1) rotate(0) translate(4 44)">
<title>Channel_macros_core</title>
<polygon fill="white" stroke="white" points="-4,5 -4,-44 641,-44 641,5 -4,5"/>
<!-- Node1 -->
<g id="node1" class="node"><title>Node1</title>
<polygon fill="#bfbfbf" stroke="black" points="0,-8 0,-32 114,-32 114,-8 0,-8"/>
<text text-anchor="middle" x="57" y="-19" font-family="Helvetica,sans-Serif" font-size="10.00">Channel_macros_core</text>
</g>
<!-- Node2 -->
<g id="node3" class="node"><title>Node2</title>
<a xlink:href="list__proj__core_8cpp.html#aa561615845b6064035f526f5ba0efb8e" target="_top" xlink:title="do_logical_liste_projecteurs">
<polygon fill="white" stroke="black" points="150.5,-8 150.5,-32 287.5,-32 287.5,-8 150.5,-8"/>
<text text-anchor="middle" x="219" y="-19" font-family="Helvetica,sans-Serif" font-size="10.00">do_logical_liste_projecteurs</text>
</a>
</g>
<!-- Node1&#45;&gt;Node2 -->
<g id="edge2" class="edge"><title>Node1&#45;&gt;Node2</title>
<path fill="none" stroke="midnightblue" d="M124.18,-20C132.861,-20 141.759,-20 150.462,-20"/>
<polygon fill="midnightblue" stroke="midnightblue" points="124.115,-16.5001 114.115,-20 124.115,-23.5001 124.115,-16.5001"/>
</g>
<!-- Node3 -->
<g id="node5" class="node"><title>Node3</title>
<a xlink:href="procs__visuels__rebuild1_8cpp.html#ae710b6e599e321ad5934a90140067054" target="_top" xlink:title="check_graphics_mouse\l_handling">
<polygon fill="white" stroke="black" points="324.5,-0 324.5,-40 443.5,-40 443.5,-0 324.5,-0"/>
<text text-anchor="start" x="332.5" y="-27" font-family="Helvetica,sans-Serif" font-size="10.00">check_graphics_mouse</text>
<text text-anchor="middle" x="384" y="-11" font-family="Helvetica,sans-Serif" font-size="10.00">_handling</text>
</a>
</g>
<!-- Node2&#45;&gt;Node3 -->
<g id="edge4" class="edge"><title>Node2&#45;&gt;Node3</title>
<path fill="none" stroke="midnightblue" d="M297.636,-20C306.621,-20 315.666,-20 324.346,-20"/>
<polygon fill="midnightblue" stroke="midnightblue" points="297.541,-16.5001 287.541,-20 297.541,-23.5001 297.541,-16.5001"/>
</g>
<!-- Node4 -->
<g id="node7" class="node"><title>Node4</title>
<a xlink:href="_m_a_i_n__avec__objets_8cpp.html#a8e80f54ac804eddce8ed6e45adb1db44" target="_top" xlink:title="ticker_full_loop">
<polygon fill="white" stroke="black" points="480,-8 480,-32 562,-32 562,-8 480,-8"/>
<text text-anchor="middle" x="521" y="-19" font-family="Helvetica,sans-Serif" font-size="10.00">ticker_full_loop</text>
</a>
</g>
<!-- Node3&#45;&gt;Node4 -->
<g id="edge6" class="edge"><title>Node3&#45;&gt;Node4</title>
<path fill="none" stroke="midnightblue" d="M453.967,-20C462.737,-20 471.475,-20 479.605,-20"/>
<polygon fill="midnightblue" stroke="midnightblue" points="453.692,-16.5001 443.692,-20 453.692,-23.5001 453.692,-16.5001"/>
</g>
<!-- Node5 -->
<g id="node9" class="node"><title>Node5</title>
<a xlink:href="_m_a_i_n__avec__objets_8cpp.html#ae66f6b31b5ad750f1fe042a706a4e3d4" target="_top" xlink:title="main">
<polygon fill="white" stroke="black" points="598,-8 598,-32 636,-32 636,-8 598,-8"/>
<text text-anchor="middle" x="617" y="-19" font-family="Helvetica,sans-Serif" font-size="10.00">main</text>
</a>
</g>
<!-- Node4&#45;&gt;Node5 -->
<g id="edge8" class="edge"><title>Node4&#45;&gt;Node5</title>
<path fill="none" stroke="midnightblue" d="M572.509,-20C581.577,-20 590.476,-20 597.904,-20"/>
<polygon fill="midnightblue" stroke="midnightblue" points="572.27,-16.5001 562.27,-20 572.27,-23.5001 572.27,-16.5001"/>
</g>
</g>
</svg>
