<?xml version="1.0" encoding="UTF-8" standalone="no"?>
<!DOCTYPE svg PUBLIC "-//W3C//DTD SVG 1.1//EN"
 "http://www.w3.org/Graphics/SVG/1.1/DTD/svg11.dtd">
<!-- Generated by graphviz version 2.26.3 (20100126.1600)
 -->
<!-- Title: do_the_macro_of_the_channel Pages: 1 -->
<svg width="394pt" height="195pt"
 viewBox="0.00 0.00 394.00 195.00" xmlns="http://www.w3.org/2000/svg" xmlns:xlink="http://www.w3.org/1999/xlink">
<g id="graph1" class="graph" transform="scale(1 1) rotate(0) translate(4 191)">
<title>do_the_macro_of_the_channel</title>
<polygon fill="white" stroke="white" points="-4,5 -4,-191 391,-191 391,5 -4,5"/>
<!-- Node1 -->
<g id="node1" class="node"><title>Node1</title>
<polygon fill="#bfbfbf" stroke="black" points="0,-42 0,-82 110,-82 110,-42 0,-42"/>
<text text-anchor="start" x="8" y="-69" font-family="Helvetica,sans-Serif" font-size="10.00">do_the_macro_of_the</text>
<text text-anchor="middle" x="55" y="-53" font-family="Helvetica,sans-Serif" font-size="10.00">_channel</text>
</g>
<!-- Node2 -->
<g id="node3" class="node"><title>Node2</title>
<a xlink:href="audio__core5_8cpp.html#a441637bcca17a3226a6b3aadea1defe9" target="_top" xlink:title="AffectSoundFile">
<polygon fill="white" stroke="black" points="161,-100 161,-124 247,-124 247,-100 161,-100"/>
<text text-anchor="middle" x="204" y="-111" font-family="Helvetica,sans-Serif" font-size="10.00">AffectSoundFile</text>
</a>
</g>
<!-- Node1&#45;&gt;Node2 -->
<g id="edge2" class="edge"><title>Node1&#45;&gt;Node2</title>
<path fill="none" stroke="midnightblue" d="M110.059,-80.4761C125.972,-85.816 143.157,-91.5828 158.424,-96.7059"/>
<polygon fill="midnightblue" stroke="midnightblue" points="157.552,-100.105 168.146,-99.9686 159.779,-93.469 157.552,-100.105"/>
</g>
<!-- Node7 -->
<g id="node13" class="node"><title>Node7</title>
<a xlink:href="_c_o_r_e__6_8cpp.html#a508dbd6f669f4288435f15723ee22a24" target="_top" xlink:title="send_immidiateley_my\l_midi_cc">
<polygon fill="white" stroke="black" points="146,-42 146,-82 262,-82 262,-42 146,-42"/>
<text text-anchor="start" x="154" y="-69" font-family="Helvetica,sans-Serif" font-size="10.00">send_immidiateley_my</text>
<text text-anchor="middle" x="204" y="-53" font-family="Helvetica,sans-Serif" font-size="10.00">_midi_cc</text>
</a>
</g>
<!-- Node1&#45;&gt;Node7 -->
<g id="edge12" class="edge"><title>Node1&#45;&gt;Node7</title>
<path fill="none" stroke="midnightblue" d="M110.059,-62C118.46,-62 127.216,-62 135.857,-62"/>
<polygon fill="midnightblue" stroke="midnightblue" points="135.92,-65.5001 145.92,-62 135.92,-58.5001 135.92,-65.5001"/>
</g>
<!-- Node8 -->
<g id="node15" class="node"><title>Node8</title>
<a xlink:href="_c_o_r_e__6_8cpp.html#ad598ada3395937db3457ab6ee10dcdb7" target="_top" xlink:title="send_my_midi_note">
<polygon fill="white" stroke="black" points="152,-0 152,-24 256,-24 256,-0 152,-0"/>
<text text-anchor="middle" x="204" y="-11" font-family="Helvetica,sans-Serif" font-size="10.00">send_my_midi_note</text>
</a>
</g>
<!-- Node1&#45;&gt;Node8 -->
<g id="edge14" class="edge"><title>Node1&#45;&gt;Node8</title>
<path fill="none" stroke="midnightblue" d="M110.059,-43.5239C125.972,-38.184 143.157,-32.4172 158.424,-27.2941"/>
<polygon fill="midnightblue" stroke="midnightblue" points="159.779,-30.531 168.146,-24.0314 157.552,-23.8947 159.779,-30.531"/>
</g>
<!-- Node3 -->
<g id="node5" class="node"><title>Node3</title>
<a xlink:href="_c_o_r_e__6_8cpp.html#a23423256688613149926c4984ff25f79" target="_top" xlink:title="player1_do_stop">
<polygon fill="white" stroke="black" points="298,-163 298,-187 386,-187 386,-163 298,-163"/>
<text text-anchor="middle" x="342" y="-174" font-family="Helvetica,sans-Serif" font-size="10.00">player1_do_stop</text>
</a>
</g>
<!-- Node2&#45;&gt;Node3 -->
<g id="edge4" class="edge"><title>Node2&#45;&gt;Node3</title>
<path fill="none" stroke="midnightblue" d="M230.608,-124.147C252.085,-133.952 282.51,-147.841 306.136,-158.628"/>
<polygon fill="midnightblue" stroke="midnightblue" points="304.923,-161.921 315.474,-162.89 307.831,-155.553 304.923,-161.921"/>
</g>
<!-- Node4 -->
<g id="node7" class="node"><title>Node4</title>
<a xlink:href="_c_o_r_e__6_8cpp.html#a6c41d19d859a2e1292ad64ef915e265f" target="_top" xlink:title="player2_do_stop">
<polygon fill="white" stroke="black" points="298,-121 298,-145 386,-145 386,-121 298,-121"/>
<text text-anchor="middle" x="342" y="-132" font-family="Helvetica,sans-Serif" font-size="10.00">player2_do_stop</text>
</a>
</g>
<!-- Node2&#45;&gt;Node4 -->
<g id="edge6" class="edge"><title>Node2&#45;&gt;Node4</title>
<path fill="none" stroke="midnightblue" d="M247.285,-118.587C260.135,-120.542 274.373,-122.709 287.823,-124.756"/>
<polygon fill="midnightblue" stroke="midnightblue" points="287.505,-128.248 297.918,-126.292 288.558,-121.327 287.505,-128.248"/>
</g>
<!-- Node5 -->
<g id="node9" class="node"><title>Node5</title>
<a xlink:href="_c_o_r_e__6_8cpp.html#a494249193c56b13a4e1eac04c6dd2d0b" target="_top" xlink:title="player3_do_stop">
<polygon fill="white" stroke="black" points="298,-79 298,-103 386,-103 386,-79 298,-79"/>
<text text-anchor="middle" x="342" y="-90" font-family="Helvetica,sans-Serif" font-size="10.00">player3_do_stop</text>
</a>
</g>
<!-- Node2&#45;&gt;Node5 -->
<g id="edge8" class="edge"><title>Node2&#45;&gt;Node5</title>
<path fill="none" stroke="midnightblue" d="M247.285,-105.413C260.135,-103.458 274.373,-101.291 287.823,-99.2444"/>
<polygon fill="midnightblue" stroke="midnightblue" points="288.558,-102.673 297.918,-97.7081 287.505,-95.7525 288.558,-102.673"/>
</g>
<!-- Node6 -->
<g id="node11" class="node"><title>Node6</title>
<a xlink:href="_c_o_r_e__6_8cpp.html#afbcf17b50787fb3b8360659f6ce9b193" target="_top" xlink:title="player4_do_stop">
<polygon fill="white" stroke="black" points="298,-37 298,-61 386,-61 386,-37 298,-37"/>
<text text-anchor="middle" x="342" y="-48" font-family="Helvetica,sans-Serif" font-size="10.00">player4_do_stop</text>
</a>
</g>
<!-- Node2&#45;&gt;Node6 -->
<g id="edge10" class="edge"><title>Node2&#45;&gt;Node6</title>
<path fill="none" stroke="midnightblue" d="M240.301,-99.9994C247.585,-97.2736 255.113,-94.223 262,-91 278.777,-83.1483 281.628,-78.6633 298,-70 300.754,-68.5427 303.626,-67.0702 306.525,-65.6172"/>
<polygon fill="midnightblue" stroke="midnightblue" points="308.328,-68.631 315.764,-61.0841 305.245,-62.3466 308.328,-68.631"/>
</g>
</g>
</svg>
