<?xml version="1.0" encoding="UTF-8" standalone="no"?>
<!DOCTYPE svg PUBLIC "-//W3C//DTD SVG 1.1//EN"
 "http://www.w3.org/Graphics/SVG/1.1/DTD/svg11.dtd">
<!-- Generated by graphviz version 2.26.3 (20100126.1600)
 -->
<!-- Title: do_the_macro_of_the_channel Pages: 1 -->
<!--zoomable 60 -->
<svg id="main" version="1.1" xmlns="http://www.w3.org/2000/svg" xmlns:xlink="http://www.w3.org/1999/xlink" xml:space="preserve" onload="init(evt)">
<style type="text/css"><![CDATA[
.edge:hover path { stroke: red; }
.edge:hover polygon { stroke: red; fill: red; }
]]></style>
<script type="text/javascript"><![CDATA[
var edges = document.getElementsByTagName('g');
if (edges && edges.length) {
  for (var i=0;i<edges.length;i++) {
    if (edges[i].id.substr(0,4)=='edge') {
      edges[i].setAttribute('class','edge');
    }
  }
}
]]></script>
        <defs>
                <circle id="rim" cx="0" cy="0" r="7"/>
                <circle id="rim2" cx="0" cy="0" r="3.5"/>
                <g id="zoomPlus">
                        <use xlink:href="#rim" fill="#404040">
                                <set attributeName="fill" to="#808080" begin="zoomplus.mouseover" end="zoomplus.mouseout"/>
                        </use>
                        <path d="M-4,0h8M0,-4v8" fill="none" stroke="white" stroke-width="1.5" pointer-events="none"/>
                </g>
                <g id="zoomMin">
                        <use xlink:href="#rim" fill="#404040">
                                <set attributeName="fill" to="#808080" begin="zoomminus.mouseover" end="zoomminus.mouseout"/>
                        </use>
                        <path d="M-4,0h8" fill="none" stroke="white" stroke-width="1.5" pointer-events="none"/>
                </g>
                <g id="dirArrow">
                        <path fill="none" stroke="white" stroke-width="1.5" d="M0,-3.0v7 M-2.5,-0.5L0,-3.0L2.5,-0.5"/>
                </g>
               <g id="resetDef">
                       <use xlink:href="#rim2" fill="#404040">
                               <set attributeName="fill" to="#808080" begin="reset.mouseover" end="reset.mouseout"/>
                       </use>
               </g>
        </defs>

<script type="text/javascript">
var viewWidth = 1042;
var viewHeight = 60;
var sectionId = 'dynsection-8';
</script>
<script xlink:href="svgpan.js"/>
<svg id="graph" class="graph">
<g id="viewport">
<title>do_the_macro_of_the_channel</title>
<polygon fill="white" stroke="white" points="-4,5 -4,-56 1039,-56 1039,5 -4,5"/>
<!-- Node1 -->
<g id="node1" class="node"><title>Node1</title>
<polygon fill="#bfbfbf" stroke="black" points="0,-0 0,-40 110,-40 110,-0 0,-0"/>
<text text-anchor="start" x="8" y="-27" font-family="Helvetica,sans-Serif" font-size="10.00">do_the_macro_of_the</text>
<text text-anchor="middle" x="55" y="-11" font-family="Helvetica,sans-Serif" font-size="10.00">_channel</text>
</g>
<!-- Node2 -->
<g id="node3" class="node"><title>Node2</title>
<a xlink:href="list__proj__core_8cpp.html#aab448c1fe8b4922feaee7951ee38100d" target="_top" xlink:title="do_channels_macro">
<polygon fill="white" stroke="black" points="146,-8 146,-32 250,-32 250,-8 146,-8"/>
<text text-anchor="middle" x="198" y="-19" font-family="Helvetica,sans-Serif" font-size="10.00">do_channels_macro</text>
</a>
</g>
<!-- Node1&#45;&gt;Node2 -->
<g id="edge2" class="edge"><title>Node1&#45;&gt;Node2</title>
<path fill="none" stroke="midnightblue" d="M120.494,-20C128.934,-20 137.485,-20 145.675,-20"/>
<polygon fill="midnightblue" stroke="midnightblue" points="120.288,-16.5001 110.288,-20 120.287,-23.5001 120.288,-16.5001"/>
</g>
<!-- Node3 -->
<g id="node5" class="node"><title>Node3</title>
<a xlink:href="_m_a_i_n__avec__objets_8cpp.html#a6a015280c1363331ada8a329be6eb7c8" target="_top" xlink:title="ticker">
<polygon fill="white" stroke="black" points="286.5,-8 286.5,-32 327.5,-32 327.5,-8 286.5,-8"/>
<text text-anchor="middle" x="307" y="-19" font-family="Helvetica,sans-Serif" font-size="10.00">ticker</text>
</a>
</g>
<!-- Node2&#45;&gt;Node3 -->
<g id="edge4" class="edge"><title>Node2&#45;&gt;Node3</title>
<path fill="none" stroke="midnightblue" d="M260.435,-20C269.742,-20 278.734,-20 286.293,-20"/>
<polygon fill="midnightblue" stroke="midnightblue" points="260.265,-16.5001 250.265,-20 260.265,-23.5001 260.265,-16.5001"/>
</g>
<!-- Node4 -->
<g id="node7" class="node"><title>Node4</title>
<a xlink:href="_c_f_g__config__panel__8_8cpp.html#aff76db94408106be22f658a05f17831a" target="_top" xlink:title="do_core_config">
<polygon fill="white" stroke="black" points="364.5,-28 364.5,-52 447.5,-52 447.5,-28 364.5,-28"/>
<text text-anchor="middle" x="406" y="-39" font-family="Helvetica,sans-Serif" font-size="10.00">do_core_config</text>
</a>
</g>
<!-- Node3&#45;&gt;Node4 -->
<g id="edge6" class="edge"><title>Node3&#45;&gt;Node4</title>
<path fill="none" stroke="midnightblue" d="M337.355,-26.1324C345.855,-27.8494 355.245,-29.7464 364.28,-31.5716"/>
<polygon fill="midnightblue" stroke="midnightblue" points="338.008,-22.6936 327.513,-24.144 336.622,-29.555 338.008,-22.6936"/>
</g>
<!-- Node9 -->
<g id="node17" class="node"><title>Node9</title>
<a xlink:href="_m_a_i_n__avec__objets_8cpp.html#ae66f6b31b5ad750f1fe042a706a4e3d4" target="_top" xlink:title="main">
<polygon fill="white" stroke="black" points="996,-8 996,-32 1034,-32 1034,-8 996,-8"/>
<text text-anchor="middle" x="1015" y="-19" font-family="Helvetica,sans-Serif" font-size="10.00">main</text>
</a>
</g>
<!-- Node3&#45;&gt;Node9 -->
<g id="edge18" class="edge"><title>Node3&#45;&gt;Node9</title>
<path fill="none" stroke="midnightblue" d="M337.667,-15.4617C380.267,-9.56085 459.811,-6.55032e-15 528,-0 528,-0 528,-0 776,-0 858.027,-7.10543e-15 955.34,-11.8436 995.838,-17.3027"/>
<polygon fill="midnightblue" stroke="midnightblue" points="337.074,-12.0106 327.662,-16.875 338.054,-18.9418 337.074,-12.0106"/>
</g>
<!-- Node5 -->
<g id="node9" class="node"><title>Node5</title>
<a xlink:href="_c_f_g__config__panel__8_8cpp.html#ad39c46e2fb3a3ba7ea0460140ead4f96" target="_top" xlink:title="do_panel_config">
<polygon fill="white" stroke="black" points="484.5,-28 484.5,-52 571.5,-52 571.5,-28 484.5,-28"/>
<text text-anchor="middle" x="528" y="-39" font-family="Helvetica,sans-Serif" font-size="10.00">do_panel_config</text>
</a>
</g>
<!-- Node4&#45;&gt;Node5 -->
<g id="edge8" class="edge"><title>Node4&#45;&gt;Node5</title>
<path fill="none" stroke="midnightblue" d="M457.875,-40C466.732,-40 475.851,-40 484.464,-40"/>
<polygon fill="midnightblue" stroke="midnightblue" points="457.644,-36.5001 447.644,-40 457.644,-43.5001 457.644,-36.5001"/>
</g>
<!-- Node6 -->
<g id="node11" class="node"><title>Node6</title>
<a xlink:href="_c_f_g__config__panel__8_8cpp.html#a7968da66bccdba8b864caf6c8435f68e" target="_top" xlink:title="config_general_menu">
<polygon fill="white" stroke="black" points="608.5,-28 608.5,-52 717.5,-52 717.5,-28 608.5,-28"/>
<text text-anchor="middle" x="663" y="-39" font-family="Helvetica,sans-Serif" font-size="10.00">config_general_menu</text>
</a>
</g>
<!-- Node5&#45;&gt;Node6 -->
<g id="edge10" class="edge"><title>Node5&#45;&gt;Node6</title>
<path fill="none" stroke="midnightblue" d="M582.072,-40C590.621,-40 599.471,-40 608.04,-40"/>
<polygon fill="midnightblue" stroke="midnightblue" points="581.831,-36.5001 571.831,-40 581.831,-43.5001 581.831,-36.5001"/>
</g>
<!-- Node7 -->
<g id="node13" class="node"><title>Node7</title>
<a xlink:href="graphics__rebuild1_8cpp.html#ac2eae1e03fb72cc734ffbcef566483bf" target="_top" xlink:title="Boxes">
<polygon fill="white" stroke="black" points="754,-28 754,-52 798,-52 798,-28 754,-28"/>
<text text-anchor="middle" x="776" y="-39" font-family="Helvetica,sans-Serif" font-size="10.00">Boxes</text>
</a>
</g>
<!-- Node6&#45;&gt;Node7 -->
<g id="edge12" class="edge"><title>Node6&#45;&gt;Node7</title>
<path fill="none" stroke="midnightblue" d="M727.747,-40C737.112,-40 746.168,-40 753.856,-40"/>
<polygon fill="midnightblue" stroke="midnightblue" points="727.514,-36.5001 717.514,-40 727.514,-43.5001 727.514,-36.5001"/>
</g>
<!-- Node8 -->
<g id="node15" class="node"><title>Node8</title>
<a xlink:href="_m_a_i_n__avec__objets_8cpp.html#ade8d4ba65d55c94f8ee277829d722155" target="_top" xlink:title="main_actions_on_screen">
<polygon fill="white" stroke="black" points="834.5,-28 834.5,-52 959.5,-52 959.5,-28 834.5,-28"/>
<text text-anchor="middle" x="897" y="-39" font-family="Helvetica,sans-Serif" font-size="10.00">main_actions_on_screen</text>
</a>
</g>
<!-- Node7&#45;&gt;Node8 -->
<g id="edge14" class="edge"><title>Node7&#45;&gt;Node8</title>
<path fill="none" stroke="midnightblue" d="M808.244,-40C816.32,-40 825.263,-40 834.271,-40"/>
<polygon fill="midnightblue" stroke="midnightblue" points="808.193,-36.5001 798.193,-40 808.193,-43.5001 808.193,-36.5001"/>
</g>
<!-- Node8&#45;&gt;Node9 -->
<g id="edge16" class="edge"><title>Node8&#45;&gt;Node9</title>
<path fill="none" stroke="midnightblue" d="M969.837,-27.6547C979.336,-26.0448 988.327,-24.5209 995.749,-23.2629"/>
<polygon fill="midnightblue" stroke="midnightblue" points="969.075,-24.2339 959.8,-29.3559 970.245,-31.1355 969.075,-24.2339"/>
</g>
</g>
</svg>
        <g id="navigator" transform="translate(0 0)" fill="#404254">
                <rect fill="#f2f5e9" fill-opacity="0.5" stroke="#606060" stroke-width=".5" x="0" y="0" width="60" height="60"/>
                <use id="zoomplus" xlink:href="#zoomPlus" x="17" y="9" onmousedown="handleZoom(evt,'in')"/>
                <use id="zoomminus" xlink:href="#zoomMin" x="42" y="9" onmousedown="handleZoom(evt,'out')"/>
                <use id="reset" xlink:href="#resetDef" x="30" y="36" onmousedown="handleReset()"/>
                <g id="arrowUp" xlink:href="#dirArrow" transform="translate(30 24)" onmousedown="handlePan(0,-1)">
                  <use xlink:href="#rim" fill="#404040">
                        <set attributeName="fill" to="#808080" begin="arrowUp.mouseover" end="arrowUp.mouseout"/>
                  </use>
                  <path fill="none" stroke="white" stroke-width="1.5" d="M0,-3.0v7 M-2.5,-0.5L0,-3.0L2.5,-0.5"/>
                </g>
                <g id="arrowRight" xlink:href="#dirArrow" transform="rotate(90) translate(36 -43)" onmousedown="handlePan(1,0)">
                  <use xlink:href="#rim" fill="#404040">
                        <set attributeName="fill" to="#808080" begin="arrowRight.mouseover" end="arrowRight.mouseout"/>
                  </use>
                  <path fill="none" stroke="white" stroke-width="1.5" d="M0,-3.0v7 M-2.5,-0.5L0,-3.0L2.5,-0.5"/>
                </g>
                <g id="arrowDown" xlink:href="#dirArrow" transform="rotate(180) translate(-30 -48)" onmousedown="handlePan(0,1)">
                  <use xlink:href="#rim" fill="#404040">
                        <set attributeName="fill" to="#808080" begin="arrowDown.mouseover" end="arrowDown.mouseout"/>
                  </use>
                  <path fill="none" stroke="white" stroke-width="1.5" d="M0,-3.0v7 M-2.5,-0.5L0,-3.0L2.5,-0.5"/>
                </g>
                <g id="arrowLeft" xlink:href="#dirArrow" transform="rotate(270) translate(-36 17)" onmousedown="handlePan(-1,0)">
                  <use xlink:href="#rim" fill="#404040">
                        <set attributeName="fill" to="#808080" begin="arrowLeft.mouseover" end="arrowLeft.mouseout"/>
                  </use>
                  <path fill="none" stroke="white" stroke-width="1.5" d="M0,-3.0v7 M-2.5,-0.5L0,-3.0L2.5,-0.5"/>
                </g>
        </g>
        <svg viewBox="0 0 15 15" width="100%" height="30px" preserveAspectRatio="xMaxYMin meet">
         <g id="arrow_out" transform="scale(0.3 0.3)">
          <a xlink:href="list__proj__core_8cpp_a99d20171657c9d6aa521bcee25202e46_icgraph_org.svg" target="_base">
           <rect id="button" ry="5" rx="5" y="6" x="6" height="38" width="38"
                fill="#f2f5e9" fill-opacity="0.5" stroke="#606060" stroke-width="1.0"/>
           <path id="arrow"
             d="M 11.500037,31.436501 C 11.940474,20.09759 22.043105,11.32322 32.158766,21.979434 L 37.068811,17.246167 C 37.068811,17.246167 37.088388,32 37.088388,32 L 22.160133,31.978069 C 22.160133,31.978069 26.997745,27.140456 26.997745,27.140456 C 18.528582,18.264221 13.291696,25.230495 11.500037,31.436501 z"
             style="fill:#404040;"/>
          </a>
         </g>
        </svg>
</svg>
