<?xml version="1.0" encoding="UTF-8" standalone="no"?>
<!DOCTYPE svg PUBLIC "-//W3C//DTD SVG 1.1//EN"
 "http://www.w3.org/Graphics/SVG/1.1/DTD/svg11.dtd">
<!-- Generated by graphviz version 2.26.3 (20100126.1600)
 -->
<!-- Title: entetes_confirmation Pages: 1 -->
<svg width="552pt" height="32pt"
 viewBox="0.00 0.00 552.00 32.00" xmlns="http://www.w3.org/2000/svg" xmlns:xlink="http://www.w3.org/1999/xlink">
<g id="graph1" class="graph" transform="scale(1 1) rotate(0) translate(4 28)">
<title>entetes_confirmation</title>
<polygon fill="white" stroke="white" points="-4,5 -4,-28 549,-28 549,5 -4,5"/>
<!-- Node1 -->
<g id="node1" class="node"><title>Node1</title>
<polygon fill="#bfbfbf" stroke="black" points="0.5,-0 0.5,-24 107.5,-24 107.5,-0 0.5,-0"/>
<text text-anchor="middle" x="54" y="-11" font-family="Helvetica,sans-Serif" font-size="10.00">entetes_confirmation</text>
</g>
<!-- Node2 -->
<g id="node3" class="node"><title>Node2</title>
<a xlink:href="logicals__intres_8cpp.html#a85967c22135715eca94d08af2ec1a1fb" target="_top" xlink:title="fenetre_confirm">
<polygon fill="white" stroke="black" points="144,-0 144,-24 228,-24 228,-0 144,-0"/>
<text text-anchor="middle" x="186" y="-11" font-family="Helvetica,sans-Serif" font-size="10.00">fenetre_confirm</text>
</a>
</g>
<!-- Node1&#45;&gt;Node2 -->
<g id="edge2" class="edge"><title>Node1&#45;&gt;Node2</title>
<path fill="none" stroke="midnightblue" d="M117.904,-12C126.655,-12 135.456,-12 143.69,-12"/>
<polygon fill="midnightblue" stroke="midnightblue" points="117.689,-8.5001 107.689,-12 117.689,-15.5001 117.689,-8.5001"/>
</g>
<!-- Node3 -->
<g id="node5" class="node"><title>Node3</title>
<a xlink:href="graphics__rebuild1_8cpp.html#ac2eae1e03fb72cc734ffbcef566483bf" target="_top" xlink:title="Boxes">
<polygon fill="white" stroke="black" points="264,-0 264,-24 308,-24 308,-0 264,-0"/>
<text text-anchor="middle" x="286" y="-11" font-family="Helvetica,sans-Serif" font-size="10.00">Boxes</text>
</a>
</g>
<!-- Node2&#45;&gt;Node3 -->
<g id="edge4" class="edge"><title>Node2&#45;&gt;Node3</title>
<path fill="none" stroke="midnightblue" d="M238.273,-12C247.285,-12 256.198,-12 263.839,-12"/>
<polygon fill="midnightblue" stroke="midnightblue" points="238.119,-8.5001 228.119,-12 238.119,-15.5001 238.119,-8.5001"/>
</g>
<!-- Node4 -->
<g id="node7" class="node"><title>Node4</title>
<a xlink:href="_m_a_i_n__avec__objets_8cpp.html#ade8d4ba65d55c94f8ee277829d722155" target="_top" xlink:title="main_actions_on_screen">
<polygon fill="white" stroke="black" points="344.5,-0 344.5,-24 469.5,-24 469.5,-0 344.5,-0"/>
<text text-anchor="middle" x="407" y="-11" font-family="Helvetica,sans-Serif" font-size="10.00">main_actions_on_screen</text>
</a>
</g>
<!-- Node3&#45;&gt;Node4 -->
<g id="edge6" class="edge"><title>Node3&#45;&gt;Node4</title>
<path fill="none" stroke="midnightblue" d="M318.244,-12C326.32,-12 335.263,-12 344.271,-12"/>
<polygon fill="midnightblue" stroke="midnightblue" points="318.193,-8.5001 308.193,-12 318.193,-15.5001 318.193,-8.5001"/>
</g>
<!-- Node5 -->
<g id="node9" class="node"><title>Node5</title>
<a xlink:href="_m_a_i_n__avec__objets_8cpp.html#ae66f6b31b5ad750f1fe042a706a4e3d4" target="_top" xlink:title="main">
<polygon fill="white" stroke="black" points="506,-0 506,-24 544,-24 544,-0 506,-0"/>
<text text-anchor="middle" x="525" y="-11" font-family="Helvetica,sans-Serif" font-size="10.00">main</text>
</a>
</g>
<!-- Node4&#45;&gt;Node5 -->
<g id="edge8" class="edge"><title>Node4&#45;&gt;Node5</title>
<path fill="none" stroke="midnightblue" d="M479.837,-12C489.336,-12 498.327,-12 505.749,-12"/>
<polygon fill="midnightblue" stroke="midnightblue" points="479.8,-8.5001 469.8,-12 479.8,-15.5001 479.8,-8.5001"/>
</g>
</g>
</svg>
