<?xml version="1.0" encoding="UTF-8" standalone="no"?>
<!DOCTYPE svg PUBLIC "-//W3C//DTD SVG 1.1//EN"
 "http://www.w3.org/Graphics/SVG/1.1/DTD/svg11.dtd">
<!-- Generated by graphviz version 2.26.3 (20100126.1600)
 -->
<!-- Title: do_midi_config Pages: 1 -->
<svg width="676pt" height="32pt"
 viewBox="0.00 0.00 676.00 32.00" xmlns="http://www.w3.org/2000/svg" xmlns:xlink="http://www.w3.org/1999/xlink">
<g id="graph1" class="graph" transform="scale(1 1) rotate(0) translate(4 28)">
<title>do_midi_config</title>
<polygon fill="white" stroke="white" points="-4,5 -4,-28 673,-28 673,5 -4,5"/>
<!-- Node1 -->
<g id="node1" class="node"><title>Node1</title>
<polygon fill="#bfbfbf" stroke="black" points="0,-0 0,-24 82,-24 82,-0 0,-0"/>
<text text-anchor="middle" x="41" y="-11" font-family="Helvetica,sans-Serif" font-size="10.00">do_midi_config</text>
</g>
<!-- Node2 -->
<g id="node3" class="node"><title>Node2</title>
<a xlink:href="_c_f_g__config__panel__8_8cpp.html#ad39c46e2fb3a3ba7ea0460140ead4f96" target="_top" xlink:title="do_panel_config">
<polygon fill="white" stroke="black" points="118.5,-0 118.5,-24 205.5,-24 205.5,-0 118.5,-0"/>
<text text-anchor="middle" x="162" y="-11" font-family="Helvetica,sans-Serif" font-size="10.00">do_panel_config</text>
</a>
</g>
<!-- Node1&#45;&gt;Node2 -->
<g id="edge2" class="edge"><title>Node1&#45;&gt;Node2</title>
<path fill="none" stroke="midnightblue" d="M92.3298,-12C101.01,-12 109.947,-12 118.406,-12"/>
<polygon fill="midnightblue" stroke="midnightblue" points="92.3029,-8.5001 82.3029,-12 92.3029,-15.5001 92.3029,-8.5001"/>
</g>
<!-- Node3 -->
<g id="node5" class="node"><title>Node3</title>
<a xlink:href="_c_f_g__config__panel__8_8cpp.html#a7968da66bccdba8b864caf6c8435f68e" target="_top" xlink:title="config_general_menu">
<polygon fill="white" stroke="black" points="242.5,-0 242.5,-24 351.5,-24 351.5,-0 242.5,-0"/>
<text text-anchor="middle" x="297" y="-11" font-family="Helvetica,sans-Serif" font-size="10.00">config_general_menu</text>
</a>
</g>
<!-- Node2&#45;&gt;Node3 -->
<g id="edge4" class="edge"><title>Node2&#45;&gt;Node3</title>
<path fill="none" stroke="midnightblue" d="M216.072,-12C224.621,-12 233.471,-12 242.04,-12"/>
<polygon fill="midnightblue" stroke="midnightblue" points="215.831,-8.5001 205.831,-12 215.831,-15.5001 215.831,-8.5001"/>
</g>
<!-- Node4 -->
<g id="node7" class="node"><title>Node4</title>
<a xlink:href="graphics__rebuild1_8cpp.html#ac2eae1e03fb72cc734ffbcef566483bf" target="_top" xlink:title="Boxes">
<polygon fill="white" stroke="black" points="388,-0 388,-24 432,-24 432,-0 388,-0"/>
<text text-anchor="middle" x="410" y="-11" font-family="Helvetica,sans-Serif" font-size="10.00">Boxes</text>
</a>
</g>
<!-- Node3&#45;&gt;Node4 -->
<g id="edge6" class="edge"><title>Node3&#45;&gt;Node4</title>
<path fill="none" stroke="midnightblue" d="M361.747,-12C371.112,-12 380.168,-12 387.856,-12"/>
<polygon fill="midnightblue" stroke="midnightblue" points="361.514,-8.5001 351.514,-12 361.514,-15.5001 361.514,-8.5001"/>
</g>
<!-- Node5 -->
<g id="node9" class="node"><title>Node5</title>
<a xlink:href="_m_a_i_n__avec__objets_8cpp.html#ade8d4ba65d55c94f8ee277829d722155" target="_top" xlink:title="main_actions_on_screen">
<polygon fill="white" stroke="black" points="468.5,-0 468.5,-24 593.5,-24 593.5,-0 468.5,-0"/>
<text text-anchor="middle" x="531" y="-11" font-family="Helvetica,sans-Serif" font-size="10.00">main_actions_on_screen</text>
</a>
</g>
<!-- Node4&#45;&gt;Node5 -->
<g id="edge8" class="edge"><title>Node4&#45;&gt;Node5</title>
<path fill="none" stroke="midnightblue" d="M442.244,-12C450.32,-12 459.263,-12 468.271,-12"/>
<polygon fill="midnightblue" stroke="midnightblue" points="442.193,-8.5001 432.193,-12 442.193,-15.5001 442.193,-8.5001"/>
</g>
<!-- Node6 -->
<g id="node11" class="node"><title>Node6</title>
<a xlink:href="_m_a_i_n__avec__objets_8cpp.html#ae66f6b31b5ad750f1fe042a706a4e3d4" target="_top" xlink:title="main">
<polygon fill="white" stroke="black" points="630,-0 630,-24 668,-24 668,-0 630,-0"/>
<text text-anchor="middle" x="649" y="-11" font-family="Helvetica,sans-Serif" font-size="10.00">main</text>
</a>
</g>
<!-- Node5&#45;&gt;Node6 -->
<g id="edge10" class="edge"><title>Node5&#45;&gt;Node6</title>
<path fill="none" stroke="midnightblue" d="M603.837,-12C613.336,-12 622.327,-12 629.749,-12"/>
<polygon fill="midnightblue" stroke="midnightblue" points="603.8,-8.5001 593.8,-12 603.8,-15.5001 603.8,-8.5001"/>
</g>
</g>
</svg>
