<?xml version="1.0" encoding="UTF-8" standalone="no"?>
<!DOCTYPE svg PUBLIC "-//W3C//DTD SVG 1.1//EN"
 "http://www.w3.org/Graphics/SVG/1.1/DTD/svg11.dtd">
<!-- Generated by graphviz version 2.26.3 (20100126.1600)
 -->
<!-- Title: InitMidi Pages: 1 -->
<svg width="892pt" height="60pt"
 viewBox="0.00 0.00 892.00 60.00" xmlns="http://www.w3.org/2000/svg" xmlns:xlink="http://www.w3.org/1999/xlink">
<g id="graph1" class="graph" transform="scale(1 1) rotate(0) translate(4 56)">
<title>InitMidi</title>
<polygon fill="white" stroke="white" points="-4,5 -4,-56 889,-56 889,5 -4,5"/>
<!-- Node1 -->
<g id="node1" class="node"><title>Node1</title>
<polygon fill="#bfbfbf" stroke="black" points="0,-20 0,-44 48,-44 48,-20 0,-20"/>
<text text-anchor="middle" x="24" y="-31" font-family="Helvetica,sans-Serif" font-size="10.00">InitMidi</text>
</g>
<!-- Node2 -->
<g id="node3" class="node"><title>Node2</title>
<a xlink:href="_m_a_i_n__avec__objets_8cpp.html#ae66f6b31b5ad750f1fe042a706a4e3d4" target="_top" xlink:title="main">
<polygon fill="white" stroke="black" points="846,-20 846,-44 884,-44 884,-20 846,-20"/>
<text text-anchor="middle" x="865" y="-31" font-family="Helvetica,sans-Serif" font-size="10.00">main</text>
</a>
</g>
<!-- Node1&#45;&gt;Node2 -->
<g id="edge2" class="edge"><title>Node1&#45;&gt;Node2</title>
<path fill="none" stroke="midnightblue" d="M58.26,-36.7895C103.621,-42.7063 186.149,-52 257,-52 257,-52 257,-52 626,-52 708.027,-52 805.34,-40.1564 845.838,-34.6973"/>
<polygon fill="midnightblue" stroke="midnightblue" points="58.4661,-33.2862 48.0921,-35.4381 57.5438,-40.2252 58.4661,-33.2862"/>
</g>
<!-- Node3 -->
<g id="node5" class="node"><title>Node3</title>
<a xlink:href="midi__13_8cpp.html#ac7a306aa81e374b447e7341d4d3a3eea" target="_top" xlink:title="midipage_devices">
<polygon fill="white" stroke="black" points="84.5,-0 84.5,-24 179.5,-24 179.5,-0 84.5,-0"/>
<text text-anchor="middle" x="132" y="-11" font-family="Helvetica,sans-Serif" font-size="10.00">midipage_devices</text>
</a>
</g>
<!-- Node1&#45;&gt;Node3 -->
<g id="edge4" class="edge"><title>Node1&#45;&gt;Node3</title>
<path fill="none" stroke="midnightblue" d="M58.292,-25.6496C66.5901,-24.1129 75.6078,-22.443 84.3963,-20.8155"/>
<polygon fill="midnightblue" stroke="midnightblue" points="57.4328,-22.2491 48.2373,-27.5116 58.7075,-29.1321 57.4328,-22.2491"/>
</g>
<!-- Node4 -->
<g id="node7" class="node"><title>Node4</title>
<a xlink:href="midi__13_8cpp.html#a8f70acacad6eaba8867bdd80dda5e277" target="_top" xlink:title="do_midi_config">
<polygon fill="white" stroke="black" points="216,-0 216,-24 298,-24 298,-0 216,-0"/>
<text text-anchor="middle" x="257" y="-11" font-family="Helvetica,sans-Serif" font-size="10.00">do_midi_config</text>
</a>
</g>
<!-- Node3&#45;&gt;Node4 -->
<g id="edge6" class="edge"><title>Node3&#45;&gt;Node4</title>
<path fill="none" stroke="midnightblue" d="M189.766,-12C198.497,-12 207.353,-12 215.645,-12"/>
<polygon fill="midnightblue" stroke="midnightblue" points="189.614,-8.5001 179.614,-12 189.614,-15.5001 189.614,-8.5001"/>
</g>
<!-- Node5 -->
<g id="node9" class="node"><title>Node5</title>
<a xlink:href="_c_f_g__config__panel__8_8cpp.html#ad39c46e2fb3a3ba7ea0460140ead4f96" target="_top" xlink:title="do_panel_config">
<polygon fill="white" stroke="black" points="334.5,-0 334.5,-24 421.5,-24 421.5,-0 334.5,-0"/>
<text text-anchor="middle" x="378" y="-11" font-family="Helvetica,sans-Serif" font-size="10.00">do_panel_config</text>
</a>
</g>
<!-- Node4&#45;&gt;Node5 -->
<g id="edge8" class="edge"><title>Node4&#45;&gt;Node5</title>
<path fill="none" stroke="midnightblue" d="M308.33,-12C317.01,-12 325.947,-12 334.406,-12"/>
<polygon fill="midnightblue" stroke="midnightblue" points="308.303,-8.5001 298.303,-12 308.303,-15.5001 308.303,-8.5001"/>
</g>
<!-- Node6 -->
<g id="node11" class="node"><title>Node6</title>
<a xlink:href="_c_f_g__config__panel__8_8cpp.html#a7968da66bccdba8b864caf6c8435f68e" target="_top" xlink:title="config_general_menu">
<polygon fill="white" stroke="black" points="458.5,-0 458.5,-24 567.5,-24 567.5,-0 458.5,-0"/>
<text text-anchor="middle" x="513" y="-11" font-family="Helvetica,sans-Serif" font-size="10.00">config_general_menu</text>
</a>
</g>
<!-- Node5&#45;&gt;Node6 -->
<g id="edge10" class="edge"><title>Node5&#45;&gt;Node6</title>
<path fill="none" stroke="midnightblue" d="M432.072,-12C440.621,-12 449.471,-12 458.04,-12"/>
<polygon fill="midnightblue" stroke="midnightblue" points="431.831,-8.5001 421.831,-12 431.831,-15.5001 431.831,-8.5001"/>
</g>
<!-- Node7 -->
<g id="node13" class="node"><title>Node7</title>
<a xlink:href="graphics__rebuild1_8cpp.html#ac2eae1e03fb72cc734ffbcef566483bf" target="_top" xlink:title="Boxes">
<polygon fill="white" stroke="black" points="604,-0 604,-24 648,-24 648,-0 604,-0"/>
<text text-anchor="middle" x="626" y="-11" font-family="Helvetica,sans-Serif" font-size="10.00">Boxes</text>
</a>
</g>
<!-- Node6&#45;&gt;Node7 -->
<g id="edge12" class="edge"><title>Node6&#45;&gt;Node7</title>
<path fill="none" stroke="midnightblue" d="M577.747,-12C587.112,-12 596.168,-12 603.856,-12"/>
<polygon fill="midnightblue" stroke="midnightblue" points="577.514,-8.5001 567.514,-12 577.514,-15.5001 577.514,-8.5001"/>
</g>
<!-- Node8 -->
<g id="node15" class="node"><title>Node8</title>
<a xlink:href="_m_a_i_n__avec__objets_8cpp.html#ade8d4ba65d55c94f8ee277829d722155" target="_top" xlink:title="main_actions_on_screen">
<polygon fill="white" stroke="black" points="684.5,-0 684.5,-24 809.5,-24 809.5,-0 684.5,-0"/>
<text text-anchor="middle" x="747" y="-11" font-family="Helvetica,sans-Serif" font-size="10.00">main_actions_on_screen</text>
</a>
</g>
<!-- Node7&#45;&gt;Node8 -->
<g id="edge14" class="edge"><title>Node7&#45;&gt;Node8</title>
<path fill="none" stroke="midnightblue" d="M658.244,-12C666.32,-12 675.263,-12 684.271,-12"/>
<polygon fill="midnightblue" stroke="midnightblue" points="658.193,-8.5001 648.193,-12 658.193,-15.5001 658.193,-8.5001"/>
</g>
<!-- Node8&#45;&gt;Node2 -->
<g id="edge16" class="edge"><title>Node8&#45;&gt;Node2</title>
<path fill="none" stroke="midnightblue" d="M819.837,-24.3453C829.336,-25.9552 838.327,-27.4791 845.749,-28.7371"/>
<polygon fill="midnightblue" stroke="midnightblue" points="820.245,-20.8645 809.8,-22.6441 819.075,-27.7661 820.245,-20.8645"/>
</g>
</g>
</svg>
