<?xml version="1.0" encoding="UTF-8" standalone="no"?>
<!DOCTYPE svg PUBLIC "-//W3C//DTD SVG 1.1//EN"
 "http://www.w3.org/Graphics/SVG/1.1/DTD/svg11.dtd">
<!-- Generated by graphviz version 2.26.3 (20100126.1600)
 -->
<!-- Title: do_midi_config Pages: 1 -->
<svg width="708pt" height="460pt"
 viewBox="0.00 0.00 708.00 460.00" xmlns="http://www.w3.org/2000/svg" xmlns:xlink="http://www.w3.org/1999/xlink">
<g id="graph1" class="graph" transform="scale(1 1) rotate(0) translate(4 456)">
<title>do_midi_config</title>
<polygon fill="white" stroke="white" points="-4,5 -4,-456 705,-456 705,5 -4,5"/>
<!-- Node1 -->
<g id="node1" class="node"><title>Node1</title>
<polygon fill="#bfbfbf" stroke="black" points="0,-143 0,-167 82,-167 82,-143 0,-143"/>
<text text-anchor="middle" x="41" y="-154" font-family="Helvetica,sans-Serif" font-size="10.00">do_midi_config</text>
</g>
<!-- Node2 -->
<g id="node3" class="node"><title>Node2</title>
<a xlink:href="midi__13_8cpp.html#ac7a306aa81e374b447e7341d4d3a3eea" target="_top" xlink:title="midipage_devices">
<polygon fill="white" stroke="black" points="125.5,-327 125.5,-351 220.5,-351 220.5,-327 125.5,-327"/>
<text text-anchor="middle" x="173" y="-338" font-family="Helvetica,sans-Serif" font-size="10.00">midipage_devices</text>
</a>
</g>
<!-- Node1&#45;&gt;Node2 -->
<g id="edge2" class="edge"><title>Node1&#45;&gt;Node2</title>
<path fill="none" stroke="midnightblue" d="M49.6609,-167.073C71.7503,-197.864 130.394,-279.61 158.102,-318.232"/>
<polygon fill="midnightblue" stroke="midnightblue" points="155.461,-320.556 164.134,-326.642 161.149,-316.476 155.461,-320.556"/>
</g>
<!-- Node11 -->
<g id="node21" class="node"><title>Node11</title>
<a xlink:href="midi__13_8cpp.html#a110e58b11dbde556672bce44aafba38a" target="_top" xlink:title="midipage_preset_and\l_options">
<polygon fill="white" stroke="black" points="118.5,-135 118.5,-175 227.5,-175 227.5,-135 118.5,-135"/>
<text text-anchor="start" x="126.5" y="-162" font-family="Helvetica,sans-Serif" font-size="10.00">midipage_preset_and</text>
<text text-anchor="middle" x="173" y="-146" font-family="Helvetica,sans-Serif" font-size="10.00">_options</text>
</a>
</g>
<!-- Node1&#45;&gt;Node11 -->
<g id="edge20" class="edge"><title>Node1&#45;&gt;Node11</title>
<path fill="none" stroke="midnightblue" d="M82.0421,-155C90.4001,-155 99.3844,-155 108.336,-155"/>
<polygon fill="midnightblue" stroke="midnightblue" points="108.394,-158.5 118.393,-155 108.393,-151.5 108.394,-158.5"/>
</g>
<!-- Node23 -->
<g id="node47" class="node"><title>Node23</title>
<a xlink:href="midi__13_8cpp.html#a658bd5e9ac4307a561f2f4ffa41e70ee" target="_top" xlink:title="midipage_affectation">
<polygon fill="white" stroke="black" points="120,-62 120,-86 226,-86 226,-62 120,-62"/>
<text text-anchor="middle" x="173" y="-73" font-family="Helvetica,sans-Serif" font-size="10.00">midipage_affectation</text>
</a>
</g>
<!-- Node1&#45;&gt;Node23 -->
<g id="edge48" class="edge"><title>Node1&#45;&gt;Node23</title>
<path fill="none" stroke="midnightblue" d="M60.7617,-142.873C82.9247,-129.274 119.067,-107.095 144.333,-91.5912"/>
<polygon fill="midnightblue" stroke="midnightblue" points="146.411,-94.4228 153.103,-86.2094 142.749,-88.4565 146.411,-94.4228"/>
</g>
<!-- Node3 -->
<g id="node5" class="node"><title>Node3</title>
<a xlink:href="midi__13_8cpp.html#aff8c5f1fdfe9df36489591a068675118" target="_top" xlink:title="midi_list_and_choose\l_devices">
<polygon fill="white" stroke="black" points="267,-294 267,-334 377,-334 377,-294 267,-294"/>
<text text-anchor="start" x="275" y="-321" font-family="Helvetica,sans-Serif" font-size="10.00">midi_list_and_choose</text>
<text text-anchor="middle" x="322" y="-305" font-family="Helvetica,sans-Serif" font-size="10.00">_devices</text>
</a>
</g>
<!-- Node2&#45;&gt;Node3 -->
<g id="edge4" class="edge"><title>Node2&#45;&gt;Node3</title>
<path fill="none" stroke="midnightblue" d="M220.554,-331.021C232.065,-329.09 244.568,-326.992 256.737,-324.95"/>
<polygon fill="midnightblue" stroke="midnightblue" points="257.568,-328.36 266.851,-323.253 256.41,-321.456 257.568,-328.36"/>
</g>
<!-- Node5 -->
<g id="node9" class="node"><title>Node5</title>
<a xlink:href="midi___c_o_r_e_8cpp.html#a03ded972e797f8e15514a17805345818" target="_top" xlink:title="QuitMidi">
<polygon fill="white" stroke="black" points="295.5,-394 295.5,-418 348.5,-418 348.5,-394 295.5,-394"/>
<text text-anchor="middle" x="322" y="-405" font-family="Helvetica,sans-Serif" font-size="10.00">QuitMidi</text>
</a>
</g>
<!-- Node2&#45;&gt;Node5 -->
<g id="edge8" class="edge"><title>Node2&#45;&gt;Node5</title>
<path fill="none" stroke="midnightblue" d="M195.081,-351.107C213.291,-360.86 239.948,-374.612 264,-385 270.962,-388.007 278.51,-390.957 285.787,-393.652"/>
<polygon fill="midnightblue" stroke="midnightblue" points="284.869,-397.041 295.463,-397.15 287.249,-390.458 284.869,-397.041"/>
</g>
<!-- Node6 -->
<g id="node11" class="node"><title>Node6</title>
<a xlink:href="midi___c_o_r_e_8cpp.html#a0ccf480a33424e626f88d109d53d8366" target="_top" xlink:title="InitMidi">
<polygon fill="white" stroke="black" points="298,-352 298,-376 346,-376 346,-352 298,-352"/>
<text text-anchor="middle" x="322" y="-363" font-family="Helvetica,sans-Serif" font-size="10.00">InitMidi</text>
</a>
</g>
<!-- Node2&#45;&gt;Node6 -->
<g id="edge10" class="edge"><title>Node2&#45;&gt;Node6</title>
<path fill="none" stroke="midnightblue" d="M220.554,-346.979C242.457,-350.654 267.951,-354.931 287.902,-358.279"/>
<polygon fill="midnightblue" stroke="midnightblue" points="287.341,-361.734 297.782,-359.937 288.499,-354.83 287.341,-361.734"/>
</g>
<!-- Node4 -->
<g id="node7" class="node"><title>Node4</title>
<a xlink:href="midi__13_8cpp.html#a7dba8baf7c2d933706a03f39c4525891" target="_top" xlink:title="PrintSlotsInfosDevices">
<polygon fill="white" stroke="black" points="429.5,-302 429.5,-326 546.5,-326 546.5,-302 429.5,-302"/>
<text text-anchor="middle" x="488" y="-313" font-family="Helvetica,sans-Serif" font-size="10.00">PrintSlotsInfosDevices</text>
</a>
</g>
<!-- Node3&#45;&gt;Node4 -->
<g id="edge6" class="edge"><title>Node3&#45;&gt;Node4</title>
<path fill="none" stroke="midnightblue" d="M377.276,-314C390.709,-314 405.237,-314 419.211,-314"/>
<polygon fill="midnightblue" stroke="midnightblue" points="419.265,-317.5 429.265,-314 419.265,-310.5 419.265,-317.5"/>
</g>
<!-- Node7 -->
<g id="node13" class="node"><title>Node7</title>
<a xlink:href="midi___c_o_r_e_8cpp.html#a2b0b387b399b110d0894dd7c92cf64b3" target="_top" xlink:title="InitTblLibEv">
<polygon fill="white" stroke="black" points="454,-344 454,-368 522,-368 522,-344 454,-344"/>
<text text-anchor="middle" x="488" y="-355" font-family="Helvetica,sans-Serif" font-size="10.00">InitTblLibEv</text>
</a>
</g>
<!-- Node6&#45;&gt;Node7 -->
<g id="edge12" class="edge"><title>Node6&#45;&gt;Node7</title>
<path fill="none" stroke="midnightblue" d="M346.138,-362.837C371.586,-361.61 412.245,-359.651 443.524,-358.143"/>
<polygon fill="midnightblue" stroke="midnightblue" points="443.916,-361.629 453.736,-357.651 443.579,-354.637 443.916,-361.629"/>
</g>
<!-- Node8 -->
<g id="node15" class="node"><title>Node8</title>
<a xlink:href="midi___c_o_r_e_8cpp.html#a6fcb4c2efe85f50488d7aeeef1fc0a3e" target="_top" xlink:title="ReceiveEvents">
<polygon fill="white" stroke="black" points="446.5,-428 446.5,-452 529.5,-452 529.5,-428 446.5,-428"/>
<text text-anchor="middle" x="488" y="-439" font-family="Helvetica,sans-Serif" font-size="10.00">ReceiveEvents</text>
</a>
</g>
<!-- Node6&#45;&gt;Node8 -->
<g id="edge14" class="edge"><title>Node6&#45;&gt;Node8</title>
<path fill="none" stroke="midnightblue" d="M346.144,-370.305C356.967,-373.732 369.606,-378.597 380,-385 398.738,-396.543 396.905,-408.059 416,-419 422.369,-422.649 429.425,-425.71 436.555,-428.264"/>
<polygon fill="midnightblue" stroke="midnightblue" points="435.676,-431.658 446.269,-431.44 437.852,-425.005 435.676,-431.658"/>
</g>
<!-- Node10 -->
<g id="node19" class="node"><title>Node10</title>
<a xlink:href="midi___c_o_r_e_8cpp.html#ad481bcd8fdbcdd7399c796a7cd4a3ada" target="_top" xlink:title="InstallFilter">
<polygon fill="white" stroke="black" points="455.5,-386 455.5,-410 520.5,-410 520.5,-386 455.5,-386"/>
<text text-anchor="middle" x="488" y="-397" font-family="Helvetica,sans-Serif" font-size="10.00">InstallFilter</text>
</a>
</g>
<!-- Node6&#45;&gt;Node10 -->
<g id="edge18" class="edge"><title>Node6&#45;&gt;Node10</title>
<path fill="none" stroke="midnightblue" d="M346.138,-368.944C372.103,-374.262 413.901,-382.823 445.416,-389.278"/>
<polygon fill="midnightblue" stroke="midnightblue" points="444.754,-392.715 455.253,-391.293 446.159,-385.857 444.754,-392.715"/>
</g>
<!-- Node9 -->
<g id="node17" class="node"><title>Node9</title>
<a xlink:href="midi__13_8cpp.html#a831f1dfc7870ae4f6c64a0e65fbaf3ff" target="_top" xlink:title="Display">
<polygon fill="white" stroke="black" points="623,-428 623,-452 673,-452 673,-428 623,-428"/>
<text text-anchor="middle" x="648" y="-439" font-family="Helvetica,sans-Serif" font-size="10.00">Display</text>
</a>
</g>
<!-- Node8&#45;&gt;Node9 -->
<g id="edge16" class="edge"><title>Node8&#45;&gt;Node9</title>
<path fill="none" stroke="midnightblue" d="M529.62,-440C555.269,-440 587.816,-440 612.289,-440"/>
<polygon fill="midnightblue" stroke="midnightblue" points="612.574,-443.5 622.574,-440 612.574,-436.5 612.574,-443.5"/>
</g>
<!-- Node12 -->
<g id="node23" class="node"><title>Node12</title>
<a xlink:href="_c_o_r_e__6_8cpp.html#a9574e0b790211959c7398e42468410d8" target="_top" xlink:title="toggle">
<polygon fill="white" stroke="black" points="300.5,-211 300.5,-235 343.5,-235 343.5,-211 300.5,-211"/>
<text text-anchor="middle" x="322" y="-222" font-family="Helvetica,sans-Serif" font-size="10.00">toggle</text>
</a>
</g>
<!-- Node11&#45;&gt;Node12 -->
<g id="edge22" class="edge"><title>Node11&#45;&gt;Node12</title>
<path fill="none" stroke="midnightblue" d="M209.227,-175.079C225.701,-183.852 245.589,-193.953 264,-202 272.555,-205.74 282.011,-209.368 290.761,-212.527"/>
<polygon fill="midnightblue" stroke="midnightblue" points="289.66,-215.85 300.255,-215.875 291.988,-209.248 289.66,-215.85"/>
</g>
<!-- Node13 -->
<g id="node25" class="node"><title>Node13</title>
<a xlink:href="midi__launchpad_8cpp.html#a6f96c04520781848f749f65e9b8492ae" target="_top" xlink:title="reset_launchpad">
<polygon fill="white" stroke="black" points="278,-169 278,-193 366,-193 366,-169 278,-169"/>
<text text-anchor="middle" x="322" y="-180" font-family="Helvetica,sans-Serif" font-size="10.00">reset_launchpad</text>
</a>
</g>
<!-- Node11&#45;&gt;Node13 -->
<g id="edge24" class="edge"><title>Node11&#45;&gt;Node13</title>
<path fill="none" stroke="midnightblue" d="M227.636,-164.534C240.612,-166.798 254.456,-169.214 267.429,-171.478"/>
<polygon fill="midnightblue" stroke="midnightblue" points="267.161,-174.984 277.613,-173.255 268.364,-168.088 267.161,-174.984"/>
</g>
<!-- Node18 -->
<g id="node36" class="node"><title>Node18</title>
<a xlink:href="midi__13_8cpp.html#a72179ebf14bb726cf84ba6f4781bf7d2" target="_top" xlink:title="midi_launchpad_colors">
<polygon fill="white" stroke="black" points="264,-50 264,-74 380,-74 380,-50 264,-50"/>
<text text-anchor="middle" x="322" y="-61" font-family="Helvetica,sans-Serif" font-size="10.00">midi_launchpad_colors</text>
</a>
</g>
<!-- Node11&#45;&gt;Node18 -->
<g id="edge36" class="edge"><title>Node11&#45;&gt;Node18</title>
<path fill="none" stroke="midnightblue" d="M205.331,-134.82C231.706,-118.358 268.595,-95.3332 293.788,-79.6088"/>
<polygon fill="midnightblue" stroke="midnightblue" points="295.869,-82.4356 302.499,-74.1716 292.163,-76.4974 295.869,-82.4356"/>
</g>
<!-- Node21 -->
<g id="node43" class="node"><title>Node21</title>
<a xlink:href="midi__13_8cpp.html#a1be6169a0ed28989c422b9f72042f0bb" target="_top" xlink:title="midi_change_signal">
<polygon fill="white" stroke="black" points="271,-118 271,-142 373,-142 373,-118 271,-118"/>
<text text-anchor="middle" x="322" y="-129" font-family="Helvetica,sans-Serif" font-size="10.00">midi_change_signal</text>
</a>
</g>
<!-- Node11&#45;&gt;Node21 -->
<g id="edge44" class="edge"><title>Node11&#45;&gt;Node21</title>
<path fill="none" stroke="midnightblue" d="M227.636,-145.833C238.446,-144.019 249.858,-142.104 260.868,-140.257"/>
<polygon fill="midnightblue" stroke="midnightblue" points="261.554,-143.691 270.837,-138.584 260.395,-136.788 261.554,-143.691"/>
</g>
<!-- Node14 -->
<g id="node27" class="node"><title>Node14</title>
<a xlink:href="midi__launchpad_8cpp.html#ae33e05f7bf68aa5563156d334e942bc7" target="_top" xlink:title="define_colors">
<polygon fill="white" stroke="black" points="611,-116 611,-140 685,-140 685,-116 611,-116"/>
<text text-anchor="middle" x="648" y="-127" font-family="Helvetica,sans-Serif" font-size="10.00">define_colors</text>
</a>
</g>
<!-- Node13&#45;&gt;Node14 -->
<g id="edge26" class="edge"><title>Node13&#45;&gt;Node14</title>
<path fill="none" stroke="midnightblue" d="M366.305,-173.797C427.652,-163.824 537.99,-145.885 600.824,-135.67"/>
<polygon fill="midnightblue" stroke="midnightblue" points="601.55,-139.098 610.859,-134.038 600.427,-132.188 601.55,-139.098"/>
</g>
<!-- Node15 -->
<g id="node29" class="node"><title>Node15</title>
<a xlink:href="_c_o_r_e__6_8cpp.html#ad598ada3395937db3457ab6ee10dcdb7" target="_top" xlink:title="send_my_midi_note">
<polygon fill="white" stroke="black" points="596,-201 596,-225 700,-225 700,-201 596,-201"/>
<text text-anchor="middle" x="648" y="-212" font-family="Helvetica,sans-Serif" font-size="10.00">send_my_midi_note</text>
</a>
</g>
<!-- Node13&#45;&gt;Node15 -->
<g id="edge28" class="edge"><title>Node13&#45;&gt;Node15</title>
<path fill="none" stroke="midnightblue" d="M366.305,-185.349C423.069,-190.921 521.777,-200.61 585.986,-206.913"/>
<polygon fill="midnightblue" stroke="midnightblue" points="585.689,-210.4 595.983,-207.894 586.373,-203.434 585.689,-210.4"/>
</g>
<!-- Node16 -->
<g id="node31" class="node"><title>Node16</title>
<a xlink:href="_c_o_r_e__6_8cpp.html#afba5d73bd277858cb503c6bb4ae4634c" target="_top" xlink:title="send_my_midi_note_delayed">
<polygon fill="white" stroke="black" points="416.5,-218 416.5,-242 559.5,-242 559.5,-218 416.5,-218"/>
<text text-anchor="middle" x="488" y="-229" font-family="Helvetica,sans-Serif" font-size="10.00">send_my_midi_note_delayed</text>
</a>
</g>
<!-- Node13&#45;&gt;Node16 -->
<g id="edge30" class="edge"><title>Node13&#45;&gt;Node16</title>
<path fill="none" stroke="midnightblue" d="M363.034,-193.112C385.564,-199.763 413.694,-208.066 437.556,-215.11"/>
<polygon fill="midnightblue" stroke="midnightblue" points="436.569,-218.468 447.151,-217.942 438.551,-211.754 436.569,-218.468"/>
</g>
<!-- Node17 -->
<g id="node33" class="node"><title>Node17</title>
<a xlink:href="midi__launchpad_8cpp.html#af9548fa9e59c002812e934498e361e37" target="_top" xlink:title="launchpad_refresh_buffer_led">
<polygon fill="white" stroke="black" points="416.5,-260 416.5,-284 559.5,-284 559.5,-260 416.5,-260"/>
<text text-anchor="middle" x="488" y="-271" font-family="Helvetica,sans-Serif" font-size="10.00">launchpad_refresh_buffer_led</text>
</a>
</g>
<!-- Node13&#45;&gt;Node17 -->
<g id="edge32" class="edge"><title>Node13&#45;&gt;Node17</title>
<path fill="none" stroke="midnightblue" d="M364.697,-193.121C370.112,-195.599 375.369,-198.536 380,-202 401.639,-218.188 393.858,-235.508 416,-251 418.272,-252.59 420.665,-254.06 423.141,-255.42"/>
<polygon fill="midnightblue" stroke="midnightblue" points="421.887,-258.701 432.416,-259.879 424.92,-252.392 421.887,-258.701"/>
</g>
<!-- Node17&#45;&gt;Node15 -->
<g id="edge34" class="edge"><title>Node17&#45;&gt;Node15</title>
<path fill="none" stroke="midnightblue" d="M532.448,-259.973C541.625,-257.228 551.18,-254.177 560,-251 577.633,-244.649 596.784,-236.531 612.703,-229.43"/>
<polygon fill="midnightblue" stroke="midnightblue" points="614.48,-232.469 622.156,-225.166 611.601,-226.088 614.48,-232.469"/>
</g>
<!-- Node19 -->
<g id="node38" class="node"><title>Node19</title>
<a xlink:href="_c_o_r_e__6_8cpp.html#a852678868d2a66db68f4a2c9eacfcc78" target="_top" xlink:title="reset_numeric_entry">
<polygon fill="white" stroke="black" points="435.5,-0 435.5,-24 540.5,-24 540.5,-0 435.5,-0"/>
<text text-anchor="middle" x="488" y="-11" font-family="Helvetica,sans-Serif" font-size="10.00">reset_numeric_entry</text>
</a>
</g>
<!-- Node18&#45;&gt;Node19 -->
<g id="edge38" class="edge"><title>Node18&#45;&gt;Node19</title>
<path fill="none" stroke="midnightblue" d="M360.833,-49.8721C377.759,-44.6241 397.843,-38.4484 416,-33 422.536,-31.0388 429.413,-29.0005 436.218,-26.9989"/>
<polygon fill="midnightblue" stroke="midnightblue" points="437.476,-30.2774 446.088,-24.1058 435.507,-23.56 437.476,-30.2774"/>
</g>
<!-- Node20 -->
<g id="node40" class="node"><title>Node20</title>
<a xlink:href="midi__13_8cpp.html#a44d22ff6a4e809a5baa34035ebb96d3e" target="_top" xlink:title="refresh_launchpad_color\l_callibration">
<polygon fill="white" stroke="black" points="427,-42 427,-82 549,-82 549,-42 427,-42"/>
<text text-anchor="start" x="435" y="-69" font-family="Helvetica,sans-Serif" font-size="10.00">refresh_launchpad_color</text>
<text text-anchor="middle" x="488" y="-53" font-family="Helvetica,sans-Serif" font-size="10.00">_callibration</text>
</a>
</g>
<!-- Node18&#45;&gt;Node20 -->
<g id="edge40" class="edge"><title>Node18&#45;&gt;Node20</title>
<path fill="none" stroke="midnightblue" d="M380.059,-62C391.892,-62 404.47,-62 416.703,-62"/>
<polygon fill="midnightblue" stroke="midnightblue" points="416.873,-65.5001 426.873,-62 416.873,-58.5001 416.873,-65.5001"/>
</g>
<!-- Node20&#45;&gt;Node14 -->
<g id="edge42" class="edge"><title>Node20&#45;&gt;Node14</title>
<path fill="none" stroke="midnightblue" d="M538.005,-82.0273C545.387,-85.0171 552.897,-88.0764 560,-91 576.499,-97.7909 594.684,-105.414 610.219,-111.967"/>
<polygon fill="midnightblue" stroke="midnightblue" points="608.937,-115.225 619.511,-115.893 611.661,-108.777 608.937,-115.225"/>
</g>
<!-- Node22 -->
<g id="node45" class="node"><title>Node22</title>
<a xlink:href="colors__fonts_8h.html#a2907c9cae585224ac5e56bc4baad9970" target="_top" xlink:title="CouleurYellow">
<polygon fill="white" stroke="black" points="448.5,-100 448.5,-124 527.5,-124 527.5,-100 448.5,-100"/>
<text text-anchor="middle" x="488" y="-111" font-family="Helvetica,sans-Serif" font-size="10.00">CouleurYellow</text>
</a>
</g>
<!-- Node21&#45;&gt;Node22 -->
<g id="edge46" class="edge"><title>Node21&#45;&gt;Node22</title>
<path fill="none" stroke="midnightblue" d="M373.16,-124.453C393.86,-122.208 417.673,-119.626 438.23,-117.397"/>
<polygon fill="midnightblue" stroke="midnightblue" points="438.775,-120.858 448.339,-116.301 438.02,-113.899 438.775,-120.858"/>
</g>
<!-- Node23&#45;&gt;Node19 -->
<g id="edge50" class="edge"><title>Node23&#45;&gt;Node19</title>
<path fill="none" stroke="midnightblue" d="M201.195,-61.9591C218.923,-54.8468 242.444,-46.2367 264,-41 317.67,-27.9616 380.089,-20.4919 425.384,-16.41"/>
<polygon fill="midnightblue" stroke="midnightblue" points="425.697,-19.896 435.355,-15.541 425.089,-12.9224 425.697,-19.896"/>
</g>
</g>
</svg>
