<?xml version="1.0" encoding="UTF-8" standalone="no"?>
<!DOCTYPE svg PUBLIC "-//W3C//DTD SVG 1.1//EN"
 "http://www.w3.org/Graphics/SVG/1.1/DTD/svg11.dtd">
<!-- Generated by graphviz version 2.26.3 (20100126.1600)
 -->
<!-- Title: do_midi_job Pages: 1 -->
<!--zoomable 169 -->
<svg id="main" version="1.1" xmlns="http://www.w3.org/2000/svg" xmlns:xlink="http://www.w3.org/1999/xlink" xml:space="preserve" onload="init(evt)">
<style type="text/css"><![CDATA[
.edge:hover path { stroke: red; }
.edge:hover polygon { stroke: red; fill: red; }
]]></style>
<script type="text/javascript"><![CDATA[
var edges = document.getElementsByTagName('g');
if (edges && edges.length) {
  for (var i=0;i<edges.length;i++) {
    if (edges[i].id.substr(0,4)=='edge') {
      edges[i].setAttribute('class','edge');
    }
  }
}
]]></script>
        <defs>
                <circle id="rim" cx="0" cy="0" r="7"/>
                <circle id="rim2" cx="0" cy="0" r="3.5"/>
                <g id="zoomPlus">
                        <use xlink:href="#rim" fill="#404040">
                                <set attributeName="fill" to="#808080" begin="zoomplus.mouseover" end="zoomplus.mouseout"/>
                        </use>
                        <path d="M-4,0h8M0,-4v8" fill="none" stroke="white" stroke-width="1.5" pointer-events="none"/>
                </g>
                <g id="zoomMin">
                        <use xlink:href="#rim" fill="#404040">
                                <set attributeName="fill" to="#808080" begin="zoomminus.mouseover" end="zoomminus.mouseout"/>
                        </use>
                        <path d="M-4,0h8" fill="none" stroke="white" stroke-width="1.5" pointer-events="none"/>
                </g>
                <g id="dirArrow">
                        <path fill="none" stroke="white" stroke-width="1.5" d="M0,-3.0v7 M-2.5,-0.5L0,-3.0L2.5,-0.5"/>
                </g>
               <g id="resetDef">
                       <use xlink:href="#rim2" fill="#404040">
                               <set attributeName="fill" to="#808080" begin="reset.mouseover" end="reset.mouseout"/>
                       </use>
               </g>
        </defs>

<script type="text/javascript">
var viewWidth = 1618;
var viewHeight = 169;
var sectionId = 'dynsection-9';
</script>
<script xlink:href="svgpan.js"/>
<svg id="graph" class="graph">
<g id="viewport">
<title>do_midi_job</title>
<polygon fill="white" stroke="white" points="-4,5 -4,-165 1615,-165 1615,5 -4,5"/>
<!-- Node1 -->
<g id="node1" class="node"><title>Node1</title>
<polygon fill="#bfbfbf" stroke="black" points="0,-48 0,-72 68,-72 68,-48 0,-48"/>
<text text-anchor="middle" x="34" y="-59" font-family="Helvetica,sans-Serif" font-size="10.00">do_midi_job</text>
</g>
<!-- Node2 -->
<g id="node3" class="node"><title>Node2</title>
<a xlink:href="midi__13_8cpp.html#a6bedf9750195224914cd87c4e73ab626" target="_top" xlink:title="ventilate_midi_to_midiarray">
<polygon fill="white" stroke="black" points="104.5,-48 104.5,-72 239.5,-72 239.5,-48 104.5,-48"/>
<text text-anchor="middle" x="172" y="-59" font-family="Helvetica,sans-Serif" font-size="10.00">ventilate_midi_to_midiarray</text>
</a>
</g>
<!-- Node1&#45;&gt;Node2 -->
<g id="edge2" class="edge"><title>Node1&#45;&gt;Node2</title>
<path fill="none" stroke="midnightblue" d="M78.3042,-60C86.6174,-60 95.4816,-60 104.317,-60"/>
<polygon fill="midnightblue" stroke="midnightblue" points="78.1124,-56.5001 68.1124,-60 78.1123,-63.5001 78.1124,-56.5001"/>
</g>
<!-- Node3 -->
<g id="node5" class="node"><title>Node3</title>
<a xlink:href="midi__13_8cpp.html#afa49dd5668303c2448676c8243737c2d" target="_top" xlink:title="simulate_midi">
<polygon fill="white" stroke="black" points="276.5,-71 276.5,-95 353.5,-95 353.5,-71 276.5,-71"/>
<text text-anchor="middle" x="315" y="-82" font-family="Helvetica,sans-Serif" font-size="10.00">simulate_midi</text>
</a>
</g>
<!-- Node2&#45;&gt;Node3 -->
<g id="edge4" class="edge"><title>Node2&#45;&gt;Node3</title>
<path fill="none" stroke="midnightblue" d="M249.744,-72.5043C258.949,-73.9848 268.014,-75.4429 276.324,-76.7794"/>
<polygon fill="midnightblue" stroke="midnightblue" points="250.16,-69.0263 239.731,-70.8938 249.048,-75.9375 250.16,-69.0263"/>
</g>
<!-- Node8 -->
<g id="node16" class="node"><title>Node8</title>
<a xlink:href="midi__13_8cpp.html#a4104c2ae7e71376ad9dc78929450dc51" target="_top" xlink:title="EvAquire">
<polygon fill="white" stroke="black" points="287,-25 287,-49 343,-49 343,-25 287,-25"/>
<text text-anchor="middle" x="315" y="-36" font-family="Helvetica,sans-Serif" font-size="10.00">EvAquire</text>
</a>
</g>
<!-- Node2&#45;&gt;Node8 -->
<g id="edge16" class="edge"><title>Node2&#45;&gt;Node8</title>
<path fill="none" stroke="midnightblue" d="M249.852,-47.4783C263.053,-45.3551 275.963,-43.2787 286.762,-41.5417"/>
<polygon fill="midnightblue" stroke="midnightblue" points="249.048,-44.0625 239.731,-49.1062 250.16,-50.9737 249.048,-44.0625"/>
</g>
<!-- Node4 -->
<g id="node7" class="node"><title>Node4</title>
<a xlink:href="arduino__core__6___u_n_o_8cpp.html#ae72d1a8d74d9ab5515962e03e7e664d6" target="_top" xlink:title="arduino_do_analog_in\l_whitecat">
<polygon fill="white" stroke="black" points="390,-121 390,-161 500,-161 500,-121 390,-121"/>
<text text-anchor="start" x="398" y="-148" font-family="Helvetica,sans-Serif" font-size="10.00">arduino_do_analog_in</text>
<text text-anchor="middle" x="445" y="-132" font-family="Helvetica,sans-Serif" font-size="10.00">_whitecat</text>
</a>
</g>
<!-- Node3&#45;&gt;Node4 -->
<g id="edge6" class="edge"><title>Node3&#45;&gt;Node4</title>
<path fill="none" stroke="midnightblue" d="M351.415,-99.2465C366.467,-105.962 384.072,-113.817 399.927,-120.891"/>
<polygon fill="midnightblue" stroke="midnightblue" points="352.494,-95.8958 341.936,-95.0176 349.642,-102.288 352.494,-95.8958"/>
</g>
<!-- Node7 -->
<g id="node13" class="node"><title>Node7</title>
<a xlink:href="arduino__core__6___u_n_o_8cpp.html#a219226c1cd6cc17c78e62fd4445bb445" target="_top" xlink:title="arduino_do_digital\l_in_whitecat">
<polygon fill="white" stroke="black" points="397.5,-63 397.5,-103 492.5,-103 492.5,-63 397.5,-63"/>
<text text-anchor="start" x="405.5" y="-90" font-family="Helvetica,sans-Serif" font-size="10.00">arduino_do_digital</text>
<text text-anchor="middle" x="445" y="-74" font-family="Helvetica,sans-Serif" font-size="10.00">_in_whitecat</text>
</a>
</g>
<!-- Node3&#45;&gt;Node7 -->
<g id="edge12" class="edge"><title>Node3&#45;&gt;Node7</title>
<path fill="none" stroke="midnightblue" d="M363.833,-83C374.703,-83 386.216,-83 397.05,-83"/>
<polygon fill="midnightblue" stroke="midnightblue" points="363.652,-79.5001 353.652,-83 363.652,-86.5001 363.652,-79.5001"/>
</g>
<!-- Node5 -->
<g id="node9" class="node"><title>Node5</title>
<a xlink:href="_m_a_i_n__avec__objets_8cpp.html#ace9c8a9b37c6087c3cffef442d71d70e" target="_top" xlink:title="dixiemes_de_secondes">
<polygon fill="white" stroke="black" points="536.5,-100 536.5,-124 655.5,-124 655.5,-100 536.5,-100"/>
<text text-anchor="middle" x="596" y="-111" font-family="Helvetica,sans-Serif" font-size="10.00">dixiemes_de_secondes</text>
</a>
</g>
<!-- Node4&#45;&gt;Node5 -->
<g id="edge8" class="edge"><title>Node4&#45;&gt;Node5</title>
<path fill="none" stroke="midnightblue" d="M510.379,-128.444C518.999,-126.788 527.798,-125.098 536.316,-123.463"/>
<polygon fill="midnightblue" stroke="midnightblue" points="509.53,-125.043 500.369,-130.366 510.85,-131.917 509.53,-125.043"/>
</g>
<!-- Node6 -->
<g id="node11" class="node"><title>Node6</title>
<a xlink:href="_m_a_i_n__avec__objets_8cpp.html#ae66f6b31b5ad750f1fe042a706a4e3d4" target="_top" xlink:title="main">
<polygon fill="white" stroke="black" points="1572,-40 1572,-64 1610,-64 1610,-40 1572,-40"/>
<text text-anchor="middle" x="1591" y="-51" font-family="Helvetica,sans-Serif" font-size="10.00">main</text>
</a>
</g>
<!-- Node5&#45;&gt;Node6 -->
<g id="edge10" class="edge"><title>Node5&#45;&gt;Node6</title>
<path fill="none" stroke="midnightblue" d="M665.833,-112C718.616,-112 792.862,-112 858,-112 858,-112 858,-112 1352,-112 1436.06,-112 1531.89,-76.6494 1571.89,-60.2169"/>
<polygon fill="midnightblue" stroke="midnightblue" points="665.572,-108.5 655.572,-112 665.572,-115.5 665.572,-108.5"/>
</g>
<!-- Node7&#45;&gt;Node5 -->
<g id="edge14" class="edge"><title>Node7&#45;&gt;Node5</title>
<path fill="none" stroke="midnightblue" d="M502.706,-94.0826C513.713,-96.1965 525.254,-98.413 536.321,-100.538"/>
<polygon fill="midnightblue" stroke="midnightblue" points="503.258,-90.6247 492.777,-92.1758 501.938,-97.4991 503.258,-90.6247"/>
</g>
<!-- Node9 -->
<g id="node18" class="node"><title>Node9</title>
<a xlink:href="midi__13_8cpp.html#a831f1dfc7870ae4f6c64a0e65fbaf3ff" target="_top" xlink:title="Display">
<polygon fill="white" stroke="black" points="420,-21 420,-45 470,-45 470,-21 420,-21"/>
<text text-anchor="middle" x="445" y="-32" font-family="Helvetica,sans-Serif" font-size="10.00">Display</text>
</a>
</g>
<!-- Node8&#45;&gt;Node9 -->
<g id="edge18" class="edge"><title>Node8&#45;&gt;Node9</title>
<path fill="none" stroke="midnightblue" d="M353.332,-35.8206C374.833,-35.159 401.044,-34.3525 419.923,-33.7716"/>
<polygon fill="midnightblue" stroke="midnightblue" points="353.096,-32.3261 343.208,-36.1321 353.311,-39.3228 353.096,-32.3261"/>
</g>
<!-- Node10 -->
<g id="node20" class="node"><title>Node10</title>
<a xlink:href="midi__13_8cpp.html#aa4aeee5088a4a5462566dfee5c9cc71f" target="_top" xlink:title="DisplayTask">
<polygon fill="white" stroke="black" points="560.5,-42 560.5,-66 631.5,-66 631.5,-42 560.5,-42"/>
<text text-anchor="middle" x="596" y="-53" font-family="Helvetica,sans-Serif" font-size="10.00">DisplayTask</text>
</a>
</g>
<!-- Node9&#45;&gt;Node10 -->
<g id="edge20" class="edge"><title>Node9&#45;&gt;Node10</title>
<path fill="none" stroke="midnightblue" d="M480.423,-37.9264C504.533,-41.2794 536.32,-45.7002 560.456,-49.0567"/>
<polygon fill="midnightblue" stroke="midnightblue" points="480.661,-34.4258 470.274,-36.5149 479.697,-41.3591 480.661,-34.4258"/>
</g>
<!-- Node12 -->
<g id="node25" class="node"><title>Node12</title>
<a xlink:href="midi___c_o_r_e_8cpp.html#a6fcb4c2efe85f50488d7aeeef1fc0a3e" target="_top" xlink:title="ReceiveEvents">
<polygon fill="white" stroke="black" points="554.5,-0 554.5,-24 637.5,-24 637.5,-0 554.5,-0"/>
<text text-anchor="middle" x="596" y="-11" font-family="Helvetica,sans-Serif" font-size="10.00">ReceiveEvents</text>
</a>
</g>
<!-- Node9&#45;&gt;Node12 -->
<g id="edge26" class="edge"><title>Node9&#45;&gt;Node12</title>
<path fill="none" stroke="midnightblue" d="M480.261,-28.0961C502.416,-25.015 531.102,-21.0255 554.372,-17.7893"/>
<polygon fill="midnightblue" stroke="midnightblue" points="479.697,-24.6409 470.274,-29.4851 480.661,-31.5742 479.697,-24.6409"/>
</g>
<!-- Node11 -->
<g id="node22" class="node"><title>Node11</title>
<a xlink:href="midi___c_o_r_e_8cpp.html#a7d0f82d882071792d6a2df51ef13ec55" target="_top" xlink:title="ReceivePolling">
<polygon fill="white" stroke="black" points="692,-42 692,-66 774,-66 774,-42 692,-42"/>
<text text-anchor="middle" x="733" y="-53" font-family="Helvetica,sans-Serif" font-size="10.00">ReceivePolling</text>
</a>
</g>
<!-- Node10&#45;&gt;Node11 -->
<g id="edge22" class="edge"><title>Node10&#45;&gt;Node11</title>
<path fill="none" stroke="midnightblue" d="M641.91,-54C658.021,-54 676.008,-54 691.716,-54"/>
<polygon fill="midnightblue" stroke="midnightblue" points="641.638,-50.5001 631.638,-54 641.637,-57.5001 641.638,-50.5001"/>
</g>
<!-- Node11&#45;&gt;Node11 -->
<g id="edge24" class="edge"><title>Node11&#45;&gt;Node11</title>
<path fill="none" stroke="midnightblue" d="M710.513,-76.0013C712.812,-80.6474 720.308,-84 733,-84 753.828,-84 760.662,-74.9717 753.503,-66.0139"/>
<polygon fill="midnightblue" stroke="midnightblue" points="713.981,-76.5043 712.497,-66.0139 707.116,-75.1401 713.981,-76.5043"/>
</g>
<!-- Node12&#45;&gt;Node11 -->
<g id="edge28" class="edge"><title>Node12&#45;&gt;Node11</title>
<path fill="none" stroke="midnightblue" d="M644.988,-27.0181C660.991,-31.9241 678.544,-37.3054 693.736,-41.9627"/>
<polygon fill="midnightblue" stroke="midnightblue" points="645.845,-23.6204 635.259,-24.0355 643.794,-30.3129 645.845,-23.6204"/>
</g>
<!-- Node13 -->
<g id="node28" class="node"><title>Node13</title>
<a xlink:href="midi___c_o_r_e_8cpp.html#a0ccf480a33424e626f88d109d53d8366" target="_top" xlink:title="InitMidi">
<polygon fill="white" stroke="black" points="709,-0 709,-24 757,-24 757,-0 709,-0"/>
<text text-anchor="middle" x="733" y="-11" font-family="Helvetica,sans-Serif" font-size="10.00">InitMidi</text>
</a>
</g>
<!-- Node12&#45;&gt;Node13 -->
<g id="edge30" class="edge"><title>Node12&#45;&gt;Node13</title>
<path fill="none" stroke="midnightblue" d="M647.927,-12C668.893,-12 692.063,-12 708.921,-12"/>
<polygon fill="midnightblue" stroke="midnightblue" points="647.849,-8.5001 637.849,-12 647.849,-15.5001 647.849,-8.5001"/>
</g>
<!-- Node13&#45;&gt;Node6 -->
<g id="edge32" class="edge"><title>Node13&#45;&gt;Node6</title>
<path fill="none" stroke="midnightblue" d="M766.775,-22.4439C780.129,-26.2481 795.681,-30.2786 810,-33 885.991,-47.4428 905.649,-52 983,-52 983,-52 983,-52 1352,-52 1433.74,-52 1531.21,-52 1571.79,-52"/>
<polygon fill="midnightblue" stroke="midnightblue" points="767.629,-19.047 757.049,-19.6042 765.667,-25.7665 767.629,-19.047"/>
</g>
<!-- Node14 -->
<g id="node31" class="node"><title>Node14</title>
<a xlink:href="midi__13_8cpp.html#ac7a306aa81e374b447e7341d4d3a3eea" target="_top" xlink:title="midipage_devices">
<polygon fill="white" stroke="black" points="810.5,-0 810.5,-24 905.5,-24 905.5,-0 810.5,-0"/>
<text text-anchor="middle" x="858" y="-11" font-family="Helvetica,sans-Serif" font-size="10.00">midipage_devices</text>
</a>
</g>
<!-- Node13&#45;&gt;Node14 -->
<g id="edge34" class="edge"><title>Node13&#45;&gt;Node14</title>
<path fill="none" stroke="midnightblue" d="M767.254,-12C780.57,-12 796.054,-12 810.42,-12"/>
<polygon fill="midnightblue" stroke="midnightblue" points="767.101,-8.5001 757.101,-12 767.101,-15.5001 767.101,-8.5001"/>
</g>
<!-- Node15 -->
<g id="node33" class="node"><title>Node15</title>
<a xlink:href="midi__13_8cpp.html#a8f70acacad6eaba8867bdd80dda5e277" target="_top" xlink:title="do_midi_config">
<polygon fill="white" stroke="black" points="942,-0 942,-24 1024,-24 1024,-0 942,-0"/>
<text text-anchor="middle" x="983" y="-11" font-family="Helvetica,sans-Serif" font-size="10.00">do_midi_config</text>
</a>
</g>
<!-- Node14&#45;&gt;Node15 -->
<g id="edge36" class="edge"><title>Node14&#45;&gt;Node15</title>
<path fill="none" stroke="midnightblue" d="M915.766,-12C924.497,-12 933.353,-12 941.645,-12"/>
<polygon fill="midnightblue" stroke="midnightblue" points="915.614,-8.5001 905.614,-12 915.614,-15.5001 915.614,-8.5001"/>
</g>
<!-- Node16 -->
<g id="node35" class="node"><title>Node16</title>
<a xlink:href="_c_f_g__config__panel__8_8cpp.html#ad39c46e2fb3a3ba7ea0460140ead4f96" target="_top" xlink:title="do_panel_config">
<polygon fill="white" stroke="black" points="1060.5,-0 1060.5,-24 1147.5,-24 1147.5,-0 1060.5,-0"/>
<text text-anchor="middle" x="1104" y="-11" font-family="Helvetica,sans-Serif" font-size="10.00">do_panel_config</text>
</a>
</g>
<!-- Node15&#45;&gt;Node16 -->
<g id="edge38" class="edge"><title>Node15&#45;&gt;Node16</title>
<path fill="none" stroke="midnightblue" d="M1034.33,-12C1043.01,-12 1051.95,-12 1060.41,-12"/>
<polygon fill="midnightblue" stroke="midnightblue" points="1034.3,-8.5001 1024.3,-12 1034.3,-15.5001 1034.3,-8.5001"/>
</g>
<!-- Node17 -->
<g id="node37" class="node"><title>Node17</title>
<a xlink:href="_c_f_g__config__panel__8_8cpp.html#a7968da66bccdba8b864caf6c8435f68e" target="_top" xlink:title="config_general_menu">
<polygon fill="white" stroke="black" points="1184.5,-0 1184.5,-24 1293.5,-24 1293.5,-0 1184.5,-0"/>
<text text-anchor="middle" x="1239" y="-11" font-family="Helvetica,sans-Serif" font-size="10.00">config_general_menu</text>
</a>
</g>
<!-- Node16&#45;&gt;Node17 -->
<g id="edge40" class="edge"><title>Node16&#45;&gt;Node17</title>
<path fill="none" stroke="midnightblue" d="M1158.07,-12C1166.62,-12 1175.47,-12 1184.04,-12"/>
<polygon fill="midnightblue" stroke="midnightblue" points="1157.83,-8.5001 1147.83,-12 1157.83,-15.5001 1157.83,-8.5001"/>
</g>
<!-- Node18 -->
<g id="node39" class="node"><title>Node18</title>
<a xlink:href="graphics__rebuild1_8cpp.html#ac2eae1e03fb72cc734ffbcef566483bf" target="_top" xlink:title="Boxes">
<polygon fill="white" stroke="black" points="1330,-0 1330,-24 1374,-24 1374,-0 1330,-0"/>
<text text-anchor="middle" x="1352" y="-11" font-family="Helvetica,sans-Serif" font-size="10.00">Boxes</text>
</a>
</g>
<!-- Node17&#45;&gt;Node18 -->
<g id="edge42" class="edge"><title>Node17&#45;&gt;Node18</title>
<path fill="none" stroke="midnightblue" d="M1303.75,-12C1313.11,-12 1322.17,-12 1329.86,-12"/>
<polygon fill="midnightblue" stroke="midnightblue" points="1303.51,-8.5001 1293.51,-12 1303.51,-15.5001 1303.51,-8.5001"/>
</g>
<!-- Node19 -->
<g id="node41" class="node"><title>Node19</title>
<a xlink:href="_m_a_i_n__avec__objets_8cpp.html#ade8d4ba65d55c94f8ee277829d722155" target="_top" xlink:title="main_actions_on_screen">
<polygon fill="white" stroke="black" points="1410.5,-0 1410.5,-24 1535.5,-24 1535.5,-0 1410.5,-0"/>
<text text-anchor="middle" x="1473" y="-11" font-family="Helvetica,sans-Serif" font-size="10.00">main_actions_on_screen</text>
</a>
</g>
<!-- Node18&#45;&gt;Node19 -->
<g id="edge44" class="edge"><title>Node18&#45;&gt;Node19</title>
<path fill="none" stroke="midnightblue" d="M1384.24,-12C1392.32,-12 1401.26,-12 1410.27,-12"/>
<polygon fill="midnightblue" stroke="midnightblue" points="1384.19,-8.5001 1374.19,-12 1384.19,-15.5001 1384.19,-8.5001"/>
</g>
<!-- Node19&#45;&gt;Node6 -->
<g id="edge46" class="edge"><title>Node19&#45;&gt;Node6</title>
<path fill="none" stroke="midnightblue" d="M1517.92,-27.2274C1536.55,-33.5415 1557.16,-40.5297 1571.74,-45.4696"/>
<polygon fill="midnightblue" stroke="midnightblue" points="1519,-23.897 1508.4,-24.0013 1516.75,-30.5265 1519,-23.897"/>
</g>
</g>
</svg>
        <g id="navigator" transform="translate(0 0)" fill="#404254">
                <rect fill="#f2f5e9" fill-opacity="0.5" stroke="#606060" stroke-width=".5" x="0" y="0" width="60" height="60"/>
                <use id="zoomplus" xlink:href="#zoomPlus" x="17" y="9" onmousedown="handleZoom(evt,'in')"/>
                <use id="zoomminus" xlink:href="#zoomMin" x="42" y="9" onmousedown="handleZoom(evt,'out')"/>
                <use id="reset" xlink:href="#resetDef" x="30" y="36" onmousedown="handleReset()"/>
                <g id="arrowUp" xlink:href="#dirArrow" transform="translate(30 24)" onmousedown="handlePan(0,-1)">
                  <use xlink:href="#rim" fill="#404040">
                        <set attributeName="fill" to="#808080" begin="arrowUp.mouseover" end="arrowUp.mouseout"/>
                  </use>
                  <path fill="none" stroke="white" stroke-width="1.5" d="M0,-3.0v7 M-2.5,-0.5L0,-3.0L2.5,-0.5"/>
                </g>
                <g id="arrowRight" xlink:href="#dirArrow" transform="rotate(90) translate(36 -43)" onmousedown="handlePan(1,0)">
                  <use xlink:href="#rim" fill="#404040">
                        <set attributeName="fill" to="#808080" begin="arrowRight.mouseover" end="arrowRight.mouseout"/>
                  </use>
                  <path fill="none" stroke="white" stroke-width="1.5" d="M0,-3.0v7 M-2.5,-0.5L0,-3.0L2.5,-0.5"/>
                </g>
                <g id="arrowDown" xlink:href="#dirArrow" transform="rotate(180) translate(-30 -48)" onmousedown="handlePan(0,1)">
                  <use xlink:href="#rim" fill="#404040">
                        <set attributeName="fill" to="#808080" begin="arrowDown.mouseover" end="arrowDown.mouseout"/>
                  </use>
                  <path fill="none" stroke="white" stroke-width="1.5" d="M0,-3.0v7 M-2.5,-0.5L0,-3.0L2.5,-0.5"/>
                </g>
                <g id="arrowLeft" xlink:href="#dirArrow" transform="rotate(270) translate(-36 17)" onmousedown="handlePan(-1,0)">
                  <use xlink:href="#rim" fill="#404040">
                        <set attributeName="fill" to="#808080" begin="arrowLeft.mouseover" end="arrowLeft.mouseout"/>
                  </use>
                  <path fill="none" stroke="white" stroke-width="1.5" d="M0,-3.0v7 M-2.5,-0.5L0,-3.0L2.5,-0.5"/>
                </g>
        </g>
        <svg viewBox="0 0 15 15" width="100%" height="30px" preserveAspectRatio="xMaxYMin meet">
         <g id="arrow_out" transform="scale(0.3 0.3)">
          <a xlink:href="midi__13_8cpp_a6dff3d42682b58cc0a9875ee30fb4cd4_icgraph_org.svg" target="_base">
           <rect id="button" ry="5" rx="5" y="6" x="6" height="38" width="38"
                fill="#f2f5e9" fill-opacity="0.5" stroke="#606060" stroke-width="1.0"/>
           <path id="arrow"
             d="M 11.500037,31.436501 C 11.940474,20.09759 22.043105,11.32322 32.158766,21.979434 L 37.068811,17.246167 C 37.068811,17.246167 37.088388,32 37.088388,32 L 22.160133,31.978069 C 22.160133,31.978069 26.997745,27.140456 26.997745,27.140456 C 18.528582,18.264221 13.291696,25.230495 11.500037,31.436501 z"
             style="fill:#404040;"/>
          </a>
         </g>
        </svg>
</svg>
