<?xml version="1.0" encoding="UTF-8" standalone="no"?>
<!DOCTYPE svg PUBLIC "-//W3C//DTD SVG 1.1//EN"
 "http://www.w3.org/Graphics/SVG/1.1/DTD/svg11.dtd">
<!-- Generated by graphviz version 2.26.3 (20100126.1600)
 -->
<!-- Title: Display Pages: 1 -->
<svg width="1132pt" height="112pt"
 viewBox="0.00 0.00 1132.00 112.00" xmlns="http://www.w3.org/2000/svg" xmlns:xlink="http://www.w3.org/1999/xlink">
<g id="graph1" class="graph" transform="scale(1 1) rotate(0) translate(4 108)">
<title>Display</title>
<polygon fill="white" stroke="white" points="-4,5 -4,-108 1129,-108 1129,5 -4,5"/>
<!-- Node1 -->
<g id="node1" class="node"><title>Node1</title>
<polygon fill="#bfbfbf" stroke="black" points="0,-41 0,-65 50,-65 50,-41 0,-41"/>
<text text-anchor="middle" x="25" y="-52" font-family="Helvetica,sans-Serif" font-size="10.00">Display</text>
</g>
<!-- Node2 -->
<g id="node3" class="node"><title>Node2</title>
<a xlink:href="midi__13_8cpp.html#aa4aeee5088a4a5462566dfee5c9cc71f" target="_top" xlink:title="DisplayTask">
<polygon fill="white" stroke="black" points="92.5,-62 92.5,-86 163.5,-86 163.5,-62 92.5,-62"/>
<text text-anchor="middle" x="128" y="-73" font-family="Helvetica,sans-Serif" font-size="10.00">DisplayTask</text>
</a>
</g>
<!-- Node1&#45;&gt;Node2 -->
<g id="edge2" class="edge"><title>Node1&#45;&gt;Node2</title>
<path fill="none" stroke="midnightblue" d="M60.1356,-60.1636C70.473,-62.2712 81.792,-64.579 92.1721,-66.6953"/>
<polygon fill="midnightblue" stroke="midnightblue" points="60.6943,-56.7055 50.1966,-58.1372 59.2958,-63.5644 60.6943,-56.7055"/>
</g>
<!-- Node4 -->
<g id="node8" class="node"><title>Node4</title>
<a xlink:href="midi___c_o_r_e_8cpp.html#a6fcb4c2efe85f50488d7aeeef1fc0a3e" target="_top" xlink:title="ReceiveEvents">
<polygon fill="white" stroke="black" points="86.5,-20 86.5,-44 169.5,-44 169.5,-20 86.5,-20"/>
<text text-anchor="middle" x="128" y="-31" font-family="Helvetica,sans-Serif" font-size="10.00">ReceiveEvents</text>
</a>
</g>
<!-- Node1&#45;&gt;Node4 -->
<g id="edge8" class="edge"><title>Node1&#45;&gt;Node4</title>
<path fill="none" stroke="midnightblue" d="M60.0595,-45.852C68.4678,-44.1376 77.5294,-42.2901 86.2092,-40.5205"/>
<polygon fill="midnightblue" stroke="midnightblue" points="59.2958,-42.4356 50.1966,-47.8628 60.6943,-49.2945 59.2958,-42.4356"/>
</g>
<!-- Node3 -->
<g id="node5" class="node"><title>Node3</title>
<a xlink:href="midi___c_o_r_e_8cpp.html#a7d0f82d882071792d6a2df51ef13ec55" target="_top" xlink:title="ReceivePolling">
<polygon fill="white" stroke="black" points="206,-62 206,-86 288,-86 288,-62 206,-62"/>
<text text-anchor="middle" x="247" y="-73" font-family="Helvetica,sans-Serif" font-size="10.00">ReceivePolling</text>
</a>
</g>
<!-- Node2&#45;&gt;Node3 -->
<g id="edge4" class="edge"><title>Node2&#45;&gt;Node3</title>
<path fill="none" stroke="midnightblue" d="M173.968,-74C184.483,-74 195.593,-74 205.888,-74"/>
<polygon fill="midnightblue" stroke="midnightblue" points="173.704,-70.5001 163.704,-74 173.704,-77.5001 173.704,-70.5001"/>
</g>
<!-- Node3&#45;&gt;Node3 -->
<g id="edge6" class="edge"><title>Node3&#45;&gt;Node3</title>
<path fill="none" stroke="midnightblue" d="M225.601,-96.0013C227.789,-100.647 234.922,-104 247,-104 266.82,-104 273.324,-94.9717 266.511,-86.0139"/>
<polygon fill="midnightblue" stroke="midnightblue" points="229.071,-96.4901 227.489,-86.0139 222.192,-95.1896 229.071,-96.4901"/>
</g>
<!-- Node4&#45;&gt;Node3 -->
<g id="edge10" class="edge"><title>Node4&#45;&gt;Node3</title>
<path fill="none" stroke="midnightblue" d="M171.735,-47.4358C185.313,-52.2282 200.072,-57.4372 212.894,-61.9627"/>
<polygon fill="midnightblue" stroke="midnightblue" points="172.695,-44.0633 162.101,-44.0355 170.366,-50.6642 172.695,-44.0633"/>
</g>
<!-- Node5 -->
<g id="node11" class="node"><title>Node5</title>
<a xlink:href="midi___c_o_r_e_8cpp.html#a0ccf480a33424e626f88d109d53d8366" target="_top" xlink:title="InitMidi">
<polygon fill="white" stroke="black" points="223,-20 223,-44 271,-44 271,-20 223,-20"/>
<text text-anchor="middle" x="247" y="-31" font-family="Helvetica,sans-Serif" font-size="10.00">InitMidi</text>
</a>
</g>
<!-- Node4&#45;&gt;Node5 -->
<g id="edge12" class="edge"><title>Node4&#45;&gt;Node5</title>
<path fill="none" stroke="midnightblue" d="M179.85,-32C194.847,-32 210.504,-32 222.923,-32"/>
<polygon fill="midnightblue" stroke="midnightblue" points="179.62,-28.5001 169.62,-32 179.62,-35.5001 179.62,-28.5001"/>
</g>
<!-- Node6 -->
<g id="node13" class="node"><title>Node6</title>
<a xlink:href="_m_a_i_n__avec__objets_8cpp.html#ae66f6b31b5ad750f1fe042a706a4e3d4" target="_top" xlink:title="main">
<polygon fill="white" stroke="black" points="1086,-20 1086,-44 1124,-44 1124,-20 1086,-20"/>
<text text-anchor="middle" x="1105" y="-31" font-family="Helvetica,sans-Serif" font-size="10.00">main</text>
</a>
</g>
<!-- Node5&#45;&gt;Node6 -->
<g id="edge14" class="edge"><title>Node5&#45;&gt;Node6</title>
<path fill="none" stroke="midnightblue" d="M281.246,-36.4814C329.344,-42.3774 419.683,-52 497,-52 497,-52 497,-52 866,-52 948.027,-52 1045.34,-40.1564 1085.84,-34.6973"/>
<polygon fill="midnightblue" stroke="midnightblue" points="281.439,-32.9783 271.082,-35.2133 280.572,-39.9245 281.439,-32.9783"/>
</g>
<!-- Node7 -->
<g id="node15" class="node"><title>Node7</title>
<a xlink:href="midi__13_8cpp.html#ac7a306aa81e374b447e7341d4d3a3eea" target="_top" xlink:title="midipage_devices">
<polygon fill="white" stroke="black" points="324.5,-0 324.5,-24 419.5,-24 419.5,-0 324.5,-0"/>
<text text-anchor="middle" x="372" y="-11" font-family="Helvetica,sans-Serif" font-size="10.00">midipage_devices</text>
</a>
</g>
<!-- Node5&#45;&gt;Node7 -->
<g id="edge16" class="edge"><title>Node5&#45;&gt;Node7</title>
<path fill="none" stroke="midnightblue" d="M281.254,-26.5194C294.57,-24.3887 310.054,-21.9114 324.42,-19.6128"/>
<polygon fill="midnightblue" stroke="midnightblue" points="280.423,-23.1078 271.101,-28.1438 281.529,-30.0199 280.423,-23.1078"/>
</g>
<!-- Node8 -->
<g id="node17" class="node"><title>Node8</title>
<a xlink:href="midi__13_8cpp.html#a8f70acacad6eaba8867bdd80dda5e277" target="_top" xlink:title="do_midi_config">
<polygon fill="white" stroke="black" points="456,-0 456,-24 538,-24 538,-0 456,-0"/>
<text text-anchor="middle" x="497" y="-11" font-family="Helvetica,sans-Serif" font-size="10.00">do_midi_config</text>
</a>
</g>
<!-- Node7&#45;&gt;Node8 -->
<g id="edge18" class="edge"><title>Node7&#45;&gt;Node8</title>
<path fill="none" stroke="midnightblue" d="M429.766,-12C438.497,-12 447.353,-12 455.645,-12"/>
<polygon fill="midnightblue" stroke="midnightblue" points="429.614,-8.5001 419.614,-12 429.614,-15.5001 429.614,-8.5001"/>
</g>
<!-- Node9 -->
<g id="node19" class="node"><title>Node9</title>
<a xlink:href="_c_f_g__config__panel__8_8cpp.html#ad39c46e2fb3a3ba7ea0460140ead4f96" target="_top" xlink:title="do_panel_config">
<polygon fill="white" stroke="black" points="574.5,-0 574.5,-24 661.5,-24 661.5,-0 574.5,-0"/>
<text text-anchor="middle" x="618" y="-11" font-family="Helvetica,sans-Serif" font-size="10.00">do_panel_config</text>
</a>
</g>
<!-- Node8&#45;&gt;Node9 -->
<g id="edge20" class="edge"><title>Node8&#45;&gt;Node9</title>
<path fill="none" stroke="midnightblue" d="M548.33,-12C557.01,-12 565.947,-12 574.406,-12"/>
<polygon fill="midnightblue" stroke="midnightblue" points="548.303,-8.5001 538.303,-12 548.303,-15.5001 548.303,-8.5001"/>
</g>
<!-- Node10 -->
<g id="node21" class="node"><title>Node10</title>
<a xlink:href="_c_f_g__config__panel__8_8cpp.html#a7968da66bccdba8b864caf6c8435f68e" target="_top" xlink:title="config_general_menu">
<polygon fill="white" stroke="black" points="698.5,-0 698.5,-24 807.5,-24 807.5,-0 698.5,-0"/>
<text text-anchor="middle" x="753" y="-11" font-family="Helvetica,sans-Serif" font-size="10.00">config_general_menu</text>
</a>
</g>
<!-- Node9&#45;&gt;Node10 -->
<g id="edge22" class="edge"><title>Node9&#45;&gt;Node10</title>
<path fill="none" stroke="midnightblue" d="M672.072,-12C680.621,-12 689.471,-12 698.04,-12"/>
<polygon fill="midnightblue" stroke="midnightblue" points="671.831,-8.5001 661.831,-12 671.831,-15.5001 671.831,-8.5001"/>
</g>
<!-- Node11 -->
<g id="node23" class="node"><title>Node11</title>
<a xlink:href="graphics__rebuild1_8cpp.html#ac2eae1e03fb72cc734ffbcef566483bf" target="_top" xlink:title="Boxes">
<polygon fill="white" stroke="black" points="844,-0 844,-24 888,-24 888,-0 844,-0"/>
<text text-anchor="middle" x="866" y="-11" font-family="Helvetica,sans-Serif" font-size="10.00">Boxes</text>
</a>
</g>
<!-- Node10&#45;&gt;Node11 -->
<g id="edge24" class="edge"><title>Node10&#45;&gt;Node11</title>
<path fill="none" stroke="midnightblue" d="M817.747,-12C827.112,-12 836.168,-12 843.856,-12"/>
<polygon fill="midnightblue" stroke="midnightblue" points="817.514,-8.5001 807.514,-12 817.514,-15.5001 817.514,-8.5001"/>
</g>
<!-- Node12 -->
<g id="node25" class="node"><title>Node12</title>
<a xlink:href="_m_a_i_n__avec__objets_8cpp.html#ade8d4ba65d55c94f8ee277829d722155" target="_top" xlink:title="main_actions_on_screen">
<polygon fill="white" stroke="black" points="924.5,-0 924.5,-24 1049.5,-24 1049.5,-0 924.5,-0"/>
<text text-anchor="middle" x="987" y="-11" font-family="Helvetica,sans-Serif" font-size="10.00">main_actions_on_screen</text>
</a>
</g>
<!-- Node11&#45;&gt;Node12 -->
<g id="edge26" class="edge"><title>Node11&#45;&gt;Node12</title>
<path fill="none" stroke="midnightblue" d="M898.244,-12C906.32,-12 915.263,-12 924.271,-12"/>
<polygon fill="midnightblue" stroke="midnightblue" points="898.193,-8.5001 888.193,-12 898.193,-15.5001 898.193,-8.5001"/>
</g>
<!-- Node12&#45;&gt;Node6 -->
<g id="edge28" class="edge"><title>Node12&#45;&gt;Node6</title>
<path fill="none" stroke="midnightblue" d="M1059.84,-24.3453C1069.34,-25.9552 1078.33,-27.4791 1085.75,-28.7371"/>
<polygon fill="midnightblue" stroke="midnightblue" points="1060.24,-20.8645 1049.8,-22.6441 1059.07,-27.7661 1060.24,-20.8645"/>
</g>
</g>
</svg>
