<?xml version="1.0" encoding="UTF-8" standalone="no"?>
<!DOCTYPE svg PUBLIC "-//W3C//DTD SVG 1.1//EN"
 "http://www.w3.org/Graphics/SVG/1.1/DTD/svg11.dtd">
<!-- Generated by graphviz version 2.26.3 (20100126.1600)
 -->
<!-- Title: do_midi_call_order Pages: 1 -->
<svg width="872pt" height="106pt"
 viewBox="0.00 0.00 872.00 106.00" xmlns="http://www.w3.org/2000/svg" xmlns:xlink="http://www.w3.org/1999/xlink">
<g id="graph1" class="graph" transform="scale(1 1) rotate(0) translate(4 102)">
<title>do_midi_call_order</title>
<polygon fill="white" stroke="white" points="-4,5 -4,-102 869,-102 869,5 -4,5"/>
<!-- Node1 -->
<g id="node1" class="node"><title>Node1</title>
<polygon fill="#bfbfbf" stroke="black" points="0,-37 0,-61 98,-61 98,-37 0,-37"/>
<text text-anchor="middle" x="49" y="-48" font-family="Helvetica,sans-Serif" font-size="10.00">do_midi_call_order</text>
</g>
<!-- Node2 -->
<g id="node3" class="node"><title>Node2</title>
<a xlink:href="midi__13_8cpp.html#a6dff3d42682b58cc0a9875ee30fb4cd4" target="_top" xlink:title="do_midi_job">
<polygon fill="white" stroke="black" points="134,-37 134,-61 202,-61 202,-37 134,-37"/>
<text text-anchor="middle" x="168" y="-48" font-family="Helvetica,sans-Serif" font-size="10.00">do_midi_job</text>
</a>
</g>
<!-- Node1&#45;&gt;Node2 -->
<g id="edge2" class="edge"><title>Node1&#45;&gt;Node2</title>
<path fill="none" stroke="midnightblue" d="M108.338,-49C117.11,-49 125.886,-49 133.904,-49"/>
<polygon fill="midnightblue" stroke="midnightblue" points="108.089,-45.5001 98.0889,-49 108.089,-52.5001 108.089,-45.5001"/>
</g>
<!-- Node3 -->
<g id="node5" class="node"><title>Node3</title>
<a xlink:href="midi__13_8cpp.html#a6bedf9750195224914cd87c4e73ab626" target="_top" xlink:title="ventilate_midi_to_midiarray">
<polygon fill="white" stroke="black" points="238.5,-37 238.5,-61 373.5,-61 373.5,-37 238.5,-37"/>
<text text-anchor="middle" x="306" y="-48" font-family="Helvetica,sans-Serif" font-size="10.00">ventilate_midi_to_midiarray</text>
</a>
</g>
<!-- Node2&#45;&gt;Node3 -->
<g id="edge4" class="edge"><title>Node2&#45;&gt;Node3</title>
<path fill="none" stroke="midnightblue" d="M212.304,-49C220.617,-49 229.482,-49 238.317,-49"/>
<polygon fill="midnightblue" stroke="midnightblue" points="212.112,-45.5001 202.112,-49 212.112,-52.5001 212.112,-45.5001"/>
</g>
<!-- Node4 -->
<g id="node7" class="node"><title>Node4</title>
<a xlink:href="midi__13_8cpp.html#afa49dd5668303c2448676c8243737c2d" target="_top" xlink:title="simulate_midi">
<polygon fill="white" stroke="black" points="410.5,-37 410.5,-61 487.5,-61 487.5,-37 410.5,-37"/>
<text text-anchor="middle" x="449" y="-48" font-family="Helvetica,sans-Serif" font-size="10.00">simulate_midi</text>
</a>
</g>
<!-- Node3&#45;&gt;Node4 -->
<g id="edge6" class="edge"><title>Node3&#45;&gt;Node4</title>
<path fill="none" stroke="midnightblue" d="M383.744,-49C392.949,-49 402.014,-49 410.324,-49"/>
<polygon fill="midnightblue" stroke="midnightblue" points="383.731,-45.5001 373.731,-49 383.731,-52.5001 383.731,-45.5001"/>
</g>
<!-- Node5 -->
<g id="node9" class="node"><title>Node5</title>
<a xlink:href="arduino__core__6___u_n_o_8cpp.html#ae72d1a8d74d9ab5515962e03e7e664d6" target="_top" xlink:title="arduino_do_analog_in\l_whitecat">
<polygon fill="white" stroke="black" points="524,-58 524,-98 634,-98 634,-58 524,-58"/>
<text text-anchor="start" x="532" y="-85" font-family="Helvetica,sans-Serif" font-size="10.00">arduino_do_analog_in</text>
<text text-anchor="middle" x="579" y="-69" font-family="Helvetica,sans-Serif" font-size="10.00">_whitecat</text>
</a>
</g>
<!-- Node4&#45;&gt;Node5 -->
<g id="edge8" class="edge"><title>Node4&#45;&gt;Node5</title>
<path fill="none" stroke="midnightblue" d="M497.519,-59.8235C506.119,-61.742 515.132,-63.7524 523.898,-65.708"/>
<polygon fill="midnightblue" stroke="midnightblue" points="498.174,-56.3837 487.652,-57.6224 496.65,-63.2158 498.174,-56.3837"/>
</g>
<!-- Node8 -->
<g id="node15" class="node"><title>Node8</title>
<a xlink:href="arduino__core__6___u_n_o_8cpp.html#a219226c1cd6cc17c78e62fd4445bb445" target="_top" xlink:title="arduino_do_digital\l_in_whitecat">
<polygon fill="white" stroke="black" points="531.5,-0 531.5,-40 626.5,-40 626.5,-0 531.5,-0"/>
<text text-anchor="start" x="539.5" y="-27" font-family="Helvetica,sans-Serif" font-size="10.00">arduino_do_digital</text>
<text text-anchor="middle" x="579" y="-11" font-family="Helvetica,sans-Serif" font-size="10.00">_in_whitecat</text>
</a>
</g>
<!-- Node4&#45;&gt;Node8 -->
<g id="edge14" class="edge"><title>Node4&#45;&gt;Node8</title>
<path fill="none" stroke="midnightblue" d="M497.497,-38.1814C508.465,-35.7347 520.105,-33.1382 531.05,-30.6965"/>
<polygon fill="midnightblue" stroke="midnightblue" points="496.65,-34.7842 487.652,-40.3776 498.174,-41.6163 496.65,-34.7842"/>
</g>
<!-- Node6 -->
<g id="node11" class="node"><title>Node6</title>
<a xlink:href="_m_a_i_n__avec__objets_8cpp.html#ace9c8a9b37c6087c3cffef442d71d70e" target="_top" xlink:title="dixiemes_de_secondes">
<polygon fill="white" stroke="black" points="670.5,-37 670.5,-61 789.5,-61 789.5,-37 670.5,-37"/>
<text text-anchor="middle" x="730" y="-48" font-family="Helvetica,sans-Serif" font-size="10.00">dixiemes_de_secondes</text>
</a>
</g>
<!-- Node5&#45;&gt;Node6 -->
<g id="edge10" class="edge"><title>Node5&#45;&gt;Node6</title>
<path fill="none" stroke="midnightblue" d="M644.379,-65.4439C652.999,-63.7884 661.798,-62.0985 670.316,-60.4625"/>
<polygon fill="midnightblue" stroke="midnightblue" points="643.53,-62.0428 634.369,-67.3661 644.85,-68.9172 643.53,-62.0428"/>
</g>
<!-- Node7 -->
<g id="node13" class="node"><title>Node7</title>
<a xlink:href="_m_a_i_n__avec__objets_8cpp.html#ae66f6b31b5ad750f1fe042a706a4e3d4" target="_top" xlink:title="main">
<polygon fill="white" stroke="black" points="826,-37 826,-61 864,-61 864,-37 826,-37"/>
<text text-anchor="middle" x="845" y="-48" font-family="Helvetica,sans-Serif" font-size="10.00">main</text>
</a>
</g>
<!-- Node6&#45;&gt;Node7 -->
<g id="edge12" class="edge"><title>Node6&#45;&gt;Node7</title>
<path fill="none" stroke="midnightblue" d="M799.619,-49C809.191,-49 818.294,-49 825.8,-49"/>
<polygon fill="midnightblue" stroke="midnightblue" points="799.521,-45.5001 789.521,-49 799.521,-52.5001 799.521,-45.5001"/>
</g>
<!-- Node8&#45;&gt;Node6 -->
<g id="edge16" class="edge"><title>Node8&#45;&gt;Node6</title>
<path fill="none" stroke="midnightblue" d="M636.706,-31.0826C647.713,-33.1965 659.254,-35.413 670.321,-37.5384"/>
<polygon fill="midnightblue" stroke="midnightblue" points="637.258,-27.6247 626.777,-29.1758 635.938,-34.4991 637.258,-27.6247"/>
</g>
</g>
</svg>
