<?xml version="1.0" encoding="UTF-8" standalone="no"?>
<!DOCTYPE svg PUBLIC "-//W3C//DTD SVG 1.1//EN"
 "http://www.w3.org/Graphics/SVG/1.1/DTD/svg11.dtd">
<!-- Generated by graphviz version 2.26.3 (20100126.1600)
 -->
<!-- Title: define_colors Pages: 1 -->
<svg width="1242pt" height="88pt"
 viewBox="0.00 0.00 1242.00 88.00" xmlns="http://www.w3.org/2000/svg" xmlns:xlink="http://www.w3.org/1999/xlink">
<g id="graph1" class="graph" transform="scale(1 1) rotate(0) translate(4 84)">
<title>define_colors</title>
<polygon fill="white" stroke="white" points="-4,5 -4,-84 1239,-84 1239,5 -4,5"/>
<!-- Node1 -->
<g id="node1" class="node"><title>Node1</title>
<polygon fill="#bfbfbf" stroke="black" points="0,-24 0,-48 74,-48 74,-24 0,-24"/>
<text text-anchor="middle" x="37" y="-35" font-family="Helvetica,sans-Serif" font-size="10.00">define_colors</text>
</g>
<!-- Node2 -->
<g id="node3" class="node"><title>Node2</title>
<a xlink:href="midi__13_8cpp.html#a44d22ff6a4e809a5baa34035ebb96d3e" target="_top" xlink:title="refresh_launchpad_color\l_callibration">
<polygon fill="white" stroke="black" points="110,-40 110,-80 232,-80 232,-40 110,-40"/>
<text text-anchor="start" x="118" y="-67" font-family="Helvetica,sans-Serif" font-size="10.00">refresh_launchpad_color</text>
<text text-anchor="middle" x="171" y="-51" font-family="Helvetica,sans-Serif" font-size="10.00">_callibration</text>
</a>
</g>
<!-- Node1&#45;&gt;Node2 -->
<g id="edge2" class="edge"><title>Node1&#45;&gt;Node2</title>
<path fill="none" stroke="midnightblue" d="M84.2303,-44.4592C92.564,-45.9518 101.346,-47.5246 109.993,-49.0735"/>
<polygon fill="midnightblue" stroke="midnightblue" points="84.7869,-41.0032 74.3265,-42.6853 83.5528,-47.8936 84.7869,-41.0032"/>
</g>
<!-- Node11 -->
<g id="node21" class="node"><title>Node11</title>
<a xlink:href="midi__launchpad_8cpp.html#a6f96c04520781848f749f65e9b8492ae" target="_top" xlink:title="reset_launchpad">
<polygon fill="white" stroke="black" points="282,-0 282,-24 370,-24 370,-0 282,-0"/>
<text text-anchor="middle" x="326" y="-11" font-family="Helvetica,sans-Serif" font-size="10.00">reset_launchpad</text>
</a>
</g>
<!-- Node1&#45;&gt;Node11 -->
<g id="edge20" class="edge"><title>Node1&#45;&gt;Node11</title>
<path fill="none" stroke="midnightblue" d="M84.3243,-32.07C139.073,-27.5234 228.505,-20.0965 281.863,-15.6654"/>
<polygon fill="midnightblue" stroke="midnightblue" points="83.8661,-28.5959 74.1901,-32.9116 84.4454,-35.5719 83.8661,-28.5959"/>
</g>
<!-- Node3 -->
<g id="node5" class="node"><title>Node3</title>
<a xlink:href="midi__13_8cpp.html#a72179ebf14bb726cf84ba6f4781bf7d2" target="_top" xlink:title="midi_launchpad_colors">
<polygon fill="white" stroke="black" points="268,-48 268,-72 384,-72 384,-48 268,-48"/>
<text text-anchor="middle" x="326" y="-59" font-family="Helvetica,sans-Serif" font-size="10.00">midi_launchpad_colors</text>
</a>
</g>
<!-- Node2&#45;&gt;Node3 -->
<g id="edge4" class="edge"><title>Node2&#45;&gt;Node3</title>
<path fill="none" stroke="midnightblue" d="M242.283,-60C250.883,-60 259.585,-60 267.963,-60"/>
<polygon fill="midnightblue" stroke="midnightblue" points="242.26,-56.5001 232.26,-60 242.26,-63.5001 242.26,-56.5001"/>
</g>
<!-- Node4 -->
<g id="node7" class="node"><title>Node4</title>
<a xlink:href="midi__13_8cpp.html#a110e58b11dbde556672bce44aafba38a" target="_top" xlink:title="midipage_preset_and\l_options">
<polygon fill="white" stroke="black" points="420.5,-40 420.5,-80 529.5,-80 529.5,-40 420.5,-40"/>
<text text-anchor="start" x="428.5" y="-67" font-family="Helvetica,sans-Serif" font-size="10.00">midipage_preset_and</text>
<text text-anchor="middle" x="475" y="-51" font-family="Helvetica,sans-Serif" font-size="10.00">_options</text>
</a>
</g>
<!-- Node3&#45;&gt;Node4 -->
<g id="edge6" class="edge"><title>Node3&#45;&gt;Node4</title>
<path fill="none" stroke="midnightblue" d="M394.211,-60C402.952,-60 411.808,-60 420.295,-60"/>
<polygon fill="midnightblue" stroke="midnightblue" points="394.034,-56.5001 384.034,-60 394.034,-63.5001 394.034,-56.5001"/>
</g>
<!-- Node5 -->
<g id="node9" class="node"><title>Node5</title>
<a xlink:href="midi__13_8cpp.html#a8f70acacad6eaba8867bdd80dda5e277" target="_top" xlink:title="do_midi_config">
<polygon fill="white" stroke="black" points="566,-47 566,-71 648,-71 648,-47 566,-47"/>
<text text-anchor="middle" x="607" y="-58" font-family="Helvetica,sans-Serif" font-size="10.00">do_midi_config</text>
</a>
</g>
<!-- Node4&#45;&gt;Node5 -->
<g id="edge8" class="edge"><title>Node4&#45;&gt;Node5</title>
<path fill="none" stroke="midnightblue" d="M540.077,-59.507C548.844,-59.4406 557.633,-59.374 565.824,-59.3119"/>
<polygon fill="midnightblue" stroke="midnightblue" points="539.806,-56.0088 529.833,-59.5846 539.859,-63.0086 539.806,-56.0088"/>
</g>
<!-- Node6 -->
<g id="node11" class="node"><title>Node6</title>
<a xlink:href="_c_f_g__config__panel__8_8cpp.html#ad39c46e2fb3a3ba7ea0460140ead4f96" target="_top" xlink:title="do_panel_config">
<polygon fill="white" stroke="black" points="684.5,-43 684.5,-67 771.5,-67 771.5,-43 684.5,-43"/>
<text text-anchor="middle" x="728" y="-54" font-family="Helvetica,sans-Serif" font-size="10.00">do_panel_config</text>
</a>
</g>
<!-- Node5&#45;&gt;Node6 -->
<g id="edge10" class="edge"><title>Node5&#45;&gt;Node6</title>
<path fill="none" stroke="midnightblue" d="M658.33,-57.3031C667.01,-57.0162 675.947,-56.7207 684.406,-56.4411"/>
<polygon fill="midnightblue" stroke="midnightblue" points="658.182,-53.806 648.303,-57.6346 658.413,-60.8022 658.182,-53.806"/>
</g>
<!-- Node7 -->
<g id="node13" class="node"><title>Node7</title>
<a xlink:href="_c_f_g__config__panel__8_8cpp.html#a7968da66bccdba8b864caf6c8435f68e" target="_top" xlink:title="config_general_menu">
<polygon fill="white" stroke="black" points="808.5,-41 808.5,-65 917.5,-65 917.5,-41 808.5,-41"/>
<text text-anchor="middle" x="863" y="-52" font-family="Helvetica,sans-Serif" font-size="10.00">config_general_menu</text>
</a>
</g>
<!-- Node6&#45;&gt;Node7 -->
<g id="edge12" class="edge"><title>Node6&#45;&gt;Node7</title>
<path fill="none" stroke="midnightblue" d="M782.072,-54.1989C790.621,-54.0723 799.471,-53.9412 808.04,-53.8142"/>
<polygon fill="midnightblue" stroke="midnightblue" points="781.778,-50.7028 771.831,-54.3507 781.881,-57.702 781.778,-50.7028"/>
</g>
<!-- Node8 -->
<g id="node15" class="node"><title>Node8</title>
<a xlink:href="graphics__rebuild1_8cpp.html#ac2eae1e03fb72cc734ffbcef566483bf" target="_top" xlink:title="Boxes">
<polygon fill="white" stroke="black" points="954,-40 954,-64 998,-64 998,-40 954,-40"/>
<text text-anchor="middle" x="976" y="-51" font-family="Helvetica,sans-Serif" font-size="10.00">Boxes</text>
</a>
</g>
<!-- Node7&#45;&gt;Node8 -->
<g id="edge14" class="edge"><title>Node7&#45;&gt;Node8</title>
<path fill="none" stroke="midnightblue" d="M927.747,-52.427C937.112,-52.3441 946.168,-52.264 953.856,-52.196"/>
<polygon fill="midnightblue" stroke="midnightblue" points="927.483,-48.9291 917.514,-52.5176 927.545,-55.9288 927.483,-48.9291"/>
</g>
<!-- Node9 -->
<g id="node17" class="node"><title>Node9</title>
<a xlink:href="_m_a_i_n__avec__objets_8cpp.html#ade8d4ba65d55c94f8ee277829d722155" target="_top" xlink:title="main_actions_on_screen">
<polygon fill="white" stroke="black" points="1034.5,-40 1034.5,-64 1159.5,-64 1159.5,-40 1034.5,-40"/>
<text text-anchor="middle" x="1097" y="-51" font-family="Helvetica,sans-Serif" font-size="10.00">main_actions_on_screen</text>
</a>
</g>
<!-- Node8&#45;&gt;Node9 -->
<g id="edge16" class="edge"><title>Node8&#45;&gt;Node9</title>
<path fill="none" stroke="midnightblue" d="M1008.24,-52C1016.32,-52 1025.26,-52 1034.27,-52"/>
<polygon fill="midnightblue" stroke="midnightblue" points="1008.19,-48.5001 998.193,-52 1008.19,-55.5001 1008.19,-48.5001"/>
</g>
<!-- Node10 -->
<g id="node19" class="node"><title>Node10</title>
<a xlink:href="_m_a_i_n__avec__objets_8cpp.html#ae66f6b31b5ad750f1fe042a706a4e3d4" target="_top" xlink:title="main">
<polygon fill="white" stroke="black" points="1196,-20 1196,-44 1234,-44 1234,-20 1196,-20"/>
<text text-anchor="middle" x="1215" y="-31" font-family="Helvetica,sans-Serif" font-size="10.00">main</text>
</a>
</g>
<!-- Node9&#45;&gt;Node10 -->
<g id="edge18" class="edge"><title>Node9&#45;&gt;Node10</title>
<path fill="none" stroke="midnightblue" d="M1169.84,-39.6547C1179.34,-38.0448 1188.33,-36.5209 1195.75,-35.2629"/>
<polygon fill="midnightblue" stroke="midnightblue" points="1169.07,-36.2339 1159.8,-41.3559 1170.24,-43.1355 1169.07,-36.2339"/>
</g>
<!-- Node11&#45;&gt;Node4 -->
<g id="edge24" class="edge"><title>Node11&#45;&gt;Node4</title>
<path fill="none" stroke="midnightblue" d="M373.155,-27.1908C388.117,-32.0109 404.788,-37.3814 420.239,-42.3587"/>
<polygon fill="midnightblue" stroke="midnightblue" points="374.191,-23.8474 363.599,-24.1124 372.044,-30.5102 374.191,-23.8474"/>
</g>
<!-- Node11&#45;&gt;Node10 -->
<g id="edge22" class="edge"><title>Node11&#45;&gt;Node10</title>
<path fill="none" stroke="midnightblue" d="M380.446,-12C437.055,-12 528.236,-12 607,-12 607,-12 607,-12 976,-12 1058.03,-12 1155.34,-23.8436 1195.84,-29.3027"/>
<polygon fill="midnightblue" stroke="midnightblue" points="380.289,-8.5001 370.289,-12 380.289,-15.5001 380.289,-8.5001"/>
</g>
</g>
</svg>
