<?xml version="1.0" encoding="UTF-8" standalone="no"?>
<!DOCTYPE svg PUBLIC "-//W3C//DTD SVG 1.1//EN"
 "http://www.w3.org/Graphics/SVG/1.1/DTD/svg11.dtd">
<!-- Generated by graphviz version 2.26.3 (20100126.1600)
 -->
<!-- Title: DisplayTask Pages: 1 -->
<svg width="198pt" height="50pt"
 viewBox="0.00 0.00 198.00 50.00" xmlns="http://www.w3.org/2000/svg" xmlns:xlink="http://www.w3.org/1999/xlink">
<g id="graph1" class="graph" transform="scale(1 1) rotate(0) translate(4 46)">
<title>DisplayTask</title>
<polygon fill="white" stroke="white" points="-4,5 -4,-46 195,-46 195,5 -4,5"/>
<!-- Node1 -->
<g id="node1" class="node"><title>Node1</title>
<polygon fill="#bfbfbf" stroke="black" points="0.5,-0 0.5,-24 71.5,-24 71.5,-0 0.5,-0"/>
<text text-anchor="middle" x="36" y="-11" font-family="Helvetica,sans-Serif" font-size="10.00">DisplayTask</text>
</g>
<!-- Node2 -->
<g id="node3" class="node"><title>Node2</title>
<a xlink:href="midi___c_o_r_e_8cpp.html#a7d0f82d882071792d6a2df51ef13ec55" target="_top" xlink:title="ReceivePolling">
<polygon fill="white" stroke="black" points="108,-0 108,-24 190,-24 190,-0 108,-0"/>
<text text-anchor="middle" x="149" y="-11" font-family="Helvetica,sans-Serif" font-size="10.00">ReceivePolling</text>
</a>
</g>
<!-- Node1&#45;&gt;Node2 -->
<g id="edge2" class="edge"><title>Node1&#45;&gt;Node2</title>
<path fill="none" stroke="midnightblue" d="M82.013,-12C90.6059,-12 99.5341,-12 107.965,-12"/>
<polygon fill="midnightblue" stroke="midnightblue" points="81.7539,-8.5001 71.7539,-12 81.7539,-15.5001 81.7539,-8.5001"/>
</g>
<!-- Node2&#45;&gt;Node2 -->
<g id="edge4" class="edge"><title>Node2&#45;&gt;Node2</title>
<path fill="none" stroke="midnightblue" d="M128.689,-34.0013C130.766,-38.6474 137.536,-42 149,-42 167.812,-42 173.985,-32.9717 167.519,-24.0139"/>
<polygon fill="midnightblue" stroke="midnightblue" points="132.16,-34.4749 130.481,-24.0139 125.27,-33.2384 132.16,-34.4749"/>
</g>
</g>
</svg>
