<?xml version="1.0" encoding="UTF-8" standalone="no"?>
<!DOCTYPE svg PUBLIC "-//W3C//DTD SVG 1.1//EN"
 "http://www.w3.org/Graphics/SVG/1.1/DTD/svg11.dtd">
<!-- Generated by graphviz version 2.26.3 (20100126.1600)
 -->
<!-- Title: midi_list_and_choose_devices Pages: 1 -->
<svg width="954pt" height="48pt"
 viewBox="0.00 0.00 954.00 48.00" xmlns="http://www.w3.org/2000/svg" xmlns:xlink="http://www.w3.org/1999/xlink">
<g id="graph1" class="graph" transform="scale(1 1) rotate(0) translate(4 44)">
<title>midi_list_and_choose_devices</title>
<polygon fill="white" stroke="white" points="-4,5 -4,-44 951,-44 951,5 -4,5"/>
<!-- Node1 -->
<g id="node1" class="node"><title>Node1</title>
<polygon fill="#bfbfbf" stroke="black" points="0,-0 0,-40 110,-40 110,-0 0,-0"/>
<text text-anchor="start" x="8" y="-27" font-family="Helvetica,sans-Serif" font-size="10.00">midi_list_and_choose</text>
<text text-anchor="middle" x="55" y="-11" font-family="Helvetica,sans-Serif" font-size="10.00">_devices</text>
</g>
<!-- Node2 -->
<g id="node3" class="node"><title>Node2</title>
<a xlink:href="midi__13_8cpp.html#ac7a306aa81e374b447e7341d4d3a3eea" target="_top" xlink:title="midipage_devices">
<polygon fill="white" stroke="black" points="146.5,-8 146.5,-32 241.5,-32 241.5,-8 146.5,-8"/>
<text text-anchor="middle" x="194" y="-19" font-family="Helvetica,sans-Serif" font-size="10.00">midipage_devices</text>
</a>
</g>
<!-- Node1&#45;&gt;Node2 -->
<g id="edge2" class="edge"><title>Node1&#45;&gt;Node2</title>
<path fill="none" stroke="midnightblue" d="M120.534,-20C129.283,-20 138.116,-20 146.475,-20"/>
<polygon fill="midnightblue" stroke="midnightblue" points="120.336,-16.5001 110.336,-20 120.336,-23.5001 120.336,-16.5001"/>
</g>
<!-- Node3 -->
<g id="node5" class="node"><title>Node3</title>
<a xlink:href="midi__13_8cpp.html#a8f70acacad6eaba8867bdd80dda5e277" target="_top" xlink:title="do_midi_config">
<polygon fill="white" stroke="black" points="278,-8 278,-32 360,-32 360,-8 278,-8"/>
<text text-anchor="middle" x="319" y="-19" font-family="Helvetica,sans-Serif" font-size="10.00">do_midi_config</text>
</a>
</g>
<!-- Node2&#45;&gt;Node3 -->
<g id="edge4" class="edge"><title>Node2&#45;&gt;Node3</title>
<path fill="none" stroke="midnightblue" d="M251.766,-20C260.497,-20 269.353,-20 277.645,-20"/>
<polygon fill="midnightblue" stroke="midnightblue" points="251.614,-16.5001 241.614,-20 251.614,-23.5001 251.614,-16.5001"/>
</g>
<!-- Node4 -->
<g id="node7" class="node"><title>Node4</title>
<a xlink:href="_c_f_g__config__panel__8_8cpp.html#ad39c46e2fb3a3ba7ea0460140ead4f96" target="_top" xlink:title="do_panel_config">
<polygon fill="white" stroke="black" points="396.5,-8 396.5,-32 483.5,-32 483.5,-8 396.5,-8"/>
<text text-anchor="middle" x="440" y="-19" font-family="Helvetica,sans-Serif" font-size="10.00">do_panel_config</text>
</a>
</g>
<!-- Node3&#45;&gt;Node4 -->
<g id="edge6" class="edge"><title>Node3&#45;&gt;Node4</title>
<path fill="none" stroke="midnightblue" d="M370.33,-20C379.01,-20 387.947,-20 396.406,-20"/>
<polygon fill="midnightblue" stroke="midnightblue" points="370.303,-16.5001 360.303,-20 370.303,-23.5001 370.303,-16.5001"/>
</g>
<!-- Node5 -->
<g id="node9" class="node"><title>Node5</title>
<a xlink:href="_c_f_g__config__panel__8_8cpp.html#a7968da66bccdba8b864caf6c8435f68e" target="_top" xlink:title="config_general_menu">
<polygon fill="white" stroke="black" points="520.5,-8 520.5,-32 629.5,-32 629.5,-8 520.5,-8"/>
<text text-anchor="middle" x="575" y="-19" font-family="Helvetica,sans-Serif" font-size="10.00">config_general_menu</text>
</a>
</g>
<!-- Node4&#45;&gt;Node5 -->
<g id="edge8" class="edge"><title>Node4&#45;&gt;Node5</title>
<path fill="none" stroke="midnightblue" d="M494.072,-20C502.621,-20 511.471,-20 520.04,-20"/>
<polygon fill="midnightblue" stroke="midnightblue" points="493.831,-16.5001 483.831,-20 493.831,-23.5001 493.831,-16.5001"/>
</g>
<!-- Node6 -->
<g id="node11" class="node"><title>Node6</title>
<a xlink:href="graphics__rebuild1_8cpp.html#ac2eae1e03fb72cc734ffbcef566483bf" target="_top" xlink:title="Boxes">
<polygon fill="white" stroke="black" points="666,-8 666,-32 710,-32 710,-8 666,-8"/>
<text text-anchor="middle" x="688" y="-19" font-family="Helvetica,sans-Serif" font-size="10.00">Boxes</text>
</a>
</g>
<!-- Node5&#45;&gt;Node6 -->
<g id="edge10" class="edge"><title>Node5&#45;&gt;Node6</title>
<path fill="none" stroke="midnightblue" d="M639.747,-20C649.112,-20 658.168,-20 665.856,-20"/>
<polygon fill="midnightblue" stroke="midnightblue" points="639.514,-16.5001 629.514,-20 639.514,-23.5001 639.514,-16.5001"/>
</g>
<!-- Node7 -->
<g id="node13" class="node"><title>Node7</title>
<a xlink:href="_m_a_i_n__avec__objets_8cpp.html#ade8d4ba65d55c94f8ee277829d722155" target="_top" xlink:title="main_actions_on_screen">
<polygon fill="white" stroke="black" points="746.5,-8 746.5,-32 871.5,-32 871.5,-8 746.5,-8"/>
<text text-anchor="middle" x="809" y="-19" font-family="Helvetica,sans-Serif" font-size="10.00">main_actions_on_screen</text>
</a>
</g>
<!-- Node6&#45;&gt;Node7 -->
<g id="edge12" class="edge"><title>Node6&#45;&gt;Node7</title>
<path fill="none" stroke="midnightblue" d="M720.244,-20C728.32,-20 737.263,-20 746.271,-20"/>
<polygon fill="midnightblue" stroke="midnightblue" points="720.193,-16.5001 710.193,-20 720.193,-23.5001 720.193,-16.5001"/>
</g>
<!-- Node8 -->
<g id="node15" class="node"><title>Node8</title>
<a xlink:href="_m_a_i_n__avec__objets_8cpp.html#ae66f6b31b5ad750f1fe042a706a4e3d4" target="_top" xlink:title="main">
<polygon fill="white" stroke="black" points="908,-8 908,-32 946,-32 946,-8 908,-8"/>
<text text-anchor="middle" x="927" y="-19" font-family="Helvetica,sans-Serif" font-size="10.00">main</text>
</a>
</g>
<!-- Node7&#45;&gt;Node8 -->
<g id="edge14" class="edge"><title>Node7&#45;&gt;Node8</title>
<path fill="none" stroke="midnightblue" d="M881.837,-20C891.336,-20 900.327,-20 907.749,-20"/>
<polygon fill="midnightblue" stroke="midnightblue" points="881.8,-16.5001 871.8,-20 881.8,-23.5001 881.8,-16.5001"/>
</g>
</g>
</svg>
