<?xml version="1.0" encoding="UTF-8" standalone="no"?>
<!DOCTYPE svg PUBLIC "-//W3C//DTD SVG 1.1//EN"
 "http://www.w3.org/Graphics/SVG/1.1/DTD/svg11.dtd">
<!-- Generated by graphviz version 2.26.3 (20100126.1600)
 -->
<!-- Title: do_midi_call_order Pages: 1 -->
<svg width="248pt" height="158pt"
 viewBox="0.00 0.00 248.00 158.00" xmlns="http://www.w3.org/2000/svg" xmlns:xlink="http://www.w3.org/1999/xlink">
<g id="graph1" class="graph" transform="scale(1 1) rotate(0) translate(4 154)">
<title>do_midi_call_order</title>
<polygon fill="white" stroke="white" points="-4,5 -4,-154 245,-154 245,5 -4,5"/>
<!-- Node1 -->
<g id="node1" class="node"><title>Node1</title>
<polygon fill="#bfbfbf" stroke="black" points="0,-63 0,-87 98,-87 98,-63 0,-63"/>
<text text-anchor="middle" x="49" y="-74" font-family="Helvetica,sans-Serif" font-size="10.00">do_midi_call_order</text>
</g>
<!-- Node2 -->
<g id="node3" class="node"><title>Node2</title>
<a xlink:href="_c_o_r_e__6_8cpp.html#a1d69e941ecabe5dd73d0b108627b21d6" target="_top" xlink:title="detect_dock_used">
<polygon fill="white" stroke="black" points="139,-126 139,-150 235,-150 235,-126 139,-126"/>
<text text-anchor="middle" x="187" y="-137" font-family="Helvetica,sans-Serif" font-size="10.00">detect_dock_used</text>
</a>
</g>
<!-- Node1&#45;&gt;Node2 -->
<g id="edge2" class="edge"><title>Node1&#45;&gt;Node2</title>
<path fill="none" stroke="midnightblue" d="M72.2074,-87.1071C89.1588,-95.7928 112.79,-107.577 134,-117 137.867,-118.718 141.92,-120.448 145.99,-122.137"/>
<polygon fill="midnightblue" stroke="midnightblue" points="144.854,-125.454 155.435,-125.983 147.493,-118.971 144.854,-125.454"/>
</g>
<!-- Node3 -->
<g id="node5" class="node"><title>Node3</title>
<a xlink:href="faders__operations_8cpp.html#a85b6979e04dd2e2b3f6b5e26fcbb34ec" target="_top" xlink:title="DoTimeToDock">
<polygon fill="white" stroke="black" points="145,-84 145,-108 229,-108 229,-84 145,-84"/>
<text text-anchor="middle" x="187" y="-95" font-family="Helvetica,sans-Serif" font-size="10.00">DoTimeToDock</text>
</a>
</g>
<!-- Node1&#45;&gt;Node3 -->
<g id="edge4" class="edge"><title>Node1&#45;&gt;Node3</title>
<path fill="none" stroke="midnightblue" d="M98.0422,-82.4629C110.026,-84.2866 122.889,-86.2439 135.005,-88.0877"/>
<polygon fill="midnightblue" stroke="midnightblue" points="134.559,-91.5601 144.972,-89.6044 135.612,-84.6397 134.559,-91.5601"/>
</g>
<!-- Node4 -->
<g id="node7" class="node"><title>Node4</title>
<a xlink:href="_c_o_r_e__6_8cpp.html#a852678868d2a66db68f4a2c9eacfcc78" target="_top" xlink:title="reset_numeric_entry">
<polygon fill="white" stroke="black" points="134.5,-42 134.5,-66 239.5,-66 239.5,-42 134.5,-42"/>
<text text-anchor="middle" x="187" y="-53" font-family="Helvetica,sans-Serif" font-size="10.00">reset_numeric_entry</text>
</a>
</g>
<!-- Node1&#45;&gt;Node4 -->
<g id="edge6" class="edge"><title>Node1&#45;&gt;Node4</title>
<path fill="none" stroke="midnightblue" d="M98.0422,-67.5371C106.598,-66.2351 115.602,-64.865 124.462,-63.5167"/>
<polygon fill="midnightblue" stroke="midnightblue" points="125.013,-66.9731 134.373,-62.0085 123.96,-60.0528 125.013,-66.9731"/>
</g>
<!-- Node5 -->
<g id="node9" class="node"><title>Node5</title>
<a xlink:href="_c_o_r_e__6_8cpp.html#a9574e0b790211959c7398e42468410d8" target="_top" xlink:title="toggle">
<polygon fill="white" stroke="black" points="165.5,-0 165.5,-24 208.5,-24 208.5,-0 165.5,-0"/>
<text text-anchor="middle" x="187" y="-11" font-family="Helvetica,sans-Serif" font-size="10.00">toggle</text>
</a>
</g>
<!-- Node1&#45;&gt;Node5 -->
<g id="edge8" class="edge"><title>Node1&#45;&gt;Node5</title>
<path fill="none" stroke="midnightblue" d="M72.2074,-62.8929C89.1588,-54.2072 112.79,-42.4231 134,-33 141.027,-29.8781 148.67,-26.7171 155.907,-23.8282"/>
<polygon fill="midnightblue" stroke="midnightblue" points="157.403,-27.0011 165.431,-20.0866 154.843,-20.4859 157.403,-27.0011"/>
</g>
</g>
</svg>
