<?xml version="1.0" encoding="UTF-8" standalone="no"?>
<!DOCTYPE svg PUBLIC "-//W3C//DTD SVG 1.1//EN"
 "http://www.w3.org/Graphics/SVG/1.1/DTD/svg11.dtd">
<!-- Generated by graphviz version 2.26.3 (20100126.1600)
 -->
<!-- Title: draw_sign_up Pages: 1 -->
<svg width="558pt" height="32pt"
 viewBox="0.00 0.00 558.00 32.00" xmlns="http://www.w3.org/2000/svg" xmlns:xlink="http://www.w3.org/1999/xlink">
<g id="graph1" class="graph" transform="scale(1 1) rotate(0) translate(4 28)">
<title>draw_sign_up</title>
<polygon fill="white" stroke="white" points="-4,5 -4,-28 555,-28 555,5 -4,5"/>
<!-- Node1 -->
<g id="node1" class="node"><title>Node1</title>
<polygon fill="#bfbfbf" stroke="black" points="0.5,-0 0.5,-24 77.5,-24 77.5,-0 0.5,-0"/>
<text text-anchor="middle" x="39" y="-11" font-family="Helvetica,sans-Serif" font-size="10.00">draw_sign_up</text>
</g>
<!-- Node2 -->
<g id="node3" class="node"><title>Node2</title>
<a xlink:href="minifaders__visu_8cpp.html#a17d954acc2cae5c05f7d9ee4ff8b0a0a" target="_top" xlink:title="mini_faders_panel_visu">
<polygon fill="white" stroke="black" points="114.5,-0 114.5,-24 233.5,-24 233.5,-0 114.5,-0"/>
<text text-anchor="middle" x="174" y="-11" font-family="Helvetica,sans-Serif" font-size="10.00">mini_faders_panel_visu</text>
</a>
</g>
<!-- Node1&#45;&gt;Node2 -->
<g id="edge2" class="edge"><title>Node1&#45;&gt;Node2</title>
<path fill="none" stroke="midnightblue" d="M87.9177,-12C96.5179,-12 105.554,-12 114.407,-12"/>
<polygon fill="midnightblue" stroke="midnightblue" points="87.6856,-8.5001 77.6856,-12 87.6855,-15.5001 87.6856,-8.5001"/>
</g>
<!-- Node3 -->
<g id="node5" class="node"><title>Node3</title>
<a xlink:href="graphics__rebuild1_8cpp.html#ac2eae1e03fb72cc734ffbcef566483bf" target="_top" xlink:title="Boxes">
<polygon fill="white" stroke="black" points="270,-0 270,-24 314,-24 314,-0 270,-0"/>
<text text-anchor="middle" x="292" y="-11" font-family="Helvetica,sans-Serif" font-size="10.00">Boxes</text>
</a>
</g>
<!-- Node2&#45;&gt;Node3 -->
<g id="edge4" class="edge"><title>Node2&#45;&gt;Node3</title>
<path fill="none" stroke="midnightblue" d="M243.93,-12C253.272,-12 262.235,-12 269.838,-12"/>
<polygon fill="midnightblue" stroke="midnightblue" points="243.691,-8.5001 233.691,-12 243.691,-15.5001 243.691,-8.5001"/>
</g>
<!-- Node4 -->
<g id="node7" class="node"><title>Node4</title>
<a xlink:href="_m_a_i_n__avec__objets_8cpp.html#ade8d4ba65d55c94f8ee277829d722155" target="_top" xlink:title="main_actions_on_screen">
<polygon fill="white" stroke="black" points="350.5,-0 350.5,-24 475.5,-24 475.5,-0 350.5,-0"/>
<text text-anchor="middle" x="413" y="-11" font-family="Helvetica,sans-Serif" font-size="10.00">main_actions_on_screen</text>
</a>
</g>
<!-- Node3&#45;&gt;Node4 -->
<g id="edge6" class="edge"><title>Node3&#45;&gt;Node4</title>
<path fill="none" stroke="midnightblue" d="M324.244,-12C332.32,-12 341.263,-12 350.271,-12"/>
<polygon fill="midnightblue" stroke="midnightblue" points="324.193,-8.5001 314.193,-12 324.193,-15.5001 324.193,-8.5001"/>
</g>
<!-- Node5 -->
<g id="node9" class="node"><title>Node5</title>
<a xlink:href="_m_a_i_n__avec__objets_8cpp.html#ae66f6b31b5ad750f1fe042a706a4e3d4" target="_top" xlink:title="main">
<polygon fill="white" stroke="black" points="512,-0 512,-24 550,-24 550,-0 512,-0"/>
<text text-anchor="middle" x="531" y="-11" font-family="Helvetica,sans-Serif" font-size="10.00">main</text>
</a>
</g>
<!-- Node4&#45;&gt;Node5 -->
<g id="edge8" class="edge"><title>Node4&#45;&gt;Node5</title>
<path fill="none" stroke="midnightblue" d="M485.837,-12C495.336,-12 504.327,-12 511.749,-12"/>
<polygon fill="midnightblue" stroke="midnightblue" points="485.8,-8.5001 475.8,-12 485.8,-15.5001 485.8,-8.5001"/>
</g>
</g>
</svg>
