<?xml version="1.0" encoding="UTF-8" standalone="no"?>
<!DOCTYPE svg PUBLIC "-//W3C//DTD SVG 1.1//EN"
 "http://www.w3.org/Graphics/SVG/1.1/DTD/svg11.dtd">
<!-- Generated by graphviz version 2.26.3 (20100126.1600)
 -->
<!-- Title: draw_sign_down Pages: 1 -->
<svg width="570pt" height="32pt"
 viewBox="0.00 0.00 570.00 32.00" xmlns="http://www.w3.org/2000/svg" xmlns:xlink="http://www.w3.org/1999/xlink">
<g id="graph1" class="graph" transform="scale(1 1) rotate(0) translate(4 28)">
<title>draw_sign_down</title>
<polygon fill="white" stroke="white" points="-4,5 -4,-28 567,-28 567,5 -4,5"/>
<!-- Node1 -->
<g id="node1" class="node"><title>Node1</title>
<polygon fill="#bfbfbf" stroke="black" points="0.5,-0 0.5,-24 89.5,-24 89.5,-0 0.5,-0"/>
<text text-anchor="middle" x="45" y="-11" font-family="Helvetica,sans-Serif" font-size="10.00">draw_sign_down</text>
</g>
<!-- Node2 -->
<g id="node3" class="node"><title>Node2</title>
<a xlink:href="minifaders__visu_8cpp.html#a17d954acc2cae5c05f7d9ee4ff8b0a0a" target="_top" xlink:title="mini_faders_panel_visu">
<polygon fill="white" stroke="black" points="126.5,-0 126.5,-24 245.5,-24 245.5,-0 126.5,-0"/>
<text text-anchor="middle" x="186" y="-11" font-family="Helvetica,sans-Serif" font-size="10.00">mini_faders_panel_visu</text>
</a>
</g>
<!-- Node1&#45;&gt;Node2 -->
<g id="edge2" class="edge"><title>Node1&#45;&gt;Node2</title>
<path fill="none" stroke="midnightblue" d="M99.7114,-12C108.477,-12 117.587,-12 126.459,-12"/>
<polygon fill="midnightblue" stroke="midnightblue" points="99.6133,-8.5001 89.6133,-12 99.6132,-15.5001 99.6133,-8.5001"/>
</g>
<!-- Node3 -->
<g id="node5" class="node"><title>Node3</title>
<a xlink:href="graphics__rebuild1_8cpp.html#ac2eae1e03fb72cc734ffbcef566483bf" target="_top" xlink:title="Boxes">
<polygon fill="white" stroke="black" points="282,-0 282,-24 326,-24 326,-0 282,-0"/>
<text text-anchor="middle" x="304" y="-11" font-family="Helvetica,sans-Serif" font-size="10.00">Boxes</text>
</a>
</g>
<!-- Node2&#45;&gt;Node3 -->
<g id="edge4" class="edge"><title>Node2&#45;&gt;Node3</title>
<path fill="none" stroke="midnightblue" d="M255.93,-12C265.272,-12 274.235,-12 281.838,-12"/>
<polygon fill="midnightblue" stroke="midnightblue" points="255.691,-8.5001 245.691,-12 255.691,-15.5001 255.691,-8.5001"/>
</g>
<!-- Node4 -->
<g id="node7" class="node"><title>Node4</title>
<a xlink:href="_m_a_i_n__avec__objets_8cpp.html#ade8d4ba65d55c94f8ee277829d722155" target="_top" xlink:title="main_actions_on_screen">
<polygon fill="white" stroke="black" points="362.5,-0 362.5,-24 487.5,-24 487.5,-0 362.5,-0"/>
<text text-anchor="middle" x="425" y="-11" font-family="Helvetica,sans-Serif" font-size="10.00">main_actions_on_screen</text>
</a>
</g>
<!-- Node3&#45;&gt;Node4 -->
<g id="edge6" class="edge"><title>Node3&#45;&gt;Node4</title>
<path fill="none" stroke="midnightblue" d="M336.244,-12C344.32,-12 353.263,-12 362.271,-12"/>
<polygon fill="midnightblue" stroke="midnightblue" points="336.193,-8.5001 326.193,-12 336.193,-15.5001 336.193,-8.5001"/>
</g>
<!-- Node5 -->
<g id="node9" class="node"><title>Node5</title>
<a xlink:href="_m_a_i_n__avec__objets_8cpp.html#ae66f6b31b5ad750f1fe042a706a4e3d4" target="_top" xlink:title="main">
<polygon fill="white" stroke="black" points="524,-0 524,-24 562,-24 562,-0 524,-0"/>
<text text-anchor="middle" x="543" y="-11" font-family="Helvetica,sans-Serif" font-size="10.00">main</text>
</a>
</g>
<!-- Node4&#45;&gt;Node5 -->
<g id="edge8" class="edge"><title>Node4&#45;&gt;Node5</title>
<path fill="none" stroke="midnightblue" d="M497.837,-12C507.336,-12 516.327,-12 523.749,-12"/>
<polygon fill="midnightblue" stroke="midnightblue" points="497.8,-8.5001 487.8,-12 497.8,-15.5001 497.8,-8.5001"/>
</g>
</g>
</svg>
