<?xml version="1.0" encoding="UTF-8" standalone="no"?>
<!DOCTYPE svg PUBLIC "-//W3C//DTD SVG 1.1//EN"
 "http://www.w3.org/Graphics/SVG/1.1/DTD/svg11.dtd">
<!-- Generated by graphviz version 2.26.3 (20100126.1600)
 -->
<!-- Title: all_at_zero_panel_core Pages: 1 -->
<svg width="420pt" height="138pt"
 viewBox="0.00 0.00 420.00 138.00" xmlns="http://www.w3.org/2000/svg" xmlns:xlink="http://www.w3.org/1999/xlink">
<g id="graph1" class="graph" transform="scale(1 1) rotate(0) translate(4 134)">
<title>all_at_zero_panel_core</title>
<polygon fill="white" stroke="white" points="-4,5 -4,-134 417,-134 417,5 -4,5"/>
<!-- Node1 -->
<g id="node1" class="node"><title>Node1</title>
<polygon fill="#bfbfbf" stroke="black" points="0,-42 0,-66 116,-66 116,-42 0,-42"/>
<text text-anchor="middle" x="58" y="-53" font-family="Helvetica,sans-Serif" font-size="10.00">all_at_zero_panel_core</text>
</g>
<!-- Node2 -->
<g id="node3" class="node"><title>Node2</title>
<a xlink:href="_c_o_r_e__6_8cpp.html#ad7187a2df52460607db81f8bf0500953" target="_top" xlink:title="attribute_midi_solo\l_affectation">
<polygon fill="white" stroke="black" points="158,-86 158,-126 256,-126 256,-86 158,-86"/>
<text text-anchor="start" x="166" y="-113" font-family="Helvetica,sans-Serif" font-size="10.00">attribute_midi_solo</text>
<text text-anchor="middle" x="207" y="-97" font-family="Helvetica,sans-Serif" font-size="10.00">_affectation</text>
</a>
</g>
<!-- Node1&#45;&gt;Node2 -->
<g id="edge2" class="edge"><title>Node1&#45;&gt;Node2</title>
<path fill="none" stroke="midnightblue" d="M92.5581,-66.0605C109.179,-71.8611 129.566,-78.9759 148.504,-85.5853"/>
<polygon fill="midnightblue" stroke="midnightblue" points="147.359,-88.8927 157.954,-88.8832 149.666,-82.2836 147.359,-88.8927"/>
</g>
<!-- Node4 -->
<g id="node7" class="node"><title>Node4</title>
<a xlink:href="_c_o_r_e__6_8cpp.html#a4d7cd484d9fdf2b20c72dbda8c29f77b" target="_top" xlink:title="do_stock_fadersstate">
<polygon fill="white" stroke="black" points="152,-42 152,-66 262,-66 262,-42 152,-42"/>
<text text-anchor="middle" x="207" y="-53" font-family="Helvetica,sans-Serif" font-size="10.00">do_stock_fadersstate</text>
</a>
</g>
<!-- Node1&#45;&gt;Node4 -->
<g id="edge6" class="edge"><title>Node1&#45;&gt;Node4</title>
<path fill="none" stroke="midnightblue" d="M116.034,-54C124.399,-54 133.056,-54 141.553,-54"/>
<polygon fill="midnightblue" stroke="midnightblue" points="141.809,-57.5001 151.809,-54 141.809,-50.5001 141.809,-57.5001"/>
</g>
<!-- Node6 -->
<g id="node11" class="node"><title>Node6</title>
<a xlink:href="_c_o_r_e__6_8cpp.html#a66525c797b7c3a7c5359c87f0094876c" target="_top" xlink:title="do_recall_fadersstate">
<polygon fill="white" stroke="black" points="152,-0 152,-24 262,-24 262,-0 152,-0"/>
<text text-anchor="middle" x="207" y="-11" font-family="Helvetica,sans-Serif" font-size="10.00">do_recall_fadersstate</text>
</a>
</g>
<!-- Node1&#45;&gt;Node6 -->
<g id="edge10" class="edge"><title>Node1&#45;&gt;Node6</title>
<path fill="none" stroke="midnightblue" d="M100.697,-41.9645C117.375,-37.2634 136.67,-31.8245 154.207,-26.8812"/>
<polygon fill="midnightblue" stroke="midnightblue" points="155.621,-30.1191 164.296,-24.0373 153.722,-23.3817 155.621,-30.1191"/>
</g>
<!-- Node3 -->
<g id="node5" class="node"><title>Node3</title>
<a xlink:href="_c_o_r_e__6_8cpp.html#aa6f6d52757e4af2364c17c3e9dee8095" target="_top" xlink:title="search_and_desaffect\l_previous_midi_signal">
<polygon fill="white" stroke="black" points="298.5,-90 298.5,-130 411.5,-130 411.5,-90 298.5,-90"/>
<text text-anchor="start" x="306.5" y="-117" font-family="Helvetica,sans-Serif" font-size="10.00">search_and_desaffect</text>
<text text-anchor="middle" x="355" y="-101" font-family="Helvetica,sans-Serif" font-size="10.00">_previous_midi_signal</text>
</a>
</g>
<!-- Node2&#45;&gt;Node3 -->
<g id="edge4" class="edge"><title>Node2&#45;&gt;Node3</title>
<path fill="none" stroke="midnightblue" d="M256.282,-107.332C266.478,-107.608 277.381,-107.902 288.084,-108.191"/>
<polygon fill="midnightblue" stroke="midnightblue" points="288.165,-111.695 298.255,-108.466 288.354,-104.697 288.165,-111.695"/>
</g>
<!-- Node5 -->
<g id="node9" class="node"><title>Node5</title>
<a xlink:href="_c_o_r_e__6_8cpp.html#aabfc6329cc79d8e58d47c5014c063be7" target="_top" xlink:title="reset_midi_receiver\l_array">
<polygon fill="white" stroke="black" points="304.5,-32 304.5,-72 405.5,-72 405.5,-32 304.5,-32"/>
<text text-anchor="start" x="312.5" y="-59" font-family="Helvetica,sans-Serif" font-size="10.00">reset_midi_receiver</text>
<text text-anchor="middle" x="355" y="-43" font-family="Helvetica,sans-Serif" font-size="10.00">_array</text>
</a>
</g>
<!-- Node4&#45;&gt;Node5 -->
<g id="edge8" class="edge"><title>Node4&#45;&gt;Node5</title>
<path fill="none" stroke="midnightblue" d="M262.11,-53.2553C272.573,-53.1139 283.576,-52.9652 294.204,-52.8216"/>
<polygon fill="midnightblue" stroke="midnightblue" points="294.296,-56.3207 304.248,-52.6858 294.202,-49.3214 294.296,-56.3207"/>
</g>
</g>
</svg>
