<?xml version="1.0" encoding="UTF-8" standalone="no"?>
<!DOCTYPE svg PUBLIC "-//W3C//DTD SVG 1.1//EN"
 "http://www.w3.org/Graphics/SVG/1.1/DTD/svg11.dtd">
<!-- Generated by graphviz version 2.26.3 (20100126.1600)
 -->
<!-- Title: all_at_zero_panel_core Pages: 1 -->
<svg width="628pt" height="48pt"
 viewBox="0.00 0.00 628.00 48.00" xmlns="http://www.w3.org/2000/svg" xmlns:xlink="http://www.w3.org/1999/xlink">
<g id="graph1" class="graph" transform="scale(1 1) rotate(0) translate(4 44)">
<title>all_at_zero_panel_core</title>
<polygon fill="white" stroke="white" points="-4,5 -4,-44 625,-44 625,5 -4,5"/>
<!-- Node1 -->
<g id="node1" class="node"><title>Node1</title>
<polygon fill="#bfbfbf" stroke="black" points="0,-8 0,-32 116,-32 116,-8 0,-8"/>
<text text-anchor="middle" x="58" y="-19" font-family="Helvetica,sans-Serif" font-size="10.00">all_at_zero_panel_core</text>
</g>
<!-- Node2 -->
<g id="node3" class="node"><title>Node2</title>
<a xlink:href="minifaders__core_8cpp.html#ac974e1c0e7800b10f4290db4d5ce4db0" target="_top" xlink:title="mini_faders_panel_core">
<polygon fill="white" stroke="black" points="152.5,-8 152.5,-32 271.5,-32 271.5,-8 152.5,-8"/>
<text text-anchor="middle" x="212" y="-19" font-family="Helvetica,sans-Serif" font-size="10.00">mini_faders_panel_core</text>
</a>
</g>
<!-- Node1&#45;&gt;Node2 -->
<g id="edge2" class="edge"><title>Node1&#45;&gt;Node2</title>
<path fill="none" stroke="midnightblue" d="M126.333,-20C135.029,-20 143.873,-20 152.417,-20"/>
<polygon fill="midnightblue" stroke="midnightblue" points="126.221,-16.5001 116.221,-20 126.221,-23.5001 126.221,-16.5001"/>
</g>
<!-- Node3 -->
<g id="node5" class="node"><title>Node3</title>
<a xlink:href="procs__visuels__rebuild1_8cpp.html#ae710b6e599e321ad5934a90140067054" target="_top" xlink:title="check_graphics_mouse\l_handling">
<polygon fill="white" stroke="black" points="308.5,-0 308.5,-40 427.5,-40 427.5,-0 308.5,-0"/>
<text text-anchor="start" x="316.5" y="-27" font-family="Helvetica,sans-Serif" font-size="10.00">check_graphics_mouse</text>
<text text-anchor="middle" x="368" y="-11" font-family="Helvetica,sans-Serif" font-size="10.00">_handling</text>
</a>
</g>
<!-- Node2&#45;&gt;Node3 -->
<g id="edge4" class="edge"><title>Node2&#45;&gt;Node3</title>
<path fill="none" stroke="midnightblue" d="M282.06,-20C290.819,-20 299.712,-20 308.293,-20"/>
<polygon fill="midnightblue" stroke="midnightblue" points="281.868,-16.5001 271.868,-20 281.867,-23.5001 281.868,-16.5001"/>
</g>
<!-- Node4 -->
<g id="node7" class="node"><title>Node4</title>
<a xlink:href="_m_a_i_n__avec__objets_8cpp.html#a8e80f54ac804eddce8ed6e45adb1db44" target="_top" xlink:title="ticker_full_loop">
<polygon fill="white" stroke="black" points="464,-8 464,-32 546,-32 546,-8 464,-8"/>
<text text-anchor="middle" x="505" y="-19" font-family="Helvetica,sans-Serif" font-size="10.00">ticker_full_loop</text>
</a>
</g>
<!-- Node3&#45;&gt;Node4 -->
<g id="edge6" class="edge"><title>Node3&#45;&gt;Node4</title>
<path fill="none" stroke="midnightblue" d="M437.967,-20C446.737,-20 455.475,-20 463.605,-20"/>
<polygon fill="midnightblue" stroke="midnightblue" points="437.692,-16.5001 427.692,-20 437.692,-23.5001 437.692,-16.5001"/>
</g>
<!-- Node5 -->
<g id="node9" class="node"><title>Node5</title>
<a xlink:href="_m_a_i_n__avec__objets_8cpp.html#ae66f6b31b5ad750f1fe042a706a4e3d4" target="_top" xlink:title="main">
<polygon fill="white" stroke="black" points="582,-8 582,-32 620,-32 620,-8 582,-8"/>
<text text-anchor="middle" x="601" y="-19" font-family="Helvetica,sans-Serif" font-size="10.00">main</text>
</a>
</g>
<!-- Node4&#45;&gt;Node5 -->
<g id="edge8" class="edge"><title>Node4&#45;&gt;Node5</title>
<path fill="none" stroke="midnightblue" d="M556.509,-20C565.577,-20 574.476,-20 581.904,-20"/>
<polygon fill="midnightblue" stroke="midnightblue" points="556.27,-16.5001 546.27,-20 556.27,-23.5001 556.27,-16.5001"/>
</g>
</g>
</svg>
