<?xml version="1.0" encoding="UTF-8" standalone="no"?>
<!DOCTYPE svg PUBLIC "-//W3C//DTD SVG 1.1//EN"
 "http://www.w3.org/Graphics/SVG/1.1/DTD/svg11.dtd">
<!-- Generated by graphviz version 2.26.3 (20100126.1600)
 -->
<!-- Title: Move_do_crossfade Pages: 1 -->
<svg width="924pt" height="113pt"
 viewBox="0.00 0.00 924.00 113.00" xmlns="http://www.w3.org/2000/svg" xmlns:xlink="http://www.w3.org/1999/xlink">
<g id="graph1" class="graph" transform="scale(1 1) rotate(0) translate(4 109)">
<title>Move_do_crossfade</title>
<polygon fill="white" stroke="white" points="-4,5 -4,-109 921,-109 921,5 -4,5"/>
<!-- Node1 -->
<g id="node1" class="node"><title>Node1</title>
<polygon fill="#bfbfbf" stroke="black" points="0,-21 0,-45 104,-45 104,-21 0,-21"/>
<text text-anchor="middle" x="52" y="-32" font-family="Helvetica,sans-Serif" font-size="10.00">Move_do_crossfade</text>
</g>
<!-- Node2 -->
<g id="node3" class="node"><title>Node2</title>
<a xlink:href="_m_a_i_n__avec__objets_8cpp.html#a6a015280c1363331ada8a329be6eb7c8" target="_top" xlink:title="ticker">
<polygon fill="white" stroke="black" points="154.5,-42 154.5,-66 195.5,-66 195.5,-42 154.5,-42"/>
<text text-anchor="middle" x="175" y="-53" font-family="Helvetica,sans-Serif" font-size="10.00">ticker</text>
</a>
</g>
<!-- Node1&#45;&gt;Node2 -->
<g id="edge2" class="edge"><title>Node1&#45;&gt;Node2</title>
<path fill="none" stroke="midnightblue" d="M114.179,-43.6159C128.691,-46.0936 143.154,-48.5628 154.332,-50.4714"/>
<polygon fill="midnightblue" stroke="midnightblue" points="114.61,-40.1389 104.163,-41.9059 113.431,-47.039 114.61,-40.1389"/>
</g>
<!-- Node9 -->
<g id="node18" class="node"><title>Node9</title>
<a xlink:href="tracker__main14nov_8cpp.html#a343d540f006963227ee5b445888ca393" target="_top" xlink:title="ticker_move">
<polygon fill="white" stroke="black" points="140,-0 140,-24 210,-24 210,-0 140,-0"/>
<text text-anchor="middle" x="175" y="-11" font-family="Helvetica,sans-Serif" font-size="10.00">ticker_move</text>
</a>
</g>
<!-- Node1&#45;&gt;Node9 -->
<g id="edge18" class="edge"><title>Node1&#45;&gt;Node9</title>
<path fill="none" stroke="midnightblue" d="M114.117,-22.3947C122.961,-20.8847 131.788,-19.3777 139.866,-17.9984"/>
<polygon fill="midnightblue" stroke="midnightblue" points="113.431,-18.961 104.163,-24.0941 114.61,-25.8611 113.431,-18.961"/>
</g>
<!-- Node3 -->
<g id="node5" class="node"><title>Node3</title>
<a xlink:href="_c_f_g__config__panel__8_8cpp.html#aff76db94408106be22f658a05f17831a" target="_top" xlink:title="do_core_config">
<polygon fill="white" stroke="black" points="246.5,-81 246.5,-105 329.5,-105 329.5,-81 246.5,-81"/>
<text text-anchor="middle" x="288" y="-92" font-family="Helvetica,sans-Serif" font-size="10.00">do_core_config</text>
</a>
</g>
<!-- Node2&#45;&gt;Node3 -->
<g id="edge4" class="edge"><title>Node2&#45;&gt;Node3</title>
<path fill="none" stroke="midnightblue" d="M205.38,-64.4851C220.126,-69.5743 237.914,-75.7138 253.203,-80.9905"/>
<polygon fill="midnightblue" stroke="midnightblue" points="206.321,-61.1073 195.726,-61.1532 204.037,-67.7242 206.321,-61.1073"/>
</g>
<!-- Node8 -->
<g id="node15" class="node"><title>Node8</title>
<a xlink:href="_m_a_i_n__avec__objets_8cpp.html#ae66f6b31b5ad750f1fe042a706a4e3d4" target="_top" xlink:title="main">
<polygon fill="white" stroke="black" points="878,-61 878,-85 916,-85 916,-61 878,-61"/>
<text text-anchor="middle" x="897" y="-72" font-family="Helvetica,sans-Serif" font-size="10.00">main</text>
</a>
</g>
<!-- Node2&#45;&gt;Node8 -->
<g id="edge16" class="edge"><title>Node2&#45;&gt;Node8</title>
<path fill="none" stroke="midnightblue" d="M206.003,-53.7841C250.961,-53.4901 336.879,-53 410,-53 410,-53 410,-53 658,-53 740.027,-53 837.34,-64.8436 877.838,-70.3027"/>
<polygon fill="midnightblue" stroke="midnightblue" points="205.724,-50.2858 195.747,-53.8524 205.771,-57.2856 205.724,-50.2858"/>
</g>
<!-- Node4 -->
<g id="node7" class="node"><title>Node4</title>
<a xlink:href="_c_f_g__config__panel__8_8cpp.html#ad39c46e2fb3a3ba7ea0460140ead4f96" target="_top" xlink:title="do_panel_config">
<polygon fill="white" stroke="black" points="366.5,-81 366.5,-105 453.5,-105 453.5,-81 366.5,-81"/>
<text text-anchor="middle" x="410" y="-92" font-family="Helvetica,sans-Serif" font-size="10.00">do_panel_config</text>
</a>
</g>
<!-- Node3&#45;&gt;Node4 -->
<g id="edge6" class="edge"><title>Node3&#45;&gt;Node4</title>
<path fill="none" stroke="midnightblue" d="M339.875,-93C348.732,-93 357.851,-93 366.464,-93"/>
<polygon fill="midnightblue" stroke="midnightblue" points="339.644,-89.5001 329.644,-93 339.644,-96.5001 339.644,-89.5001"/>
</g>
<!-- Node5 -->
<g id="node9" class="node"><title>Node5</title>
<a xlink:href="_c_f_g__config__panel__8_8cpp.html#a7968da66bccdba8b864caf6c8435f68e" target="_top" xlink:title="config_general_menu">
<polygon fill="white" stroke="black" points="490.5,-81 490.5,-105 599.5,-105 599.5,-81 490.5,-81"/>
<text text-anchor="middle" x="545" y="-92" font-family="Helvetica,sans-Serif" font-size="10.00">config_general_menu</text>
</a>
</g>
<!-- Node4&#45;&gt;Node5 -->
<g id="edge8" class="edge"><title>Node4&#45;&gt;Node5</title>
<path fill="none" stroke="midnightblue" d="M464.072,-93C472.621,-93 481.471,-93 490.04,-93"/>
<polygon fill="midnightblue" stroke="midnightblue" points="463.831,-89.5001 453.831,-93 463.831,-96.5001 463.831,-89.5001"/>
</g>
<!-- Node6 -->
<g id="node11" class="node"><title>Node6</title>
<a xlink:href="graphics__rebuild1_8cpp.html#ac2eae1e03fb72cc734ffbcef566483bf" target="_top" xlink:title="Boxes">
<polygon fill="white" stroke="black" points="636,-81 636,-105 680,-105 680,-81 636,-81"/>
<text text-anchor="middle" x="658" y="-92" font-family="Helvetica,sans-Serif" font-size="10.00">Boxes</text>
</a>
</g>
<!-- Node5&#45;&gt;Node6 -->
<g id="edge10" class="edge"><title>Node5&#45;&gt;Node6</title>
<path fill="none" stroke="midnightblue" d="M609.747,-93C619.112,-93 628.168,-93 635.856,-93"/>
<polygon fill="midnightblue" stroke="midnightblue" points="609.514,-89.5001 599.514,-93 609.514,-96.5001 609.514,-89.5001"/>
</g>
<!-- Node7 -->
<g id="node13" class="node"><title>Node7</title>
<a xlink:href="_m_a_i_n__avec__objets_8cpp.html#ade8d4ba65d55c94f8ee277829d722155" target="_top" xlink:title="main_actions_on_screen">
<polygon fill="white" stroke="black" points="716.5,-81 716.5,-105 841.5,-105 841.5,-81 716.5,-81"/>
<text text-anchor="middle" x="779" y="-92" font-family="Helvetica,sans-Serif" font-size="10.00">main_actions_on_screen</text>
</a>
</g>
<!-- Node6&#45;&gt;Node7 -->
<g id="edge12" class="edge"><title>Node6&#45;&gt;Node7</title>
<path fill="none" stroke="midnightblue" d="M690.244,-93C698.32,-93 707.263,-93 716.271,-93"/>
<polygon fill="midnightblue" stroke="midnightblue" points="690.193,-89.5001 680.193,-93 690.193,-96.5001 690.193,-89.5001"/>
</g>
<!-- Node7&#45;&gt;Node8 -->
<g id="edge14" class="edge"><title>Node7&#45;&gt;Node8</title>
<path fill="none" stroke="midnightblue" d="M851.837,-80.6547C861.336,-79.0448 870.327,-77.5209 877.749,-76.2629"/>
<polygon fill="midnightblue" stroke="midnightblue" points="851.075,-77.2339 841.8,-82.3559 852.245,-84.1355 851.075,-77.2339"/>
</g>
<!-- Node10 -->
<g id="node20" class="node"><title>Node10</title>
<a xlink:href="tracker__main14nov_8cpp.html#ae66f6b31b5ad750f1fe042a706a4e3d4" target="_top" xlink:title="main">
<polygon fill="white" stroke="black" points="269,-0 269,-24 307,-24 307,-0 269,-0"/>
<text text-anchor="middle" x="288" y="-11" font-family="Helvetica,sans-Serif" font-size="10.00">main</text>
</a>
</g>
<!-- Node9&#45;&gt;Node10 -->
<g id="edge20" class="edge"><title>Node9&#45;&gt;Node10</title>
<path fill="none" stroke="midnightblue" d="M220.379,-12C237.208,-12 255.407,-12 268.681,-12"/>
<polygon fill="midnightblue" stroke="midnightblue" points="220.135,-8.5001 210.134,-12 220.134,-15.5001 220.135,-8.5001"/>
</g>
</g>
</svg>
