<?xml version="1.0" encoding="UTF-8" standalone="no"?>
<!DOCTYPE svg PUBLIC "-//W3C//DTD SVG 1.1//EN"
 "http://www.w3.org/Graphics/SVG/1.1/DTD/svg11.dtd">
<!-- Generated by graphviz version 2.26.3 (20100126.1600)
 -->
<!-- Title: ventilation_niveaux_mover Pages: 1 -->
<svg width="892pt" height="60pt"
 viewBox="0.00 0.00 892.00 60.00" xmlns="http://www.w3.org/2000/svg" xmlns:xlink="http://www.w3.org/1999/xlink">
<g id="graph1" class="graph" transform="scale(1 1) rotate(0) translate(4 56)">
<title>ventilation_niveaux_mover</title>
<polygon fill="white" stroke="white" points="-4,5 -4,-56 889,-56 889,5 -4,5"/>
<!-- Node1 -->
<g id="node1" class="node"><title>Node1</title>
<polygon fill="#bfbfbf" stroke="black" points="0,-0 0,-40 100,-40 100,-0 0,-0"/>
<text text-anchor="start" x="8" y="-27" font-family="Helvetica,sans-Serif" font-size="10.00">ventilation_niveaux</text>
<text text-anchor="middle" x="50" y="-11" font-family="Helvetica,sans-Serif" font-size="10.00">_mover</text>
</g>
<!-- Node2 -->
<g id="node3" class="node"><title>Node2</title>
<a xlink:href="_m_a_i_n__avec__objets_8cpp.html#a6a015280c1363331ada8a329be6eb7c8" target="_top" xlink:title="ticker">
<polygon fill="white" stroke="black" points="136.5,-8 136.5,-32 177.5,-32 177.5,-8 136.5,-8"/>
<text text-anchor="middle" x="157" y="-19" font-family="Helvetica,sans-Serif" font-size="10.00">ticker</text>
</a>
</g>
<!-- Node1&#45;&gt;Node2 -->
<g id="edge2" class="edge"><title>Node1&#45;&gt;Node2</title>
<path fill="none" stroke="midnightblue" d="M110.283,-20C119.659,-20 128.753,-20 136.387,-20"/>
<polygon fill="midnightblue" stroke="midnightblue" points="110.054,-16.5001 100.054,-20 110.054,-23.5001 110.054,-16.5001"/>
</g>
<!-- Node3 -->
<g id="node5" class="node"><title>Node3</title>
<a xlink:href="_c_f_g__config__panel__8_8cpp.html#aff76db94408106be22f658a05f17831a" target="_top" xlink:title="do_core_config">
<polygon fill="white" stroke="black" points="214.5,-28 214.5,-52 297.5,-52 297.5,-28 214.5,-28"/>
<text text-anchor="middle" x="256" y="-39" font-family="Helvetica,sans-Serif" font-size="10.00">do_core_config</text>
</a>
</g>
<!-- Node2&#45;&gt;Node3 -->
<g id="edge4" class="edge"><title>Node2&#45;&gt;Node3</title>
<path fill="none" stroke="midnightblue" d="M187.355,-26.1324C195.855,-27.8494 205.245,-29.7464 214.28,-31.5716"/>
<polygon fill="midnightblue" stroke="midnightblue" points="188.008,-22.6936 177.513,-24.144 186.622,-29.555 188.008,-22.6936"/>
</g>
<!-- Node8 -->
<g id="node15" class="node"><title>Node8</title>
<a xlink:href="_m_a_i_n__avec__objets_8cpp.html#ae66f6b31b5ad750f1fe042a706a4e3d4" target="_top" xlink:title="main">
<polygon fill="white" stroke="black" points="846,-8 846,-32 884,-32 884,-8 846,-8"/>
<text text-anchor="middle" x="865" y="-19" font-family="Helvetica,sans-Serif" font-size="10.00">main</text>
</a>
</g>
<!-- Node2&#45;&gt;Node8 -->
<g id="edge16" class="edge"><title>Node2&#45;&gt;Node8</title>
<path fill="none" stroke="midnightblue" d="M187.667,-15.4617C230.267,-9.56085 309.811,-6.55032e-15 378,-0 378,-0 378,-0 626,-0 708.027,-7.10543e-15 805.34,-11.8436 845.838,-17.3027"/>
<polygon fill="midnightblue" stroke="midnightblue" points="187.074,-12.0106 177.662,-16.875 188.054,-18.9418 187.074,-12.0106"/>
</g>
<!-- Node4 -->
<g id="node7" class="node"><title>Node4</title>
<a xlink:href="_c_f_g__config__panel__8_8cpp.html#ad39c46e2fb3a3ba7ea0460140ead4f96" target="_top" xlink:title="do_panel_config">
<polygon fill="white" stroke="black" points="334.5,-28 334.5,-52 421.5,-52 421.5,-28 334.5,-28"/>
<text text-anchor="middle" x="378" y="-39" font-family="Helvetica,sans-Serif" font-size="10.00">do_panel_config</text>
</a>
</g>
<!-- Node3&#45;&gt;Node4 -->
<g id="edge6" class="edge"><title>Node3&#45;&gt;Node4</title>
<path fill="none" stroke="midnightblue" d="M307.875,-40C316.732,-40 325.851,-40 334.464,-40"/>
<polygon fill="midnightblue" stroke="midnightblue" points="307.644,-36.5001 297.644,-40 307.644,-43.5001 307.644,-36.5001"/>
</g>
<!-- Node5 -->
<g id="node9" class="node"><title>Node5</title>
<a xlink:href="_c_f_g__config__panel__8_8cpp.html#a7968da66bccdba8b864caf6c8435f68e" target="_top" xlink:title="config_general_menu">
<polygon fill="white" stroke="black" points="458.5,-28 458.5,-52 567.5,-52 567.5,-28 458.5,-28"/>
<text text-anchor="middle" x="513" y="-39" font-family="Helvetica,sans-Serif" font-size="10.00">config_general_menu</text>
</a>
</g>
<!-- Node4&#45;&gt;Node5 -->
<g id="edge8" class="edge"><title>Node4&#45;&gt;Node5</title>
<path fill="none" stroke="midnightblue" d="M432.072,-40C440.621,-40 449.471,-40 458.04,-40"/>
<polygon fill="midnightblue" stroke="midnightblue" points="431.831,-36.5001 421.831,-40 431.831,-43.5001 431.831,-36.5001"/>
</g>
<!-- Node6 -->
<g id="node11" class="node"><title>Node6</title>
<a xlink:href="graphics__rebuild1_8cpp.html#ac2eae1e03fb72cc734ffbcef566483bf" target="_top" xlink:title="Boxes">
<polygon fill="white" stroke="black" points="604,-28 604,-52 648,-52 648,-28 604,-28"/>
<text text-anchor="middle" x="626" y="-39" font-family="Helvetica,sans-Serif" font-size="10.00">Boxes</text>
</a>
</g>
<!-- Node5&#45;&gt;Node6 -->
<g id="edge10" class="edge"><title>Node5&#45;&gt;Node6</title>
<path fill="none" stroke="midnightblue" d="M577.747,-40C587.112,-40 596.168,-40 603.856,-40"/>
<polygon fill="midnightblue" stroke="midnightblue" points="577.514,-36.5001 567.514,-40 577.514,-43.5001 577.514,-36.5001"/>
</g>
<!-- Node7 -->
<g id="node13" class="node"><title>Node7</title>
<a xlink:href="_m_a_i_n__avec__objets_8cpp.html#ade8d4ba65d55c94f8ee277829d722155" target="_top" xlink:title="main_actions_on_screen">
<polygon fill="white" stroke="black" points="684.5,-28 684.5,-52 809.5,-52 809.5,-28 684.5,-28"/>
<text text-anchor="middle" x="747" y="-39" font-family="Helvetica,sans-Serif" font-size="10.00">main_actions_on_screen</text>
</a>
</g>
<!-- Node6&#45;&gt;Node7 -->
<g id="edge12" class="edge"><title>Node6&#45;&gt;Node7</title>
<path fill="none" stroke="midnightblue" d="M658.244,-40C666.32,-40 675.263,-40 684.271,-40"/>
<polygon fill="midnightblue" stroke="midnightblue" points="658.193,-36.5001 648.193,-40 658.193,-43.5001 658.193,-36.5001"/>
</g>
<!-- Node7&#45;&gt;Node8 -->
<g id="edge14" class="edge"><title>Node7&#45;&gt;Node8</title>
<path fill="none" stroke="midnightblue" d="M819.837,-27.6547C829.336,-26.0448 838.327,-24.5209 845.749,-23.2629"/>
<polygon fill="midnightblue" stroke="midnightblue" points="819.075,-24.2339 809.8,-29.3559 820.245,-31.1355 819.075,-24.2339"/>
</g>
</g>
</svg>
