<?xml version="1.0" encoding="UTF-8" standalone="no"?>
<!DOCTYPE svg PUBLIC "-//W3C//DTD SVG 1.1//EN"
 "http://www.w3.org/Graphics/SVG/1.1/DTD/svg11.dtd">
<!-- Generated by graphviz version 2.26.3 (20100126.1600)
 -->
<!-- Title: Move_DelStep Pages: 1 -->
<svg width="508pt" height="32pt"
 viewBox="0.00 0.00 508.00 32.00" xmlns="http://www.w3.org/2000/svg" xmlns:xlink="http://www.w3.org/1999/xlink">
<g id="graph1" class="graph" transform="scale(1 1) rotate(0) translate(4 28)">
<title>Move_DelStep</title>
<polygon fill="white" stroke="white" points="-4,5 -4,-28 505,-28 505,5 -4,5"/>
<!-- Node1 -->
<g id="node1" class="node"><title>Node1</title>
<polygon fill="#bfbfbf" stroke="black" points="0.5,-0 0.5,-24 81.5,-24 81.5,-0 0.5,-0"/>
<text text-anchor="middle" x="41" y="-11" font-family="Helvetica,sans-Serif" font-size="10.00">Move_DelStep</text>
</g>
<!-- Node2 -->
<g id="node3" class="node"><title>Node2</title>
<a xlink:href="mover__2013_8cpp.html#acc2bd882d4deb89b6251c3fedaf0d8b1" target="_top" xlink:title="mover_box">
<polygon fill="white" stroke="black" points="118.5,-0 118.5,-24 183.5,-24 183.5,-0 118.5,-0"/>
<text text-anchor="middle" x="151" y="-11" font-family="Helvetica,sans-Serif" font-size="10.00">mover_box</text>
</a>
</g>
<!-- Node1&#45;&gt;Node2 -->
<g id="edge2" class="edge"><title>Node1&#45;&gt;Node2</title>
<path fill="none" stroke="midnightblue" d="M91.7591,-12C100.82,-12 110.036,-12 118.414,-12"/>
<polygon fill="midnightblue" stroke="midnightblue" points="91.6474,-8.5001 81.6474,-12 91.6474,-15.5001 91.6474,-8.5001"/>
</g>
<!-- Node3 -->
<g id="node5" class="node"><title>Node3</title>
<a xlink:href="graphics__rebuild1_8cpp.html#ac2eae1e03fb72cc734ffbcef566483bf" target="_top" xlink:title="Boxes">
<polygon fill="white" stroke="black" points="220,-0 220,-24 264,-24 264,-0 220,-0"/>
<text text-anchor="middle" x="242" y="-11" font-family="Helvetica,sans-Serif" font-size="10.00">Boxes</text>
</a>
</g>
<!-- Node2&#45;&gt;Node3 -->
<g id="edge4" class="edge"><title>Node2&#45;&gt;Node3</title>
<path fill="none" stroke="midnightblue" d="M193.687,-12C202.749,-12 211.96,-12 219.875,-12"/>
<polygon fill="midnightblue" stroke="midnightblue" points="193.596,-8.5001 183.596,-12 193.596,-15.5001 193.596,-8.5001"/>
</g>
<!-- Node4 -->
<g id="node7" class="node"><title>Node4</title>
<a xlink:href="_m_a_i_n__avec__objets_8cpp.html#ade8d4ba65d55c94f8ee277829d722155" target="_top" xlink:title="main_actions_on_screen">
<polygon fill="white" stroke="black" points="300.5,-0 300.5,-24 425.5,-24 425.5,-0 300.5,-0"/>
<text text-anchor="middle" x="363" y="-11" font-family="Helvetica,sans-Serif" font-size="10.00">main_actions_on_screen</text>
</a>
</g>
<!-- Node3&#45;&gt;Node4 -->
<g id="edge6" class="edge"><title>Node3&#45;&gt;Node4</title>
<path fill="none" stroke="midnightblue" d="M274.244,-12C282.32,-12 291.263,-12 300.271,-12"/>
<polygon fill="midnightblue" stroke="midnightblue" points="274.193,-8.5001 264.193,-12 274.193,-15.5001 274.193,-8.5001"/>
</g>
<!-- Node5 -->
<g id="node9" class="node"><title>Node5</title>
<a xlink:href="_m_a_i_n__avec__objets_8cpp.html#ae66f6b31b5ad750f1fe042a706a4e3d4" target="_top" xlink:title="main">
<polygon fill="white" stroke="black" points="462,-0 462,-24 500,-24 500,-0 462,-0"/>
<text text-anchor="middle" x="481" y="-11" font-family="Helvetica,sans-Serif" font-size="10.00">main</text>
</a>
</g>
<!-- Node4&#45;&gt;Node5 -->
<g id="edge8" class="edge"><title>Node4&#45;&gt;Node5</title>
<path fill="none" stroke="midnightblue" d="M435.837,-12C445.336,-12 454.327,-12 461.749,-12"/>
<polygon fill="midnightblue" stroke="midnightblue" points="435.8,-8.5001 425.8,-12 435.8,-15.5001 435.8,-8.5001"/>
</g>
</g>
</svg>
