<?xml version="1.0" encoding="UTF-8" standalone="no"?>
<!DOCTYPE svg PUBLIC "-//W3C//DTD SVG 1.1//EN"
 "http://www.w3.org/Graphics/SVG/1.1/DTD/svg11.dtd">
<!-- Generated by graphviz version 2.26.3 (20100126.1600)
 -->
<!-- Title: Move_StepBackward Pages: 1 -->
<svg width="1070pt" height="122pt"
 viewBox="0.00 0.00 1070.00 122.00" xmlns="http://www.w3.org/2000/svg" xmlns:xlink="http://www.w3.org/1999/xlink">
<g id="graph1" class="graph" transform="scale(1 1) rotate(0) translate(4 118)">
<title>Move_StepBackward</title>
<polygon fill="white" stroke="white" points="-4,5 -4,-118 1067,-118 1067,5 -4,5"/>
<!-- Node1 -->
<g id="node1" class="node"><title>Node1</title>
<polygon fill="#bfbfbf" stroke="black" points="0,-90 0,-114 110,-114 110,-90 0,-90"/>
<text text-anchor="middle" x="55" y="-101" font-family="Helvetica,sans-Serif" font-size="10.00">Move_StepBackward</text>
</g>
<!-- Node2 -->
<g id="node3" class="node"><title>Node2</title>
<a xlink:href="mover__2013_8cpp.html#acc2bd882d4deb89b6251c3fedaf0d8b1" target="_top" xlink:title="mover_box">
<polygon fill="white" stroke="black" points="523.5,-90 523.5,-114 588.5,-114 588.5,-90 523.5,-90"/>
<text text-anchor="middle" x="556" y="-101" font-family="Helvetica,sans-Serif" font-size="10.00">mover_box</text>
</a>
</g>
<!-- Node1&#45;&gt;Node2 -->
<g id="edge2" class="edge"><title>Node1&#45;&gt;Node2</title>
<path fill="none" stroke="midnightblue" d="M120.379,-102.805C128.996,-102.886 137.71,-102.954 146,-103 292.664,-103.806 329.336,-103.917 476,-103 491.556,-102.903 508.814,-102.699 523.306,-102.501"/>
<polygon fill="midnightblue" stroke="midnightblue" points="120.375,-99.3047 110.34,-102.705 120.305,-106.304 120.375,-99.3047"/>
</g>
<!-- Node6 -->
<g id="node11" class="node"><title>Node6</title>
<a xlink:href="mover__2013_8cpp.html#af1627b55add388ce92ebb0130bc45ede" target="_top" xlink:title="Move_do_crossfade">
<polygon fill="white" stroke="black" points="146,-70 146,-94 250,-94 250,-70 146,-70"/>
<text text-anchor="middle" x="198" y="-81" font-family="Helvetica,sans-Serif" font-size="10.00">Move_do_crossfade</text>
</a>
</g>
<!-- Node1&#45;&gt;Node6 -->
<g id="edge10" class="edge"><title>Node1&#45;&gt;Node6</title>
<path fill="none" stroke="midnightblue" d="M120.216,-92.8789C128.746,-91.6859 137.395,-90.4762 145.675,-89.3182"/>
<polygon fill="midnightblue" stroke="midnightblue" points="119.706,-89.416 110.288,-94.2675 120.676,-96.3485 119.706,-89.416"/>
</g>
<!-- Node3 -->
<g id="node5" class="node"><title>Node3</title>
<a xlink:href="graphics__rebuild1_8cpp.html#ac2eae1e03fb72cc734ffbcef566483bf" target="_top" xlink:title="Boxes">
<polygon fill="white" stroke="black" points="782,-28 782,-52 826,-52 826,-28 782,-28"/>
<text text-anchor="middle" x="804" y="-39" font-family="Helvetica,sans-Serif" font-size="10.00">Boxes</text>
</a>
</g>
<!-- Node2&#45;&gt;Node3 -->
<g id="edge4" class="edge"><title>Node2&#45;&gt;Node3</title>
<path fill="none" stroke="midnightblue" d="M598.501,-94.5298C637.277,-87.3136 695.984,-75.3799 746,-61 758.042,-57.5378 771.192,-52.8539 781.921,-48.7881"/>
<polygon fill="midnightblue" stroke="midnightblue" points="597.806,-91.0988 588.604,-96.3497 599.072,-97.9834 597.806,-91.0988"/>
</g>
<!-- Node4 -->
<g id="node7" class="node"><title>Node4</title>
<a xlink:href="_m_a_i_n__avec__objets_8cpp.html#ade8d4ba65d55c94f8ee277829d722155" target="_top" xlink:title="main_actions_on_screen">
<polygon fill="white" stroke="black" points="862.5,-28 862.5,-52 987.5,-52 987.5,-28 862.5,-28"/>
<text text-anchor="middle" x="925" y="-39" font-family="Helvetica,sans-Serif" font-size="10.00">main_actions_on_screen</text>
</a>
</g>
<!-- Node3&#45;&gt;Node4 -->
<g id="edge6" class="edge"><title>Node3&#45;&gt;Node4</title>
<path fill="none" stroke="midnightblue" d="M836.244,-40C844.32,-40 853.263,-40 862.271,-40"/>
<polygon fill="midnightblue" stroke="midnightblue" points="836.193,-36.5001 826.193,-40 836.193,-43.5001 836.193,-36.5001"/>
</g>
<!-- Node5 -->
<g id="node9" class="node"><title>Node5</title>
<a xlink:href="_m_a_i_n__avec__objets_8cpp.html#ae66f6b31b5ad750f1fe042a706a4e3d4" target="_top" xlink:title="main">
<polygon fill="white" stroke="black" points="1024,-8 1024,-32 1062,-32 1062,-8 1024,-8"/>
<text text-anchor="middle" x="1043" y="-19" font-family="Helvetica,sans-Serif" font-size="10.00">main</text>
</a>
</g>
<!-- Node4&#45;&gt;Node5 -->
<g id="edge8" class="edge"><title>Node4&#45;&gt;Node5</title>
<path fill="none" stroke="midnightblue" d="M997.837,-27.6547C1007.34,-26.0448 1016.33,-24.5209 1023.75,-23.2629"/>
<polygon fill="midnightblue" stroke="midnightblue" points="997.075,-24.2339 987.8,-29.3559 998.245,-31.1355 997.075,-24.2339"/>
</g>
<!-- Node7 -->
<g id="node13" class="node"><title>Node7</title>
<a xlink:href="_m_a_i_n__avec__objets_8cpp.html#a6a015280c1363331ada8a329be6eb7c8" target="_top" xlink:title="ticker">
<polygon fill="white" stroke="black" points="300.5,-28 300.5,-52 341.5,-52 341.5,-28 300.5,-28"/>
<text text-anchor="middle" x="321" y="-39" font-family="Helvetica,sans-Serif" font-size="10.00">ticker</text>
</a>
</g>
<!-- Node6&#45;&gt;Node7 -->
<g id="edge12" class="edge"><title>Node6&#45;&gt;Node7</title>
<path fill="none" stroke="midnightblue" d="M242.96,-66.6478C262.62,-59.9348 284.715,-52.3899 300.364,-47.0465"/>
<polygon fill="midnightblue" stroke="midnightblue" points="241.579,-63.4208 233.247,-69.9645 243.841,-70.0452 241.579,-63.4208"/>
</g>
<!-- Node11 -->
<g id="node23" class="node"><title>Node11</title>
<a xlink:href="tracker__main14nov_8cpp.html#a343d540f006963227ee5b445888ca393" target="_top" xlink:title="ticker_move">
<polygon fill="white" stroke="black" points="286,-70 286,-94 356,-94 356,-70 286,-70"/>
<text text-anchor="middle" x="321" y="-81" font-family="Helvetica,sans-Serif" font-size="10.00">ticker_move</text>
</a>
</g>
<!-- Node6&#45;&gt;Node11 -->
<g id="edge24" class="edge"><title>Node6&#45;&gt;Node11</title>
<path fill="none" stroke="midnightblue" d="M260.402,-82C269.151,-82 277.875,-82 285.866,-82"/>
<polygon fill="midnightblue" stroke="midnightblue" points="260.163,-78.5001 250.163,-82 260.163,-85.5001 260.163,-78.5001"/>
</g>
<!-- Node7&#45;&gt;Node5 -->
<g id="edge22" class="edge"><title>Node7&#45;&gt;Node5</title>
<path fill="none" stroke="midnightblue" d="M351.452,-29.7395C363.901,-25.8747 378.52,-21.753 392,-19 463.892,-4.31755 482.624,-7.10543e-15 556,-0 556,-0 556,-0 804,-0 886.027,-7.10543e-15 983.34,-11.8436 1023.84,-17.3027"/>
<polygon fill="midnightblue" stroke="midnightblue" points="350.04,-26.516 341.577,-32.8899 352.168,-33.1848 350.04,-26.516"/>
</g>
<!-- Node8 -->
<g id="node15" class="node"><title>Node8</title>
<a xlink:href="_c_f_g__config__panel__8_8cpp.html#aff76db94408106be22f658a05f17831a" target="_top" xlink:title="do_core_config">
<polygon fill="white" stroke="black" points="392.5,-28 392.5,-52 475.5,-52 475.5,-28 392.5,-28"/>
<text text-anchor="middle" x="434" y="-39" font-family="Helvetica,sans-Serif" font-size="10.00">do_core_config</text>
</a>
</g>
<!-- Node7&#45;&gt;Node8 -->
<g id="edge14" class="edge"><title>Node7&#45;&gt;Node8</title>
<path fill="none" stroke="midnightblue" d="M352.04,-40C364.481,-40 379.004,-40 392.339,-40"/>
<polygon fill="midnightblue" stroke="midnightblue" points="351.726,-36.5001 341.726,-40 351.726,-43.5001 351.726,-36.5001"/>
</g>
<!-- Node9 -->
<g id="node17" class="node"><title>Node9</title>
<a xlink:href="_c_f_g__config__panel__8_8cpp.html#ad39c46e2fb3a3ba7ea0460140ead4f96" target="_top" xlink:title="do_panel_config">
<polygon fill="white" stroke="black" points="512.5,-28 512.5,-52 599.5,-52 599.5,-28 512.5,-28"/>
<text text-anchor="middle" x="556" y="-39" font-family="Helvetica,sans-Serif" font-size="10.00">do_panel_config</text>
</a>
</g>
<!-- Node8&#45;&gt;Node9 -->
<g id="edge16" class="edge"><title>Node8&#45;&gt;Node9</title>
<path fill="none" stroke="midnightblue" d="M485.875,-40C494.732,-40 503.851,-40 512.464,-40"/>
<polygon fill="midnightblue" stroke="midnightblue" points="485.644,-36.5001 475.644,-40 485.644,-43.5001 485.644,-36.5001"/>
</g>
<!-- Node10 -->
<g id="node19" class="node"><title>Node10</title>
<a xlink:href="_c_f_g__config__panel__8_8cpp.html#a7968da66bccdba8b864caf6c8435f68e" target="_top" xlink:title="config_general_menu">
<polygon fill="white" stroke="black" points="636.5,-28 636.5,-52 745.5,-52 745.5,-28 636.5,-28"/>
<text text-anchor="middle" x="691" y="-39" font-family="Helvetica,sans-Serif" font-size="10.00">config_general_menu</text>
</a>
</g>
<!-- Node9&#45;&gt;Node10 -->
<g id="edge18" class="edge"><title>Node9&#45;&gt;Node10</title>
<path fill="none" stroke="midnightblue" d="M610.072,-40C618.621,-40 627.471,-40 636.04,-40"/>
<polygon fill="midnightblue" stroke="midnightblue" points="609.831,-36.5001 599.831,-40 609.831,-43.5001 609.831,-36.5001"/>
</g>
<!-- Node10&#45;&gt;Node3 -->
<g id="edge20" class="edge"><title>Node10&#45;&gt;Node3</title>
<path fill="none" stroke="midnightblue" d="M755.747,-40C765.112,-40 774.168,-40 781.856,-40"/>
<polygon fill="midnightblue" stroke="midnightblue" points="755.514,-36.5001 745.514,-40 755.514,-43.5001 755.514,-36.5001"/>
</g>
<!-- Node12 -->
<g id="node25" class="node"><title>Node12</title>
<a xlink:href="tracker__main14nov_8cpp.html#ae66f6b31b5ad750f1fe042a706a4e3d4" target="_top" xlink:title="main">
<polygon fill="white" stroke="black" points="415,-70 415,-94 453,-94 453,-70 415,-70"/>
<text text-anchor="middle" x="434" y="-81" font-family="Helvetica,sans-Serif" font-size="10.00">main</text>
</a>
</g>
<!-- Node11&#45;&gt;Node12 -->
<g id="edge26" class="edge"><title>Node11&#45;&gt;Node12</title>
<path fill="none" stroke="midnightblue" d="M366.379,-82C383.208,-82 401.407,-82 414.681,-82"/>
<polygon fill="midnightblue" stroke="midnightblue" points="366.135,-78.5001 356.134,-82 366.134,-85.5001 366.135,-78.5001"/>
</g>
</g>
</svg>
