<?xml version="1.0" encoding="UTF-8" standalone="no"?>
<!DOCTYPE svg PUBLIC "-//W3C//DTD SVG 1.1//EN"
 "http://www.w3.org/Graphics/SVG/1.1/DTD/svg11.dtd">
<!-- Generated by graphviz version 2.26.3 (20100126.1600)
 -->
<!-- Title: SetAllParams Pages: 1 -->
<svg width="504pt" height="32pt"
 viewBox="0.00 0.00 504.00 32.00" xmlns="http://www.w3.org/2000/svg" xmlns:xlink="http://www.w3.org/1999/xlink">
<g id="graph1" class="graph" transform="scale(1 1) rotate(0) translate(4 28)">
<title>SetAllParams</title>
<polygon fill="white" stroke="white" points="-4,5 -4,-28 501,-28 501,5 -4,5"/>
<!-- Node1 -->
<g id="node1" class="node"><title>Node1</title>
<polygon fill="#bfbfbf" stroke="black" points="0.5,-0 0.5,-24 77.5,-24 77.5,-0 0.5,-0"/>
<text text-anchor="middle" x="39" y="-11" font-family="Helvetica,sans-Serif" font-size="10.00">SetAllParams</text>
</g>
<!-- Node2 -->
<g id="node3" class="node"><title>Node2</title>
<a xlink:href="mover__2013_8cpp.html#acc2bd882d4deb89b6251c3fedaf0d8b1" target="_top" xlink:title="mover_box">
<polygon fill="white" stroke="black" points="114.5,-0 114.5,-24 179.5,-24 179.5,-0 114.5,-0"/>
<text text-anchor="middle" x="147" y="-11" font-family="Helvetica,sans-Serif" font-size="10.00">mover_box</text>
</a>
</g>
<!-- Node1&#45;&gt;Node2 -->
<g id="edge2" class="edge"><title>Node1&#45;&gt;Node2</title>
<path fill="none" stroke="midnightblue" d="M87.7083,-12C96.708,-12 105.906,-12 114.288,-12"/>
<polygon fill="midnightblue" stroke="midnightblue" points="87.6855,-8.5001 77.6854,-12 87.6854,-15.5001 87.6855,-8.5001"/>
</g>
<!-- Node3 -->
<g id="node5" class="node"><title>Node3</title>
<a xlink:href="graphics__rebuild1_8cpp.html#ac2eae1e03fb72cc734ffbcef566483bf" target="_top" xlink:title="Boxes">
<polygon fill="white" stroke="black" points="216,-0 216,-24 260,-24 260,-0 216,-0"/>
<text text-anchor="middle" x="238" y="-11" font-family="Helvetica,sans-Serif" font-size="10.00">Boxes</text>
</a>
</g>
<!-- Node2&#45;&gt;Node3 -->
<g id="edge4" class="edge"><title>Node2&#45;&gt;Node3</title>
<path fill="none" stroke="midnightblue" d="M189.687,-12C198.749,-12 207.96,-12 215.875,-12"/>
<polygon fill="midnightblue" stroke="midnightblue" points="189.596,-8.5001 179.596,-12 189.596,-15.5001 189.596,-8.5001"/>
</g>
<!-- Node4 -->
<g id="node7" class="node"><title>Node4</title>
<a xlink:href="_m_a_i_n__avec__objets_8cpp.html#ade8d4ba65d55c94f8ee277829d722155" target="_top" xlink:title="main_actions_on_screen">
<polygon fill="white" stroke="black" points="296.5,-0 296.5,-24 421.5,-24 421.5,-0 296.5,-0"/>
<text text-anchor="middle" x="359" y="-11" font-family="Helvetica,sans-Serif" font-size="10.00">main_actions_on_screen</text>
</a>
</g>
<!-- Node3&#45;&gt;Node4 -->
<g id="edge6" class="edge"><title>Node3&#45;&gt;Node4</title>
<path fill="none" stroke="midnightblue" d="M270.244,-12C278.32,-12 287.263,-12 296.271,-12"/>
<polygon fill="midnightblue" stroke="midnightblue" points="270.193,-8.5001 260.193,-12 270.193,-15.5001 270.193,-8.5001"/>
</g>
<!-- Node5 -->
<g id="node9" class="node"><title>Node5</title>
<a xlink:href="_m_a_i_n__avec__objets_8cpp.html#ae66f6b31b5ad750f1fe042a706a4e3d4" target="_top" xlink:title="main">
<polygon fill="white" stroke="black" points="458,-0 458,-24 496,-24 496,-0 458,-0"/>
<text text-anchor="middle" x="477" y="-11" font-family="Helvetica,sans-Serif" font-size="10.00">main</text>
</a>
</g>
<!-- Node4&#45;&gt;Node5 -->
<g id="edge8" class="edge"><title>Node4&#45;&gt;Node5</title>
<path fill="none" stroke="midnightblue" d="M431.837,-12C441.336,-12 450.327,-12 457.749,-12"/>
<polygon fill="midnightblue" stroke="midnightblue" points="431.8,-8.5001 421.8,-12 431.8,-15.5001 431.8,-8.5001"/>
</g>
</g>
</svg>
