<?xml version="1.0" encoding="UTF-8" standalone="no"?>
<!DOCTYPE svg PUBLIC "-//W3C//DTD SVG 1.1//EN"
 "http://www.w3.org/Graphics/SVG/1.1/DTD/svg11.dtd">
<!-- Generated by graphviz version 2.26.3 (20100126.1600)
 -->
<!-- Title: ShowSpline Pages: 1 -->
<svg width="494pt" height="32pt"
 viewBox="0.00 0.00 494.00 32.00" xmlns="http://www.w3.org/2000/svg" xmlns:xlink="http://www.w3.org/1999/xlink">
<g id="graph1" class="graph" transform="scale(1 1) rotate(0) translate(4 28)">
<title>ShowSpline</title>
<polygon fill="white" stroke="white" points="-4,5 -4,-28 491,-28 491,5 -4,5"/>
<!-- Node1 -->
<g id="node1" class="node"><title>Node1</title>
<polygon fill="#bfbfbf" stroke="black" points="0,-0 0,-24 68,-24 68,-0 0,-0"/>
<text text-anchor="middle" x="34" y="-11" font-family="Helvetica,sans-Serif" font-size="10.00">ShowSpline</text>
</g>
<!-- Node2 -->
<g id="node3" class="node"><title>Node2</title>
<a xlink:href="mover__2013_8cpp.html#acc2bd882d4deb89b6251c3fedaf0d8b1" target="_top" xlink:title="mover_box">
<polygon fill="white" stroke="black" points="104.5,-0 104.5,-24 169.5,-24 169.5,-0 104.5,-0"/>
<text text-anchor="middle" x="137" y="-11" font-family="Helvetica,sans-Serif" font-size="10.00">mover_box</text>
</a>
</g>
<!-- Node1&#45;&gt;Node2 -->
<g id="edge2" class="edge"><title>Node1&#45;&gt;Node2</title>
<path fill="none" stroke="midnightblue" d="M78.1615,-12C86.9765,-12 96.0844,-12 104.423,-12"/>
<polygon fill="midnightblue" stroke="midnightblue" points="78.0115,-8.5001 68.0115,-12 78.0115,-15.5001 78.0115,-8.5001"/>
</g>
<!-- Node3 -->
<g id="node5" class="node"><title>Node3</title>
<a xlink:href="graphics__rebuild1_8cpp.html#ac2eae1e03fb72cc734ffbcef566483bf" target="_top" xlink:title="Boxes">
<polygon fill="white" stroke="black" points="206,-0 206,-24 250,-24 250,-0 206,-0"/>
<text text-anchor="middle" x="228" y="-11" font-family="Helvetica,sans-Serif" font-size="10.00">Boxes</text>
</a>
</g>
<!-- Node2&#45;&gt;Node3 -->
<g id="edge4" class="edge"><title>Node2&#45;&gt;Node3</title>
<path fill="none" stroke="midnightblue" d="M179.687,-12C188.749,-12 197.96,-12 205.875,-12"/>
<polygon fill="midnightblue" stroke="midnightblue" points="179.596,-8.5001 169.596,-12 179.596,-15.5001 179.596,-8.5001"/>
</g>
<!-- Node4 -->
<g id="node7" class="node"><title>Node4</title>
<a xlink:href="_m_a_i_n__avec__objets_8cpp.html#ade8d4ba65d55c94f8ee277829d722155" target="_top" xlink:title="main_actions_on_screen">
<polygon fill="white" stroke="black" points="286.5,-0 286.5,-24 411.5,-24 411.5,-0 286.5,-0"/>
<text text-anchor="middle" x="349" y="-11" font-family="Helvetica,sans-Serif" font-size="10.00">main_actions_on_screen</text>
</a>
</g>
<!-- Node3&#45;&gt;Node4 -->
<g id="edge6" class="edge"><title>Node3&#45;&gt;Node4</title>
<path fill="none" stroke="midnightblue" d="M260.244,-12C268.32,-12 277.263,-12 286.271,-12"/>
<polygon fill="midnightblue" stroke="midnightblue" points="260.193,-8.5001 250.193,-12 260.193,-15.5001 260.193,-8.5001"/>
</g>
<!-- Node5 -->
<g id="node9" class="node"><title>Node5</title>
<a xlink:href="_m_a_i_n__avec__objets_8cpp.html#ae66f6b31b5ad750f1fe042a706a4e3d4" target="_top" xlink:title="main">
<polygon fill="white" stroke="black" points="448,-0 448,-24 486,-24 486,-0 448,-0"/>
<text text-anchor="middle" x="467" y="-11" font-family="Helvetica,sans-Serif" font-size="10.00">main</text>
</a>
</g>
<!-- Node4&#45;&gt;Node5 -->
<g id="edge8" class="edge"><title>Node4&#45;&gt;Node5</title>
<path fill="none" stroke="midnightblue" d="M421.837,-12C431.336,-12 440.327,-12 447.749,-12"/>
<polygon fill="midnightblue" stroke="midnightblue" points="421.8,-8.5001 411.8,-12 421.8,-15.5001 421.8,-8.5001"/>
</g>
</g>
</svg>
