<?xml version="1.0" encoding="UTF-8" standalone="no"?>
<!DOCTYPE svg PUBLIC "-//W3C//DTD SVG 1.1//EN"
 "http://www.w3.org/Graphics/SVG/1.1/DTD/svg11.dtd">
<!-- Generated by graphviz version 2.26.3 (20100126.1600)
 -->
<!-- Title: get_control_points_backward Pages: 1 -->
<!--zoomable 210 -->
<svg id="main" version="1.1" xmlns="http://www.w3.org/2000/svg" xmlns:xlink="http://www.w3.org/1999/xlink" xml:space="preserve" onload="init(evt)">
<style type="text/css"><![CDATA[
.edge:hover path { stroke: red; }
.edge:hover polygon { stroke: red; fill: red; }
]]></style>
<script type="text/javascript"><![CDATA[
var edges = document.getElementsByTagName('g');
if (edges && edges.length) {
  for (var i=0;i<edges.length;i++) {
    if (edges[i].id.substr(0,4)=='edge') {
      edges[i].setAttribute('class','edge');
    }
  }
}
]]></script>
        <defs>
                <circle id="rim" cx="0" cy="0" r="7"/>
                <circle id="rim2" cx="0" cy="0" r="3.5"/>
                <g id="zoomPlus">
                        <use xlink:href="#rim" fill="#404040">
                                <set attributeName="fill" to="#808080" begin="zoomplus.mouseover" end="zoomplus.mouseout"/>
                        </use>
                        <path d="M-4,0h8M0,-4v8" fill="none" stroke="white" stroke-width="1.5" pointer-events="none"/>
                </g>
                <g id="zoomMin">
                        <use xlink:href="#rim" fill="#404040">
                                <set attributeName="fill" to="#808080" begin="zoomminus.mouseover" end="zoomminus.mouseout"/>
                        </use>
                        <path d="M-4,0h8" fill="none" stroke="white" stroke-width="1.5" pointer-events="none"/>
                </g>
                <g id="dirArrow">
                        <path fill="none" stroke="white" stroke-width="1.5" d="M0,-3.0v7 M-2.5,-0.5L0,-3.0L2.5,-0.5"/>
                </g>
               <g id="resetDef">
                       <use xlink:href="#rim2" fill="#404040">
                               <set attributeName="fill" to="#808080" begin="reset.mouseover" end="reset.mouseout"/>
                       </use>
               </g>
        </defs>

<script type="text/javascript">
var viewWidth = 1354;
var viewHeight = 210;
var sectionId = 'dynsection-11';
</script>
<script xlink:href="svgpan.js"/>
<svg id="graph" class="graph">
<g id="viewport">
<title>get_control_points_backward</title>
<polygon fill="white" stroke="white" points="-4,5 -4,-206 1351,-206 1351,5 -4,5"/>
<!-- Node1 -->
<g id="node1" class="node"><title>Node1</title>
<polygon fill="#bfbfbf" stroke="black" points="0,-126 0,-166 96,-166 96,-126 0,-126"/>
<text text-anchor="start" x="8" y="-153" font-family="Helvetica,sans-Serif" font-size="10.00">get_control_points</text>
<text text-anchor="middle" x="48" y="-137" font-family="Helvetica,sans-Serif" font-size="10.00">_backward</text>
</g>
<!-- Node2 -->
<g id="node3" class="node"><title>Node2</title>
<a xlink:href="mover__spline6_8cpp.html#a090797adb1f79d0d55f8967194130c47" target="_top" xlink:title="Prepare_Cross_Spline">
<polygon fill="white" stroke="black" points="132,-134 132,-158 246,-158 246,-134 132,-134"/>
<text text-anchor="middle" x="189" y="-145" font-family="Helvetica,sans-Serif" font-size="10.00">Prepare_Cross_Spline</text>
</a>
</g>
<!-- Node1&#45;&gt;Node2 -->
<g id="edge2" class="edge"><title>Node1&#45;&gt;Node2</title>
<path fill="none" stroke="midnightblue" d="M106.28,-146C114.727,-146 123.416,-146 131.84,-146"/>
<polygon fill="midnightblue" stroke="midnightblue" points="106.13,-142.5 96.1298,-146 106.13,-149.5 106.13,-142.5"/>
</g>
<!-- Node3 -->
<g id="node5" class="node"><title>Node3</title>
<a xlink:href="_m_a_i_n__avec__objets_8cpp.html#ae66f6b31b5ad750f1fe042a706a4e3d4" target="_top" xlink:title="main">
<polygon fill="white" stroke="black" points="1308,-90 1308,-114 1346,-114 1346,-90 1308,-90"/>
<text text-anchor="middle" x="1327" y="-101" font-family="Helvetica,sans-Serif" font-size="10.00">main</text>
</a>
</g>
<!-- Node2&#45;&gt;Node3 -->
<g id="edge4" class="edge"><title>Node2&#45;&gt;Node3</title>
<path fill="none" stroke="midnightblue" d="M236.853,-160.909C294.428,-177.499 394.304,-202 482,-202 482,-202 482,-202 1088,-202 1178.18,-202 1273.71,-140.659 1310.89,-114.062"/>
<polygon fill="midnightblue" stroke="midnightblue" points="237.533,-157.461 226.952,-158.013 235.568,-164.18 237.533,-157.461"/>
</g>
<!-- Node4 -->
<g id="node7" class="node"><title>Node4</title>
<a xlink:href="mover__2013_8cpp.html#a4cd6cdd120b9feb87202ddb062daecbb" target="_top" xlink:title="prepare_move_values">
<polygon fill="white" stroke="black" points="282,-54 282,-78 394,-78 394,-54 282,-54"/>
<text text-anchor="middle" x="338" y="-65" font-family="Helvetica,sans-Serif" font-size="10.00">prepare_move_values</text>
</a>
</g>
<!-- Node2&#45;&gt;Node4 -->
<g id="edge6" class="edge"><title>Node2&#45;&gt;Node4</title>
<path fill="none" stroke="midnightblue" d="M220.779,-128.938C249.305,-113.621 290.454,-91.5282 315.645,-78.0025"/>
<polygon fill="midnightblue" stroke="midnightblue" points="218.785,-126.036 211.63,-133.85 222.096,-132.203 218.785,-126.036"/>
</g>
<!-- Node4&#45;&gt;Node3 -->
<g id="edge8" class="edge"><title>Node4&#45;&gt;Node3</title>
<path fill="none" stroke="midnightblue" d="M376.408,-50.2713C427.633,-30.7496 521.564,-0 605,-0 605,-0 605,-0 1088,-0 1174.15,-7.10543e-15 1195.6,-21.1887 1272,-61 1287.21,-68.9249 1302.71,-80.907 1313.36,-89.8744"/>
<polygon fill="midnightblue" stroke="midnightblue" points="375.112,-47.0199 367.051,-53.8946 377.64,-53.5477 375.112,-47.0199"/>
</g>
<!-- Node5 -->
<g id="node10" class="node"><title>Node5</title>
<a xlink:href="mover__2013_8cpp.html#acc2bd882d4deb89b6251c3fedaf0d8b1" target="_top" xlink:title="mover_box">
<polygon fill="white" stroke="black" points="807.5,-28 807.5,-52 872.5,-52 872.5,-28 807.5,-28"/>
<text text-anchor="middle" x="840" y="-39" font-family="Helvetica,sans-Serif" font-size="10.00">mover_box</text>
</a>
</g>
<!-- Node4&#45;&gt;Node5 -->
<g id="edge10" class="edge"><title>Node4&#45;&gt;Node5</title>
<path fill="none" stroke="midnightblue" d="M404.335,-62.5643C513.274,-56.9221 726.092,-45.8996 807.376,-41.6897"/>
<polygon fill="midnightblue" stroke="midnightblue" points="403.93,-59.0805 394.125,-63.0932 404.292,-66.0711 403.93,-59.0805"/>
</g>
<!-- Node8 -->
<g id="node17" class="node"><title>Node8</title>
<a xlink:href="mover__2013_8cpp.html#af1627b55add388ce92ebb0130bc45ede" target="_top" xlink:title="Move_do_crossfade">
<polygon fill="white" stroke="black" points="430,-80 430,-104 534,-104 534,-80 430,-80"/>
<text text-anchor="middle" x="482" y="-91" font-family="Helvetica,sans-Serif" font-size="10.00">Move_do_crossfade</text>
</a>
</g>
<!-- Node4&#45;&gt;Node8 -->
<g id="edge18" class="edge"><title>Node4&#45;&gt;Node8</title>
<path fill="none" stroke="midnightblue" d="M404.058,-77.9272C412.622,-79.4734 421.299,-81.04 429.599,-82.5387"/>
<polygon fill="midnightblue" stroke="midnightblue" points="404.549,-74.4593 394.086,-76.1267 403.305,-81.3479 404.549,-74.4593"/>
</g>
<!-- Node6 -->
<g id="node12" class="node"><title>Node6</title>
<a xlink:href="graphics__rebuild1_8cpp.html#ac2eae1e03fb72cc734ffbcef566483bf" target="_top" xlink:title="Boxes">
<polygon fill="white" stroke="black" points="1066,-70 1066,-94 1110,-94 1110,-70 1066,-70"/>
<text text-anchor="middle" x="1088" y="-81" font-family="Helvetica,sans-Serif" font-size="10.00">Boxes</text>
</a>
</g>
<!-- Node5&#45;&gt;Node6 -->
<g id="edge12" class="edge"><title>Node5&#45;&gt;Node6</title>
<path fill="none" stroke="midnightblue" d="M883.078,-41.8457C921.911,-44.1959 980.365,-49.4445 1030,-61 1042.1,-63.8167 1055.14,-68.3926 1065.79,-72.555"/>
<polygon fill="midnightblue" stroke="midnightblue" points="882.85,-38.3274 872.669,-41.2569 882.455,-45.3162 882.85,-38.3274"/>
</g>
<!-- Node7 -->
<g id="node14" class="node"><title>Node7</title>
<a xlink:href="_m_a_i_n__avec__objets_8cpp.html#ade8d4ba65d55c94f8ee277829d722155" target="_top" xlink:title="main_actions_on_screen">
<polygon fill="white" stroke="black" points="1146.5,-70 1146.5,-94 1271.5,-94 1271.5,-70 1146.5,-70"/>
<text text-anchor="middle" x="1209" y="-81" font-family="Helvetica,sans-Serif" font-size="10.00">main_actions_on_screen</text>
</a>
</g>
<!-- Node6&#45;&gt;Node7 -->
<g id="edge14" class="edge"><title>Node6&#45;&gt;Node7</title>
<path fill="none" stroke="midnightblue" d="M1120.24,-82C1128.32,-82 1137.26,-82 1146.27,-82"/>
<polygon fill="midnightblue" stroke="midnightblue" points="1120.19,-78.5001 1110.19,-82 1120.19,-85.5001 1120.19,-78.5001"/>
</g>
<!-- Node7&#45;&gt;Node3 -->
<g id="edge16" class="edge"><title>Node7&#45;&gt;Node3</title>
<path fill="none" stroke="midnightblue" d="M1281.84,-94.3453C1291.34,-95.9552 1300.33,-97.4791 1307.75,-98.7371"/>
<polygon fill="midnightblue" stroke="midnightblue" points="1282.24,-90.8645 1271.8,-92.6441 1281.07,-97.7661 1282.24,-90.8645"/>
</g>
<!-- Node9 -->
<g id="node19" class="node"><title>Node9</title>
<a xlink:href="_m_a_i_n__avec__objets_8cpp.html#a6a015280c1363331ada8a329be6eb7c8" target="_top" xlink:title="ticker">
<polygon fill="white" stroke="black" points="584.5,-80 584.5,-104 625.5,-104 625.5,-80 584.5,-80"/>
<text text-anchor="middle" x="605" y="-91" font-family="Helvetica,sans-Serif" font-size="10.00">ticker</text>
</a>
</g>
<!-- Node8&#45;&gt;Node9 -->
<g id="edge20" class="edge"><title>Node8&#45;&gt;Node9</title>
<path fill="none" stroke="midnightblue" d="M544.179,-92C558.691,-92 573.154,-92 584.332,-92"/>
<polygon fill="midnightblue" stroke="midnightblue" points="544.163,-88.5001 534.163,-92 544.163,-95.5001 544.163,-88.5001"/>
</g>
<!-- Node13 -->
<g id="node29" class="node"><title>Node13</title>
<a xlink:href="tracker__main14nov_8cpp.html#a343d540f006963227ee5b445888ca393" target="_top" xlink:title="ticker_move">
<polygon fill="white" stroke="black" points="570,-141 570,-165 640,-165 640,-141 570,-141"/>
<text text-anchor="middle" x="605" y="-152" font-family="Helvetica,sans-Serif" font-size="10.00">ticker_move</text>
</a>
</g>
<!-- Node8&#45;&gt;Node13 -->
<g id="edge32" class="edge"><title>Node8&#45;&gt;Node13</title>
<path fill="none" stroke="midnightblue" d="M515.364,-108.546C536.016,-118.788 562.063,-131.706 580.75,-140.973"/>
<polygon fill="midnightblue" stroke="midnightblue" points="516.815,-105.359 506.301,-104.052 513.705,-111.63 516.815,-105.359"/>
</g>
<!-- Node9&#45;&gt;Node3 -->
<g id="edge30" class="edge"><title>Node9&#45;&gt;Node3</title>
<path fill="none" stroke="midnightblue" d="M635.559,-98.4208C680.243,-107.234 766.13,-122 840,-122 840,-122 840,-122 1088,-122 1170.03,-122 1267.34,-110.156 1307.84,-104.697"/>
<polygon fill="midnightblue" stroke="midnightblue" points="636.128,-94.9652 625.635,-96.4266 634.749,-101.828 636.128,-94.9652"/>
</g>
<!-- Node10 -->
<g id="node21" class="node"><title>Node10</title>
<a xlink:href="_c_f_g__config__panel__8_8cpp.html#aff76db94408106be22f658a05f17831a" target="_top" xlink:title="do_core_config">
<polygon fill="white" stroke="black" points="676.5,-70 676.5,-94 759.5,-94 759.5,-70 676.5,-70"/>
<text text-anchor="middle" x="718" y="-81" font-family="Helvetica,sans-Serif" font-size="10.00">do_core_config</text>
</a>
</g>
<!-- Node9&#45;&gt;Node10 -->
<g id="edge22" class="edge"><title>Node9&#45;&gt;Node10</title>
<path fill="none" stroke="midnightblue" d="M636.04,-89.2531C648.481,-88.1521 663.004,-86.8669 676.339,-85.6868"/>
<polygon fill="midnightblue" stroke="midnightblue" points="635.378,-85.7979 625.726,-90.1658 635.996,-92.7706 635.378,-85.7979"/>
</g>
<!-- Node11 -->
<g id="node23" class="node"><title>Node11</title>
<a xlink:href="_c_f_g__config__panel__8_8cpp.html#ad39c46e2fb3a3ba7ea0460140ead4f96" target="_top" xlink:title="do_panel_config">
<polygon fill="white" stroke="black" points="796.5,-70 796.5,-94 883.5,-94 883.5,-70 796.5,-70"/>
<text text-anchor="middle" x="840" y="-81" font-family="Helvetica,sans-Serif" font-size="10.00">do_panel_config</text>
</a>
</g>
<!-- Node10&#45;&gt;Node11 -->
<g id="edge24" class="edge"><title>Node10&#45;&gt;Node11</title>
<path fill="none" stroke="midnightblue" d="M769.875,-82C778.732,-82 787.851,-82 796.464,-82"/>
<polygon fill="midnightblue" stroke="midnightblue" points="769.644,-78.5001 759.644,-82 769.644,-85.5001 769.644,-78.5001"/>
</g>
<!-- Node12 -->
<g id="node25" class="node"><title>Node12</title>
<a xlink:href="_c_f_g__config__panel__8_8cpp.html#a7968da66bccdba8b864caf6c8435f68e" target="_top" xlink:title="config_general_menu">
<polygon fill="white" stroke="black" points="920.5,-70 920.5,-94 1029.5,-94 1029.5,-70 920.5,-70"/>
<text text-anchor="middle" x="975" y="-81" font-family="Helvetica,sans-Serif" font-size="10.00">config_general_menu</text>
</a>
</g>
<!-- Node11&#45;&gt;Node12 -->
<g id="edge26" class="edge"><title>Node11&#45;&gt;Node12</title>
<path fill="none" stroke="midnightblue" d="M894.072,-82C902.621,-82 911.471,-82 920.04,-82"/>
<polygon fill="midnightblue" stroke="midnightblue" points="893.831,-78.5001 883.831,-82 893.831,-85.5001 893.831,-78.5001"/>
</g>
<!-- Node12&#45;&gt;Node6 -->
<g id="edge28" class="edge"><title>Node12&#45;&gt;Node6</title>
<path fill="none" stroke="midnightblue" d="M1039.75,-82C1049.11,-82 1058.17,-82 1065.86,-82"/>
<polygon fill="midnightblue" stroke="midnightblue" points="1039.51,-78.5001 1029.51,-82 1039.51,-85.5001 1039.51,-78.5001"/>
</g>
<!-- Node14 -->
<g id="node31" class="node"><title>Node14</title>
<a xlink:href="tracker__main14nov_8cpp.html#ae66f6b31b5ad750f1fe042a706a4e3d4" target="_top" xlink:title="main">
<polygon fill="white" stroke="black" points="699,-150 699,-174 737,-174 737,-150 699,-150"/>
<text text-anchor="middle" x="718" y="-161" font-family="Helvetica,sans-Serif" font-size="10.00">main</text>
</a>
</g>
<!-- Node13&#45;&gt;Node14 -->
<g id="edge34" class="edge"><title>Node13&#45;&gt;Node14</title>
<path fill="none" stroke="midnightblue" d="M650.379,-156.614C667.208,-157.955 685.407,-159.404 698.681,-160.461"/>
<polygon fill="midnightblue" stroke="midnightblue" points="650.381,-153.103 640.134,-155.798 649.825,-160.081 650.381,-153.103"/>
</g>
</g>
</svg>
        <g id="navigator" transform="translate(0 0)" fill="#404254">
                <rect fill="#f2f5e9" fill-opacity="0.5" stroke="#606060" stroke-width=".5" x="0" y="0" width="60" height="60"/>
                <use id="zoomplus" xlink:href="#zoomPlus" x="17" y="9" onmousedown="handleZoom(evt,'in')"/>
                <use id="zoomminus" xlink:href="#zoomMin" x="42" y="9" onmousedown="handleZoom(evt,'out')"/>
                <use id="reset" xlink:href="#resetDef" x="30" y="36" onmousedown="handleReset()"/>
                <g id="arrowUp" xlink:href="#dirArrow" transform="translate(30 24)" onmousedown="handlePan(0,-1)">
                  <use xlink:href="#rim" fill="#404040">
                        <set attributeName="fill" to="#808080" begin="arrowUp.mouseover" end="arrowUp.mouseout"/>
                  </use>
                  <path fill="none" stroke="white" stroke-width="1.5" d="M0,-3.0v7 M-2.5,-0.5L0,-3.0L2.5,-0.5"/>
                </g>
                <g id="arrowRight" xlink:href="#dirArrow" transform="rotate(90) translate(36 -43)" onmousedown="handlePan(1,0)">
                  <use xlink:href="#rim" fill="#404040">
                        <set attributeName="fill" to="#808080" begin="arrowRight.mouseover" end="arrowRight.mouseout"/>
                  </use>
                  <path fill="none" stroke="white" stroke-width="1.5" d="M0,-3.0v7 M-2.5,-0.5L0,-3.0L2.5,-0.5"/>
                </g>
                <g id="arrowDown" xlink:href="#dirArrow" transform="rotate(180) translate(-30 -48)" onmousedown="handlePan(0,1)">
                  <use xlink:href="#rim" fill="#404040">
                        <set attributeName="fill" to="#808080" begin="arrowDown.mouseover" end="arrowDown.mouseout"/>
                  </use>
                  <path fill="none" stroke="white" stroke-width="1.5" d="M0,-3.0v7 M-2.5,-0.5L0,-3.0L2.5,-0.5"/>
                </g>
                <g id="arrowLeft" xlink:href="#dirArrow" transform="rotate(270) translate(-36 17)" onmousedown="handlePan(-1,0)">
                  <use xlink:href="#rim" fill="#404040">
                        <set attributeName="fill" to="#808080" begin="arrowLeft.mouseover" end="arrowLeft.mouseout"/>
                  </use>
                  <path fill="none" stroke="white" stroke-width="1.5" d="M0,-3.0v7 M-2.5,-0.5L0,-3.0L2.5,-0.5"/>
                </g>
        </g>
        <svg viewBox="0 0 15 15" width="100%" height="30px" preserveAspectRatio="xMaxYMin meet">
         <g id="arrow_out" transform="scale(0.3 0.3)">
          <a xlink:href="mover__spline6_8cpp_a41772bd93cf820f16672603cc49e4a13_icgraph_org.svg" target="_base">
           <rect id="button" ry="5" rx="5" y="6" x="6" height="38" width="38"
                fill="#f2f5e9" fill-opacity="0.5" stroke="#606060" stroke-width="1.0"/>
           <path id="arrow"
             d="M 11.500037,31.436501 C 11.940474,20.09759 22.043105,11.32322 32.158766,21.979434 L 37.068811,17.246167 C 37.068811,17.246167 37.088388,32 37.088388,32 L 22.160133,31.978069 C 22.160133,31.978069 26.997745,27.140456 26.997745,27.140456 C 18.528582,18.264221 13.291696,25.230495 11.500037,31.436501 z"
             style="fill:#404040;"/>
          </a>
         </g>
        </svg>
</svg>
