<?xml version="1.0" encoding="UTF-8" standalone="no"?>
<!DOCTYPE svg PUBLIC "-//W3C//DTD SVG 1.1//EN"
 "http://www.w3.org/Graphics/SVG/1.1/DTD/svg11.dtd">
<!-- Generated by graphviz version 2.26.3 (20100126.1600)
 -->
<!-- Title: prepare_move_values Pages: 1 -->
<svg width="498pt" height="107pt"
 viewBox="0.00 0.00 498.00 107.00" xmlns="http://www.w3.org/2000/svg" xmlns:xlink="http://www.w3.org/1999/xlink">
<g id="graph1" class="graph" transform="scale(1 1) rotate(0) translate(4 103)">
<title>prepare_move_values</title>
<polygon fill="white" stroke="white" points="-4,5 -4,-103 495,-103 495,5 -4,5"/>
<!-- Node1 -->
<g id="node1" class="node"><title>Node1</title>
<polygon fill="#bfbfbf" stroke="black" points="0,-54 0,-78 112,-78 112,-54 0,-54"/>
<text text-anchor="middle" x="56" y="-65" font-family="Helvetica,sans-Serif" font-size="10.00">prepare_move_values</text>
</g>
<!-- Node2 -->
<g id="node3" class="node"><title>Node2</title>
<a xlink:href="mover__2013_8cpp.html#a5fbe4af69b774a1738d80f6879d958e9" target="_top" xlink:title="convert_bytes_to_int">
<polygon fill="white" stroke="black" points="151.5,-75 151.5,-99 258.5,-99 258.5,-75 151.5,-75"/>
<text text-anchor="middle" x="205" y="-86" font-family="Helvetica,sans-Serif" font-size="10.00">convert_bytes_to_int</text>
</a>
</g>
<!-- Node1&#45;&gt;Node2 -->
<g id="edge2" class="edge"><title>Node1&#45;&gt;Node2</title>
<path fill="none" stroke="midnightblue" d="M112.331,-73.9392C121.651,-75.2528 131.375,-76.6233 140.87,-77.9615"/>
<polygon fill="midnightblue" stroke="midnightblue" points="140.662,-81.4668 151.053,-79.3967 141.639,-74.5353 140.662,-81.4668"/>
</g>
<!-- Node3 -->
<g id="node5" class="node"><title>Node3</title>
<a xlink:href="mover__spline6_8cpp.html#a090797adb1f79d0d55f8967194130c47" target="_top" xlink:title="Prepare_Cross_Spline">
<polygon fill="white" stroke="black" points="148,-33 148,-57 262,-57 262,-33 148,-33"/>
<text text-anchor="middle" x="205" y="-44" font-family="Helvetica,sans-Serif" font-size="10.00">Prepare_Cross_Spline</text>
</a>
</g>
<!-- Node1&#45;&gt;Node3 -->
<g id="edge4" class="edge"><title>Node1&#45;&gt;Node3</title>
<path fill="none" stroke="midnightblue" d="M112.331,-58.0608C120.533,-56.9048 129.048,-55.7046 137.445,-54.5212"/>
<polygon fill="midnightblue" stroke="midnightblue" points="138.186,-57.9515 147.599,-53.09 137.209,-51.02 138.186,-57.9515"/>
</g>
<!-- Node4 -->
<g id="node7" class="node"><title>Node4</title>
<a xlink:href="mover__spline6_8cpp.html#a71a41e8d002948913c4ae79560729c48" target="_top" xlink:title="get_control_points">
<polygon fill="white" stroke="black" points="298,-58 298,-82 394,-82 394,-58 298,-58"/>
<text text-anchor="middle" x="346" y="-69" font-family="Helvetica,sans-Serif" font-size="10.00">get_control_points</text>
</a>
</g>
<!-- Node3&#45;&gt;Node4 -->
<g id="edge6" class="edge"><title>Node3&#45;&gt;Node4</title>
<path fill="none" stroke="midnightblue" d="M262.35,-55.1685C270.698,-56.6485 279.3,-58.1738 287.667,-59.6572"/>
<polygon fill="midnightblue" stroke="midnightblue" points="287.265,-63.1405 297.722,-61.4401 288.487,-56.248 287.265,-63.1405"/>
</g>
<!-- Node6 -->
<g id="node11" class="node"><title>Node6</title>
<a xlink:href="mover__spline6_8cpp.html#a41772bd93cf820f16672603cc49e4a13" target="_top" xlink:title="get_control_points\l_backward">
<polygon fill="white" stroke="black" points="298,-0 298,-40 394,-40 394,-0 298,-0"/>
<text text-anchor="start" x="306" y="-27" font-family="Helvetica,sans-Serif" font-size="10.00">get_control_points</text>
<text text-anchor="middle" x="346" y="-11" font-family="Helvetica,sans-Serif" font-size="10.00">_backward</text>
</a>
</g>
<!-- Node3&#45;&gt;Node6 -->
<g id="edge10" class="edge"><title>Node3&#45;&gt;Node6</title>
<path fill="none" stroke="midnightblue" d="M262.35,-34.8315C270.698,-33.3515 279.3,-31.8262 287.667,-30.3428"/>
<polygon fill="midnightblue" stroke="midnightblue" points="288.487,-33.752 297.722,-28.5599 287.265,-26.8595 288.487,-33.752"/>
</g>
<!-- Node5 -->
<g id="node9" class="node"><title>Node5</title>
<a xlink:href="mover__spline6_8cpp.html#a98185a4f31c71ab881cacc66ef0d87e1" target="_top" xlink:title="node_dist">
<polygon fill="white" stroke="black" points="430.5,-33 430.5,-57 489.5,-57 489.5,-33 430.5,-33"/>
<text text-anchor="middle" x="460" y="-44" font-family="Helvetica,sans-Serif" font-size="10.00">node_dist</text>
</a>
</g>
<!-- Node4&#45;&gt;Node5 -->
<g id="edge8" class="edge"><title>Node4&#45;&gt;Node5</title>
<path fill="none" stroke="midnightblue" d="M394.016,-59.4702C402.755,-57.5538 411.782,-55.5741 420.249,-53.7173"/>
<polygon fill="midnightblue" stroke="midnightblue" points="421.224,-57.0868 430.242,-51.5259 419.724,-50.2493 421.224,-57.0868"/>
</g>
<!-- Node6&#45;&gt;Node5 -->
<g id="edge12" class="edge"><title>Node6&#45;&gt;Node5</title>
<path fill="none" stroke="midnightblue" d="M394.016,-30.5298C402.755,-32.4462 411.782,-34.4259 420.249,-36.2827"/>
<polygon fill="midnightblue" stroke="midnightblue" points="419.724,-39.7507 430.242,-38.4741 421.224,-32.9132 419.724,-39.7507"/>
</g>
</g>
</svg>
