<?xml version="1.0" encoding="UTF-8" standalone="no"?>
<!DOCTYPE svg PUBLIC "-//W3C//DTD SVG 1.1//EN"
 "http://www.w3.org/Graphics/SVG/1.1/DTD/svg11.dtd">
<!-- Generated by graphviz version 2.26.3 (20100126.1600)
 -->
<!-- Title: convert_bytes_to_int Pages: 1 -->
<svg width="1216pt" height="168pt"
 viewBox="0.00 0.00 1216.00 168.00" xmlns="http://www.w3.org/2000/svg" xmlns:xlink="http://www.w3.org/1999/xlink">
<g id="graph1" class="graph" transform="scale(1 1) rotate(0) translate(4 164)">
<title>convert_bytes_to_int</title>
<polygon fill="white" stroke="white" points="-4,5 -4,-164 1213,-164 1213,5 -4,5"/>
<!-- Node1 -->
<g id="node1" class="node"><title>Node1</title>
<polygon fill="#bfbfbf" stroke="black" points="0.5,-66 0.5,-90 107.5,-90 107.5,-66 0.5,-66"/>
<text text-anchor="middle" x="54" y="-77" font-family="Helvetica,sans-Serif" font-size="10.00">convert_bytes_to_int</text>
</g>
<!-- Node2 -->
<g id="node3" class="node"><title>Node2</title>
<a xlink:href="mover__2013_8cpp.html#a4cd6cdd120b9feb87202ddb062daecbb" target="_top" xlink:title="prepare_move_values">
<polygon fill="white" stroke="black" points="144,-86 144,-110 256,-110 256,-86 144,-86"/>
<text text-anchor="middle" x="200" y="-97" font-family="Helvetica,sans-Serif" font-size="10.00">prepare_move_values</text>
</a>
</g>
<!-- Node1&#45;&gt;Node2 -->
<g id="edge2" class="edge"><title>Node1&#45;&gt;Node2</title>
<path fill="none" stroke="midnightblue" d="M117.566,-86.7076C126.205,-87.8911 135.024,-89.0991 143.526,-90.2639"/>
<polygon fill="midnightblue" stroke="midnightblue" points="117.919,-83.2234 107.536,-85.3337 116.968,-90.1586 117.919,-83.2234"/>
</g>
<!-- Node4 -->
<g id="node7" class="node"><title>Node4</title>
<a xlink:href="mover__2013_8cpp.html#acc2bd882d4deb89b6251c3fedaf0d8b1" target="_top" xlink:title="mover_box">
<polygon fill="white" stroke="black" points="311.5,-45 311.5,-69 376.5,-69 376.5,-45 311.5,-45"/>
<text text-anchor="middle" x="344" y="-56" font-family="Helvetica,sans-Serif" font-size="10.00">mover_box</text>
</a>
</g>
<!-- Node1&#45;&gt;Node4 -->
<g id="edge32" class="edge"><title>Node1&#45;&gt;Node4</title>
<path fill="none" stroke="midnightblue" d="M117.63,-73.3923C177.491,-69.0575 264.714,-62.7414 311.487,-59.3544"/>
<polygon fill="midnightblue" stroke="midnightblue" points="117.249,-69.9106 107.528,-74.1238 117.755,-76.8923 117.249,-69.9106"/>
</g>
<!-- Node3 -->
<g id="node5" class="node"><title>Node3</title>
<a xlink:href="_m_a_i_n__avec__objets_8cpp.html#ae66f6b31b5ad750f1fe042a706a4e3d4" target="_top" xlink:title="main">
<polygon fill="white" stroke="black" points="1170,-68 1170,-92 1208,-92 1208,-68 1170,-68"/>
<text text-anchor="middle" x="1189" y="-79" font-family="Helvetica,sans-Serif" font-size="10.00">main</text>
</a>
</g>
<!-- Node2&#45;&gt;Node3 -->
<g id="edge4" class="edge"><title>Node2&#45;&gt;Node3</title>
<path fill="none" stroke="midnightblue" d="M240.586,-113.521C292.339,-131.885 384.964,-160 467,-160 467,-160 467,-160 950,-160 1035.76,-160 1130.3,-113.105 1169.9,-91.1237"/>
<polygon fill="midnightblue" stroke="midnightblue" points="241.698,-110.201 231.103,-110.101 239.323,-116.786 241.698,-110.201"/>
</g>
<!-- Node2&#45;&gt;Node4 -->
<g id="edge6" class="edge"><title>Node2&#45;&gt;Node4</title>
<path fill="none" stroke="midnightblue" d="M252.243,-83.1251C272.041,-77.4882 294,-71.2362 311.47,-66.2619"/>
<polygon fill="midnightblue" stroke="midnightblue" points="251.085,-79.8157 242.426,-85.9204 253.002,-86.5482 251.085,-79.8157"/>
</g>
<!-- Node7 -->
<g id="node14" class="node"><title>Node7</title>
<a xlink:href="mover__2013_8cpp.html#af1627b55add388ce92ebb0130bc45ede" target="_top" xlink:title="Move_do_crossfade">
<polygon fill="white" stroke="black" points="292,-87 292,-111 396,-111 396,-87 292,-87"/>
<text text-anchor="middle" x="344" y="-98" font-family="Helvetica,sans-Serif" font-size="10.00">Move_do_crossfade</text>
</a>
</g>
<!-- Node2&#45;&gt;Node7 -->
<g id="edge14" class="edge"><title>Node2&#45;&gt;Node7</title>
<path fill="none" stroke="midnightblue" d="M266.338,-98.4607C274.811,-98.5195 283.389,-98.5791 291.599,-98.6361"/>
<polygon fill="midnightblue" stroke="midnightblue" points="266.111,-94.9591 256.086,-98.3895 266.062,-101.959 266.111,-94.9591"/>
</g>
<!-- Node5 -->
<g id="node9" class="node"><title>Node5</title>
<a xlink:href="graphics__rebuild1_8cpp.html#ac2eae1e03fb72cc734ffbcef566483bf" target="_top" xlink:title="Boxes">
<polygon fill="white" stroke="black" points="928,-28 928,-52 972,-52 972,-28 928,-28"/>
<text text-anchor="middle" x="950" y="-39" font-family="Helvetica,sans-Serif" font-size="10.00">Boxes</text>
</a>
</g>
<!-- Node4&#45;&gt;Node5 -->
<g id="edge8" class="edge"><title>Node4&#45;&gt;Node5</title>
<path fill="none" stroke="midnightblue" d="M383.638,-41.3326C429.968,-24.4589 509.316,-7.10543e-15 580,-0 580,-0 580,-0 702,-0 786.866,-7.10543e-15 809.246,-0.187792 892,-19 904.114,-21.7537 917.158,-26.3237 927.802,-30.4985"/>
<polygon fill="midnightblue" stroke="midnightblue" points="382.147,-38.1523 373.989,-44.9118 384.582,-44.7153 382.147,-38.1523"/>
</g>
<!-- Node6 -->
<g id="node11" class="node"><title>Node6</title>
<a xlink:href="_m_a_i_n__avec__objets_8cpp.html#ade8d4ba65d55c94f8ee277829d722155" target="_top" xlink:title="main_actions_on_screen">
<polygon fill="white" stroke="black" points="1008.5,-28 1008.5,-52 1133.5,-52 1133.5,-28 1008.5,-28"/>
<text text-anchor="middle" x="1071" y="-39" font-family="Helvetica,sans-Serif" font-size="10.00">main_actions_on_screen</text>
</a>
</g>
<!-- Node5&#45;&gt;Node6 -->
<g id="edge10" class="edge"><title>Node5&#45;&gt;Node6</title>
<path fill="none" stroke="midnightblue" d="M982.244,-40C990.32,-40 999.263,-40 1008.27,-40"/>
<polygon fill="midnightblue" stroke="midnightblue" points="982.193,-36.5001 972.193,-40 982.193,-43.5001 982.193,-36.5001"/>
</g>
<!-- Node6&#45;&gt;Node3 -->
<g id="edge12" class="edge"><title>Node6&#45;&gt;Node3</title>
<path fill="none" stroke="midnightblue" d="M1115.92,-55.2274C1134.55,-61.5415 1155.16,-68.5297 1169.74,-73.4696"/>
<polygon fill="midnightblue" stroke="midnightblue" points="1117,-51.897 1106.4,-52.0013 1114.75,-58.5265 1117,-51.897"/>
</g>
<!-- Node8 -->
<g id="node16" class="node"><title>Node8</title>
<a xlink:href="_m_a_i_n__avec__objets_8cpp.html#a6a015280c1363331ada8a329be6eb7c8" target="_top" xlink:title="ticker">
<polygon fill="white" stroke="black" points="446.5,-66 446.5,-90 487.5,-90 487.5,-66 446.5,-66"/>
<text text-anchor="middle" x="467" y="-77" font-family="Helvetica,sans-Serif" font-size="10.00">ticker</text>
</a>
</g>
<!-- Node7&#45;&gt;Node8 -->
<g id="edge16" class="edge"><title>Node7&#45;&gt;Node8</title>
<path fill="none" stroke="midnightblue" d="M406.179,-88.3841C420.691,-85.9064 435.154,-83.4372 446.332,-81.5286"/>
<polygon fill="midnightblue" stroke="midnightblue" points="405.431,-84.961 396.163,-90.0941 406.61,-91.8611 405.431,-84.961"/>
</g>
<!-- Node12 -->
<g id="node26" class="node"><title>Node12</title>
<a xlink:href="tracker__main14nov_8cpp.html#a343d540f006963227ee5b445888ca393" target="_top" xlink:title="ticker_move">
<polygon fill="white" stroke="black" points="432,-108 432,-132 502,-132 502,-108 432,-108"/>
<text text-anchor="middle" x="467" y="-119" font-family="Helvetica,sans-Serif" font-size="10.00">ticker_move</text>
</a>
</g>
<!-- Node7&#45;&gt;Node12 -->
<g id="edge28" class="edge"><title>Node7&#45;&gt;Node12</title>
<path fill="none" stroke="midnightblue" d="M406.117,-109.605C414.961,-111.115 423.788,-112.622 431.866,-114.002"/>
<polygon fill="midnightblue" stroke="midnightblue" points="406.61,-106.139 396.163,-107.906 405.431,-113.039 406.61,-106.139"/>
</g>
<!-- Node8&#45;&gt;Node3 -->
<g id="edge26" class="edge"><title>Node8&#45;&gt;Node3</title>
<path fill="none" stroke="midnightblue" d="M498.002,-78.4318C542.96,-79.0198 628.877,-80 702,-80 702,-80 702,-80 950,-80 1031.74,-80 1129.21,-80 1169.79,-80"/>
<polygon fill="midnightblue" stroke="midnightblue" points="497.793,-74.9288 487.747,-78.2951 497.7,-81.9282 497.793,-74.9288"/>
</g>
<!-- Node9 -->
<g id="node18" class="node"><title>Node9</title>
<a xlink:href="_c_f_g__config__panel__8_8cpp.html#aff76db94408106be22f658a05f17831a" target="_top" xlink:title="do_core_config">
<polygon fill="white" stroke="black" points="538.5,-28 538.5,-52 621.5,-52 621.5,-28 538.5,-28"/>
<text text-anchor="middle" x="580" y="-39" font-family="Helvetica,sans-Serif" font-size="10.00">do_core_config</text>
</a>
</g>
<!-- Node8&#45;&gt;Node9 -->
<g id="edge18" class="edge"><title>Node8&#45;&gt;Node9</title>
<path fill="none" stroke="midnightblue" d="M497.218,-67.8382C511.708,-62.9656 529.164,-57.0952 544.304,-52.0039"/>
<polygon fill="midnightblue" stroke="midnightblue" points="496.089,-64.5253 487.726,-71.0302 498.32,-71.1602 496.089,-64.5253"/>
</g>
<!-- Node10 -->
<g id="node20" class="node"><title>Node10</title>
<a xlink:href="_c_f_g__config__panel__8_8cpp.html#ad39c46e2fb3a3ba7ea0460140ead4f96" target="_top" xlink:title="do_panel_config">
<polygon fill="white" stroke="black" points="658.5,-28 658.5,-52 745.5,-52 745.5,-28 658.5,-28"/>
<text text-anchor="middle" x="702" y="-39" font-family="Helvetica,sans-Serif" font-size="10.00">do_panel_config</text>
</a>
</g>
<!-- Node9&#45;&gt;Node10 -->
<g id="edge20" class="edge"><title>Node9&#45;&gt;Node10</title>
<path fill="none" stroke="midnightblue" d="M631.875,-40C640.732,-40 649.851,-40 658.464,-40"/>
<polygon fill="midnightblue" stroke="midnightblue" points="631.644,-36.5001 621.644,-40 631.644,-43.5001 631.644,-36.5001"/>
</g>
<!-- Node11 -->
<g id="node22" class="node"><title>Node11</title>
<a xlink:href="_c_f_g__config__panel__8_8cpp.html#a7968da66bccdba8b864caf6c8435f68e" target="_top" xlink:title="config_general_menu">
<polygon fill="white" stroke="black" points="782.5,-28 782.5,-52 891.5,-52 891.5,-28 782.5,-28"/>
<text text-anchor="middle" x="837" y="-39" font-family="Helvetica,sans-Serif" font-size="10.00">config_general_menu</text>
</a>
</g>
<!-- Node10&#45;&gt;Node11 -->
<g id="edge22" class="edge"><title>Node10&#45;&gt;Node11</title>
<path fill="none" stroke="midnightblue" d="M756.072,-40C764.621,-40 773.471,-40 782.04,-40"/>
<polygon fill="midnightblue" stroke="midnightblue" points="755.831,-36.5001 745.831,-40 755.831,-43.5001 755.831,-36.5001"/>
</g>
<!-- Node11&#45;&gt;Node5 -->
<g id="edge24" class="edge"><title>Node11&#45;&gt;Node5</title>
<path fill="none" stroke="midnightblue" d="M901.747,-40C911.112,-40 920.168,-40 927.856,-40"/>
<polygon fill="midnightblue" stroke="midnightblue" points="901.514,-36.5001 891.514,-40 901.514,-43.5001 901.514,-36.5001"/>
</g>
<!-- Node13 -->
<g id="node28" class="node"><title>Node13</title>
<a xlink:href="tracker__main14nov_8cpp.html#ae66f6b31b5ad750f1fe042a706a4e3d4" target="_top" xlink:title="main">
<polygon fill="white" stroke="black" points="561,-108 561,-132 599,-132 599,-108 561,-108"/>
<text text-anchor="middle" x="580" y="-119" font-family="Helvetica,sans-Serif" font-size="10.00">main</text>
</a>
</g>
<!-- Node12&#45;&gt;Node13 -->
<g id="edge30" class="edge"><title>Node12&#45;&gt;Node13</title>
<path fill="none" stroke="midnightblue" d="M512.379,-120C529.208,-120 547.407,-120 560.681,-120"/>
<polygon fill="midnightblue" stroke="midnightblue" points="512.135,-116.5 502.134,-120 512.134,-123.5 512.135,-116.5"/>
</g>
</g>
</svg>
