<?xml version="1.0" encoding="UTF-8" standalone="no"?>
<!DOCTYPE svg PUBLIC "-//W3C//DTD SVG 1.1//EN"
 "http://www.w3.org/Graphics/SVG/1.1/DTD/svg11.dtd">
<!-- Generated by graphviz version 2.26.3 (20100126.1600)
 -->
<!-- Title: Print_Points Pages: 1 -->
<svg width="496pt" height="32pt"
 viewBox="0.00 0.00 496.00 32.00" xmlns="http://www.w3.org/2000/svg" xmlns:xlink="http://www.w3.org/1999/xlink">
<g id="graph1" class="graph" transform="scale(1 1) rotate(0) translate(4 28)">
<title>Print_Points</title>
<polygon fill="white" stroke="white" points="-4,5 -4,-28 493,-28 493,5 -4,5"/>
<!-- Node1 -->
<g id="node1" class="node"><title>Node1</title>
<polygon fill="#bfbfbf" stroke="black" points="0,-0 0,-24 70,-24 70,-0 0,-0"/>
<text text-anchor="middle" x="35" y="-11" font-family="Helvetica,sans-Serif" font-size="10.00">Print_Points</text>
</g>
<!-- Node2 -->
<g id="node3" class="node"><title>Node2</title>
<a xlink:href="mover__2013_8cpp.html#acc2bd882d4deb89b6251c3fedaf0d8b1" target="_top" xlink:title="mover_box">
<polygon fill="white" stroke="black" points="106.5,-0 106.5,-24 171.5,-24 171.5,-0 106.5,-0"/>
<text text-anchor="middle" x="139" y="-11" font-family="Helvetica,sans-Serif" font-size="10.00">mover_box</text>
</a>
</g>
<!-- Node1&#45;&gt;Node2 -->
<g id="edge2" class="edge"><title>Node1&#45;&gt;Node2</title>
<path fill="none" stroke="midnightblue" d="M80.2936,-12C89.0358,-12 98.0352,-12 106.281,-12"/>
<polygon fill="midnightblue" stroke="midnightblue" points="80.2097,-8.5001 70.2097,-12 80.2096,-15.5001 80.2097,-8.5001"/>
</g>
<!-- Node3 -->
<g id="node5" class="node"><title>Node3</title>
<a xlink:href="graphics__rebuild1_8cpp.html#ac2eae1e03fb72cc734ffbcef566483bf" target="_top" xlink:title="Boxes">
<polygon fill="white" stroke="black" points="208,-0 208,-24 252,-24 252,-0 208,-0"/>
<text text-anchor="middle" x="230" y="-11" font-family="Helvetica,sans-Serif" font-size="10.00">Boxes</text>
</a>
</g>
<!-- Node2&#45;&gt;Node3 -->
<g id="edge4" class="edge"><title>Node2&#45;&gt;Node3</title>
<path fill="none" stroke="midnightblue" d="M181.687,-12C190.749,-12 199.96,-12 207.875,-12"/>
<polygon fill="midnightblue" stroke="midnightblue" points="181.596,-8.5001 171.596,-12 181.596,-15.5001 181.596,-8.5001"/>
</g>
<!-- Node4 -->
<g id="node7" class="node"><title>Node4</title>
<a xlink:href="_m_a_i_n__avec__objets_8cpp.html#ade8d4ba65d55c94f8ee277829d722155" target="_top" xlink:title="main_actions_on_screen">
<polygon fill="white" stroke="black" points="288.5,-0 288.5,-24 413.5,-24 413.5,-0 288.5,-0"/>
<text text-anchor="middle" x="351" y="-11" font-family="Helvetica,sans-Serif" font-size="10.00">main_actions_on_screen</text>
</a>
</g>
<!-- Node3&#45;&gt;Node4 -->
<g id="edge6" class="edge"><title>Node3&#45;&gt;Node4</title>
<path fill="none" stroke="midnightblue" d="M262.244,-12C270.32,-12 279.263,-12 288.271,-12"/>
<polygon fill="midnightblue" stroke="midnightblue" points="262.193,-8.5001 252.193,-12 262.193,-15.5001 262.193,-8.5001"/>
</g>
<!-- Node5 -->
<g id="node9" class="node"><title>Node5</title>
<a xlink:href="_m_a_i_n__avec__objets_8cpp.html#ae66f6b31b5ad750f1fe042a706a4e3d4" target="_top" xlink:title="main">
<polygon fill="white" stroke="black" points="450,-0 450,-24 488,-24 488,-0 450,-0"/>
<text text-anchor="middle" x="469" y="-11" font-family="Helvetica,sans-Serif" font-size="10.00">main</text>
</a>
</g>
<!-- Node4&#45;&gt;Node5 -->
<g id="edge8" class="edge"><title>Node4&#45;&gt;Node5</title>
<path fill="none" stroke="midnightblue" d="M423.837,-12C433.336,-12 442.327,-12 449.749,-12"/>
<polygon fill="midnightblue" stroke="midnightblue" points="423.8,-8.5001 413.8,-12 423.8,-15.5001 423.8,-8.5001"/>
</g>
</g>
</svg>
