<?xml version="1.0" encoding="UTF-8" standalone="no"?>
<!DOCTYPE svg PUBLIC "-//W3C//DTD SVG 1.1//EN"
 "http://www.w3.org/Graphics/SVG/1.1/DTD/svg11.dtd">
<!-- Generated by graphviz version 2.26.3 (20100126.1600)
 -->
<!-- Title: calc_tangents Pages: 1 -->
<svg width="608pt" height="32pt"
 viewBox="0.00 0.00 608.00 32.00" xmlns="http://www.w3.org/2000/svg" xmlns:xlink="http://www.w3.org/1999/xlink">
<g id="graph1" class="graph" transform="scale(1 1) rotate(0) translate(4 28)">
<title>calc_tangents</title>
<polygon fill="white" stroke="white" points="-4,5 -4,-28 605,-28 605,5 -4,5"/>
<!-- Node1 -->
<g id="node1" class="node"><title>Node1</title>
<polygon fill="#bfbfbf" stroke="black" points="0.5,-0 0.5,-24 77.5,-24 77.5,-0 0.5,-0"/>
<text text-anchor="middle" x="39" y="-11" font-family="Helvetica,sans-Serif" font-size="10.00">calc_tangents</text>
</g>
<!-- Node2 -->
<g id="node3" class="node"><title>Node2</title>
<a xlink:href="mover__spline6_8cpp.html#af3dc1ccb6aa1e9a53aeccc0cae5ecc92" target="_top" xlink:title="ShowSpline">
<polygon fill="white" stroke="black" points="114,-0 114,-24 182,-24 182,-0 114,-0"/>
<text text-anchor="middle" x="148" y="-11" font-family="Helvetica,sans-Serif" font-size="10.00">ShowSpline</text>
</a>
</g>
<!-- Node1&#45;&gt;Node2 -->
<g id="edge2" class="edge"><title>Node1&#45;&gt;Node2</title>
<path fill="none" stroke="midnightblue" d="M87.8483,-12C96.5855,-12 105.518,-12 113.736,-12"/>
<polygon fill="midnightblue" stroke="midnightblue" points="87.7363,-8.5001 77.7362,-12 87.7362,-15.5001 87.7363,-8.5001"/>
</g>
<!-- Node3 -->
<g id="node5" class="node"><title>Node3</title>
<a xlink:href="mover__2013_8cpp.html#acc2bd882d4deb89b6251c3fedaf0d8b1" target="_top" xlink:title="mover_box">
<polygon fill="white" stroke="black" points="218.5,-0 218.5,-24 283.5,-24 283.5,-0 218.5,-0"/>
<text text-anchor="middle" x="251" y="-11" font-family="Helvetica,sans-Serif" font-size="10.00">mover_box</text>
</a>
</g>
<!-- Node2&#45;&gt;Node3 -->
<g id="edge4" class="edge"><title>Node2&#45;&gt;Node3</title>
<path fill="none" stroke="midnightblue" d="M192.161,-12C200.977,-12 210.084,-12 218.423,-12"/>
<polygon fill="midnightblue" stroke="midnightblue" points="192.012,-8.5001 182.012,-12 192.011,-15.5001 192.012,-8.5001"/>
</g>
<!-- Node4 -->
<g id="node7" class="node"><title>Node4</title>
<a xlink:href="graphics__rebuild1_8cpp.html#ac2eae1e03fb72cc734ffbcef566483bf" target="_top" xlink:title="Boxes">
<polygon fill="white" stroke="black" points="320,-0 320,-24 364,-24 364,-0 320,-0"/>
<text text-anchor="middle" x="342" y="-11" font-family="Helvetica,sans-Serif" font-size="10.00">Boxes</text>
</a>
</g>
<!-- Node3&#45;&gt;Node4 -->
<g id="edge6" class="edge"><title>Node3&#45;&gt;Node4</title>
<path fill="none" stroke="midnightblue" d="M293.687,-12C302.749,-12 311.96,-12 319.875,-12"/>
<polygon fill="midnightblue" stroke="midnightblue" points="293.596,-8.5001 283.596,-12 293.596,-15.5001 293.596,-8.5001"/>
</g>
<!-- Node5 -->
<g id="node9" class="node"><title>Node5</title>
<a xlink:href="_m_a_i_n__avec__objets_8cpp.html#ade8d4ba65d55c94f8ee277829d722155" target="_top" xlink:title="main_actions_on_screen">
<polygon fill="white" stroke="black" points="400.5,-0 400.5,-24 525.5,-24 525.5,-0 400.5,-0"/>
<text text-anchor="middle" x="463" y="-11" font-family="Helvetica,sans-Serif" font-size="10.00">main_actions_on_screen</text>
</a>
</g>
<!-- Node4&#45;&gt;Node5 -->
<g id="edge8" class="edge"><title>Node4&#45;&gt;Node5</title>
<path fill="none" stroke="midnightblue" d="M374.244,-12C382.32,-12 391.263,-12 400.271,-12"/>
<polygon fill="midnightblue" stroke="midnightblue" points="374.193,-8.5001 364.193,-12 374.193,-15.5001 374.193,-8.5001"/>
</g>
<!-- Node6 -->
<g id="node11" class="node"><title>Node6</title>
<a xlink:href="_m_a_i_n__avec__objets_8cpp.html#ae66f6b31b5ad750f1fe042a706a4e3d4" target="_top" xlink:title="main">
<polygon fill="white" stroke="black" points="562,-0 562,-24 600,-24 600,-0 562,-0"/>
<text text-anchor="middle" x="581" y="-11" font-family="Helvetica,sans-Serif" font-size="10.00">main</text>
</a>
</g>
<!-- Node5&#45;&gt;Node6 -->
<g id="edge10" class="edge"><title>Node5&#45;&gt;Node6</title>
<path fill="none" stroke="midnightblue" d="M535.837,-12C545.336,-12 554.327,-12 561.749,-12"/>
<polygon fill="midnightblue" stroke="midnightblue" points="535.8,-8.5001 525.8,-12 535.8,-15.5001 535.8,-8.5001"/>
</g>
</g>
</svg>
