<?xml version="1.0" encoding="UTF-8" standalone="no"?>
<!DOCTYPE svg PUBLIC "-//W3C//DTD SVG 1.1//EN"
 "http://www.w3.org/Graphics/SVG/1.1/DTD/svg11.dtd">
<!-- Generated by graphviz version 2.26.3 (20100126.1600)
 -->
<!-- Title: draw_spline Pages: 1 -->
<svg width="304pt" height="32pt"
 viewBox="0.00 0.00 304.00 32.00" xmlns="http://www.w3.org/2000/svg" xmlns:xlink="http://www.w3.org/1999/xlink">
<g id="graph1" class="graph" transform="scale(1 1) rotate(0) translate(4 28)">
<title>draw_spline</title>
<polygon fill="white" stroke="white" points="-4,5 -4,-28 301,-28 301,5 -4,5"/>
<!-- Node1 -->
<g id="node1" class="node"><title>Node1</title>
<polygon fill="#bfbfbf" stroke="black" points="0,-0 0,-24 68,-24 68,-0 0,-0"/>
<text text-anchor="middle" x="34" y="-11" font-family="Helvetica,sans-Serif" font-size="10.00">draw_spline</text>
</g>
<!-- Node2 -->
<g id="node3" class="node"><title>Node2</title>
<a xlink:href="mover__spline6_8cpp.html#a71a41e8d002948913c4ae79560729c48" target="_top" xlink:title="get_control_points">
<polygon fill="white" stroke="black" points="104,-0 104,-24 200,-24 200,-0 104,-0"/>
<text text-anchor="middle" x="152" y="-11" font-family="Helvetica,sans-Serif" font-size="10.00">get_control_points</text>
</a>
</g>
<!-- Node1&#45;&gt;Node2 -->
<g id="edge2" class="edge"><title>Node1&#45;&gt;Node2</title>
<path fill="none" stroke="midnightblue" d="M68.1305,-12C76.1538,-12 84.9281,-12 93.6824,-12"/>
<polygon fill="midnightblue" stroke="midnightblue" points="93.9039,-15.5001 103.904,-12 93.9038,-8.5001 93.9039,-15.5001"/>
</g>
<!-- Node3 -->
<g id="node5" class="node"><title>Node3</title>
<a xlink:href="mover__spline6_8cpp.html#a98185a4f31c71ab881cacc66ef0d87e1" target="_top" xlink:title="node_dist">
<polygon fill="white" stroke="black" points="236.5,-0 236.5,-24 295.5,-24 295.5,-0 236.5,-0"/>
<text text-anchor="middle" x="266" y="-11" font-family="Helvetica,sans-Serif" font-size="10.00">node_dist</text>
</a>
</g>
<!-- Node2&#45;&gt;Node3 -->
<g id="edge4" class="edge"><title>Node2&#45;&gt;Node3</title>
<path fill="none" stroke="midnightblue" d="M200.016,-12C208.659,-12 217.584,-12 225.97,-12"/>
<polygon fill="midnightblue" stroke="midnightblue" points="226.242,-15.5001 236.242,-12 226.242,-8.5001 226.242,-15.5001"/>
</g>
</g>
</svg>
