<?xml version="1.0" encoding="UTF-8" standalone="no"?>
<!DOCTYPE svg PUBLIC "-//W3C//DTD SVG 1.1//EN"
 "http://www.w3.org/Graphics/SVG/1.1/DTD/svg11.dtd">
<!-- Generated by graphviz version 2.26.3 (20100126.1600)
 -->
<!-- Title: detection_mise_en_place_carte_reseaux Pages: 1 -->
<svg width="1332pt" height="241pt"
 viewBox="0.00 0.00 1332.00 240.82" xmlns="http://www.w3.org/2000/svg" xmlns:xlink="http://www.w3.org/1999/xlink">
<g id="graph1" class="graph" transform="scale(1 1) rotate(0) translate(4 236.822)">
<title>detection_mise_en_place_carte_reseaux</title>
<polygon fill="white" stroke="white" points="-4,5 -4,-236.822 1329,-236.822 1329,5 -4,5"/>
<!-- Node1 -->
<g id="node1" class="node"><title>Node1</title>
<polygon fill="#bfbfbf" stroke="black" points="0.5,-174.424 0.5,-214.424 127.5,-214.424 127.5,-174.424 0.5,-174.424"/>
<text text-anchor="start" x="8.5" y="-201.424" font-family="Helvetica,sans-Serif" font-size="10.00">detection_mise_en_place</text>
<text text-anchor="middle" x="64" y="-185.424" font-family="Helvetica,sans-Serif" font-size="10.00">_carte_reseaux</text>
</g>
<!-- Node2 -->
<g id="node3" class="node"><title>Node2</title>
<a xlink:href="_m_a_i_n__avec__objets_8cpp.html#ae66f6b31b5ad750f1fe042a706a4e3d4" target="_top" xlink:title="main">
<polygon fill="white" stroke="black" points="1286,-101.424 1286,-125.424 1324,-125.424 1324,-101.424 1286,-101.424"/>
<text text-anchor="middle" x="1305" y="-112.424" font-family="Helvetica,sans-Serif" font-size="10.00">main</text>
</a>
</g>
<!-- Node1&#45;&gt;Node2 -->
<g id="edge2" class="edge"><title>Node1&#45;&gt;Node2</title>
<path fill="none" stroke="midnightblue" d="M137.472,-209.858C193.952,-220.384 274.062,-232.424 345,-232.424 345,-232.424 345,-232.424 1036,-232.424 1133.28,-232.424 1168.01,-238.791 1250,-186.424 1273.67,-171.305 1290.9,-142.195 1299.28,-125.669"/>
<polygon fill="midnightblue" stroke="midnightblue" points="138.038,-206.403 127.561,-207.982 136.735,-213.281 138.038,-206.403"/>
</g>
<!-- Node3 -->
<g id="node5" class="node"><title>Node3</title>
<a xlink:href="network__artnet__3_8cpp.html#a968a75667346482a13ba5f22a72a0c96" target="_top" xlink:title="initialisation_client\l_artnet">
<polygon fill="white" stroke="black" points="164,-136.424 164,-176.424 260,-176.424 260,-136.424 164,-136.424"/>
<text text-anchor="start" x="172" y="-163.424" font-family="Helvetica,sans-Serif" font-size="10.00">initialisation_client</text>
<text text-anchor="middle" x="212" y="-147.424" font-family="Helvetica,sans-Serif" font-size="10.00">_artnet</text>
</a>
</g>
<!-- Node1&#45;&gt;Node3 -->
<g id="edge4" class="edge"><title>Node1&#45;&gt;Node3</title>
<path fill="none" stroke="midnightblue" d="M137.579,-175.532C146.423,-173.261 155.274,-170.988 163.629,-168.843"/>
<polygon fill="midnightblue" stroke="midnightblue" points="136.44,-172.211 127.624,-178.088 138.181,-178.991 136.44,-172.211"/>
</g>
<!-- Node3&#45;&gt;Node2 -->
<g id="edge42" class="edge"><title>Node3&#45;&gt;Node2</title>
<path fill="none" stroke="midnightblue" d="M235.728,-128.717C251.477,-111.631 273.355,-90.2291 296,-75.4237 369.226,-27.5477 390.512,-0.42365 478,-0.42365 478,-0.42365 478,-0.42365 1036,-0.42365 1133.1,-0.42365 1167.23,6.35475 1250,-44.4237 1272.85,-58.4431 1290.16,-85.539 1298.83,-101.282"/>
<polygon fill="midnightblue" stroke="midnightblue" points="233.051,-126.459 228.943,-136.225 238.244,-131.153 233.051,-126.459"/>
</g>
<!-- Node4 -->
<g id="node7" class="node"><title>Node4</title>
<a xlink:href="_c_f_g__config__panel__8_8cpp.html#af492ee2130c3aed1b5f2ee4ff61a4416" target="_top" xlink:title="do_dmx_config">
<polygon fill="white" stroke="black" points="562.5,-100.424 562.5,-124.424 645.5,-124.424 645.5,-100.424 562.5,-100.424"/>
<text text-anchor="middle" x="604" y="-111.424" font-family="Helvetica,sans-Serif" font-size="10.00">do_dmx_config</text>
</a>
</g>
<!-- Node3&#45;&gt;Node4 -->
<g id="edge6" class="edge"><title>Node3&#45;&gt;Node4</title>
<path fill="none" stroke="midnightblue" d="M270.272,-157.22C333.716,-157.086 437.906,-153.937 526,-137.424 541.654,-134.489 558.54,-129.337 572.585,-124.47"/>
<polygon fill="midnightblue" stroke="midnightblue" points="270.066,-153.72 260.064,-157.216 270.063,-160.72 270.066,-153.72"/>
</g>
<!-- Node9 -->
<g id="node18" class="node"><title>Node9</title>
<a xlink:href="dmx__functions__13_8cpp.html#a53b11cad2f3a0892f08b078a52236e7b" target="_top" xlink:title="Init_dmx_interface">
<polygon fill="white" stroke="black" points="296.5,-84.4237 296.5,-108.424 393.5,-108.424 393.5,-84.4237 296.5,-84.4237"/>
<text text-anchor="middle" x="345" y="-95.4237" font-family="Helvetica,sans-Serif" font-size="10.00">Init_dmx_interface</text>
</a>
</g>
<!-- Node3&#45;&gt;Node9 -->
<g id="edge18" class="edge"><title>Node3&#45;&gt;Node9</title>
<path fill="none" stroke="midnightblue" d="M265.905,-132.106C283.867,-124.003 303.101,-115.325 318.104,-108.557"/>
<polygon fill="midnightblue" stroke="midnightblue" points="264.333,-128.975 256.657,-136.278 267.212,-135.356 264.333,-128.975"/>
</g>
<!-- Node11 -->
<g id="node25" class="node"><title>Node11</title>
<a xlink:href="logicals__intres_8cpp.html#a74cf9c04c734ab342f88799efbfc4210" target="_top" xlink:title="operations_confirmation">
<polygon fill="white" stroke="black" points="682,-180.424 682,-204.424 802,-204.424 802,-180.424 682,-180.424"/>
<text text-anchor="middle" x="742" y="-191.424" font-family="Helvetica,sans-Serif" font-size="10.00">operations_confirmation</text>
</a>
</g>
<!-- Node3&#45;&gt;Node11 -->
<g id="edge28" class="edge"><title>Node3&#45;&gt;Node11</title>
<path fill="none" stroke="midnightblue" d="M270.312,-165.43C278.911,-166.562 287.675,-167.607 296,-168.424 433.752,-181.943 596.24,-188.277 681.997,-190.874"/>
<polygon fill="midnightblue" stroke="midnightblue" points="270.71,-161.952 260.329,-164.071 269.765,-168.888 270.71,-161.952"/>
</g>
<!-- Node5 -->
<g id="node9" class="node"><title>Node5</title>
<a xlink:href="_c_f_g__config__panel__8_8cpp.html#ad39c46e2fb3a3ba7ea0460140ead4f96" target="_top" xlink:title="do_panel_config">
<polygon fill="white" stroke="black" points="698.5,-98.4237 698.5,-122.424 785.5,-122.424 785.5,-98.4237 698.5,-98.4237"/>
<text text-anchor="middle" x="742" y="-109.424" font-family="Helvetica,sans-Serif" font-size="10.00">do_panel_config</text>
</a>
</g>
<!-- Node4&#45;&gt;Node5 -->
<g id="edge8" class="edge"><title>Node4&#45;&gt;Node5</title>
<path fill="none" stroke="midnightblue" d="M655.793,-111.673C669.841,-111.469 684.906,-111.251 698.45,-111.055"/>
<polygon fill="midnightblue" stroke="midnightblue" points="655.727,-108.174 645.779,-111.818 655.829,-115.173 655.727,-108.174"/>
</g>
<!-- Node6 -->
<g id="node11" class="node"><title>Node6</title>
<a xlink:href="_c_f_g__config__panel__8_8cpp.html#a7968da66bccdba8b864caf6c8435f68e" target="_top" xlink:title="config_general_menu">
<polygon fill="white" stroke="black" points="838.5,-96.4237 838.5,-120.424 947.5,-120.424 947.5,-96.4237 838.5,-96.4237"/>
<text text-anchor="middle" x="893" y="-107.424" font-family="Helvetica,sans-Serif" font-size="10.00">config_general_menu</text>
</a>
</g>
<!-- Node5&#45;&gt;Node6 -->
<g id="edge10" class="edge"><title>Node5&#45;&gt;Node6</title>
<path fill="none" stroke="midnightblue" d="M795.979,-109.709C809.763,-109.526 824.592,-109.33 838.407,-109.147"/>
<polygon fill="midnightblue" stroke="midnightblue" points="795.628,-106.213 785.675,-109.845 795.721,-113.212 795.628,-106.213"/>
</g>
<!-- Node7 -->
<g id="node13" class="node"><title>Node7</title>
<a xlink:href="graphics__rebuild1_8cpp.html#ac2eae1e03fb72cc734ffbcef566483bf" target="_top" xlink:title="Boxes">
<polygon fill="white" stroke="black" points="1014,-101.424 1014,-125.424 1058,-125.424 1058,-101.424 1014,-101.424"/>
<text text-anchor="middle" x="1036" y="-112.424" font-family="Helvetica,sans-Serif" font-size="10.00">Boxes</text>
</a>
</g>
<!-- Node6&#45;&gt;Node7 -->
<g id="edge12" class="edge"><title>Node6&#45;&gt;Node7</title>
<path fill="none" stroke="midnightblue" d="M957.972,-110.695C978.064,-111.398 998.85,-112.125 1013.91,-112.651"/>
<polygon fill="midnightblue" stroke="midnightblue" points="957.995,-107.194 947.879,-110.342 957.75,-114.19 957.995,-107.194"/>
</g>
<!-- Node8 -->
<g id="node15" class="node"><title>Node8</title>
<a xlink:href="_m_a_i_n__avec__objets_8cpp.html#ade8d4ba65d55c94f8ee277829d722155" target="_top" xlink:title="main_actions_on_screen">
<polygon fill="white" stroke="black" points="1124.5,-101.424 1124.5,-125.424 1249.5,-125.424 1249.5,-101.424 1124.5,-101.424"/>
<text text-anchor="middle" x="1187" y="-112.424" font-family="Helvetica,sans-Serif" font-size="10.00">main_actions_on_screen</text>
</a>
</g>
<!-- Node7&#45;&gt;Node8 -->
<g id="edge14" class="edge"><title>Node7&#45;&gt;Node8</title>
<path fill="none" stroke="midnightblue" d="M1068.39,-113.424C1084.76,-113.424 1105.19,-113.424 1124.46,-113.424"/>
<polygon fill="midnightblue" stroke="midnightblue" points="1068.28,-109.924 1058.28,-113.424 1068.28,-116.924 1068.28,-109.924"/>
</g>
<!-- Node8&#45;&gt;Node2 -->
<g id="edge16" class="edge"><title>Node8&#45;&gt;Node2</title>
<path fill="none" stroke="midnightblue" d="M1259.84,-113.424C1269.34,-113.424 1278.33,-113.424 1285.75,-113.424"/>
<polygon fill="midnightblue" stroke="midnightblue" points="1259.8,-109.924 1249.8,-113.424 1259.8,-116.924 1259.8,-109.924"/>
</g>
<!-- Node9&#45;&gt;Node2 -->
<g id="edge26" class="edge"><title>Node9&#45;&gt;Node2</title>
<path fill="none" stroke="midnightblue" d="M386.808,-81.09C437.481,-63.9065 525.81,-38.4237 604,-38.4237 604,-38.4237 604,-38.4237 1036,-38.4237 1132.97,-38.4237 1242.61,-84.2 1285.94,-104.227"/>
<polygon fill="midnightblue" stroke="midnightblue" points="385.503,-77.8377 377.189,-84.406 387.784,-84.4555 385.503,-77.8377"/>
</g>
<!-- Node9&#45;&gt;Node4 -->
<g id="edge24" class="edge"><title>Node9&#45;&gt;Node4</title>
<path fill="none" stroke="midnightblue" d="M403.737,-92.7609C439.235,-91.3759 485.336,-91.0437 526,-95.4237 537.851,-96.7001 550.542,-99.0374 562.171,-101.579"/>
<polygon fill="midnightblue" stroke="midnightblue" points="403.39,-89.2724 393.549,-93.1983 403.69,-96.266 403.39,-89.2724"/>
</g>
<!-- Node10 -->
<g id="node20" class="node"><title>Node10</title>
<a xlink:href="_c_f_g__config__panel__8_8cpp.html#ab6b381db258889ff1d6e45119c1b24fc" target="_top" xlink:title="SelectDmxDevice">
<polygon fill="white" stroke="black" points="430,-104.424 430,-128.424 526,-128.424 526,-104.424 430,-104.424"/>
<text text-anchor="middle" x="478" y="-115.424" font-family="Helvetica,sans-Serif" font-size="10.00">SelectDmxDevice</text>
</a>
</g>
<!-- Node9&#45;&gt;Node10 -->
<g id="edge20" class="edge"><title>Node9&#45;&gt;Node10</title>
<path fill="none" stroke="midnightblue" d="M403.805,-105.266C412.453,-106.567 421.277,-107.894 429.681,-109.158"/>
<polygon fill="midnightblue" stroke="midnightblue" points="404.178,-101.783 393.769,-103.757 403.137,-108.706 404.178,-101.783"/>
</g>
<!-- Node10&#45;&gt;Node4 -->
<g id="edge22" class="edge"><title>Node10&#45;&gt;Node4</title>
<path fill="none" stroke="midnightblue" d="M536.442,-114.568C545.113,-114.293 553.901,-114.014 562.142,-113.752"/>
<polygon fill="midnightblue" stroke="midnightblue" points="536.238,-111.073 526.355,-114.889 536.461,-118.069 536.238,-111.073"/>
</g>
<!-- Node12 -->
<g id="node27" class="node"><title>Node12</title>
<a xlink:href="keyboard__functions2_8cpp.html#a548548066307f816c5021de7d6e4f26a" target="_top" xlink:title="key_affectation">
<polygon fill="white" stroke="black" points="851.5,-180.424 851.5,-204.424 934.5,-204.424 934.5,-180.424 851.5,-180.424"/>
<text text-anchor="middle" x="893" y="-191.424" font-family="Helvetica,sans-Serif" font-size="10.00">key_affectation</text>
</a>
</g>
<!-- Node11&#45;&gt;Node12 -->
<g id="edge30" class="edge"><title>Node11&#45;&gt;Node12</title>
<path fill="none" stroke="midnightblue" d="M812.235,-192.424C825.563,-192.424 839.112,-192.424 851.207,-192.424"/>
<polygon fill="midnightblue" stroke="midnightblue" points="812.113,-188.924 802.113,-192.424 812.113,-195.924 812.113,-188.924"/>
</g>
<!-- Node15 -->
<g id="node34" class="node"><title>Node15</title>
<a xlink:href="logicals__intres_8cpp.html#a85967c22135715eca94d08af2ec1a1fb" target="_top" xlink:title="fenetre_confirm">
<polygon fill="white" stroke="black" points="851,-138.424 851,-162.424 935,-162.424 935,-138.424 851,-138.424"/>
<text text-anchor="middle" x="893" y="-149.424" font-family="Helvetica,sans-Serif" font-size="10.00">fenetre_confirm</text>
</a>
</g>
<!-- Node11&#45;&gt;Node15 -->
<g id="edge38" class="edge"><title>Node11&#45;&gt;Node15</title>
<path fill="none" stroke="midnightblue" d="M794.916,-177.705C813.207,-172.618 833.446,-166.988 850.766,-162.171"/>
<polygon fill="midnightblue" stroke="midnightblue" points="793.967,-174.336 785.271,-180.388 795.843,-181.08 793.967,-174.336"/>
</g>
<!-- Node13 -->
<g id="node29" class="node"><title>Node13</title>
<a xlink:href="keyboard__routines2_8cpp.html#a8563320b8eab661232619224650de244" target="_top" xlink:title="commandes_clavier">
<polygon fill="white" stroke="black" points="984,-159.424 984,-183.424 1088,-183.424 1088,-159.424 984,-159.424"/>
<text text-anchor="middle" x="1036" y="-170.424" font-family="Helvetica,sans-Serif" font-size="10.00">commandes_clavier</text>
</a>
</g>
<!-- Node12&#45;&gt;Node13 -->
<g id="edge32" class="edge"><title>Node12&#45;&gt;Node13</title>
<path fill="none" stroke="midnightblue" d="M944.712,-184.83C957.423,-182.963 971.039,-180.963 983.775,-179.093"/>
<polygon fill="midnightblue" stroke="midnightblue" points="944.131,-181.377 934.746,-186.293 945.148,-188.303 944.131,-181.377"/>
</g>
<!-- Node14 -->
<g id="node31" class="node"><title>Node14</title>
<a xlink:href="_m_a_i_n__avec__objets_8cpp.html#a8e80f54ac804eddce8ed6e45adb1db44" target="_top" xlink:title="ticker_full_loop">
<polygon fill="white" stroke="black" points="1146,-153.424 1146,-177.424 1228,-177.424 1228,-153.424 1146,-153.424"/>
<text text-anchor="middle" x="1187" y="-164.424" font-family="Helvetica,sans-Serif" font-size="10.00">ticker_full_loop</text>
</a>
</g>
<!-- Node13&#45;&gt;Node14 -->
<g id="edge34" class="edge"><title>Node13&#45;&gt;Node14</title>
<path fill="none" stroke="midnightblue" d="M1098.66,-168.934C1114.52,-168.304 1131.15,-167.643 1145.65,-167.067"/>
<polygon fill="midnightblue" stroke="midnightblue" points="1098.24,-165.448 1088.39,-169.342 1098.52,-172.442 1098.24,-165.448"/>
</g>
<!-- Node14&#45;&gt;Node2 -->
<g id="edge36" class="edge"><title>Node14&#45;&gt;Node2</title>
<path fill="none" stroke="midnightblue" d="M1223.78,-149.218C1244.35,-140.153 1269.14,-129.228 1285.88,-121.851"/>
<polygon fill="midnightblue" stroke="midnightblue" points="1222.11,-146.128 1214.37,-153.363 1224.93,-152.533 1222.11,-146.128"/>
</g>
<!-- Node15&#45;&gt;Node7 -->
<g id="edge40" class="edge"><title>Node15&#45;&gt;Node7</title>
<path fill="none" stroke="midnightblue" d="M945.024,-136.963C968.624,-130.857 995.288,-123.958 1013.62,-119.215"/>
<polygon fill="midnightblue" stroke="midnightblue" points="943.936,-133.629 935.131,-139.523 945.689,-140.406 943.936,-133.629"/>
</g>
</g>
</svg>
