<?xml version="1.0" encoding="UTF-8" standalone="no"?>
<!DOCTYPE svg PUBLIC "-//W3C//DTD SVG 1.1//EN"
 "http://www.w3.org/Graphics/SVG/1.1/DTD/svg11.dtd">
<!-- Generated by graphviz version 2.26.3 (20100126.1600)
 -->
<!-- Title: Box_IP_routing Pages: 1 -->
<svg width="224pt" height="74pt"
 viewBox="0.00 0.00 224.00 74.00" xmlns="http://www.w3.org/2000/svg" xmlns:xlink="http://www.w3.org/1999/xlink">
<g id="graph1" class="graph" transform="scale(1 1) rotate(0) translate(4 70)">
<title>Box_IP_routing</title>
<polygon fill="white" stroke="white" points="-4,5 -4,-70 221,-70 221,5 -4,5"/>
<!-- Node1 -->
<g id="node1" class="node"><title>Node1</title>
<polygon fill="#bfbfbf" stroke="black" points="0.5,-21 0.5,-45 83.5,-45 83.5,-21 0.5,-21"/>
<text text-anchor="middle" x="42" y="-32" font-family="Helvetica,sans-Serif" font-size="10.00">Box_IP_routing</text>
</g>
<!-- Node2 -->
<g id="node3" class="node"><title>Node2</title>
<a xlink:href="network__artnet__3_8cpp.html#a6daea1aeee5d106166a80bc69f4dc4ba" target="_top" xlink:title="detection_reseaux">
<polygon fill="white" stroke="black" points="120,-42 120,-66 216,-66 216,-42 120,-42"/>
<text text-anchor="middle" x="168" y="-53" font-family="Helvetica,sans-Serif" font-size="10.00">detection_reseaux</text>
</a>
</g>
<!-- Node1&#45;&gt;Node2 -->
<g id="edge2" class="edge"><title>Node1&#45;&gt;Node2</title>
<path fill="none" stroke="midnightblue" d="M83.6063,-39.9344C92.0435,-41.3406 101.062,-42.8436 109.947,-44.3246"/>
<polygon fill="midnightblue" stroke="midnightblue" points="109.447,-47.7893 119.886,-45.981 110.597,-40.8845 109.447,-47.7893"/>
</g>
<!-- Node3 -->
<g id="node5" class="node"><title>Node3</title>
<a xlink:href="colors__fonts_8h.html#ae9274ddf03277718b9234207fe9a3d3a" target="_top" xlink:title="CouleurGreen">
<polygon fill="white" stroke="black" points="129.5,-0 129.5,-24 206.5,-24 206.5,-0 129.5,-0"/>
<text text-anchor="middle" x="168" y="-11" font-family="Helvetica,sans-Serif" font-size="10.00">CouleurGreen</text>
</a>
</g>
<!-- Node1&#45;&gt;Node3 -->
<g id="edge4" class="edge"><title>Node1&#45;&gt;Node3</title>
<path fill="none" stroke="midnightblue" d="M83.6063,-26.0656C95.0272,-24.1621 107.513,-22.0812 119.294,-20.1177"/>
<polygon fill="midnightblue" stroke="midnightblue" points="120.133,-23.5262 129.421,-18.4298 118.982,-16.6215 120.133,-23.5262"/>
</g>
</g>
</svg>
