<?xml version="1.0" encoding="UTF-8" standalone="no"?>
<!DOCTYPE svg PUBLIC "-//W3C//DTD SVG 1.1//EN"
 "http://www.w3.org/Graphics/SVG/1.1/DTD/svg11.dtd">
<!-- Generated by graphviz version 2.26.3 (20100126.1600)
 -->
<!-- Title: do_artnet_affect_config Pages: 1 -->
<svg width="420pt" height="174pt"
 viewBox="0.00 0.00 420.00 174.00" xmlns="http://www.w3.org/2000/svg" xmlns:xlink="http://www.w3.org/1999/xlink">
<g id="graph1" class="graph" transform="scale(1 1) rotate(0) translate(4 170)">
<title>do_artnet_affect_config</title>
<polygon fill="white" stroke="white" points="-4,5 -4,-170 417,-170 417,5 -4,5"/>
<!-- Node1 -->
<g id="node1" class="node"><title>Node1</title>
<polygon fill="#bfbfbf" stroke="black" points="0,-75 0,-99 118,-99 118,-75 0,-75"/>
<text text-anchor="middle" x="59" y="-86" font-family="Helvetica,sans-Serif" font-size="10.00">do_artnet_affect_config</text>
</g>
<!-- Node2 -->
<g id="node3" class="node"><title>Node2</title>
<a xlink:href="_c_o_r_e__6_8cpp.html#a9574e0b790211959c7398e42468410d8" target="_top" xlink:title="toggle">
<polygon fill="white" stroke="black" points="195.5,-142 195.5,-166 238.5,-166 238.5,-142 195.5,-142"/>
<text text-anchor="middle" x="217" y="-153" font-family="Helvetica,sans-Serif" font-size="10.00">toggle</text>
</a>
</g>
<!-- Node1&#45;&gt;Node2 -->
<g id="edge2" class="edge"><title>Node1&#45;&gt;Node2</title>
<path fill="none" stroke="midnightblue" d="M82.0444,-99.1969C101.052,-109.003 128.878,-122.781 154,-133 164.172,-137.138 175.496,-141.104 185.707,-144.453"/>
<polygon fill="midnightblue" stroke="midnightblue" points="184.871,-147.86 195.463,-147.58 187.008,-141.194 184.871,-147.86"/>
</g>
<!-- Node3 -->
<g id="node5" class="node"><title>Node3</title>
<a xlink:href="network__artnet__3_8cpp.html#a5dd8576084b2f90baf9805e25a686d5f" target="_top" xlink:title="fermeture_serveur_artnet">
<polygon fill="white" stroke="black" points="154.5,-100 154.5,-124 279.5,-124 279.5,-100 154.5,-100"/>
<text text-anchor="middle" x="217" y="-111" font-family="Helvetica,sans-Serif" font-size="10.00">fermeture_serveur_artnet</text>
</a>
</g>
<!-- Node1&#45;&gt;Node3 -->
<g id="edge4" class="edge"><title>Node1&#45;&gt;Node3</title>
<path fill="none" stroke="midnightblue" d="M118.283,-96.3802C126.872,-97.7392 135.793,-99.1508 144.604,-100.545"/>
<polygon fill="midnightblue" stroke="midnightblue" points="144.057,-104.002 154.481,-102.108 145.151,-97.0878 144.057,-104.002"/>
</g>
<!-- Node4 -->
<g id="node7" class="node"><title>Node4</title>
<a xlink:href="network__artnet__3_8cpp.html#a32051cea0c5013d0da3e89aef1800859" target="_top" xlink:title="initialisation_serveur\l_artnet">
<polygon fill="white" stroke="black" points="164.5,-42 164.5,-82 269.5,-82 269.5,-42 164.5,-42"/>
<text text-anchor="start" x="172.5" y="-69" font-family="Helvetica,sans-Serif" font-size="10.00">initialisation_serveur</text>
<text text-anchor="middle" x="217" y="-53" font-family="Helvetica,sans-Serif" font-size="10.00">_artnet</text>
</a>
</g>
<!-- Node1&#45;&gt;Node4 -->
<g id="edge6" class="edge"><title>Node1&#45;&gt;Node4</title>
<path fill="none" stroke="midnightblue" d="M118.283,-77.6198C130.118,-75.7472 142.583,-73.7748 154.522,-71.8857"/>
<polygon fill="midnightblue" stroke="midnightblue" points="155.071,-75.3425 164.401,-70.3226 153.977,-68.4285 155.071,-75.3425"/>
</g>
<!-- Node6 -->
<g id="node11" class="node"><title>Node6</title>
<a xlink:href="_c_o_r_e__6_8cpp.html#a852678868d2a66db68f4a2c9eacfcc78" target="_top" xlink:title="reset_numeric_entry">
<polygon fill="white" stroke="black" points="164.5,-0 164.5,-24 269.5,-24 269.5,-0 164.5,-0"/>
<text text-anchor="middle" x="217" y="-11" font-family="Helvetica,sans-Serif" font-size="10.00">reset_numeric_entry</text>
</a>
</g>
<!-- Node1&#45;&gt;Node6 -->
<g id="edge10" class="edge"><title>Node1&#45;&gt;Node6</title>
<path fill="none" stroke="midnightblue" d="M77.7149,-74.9063C96.4744,-63.1376 126.449,-45.2809 154,-33 158.314,-31.077 162.861,-29.2316 167.455,-27.4883"/>
<polygon fill="midnightblue" stroke="midnightblue" points="168.689,-30.764 176.894,-24.0611 166.3,-24.1843 168.689,-30.764"/>
</g>
<!-- Node5 -->
<g id="node9" class="node"><title>Node5</title>
<a xlink:href="network__artnet__3_8cpp.html#a6daea1aeee5d106166a80bc69f4dc4ba" target="_top" xlink:title="detection_reseaux">
<polygon fill="white" stroke="black" points="316,-50 316,-74 412,-74 412,-50 316,-50"/>
<text text-anchor="middle" x="364" y="-61" font-family="Helvetica,sans-Serif" font-size="10.00">detection_reseaux</text>
</a>
</g>
<!-- Node4&#45;&gt;Node5 -->
<g id="edge8" class="edge"><title>Node4&#45;&gt;Node5</title>
<path fill="none" stroke="midnightblue" d="M269.655,-62C281.252,-62 293.603,-62 305.418,-62"/>
<polygon fill="midnightblue" stroke="midnightblue" points="305.63,-65.5001 315.63,-62 305.63,-58.5001 305.63,-65.5001"/>
</g>
</g>
</svg>
