<?xml version="1.0" encoding="UTF-8" standalone="no"?>
<!DOCTYPE svg PUBLIC "-//W3C//DTD SVG 1.1//EN"
 "http://www.w3.org/Graphics/SVG/1.1/DTD/svg11.dtd">
<!-- Generated by graphviz version 2.26.3 (20100126.1600)
 -->
<!-- Title: Box_IP_routing Pages: 1 -->
<svg width="812pt" height="32pt"
 viewBox="0.00 0.00 812.00 32.00" xmlns="http://www.w3.org/2000/svg" xmlns:xlink="http://www.w3.org/1999/xlink">
<g id="graph1" class="graph" transform="scale(1 1) rotate(0) translate(4 28)">
<title>Box_IP_routing</title>
<polygon fill="white" stroke="white" points="-4,5 -4,-28 809,-28 809,5 -4,5"/>
<!-- Node1 -->
<g id="node1" class="node"><title>Node1</title>
<polygon fill="#bfbfbf" stroke="black" points="0.5,-0 0.5,-24 83.5,-24 83.5,-0 0.5,-0"/>
<text text-anchor="middle" x="42" y="-11" font-family="Helvetica,sans-Serif" font-size="10.00">Box_IP_routing</text>
</g>
<!-- Node2 -->
<g id="node3" class="node"><title>Node2</title>
<a xlink:href="_c_f_g__config__panel__8_8cpp.html#abeed1d561a8752f4dcf1f8e84086660e" target="_top" xlink:title="do_network_config">
<polygon fill="white" stroke="black" points="120,-0 120,-24 218,-24 218,-0 120,-0"/>
<text text-anchor="middle" x="169" y="-11" font-family="Helvetica,sans-Serif" font-size="10.00">do_network_config</text>
</a>
</g>
<!-- Node1&#45;&gt;Node2 -->
<g id="edge2" class="edge"><title>Node1&#45;&gt;Node2</title>
<path fill="none" stroke="midnightblue" d="M93.8554,-12C102.431,-12 111.3,-12 119.808,-12"/>
<polygon fill="midnightblue" stroke="midnightblue" points="93.5846,-8.5001 83.5845,-12 93.5845,-15.5001 93.5846,-8.5001"/>
</g>
<!-- Node3 -->
<g id="node5" class="node"><title>Node3</title>
<a xlink:href="_c_f_g__config__panel__8_8cpp.html#ad39c46e2fb3a3ba7ea0460140ead4f96" target="_top" xlink:title="do_panel_config">
<polygon fill="white" stroke="black" points="254.5,-0 254.5,-24 341.5,-24 341.5,-0 254.5,-0"/>
<text text-anchor="middle" x="298" y="-11" font-family="Helvetica,sans-Serif" font-size="10.00">do_panel_config</text>
</a>
</g>
<!-- Node2&#45;&gt;Node3 -->
<g id="edge4" class="edge"><title>Node2&#45;&gt;Node3</title>
<path fill="none" stroke="midnightblue" d="M228.368,-12C237.167,-12 246.095,-12 254.489,-12"/>
<polygon fill="midnightblue" stroke="midnightblue" points="228.137,-8.5001 218.137,-12 228.137,-15.5001 228.137,-8.5001"/>
</g>
<!-- Node4 -->
<g id="node7" class="node"><title>Node4</title>
<a xlink:href="_c_f_g__config__panel__8_8cpp.html#a7968da66bccdba8b864caf6c8435f68e" target="_top" xlink:title="config_general_menu">
<polygon fill="white" stroke="black" points="378.5,-0 378.5,-24 487.5,-24 487.5,-0 378.5,-0"/>
<text text-anchor="middle" x="433" y="-11" font-family="Helvetica,sans-Serif" font-size="10.00">config_general_menu</text>
</a>
</g>
<!-- Node3&#45;&gt;Node4 -->
<g id="edge6" class="edge"><title>Node3&#45;&gt;Node4</title>
<path fill="none" stroke="midnightblue" d="M352.072,-12C360.621,-12 369.471,-12 378.04,-12"/>
<polygon fill="midnightblue" stroke="midnightblue" points="351.831,-8.5001 341.831,-12 351.831,-15.5001 351.831,-8.5001"/>
</g>
<!-- Node5 -->
<g id="node9" class="node"><title>Node5</title>
<a xlink:href="graphics__rebuild1_8cpp.html#ac2eae1e03fb72cc734ffbcef566483bf" target="_top" xlink:title="Boxes">
<polygon fill="white" stroke="black" points="524,-0 524,-24 568,-24 568,-0 524,-0"/>
<text text-anchor="middle" x="546" y="-11" font-family="Helvetica,sans-Serif" font-size="10.00">Boxes</text>
</a>
</g>
<!-- Node4&#45;&gt;Node5 -->
<g id="edge8" class="edge"><title>Node4&#45;&gt;Node5</title>
<path fill="none" stroke="midnightblue" d="M497.747,-12C507.112,-12 516.168,-12 523.856,-12"/>
<polygon fill="midnightblue" stroke="midnightblue" points="497.514,-8.5001 487.514,-12 497.514,-15.5001 497.514,-8.5001"/>
</g>
<!-- Node6 -->
<g id="node11" class="node"><title>Node6</title>
<a xlink:href="_m_a_i_n__avec__objets_8cpp.html#ade8d4ba65d55c94f8ee277829d722155" target="_top" xlink:title="main_actions_on_screen">
<polygon fill="white" stroke="black" points="604.5,-0 604.5,-24 729.5,-24 729.5,-0 604.5,-0"/>
<text text-anchor="middle" x="667" y="-11" font-family="Helvetica,sans-Serif" font-size="10.00">main_actions_on_screen</text>
</a>
</g>
<!-- Node5&#45;&gt;Node6 -->
<g id="edge10" class="edge"><title>Node5&#45;&gt;Node6</title>
<path fill="none" stroke="midnightblue" d="M578.244,-12C586.32,-12 595.263,-12 604.271,-12"/>
<polygon fill="midnightblue" stroke="midnightblue" points="578.193,-8.5001 568.193,-12 578.193,-15.5001 578.193,-8.5001"/>
</g>
<!-- Node7 -->
<g id="node13" class="node"><title>Node7</title>
<a xlink:href="_m_a_i_n__avec__objets_8cpp.html#ae66f6b31b5ad750f1fe042a706a4e3d4" target="_top" xlink:title="main">
<polygon fill="white" stroke="black" points="766,-0 766,-24 804,-24 804,-0 766,-0"/>
<text text-anchor="middle" x="785" y="-11" font-family="Helvetica,sans-Serif" font-size="10.00">main</text>
</a>
</g>
<!-- Node6&#45;&gt;Node7 -->
<g id="edge12" class="edge"><title>Node6&#45;&gt;Node7</title>
<path fill="none" stroke="midnightblue" d="M739.837,-12C749.336,-12 758.327,-12 765.749,-12"/>
<polygon fill="midnightblue" stroke="midnightblue" points="739.8,-8.5001 729.8,-12 739.8,-15.5001 739.8,-8.5001"/>
</g>
</g>
</svg>
