<?xml version="1.0" encoding="UTF-8" standalone="no"?>
<!DOCTYPE svg PUBLIC "-//W3C//DTD SVG 1.1//EN"
 "http://www.w3.org/Graphics/SVG/1.1/DTD/svg11.dtd">
<!-- Generated by graphviz version 2.26.3 (20100126.1600)
 -->
<!-- Title: patch_splines_2.cpp Pages: 1 -->
<svg width="368pt" height="158pt"
 viewBox="0.00 0.00 368.00 158.00" xmlns="http://www.w3.org/2000/svg" xmlns:xlink="http://www.w3.org/1999/xlink">
<g id="graph1" class="graph" transform="scale(1 1) rotate(0) translate(4 154)">
<title>patch_splines_2.cpp</title>
<polygon fill="white" stroke="white" points="-4,5 -4,-154 365,-154 365,5 -4,5"/>
<!-- Node1 -->
<g id="node1" class="node"><title>Node1</title>
<polygon fill="#bfbfbf" stroke="black" points="107,-125 107,-149 213,-149 213,-125 107,-125"/>
<text text-anchor="middle" x="160" y="-136" font-family="Helvetica,sans-Serif" font-size="10.00">patch_splines_2.cpp</text>
</g>
<!-- Node2 -->
<g id="node3" class="node"><title>Node2</title>
<polygon fill="white" stroke="#bfbfbf" points="-0.5,-63 -0.5,-87 52.5,-87 52.5,-63 -0.5,-63"/>
<text text-anchor="middle" x="26" y="-74" font-family="Helvetica,sans-Serif" font-size="10.00">allegro.h</text>
</g>
<!-- Node1&#45;&gt;Node2 -->
<g id="edge2" class="edge"><title>Node1&#45;&gt;Node2</title>
<path fill="none" stroke="midnightblue" d="M133.845,-124.899C113.186,-115.34 84.1471,-101.904 61.4064,-91.382"/>
<polygon fill="midnightblue" stroke="midnightblue" points="62.634,-88.0936 52.0887,-87.0709 59.6946,-94.4466 62.634,-88.0936"/>
</g>
<!-- Node3 -->
<g id="node5" class="node"><title>Node3</title>
<polygon fill="white" stroke="#bfbfbf" points="70,-63 70,-87 152,-87 152,-63 70,-63"/>
<text text-anchor="middle" x="111" y="-74" font-family="Helvetica,sans-Serif" font-size="10.00">OpenLayer.hpp</text>
</g>
<!-- Node1&#45;&gt;Node3 -->
<g id="edge4" class="edge"><title>Node1&#45;&gt;Node3</title>
<path fill="none" stroke="midnightblue" d="M150.319,-124.751C143.675,-116.344 134.702,-104.99 127.005,-95.2515"/>
<polygon fill="midnightblue" stroke="midnightblue" points="129.607,-92.8992 120.661,-87.2238 124.115,-97.2396 129.607,-92.8992"/>
</g>
<!-- Node4 -->
<g id="node7" class="node"><title>Node4</title>
<a xlink:href="colors__fonts_8h.html" target="_top" xlink:title="colors_fonts.h">
<polygon fill="white" stroke="black" points="170,-63 170,-87 248,-87 248,-63 170,-63"/>
<text text-anchor="middle" x="209" y="-74" font-family="Helvetica,sans-Serif" font-size="10.00">colors_fonts.h</text>
</a>
</g>
<!-- Node1&#45;&gt;Node4 -->
<g id="edge6" class="edge"><title>Node1&#45;&gt;Node4</title>
<path fill="none" stroke="midnightblue" d="M169.681,-124.751C176.325,-116.344 185.298,-104.99 192.995,-95.2515"/>
<polygon fill="midnightblue" stroke="midnightblue" points="195.885,-97.2396 199.339,-87.2238 190.393,-92.8992 195.885,-97.2396"/>
</g>
<!-- Node5 -->
<g id="node9" class="node"><title>Node5</title>
<a xlink:href="patch__splines__2_8h.html" target="_top" xlink:title="Functions for each channel in the dmx patch. ">
<polygon fill="white" stroke="black" points="265.5,-63 265.5,-87 360.5,-87 360.5,-63 265.5,-63"/>
<text text-anchor="middle" x="313" y="-74" font-family="Helvetica,sans-Serif" font-size="10.00">patch_splines_2.h</text>
</a>
</g>
<!-- Node1&#45;&gt;Node5 -->
<g id="edge8" class="edge"><title>Node1&#45;&gt;Node5</title>
<path fill="none" stroke="midnightblue" d="M189.863,-124.899C213.768,-115.212 247.498,-101.543 273.613,-90.9609"/>
<polygon fill="midnightblue" stroke="midnightblue" points="275.259,-94.0704 283.212,-87.0709 272.63,-87.5828 275.259,-94.0704"/>
</g>
<!-- Node6 -->
<g id="node11" class="node"><title>Node6</title>
<a xlink:href="graphic__context_8h.html" target="_top" xlink:title="Elements of the graphic context,. ">
<polygon fill="white" stroke="black" points="266,-1 266,-25 360,-25 360,-1 266,-1"/>
<text text-anchor="middle" x="313" y="-12" font-family="Helvetica,sans-Serif" font-size="10.00">graphic_context.h</text>
</a>
</g>
<!-- Node5&#45;&gt;Node6 -->
<g id="edge10" class="edge"><title>Node5&#45;&gt;Node6</title>
<path fill="none" stroke="midnightblue" d="M313,-62.7508C313,-54.9384 313,-44.581 313,-35.3399"/>
<polygon fill="midnightblue" stroke="midnightblue" points="316.5,-35.2237 313,-25.2238 309.5,-35.2238 316.5,-35.2237"/>
</g>
</g>
</svg>
