<?xml version="1.0" encoding="UTF-8" standalone="no"?>
<!DOCTYPE svg PUBLIC "-//W3C//DTD SVG 1.1//EN"
 "http://www.w3.org/Graphics/SVG/1.1/DTD/svg11.dtd">
<!-- Generated by graphviz version 2.26.3 (20100126.1600)
 -->
<!-- Title: menu_curve Pages: 1 -->
<svg width="490pt" height="32pt"
 viewBox="0.00 0.00 490.00 32.00" xmlns="http://www.w3.org/2000/svg" xmlns:xlink="http://www.w3.org/1999/xlink">
<g id="graph1" class="graph" transform="scale(1 1) rotate(0) translate(4 28)">
<title>menu_curve</title>
<polygon fill="white" stroke="white" points="-4,5 -4,-28 487,-28 487,5 -4,5"/>
<!-- Node1 -->
<g id="node1" class="node"><title>Node1</title>
<polygon fill="#bfbfbf" stroke="black" points="0,-0 0,-24 70,-24 70,-0 0,-0"/>
<text text-anchor="middle" x="35" y="-11" font-family="Helvetica,sans-Serif" font-size="10.00">menu_curve</text>
</g>
<!-- Node2 -->
<g id="node3" class="node"><title>Node2</title>
<a xlink:href="patch__visu_8cpp.html#a8e42b0461a50f387f75bee8b439d3584" target="_top" xlink:title="PatchBox">
<polygon fill="white" stroke="black" points="106.5,-0 106.5,-24 165.5,-24 165.5,-0 106.5,-0"/>
<text text-anchor="middle" x="136" y="-11" font-family="Helvetica,sans-Serif" font-size="10.00">PatchBox</text>
</a>
</g>
<!-- Node1&#45;&gt;Node2 -->
<g id="edge2" class="edge"><title>Node1&#45;&gt;Node2</title>
<path fill="none" stroke="midnightblue" d="M80.2726,-12C89.1293,-12 98.2028,-12 106.388,-12"/>
<polygon fill="midnightblue" stroke="midnightblue" points="80.0415,-8.5001 70.0414,-12 80.0414,-15.5001 80.0415,-8.5001"/>
</g>
<!-- Node3 -->
<g id="node5" class="node"><title>Node3</title>
<a xlink:href="graphics__rebuild1_8cpp.html#ac2eae1e03fb72cc734ffbcef566483bf" target="_top" xlink:title="Boxes">
<polygon fill="white" stroke="black" points="202,-0 202,-24 246,-24 246,-0 202,-0"/>
<text text-anchor="middle" x="224" y="-11" font-family="Helvetica,sans-Serif" font-size="10.00">Boxes</text>
</a>
</g>
<!-- Node2&#45;&gt;Node3 -->
<g id="edge4" class="edge"><title>Node2&#45;&gt;Node3</title>
<path fill="none" stroke="midnightblue" d="M175.995,-12C184.845,-12 193.913,-12 201.751,-12"/>
<polygon fill="midnightblue" stroke="midnightblue" points="175.793,-8.5001 165.793,-12 175.793,-15.5001 175.793,-8.5001"/>
</g>
<!-- Node4 -->
<g id="node7" class="node"><title>Node4</title>
<a xlink:href="_m_a_i_n__avec__objets_8cpp.html#ade8d4ba65d55c94f8ee277829d722155" target="_top" xlink:title="main_actions_on_screen">
<polygon fill="white" stroke="black" points="282.5,-0 282.5,-24 407.5,-24 407.5,-0 282.5,-0"/>
<text text-anchor="middle" x="345" y="-11" font-family="Helvetica,sans-Serif" font-size="10.00">main_actions_on_screen</text>
</a>
</g>
<!-- Node3&#45;&gt;Node4 -->
<g id="edge6" class="edge"><title>Node3&#45;&gt;Node4</title>
<path fill="none" stroke="midnightblue" d="M256.244,-12C264.32,-12 273.263,-12 282.271,-12"/>
<polygon fill="midnightblue" stroke="midnightblue" points="256.193,-8.5001 246.193,-12 256.193,-15.5001 256.193,-8.5001"/>
</g>
<!-- Node5 -->
<g id="node9" class="node"><title>Node5</title>
<a xlink:href="_m_a_i_n__avec__objets_8cpp.html#ae66f6b31b5ad750f1fe042a706a4e3d4" target="_top" xlink:title="main">
<polygon fill="white" stroke="black" points="444,-0 444,-24 482,-24 482,-0 444,-0"/>
<text text-anchor="middle" x="463" y="-11" font-family="Helvetica,sans-Serif" font-size="10.00">main</text>
</a>
</g>
<!-- Node4&#45;&gt;Node5 -->
<g id="edge8" class="edge"><title>Node4&#45;&gt;Node5</title>
<path fill="none" stroke="midnightblue" d="M417.837,-12C427.336,-12 436.327,-12 443.749,-12"/>
<polygon fill="midnightblue" stroke="midnightblue" points="417.8,-8.5001 407.8,-12 417.8,-15.5001 417.8,-8.5001"/>
</g>
</g>
</svg>
