<?xml version="1.0" encoding="UTF-8" standalone="no"?>
<!DOCTYPE svg PUBLIC "-//W3C//DTD SVG 1.1//EN"
 "http://www.w3.org/Graphics/SVG/1.1/DTD/svg11.dtd">
<!-- Generated by graphviz version 2.26.3 (20100126.1600)
 -->
<!-- Title: change_symbol_type Pages: 1 -->
<!--zoomable 145 -->
<svg id="main" version="1.1" xmlns="http://www.w3.org/2000/svg" xmlns:xlink="http://www.w3.org/1999/xlink" xml:space="preserve" onload="init(evt)">
<style type="text/css"><![CDATA[
.edge:hover path { stroke: red; }
.edge:hover polygon { stroke: red; fill: red; }
]]></style>
<script type="text/javascript"><![CDATA[
var edges = document.getElementsByTagName('g');
if (edges && edges.length) {
  for (var i=0;i<edges.length;i++) {
    if (edges[i].id.substr(0,4)=='edge') {
      edges[i].setAttribute('class','edge');
    }
  }
}
]]></script>
        <defs>
                <circle id="rim" cx="0" cy="0" r="7"/>
                <circle id="rim2" cx="0" cy="0" r="3.5"/>
                <g id="zoomPlus">
                        <use xlink:href="#rim" fill="#404040">
                                <set attributeName="fill" to="#808080" begin="zoomplus.mouseover" end="zoomplus.mouseout"/>
                        </use>
                        <path d="M-4,0h8M0,-4v8" fill="none" stroke="white" stroke-width="1.5" pointer-events="none"/>
                </g>
                <g id="zoomMin">
                        <use xlink:href="#rim" fill="#404040">
                                <set attributeName="fill" to="#808080" begin="zoomminus.mouseover" end="zoomminus.mouseout"/>
                        </use>
                        <path d="M-4,0h8" fill="none" stroke="white" stroke-width="1.5" pointer-events="none"/>
                </g>
                <g id="dirArrow">
                        <path fill="none" stroke="white" stroke-width="1.5" d="M0,-3.0v7 M-2.5,-0.5L0,-3.0L2.5,-0.5"/>
                </g>
               <g id="resetDef">
                       <use xlink:href="#rim2" fill="#404040">
                               <set attributeName="fill" to="#808080" begin="reset.mouseover" end="reset.mouseout"/>
                       </use>
               </g>
        </defs>

<script type="text/javascript">
var viewWidth = 942;
var viewHeight = 145;
var sectionId = 'dynsection-6';
</script>
<script xlink:href="svgpan.js"/>
<svg id="graph" class="graph">
<g id="viewport">
<title>change_symbol_type</title>
<polygon fill="white" stroke="white" points="-4,5 -4,-141 939,-141 939,5 -4,5"/>
<!-- Node1 -->
<g id="node1" class="node"><title>Node1</title>
<polygon fill="#bfbfbf" stroke="black" points="0.5,-22 0.5,-46 109.5,-46 109.5,-22 0.5,-22"/>
<text text-anchor="middle" x="55" y="-33" font-family="Helvetica,sans-Serif" font-size="10.00">change_symbol_type</text>
</g>
<!-- Node2 -->
<g id="node3" class="node"><title>Node2</title>
<a xlink:href="midi__13_8cpp.html#a6dff3d42682b58cc0a9875ee30fb4cd4" target="_top" xlink:title="do_midi_job">
<polygon fill="white" stroke="black" points="172,-43 172,-67 240,-67 240,-43 172,-43"/>
<text text-anchor="middle" x="206" y="-54" font-family="Helvetica,sans-Serif" font-size="10.00">do_midi_job</text>
</a>
</g>
<!-- Node1&#45;&gt;Node2 -->
<g id="edge2" class="edge"><title>Node1&#45;&gt;Node2</title>
<path fill="none" stroke="midnightblue" d="M119.648,-42.9907C137.57,-45.4832 156.325,-48.0915 171.759,-50.2381"/>
<polygon fill="midnightblue" stroke="midnightblue" points="119.901,-39.4924 109.514,-41.5815 118.937,-46.4257 119.901,-39.4924"/>
</g>
<!-- Node9 -->
<g id="node18" class="node"><title>Node9</title>
<a xlink:href="plot_8cpp.html#a6ff8cd924e588a71a1366288cf8dc41b" target="_top" xlink:title="logical_plot_symbol_list">
<polygon fill="white" stroke="black" points="146,-1 146,-25 266,-25 266,-1 146,-1"/>
<text text-anchor="middle" x="206" y="-12" font-family="Helvetica,sans-Serif" font-size="10.00">logical_plot_symbol_list</text>
</a>
</g>
<!-- Node1&#45;&gt;Node9 -->
<g id="edge18" class="edge"><title>Node1&#45;&gt;Node9</title>
<path fill="none" stroke="midnightblue" d="M119.642,-25.0101C128.37,-23.7962 137.297,-22.5547 145.941,-21.3526"/>
<polygon fill="midnightblue" stroke="midnightblue" points="118.937,-21.5743 109.514,-26.4185 119.901,-28.5076 118.937,-21.5743"/>
</g>
<!-- Node3 -->
<g id="node5" class="node"><title>Node3</title>
<a xlink:href="midi__13_8cpp.html#a6bedf9750195224914cd87c4e73ab626" target="_top" xlink:title="ventilate_midi_to_midiarray">
<polygon fill="white" stroke="black" points="302.5,-44 302.5,-68 437.5,-68 437.5,-44 302.5,-44"/>
<text text-anchor="middle" x="370" y="-55" font-family="Helvetica,sans-Serif" font-size="10.00">ventilate_midi_to_midiarray</text>
</a>
</g>
<!-- Node2&#45;&gt;Node3 -->
<g id="edge4" class="edge"><title>Node2&#45;&gt;Node3</title>
<path fill="none" stroke="midnightblue" d="M250.467,-55.2711C266.397,-55.3683 284.737,-55.4801 302.192,-55.5865"/>
<polygon fill="midnightblue" stroke="midnightblue" points="250.401,-51.7708 240.38,-55.2096 250.358,-58.7706 250.401,-51.7708"/>
</g>
<!-- Node4 -->
<g id="node7" class="node"><title>Node4</title>
<a xlink:href="midi__13_8cpp.html#afa49dd5668303c2448676c8243737c2d" target="_top" xlink:title="simulate_midi">
<polygon fill="white" stroke="black" points="474.5,-47 474.5,-71 551.5,-71 551.5,-47 474.5,-47"/>
<text text-anchor="middle" x="513" y="-58" font-family="Helvetica,sans-Serif" font-size="10.00">simulate_midi</text>
</a>
</g>
<!-- Node3&#45;&gt;Node4 -->
<g id="edge6" class="edge"><title>Node3&#45;&gt;Node4</title>
<path fill="none" stroke="midnightblue" d="M447.744,-57.631C456.949,-57.8241 466.014,-58.0143 474.324,-58.1886"/>
<polygon fill="midnightblue" stroke="midnightblue" points="447.802,-54.1315 437.731,-57.4209 447.655,-61.13 447.802,-54.1315"/>
</g>
<!-- Node5 -->
<g id="node9" class="node"><title>Node5</title>
<a xlink:href="arduino__core__6___u_n_o_8cpp.html#ae72d1a8d74d9ab5515962e03e7e664d6" target="_top" xlink:title="arduino_do_analog_in\l_whitecat">
<polygon fill="white" stroke="black" points="588,-97 588,-137 698,-137 698,-97 588,-97"/>
<text text-anchor="start" x="596" y="-124" font-family="Helvetica,sans-Serif" font-size="10.00">arduino_do_analog_in</text>
<text text-anchor="middle" x="643" y="-108" font-family="Helvetica,sans-Serif" font-size="10.00">_whitecat</text>
</a>
</g>
<!-- Node4&#45;&gt;Node5 -->
<g id="edge8" class="edge"><title>Node4&#45;&gt;Node5</title>
<path fill="none" stroke="midnightblue" d="M549.415,-75.2465C564.467,-81.962 582.072,-89.8169 597.927,-96.8905"/>
<polygon fill="midnightblue" stroke="midnightblue" points="550.494,-71.8958 539.936,-71.0176 547.642,-78.2884 550.494,-71.8958"/>
</g>
<!-- Node8 -->
<g id="node15" class="node"><title>Node8</title>
<a xlink:href="arduino__core__6___u_n_o_8cpp.html#a219226c1cd6cc17c78e62fd4445bb445" target="_top" xlink:title="arduino_do_digital\l_in_whitecat">
<polygon fill="white" stroke="black" points="595.5,-39 595.5,-79 690.5,-79 690.5,-39 595.5,-39"/>
<text text-anchor="start" x="603.5" y="-66" font-family="Helvetica,sans-Serif" font-size="10.00">arduino_do_digital</text>
<text text-anchor="middle" x="643" y="-50" font-family="Helvetica,sans-Serif" font-size="10.00">_in_whitecat</text>
</a>
</g>
<!-- Node4&#45;&gt;Node8 -->
<g id="edge14" class="edge"><title>Node4&#45;&gt;Node8</title>
<path fill="none" stroke="midnightblue" d="M561.833,-59C572.703,-59 584.216,-59 595.05,-59"/>
<polygon fill="midnightblue" stroke="midnightblue" points="561.652,-55.5001 551.652,-59 561.652,-62.5001 561.652,-55.5001"/>
</g>
<!-- Node6 -->
<g id="node11" class="node"><title>Node6</title>
<a xlink:href="_m_a_i_n__avec__objets_8cpp.html#ace9c8a9b37c6087c3cffef442d71d70e" target="_top" xlink:title="dixiemes_de_secondes">
<polygon fill="white" stroke="black" points="737.5,-47 737.5,-71 856.5,-71 856.5,-47 737.5,-47"/>
<text text-anchor="middle" x="797" y="-58" font-family="Helvetica,sans-Serif" font-size="10.00">dixiemes_de_secondes</text>
</a>
</g>
<!-- Node5&#45;&gt;Node6 -->
<g id="edge10" class="edge"><title>Node5&#45;&gt;Node6</title>
<path fill="none" stroke="midnightblue" d="M705.912,-93.3058C726.133,-85.6903 747.695,-77.5695 764.762,-71.1416"/>
<polygon fill="midnightblue" stroke="midnightblue" points="704.554,-90.0772 696.43,-96.8772 707.021,-96.628 704.554,-90.0772"/>
</g>
<!-- Node7 -->
<g id="node13" class="node"><title>Node7</title>
<a xlink:href="_m_a_i_n__avec__objets_8cpp.html#ae66f6b31b5ad750f1fe042a706a4e3d4" target="_top" xlink:title="main">
<polygon fill="white" stroke="black" points="896,-26 896,-50 934,-50 934,-26 896,-26"/>
<text text-anchor="middle" x="915" y="-37" font-family="Helvetica,sans-Serif" font-size="10.00">main</text>
</a>
</g>
<!-- Node6&#45;&gt;Node7 -->
<g id="edge12" class="edge"><title>Node6&#45;&gt;Node7</title>
<path fill="none" stroke="midnightblue" d="M866.608,-46.6121C877.305,-44.7083 887.522,-42.8902 895.787,-41.4193"/>
<polygon fill="midnightblue" stroke="midnightblue" points="865.923,-43.1789 856.691,-48.377 867.15,-50.0706 865.923,-43.1789"/>
</g>
<!-- Node8&#45;&gt;Node6 -->
<g id="edge16" class="edge"><title>Node8&#45;&gt;Node6</title>
<path fill="none" stroke="midnightblue" d="M701.131,-59C713.015,-59 725.539,-59 737.472,-59"/>
<polygon fill="midnightblue" stroke="midnightblue" points="700.882,-55.5001 690.882,-59 700.882,-62.5001 700.882,-55.5001"/>
</g>
<!-- Node10 -->
<g id="node20" class="node"><title>Node10</title>
<a xlink:href="plot_8cpp.html#a3d45bfc1bc76a3d67ad1a8bb3d63163d" target="_top" xlink:title="Plot_window">
<polygon fill="white" stroke="black" points="334,-1 334,-25 406,-25 406,-1 334,-1"/>
<text text-anchor="middle" x="370" y="-12" font-family="Helvetica,sans-Serif" font-size="10.00">Plot_window</text>
</a>
</g>
<!-- Node9&#45;&gt;Node10 -->
<g id="edge20" class="edge"><title>Node9&#45;&gt;Node10</title>
<path fill="none" stroke="midnightblue" d="M276.366,-13C296.137,-13 316.829,-13 333.718,-13"/>
<polygon fill="midnightblue" stroke="midnightblue" points="276.136,-9.5001 266.136,-13 276.136,-16.5001 276.136,-9.5001"/>
</g>
<!-- Node11 -->
<g id="node22" class="node"><title>Node11</title>
<a xlink:href="graphics__rebuild1_8cpp.html#ac2eae1e03fb72cc734ffbcef566483bf" target="_top" xlink:title="Boxes">
<polygon fill="white" stroke="black" points="491,-0 491,-24 535,-24 535,-0 491,-0"/>
<text text-anchor="middle" x="513" y="-11" font-family="Helvetica,sans-Serif" font-size="10.00">Boxes</text>
</a>
</g>
<!-- Node10&#45;&gt;Node11 -->
<g id="edge22" class="edge"><title>Node10&#45;&gt;Node11</title>
<path fill="none" stroke="midnightblue" d="M416.111,-12.6775C441.117,-12.5027 470.885,-12.2945 490.764,-12.1555"/>
<polygon fill="midnightblue" stroke="midnightblue" points="416.06,-9.17772 406.085,-12.7477 416.109,-16.1775 416.06,-9.17772"/>
</g>
<!-- Node12 -->
<g id="node24" class="node"><title>Node12</title>
<a xlink:href="_m_a_i_n__avec__objets_8cpp.html#ade8d4ba65d55c94f8ee277829d722155" target="_top" xlink:title="main_actions_on_screen">
<polygon fill="white" stroke="black" points="734.5,-2 734.5,-26 859.5,-26 859.5,-2 734.5,-2"/>
<text text-anchor="middle" x="797" y="-13" font-family="Helvetica,sans-Serif" font-size="10.00">main_actions_on_screen</text>
</a>
</g>
<!-- Node11&#45;&gt;Node12 -->
<g id="edge24" class="edge"><title>Node11&#45;&gt;Node12</title>
<path fill="none" stroke="midnightblue" d="M545.548,-12.2292C591.467,-12.5526 676.166,-13.1491 734.483,-13.5597"/>
<polygon fill="midnightblue" stroke="midnightblue" points="545.309,-8.72754 535.285,-12.1569 545.26,-15.7274 545.309,-8.72754"/>
</g>
<!-- Node12&#45;&gt;Node7 -->
<g id="edge26" class="edge"><title>Node12&#45;&gt;Node7</title>
<path fill="none" stroke="midnightblue" d="M866.386,-28.1124C877.218,-30.3156 887.569,-32.4207 895.913,-34.1179"/>
<polygon fill="midnightblue" stroke="midnightblue" points="866.843,-24.6337 856.346,-26.0703 865.447,-31.4933 866.843,-24.6337"/>
</g>
</g>
</svg>
        <g id="navigator" transform="translate(0 0)" fill="#404254">
                <rect fill="#f2f5e9" fill-opacity="0.5" stroke="#606060" stroke-width=".5" x="0" y="0" width="60" height="60"/>
                <use id="zoomplus" xlink:href="#zoomPlus" x="17" y="9" onmousedown="handleZoom(evt,'in')"/>
                <use id="zoomminus" xlink:href="#zoomMin" x="42" y="9" onmousedown="handleZoom(evt,'out')"/>
                <use id="reset" xlink:href="#resetDef" x="30" y="36" onmousedown="handleReset()"/>
                <g id="arrowUp" xlink:href="#dirArrow" transform="translate(30 24)" onmousedown="handlePan(0,-1)">
                  <use xlink:href="#rim" fill="#404040">
                        <set attributeName="fill" to="#808080" begin="arrowUp.mouseover" end="arrowUp.mouseout"/>
                  </use>
                  <path fill="none" stroke="white" stroke-width="1.5" d="M0,-3.0v7 M-2.5,-0.5L0,-3.0L2.5,-0.5"/>
                </g>
                <g id="arrowRight" xlink:href="#dirArrow" transform="rotate(90) translate(36 -43)" onmousedown="handlePan(1,0)">
                  <use xlink:href="#rim" fill="#404040">
                        <set attributeName="fill" to="#808080" begin="arrowRight.mouseover" end="arrowRight.mouseout"/>
                  </use>
                  <path fill="none" stroke="white" stroke-width="1.5" d="M0,-3.0v7 M-2.5,-0.5L0,-3.0L2.5,-0.5"/>
                </g>
                <g id="arrowDown" xlink:href="#dirArrow" transform="rotate(180) translate(-30 -48)" onmousedown="handlePan(0,1)">
                  <use xlink:href="#rim" fill="#404040">
                        <set attributeName="fill" to="#808080" begin="arrowDown.mouseover" end="arrowDown.mouseout"/>
                  </use>
                  <path fill="none" stroke="white" stroke-width="1.5" d="M0,-3.0v7 M-2.5,-0.5L0,-3.0L2.5,-0.5"/>
                </g>
                <g id="arrowLeft" xlink:href="#dirArrow" transform="rotate(270) translate(-36 17)" onmousedown="handlePan(-1,0)">
                  <use xlink:href="#rim" fill="#404040">
                        <set attributeName="fill" to="#808080" begin="arrowLeft.mouseover" end="arrowLeft.mouseout"/>
                  </use>
                  <path fill="none" stroke="white" stroke-width="1.5" d="M0,-3.0v7 M-2.5,-0.5L0,-3.0L2.5,-0.5"/>
                </g>
        </g>
        <svg viewBox="0 0 15 15" width="100%" height="30px" preserveAspectRatio="xMaxYMin meet">
         <g id="arrow_out" transform="scale(0.3 0.3)">
          <a xlink:href="plot_8cpp_ae4d4bf060a0f2c56a500418205a18c5b_icgraph_org.svg" target="_base">
           <rect id="button" ry="5" rx="5" y="6" x="6" height="38" width="38"
                fill="#f2f5e9" fill-opacity="0.5" stroke="#606060" stroke-width="1.0"/>
           <path id="arrow"
             d="M 11.500037,31.436501 C 11.940474,20.09759 22.043105,11.32322 32.158766,21.979434 L 37.068811,17.246167 C 37.068811,17.246167 37.088388,32 37.088388,32 L 22.160133,31.978069 C 22.160133,31.978069 26.997745,27.140456 26.997745,27.140456 C 18.528582,18.264221 13.291696,25.230495 11.500037,31.436501 z"
             style="fill:#404040;"/>
          </a>
         </g>
        </svg>
</svg>
