<?xml version="1.0" encoding="UTF-8" standalone="no"?>
<!DOCTYPE svg PUBLIC "-//W3C//DTD SVG 1.1//EN"
 "http://www.w3.org/Graphics/SVG/1.1/DTD/svg11.dtd">
<!-- Generated by graphviz version 2.26.3 (20100126.1600)
 -->
<!-- Title: plot_draw_symbol_fresnel Pages: 1 -->
<svg width="686pt" height="74pt"
 viewBox="0.00 0.00 686.00 74.00" xmlns="http://www.w3.org/2000/svg" xmlns:xlink="http://www.w3.org/1999/xlink">
<g id="graph1" class="graph" transform="scale(1 1) rotate(0) translate(4 70)">
<title>plot_draw_symbol_fresnel</title>
<polygon fill="white" stroke="white" points="-4,5 -4,-70 683,-70 683,5 -4,5"/>
<!-- Node1 -->
<g id="node1" class="node"><title>Node1</title>
<polygon fill="#bfbfbf" stroke="black" points="0,-21 0,-45 130,-45 130,-21 0,-21"/>
<text text-anchor="middle" x="65" y="-32" font-family="Helvetica,sans-Serif" font-size="10.00">plot_draw_symbol_fresnel</text>
</g>
<!-- Node2 -->
<g id="node3" class="node"><title>Node2</title>
<a xlink:href="plot_8cpp.html#a08296cc3ee305018568ea075f64d5640" target="_top" xlink:title="plot_symbol_list">
<polygon fill="white" stroke="black" points="166.5,-42 166.5,-66 253.5,-66 253.5,-42 166.5,-42"/>
<text text-anchor="middle" x="210" y="-53" font-family="Helvetica,sans-Serif" font-size="10.00">plot_symbol_list</text>
</a>
</g>
<!-- Node1&#45;&gt;Node2 -->
<g id="edge2" class="edge"><title>Node1&#45;&gt;Node2</title>
<path fill="none" stroke="midnightblue" d="M140.311,-43.9071C149.192,-45.1934 158.017,-46.4714 166.251,-47.6639"/>
<polygon fill="midnightblue" stroke="midnightblue" points="140.687,-40.4252 130.289,-42.4556 139.684,-47.3529 140.687,-40.4252"/>
</g>
<!-- Node7 -->
<g id="node13" class="node"><title>Node7</title>
<a xlink:href="plot_8cpp.html#ab1ead0218cc4468327a83bc54864cf3e" target="_top" xlink:title="plot_draw_plan">
<polygon fill="white" stroke="black" points="169,-0 169,-24 251,-24 251,-0 169,-0"/>
<text text-anchor="middle" x="210" y="-11" font-family="Helvetica,sans-Serif" font-size="10.00">plot_draw_plan</text>
</a>
</g>
<!-- Node1&#45;&gt;Node7 -->
<g id="edge12" class="edge"><title>Node1&#45;&gt;Node7</title>
<path fill="none" stroke="midnightblue" d="M140.439,-22.0744C150.182,-20.6633 159.854,-19.2625 168.75,-17.9741"/>
<polygon fill="midnightblue" stroke="midnightblue" points="139.684,-18.6471 130.289,-23.5444 140.687,-25.5748 139.684,-18.6471"/>
</g>
<!-- Node3 -->
<g id="node5" class="node"><title>Node3</title>
<a xlink:href="plot_8cpp.html#a3d45bfc1bc76a3d67ad1a8bb3d63163d" target="_top" xlink:title="Plot_window">
<polygon fill="white" stroke="black" points="290,-21 290,-45 362,-45 362,-21 290,-21"/>
<text text-anchor="middle" x="326" y="-32" font-family="Helvetica,sans-Serif" font-size="10.00">Plot_window</text>
</a>
</g>
<!-- Node2&#45;&gt;Node3 -->
<g id="edge4" class="edge"><title>Node2&#45;&gt;Node3</title>
<path fill="none" stroke="midnightblue" d="M263.485,-44.3175C272.401,-42.7034 281.46,-41.0633 289.812,-39.5512"/>
<polygon fill="midnightblue" stroke="midnightblue" points="262.741,-40.8951 253.524,-46.1206 263.988,-47.7832 262.741,-40.8951"/>
</g>
<!-- Node4 -->
<g id="node7" class="node"><title>Node4</title>
<a xlink:href="graphics__rebuild1_8cpp.html#ac2eae1e03fb72cc734ffbcef566483bf" target="_top" xlink:title="Boxes">
<polygon fill="white" stroke="black" points="398,-21 398,-45 442,-45 442,-21 398,-21"/>
<text text-anchor="middle" x="420" y="-32" font-family="Helvetica,sans-Serif" font-size="10.00">Boxes</text>
</a>
</g>
<!-- Node3&#45;&gt;Node4 -->
<g id="edge6" class="edge"><title>Node3&#45;&gt;Node4</title>
<path fill="none" stroke="midnightblue" d="M372.084,-33C381.028,-33 390.017,-33 397.753,-33"/>
<polygon fill="midnightblue" stroke="midnightblue" points="372.074,-29.5001 362.074,-33 372.074,-36.5001 372.074,-29.5001"/>
</g>
<!-- Node5 -->
<g id="node9" class="node"><title>Node5</title>
<a xlink:href="_m_a_i_n__avec__objets_8cpp.html#ade8d4ba65d55c94f8ee277829d722155" target="_top" xlink:title="main_actions_on_screen">
<polygon fill="white" stroke="black" points="478.5,-21 478.5,-45 603.5,-45 603.5,-21 478.5,-21"/>
<text text-anchor="middle" x="541" y="-32" font-family="Helvetica,sans-Serif" font-size="10.00">main_actions_on_screen</text>
</a>
</g>
<!-- Node4&#45;&gt;Node5 -->
<g id="edge8" class="edge"><title>Node4&#45;&gt;Node5</title>
<path fill="none" stroke="midnightblue" d="M452.244,-33C460.32,-33 469.263,-33 478.271,-33"/>
<polygon fill="midnightblue" stroke="midnightblue" points="452.193,-29.5001 442.193,-33 452.193,-36.5001 452.193,-29.5001"/>
</g>
<!-- Node6 -->
<g id="node11" class="node"><title>Node6</title>
<a xlink:href="_m_a_i_n__avec__objets_8cpp.html#ae66f6b31b5ad750f1fe042a706a4e3d4" target="_top" xlink:title="main">
<polygon fill="white" stroke="black" points="640,-21 640,-45 678,-45 678,-21 640,-21"/>
<text text-anchor="middle" x="659" y="-32" font-family="Helvetica,sans-Serif" font-size="10.00">main</text>
</a>
</g>
<!-- Node5&#45;&gt;Node6 -->
<g id="edge10" class="edge"><title>Node5&#45;&gt;Node6</title>
<path fill="none" stroke="midnightblue" d="M613.837,-33C623.336,-33 632.327,-33 639.749,-33"/>
<polygon fill="midnightblue" stroke="midnightblue" points="613.8,-29.5001 603.8,-33 613.8,-36.5001 613.8,-29.5001"/>
</g>
<!-- Node7&#45;&gt;Node3 -->
<g id="edge14" class="edge"><title>Node7&#45;&gt;Node3</title>
<path fill="none" stroke="midnightblue" d="M261.181,-21.2654C270.869,-23.0193 280.814,-24.8198 289.915,-26.4674"/>
<polygon fill="midnightblue" stroke="midnightblue" points="261.687,-17.8004 251.224,-19.4629 260.44,-24.6884 261.687,-17.8004"/>
</g>
</g>
</svg>
