<?xml version="1.0" encoding="UTF-8" standalone="no"?>
<!DOCTYPE svg PUBLIC "-//W3C//DTD SVG 1.1//EN"
 "http://www.w3.org/Graphics/SVG/1.1/DTD/svg11.dtd">
<!-- Generated by graphviz version 2.26.3 (20100126.1600)
 -->
<!-- Title: plot_draw_plan Pages: 1 -->
<svg width="514pt" height="32pt"
 viewBox="0.00 0.00 514.00 32.00" xmlns="http://www.w3.org/2000/svg" xmlns:xlink="http://www.w3.org/1999/xlink">
<g id="graph1" class="graph" transform="scale(1 1) rotate(0) translate(4 28)">
<title>plot_draw_plan</title>
<polygon fill="white" stroke="white" points="-4,5 -4,-28 511,-28 511,5 -4,5"/>
<!-- Node1 -->
<g id="node1" class="node"><title>Node1</title>
<polygon fill="#bfbfbf" stroke="black" points="0,-0 0,-24 82,-24 82,-0 0,-0"/>
<text text-anchor="middle" x="41" y="-11" font-family="Helvetica,sans-Serif" font-size="10.00">plot_draw_plan</text>
</g>
<!-- Node2 -->
<g id="node3" class="node"><title>Node2</title>
<a xlink:href="plot_8cpp.html#a3d45bfc1bc76a3d67ad1a8bb3d63163d" target="_top" xlink:title="Plot_window">
<polygon fill="white" stroke="black" points="118,-0 118,-24 190,-24 190,-0 118,-0"/>
<text text-anchor="middle" x="154" y="-11" font-family="Helvetica,sans-Serif" font-size="10.00">Plot_window</text>
</a>
</g>
<!-- Node1&#45;&gt;Node2 -->
<g id="edge2" class="edge"><title>Node1&#45;&gt;Node2</title>
<path fill="none" stroke="midnightblue" d="M92.1963,-12C100.893,-12 109.758,-12 117.958,-12"/>
<polygon fill="midnightblue" stroke="midnightblue" points="92.1153,-8.5001 82.1153,-12 92.1152,-15.5001 92.1153,-8.5001"/>
</g>
<!-- Node3 -->
<g id="node5" class="node"><title>Node3</title>
<a xlink:href="graphics__rebuild1_8cpp.html#ac2eae1e03fb72cc734ffbcef566483bf" target="_top" xlink:title="Boxes">
<polygon fill="white" stroke="black" points="226,-0 226,-24 270,-24 270,-0 226,-0"/>
<text text-anchor="middle" x="248" y="-11" font-family="Helvetica,sans-Serif" font-size="10.00">Boxes</text>
</a>
</g>
<!-- Node2&#45;&gt;Node3 -->
<g id="edge4" class="edge"><title>Node2&#45;&gt;Node3</title>
<path fill="none" stroke="midnightblue" d="M200.084,-12C209.028,-12 218.017,-12 225.753,-12"/>
<polygon fill="midnightblue" stroke="midnightblue" points="200.074,-8.5001 190.074,-12 200.074,-15.5001 200.074,-8.5001"/>
</g>
<!-- Node4 -->
<g id="node7" class="node"><title>Node4</title>
<a xlink:href="_m_a_i_n__avec__objets_8cpp.html#ade8d4ba65d55c94f8ee277829d722155" target="_top" xlink:title="main_actions_on_screen">
<polygon fill="white" stroke="black" points="306.5,-0 306.5,-24 431.5,-24 431.5,-0 306.5,-0"/>
<text text-anchor="middle" x="369" y="-11" font-family="Helvetica,sans-Serif" font-size="10.00">main_actions_on_screen</text>
</a>
</g>
<!-- Node3&#45;&gt;Node4 -->
<g id="edge6" class="edge"><title>Node3&#45;&gt;Node4</title>
<path fill="none" stroke="midnightblue" d="M280.244,-12C288.32,-12 297.263,-12 306.271,-12"/>
<polygon fill="midnightblue" stroke="midnightblue" points="280.193,-8.5001 270.193,-12 280.193,-15.5001 280.193,-8.5001"/>
</g>
<!-- Node5 -->
<g id="node9" class="node"><title>Node5</title>
<a xlink:href="_m_a_i_n__avec__objets_8cpp.html#ae66f6b31b5ad750f1fe042a706a4e3d4" target="_top" xlink:title="main">
<polygon fill="white" stroke="black" points="468,-0 468,-24 506,-24 506,-0 468,-0"/>
<text text-anchor="middle" x="487" y="-11" font-family="Helvetica,sans-Serif" font-size="10.00">main</text>
</a>
</g>
<!-- Node4&#45;&gt;Node5 -->
<g id="edge8" class="edge"><title>Node4&#45;&gt;Node5</title>
<path fill="none" stroke="midnightblue" d="M441.837,-12C451.336,-12 460.327,-12 467.749,-12"/>
<polygon fill="midnightblue" stroke="midnightblue" points="441.8,-8.5001 431.8,-12 441.8,-15.5001 441.8,-8.5001"/>
</g>
</g>
</svg>
