<?xml version="1.0" encoding="UTF-8" standalone="no"?>
<!DOCTYPE svg PUBLIC "-//W3C//DTD SVG 1.1//EN"
 "http://www.w3.org/Graphics/SVG/1.1/DTD/svg11.dtd">
<!-- Generated by graphviz version 2.26.3 (20100126.1600)
 -->
<!-- Title: substract_channel_selection_to_layers_plot Pages: 1 -->
<svg width="820pt" height="481pt"
 viewBox="0.00 0.00 820.00 481.25" xmlns="http://www.w3.org/2000/svg" xmlns:xlink="http://www.w3.org/1999/xlink">
<g id="graph1" class="graph" transform="scale(1 1) rotate(0) translate(4 477.254)">
<title>substract_channel_selection_to_layers_plot</title>
<polygon fill="white" stroke="white" points="-4,5 -4,-477.254 817,-477.254 817,5 -4,5"/>
<!-- Node1 -->
<g id="node1" class="node"><title>Node1</title>
<polygon fill="#bfbfbf" stroke="black" points="0,-185.254 0,-225.254 140,-225.254 140,-185.254 0,-185.254"/>
<text text-anchor="start" x="8" y="-212.254" font-family="Helvetica,sans-Serif" font-size="10.00">substract_channel_selection</text>
<text text-anchor="middle" x="70" y="-196.254" font-family="Helvetica,sans-Serif" font-size="10.00">_to_layers_plot</text>
</g>
<!-- Node2 -->
<g id="node3" class="node"><title>Node2</title>
<a xlink:href="channels__9__core_8cpp.html#a09d040accbbdb21abd07c17fa86329d2" target="_top" xlink:title="do_logical_Draw_Channel\l_Preset_View">
<polygon fill="white" stroke="black" points="182,-333.254 182,-373.254 312,-373.254 312,-333.254 182,-333.254"/>
<text text-anchor="start" x="190" y="-360.254" font-family="Helvetica,sans-Serif" font-size="10.00">do_logical_Draw_Channel</text>
<text text-anchor="middle" x="247" y="-344.254" font-family="Helvetica,sans-Serif" font-size="10.00">_Preset_View</text>
</a>
</g>
<!-- Node1&#45;&gt;Node2 -->
<g id="edge2" class="edge"><title>Node1&#45;&gt;Node2</title>
<path fill="none" stroke="midnightblue" d="M91.2483,-233.56C111.075,-258.521 142.553,-294.653 176,-319.254 182.936,-324.355 190.758,-329.005 198.61,-333.116"/>
<polygon fill="midnightblue" stroke="midnightblue" points="93.904,-231.274 84.9851,-225.555 88.3911,-235.588 93.904,-231.274"/>
</g>
<!-- Node7 -->
<g id="node13" class="node"><title>Node7</title>
<a xlink:href="channels__9__core_8cpp.html#a4d0180478d0c1b3aa508163de8d99966" target="_top" xlink:title="do_logical_ClassicalChannel\lSpace">
<polygon fill="white" stroke="black" points="176,-391.254 176,-431.254 318,-431.254 318,-391.254 176,-391.254"/>
<text text-anchor="start" x="184" y="-418.254" font-family="Helvetica,sans-Serif" font-size="10.00">do_logical_ClassicalChannel</text>
<text text-anchor="middle" x="247" y="-402.254" font-family="Helvetica,sans-Serif" font-size="10.00">Space</text>
</a>
</g>
<!-- Node1&#45;&gt;Node7 -->
<g id="edge12" class="edge"><title>Node1&#45;&gt;Node7</title>
<path fill="none" stroke="midnightblue" d="M80.8713,-235.021C96.4184,-273.799 128.478,-341.449 176,-382.254 179.839,-385.55 184.102,-388.506 188.58,-391.151"/>
<polygon fill="midnightblue" stroke="midnightblue" points="83.9958,-233.399 77.0997,-225.356 77.4747,-235.944 83.9958,-233.399"/>
</g>
<!-- Node8 -->
<g id="node16" class="node"><title>Node8</title>
<a xlink:href="keyboard__functions2_8cpp.html#ab1d5b3deffbd55172eb2a8e559b13ed8" target="_top" xlink:title="select_channel_minus">
<polygon fill="white" stroke="black" points="190.5,-173.254 190.5,-197.254 303.5,-197.254 303.5,-173.254 190.5,-173.254"/>
<text text-anchor="middle" x="247" y="-184.254" font-family="Helvetica,sans-Serif" font-size="10.00">select_channel_minus</text>
</a>
</g>
<!-- Node1&#45;&gt;Node8 -->
<g id="edge16" class="edge"><title>Node1&#45;&gt;Node8</title>
<path fill="none" stroke="midnightblue" d="M150.416,-196.167C163.854,-194.649 177.543,-193.102 190.23,-191.668"/>
<polygon fill="midnightblue" stroke="midnightblue" points="149.753,-192.72 140.209,-197.32 150.539,-199.675 149.753,-192.72"/>
</g>
<!-- Node9 -->
<g id="node18" class="node"><title>Node9</title>
<a xlink:href="keyboard__functions2_8cpp.html#a550bced3dbf99b30877939e8931f68c7" target="_top" xlink:title="key_left">
<polygon fill="white" stroke="black" points="383.5,-173.254 383.5,-197.254 434.5,-197.254 434.5,-173.254 383.5,-173.254"/>
<text text-anchor="middle" x="409" y="-184.254" font-family="Helvetica,sans-Serif" font-size="10.00">key_left</text>
</a>
</g>
<!-- Node1&#45;&gt;Node9 -->
<g id="edge50" class="edge"><title>Node1&#45;&gt;Node9</title>
<path fill="none" stroke="midnightblue" d="M150.412,-210.335C199.074,-212.229 262.286,-212.599 318,-206.254 340.392,-203.703 365.296,-197.731 383.383,-192.805"/>
<polygon fill="midnightblue" stroke="midnightblue" points="150.395,-206.831 140.257,-209.909 150.102,-213.825 150.395,-206.831"/>
</g>
<!-- Node10 -->
<g id="node20" class="node"><title>Node10</title>
<a xlink:href="keyboard__routines2_8cpp.html#a8563320b8eab661232619224650de244" target="_top" xlink:title="commandes_clavier">
<polygon fill="white" stroke="black" points="508,-133.254 508,-157.254 612,-157.254 612,-133.254 508,-133.254"/>
<text text-anchor="middle" x="560" y="-144.254" font-family="Helvetica,sans-Serif" font-size="10.00">commandes_clavier</text>
</a>
</g>
<!-- Node1&#45;&gt;Node10 -->
<g id="edge54" class="edge"><title>Node1&#45;&gt;Node10</title>
<path fill="none" stroke="midnightblue" d="M122.253,-181.236C139.069,-174.547 158.01,-168.074 176,-164.254 292.547,-139.503 433.258,-140.031 507.773,-142.618"/>
<polygon fill="midnightblue" stroke="midnightblue" points="120.549,-178.151 112.621,-185.18 123.202,-184.629 120.549,-178.151"/>
</g>
<!-- Node11 -->
<g id="node23" class="node"><title>Node11</title>
<a xlink:href="keyboard__functions2_8cpp.html#a596dad65b1e977b2ff23dc2935d084a0" target="_top" xlink:title="select_channel_plus">
<polygon fill="white" stroke="black" points="194.5,-55.2536 194.5,-79.2536 299.5,-79.2536 299.5,-55.2536 194.5,-55.2536"/>
<text text-anchor="middle" x="247" y="-66.2536" font-family="Helvetica,sans-Serif" font-size="10.00">select_channel_plus</text>
</a>
</g>
<!-- Node1&#45;&gt;Node11 -->
<g id="edge24" class="edge"><title>Node1&#45;&gt;Node11</title>
<path fill="none" stroke="midnightblue" d="M90.4688,-177.133C109.979,-152.091 141.439,-115.994 176,-93.2536 184.553,-87.6255 194.486,-83.0133 204.163,-79.3205"/>
<polygon fill="midnightblue" stroke="midnightblue" points="87.6193,-175.098 84.3233,-185.167 93.1791,-179.351 87.6193,-175.098"/>
</g>
<!-- Node12 -->
<g id="node25" class="node"><title>Node12</title>
<a xlink:href="keyboard__functions2_8cpp.html#a026fb5d0426005247d9f1037553d212a" target="_top" xlink:title="key_right">
<polygon fill="white" stroke="black" points="381,-93.2536 381,-117.254 437,-117.254 437,-93.2536 381,-93.2536"/>
<text text-anchor="middle" x="409" y="-104.254" font-family="Helvetica,sans-Serif" font-size="10.00">key_right</text>
</a>
</g>
<!-- Node1&#45;&gt;Node12 -->
<g id="edge52" class="edge"><title>Node1&#45;&gt;Node12</title>
<path fill="none" stroke="midnightblue" d="M99.4973,-178.574C119.574,-162.034 147.573,-141.963 176,-131.254 246.084,-104.85 335.79,-102.97 380.707,-104.001"/>
<polygon fill="midnightblue" stroke="midnightblue" points="97.0576,-176.053 91.6696,-185.175 101.57,-181.404 97.0576,-176.053"/>
</g>
<!-- Node13 -->
<g id="node28" class="node"><title>Node13</title>
<a xlink:href="keyboard__functions2_8cpp.html#afd699a465fe032ed5bddf70ed71228ce" target="_top" xlink:title="key_add_ch">
<polygon fill="white" stroke="black" points="374.5,-51.2536 374.5,-75.2536 443.5,-75.2536 443.5,-51.2536 374.5,-51.2536"/>
<text text-anchor="middle" x="409" y="-62.2536" font-family="Helvetica,sans-Serif" font-size="10.00">key_add_ch</text>
</a>
</g>
<!-- Node1&#45;&gt;Node13 -->
<g id="edge30" class="edge"><title>Node1&#45;&gt;Node13</title>
<path fill="none" stroke="midnightblue" d="M79.7779,-175.718C94.1181,-137.797 124.849,-73.6289 176,-46.2536 241.262,-11.3266 331.888,-34.8375 378.548,-51.217"/>
<polygon fill="midnightblue" stroke="midnightblue" points="76.4543,-174.616 76.3232,-185.21 83.0322,-177.01 76.4543,-174.616"/>
</g>
<!-- Node14 -->
<g id="node31" class="node"><title>Node14</title>
<a xlink:href="keyboard__functions2_8cpp.html#a03c383f56267026d3d8d6378d3e11652" target="_top" xlink:title="key_minus_ch">
<polygon fill="white" stroke="black" points="369,-283.254 369,-307.254 449,-307.254 449,-283.254 369,-283.254"/>
<text text-anchor="middle" x="409" y="-294.254" font-family="Helvetica,sans-Serif" font-size="10.00">key_minus_ch</text>
</a>
</g>
<!-- Node1&#45;&gt;Node14 -->
<g id="edge34" class="edge"><title>Node1&#45;&gt;Node14</title>
<path fill="none" stroke="midnightblue" d="M96.2465,-232.808C116.135,-251.66 145.219,-275.173 176,-286.254 240.37,-309.426 321.294,-305.926 368.863,-300.871"/>
<polygon fill="midnightblue" stroke="midnightblue" points="98.4363,-230.055 88.8297,-225.587 93.5531,-235.071 98.4363,-230.055"/>
</g>
<!-- Node15 -->
<g id="node34" class="node"><title>Node15</title>
<a xlink:href="keyboard__functions2_8cpp.html#a609bcf25a9ce029b5b60f14e15ce8685" target="_top" xlink:title="key_unselect_ch">
<polygon fill="white" stroke="black" points="364,-9.25357 364,-33.2536 454,-33.2536 454,-9.25357 364,-9.25357"/>
<text text-anchor="middle" x="409" y="-20.2536" font-family="Helvetica,sans-Serif" font-size="10.00">key_unselect_ch</text>
</a>
</g>
<!-- Node1&#45;&gt;Node15 -->
<g id="edge38" class="edge"><title>Node1&#45;&gt;Node15</title>
<path fill="none" stroke="midnightblue" d="M77.5652,-175.361C90.0584,-133.043 119.443,-57.1595 176,-24.2536 233.87,9.4163 314.297,0.805904 363.928,-9.48975"/>
<polygon fill="midnightblue" stroke="midnightblue" points="74.1641,-174.527 74.8137,-185.102 80.9005,-176.43 74.1641,-174.527"/>
</g>
<!-- Node17 -->
<g id="node40" class="node"><title>Node17</title>
<a xlink:href="keyboard__functions2_8cpp.html#aeb47268e8a4955de72febf24fd53551b" target="_top" xlink:title="key_select_inv">
<polygon fill="white" stroke="black" points="206,-253.254 206,-277.254 288,-277.254 288,-253.254 206,-253.254"/>
<text text-anchor="middle" x="247" y="-264.254" font-family="Helvetica,sans-Serif" font-size="10.00">key_select_inv</text>
</a>
</g>
<!-- Node1&#45;&gt;Node17 -->
<g id="edge46" class="edge"><title>Node1&#45;&gt;Node17</title>
<path fill="none" stroke="midnightblue" d="M139.15,-228.694C163.885,-237.079 190.741,-246.183 211.467,-253.208"/>
<polygon fill="midnightblue" stroke="midnightblue" points="140.025,-225.295 129.431,-225.4 137.778,-231.925 140.025,-225.295"/>
</g>
<!-- Node18 -->
<g id="node46" class="node"><title>Node18</title>
<a xlink:href="list__proj__core_8cpp.html#aa561615845b6064035f526f5ba0efb8e" target="_top" xlink:title="do_logical_liste_projecteurs">
<polygon fill="white" stroke="black" points="178.5,-449.254 178.5,-473.254 315.5,-473.254 315.5,-449.254 178.5,-449.254"/>
<text text-anchor="middle" x="247" y="-460.254" font-family="Helvetica,sans-Serif" font-size="10.00">do_logical_liste_projecteurs</text>
</a>
</g>
<!-- Node1&#45;&gt;Node18 -->
<g id="edge56" class="edge"><title>Node1&#45;&gt;Node18</title>
<path fill="none" stroke="midnightblue" d="M75.1746,-235.128C85.3865,-285.004 112.867,-385.18 176,-440.254 180.068,-443.803 184.713,-446.752 189.635,-449.204"/>
<polygon fill="midnightblue" stroke="midnightblue" points="78.6036,-234.425 73.2509,-225.282 71.7335,-235.768 78.6036,-234.425"/>
</g>
<!-- Node3 -->
<g id="node5" class="node"><title>Node3</title>
<a xlink:href="procs__visuels__rebuild1_8cpp.html#a886eb72e3d5b1a4177fe673870cad0e1" target="_top" xlink:title="logical_channelspace">
<polygon fill="white" stroke="black" points="354,-358.254 354,-382.254 464,-382.254 464,-358.254 354,-358.254"/>
<text text-anchor="middle" x="409" y="-369.254" font-family="Helvetica,sans-Serif" font-size="10.00">logical_channelspace</text>
</a>
</g>
<!-- Node2&#45;&gt;Node3 -->
<g id="edge4" class="edge"><title>Node2&#45;&gt;Node3</title>
<path fill="none" stroke="midnightblue" d="M322.528,-361.179C333.131,-362.292 343.859,-363.418 353.982,-364.48"/>
<polygon fill="midnightblue" stroke="midnightblue" points="322.735,-357.682 312.425,-360.119 322.005,-364.644 322.735,-357.682"/>
</g>
<!-- Node4 -->
<g id="node7" class="node"><title>Node4</title>
<a xlink:href="procs__visuels__rebuild1_8cpp.html#ae710b6e599e321ad5934a90140067054" target="_top" xlink:title="check_graphics_mouse\l_handling">
<polygon fill="white" stroke="black" points="500.5,-350.254 500.5,-390.254 619.5,-390.254 619.5,-350.254 500.5,-350.254"/>
<text text-anchor="start" x="508.5" y="-377.254" font-family="Helvetica,sans-Serif" font-size="10.00">check_graphics_mouse</text>
<text text-anchor="middle" x="560" y="-361.254" font-family="Helvetica,sans-Serif" font-size="10.00">_handling</text>
</a>
</g>
<!-- Node3&#45;&gt;Node4 -->
<g id="edge6" class="edge"><title>Node3&#45;&gt;Node4</title>
<path fill="none" stroke="midnightblue" d="M474.379,-370.254C482.999,-370.254 491.798,-370.254 500.316,-370.254"/>
<polygon fill="midnightblue" stroke="midnightblue" points="474.369,-366.754 464.369,-370.254 474.369,-373.754 474.369,-366.754"/>
</g>
<!-- Node5 -->
<g id="node9" class="node"><title>Node5</title>
<a xlink:href="_m_a_i_n__avec__objets_8cpp.html#a8e80f54ac804eddce8ed6e45adb1db44" target="_top" xlink:title="ticker_full_loop">
<polygon fill="white" stroke="black" points="656,-133.254 656,-157.254 738,-157.254 738,-133.254 656,-133.254"/>
<text text-anchor="middle" x="697" y="-144.254" font-family="Helvetica,sans-Serif" font-size="10.00">ticker_full_loop</text>
</a>
</g>
<!-- Node4&#45;&gt;Node5 -->
<g id="edge8" class="edge"><title>Node4&#45;&gt;Node5</title>
<path fill="none" stroke="midnightblue" d="M577.682,-341.214C607.945,-291.512 668.446,-192.149 689.54,-157.506"/>
<polygon fill="midnightblue" stroke="midnightblue" points="574.611,-339.528 572.399,-349.889 580.59,-343.168 574.611,-339.528"/>
</g>
<!-- Node6 -->
<g id="node11" class="node"><title>Node6</title>
<a xlink:href="_m_a_i_n__avec__objets_8cpp.html#ae66f6b31b5ad750f1fe042a706a4e3d4" target="_top" xlink:title="main">
<polygon fill="white" stroke="black" points="774,-102.254 774,-126.254 812,-126.254 812,-102.254 774,-102.254"/>
<text text-anchor="middle" x="793" y="-113.254" font-family="Helvetica,sans-Serif" font-size="10.00">main</text>
</a>
</g>
<!-- Node5&#45;&gt;Node6 -->
<g id="edge10" class="edge"><title>Node5&#45;&gt;Node6</title>
<path fill="none" stroke="midnightblue" d="M744.003,-130.076C754.552,-126.669 765.165,-123.242 773.804,-120.452"/>
<polygon fill="midnightblue" stroke="midnightblue" points="742.832,-126.776 734.391,-133.179 744.983,-133.437 742.832,-126.776"/>
</g>
<!-- Node7&#45;&gt;Node3 -->
<g id="edge14" class="edge"><title>Node7&#45;&gt;Node3</title>
<path fill="none" stroke="midnightblue" d="M328.039,-390.744C339.425,-387.862 350.811,-384.981 361.295,-382.327"/>
<polygon fill="midnightblue" stroke="midnightblue" points="326.891,-387.424 318.056,-393.27 328.609,-394.21 326.891,-387.424"/>
</g>
<!-- Node8&#45;&gt;Node9 -->
<g id="edge18" class="edge"><title>Node8&#45;&gt;Node9</title>
<path fill="none" stroke="midnightblue" d="M313.69,-185.254C338.267,-185.254 364.66,-185.254 383.426,-185.254"/>
<polygon fill="midnightblue" stroke="midnightblue" points="313.66,-181.754 303.66,-185.254 313.66,-188.754 313.66,-181.754"/>
</g>
<!-- Node9&#45;&gt;Node10 -->
<g id="edge20" class="edge"><title>Node9&#45;&gt;Node10</title>
<path fill="none" stroke="midnightblue" d="M444.4,-175.876C465.375,-170.32 492.167,-163.223 514.676,-157.26"/>
<polygon fill="midnightblue" stroke="midnightblue" points="443.385,-172.524 434.615,-178.468 445.178,-179.291 443.385,-172.524"/>
</g>
<!-- Node10&#45;&gt;Node5 -->
<g id="edge22" class="edge"><title>Node10&#45;&gt;Node5</title>
<path fill="none" stroke="midnightblue" d="M622.419,-145.254C633.669,-145.254 645.139,-145.254 655.604,-145.254"/>
<polygon fill="midnightblue" stroke="midnightblue" points="622.185,-141.754 612.185,-145.254 622.185,-148.754 622.185,-141.754"/>
</g>
<!-- Node11&#45;&gt;Node12 -->
<g id="edge26" class="edge"><title>Node11&#45;&gt;Node12</title>
<path fill="none" stroke="midnightblue" d="M308.03,-81.5692C332.987,-87.4233 360.641,-93.9102 380.689,-98.6127"/>
<polygon fill="midnightblue" stroke="midnightblue" points="308.793,-78.1533 298.258,-79.277 307.194,-84.9683 308.793,-78.1533"/>
</g>
<!-- Node12&#45;&gt;Node10 -->
<g id="edge28" class="edge"><title>Node12&#45;&gt;Node10</title>
<path fill="none" stroke="midnightblue" d="M446.989,-115.317C467.525,-120.757 493.026,-127.512 514.603,-133.228"/>
<polygon fill="midnightblue" stroke="midnightblue" points="447.611,-111.861 437.048,-112.684 445.818,-118.628 447.611,-111.861"/>
</g>
<!-- Node13&#45;&gt;Node10 -->
<g id="edge32" class="edge"><title>Node13&#45;&gt;Node10</title>
<path fill="none" stroke="midnightblue" d="M453.091,-79.1751C456.823,-80.7973 460.503,-82.4976 464,-84.2536 493.117,-98.8756 524.581,-119.99 543.27,-133.153"/>
<polygon fill="midnightblue" stroke="midnightblue" points="454.365,-75.9142 443.787,-75.3169 451.683,-82.3804 454.365,-75.9142"/>
</g>
<!-- Node14&#45;&gt;Node10 -->
<g id="edge36" class="edge"><title>Node14&#45;&gt;Node10</title>
<path fill="none" stroke="midnightblue" d="M432.756,-276.509C442.666,-268.406 454.14,-258.643 464,-249.254 497.098,-217.736 532.778,-177.116 549.816,-157.259"/>
<polygon fill="midnightblue" stroke="midnightblue" points="430.449,-273.874 424.87,-282.881 434.848,-279.319 430.449,-273.874"/>
</g>
<!-- Node15&#45;&gt;Node10 -->
<g id="edge40" class="edge"><title>Node15&#45;&gt;Node10</title>
<path fill="none" stroke="midnightblue" d="M456.486,-37.7322C459.091,-39.1416 461.616,-40.6479 464,-42.2536 502.322,-68.0592 536.385,-111.902 551.59,-133.084"/>
<polygon fill="midnightblue" stroke="midnightblue" points="457.93,-34.5423 447.407,-33.3099 454.865,-40.8355 457.93,-34.5423"/>
</g>
<!-- Node16 -->
<g id="node37" class="node"><title>Node16</title>
<a xlink:href="_m_a_i_n__avec__objets_8cpp.html#a9c70719f0a352d777b5166c1e1872f13" target="_top" xlink:title="my_callback">
<polygon fill="white" stroke="black" points="661.5,-71.2536 661.5,-95.2536 732.5,-95.2536 732.5,-71.2536 661.5,-71.2536"/>
<text text-anchor="middle" x="697" y="-82.2536" font-family="Helvetica,sans-Serif" font-size="10.00">my_callback</text>
</a>
</g>
<!-- Node15&#45;&gt;Node16 -->
<g id="edge42" class="edge"><title>Node15&#45;&gt;Node16</title>
<path fill="none" stroke="midnightblue" d="M464.432,-33.1869C522.568,-45.7023 612.192,-64.9962 661.481,-75.6072"/>
<polygon fill="midnightblue" stroke="midnightblue" points="464.829,-29.6923 454.317,-31.0093 463.356,-36.5355 464.829,-29.6923"/>
</g>
<!-- Node16&#45;&gt;Node6 -->
<g id="edge44" class="edge"><title>Node16&#45;&gt;Node6</title>
<path fill="none" stroke="midnightblue" d="M742.408,-97.9167C753.525,-101.506 764.828,-105.156 773.922,-108.093"/>
<polygon fill="midnightblue" stroke="midnightblue" points="743.339,-94.5392 732.747,-94.7968 741.187,-101.2 743.339,-94.5392"/>
</g>
<!-- Node17&#45;&gt;Node10 -->
<g id="edge48" class="edge"><title>Node17&#45;&gt;Node10</title>
<path fill="none" stroke="midnightblue" d="M298.048,-255.906C342.981,-246.628 409.545,-230.295 464,-206.254 494.168,-192.935 525.829,-171.034 544.197,-157.416"/>
<polygon fill="midnightblue" stroke="midnightblue" points="297.347,-252.477 288.239,-257.89 298.735,-259.338 297.347,-252.477"/>
</g>
<!-- Node18&#45;&gt;Node4 -->
<g id="edge58" class="edge"><title>Node18&#45;&gt;Node4</title>
<path fill="none" stroke="midnightblue" d="M298.172,-446.376C353.562,-430.272 441.8,-404.618 500.309,-387.608"/>
<polygon fill="midnightblue" stroke="midnightblue" points="297.189,-443.017 288.564,-449.169 299.144,-449.738 297.189,-443.017"/>
</g>
</g>
</svg>
