<?xml version="1.0" encoding="UTF-8" standalone="no"?>
<!DOCTYPE svg PUBLIC "-//W3C//DTD SVG 1.1//EN"
 "http://www.w3.org/Graphics/SVG/1.1/DTD/svg11.dtd">
<!-- Generated by graphviz version 2.26.3 (20100126.1600)
 -->
<!-- Title: logical_plot_menu_bare Pages: 1 -->
<!--zoomable 198 -->
<svg id="main" version="1.1" xmlns="http://www.w3.org/2000/svg" xmlns:xlink="http://www.w3.org/1999/xlink" xml:space="preserve" onload="init(evt)">
<style type="text/css"><![CDATA[
.edge:hover path { stroke: red; }
.edge:hover polygon { stroke: red; fill: red; }
]]></style>
<script type="text/javascript"><![CDATA[
var edges = document.getElementsByTagName('g');
if (edges && edges.length) {
  for (var i=0;i<edges.length;i++) {
    if (edges[i].id.substr(0,4)=='edge') {
      edges[i].setAttribute('class','edge');
    }
  }
}
]]></script>
        <defs>
                <circle id="rim" cx="0" cy="0" r="7"/>
                <circle id="rim2" cx="0" cy="0" r="3.5"/>
                <g id="zoomPlus">
                        <use xlink:href="#rim" fill="#404040">
                                <set attributeName="fill" to="#808080" begin="zoomplus.mouseover" end="zoomplus.mouseout"/>
                        </use>
                        <path d="M-4,0h8M0,-4v8" fill="none" stroke="white" stroke-width="1.5" pointer-events="none"/>
                </g>
                <g id="zoomMin">
                        <use xlink:href="#rim" fill="#404040">
                                <set attributeName="fill" to="#808080" begin="zoomminus.mouseover" end="zoomminus.mouseout"/>
                        </use>
                        <path d="M-4,0h8" fill="none" stroke="white" stroke-width="1.5" pointer-events="none"/>
                </g>
                <g id="dirArrow">
                        <path fill="none" stroke="white" stroke-width="1.5" d="M0,-3.0v7 M-2.5,-0.5L0,-3.0L2.5,-0.5"/>
                </g>
               <g id="resetDef">
                       <use xlink:href="#rim2" fill="#404040">
                               <set attributeName="fill" to="#808080" begin="reset.mouseover" end="reset.mouseout"/>
                       </use>
               </g>
        </defs>

<script type="text/javascript">
var viewWidth = 764;
var viewHeight = 198;
var sectionId = 'dynsection-29';
</script>
<script xlink:href="svgpan.js"/>
<svg id="graph" class="graph">
<g id="viewport">
<title>logical_plot_menu_bare</title>
<polygon fill="white" stroke="white" points="-4,5 -4,-194 761,-194 761,5 -4,5"/>
<!-- Node1 -->
<g id="node1" class="node"><title>Node1</title>
<polygon fill="#bfbfbf" stroke="black" points="0.5,-49 0.5,-73 119.5,-73 119.5,-49 0.5,-49"/>
<text text-anchor="middle" x="60" y="-60" font-family="Helvetica,sans-Serif" font-size="10.00">logical_plot_menu_bare</text>
</g>
<!-- Node2 -->
<g id="node3" class="node"><title>Node2</title>
<a xlink:href="_c_o_r_e__6_8cpp.html#a9574e0b790211959c7398e42468410d8" target="_top" xlink:title="toggle">
<polygon fill="white" stroke="black" points="198.5,-99 198.5,-123 241.5,-123 241.5,-99 198.5,-99"/>
<text text-anchor="middle" x="220" y="-110" font-family="Helvetica,sans-Serif" font-size="10.00">toggle</text>
</a>
</g>
<!-- Node1&#45;&gt;Node2 -->
<g id="edge2" class="edge"><title>Node1&#45;&gt;Node2</title>
<path fill="none" stroke="midnightblue" d="M98.7315,-73.1036C126.328,-81.7276 162.947,-93.171 188.699,-101.218"/>
<polygon fill="midnightblue" stroke="midnightblue" points="187.744,-104.587 198.333,-104.229 189.832,-97.9057 187.744,-104.587"/>
</g>
<!-- Node3 -->
<g id="node5" class="node"><title>Node3</title>
<a xlink:href="plot_8cpp.html#a3431bbe587897e907b6dee6b35777684" target="_top" xlink:title="send_symbols_from_calc\l_to_calc">
<polygon fill="white" stroke="black" points="156,-41 156,-81 284,-81 284,-41 156,-41"/>
<text text-anchor="start" x="164" y="-68" font-family="Helvetica,sans-Serif" font-size="10.00">send_symbols_from_calc</text>
<text text-anchor="middle" x="220" y="-52" font-family="Helvetica,sans-Serif" font-size="10.00">_to_calc</text>
</a>
</g>
<!-- Node1&#45;&gt;Node3 -->
<g id="edge4" class="edge"><title>Node1&#45;&gt;Node3</title>
<path fill="none" stroke="midnightblue" d="M119.578,-61C128.071,-61 136.894,-61 145.626,-61"/>
<polygon fill="midnightblue" stroke="midnightblue" points="145.811,-64.5001 155.811,-61 145.811,-57.5001 145.811,-64.5001"/>
</g>
<!-- Node10 -->
<g id="node20" class="node"><title>Node10</title>
<a xlink:href="plot_8cpp.html#ac16f49a033e4ae3af728e3789f080e51" target="_top" xlink:title="reset_symbols_selected">
<polygon fill="white" stroke="black" points="323,-0 323,-24 445,-24 445,-0 323,-0"/>
<text text-anchor="middle" x="384" y="-11" font-family="Helvetica,sans-Serif" font-size="10.00">reset_symbols_selected</text>
</a>
</g>
<!-- Node1&#45;&gt;Node10 -->
<g id="edge22" class="edge"><title>Node1&#45;&gt;Node10</title>
<path fill="none" stroke="midnightblue" d="M93.784,-48.9331C111.989,-42.9065 134.972,-36.0535 156,-32 207.871,-22.0009 267.357,-16.9934 312.559,-14.4897"/>
<polygon fill="midnightblue" stroke="midnightblue" points="312.758,-17.9842 322.56,-13.9636 312.39,-10.9939 312.758,-17.9842"/>
</g>
<!-- Node4 -->
<g id="node7" class="node"><title>Node4</title>
<a xlink:href="plot_8cpp.html#a23e56ec233d9db7dd7dca8c52410b847" target="_top" xlink:title="delete_selected_symbols">
<polygon fill="white" stroke="black" points="320.5,-116 320.5,-140 447.5,-140 447.5,-116 320.5,-116"/>
<text text-anchor="middle" x="384" y="-127" font-family="Helvetica,sans-Serif" font-size="10.00">delete_selected_symbols</text>
</a>
</g>
<!-- Node3&#45;&gt;Node4 -->
<g id="edge6" class="edge"><title>Node3&#45;&gt;Node4</title>
<path fill="none" stroke="midnightblue" d="M269.205,-81.1022C293.477,-91.018 322.338,-102.809 345.049,-112.087"/>
<polygon fill="midnightblue" stroke="midnightblue" points="343.794,-115.355 354.375,-115.897 346.441,-108.875 343.794,-115.355"/>
</g>
<!-- Node9 -->
<g id="node17" class="node"><title>Node9</title>
<a xlink:href="plot_8cpp.html#a9c23683c01563bbc9fceacea0cfd1282" target="_top" xlink:title="add_selected_symbols\l_to_calc">
<polygon fill="white" stroke="black" points="326,-42 326,-82 442,-82 442,-42 326,-42"/>
<text text-anchor="start" x="334" y="-69" font-family="Helvetica,sans-Serif" font-size="10.00">add_selected_symbols</text>
<text text-anchor="middle" x="384" y="-53" font-family="Helvetica,sans-Serif" font-size="10.00">_to_calc</text>
</a>
</g>
<!-- Node3&#45;&gt;Node9 -->
<g id="edge16" class="edge"><title>Node3&#45;&gt;Node9</title>
<path fill="none" stroke="midnightblue" d="M284.346,-61.3924C294.644,-61.4551 305.331,-61.5203 315.716,-61.5836"/>
<polygon fill="midnightblue" stroke="midnightblue" points="315.954,-65.0851 325.975,-61.6462 315.997,-58.0852 315.954,-65.0851"/>
</g>
<!-- Node3&#45;&gt;Node10 -->
<g id="edge20" class="edge"><title>Node3&#45;&gt;Node10</title>
<path fill="none" stroke="midnightblue" d="M284.346,-41.7745C300.688,-36.8919 318.013,-31.7158 333.553,-27.0727"/>
<polygon fill="midnightblue" stroke="midnightblue" points="334.899,-30.3233 343.479,-24.107 332.895,-23.6163 334.899,-30.3233"/>
</g>
<!-- Node5 -->
<g id="node9" class="node"><title>Node5</title>
<a xlink:href="plot_8cpp.html#a81a672760936c3fe4915f269850aa955" target="_top" xlink:title="snapshot_calc">
<polygon fill="white" stroke="black" points="492,-166 492,-190 572,-190 572,-166 492,-166"/>
<text text-anchor="middle" x="532" y="-177" font-family="Helvetica,sans-Serif" font-size="10.00">snapshot_calc</text>
</a>
</g>
<!-- Node4&#45;&gt;Node5 -->
<g id="edge8" class="edge"><title>Node4&#45;&gt;Node5</title>
<path fill="none" stroke="midnightblue" d="M419.827,-140.104C439.931,-146.896 465.213,-155.437 486.683,-162.69"/>
<polygon fill="midnightblue" stroke="midnightblue" points="485.653,-166.036 496.247,-165.921 487.893,-159.405 485.653,-166.036"/>
</g>
<!-- Node6 -->
<g id="node11" class="node"><title>Node6</title>
<a xlink:href="plot_8cpp.html#a58fe8fc317633b7cfd679c95c67193b9" target="_top" xlink:title="clear_symbol_slot">
<polygon fill="white" stroke="black" points="484.5,-124 484.5,-148 579.5,-148 579.5,-124 484.5,-124"/>
<text text-anchor="middle" x="532" y="-135" font-family="Helvetica,sans-Serif" font-size="10.00">clear_symbol_slot</text>
</a>
</g>
<!-- Node4&#45;&gt;Node6 -->
<g id="edge10" class="edge"><title>Node4&#45;&gt;Node6</title>
<path fill="none" stroke="midnightblue" d="M447.624,-131.439C456.409,-131.914 465.392,-132.4 474.066,-132.868"/>
<polygon fill="midnightblue" stroke="midnightblue" points="473.902,-136.365 484.076,-133.41 474.28,-129.375 473.902,-136.365"/>
</g>
<!-- Node7 -->
<g id="node13" class="node"><title>Node7</title>
<a xlink:href="plot_8cpp.html#a94516b8805c4d4f6c5850469e7eb5945" target="_top" xlink:title="rearrange_plan">
<polygon fill="white" stroke="black" points="492,-82 492,-106 572,-106 572,-82 492,-82"/>
<text text-anchor="middle" x="532" y="-93" font-family="Helvetica,sans-Serif" font-size="10.00">rearrange_plan</text>
</a>
</g>
<!-- Node4&#45;&gt;Node7 -->
<g id="edge12" class="edge"><title>Node4&#45;&gt;Node7</title>
<path fill="none" stroke="midnightblue" d="M436.596,-115.917C451.312,-112.536 467.265,-108.872 481.836,-105.524"/>
<polygon fill="midnightblue" stroke="midnightblue" points="482.709,-108.915 491.671,-103.265 481.142,-102.093 482.709,-108.915"/>
</g>
<!-- Node8 -->
<g id="node15" class="node"><title>Node8</title>
<a xlink:href="plot_8cpp.html#a3aa259226da63745d5e779178c8111f2" target="_top" xlink:title="copy_symbol_to_emply_slot">
<polygon fill="white" stroke="black" points="616,-62 616,-86 756,-86 756,-62 616,-62"/>
<text text-anchor="middle" x="686" y="-73" font-family="Helvetica,sans-Serif" font-size="10.00">copy_symbol_to_emply_slot</text>
</a>
</g>
<!-- Node7&#45;&gt;Node8 -->
<g id="edge14" class="edge"><title>Node7&#45;&gt;Node8</title>
<path fill="none" stroke="midnightblue" d="M572.06,-88.7974C582.399,-87.4547 593.903,-85.9607 605.513,-84.4529"/>
<polygon fill="midnightblue" stroke="midnightblue" points="606.25,-87.8866 615.716,-83.1278 605.348,-80.9449 606.25,-87.8866"/>
</g>
<!-- Node9&#45;&gt;Node8 -->
<g id="edge18" class="edge"><title>Node9&#45;&gt;Node8</title>
<path fill="none" stroke="midnightblue" d="M442.229,-64.3137C488.668,-66.159 554.22,-68.7637 605.654,-70.8074"/>
<polygon fill="midnightblue" stroke="midnightblue" points="605.611,-74.3084 615.742,-71.2083 605.889,-67.3139 605.611,-74.3084"/>
</g>
</g>
</svg>
        <g id="navigator" transform="translate(0 0)" fill="#404254">
                <rect fill="#f2f5e9" fill-opacity="0.5" stroke="#606060" stroke-width=".5" x="0" y="0" width="60" height="60"/>
                <use id="zoomplus" xlink:href="#zoomPlus" x="17" y="9" onmousedown="handleZoom(evt,'in')"/>
                <use id="zoomminus" xlink:href="#zoomMin" x="42" y="9" onmousedown="handleZoom(evt,'out')"/>
                <use id="reset" xlink:href="#resetDef" x="30" y="36" onmousedown="handleReset()"/>
                <g id="arrowUp" xlink:href="#dirArrow" transform="translate(30 24)" onmousedown="handlePan(0,-1)">
                  <use xlink:href="#rim" fill="#404040">
                        <set attributeName="fill" to="#808080" begin="arrowUp.mouseover" end="arrowUp.mouseout"/>
                  </use>
                  <path fill="none" stroke="white" stroke-width="1.5" d="M0,-3.0v7 M-2.5,-0.5L0,-3.0L2.5,-0.5"/>
                </g>
                <g id="arrowRight" xlink:href="#dirArrow" transform="rotate(90) translate(36 -43)" onmousedown="handlePan(1,0)">
                  <use xlink:href="#rim" fill="#404040">
                        <set attributeName="fill" to="#808080" begin="arrowRight.mouseover" end="arrowRight.mouseout"/>
                  </use>
                  <path fill="none" stroke="white" stroke-width="1.5" d="M0,-3.0v7 M-2.5,-0.5L0,-3.0L2.5,-0.5"/>
                </g>
                <g id="arrowDown" xlink:href="#dirArrow" transform="rotate(180) translate(-30 -48)" onmousedown="handlePan(0,1)">
                  <use xlink:href="#rim" fill="#404040">
                        <set attributeName="fill" to="#808080" begin="arrowDown.mouseover" end="arrowDown.mouseout"/>
                  </use>
                  <path fill="none" stroke="white" stroke-width="1.5" d="M0,-3.0v7 M-2.5,-0.5L0,-3.0L2.5,-0.5"/>
                </g>
                <g id="arrowLeft" xlink:href="#dirArrow" transform="rotate(270) translate(-36 17)" onmousedown="handlePan(-1,0)">
                  <use xlink:href="#rim" fill="#404040">
                        <set attributeName="fill" to="#808080" begin="arrowLeft.mouseover" end="arrowLeft.mouseout"/>
                  </use>
                  <path fill="none" stroke="white" stroke-width="1.5" d="M0,-3.0v7 M-2.5,-0.5L0,-3.0L2.5,-0.5"/>
                </g>
        </g>
        <svg viewBox="0 0 15 15" width="100%" height="30px" preserveAspectRatio="xMaxYMin meet">
         <g id="arrow_out" transform="scale(0.3 0.3)">
          <a xlink:href="plot_8cpp_a81228c183a1b219d5f3c5a759800df4b_cgraph_org.svg" target="_base">
           <rect id="button" ry="5" rx="5" y="6" x="6" height="38" width="38"
                fill="#f2f5e9" fill-opacity="0.5" stroke="#606060" stroke-width="1.0"/>
           <path id="arrow"
             d="M 11.500037,31.436501 C 11.940474,20.09759 22.043105,11.32322 32.158766,21.979434 L 37.068811,17.246167 C 37.068811,17.246167 37.088388,32 37.088388,32 L 22.160133,31.978069 C 22.160133,31.978069 26.997745,27.140456 26.997745,27.140456 C 18.528582,18.264221 13.291696,25.230495 11.500037,31.436501 z"
             style="fill:#404040;"/>
          </a>
         </g>
        </svg>
</svg>
