<?xml version="1.0" encoding="UTF-8" standalone="no"?>
<!DOCTYPE svg PUBLIC "-//W3C//DTD SVG 1.1//EN"
 "http://www.w3.org/Graphics/SVG/1.1/DTD/svg11.dtd">
<!-- Generated by graphviz version 2.26.3 (20100126.1600)
 -->
<!-- Title: clear_shape_slot Pages: 1 -->
<svg width="1996pt" height="318pt"
 viewBox="0.00 0.00 1996.00 318.00" xmlns="http://www.w3.org/2000/svg" xmlns:xlink="http://www.w3.org/1999/xlink">
<g id="graph1" class="graph" transform="scale(1 1) rotate(0) translate(4 314)">
<title>clear_shape_slot</title>
<polygon fill="white" stroke="white" points="-4,5 -4,-314 1993,-314 1993,5 -4,5"/>
<!-- Node1 -->
<g id="node1" class="node"><title>Node1</title>
<polygon fill="#bfbfbf" stroke="black" points="0,-163 0,-187 90,-187 90,-163 0,-163"/>
<text text-anchor="middle" x="45" y="-174" font-family="Helvetica,sans-Serif" font-size="10.00">clear_shape_slot</text>
</g>
<!-- Node2 -->
<g id="node3" class="node"><title>Node2</title>
<a xlink:href="logicals__intres_8cpp.html#a74cf9c04c734ab342f88799efbfc4210" target="_top" xlink:title="operations_confirmation">
<polygon fill="white" stroke="black" points="284,-205 284,-229 404,-229 404,-205 284,-205"/>
<text text-anchor="middle" x="344" y="-216" font-family="Helvetica,sans-Serif" font-size="10.00">operations_confirmation</text>
</a>
</g>
<!-- Node1&#45;&gt;Node2 -->
<g id="edge2" class="edge"><title>Node1&#45;&gt;Node2</title>
<path fill="none" stroke="midnightblue" d="M96.0432,-189.535C105.921,-191.977 116.236,-194.275 126,-196 178.981,-205.36 239.996,-210.788 283.976,-213.772"/>
<polygon fill="midnightblue" stroke="midnightblue" points="96.9021,-186.142 86.3471,-187.06 95.1708,-192.924 96.9021,-186.142"/>
</g>
<!-- Node10 -->
<g id="node20" class="node"><title>Node10</title>
<a xlink:href="plot__core9_8cpp.html#a0ad3131782822f5d43a18eeb139ad855" target="_top" xlink:title="delete_selected_shapes">
<polygon fill="white" stroke="black" points="126,-163 126,-187 248,-187 248,-163 126,-163"/>
<text text-anchor="middle" x="187" y="-174" font-family="Helvetica,sans-Serif" font-size="10.00">delete_selected_shapes</text>
</a>
</g>
<!-- Node1&#45;&gt;Node10 -->
<g id="edge20" class="edge"><title>Node1&#45;&gt;Node10</title>
<path fill="none" stroke="midnightblue" d="M100.321,-175C108.671,-175 117.326,-175 125.792,-175"/>
<polygon fill="midnightblue" stroke="midnightblue" points="100.32,-171.5 90.3201,-175 100.32,-178.5 100.32,-171.5"/>
</g>
<!-- Node30 -->
<g id="node67" class="node"><title>Node30</title>
<a xlink:href="plot__core9_8cpp.html#a577251b270b8cebde55a95b2c0677942" target="_top" xlink:title="add_shape_to_plot">
<polygon fill="white" stroke="black" points="138,-121 138,-145 236,-145 236,-121 138,-121"/>
<text text-anchor="middle" x="187" y="-132" font-family="Helvetica,sans-Serif" font-size="10.00">add_shape_to_plot</text>
</a>
</g>
<!-- Node1&#45;&gt;Node30 -->
<g id="edge74" class="edge"><title>Node1&#45;&gt;Node30</title>
<path fill="none" stroke="midnightblue" d="M95.3064,-160.121C112.019,-155.177 130.408,-149.739 146.303,-145.037"/>
<polygon fill="midnightblue" stroke="midnightblue" points="94.2881,-156.772 85.6915,-162.964 96.2736,-163.484 94.2881,-156.772"/>
</g>
<!-- Node3 -->
<g id="node5" class="node"><title>Node3</title>
<a xlink:href="keyboard__functions2_8cpp.html#a548548066307f816c5021de7d6e4f26a" target="_top" xlink:title="key_affectation">
<polygon fill="white" stroke="black" points="466.5,-257 466.5,-281 549.5,-281 549.5,-257 466.5,-257"/>
<text text-anchor="middle" x="508" y="-268" font-family="Helvetica,sans-Serif" font-size="10.00">key_affectation</text>
</a>
</g>
<!-- Node2&#45;&gt;Node3 -->
<g id="edge4" class="edge"><title>Node2&#45;&gt;Node3</title>
<path fill="none" stroke="midnightblue" d="M391.646,-232.107C416.529,-239.997 446.564,-249.52 469.885,-256.915"/>
<polygon fill="midnightblue" stroke="midnightblue" points="392.627,-228.747 382.037,-229.061 390.512,-235.419 392.627,-228.747"/>
</g>
<!-- Node7 -->
<g id="node13" class="node"><title>Node7</title>
<a xlink:href="logicals__intres_8cpp.html#a85967c22135715eca94d08af2ec1a1fb" target="_top" xlink:title="fenetre_confirm">
<polygon fill="white" stroke="black" points="1194,-189 1194,-213 1278,-213 1278,-189 1194,-189"/>
<text text-anchor="middle" x="1236" y="-200" font-family="Helvetica,sans-Serif" font-size="10.00">fenetre_confirm</text>
</a>
</g>
<!-- Node2&#45;&gt;Node7 -->
<g id="edge12" class="edge"><title>Node2&#45;&gt;Node7</title>
<path fill="none" stroke="midnightblue" d="M414.443,-211.236C480.826,-206.305 583.099,-200 672,-200 672,-200 672,-200 974,-200 1051.55,-200 1142.02,-200.444 1193.8,-200.74"/>
<polygon fill="midnightblue" stroke="midnightblue" points="413.813,-207.773 404.104,-212.014 414.339,-214.754 413.813,-207.773"/>
</g>
<!-- Node4 -->
<g id="node7" class="node"><title>Node4</title>
<a xlink:href="keyboard__routines2_8cpp.html#a8563320b8eab661232619224650de244" target="_top" xlink:title="commandes_clavier">
<polygon fill="white" stroke="black" points="620,-286 620,-310 724,-310 724,-286 620,-286"/>
<text text-anchor="middle" x="672" y="-297" font-family="Helvetica,sans-Serif" font-size="10.00">commandes_clavier</text>
</a>
</g>
<!-- Node3&#45;&gt;Node4 -->
<g id="edge6" class="edge"><title>Node3&#45;&gt;Node4</title>
<path fill="none" stroke="midnightblue" d="M559.874,-278.173C579.057,-281.565 600.794,-285.409 619.989,-288.803"/>
<polygon fill="midnightblue" stroke="midnightblue" points="560.265,-274.688 549.808,-276.393 559.046,-281.581 560.265,-274.688"/>
</g>
<!-- Node5 -->
<g id="node9" class="node"><title>Node5</title>
<a xlink:href="_m_a_i_n__avec__objets_8cpp.html#a8e80f54ac804eddce8ed6e45adb1db44" target="_top" xlink:title="ticker_full_loop">
<polygon fill="white" stroke="black" points="782,-236 782,-260 864,-260 864,-236 782,-236"/>
<text text-anchor="middle" x="823" y="-247" font-family="Helvetica,sans-Serif" font-size="10.00">ticker_full_loop</text>
</a>
</g>
<!-- Node4&#45;&gt;Node5 -->
<g id="edge8" class="edge"><title>Node4&#45;&gt;Node5</title>
<path fill="none" stroke="midnightblue" d="M718.316,-282.664C740.231,-275.407 766.023,-266.867 786.522,-260.079"/>
<polygon fill="midnightblue" stroke="midnightblue" points="716.946,-279.43 708.553,-285.896 719.146,-286.076 716.946,-279.43"/>
</g>
<!-- Node6 -->
<g id="node11" class="node"><title>Node6</title>
<a xlink:href="_m_a_i_n__avec__objets_8cpp.html#ae66f6b31b5ad750f1fe042a706a4e3d4" target="_top" xlink:title="main">
<polygon fill="white" stroke="black" points="1950,-127 1950,-151 1988,-151 1988,-127 1950,-127"/>
<text text-anchor="middle" x="1969" y="-138" font-family="Helvetica,sans-Serif" font-size="10.00">main</text>
</a>
</g>
<!-- Node5&#45;&gt;Node6 -->
<g id="edge10" class="edge"><title>Node5&#45;&gt;Node6</title>
<path fill="none" stroke="midnightblue" d="M874.307,-247.143C931.905,-246.257 1028.15,-245 1111,-245 1111,-245 1111,-245 1730,-245 1816.73,-245 1837.48,-220.824 1914,-180 1929.13,-171.928 1944.64,-159.964 1955.32,-151.041"/>
<polygon fill="midnightblue" stroke="midnightblue" points="873.958,-243.648 864.014,-247.304 874.068,-250.647 873.958,-243.648"/>
</g>
<!-- Node8 -->
<g id="node15" class="node"><title>Node8</title>
<a xlink:href="graphics__rebuild1_8cpp.html#ac2eae1e03fb72cc734ffbcef566483bf" target="_top" xlink:title="Boxes">
<polygon fill="white" stroke="black" points="1708,-147 1708,-171 1752,-171 1752,-147 1708,-147"/>
<text text-anchor="middle" x="1730" y="-158" font-family="Helvetica,sans-Serif" font-size="10.00">Boxes</text>
</a>
</g>
<!-- Node7&#45;&gt;Node8 -->
<g id="edge14" class="edge"><title>Node7&#45;&gt;Node8</title>
<path fill="none" stroke="midnightblue" d="M1288.42,-203.479C1370.92,-206.266 1535.72,-207.307 1672,-180 1684.18,-177.559 1697.23,-173.019 1707.86,-168.782"/>
<polygon fill="midnightblue" stroke="midnightblue" points="1288.41,-199.977 1278.29,-203.114 1288.16,-206.972 1288.41,-199.977"/>
</g>
<!-- Node9 -->
<g id="node17" class="node"><title>Node9</title>
<a xlink:href="_m_a_i_n__avec__objets_8cpp.html#ade8d4ba65d55c94f8ee277829d722155" target="_top" xlink:title="main_actions_on_screen">
<polygon fill="white" stroke="black" points="1788.5,-147 1788.5,-171 1913.5,-171 1913.5,-147 1788.5,-147"/>
<text text-anchor="middle" x="1851" y="-158" font-family="Helvetica,sans-Serif" font-size="10.00">main_actions_on_screen</text>
</a>
</g>
<!-- Node8&#45;&gt;Node9 -->
<g id="edge16" class="edge"><title>Node8&#45;&gt;Node9</title>
<path fill="none" stroke="midnightblue" d="M1762.24,-159C1770.32,-159 1779.26,-159 1788.27,-159"/>
<polygon fill="midnightblue" stroke="midnightblue" points="1762.19,-155.5 1752.19,-159 1762.19,-162.5 1762.19,-155.5"/>
</g>
<!-- Node9&#45;&gt;Node6 -->
<g id="edge18" class="edge"><title>Node9&#45;&gt;Node6</title>
<path fill="none" stroke="midnightblue" d="M1923.84,-146.655C1933.34,-145.045 1942.33,-143.521 1949.75,-142.263"/>
<polygon fill="midnightblue" stroke="midnightblue" points="1923.07,-143.234 1913.8,-148.356 1924.24,-150.135 1923.07,-143.234"/>
</g>
<!-- Node11 -->
<g id="node22" class="node"><title>Node11</title>
<a xlink:href="midi__13_8cpp.html#a6dff3d42682b58cc0a9875ee30fb4cd4" target="_top" xlink:title="do_midi_job">
<polygon fill="white" stroke="black" points="310,-79 310,-103 378,-103 378,-79 310,-79"/>
<text text-anchor="middle" x="344" y="-90" font-family="Helvetica,sans-Serif" font-size="10.00">do_midi_job</text>
</a>
</g>
<!-- Node10&#45;&gt;Node11 -->
<g id="edge22" class="edge"><title>Node10&#45;&gt;Node11</title>
<path fill="none" stroke="midnightblue" d="M240.474,-158.534C243.086,-157.132 245.612,-155.623 248,-154 268.335,-140.182 263.701,-125.87 284,-112 291.745,-106.708 300.962,-102.615 309.819,-99.5079"/>
<polygon fill="midnightblue" stroke="midnightblue" points="238.856,-155.428 231.34,-162.895 241.872,-161.745 238.856,-155.428"/>
</g>
<!-- Node27 -->
<g id="node60" class="node"><title>Node27</title>
<a xlink:href="plot__core9_8cpp.html#aea32fc46aaba62f9f5c3dc25abe79fae" target="_top" xlink:title="logical_shape_edition">
<polygon fill="white" stroke="black" points="289,-163 289,-187 399,-187 399,-163 289,-163"/>
<text text-anchor="middle" x="344" y="-174" font-family="Helvetica,sans-Serif" font-size="10.00">logical_shape_edition</text>
</a>
</g>
<!-- Node10&#45;&gt;Node27 -->
<g id="edge66" class="edge"><title>Node10&#45;&gt;Node27</title>
<path fill="none" stroke="midnightblue" d="M258.331,-175C268.593,-175 279.02,-175 288.903,-175"/>
<polygon fill="midnightblue" stroke="midnightblue" points="258.15,-171.5 248.15,-175 258.15,-178.5 258.15,-171.5"/>
</g>
<!-- Node12 -->
<g id="node24" class="node"><title>Node12</title>
<a xlink:href="midi__13_8cpp.html#a6bedf9750195224914cd87c4e73ab626" target="_top" xlink:title="ventilate_midi_to_midiarray">
<polygon fill="white" stroke="black" points="440.5,-79 440.5,-103 575.5,-103 575.5,-79 440.5,-79"/>
<text text-anchor="middle" x="508" y="-90" font-family="Helvetica,sans-Serif" font-size="10.00">ventilate_midi_to_midiarray</text>
</a>
</g>
<!-- Node11&#45;&gt;Node12 -->
<g id="edge24" class="edge"><title>Node11&#45;&gt;Node12</title>
<path fill="none" stroke="midnightblue" d="M388.467,-91C404.397,-91 422.737,-91 440.192,-91"/>
<polygon fill="midnightblue" stroke="midnightblue" points="388.38,-87.5001 378.38,-91 388.38,-94.5001 388.38,-87.5001"/>
</g>
<!-- Node13 -->
<g id="node26" class="node"><title>Node13</title>
<a xlink:href="midi__13_8cpp.html#afa49dd5668303c2448676c8243737c2d" target="_top" xlink:title="simulate_midi">
<polygon fill="white" stroke="black" points="633.5,-66 633.5,-90 710.5,-90 710.5,-66 633.5,-66"/>
<text text-anchor="middle" x="672" y="-77" font-family="Helvetica,sans-Serif" font-size="10.00">simulate_midi</text>
</a>
</g>
<!-- Node12&#45;&gt;Node13 -->
<g id="edge26" class="edge"><title>Node12&#45;&gt;Node13</title>
<path fill="none" stroke="midnightblue" d="M585.828,-84.8307C602.256,-83.5285 618.908,-82.2085 633.138,-81.0806"/>
<polygon fill="midnightblue" stroke="midnightblue" points="585.344,-81.358 575.652,-85.6373 585.897,-88.3361 585.344,-81.358"/>
</g>
<!-- Node17 -->
<g id="node36" class="node"><title>Node17</title>
<a xlink:href="midi__13_8cpp.html#a4104c2ae7e71376ad9dc78929450dc51" target="_top" xlink:title="EvAquire">
<polygon fill="white" stroke="black" points="644,-112 644,-136 700,-136 700,-112 644,-112"/>
<text text-anchor="middle" x="672" y="-123" font-family="Helvetica,sans-Serif" font-size="10.00">EvAquire</text>
</a>
</g>
<!-- Node12&#45;&gt;Node17 -->
<g id="edge38" class="edge"><title>Node12&#45;&gt;Node17</title>
<path fill="none" stroke="midnightblue" d="M577.555,-104.996C600.865,-109.686 625.549,-114.653 643.834,-118.332"/>
<polygon fill="midnightblue" stroke="midnightblue" points="578.166,-101.549 567.672,-103.007 576.785,-108.411 578.166,-101.549"/>
</g>
<!-- Node14 -->
<g id="node28" class="node"><title>Node14</title>
<a xlink:href="arduino__core__6___u_n_o_8cpp.html#ae72d1a8d74d9ab5515962e03e7e664d6" target="_top" xlink:title="arduino_do_analog_in\l_whitecat">
<polygon fill="white" stroke="black" points="768,-58 768,-98 878,-98 878,-58 768,-58"/>
<text text-anchor="start" x="776" y="-85" font-family="Helvetica,sans-Serif" font-size="10.00">arduino_do_analog_in</text>
<text text-anchor="middle" x="823" y="-69" font-family="Helvetica,sans-Serif" font-size="10.00">_whitecat</text>
</a>
</g>
<!-- Node13&#45;&gt;Node14 -->
<g id="edge28" class="edge"><title>Node13&#45;&gt;Node14</title>
<path fill="none" stroke="midnightblue" d="M720.941,-78C735.882,-78 752.412,-78 767.741,-78"/>
<polygon fill="midnightblue" stroke="midnightblue" points="720.886,-74.5001 710.886,-78 720.886,-81.5001 720.886,-74.5001"/>
</g>
<!-- Node16 -->
<g id="node33" class="node"><title>Node16</title>
<a xlink:href="arduino__core__6___u_n_o_8cpp.html#a219226c1cd6cc17c78e62fd4445bb445" target="_top" xlink:title="arduino_do_digital\l_in_whitecat">
<polygon fill="white" stroke="black" points="775.5,-0 775.5,-40 870.5,-40 870.5,-0 775.5,-0"/>
<text text-anchor="start" x="783.5" y="-27" font-family="Helvetica,sans-Serif" font-size="10.00">arduino_do_digital</text>
<text text-anchor="middle" x="823" y="-11" font-family="Helvetica,sans-Serif" font-size="10.00">_in_whitecat</text>
</a>
</g>
<!-- Node13&#45;&gt;Node16 -->
<g id="edge34" class="edge"><title>Node13&#45;&gt;Node16</title>
<path fill="none" stroke="midnightblue" d="M712.714,-62.3613C732.038,-54.9392 755.251,-46.0227 775.386,-38.2887"/>
<polygon fill="midnightblue" stroke="midnightblue" points="711.367,-59.1294 703.287,-65.9824 713.877,-65.6639 711.367,-59.1294"/>
</g>
<!-- Node15 -->
<g id="node30" class="node"><title>Node15</title>
<a xlink:href="_m_a_i_n__avec__objets_8cpp.html#ace9c8a9b37c6087c3cffef442d71d70e" target="_top" xlink:title="dixiemes_de_secondes">
<polygon fill="white" stroke="black" points="914.5,-46 914.5,-70 1033.5,-70 1033.5,-46 914.5,-46"/>
<text text-anchor="middle" x="974" y="-57" font-family="Helvetica,sans-Serif" font-size="10.00">dixiemes_de_secondes</text>
</a>
</g>
<!-- Node14&#45;&gt;Node15 -->
<g id="edge30" class="edge"><title>Node14&#45;&gt;Node15</title>
<path fill="none" stroke="midnightblue" d="M888.379,-69.3406C896.999,-68.1989 905.798,-67.0334 914.316,-65.9052"/>
<polygon fill="midnightblue" stroke="midnightblue" points="887.823,-65.8835 878.369,-70.6663 888.742,-72.8229 887.823,-65.8835"/>
</g>
<!-- Node15&#45;&gt;Node6 -->
<g id="edge32" class="edge"><title>Node15&#45;&gt;Node6</title>
<path fill="none" stroke="midnightblue" d="M1043.83,-58.4113C1096.62,-58.6871 1170.86,-59 1236,-59 1236,-59 1236,-59 1730,-59 1815.76,-59 1910.3,-105.895 1949.9,-127.876"/>
<polygon fill="midnightblue" stroke="midnightblue" points="1043.59,-54.9101 1033.57,-58.3568 1043.55,-61.91 1043.59,-54.9101"/>
</g>
<!-- Node16&#45;&gt;Node15 -->
<g id="edge36" class="edge"><title>Node16&#45;&gt;Node15</title>
<path fill="none" stroke="midnightblue" d="M880.527,-34.477C895.628,-38.2774 911.748,-42.334 926.274,-45.9896"/>
<polygon fill="midnightblue" stroke="midnightblue" points="881.329,-31.0698 870.777,-32.0234 879.621,-37.8582 881.329,-31.0698"/>
</g>
<!-- Node18 -->
<g id="node38" class="node"><title>Node18</title>
<a xlink:href="midi__13_8cpp.html#a831f1dfc7870ae4f6c64a0e65fbaf3ff" target="_top" xlink:title="Display">
<polygon fill="white" stroke="black" points="798,-116 798,-140 848,-140 848,-116 798,-116"/>
<text text-anchor="middle" x="823" y="-127" font-family="Helvetica,sans-Serif" font-size="10.00">Display</text>
</a>
</g>
<!-- Node17&#45;&gt;Node18 -->
<g id="edge40" class="edge"><title>Node17&#45;&gt;Node18</title>
<path fill="none" stroke="midnightblue" d="M710.074,-125.009C737.472,-125.734 773.673,-126.693 797.614,-127.328"/>
<polygon fill="midnightblue" stroke="midnightblue" points="710.137,-121.509 700.048,-124.743 709.952,-128.507 710.137,-121.509"/>
</g>
<!-- Node19 -->
<g id="node40" class="node"><title>Node19</title>
<a xlink:href="midi__13_8cpp.html#aa4aeee5088a4a5462566dfee5c9cc71f" target="_top" xlink:title="DisplayTask">
<polygon fill="white" stroke="black" points="938.5,-88 938.5,-112 1009.5,-112 1009.5,-88 938.5,-88"/>
<text text-anchor="middle" x="974" y="-99" font-family="Helvetica,sans-Serif" font-size="10.00">DisplayTask</text>
</a>
</g>
<!-- Node18&#45;&gt;Node19 -->
<g id="edge42" class="edge"><title>Node18&#45;&gt;Node19</title>
<path fill="none" stroke="midnightblue" d="M858.423,-121.431C882.533,-116.961 914.32,-111.066 938.456,-106.591"/>
<polygon fill="midnightblue" stroke="midnightblue" points="857.468,-118.049 848.274,-123.313 858.745,-124.931 857.468,-118.049"/>
</g>
<!-- Node21 -->
<g id="node45" class="node"><title>Node21</title>
<a xlink:href="midi___c_o_r_e_8cpp.html#a6fcb4c2efe85f50488d7aeeef1fc0a3e" target="_top" xlink:title="ReceiveEvents">
<polygon fill="white" stroke="black" points="932.5,-130 932.5,-154 1015.5,-154 1015.5,-130 932.5,-130"/>
<text text-anchor="middle" x="974" y="-141" font-family="Helvetica,sans-Serif" font-size="10.00">ReceiveEvents</text>
</a>
</g>
<!-- Node18&#45;&gt;Node21 -->
<g id="edge48" class="edge"><title>Node18&#45;&gt;Node21</title>
<path fill="none" stroke="midnightblue" d="M858.261,-131.269C880.416,-133.323 909.102,-135.983 932.372,-138.14"/>
<polygon fill="midnightblue" stroke="midnightblue" points="858.554,-127.782 848.274,-130.343 857.908,-134.752 858.554,-127.782"/>
</g>
<!-- Node20 -->
<g id="node42" class="node"><title>Node20</title>
<a xlink:href="midi___c_o_r_e_8cpp.html#a7d0f82d882071792d6a2df51ef13ec55" target="_top" xlink:title="ReceivePolling">
<polygon fill="white" stroke="black" points="1070,-87 1070,-111 1152,-111 1152,-87 1070,-87"/>
<text text-anchor="middle" x="1111" y="-98" font-family="Helvetica,sans-Serif" font-size="10.00">ReceivePolling</text>
</a>
</g>
<!-- Node19&#45;&gt;Node20 -->
<g id="edge44" class="edge"><title>Node19&#45;&gt;Node20</title>
<path fill="none" stroke="midnightblue" d="M1019.91,-99.6649C1036.02,-99.5473 1054.01,-99.416 1069.72,-99.3013"/>
<polygon fill="midnightblue" stroke="midnightblue" points="1019.61,-96.1669 1009.64,-99.7399 1019.66,-103.167 1019.61,-96.1669"/>
</g>
<!-- Node20&#45;&gt;Node20 -->
<g id="edge46" class="edge"><title>Node20&#45;&gt;Node20</title>
<path fill="none" stroke="midnightblue" d="M1088.51,-121.001C1090.81,-125.647 1098.31,-129 1111,-129 1131.83,-129 1138.66,-119.972 1131.5,-111.014"/>
<polygon fill="midnightblue" stroke="midnightblue" points="1091.98,-121.504 1090.5,-111.014 1085.12,-120.14 1091.98,-121.504"/>
</g>
<!-- Node21&#45;&gt;Node20 -->
<g id="edge50" class="edge"><title>Node21&#45;&gt;Node20</title>
<path fill="none" stroke="midnightblue" d="M1022.07,-126.913C1038.68,-121.7 1057.05,-115.933 1072.76,-111.002"/>
<polygon fill="midnightblue" stroke="midnightblue" points="1021.02,-123.574 1012.53,-129.908 1023.12,-130.252 1021.02,-123.574"/>
</g>
<!-- Node22 -->
<g id="node48" class="node"><title>Node22</title>
<a xlink:href="midi___c_o_r_e_8cpp.html#a0ccf480a33424e626f88d109d53d8366" target="_top" xlink:title="InitMidi">
<polygon fill="white" stroke="black" points="1087,-147 1087,-171 1135,-171 1135,-147 1087,-147"/>
<text text-anchor="middle" x="1111" y="-158" font-family="Helvetica,sans-Serif" font-size="10.00">InitMidi</text>
</a>
</g>
<!-- Node21&#45;&gt;Node22 -->
<g id="edge52" class="edge"><title>Node21&#45;&gt;Node22</title>
<path fill="none" stroke="midnightblue" d="M1025.93,-148.443C1046.89,-151.045 1070.06,-153.92 1086.92,-156.012"/>
<polygon fill="midnightblue" stroke="midnightblue" points="1026.2,-144.951 1015.85,-147.193 1025.34,-151.898 1026.2,-144.951"/>
</g>
<!-- Node22&#45;&gt;Node6 -->
<g id="edge54" class="edge"><title>Node22&#45;&gt;Node6</title>
<path fill="none" stroke="midnightblue" d="M1144.78,-148.556C1158.13,-144.752 1173.68,-140.721 1188,-138 1263.99,-123.557 1283.65,-119 1361,-119 1361,-119 1361,-119 1730,-119 1812.03,-119 1909.34,-130.844 1949.84,-136.303"/>
<polygon fill="midnightblue" stroke="midnightblue" points="1143.67,-145.234 1135.05,-151.396 1145.63,-151.953 1143.67,-145.234"/>
</g>
<!-- Node23 -->
<g id="node51" class="node"><title>Node23</title>
<a xlink:href="midi__13_8cpp.html#ac7a306aa81e374b447e7341d4d3a3eea" target="_top" xlink:title="midipage_devices">
<polygon fill="white" stroke="black" points="1188.5,-147 1188.5,-171 1283.5,-171 1283.5,-147 1188.5,-147"/>
<text text-anchor="middle" x="1236" y="-158" font-family="Helvetica,sans-Serif" font-size="10.00">midipage_devices</text>
</a>
</g>
<!-- Node22&#45;&gt;Node23 -->
<g id="edge56" class="edge"><title>Node22&#45;&gt;Node23</title>
<path fill="none" stroke="midnightblue" d="M1145.25,-159C1158.57,-159 1174.05,-159 1188.42,-159"/>
<polygon fill="midnightblue" stroke="midnightblue" points="1145.1,-155.5 1135.1,-159 1145.1,-162.5 1145.1,-155.5"/>
</g>
<!-- Node24 -->
<g id="node53" class="node"><title>Node24</title>
<a xlink:href="midi__13_8cpp.html#a8f70acacad6eaba8867bdd80dda5e277" target="_top" xlink:title="do_midi_config">
<polygon fill="white" stroke="black" points="1320,-147 1320,-171 1402,-171 1402,-147 1320,-147"/>
<text text-anchor="middle" x="1361" y="-158" font-family="Helvetica,sans-Serif" font-size="10.00">do_midi_config</text>
</a>
</g>
<!-- Node23&#45;&gt;Node24 -->
<g id="edge58" class="edge"><title>Node23&#45;&gt;Node24</title>
<path fill="none" stroke="midnightblue" d="M1293.77,-159C1302.5,-159 1311.35,-159 1319.65,-159"/>
<polygon fill="midnightblue" stroke="midnightblue" points="1293.61,-155.5 1283.61,-159 1293.61,-162.5 1293.61,-155.5"/>
</g>
<!-- Node25 -->
<g id="node55" class="node"><title>Node25</title>
<a xlink:href="_c_f_g__config__panel__8_8cpp.html#ad39c46e2fb3a3ba7ea0460140ead4f96" target="_top" xlink:title="do_panel_config">
<polygon fill="white" stroke="black" points="1438.5,-147 1438.5,-171 1525.5,-171 1525.5,-147 1438.5,-147"/>
<text text-anchor="middle" x="1482" y="-158" font-family="Helvetica,sans-Serif" font-size="10.00">do_panel_config</text>
</a>
</g>
<!-- Node24&#45;&gt;Node25 -->
<g id="edge60" class="edge"><title>Node24&#45;&gt;Node25</title>
<path fill="none" stroke="midnightblue" d="M1412.33,-159C1421.01,-159 1429.95,-159 1438.41,-159"/>
<polygon fill="midnightblue" stroke="midnightblue" points="1412.3,-155.5 1402.3,-159 1412.3,-162.5 1412.3,-155.5"/>
</g>
<!-- Node26 -->
<g id="node57" class="node"><title>Node26</title>
<a xlink:href="_c_f_g__config__panel__8_8cpp.html#a7968da66bccdba8b864caf6c8435f68e" target="_top" xlink:title="config_general_menu">
<polygon fill="white" stroke="black" points="1562.5,-147 1562.5,-171 1671.5,-171 1671.5,-147 1562.5,-147"/>
<text text-anchor="middle" x="1617" y="-158" font-family="Helvetica,sans-Serif" font-size="10.00">config_general_menu</text>
</a>
</g>
<!-- Node25&#45;&gt;Node26 -->
<g id="edge62" class="edge"><title>Node25&#45;&gt;Node26</title>
<path fill="none" stroke="midnightblue" d="M1536.07,-159C1544.62,-159 1553.47,-159 1562.04,-159"/>
<polygon fill="midnightblue" stroke="midnightblue" points="1535.83,-155.5 1525.83,-159 1535.83,-162.5 1535.83,-155.5"/>
</g>
<!-- Node26&#45;&gt;Node8 -->
<g id="edge64" class="edge"><title>Node26&#45;&gt;Node8</title>
<path fill="none" stroke="midnightblue" d="M1681.75,-159C1691.11,-159 1700.17,-159 1707.86,-159"/>
<polygon fill="midnightblue" stroke="midnightblue" points="1681.51,-155.5 1671.51,-159 1681.51,-162.5 1681.51,-155.5"/>
</g>
<!-- Node28 -->
<g id="node62" class="node"><title>Node28</title>
<a xlink:href="plot__core9_8cpp.html#a8959d98409d30cff9689b28771791f70" target="_top" xlink:title="do_logical_Plot_window">
<polygon fill="white" stroke="black" points="447.5,-148 447.5,-172 568.5,-172 568.5,-148 447.5,-148"/>
<text text-anchor="middle" x="508" y="-159" font-family="Helvetica,sans-Serif" font-size="10.00">do_logical_Plot_window</text>
</a>
</g>
<!-- Node27&#45;&gt;Node28 -->
<g id="edge68" class="edge"><title>Node27&#45;&gt;Node28</title>
<path fill="none" stroke="midnightblue" d="M409.069,-169.049C421.723,-167.891 434.94,-166.682 447.441,-165.539"/>
<polygon fill="midnightblue" stroke="midnightblue" points="408.705,-165.567 399.066,-169.963 409.343,-172.538 408.705,-165.567"/>
</g>
<!-- Node29 -->
<g id="node64" class="node"><title>Node29</title>
<a xlink:href="procs__visuels__rebuild1_8cpp.html#ae710b6e599e321ad5934a90140067054" target="_top" xlink:title="check_graphics_mouse\l_handling">
<polygon fill="white" stroke="black" points="612.5,-228 612.5,-268 731.5,-268 731.5,-228 612.5,-228"/>
<text text-anchor="start" x="620.5" y="-255" font-family="Helvetica,sans-Serif" font-size="10.00">check_graphics_mouse</text>
<text text-anchor="middle" x="672" y="-239" font-family="Helvetica,sans-Serif" font-size="10.00">_handling</text>
</a>
</g>
<!-- Node28&#45;&gt;Node29 -->
<g id="edge70" class="edge"><title>Node28&#45;&gt;Node29</title>
<path fill="none" stroke="midnightblue" d="M539.501,-176.903C566.586,-191.436 605.707,-212.428 634.421,-227.836"/>
<polygon fill="midnightblue" stroke="midnightblue" points="540.926,-173.696 530.46,-172.052 537.616,-179.864 540.926,-173.696"/>
</g>
<!-- Node29&#45;&gt;Node5 -->
<g id="edge72" class="edge"><title>Node29&#45;&gt;Node5</title>
<path fill="none" stroke="midnightblue" d="M742.033,-248C755.672,-248 769.551,-248 781.876,-248"/>
<polygon fill="midnightblue" stroke="midnightblue" points="741.679,-244.5 731.679,-248 741.679,-251.5 741.679,-244.5"/>
</g>
<!-- Node30&#45;&gt;Node11 -->
<g id="edge76" class="edge"><title>Node30&#45;&gt;Node11</title>
<path fill="none" stroke="midnightblue" d="M241.838,-118.33C264.513,-112.264 290.094,-105.421 309.986,-100.099"/>
<polygon fill="midnightblue" stroke="midnightblue" points="240.746,-114.999 231.99,-120.964 242.555,-121.761 240.746,-114.999"/>
</g>
<!-- Node31 -->
<g id="node70" class="node"><title>Node31</title>
<a xlink:href="plot__core9_8cpp.html#a7f4ac47666998b54954288840134d311" target="_top" xlink:title="logical_plot_shape_list">
<polygon fill="white" stroke="black" points="286.5,-121 286.5,-145 401.5,-145 401.5,-121 286.5,-121"/>
<text text-anchor="middle" x="344" y="-132" font-family="Helvetica,sans-Serif" font-size="10.00">logical_plot_shape_list</text>
</a>
</g>
<!-- Node30&#45;&gt;Node31 -->
<g id="edge78" class="edge"><title>Node30&#45;&gt;Node31</title>
<path fill="none" stroke="midnightblue" d="M246.538,-133C259.608,-133 273.425,-133 286.417,-133"/>
<polygon fill="midnightblue" stroke="midnightblue" points="246.245,-129.5 236.245,-133 246.245,-136.5 246.245,-129.5"/>
</g>
<!-- Node31&#45;&gt;Node28 -->
<g id="edge80" class="edge"><title>Node31&#45;&gt;Node28</title>
<path fill="none" stroke="midnightblue" d="M412.001,-144.195C423.729,-146.126 435.852,-148.122 447.369,-150.018"/>
<polygon fill="midnightblue" stroke="midnightblue" points="412.256,-140.69 401.82,-142.519 411.119,-147.597 412.256,-140.69"/>
</g>
</g>
</svg>
