<?xml version="1.0" encoding="UTF-8" standalone="no"?>
<!DOCTYPE svg PUBLIC "-//W3C//DTD SVG 1.1//EN"
 "http://www.w3.org/Graphics/SVG/1.1/DTD/svg11.dtd">
<!-- Generated by graphviz version 2.26.3 (20100126.1600)
 -->
<!-- Title: plot_draw_rectangle Pages: 1 -->
<svg width="352pt" height="74pt"
 viewBox="0.00 0.00 352.00 74.00" xmlns="http://www.w3.org/2000/svg" xmlns:xlink="http://www.w3.org/1999/xlink">
<g id="graph1" class="graph" transform="scale(1 1) rotate(0) translate(4 70)">
<title>plot_draw_rectangle</title>
<polygon fill="white" stroke="white" points="-4,5 -4,-70 349,-70 349,5 -4,5"/>
<!-- Node1 -->
<g id="node1" class="node"><title>Node1</title>
<polygon fill="#bfbfbf" stroke="black" points="0,-21 0,-45 104,-45 104,-21 0,-21"/>
<text text-anchor="middle" x="52" y="-32" font-family="Helvetica,sans-Serif" font-size="10.00">plot_draw_rectangle</text>
</g>
<!-- Node2 -->
<g id="node3" class="node"><title>Node2</title>
<a xlink:href="plot9_8cpp.html#a3b6965809d6bc00de46fa526dda3e30c" target="_top" xlink:title="plot_shape_list">
<polygon fill="white" stroke="black" points="147,-42 147,-66 229,-66 229,-42 147,-42"/>
<text text-anchor="middle" x="188" y="-53" font-family="Helvetica,sans-Serif" font-size="10.00">plot_shape_list</text>
</a>
</g>
<!-- Node1&#45;&gt;Node2 -->
<g id="edge2" class="edge"><title>Node1&#45;&gt;Node2</title>
<path fill="none" stroke="midnightblue" d="M114.218,-42.6072C125.235,-44.3083 136.455,-46.0408 146.711,-47.6245"/>
<polygon fill="midnightblue" stroke="midnightblue" points="114.609,-39.1262 104.192,-41.0591 113.541,-46.0442 114.609,-39.1262"/>
</g>
<!-- Node4 -->
<g id="node7" class="node"><title>Node4</title>
<a xlink:href="plot9_8cpp.html#ad61fd77919687dad361cf978016942ae" target="_top" xlink:title="plot_draw_shapes">
<polygon fill="white" stroke="black" points="140.5,-0 140.5,-24 235.5,-24 235.5,-0 140.5,-0"/>
<text text-anchor="middle" x="188" y="-11" font-family="Helvetica,sans-Serif" font-size="10.00">plot_draw_shapes</text>
</a>
</g>
<!-- Node1&#45;&gt;Node4 -->
<g id="edge6" class="edge"><title>Node1&#45;&gt;Node4</title>
<path fill="none" stroke="midnightblue" d="M114.304,-23.3795C122.997,-22.0373 131.814,-20.6758 140.183,-19.3835"/>
<polygon fill="midnightblue" stroke="midnightblue" points="113.541,-19.9558 104.192,-24.9409 114.609,-26.8738 113.541,-19.9558"/>
</g>
<!-- Node3 -->
<g id="node5" class="node"><title>Node3</title>
<a xlink:href="plot9_8cpp.html#a3d45bfc1bc76a3d67ad1a8bb3d63163d" target="_top" xlink:title="Plot_window">
<polygon fill="white" stroke="black" points="272,-21 272,-45 344,-45 344,-21 272,-21"/>
<text text-anchor="middle" x="308" y="-32" font-family="Helvetica,sans-Serif" font-size="10.00">Plot_window</text>
</a>
</g>
<!-- Node2&#45;&gt;Node3 -->
<g id="edge4" class="edge"><title>Node2&#45;&gt;Node3</title>
<path fill="none" stroke="midnightblue" d="M239.221,-45.0363C250.197,-43.1155 261.574,-41.1246 271.838,-39.3283"/>
<polygon fill="midnightblue" stroke="midnightblue" points="238.544,-41.6015 229.297,-46.773 239.751,-48.4967 238.544,-41.6015"/>
</g>
<!-- Node4&#45;&gt;Node3 -->
<g id="edge8" class="edge"><title>Node4&#45;&gt;Node3</title>
<path fill="none" stroke="midnightblue" d="M245.749,-22.1061C254.648,-23.6633 263.612,-25.2322 271.859,-26.6753"/>
<polygon fill="midnightblue" stroke="midnightblue" points="246.226,-18.6364 235.772,-20.3601 245.019,-25.5316 246.226,-18.6364"/>
</g>
</g>
</svg>
