<?xml version="1.0" encoding="UTF-8" standalone="no"?>
<!DOCTYPE svg PUBLIC "-//W3C//DTD SVG 1.1//EN"
 "http://www.w3.org/Graphics/SVG/1.1/DTD/svg11.dtd">
<!-- Generated by graphviz version 2.26.3 (20100126.1600)
 -->
<!-- Title: plot_draw_symbol_fresnel Pages: 1 -->
<svg width="424pt" height="142pt"
 viewBox="0.00 0.00 424.00 142.00" xmlns="http://www.w3.org/2000/svg" xmlns:xlink="http://www.w3.org/1999/xlink">
<g id="graph1" class="graph" transform="scale(1 1) rotate(0) translate(4 138)">
<title>plot_draw_symbol_fresnel</title>
<polygon fill="white" stroke="white" points="-4,5 -4,-138 421,-138 421,5 -4,5"/>
<!-- Node1 -->
<g id="node1" class="node"><title>Node1</title>
<polygon fill="#bfbfbf" stroke="black" points="0,-60 0,-84 130,-84 130,-60 0,-60"/>
<text text-anchor="middle" x="65" y="-71" font-family="Helvetica,sans-Serif" font-size="10.00">plot_draw_symbol_fresnel</text>
</g>
<!-- Node2 -->
<g id="node3" class="node"><title>Node2</title>
<a xlink:href="whitecat_8h.html#a53146b0df4992543bd09594d4ce44f7d" target="_top" xlink:title="CouleurPlotFill">
<polygon fill="white" stroke="black" points="333,-110 333,-134 413,-134 413,-110 333,-110"/>
<text text-anchor="middle" x="373" y="-121" font-family="Helvetica,sans-Serif" font-size="10.00">CouleurPlotFill</text>
</a>
</g>
<!-- Node1&#45;&gt;Node2 -->
<g id="edge2" class="edge"><title>Node1&#45;&gt;Node2</title>
<path fill="none" stroke="midnightblue" d="M88.3429,-84.1586C108.356,-93.9192 138.264,-106.957 166,-113 218.601,-124.461 280.446,-125.598 322.749,-124.564"/>
<polygon fill="midnightblue" stroke="midnightblue" points="322.906,-128.061 332.799,-124.269 322.7,-121.064 322.906,-128.061"/>
</g>
<!-- Node3 -->
<g id="node5" class="node"><title>Node3</title>
<a xlink:href="whitecat_8h.html#a5e88fb41a8a9fa61f87aae4fedd74510" target="_top" xlink:title="CouleurPlotLine">
<polygon fill="white" stroke="black" points="330,-59 330,-83 416,-83 416,-59 330,-59"/>
<text text-anchor="middle" x="373" y="-70" font-family="Helvetica,sans-Serif" font-size="10.00">CouleurPlotLine</text>
</a>
</g>
<!-- Node1&#45;&gt;Node3 -->
<g id="edge4" class="edge"><title>Node1&#45;&gt;Node3</title>
<path fill="none" stroke="midnightblue" d="M130.197,-71.2598C142.108,-71.1515 154.427,-71.0573 166,-71 218.179,-70.7417 277.757,-70.7764 319.557,-70.8548"/>
<polygon fill="midnightblue" stroke="midnightblue" points="319.778,-74.3552 329.785,-70.8756 319.792,-67.3552 319.778,-74.3552"/>
</g>
<!-- Node4 -->
<g id="node7" class="node"><title>Node4</title>
<a xlink:href="plot_8cpp.html#a9608f90dd2bb998cbc57b7794c18d834" target="_top" xlink:title="draw_channel_of_symbol">
<polygon fill="white" stroke="black" points="166.5,-80 166.5,-104 293.5,-104 293.5,-80 166.5,-80"/>
<text text-anchor="middle" x="230" y="-91" font-family="Helvetica,sans-Serif" font-size="10.00">draw_channel_of_symbol</text>
</a>
</g>
<!-- Node1&#45;&gt;Node4 -->
<g id="edge6" class="edge"><title>Node1&#45;&gt;Node4</title>
<path fill="none" stroke="midnightblue" d="M130.212,-79.9045C138.759,-80.9404 147.564,-82.0078 156.239,-83.0593"/>
<polygon fill="midnightblue" stroke="midnightblue" points="155.991,-86.5547 166.339,-84.2836 156.833,-79.6056 155.991,-86.5547"/>
</g>
<!-- Node5 -->
<g id="node11" class="node"><title>Node5</title>
<a xlink:href="plot_8cpp.html#a75932a66d44fcbfcc6aefacb21aaa636" target="_top" xlink:title="draw_gels_of_a_symbol">
<polygon fill="white" stroke="black" points="169,-0 169,-24 291,-24 291,-0 169,-0"/>
<text text-anchor="middle" x="230" y="-11" font-family="Helvetica,sans-Serif" font-size="10.00">draw_gels_of_a_symbol</text>
</a>
</g>
<!-- Node1&#45;&gt;Node5 -->
<g id="edge12" class="edge"><title>Node1&#45;&gt;Node5</title>
<path fill="none" stroke="midnightblue" d="M98.3902,-59.8581C124.082,-50.5156 159.764,-37.5403 187.494,-27.4567"/>
<polygon fill="midnightblue" stroke="midnightblue" points="188.74,-30.7281 196.941,-24.0213 186.347,-24.1495 188.74,-30.7281"/>
</g>
<!-- Node4&#45;&gt;Node2 -->
<g id="edge8" class="edge"><title>Node4&#45;&gt;Node2</title>
<path fill="none" stroke="midnightblue" d="M287.34,-104.029C299.119,-106.5 311.432,-109.084 322.931,-111.496"/>
<polygon fill="midnightblue" stroke="midnightblue" points="322.286,-114.937 332.792,-113.565 323.724,-108.086 322.286,-114.937"/>
</g>
<!-- Node4&#45;&gt;Node3 -->
<g id="edge10" class="edge"><title>Node4&#45;&gt;Node3</title>
<path fill="none" stroke="midnightblue" d="M293.555,-82.6668C302.252,-81.3896 311.108,-80.0891 319.599,-78.8421"/>
<polygon fill="midnightblue" stroke="midnightblue" points="320.355,-82.2687 329.741,-77.3528 319.338,-75.343 320.355,-82.2687"/>
</g>
</g>
</svg>
