<?xml version="1.0" encoding="UTF-8" standalone="no"?>
<!DOCTYPE svg PUBLIC "-//W3C//DTD SVG 1.1//EN"
 "http://www.w3.org/Graphics/SVG/1.1/DTD/svg11.dtd">
<!-- Generated by graphviz version 2.26.3 (20100126.1600)
 -->
<!-- Title: symbol_edition_options Pages: 1 -->
<svg width="250pt" height="74pt"
 viewBox="0.00 0.00 250.00 74.00" xmlns="http://www.w3.org/2000/svg" xmlns:xlink="http://www.w3.org/1999/xlink">
<g id="graph1" class="graph" transform="scale(1 1) rotate(0) translate(4 70)">
<title>symbol_edition_options</title>
<polygon fill="white" stroke="white" points="-4,5 -4,-70 247,-70 247,5 -4,5"/>
<!-- Node1 -->
<g id="node1" class="node"><title>Node1</title>
<polygon fill="#bfbfbf" stroke="black" points="0.5,-21 0.5,-45 119.5,-45 119.5,-21 0.5,-21"/>
<text text-anchor="middle" x="60" y="-32" font-family="Helvetica,sans-Serif" font-size="10.00">symbol_edition_options</text>
</g>
<!-- Node2 -->
<g id="node3" class="node"><title>Node2</title>
<a xlink:href="whitecat_8h.html#a5e88fb41a8a9fa61f87aae4fedd74510" target="_top" xlink:title="CouleurPlotLine">
<polygon fill="white" stroke="black" points="156,-42 156,-66 242,-66 242,-42 156,-42"/>
<text text-anchor="middle" x="199" y="-53" font-family="Helvetica,sans-Serif" font-size="10.00">CouleurPlotLine</text>
</a>
</g>
<!-- Node1&#45;&gt;Node2 -->
<g id="edge2" class="edge"><title>Node1&#45;&gt;Node2</title>
<path fill="none" stroke="midnightblue" d="M119.755,-42.0278C128.334,-43.3239 137.116,-44.6506 145.562,-45.9266"/>
<polygon fill="midnightblue" stroke="midnightblue" points="145.252,-49.4194 155.663,-47.4526 146.298,-42.498 145.252,-49.4194"/>
</g>
<!-- Node3 -->
<g id="node5" class="node"><title>Node3</title>
<a xlink:href="colors__fonts_8h.html#ae9274ddf03277718b9234207fe9a3d3a" target="_top" xlink:title="CouleurGreen">
<polygon fill="white" stroke="black" points="160.5,-0 160.5,-24 237.5,-24 237.5,-0 160.5,-0"/>
<text text-anchor="middle" x="199" y="-11" font-family="Helvetica,sans-Serif" font-size="10.00">CouleurGreen</text>
</a>
</g>
<!-- Node1&#45;&gt;Node3 -->
<g id="edge4" class="edge"><title>Node1&#45;&gt;Node3</title>
<path fill="none" stroke="midnightblue" d="M119.755,-23.9722C129.913,-22.4376 140.354,-20.8602 150.187,-19.3746"/>
<polygon fill="midnightblue" stroke="midnightblue" points="150.812,-22.82 160.177,-17.8654 149.766,-15.8986 150.812,-22.82"/>
</g>
</g>
</svg>
