<?xml version="1.0" encoding="UTF-8" standalone="no"?>
<!DOCTYPE svg PUBLIC "-//W3C//DTD SVG 1.1//EN"
 "http://www.w3.org/Graphics/SVG/1.1/DTD/svg11.dtd">
<!-- Generated by graphviz version 2.26.3 (20100126.1600)
 -->
<!-- Title: snapshot_calc Pages: 1 -->
<svg width="1078pt" height="188pt"
 viewBox="0.00 0.00 1078.00 188.14" xmlns="http://www.w3.org/2000/svg" xmlns:xlink="http://www.w3.org/1999/xlink">
<g id="graph1" class="graph" transform="scale(1 1) rotate(0) translate(4 184.144)">
<title>snapshot_calc</title>
<polygon fill="white" stroke="white" points="-4,5 -4,-184.144 1075,-184.144 1075,5 -4,5"/>
<!-- Node1 -->
<g id="node1" class="node"><title>Node1</title>
<polygon fill="#bfbfbf" stroke="black" points="0,-94 0,-118 80,-118 80,-94 0,-94"/>
<text text-anchor="middle" x="40" y="-105" font-family="Helvetica,sans-Serif" font-size="10.00">snapshot_calc</text>
</g>
<!-- Node2 -->
<g id="node3" class="node"><title>Node2</title>
<a xlink:href="plot__core9_8cpp.html#afa207c7603f4ee259c528f3d86afb2f6" target="_top" xlink:title="exchange_symbol_position">
<polygon fill="white" stroke="black" points="116,-134 116,-158 250,-158 250,-134 116,-134"/>
<text text-anchor="middle" x="183" y="-145" font-family="Helvetica,sans-Serif" font-size="10.00">exchange_symbol_position</text>
</a>
</g>
<!-- Node1&#45;&gt;Node2 -->
<g id="edge2" class="edge"><title>Node1&#45;&gt;Node2</title>
<path fill="none" stroke="midnightblue" d="M90.1204,-120.02C106.425,-124.58 124.363,-129.598 140.091,-133.997"/>
<polygon fill="midnightblue" stroke="midnightblue" points="90.7872,-116.572 80.214,-117.249 88.9015,-123.313 90.7872,-116.572"/>
</g>
<!-- Node3 -->
<g id="node5" class="node"><title>Node3</title>
<a xlink:href="plot__core9_8cpp.html#a91f3a181b08c6bd1095771d96903f7f9" target="_top" xlink:title="position_down_selected\l_symbols">
<polygon fill="white" stroke="black" points="286.5,-138 286.5,-178 407.5,-178 407.5,-138 286.5,-138"/>
<text text-anchor="start" x="294.5" y="-165" font-family="Helvetica,sans-Serif" font-size="10.00">position_down_selected</text>
<text text-anchor="middle" x="347" y="-149" font-family="Helvetica,sans-Serif" font-size="10.00">_symbols</text>
</a>
</g>
<!-- Node1&#45;&gt;Node3 -->
<g id="edge26" class="edge"><title>Node1&#45;&gt;Node3</title>
<path fill="none" stroke="midnightblue" d="M57.1392,-125.579C71.2641,-140.125 92.7025,-158.807 116,-167 171.278,-186.44 238.639,-180.779 286.321,-172.325"/>
<polygon fill="midnightblue" stroke="midnightblue" points="59.4616,-122.938 50.079,-118.016 54.3447,-127.715 59.4616,-122.938"/>
</g>
<!-- Node4 -->
<g id="node7" class="node"><title>Node4</title>
<a xlink:href="plot__core9_8cpp.html#a74a79a0e49b7f81a7cb8b944c77b3b0d" target="_top" xlink:title="logical_plot_symbol\l_edition">
<polygon fill="white" stroke="black" points="453,-83 453,-123 555,-123 555,-83 453,-83"/>
<text text-anchor="start" x="461" y="-110" font-family="Helvetica,sans-Serif" font-size="10.00">logical_plot_symbol</text>
<text text-anchor="middle" x="504" y="-94" font-family="Helvetica,sans-Serif" font-size="10.00">_edition</text>
</a>
</g>
<!-- Node1&#45;&gt;Node4 -->
<g id="edge30" class="edge"><title>Node1&#45;&gt;Node4</title>
<path fill="none" stroke="midnightblue" d="M90.0696,-99.1669C160.937,-90.4617 294.517,-77.6078 408,-87 422.65,-88.2125 438.43,-90.4487 452.88,-92.8729"/>
<polygon fill="midnightblue" stroke="midnightblue" points="89.5662,-95.7025 80.0786,-100.418 90.4361,-102.648 89.5662,-95.7025"/>
</g>
<!-- Node9 -->
<g id="node17" class="node"><title>Node9</title>
<a xlink:href="plot__core9_8cpp.html#a567a92fb27840f1db037b3ff0c15de28" target="_top" xlink:title="position_on_top">
<polygon fill="white" stroke="black" points="304.5,-96 304.5,-120 389.5,-120 389.5,-96 304.5,-96"/>
<text text-anchor="middle" x="347" y="-107" font-family="Helvetica,sans-Serif" font-size="10.00">position_on_top</text>
</a>
</g>
<!-- Node1&#45;&gt;Node9 -->
<g id="edge28" class="edge"><title>Node1&#45;&gt;Node9</title>
<path fill="none" stroke="midnightblue" d="M90.4468,-106.329C150.111,-106.717 248.374,-107.357 304.389,-107.722"/>
<polygon fill="midnightblue" stroke="midnightblue" points="90.1575,-102.827 80.1349,-106.261 90.1118,-109.827 90.1575,-102.827"/>
</g>
<!-- Node10 -->
<g id="node20" class="node"><title>Node10</title>
<a xlink:href="plot__core9_8cpp.html#a3431bbe587897e907b6dee6b35777684" target="_top" xlink:title="send_symbols_from_calc\l_to_calc">
<polygon fill="white" stroke="black" points="119,-0 119,-40 247,-40 247,-0 119,-0"/>
<text text-anchor="start" x="127" y="-27" font-family="Helvetica,sans-Serif" font-size="10.00">send_symbols_from_calc</text>
<text text-anchor="middle" x="183" y="-11" font-family="Helvetica,sans-Serif" font-size="10.00">_to_calc</text>
</a>
</g>
<!-- Node1&#45;&gt;Node10 -->
<g id="edge20" class="edge"><title>Node1&#45;&gt;Node10</title>
<path fill="none" stroke="midnightblue" d="M64.9559,-87.7084C79.533,-77.335 98.4583,-64.392 116,-54 124.08,-49.2132 132.915,-44.4295 141.441,-40.0258"/>
<polygon fill="midnightblue" stroke="midnightblue" points="62.5715,-85.1118 56.4928,-93.7894 66.6562,-90.7965 62.5715,-85.1118"/>
</g>
<!-- Node2&#45;&gt;Node3 -->
<g id="edge4" class="edge"><title>Node2&#45;&gt;Node3</title>
<path fill="none" stroke="midnightblue" d="M260.334,-151.659C269.032,-152.295 277.801,-152.937 286.246,-153.555"/>
<polygon fill="midnightblue" stroke="midnightblue" points="260.407,-148.155 250.178,-150.915 259.896,-155.136 260.407,-148.155"/>
</g>
<!-- Node2&#45;&gt;Node9 -->
<g id="edge16" class="edge"><title>Node2&#45;&gt;Node9</title>
<path fill="none" stroke="midnightblue" d="M244.809,-131.678C264.713,-127.066 286.31,-122.062 304.499,-117.848"/>
<polygon fill="midnightblue" stroke="midnightblue" points="243.842,-128.31 234.891,-133.977 245.423,-135.129 243.842,-128.31"/>
</g>
<!-- Node3&#45;&gt;Node4 -->
<g id="edge6" class="edge"><title>Node3&#45;&gt;Node4</title>
<path fill="none" stroke="midnightblue" d="M413.599,-134.669C426.75,-130.062 440.358,-125.295 452.899,-120.901"/>
<polygon fill="midnightblue" stroke="midnightblue" points="412.405,-131.379 404.125,-137.988 414.72,-137.985 412.405,-131.379"/>
</g>
<!-- Node5 -->
<g id="node9" class="node"><title>Node5</title>
<a xlink:href="plot__core9_8cpp.html#a8959d98409d30cff9689b28771791f70" target="_top" xlink:title="do_logical_Plot_window">
<polygon fill="white" stroke="black" points="600.5,-61 600.5,-85 721.5,-85 721.5,-61 600.5,-61"/>
<text text-anchor="middle" x="661" y="-72" font-family="Helvetica,sans-Serif" font-size="10.00">do_logical_Plot_window</text>
</a>
</g>
<!-- Node4&#45;&gt;Node5 -->
<g id="edge8" class="edge"><title>Node4&#45;&gt;Node5</title>
<path fill="none" stroke="midnightblue" d="M565.381,-91.2712C576.911,-89.0679 588.96,-86.7656 600.465,-84.5673"/>
<polygon fill="midnightblue" stroke="midnightblue" points="564.573,-87.8621 555.408,-93.1769 565.887,-94.7377 564.573,-87.8621"/>
</g>
<!-- Node6 -->
<g id="node11" class="node"><title>Node6</title>
<a xlink:href="procs__visuels__rebuild1_8cpp.html#ae710b6e599e321ad5934a90140067054" target="_top" xlink:title="check_graphics_mouse\l_handling">
<polygon fill="white" stroke="black" points="758.5,-53 758.5,-93 877.5,-93 877.5,-53 758.5,-53"/>
<text text-anchor="start" x="766.5" y="-80" font-family="Helvetica,sans-Serif" font-size="10.00">check_graphics_mouse</text>
<text text-anchor="middle" x="818" y="-64" font-family="Helvetica,sans-Serif" font-size="10.00">_handling</text>
</a>
</g>
<!-- Node5&#45;&gt;Node6 -->
<g id="edge10" class="edge"><title>Node5&#45;&gt;Node6</title>
<path fill="none" stroke="midnightblue" d="M731.718,-73C740.664,-73 749.747,-73 758.495,-73"/>
<polygon fill="midnightblue" stroke="midnightblue" points="731.7,-69.5001 721.7,-73 731.7,-76.5001 731.7,-69.5001"/>
</g>
<!-- Node7 -->
<g id="node13" class="node"><title>Node7</title>
<a xlink:href="_m_a_i_n__avec__objets_8cpp.html#a8e80f54ac804eddce8ed6e45adb1db44" target="_top" xlink:title="ticker_full_loop">
<polygon fill="white" stroke="black" points="914,-61 914,-85 996,-85 996,-61 914,-61"/>
<text text-anchor="middle" x="955" y="-72" font-family="Helvetica,sans-Serif" font-size="10.00">ticker_full_loop</text>
</a>
</g>
<!-- Node6&#45;&gt;Node7 -->
<g id="edge12" class="edge"><title>Node6&#45;&gt;Node7</title>
<path fill="none" stroke="midnightblue" d="M887.967,-73C896.737,-73 905.475,-73 913.605,-73"/>
<polygon fill="midnightblue" stroke="midnightblue" points="887.692,-69.5001 877.692,-73 887.692,-76.5001 887.692,-69.5001"/>
</g>
<!-- Node8 -->
<g id="node15" class="node"><title>Node8</title>
<a xlink:href="_m_a_i_n__avec__objets_8cpp.html#ae66f6b31b5ad750f1fe042a706a4e3d4" target="_top" xlink:title="main">
<polygon fill="white" stroke="black" points="1032,-61 1032,-85 1070,-85 1070,-61 1032,-61"/>
<text text-anchor="middle" x="1051" y="-72" font-family="Helvetica,sans-Serif" font-size="10.00">main</text>
</a>
</g>
<!-- Node7&#45;&gt;Node8 -->
<g id="edge14" class="edge"><title>Node7&#45;&gt;Node8</title>
<path fill="none" stroke="midnightblue" d="M1006.51,-73C1015.58,-73 1024.48,-73 1031.9,-73"/>
<polygon fill="midnightblue" stroke="midnightblue" points="1006.27,-69.5001 996.27,-73 1006.27,-76.5001 1006.27,-69.5001"/>
</g>
<!-- Node9&#45;&gt;Node4 -->
<g id="edge18" class="edge"><title>Node9&#45;&gt;Node4</title>
<path fill="none" stroke="midnightblue" d="M400.213,-106.305C417.195,-105.764 435.945,-105.167 452.782,-104.631"/>
<polygon fill="midnightblue" stroke="midnightblue" points="399.784,-102.817 389.901,-106.634 400.007,-109.814 399.784,-102.817"/>
</g>
<!-- Node11 -->
<g id="node22" class="node"><title>Node11</title>
<a xlink:href="plot__core9_8cpp.html#a81228c183a1b219d5f3c5a759800df4b" target="_top" xlink:title="logical_plot_menu_bare">
<polygon fill="white" stroke="black" points="444.5,-32 444.5,-56 563.5,-56 563.5,-32 444.5,-32"/>
<text text-anchor="middle" x="504" y="-43" font-family="Helvetica,sans-Serif" font-size="10.00">logical_plot_menu_bare</text>
</a>
</g>
<!-- Node10&#45;&gt;Node11 -->
<g id="edge22" class="edge"><title>Node10&#45;&gt;Node11</title>
<path fill="none" stroke="midnightblue" d="M257.191,-25.547C314.017,-29.7956 391.387,-35.5803 444.26,-39.5335"/>
<polygon fill="midnightblue" stroke="midnightblue" points="257.421,-22.0545 247.188,-24.7991 256.899,-29.035 257.421,-22.0545"/>
</g>
<!-- Node11&#45;&gt;Node5 -->
<g id="edge24" class="edge"><title>Node11&#45;&gt;Node5</title>
<path fill="none" stroke="midnightblue" d="M573.726,-56.8793C582.594,-58.5173 591.613,-60.1832 600.323,-61.7921"/>
<polygon fill="midnightblue" stroke="midnightblue" points="574.272,-53.4211 563.803,-55.0464 573.001,-60.3047 574.272,-53.4211"/>
</g>
</g>
</svg>
