<?xml version="1.0" encoding="UTF-8" standalone="no"?>
<!DOCTYPE svg PUBLIC "-//W3C//DTD SVG 1.1//EN"
 "http://www.w3.org/Graphics/SVG/1.1/DTD/svg11.dtd">
<!-- Generated by graphviz version 2.26.3 (20100126.1600)
 -->
<!-- Title: plot_symbol_list Pages: 1 -->
<svg width="584pt" height="1016pt"
 viewBox="0.00 0.00 584.00 1016.42" xmlns="http://www.w3.org/2000/svg" xmlns:xlink="http://www.w3.org/1999/xlink">
<g id="graph1" class="graph" transform="scale(1 1) rotate(0) translate(4 1012.42)">
<title>plot_symbol_list</title>
<polygon fill="white" stroke="white" points="-4,5 -4,-1012.42 581,-1012.42 581,5 -4,5"/>
<!-- Node1 -->
<g id="node1" class="node"><title>Node1</title>
<polygon fill="#bfbfbf" stroke="black" points="0.5,-458 0.5,-482 87.5,-482 87.5,-458 0.5,-458"/>
<text text-anchor="middle" x="44" y="-469" font-family="Helvetica,sans-Serif" font-size="10.00">plot_symbol_list</text>
</g>
<!-- Node2 -->
<g id="node3" class="node"><title>Node2</title>
<a xlink:href="whitecat_8h.html#a5e88fb41a8a9fa61f87aae4fedd74510" target="_top" xlink:title="CouleurPlotLine">
<polygon fill="white" stroke="black" points="490,-382 490,-406 576,-406 576,-382 490,-382"/>
<text text-anchor="middle" x="533" y="-393" font-family="Helvetica,sans-Serif" font-size="10.00">CouleurPlotLine</text>
</a>
</g>
<!-- Node1&#45;&gt;Node2 -->
<g id="edge2" class="edge"><title>Node1&#45;&gt;Node2</title>
<path fill="none" stroke="midnightblue" d="M44.6219,-457.839C47.2582,-417.684 60.5336,-287.323 124,-207 188.46,-125.419 225.638,-116.166 326,-89 380.913,-74.1362 409.012,-54.18 454,-89 499.499,-124.215 523.567,-307.514 530.702,-371.74"/>
<polygon fill="midnightblue" stroke="midnightblue" points="527.252,-372.396 531.805,-381.963 534.212,-371.645 527.252,-372.396"/>
</g>
<!-- Node3 -->
<g id="node5" class="node"><title>Node3</title>
<a xlink:href="colors__fonts_8h.html#a432c8c850a2a3ffc16f0030931d99475" target="_top" xlink:title="CouleurNoir">
<polygon fill="white" stroke="black" points="173,-0 173,-24 241,-24 241,-0 173,-0"/>
<text text-anchor="middle" x="207" y="-11" font-family="Helvetica,sans-Serif" font-size="10.00">CouleurNoir</text>
</a>
</g>
<!-- Node1&#45;&gt;Node3 -->
<g id="edge4" class="edge"><title>Node1&#45;&gt;Node3</title>
<path fill="none" stroke="midnightblue" d="M44.5919,-457.962C47.927,-394.903 66.327,-103.075 124,-38 133.832,-26.9058 148.329,-20.4969 162.468,-16.8114"/>
<polygon fill="midnightblue" stroke="midnightblue" points="163.611,-20.144 172.627,-14.5811 162.11,-13.3068 163.611,-20.144"/>
</g>
<!-- Node4 -->
<g id="node7" class="node"><title>Node4</title>
<a xlink:href="plot_8cpp.html#acaab7be34c6f649c5bc3d1c287a3b59e" target="_top" xlink:title="plot_draw_symbol_pc">
<polygon fill="white" stroke="black" points="151.5,-500 151.5,-524 262.5,-524 262.5,-500 151.5,-500"/>
<text text-anchor="middle" x="207" y="-511" font-family="Helvetica,sans-Serif" font-size="10.00">plot_draw_symbol_pc</text>
</a>
</g>
<!-- Node1&#45;&gt;Node4 -->
<g id="edge6" class="edge"><title>Node1&#45;&gt;Node4</title>
<path fill="none" stroke="midnightblue" d="M87.5774,-481.514C99.3907,-484.615 112.181,-487.954 124,-491 132.173,-493.107 140.803,-495.312 149.286,-497.468"/>
<polygon fill="midnightblue" stroke="midnightblue" points="148.587,-500.902 159.141,-499.968 150.309,-494.117 148.587,-500.902"/>
</g>
<!-- Node8 -->
<g id="node18" class="node"><title>Node8</title>
<a xlink:href="plot_8cpp.html#a98f3f267050432cea030db5fb0f3d41b" target="_top" xlink:title="plot_draw_symbol_fresnel">
<polygon fill="white" stroke="black" points="142,-584 142,-608 272,-608 272,-584 142,-584"/>
<text text-anchor="middle" x="207" y="-595" font-family="Helvetica,sans-Serif" font-size="10.00">plot_draw_symbol_fresnel</text>
</a>
</g>
<!-- Node1&#45;&gt;Node8 -->
<g id="edge20" class="edge"><title>Node1&#45;&gt;Node8</title>
<path fill="none" stroke="midnightblue" d="M49.7896,-482.204C60.9206,-504.3 87.4769,-550.874 124,-575 126.728,-576.802 129.601,-578.45 132.573,-579.956"/>
<polygon fill="midnightblue" stroke="midnightblue" points="131.183,-583.169 141.74,-584.064 134.045,-576.781 131.183,-583.169"/>
</g>
<!-- Node9 -->
<g id="node24" class="node"><title>Node9</title>
<a xlink:href="plot_8cpp.html#adfbdc489a971fe612c0ab544a97ec797" target="_top" xlink:title="plot_draw_symbol_decoupe_1">
<polygon fill="white" stroke="black" points="133,-752 133,-776 281,-776 281,-752 133,-752"/>
<text text-anchor="middle" x="207" y="-763" font-family="Helvetica,sans-Serif" font-size="10.00">plot_draw_symbol_decoupe_1</text>
</a>
</g>
<!-- Node1&#45;&gt;Node9 -->
<g id="edge30" class="edge"><title>Node1&#45;&gt;Node9</title>
<path fill="none" stroke="midnightblue" d="M45.9263,-482.114C53.7736,-529.987 84.7868,-705.221 124,-743 125.137,-744.096 126.323,-745.137 127.552,-746.126"/>
<polygon fill="midnightblue" stroke="midnightblue" points="125.957,-749.27 136.214,-751.923 129.85,-743.452 125.957,-749.27"/>
</g>
<!-- Node10 -->
<g id="node30" class="node"><title>Node10</title>
<a xlink:href="plot_8cpp.html#ae4f9b818a3163cb729b2328c056ec3d6" target="_top" xlink:title="plot_draw_symbol_decoupe_2">
<polygon fill="white" stroke="black" points="133,-710 133,-734 281,-734 281,-710 133,-710"/>
<text text-anchor="middle" x="207" y="-721" font-family="Helvetica,sans-Serif" font-size="10.00">plot_draw_symbol_decoupe_2</text>
</a>
</g>
<!-- Node1&#45;&gt;Node10 -->
<g id="edge40" class="edge"><title>Node1&#45;&gt;Node10</title>
<path fill="none" stroke="midnightblue" d="M46.6423,-482.282C56.182,-525.534 90.0757,-669.861 124,-701 125.317,-702.209 126.694,-703.351 128.122,-704.43"/>
<polygon fill="midnightblue" stroke="midnightblue" points="126.48,-707.533 136.799,-709.935 130.231,-701.622 126.48,-707.533"/>
</g>
<!-- Node11 -->
<g id="node36" class="node"><title>Node11</title>
<a xlink:href="plot_8cpp.html#ac30ccfb35cb0d8b4bd9bb457c11b7a99" target="_top" xlink:title="plot_draw_symbol_decoupe_3">
<polygon fill="white" stroke="black" points="133,-316 133,-340 281,-340 281,-316 133,-316"/>
<text text-anchor="middle" x="207" y="-327" font-family="Helvetica,sans-Serif" font-size="10.00">plot_draw_symbol_decoupe_3</text>
</a>
</g>
<!-- Node1&#45;&gt;Node11 -->
<g id="edge50" class="edge"><title>Node1&#45;&gt;Node11</title>
<path fill="none" stroke="midnightblue" d="M48.4903,-457.883C58.2373,-433.319 83.748,-377.567 124,-349 126.252,-347.402 128.614,-345.925 131.059,-344.56"/>
<polygon fill="midnightblue" stroke="midnightblue" points="132.766,-347.622 140.221,-340.093 129.699,-341.33 132.766,-347.622"/>
</g>
<!-- Node12 -->
<g id="node42" class="node"><title>Node12</title>
<a xlink:href="plot_8cpp.html#a1478c0e2d5b0e364508e3e3c68e30a30" target="_top" xlink:title="plot_draw_symbol_Par_1">
<polygon fill="white" stroke="black" points="144,-626 144,-650 270,-650 270,-626 144,-626"/>
<text text-anchor="middle" x="207" y="-637" font-family="Helvetica,sans-Serif" font-size="10.00">plot_draw_symbol_Par_1</text>
</a>
</g>
<!-- Node1&#45;&gt;Node12 -->
<g id="edge60" class="edge"><title>Node1&#45;&gt;Node12</title>
<path fill="none" stroke="midnightblue" d="M46.9884,-482.059C54.6314,-510.292 77.6378,-581.01 124,-617 127.211,-619.492 130.682,-621.692 134.322,-623.632"/>
<polygon fill="midnightblue" stroke="midnightblue" points="133.119,-626.932 143.666,-627.943 136.052,-620.576 133.119,-626.932"/>
</g>
<!-- Node13 -->
<g id="node48" class="node"><title>Node13</title>
<a xlink:href="plot_8cpp.html#a05da6dea7c2e58d755b59ccdd736c71e" target="_top" xlink:title="plot_draw_symbol_Par_2">
<polygon fill="white" stroke="black" points="144,-274 144,-298 270,-298 270,-274 144,-274"/>
<text text-anchor="middle" x="207" y="-285" font-family="Helvetica,sans-Serif" font-size="10.00">plot_draw_symbol_Par_2</text>
</a>
</g>
<!-- Node1&#45;&gt;Node13 -->
<g id="edge70" class="edge"><title>Node1&#45;&gt;Node13</title>
<path fill="none" stroke="midnightblue" d="M46.3779,-457.569C52.9046,-426.958 74.0439,-347.495 124,-307 127.312,-304.315 130.925,-301.968 134.728,-299.917"/>
<polygon fill="midnightblue" stroke="midnightblue" points="136.309,-303.042 143.898,-295.649 133.355,-296.695 136.309,-303.042"/>
</g>
<!-- Node14 -->
<g id="node54" class="node"><title>Node14</title>
<a xlink:href="plot_8cpp.html#a6bfda7a84f045ed8efc2ba17b9bcdf9f" target="_top" xlink:title="plot_draw_symbol_Par_3">
<polygon fill="white" stroke="black" points="144,-668 144,-692 270,-692 270,-668 144,-668"/>
<text text-anchor="middle" x="207" y="-679" font-family="Helvetica,sans-Serif" font-size="10.00">plot_draw_symbol_Par_3</text>
</a>
</g>
<!-- Node1&#45;&gt;Node14 -->
<g id="edge80" class="edge"><title>Node1&#45;&gt;Node14</title>
<path fill="none" stroke="midnightblue" d="M45.4505,-482.352C50.0947,-516.134 67.7525,-610.742 124,-659 127.236,-661.777 130.789,-664.194 134.548,-666.299"/>
<polygon fill="midnightblue" stroke="midnightblue" points="133.108,-669.491 143.638,-670.664 136.138,-663.18 133.108,-669.491"/>
</g>
<!-- Node15 -->
<g id="node60" class="node"><title>Node15</title>
<a xlink:href="plot_8cpp.html#a77e26958ec69326342bfedccaf1a4087" target="_top" xlink:title="plot_draw_symbol_Par_4">
<polygon fill="white" stroke="black" points="144,-458 144,-482 270,-482 270,-458 144,-458"/>
<text text-anchor="middle" x="207" y="-469" font-family="Helvetica,sans-Serif" font-size="10.00">plot_draw_symbol_Par_4</text>
</a>
</g>
<!-- Node1&#45;&gt;Node15 -->
<g id="edge90" class="edge"><title>Node1&#45;&gt;Node15</title>
<path fill="none" stroke="midnightblue" d="M87.681,-470C101.837,-470 117.95,-470 133.654,-470"/>
<polygon fill="midnightblue" stroke="midnightblue" points="133.891,-473.5 143.891,-470 133.891,-466.5 133.891,-473.5"/>
</g>
<!-- Node16 -->
<g id="node65" class="node"><title>Node16</title>
<a xlink:href="plot_8cpp.html#a56aab34540f498ce376c7e7afda64992" target="_top" xlink:title="plot_draw_symbol_Horiziode\l_assym">
<polygon fill="white" stroke="black" points="136,-216 136,-256 278,-256 278,-216 136,-216"/>
<text text-anchor="start" x="144" y="-243" font-family="Helvetica,sans-Serif" font-size="10.00">plot_draw_symbol_Horiziode</text>
<text text-anchor="middle" x="207" y="-227" font-family="Helvetica,sans-Serif" font-size="10.00">_assym</text>
</a>
</g>
<!-- Node1&#45;&gt;Node16 -->
<g id="edge98" class="edge"><title>Node1&#45;&gt;Node16</title>
<path fill="none" stroke="midnightblue" d="M45.2279,-457.917C49.4165,-422.965 66.2596,-320.702 124,-265 125.099,-263.94 126.238,-262.919 127.413,-261.935"/>
<polygon fill="midnightblue" stroke="midnightblue" points="129.603,-264.671 135.641,-255.965 125.491,-259.005 129.603,-264.671"/>
</g>
<!-- Node17 -->
<g id="node71" class="node"><title>Node17</title>
<a xlink:href="plot_8cpp.html#af36d74b701e4c9a4170f1b567c635fe5" target="_top" xlink:title="plot_draw_symbol_Horiziode_sym">
<polygon fill="white" stroke="black" points="124,-542 124,-566 290,-566 290,-542 124,-542"/>
<text text-anchor="middle" x="207" y="-553" font-family="Helvetica,sans-Serif" font-size="10.00">plot_draw_symbol_Horiziode_sym</text>
</a>
</g>
<!-- Node1&#45;&gt;Node17 -->
<g id="edge108" class="edge"><title>Node1&#45;&gt;Node17</title>
<path fill="none" stroke="midnightblue" d="M55.8902,-482.059C70.6055,-496.3 97.0365,-519.727 124,-533 128.086,-535.011 132.383,-536.842 136.782,-538.507"/>
<polygon fill="midnightblue" stroke="midnightblue" points="135.938,-541.918 146.532,-541.891 138.233,-535.305 135.938,-541.918"/>
</g>
<!-- Node18 -->
<g id="node77" class="node"><title>Node18</title>
<a xlink:href="plot_8cpp.html#aa5fd69b695802e2893eabfc0362205b4" target="_top" xlink:title="plot_draw_symbol_BT">
<polygon fill="white" stroke="black" points="150.5,-416 150.5,-440 263.5,-440 263.5,-416 150.5,-416"/>
<text text-anchor="middle" x="207" y="-427" font-family="Helvetica,sans-Serif" font-size="10.00">plot_draw_symbol_BT</text>
</a>
</g>
<!-- Node1&#45;&gt;Node18 -->
<g id="edge118" class="edge"><title>Node1&#45;&gt;Node18</title>
<path fill="none" stroke="midnightblue" d="M87.5774,-458.486C99.3907,-455.385 112.181,-452.046 124,-449 132.173,-446.893 140.803,-444.688 149.286,-442.532"/>
<polygon fill="midnightblue" stroke="midnightblue" points="150.309,-445.883 159.141,-440.032 148.587,-439.098 150.309,-445.883"/>
</g>
<!-- Node19 -->
<g id="node82" class="node"><title>Node19</title>
<a xlink:href="plot_8cpp.html#a3a8a2ccb648371d774d6691af3472b6c" target="_top" xlink:title="plot_draw_symbol_rampe\l_brabo">
<polygon fill="white" stroke="black" points="143,-358 143,-398 271,-398 271,-358 143,-358"/>
<text text-anchor="start" x="151" y="-385" font-family="Helvetica,sans-Serif" font-size="10.00">plot_draw_symbol_rampe</text>
<text text-anchor="middle" x="207" y="-369" font-family="Helvetica,sans-Serif" font-size="10.00">_brabo</text>
</a>
</g>
<!-- Node1&#45;&gt;Node19 -->
<g id="edge126" class="edge"><title>Node1&#45;&gt;Node19</title>
<path fill="none" stroke="midnightblue" d="M56.6289,-457.847C71.6435,-443.95 97.9588,-421.281 124,-407 127.036,-405.335 130.187,-403.737 133.406,-402.208"/>
<polygon fill="midnightblue" stroke="midnightblue" points="134.931,-405.36 142.628,-398.08 132.071,-398.971 134.931,-405.36"/>
</g>
<!-- Node4&#45;&gt;Node2 -->
<g id="edge8" class="edge"><title>Node4&#45;&gt;Node2</title>
<path fill="none" stroke="midnightblue" d="M262.85,-502.709C272.305,-499.802 281.728,-495.991 290,-491 310.479,-478.644 305.652,-463.569 326,-451 373.368,-421.74 435.929,-407.22 479.829,-400.2"/>
<polygon fill="midnightblue" stroke="midnightblue" points="480.373,-403.658 489.732,-398.693 479.319,-396.738 480.373,-403.658"/>
</g>
<!-- Node5 -->
<g id="node10" class="node"><title>Node5</title>
<a xlink:href="whitecat_8h.html#a53146b0df4992543bd09594d4ce44f7d" target="_top" xlink:title="CouleurPlotFill">
<polygon fill="white" stroke="black" points="493,-808 493,-832 573,-832 573,-808 493,-808"/>
<text text-anchor="middle" x="533" y="-819" font-family="Helvetica,sans-Serif" font-size="10.00">CouleurPlotFill</text>
</a>
</g>
<!-- Node4&#45;&gt;Node5 -->
<g id="edge10" class="edge"><title>Node4&#45;&gt;Node5</title>
<path fill="none" stroke="midnightblue" d="M262.824,-523.279C272.089,-525.953 281.455,-529.17 290,-533 370.315,-569.002 397.377,-576.618 454,-644 493.835,-691.404 517.336,-762.13 527.319,-797.77"/>
<polygon fill="midnightblue" stroke="midnightblue" points="523.999,-798.899 529.986,-807.64 530.756,-797.073 523.999,-798.899"/>
</g>
<!-- Node6 -->
<g id="node12" class="node"><title>Node6</title>
<a xlink:href="plot_8cpp.html#a9608f90dd2bb998cbc57b7794c18d834" target="_top" xlink:title="draw_channel_of_symbol">
<polygon fill="white" stroke="black" points="326.5,-502 326.5,-526 453.5,-526 453.5,-502 326.5,-502"/>
<text text-anchor="middle" x="390" y="-513" font-family="Helvetica,sans-Serif" font-size="10.00">draw_channel_of_symbol</text>
</a>
</g>
<!-- Node4&#45;&gt;Node6 -->
<g id="edge12" class="edge"><title>Node4&#45;&gt;Node6</title>
<path fill="none" stroke="midnightblue" d="M262.9,-512.611C279.683,-512.794 298.358,-512.998 316.114,-513.193"/>
<polygon fill="midnightblue" stroke="midnightblue" points="316.403,-516.696 326.441,-513.305 316.48,-509.696 316.403,-516.696"/>
</g>
<!-- Node7 -->
<g id="node16" class="node"><title>Node7</title>
<a xlink:href="plot_8cpp.html#a75932a66d44fcbfcc6aefacb21aaa636" target="_top" xlink:title="draw_gels_of_a_symbol">
<polygon fill="white" stroke="black" points="329,-460 329,-484 451,-484 451,-460 329,-460"/>
<text text-anchor="middle" x="390" y="-471" font-family="Helvetica,sans-Serif" font-size="10.00">draw_gels_of_a_symbol</text>
</a>
</g>
<!-- Node4&#45;&gt;Node7 -->
<g id="edge18" class="edge"><title>Node4&#45;&gt;Node7</title>
<path fill="none" stroke="midnightblue" d="M261.906,-499.999C281.72,-495.668 304.275,-490.738 324.879,-486.234"/>
<polygon fill="midnightblue" stroke="midnightblue" points="325.795,-489.617 334.817,-484.062 324.3,-482.778 325.795,-489.617"/>
</g>
<!-- Node6&#45;&gt;Node2 -->
<g id="edge16" class="edge"><title>Node6&#45;&gt;Node2</title>
<path fill="none" stroke="midnightblue" d="M437.305,-501.998C443.184,-499.508 448.91,-496.536 454,-493 483.707,-472.362 507.855,-437.369 521.323,-414.992"/>
<polygon fill="midnightblue" stroke="midnightblue" points="524.406,-416.653 526.426,-406.252 518.361,-413.123 524.406,-416.653"/>
</g>
<!-- Node6&#45;&gt;Node5 -->
<g id="edge14" class="edge"><title>Node6&#45;&gt;Node5</title>
<path fill="none" stroke="midnightblue" d="M398.675,-526.116C411.79,-544.784 436.941,-581.99 454,-616 486.063,-679.924 513.699,-760.178 526.074,-798.155"/>
<polygon fill="midnightblue" stroke="midnightblue" points="522.751,-799.254 529.151,-807.697 529.413,-797.106 522.751,-799.254"/>
</g>
<!-- Node8&#45;&gt;Node2 -->
<g id="edge24" class="edge"><title>Node8&#45;&gt;Node2</title>
<path fill="none" stroke="midnightblue" d="M272.059,-604.14C325.866,-607.334 401.672,-603.268 454,-565 503.519,-528.786 522.885,-453.823 529.7,-416.347"/>
<polygon fill="midnightblue" stroke="midnightblue" points="533.232,-416.445 531.431,-406.004 526.328,-415.289 533.232,-416.445"/>
</g>
<!-- Node8&#45;&gt;Node5 -->
<g id="edge22" class="edge"><title>Node8&#45;&gt;Node5</title>
<path fill="none" stroke="midnightblue" d="M272.37,-604.472C278.985,-607.562 285.069,-611.64 290,-617 356.186,-688.951 251.429,-770.781 326,-834 373.738,-874.471 452.03,-853.556 497.411,-835.94"/>
<polygon fill="midnightblue" stroke="midnightblue" points="498.875,-839.123 506.844,-832.14 496.26,-832.63 498.875,-839.123"/>
</g>
<!-- Node8&#45;&gt;Node6 -->
<g id="edge26" class="edge"><title>Node8&#45;&gt;Node6</title>
<path fill="none" stroke="midnightblue" d="M264,-583.995C272.851,-581.444 281.778,-578.455 290,-575 317.152,-563.592 345.586,-545.569 365.162,-532.067"/>
<polygon fill="midnightblue" stroke="midnightblue" points="367.32,-534.829 373.497,-526.222 363.3,-529.098 367.32,-534.829"/>
</g>
<!-- Node8&#45;&gt;Node7 -->
<g id="edge28" class="edge"><title>Node8&#45;&gt;Node7</title>
<path fill="none" stroke="midnightblue" d="M272.388,-585.708C278.758,-582.926 284.781,-579.418 290,-575 320.379,-549.284 296.529,-519.752 326,-493 327.461,-491.674 329.008,-490.431 330.622,-489.267"/>
<polygon fill="midnightblue" stroke="midnightblue" points="332.446,-492.254 339.178,-484.073 328.814,-486.27 332.446,-492.254"/>
</g>
<!-- Node9&#45;&gt;Node2 -->
<g id="edge34" class="edge"><title>Node9&#45;&gt;Node2</title>
<path fill="none" stroke="midnightblue" d="M281.136,-767.325C335.91,-765.648 408.566,-754.102 454,-710 496.769,-668.485 522.669,-481.068 530.482,-416.188"/>
<polygon fill="midnightblue" stroke="midnightblue" points="533.963,-416.55 531.656,-406.21 527.011,-415.732 533.963,-416.55"/>
</g>
<!-- Node9&#45;&gt;Node5 -->
<g id="edge32" class="edge"><title>Node9&#45;&gt;Node5</title>
<path fill="none" stroke="midnightblue" d="M209.074,-776.085C216.497,-815.098 245.704,-937.937 326,-986 374.813,-1015.22 405.901,-1016.38 454,-986 504.623,-954.028 523.475,-879.775 529.936,-842.375"/>
<polygon fill="midnightblue" stroke="midnightblue" points="533.465,-842.462 531.565,-832.039 526.551,-841.373 533.465,-842.462"/>
</g>
<!-- Node9&#45;&gt;Node6 -->
<g id="edge36" class="edge"><title>Node9&#45;&gt;Node6</title>
<path fill="none" stroke="midnightblue" d="M276.092,-751.999C281.09,-749.525 285.806,-746.557 290,-743 355.102,-687.781 379.205,-582.151 386.873,-536.232"/>
<polygon fill="midnightblue" stroke="midnightblue" points="390.362,-536.574 388.448,-526.153 383.446,-535.493 390.362,-536.574"/>
</g>
<!-- Node9&#45;&gt;Node7 -->
<g id="edge38" class="edge"><title>Node9&#45;&gt;Node7</title>
<path fill="none" stroke="midnightblue" d="M279.499,-751.785C283.363,-749.327 286.917,-746.424 290,-743 365.112,-659.574 253.821,-578.976 326,-493 326.733,-492.127 327.503,-491.29 328.306,-490.487"/>
<polygon fill="midnightblue" stroke="midnightblue" points="330.644,-493.101 336.324,-484.157 326.307,-487.606 330.644,-493.101"/>
</g>
<!-- Node10&#45;&gt;Node2 -->
<g id="edge44" class="edge"><title>Node10&#45;&gt;Node2</title>
<path fill="none" stroke="midnightblue" d="M281.215,-725.884C335.667,-724.637 407.872,-713.826 454,-671 492.044,-635.679 520.341,-475.455 529.678,-416.156"/>
<polygon fill="midnightblue" stroke="midnightblue" points="533.178,-416.426 531.245,-406.009 526.26,-415.358 533.178,-416.426"/>
</g>
<!-- Node10&#45;&gt;Node5 -->
<g id="edge42" class="edge"><title>Node10&#45;&gt;Node5</title>
<path fill="none" stroke="midnightblue" d="M278.999,-734.092C283.039,-736.572 286.763,-739.515 290,-743 352.948,-810.785 255.157,-888.514 326,-948 369.567,-984.583 404.32,-975.718 454,-948 494.799,-925.237 517.156,-871.775 526.922,-841.64"/>
<polygon fill="midnightblue" stroke="midnightblue" points="530.279,-842.629 529.86,-832.042 523.586,-840.579 530.279,-842.629"/>
</g>
<!-- Node10&#45;&gt;Node6 -->
<g id="edge46" class="edge"><title>Node10&#45;&gt;Node6</title>
<path fill="none" stroke="midnightblue" d="M275.378,-709.821C280.594,-707.389 285.551,-704.48 290,-701 345.252,-657.784 373.653,-575.312 384.565,-535.956"/>
<polygon fill="midnightblue" stroke="midnightblue" points="387.95,-536.845 387.133,-526.281 381.185,-535.049 387.95,-536.845"/>
</g>
<!-- Node10&#45;&gt;Node7 -->
<g id="edge48" class="edge"><title>Node10&#45;&gt;Node7</title>
<path fill="none" stroke="midnightblue" d="M279.009,-709.917C283.047,-707.434 286.768,-704.489 290,-701 353.757,-632.174 264.664,-563.992 326,-493 326.86,-492.005 327.768,-491.056 328.718,-490.152"/>
<polygon fill="midnightblue" stroke="midnightblue" points="330.887,-492.9 336.73,-484.063 326.651,-487.327 330.887,-492.9"/>
</g>
<!-- Node11&#45;&gt;Node2 -->
<g id="edge54" class="edge"><title>Node11&#45;&gt;Node2</title>
<path fill="none" stroke="midnightblue" d="M266.452,-315.885C274.536,-313.398 282.592,-310.457 290,-307 307.885,-298.653 307.221,-287.072 326,-281 380.129,-263.497 403.549,-254.713 454,-281 490.894,-300.223 514.105,-345.427 525.207,-372.475"/>
<polygon fill="midnightblue" stroke="midnightblue" points="521.974,-373.819 528.872,-381.86 528.494,-371.272 521.974,-373.819"/>
</g>
<!-- Node11&#45;&gt;Node5 -->
<g id="edge52" class="edge"><title>Node11&#45;&gt;Node5</title>
<path fill="none" stroke="midnightblue" d="M264.937,-340.033C322.853,-355.318 409.512,-387.705 454,-451 494.23,-508.237 522.319,-726.8 530.525,-797.671"/>
<polygon fill="midnightblue" stroke="midnightblue" points="527.061,-798.19 531.67,-807.73 534.016,-797.399 527.061,-798.19"/>
</g>
<!-- Node11&#45;&gt;Node6 -->
<g id="edge56" class="edge"><title>Node11&#45;&gt;Node6</title>
<path fill="none" stroke="midnightblue" d="M278.334,-340.136C282.587,-342.6 286.537,-345.527 290,-349 336.581,-395.714 281.063,-444.702 326,-493 326.919,-493.987 327.884,-494.928 328.891,-495.825"/>
<polygon fill="midnightblue" stroke="midnightblue" points="327.146,-498.881 337.31,-501.871 331.229,-493.195 327.146,-498.881"/>
</g>
<!-- Node11&#45;&gt;Node7 -->
<g id="edge58" class="edge"><title>Node11&#45;&gt;Node7</title>
<path fill="none" stroke="midnightblue" d="M277.115,-340.159C281.765,-342.607 286.129,-345.524 290,-349 324.217,-379.721 293.984,-412.992 326,-446 329.234,-449.335 332.955,-452.255 336.941,-454.811"/>
<polygon fill="midnightblue" stroke="midnightblue" points="335.563,-458.049 346.005,-459.842 338.96,-451.929 335.563,-458.049"/>
</g>
<!-- Node12&#45;&gt;Node2 -->
<g id="edge62" class="edge"><title>Node12&#45;&gt;Node2</title>
<path fill="none" stroke="midnightblue" d="M270.234,-644.122C324.729,-645.916 402.527,-639.704 454,-598 511.157,-551.69 527.047,-458.676 531.396,-416.142"/>
<polygon fill="midnightblue" stroke="midnightblue" points="534.897,-416.291 532.307,-406.018 527.925,-415.664 534.897,-416.291"/>
</g>
<!-- Node12&#45;&gt;Node5 -->
<g id="edge64" class="edge"><title>Node12&#45;&gt;Node5</title>
<path fill="none" stroke="midnightblue" d="M270.312,-645.573C277.717,-648.756 284.557,-653.101 290,-659 355.106,-729.562 252.672,-810.026 326,-872 369.449,-908.722 399.504,-888.326 454,-872 475.695,-865.501 496.945,-850.91 511.932,-838.833"/>
<polygon fill="midnightblue" stroke="midnightblue" points="514.564,-841.194 519.988,-832.093 510.072,-835.825 514.564,-841.194"/>
</g>
<!-- Node12&#45;&gt;Node6 -->
<g id="edge66" class="edge"><title>Node12&#45;&gt;Node6</title>
<path fill="none" stroke="midnightblue" d="M270.106,-626.008C277.044,-623.539 283.823,-620.57 290,-617 326.356,-595.991 358.171,-558.024 375.675,-534.519"/>
<polygon fill="midnightblue" stroke="midnightblue" points="378.613,-536.43 381.663,-526.284 372.951,-532.314 378.613,-536.43"/>
</g>
<!-- Node12&#45;&gt;Node7 -->
<g id="edge68" class="edge"><title>Node12&#45;&gt;Node7</title>
<path fill="none" stroke="midnightblue" d="M270.111,-629.652C277.456,-626.58 284.334,-622.473 290,-617 331.277,-577.132 286.127,-534.272 326,-493 327.066,-491.896 328.192,-490.85 329.367,-489.859"/>
<polygon fill="midnightblue" stroke="midnightblue" points="331.504,-492.638 337.757,-484.085 327.535,-486.872 331.504,-492.638"/>
</g>
<!-- Node13&#45;&gt;Node2 -->
<g id="edge72" class="edge"><title>Node13&#45;&gt;Node2</title>
<path fill="none" stroke="midnightblue" d="M270.142,-276.401C277.308,-273.52 284.132,-269.799 290,-265 318.621,-241.592 294.705,-209.692 326,-190 374.15,-159.702 407.069,-157.847 454,-190 485.313,-211.453 515.89,-323.771 527.79,-371.982"/>
<polygon fill="midnightblue" stroke="midnightblue" points="524.402,-372.862 530.162,-381.754 531.204,-371.21 524.402,-372.862"/>
</g>
<!-- Node13&#45;&gt;Node5 -->
<g id="edge74" class="edge"><title>Node13&#45;&gt;Node5</title>
<path fill="none" stroke="midnightblue" d="M270.114,-286.16C326.867,-289.918 408.15,-304.927 454,-357 512.989,-423.996 528.862,-715.039 532.221,-797.908"/>
<polygon fill="midnightblue" stroke="midnightblue" points="528.726,-798.116 532.608,-807.974 535.721,-797.847 528.726,-798.116"/>
</g>
<!-- Node13&#45;&gt;Node6 -->
<g id="edge76" class="edge"><title>Node13&#45;&gt;Node6</title>
<path fill="none" stroke="midnightblue" d="M270.182,-293.694C277.607,-296.859 284.487,-301.166 290,-307 347.83,-368.201 270.324,-429.834 326,-493 326.87,-493.987 327.787,-494.928 328.745,-495.824"/>
<polygon fill="midnightblue" stroke="midnightblue" points="326.706,-498.67 336.805,-501.872 330.907,-493.071 326.706,-498.67"/>
</g>
<!-- Node13&#45;&gt;Node7 -->
<g id="edge78" class="edge"><title>Node13&#45;&gt;Node7</title>
<path fill="none" stroke="midnightblue" d="M270.131,-296.324C277.218,-299.086 284.025,-302.58 290,-307 340.03,-344.007 370.111,-414.199 382.849,-449.921"/>
<polygon fill="midnightblue" stroke="midnightblue" points="379.691,-451.503 386.248,-459.826 386.312,-449.231 379.691,-451.503"/>
</g>
<!-- Node14&#45;&gt;Node2 -->
<g id="edge82" class="edge"><title>Node14&#45;&gt;Node2</title>
<path fill="none" stroke="midnightblue" d="M270.11,-684.982C325.089,-685.805 403.677,-678 454,-634 487.675,-604.556 517.835,-469.7 528.707,-416.079"/>
<polygon fill="midnightblue" stroke="midnightblue" points="532.151,-416.705 530.674,-406.214 525.286,-415.336 532.151,-416.705"/>
</g>
<!-- Node14&#45;&gt;Node5 -->
<g id="edge84" class="edge"><title>Node14&#45;&gt;Node5</title>
<path fill="none" stroke="midnightblue" d="M270.295,-687.589C277.703,-690.77 284.548,-695.11 290,-701 354.027,-770.173 253.915,-849.27 326,-910 369.507,-946.654 402.177,-933.467 454,-910 485.016,-895.955 508.679,-863.049 521.703,-841.161"/>
<polygon fill="midnightblue" stroke="midnightblue" points="524.863,-842.685 526.776,-832.264 518.782,-839.217 524.863,-842.685"/>
</g>
<!-- Node14&#45;&gt;Node6 -->
<g id="edge86" class="edge"><title>Node14&#45;&gt;Node6</title>
<path fill="none" stroke="midnightblue" d="M270.311,-669.167C277.288,-666.492 284.02,-663.157 290,-659 335.541,-627.344 366.747,-567.761 381.071,-535.713"/>
<polygon fill="midnightblue" stroke="midnightblue" points="384.365,-536.912 385.125,-526.345 377.941,-534.132 384.365,-536.912"/>
</g>
<!-- Node14&#45;&gt;Node7 -->
<g id="edge88" class="edge"><title>Node14&#45;&gt;Node7</title>
<path fill="none" stroke="midnightblue" d="M270.061,-672.19C277.505,-669.043 284.422,-664.772 290,-659 342.459,-604.712 275.451,-549.071 326,-493 326.903,-491.998 327.854,-491.045 328.848,-490.136"/>
<polygon fill="midnightblue" stroke="midnightblue" points="331.195,-492.755 337.192,-484.021 327.057,-487.109 331.195,-492.755"/>
</g>
<!-- Node15&#45;&gt;Node2 -->
<g id="edge92" class="edge"><title>Node15&#45;&gt;Node2</title>
<path fill="none" stroke="midnightblue" d="M270.412,-460.043C277.45,-457.218 284.169,-453.608 290,-449 317.137,-427.551 296.421,-397.931 326,-380 377.259,-348.927 449.348,-364.169 493.525,-378.641"/>
<polygon fill="midnightblue" stroke="midnightblue" points="492.454,-381.974 503.048,-381.891 494.715,-375.349 492.454,-381.974"/>
</g>
<!-- Node15&#45;&gt;Node6 -->
<g id="edge94" class="edge"><title>Node15&#45;&gt;Node6</title>
<path fill="none" stroke="midnightblue" d="M257.006,-482.023C279.599,-487.456 306.476,-493.918 330.134,-499.606"/>
<polygon fill="midnightblue" stroke="midnightblue" points="329.514,-503.057 340.055,-501.991 331.15,-496.251 329.514,-503.057"/>
</g>
<!-- Node15&#45;&gt;Node7 -->
<g id="edge96" class="edge"><title>Node15&#45;&gt;Node7</title>
<path fill="none" stroke="midnightblue" d="M270.234,-470.691C285.828,-470.862 302.636,-471.045 318.587,-471.22"/>
<polygon fill="midnightblue" stroke="midnightblue" points="318.887,-474.723 328.925,-471.333 318.963,-467.723 318.887,-474.723"/>
</g>
<!-- Node16&#45;&gt;Node2 -->
<g id="edge102" class="edge"><title>Node16&#45;&gt;Node2</title>
<path fill="none" stroke="midnightblue" d="M219.261,-215.597C238.029,-186.598 276.924,-134.687 326,-114 378.422,-91.9029 408.64,-79.6668 454,-114 495.989,-145.782 521.989,-311.56 530.189,-371.959"/>
<polygon fill="midnightblue" stroke="midnightblue" points="526.73,-372.5 531.513,-381.954 533.669,-371.581 526.73,-372.5"/>
</g>
<!-- Node16&#45;&gt;Node5 -->
<g id="edge100" class="edge"><title>Node16&#45;&gt;Node5</title>
<path fill="none" stroke="midnightblue" d="M278.076,-231.065C333.971,-231.346 409.586,-241.664 454,-289 489.579,-326.92 523.161,-702.246 531.19,-797.905"/>
<polygon fill="midnightblue" stroke="midnightblue" points="527.706,-798.238 532.022,-807.914 534.682,-797.658 527.706,-798.238"/>
</g>
<!-- Node16&#45;&gt;Node6 -->
<g id="edge104" class="edge"><title>Node16&#45;&gt;Node6</title>
<path fill="none" stroke="midnightblue" d="M278.115,-254.353C282.537,-257.377 286.576,-260.899 290,-265 355.746,-343.752 259.506,-414.879 326,-493 326.853,-494.002 327.754,-494.956 328.698,-495.865"/>
<polygon fill="midnightblue" stroke="midnightblue" points="326.61,-498.675 336.674,-501.985 330.871,-493.121 326.61,-498.675"/>
</g>
<!-- Node16&#45;&gt;Node7 -->
<g id="edge106" class="edge"><title>Node16&#45;&gt;Node7</title>
<path fill="none" stroke="midnightblue" d="M277.662,-256.045C282.072,-258.676 286.241,-261.647 290,-265 347.534,-316.328 375.181,-408.067 385.284,-449.998"/>
<polygon fill="midnightblue" stroke="midnightblue" points="381.877,-450.797 387.532,-459.756 388.698,-449.225 381.877,-450.797"/>
</g>
<!-- Node17&#45;&gt;Node2 -->
<g id="edge112" class="edge"><title>Node17&#45;&gt;Node2</title>
<path fill="none" stroke="midnightblue" d="M284.741,-566.019C336.605,-569.953 404.163,-566.834 454,-535 496.916,-507.587 518.687,-448.179 527.725,-415.917"/>
<polygon fill="midnightblue" stroke="midnightblue" points="531.147,-416.664 530.314,-406.102 524.379,-414.878 531.147,-416.664"/>
</g>
<!-- Node17&#45;&gt;Node5 -->
<g id="edge110" class="edge"><title>Node17&#45;&gt;Node5</title>
<path fill="none" stroke="midnightblue" d="M275.417,-566.13C280.624,-568.572 285.569,-571.498 290,-575 317.137,-596.449 304.425,-616.964 326,-644 380.114,-711.812 463.315,-773.028 505.879,-802.126"/>
<polygon fill="midnightblue" stroke="midnightblue" points="504.076,-805.132 514.319,-807.838 507.999,-799.335 504.076,-805.132"/>
</g>
<!-- Node17&#45;&gt;Node6 -->
<g id="edge114" class="edge"><title>Node17&#45;&gt;Node6</title>
<path fill="none" stroke="midnightblue" d="M261.906,-541.999C281.72,-537.668 304.275,-532.738 324.879,-528.234"/>
<polygon fill="midnightblue" stroke="midnightblue" points="325.795,-531.617 334.817,-526.062 324.3,-524.778 325.795,-531.617"/>
</g>
<!-- Node17&#45;&gt;Node7 -->
<g id="edge116" class="edge"><title>Node17&#45;&gt;Node7</title>
<path fill="none" stroke="midnightblue" d="M271.105,-541.921C277.716,-539.473 284.146,-536.532 290,-533 310.479,-520.644 305.961,-506.058 326,-493 328.61,-491.299 331.37,-489.725 334.22,-488.269"/>
<polygon fill="midnightblue" stroke="midnightblue" points="335.91,-491.346 343.559,-484.015 333.008,-484.976 335.91,-491.346"/>
</g>
<!-- Node18&#45;&gt;Node2 -->
<g id="edge120" class="edge"><title>Node18&#45;&gt;Node2</title>
<path fill="none" stroke="midnightblue" d="M263.883,-420.22C273.228,-417.152 282.346,-412.896 290,-407 316.161,-386.846 297.549,-358.766 326,-342 375.012,-313.118 399.504,-325.674 454,-342 475.695,-348.499 496.945,-363.09 511.932,-375.167"/>
<polygon fill="midnightblue" stroke="midnightblue" points="510.072,-378.175 519.988,-381.907 514.564,-372.806 510.072,-378.175"/>
</g>
<!-- Node18&#45;&gt;Node6 -->
<g id="edge122" class="edge"><title>Node18&#45;&gt;Node6</title>
<path fill="none" stroke="midnightblue" d="M263.921,-437.242C273.059,-440.151 282.098,-443.975 290,-449 311.321,-462.559 305.161,-478.711 326,-493 328.396,-494.643 330.93,-496.165 333.552,-497.574"/>
<polygon fill="midnightblue" stroke="midnightblue" points="332.202,-500.807 342.736,-501.939 335.207,-494.485 332.202,-500.807"/>
</g>
<!-- Node18&#45;&gt;Node7 -->
<g id="edge124" class="edge"><title>Node18&#45;&gt;Node7</title>
<path fill="none" stroke="midnightblue" d="M257.006,-440.023C279.599,-445.456 306.476,-451.918 330.134,-457.606"/>
<polygon fill="midnightblue" stroke="midnightblue" points="329.514,-461.057 340.055,-459.991 331.15,-454.251 329.514,-461.057"/>
</g>
<!-- Node19&#45;&gt;Node2 -->
<g id="edge128" class="edge"><title>Node19&#45;&gt;Node2</title>
<path fill="none" stroke="midnightblue" d="M271.355,-359.663C277.919,-356.593 284.27,-353.057 290,-349 310.903,-334.2 302.915,-315.095 326,-304 377.274,-279.356 402.177,-280.533 454,-304 485.016,-318.045 508.679,-350.951 521.703,-372.839"/>
<polygon fill="midnightblue" stroke="midnightblue" points="518.782,-374.783 526.776,-381.736 524.863,-371.315 518.782,-374.783"/>
</g>
<!-- Node19&#45;&gt;Node6 -->
<g id="edge130" class="edge"><title>Node19&#45;&gt;Node6</title>
<path fill="none" stroke="midnightblue" d="M271.36,-394.163C278.152,-397.646 284.554,-401.873 290,-407 320.17,-435.403 295.561,-464.886 326,-493 327.329,-494.227 328.731,-495.383 330.192,-496.471"/>
<polygon fill="midnightblue" stroke="midnightblue" points="328.771,-499.708 339.116,-501.995 332.455,-493.756 328.771,-499.708"/>
</g>
<!-- Node19&#45;&gt;Node7 -->
<g id="edge132" class="edge"><title>Node19&#45;&gt;Node7</title>
<path fill="none" stroke="midnightblue" d="M271.073,-396.751C277.689,-399.743 284.13,-403.148 290,-407 309.722,-419.942 306.606,-432.571 326,-446 331.241,-449.629 337.065,-452.872 343.004,-455.733"/>
<polygon fill="midnightblue" stroke="midnightblue" points="341.806,-459.031 352.363,-459.914 344.661,-452.64 341.806,-459.031"/>
</g>
</g>
</svg>
