<?xml version="1.0" encoding="UTF-8" standalone="no"?>
<!DOCTYPE svg PUBLIC "-//W3C//DTD SVG 1.1//EN"
 "http://www.w3.org/Graphics/SVG/1.1/DTD/svg11.dtd">
<!-- Generated by graphviz version 2.26.3 (20100126.1600)
 -->
<!-- Title: plot_draw_symbol_iris Pages: 1 -->
<svg width="244pt" height="74pt"
 viewBox="0.00 0.00 244.00 74.00" xmlns="http://www.w3.org/2000/svg" xmlns:xlink="http://www.w3.org/1999/xlink">
<g id="graph1" class="graph" transform="scale(1 1) rotate(0) translate(4 70)">
<title>plot_draw_symbol_iris</title>
<polygon fill="white" stroke="white" points="-4,5 -4,-70 241,-70 241,5 -4,5"/>
<!-- Node1 -->
<g id="node1" class="node"><title>Node1</title>
<polygon fill="#bfbfbf" stroke="black" points="0.5,-21 0.5,-45 113.5,-45 113.5,-21 0.5,-21"/>
<text text-anchor="middle" x="57" y="-32" font-family="Helvetica,sans-Serif" font-size="10.00">plot_draw_symbol_iris</text>
</g>
<!-- Node2 -->
<g id="node3" class="node"><title>Node2</title>
<a xlink:href="whitecat_8h.html#a5e88fb41a8a9fa61f87aae4fedd74510" target="_top" xlink:title="CouleurPlotLine">
<polygon fill="white" stroke="black" points="150,-42 150,-66 236,-66 236,-42 150,-42"/>
<text text-anchor="middle" x="193" y="-53" font-family="Helvetica,sans-Serif" font-size="10.00">CouleurPlotLine</text>
</a>
</g>
<!-- Node1&#45;&gt;Node2 -->
<g id="edge2" class="edge"><title>Node1&#45;&gt;Node2</title>
<path fill="none" stroke="midnightblue" d="M113.888,-41.7842C122.573,-43.1252 131.506,-44.5046 140.1,-45.8316"/>
<polygon fill="midnightblue" stroke="midnightblue" points="139.581,-49.2929 149.998,-47.36 140.649,-42.3749 139.581,-49.2929"/>
</g>
<!-- Node3 -->
<g id="node5" class="node"><title>Node3</title>
<a xlink:href="whitecat_8h.html#a53146b0df4992543bd09594d4ce44f7d" target="_top" xlink:title="CouleurPlotFill">
<polygon fill="white" stroke="black" points="153,-0 153,-24 233,-24 233,-0 153,-0"/>
<text text-anchor="middle" x="193" y="-11" font-family="Helvetica,sans-Serif" font-size="10.00">CouleurPlotFill</text>
</a>
</g>
<!-- Node1&#45;&gt;Node3 -->
<g id="edge4" class="edge"><title>Node1&#45;&gt;Node3</title>
<path fill="none" stroke="midnightblue" d="M113.888,-24.2158C123.51,-22.7301 133.437,-21.1973 142.87,-19.7407"/>
<polygon fill="midnightblue" stroke="midnightblue" points="143.525,-23.1811 152.874,-18.196 142.457,-16.2631 143.525,-23.1811"/>
</g>
</g>
</svg>
