<?xml version="1.0" encoding="UTF-8" standalone="no"?>
<!DOCTYPE svg PUBLIC "-//W3C//DTD SVG 1.1//EN"
 "http://www.w3.org/Graphics/SVG/1.1/DTD/svg11.dtd">
<!-- Generated by graphviz version 2.26.3 (20100126.1600)
 -->
<!-- Title: plot_draw_symbol_FollowSpot2 Pages: 1 -->
<svg width="286pt" height="74pt"
 viewBox="0.00 0.00 286.00 74.00" xmlns="http://www.w3.org/2000/svg" xmlns:xlink="http://www.w3.org/1999/xlink">
<g id="graph1" class="graph" transform="scale(1 1) rotate(0) translate(4 70)">
<title>plot_draw_symbol_FollowSpot2</title>
<polygon fill="white" stroke="white" points="-4,5 -4,-70 283,-70 283,5 -4,5"/>
<!-- Node1 -->
<g id="node1" class="node"><title>Node1</title>
<polygon fill="#bfbfbf" stroke="black" points="0.5,-21 0.5,-45 155.5,-45 155.5,-21 0.5,-21"/>
<text text-anchor="middle" x="78" y="-32" font-family="Helvetica,sans-Serif" font-size="10.00">plot_draw_symbol_FollowSpot2</text>
</g>
<!-- Node2 -->
<g id="node3" class="node"><title>Node2</title>
<a xlink:href="whitecat_8h.html#a53146b0df4992543bd09594d4ce44f7d" target="_top" xlink:title="CouleurPlotFill">
<polygon fill="white" stroke="black" points="195,-42 195,-66 275,-66 275,-42 195,-42"/>
<text text-anchor="middle" x="235" y="-53" font-family="Helvetica,sans-Serif" font-size="10.00">CouleurPlotFill</text>
</a>
</g>
<!-- Node1&#45;&gt;Node2 -->
<g id="edge2" class="edge"><title>Node1&#45;&gt;Node2</title>
<path fill="none" stroke="midnightblue" d="M155.58,-43.377C165.459,-44.6983 175.357,-46.0223 184.649,-47.2652"/>
<polygon fill="midnightblue" stroke="midnightblue" points="184.473,-50.7727 194.849,-48.6295 185.401,-43.8345 184.473,-50.7727"/>
</g>
<!-- Node3 -->
<g id="node5" class="node"><title>Node3</title>
<a xlink:href="whitecat_8h.html#a5e88fb41a8a9fa61f87aae4fedd74510" target="_top" xlink:title="CouleurPlotLine">
<polygon fill="white" stroke="black" points="192,-0 192,-24 278,-24 278,-0 192,-0"/>
<text text-anchor="middle" x="235" y="-11" font-family="Helvetica,sans-Serif" font-size="10.00">CouleurPlotLine</text>
</a>
</g>
<!-- Node1&#45;&gt;Node3 -->
<g id="edge4" class="edge"><title>Node1&#45;&gt;Node3</title>
<path fill="none" stroke="midnightblue" d="M155.58,-22.623C164.478,-21.4329 173.391,-20.2407 181.863,-19.1075"/>
<polygon fill="midnightblue" stroke="midnightblue" points="182.499,-22.5537 191.947,-17.7587 181.571,-15.6155 182.499,-22.5537"/>
</g>
</g>
</svg>
