<?xml version="1.0" encoding="UTF-8" standalone="no"?>
<!DOCTYPE svg PUBLIC "-//W3C//DTD SVG 1.1//EN"
 "http://www.w3.org/Graphics/SVG/1.1/DTD/svg11.dtd">
<!-- Generated by graphviz version 2.26.3 (20100126.1600)
 -->
<!-- Title: copy_symbol_to_emply_slot Pages: 1 -->
<svg width="2344pt" height="301pt"
 viewBox="0.00 0.00 2344.00 301.00" xmlns="http://www.w3.org/2000/svg" xmlns:xlink="http://www.w3.org/1999/xlink">
<g id="graph1" class="graph" transform="scale(1 1) rotate(0) translate(4 297)">
<title>copy_symbol_to_emply_slot</title>
<polygon fill="white" stroke="white" points="-4,5 -4,-297 2341,-297 2341,5 -4,5"/>
<!-- Node1 -->
<g id="node1" class="node"><title>Node1</title>
<polygon fill="#bfbfbf" stroke="black" points="0,-58 0,-82 140,-82 140,-58 0,-58"/>
<text text-anchor="middle" x="70" y="-69" font-family="Helvetica,sans-Serif" font-size="10.00">copy_symbol_to_emply_slot</text>
</g>
<!-- Node2 -->
<g id="node3" class="node"><title>Node2</title>
<a xlink:href="plot_8cpp.html#a94516b8805c4d4f6c5850469e7eb5945" target="_top" xlink:title="rearrange_plan">
<polygon fill="white" stroke="black" points="203,-103 203,-127 283,-127 283,-103 203,-103"/>
<text text-anchor="middle" x="243" y="-114" font-family="Helvetica,sans-Serif" font-size="10.00">rearrange_plan</text>
</a>
</g>
<!-- Node1&#45;&gt;Node2 -->
<g id="edge2" class="edge"><title>Node1&#45;&gt;Node2</title>
<path fill="none" stroke="midnightblue" d="M126.114,-84.5963C151.184,-91.1172 180.154,-98.6528 202.981,-104.59"/>
<polygon fill="midnightblue" stroke="midnightblue" points="126.92,-81.1894 116.361,-82.0592 125.158,-87.9639 126.92,-81.1894"/>
</g>
<!-- Node28 -->
<g id="node64" class="node"><title>Node28</title>
<a xlink:href="plot_8cpp.html#a9c23683c01563bbc9fceacea0cfd1282" target="_top" xlink:title="add_selected_symbols\l_to_calc">
<polygon fill="white" stroke="black" points="352,-50 352,-90 468,-90 468,-50 352,-50"/>
<text text-anchor="start" x="360" y="-77" font-family="Helvetica,sans-Serif" font-size="10.00">add_selected_symbols</text>
<text text-anchor="middle" x="410" y="-61" font-family="Helvetica,sans-Serif" font-size="10.00">_to_calc</text>
</a>
</g>
<!-- Node1&#45;&gt;Node28 -->
<g id="edge72" class="edge"><title>Node1&#45;&gt;Node28</title>
<path fill="none" stroke="midnightblue" d="M150.164,-70C212.102,-70 296.363,-70 351.922,-70"/>
<polygon fill="midnightblue" stroke="midnightblue" points="150.036,-66.5001 140.036,-70 150.036,-73.5001 150.036,-66.5001"/>
</g>
<!-- Node29 -->
<g id="node68" class="node"><title>Node29</title>
<a xlink:href="plot_8cpp.html#afa207c7603f4ee259c528f3d86afb2f6" target="_top" xlink:title="exchange_symbol_position">
<polygon fill="white" stroke="black" points="176,-14 176,-38 310,-38 310,-14 176,-14"/>
<text text-anchor="middle" x="243" y="-25" font-family="Helvetica,sans-Serif" font-size="10.00">exchange_symbol_position</text>
</a>
</g>
<!-- Node1&#45;&gt;Node29 -->
<g id="edge78" class="edge"><title>Node1&#45;&gt;Node29</title>
<path fill="none" stroke="midnightblue" d="M127.254,-55.4383C149.479,-49.7858 174.623,-43.3907 195.784,-38.0087"/>
<polygon fill="midnightblue" stroke="midnightblue" points="126.102,-52.1198 117.273,-57.9768 127.827,-58.9039 126.102,-52.1198"/>
</g>
<!-- Node3 -->
<g id="node5" class="node"><title>Node3</title>
<a xlink:href="plot_8cpp.html#a23e56ec233d9db7dd7dca8c52410b847" target="_top" xlink:title="delete_selected_symbols">
<polygon fill="white" stroke="black" points="346.5,-108 346.5,-132 473.5,-132 473.5,-108 346.5,-108"/>
<text text-anchor="middle" x="410" y="-119" font-family="Helvetica,sans-Serif" font-size="10.00">delete_selected_symbols</text>
</a>
</g>
<!-- Node2&#45;&gt;Node3 -->
<g id="edge4" class="edge"><title>Node2&#45;&gt;Node3</title>
<path fill="none" stroke="midnightblue" d="M293.089,-116.5C309.782,-116.999 328.608,-117.563 346.198,-118.09"/>
<polygon fill="midnightblue" stroke="midnightblue" points="293.101,-112.999 283.001,-116.198 292.891,-119.995 293.101,-112.999"/>
</g>
<!-- Node4 -->
<g id="node7" class="node"><title>Node4</title>
<a xlink:href="midi__13_8cpp.html#a6dff3d42682b58cc0a9875ee30fb4cd4" target="_top" xlink:title="do_midi_job">
<polygon fill="white" stroke="black" points="700,-183 700,-207 768,-207 768,-183 700,-183"/>
<text text-anchor="middle" x="734" y="-194" font-family="Helvetica,sans-Serif" font-size="10.00">do_midi_job</text>
</a>
</g>
<!-- Node3&#45;&gt;Node4 -->
<g id="edge6" class="edge"><title>Node3&#45;&gt;Node4</title>
<path fill="none" stroke="midnightblue" d="M430.648,-138.93C449.681,-155.056 479.518,-177.135 510,-187 574.605,-207.909 655.213,-204.03 699.99,-199.441"/>
<polygon fill="midnightblue" stroke="midnightblue" points="432.782,-136.148 422.942,-132.222 428.186,-141.427 432.782,-136.148"/>
</g>
<!-- Node23 -->
<g id="node50" class="node"><title>Node23</title>
<a xlink:href="plot_8cpp.html#a3431bbe587897e907b6dee6b35777684" target="_top" xlink:title="send_symbols_from_calc\l_to_calc">
<polygon fill="white" stroke="black" points="510,-138 510,-178 638,-178 638,-138 510,-138"/>
<text text-anchor="start" x="518" y="-165" font-family="Helvetica,sans-Serif" font-size="10.00">send_symbols_from_calc</text>
<text text-anchor="middle" x="574" y="-149" font-family="Helvetica,sans-Serif" font-size="10.00">_to_calc</text>
</a>
</g>
<!-- Node3&#45;&gt;Node23 -->
<g id="edge54" class="edge"><title>Node3&#45;&gt;Node23</title>
<path fill="none" stroke="midnightblue" d="M471.701,-134.297C484.141,-137.179 497.247,-140.216 509.771,-143.118"/>
<polygon fill="midnightblue" stroke="midnightblue" points="472.423,-130.871 461.891,-132.023 470.842,-137.69 472.423,-130.871"/>
</g>
<!-- Node26 -->
<g id="node58" class="node"><title>Node26</title>
<a xlink:href="plot_8cpp.html#a567a92fb27840f1db037b3ff0c15de28" target="_top" xlink:title="position_on_top">
<polygon fill="white" stroke="black" points="531.5,-58 531.5,-82 616.5,-82 616.5,-58 531.5,-58"/>
<text text-anchor="middle" x="574" y="-69" font-family="Helvetica,sans-Serif" font-size="10.00">position_on_top</text>
</a>
</g>
<!-- Node3&#45;&gt;Node26 -->
<g id="edge64" class="edge"><title>Node3&#45;&gt;Node26</title>
<path fill="none" stroke="midnightblue" d="M459.341,-104.957C483.347,-97.6381 511.817,-88.9583 534.382,-82.0787"/>
<polygon fill="midnightblue" stroke="midnightblue" points="458.244,-101.632 449.7,-107.896 460.286,-108.328 458.244,-101.632"/>
</g>
<!-- Node27 -->
<g id="node60" class="node"><title>Node27</title>
<a xlink:href="plot_8cpp.html#a74a79a0e49b7f81a7cb8b944c77b3b0d" target="_top" xlink:title="logical_plot_symbol\l_edition">
<polygon fill="white" stroke="black" points="683,-60 683,-100 785,-100 785,-60 683,-60"/>
<text text-anchor="start" x="691" y="-87" font-family="Helvetica,sans-Serif" font-size="10.00">logical_plot_symbol</text>
<text text-anchor="middle" x="734" y="-71" font-family="Helvetica,sans-Serif" font-size="10.00">_edition</text>
</a>
</g>
<!-- Node3&#45;&gt;Node27 -->
<g id="edge70" class="edge"><title>Node3&#45;&gt;Node27</title>
<path fill="none" stroke="midnightblue" d="M483.923,-110.874C544.694,-103.371 629.224,-92.9353 682.77,-86.3247"/>
<polygon fill="midnightblue" stroke="midnightblue" points="483.121,-107.446 473.625,-112.145 483.979,-114.393 483.121,-107.446"/>
</g>
<!-- Node5 -->
<g id="node9" class="node"><title>Node5</title>
<a xlink:href="midi__13_8cpp.html#a6bedf9750195224914cd87c4e73ab626" target="_top" xlink:title="ventilate_midi_to_midiarray">
<polygon fill="white" stroke="black" points="830.5,-183 830.5,-207 965.5,-207 965.5,-183 830.5,-183"/>
<text text-anchor="middle" x="898" y="-194" font-family="Helvetica,sans-Serif" font-size="10.00">ventilate_midi_to_midiarray</text>
</a>
</g>
<!-- Node4&#45;&gt;Node5 -->
<g id="edge8" class="edge"><title>Node4&#45;&gt;Node5</title>
<path fill="none" stroke="midnightblue" d="M778.467,-195C794.397,-195 812.737,-195 830.192,-195"/>
<polygon fill="midnightblue" stroke="midnightblue" points="778.38,-191.5 768.38,-195 778.38,-198.5 778.38,-191.5"/>
</g>
<!-- Node6 -->
<g id="node11" class="node"><title>Node6</title>
<a xlink:href="midi__13_8cpp.html#afa49dd5668303c2448676c8243737c2d" target="_top" xlink:title="simulate_midi">
<polygon fill="white" stroke="black" points="1002.5,-203 1002.5,-227 1079.5,-227 1079.5,-203 1002.5,-203"/>
<text text-anchor="middle" x="1041" y="-214" font-family="Helvetica,sans-Serif" font-size="10.00">simulate_midi</text>
</a>
</g>
<!-- Node5&#45;&gt;Node6 -->
<g id="edge10" class="edge"><title>Node5&#45;&gt;Node6</title>
<path fill="none" stroke="midnightblue" d="M975.744,-205.873C984.949,-207.161 994.014,-208.429 1002.32,-209.591"/>
<polygon fill="midnightblue" stroke="midnightblue" points="976.119,-202.392 965.731,-204.473 975.15,-209.324 976.119,-202.392"/>
</g>
<!-- Node11 -->
<g id="node22" class="node"><title>Node11</title>
<a xlink:href="midi__13_8cpp.html#a4104c2ae7e71376ad9dc78929450dc51" target="_top" xlink:title="EvAquire">
<polygon fill="white" stroke="black" points="1013,-157 1013,-181 1069,-181 1069,-157 1013,-157"/>
<text text-anchor="middle" x="1041" y="-168" font-family="Helvetica,sans-Serif" font-size="10.00">EvAquire</text>
</a>
</g>
<!-- Node5&#45;&gt;Node11 -->
<g id="edge22" class="edge"><title>Node5&#45;&gt;Node11</title>
<path fill="none" stroke="midnightblue" d="M974.111,-181.162C987.9,-178.654 1001.46,-176.189 1012.73,-174.14"/>
<polygon fill="midnightblue" stroke="midnightblue" points="973.271,-177.757 964.058,-182.989 974.523,-184.644 973.271,-177.757"/>
</g>
<!-- Node7 -->
<g id="node13" class="node"><title>Node7</title>
<a xlink:href="arduino__core__6___u_n_o_8cpp.html#ae72d1a8d74d9ab5515962e03e7e664d6" target="_top" xlink:title="arduino_do_analog_in\l_whitecat">
<polygon fill="white" stroke="black" points="1116,-253 1116,-293 1226,-293 1226,-253 1116,-253"/>
<text text-anchor="start" x="1124" y="-280" font-family="Helvetica,sans-Serif" font-size="10.00">arduino_do_analog_in</text>
<text text-anchor="middle" x="1171" y="-264" font-family="Helvetica,sans-Serif" font-size="10.00">_whitecat</text>
</a>
</g>
<!-- Node6&#45;&gt;Node7 -->
<g id="edge12" class="edge"><title>Node6&#45;&gt;Node7</title>
<path fill="none" stroke="midnightblue" d="M1077.41,-231.246C1092.47,-237.962 1110.07,-245.817 1125.93,-252.891"/>
<polygon fill="midnightblue" stroke="midnightblue" points="1078.49,-227.896 1067.94,-227.018 1075.64,-234.288 1078.49,-227.896"/>
</g>
<!-- Node10 -->
<g id="node19" class="node"><title>Node10</title>
<a xlink:href="arduino__core__6___u_n_o_8cpp.html#a219226c1cd6cc17c78e62fd4445bb445" target="_top" xlink:title="arduino_do_digital\l_in_whitecat">
<polygon fill="white" stroke="black" points="1123.5,-195 1123.5,-235 1218.5,-235 1218.5,-195 1123.5,-195"/>
<text text-anchor="start" x="1131.5" y="-222" font-family="Helvetica,sans-Serif" font-size="10.00">arduino_do_digital</text>
<text text-anchor="middle" x="1171" y="-206" font-family="Helvetica,sans-Serif" font-size="10.00">_in_whitecat</text>
</a>
</g>
<!-- Node6&#45;&gt;Node10 -->
<g id="edge18" class="edge"><title>Node6&#45;&gt;Node10</title>
<path fill="none" stroke="midnightblue" d="M1089.83,-215C1100.7,-215 1112.22,-215 1123.05,-215"/>
<polygon fill="midnightblue" stroke="midnightblue" points="1089.65,-211.5 1079.65,-215 1089.65,-218.5 1089.65,-211.5"/>
</g>
<!-- Node8 -->
<g id="node15" class="node"><title>Node8</title>
<a xlink:href="_m_a_i_n__avec__objets_8cpp.html#ace9c8a9b37c6087c3cffef442d71d70e" target="_top" xlink:title="dixiemes_de_secondes">
<polygon fill="white" stroke="black" points="1262.5,-219 1262.5,-243 1381.5,-243 1381.5,-219 1262.5,-219"/>
<text text-anchor="middle" x="1322" y="-230" font-family="Helvetica,sans-Serif" font-size="10.00">dixiemes_de_secondes</text>
</a>
</g>
<!-- Node7&#45;&gt;Node8 -->
<g id="edge14" class="edge"><title>Node7&#45;&gt;Node8</title>
<path fill="none" stroke="midnightblue" d="M1236.16,-254.876C1250.46,-250.9 1265.26,-246.783 1278.46,-243.111"/>
<polygon fill="midnightblue" stroke="midnightblue" points="1235.07,-251.547 1226.37,-257.599 1236.94,-258.291 1235.07,-251.547"/>
</g>
<!-- Node9 -->
<g id="node17" class="node"><title>Node9</title>
<a xlink:href="_m_a_i_n__avec__objets_8cpp.html#ae66f6b31b5ad750f1fe042a706a4e3d4" target="_top" xlink:title="main">
<polygon fill="white" stroke="black" points="2298,-159 2298,-183 2336,-183 2336,-159 2298,-159"/>
<text text-anchor="middle" x="2317" y="-170" font-family="Helvetica,sans-Serif" font-size="10.00">main</text>
</a>
</g>
<!-- Node8&#45;&gt;Node9 -->
<g id="edge16" class="edge"><title>Node8&#45;&gt;Node9</title>
<path fill="none" stroke="midnightblue" d="M1391.83,-231C1444.62,-231 1518.86,-231 1584,-231 1584,-231 1584,-231 2078,-231 2162.06,-231 2257.89,-195.649 2297.89,-179.217"/>
<polygon fill="midnightblue" stroke="midnightblue" points="1391.57,-227.5 1381.57,-231 1391.57,-234.5 1391.57,-227.5"/>
</g>
<!-- Node10&#45;&gt;Node8 -->
<g id="edge20" class="edge"><title>Node10&#45;&gt;Node8</title>
<path fill="none" stroke="midnightblue" d="M1229.04,-221.15C1239.95,-222.306 1251.37,-223.516 1262.32,-224.676"/>
<polygon fill="midnightblue" stroke="midnightblue" points="1229.09,-217.636 1218.78,-220.062 1228.35,-224.597 1229.09,-217.636"/>
</g>
<!-- Node12 -->
<g id="node24" class="node"><title>Node12</title>
<a xlink:href="midi__13_8cpp.html#a831f1dfc7870ae4f6c64a0e65fbaf3ff" target="_top" xlink:title="Display">
<polygon fill="white" stroke="black" points="1146,-153 1146,-177 1196,-177 1196,-153 1146,-153"/>
<text text-anchor="middle" x="1171" y="-164" font-family="Helvetica,sans-Serif" font-size="10.00">Display</text>
</a>
</g>
<!-- Node11&#45;&gt;Node12 -->
<g id="edge24" class="edge"><title>Node11&#45;&gt;Node12</title>
<path fill="none" stroke="midnightblue" d="M1079.33,-167.821C1100.83,-167.159 1127.04,-166.352 1145.92,-165.772"/>
<polygon fill="midnightblue" stroke="midnightblue" points="1079.1,-164.326 1069.21,-168.132 1079.31,-171.323 1079.1,-164.326"/>
</g>
<!-- Node13 -->
<g id="node26" class="node"><title>Node13</title>
<a xlink:href="midi__13_8cpp.html#aa4aeee5088a4a5462566dfee5c9cc71f" target="_top" xlink:title="DisplayTask">
<polygon fill="white" stroke="black" points="1286.5,-161 1286.5,-185 1357.5,-185 1357.5,-161 1286.5,-161"/>
<text text-anchor="middle" x="1322" y="-172" font-family="Helvetica,sans-Serif" font-size="10.00">DisplayTask</text>
</a>
</g>
<!-- Node12&#45;&gt;Node13 -->
<g id="edge26" class="edge"><title>Node12&#45;&gt;Node13</title>
<path fill="none" stroke="midnightblue" d="M1206.42,-166.877C1230.53,-168.154 1262.32,-169.838 1286.46,-171.117"/>
<polygon fill="midnightblue" stroke="midnightblue" points="1206.45,-163.373 1196.27,-166.339 1206.07,-170.363 1206.45,-163.373"/>
</g>
<!-- Node15 -->
<g id="node31" class="node"><title>Node15</title>
<a xlink:href="midi___c_o_r_e_8cpp.html#a6fcb4c2efe85f50488d7aeeef1fc0a3e" target="_top" xlink:title="ReceiveEvents">
<polygon fill="white" stroke="black" points="1280.5,-119 1280.5,-143 1363.5,-143 1363.5,-119 1280.5,-119"/>
<text text-anchor="middle" x="1322" y="-130" font-family="Helvetica,sans-Serif" font-size="10.00">ReceiveEvents</text>
</a>
</g>
<!-- Node12&#45;&gt;Node15 -->
<g id="edge32" class="edge"><title>Node12&#45;&gt;Node15</title>
<path fill="none" stroke="midnightblue" d="M1206.26,-157.06C1228.42,-152.072 1257.1,-145.613 1280.37,-140.373"/>
<polygon fill="midnightblue" stroke="midnightblue" points="1205.26,-153.698 1196.27,-159.309 1206.8,-160.527 1205.26,-153.698"/>
</g>
<!-- Node14 -->
<g id="node28" class="node"><title>Node14</title>
<a xlink:href="midi___c_o_r_e_8cpp.html#a7d0f82d882071792d6a2df51ef13ec55" target="_top" xlink:title="ReceivePolling">
<polygon fill="white" stroke="black" points="1418,-161 1418,-185 1500,-185 1500,-161 1418,-161"/>
<text text-anchor="middle" x="1459" y="-172" font-family="Helvetica,sans-Serif" font-size="10.00">ReceivePolling</text>
</a>
</g>
<!-- Node13&#45;&gt;Node14 -->
<g id="edge28" class="edge"><title>Node13&#45;&gt;Node14</title>
<path fill="none" stroke="midnightblue" d="M1367.91,-173C1384.02,-173 1402.01,-173 1417.72,-173"/>
<polygon fill="midnightblue" stroke="midnightblue" points="1367.64,-169.5 1357.64,-173 1367.64,-176.5 1367.64,-169.5"/>
</g>
<!-- Node14&#45;&gt;Node14 -->
<g id="edge30" class="edge"><title>Node14&#45;&gt;Node14</title>
<path fill="none" stroke="midnightblue" d="M1436.51,-195.001C1438.81,-199.647 1446.31,-203 1459,-203 1479.83,-203 1486.66,-193.972 1479.5,-185.014"/>
<polygon fill="midnightblue" stroke="midnightblue" points="1439.98,-195.504 1438.5,-185.014 1433.12,-194.14 1439.98,-195.504"/>
</g>
<!-- Node15&#45;&gt;Node14 -->
<g id="edge34" class="edge"><title>Node15&#45;&gt;Node14</title>
<path fill="none" stroke="midnightblue" d="M1370.99,-146.018C1386.99,-150.924 1404.54,-156.305 1419.74,-160.963"/>
<polygon fill="midnightblue" stroke="midnightblue" points="1371.85,-142.62 1361.26,-143.036 1369.79,-149.313 1371.85,-142.62"/>
</g>
<!-- Node16 -->
<g id="node34" class="node"><title>Node16</title>
<a xlink:href="midi___c_o_r_e_8cpp.html#a0ccf480a33424e626f88d109d53d8366" target="_top" xlink:title="InitMidi">
<polygon fill="white" stroke="black" points="1435,-119 1435,-143 1483,-143 1483,-119 1435,-119"/>
<text text-anchor="middle" x="1459" y="-130" font-family="Helvetica,sans-Serif" font-size="10.00">InitMidi</text>
</a>
</g>
<!-- Node15&#45;&gt;Node16 -->
<g id="edge36" class="edge"><title>Node15&#45;&gt;Node16</title>
<path fill="none" stroke="midnightblue" d="M1373.93,-131C1394.89,-131 1418.06,-131 1434.92,-131"/>
<polygon fill="midnightblue" stroke="midnightblue" points="1373.85,-127.5 1363.85,-131 1373.85,-134.5 1373.85,-127.5"/>
</g>
<!-- Node16&#45;&gt;Node9 -->
<g id="edge38" class="edge"><title>Node16&#45;&gt;Node9</title>
<path fill="none" stroke="midnightblue" d="M1492.78,-141.444C1506.13,-145.248 1521.68,-149.279 1536,-152 1611.99,-166.443 1631.65,-171 1709,-171 1709,-171 1709,-171 2078,-171 2159.74,-171 2257.21,-171 2297.79,-171"/>
<polygon fill="midnightblue" stroke="midnightblue" points="1493.63,-138.047 1483.05,-138.604 1491.67,-144.766 1493.63,-138.047"/>
</g>
<!-- Node17 -->
<g id="node37" class="node"><title>Node17</title>
<a xlink:href="midi__13_8cpp.html#ac7a306aa81e374b447e7341d4d3a3eea" target="_top" xlink:title="midipage_devices">
<polygon fill="white" stroke="black" points="1536.5,-119 1536.5,-143 1631.5,-143 1631.5,-119 1536.5,-119"/>
<text text-anchor="middle" x="1584" y="-130" font-family="Helvetica,sans-Serif" font-size="10.00">midipage_devices</text>
</a>
</g>
<!-- Node16&#45;&gt;Node17 -->
<g id="edge40" class="edge"><title>Node16&#45;&gt;Node17</title>
<path fill="none" stroke="midnightblue" d="M1493.25,-131C1506.57,-131 1522.05,-131 1536.42,-131"/>
<polygon fill="midnightblue" stroke="midnightblue" points="1493.1,-127.5 1483.1,-131 1493.1,-134.5 1493.1,-127.5"/>
</g>
<!-- Node18 -->
<g id="node39" class="node"><title>Node18</title>
<a xlink:href="midi__13_8cpp.html#a8f70acacad6eaba8867bdd80dda5e277" target="_top" xlink:title="do_midi_config">
<polygon fill="white" stroke="black" points="1668,-119 1668,-143 1750,-143 1750,-119 1668,-119"/>
<text text-anchor="middle" x="1709" y="-130" font-family="Helvetica,sans-Serif" font-size="10.00">do_midi_config</text>
</a>
</g>
<!-- Node17&#45;&gt;Node18 -->
<g id="edge42" class="edge"><title>Node17&#45;&gt;Node18</title>
<path fill="none" stroke="midnightblue" d="M1641.77,-131C1650.5,-131 1659.35,-131 1667.65,-131"/>
<polygon fill="midnightblue" stroke="midnightblue" points="1641.61,-127.5 1631.61,-131 1641.61,-134.5 1641.61,-127.5"/>
</g>
<!-- Node19 -->
<g id="node41" class="node"><title>Node19</title>
<a xlink:href="_c_f_g__config__panel__8_8cpp.html#ad39c46e2fb3a3ba7ea0460140ead4f96" target="_top" xlink:title="do_panel_config">
<polygon fill="white" stroke="black" points="1786.5,-119 1786.5,-143 1873.5,-143 1873.5,-119 1786.5,-119"/>
<text text-anchor="middle" x="1830" y="-130" font-family="Helvetica,sans-Serif" font-size="10.00">do_panel_config</text>
</a>
</g>
<!-- Node18&#45;&gt;Node19 -->
<g id="edge44" class="edge"><title>Node18&#45;&gt;Node19</title>
<path fill="none" stroke="midnightblue" d="M1760.33,-131C1769.01,-131 1777.95,-131 1786.41,-131"/>
<polygon fill="midnightblue" stroke="midnightblue" points="1760.3,-127.5 1750.3,-131 1760.3,-134.5 1760.3,-127.5"/>
</g>
<!-- Node20 -->
<g id="node43" class="node"><title>Node20</title>
<a xlink:href="_c_f_g__config__panel__8_8cpp.html#a7968da66bccdba8b864caf6c8435f68e" target="_top" xlink:title="config_general_menu">
<polygon fill="white" stroke="black" points="1910.5,-119 1910.5,-143 2019.5,-143 2019.5,-119 1910.5,-119"/>
<text text-anchor="middle" x="1965" y="-130" font-family="Helvetica,sans-Serif" font-size="10.00">config_general_menu</text>
</a>
</g>
<!-- Node19&#45;&gt;Node20 -->
<g id="edge46" class="edge"><title>Node19&#45;&gt;Node20</title>
<path fill="none" stroke="midnightblue" d="M1884.07,-131C1892.62,-131 1901.47,-131 1910.04,-131"/>
<polygon fill="midnightblue" stroke="midnightblue" points="1883.83,-127.5 1873.83,-131 1883.83,-134.5 1883.83,-127.5"/>
</g>
<!-- Node21 -->
<g id="node45" class="node"><title>Node21</title>
<a xlink:href="graphics__rebuild1_8cpp.html#ac2eae1e03fb72cc734ffbcef566483bf" target="_top" xlink:title="Boxes">
<polygon fill="white" stroke="black" points="2056,-119 2056,-143 2100,-143 2100,-119 2056,-119"/>
<text text-anchor="middle" x="2078" y="-130" font-family="Helvetica,sans-Serif" font-size="10.00">Boxes</text>
</a>
</g>
<!-- Node20&#45;&gt;Node21 -->
<g id="edge48" class="edge"><title>Node20&#45;&gt;Node21</title>
<path fill="none" stroke="midnightblue" d="M2029.75,-131C2039.11,-131 2048.17,-131 2055.86,-131"/>
<polygon fill="midnightblue" stroke="midnightblue" points="2029.51,-127.5 2019.51,-131 2029.51,-134.5 2029.51,-127.5"/>
</g>
<!-- Node22 -->
<g id="node47" class="node"><title>Node22</title>
<a xlink:href="_m_a_i_n__avec__objets_8cpp.html#ade8d4ba65d55c94f8ee277829d722155" target="_top" xlink:title="main_actions_on_screen">
<polygon fill="white" stroke="black" points="2136.5,-119 2136.5,-143 2261.5,-143 2261.5,-119 2136.5,-119"/>
<text text-anchor="middle" x="2199" y="-130" font-family="Helvetica,sans-Serif" font-size="10.00">main_actions_on_screen</text>
</a>
</g>
<!-- Node21&#45;&gt;Node22 -->
<g id="edge50" class="edge"><title>Node21&#45;&gt;Node22</title>
<path fill="none" stroke="midnightblue" d="M2110.24,-131C2118.32,-131 2127.26,-131 2136.27,-131"/>
<polygon fill="midnightblue" stroke="midnightblue" points="2110.19,-127.5 2100.19,-131 2110.19,-134.5 2110.19,-127.5"/>
</g>
<!-- Node22&#45;&gt;Node9 -->
<g id="edge52" class="edge"><title>Node22&#45;&gt;Node9</title>
<path fill="none" stroke="midnightblue" d="M2243.92,-146.227C2262.55,-152.542 2283.16,-159.53 2297.74,-164.47"/>
<polygon fill="midnightblue" stroke="midnightblue" points="2245,-142.897 2234.4,-143.001 2242.75,-149.527 2245,-142.897"/>
</g>
<!-- Node23&#45;&gt;Node4 -->
<g id="edge56" class="edge"><title>Node23&#45;&gt;Node4</title>
<path fill="none" stroke="midnightblue" d="M648.107,-175.137C666.134,-179.306 684.562,-183.567 699.704,-187.069"/>
<polygon fill="midnightblue" stroke="midnightblue" points="648.688,-171.679 638.156,-172.836 647.111,-178.499 648.688,-171.679"/>
</g>
<!-- Node24 -->
<g id="node53" class="node"><title>Node24</title>
<a xlink:href="plot_8cpp.html#a81228c183a1b219d5f3c5a759800df4b" target="_top" xlink:title="logical_plot_menu_bare">
<polygon fill="white" stroke="black" points="674.5,-133 674.5,-157 793.5,-157 793.5,-133 674.5,-133"/>
<text text-anchor="middle" x="734" y="-144" font-family="Helvetica,sans-Serif" font-size="10.00">logical_plot_menu_bare</text>
</a>
</g>
<!-- Node23&#45;&gt;Node24 -->
<g id="edge58" class="edge"><title>Node23&#45;&gt;Node24</title>
<path fill="none" stroke="midnightblue" d="M648.371,-151.957C657.13,-151.246 665.98,-150.527 674.497,-149.835"/>
<polygon fill="midnightblue" stroke="midnightblue" points="647.84,-148.489 638.156,-152.787 648.407,-155.466 647.84,-148.489"/>
</g>
<!-- Node25 -->
<g id="node55" class="node"><title>Node25</title>
<a xlink:href="plot_8cpp.html#a3d45bfc1bc76a3d67ad1a8bb3d63163d" target="_top" xlink:title="Plot_window">
<polygon fill="white" stroke="black" points="862,-79 862,-103 934,-103 934,-79 862,-79"/>
<text text-anchor="middle" x="898" y="-90" font-family="Helvetica,sans-Serif" font-size="10.00">Plot_window</text>
</a>
</g>
<!-- Node24&#45;&gt;Node25 -->
<g id="edge60" class="edge"><title>Node24&#45;&gt;Node25</title>
<path fill="none" stroke="midnightblue" d="M780.391,-129.725C806.225,-121.219 837.911,-110.785 861.883,-102.892"/>
<polygon fill="midnightblue" stroke="midnightblue" points="779.209,-126.429 770.805,-132.881 781.398,-133.078 779.209,-126.429"/>
</g>
<!-- Node25&#45;&gt;Node21 -->
<g id="edge62" class="edge"><title>Node25&#45;&gt;Node21</title>
<path fill="none" stroke="midnightblue" d="M944.215,-91C998.508,-91 1091.3,-91 1171,-91 1171,-91 1171,-91 1830,-91 1914.87,-91 1937.25,-91.1878 2020,-110 2032.11,-112.754 2045.16,-117.324 2055.8,-121.498"/>
<polygon fill="midnightblue" stroke="midnightblue" points="944.211,-87.5001 934.211,-91 944.211,-94.5001 944.211,-87.5001"/>
</g>
<!-- Node26&#45;&gt;Node27 -->
<g id="edge66" class="edge"><title>Node26&#45;&gt;Node27</title>
<path fill="none" stroke="midnightblue" d="M626.902,-73.3064C644.871,-74.4295 664.909,-75.6818 682.748,-76.7967"/>
<polygon fill="midnightblue" stroke="midnightblue" points="627.076,-69.8105 616.877,-72.6798 626.639,-76.7969 627.076,-69.8105"/>
</g>
<!-- Node27&#45;&gt;Node25 -->
<g id="edge68" class="edge"><title>Node27&#45;&gt;Node25</title>
<path fill="none" stroke="midnightblue" d="M795.526,-84.1267C817.865,-85.6251 842.369,-87.2687 861.813,-88.5728"/>
<polygon fill="midnightblue" stroke="midnightblue" points="795.653,-80.6275 785.441,-83.4503 795.184,-87.6118 795.653,-80.6275"/>
</g>
<!-- Node28&#45;&gt;Node23 -->
<g id="edge74" class="edge"><title>Node28&#45;&gt;Node23</title>
<path fill="none" stroke="midnightblue" d="M465.169,-94.5382C468.171,-96.0167 471.132,-97.5094 474,-99 497.253,-111.083 522.677,-126.109 542.071,-137.973"/>
<polygon fill="midnightblue" stroke="midnightblue" points="466.612,-91.3488 456.084,-90.162 463.574,-97.6552 466.612,-91.3488"/>
</g>
<!-- Node28&#45;&gt;Node26 -->
<g id="edge76" class="edge"><title>Node28&#45;&gt;Node26</title>
<path fill="none" stroke="midnightblue" d="M478.426,-70C496.371,-70 515.208,-70 531.369,-70"/>
<polygon fill="midnightblue" stroke="midnightblue" points="478.282,-66.5001 468.282,-70 478.282,-73.5001 478.282,-66.5001"/>
</g>
<!-- Node30 -->
<g id="node70" class="node"><title>Node30</title>
<a xlink:href="plot_8cpp.html#a91f3a181b08c6bd1095771d96903f7f9" target="_top" xlink:title="position_down_selected\l_symbols">
<polygon fill="white" stroke="black" points="513.5,-0 513.5,-40 634.5,-40 634.5,-0 513.5,-0"/>
<text text-anchor="start" x="521.5" y="-27" font-family="Helvetica,sans-Serif" font-size="10.00">position_down_selected</text>
<text text-anchor="middle" x="574" y="-11" font-family="Helvetica,sans-Serif" font-size="10.00">_symbols</text>
</a>
</g>
<!-- Node29&#45;&gt;Node30 -->
<g id="edge80" class="edge"><title>Node29&#45;&gt;Node30</title>
<path fill="none" stroke="midnightblue" d="M320.744,-24.5907C379.581,-23.5242 459.236,-22.0803 513.396,-21.0986"/>
<polygon fill="midnightblue" stroke="midnightblue" points="320.317,-21.0978 310.382,-24.7786 320.444,-28.0967 320.317,-21.0978"/>
</g>
<!-- Node30&#45;&gt;Node27 -->
<g id="edge82" class="edge"><title>Node30&#45;&gt;Node27</title>
<path fill="none" stroke="midnightblue" d="M637.48,-43.805C652.543,-49.4536 668.423,-55.4086 682.856,-60.821"/>
<polygon fill="midnightblue" stroke="midnightblue" points="638.315,-40.3802 627.723,-40.146 635.857,-46.9345 638.315,-40.3802"/>
</g>
</g>
</svg>
