<?xml version="1.0" encoding="UTF-8" standalone="no"?>
<!DOCTYPE svg PUBLIC "-//W3C//DTD SVG 1.1//EN"
 "http://www.w3.org/Graphics/SVG/1.1/DTD/svg11.dtd">
<!-- Generated by graphviz version 2.26.3 (20100126.1600)
 -->
<!-- Title: send_symbols_from_calc_to_calc Pages: 1 -->
<!--zoomable 198 -->
<svg id="main" version="1.1" xmlns="http://www.w3.org/2000/svg" xmlns:xlink="http://www.w3.org/1999/xlink" xml:space="preserve" onload="init(evt)">
<style type="text/css"><![CDATA[
.edge:hover path { stroke: red; }
.edge:hover polygon { stroke: red; fill: red; }
]]></style>
<script type="text/javascript"><![CDATA[
var edges = document.getElementsByTagName('g');
if (edges && edges.length) {
  for (var i=0;i<edges.length;i++) {
    if (edges[i].id.substr(0,4)=='edge') {
      edges[i].setAttribute('class','edge');
    }
  }
}
]]></script>
        <defs>
                <circle id="rim" cx="0" cy="0" r="7"/>
                <circle id="rim2" cx="0" cy="0" r="3.5"/>
                <g id="zoomPlus">
                        <use xlink:href="#rim" fill="#404040">
                                <set attributeName="fill" to="#808080" begin="zoomplus.mouseover" end="zoomplus.mouseout"/>
                        </use>
                        <path d="M-4,0h8M0,-4v8" fill="none" stroke="white" stroke-width="1.5" pointer-events="none"/>
                </g>
                <g id="zoomMin">
                        <use xlink:href="#rim" fill="#404040">
                                <set attributeName="fill" to="#808080" begin="zoomminus.mouseover" end="zoomminus.mouseout"/>
                        </use>
                        <path d="M-4,0h8" fill="none" stroke="white" stroke-width="1.5" pointer-events="none"/>
                </g>
                <g id="dirArrow">
                        <path fill="none" stroke="white" stroke-width="1.5" d="M0,-3.0v7 M-2.5,-0.5L0,-3.0L2.5,-0.5"/>
                </g>
               <g id="resetDef">
                       <use xlink:href="#rim2" fill="#404040">
                               <set attributeName="fill" to="#808080" begin="reset.mouseover" end="reset.mouseout"/>
                       </use>
               </g>
        </defs>

<script type="text/javascript">
var viewWidth = 608;
var viewHeight = 198;
var sectionId = 'dynsection-87';
</script>
<script xlink:href="svgpan.js"/>
<svg id="graph" class="graph">
<g id="viewport">
<title>send_symbols_from_calc_to_calc</title>
<polygon fill="white" stroke="white" points="-4,5 -4,-194 605,-194 605,5 -4,5"/>
<!-- Node1 -->
<g id="node1" class="node"><title>Node1</title>
<polygon fill="#bfbfbf" stroke="black" points="0,-42 0,-82 128,-82 128,-42 0,-42"/>
<text text-anchor="start" x="8" y="-69" font-family="Helvetica,sans-Serif" font-size="10.00">send_symbols_from_calc</text>
<text text-anchor="middle" x="64" y="-53" font-family="Helvetica,sans-Serif" font-size="10.00">_to_calc</text>
</g>
<!-- Node2 -->
<g id="node3" class="node"><title>Node2</title>
<a xlink:href="plot_8cpp.html#a23e56ec233d9db7dd7dca8c52410b847" target="_top" xlink:title="delete_selected_symbols">
<polygon fill="white" stroke="black" points="164.5,-108 164.5,-132 291.5,-132 291.5,-108 164.5,-108"/>
<text text-anchor="middle" x="228" y="-119" font-family="Helvetica,sans-Serif" font-size="10.00">delete_selected_symbols</text>
</a>
</g>
<!-- Node1&#45;&gt;Node2 -->
<g id="edge2" class="edge"><title>Node1&#45;&gt;Node2</title>
<path fill="none" stroke="midnightblue" d="M120.899,-82.1228C141.634,-89.4561 164.74,-97.6274 184.166,-104.498"/>
<polygon fill="midnightblue" stroke="midnightblue" points="183.074,-107.824 193.669,-107.858 185.408,-101.224 183.074,-107.824"/>
</g>
<!-- Node7 -->
<g id="node13" class="node"><title>Node7</title>
<a xlink:href="plot_8cpp.html#a9c23683c01563bbc9fceacea0cfd1282" target="_top" xlink:title="add_selected_symbols\l_to_calc">
<polygon fill="white" stroke="black" points="170,-42 170,-82 286,-82 286,-42 170,-42"/>
<text text-anchor="start" x="178" y="-69" font-family="Helvetica,sans-Serif" font-size="10.00">add_selected_symbols</text>
<text text-anchor="middle" x="228" y="-53" font-family="Helvetica,sans-Serif" font-size="10.00">_to_calc</text>
</a>
</g>
<!-- Node1&#45;&gt;Node7 -->
<g id="edge12" class="edge"><title>Node1&#45;&gt;Node7</title>
<path fill="none" stroke="midnightblue" d="M128.346,-62C138.644,-62 149.331,-62 159.716,-62"/>
<polygon fill="midnightblue" stroke="midnightblue" points="159.975,-65.5001 169.975,-62 159.975,-58.5001 159.975,-65.5001"/>
</g>
<!-- Node8 -->
<g id="node16" class="node"><title>Node8</title>
<a xlink:href="plot_8cpp.html#ac16f49a033e4ae3af728e3789f080e51" target="_top" xlink:title="reset_symbols_selected">
<polygon fill="white" stroke="black" points="167,-0 167,-24 289,-24 289,-0 167,-0"/>
<text text-anchor="middle" x="228" y="-11" font-family="Helvetica,sans-Serif" font-size="10.00">reset_symbols_selected</text>
</a>
</g>
<!-- Node1&#45;&gt;Node8 -->
<g id="edge16" class="edge"><title>Node1&#45;&gt;Node8</title>
<path fill="none" stroke="midnightblue" d="M128.346,-42.3822C145.141,-37.2618 162.973,-31.8252 178.84,-26.9877"/>
<polygon fill="midnightblue" stroke="midnightblue" points="179.894,-30.3255 188.439,-24.0613 177.853,-23.6297 179.894,-30.3255"/>
</g>
<!-- Node3 -->
<g id="node5" class="node"><title>Node3</title>
<a xlink:href="plot_8cpp.html#a81a672760936c3fe4915f269850aa955" target="_top" xlink:title="snapshot_calc">
<polygon fill="white" stroke="black" points="336,-166 336,-190 416,-190 416,-166 336,-166"/>
<text text-anchor="middle" x="376" y="-177" font-family="Helvetica,sans-Serif" font-size="10.00">snapshot_calc</text>
</a>
</g>
<!-- Node2&#45;&gt;Node3 -->
<g id="edge4" class="edge"><title>Node2&#45;&gt;Node3</title>
<path fill="none" stroke="midnightblue" d="M258.666,-132.018C281.09,-140.805 311.71,-152.805 336.048,-162.343"/>
<polygon fill="midnightblue" stroke="midnightblue" points="334.786,-165.608 345.374,-165.998 337.34,-159.09 334.786,-165.608"/>
</g>
<!-- Node4 -->
<g id="node7" class="node"><title>Node4</title>
<a xlink:href="plot_8cpp.html#a58fe8fc317633b7cfd679c95c67193b9" target="_top" xlink:title="clear_symbol_slot">
<polygon fill="white" stroke="black" points="328.5,-124 328.5,-148 423.5,-148 423.5,-124 328.5,-124"/>
<text text-anchor="middle" x="376" y="-135" font-family="Helvetica,sans-Serif" font-size="10.00">clear_symbol_slot</text>
</a>
</g>
<!-- Node2&#45;&gt;Node4 -->
<g id="edge6" class="edge"><title>Node2&#45;&gt;Node4</title>
<path fill="none" stroke="midnightblue" d="M291.624,-126.878C300.409,-127.828 309.392,-128.799 318.066,-129.737"/>
<polygon fill="midnightblue" stroke="midnightblue" points="317.758,-133.224 328.076,-130.819 318.511,-126.264 317.758,-133.224"/>
</g>
<!-- Node5 -->
<g id="node9" class="node"><title>Node5</title>
<a xlink:href="plot_8cpp.html#a94516b8805c4d4f6c5850469e7eb5945" target="_top" xlink:title="rearrange_plan">
<polygon fill="white" stroke="black" points="336,-82 336,-106 416,-106 416,-82 336,-82"/>
<text text-anchor="middle" x="376" y="-93" font-family="Helvetica,sans-Serif" font-size="10.00">rearrange_plan</text>
</a>
</g>
<!-- Node2&#45;&gt;Node5 -->
<g id="edge8" class="edge"><title>Node2&#45;&gt;Node5</title>
<path fill="none" stroke="midnightblue" d="M291.624,-108.823C303.141,-106.8 315,-104.716 326.055,-102.774"/>
<polygon fill="midnightblue" stroke="midnightblue" points="326.706,-106.214 335.949,-101.036 325.494,-99.3191 326.706,-106.214"/>
</g>
<!-- Node6 -->
<g id="node11" class="node"><title>Node6</title>
<a xlink:href="plot_8cpp.html#a3aa259226da63745d5e779178c8111f2" target="_top" xlink:title="copy_symbol_to_emply_slot">
<polygon fill="white" stroke="black" points="460,-62 460,-86 600,-86 600,-62 460,-62"/>
<text text-anchor="middle" x="530" y="-73" font-family="Helvetica,sans-Serif" font-size="10.00">copy_symbol_to_emply_slot</text>
</a>
</g>
<!-- Node5&#45;&gt;Node6 -->
<g id="edge10" class="edge"><title>Node5&#45;&gt;Node6</title>
<path fill="none" stroke="midnightblue" d="M416.06,-88.7974C426.399,-87.4547 437.903,-85.9607 449.513,-84.4529"/>
<polygon fill="midnightblue" stroke="midnightblue" points="450.25,-87.8866 459.716,-83.1278 449.348,-80.9449 450.25,-87.8866"/>
</g>
<!-- Node7&#45;&gt;Node6 -->
<g id="edge14" class="edge"><title>Node7&#45;&gt;Node6</title>
<path fill="none" stroke="midnightblue" d="M286.229,-64.3137C332.668,-66.159 398.22,-68.7637 449.654,-70.8074"/>
<polygon fill="midnightblue" stroke="midnightblue" points="449.611,-74.3084 459.742,-71.2083 449.889,-67.3139 449.611,-74.3084"/>
</g>
</g>
</svg>
        <g id="navigator" transform="translate(0 0)" fill="#404254">
                <rect fill="#f2f5e9" fill-opacity="0.5" stroke="#606060" stroke-width=".5" x="0" y="0" width="60" height="60"/>
                <use id="zoomplus" xlink:href="#zoomPlus" x="17" y="9" onmousedown="handleZoom(evt,'in')"/>
                <use id="zoomminus" xlink:href="#zoomMin" x="42" y="9" onmousedown="handleZoom(evt,'out')"/>
                <use id="reset" xlink:href="#resetDef" x="30" y="36" onmousedown="handleReset()"/>
                <g id="arrowUp" xlink:href="#dirArrow" transform="translate(30 24)" onmousedown="handlePan(0,-1)">
                  <use xlink:href="#rim" fill="#404040">
                        <set attributeName="fill" to="#808080" begin="arrowUp.mouseover" end="arrowUp.mouseout"/>
                  </use>
                  <path fill="none" stroke="white" stroke-width="1.5" d="M0,-3.0v7 M-2.5,-0.5L0,-3.0L2.5,-0.5"/>
                </g>
                <g id="arrowRight" xlink:href="#dirArrow" transform="rotate(90) translate(36 -43)" onmousedown="handlePan(1,0)">
                  <use xlink:href="#rim" fill="#404040">
                        <set attributeName="fill" to="#808080" begin="arrowRight.mouseover" end="arrowRight.mouseout"/>
                  </use>
                  <path fill="none" stroke="white" stroke-width="1.5" d="M0,-3.0v7 M-2.5,-0.5L0,-3.0L2.5,-0.5"/>
                </g>
                <g id="arrowDown" xlink:href="#dirArrow" transform="rotate(180) translate(-30 -48)" onmousedown="handlePan(0,1)">
                  <use xlink:href="#rim" fill="#404040">
                        <set attributeName="fill" to="#808080" begin="arrowDown.mouseover" end="arrowDown.mouseout"/>
                  </use>
                  <path fill="none" stroke="white" stroke-width="1.5" d="M0,-3.0v7 M-2.5,-0.5L0,-3.0L2.5,-0.5"/>
                </g>
                <g id="arrowLeft" xlink:href="#dirArrow" transform="rotate(270) translate(-36 17)" onmousedown="handlePan(-1,0)">
                  <use xlink:href="#rim" fill="#404040">
                        <set attributeName="fill" to="#808080" begin="arrowLeft.mouseover" end="arrowLeft.mouseout"/>
                  </use>
                  <path fill="none" stroke="white" stroke-width="1.5" d="M0,-3.0v7 M-2.5,-0.5L0,-3.0L2.5,-0.5"/>
                </g>
        </g>
        <svg viewBox="0 0 15 15" width="100%" height="30px" preserveAspectRatio="xMaxYMin meet">
         <g id="arrow_out" transform="scale(0.3 0.3)">
          <a xlink:href="plot_8cpp_a3431bbe587897e907b6dee6b35777684_cgraph_org.svg" target="_base">
           <rect id="button" ry="5" rx="5" y="6" x="6" height="38" width="38"
                fill="#f2f5e9" fill-opacity="0.5" stroke="#606060" stroke-width="1.0"/>
           <path id="arrow"
             d="M 11.500037,31.436501 C 11.940474,20.09759 22.043105,11.32322 32.158766,21.979434 L 37.068811,17.246167 C 37.068811,17.246167 37.088388,32 37.088388,32 L 22.160133,31.978069 C 22.160133,31.978069 26.997745,27.140456 26.997745,27.140456 C 18.528582,18.264221 13.291696,25.230495 11.500037,31.436501 z"
             style="fill:#404040;"/>
          </a>
         </g>
        </svg>
</svg>
