<?xml version="1.0" encoding="UTF-8" standalone="no"?>
<!DOCTYPE svg PUBLIC "-//W3C//DTD SVG 1.1//EN"
 "http://www.w3.org/Graphics/SVG/1.1/DTD/svg11.dtd">
<!-- Generated by graphviz version 2.26.3 (20100126.1600)
 -->
<!-- Title: plot_draw_symbol_fluo_big Pages: 1 -->
<svg width="506pt" height="114pt"
 viewBox="0.00 0.00 506.00 114.00" xmlns="http://www.w3.org/2000/svg" xmlns:xlink="http://www.w3.org/1999/xlink">
<g id="graph1" class="graph" transform="scale(1 1) rotate(0) translate(4 110)">
<title>plot_draw_symbol_fluo_big</title>
<polygon fill="white" stroke="white" points="-4,5 -4,-110 503,-110 503,5 -4,5"/>
<!-- Node1 -->
<g id="node1" class="node"><title>Node1</title>
<polygon fill="#bfbfbf" stroke="black" points="0,-25 0,-49 134,-49 134,-25 0,-25"/>
<text text-anchor="middle" x="67" y="-36" font-family="Helvetica,sans-Serif" font-size="10.00">plot_draw_symbol_fluo_big</text>
</g>
<!-- Node2 -->
<g id="node3" class="node"><title>Node2</title>
<a xlink:href="plot9_8cpp.html#a3951a5b6b3fa49a2c1faf24e2fe0cfb4" target="_top" xlink:title="plot_print_neutral\l_symbol">
<polygon fill="white" stroke="black" points="170.5,-42 170.5,-82 261.5,-82 261.5,-42 170.5,-42"/>
<text text-anchor="start" x="178.5" y="-69" font-family="Helvetica,sans-Serif" font-size="10.00">plot_print_neutral</text>
<text text-anchor="middle" x="216" y="-53" font-family="Helvetica,sans-Serif" font-size="10.00">_symbol</text>
</a>
</g>
<!-- Node1&#45;&gt;Node2 -->
<g id="edge2" class="edge"><title>Node1&#45;&gt;Node2</title>
<path fill="none" stroke="midnightblue" d="M144.134,-49.942C153.036,-51.4356 161.887,-52.9207 170.179,-54.312"/>
<polygon fill="midnightblue" stroke="midnightblue" points="144.531,-46.4598 134.09,-48.2567 143.373,-53.3633 144.531,-46.4598"/>
</g>
<!-- Node6 -->
<g id="node12" class="node"><title>Node6</title>
<a xlink:href="plot9_8cpp.html#ab1ead0218cc4468327a83bc54864cf3e" target="_top" xlink:title="plot_draw_plan">
<polygon fill="white" stroke="black" points="175,-0 175,-24 257,-24 257,-0 175,-0"/>
<text text-anchor="middle" x="216" y="-11" font-family="Helvetica,sans-Serif" font-size="10.00">plot_draw_plan</text>
</a>
</g>
<!-- Node1&#45;&gt;Node6 -->
<g id="edge12" class="edge"><title>Node1&#45;&gt;Node6</title>
<path fill="none" stroke="midnightblue" d="M144.225,-24.0427C154.802,-22.2681 165.306,-20.5058 174.881,-18.8991"/>
<polygon fill="midnightblue" stroke="midnightblue" points="143.373,-20.6367 134.09,-25.7433 144.531,-27.5402 143.373,-20.6367"/>
</g>
<!-- Node3 -->
<g id="node5" class="node"><title>Node3</title>
<a xlink:href="plot9_8cpp.html#a08296cc3ee305018568ea075f64d5640" target="_top" xlink:title="plot_symbol_list">
<polygon fill="white" stroke="black" points="300.5,-82 300.5,-106 387.5,-106 387.5,-82 300.5,-82"/>
<text text-anchor="middle" x="344" y="-93" font-family="Helvetica,sans-Serif" font-size="10.00">plot_symbol_list</text>
</a>
</g>
<!-- Node2&#45;&gt;Node3 -->
<g id="edge4" class="edge"><title>Node2&#45;&gt;Node3</title>
<path fill="none" stroke="midnightblue" d="M271.667,-75.9168C281.211,-78.3026 291.005,-80.7513 300.183,-83.0458"/>
<polygon fill="midnightblue" stroke="midnightblue" points="272.4,-72.4923 261.849,-73.4623 270.702,-79.2833 272.4,-72.4923"/>
</g>
<!-- Node5 -->
<g id="node9" class="node"><title>Node5</title>
<a xlink:href="plot9_8cpp.html#a49a123345f2c48b1f87d85599a2ae25d" target="_top" xlink:title="plot_draw_legend">
<polygon fill="white" stroke="black" points="298,-40 298,-64 390,-64 390,-40 298,-40"/>
<text text-anchor="middle" x="344" y="-51" font-family="Helvetica,sans-Serif" font-size="10.00">plot_draw_legend</text>
</a>
</g>
<!-- Node2&#45;&gt;Node5 -->
<g id="edge8" class="edge"><title>Node2&#45;&gt;Node5</title>
<path fill="none" stroke="midnightblue" d="M271.823,-57.6388C280.43,-56.9664 289.238,-56.2783 297.61,-55.6243"/>
<polygon fill="midnightblue" stroke="midnightblue" points="271.546,-54.1497 261.849,-58.418 272.092,-61.1284 271.546,-54.1497"/>
</g>
<!-- Node4 -->
<g id="node7" class="node"><title>Node4</title>
<a xlink:href="plot9_8cpp.html#a3d45bfc1bc76a3d67ad1a8bb3d63163d" target="_top" xlink:title="Plot_window">
<polygon fill="white" stroke="black" points="426,-40 426,-64 498,-64 498,-40 426,-40"/>
<text text-anchor="middle" x="462" y="-51" font-family="Helvetica,sans-Serif" font-size="10.00">Plot_window</text>
</a>
</g>
<!-- Node3&#45;&gt;Node4 -->
<g id="edge6" class="edge"><title>Node3&#45;&gt;Node4</title>
<path fill="none" stroke="midnightblue" d="M387.367,-78.5642C400.831,-73.7718 415.467,-68.5628 428.181,-64.0373"/>
<polygon fill="midnightblue" stroke="midnightblue" points="386.061,-75.3138 377.814,-81.9645 388.409,-81.9085 386.061,-75.3138"/>
</g>
<!-- Node5&#45;&gt;Node4 -->
<g id="edge10" class="edge"><title>Node5&#45;&gt;Node4</title>
<path fill="none" stroke="midnightblue" d="M400.336,-52C408.955,-52 417.649,-52 425.682,-52"/>
<polygon fill="midnightblue" stroke="midnightblue" points="400.298,-48.5001 390.298,-52 400.298,-55.5001 400.298,-48.5001"/>
</g>
<!-- Node6&#45;&gt;Node4 -->
<g id="edge14" class="edge"><title>Node6&#45;&gt;Node4</title>
<path fill="none" stroke="midnightblue" d="M267.49,-15.2461C302.314,-18.0215 349.215,-22.8902 390,-31 401.749,-33.3362 414.352,-36.7054 425.679,-40.0634"/>
<polygon fill="midnightblue" stroke="midnightblue" points="267.328,-11.7236 257.09,-14.4507 266.794,-18.7032 267.328,-11.7236"/>
</g>
</g>
</svg>
