<?xml version="1.0" encoding="UTF-8" standalone="no"?>
<!DOCTYPE svg PUBLIC "-//W3C//DTD SVG 1.1//EN"
 "http://www.w3.org/Graphics/SVG/1.1/DTD/svg11.dtd">
<!-- Generated by graphviz version 2.26.3 (20100126.1600)
 -->
<!-- Title: plot_reset_list_appareils Pages: 1 -->
<!--zoomable 458 -->
<svg id="main" version="1.1" xmlns="http://www.w3.org/2000/svg" xmlns:xlink="http://www.w3.org/1999/xlink" xml:space="preserve" onload="init(evt)">
<style type="text/css"><![CDATA[
.edge:hover path { stroke: red; }
.edge:hover polygon { stroke: red; fill: red; }
]]></style>
<script type="text/javascript"><![CDATA[
var edges = document.getElementsByTagName('g');
if (edges && edges.length) {
  for (var i=0;i<edges.length;i++) {
    if (edges[i].id.substr(0,4)=='edge') {
      edges[i].setAttribute('class','edge');
    }
  }
}
]]></script>
        <defs>
                <circle id="rim" cx="0" cy="0" r="7"/>
                <circle id="rim2" cx="0" cy="0" r="3.5"/>
                <g id="zoomPlus">
                        <use xlink:href="#rim" fill="#404040">
                                <set attributeName="fill" to="#808080" begin="zoomplus.mouseover" end="zoomplus.mouseout"/>
                        </use>
                        <path d="M-4,0h8M0,-4v8" fill="none" stroke="white" stroke-width="1.5" pointer-events="none"/>
                </g>
                <g id="zoomMin">
                        <use xlink:href="#rim" fill="#404040">
                                <set attributeName="fill" to="#808080" begin="zoomminus.mouseover" end="zoomminus.mouseout"/>
                        </use>
                        <path d="M-4,0h8" fill="none" stroke="white" stroke-width="1.5" pointer-events="none"/>
                </g>
                <g id="dirArrow">
                        <path fill="none" stroke="white" stroke-width="1.5" d="M0,-3.0v7 M-2.5,-0.5L0,-3.0L2.5,-0.5"/>
                </g>
               <g id="resetDef">
                       <use xlink:href="#rim2" fill="#404040">
                               <set attributeName="fill" to="#808080" begin="reset.mouseover" end="reset.mouseout"/>
                       </use>
               </g>
        </defs>

<script type="text/javascript">
var viewWidth = 1338;
var viewHeight = 458;
var sectionId = 'dynsection-71';
</script>
<script xlink:href="svgpan.js"/>
<svg id="graph" class="graph">
<g id="viewport">
<title>plot_reset_list_appareils</title>
<polygon fill="white" stroke="white" points="-4,5 -4,-454 1335,-454 1335,5 -4,5"/>
<!-- Node1 -->
<g id="node1" class="node"><title>Node1</title>
<polygon fill="#bfbfbf" stroke="black" points="0,-224 0,-248 122,-248 122,-224 0,-224"/>
<text text-anchor="middle" x="61" y="-235" font-family="Helvetica,sans-Serif" font-size="10.00">plot_reset_list_appareils</text>
</g>
<!-- Node2 -->
<g id="node3" class="node"><title>Node2</title>
<a xlink:href="plot__core9_8cpp.html#a30a3e9357adedd3ded2f2ded796e81e2" target="_top" xlink:title="plot_generate_appareils_list">
<polygon fill="white" stroke="black" points="158.5,-224 158.5,-248 295.5,-248 295.5,-224 158.5,-224"/>
<text text-anchor="middle" x="227" y="-235" font-family="Helvetica,sans-Serif" font-size="10.00">plot_generate_appareils_list</text>
</a>
</g>
<!-- Node1&#45;&gt;Node2 -->
<g id="edge2" class="edge"><title>Node1&#45;&gt;Node2</title>
<path fill="none" stroke="midnightblue" d="M132.362,-236C140.985,-236 149.778,-236 158.361,-236"/>
<polygon fill="midnightblue" stroke="midnightblue" points="132.341,-232.5 122.341,-236 132.341,-239.5 132.341,-232.5"/>
</g>
<!-- Node3 -->
<g id="node5" class="node"><title>Node3</title>
<a xlink:href="midi__13_8cpp.html#a6dff3d42682b58cc0a9875ee30fb4cd4" target="_top" xlink:title="do_midi_job">
<polygon fill="white" stroke="black" points="356,-426 356,-450 424,-450 424,-426 356,-426"/>
<text text-anchor="middle" x="390" y="-437" font-family="Helvetica,sans-Serif" font-size="10.00">do_midi_job</text>
</a>
</g>
<!-- Node2&#45;&gt;Node3 -->
<g id="edge4" class="edge"><title>Node2&#45;&gt;Node3</title>
<path fill="none" stroke="midnightblue" d="M233.943,-257.529C247.123,-295.121 279.262,-372.915 332,-417 338.902,-422.769 347.519,-427.014 355.983,-430.112"/>
<polygon fill="midnightblue" stroke="midnightblue" points="237.255,-256.399 230.726,-248.054 230.626,-258.649 237.255,-256.399"/>
</g>
<!-- Node10 -->
<g id="node20" class="node"><title>Node10</title>
<a xlink:href="plot__core9_8cpp.html#a8a3eaffeb57e4bca8f42aa973645f5b9" target="_top" xlink:title="clear_calc">
<polygon fill="white" stroke="black" points="359.5,-384 359.5,-408 420.5,-408 420.5,-384 359.5,-384"/>
<text text-anchor="middle" x="390" y="-395" font-family="Helvetica,sans-Serif" font-size="10.00">clear_calc</text>
</a>
</g>
<!-- Node2&#45;&gt;Node10 -->
<g id="edge20" class="edge"><title>Node2&#45;&gt;Node10</title>
<path fill="none" stroke="midnightblue" d="M237.804,-257.152C254.244,-287.359 288.299,-342.759 332,-375 340.101,-380.976 350.072,-385.395 359.449,-388.594"/>
<polygon fill="midnightblue" stroke="midnightblue" points="240.879,-255.479 233.095,-248.29 234.697,-258.764 240.879,-255.479"/>
</g>
<!-- Node11 -->
<g id="node22" class="node"><title>Node11</title>
<a xlink:href="plot__core9_8cpp.html#a6f933b83f292138e49fc9057684a1b4b" target="_top" xlink:title="add_a_symbol_to_plot">
<polygon fill="white" stroke="black" points="333,-74 333,-98 447,-98 447,-74 333,-74"/>
<text text-anchor="middle" x="390" y="-85" font-family="Helvetica,sans-Serif" font-size="10.00">add_a_symbol_to_plot</text>
</a>
</g>
<!-- Node2&#45;&gt;Node11 -->
<g id="edge22" class="edge"><title>Node2&#45;&gt;Node11</title>
<path fill="none" stroke="midnightblue" d="M240.209,-215.264C258.19,-188.417 292.674,-141.575 332,-112 339.32,-106.495 347.99,-101.827 356.366,-98.0311"/>
<polygon fill="midnightblue" stroke="midnightblue" points="237.123,-213.586 234.556,-223.865 242.973,-217.431 237.123,-213.586"/>
</g>
<!-- Node12 -->
<g id="node24" class="node"><title>Node12</title>
<a xlink:href="plot__core9_8cpp.html#a6ff8cd924e588a71a1366288cf8dc41b" target="_top" xlink:title="logical_plot_symbol_list">
<polygon fill="white" stroke="black" points="494,-112 494,-136 614,-136 614,-112 494,-112"/>
<text text-anchor="middle" x="554" y="-123" font-family="Helvetica,sans-Serif" font-size="10.00">logical_plot_symbol_list</text>
</a>
</g>
<!-- Node2&#45;&gt;Node12 -->
<g id="edge48" class="edge"><title>Node2&#45;&gt;Node12</title>
<path fill="none" stroke="midnightblue" d="M244.393,-216.259C263.615,-195.89 296.576,-165.036 332,-150 383.616,-128.091 447.693,-122.631 493.719,-122.032"/>
<polygon fill="midnightblue" stroke="midnightblue" points="241.689,-214.027 237.49,-223.754 246.839,-218.769 241.689,-214.027"/>
</g>
<!-- Node16 -->
<g id="node33" class="node"><title>Node16</title>
<a xlink:href="plot__core9_8cpp.html#a0e606b8d73e2db784589b32f412e8fe1" target="_top" xlink:title="duplicate_selected\l_symbols">
<polygon fill="white" stroke="black" points="341,-326 341,-366 439,-366 439,-326 341,-326"/>
<text text-anchor="start" x="349" y="-353" font-family="Helvetica,sans-Serif" font-size="10.00">duplicate_selected</text>
<text text-anchor="middle" x="390" y="-337" font-family="Helvetica,sans-Serif" font-size="10.00">_symbols</text>
</a>
</g>
<!-- Node2&#45;&gt;Node16 -->
<g id="edge34" class="edge"><title>Node2&#45;&gt;Node16</title>
<path fill="none" stroke="midnightblue" d="M250.705,-254.164C271.691,-269.999 303.349,-293.295 332,-312 339.135,-316.658 346.917,-321.424 354.397,-325.858"/>
<polygon fill="midnightblue" stroke="midnightblue" points="252.758,-251.328 242.675,-248.075 248.529,-256.906 252.758,-251.328"/>
</g>
<!-- Node17 -->
<g id="node35" class="node"><title>Node17</title>
<a xlink:href="plot__core9_8cpp.html#a74a79a0e49b7f81a7cb8b944c77b3b0d" target="_top" xlink:title="logical_plot_symbol\l_edition">
<polygon fill="white" stroke="black" points="503,-288 503,-328 605,-328 605,-288 503,-288"/>
<text text-anchor="start" x="511" y="-315" font-family="Helvetica,sans-Serif" font-size="10.00">logical_plot_symbol</text>
<text text-anchor="middle" x="554" y="-299" font-family="Helvetica,sans-Serif" font-size="10.00">_edition</text>
</a>
</g>
<!-- Node2&#45;&gt;Node17 -->
<g id="edge54" class="edge"><title>Node2&#45;&gt;Node17</title>
<path fill="none" stroke="midnightblue" d="M265.024,-251.795C284.724,-259.454 309.341,-268.224 332,-274 389.619,-288.688 457.369,-297.942 502.734,-303.024"/>
<polygon fill="midnightblue" stroke="midnightblue" points="266.081,-248.449 255.494,-248.028 263.507,-254.959 266.081,-248.449"/>
</g>
<!-- Node18 -->
<g id="node38" class="node"><title>Node18</title>
<a xlink:href="plot__core9_8cpp.html#a9c23683c01563bbc9fceacea0cfd1282" target="_top" xlink:title="add_selected_symbols\l_to_calc">
<polygon fill="white" stroke="black" points="332,-192 332,-232 448,-232 448,-192 332,-192"/>
<text text-anchor="start" x="340" y="-219" font-family="Helvetica,sans-Serif" font-size="10.00">add_selected_symbols</text>
<text text-anchor="middle" x="390" y="-203" font-family="Helvetica,sans-Serif" font-size="10.00">_to_calc</text>
</a>
</g>
<!-- Node2&#45;&gt;Node18 -->
<g id="edge40" class="edge"><title>Node2&#45;&gt;Node18</title>
<path fill="none" stroke="midnightblue" d="M305.639,-224.421C314.52,-223.114 323.446,-221.799 331.995,-220.541"/>
<polygon fill="midnightblue" stroke="midnightblue" points="305.038,-220.972 295.654,-225.891 306.057,-227.897 305.038,-220.972"/>
</g>
<!-- Node20 -->
<g id="node42" class="node"><title>Node20</title>
<a xlink:href="plot__core9_8cpp.html#a81228c183a1b219d5f3c5a759800df4b" target="_top" xlink:title="logical_plot_menu_bare">
<polygon fill="white" stroke="black" points="660.5,-210 660.5,-234 779.5,-234 779.5,-210 660.5,-210"/>
<text text-anchor="middle" x="720" y="-221" font-family="Helvetica,sans-Serif" font-size="10.00">logical_plot_menu_bare</text>
</a>
</g>
<!-- Node2&#45;&gt;Node20 -->
<g id="edge56" class="edge"><title>Node2&#45;&gt;Node20</title>
<path fill="none" stroke="midnightblue" d="M305.722,-242.084C385.979,-247.092 513.972,-251.784 624,-241 638.711,-239.558 654.51,-236.902 668.959,-234.023"/>
<polygon fill="midnightblue" stroke="midnightblue" points="305.894,-238.588 295.691,-241.441 305.446,-245.573 305.894,-238.588"/>
</g>
<!-- Node21 -->
<g id="node46" class="node"><title>Node21</title>
<a xlink:href="plot__core9_8cpp.html#afacf9fafd495ceac6c305b0cf88312f2" target="_top" xlink:title="logical_symbol_edition\l_options">
<polygon fill="white" stroke="black" points="662.5,-152 662.5,-192 777.5,-192 777.5,-152 662.5,-152"/>
<text text-anchor="start" x="670.5" y="-179" font-family="Helvetica,sans-Serif" font-size="10.00">logical_symbol_edition</text>
<text text-anchor="middle" x="720" y="-163" font-family="Helvetica,sans-Serif" font-size="10.00">_options</text>
</a>
</g>
<!-- Node2&#45;&gt;Node21 -->
<g id="edge50" class="edge"><title>Node2&#45;&gt;Node21</title>
<path fill="none" stroke="midnightblue" d="M253.73,-218.347C274.211,-205.881 303.675,-190.169 332,-183 446.324,-154.064 585.658,-159.549 662.385,-165.916"/>
<polygon fill="midnightblue" stroke="midnightblue" points="251.618,-215.54 244.989,-223.804 255.325,-221.478 251.618,-215.54"/>
</g>
<!-- Node22 -->
<g id="node51" class="node"><title>Node22</title>
<a xlink:href="save__show__13_8cpp.html#a8330f725aa2c729bdce098aa4b187589" target="_top" xlink:title="Load_Show">
<polygon fill="white" stroke="black" points="356,-30 356,-54 424,-54 424,-30 356,-30"/>
<text text-anchor="middle" x="390" y="-41" font-family="Helvetica,sans-Serif" font-size="10.00">Load_Show</text>
</a>
</g>
<!-- Node2&#45;&gt;Node22 -->
<g id="edge58" class="edge"><title>Node2&#45;&gt;Node22</title>
<path fill="none" stroke="midnightblue" d="M234.997,-214.322C249.235,-178.514 282.236,-106.816 332,-65 338.883,-59.2161 347.4,-54.7649 355.768,-51.3904"/>
<polygon fill="midnightblue" stroke="midnightblue" points="231.669,-213.225 231.331,-223.814 238.199,-215.747 231.669,-213.225"/>
</g>
<!-- Node4 -->
<g id="node7" class="node"><title>Node4</title>
<a xlink:href="midi__13_8cpp.html#a6bedf9750195224914cd87c4e73ab626" target="_top" xlink:title="ventilate_midi_to_midiarray">
<polygon fill="white" stroke="black" points="486.5,-386 486.5,-410 621.5,-410 621.5,-386 486.5,-386"/>
<text text-anchor="middle" x="554" y="-397" font-family="Helvetica,sans-Serif" font-size="10.00">ventilate_midi_to_midiarray</text>
</a>
</g>
<!-- Node3&#45;&gt;Node4 -->
<g id="edge6" class="edge"><title>Node3&#45;&gt;Node4</title>
<path fill="none" stroke="midnightblue" d="M434.34,-427.185C456.09,-421.88 482.356,-415.474 504.732,-410.017"/>
<polygon fill="midnightblue" stroke="midnightblue" points="433.266,-423.845 424.38,-429.615 434.924,-430.645 433.266,-423.845"/>
</g>
<!-- Node5 -->
<g id="node9" class="node"><title>Node5</title>
<a xlink:href="midi__13_8cpp.html#afa49dd5668303c2448676c8243737c2d" target="_top" xlink:title="simulate_midi">
<polygon fill="white" stroke="black" points="681.5,-329 681.5,-353 758.5,-353 758.5,-329 681.5,-329"/>
<text text-anchor="middle" x="720" y="-340" font-family="Helvetica,sans-Serif" font-size="10.00">simulate_midi</text>
</a>
</g>
<!-- Node4&#45;&gt;Node5 -->
<g id="edge8" class="edge"><title>Node4&#45;&gt;Node5</title>
<path fill="none" stroke="midnightblue" d="M598.819,-382.61C625.842,-373.332 659.769,-361.682 684.846,-353.071"/>
<polygon fill="midnightblue" stroke="midnightblue" points="597.526,-379.354 589.204,-385.912 599.799,-385.974 597.526,-379.354"/>
</g>
<!-- Node6 -->
<g id="node11" class="node"><title>Node6</title>
<a xlink:href="arduino__core__6___u_n_o_8cpp.html#ae72d1a8d74d9ab5515962e03e7e664d6" target="_top" xlink:title="arduino_do_analog_in\l_whitecat">
<polygon fill="white" stroke="black" points="822,-321 822,-361 932,-361 932,-321 822,-321"/>
<text text-anchor="start" x="830" y="-348" font-family="Helvetica,sans-Serif" font-size="10.00">arduino_do_analog_in</text>
<text text-anchor="middle" x="877" y="-332" font-family="Helvetica,sans-Serif" font-size="10.00">_whitecat</text>
</a>
</g>
<!-- Node5&#45;&gt;Node6 -->
<g id="edge10" class="edge"><title>Node5&#45;&gt;Node6</title>
<path fill="none" stroke="midnightblue" d="M768.933,-341C785.684,-341 804.538,-341 821.753,-341"/>
<polygon fill="midnightblue" stroke="midnightblue" points="768.809,-337.5 758.809,-341 768.809,-344.5 768.809,-337.5"/>
</g>
<!-- Node9 -->
<g id="node17" class="node"><title>Node9</title>
<a xlink:href="arduino__core__6___u_n_o_8cpp.html#a219226c1cd6cc17c78e62fd4445bb445" target="_top" xlink:title="arduino_do_digital\l_in_whitecat">
<polygon fill="white" stroke="black" points="829.5,-263 829.5,-303 924.5,-303 924.5,-263 829.5,-263"/>
<text text-anchor="start" x="837.5" y="-290" font-family="Helvetica,sans-Serif" font-size="10.00">arduino_do_digital</text>
<text text-anchor="middle" x="877" y="-274" font-family="Helvetica,sans-Serif" font-size="10.00">_in_whitecat</text>
</a>
</g>
<!-- Node5&#45;&gt;Node9 -->
<g id="edge16" class="edge"><title>Node5&#45;&gt;Node9</title>
<path fill="none" stroke="midnightblue" d="M762.022,-325.476C782.758,-317.816 807.861,-308.542 829.314,-300.617"/>
<polygon fill="midnightblue" stroke="midnightblue" points="760.698,-322.234 752.531,-328.982 763.124,-328.8 760.698,-322.234"/>
</g>
<!-- Node7 -->
<g id="node13" class="node"><title>Node7</title>
<a xlink:href="_m_a_i_n__avec__objets_8cpp.html#ace9c8a9b37c6087c3cffef442d71d70e" target="_top" xlink:title="dixiemes_de_secondes">
<polygon fill="white" stroke="black" points="974.5,-271 974.5,-295 1093.5,-295 1093.5,-271 974.5,-271"/>
<text text-anchor="middle" x="1034" y="-282" font-family="Helvetica,sans-Serif" font-size="10.00">dixiemes_de_secondes</text>
</a>
</g>
<!-- Node6&#45;&gt;Node7 -->
<g id="edge12" class="edge"><title>Node6&#45;&gt;Node7</title>
<path fill="none" stroke="midnightblue" d="M940.858,-317.409C961.553,-309.764 983.655,-301.599 1001.13,-295.142"/>
<polygon fill="midnightblue" stroke="midnightblue" points="939.638,-314.129 931.47,-320.877 942.064,-320.695 939.638,-314.129"/>
</g>
<!-- Node8 -->
<g id="node15" class="node"><title>Node8</title>
<a xlink:href="_m_a_i_n__avec__objets_8cpp.html#ae66f6b31b5ad750f1fe042a706a4e3d4" target="_top" xlink:title="main">
<polygon fill="white" stroke="black" points="1292,-89 1292,-113 1330,-113 1330,-89 1292,-89"/>
<text text-anchor="middle" x="1311" y="-100" font-family="Helvetica,sans-Serif" font-size="10.00">main</text>
</a>
</g>
<!-- Node7&#45;&gt;Node8 -->
<g id="edge14" class="edge"><title>Node7&#45;&gt;Node8</title>
<path fill="none" stroke="midnightblue" d="M1063.41,-265.604C1106.44,-239.9 1188.72,-189.761 1256,-143 1269.81,-133.4 1284.97,-121.739 1295.86,-113.142"/>
<polygon fill="midnightblue" stroke="midnightblue" points="1061.4,-262.731 1054.6,-270.856 1064.98,-268.744 1061.4,-262.731"/>
</g>
<!-- Node9&#45;&gt;Node7 -->
<g id="edge18" class="edge"><title>Node9&#45;&gt;Node7</title>
<path fill="none" stroke="midnightblue" d="M934.702,-283C947.638,-283 961.387,-283 974.398,-283"/>
<polygon fill="midnightblue" stroke="midnightblue" points="934.531,-279.5 924.531,-283 934.531,-286.5 934.531,-279.5"/>
</g>
<!-- Node11&#45;&gt;Node12 -->
<g id="edge24" class="edge"><title>Node11&#45;&gt;Node12</title>
<path fill="none" stroke="midnightblue" d="M452.011,-100.368C468.548,-104.2 486.239,-108.299 502.166,-111.99"/>
<polygon fill="midnightblue" stroke="midnightblue" points="452.423,-96.8711 441.891,-98.0234 450.842,-103.69 452.423,-96.8711"/>
</g>
<!-- Node13 -->
<g id="node26" class="node"><title>Node13</title>
<a xlink:href="plot__core9_8cpp.html#a8959d98409d30cff9689b28771791f70" target="_top" xlink:title="do_logical_Plot_window">
<polygon fill="white" stroke="black" points="816.5,-160 816.5,-184 937.5,-184 937.5,-160 816.5,-160"/>
<text text-anchor="middle" x="877" y="-171" font-family="Helvetica,sans-Serif" font-size="10.00">do_logical_Plot_window</text>
</a>
</g>
<!-- Node12&#45;&gt;Node13 -->
<g id="edge26" class="edge"><title>Node12&#45;&gt;Node13</title>
<path fill="none" stroke="midnightblue" d="M624.617,-126.187C669.441,-128.497 728.496,-133.245 780,-143 801.242,-147.023 824.464,-153.875 842.86,-159.909"/>
<polygon fill="midnightblue" stroke="midnightblue" points="624.57,-122.681 614.412,-125.691 624.23,-129.673 624.57,-122.681"/>
</g>
<!-- Node14 -->
<g id="node28" class="node"><title>Node14</title>
<a xlink:href="procs__visuels__rebuild1_8cpp.html#ae710b6e599e321ad5934a90140067054" target="_top" xlink:title="check_graphics_mouse\l_handling">
<polygon fill="white" stroke="black" points="974.5,-152 974.5,-192 1093.5,-192 1093.5,-152 974.5,-152"/>
<text text-anchor="start" x="982.5" y="-179" font-family="Helvetica,sans-Serif" font-size="10.00">check_graphics_mouse</text>
<text text-anchor="middle" x="1034" y="-163" font-family="Helvetica,sans-Serif" font-size="10.00">_handling</text>
</a>
</g>
<!-- Node13&#45;&gt;Node14 -->
<g id="edge28" class="edge"><title>Node13&#45;&gt;Node14</title>
<path fill="none" stroke="midnightblue" d="M947.718,-172C956.664,-172 965.747,-172 974.495,-172"/>
<polygon fill="midnightblue" stroke="midnightblue" points="947.7,-168.5 937.7,-172 947.7,-175.5 947.7,-168.5"/>
</g>
<!-- Node15 -->
<g id="node30" class="node"><title>Node15</title>
<a xlink:href="_m_a_i_n__avec__objets_8cpp.html#a8e80f54ac804eddce8ed6e45adb1db44" target="_top" xlink:title="ticker_full_loop">
<polygon fill="white" stroke="black" points="1152,-110 1152,-134 1234,-134 1234,-110 1152,-110"/>
<text text-anchor="middle" x="1193" y="-121" font-family="Helvetica,sans-Serif" font-size="10.00">ticker_full_loop</text>
</a>
</g>
<!-- Node14&#45;&gt;Node15 -->
<g id="edge30" class="edge"><title>Node14&#45;&gt;Node15</title>
<path fill="none" stroke="midnightblue" d="M1103.36,-150.19C1120.98,-144.649 1139.27,-138.895 1154.71,-134.042"/>
<polygon fill="midnightblue" stroke="midnightblue" points="1102.15,-146.901 1093.66,-153.24 1104.25,-153.579 1102.15,-146.901"/>
</g>
<!-- Node15&#45;&gt;Node8 -->
<g id="edge32" class="edge"><title>Node15&#45;&gt;Node8</title>
<path fill="none" stroke="midnightblue" d="M1244.55,-112.826C1261.31,-109.844 1278.88,-106.716 1291.74,-104.427"/>
<polygon fill="midnightblue" stroke="midnightblue" points="1243.5,-109.457 1234.27,-114.655 1244.73,-116.349 1243.5,-109.457"/>
</g>
<!-- Node16&#45;&gt;Node17 -->
<g id="edge36" class="edge"><title>Node16&#45;&gt;Node17</title>
<path fill="none" stroke="midnightblue" d="M449.324,-332.254C466.849,-328.193 485.874,-323.785 502.838,-319.855"/>
<polygon fill="midnightblue" stroke="midnightblue" points="448.157,-328.932 439.205,-334.599 449.737,-335.751 448.157,-328.932"/>
</g>
<!-- Node17&#45;&gt;Node13 -->
<g id="edge38" class="edge"><title>Node17&#45;&gt;Node13</title>
<path fill="none" stroke="midnightblue" d="M615.22,-296.512C661.941,-286.314 727.067,-268.959 780,-243 812.603,-227.011 845.698,-199.957 863.554,-184.266"/>
<polygon fill="midnightblue" stroke="midnightblue" points="614.294,-293.131 605.245,-298.642 615.755,-299.977 614.294,-293.131"/>
</g>
<!-- Node19 -->
<g id="node40" class="node"><title>Node19</title>
<a xlink:href="plot__core9_8cpp.html#a3431bbe587897e907b6dee6b35777684" target="_top" xlink:title="send_symbols_from_calc\l_to_calc">
<polygon fill="white" stroke="black" points="490,-192 490,-232 618,-232 618,-192 490,-192"/>
<text text-anchor="start" x="498" y="-219" font-family="Helvetica,sans-Serif" font-size="10.00">send_symbols_from_calc</text>
<text text-anchor="middle" x="554" y="-203" font-family="Helvetica,sans-Serif" font-size="10.00">_to_calc</text>
</a>
</g>
<!-- Node18&#45;&gt;Node19 -->
<g id="edge42" class="edge"><title>Node18&#45;&gt;Node19</title>
<path fill="none" stroke="midnightblue" d="M458.512,-212C468.867,-212 479.516,-212 489.775,-212"/>
<polygon fill="midnightblue" stroke="midnightblue" points="458.282,-208.5 448.282,-212 458.282,-215.5 458.282,-208.5"/>
</g>
<!-- Node19&#45;&gt;Node20 -->
<g id="edge44" class="edge"><title>Node19&#45;&gt;Node20</title>
<path fill="none" stroke="midnightblue" d="M628.362,-216.48C639.069,-217.125 649.97,-217.781 660.341,-218.406"/>
<polygon fill="midnightblue" stroke="midnightblue" points="628.372,-212.974 618.18,-215.866 627.951,-219.961 628.372,-212.974"/>
</g>
<!-- Node20&#45;&gt;Node13 -->
<g id="edge46" class="edge"><title>Node20&#45;&gt;Node13</title>
<path fill="none" stroke="midnightblue" d="M767.542,-206.859C790.459,-199.561 817.567,-190.928 839.073,-184.079"/>
<polygon fill="midnightblue" stroke="midnightblue" points="766.472,-203.527 758.005,-209.896 768.596,-210.197 766.472,-203.527"/>
</g>
<!-- Node21&#45;&gt;Node13 -->
<g id="edge52" class="edge"><title>Node21&#45;&gt;Node13</title>
<path fill="none" stroke="midnightblue" d="M787.749,-172C797.233,-172 806.929,-172 816.272,-172"/>
<polygon fill="midnightblue" stroke="midnightblue" points="787.57,-168.5 777.57,-172 787.569,-175.5 787.57,-168.5"/>
</g>
<!-- Node22&#45;&gt;Node8 -->
<g id="edge60" class="edge"><title>Node22&#45;&gt;Node8</title>
<path fill="none" stroke="midnightblue" d="M434.05,-29.6824C449.709,-25.7141 467.537,-21.6593 484,-19 587.882,-2.21957 614.772,-0 720,-0 720,-0 720,-0 1034,-0 1136.09,-0 1164.34,-14.046 1256,-59 1271.75,-66.7238 1287.42,-79.2984 1297.99,-88.6787"/>
<polygon fill="midnightblue" stroke="midnightblue" points="432.909,-26.3625 424.109,-32.2621 434.667,-33.1381 432.909,-26.3625"/>
</g>
<!-- Node23 -->
<g id="node54" class="node"><title>Node23</title>
<a xlink:href="save__show__13_8cpp.html#a1eafc1ecb75f36c1fe85c967bdea99b0" target="_top" xlink:title="load_the_show">
<polygon fill="white" stroke="black" points="513,-28 513,-52 595,-52 595,-28 513,-28"/>
<text text-anchor="middle" x="554" y="-39" font-family="Helvetica,sans-Serif" font-size="10.00">load_the_show</text>
</a>
</g>
<!-- Node22&#45;&gt;Node23 -->
<g id="edge62" class="edge"><title>Node22&#45;&gt;Node23</title>
<path fill="none" stroke="midnightblue" d="M434.483,-41.4575C458.951,-41.1591 489.1,-40.7915 512.995,-40.5001"/>
<polygon fill="midnightblue" stroke="midnightblue" points="434.336,-37.959 424.38,-41.5807 434.422,-44.9584 434.336,-37.959"/>
</g>
<!-- Node30 -->
<g id="node70" class="node"><title>Node30</title>
<a xlink:href="save__show__13_8cpp.html#a2c8ff847dfaf2dc6c8765b2bee26edfc" target="_top" xlink:title="do_wizard_reload_from_disk">
<polygon fill="white" stroke="black" points="484,-70 484,-94 624,-94 624,-70 484,-70"/>
<text text-anchor="middle" x="554" y="-81" font-family="Helvetica,sans-Serif" font-size="10.00">do_wizard_reload_from_disk</text>
</a>
</g>
<!-- Node22&#45;&gt;Node30 -->
<g id="edge80" class="edge"><title>Node22&#45;&gt;Node30</title>
<path fill="none" stroke="midnightblue" d="M434.34,-52.8147C456.09,-58.1196 482.356,-64.5259 504.732,-69.9834"/>
<polygon fill="midnightblue" stroke="midnightblue" points="434.924,-49.3546 424.38,-50.3853 433.266,-56.1553 434.924,-49.3546"/>
</g>
<!-- Node24 -->
<g id="node56" class="node"><title>Node24</title>
<a xlink:href="logicals__intres_8cpp.html#a74cf9c04c734ab342f88799efbfc4210" target="_top" xlink:title="operations_confirmation">
<polygon fill="white" stroke="black" points="660,-69 660,-93 780,-93 780,-69 660,-69"/>
<text text-anchor="middle" x="720" y="-80" font-family="Helvetica,sans-Serif" font-size="10.00">operations_confirmation</text>
</a>
</g>
<!-- Node23&#45;&gt;Node24 -->
<g id="edge64" class="edge"><title>Node23&#45;&gt;Node24</title>
<path fill="none" stroke="midnightblue" d="M604.786,-52.5436C625.89,-57.7561 650.284,-63.7809 671.176,-68.9411"/>
<polygon fill="midnightblue" stroke="midnightblue" points="605.581,-49.1348 595.034,-50.1348 603.903,-55.9306 605.581,-49.1348"/>
</g>
<!-- Node25 -->
<g id="node58" class="node"><title>Node25</title>
<a xlink:href="keyboard__functions2_8cpp.html#a548548066307f816c5021de7d6e4f26a" target="_top" xlink:title="key_affectation">
<polygon fill="white" stroke="black" points="835.5,-110 835.5,-134 918.5,-134 918.5,-110 835.5,-110"/>
<text text-anchor="middle" x="877" y="-121" font-family="Helvetica,sans-Serif" font-size="10.00">key_affectation</text>
</a>
</g>
<!-- Node24&#45;&gt;Node25 -->
<g id="edge66" class="edge"><title>Node24&#45;&gt;Node25</title>
<path fill="none" stroke="midnightblue" d="M775.974,-95.6175C795.545,-100.728 817.157,-106.372 835.352,-111.124"/>
<polygon fill="midnightblue" stroke="midnightblue" points="776.816,-92.22 766.256,-93.0796 775.047,-98.9928 776.816,-92.22"/>
</g>
<!-- Node27 -->
<g id="node63" class="node"><title>Node27</title>
<a xlink:href="logicals__intres_8cpp.html#a85967c22135715eca94d08af2ec1a1fb" target="_top" xlink:title="fenetre_confirm">
<polygon fill="white" stroke="black" points="835,-68 835,-92 919,-92 919,-68 835,-68"/>
<text text-anchor="middle" x="877" y="-79" font-family="Helvetica,sans-Serif" font-size="10.00">fenetre_confirm</text>
</a>
</g>
<!-- Node24&#45;&gt;Node27 -->
<g id="edge72" class="edge"><title>Node24&#45;&gt;Node27</title>
<path fill="none" stroke="midnightblue" d="M790.584,-80.5504C805.639,-80.4545 821.087,-80.3561 834.682,-80.2695"/>
<polygon fill="midnightblue" stroke="midnightblue" points="790.229,-77.0525 780.251,-80.6162 790.273,-84.0524 790.229,-77.0525"/>
</g>
<!-- Node26 -->
<g id="node60" class="node"><title>Node26</title>
<a xlink:href="keyboard__routines2_8cpp.html#a8563320b8eab661232619224650de244" target="_top" xlink:title="commandes_clavier">
<polygon fill="white" stroke="black" points="982,-110 982,-134 1086,-134 1086,-110 982,-110"/>
<text text-anchor="middle" x="1034" y="-121" font-family="Helvetica,sans-Serif" font-size="10.00">commandes_clavier</text>
</a>
</g>
<!-- Node25&#45;&gt;Node26 -->
<g id="edge68" class="edge"><title>Node25&#45;&gt;Node26</title>
<path fill="none" stroke="midnightblue" d="M928.947,-122C945.91,-122 964.748,-122 981.734,-122"/>
<polygon fill="midnightblue" stroke="midnightblue" points="928.661,-118.5 918.661,-122 928.661,-125.5 928.661,-118.5"/>
</g>
<!-- Node26&#45;&gt;Node15 -->
<g id="edge70" class="edge"><title>Node26&#45;&gt;Node15</title>
<path fill="none" stroke="midnightblue" d="M1096.27,-122C1114.95,-122 1134.97,-122 1151.91,-122"/>
<polygon fill="midnightblue" stroke="midnightblue" points="1096.06,-118.5 1086.06,-122 1096.06,-125.5 1096.06,-118.5"/>
</g>
<!-- Node28 -->
<g id="node65" class="node"><title>Node28</title>
<a xlink:href="graphics__rebuild1_8cpp.html#ac2eae1e03fb72cc734ffbcef566483bf" target="_top" xlink:title="Boxes">
<polygon fill="white" stroke="black" points="1012,-68 1012,-92 1056,-92 1056,-68 1012,-68"/>
<text text-anchor="middle" x="1034" y="-79" font-family="Helvetica,sans-Serif" font-size="10.00">Boxes</text>
</a>
</g>
<!-- Node27&#45;&gt;Node28 -->
<g id="edge74" class="edge"><title>Node27&#45;&gt;Node28</title>
<path fill="none" stroke="midnightblue" d="M929.14,-80C957.174,-80 990.281,-80 1011.68,-80"/>
<polygon fill="midnightblue" stroke="midnightblue" points="929.073,-76.5001 919.073,-80 929.073,-83.5001 929.073,-76.5001"/>
</g>
<!-- Node29 -->
<g id="node67" class="node"><title>Node29</title>
<a xlink:href="_m_a_i_n__avec__objets_8cpp.html#ade8d4ba65d55c94f8ee277829d722155" target="_top" xlink:title="main_actions_on_screen">
<polygon fill="white" stroke="black" points="1130.5,-68 1130.5,-92 1255.5,-92 1255.5,-68 1130.5,-68"/>
<text text-anchor="middle" x="1193" y="-79" font-family="Helvetica,sans-Serif" font-size="10.00">main_actions_on_screen</text>
</a>
</g>
<!-- Node28&#45;&gt;Node29 -->
<g id="edge76" class="edge"><title>Node28&#45;&gt;Node29</title>
<path fill="none" stroke="midnightblue" d="M1066.28,-80C1084.68,-80 1108.37,-80 1130.28,-80"/>
<polygon fill="midnightblue" stroke="midnightblue" points="1066.11,-76.5001 1056.11,-80 1066.11,-83.5001 1066.11,-76.5001"/>
</g>
<!-- Node29&#45;&gt;Node8 -->
<g id="edge78" class="edge"><title>Node29&#45;&gt;Node8</title>
<path fill="none" stroke="midnightblue" d="M1265.84,-92.9626C1275.34,-94.6529 1284.33,-96.253 1291.75,-97.5739"/>
<polygon fill="midnightblue" stroke="midnightblue" points="1266.26,-89.4827 1255.8,-91.1763 1265.03,-96.3744 1266.26,-89.4827"/>
</g>
<!-- Node30&#45;&gt;Node24 -->
<g id="edge82" class="edge"><title>Node30&#45;&gt;Node24</title>
<path fill="none" stroke="midnightblue" d="M634.451,-81.5154C643.047,-81.4636 651.679,-81.4116 659.979,-81.3616"/>
<polygon fill="midnightblue" stroke="midnightblue" points="634.378,-78.0156 624.399,-81.5759 634.42,-85.0155 634.378,-78.0156"/>
</g>
</g>
</svg>
        <g id="navigator" transform="translate(0 0)" fill="#404254">
                <rect fill="#f2f5e9" fill-opacity="0.5" stroke="#606060" stroke-width=".5" x="0" y="0" width="60" height="60"/>
                <use id="zoomplus" xlink:href="#zoomPlus" x="17" y="9" onmousedown="handleZoom(evt,'in')"/>
                <use id="zoomminus" xlink:href="#zoomMin" x="42" y="9" onmousedown="handleZoom(evt,'out')"/>
                <use id="reset" xlink:href="#resetDef" x="30" y="36" onmousedown="handleReset()"/>
                <g id="arrowUp" xlink:href="#dirArrow" transform="translate(30 24)" onmousedown="handlePan(0,-1)">
                  <use xlink:href="#rim" fill="#404040">
                        <set attributeName="fill" to="#808080" begin="arrowUp.mouseover" end="arrowUp.mouseout"/>
                  </use>
                  <path fill="none" stroke="white" stroke-width="1.5" d="M0,-3.0v7 M-2.5,-0.5L0,-3.0L2.5,-0.5"/>
                </g>
                <g id="arrowRight" xlink:href="#dirArrow" transform="rotate(90) translate(36 -43)" onmousedown="handlePan(1,0)">
                  <use xlink:href="#rim" fill="#404040">
                        <set attributeName="fill" to="#808080" begin="arrowRight.mouseover" end="arrowRight.mouseout"/>
                  </use>
                  <path fill="none" stroke="white" stroke-width="1.5" d="M0,-3.0v7 M-2.5,-0.5L0,-3.0L2.5,-0.5"/>
                </g>
                <g id="arrowDown" xlink:href="#dirArrow" transform="rotate(180) translate(-30 -48)" onmousedown="handlePan(0,1)">
                  <use xlink:href="#rim" fill="#404040">
                        <set attributeName="fill" to="#808080" begin="arrowDown.mouseover" end="arrowDown.mouseout"/>
                  </use>
                  <path fill="none" stroke="white" stroke-width="1.5" d="M0,-3.0v7 M-2.5,-0.5L0,-3.0L2.5,-0.5"/>
                </g>
                <g id="arrowLeft" xlink:href="#dirArrow" transform="rotate(270) translate(-36 17)" onmousedown="handlePan(-1,0)">
                  <use xlink:href="#rim" fill="#404040">
                        <set attributeName="fill" to="#808080" begin="arrowLeft.mouseover" end="arrowLeft.mouseout"/>
                  </use>
                  <path fill="none" stroke="white" stroke-width="1.5" d="M0,-3.0v7 M-2.5,-0.5L0,-3.0L2.5,-0.5"/>
                </g>
        </g>
        <svg viewBox="0 0 15 15" width="100%" height="30px" preserveAspectRatio="xMaxYMin meet">
         <g id="arrow_out" transform="scale(0.3 0.3)">
          <a xlink:href="plot__core9_8cpp_ab76f6823319f1363767e9b0027c633a9_icgraph_org.svg" target="_base">
           <rect id="button" ry="5" rx="5" y="6" x="6" height="38" width="38"
                fill="#f2f5e9" fill-opacity="0.5" stroke="#606060" stroke-width="1.0"/>
           <path id="arrow"
             d="M 11.500037,31.436501 C 11.940474,20.09759 22.043105,11.32322 32.158766,21.979434 L 37.068811,17.246167 C 37.068811,17.246167 37.088388,32 37.088388,32 L 22.160133,31.978069 C 22.160133,31.978069 26.997745,27.140456 26.997745,27.140456 C 18.528582,18.264221 13.291696,25.230495 11.500037,31.436501 z"
             style="fill:#404040;"/>
          </a>
         </g>
        </svg>
</svg>
