<?xml version="1.0" encoding="UTF-8" standalone="no"?>
<!DOCTYPE svg PUBLIC "-//W3C//DTD SVG 1.1//EN"
 "http://www.w3.org/Graphics/SVG/1.1/DTD/svg11.dtd">
<!-- Generated by graphviz version 2.26.3 (20100126.1600)
 -->
<!-- Title: clear_shape_slot Pages: 1 -->
<!--zoomable 206 -->
<svg id="main" version="1.1" xmlns="http://www.w3.org/2000/svg" xmlns:xlink="http://www.w3.org/1999/xlink" xml:space="preserve" onload="init(evt)">
<style type="text/css"><![CDATA[
.edge:hover path { stroke: red; }
.edge:hover polygon { stroke: red; fill: red; }
]]></style>
<script type="text/javascript"><![CDATA[
var edges = document.getElementsByTagName('g');
if (edges && edges.length) {
  for (var i=0;i<edges.length;i++) {
    if (edges[i].id.substr(0,4)=='edge') {
      edges[i].setAttribute('class','edge');
    }
  }
}
]]></script>
        <defs>
                <circle id="rim" cx="0" cy="0" r="7"/>
                <circle id="rim2" cx="0" cy="0" r="3.5"/>
                <g id="zoomPlus">
                        <use xlink:href="#rim" fill="#404040">
                                <set attributeName="fill" to="#808080" begin="zoomplus.mouseover" end="zoomplus.mouseout"/>
                        </use>
                        <path d="M-4,0h8M0,-4v8" fill="none" stroke="white" stroke-width="1.5" pointer-events="none"/>
                </g>
                <g id="zoomMin">
                        <use xlink:href="#rim" fill="#404040">
                                <set attributeName="fill" to="#808080" begin="zoomminus.mouseover" end="zoomminus.mouseout"/>
                        </use>
                        <path d="M-4,0h8" fill="none" stroke="white" stroke-width="1.5" pointer-events="none"/>
                </g>
                <g id="dirArrow">
                        <path fill="none" stroke="white" stroke-width="1.5" d="M0,-3.0v7 M-2.5,-0.5L0,-3.0L2.5,-0.5"/>
                </g>
               <g id="resetDef">
                       <use xlink:href="#rim2" fill="#404040">
                               <set attributeName="fill" to="#808080" begin="reset.mouseover" end="reset.mouseout"/>
                       </use>
               </g>
        </defs>

<script type="text/javascript">
var viewWidth = 1122;
var viewHeight = 206;
var sectionId = 'dynsection-23';
</script>
<script xlink:href="svgpan.js"/>
<svg id="graph" class="graph">
<g id="viewport">
<title>clear_shape_slot</title>
<polygon fill="white" stroke="white" points="-4,5 -4,-202 1119,-202 1119,5 -4,5"/>
<!-- Node1 -->
<g id="node1" class="node"><title>Node1</title>
<polygon fill="#bfbfbf" stroke="black" points="0,-84 0,-108 90,-108 90,-84 0,-84"/>
<text text-anchor="middle" x="45" y="-95" font-family="Helvetica,sans-Serif" font-size="10.00">clear_shape_slot</text>
</g>
<!-- Node2 -->
<g id="node3" class="node"><title>Node2</title>
<a xlink:href="logicals__intres_8cpp.html#a74cf9c04c734ab342f88799efbfc4210" target="_top" xlink:title="operations_confirmation">
<polygon fill="white" stroke="black" points="284,-132 284,-156 404,-156 404,-132 284,-132"/>
<text text-anchor="middle" x="344" y="-143" font-family="Helvetica,sans-Serif" font-size="10.00">operations_confirmation</text>
</a>
</g>
<!-- Node1&#45;&gt;Node2 -->
<g id="edge2" class="edge"><title>Node1&#45;&gt;Node2</title>
<path fill="none" stroke="midnightblue" d="M97.0366,-110.558C106.619,-112.934 116.574,-115.202 126,-117 179.008,-127.109 240.019,-134.292 283.992,-138.695"/>
<polygon fill="midnightblue" stroke="midnightblue" points="97.7774,-107.135 87.2228,-108.058 96.0493,-113.918 97.7774,-107.135"/>
</g>
<!-- Node10 -->
<g id="node20" class="node"><title>Node10</title>
<a xlink:href="plot__core9_8cpp.html#a0ad3131782822f5d43a18eeb139ad855" target="_top" xlink:title="delete_selected_shapes">
<polygon fill="white" stroke="black" points="126,-42 126,-66 248,-66 248,-42 126,-42"/>
<text text-anchor="middle" x="187" y="-53" font-family="Helvetica,sans-Serif" font-size="10.00">delete_selected_shapes</text>
</a>
</g>
<!-- Node1&#45;&gt;Node10 -->
<g id="edge20" class="edge"><title>Node1&#45;&gt;Node10</title>
<path fill="none" stroke="midnightblue" d="M95.3064,-81.1206C112.019,-76.1775 130.408,-70.7385 146.303,-66.0373"/>
<polygon fill="midnightblue" stroke="midnightblue" points="94.2881,-77.7719 85.6915,-83.9645 96.2736,-84.4844 94.2881,-77.7719"/>
</g>
<!-- Node20 -->
<g id="node43" class="node"><title>Node20</title>
<a xlink:href="plot__core9_8cpp.html#a577251b270b8cebde55a95b2c0677942" target="_top" xlink:title="add_shape_to_plot">
<polygon fill="white" stroke="black" points="138,-84 138,-108 236,-108 236,-84 138,-84"/>
<text text-anchor="middle" x="187" y="-95" font-family="Helvetica,sans-Serif" font-size="10.00">add_shape_to_plot</text>
</a>
</g>
<!-- Node1&#45;&gt;Node20 -->
<g id="edge46" class="edge"><title>Node1&#45;&gt;Node20</title>
<path fill="none" stroke="midnightblue" d="M100.45,-96C112.733,-96 125.67,-96 137.689,-96"/>
<polygon fill="midnightblue" stroke="midnightblue" points="100.32,-92.5001 90.3201,-96 100.32,-99.5001 100.32,-92.5001"/>
</g>
<!-- Node3 -->
<g id="node5" class="node"><title>Node3</title>
<a xlink:href="keyboard__functions2_8cpp.html#a548548066307f816c5021de7d6e4f26a" target="_top" xlink:title="key_affectation">
<polygon fill="white" stroke="black" points="466.5,-132 466.5,-156 549.5,-156 549.5,-132 466.5,-132"/>
<text text-anchor="middle" x="508" y="-143" font-family="Helvetica,sans-Serif" font-size="10.00">key_affectation</text>
</a>
</g>
<!-- Node2&#45;&gt;Node3 -->
<g id="edge4" class="edge"><title>Node2&#45;&gt;Node3</title>
<path fill="none" stroke="midnightblue" d="M414.441,-144C432.129,-144 450.55,-144 466.321,-144"/>
<polygon fill="midnightblue" stroke="midnightblue" points="414.136,-140.5 404.136,-144 414.136,-147.5 414.136,-140.5"/>
</g>
<!-- Node7 -->
<g id="node13" class="node"><title>Node7</title>
<a xlink:href="logicals__intres_8cpp.html#a85967c22135715eca94d08af2ec1a1fb" target="_top" xlink:title="fenetre_confirm">
<polygon fill="white" stroke="black" points="630,-174 630,-198 714,-198 714,-174 630,-174"/>
<text text-anchor="middle" x="672" y="-185" font-family="Helvetica,sans-Serif" font-size="10.00">fenetre_confirm</text>
</a>
</g>
<!-- Node2&#45;&gt;Node7 -->
<g id="edge12" class="edge"><title>Node2&#45;&gt;Node7</title>
<path fill="none" stroke="midnightblue" d="M403.539,-158.236C415.559,-160.767 428.144,-163.174 440,-165 505.952,-175.158 583.266,-180.945 629.897,-183.776"/>
<polygon fill="midnightblue" stroke="midnightblue" points="404.118,-154.78 393.604,-156.09 402.64,-161.622 404.118,-154.78"/>
</g>
<!-- Node4 -->
<g id="node7" class="node"><title>Node4</title>
<a xlink:href="keyboard__routines2_8cpp.html#a8563320b8eab661232619224650de244" target="_top" xlink:title="commandes_clavier">
<polygon fill="white" stroke="black" points="620,-132 620,-156 724,-156 724,-132 620,-132"/>
<text text-anchor="middle" x="672" y="-143" font-family="Helvetica,sans-Serif" font-size="10.00">commandes_clavier</text>
</a>
</g>
<!-- Node3&#45;&gt;Node4 -->
<g id="edge6" class="edge"><title>Node3&#45;&gt;Node4</title>
<path fill="none" stroke="midnightblue" d="M559.874,-144C579.057,-144 600.794,-144 619.989,-144"/>
<polygon fill="midnightblue" stroke="midnightblue" points="559.808,-140.5 549.808,-144 559.808,-147.5 559.808,-140.5"/>
</g>
<!-- Node5 -->
<g id="node9" class="node"><title>Node5</title>
<a xlink:href="_m_a_i_n__avec__objets_8cpp.html#a8e80f54ac804eddce8ed6e45adb1db44" target="_top" xlink:title="ticker_full_loop">
<polygon fill="white" stroke="black" points="782,-132 782,-156 864,-156 864,-132 782,-132"/>
<text text-anchor="middle" x="823" y="-143" font-family="Helvetica,sans-Serif" font-size="10.00">ticker_full_loop</text>
</a>
</g>
<!-- Node4&#45;&gt;Node5 -->
<g id="edge8" class="edge"><title>Node4&#45;&gt;Node5</title>
<path fill="none" stroke="midnightblue" d="M734.664,-144C750.516,-144 767.147,-144 781.648,-144"/>
<polygon fill="midnightblue" stroke="midnightblue" points="734.389,-140.5 724.389,-144 734.389,-147.5 734.389,-140.5"/>
</g>
<!-- Node6 -->
<g id="node11" class="node"><title>Node6</title>
<a xlink:href="_m_a_i_n__avec__objets_8cpp.html#ae66f6b31b5ad750f1fe042a706a4e3d4" target="_top" xlink:title="main">
<polygon fill="white" stroke="black" points="1076,-132 1076,-156 1114,-156 1114,-132 1076,-132"/>
<text text-anchor="middle" x="1095" y="-143" font-family="Helvetica,sans-Serif" font-size="10.00">main</text>
</a>
</g>
<!-- Node5&#45;&gt;Node6 -->
<g id="edge10" class="edge"><title>Node5&#45;&gt;Node6</title>
<path fill="none" stroke="midnightblue" d="M874.222,-144C935.336,-144 1034.44,-144 1075.86,-144"/>
<polygon fill="midnightblue" stroke="midnightblue" points="874.016,-140.5 864.016,-144 874.016,-147.5 874.016,-140.5"/>
</g>
<!-- Node8 -->
<g id="node15" class="node"><title>Node8</title>
<a xlink:href="graphics__rebuild1_8cpp.html#ac2eae1e03fb72cc734ffbcef566483bf" target="_top" xlink:title="Boxes">
<polygon fill="white" stroke="black" points="801,-174 801,-198 845,-198 845,-174 801,-174"/>
<text text-anchor="middle" x="823" y="-185" font-family="Helvetica,sans-Serif" font-size="10.00">Boxes</text>
</a>
</g>
<!-- Node7&#45;&gt;Node8 -->
<g id="edge14" class="edge"><title>Node7&#45;&gt;Node8</title>
<path fill="none" stroke="midnightblue" d="M724.226,-186C750.382,-186 780.668,-186 800.737,-186"/>
<polygon fill="midnightblue" stroke="midnightblue" points="724.062,-182.5 714.062,-186 724.062,-189.5 724.062,-182.5"/>
</g>
<!-- Node9 -->
<g id="node17" class="node"><title>Node9</title>
<a xlink:href="_m_a_i_n__avec__objets_8cpp.html#ade8d4ba65d55c94f8ee277829d722155" target="_top" xlink:title="main_actions_on_screen">
<polygon fill="white" stroke="black" points="914.5,-173 914.5,-197 1039.5,-197 1039.5,-173 914.5,-173"/>
<text text-anchor="middle" x="977" y="-184" font-family="Helvetica,sans-Serif" font-size="10.00">main_actions_on_screen</text>
</a>
</g>
<!-- Node8&#45;&gt;Node9 -->
<g id="edge16" class="edge"><title>Node8&#45;&gt;Node9</title>
<path fill="none" stroke="midnightblue" d="M855.111,-185.791C872.282,-185.68 894.03,-185.539 914.387,-185.407"/>
<polygon fill="midnightblue" stroke="midnightblue" points="855.041,-182.292 845.064,-185.857 855.087,-189.292 855.041,-182.292"/>
</g>
<!-- Node9&#45;&gt;Node6 -->
<g id="edge18" class="edge"><title>Node9&#45;&gt;Node6</title>
<path fill="none" stroke="midnightblue" d="M1021.37,-169.583C1040.19,-163.043 1061.14,-155.766 1075.86,-150.65"/>
<polygon fill="midnightblue" stroke="midnightblue" points="1020.06,-166.332 1011.77,-172.92 1022.36,-172.944 1020.06,-166.332"/>
</g>
<!-- Node11 -->
<g id="node22" class="node"><title>Node11</title>
<a xlink:href="midi__13_8cpp.html#a6dff3d42682b58cc0a9875ee30fb4cd4" target="_top" xlink:title="do_midi_job">
<polygon fill="white" stroke="black" points="310,-42 310,-66 378,-66 378,-42 310,-42"/>
<text text-anchor="middle" x="344" y="-53" font-family="Helvetica,sans-Serif" font-size="10.00">do_midi_job</text>
</a>
</g>
<!-- Node10&#45;&gt;Node11 -->
<g id="edge22" class="edge"><title>Node10&#45;&gt;Node11</title>
<path fill="none" stroke="midnightblue" d="M258.352,-54C276.326,-54 294.805,-54 309.976,-54"/>
<polygon fill="midnightblue" stroke="midnightblue" points="258.15,-50.5001 248.15,-54 258.15,-57.5001 258.15,-50.5001"/>
</g>
<!-- Node17 -->
<g id="node36" class="node"><title>Node17</title>
<a xlink:href="plot__core9_8cpp.html#aea32fc46aaba62f9f5c3dc25abe79fae" target="_top" xlink:title="logical_shape_edition">
<polygon fill="white" stroke="black" points="289,-0 289,-24 399,-24 399,-0 289,-0"/>
<text text-anchor="middle" x="344" y="-11" font-family="Helvetica,sans-Serif" font-size="10.00">logical_shape_edition</text>
</a>
</g>
<!-- Node10&#45;&gt;Node17 -->
<g id="edge38" class="edge"><title>Node10&#45;&gt;Node17</title>
<path fill="none" stroke="midnightblue" d="M241.844,-39.3282C260.528,-34.3301 281.183,-28.8044 299.004,-24.0373"/>
<polygon fill="midnightblue" stroke="midnightblue" points="240.746,-35.999 231.99,-41.9645 242.555,-42.7612 240.746,-35.999"/>
</g>
<!-- Node12 -->
<g id="node24" class="node"><title>Node12</title>
<a xlink:href="midi__13_8cpp.html#a6bedf9750195224914cd87c4e73ab626" target="_top" xlink:title="ventilate_midi_to_midiarray">
<polygon fill="white" stroke="black" points="440.5,-36 440.5,-60 575.5,-60 575.5,-36 440.5,-36"/>
<text text-anchor="middle" x="508" y="-47" font-family="Helvetica,sans-Serif" font-size="10.00">ventilate_midi_to_midiarray</text>
</a>
</g>
<!-- Node11&#45;&gt;Node12 -->
<g id="edge24" class="edge"><title>Node11&#45;&gt;Node12</title>
<path fill="none" stroke="midnightblue" d="M388.467,-52.3732C404.397,-51.7904 422.737,-51.1194 440.192,-50.4808"/>
<polygon fill="midnightblue" stroke="midnightblue" points="388.245,-48.8788 378.38,-52.7422 388.501,-55.8742 388.245,-48.8788"/>
</g>
<!-- Node13 -->
<g id="node26" class="node"><title>Node13</title>
<a xlink:href="midi__13_8cpp.html#afa49dd5668303c2448676c8243737c2d" target="_top" xlink:title="simulate_midi">
<polygon fill="white" stroke="black" points="633.5,-32 633.5,-56 710.5,-56 710.5,-32 633.5,-32"/>
<text text-anchor="middle" x="672" y="-43" font-family="Helvetica,sans-Serif" font-size="10.00">simulate_midi</text>
</a>
</g>
<!-- Node12&#45;&gt;Node13 -->
<g id="edge26" class="edge"><title>Node12&#45;&gt;Node13</title>
<path fill="none" stroke="midnightblue" d="M585.828,-46.1018C602.256,-45.7011 618.908,-45.2949 633.138,-44.9479"/>
<polygon fill="midnightblue" stroke="midnightblue" points="585.564,-42.6071 575.652,-46.35 585.734,-49.605 585.564,-42.6071"/>
</g>
<!-- Node14 -->
<g id="node28" class="node"><title>Node14</title>
<a xlink:href="arduino__core__6___u_n_o_8cpp.html#ae72d1a8d74d9ab5515962e03e7e664d6" target="_top" xlink:title="arduino_do_analog_in\l_whitecat">
<polygon fill="white" stroke="black" points="768,-74 768,-114 878,-114 878,-74 768,-74"/>
<text text-anchor="start" x="776" y="-101" font-family="Helvetica,sans-Serif" font-size="10.00">arduino_do_analog_in</text>
<text text-anchor="middle" x="823" y="-85" font-family="Helvetica,sans-Serif" font-size="10.00">_whitecat</text>
</a>
</g>
<!-- Node13&#45;&gt;Node14 -->
<g id="edge28" class="edge"><title>Node13&#45;&gt;Node14</title>
<path fill="none" stroke="midnightblue" d="M718.056,-59.2504C733.788,-64.4595 751.542,-70.3383 767.911,-75.7587"/>
<polygon fill="midnightblue" stroke="midnightblue" points="719.146,-55.9245 708.553,-56.1036 716.946,-62.5697 719.146,-55.9245"/>
</g>
<!-- Node16 -->
<g id="node33" class="node"><title>Node16</title>
<a xlink:href="arduino__core__6___u_n_o_8cpp.html#a219226c1cd6cc17c78e62fd4445bb445" target="_top" xlink:title="arduino_do_digital\l_in_whitecat">
<polygon fill="white" stroke="black" points="775.5,-16 775.5,-56 870.5,-56 870.5,-16 775.5,-16"/>
<text text-anchor="start" x="783.5" y="-43" font-family="Helvetica,sans-Serif" font-size="10.00">arduino_do_digital</text>
<text text-anchor="middle" x="823" y="-27" font-family="Helvetica,sans-Serif" font-size="10.00">_in_whitecat</text>
</a>
</g>
<!-- Node13&#45;&gt;Node16 -->
<g id="edge34" class="edge"><title>Node13&#45;&gt;Node16</title>
<path fill="none" stroke="midnightblue" d="M720.882,-41.4102C738.345,-40.485 757.986,-39.4444 775.344,-38.5248"/>
<polygon fill="midnightblue" stroke="midnightblue" points="720.687,-37.9155 710.886,-41.9398 721.057,-44.9057 720.687,-37.9155"/>
</g>
<!-- Node15 -->
<g id="node30" class="node"><title>Node15</title>
<a xlink:href="_m_a_i_n__avec__objets_8cpp.html#ace9c8a9b37c6087c3cffef442d71d70e" target="_top" xlink:title="dixiemes_de_secondes">
<polygon fill="white" stroke="black" points="917.5,-82 917.5,-106 1036.5,-106 1036.5,-82 917.5,-82"/>
<text text-anchor="middle" x="977" y="-93" font-family="Helvetica,sans-Serif" font-size="10.00">dixiemes_de_secondes</text>
</a>
</g>
<!-- Node14&#45;&gt;Node15 -->
<g id="edge30" class="edge"><title>Node14&#45;&gt;Node15</title>
<path fill="none" stroke="midnightblue" d="M888.426,-94C898,-94 907.817,-94 917.269,-94"/>
<polygon fill="midnightblue" stroke="midnightblue" points="888.163,-90.5001 878.163,-94 888.163,-97.5001 888.163,-90.5001"/>
</g>
<!-- Node15&#45;&gt;Node6 -->
<g id="edge32" class="edge"><title>Node15&#45;&gt;Node6</title>
<path fill="none" stroke="midnightblue" d="M1014.9,-110.059C1035.26,-118.685 1059.47,-128.946 1075.91,-135.911"/>
<polygon fill="midnightblue" stroke="midnightblue" points="1016.14,-106.783 1005.56,-106.104 1013.41,-113.228 1016.14,-106.783"/>
</g>
<!-- Node16&#45;&gt;Node15 -->
<g id="edge36" class="edge"><title>Node16&#45;&gt;Node15</title>
<path fill="none" stroke="midnightblue" d="M880.366,-57.6055C902.116,-65.7968 926.105,-74.8316 944.74,-81.8501"/>
<polygon fill="midnightblue" stroke="midnightblue" points="881.474,-54.2828 870.882,-54.0336 879.007,-60.8336 881.474,-54.2828"/>
</g>
<!-- Node18 -->
<g id="node38" class="node"><title>Node18</title>
<a xlink:href="plot__core9_8cpp.html#a8959d98409d30cff9689b28771791f70" target="_top" xlink:title="do_logical_Plot_window">
<polygon fill="white" stroke="black" points="447.5,-82 447.5,-106 568.5,-106 568.5,-82 447.5,-82"/>
<text text-anchor="middle" x="508" y="-93" font-family="Helvetica,sans-Serif" font-size="10.00">do_logical_Plot_window</text>
</a>
</g>
<!-- Node17&#45;&gt;Node18 -->
<g id="edge40" class="edge"><title>Node17&#45;&gt;Node18</title>
<path fill="none" stroke="midnightblue" d="M395.32,-28.1596C398.325,-29.6559 401.243,-31.2678 404,-33 423.159,-45.0392 420.936,-56.8114 440,-69 448.054,-74.1493 457.319,-78.4446 466.366,-81.9391"/>
<polygon fill="midnightblue" stroke="midnightblue" points="396.669,-24.9287 386.114,-24.0131 393.794,-31.3112 396.669,-24.9287"/>
</g>
<!-- Node19 -->
<g id="node40" class="node"><title>Node19</title>
<a xlink:href="procs__visuels__rebuild1_8cpp.html#ae710b6e599e321ad5934a90140067054" target="_top" xlink:title="check_graphics_mouse\l_handling">
<polygon fill="white" stroke="black" points="612.5,-74 612.5,-114 731.5,-114 731.5,-74 612.5,-74"/>
<text text-anchor="start" x="620.5" y="-101" font-family="Helvetica,sans-Serif" font-size="10.00">check_graphics_mouse</text>
<text text-anchor="middle" x="672" y="-85" font-family="Helvetica,sans-Serif" font-size="10.00">_handling</text>
</a>
</g>
<!-- Node18&#45;&gt;Node19 -->
<g id="edge42" class="edge"><title>Node18&#45;&gt;Node19</title>
<path fill="none" stroke="midnightblue" d="M578.804,-94C590.027,-94 601.536,-94 612.467,-94"/>
<polygon fill="midnightblue" stroke="midnightblue" points="578.602,-90.5001 568.602,-94 578.602,-97.5001 578.602,-90.5001"/>
</g>
<!-- Node19&#45;&gt;Node5 -->
<g id="edge44" class="edge"><title>Node19&#45;&gt;Node5</title>
<path fill="none" stroke="midnightblue" d="M741.294,-116.945C756.847,-122.095 772.754,-127.362 786.351,-131.864"/>
<polygon fill="midnightblue" stroke="midnightblue" points="742.273,-113.582 731.679,-113.761 740.072,-120.227 742.273,-113.582"/>
</g>
<!-- Node20&#45;&gt;Node11 -->
<g id="edge48" class="edge"><title>Node20&#45;&gt;Node11</title>
<path fill="none" stroke="midnightblue" d="M241.838,-81.33C264.513,-75.264 290.094,-68.4206 309.986,-63.0992"/>
<polygon fill="midnightblue" stroke="midnightblue" points="240.746,-77.999 231.99,-83.9645 242.555,-84.7612 240.746,-77.999"/>
</g>
<!-- Node21 -->
<g id="node46" class="node"><title>Node21</title>
<a xlink:href="plot__core9_8cpp.html#a7f4ac47666998b54954288840134d311" target="_top" xlink:title="logical_plot_shape_list">
<polygon fill="white" stroke="black" points="286.5,-84 286.5,-108 401.5,-108 401.5,-84 286.5,-84"/>
<text text-anchor="middle" x="344" y="-95" font-family="Helvetica,sans-Serif" font-size="10.00">logical_plot_shape_list</text>
</a>
</g>
<!-- Node20&#45;&gt;Node21 -->
<g id="edge50" class="edge"><title>Node20&#45;&gt;Node21</title>
<path fill="none" stroke="midnightblue" d="M246.538,-96C259.608,-96 273.425,-96 286.417,-96"/>
<polygon fill="midnightblue" stroke="midnightblue" points="246.245,-92.5001 236.245,-96 246.245,-99.5001 246.245,-92.5001"/>
</g>
<!-- Node21&#45;&gt;Node18 -->
<g id="edge52" class="edge"><title>Node21&#45;&gt;Node18</title>
<path fill="none" stroke="midnightblue" d="M412.001,-95.1707C423.729,-95.0277 435.852,-94.8799 447.369,-94.7394"/>
<polygon fill="midnightblue" stroke="midnightblue" points="411.777,-91.6731 401.82,-95.2949 411.862,-98.6726 411.777,-91.6731"/>
</g>
</g>
</svg>
        <g id="navigator" transform="translate(0 0)" fill="#404254">
                <rect fill="#f2f5e9" fill-opacity="0.5" stroke="#606060" stroke-width=".5" x="0" y="0" width="60" height="60"/>
                <use id="zoomplus" xlink:href="#zoomPlus" x="17" y="9" onmousedown="handleZoom(evt,'in')"/>
                <use id="zoomminus" xlink:href="#zoomMin" x="42" y="9" onmousedown="handleZoom(evt,'out')"/>
                <use id="reset" xlink:href="#resetDef" x="30" y="36" onmousedown="handleReset()"/>
                <g id="arrowUp" xlink:href="#dirArrow" transform="translate(30 24)" onmousedown="handlePan(0,-1)">
                  <use xlink:href="#rim" fill="#404040">
                        <set attributeName="fill" to="#808080" begin="arrowUp.mouseover" end="arrowUp.mouseout"/>
                  </use>
                  <path fill="none" stroke="white" stroke-width="1.5" d="M0,-3.0v7 M-2.5,-0.5L0,-3.0L2.5,-0.5"/>
                </g>
                <g id="arrowRight" xlink:href="#dirArrow" transform="rotate(90) translate(36 -43)" onmousedown="handlePan(1,0)">
                  <use xlink:href="#rim" fill="#404040">
                        <set attributeName="fill" to="#808080" begin="arrowRight.mouseover" end="arrowRight.mouseout"/>
                  </use>
                  <path fill="none" stroke="white" stroke-width="1.5" d="M0,-3.0v7 M-2.5,-0.5L0,-3.0L2.5,-0.5"/>
                </g>
                <g id="arrowDown" xlink:href="#dirArrow" transform="rotate(180) translate(-30 -48)" onmousedown="handlePan(0,1)">
                  <use xlink:href="#rim" fill="#404040">
                        <set attributeName="fill" to="#808080" begin="arrowDown.mouseover" end="arrowDown.mouseout"/>
                  </use>
                  <path fill="none" stroke="white" stroke-width="1.5" d="M0,-3.0v7 M-2.5,-0.5L0,-3.0L2.5,-0.5"/>
                </g>
                <g id="arrowLeft" xlink:href="#dirArrow" transform="rotate(270) translate(-36 17)" onmousedown="handlePan(-1,0)">
                  <use xlink:href="#rim" fill="#404040">
                        <set attributeName="fill" to="#808080" begin="arrowLeft.mouseover" end="arrowLeft.mouseout"/>
                  </use>
                  <path fill="none" stroke="white" stroke-width="1.5" d="M0,-3.0v7 M-2.5,-0.5L0,-3.0L2.5,-0.5"/>
                </g>
        </g>
        <svg viewBox="0 0 15 15" width="100%" height="30px" preserveAspectRatio="xMaxYMin meet">
         <g id="arrow_out" transform="scale(0.3 0.3)">
          <a xlink:href="plot__core9_8cpp_a52ebd70a395c38d47cf2568e5c682cb2_icgraph_org.svg" target="_base">
           <rect id="button" ry="5" rx="5" y="6" x="6" height="38" width="38"
                fill="#f2f5e9" fill-opacity="0.5" stroke="#606060" stroke-width="1.0"/>
           <path id="arrow"
             d="M 11.500037,31.436501 C 11.940474,20.09759 22.043105,11.32322 32.158766,21.979434 L 37.068811,17.246167 C 37.068811,17.246167 37.088388,32 37.088388,32 L 22.160133,31.978069 C 22.160133,31.978069 26.997745,27.140456 26.997745,27.140456 C 18.528582,18.264221 13.291696,25.230495 11.500037,31.436501 z"
             style="fill:#404040;"/>
          </a>
         </g>
        </svg>
</svg>
