<?xml version="1.0" encoding="UTF-8" standalone="no"?>
<!DOCTYPE svg PUBLIC "-//W3C//DTD SVG 1.1//EN"
 "http://www.w3.org/Graphics/SVG/1.1/DTD/svg11.dtd">
<!-- Generated by graphviz version 2.26.3 (20100126.1600)
 -->
<!-- Title: plot_draw_symbol_Par_1 Pages: 1 -->
<svg width="498pt" height="114pt"
 viewBox="0.00 0.00 498.00 114.00" xmlns="http://www.w3.org/2000/svg" xmlns:xlink="http://www.w3.org/1999/xlink">
<g id="graph1" class="graph" transform="scale(1 1) rotate(0) translate(4 110)">
<title>plot_draw_symbol_Par_1</title>
<polygon fill="white" stroke="white" points="-4,5 -4,-110 495,-110 495,5 -4,5"/>
<!-- Node1 -->
<g id="node1" class="node"><title>Node1</title>
<polygon fill="#bfbfbf" stroke="black" points="0,-25 0,-49 126,-49 126,-25 0,-25"/>
<text text-anchor="middle" x="63" y="-36" font-family="Helvetica,sans-Serif" font-size="10.00">plot_draw_symbol_Par_1</text>
</g>
<!-- Node2 -->
<g id="node3" class="node"><title>Node2</title>
<a xlink:href="plot9_8cpp.html#a3951a5b6b3fa49a2c1faf24e2fe0cfb4" target="_top" xlink:title="plot_print_neutral\l_symbol">
<polygon fill="white" stroke="black" points="162.5,-42 162.5,-82 253.5,-82 253.5,-42 162.5,-42"/>
<text text-anchor="start" x="170.5" y="-69" font-family="Helvetica,sans-Serif" font-size="10.00">plot_print_neutral</text>
<text text-anchor="middle" x="208" y="-53" font-family="Helvetica,sans-Serif" font-size="10.00">_symbol</text>
</a>
</g>
<!-- Node1&#45;&gt;Node2 -->
<g id="edge2" class="edge"><title>Node1&#45;&gt;Node2</title>
<path fill="none" stroke="midnightblue" d="M136.245,-49.6285C145.183,-51.1695 154.105,-52.7078 162.469,-54.1499"/>
<polygon fill="midnightblue" stroke="midnightblue" points="136.627,-46.1427 126.177,-47.8926 135.437,-53.0409 136.627,-46.1427"/>
</g>
<!-- Node6 -->
<g id="node12" class="node"><title>Node6</title>
<a xlink:href="plot9_8cpp.html#ab1ead0218cc4468327a83bc54864cf3e" target="_top" xlink:title="plot_draw_plan">
<polygon fill="white" stroke="black" points="167,-0 167,-24 249,-24 249,-0 167,-0"/>
<text text-anchor="middle" x="208" y="-11" font-family="Helvetica,sans-Serif" font-size="10.00">plot_draw_plan</text>
</a>
</g>
<!-- Node1&#45;&gt;Node6 -->
<g id="edge12" class="edge"><title>Node1&#45;&gt;Node6</title>
<path fill="none" stroke="midnightblue" d="M136.209,-24.3777C146.697,-22.5695 157.164,-20.7648 166.734,-19.1149"/>
<polygon fill="midnightblue" stroke="midnightblue" points="135.437,-20.9591 126.177,-26.1074 136.627,-27.8573 135.437,-20.9591"/>
</g>
<!-- Node3 -->
<g id="node5" class="node"><title>Node3</title>
<a xlink:href="plot9_8cpp.html#a08296cc3ee305018568ea075f64d5640" target="_top" xlink:title="plot_symbol_list">
<polygon fill="white" stroke="black" points="292.5,-82 292.5,-106 379.5,-106 379.5,-82 292.5,-82"/>
<text text-anchor="middle" x="336" y="-93" font-family="Helvetica,sans-Serif" font-size="10.00">plot_symbol_list</text>
</a>
</g>
<!-- Node2&#45;&gt;Node3 -->
<g id="edge4" class="edge"><title>Node2&#45;&gt;Node3</title>
<path fill="none" stroke="midnightblue" d="M263.667,-75.9168C273.211,-78.3026 283.005,-80.7513 292.183,-83.0458"/>
<polygon fill="midnightblue" stroke="midnightblue" points="264.4,-72.4923 253.849,-73.4623 262.702,-79.2833 264.4,-72.4923"/>
</g>
<!-- Node5 -->
<g id="node9" class="node"><title>Node5</title>
<a xlink:href="plot9_8cpp.html#a49a123345f2c48b1f87d85599a2ae25d" target="_top" xlink:title="plot_draw_legend">
<polygon fill="white" stroke="black" points="290,-40 290,-64 382,-64 382,-40 290,-40"/>
<text text-anchor="middle" x="336" y="-51" font-family="Helvetica,sans-Serif" font-size="10.00">plot_draw_legend</text>
</a>
</g>
<!-- Node2&#45;&gt;Node5 -->
<g id="edge8" class="edge"><title>Node2&#45;&gt;Node5</title>
<path fill="none" stroke="midnightblue" d="M263.823,-57.6388C272.43,-56.9664 281.238,-56.2783 289.61,-55.6243"/>
<polygon fill="midnightblue" stroke="midnightblue" points="263.546,-54.1497 253.849,-58.418 264.092,-61.1284 263.546,-54.1497"/>
</g>
<!-- Node4 -->
<g id="node7" class="node"><title>Node4</title>
<a xlink:href="plot9_8cpp.html#a3d45bfc1bc76a3d67ad1a8bb3d63163d" target="_top" xlink:title="Plot_window">
<polygon fill="white" stroke="black" points="418,-40 418,-64 490,-64 490,-40 418,-40"/>
<text text-anchor="middle" x="454" y="-51" font-family="Helvetica,sans-Serif" font-size="10.00">Plot_window</text>
</a>
</g>
<!-- Node3&#45;&gt;Node4 -->
<g id="edge6" class="edge"><title>Node3&#45;&gt;Node4</title>
<path fill="none" stroke="midnightblue" d="M379.367,-78.5642C392.831,-73.7718 407.467,-68.5628 420.181,-64.0373"/>
<polygon fill="midnightblue" stroke="midnightblue" points="378.061,-75.3138 369.814,-81.9645 380.409,-81.9085 378.061,-75.3138"/>
</g>
<!-- Node5&#45;&gt;Node4 -->
<g id="edge10" class="edge"><title>Node5&#45;&gt;Node4</title>
<path fill="none" stroke="midnightblue" d="M392.336,-52C400.955,-52 409.649,-52 417.682,-52"/>
<polygon fill="midnightblue" stroke="midnightblue" points="392.298,-48.5001 382.298,-52 392.298,-55.5001 392.298,-48.5001"/>
</g>
<!-- Node6&#45;&gt;Node4 -->
<g id="edge14" class="edge"><title>Node6&#45;&gt;Node4</title>
<path fill="none" stroke="midnightblue" d="M259.49,-15.2461C294.314,-18.0215 341.215,-22.8902 382,-31 393.749,-33.3362 406.352,-36.7054 417.679,-40.0634"/>
<polygon fill="midnightblue" stroke="midnightblue" points="259.328,-11.7236 249.09,-14.4507 258.794,-18.7032 259.328,-11.7236"/>
</g>
</g>
</svg>
