<?xml version="1.0" encoding="UTF-8" standalone="no"?>
<!DOCTYPE svg PUBLIC "-//W3C//DTD SVG 1.1//EN"
 "http://www.w3.org/Graphics/SVG/1.1/DTD/svg11.dtd">
<!-- Generated by graphviz version 2.26.3 (20100126.1600)
 -->
<!-- Title: plot_draw_symbol_platine_de_sol Pages: 1 -->
<svg width="260pt" height="74pt"
 viewBox="0.00 0.00 260.00 74.00" xmlns="http://www.w3.org/2000/svg" xmlns:xlink="http://www.w3.org/1999/xlink">
<g id="graph1" class="graph" transform="scale(1 1) rotate(0) translate(4 70)">
<title>plot_draw_symbol_platine_de_sol</title>
<polygon fill="white" stroke="white" points="-4,5 -4,-70 257,-70 257,5 -4,5"/>
<!-- Node1 -->
<g id="node1" class="node"><title>Node1</title>
<polygon fill="#bfbfbf" stroke="black" points="0.5,-13 0.5,-53 129.5,-53 129.5,-13 0.5,-13"/>
<text text-anchor="start" x="8.5" y="-40" font-family="Helvetica,sans-Serif" font-size="10.00">plot_draw_symbol_platine</text>
<text text-anchor="middle" x="65" y="-24" font-family="Helvetica,sans-Serif" font-size="10.00">_de_sol</text>
</g>
<!-- Node2 -->
<g id="node3" class="node"><title>Node2</title>
<a xlink:href="whitecat_8h.html#a53146b0df4992543bd09594d4ce44f7d" target="_top" xlink:title="CouleurPlotFill">
<polygon fill="white" stroke="black" points="169,-42 169,-66 249,-66 249,-42 169,-42"/>
<text text-anchor="middle" x="209" y="-53" font-family="Helvetica,sans-Serif" font-size="10.00">CouleurPlotFill</text>
</a>
</g>
<!-- Node1&#45;&gt;Node2 -->
<g id="edge2" class="edge"><title>Node1&#45;&gt;Node2</title>
<path fill="none" stroke="midnightblue" d="M129.839,-42.4556C139.597,-43.8787 149.532,-45.3277 158.919,-46.6965"/>
<polygon fill="midnightblue" stroke="midnightblue" points="158.453,-50.1655 168.854,-48.1453 159.463,-43.2388 158.453,-50.1655"/>
</g>
<!-- Node3 -->
<g id="node5" class="node"><title>Node3</title>
<a xlink:href="whitecat_8h.html#a5e88fb41a8a9fa61f87aae4fedd74510" target="_top" xlink:title="CouleurPlotLine">
<polygon fill="white" stroke="black" points="166,-0 166,-24 252,-24 252,-0 166,-0"/>
<text text-anchor="middle" x="209" y="-11" font-family="Helvetica,sans-Serif" font-size="10.00">CouleurPlotLine</text>
</a>
</g>
<!-- Node1&#45;&gt;Node3 -->
<g id="edge4" class="edge"><title>Node1&#45;&gt;Node3</title>
<path fill="none" stroke="midnightblue" d="M129.839,-23.5444C138.543,-22.2751 147.387,-20.9852 155.858,-19.7499"/>
<polygon fill="midnightblue" stroke="midnightblue" points="156.579,-23.1819 165.969,-18.2754 155.569,-16.2551 156.579,-23.1819"/>
</g>
</g>
</svg>
