<?xml version="1.0" encoding="UTF-8" standalone="no"?>
<!DOCTYPE svg PUBLIC "-//W3C//DTD SVG 1.1//EN"
 "http://www.w3.org/Graphics/SVG/1.1/DTD/svg11.dtd">
<!-- Generated by graphviz version 2.26.3 (20100126.1600)
 -->
<!-- Title: plot_legend_menu Pages: 1 -->
<svg width="246pt" height="116pt"
 viewBox="0.00 0.00 246.00 116.00" xmlns="http://www.w3.org/2000/svg" xmlns:xlink="http://www.w3.org/1999/xlink">
<g id="graph1" class="graph" transform="scale(1 1) rotate(0) translate(4 112)">
<title>plot_legend_menu</title>
<polygon fill="white" stroke="white" points="-4,5 -4,-112 243,-112 243,5 -4,5"/>
<!-- Node1 -->
<g id="node1" class="node"><title>Node1</title>
<polygon fill="#bfbfbf" stroke="black" points="0.5,-42 0.5,-66 95.5,-66 95.5,-42 0.5,-42"/>
<text text-anchor="middle" x="48" y="-53" font-family="Helvetica,sans-Serif" font-size="10.00">plot_legend_menu</text>
</g>
<!-- Node2 -->
<g id="node3" class="node"><title>Node2</title>
<a xlink:href="whitecat_8h.html#a5e88fb41a8a9fa61f87aae4fedd74510" target="_top" xlink:title="CouleurPlotLine">
<polygon fill="white" stroke="black" points="142,-84 142,-108 228,-108 228,-84 142,-84"/>
<text text-anchor="middle" x="185" y="-95" font-family="Helvetica,sans-Serif" font-size="10.00">CouleurPlotLine</text>
</a>
</g>
<!-- Node1&#45;&gt;Node2 -->
<g id="edge2" class="edge"><title>Node1&#45;&gt;Node2</title>
<path fill="none" stroke="midnightblue" d="M87.2587,-66.0355C102.45,-70.6926 120.003,-76.0739 136.006,-80.9801"/>
<polygon fill="midnightblue" stroke="midnightblue" points="135.149,-84.3779 145.736,-83.9627 137.201,-77.6853 135.149,-84.3779"/>
</g>
<!-- Node3 -->
<g id="node5" class="node"><title>Node3</title>
<a xlink:href="_c_o_r_e__6_8cpp.html#a852678868d2a66db68f4a2c9eacfcc78" target="_top" xlink:title="reset_numeric_entry">
<polygon fill="white" stroke="black" points="132.5,-42 132.5,-66 237.5,-66 237.5,-42 132.5,-42"/>
<text text-anchor="middle" x="185" y="-53" font-family="Helvetica,sans-Serif" font-size="10.00">reset_numeric_entry</text>
</a>
</g>
<!-- Node1&#45;&gt;Node3 -->
<g id="edge4" class="edge"><title>Node1&#45;&gt;Node3</title>
<path fill="none" stroke="midnightblue" d="M95.5315,-54C104.179,-54 113.319,-54 122.325,-54"/>
<polygon fill="midnightblue" stroke="midnightblue" points="122.401,-57.5001 132.401,-54 122.401,-50.5001 122.401,-57.5001"/>
</g>
<!-- Node4 -->
<g id="node7" class="node"><title>Node4</title>
<a xlink:href="_c_o_r_e__6_8cpp.html#a9574e0b790211959c7398e42468410d8" target="_top" xlink:title="toggle">
<polygon fill="white" stroke="black" points="163.5,-0 163.5,-24 206.5,-24 206.5,-0 163.5,-0"/>
<text text-anchor="middle" x="185" y="-11" font-family="Helvetica,sans-Serif" font-size="10.00">toggle</text>
</a>
</g>
<!-- Node1&#45;&gt;Node4 -->
<g id="edge6" class="edge"><title>Node1&#45;&gt;Node4</title>
<path fill="none" stroke="midnightblue" d="M87.2587,-41.9645C108.266,-35.5242 133.791,-27.6991 153.488,-21.6607"/>
<polygon fill="midnightblue" stroke="midnightblue" points="154.667,-24.96 163.202,-18.6826 152.615,-18.2674 154.667,-24.96"/>
</g>
</g>
</svg>
