<?xml version="1.0" encoding="UTF-8" standalone="no"?>
<!DOCTYPE svg PUBLIC "-//W3C//DTD SVG 1.1//EN"
 "http://www.w3.org/Graphics/SVG/1.1/DTD/svg11.dtd">
<!-- Generated by graphviz version 2.26.3 (20100126.1600)
 -->
<!-- Title: plot_draw_slice Pages: 1 -->
<svg width="214pt" height="74pt"
 viewBox="0.00 0.00 214.00 74.00" xmlns="http://www.w3.org/2000/svg" xmlns:xlink="http://www.w3.org/1999/xlink">
<g id="graph1" class="graph" transform="scale(1 1) rotate(0) translate(4 70)">
<title>plot_draw_slice</title>
<polygon fill="white" stroke="white" points="-4,5 -4,-70 211,-70 211,5 -4,5"/>
<!-- Node1 -->
<g id="node1" class="node"><title>Node1</title>
<polygon fill="#bfbfbf" stroke="black" points="0,-21 0,-45 84,-45 84,-21 0,-21"/>
<text text-anchor="middle" x="42" y="-32" font-family="Helvetica,sans-Serif" font-size="10.00">plot_draw_slice</text>
</g>
<!-- Node2 -->
<g id="node3" class="node"><title>Node2</title>
<a xlink:href="whitecat_8h.html#a53146b0df4992543bd09594d4ce44f7d" target="_top" xlink:title="CouleurPlotFill">
<polygon fill="white" stroke="black" points="123,-42 123,-66 203,-66 203,-42 123,-42"/>
<text text-anchor="middle" x="163" y="-53" font-family="Helvetica,sans-Serif" font-size="10.00">CouleurPlotFill</text>
</a>
</g>
<!-- Node1&#45;&gt;Node2 -->
<g id="edge2" class="edge"><title>Node1&#45;&gt;Node2</title>
<path fill="none" stroke="midnightblue" d="M84.3199,-40.3448C93.5287,-41.943 103.357,-43.6487 112.836,-45.2939"/>
<polygon fill="midnightblue" stroke="midnightblue" points="112.489,-48.7858 122.94,-47.0474 113.686,-41.8889 112.489,-48.7858"/>
</g>
<!-- Node3 -->
<g id="node5" class="node"><title>Node3</title>
<a xlink:href="whitecat_8h.html#a5e88fb41a8a9fa61f87aae4fedd74510" target="_top" xlink:title="CouleurPlotLine">
<polygon fill="white" stroke="black" points="120,-0 120,-24 206,-24 206,-0 120,-0"/>
<text text-anchor="middle" x="163" y="-11" font-family="Helvetica,sans-Serif" font-size="10.00">CouleurPlotLine</text>
</a>
</g>
<!-- Node1&#45;&gt;Node3 -->
<g id="edge4" class="edge"><title>Node1&#45;&gt;Node3</title>
<path fill="none" stroke="midnightblue" d="M84.3199,-25.6552C92.5491,-24.227 101.273,-22.713 109.8,-21.233"/>
<polygon fill="midnightblue" stroke="midnightblue" points="110.425,-24.677 119.679,-19.5185 109.228,-17.7801 110.425,-24.677"/>
</g>
</g>
</svg>
