<?xml version="1.0" encoding="UTF-8" standalone="no"?>
<!DOCTYPE svg PUBLIC "-//W3C//DTD SVG 1.1//EN"
 "http://www.w3.org/Graphics/SVG/1.1/DTD/svg11.dtd">
<!-- Generated by graphviz version 2.26.3 (20100126.1600)
 -->
<!-- Title: plot_reset_list_gelat Pages: 1 -->
<!--zoomable 533 -->
<svg id="main" version="1.1" xmlns="http://www.w3.org/2000/svg" xmlns:xlink="http://www.w3.org/1999/xlink" xml:space="preserve" onload="init(evt)">
<style type="text/css"><![CDATA[
.edge:hover path { stroke: red; }
.edge:hover polygon { stroke: red; fill: red; }
]]></style>
<script type="text/javascript"><![CDATA[
var edges = document.getElementsByTagName('g');
if (edges && edges.length) {
  for (var i=0;i<edges.length;i++) {
    if (edges[i].id.substr(0,4)=='edge') {
      edges[i].setAttribute('class','edge');
    }
  }
}
]]></script>
        <defs>
                <circle id="rim" cx="0" cy="0" r="7"/>
                <circle id="rim2" cx="0" cy="0" r="3.5"/>
                <g id="zoomPlus">
                        <use xlink:href="#rim" fill="#404040">
                                <set attributeName="fill" to="#808080" begin="zoomplus.mouseover" end="zoomplus.mouseout"/>
                        </use>
                        <path d="M-4,0h8M0,-4v8" fill="none" stroke="white" stroke-width="1.5" pointer-events="none"/>
                </g>
                <g id="zoomMin">
                        <use xlink:href="#rim" fill="#404040">
                                <set attributeName="fill" to="#808080" begin="zoomminus.mouseover" end="zoomminus.mouseout"/>
                        </use>
                        <path d="M-4,0h8" fill="none" stroke="white" stroke-width="1.5" pointer-events="none"/>
                </g>
                <g id="dirArrow">
                        <path fill="none" stroke="white" stroke-width="1.5" d="M0,-3.0v7 M-2.5,-0.5L0,-3.0L2.5,-0.5"/>
                </g>
               <g id="resetDef">
                       <use xlink:href="#rim2" fill="#404040">
                               <set attributeName="fill" to="#808080" begin="reset.mouseover" end="reset.mouseout"/>
                       </use>
               </g>
        </defs>

<script type="text/javascript">
var viewWidth = 2380;
var viewHeight = 533;
var sectionId = 'dynsection-72';
</script>
<script xlink:href="svgpan.js"/>
<svg id="graph" class="graph">
<g id="viewport">
<title>plot_reset_list_gelat</title>
<polygon fill="white" stroke="white" points="-4,5 -4,-528.517 2377,-528.517 2377,5 -4,5"/>
<!-- Node1 -->
<g id="node1" class="node"><title>Node1</title>
<polygon fill="#bfbfbf" stroke="black" points="0,-212.517 0,-236.517 104,-236.517 104,-212.517 0,-212.517"/>
<text text-anchor="middle" x="52" y="-223.517" font-family="Helvetica,sans-Serif" font-size="10.00">plot_reset_list_gelat</text>
</g>
<!-- Node2 -->
<g id="node3" class="node"><title>Node2</title>
<a xlink:href="plot__core9_8cpp.html#ab76f6823319f1363767e9b0027c633a9" target="_top" xlink:title="plot_reset_list_appareils">
<polygon fill="white" stroke="black" points="140,-233.517 140,-257.517 262,-257.517 262,-233.517 140,-233.517"/>
<text text-anchor="middle" x="201" y="-244.517" font-family="Helvetica,sans-Serif" font-size="10.00">plot_reset_list_appareils</text>
</a>
</g>
<!-- Node1&#45;&gt;Node2 -->
<g id="edge2" class="edge"><title>Node1&#45;&gt;Node2</title>
<path fill="none" stroke="midnightblue" d="M114.045,-233.262C122.618,-234.47 131.418,-235.71 139.973,-236.916"/>
<polygon fill="midnightblue" stroke="midnightblue" points="114.504,-229.792 104.113,-231.862 113.527,-236.723 114.504,-229.792"/>
</g>
<!-- Node42 -->
<g id="node99" class="node"><title>Node42</title>
<a xlink:href="plot__core9_8cpp.html#aee1db260c83091fb31c75951b8c9b091" target="_top" xlink:title="plot_generate_gels_list">
<polygon fill="white" stroke="black" points="143,-191.517 143,-215.517 259,-215.517 259,-191.517 143,-191.517"/>
<text text-anchor="middle" x="201" y="-202.517" font-family="Helvetica,sans-Serif" font-size="10.00">plot_generate_gels_list</text>
</a>
</g>
<!-- Node1&#45;&gt;Node42 -->
<g id="edge114" class="edge"><title>Node1&#45;&gt;Node42</title>
<path fill="none" stroke="midnightblue" d="M114.244,-215.744C123.705,-214.411 133.438,-213.039 142.809,-211.718"/>
<polygon fill="midnightblue" stroke="midnightblue" points="113.527,-212.311 104.113,-217.172 114.504,-219.242 113.527,-212.311"/>
</g>
<!-- Node3 -->
<g id="node5" class="node"><title>Node3</title>
<a xlink:href="plot__core9_8cpp.html#a30a3e9357adedd3ded2f2ded796e81e2" target="_top" xlink:title="plot_generate_appareils_list">
<polygon fill="white" stroke="black" points="298.5,-212.517 298.5,-236.517 435.5,-236.517 435.5,-212.517 298.5,-212.517"/>
<text text-anchor="middle" x="367" y="-223.517" font-family="Helvetica,sans-Serif" font-size="10.00">plot_generate_appareils_list</text>
</a>
</g>
<!-- Node2&#45;&gt;Node3 -->
<g id="edge4" class="edge"><title>Node2&#45;&gt;Node3</title>
<path fill="none" stroke="midnightblue" d="M272.362,-236.489C280.985,-235.398 289.778,-234.286 298.361,-233.2"/>
<polygon fill="midnightblue" stroke="midnightblue" points="271.822,-233.03 262.341,-237.757 272.701,-239.974 271.822,-233.03"/>
</g>
<!-- Node4 -->
<g id="node7" class="node"><title>Node4</title>
<a xlink:href="midi__13_8cpp.html#a6dff3d42682b58cc0a9875ee30fb4cd4" target="_top" xlink:title="do_midi_job">
<polygon fill="white" stroke="black" points="496,-398.517 496,-422.517 564,-422.517 564,-398.517 496,-398.517"/>
<text text-anchor="middle" x="530" y="-409.517" font-family="Helvetica,sans-Serif" font-size="10.00">do_midi_job</text>
</a>
</g>
<!-- Node3&#45;&gt;Node4 -->
<g id="edge6" class="edge"><title>Node3&#45;&gt;Node4</title>
<path fill="none" stroke="midnightblue" d="M375.282,-246.105C389.74,-281.057 422.81,-350.086 472,-389.517 478.935,-395.076 487.47,-399.238 495.839,-402.325"/>
<polygon fill="midnightblue" stroke="midnightblue" points="378.524,-244.786 371.547,-236.812 372.029,-247.396 378.524,-244.786"/>
</g>
<!-- Node23 -->
<g id="node50" class="node"><title>Node23</title>
<a xlink:href="plot__core9_8cpp.html#a8a3eaffeb57e4bca8f42aa973645f5b9" target="_top" xlink:title="clear_calc">
<polygon fill="white" stroke="black" points="499.5,-356.517 499.5,-380.517 560.5,-380.517 560.5,-356.517 499.5,-356.517"/>
<text text-anchor="middle" x="530" y="-367.517" font-family="Helvetica,sans-Serif" font-size="10.00">clear_calc</text>
</a>
</g>
<!-- Node3&#45;&gt;Node23 -->
<g id="edge54" class="edge"><title>Node3&#45;&gt;Node23</title>
<path fill="none" stroke="midnightblue" d="M381.002,-244.999C399.379,-270.623 433.816,-314.529 472,-342.517 480.277,-348.584 490.195,-353.674 499.469,-357.697"/>
<polygon fill="midnightblue" stroke="midnightblue" points="383.813,-242.912 375.192,-236.754 378.091,-246.944 383.813,-242.912"/>
</g>
<!-- Node24 -->
<g id="node52" class="node"><title>Node24</title>
<a xlink:href="plot__core9_8cpp.html#a6f933b83f292138e49fc9057684a1b4b" target="_top" xlink:title="add_a_symbol_to_plot">
<polygon fill="white" stroke="black" points="473,-276.517 473,-300.517 587,-300.517 587,-276.517 473,-276.517"/>
<text text-anchor="middle" x="530" y="-287.517" font-family="Helvetica,sans-Serif" font-size="10.00">add_a_symbol_to_plot</text>
</a>
</g>
<!-- Node3&#45;&gt;Node24 -->
<g id="edge56" class="edge"><title>Node3&#45;&gt;Node24</title>
<path fill="none" stroke="midnightblue" d="M407.296,-240.339C435.704,-251.493 473.175,-266.205 499.202,-276.424"/>
<polygon fill="midnightblue" stroke="midnightblue" points="408.246,-236.952 397.659,-236.555 405.688,-243.468 408.246,-236.952"/>
</g>
<!-- Node25 -->
<g id="node54" class="node"><title>Node25</title>
<a xlink:href="plot__core9_8cpp.html#a6ff8cd924e588a71a1366288cf8dc41b" target="_top" xlink:title="logical_plot_symbol_list">
<polygon fill="white" stroke="black" points="632,-236.517 632,-260.517 752,-260.517 752,-236.517 632,-236.517"/>
<text text-anchor="middle" x="692" y="-247.517" font-family="Helvetica,sans-Serif" font-size="10.00">logical_plot_symbol_list</text>
</a>
</g>
<!-- Node3&#45;&gt;Node25 -->
<g id="edge82" class="edge"><title>Node3&#45;&gt;Node25</title>
<path fill="none" stroke="midnightblue" d="M445.626,-230.323C502.894,-234.552 579.309,-240.195 631.768,-244.069"/>
<polygon fill="midnightblue" stroke="midnightblue" points="445.758,-226.823 435.527,-229.577 445.242,-233.804 445.758,-226.823"/>
</g>
<!-- Node29 -->
<g id="node63" class="node"><title>Node29</title>
<a xlink:href="plot__core9_8cpp.html#a0e606b8d73e2db784589b32f412e8fe1" target="_top" xlink:title="duplicate_selected\l_symbols">
<polygon fill="white" stroke="black" points="481,-180.517 481,-220.517 579,-220.517 579,-180.517 481,-180.517"/>
<text text-anchor="start" x="489" y="-207.517" font-family="Helvetica,sans-Serif" font-size="10.00">duplicate_selected</text>
<text text-anchor="middle" x="530" y="-191.517" font-family="Helvetica,sans-Serif" font-size="10.00">_symbols</text>
</a>
</g>
<!-- Node3&#45;&gt;Node29 -->
<g id="edge68" class="edge"><title>Node3&#45;&gt;Node29</title>
<path fill="none" stroke="midnightblue" d="M445.654,-212.936C457.607,-211.176 469.643,-209.404 480.73,-207.771"/>
<polygon fill="midnightblue" stroke="midnightblue" points="445.038,-209.489 435.654,-214.408 446.057,-216.414 445.038,-209.489"/>
</g>
<!-- Node30 -->
<g id="node65" class="node"><title>Node30</title>
<a xlink:href="plot__core9_8cpp.html#a74a79a0e49b7f81a7cb8b944c77b3b0d" target="_top" xlink:title="logical_plot_symbol\l_edition">
<polygon fill="white" stroke="black" points="641,-160.517 641,-200.517 743,-200.517 743,-160.517 641,-160.517"/>
<text text-anchor="start" x="649" y="-187.517" font-family="Helvetica,sans-Serif" font-size="10.00">logical_plot_symbol</text>
<text text-anchor="middle" x="692" y="-171.517" font-family="Helvetica,sans-Serif" font-size="10.00">_edition</text>
</a>
</g>
<!-- Node3&#45;&gt;Node30 -->
<g id="edge88" class="edge"><title>Node3&#45;&gt;Node30</title>
<path fill="none" stroke="midnightblue" d="M393.302,-206.858C413.767,-194.235 443.404,-178.325 472,-171.517 528.524,-158.06 595.485,-163.756 640.561,-170.605"/>
<polygon fill="midnightblue" stroke="midnightblue" points="391.156,-204.074 384.581,-212.382 394.902,-209.988 391.156,-204.074"/>
</g>
<!-- Node31 -->
<g id="node68" class="node"><title>Node31</title>
<a xlink:href="plot__core9_8cpp.html#a9c23683c01563bbc9fceacea0cfd1282" target="_top" xlink:title="add_selected_symbols\l_to_calc">
<polygon fill="white" stroke="black" points="472,-46.517 472,-86.517 588,-86.517 588,-46.517 472,-46.517"/>
<text text-anchor="start" x="480" y="-73.517" font-family="Helvetica,sans-Serif" font-size="10.00">add_selected_symbols</text>
<text text-anchor="middle" x="530" y="-57.517" font-family="Helvetica,sans-Serif" font-size="10.00">_to_calc</text>
</a>
</g>
<!-- Node3&#45;&gt;Node31 -->
<g id="edge74" class="edge"><title>Node3&#45;&gt;Node31</title>
<path fill="none" stroke="midnightblue" d="M381.002,-204.015C399.612,-177.796 434.533,-132.024 472,-100.517 477.985,-95.4838 484.81,-90.7563 491.626,-86.5192"/>
<polygon fill="midnightblue" stroke="midnightblue" points="377.988,-202.218 375.123,-212.418 383.724,-206.231 377.988,-202.218"/>
</g>
<!-- Node33 -->
<g id="node72" class="node"><title>Node33</title>
<a xlink:href="plot__core9_8cpp.html#a81228c183a1b219d5f3c5a759800df4b" target="_top" xlink:title="logical_plot_menu_bare">
<polygon fill="white" stroke="black" points="796.5,-102.517 796.5,-126.517 915.5,-126.517 915.5,-102.517 796.5,-102.517"/>
<text text-anchor="middle" x="856" y="-113.517" font-family="Helvetica,sans-Serif" font-size="10.00">logical_plot_menu_bare</text>
</a>
</g>
<!-- Node3&#45;&gt;Node33 -->
<g id="edge90" class="edge"><title>Node3&#45;&gt;Node33</title>
<path fill="none" stroke="midnightblue" d="M389.923,-206.174C410.239,-190.977 441.355,-170.202 472,-159.517 581.966,-121.176 719.257,-114.136 796.325,-113.58"/>
<polygon fill="midnightblue" stroke="midnightblue" points="387.729,-203.446 381.911,-212.3 391.981,-209.007 387.729,-203.446"/>
</g>
<!-- Node34 -->
<g id="node76" class="node"><title>Node34</title>
<a xlink:href="plot__core9_8cpp.html#afacf9fafd495ceac6c305b0cf88312f2" target="_top" xlink:title="logical_symbol_edition\l_options">
<polygon fill="white" stroke="black" points="798.5,-21.517 798.5,-61.517 913.5,-61.517 913.5,-21.517 798.5,-21.517"/>
<text text-anchor="start" x="806.5" y="-48.517" font-family="Helvetica,sans-Serif" font-size="10.00">logical_symbol_edition</text>
<text text-anchor="middle" x="856" y="-32.517" font-family="Helvetica,sans-Serif" font-size="10.00">_options</text>
</a>
</g>
<!-- Node3&#45;&gt;Node34 -->
<g id="edge84" class="edge"><title>Node3&#45;&gt;Node34</title>
<path fill="none" stroke="midnightblue" d="M371.715,-202.566C381.863,-161.464 410.057,-73.7761 472,-37.517 573.985,22.1811 718.832,-2.70624 798.296,-23.6669"/>
<polygon fill="midnightblue" stroke="midnightblue" points="368.285,-201.865 369.416,-212.399 375.101,-203.459 368.285,-201.865"/>
</g>
<!-- Node35 -->
<g id="node81" class="node"><title>Node35</title>
<a xlink:href="save__show__13_8cpp.html#a8330f725aa2c729bdce098aa4b187589" target="_top" xlink:title="Load_Show">
<polygon fill="white" stroke="black" points="1436,-313.517 1436,-337.517 1504,-337.517 1504,-313.517 1436,-313.517"/>
<text text-anchor="middle" x="1470" y="-324.517" font-family="Helvetica,sans-Serif" font-size="10.00">Load_Show</text>
</a>
</g>
<!-- Node3&#45;&gt;Node35 -->
<g id="edge92" class="edge"><title>Node3&#45;&gt;Node35</title>
<path fill="none" stroke="midnightblue" d="M384.353,-244.239C403.543,-264.548 436.476,-295.19 472,-309.517 563.019,-346.224 593.858,-328.517 692,-328.517 692,-328.517 692,-328.517 1170,-328.517 1266.36,-328.517 1380.12,-326.95 1435.81,-326.081"/>
<polygon fill="midnightblue" stroke="midnightblue" points="386.813,-241.744 377.464,-236.76 381.665,-246.486 386.813,-241.744"/>
</g>
<!-- Node5 -->
<g id="node9" class="node"><title>Node5</title>
<a xlink:href="midi__13_8cpp.html#a6bedf9750195224914cd87c4e73ab626" target="_top" xlink:title="ventilate_midi_to_midiarray">
<polygon fill="white" stroke="black" points="624.5,-398.517 624.5,-422.517 759.5,-422.517 759.5,-398.517 624.5,-398.517"/>
<text text-anchor="middle" x="692" y="-409.517" font-family="Helvetica,sans-Serif" font-size="10.00">ventilate_midi_to_midiarray</text>
</a>
</g>
<!-- Node4&#45;&gt;Node5 -->
<g id="edge8" class="edge"><title>Node4&#45;&gt;Node5</title>
<path fill="none" stroke="midnightblue" d="M574.604,-410.517C589.968,-410.517 607.539,-410.517 624.324,-410.517"/>
<polygon fill="midnightblue" stroke="midnightblue" points="574.356,-407.017 564.356,-410.517 574.356,-414.017 574.356,-407.017"/>
</g>
<!-- Node6 -->
<g id="node11" class="node"><title>Node6</title>
<a xlink:href="midi__13_8cpp.html#afa49dd5668303c2448676c8243737c2d" target="_top" xlink:title="simulate_midi">
<polygon fill="white" stroke="black" points="817.5,-434.517 817.5,-458.517 894.5,-458.517 894.5,-434.517 817.5,-434.517"/>
<text text-anchor="middle" x="856" y="-445.517" font-family="Helvetica,sans-Serif" font-size="10.00">simulate_midi</text>
</a>
</g>
<!-- Node5&#45;&gt;Node6 -->
<g id="edge10" class="edge"><title>Node5&#45;&gt;Node6</title>
<path fill="none" stroke="midnightblue" d="M756.968,-424.778C777.429,-429.27 799.371,-434.086 817.387,-438.041"/>
<polygon fill="midnightblue" stroke="midnightblue" points="757.584,-421.33 747.066,-422.605 756.083,-428.167 757.584,-421.33"/>
</g>
<!-- Node11 -->
<g id="node22" class="node"><title>Node11</title>
<a xlink:href="midi__13_8cpp.html#a4104c2ae7e71376ad9dc78929450dc51" target="_top" xlink:title="EvAquire">
<polygon fill="white" stroke="black" points="828,-388.517 828,-412.517 884,-412.517 884,-388.517 828,-388.517"/>
<text text-anchor="middle" x="856" y="-399.517" font-family="Helvetica,sans-Serif" font-size="10.00">EvAquire</text>
</a>
</g>
<!-- Node5&#45;&gt;Node11 -->
<g id="edge22" class="edge"><title>Node5&#45;&gt;Node11</title>
<path fill="none" stroke="midnightblue" d="M769.778,-405.774C790.511,-404.51 811.606,-403.224 827.74,-402.24"/>
<polygon fill="midnightblue" stroke="midnightblue" points="769.42,-402.29 759.652,-406.392 769.846,-409.277 769.42,-402.29"/>
</g>
<!-- Node7 -->
<g id="node13" class="node"><title>Node7</title>
<a xlink:href="arduino__core__6___u_n_o_8cpp.html#ae72d1a8d74d9ab5515962e03e7e664d6" target="_top" xlink:title="arduino_do_analog_in\l_whitecat">
<polygon fill="white" stroke="black" points="958,-484.517 958,-524.517 1068,-524.517 1068,-484.517 958,-484.517"/>
<text text-anchor="start" x="966" y="-511.517" font-family="Helvetica,sans-Serif" font-size="10.00">arduino_do_analog_in</text>
<text text-anchor="middle" x="1013" y="-495.517" font-family="Helvetica,sans-Serif" font-size="10.00">_whitecat</text>
</a>
</g>
<!-- Node6&#45;&gt;Node7 -->
<g id="edge12" class="edge"><title>Node6&#45;&gt;Node7</title>
<path fill="none" stroke="midnightblue" d="M897.914,-462.001C916.533,-468.879 938.689,-477.064 958.566,-484.407"/>
<polygon fill="midnightblue" stroke="midnightblue" points="899.124,-458.717 888.531,-458.535 896.698,-465.283 899.124,-458.717"/>
</g>
<!-- Node10 -->
<g id="node19" class="node"><title>Node10</title>
<a xlink:href="arduino__core__6___u_n_o_8cpp.html#a219226c1cd6cc17c78e62fd4445bb445" target="_top" xlink:title="arduino_do_digital\l_in_whitecat">
<polygon fill="white" stroke="black" points="965.5,-426.517 965.5,-466.517 1060.5,-466.517 1060.5,-426.517 965.5,-426.517"/>
<text text-anchor="start" x="973.5" y="-453.517" font-family="Helvetica,sans-Serif" font-size="10.00">arduino_do_digital</text>
<text text-anchor="middle" x="1013" y="-437.517" font-family="Helvetica,sans-Serif" font-size="10.00">_in_whitecat</text>
</a>
</g>
<!-- Node6&#45;&gt;Node10 -->
<g id="edge18" class="edge"><title>Node6&#45;&gt;Node10</title>
<path fill="none" stroke="midnightblue" d="M904.898,-446.517C924.174,-446.517 946.239,-446.517 965.387,-446.517"/>
<polygon fill="midnightblue" stroke="midnightblue" points="904.809,-443.017 894.809,-446.517 904.809,-450.017 904.809,-443.017"/>
</g>
<!-- Node8 -->
<g id="node15" class="node"><title>Node8</title>
<a xlink:href="_m_a_i_n__avec__objets_8cpp.html#ace9c8a9b37c6087c3cffef442d71d70e" target="_top" xlink:title="dixiemes_de_secondes">
<polygon fill="white" stroke="black" points="1110.5,-469.517 1110.5,-493.517 1229.5,-493.517 1229.5,-469.517 1110.5,-469.517"/>
<text text-anchor="middle" x="1170" y="-480.517" font-family="Helvetica,sans-Serif" font-size="10.00">dixiemes_de_secondes</text>
</a>
</g>
<!-- Node7&#45;&gt;Node8 -->
<g id="edge14" class="edge"><title>Node7&#45;&gt;Node8</title>
<path fill="none" stroke="midnightblue" d="M1078.38,-494.939C1088.98,-493.386 1099.9,-491.786 1110.35,-490.256"/>
<polygon fill="midnightblue" stroke="midnightblue" points="1077.74,-491.495 1068.35,-496.408 1078.75,-498.421 1077.74,-491.495"/>
</g>
<!-- Node9 -->
<g id="node17" class="node"><title>Node9</title>
<a xlink:href="_m_a_i_n__avec__objets_8cpp.html#ae66f6b31b5ad750f1fe042a706a4e3d4" target="_top" xlink:title="main">
<polygon fill="white" stroke="black" points="2334,-351.517 2334,-375.517 2372,-375.517 2372,-351.517 2334,-351.517"/>
<text text-anchor="middle" x="2353" y="-362.517" font-family="Helvetica,sans-Serif" font-size="10.00">main</text>
</a>
</g>
<!-- Node8&#45;&gt;Node9 -->
<g id="edge16" class="edge"><title>Node8&#45;&gt;Node9</title>
<path fill="none" stroke="midnightblue" d="M1240.01,-481.517C1300.81,-481.517 1391.22,-481.517 1470,-481.517 1470,-481.517 1470,-481.517 2084,-481.517 2182.31,-481.517 2214.21,-476.95 2298,-425.517 2318.6,-412.871 2335.85,-390.121 2345.27,-375.976"/>
<polygon fill="midnightblue" stroke="midnightblue" points="1239.77,-478.017 1229.77,-481.517 1239.77,-485.017 1239.77,-478.017"/>
</g>
<!-- Node10&#45;&gt;Node8 -->
<g id="edge20" class="edge"><title>Node10&#45;&gt;Node8</title>
<path fill="none" stroke="midnightblue" d="M1070.61,-459.36C1085.46,-462.67 1101.38,-466.219 1116.03,-469.486"/>
<polygon fill="midnightblue" stroke="midnightblue" points="1071.05,-455.873 1060.53,-457.113 1069.53,-462.705 1071.05,-455.873"/>
</g>
<!-- Node12 -->
<g id="node24" class="node"><title>Node12</title>
<a xlink:href="midi__13_8cpp.html#a831f1dfc7870ae4f6c64a0e65fbaf3ff" target="_top" xlink:title="Display">
<polygon fill="white" stroke="black" points="988,-384.517 988,-408.517 1038,-408.517 1038,-384.517 988,-384.517"/>
<text text-anchor="middle" x="1013" y="-395.517" font-family="Helvetica,sans-Serif" font-size="10.00">Display</text>
</a>
</g>
<!-- Node11&#45;&gt;Node12 -->
<g id="edge24" class="edge"><title>Node11&#45;&gt;Node12</title>
<path fill="none" stroke="midnightblue" d="M894.28,-399.542C923.356,-398.801 962.519,-397.803 987.767,-397.16"/>
<polygon fill="midnightblue" stroke="midnightblue" points="893.976,-396.048 884.068,-399.802 894.154,-403.046 893.976,-396.048"/>
</g>
<!-- Node13 -->
<g id="node26" class="node"><title>Node13</title>
<a xlink:href="midi__13_8cpp.html#aa4aeee5088a4a5462566dfee5c9cc71f" target="_top" xlink:title="DisplayTask">
<polygon fill="white" stroke="black" points="1134.5,-365.517 1134.5,-389.517 1205.5,-389.517 1205.5,-365.517 1134.5,-365.517"/>
<text text-anchor="middle" x="1170" y="-376.517" font-family="Helvetica,sans-Serif" font-size="10.00">DisplayTask</text>
</a>
</g>
<!-- Node12&#45;&gt;Node13 -->
<g id="edge26" class="edge"><title>Node12&#45;&gt;Node13</title>
<path fill="none" stroke="midnightblue" d="M1048.27,-392.248C1073.94,-389.143 1108.55,-384.954 1134.31,-381.837"/>
<polygon fill="midnightblue" stroke="midnightblue" points="1047.73,-388.788 1038.22,-393.464 1048.57,-395.737 1047.73,-388.788"/>
</g>
<!-- Node15 -->
<g id="node31" class="node"><title>Node15</title>
<a xlink:href="midi___c_o_r_e_8cpp.html#a6fcb4c2efe85f50488d7aeeef1fc0a3e" target="_top" xlink:title="ReceiveEvents">
<polygon fill="white" stroke="black" points="1128.5,-407.517 1128.5,-431.517 1211.5,-431.517 1211.5,-407.517 1128.5,-407.517"/>
<text text-anchor="middle" x="1170" y="-418.517" font-family="Helvetica,sans-Serif" font-size="10.00">ReceiveEvents</text>
</a>
</g>
<!-- Node12&#45;&gt;Node15 -->
<g id="edge32" class="edge"><title>Node12&#45;&gt;Node15</title>
<path fill="none" stroke="midnightblue" d="M1048.21,-401.675C1071.93,-405.15 1103.33,-409.749 1128.3,-413.408"/>
<polygon fill="midnightblue" stroke="midnightblue" points="1048.63,-398.199 1038.22,-400.212 1047.61,-405.125 1048.63,-398.199"/>
</g>
<!-- Node14 -->
<g id="node28" class="node"><title>Node14</title>
<a xlink:href="midi___c_o_r_e_8cpp.html#a7d0f82d882071792d6a2df51ef13ec55" target="_top" xlink:title="ReceivePolling">
<polygon fill="white" stroke="black" points="1285,-365.517 1285,-389.517 1367,-389.517 1367,-365.517 1285,-365.517"/>
<text text-anchor="middle" x="1326" y="-376.517" font-family="Helvetica,sans-Serif" font-size="10.00">ReceivePolling</text>
</a>
</g>
<!-- Node13&#45;&gt;Node14 -->
<g id="edge28" class="edge"><title>Node13&#45;&gt;Node14</title>
<path fill="none" stroke="midnightblue" d="M1215.83,-377.517C1237.7,-377.517 1263.64,-377.517 1284.86,-377.517"/>
<polygon fill="midnightblue" stroke="midnightblue" points="1215.79,-374.017 1205.79,-377.517 1215.79,-381.017 1215.79,-374.017"/>
</g>
<!-- Node14&#45;&gt;Node14 -->
<g id="edge30" class="edge"><title>Node14&#45;&gt;Node14</title>
<path fill="none" stroke="midnightblue" d="M1299.89,-399.518C1302.56,-404.164 1311.26,-407.517 1326,-407.517 1350.19,-407.517 1358.12,-398.489 1349.81,-389.531"/>
<polygon fill="midnightblue" stroke="midnightblue" points="1303.35,-400.062 1302.19,-389.531 1296.53,-398.488 1303.35,-400.062"/>
</g>
<!-- Node15&#45;&gt;Node14 -->
<g id="edge34" class="edge"><title>Node15&#45;&gt;Node14</title>
<path fill="none" stroke="midnightblue" d="M1221.64,-405.613C1242.2,-400.08 1265.52,-393.801 1284.89,-388.585"/>
<polygon fill="midnightblue" stroke="midnightblue" points="1220.55,-402.282 1211.81,-408.262 1222.37,-409.042 1220.55,-402.282"/>
</g>
<!-- Node16 -->
<g id="node34" class="node"><title>Node16</title>
<a xlink:href="midi___c_o_r_e_8cpp.html#a0ccf480a33424e626f88d109d53d8366" target="_top" xlink:title="InitMidi">
<polygon fill="white" stroke="black" points="1302,-425.517 1302,-449.517 1350,-449.517 1350,-425.517 1302,-425.517"/>
<text text-anchor="middle" x="1326" y="-436.517" font-family="Helvetica,sans-Serif" font-size="10.00">InitMidi</text>
</a>
</g>
<!-- Node15&#45;&gt;Node16 -->
<g id="edge36" class="edge"><title>Node15&#45;&gt;Node16</title>
<path fill="none" stroke="midnightblue" d="M1221.85,-425.5C1248.74,-428.603 1280.32,-432.247 1301.6,-434.702"/>
<polygon fill="midnightblue" stroke="midnightblue" points="1222.14,-422.01 1211.81,-424.341 1221.34,-428.964 1222.14,-422.01"/>
</g>
<!-- Node16&#45;&gt;Node9 -->
<g id="edge38" class="edge"><title>Node16&#45;&gt;Node9</title>
<path fill="none" stroke="midnightblue" d="M1360.66,-438.668C1416.23,-440.41 1528.67,-443.517 1624,-443.517 1624,-443.517 1624,-443.517 2084,-443.517 2181.2,-443.517 2290.27,-394.933 2333.68,-373.487"/>
<polygon fill="midnightblue" stroke="midnightblue" points="1360.44,-435.159 1350.33,-438.339 1360.22,-442.155 1360.44,-435.159"/>
</g>
<!-- Node17 -->
<g id="node37" class="node"><title>Node17</title>
<a xlink:href="midi__13_8cpp.html#ac7a306aa81e374b447e7341d4d3a3eea" target="_top" xlink:title="midipage_devices">
<polygon fill="white" stroke="black" points="1422.5,-391.517 1422.5,-415.517 1517.5,-415.517 1517.5,-391.517 1422.5,-391.517"/>
<text text-anchor="middle" x="1470" y="-402.517" font-family="Helvetica,sans-Serif" font-size="10.00">midipage_devices</text>
</a>
</g>
<!-- Node16&#45;&gt;Node17 -->
<g id="edge40" class="edge"><title>Node16&#45;&gt;Node17</title>
<path fill="none" stroke="midnightblue" d="M1359.93,-429.507C1378.59,-425.101 1402.03,-419.564 1422.49,-414.735"/>
<polygon fill="midnightblue" stroke="midnightblue" points="1359.03,-426.122 1350.1,-431.826 1360.64,-432.934 1359.03,-426.122"/>
</g>
<!-- Node18 -->
<g id="node39" class="node"><title>Node18</title>
<a xlink:href="midi__13_8cpp.html#a8f70acacad6eaba8867bdd80dda5e277" target="_top" xlink:title="do_midi_config">
<polygon fill="white" stroke="black" points="1583,-391.517 1583,-415.517 1665,-415.517 1665,-391.517 1583,-391.517"/>
<text text-anchor="middle" x="1624" y="-402.517" font-family="Helvetica,sans-Serif" font-size="10.00">do_midi_config</text>
</a>
</g>
<!-- Node17&#45;&gt;Node18 -->
<g id="edge42" class="edge"><title>Node17&#45;&gt;Node18</title>
<path fill="none" stroke="midnightblue" d="M1528.12,-403.517C1546.36,-403.517 1566.1,-403.517 1582.9,-403.517"/>
<polygon fill="midnightblue" stroke="midnightblue" points="1527.88,-400.017 1517.88,-403.517 1527.88,-407.017 1527.88,-400.017"/>
</g>
<!-- Node19 -->
<g id="node41" class="node"><title>Node19</title>
<a xlink:href="_c_f_g__config__panel__8_8cpp.html#ad39c46e2fb3a3ba7ea0460140ead4f96" target="_top" xlink:title="do_panel_config">
<polygon fill="white" stroke="black" points="1746.5,-391.517 1746.5,-415.517 1833.5,-415.517 1833.5,-391.517 1746.5,-391.517"/>
<text text-anchor="middle" x="1790" y="-402.517" font-family="Helvetica,sans-Serif" font-size="10.00">do_panel_config</text>
</a>
</g>
<!-- Node18&#45;&gt;Node19 -->
<g id="edge44" class="edge"><title>Node18&#45;&gt;Node19</title>
<path fill="none" stroke="midnightblue" d="M1675.19,-403.517C1697.94,-403.517 1724.44,-403.517 1746.24,-403.517"/>
<polygon fill="midnightblue" stroke="midnightblue" points="1675.03,-400.017 1665.03,-403.517 1675.03,-407.017 1675.03,-400.017"/>
</g>
<!-- Node20 -->
<g id="node43" class="node"><title>Node20</title>
<a xlink:href="_c_f_g__config__panel__8_8cpp.html#a7968da66bccdba8b864caf6c8435f68e" target="_top" xlink:title="config_general_menu">
<polygon fill="white" stroke="black" points="1886.5,-391.517 1886.5,-415.517 1995.5,-415.517 1995.5,-391.517 1886.5,-391.517"/>
<text text-anchor="middle" x="1941" y="-402.517" font-family="Helvetica,sans-Serif" font-size="10.00">config_general_menu</text>
</a>
</g>
<!-- Node19&#45;&gt;Node20 -->
<g id="edge46" class="edge"><title>Node19&#45;&gt;Node20</title>
<path fill="none" stroke="midnightblue" d="M1843.98,-403.517C1857.76,-403.517 1872.59,-403.517 1886.41,-403.517"/>
<polygon fill="midnightblue" stroke="midnightblue" points="1843.68,-400.017 1833.68,-403.517 1843.68,-407.017 1843.68,-400.017"/>
</g>
<!-- Node21 -->
<g id="node45" class="node"><title>Node21</title>
<a xlink:href="graphics__rebuild1_8cpp.html#ac2eae1e03fb72cc734ffbcef566483bf" target="_top" xlink:title="Boxes">
<polygon fill="white" stroke="black" points="2062,-311.517 2062,-335.517 2106,-335.517 2106,-311.517 2062,-311.517"/>
<text text-anchor="middle" x="2084" y="-322.517" font-family="Helvetica,sans-Serif" font-size="10.00">Boxes</text>
</a>
</g>
<!-- Node20&#45;&gt;Node21 -->
<g id="edge48" class="edge"><title>Node20&#45;&gt;Node21</title>
<path fill="none" stroke="midnightblue" d="M1971.5,-386.455C1998.88,-371.138 2038.37,-349.045 2062.55,-335.519"/>
<polygon fill="midnightblue" stroke="midnightblue" points="1969.74,-383.43 1962.72,-391.367 1973.15,-389.539 1969.74,-383.43"/>
</g>
<!-- Node22 -->
<g id="node47" class="node"><title>Node22</title>
<a xlink:href="_m_a_i_n__avec__objets_8cpp.html#ade8d4ba65d55c94f8ee277829d722155" target="_top" xlink:title="main_actions_on_screen">
<polygon fill="white" stroke="black" points="2172.5,-311.517 2172.5,-335.517 2297.5,-335.517 2297.5,-311.517 2172.5,-311.517"/>
<text text-anchor="middle" x="2235" y="-322.517" font-family="Helvetica,sans-Serif" font-size="10.00">main_actions_on_screen</text>
</a>
</g>
<!-- Node21&#45;&gt;Node22 -->
<g id="edge50" class="edge"><title>Node21&#45;&gt;Node22</title>
<path fill="none" stroke="midnightblue" d="M2116.39,-323.517C2132.76,-323.517 2153.19,-323.517 2172.46,-323.517"/>
<polygon fill="midnightblue" stroke="midnightblue" points="2116.28,-320.017 2106.28,-323.517 2116.28,-327.017 2116.28,-320.017"/>
</g>
<!-- Node22&#45;&gt;Node9 -->
<g id="edge52" class="edge"><title>Node22&#45;&gt;Node9</title>
<path fill="none" stroke="midnightblue" d="M2279.92,-338.744C2298.55,-345.059 2319.16,-352.047 2333.74,-356.987"/>
<polygon fill="midnightblue" stroke="midnightblue" points="2281,-335.414 2270.4,-335.518 2278.75,-342.043 2281,-335.414"/>
</g>
<!-- Node24&#45;&gt;Node25 -->
<g id="edge58" class="edge"><title>Node24&#45;&gt;Node25</title>
<path fill="none" stroke="midnightblue" d="M588.389,-274.1C606.342,-269.667 625.906,-264.837 643.149,-260.579"/>
<polygon fill="midnightblue" stroke="midnightblue" points="587.475,-270.72 578.605,-276.516 589.153,-277.516 587.475,-270.72"/>
</g>
<!-- Node26 -->
<g id="node56" class="node"><title>Node26</title>
<a xlink:href="plot__core9_8cpp.html#a8959d98409d30cff9689b28771791f70" target="_top" xlink:title="do_logical_Plot_window">
<polygon fill="white" stroke="black" points="952.5,-168.517 952.5,-192.517 1073.5,-192.517 1073.5,-168.517 952.5,-168.517"/>
<text text-anchor="middle" x="1013" y="-179.517" font-family="Helvetica,sans-Serif" font-size="10.00">do_logical_Plot_window</text>
</a>
</g>
<!-- Node25&#45;&gt;Node26 -->
<g id="edge60" class="edge"><title>Node25&#45;&gt;Node26</title>
<path fill="none" stroke="midnightblue" d="M758.51,-234.428C816.864,-222.066 900.812,-204.283 956.108,-192.569"/>
<polygon fill="midnightblue" stroke="midnightblue" points="757.707,-231.02 748.649,-236.516 759.158,-237.868 757.707,-231.02"/>
</g>
<!-- Node27 -->
<g id="node58" class="node"><title>Node27</title>
<a xlink:href="procs__visuels__rebuild1_8cpp.html#ae710b6e599e321ad5934a90140067054" target="_top" xlink:title="check_graphics_mouse\l_handling">
<polygon fill="white" stroke="black" points="1266.5,-194.517 1266.5,-234.517 1385.5,-234.517 1385.5,-194.517 1266.5,-194.517"/>
<text text-anchor="start" x="1274.5" y="-221.517" font-family="Helvetica,sans-Serif" font-size="10.00">check_graphics_mouse</text>
<text text-anchor="middle" x="1326" y="-205.517" font-family="Helvetica,sans-Serif" font-size="10.00">_handling</text>
</a>
</g>
<!-- Node26&#45;&gt;Node27 -->
<g id="edge62" class="edge"><title>Node26&#45;&gt;Node27</title>
<path fill="none" stroke="midnightblue" d="M1083.75,-188.202C1138.76,-194.178 1214.23,-202.376 1266.25,-208.026"/>
<polygon fill="midnightblue" stroke="midnightblue" points="1084.04,-184.713 1073.72,-187.113 1083.28,-191.672 1084.04,-184.713"/>
</g>
<!-- Node28 -->
<g id="node60" class="node"><title>Node28</title>
<a xlink:href="_m_a_i_n__avec__objets_8cpp.html#a8e80f54ac804eddce8ed6e45adb1db44" target="_top" xlink:title="ticker_full_loop">
<polygon fill="white" stroke="black" points="2194,-269.517 2194,-293.517 2276,-293.517 2276,-269.517 2194,-269.517"/>
<text text-anchor="middle" x="2235" y="-280.517" font-family="Helvetica,sans-Serif" font-size="10.00">ticker_full_loop</text>
</a>
</g>
<!-- Node27&#45;&gt;Node28 -->
<g id="edge64" class="edge"><title>Node27&#45;&gt;Node28</title>
<path fill="none" stroke="midnightblue" d="M1395.76,-221.116C1456.1,-226.253 1545.73,-232.517 1624,-232.517 1624,-232.517 1624,-232.517 1941,-232.517 2032.33,-232.517 2137.48,-255.809 2193.97,-270.275"/>
<polygon fill="midnightblue" stroke="midnightblue" points="1395.85,-217.611 1385.59,-220.237 1395.25,-224.585 1395.85,-217.611"/>
</g>
<!-- Node28&#45;&gt;Node9 -->
<g id="edge66" class="edge"><title>Node28&#45;&gt;Node9</title>
<path fill="none" stroke="midnightblue" d="M2285.66,-295.763C2289.97,-297.756 2294.15,-299.999 2298,-302.517 2318.05,-315.634 2335.47,-337.805 2345.08,-351.498"/>
<polygon fill="midnightblue" stroke="midnightblue" points="2286.66,-292.388 2276.08,-291.79 2283.98,-298.854 2286.66,-292.388"/>
</g>
<!-- Node29&#45;&gt;Node30 -->
<g id="edge70" class="edge"><title>Node29&#45;&gt;Node30</title>
<path fill="none" stroke="midnightblue" d="M589.362,-193.188C606.26,-191.102 624.514,-188.849 640.876,-186.829"/>
<polygon fill="midnightblue" stroke="midnightblue" points="588.541,-189.763 579.045,-194.462 589.398,-196.71 588.541,-189.763"/>
</g>
<!-- Node30&#45;&gt;Node26 -->
<g id="edge72" class="edge"><title>Node30&#45;&gt;Node26</title>
<path fill="none" stroke="midnightblue" d="M753.568,-180.517C810.777,-180.517 895.481,-180.517 952.383,-180.517"/>
<polygon fill="midnightblue" stroke="midnightblue" points="753.218,-177.017 743.218,-180.517 753.218,-184.017 753.218,-177.017"/>
</g>
<!-- Node32 -->
<g id="node70" class="node"><title>Node32</title>
<a xlink:href="plot__core9_8cpp.html#a3431bbe587897e907b6dee6b35777684" target="_top" xlink:title="send_symbols_from_calc\l_to_calc">
<polygon fill="white" stroke="black" points="628,-46.517 628,-86.517 756,-86.517 756,-46.517 628,-46.517"/>
<text text-anchor="start" x="636" y="-73.517" font-family="Helvetica,sans-Serif" font-size="10.00">send_symbols_from_calc</text>
<text text-anchor="middle" x="692" y="-57.517" font-family="Helvetica,sans-Serif" font-size="10.00">_to_calc</text>
</a>
</g>
<!-- Node31&#45;&gt;Node32 -->
<g id="edge76" class="edge"><title>Node31&#45;&gt;Node32</title>
<path fill="none" stroke="midnightblue" d="M598.143,-66.517C607.963,-66.517 618.042,-66.517 627.782,-66.517"/>
<polygon fill="midnightblue" stroke="midnightblue" points="598.028,-63.0171 588.028,-66.517 598.028,-70.0171 598.028,-63.0171"/>
</g>
<!-- Node32&#45;&gt;Node33 -->
<g id="edge78" class="edge"><title>Node32&#45;&gt;Node33</title>
<path fill="none" stroke="midnightblue" d="M766.158,-88.2216C782.944,-93.1348 800.173,-98.1774 814.996,-102.516"/>
<polygon fill="midnightblue" stroke="midnightblue" points="766.927,-84.8 756.346,-85.3501 764.961,-91.5182 766.927,-84.8"/>
</g>
<!-- Node33&#45;&gt;Node26 -->
<g id="edge80" class="edge"><title>Node33&#45;&gt;Node26</title>
<path fill="none" stroke="midnightblue" d="M894.214,-130.582C922.03,-142.275 959.103,-157.86 984.386,-168.488"/>
<polygon fill="midnightblue" stroke="midnightblue" points="895.371,-127.271 884.796,-126.622 892.658,-133.724 895.371,-127.271"/>
</g>
<!-- Node34&#45;&gt;Node26 -->
<g id="edge86" class="edge"><title>Node34&#45;&gt;Node26</title>
<path fill="none" stroke="midnightblue" d="M887.035,-68.2383C896.375,-76.3267 906.63,-85.2555 916,-93.517 946.034,-119.997 980.907,-151.45 999.57,-168.34"/>
<polygon fill="midnightblue" stroke="midnightblue" points="889.299,-65.5684 879.445,-61.6748 884.72,-70.8632 889.299,-65.5684"/>
</g>
<!-- Node35&#45;&gt;Node9 -->
<g id="edge94" class="edge"><title>Node35&#45;&gt;Node9</title>
<path fill="none" stroke="midnightblue" d="M1514.08,-336.724C1526.88,-339.643 1540.94,-342.524 1554,-344.517 1658.02,-360.387 1684.77,-363.517 1790,-363.517 1790,-363.517 1790,-363.517 2084,-363.517 2177.64,-363.517 2289.61,-363.517 2333.76,-363.517"/>
<polygon fill="midnightblue" stroke="midnightblue" points="1514.65,-333.265 1504.12,-334.392 1513.06,-340.08 1514.65,-333.265"/>
</g>
<!-- Node36 -->
<g id="node84" class="node"><title>Node36</title>
<a xlink:href="save__show__13_8cpp.html#a1eafc1ecb75f36c1fe85c967bdea99b0" target="_top" xlink:title="load_the_show">
<polygon fill="white" stroke="black" points="1583,-311.517 1583,-335.517 1665,-335.517 1665,-311.517 1583,-311.517"/>
<text text-anchor="middle" x="1624" y="-322.517" font-family="Helvetica,sans-Serif" font-size="10.00">load_the_show</text>
</a>
</g>
<!-- Node35&#45;&gt;Node36 -->
<g id="edge96" class="edge"><title>Node35&#45;&gt;Node36</title>
<path fill="none" stroke="midnightblue" d="M1514.39,-324.941C1535.94,-324.661 1561.68,-324.326 1582.8,-324.052"/>
<polygon fill="midnightblue" stroke="midnightblue" points="1514.13,-321.443 1504.18,-325.073 1514.22,-328.443 1514.13,-321.443"/>
</g>
<!-- Node41 -->
<g id="node96" class="node"><title>Node41</title>
<a xlink:href="save__show__13_8cpp.html#a2c8ff847dfaf2dc6c8765b2bee26edfc" target="_top" xlink:title="do_wizard_reload_from_disk">
<polygon fill="white" stroke="black" points="1554,-269.517 1554,-293.517 1694,-293.517 1694,-269.517 1554,-269.517"/>
<text text-anchor="middle" x="1624" y="-280.517" font-family="Helvetica,sans-Serif" font-size="10.00">do_wizard_reload_from_disk</text>
</a>
</g>
<!-- Node35&#45;&gt;Node41 -->
<g id="edge110" class="edge"><title>Node35&#45;&gt;Node41</title>
<path fill="none" stroke="midnightblue" d="M1513.97,-312.953C1535.33,-306.852 1560.86,-299.557 1581.95,-293.53"/>
<polygon fill="midnightblue" stroke="midnightblue" points="1512.83,-309.639 1504.18,-315.752 1514.75,-316.37 1512.83,-309.639"/>
</g>
<!-- Node37 -->
<g id="node86" class="node"><title>Node37</title>
<a xlink:href="logicals__intres_8cpp.html#a74cf9c04c734ab342f88799efbfc4210" target="_top" xlink:title="operations_confirmation">
<polygon fill="white" stroke="black" points="1730,-290.517 1730,-314.517 1850,-314.517 1850,-290.517 1730,-290.517"/>
<text text-anchor="middle" x="1790" y="-301.517" font-family="Helvetica,sans-Serif" font-size="10.00">operations_confirmation</text>
</a>
</g>
<!-- Node36&#45;&gt;Node37 -->
<g id="edge98" class="edge"><title>Node36&#45;&gt;Node37</title>
<path fill="none" stroke="midnightblue" d="M1675.42,-317.012C1692.6,-314.839 1711.9,-312.398 1729.69,-310.147"/>
<polygon fill="midnightblue" stroke="midnightblue" points="1674.52,-313.598 1665.03,-318.326 1675.39,-320.543 1674.52,-313.598"/>
</g>
<!-- Node38 -->
<g id="node88" class="node"><title>Node38</title>
<a xlink:href="keyboard__functions2_8cpp.html#a548548066307f816c5021de7d6e4f26a" target="_top" xlink:title="key_affectation">
<polygon fill="white" stroke="black" points="1899.5,-269.517 1899.5,-293.517 1982.5,-293.517 1982.5,-269.517 1899.5,-269.517"/>
<text text-anchor="middle" x="1941" y="-280.517" font-family="Helvetica,sans-Serif" font-size="10.00">key_affectation</text>
</a>
</g>
<!-- Node37&#45;&gt;Node38 -->
<g id="edge100" class="edge"><title>Node37&#45;&gt;Node38</title>
<path fill="none" stroke="midnightblue" d="M1860.23,-292.749C1873.56,-290.896 1887.11,-289.011 1899.21,-287.329"/>
<polygon fill="midnightblue" stroke="midnightblue" points="1859.54,-289.313 1850.11,-294.157 1860.5,-296.246 1859.54,-289.313"/>
</g>
<!-- Node40 -->
<g id="node93" class="node"><title>Node40</title>
<a xlink:href="logicals__intres_8cpp.html#a85967c22135715eca94d08af2ec1a1fb" target="_top" xlink:title="fenetre_confirm">
<polygon fill="white" stroke="black" points="1899,-311.517 1899,-335.517 1983,-335.517 1983,-311.517 1899,-311.517"/>
<text text-anchor="middle" x="1941" y="-322.517" font-family="Helvetica,sans-Serif" font-size="10.00">fenetre_confirm</text>
</a>
</g>
<!-- Node37&#45;&gt;Node40 -->
<g id="edge106" class="edge"><title>Node37&#45;&gt;Node40</title>
<path fill="none" stroke="midnightblue" d="M1860.13,-312.271C1873.33,-314.105 1886.74,-315.971 1898.75,-317.641"/>
<polygon fill="midnightblue" stroke="midnightblue" points="1860.5,-308.788 1850.11,-310.877 1859.54,-315.721 1860.5,-308.788"/>
</g>
<!-- Node39 -->
<g id="node90" class="node"><title>Node39</title>
<a xlink:href="keyboard__routines2_8cpp.html#a8563320b8eab661232619224650de244" target="_top" xlink:title="commandes_clavier">
<polygon fill="white" stroke="black" points="2032,-269.517 2032,-293.517 2136,-293.517 2136,-269.517 2032,-269.517"/>
<text text-anchor="middle" x="2084" y="-280.517" font-family="Helvetica,sans-Serif" font-size="10.00">commandes_clavier</text>
</a>
</g>
<!-- Node38&#45;&gt;Node39 -->
<g id="edge102" class="edge"><title>Node38&#45;&gt;Node39</title>
<path fill="none" stroke="midnightblue" d="M1993.09,-281.517C2005.69,-281.517 2019.17,-281.517 2031.77,-281.517"/>
<polygon fill="midnightblue" stroke="midnightblue" points="1992.75,-278.017 1982.75,-281.517 1992.75,-285.017 1992.75,-278.017"/>
</g>
<!-- Node39&#45;&gt;Node28 -->
<g id="edge104" class="edge"><title>Node39&#45;&gt;Node28</title>
<path fill="none" stroke="midnightblue" d="M2146.66,-281.517C2162.52,-281.517 2179.15,-281.517 2193.65,-281.517"/>
<polygon fill="midnightblue" stroke="midnightblue" points="2146.39,-278.017 2136.39,-281.517 2146.39,-285.017 2146.39,-278.017"/>
</g>
<!-- Node40&#45;&gt;Node21 -->
<g id="edge108" class="edge"><title>Node40&#45;&gt;Node21</title>
<path fill="none" stroke="midnightblue" d="M1993.34,-323.517C2016.86,-323.517 2043.37,-323.517 2061.62,-323.517"/>
<polygon fill="midnightblue" stroke="midnightblue" points="1993.13,-320.017 1983.13,-323.517 1993.13,-327.017 1993.13,-320.017"/>
</g>
<!-- Node41&#45;&gt;Node37 -->
<g id="edge112" class="edge"><title>Node41&#45;&gt;Node37</title>
<path fill="none" stroke="midnightblue" d="M1704.45,-291.694C1713.05,-292.782 1721.68,-293.874 1729.98,-294.924"/>
<polygon fill="midnightblue" stroke="midnightblue" points="1704.76,-288.206 1694.4,-290.423 1703.88,-295.15 1704.76,-288.206"/>
</g>
<!-- Node42&#45;&gt;Node3 -->
<g id="edge116" class="edge"><title>Node42&#45;&gt;Node3</title>
<path fill="none" stroke="midnightblue" d="M269.042,-212.125C278.742,-213.352 288.723,-214.614 298.433,-215.843"/>
<polygon fill="midnightblue" stroke="midnightblue" points="269.419,-208.645 259.059,-210.862 268.54,-215.589 269.419,-208.645"/>
</g>
</g>
</svg>
        <g id="navigator" transform="translate(0 0)" fill="#404254">
                <rect fill="#f2f5e9" fill-opacity="0.5" stroke="#606060" stroke-width=".5" x="0" y="0" width="60" height="60"/>
                <use id="zoomplus" xlink:href="#zoomPlus" x="17" y="9" onmousedown="handleZoom(evt,'in')"/>
                <use id="zoomminus" xlink:href="#zoomMin" x="42" y="9" onmousedown="handleZoom(evt,'out')"/>
                <use id="reset" xlink:href="#resetDef" x="30" y="36" onmousedown="handleReset()"/>
                <g id="arrowUp" xlink:href="#dirArrow" transform="translate(30 24)" onmousedown="handlePan(0,-1)">
                  <use xlink:href="#rim" fill="#404040">
                        <set attributeName="fill" to="#808080" begin="arrowUp.mouseover" end="arrowUp.mouseout"/>
                  </use>
                  <path fill="none" stroke="white" stroke-width="1.5" d="M0,-3.0v7 M-2.5,-0.5L0,-3.0L2.5,-0.5"/>
                </g>
                <g id="arrowRight" xlink:href="#dirArrow" transform="rotate(90) translate(36 -43)" onmousedown="handlePan(1,0)">
                  <use xlink:href="#rim" fill="#404040">
                        <set attributeName="fill" to="#808080" begin="arrowRight.mouseover" end="arrowRight.mouseout"/>
                  </use>
                  <path fill="none" stroke="white" stroke-width="1.5" d="M0,-3.0v7 M-2.5,-0.5L0,-3.0L2.5,-0.5"/>
                </g>
                <g id="arrowDown" xlink:href="#dirArrow" transform="rotate(180) translate(-30 -48)" onmousedown="handlePan(0,1)">
                  <use xlink:href="#rim" fill="#404040">
                        <set attributeName="fill" to="#808080" begin="arrowDown.mouseover" end="arrowDown.mouseout"/>
                  </use>
                  <path fill="none" stroke="white" stroke-width="1.5" d="M0,-3.0v7 M-2.5,-0.5L0,-3.0L2.5,-0.5"/>
                </g>
                <g id="arrowLeft" xlink:href="#dirArrow" transform="rotate(270) translate(-36 17)" onmousedown="handlePan(-1,0)">
                  <use xlink:href="#rim" fill="#404040">
                        <set attributeName="fill" to="#808080" begin="arrowLeft.mouseover" end="arrowLeft.mouseout"/>
                  </use>
                  <path fill="none" stroke="white" stroke-width="1.5" d="M0,-3.0v7 M-2.5,-0.5L0,-3.0L2.5,-0.5"/>
                </g>
        </g>
        <svg viewBox="0 0 15 15" width="100%" height="30px" preserveAspectRatio="xMaxYMin meet">
         <g id="arrow_out" transform="scale(0.3 0.3)">
          <a xlink:href="plot__core9_8cpp_a34fc01d14d473ebfbc62c6555fd44b76_icgraph_org.svg" target="_base">
           <rect id="button" ry="5" rx="5" y="6" x="6" height="38" width="38"
                fill="#f2f5e9" fill-opacity="0.5" stroke="#606060" stroke-width="1.0"/>
           <path id="arrow"
             d="M 11.500037,31.436501 C 11.940474,20.09759 22.043105,11.32322 32.158766,21.979434 L 37.068811,17.246167 C 37.068811,17.246167 37.088388,32 37.088388,32 L 22.160133,31.978069 C 22.160133,31.978069 26.997745,27.140456 26.997745,27.140456 C 18.528582,18.264221 13.291696,25.230495 11.500037,31.436501 z"
             style="fill:#404040;"/>
          </a>
         </g>
        </svg>
</svg>
