<?xml version="1.0" encoding="UTF-8" standalone="no"?>
<!DOCTYPE svg PUBLIC "-//W3C//DTD SVG 1.1//EN"
 "http://www.w3.org/Graphics/SVG/1.1/DTD/svg11.dtd">
<!-- Generated by graphviz version 2.26.3 (20100126.1600)
 -->
<!-- Title: rearrange_plan Pages: 1 -->
<!--zoomable 185 -->
<svg id="main" version="1.1" xmlns="http://www.w3.org/2000/svg" xmlns:xlink="http://www.w3.org/1999/xlink" xml:space="preserve" onload="init(evt)">
<style type="text/css"><![CDATA[
.edge:hover path { stroke: red; }
.edge:hover polygon { stroke: red; fill: red; }
]]></style>
<script type="text/javascript"><![CDATA[
var edges = document.getElementsByTagName('g');
if (edges && edges.length) {
  for (var i=0;i<edges.length;i++) {
    if (edges[i].id.substr(0,4)=='edge') {
      edges[i].setAttribute('class','edge');
    }
  }
}
]]></script>
        <defs>
                <circle id="rim" cx="0" cy="0" r="7"/>
                <circle id="rim2" cx="0" cy="0" r="3.5"/>
                <g id="zoomPlus">
                        <use xlink:href="#rim" fill="#404040">
                                <set attributeName="fill" to="#808080" begin="zoomplus.mouseover" end="zoomplus.mouseout"/>
                        </use>
                        <path d="M-4,0h8M0,-4v8" fill="none" stroke="white" stroke-width="1.5" pointer-events="none"/>
                </g>
                <g id="zoomMin">
                        <use xlink:href="#rim" fill="#404040">
                                <set attributeName="fill" to="#808080" begin="zoomminus.mouseover" end="zoomminus.mouseout"/>
                        </use>
                        <path d="M-4,0h8" fill="none" stroke="white" stroke-width="1.5" pointer-events="none"/>
                </g>
                <g id="dirArrow">
                        <path fill="none" stroke="white" stroke-width="1.5" d="M0,-3.0v7 M-2.5,-0.5L0,-3.0L2.5,-0.5"/>
                </g>
               <g id="resetDef">
                       <use xlink:href="#rim2" fill="#404040">
                               <set attributeName="fill" to="#808080" begin="reset.mouseover" end="reset.mouseout"/>
                       </use>
               </g>
        </defs>

<script type="text/javascript">
var viewWidth = 1240;
var viewHeight = 185;
var sectionId = 'dynsection-83';
</script>
<script xlink:href="svgpan.js"/>
<svg id="graph" class="graph">
<g id="viewport">
<title>rearrange_plan</title>
<polygon fill="white" stroke="white" points="-4,5 -4,-181.372 1237,-181.372 1237,5 -4,5"/>
<!-- Node1 -->
<g id="node1" class="node"><title>Node1</title>
<polygon fill="#bfbfbf" stroke="black" points="0,-40.3723 0,-64.3723 80,-64.3723 80,-40.3723 0,-40.3723"/>
<text text-anchor="middle" x="40" y="-51.3723" font-family="Helvetica,sans-Serif" font-size="10.00">rearrange_plan</text>
</g>
<!-- Node2 -->
<g id="node3" class="node"><title>Node2</title>
<a xlink:href="plot_8cpp.html#a23e56ec233d9db7dd7dca8c52410b847" target="_top" xlink:title="delete_selected_symbols">
<polygon fill="white" stroke="black" points="116.5,-40.3723 116.5,-64.3723 243.5,-64.3723 243.5,-40.3723 116.5,-40.3723"/>
<text text-anchor="middle" x="180" y="-51.3723" font-family="Helvetica,sans-Serif" font-size="10.00">delete_selected_symbols</text>
</a>
</g>
<!-- Node1&#45;&gt;Node2 -->
<g id="edge2" class="edge"><title>Node1&#45;&gt;Node2</title>
<path fill="none" stroke="midnightblue" d="M90.212,-52.3723C98.689,-52.3723 107.588,-52.3723 116.353,-52.3723"/>
<polygon fill="midnightblue" stroke="midnightblue" points="90.1184,-48.8724 80.1184,-52.3723 90.1183,-55.8724 90.1184,-48.8724"/>
</g>
<!-- Node3 -->
<g id="node5" class="node"><title>Node3</title>
<a xlink:href="midi__13_8cpp.html#a6dff3d42682b58cc0a9875ee30fb4cd4" target="_top" xlink:title="do_midi_job">
<polygon fill="white" stroke="black" points="470,-110.372 470,-134.372 538,-134.372 538,-110.372 470,-110.372"/>
<text text-anchor="middle" x="504" y="-121.372" font-family="Helvetica,sans-Serif" font-size="10.00">do_midi_job</text>
</a>
</g>
<!-- Node2&#45;&gt;Node3 -->
<g id="edge4" class="edge"><title>Node2&#45;&gt;Node3</title>
<path fill="none" stroke="midnightblue" d="M205.645,-70.1862C225.1,-82.6865 253.015,-98.5185 280,-106.372 345.136,-125.33 425.21,-125.909 469.825,-124.334"/>
<polygon fill="midnightblue" stroke="midnightblue" points="207.352,-67.1195 197.075,-64.5427 203.502,-72.9657 207.352,-67.1195"/>
</g>
<!-- Node10 -->
<g id="node20" class="node"><title>Node10</title>
<a xlink:href="plot_8cpp.html#a3431bbe587897e907b6dee6b35777684" target="_top" xlink:title="send_symbols_from_calc\l_to_calc">
<polygon fill="white" stroke="black" points="280,-57.3723 280,-97.3723 408,-97.3723 408,-57.3723 280,-57.3723"/>
<text text-anchor="start" x="288" y="-84.3723" font-family="Helvetica,sans-Serif" font-size="10.00">send_symbols_from_calc</text>
<text text-anchor="middle" x="344" y="-68.3723" font-family="Helvetica,sans-Serif" font-size="10.00">_to_calc</text>
</a>
</g>
<!-- Node2&#45;&gt;Node10 -->
<g id="edge20" class="edge"><title>Node2&#45;&gt;Node10</title>
<path fill="none" stroke="midnightblue" d="M253.919,-63.6404C262.54,-64.9547 271.282,-66.2873 279.758,-67.5794"/>
<polygon fill="midnightblue" stroke="midnightblue" points="254.29,-60.1566 243.876,-62.1096 253.235,-67.0767 254.29,-60.1566"/>
</g>
<!-- Node15 -->
<g id="node32" class="node"><title>Node15</title>
<a xlink:href="plot_8cpp.html#a567a92fb27840f1db037b3ff0c15de28" target="_top" xlink:title="position_on_top">
<polygon fill="white" stroke="black" points="301.5,-15.3723 301.5,-39.3723 386.5,-39.3723 386.5,-15.3723 301.5,-15.3723"/>
<text text-anchor="middle" x="344" y="-26.3723" font-family="Helvetica,sans-Serif" font-size="10.00">position_on_top</text>
</a>
</g>
<!-- Node2&#45;&gt;Node15 -->
<g id="edge34" class="edge"><title>Node2&#45;&gt;Node15</title>
<path fill="none" stroke="midnightblue" d="M253.902,-41.1068C270.129,-38.6332 286.783,-36.0944 301.289,-33.8832"/>
<polygon fill="midnightblue" stroke="midnightblue" points="253.235,-37.668 243.876,-42.6351 254.29,-44.5881 253.235,-37.668"/>
</g>
<!-- Node16 -->
<g id="node34" class="node"><title>Node16</title>
<a xlink:href="plot_8cpp.html#a74a79a0e49b7f81a7cb8b944c77b3b0d" target="_top" xlink:title="logical_plot_symbol\l_edition">
<polygon fill="white" stroke="black" points="453,-7.37232 453,-47.3723 555,-47.3723 555,-7.37232 453,-7.37232"/>
<text text-anchor="start" x="461" y="-34.3723" font-family="Helvetica,sans-Serif" font-size="10.00">logical_plot_symbol</text>
<text text-anchor="middle" x="504" y="-18.3723" font-family="Helvetica,sans-Serif" font-size="10.00">_edition</text>
</a>
</g>
<!-- Node2&#45;&gt;Node16 -->
<g id="edge40" class="edge"><title>Node2&#45;&gt;Node16</title>
<path fill="none" stroke="midnightblue" d="M208.31,-35.3403C227.725,-24.6857 254.493,-11.9577 280,-6.37232 338.378,6.41075 406.987,-3.587 452.746,-13.7014"/>
<polygon fill="midnightblue" stroke="midnightblue" points="206.396,-32.4013 199.407,-40.3638 209.836,-38.4977 206.396,-32.4013"/>
</g>
<!-- Node4 -->
<g id="node7" class="node"><title>Node4</title>
<a xlink:href="midi__13_8cpp.html#a6bedf9750195224914cd87c4e73ab626" target="_top" xlink:title="ventilate_midi_to_midiarray">
<polygon fill="white" stroke="black" points="600.5,-110.372 600.5,-134.372 735.5,-134.372 735.5,-110.372 600.5,-110.372"/>
<text text-anchor="middle" x="668" y="-121.372" font-family="Helvetica,sans-Serif" font-size="10.00">ventilate_midi_to_midiarray</text>
</a>
</g>
<!-- Node3&#45;&gt;Node4 -->
<g id="edge6" class="edge"><title>Node3&#45;&gt;Node4</title>
<path fill="none" stroke="midnightblue" d="M548.467,-122.372C564.397,-122.372 582.737,-122.372 600.192,-122.372"/>
<polygon fill="midnightblue" stroke="midnightblue" points="548.38,-118.872 538.38,-122.372 548.38,-125.872 548.38,-118.872"/>
</g>
<!-- Node5 -->
<g id="node9" class="node"><title>Node5</title>
<a xlink:href="midi__13_8cpp.html#afa49dd5668303c2448676c8243737c2d" target="_top" xlink:title="simulate_midi">
<polygon fill="white" stroke="black" points="772.5,-110.372 772.5,-134.372 849.5,-134.372 849.5,-110.372 772.5,-110.372"/>
<text text-anchor="middle" x="811" y="-121.372" font-family="Helvetica,sans-Serif" font-size="10.00">simulate_midi</text>
</a>
</g>
<!-- Node4&#45;&gt;Node5 -->
<g id="edge8" class="edge"><title>Node4&#45;&gt;Node5</title>
<path fill="none" stroke="midnightblue" d="M745.744,-122.372C754.949,-122.372 764.014,-122.372 772.324,-122.372"/>
<polygon fill="midnightblue" stroke="midnightblue" points="745.731,-118.872 735.731,-122.372 745.731,-125.872 745.731,-118.872"/>
</g>
<!-- Node6 -->
<g id="node11" class="node"><title>Node6</title>
<a xlink:href="arduino__core__6___u_n_o_8cpp.html#ae72d1a8d74d9ab5515962e03e7e664d6" target="_top" xlink:title="arduino_do_analog_in\l_whitecat">
<polygon fill="white" stroke="black" points="886,-137.372 886,-177.372 996,-177.372 996,-137.372 886,-137.372"/>
<text text-anchor="start" x="894" y="-164.372" font-family="Helvetica,sans-Serif" font-size="10.00">arduino_do_analog_in</text>
<text text-anchor="middle" x="941" y="-148.372" font-family="Helvetica,sans-Serif" font-size="10.00">_whitecat</text>
</a>
</g>
<!-- Node5&#45;&gt;Node6 -->
<g id="edge10" class="edge"><title>Node5&#45;&gt;Node6</title>
<path fill="none" stroke="midnightblue" d="M859.519,-135.435C868.119,-137.751 877.132,-140.177 885.898,-142.537"/>
<polygon fill="midnightblue" stroke="midnightblue" points="860.218,-131.999 849.652,-132.779 858.399,-138.758 860.218,-131.999"/>
</g>
<!-- Node9 -->
<g id="node17" class="node"><title>Node9</title>
<a xlink:href="arduino__core__6___u_n_o_8cpp.html#a219226c1cd6cc17c78e62fd4445bb445" target="_top" xlink:title="arduino_do_digital\l_in_whitecat">
<polygon fill="white" stroke="black" points="893.5,-79.3723 893.5,-119.372 988.5,-119.372 988.5,-79.3723 893.5,-79.3723"/>
<text text-anchor="start" x="901.5" y="-106.372" font-family="Helvetica,sans-Serif" font-size="10.00">arduino_do_digital</text>
<text text-anchor="middle" x="941" y="-90.3723" font-family="Helvetica,sans-Serif" font-size="10.00">_in_whitecat</text>
</a>
</g>
<!-- Node5&#45;&gt;Node9 -->
<g id="edge16" class="edge"><title>Node5&#45;&gt;Node9</title>
<path fill="none" stroke="midnightblue" d="M859.833,-113.733C870.703,-111.81 882.216,-109.773 893.05,-107.856"/>
<polygon fill="midnightblue" stroke="midnightblue" points="858.89,-110.345 849.652,-115.534 860.109,-117.238 858.89,-110.345"/>
</g>
<!-- Node7 -->
<g id="node13" class="node"><title>Node7</title>
<a xlink:href="_m_a_i_n__avec__objets_8cpp.html#ace9c8a9b37c6087c3cffef442d71d70e" target="_top" xlink:title="dixiemes_de_secondes">
<polygon fill="white" stroke="black" points="1035.5,-87.3723 1035.5,-111.372 1154.5,-111.372 1154.5,-87.3723 1035.5,-87.3723"/>
<text text-anchor="middle" x="1095" y="-98.3723" font-family="Helvetica,sans-Serif" font-size="10.00">dixiemes_de_secondes</text>
</a>
</g>
<!-- Node6&#45;&gt;Node7 -->
<g id="edge12" class="edge"><title>Node6&#45;&gt;Node7</title>
<path fill="none" stroke="midnightblue" d="M1003.91,-133.678C1024.13,-126.063 1045.69,-117.942 1062.76,-111.514"/>
<polygon fill="midnightblue" stroke="midnightblue" points="1002.55,-130.449 994.43,-137.25 1005.02,-137 1002.55,-130.449"/>
</g>
<!-- Node8 -->
<g id="node15" class="node"><title>Node8</title>
<a xlink:href="_m_a_i_n__avec__objets_8cpp.html#ae66f6b31b5ad750f1fe042a706a4e3d4" target="_top" xlink:title="main">
<polygon fill="white" stroke="black" points="1194,-66.3723 1194,-90.3723 1232,-90.3723 1232,-66.3723 1194,-66.3723"/>
<text text-anchor="middle" x="1213" y="-77.3723" font-family="Helvetica,sans-Serif" font-size="10.00">main</text>
</a>
</g>
<!-- Node7&#45;&gt;Node8 -->
<g id="edge14" class="edge"><title>Node7&#45;&gt;Node8</title>
<path fill="none" stroke="midnightblue" d="M1164.61,-86.9844C1175.31,-85.0807 1185.52,-83.2626 1193.79,-81.7916"/>
<polygon fill="midnightblue" stroke="midnightblue" points="1163.92,-83.5512 1154.69,-88.7493 1165.15,-90.4429 1163.92,-83.5512"/>
</g>
<!-- Node9&#45;&gt;Node7 -->
<g id="edge18" class="edge"><title>Node9&#45;&gt;Node7</title>
<path fill="none" stroke="midnightblue" d="M999.131,-99.3723C1011.02,-99.3723 1023.54,-99.3723 1035.47,-99.3723"/>
<polygon fill="midnightblue" stroke="midnightblue" points="998.882,-95.8724 988.882,-99.3723 998.882,-102.872 998.882,-95.8724"/>
</g>
<!-- Node10&#45;&gt;Node3 -->
<g id="edge22" class="edge"><title>Node10&#45;&gt;Node3</title>
<path fill="none" stroke="midnightblue" d="M417.856,-98.1444C435.963,-103.237 454.492,-108.448 469.704,-112.726"/>
<polygon fill="midnightblue" stroke="midnightblue" points="418.73,-94.7545 408.156,-95.4163 416.835,-101.493 418.73,-94.7545"/>
</g>
<!-- Node11 -->
<g id="node23" class="node"><title>Node11</title>
<a xlink:href="plot_8cpp.html#a81228c183a1b219d5f3c5a759800df4b" target="_top" xlink:title="logical_plot_menu_bare">
<polygon fill="white" stroke="black" points="444.5,-65.3723 444.5,-89.3723 563.5,-89.3723 563.5,-65.3723 444.5,-65.3723"/>
<text text-anchor="middle" x="504" y="-76.3723" font-family="Helvetica,sans-Serif" font-size="10.00">logical_plot_menu_bare</text>
</a>
</g>
<!-- Node10&#45;&gt;Node11 -->
<g id="edge24" class="edge"><title>Node10&#45;&gt;Node11</title>
<path fill="none" stroke="midnightblue" d="M418.371,-77.3723C427.13,-77.3723 435.98,-77.3723 444.497,-77.3723"/>
<polygon fill="midnightblue" stroke="midnightblue" points="418.156,-73.8724 408.156,-77.3723 418.156,-80.8724 418.156,-73.8724"/>
</g>
<!-- Node12 -->
<g id="node25" class="node"><title>Node12</title>
<a xlink:href="plot_8cpp.html#a3d45bfc1bc76a3d67ad1a8bb3d63163d" target="_top" xlink:title="Plot_window">
<polygon fill="white" stroke="black" points="632,-39.3723 632,-63.3723 704,-63.3723 704,-39.3723 632,-39.3723"/>
<text text-anchor="middle" x="668" y="-50.3723" font-family="Helvetica,sans-Serif" font-size="10.00">Plot_window</text>
</a>
</g>
<!-- Node11&#45;&gt;Node12 -->
<g id="edge26" class="edge"><title>Node11&#45;&gt;Node12</title>
<path fill="none" stroke="midnightblue" d="M573.733,-66.3171C593.8,-63.1357 614.871,-59.7953 631.989,-57.0814"/>
<polygon fill="midnightblue" stroke="midnightblue" points="573,-62.8895 563.672,-67.9122 574.096,-69.8031 573,-62.8895"/>
</g>
<!-- Node13 -->
<g id="node27" class="node"><title>Node13</title>
<a xlink:href="graphics__rebuild1_8cpp.html#ac2eae1e03fb72cc734ffbcef566483bf" target="_top" xlink:title="Boxes">
<polygon fill="white" stroke="black" points="789,-39.3723 789,-63.3723 833,-63.3723 833,-39.3723 789,-39.3723"/>
<text text-anchor="middle" x="811" y="-50.3723" font-family="Helvetica,sans-Serif" font-size="10.00">Boxes</text>
</a>
</g>
<!-- Node12&#45;&gt;Node13 -->
<g id="edge28" class="edge"><title>Node12&#45;&gt;Node13</title>
<path fill="none" stroke="midnightblue" d="M714.111,-51.3723C739.117,-51.3723 768.885,-51.3723 788.764,-51.3723"/>
<polygon fill="midnightblue" stroke="midnightblue" points="714.085,-47.8724 704.085,-51.3723 714.085,-54.8724 714.085,-47.8724"/>
</g>
<!-- Node14 -->
<g id="node29" class="node"><title>Node14</title>
<a xlink:href="_m_a_i_n__avec__objets_8cpp.html#ade8d4ba65d55c94f8ee277829d722155" target="_top" xlink:title="main_actions_on_screen">
<polygon fill="white" stroke="black" points="1032.5,-42.3723 1032.5,-66.3723 1157.5,-66.3723 1157.5,-42.3723 1032.5,-42.3723"/>
<text text-anchor="middle" x="1095" y="-53.3723" font-family="Helvetica,sans-Serif" font-size="10.00">main_actions_on_screen</text>
</a>
</g>
<!-- Node13&#45;&gt;Node14 -->
<g id="edge30" class="edge"><title>Node13&#45;&gt;Node14</title>
<path fill="none" stroke="midnightblue" d="M843.548,-51.7161C889.467,-52.2012 974.166,-53.0959 1032.48,-53.7119"/>
<polygon fill="midnightblue" stroke="midnightblue" points="843.321,-48.2136 833.285,-51.6077 843.247,-55.2133 843.321,-48.2136"/>
</g>
<!-- Node14&#45;&gt;Node8 -->
<g id="edge32" class="edge"><title>Node14&#45;&gt;Node8</title>
<path fill="none" stroke="midnightblue" d="M1164.39,-68.4847C1175.22,-70.6879 1185.57,-72.793 1193.91,-74.4903"/>
<polygon fill="midnightblue" stroke="midnightblue" points="1164.84,-65.006 1154.35,-66.4426 1163.45,-71.8656 1164.84,-65.006"/>
</g>
<!-- Node15&#45;&gt;Node16 -->
<g id="edge36" class="edge"><title>Node15&#45;&gt;Node16</title>
<path fill="none" stroke="midnightblue" d="M396.902,-27.3723C414.871,-27.3723 434.909,-27.3723 452.748,-27.3723"/>
<polygon fill="midnightblue" stroke="midnightblue" points="396.877,-23.8724 386.877,-27.3723 396.877,-30.8724 396.877,-23.8724"/>
</g>
<!-- Node16&#45;&gt;Node12 -->
<g id="edge38" class="edge"><title>Node16&#45;&gt;Node12</title>
<path fill="none" stroke="midnightblue" d="M565.526,-36.3761C587.865,-39.6452 612.369,-43.2312 631.813,-46.0766"/>
<polygon fill="midnightblue" stroke="midnightblue" points="565.842,-32.8852 555.441,-34.9002 564.828,-39.8114 565.842,-32.8852"/>
</g>
</g>
</svg>
        <g id="navigator" transform="translate(0 0)" fill="#404254">
                <rect fill="#f2f5e9" fill-opacity="0.5" stroke="#606060" stroke-width=".5" x="0" y="0" width="60" height="60"/>
                <use id="zoomplus" xlink:href="#zoomPlus" x="17" y="9" onmousedown="handleZoom(evt,'in')"/>
                <use id="zoomminus" xlink:href="#zoomMin" x="42" y="9" onmousedown="handleZoom(evt,'out')"/>
                <use id="reset" xlink:href="#resetDef" x="30" y="36" onmousedown="handleReset()"/>
                <g id="arrowUp" xlink:href="#dirArrow" transform="translate(30 24)" onmousedown="handlePan(0,-1)">
                  <use xlink:href="#rim" fill="#404040">
                        <set attributeName="fill" to="#808080" begin="arrowUp.mouseover" end="arrowUp.mouseout"/>
                  </use>
                  <path fill="none" stroke="white" stroke-width="1.5" d="M0,-3.0v7 M-2.5,-0.5L0,-3.0L2.5,-0.5"/>
                </g>
                <g id="arrowRight" xlink:href="#dirArrow" transform="rotate(90) translate(36 -43)" onmousedown="handlePan(1,0)">
                  <use xlink:href="#rim" fill="#404040">
                        <set attributeName="fill" to="#808080" begin="arrowRight.mouseover" end="arrowRight.mouseout"/>
                  </use>
                  <path fill="none" stroke="white" stroke-width="1.5" d="M0,-3.0v7 M-2.5,-0.5L0,-3.0L2.5,-0.5"/>
                </g>
                <g id="arrowDown" xlink:href="#dirArrow" transform="rotate(180) translate(-30 -48)" onmousedown="handlePan(0,1)">
                  <use xlink:href="#rim" fill="#404040">
                        <set attributeName="fill" to="#808080" begin="arrowDown.mouseover" end="arrowDown.mouseout"/>
                  </use>
                  <path fill="none" stroke="white" stroke-width="1.5" d="M0,-3.0v7 M-2.5,-0.5L0,-3.0L2.5,-0.5"/>
                </g>
                <g id="arrowLeft" xlink:href="#dirArrow" transform="rotate(270) translate(-36 17)" onmousedown="handlePan(-1,0)">
                  <use xlink:href="#rim" fill="#404040">
                        <set attributeName="fill" to="#808080" begin="arrowLeft.mouseover" end="arrowLeft.mouseout"/>
                  </use>
                  <path fill="none" stroke="white" stroke-width="1.5" d="M0,-3.0v7 M-2.5,-0.5L0,-3.0L2.5,-0.5"/>
                </g>
        </g>
        <svg viewBox="0 0 15 15" width="100%" height="30px" preserveAspectRatio="xMaxYMin meet">
         <g id="arrow_out" transform="scale(0.3 0.3)">
          <a xlink:href="plot_8cpp_a94516b8805c4d4f6c5850469e7eb5945_icgraph_org.svg" target="_base">
           <rect id="button" ry="5" rx="5" y="6" x="6" height="38" width="38"
                fill="#f2f5e9" fill-opacity="0.5" stroke="#606060" stroke-width="1.0"/>
           <path id="arrow"
             d="M 11.500037,31.436501 C 11.940474,20.09759 22.043105,11.32322 32.158766,21.979434 L 37.068811,17.246167 C 37.068811,17.246167 37.088388,32 37.088388,32 L 22.160133,31.978069 C 22.160133,31.978069 26.997745,27.140456 26.997745,27.140456 C 18.528582,18.264221 13.291696,25.230495 11.500037,31.436501 z"
             style="fill:#404040;"/>
          </a>
         </g>
        </svg>
</svg>
