<?xml version="1.0" encoding="UTF-8" standalone="no"?>
<!DOCTYPE svg PUBLIC "-//W3C//DTD SVG 1.1//EN"
 "http://www.w3.org/Graphics/SVG/1.1/DTD/svg11.dtd">
<!-- Generated by graphviz version 2.26.3 (20100126.1600)
 -->
<!-- Title: change_symbol_type Pages: 1 -->
<svg width="780pt" height="48pt"
 viewBox="0.00 0.00 780.00 48.00" xmlns="http://www.w3.org/2000/svg" xmlns:xlink="http://www.w3.org/1999/xlink">
<g id="graph1" class="graph" transform="scale(1 1) rotate(0) translate(4 44)">
<title>change_symbol_type</title>
<polygon fill="white" stroke="white" points="-4,5 -4,-44 777,-44 777,5 -4,5"/>
<!-- Node1 -->
<g id="node1" class="node"><title>Node1</title>
<polygon fill="#bfbfbf" stroke="black" points="0.5,-8 0.5,-32 109.5,-32 109.5,-8 0.5,-8"/>
<text text-anchor="middle" x="55" y="-19" font-family="Helvetica,sans-Serif" font-size="10.00">change_symbol_type</text>
</g>
<!-- Node2 -->
<g id="node3" class="node"><title>Node2</title>
<a xlink:href="plot__core9_8cpp.html#a6ff8cd924e588a71a1366288cf8dc41b" target="_top" xlink:title="logical_plot_symbol_list">
<polygon fill="white" stroke="black" points="146,-8 146,-32 266,-32 266,-8 146,-8"/>
<text text-anchor="middle" x="206" y="-19" font-family="Helvetica,sans-Serif" font-size="10.00">logical_plot_symbol_list</text>
</a>
</g>
<!-- Node1&#45;&gt;Node2 -->
<g id="edge2" class="edge"><title>Node1&#45;&gt;Node2</title>
<path fill="none" stroke="midnightblue" d="M119.642,-20C128.37,-20 137.297,-20 145.941,-20"/>
<polygon fill="midnightblue" stroke="midnightblue" points="119.514,-16.5001 109.514,-20 119.514,-23.5001 119.514,-16.5001"/>
</g>
<!-- Node3 -->
<g id="node5" class="node"><title>Node3</title>
<a xlink:href="plot__core9_8cpp.html#a8959d98409d30cff9689b28771791f70" target="_top" xlink:title="do_logical_Plot_window">
<polygon fill="white" stroke="black" points="302.5,-8 302.5,-32 423.5,-32 423.5,-8 302.5,-8"/>
<text text-anchor="middle" x="363" y="-19" font-family="Helvetica,sans-Serif" font-size="10.00">do_logical_Plot_window</text>
</a>
</g>
<!-- Node2&#45;&gt;Node3 -->
<g id="edge4" class="edge"><title>Node2&#45;&gt;Node3</title>
<path fill="none" stroke="midnightblue" d="M276.361,-20C285.047,-20 293.868,-20 302.391,-20"/>
<polygon fill="midnightblue" stroke="midnightblue" points="276.251,-16.5001 266.251,-20 276.251,-23.5001 276.251,-16.5001"/>
</g>
<!-- Node4 -->
<g id="node7" class="node"><title>Node4</title>
<a xlink:href="procs__visuels__rebuild1_8cpp.html#ae710b6e599e321ad5934a90140067054" target="_top" xlink:title="check_graphics_mouse\l_handling">
<polygon fill="white" stroke="black" points="460.5,-0 460.5,-40 579.5,-40 579.5,-0 460.5,-0"/>
<text text-anchor="start" x="468.5" y="-27" font-family="Helvetica,sans-Serif" font-size="10.00">check_graphics_mouse</text>
<text text-anchor="middle" x="520" y="-11" font-family="Helvetica,sans-Serif" font-size="10.00">_handling</text>
</a>
</g>
<!-- Node3&#45;&gt;Node4 -->
<g id="edge6" class="edge"><title>Node3&#45;&gt;Node4</title>
<path fill="none" stroke="midnightblue" d="M433.718,-20C442.664,-20 451.747,-20 460.495,-20"/>
<polygon fill="midnightblue" stroke="midnightblue" points="433.7,-16.5001 423.7,-20 433.7,-23.5001 433.7,-16.5001"/>
</g>
<!-- Node5 -->
<g id="node9" class="node"><title>Node5</title>
<a xlink:href="_m_a_i_n__avec__objets_8cpp.html#a8e80f54ac804eddce8ed6e45adb1db44" target="_top" xlink:title="ticker_full_loop">
<polygon fill="white" stroke="black" points="616,-8 616,-32 698,-32 698,-8 616,-8"/>
<text text-anchor="middle" x="657" y="-19" font-family="Helvetica,sans-Serif" font-size="10.00">ticker_full_loop</text>
</a>
</g>
<!-- Node4&#45;&gt;Node5 -->
<g id="edge8" class="edge"><title>Node4&#45;&gt;Node5</title>
<path fill="none" stroke="midnightblue" d="M589.967,-20C598.737,-20 607.475,-20 615.605,-20"/>
<polygon fill="midnightblue" stroke="midnightblue" points="589.692,-16.5001 579.692,-20 589.692,-23.5001 589.692,-16.5001"/>
</g>
<!-- Node6 -->
<g id="node11" class="node"><title>Node6</title>
<a xlink:href="_m_a_i_n__avec__objets_8cpp.html#ae66f6b31b5ad750f1fe042a706a4e3d4" target="_top" xlink:title="main">
<polygon fill="white" stroke="black" points="734,-8 734,-32 772,-32 772,-8 734,-8"/>
<text text-anchor="middle" x="753" y="-19" font-family="Helvetica,sans-Serif" font-size="10.00">main</text>
</a>
</g>
<!-- Node5&#45;&gt;Node6 -->
<g id="edge10" class="edge"><title>Node5&#45;&gt;Node6</title>
<path fill="none" stroke="midnightblue" d="M708.509,-20C717.577,-20 726.476,-20 733.904,-20"/>
<polygon fill="midnightblue" stroke="midnightblue" points="708.27,-16.5001 698.27,-20 708.27,-23.5001 708.27,-16.5001"/>
</g>
</g>
</svg>
