<?xml version="1.0" encoding="UTF-8" standalone="no"?>
<!DOCTYPE svg PUBLIC "-//W3C//DTD SVG 1.1//EN"
 "http://www.w3.org/Graphics/SVG/1.1/DTD/svg11.dtd">
<!-- Generated by graphviz version 2.26.3 (20100126.1600)
 -->
<!-- Title: shape_edition Pages: 1 -->
<svg width="232pt" height="242pt"
 viewBox="0.00 0.00 232.00 242.00" xmlns="http://www.w3.org/2000/svg" xmlns:xlink="http://www.w3.org/1999/xlink">
<g id="graph1" class="graph" transform="scale(1 1) rotate(0) translate(4 238)">
<title>shape_edition</title>
<polygon fill="white" stroke="white" points="-4,5 -4,-238 229,-238 229,5 -4,5"/>
<!-- Node1 -->
<g id="node1" class="node"><title>Node1</title>
<polygon fill="#bfbfbf" stroke="black" points="0.5,-105 0.5,-129 77.5,-129 77.5,-105 0.5,-105"/>
<text text-anchor="middle" x="39" y="-116" font-family="Helvetica,sans-Serif" font-size="10.00">shape_edition</text>
</g>
<!-- Node2 -->
<g id="node3" class="node"><title>Node2</title>
<a xlink:href="whitecat_8h.html#a5e88fb41a8a9fa61f87aae4fedd74510" target="_top" xlink:title="CouleurPlotLine">
<polygon fill="white" stroke="black" points="126,-210 126,-234 212,-234 212,-210 126,-210"/>
<text text-anchor="middle" x="169" y="-221" font-family="Helvetica,sans-Serif" font-size="10.00">CouleurPlotLine</text>
</a>
</g>
<!-- Node1&#45;&gt;Node2 -->
<g id="edge2" class="edge"><title>Node1&#45;&gt;Node2</title>
<path fill="none" stroke="midnightblue" d="M47.0371,-129.235C59.4346,-147.245 84.8614,-180.922 114,-201 116.25,-202.55 118.63,-204.006 121.088,-205.37"/>
<polygon fill="midnightblue" stroke="midnightblue" points="119.726,-208.601 130.239,-209.911 122.837,-202.33 119.726,-208.601"/>
</g>
<!-- Node3 -->
<g id="node5" class="node"><title>Node3</title>
<a xlink:href="colors__fonts_8h.html#ae9274ddf03277718b9234207fe9a3d3a" target="_top" xlink:title="CouleurGreen">
<polygon fill="white" stroke="black" points="130.5,-168 130.5,-192 207.5,-192 207.5,-168 130.5,-168"/>
<text text-anchor="middle" x="169" y="-179" font-family="Helvetica,sans-Serif" font-size="10.00">CouleurGreen</text>
</a>
</g>
<!-- Node1&#45;&gt;Node3 -->
<g id="edge4" class="edge"><title>Node1&#45;&gt;Node3</title>
<path fill="none" stroke="midnightblue" d="M58.6399,-129.039C73.5336,-137.911 94.6704,-149.956 114,-159 117.801,-160.779 121.799,-162.527 125.831,-164.209"/>
<polygon fill="midnightblue" stroke="midnightblue" points="124.643,-167.504 135.227,-167.996 127.26,-161.011 124.643,-167.504"/>
</g>
<!-- Node4 -->
<g id="node7" class="node"><title>Node4</title>
<a xlink:href="_c_o_r_e__6_8cpp.html#a3680de15f6ccf838397bde99d246125a" target="_top" xlink:title="show_type_midi">
<polygon fill="white" stroke="black" points="125.5,-126 125.5,-150 212.5,-150 212.5,-126 125.5,-126"/>
<text text-anchor="middle" x="169" y="-137" font-family="Helvetica,sans-Serif" font-size="10.00">show_type_midi</text>
</a>
</g>
<!-- Node1&#45;&gt;Node4 -->
<g id="edge6" class="edge"><title>Node1&#45;&gt;Node4</title>
<path fill="none" stroke="midnightblue" d="M77.6523,-123.244C89.4637,-125.152 102.672,-127.286 115.295,-129.325"/>
<polygon fill="midnightblue" stroke="midnightblue" points="114.824,-132.794 125.254,-130.933 115.94,-125.883 114.824,-132.794"/>
</g>
<!-- Node5 -->
<g id="node9" class="node"><title>Node5</title>
<a xlink:href="whitecat_8h.html#a53146b0df4992543bd09594d4ce44f7d" target="_top" xlink:title="CouleurPlotFill">
<polygon fill="white" stroke="black" points="129,-84 129,-108 209,-108 209,-84 129,-84"/>
<text text-anchor="middle" x="169" y="-95" font-family="Helvetica,sans-Serif" font-size="10.00">CouleurPlotFill</text>
</a>
</g>
<!-- Node1&#45;&gt;Node5 -->
<g id="edge8" class="edge"><title>Node1&#45;&gt;Node5</title>
<path fill="none" stroke="midnightblue" d="M77.6523,-110.756C90.5349,-108.675 105.08,-106.326 118.713,-104.123"/>
<polygon fill="midnightblue" stroke="midnightblue" points="119.604,-107.525 128.918,-102.475 118.488,-100.614 119.604,-107.525"/>
</g>
<!-- Node6 -->
<g id="node11" class="node"><title>Node6</title>
<a xlink:href="colors__fonts_8h.html#a5427dd0a5a11091bc410f7eed5d2657f" target="_top" xlink:title="CouleurYellowFgroup">
<polygon fill="white" stroke="black" points="114.5,-42 114.5,-66 223.5,-66 223.5,-42 114.5,-42"/>
<text text-anchor="middle" x="169" y="-53" font-family="Helvetica,sans-Serif" font-size="10.00">CouleurYellowFgroup</text>
</a>
</g>
<!-- Node1&#45;&gt;Node6 -->
<g id="edge10" class="edge"><title>Node1&#45;&gt;Node6</title>
<path fill="none" stroke="midnightblue" d="M58.6399,-104.961C73.5336,-96.089 94.6704,-84.0437 114,-75 117.801,-73.2214 121.799,-71.4731 125.831,-69.7911"/>
<polygon fill="midnightblue" stroke="midnightblue" points="127.26,-72.9886 135.227,-66.0038 124.643,-66.4961 127.26,-72.9886"/>
</g>
<!-- Node7 -->
<g id="node13" class="node"><title>Node7</title>
<a xlink:href="colors__fonts_8h.html#a9f46ddd6a2c54abab874ea891efa4750" target="_top" xlink:title="CouleurRed">
<polygon fill="white" stroke="black" points="135,-0 135,-24 203,-24 203,-0 135,-0"/>
<text text-anchor="middle" x="169" y="-11" font-family="Helvetica,sans-Serif" font-size="10.00">CouleurRed</text>
</a>
</g>
<!-- Node1&#45;&gt;Node7 -->
<g id="edge12" class="edge"><title>Node1&#45;&gt;Node7</title>
<path fill="none" stroke="midnightblue" d="M47.0371,-104.765C59.4346,-86.7554 84.8614,-53.0779 114,-33 117.551,-30.5534 121.425,-28.3429 125.419,-26.3571"/>
<polygon fill="midnightblue" stroke="midnightblue" points="127.168,-29.4089 134.862,-22.1259 124.305,-23.0208 127.168,-29.4089"/>
</g>
</g>
</svg>
