<?xml version="1.0" encoding="UTF-8" standalone="no"?>
<!DOCTYPE svg PUBLIC "-//W3C//DTD SVG 1.1//EN"
 "http://www.w3.org/Graphics/SVG/1.1/DTD/svg11.dtd">
<!-- Generated by graphviz version 2.26.3 (20100126.1600)
 -->
<!-- Title: draw_channel_of_symbol Pages: 1 -->
<svg width="362pt" height="32pt"
 viewBox="0.00 0.00 362.00 32.00" xmlns="http://www.w3.org/2000/svg" xmlns:xlink="http://www.w3.org/1999/xlink">
<g id="graph1" class="graph" transform="scale(1 1) rotate(0) translate(4 28)">
<title>draw_channel_of_symbol</title>
<polygon fill="white" stroke="white" points="-4,5 -4,-28 359,-28 359,5 -4,5"/>
<!-- Node1 -->
<g id="node1" class="node"><title>Node1</title>
<polygon fill="#bfbfbf" stroke="black" points="0.5,-0 0.5,-24 127.5,-24 127.5,-0 0.5,-0"/>
<text text-anchor="middle" x="64" y="-11" font-family="Helvetica,sans-Serif" font-size="10.00">draw_channel_of_symbol</text>
</g>
<!-- Node2 -->
<g id="node3" class="node"><title>Node2</title>
<a xlink:href="plot9_8cpp.html#ab1ead0218cc4468327a83bc54864cf3e" target="_top" xlink:title="plot_draw_plan">
<polygon fill="white" stroke="black" points="164,-0 164,-24 246,-24 246,-0 164,-0"/>
<text text-anchor="middle" x="205" y="-11" font-family="Helvetica,sans-Serif" font-size="10.00">plot_draw_plan</text>
</a>
</g>
<!-- Node1&#45;&gt;Node2 -->
<g id="edge2" class="edge"><title>Node1&#45;&gt;Node2</title>
<path fill="none" stroke="midnightblue" d="M137.97,-12C146.89,-12 155.735,-12 163.933,-12"/>
<polygon fill="midnightblue" stroke="midnightblue" points="137.899,-8.5001 127.899,-12 137.899,-15.5001 137.899,-8.5001"/>
</g>
<!-- Node3 -->
<g id="node5" class="node"><title>Node3</title>
<a xlink:href="plot9_8cpp.html#a3d45bfc1bc76a3d67ad1a8bb3d63163d" target="_top" xlink:title="Plot_window">
<polygon fill="white" stroke="black" points="282,-0 282,-24 354,-24 354,-0 282,-0"/>
<text text-anchor="middle" x="318" y="-11" font-family="Helvetica,sans-Serif" font-size="10.00">Plot_window</text>
</a>
</g>
<!-- Node2&#45;&gt;Node3 -->
<g id="edge4" class="edge"><title>Node2&#45;&gt;Node3</title>
<path fill="none" stroke="midnightblue" d="M256.196,-12C264.893,-12 273.758,-12 281.958,-12"/>
<polygon fill="midnightblue" stroke="midnightblue" points="256.115,-8.5001 246.115,-12 256.115,-15.5001 256.115,-8.5001"/>
</g>
</g>
</svg>
