<?xml version="1.0" encoding="UTF-8" standalone="no"?>
<!DOCTYPE svg PUBLIC "-//W3C//DTD SVG 1.1//EN"
 "http://www.w3.org/Graphics/SVG/1.1/DTD/svg11.dtd">
<!-- Generated by graphviz version 2.26.3 (20100126.1600)
 -->
<!-- Title: change_symbol_type Pages: 1 -->
<!--zoomable 190 -->
<svg id="main" version="1.1" xmlns="http://www.w3.org/2000/svg" xmlns:xlink="http://www.w3.org/1999/xlink" xml:space="preserve" onload="init(evt)">
<style type="text/css"><![CDATA[
.edge:hover path { stroke: red; }
.edge:hover polygon { stroke: red; fill: red; }
]]></style>
<script type="text/javascript"><![CDATA[
var edges = document.getElementsByTagName('g');
if (edges && edges.length) {
  for (var i=0;i<edges.length;i++) {
    if (edges[i].id.substr(0,4)=='edge') {
      edges[i].setAttribute('class','edge');
    }
  }
}
]]></script>
        <defs>
                <circle id="rim" cx="0" cy="0" r="7"/>
                <circle id="rim2" cx="0" cy="0" r="3.5"/>
                <g id="zoomPlus">
                        <use xlink:href="#rim" fill="#404040">
                                <set attributeName="fill" to="#808080" begin="zoomplus.mouseover" end="zoomplus.mouseout"/>
                        </use>
                        <path d="M-4,0h8M0,-4v8" fill="none" stroke="white" stroke-width="1.5" pointer-events="none"/>
                </g>
                <g id="zoomMin">
                        <use xlink:href="#rim" fill="#404040">
                                <set attributeName="fill" to="#808080" begin="zoomminus.mouseover" end="zoomminus.mouseout"/>
                        </use>
                        <path d="M-4,0h8" fill="none" stroke="white" stroke-width="1.5" pointer-events="none"/>
                </g>
                <g id="dirArrow">
                        <path fill="none" stroke="white" stroke-width="1.5" d="M0,-3.0v7 M-2.5,-0.5L0,-3.0L2.5,-0.5"/>
                </g>
               <g id="resetDef">
                       <use xlink:href="#rim2" fill="#404040">
                               <set attributeName="fill" to="#808080" begin="reset.mouseover" end="reset.mouseout"/>
                       </use>
               </g>
        </defs>

<script type="text/javascript">
var viewWidth = 1764;
var viewHeight = 190;
var sectionId = 'dynsection-6';
</script>
<script xlink:href="svgpan.js"/>
<svg id="graph" class="graph">
<g id="viewport">
<title>change_symbol_type</title>
<polygon fill="white" stroke="white" points="-4,5 -4,-186 1761,-186 1761,5 -4,5"/>
<!-- Node1 -->
<g id="node1" class="node"><title>Node1</title>
<polygon fill="#bfbfbf" stroke="black" points="0.5,-21 0.5,-45 109.5,-45 109.5,-21 0.5,-21"/>
<text text-anchor="middle" x="55" y="-32" font-family="Helvetica,sans-Serif" font-size="10.00">change_symbol_type</text>
</g>
<!-- Node2 -->
<g id="node3" class="node"><title>Node2</title>
<a xlink:href="midi__13_8cpp.html#a6dff3d42682b58cc0a9875ee30fb4cd4" target="_top" xlink:title="do_midi_job">
<polygon fill="white" stroke="black" points="146,-41 146,-65 214,-65 214,-41 146,-41"/>
<text text-anchor="middle" x="180" y="-52" font-family="Helvetica,sans-Serif" font-size="10.00">do_midi_job</text>
</a>
</g>
<!-- Node1&#45;&gt;Node2 -->
<g id="edge2" class="edge"><title>Node1&#45;&gt;Node2</title>
<path fill="none" stroke="midnightblue" d="M119.886,-43.3817C128.805,-44.8088 137.659,-46.2255 145.721,-47.5153"/>
<polygon fill="midnightblue" stroke="midnightblue" points="120.254,-39.8962 109.827,-41.7723 119.148,-46.8083 120.254,-39.8962"/>
</g>
<!-- Node21 -->
<g id="node46" class="node"><title>Node21</title>
<a xlink:href="plot_8cpp.html#a6ff8cd924e588a71a1366288cf8dc41b" target="_top" xlink:title="logical_plot_symbol_list">
<polygon fill="white" stroke="black" points="258,-0 258,-24 378,-24 378,-0 258,-0"/>
<text text-anchor="middle" x="318" y="-11" font-family="Helvetica,sans-Serif" font-size="10.00">logical_plot_symbol_list</text>
</a>
</g>
<!-- Node1&#45;&gt;Node21 -->
<g id="edge50" class="edge"><title>Node1&#45;&gt;Node21</title>
<path fill="none" stroke="midnightblue" d="M119.968,-27.8125C162.097,-24.4485 216.596,-20.0969 257.753,-16.8106"/>
<polygon fill="midnightblue" stroke="midnightblue" points="119.503,-24.3383 109.813,-28.6233 120.06,-31.3161 119.503,-24.3383"/>
</g>
<!-- Node3 -->
<g id="node5" class="node"><title>Node3</title>
<a xlink:href="midi__13_8cpp.html#a6bedf9750195224914cd87c4e73ab626" target="_top" xlink:title="ventilate_midi_to_midiarray">
<polygon fill="white" stroke="black" points="250.5,-42 250.5,-66 385.5,-66 385.5,-42 250.5,-42"/>
<text text-anchor="middle" x="318" y="-53" font-family="Helvetica,sans-Serif" font-size="10.00">ventilate_midi_to_midiarray</text>
</a>
</g>
<!-- Node2&#45;&gt;Node3 -->
<g id="edge4" class="edge"><title>Node2&#45;&gt;Node3</title>
<path fill="none" stroke="midnightblue" d="M224.304,-53.321C232.617,-53.3813 241.482,-53.4455 250.317,-53.5095"/>
<polygon fill="midnightblue" stroke="midnightblue" points="224.138,-49.8198 214.112,-53.2472 224.087,-56.8197 224.138,-49.8198"/>
</g>
<!-- Node4 -->
<g id="node7" class="node"><title>Node4</title>
<a xlink:href="midi__13_8cpp.html#afa49dd5668303c2448676c8243737c2d" target="_top" xlink:title="simulate_midi">
<polygon fill="white" stroke="black" points="422.5,-92 422.5,-116 499.5,-116 499.5,-92 422.5,-92"/>
<text text-anchor="middle" x="461" y="-103" font-family="Helvetica,sans-Serif" font-size="10.00">simulate_midi</text>
</a>
</g>
<!-- Node3&#45;&gt;Node4 -->
<g id="edge6" class="edge"><title>Node3&#45;&gt;Node4</title>
<path fill="none" stroke="midnightblue" d="M362.107,-69.4219C382.719,-76.6291 406.91,-85.0875 426.207,-91.8346"/>
<polygon fill="midnightblue" stroke="midnightblue" points="363.211,-66.1004 352.616,-66.1036 360.901,-72.7081 363.211,-66.1004"/>
</g>
<!-- Node9 -->
<g id="node18" class="node"><title>Node9</title>
<a xlink:href="midi__13_8cpp.html#a4104c2ae7e71376ad9dc78929450dc51" target="_top" xlink:title="EvAquire">
<polygon fill="white" stroke="black" points="433,-42 433,-66 489,-66 489,-42 433,-42"/>
<text text-anchor="middle" x="461" y="-53" font-family="Helvetica,sans-Serif" font-size="10.00">EvAquire</text>
</a>
</g>
<!-- Node3&#45;&gt;Node9 -->
<g id="edge18" class="edge"><title>Node3&#45;&gt;Node9</title>
<path fill="none" stroke="midnightblue" d="M395.852,-54C409.053,-54 421.963,-54 432.762,-54"/>
<polygon fill="midnightblue" stroke="midnightblue" points="395.731,-50.5001 385.731,-54 395.731,-57.5001 395.731,-50.5001"/>
</g>
<!-- Node5 -->
<g id="node9" class="node"><title>Node5</title>
<a xlink:href="arduino__core__6___u_n_o_8cpp.html#ae72d1a8d74d9ab5515962e03e7e664d6" target="_top" xlink:title="arduino_do_analog_in\l_whitecat">
<polygon fill="white" stroke="black" points="536,-142 536,-182 646,-182 646,-142 536,-142"/>
<text text-anchor="start" x="544" y="-169" font-family="Helvetica,sans-Serif" font-size="10.00">arduino_do_analog_in</text>
<text text-anchor="middle" x="591" y="-153" font-family="Helvetica,sans-Serif" font-size="10.00">_whitecat</text>
</a>
</g>
<!-- Node4&#45;&gt;Node5 -->
<g id="edge8" class="edge"><title>Node4&#45;&gt;Node5</title>
<path fill="none" stroke="midnightblue" d="M497.415,-120.246C512.467,-126.962 530.072,-134.817 545.927,-141.891"/>
<polygon fill="midnightblue" stroke="midnightblue" points="498.494,-116.896 487.936,-116.018 495.642,-123.288 498.494,-116.896"/>
</g>
<!-- Node8 -->
<g id="node15" class="node"><title>Node8</title>
<a xlink:href="arduino__core__6___u_n_o_8cpp.html#a219226c1cd6cc17c78e62fd4445bb445" target="_top" xlink:title="arduino_do_digital\l_in_whitecat">
<polygon fill="white" stroke="black" points="543.5,-84 543.5,-124 638.5,-124 638.5,-84 543.5,-84"/>
<text text-anchor="start" x="551.5" y="-111" font-family="Helvetica,sans-Serif" font-size="10.00">arduino_do_digital</text>
<text text-anchor="middle" x="591" y="-95" font-family="Helvetica,sans-Serif" font-size="10.00">_in_whitecat</text>
</a>
</g>
<!-- Node4&#45;&gt;Node8 -->
<g id="edge14" class="edge"><title>Node4&#45;&gt;Node8</title>
<path fill="none" stroke="midnightblue" d="M509.833,-104C520.703,-104 532.216,-104 543.05,-104"/>
<polygon fill="midnightblue" stroke="midnightblue" points="509.652,-100.5 499.652,-104 509.652,-107.5 509.652,-100.5"/>
</g>
<!-- Node6 -->
<g id="node11" class="node"><title>Node6</title>
<a xlink:href="_m_a_i_n__avec__objets_8cpp.html#ace9c8a9b37c6087c3cffef442d71d70e" target="_top" xlink:title="dixiemes_de_secondes">
<polygon fill="white" stroke="black" points="682.5,-142 682.5,-166 801.5,-166 801.5,-142 682.5,-142"/>
<text text-anchor="middle" x="742" y="-153" font-family="Helvetica,sans-Serif" font-size="10.00">dixiemes_de_secondes</text>
</a>
</g>
<!-- Node5&#45;&gt;Node6 -->
<g id="edge10" class="edge"><title>Node5&#45;&gt;Node6</title>
<path fill="none" stroke="midnightblue" d="M656.379,-158.536C664.999,-158.08 673.798,-157.613 682.316,-157.162"/>
<polygon fill="midnightblue" stroke="midnightblue" points="656.17,-155.042 646.369,-159.067 656.541,-162.032 656.17,-155.042"/>
</g>
<!-- Node7 -->
<g id="node13" class="node"><title>Node7</title>
<a xlink:href="_m_a_i_n__avec__objets_8cpp.html#ae66f6b31b5ad750f1fe042a706a4e3d4" target="_top" xlink:title="main">
<polygon fill="white" stroke="black" points="1718,-82 1718,-106 1756,-106 1756,-82 1718,-82"/>
<text text-anchor="middle" x="1737" y="-93" font-family="Helvetica,sans-Serif" font-size="10.00">main</text>
</a>
</g>
<!-- Node6&#45;&gt;Node7 -->
<g id="edge12" class="edge"><title>Node6&#45;&gt;Node7</title>
<path fill="none" stroke="midnightblue" d="M811.833,-154C864.616,-154 938.862,-154 1004,-154 1004,-154 1004,-154 1498,-154 1582.06,-154 1677.89,-118.649 1717.89,-102.217"/>
<polygon fill="midnightblue" stroke="midnightblue" points="811.572,-150.5 801.572,-154 811.572,-157.5 811.572,-150.5"/>
</g>
<!-- Node8&#45;&gt;Node6 -->
<g id="edge16" class="edge"><title>Node8&#45;&gt;Node6</title>
<path fill="none" stroke="midnightblue" d="M648.338,-122.986C667.532,-129.342 688.392,-136.249 705.543,-141.928"/>
<polygon fill="midnightblue" stroke="midnightblue" points="649.371,-119.641 638.777,-119.82 647.17,-126.286 649.371,-119.641"/>
</g>
<!-- Node10 -->
<g id="node20" class="node"><title>Node10</title>
<a xlink:href="midi__13_8cpp.html#a831f1dfc7870ae4f6c64a0e65fbaf3ff" target="_top" xlink:title="Display">
<polygon fill="white" stroke="black" points="566,-42 566,-66 616,-66 616,-42 566,-42"/>
<text text-anchor="middle" x="591" y="-53" font-family="Helvetica,sans-Serif" font-size="10.00">Display</text>
</a>
</g>
<!-- Node9&#45;&gt;Node10 -->
<g id="edge20" class="edge"><title>Node9&#45;&gt;Node10</title>
<path fill="none" stroke="midnightblue" d="M499.332,-54C520.833,-54 547.044,-54 565.923,-54"/>
<polygon fill="midnightblue" stroke="midnightblue" points="499.208,-50.5001 489.208,-54 499.208,-57.5001 499.208,-50.5001"/>
</g>
<!-- Node11 -->
<g id="node22" class="node"><title>Node11</title>
<a xlink:href="midi__13_8cpp.html#aa4aeee5088a4a5462566dfee5c9cc71f" target="_top" xlink:title="DisplayTask">
<polygon fill="white" stroke="black" points="706.5,-84 706.5,-108 777.5,-108 777.5,-84 706.5,-84"/>
<text text-anchor="middle" x="742" y="-95" font-family="Helvetica,sans-Serif" font-size="10.00">DisplayTask</text>
</a>
</g>
<!-- Node10&#45;&gt;Node11 -->
<g id="edge22" class="edge"><title>Node10&#45;&gt;Node11</title>
<path fill="none" stroke="midnightblue" d="M626.099,-63.7627C650.248,-70.4795 682.212,-79.3702 706.456,-86.1135"/>
<polygon fill="midnightblue" stroke="midnightblue" points="626.846,-60.3377 616.274,-61.0299 624.97,-67.0817 626.846,-60.3377"/>
</g>
<!-- Node13 -->
<g id="node27" class="node"><title>Node13</title>
<a xlink:href="midi___c_o_r_e_8cpp.html#a6fcb4c2efe85f50488d7aeeef1fc0a3e" target="_top" xlink:title="ReceiveEvents">
<polygon fill="white" stroke="black" points="700.5,-42 700.5,-66 783.5,-66 783.5,-42 700.5,-42"/>
<text text-anchor="middle" x="742" y="-53" font-family="Helvetica,sans-Serif" font-size="10.00">ReceiveEvents</text>
</a>
</g>
<!-- Node10&#45;&gt;Node13 -->
<g id="edge28" class="edge"><title>Node10&#45;&gt;Node13</title>
<path fill="none" stroke="midnightblue" d="M626.562,-54C648.676,-54 677.207,-54 700.372,-54"/>
<polygon fill="midnightblue" stroke="midnightblue" points="626.274,-50.5001 616.274,-54 626.274,-57.5001 626.274,-50.5001"/>
</g>
<!-- Node12 -->
<g id="node24" class="node"><title>Node12</title>
<a xlink:href="midi___c_o_r_e_8cpp.html#a7d0f82d882071792d6a2df51ef13ec55" target="_top" xlink:title="ReceivePolling">
<polygon fill="white" stroke="black" points="838,-84 838,-108 920,-108 920,-84 838,-84"/>
<text text-anchor="middle" x="879" y="-95" font-family="Helvetica,sans-Serif" font-size="10.00">ReceivePolling</text>
</a>
</g>
<!-- Node11&#45;&gt;Node12 -->
<g id="edge24" class="edge"><title>Node11&#45;&gt;Node12</title>
<path fill="none" stroke="midnightblue" d="M787.91,-96C804.021,-96 822.008,-96 837.716,-96"/>
<polygon fill="midnightblue" stroke="midnightblue" points="787.638,-92.5001 777.638,-96 787.637,-99.5001 787.638,-92.5001"/>
</g>
<!-- Node12&#45;&gt;Node12 -->
<g id="edge26" class="edge"><title>Node12&#45;&gt;Node12</title>
<path fill="none" stroke="midnightblue" d="M856.513,-118.001C858.812,-122.647 866.308,-126 879,-126 899.828,-126 906.662,-116.972 899.503,-108.014"/>
<polygon fill="midnightblue" stroke="midnightblue" points="859.981,-118.504 858.497,-108.014 853.116,-117.14 859.981,-118.504"/>
</g>
<!-- Node13&#45;&gt;Node12 -->
<g id="edge30" class="edge"><title>Node13&#45;&gt;Node12</title>
<path fill="none" stroke="midnightblue" d="M790.988,-69.0181C806.991,-73.9241 824.544,-79.3054 839.736,-83.9627"/>
<polygon fill="midnightblue" stroke="midnightblue" points="791.845,-65.6204 781.259,-66.0355 789.794,-72.3129 791.845,-65.6204"/>
</g>
<!-- Node14 -->
<g id="node30" class="node"><title>Node14</title>
<a xlink:href="midi___c_o_r_e_8cpp.html#a0ccf480a33424e626f88d109d53d8366" target="_top" xlink:title="InitMidi">
<polygon fill="white" stroke="black" points="855,-42 855,-66 903,-66 903,-42 855,-42"/>
<text text-anchor="middle" x="879" y="-53" font-family="Helvetica,sans-Serif" font-size="10.00">InitMidi</text>
</a>
</g>
<!-- Node13&#45;&gt;Node14 -->
<g id="edge32" class="edge"><title>Node13&#45;&gt;Node14</title>
<path fill="none" stroke="midnightblue" d="M793.927,-54C814.893,-54 838.063,-54 854.921,-54"/>
<polygon fill="midnightblue" stroke="midnightblue" points="793.849,-50.5001 783.849,-54 793.849,-57.5001 793.849,-50.5001"/>
</g>
<!-- Node14&#45;&gt;Node7 -->
<g id="edge34" class="edge"><title>Node14&#45;&gt;Node7</title>
<path fill="none" stroke="midnightblue" d="M912.775,-64.4439C926.129,-68.2481 941.681,-72.2786 956,-75 1031.99,-89.4428 1051.65,-94 1129,-94 1129,-94 1129,-94 1498,-94 1579.74,-94 1677.21,-94 1717.79,-94"/>
<polygon fill="midnightblue" stroke="midnightblue" points="913.629,-61.047 903.049,-61.6042 911.667,-67.7665 913.629,-61.047"/>
</g>
<!-- Node15 -->
<g id="node33" class="node"><title>Node15</title>
<a xlink:href="midi__13_8cpp.html#ac7a306aa81e374b447e7341d4d3a3eea" target="_top" xlink:title="midipage_devices">
<polygon fill="white" stroke="black" points="956.5,-42 956.5,-66 1051.5,-66 1051.5,-42 956.5,-42"/>
<text text-anchor="middle" x="1004" y="-53" font-family="Helvetica,sans-Serif" font-size="10.00">midipage_devices</text>
</a>
</g>
<!-- Node14&#45;&gt;Node15 -->
<g id="edge36" class="edge"><title>Node14&#45;&gt;Node15</title>
<path fill="none" stroke="midnightblue" d="M913.254,-54C926.57,-54 942.054,-54 956.42,-54"/>
<polygon fill="midnightblue" stroke="midnightblue" points="913.101,-50.5001 903.101,-54 913.101,-57.5001 913.101,-50.5001"/>
</g>
<!-- Node16 -->
<g id="node35" class="node"><title>Node16</title>
<a xlink:href="midi__13_8cpp.html#a8f70acacad6eaba8867bdd80dda5e277" target="_top" xlink:title="do_midi_config">
<polygon fill="white" stroke="black" points="1088,-42 1088,-66 1170,-66 1170,-42 1088,-42"/>
<text text-anchor="middle" x="1129" y="-53" font-family="Helvetica,sans-Serif" font-size="10.00">do_midi_config</text>
</a>
</g>
<!-- Node15&#45;&gt;Node16 -->
<g id="edge38" class="edge"><title>Node15&#45;&gt;Node16</title>
<path fill="none" stroke="midnightblue" d="M1061.77,-54C1070.5,-54 1079.35,-54 1087.65,-54"/>
<polygon fill="midnightblue" stroke="midnightblue" points="1061.61,-50.5001 1051.61,-54 1061.61,-57.5001 1061.61,-50.5001"/>
</g>
<!-- Node17 -->
<g id="node37" class="node"><title>Node17</title>
<a xlink:href="_c_f_g__config__panel__8_8cpp.html#ad39c46e2fb3a3ba7ea0460140ead4f96" target="_top" xlink:title="do_panel_config">
<polygon fill="white" stroke="black" points="1206.5,-42 1206.5,-66 1293.5,-66 1293.5,-42 1206.5,-42"/>
<text text-anchor="middle" x="1250" y="-53" font-family="Helvetica,sans-Serif" font-size="10.00">do_panel_config</text>
</a>
</g>
<!-- Node16&#45;&gt;Node17 -->
<g id="edge40" class="edge"><title>Node16&#45;&gt;Node17</title>
<path fill="none" stroke="midnightblue" d="M1180.33,-54C1189.01,-54 1197.95,-54 1206.41,-54"/>
<polygon fill="midnightblue" stroke="midnightblue" points="1180.3,-50.5001 1170.3,-54 1180.3,-57.5001 1180.3,-50.5001"/>
</g>
<!-- Node18 -->
<g id="node39" class="node"><title>Node18</title>
<a xlink:href="_c_f_g__config__panel__8_8cpp.html#a7968da66bccdba8b864caf6c8435f68e" target="_top" xlink:title="config_general_menu">
<polygon fill="white" stroke="black" points="1330.5,-42 1330.5,-66 1439.5,-66 1439.5,-42 1330.5,-42"/>
<text text-anchor="middle" x="1385" y="-53" font-family="Helvetica,sans-Serif" font-size="10.00">config_general_menu</text>
</a>
</g>
<!-- Node17&#45;&gt;Node18 -->
<g id="edge42" class="edge"><title>Node17&#45;&gt;Node18</title>
<path fill="none" stroke="midnightblue" d="M1304.07,-54C1312.62,-54 1321.47,-54 1330.04,-54"/>
<polygon fill="midnightblue" stroke="midnightblue" points="1303.83,-50.5001 1293.83,-54 1303.83,-57.5001 1303.83,-50.5001"/>
</g>
<!-- Node19 -->
<g id="node41" class="node"><title>Node19</title>
<a xlink:href="graphics__rebuild1_8cpp.html#ac2eae1e03fb72cc734ffbcef566483bf" target="_top" xlink:title="Boxes">
<polygon fill="white" stroke="black" points="1476,-42 1476,-66 1520,-66 1520,-42 1476,-42"/>
<text text-anchor="middle" x="1498" y="-53" font-family="Helvetica,sans-Serif" font-size="10.00">Boxes</text>
</a>
</g>
<!-- Node18&#45;&gt;Node19 -->
<g id="edge44" class="edge"><title>Node18&#45;&gt;Node19</title>
<path fill="none" stroke="midnightblue" d="M1449.75,-54C1459.11,-54 1468.17,-54 1475.86,-54"/>
<polygon fill="midnightblue" stroke="midnightblue" points="1449.51,-50.5001 1439.51,-54 1449.51,-57.5001 1449.51,-50.5001"/>
</g>
<!-- Node20 -->
<g id="node43" class="node"><title>Node20</title>
<a xlink:href="_m_a_i_n__avec__objets_8cpp.html#ade8d4ba65d55c94f8ee277829d722155" target="_top" xlink:title="main_actions_on_screen">
<polygon fill="white" stroke="black" points="1556.5,-42 1556.5,-66 1681.5,-66 1681.5,-42 1556.5,-42"/>
<text text-anchor="middle" x="1619" y="-53" font-family="Helvetica,sans-Serif" font-size="10.00">main_actions_on_screen</text>
</a>
</g>
<!-- Node19&#45;&gt;Node20 -->
<g id="edge46" class="edge"><title>Node19&#45;&gt;Node20</title>
<path fill="none" stroke="midnightblue" d="M1530.24,-54C1538.32,-54 1547.26,-54 1556.27,-54"/>
<polygon fill="midnightblue" stroke="midnightblue" points="1530.19,-50.5001 1520.19,-54 1530.19,-57.5001 1530.19,-50.5001"/>
</g>
<!-- Node20&#45;&gt;Node7 -->
<g id="edge48" class="edge"><title>Node20&#45;&gt;Node7</title>
<path fill="none" stroke="midnightblue" d="M1663.92,-69.2274C1682.55,-75.5415 1703.16,-82.5297 1717.74,-87.4696"/>
<polygon fill="midnightblue" stroke="midnightblue" points="1665,-65.897 1654.4,-66.0013 1662.75,-72.5265 1665,-65.897"/>
</g>
<!-- Node22 -->
<g id="node48" class="node"><title>Node22</title>
<a xlink:href="plot_8cpp.html#a3d45bfc1bc76a3d67ad1a8bb3d63163d" target="_top" xlink:title="Plot_window">
<polygon fill="white" stroke="black" points="968,-0 968,-24 1040,-24 1040,-0 968,-0"/>
<text text-anchor="middle" x="1004" y="-11" font-family="Helvetica,sans-Serif" font-size="10.00">Plot_window</text>
</a>
</g>
<!-- Node21&#45;&gt;Node22 -->
<g id="edge52" class="edge"><title>Node21&#45;&gt;Node22</title>
<path fill="none" stroke="midnightblue" d="M388.196,-12C443.337,-12 522.064,-12 591,-12 591,-12 591,-12 742,-12 822.738,-12 917.471,-12 967.977,-12"/>
<polygon fill="midnightblue" stroke="midnightblue" points="388.182,-8.5001 378.182,-12 388.182,-15.5001 388.182,-8.5001"/>
</g>
<!-- Node22&#45;&gt;Node19 -->
<g id="edge54" class="edge"><title>Node22&#45;&gt;Node19</title>
<path fill="none" stroke="midnightblue" d="M1050.3,-9.73566C1130.55,-6.80529 1300.26,-5.00031 1440,-33 1452.18,-35.4407 1465.23,-39.9813 1475.86,-44.2176"/>
<polygon fill="midnightblue" stroke="midnightblue" points="1049.9,-6.24848 1040.05,-10.1346 1050.18,-13.2432 1049.9,-6.24848"/>
</g>
</g>
</svg>
        <g id="navigator" transform="translate(0 0)" fill="#404254">
                <rect fill="#f2f5e9" fill-opacity="0.5" stroke="#606060" stroke-width=".5" x="0" y="0" width="60" height="60"/>
                <use id="zoomplus" xlink:href="#zoomPlus" x="17" y="9" onmousedown="handleZoom(evt,'in')"/>
                <use id="zoomminus" xlink:href="#zoomMin" x="42" y="9" onmousedown="handleZoom(evt,'out')"/>
                <use id="reset" xlink:href="#resetDef" x="30" y="36" onmousedown="handleReset()"/>
                <g id="arrowUp" xlink:href="#dirArrow" transform="translate(30 24)" onmousedown="handlePan(0,-1)">
                  <use xlink:href="#rim" fill="#404040">
                        <set attributeName="fill" to="#808080" begin="arrowUp.mouseover" end="arrowUp.mouseout"/>
                  </use>
                  <path fill="none" stroke="white" stroke-width="1.5" d="M0,-3.0v7 M-2.5,-0.5L0,-3.0L2.5,-0.5"/>
                </g>
                <g id="arrowRight" xlink:href="#dirArrow" transform="rotate(90) translate(36 -43)" onmousedown="handlePan(1,0)">
                  <use xlink:href="#rim" fill="#404040">
                        <set attributeName="fill" to="#808080" begin="arrowRight.mouseover" end="arrowRight.mouseout"/>
                  </use>
                  <path fill="none" stroke="white" stroke-width="1.5" d="M0,-3.0v7 M-2.5,-0.5L0,-3.0L2.5,-0.5"/>
                </g>
                <g id="arrowDown" xlink:href="#dirArrow" transform="rotate(180) translate(-30 -48)" onmousedown="handlePan(0,1)">
                  <use xlink:href="#rim" fill="#404040">
                        <set attributeName="fill" to="#808080" begin="arrowDown.mouseover" end="arrowDown.mouseout"/>
                  </use>
                  <path fill="none" stroke="white" stroke-width="1.5" d="M0,-3.0v7 M-2.5,-0.5L0,-3.0L2.5,-0.5"/>
                </g>
                <g id="arrowLeft" xlink:href="#dirArrow" transform="rotate(270) translate(-36 17)" onmousedown="handlePan(-1,0)">
                  <use xlink:href="#rim" fill="#404040">
                        <set attributeName="fill" to="#808080" begin="arrowLeft.mouseover" end="arrowLeft.mouseout"/>
                  </use>
                  <path fill="none" stroke="white" stroke-width="1.5" d="M0,-3.0v7 M-2.5,-0.5L0,-3.0L2.5,-0.5"/>
                </g>
        </g>
        <svg viewBox="0 0 15 15" width="100%" height="30px" preserveAspectRatio="xMaxYMin meet">
         <g id="arrow_out" transform="scale(0.3 0.3)">
          <a xlink:href="plot_8cpp_ae4d4bf060a0f2c56a500418205a18c5b_icgraph_org.svg" target="_base">
           <rect id="button" ry="5" rx="5" y="6" x="6" height="38" width="38"
                fill="#f2f5e9" fill-opacity="0.5" stroke="#606060" stroke-width="1.0"/>
           <path id="arrow"
             d="M 11.500037,31.436501 C 11.940474,20.09759 22.043105,11.32322 32.158766,21.979434 L 37.068811,17.246167 C 37.068811,17.246167 37.088388,32 37.088388,32 L 22.160133,31.978069 C 22.160133,31.978069 26.997745,27.140456 26.997745,27.140456 C 18.528582,18.264221 13.291696,25.230495 11.500037,31.436501 z"
             style="fill:#404040;"/>
          </a>
         </g>
        </svg>
</svg>
