<?xml version="1.0" encoding="UTF-8" standalone="no"?>
<!DOCTYPE svg PUBLIC "-//W3C//DTD SVG 1.1//EN"
 "http://www.w3.org/Graphics/SVG/1.1/DTD/svg11.dtd">
<!-- Generated by graphviz version 2.26.3 (20100126.1600)
 -->
<!-- Title: delete_selected_symbols Pages: 1 -->
<!--zoomable 185 -->
<svg id="main" version="1.1" xmlns="http://www.w3.org/2000/svg" xmlns:xlink="http://www.w3.org/1999/xlink" xml:space="preserve" onload="init(evt)">
<style type="text/css"><![CDATA[
.edge:hover path { stroke: red; }
.edge:hover polygon { stroke: red; fill: red; }
]]></style>
<script type="text/javascript"><![CDATA[
var edges = document.getElementsByTagName('g');
if (edges && edges.length) {
  for (var i=0;i<edges.length;i++) {
    if (edges[i].id.substr(0,4)=='edge') {
      edges[i].setAttribute('class','edge');
    }
  }
}
]]></script>
        <defs>
                <circle id="rim" cx="0" cy="0" r="7"/>
                <circle id="rim2" cx="0" cy="0" r="3.5"/>
                <g id="zoomPlus">
                        <use xlink:href="#rim" fill="#404040">
                                <set attributeName="fill" to="#808080" begin="zoomplus.mouseover" end="zoomplus.mouseout"/>
                        </use>
                        <path d="M-4,0h8M0,-4v8" fill="none" stroke="white" stroke-width="1.5" pointer-events="none"/>
                </g>
                <g id="zoomMin">
                        <use xlink:href="#rim" fill="#404040">
                                <set attributeName="fill" to="#808080" begin="zoomminus.mouseover" end="zoomminus.mouseout"/>
                        </use>
                        <path d="M-4,0h8" fill="none" stroke="white" stroke-width="1.5" pointer-events="none"/>
                </g>
                <g id="dirArrow">
                        <path fill="none" stroke="white" stroke-width="1.5" d="M0,-3.0v7 M-2.5,-0.5L0,-3.0L2.5,-0.5"/>
                </g>
               <g id="resetDef">
                       <use xlink:href="#rim2" fill="#404040">
                               <set attributeName="fill" to="#808080" begin="reset.mouseover" end="reset.mouseout"/>
                       </use>
               </g>
        </defs>

<script type="text/javascript">
var viewWidth = 1124;
var viewHeight = 185;
var sectionId = 'dynsection-14';
</script>
<script xlink:href="svgpan.js"/>
<svg id="graph" class="graph">
<g id="viewport">
<title>delete_selected_symbols</title>
<polygon fill="white" stroke="white" points="-4,5 -4,-181.372 1121,-181.372 1121,5 -4,5"/>
<!-- Node1 -->
<g id="node1" class="node"><title>Node1</title>
<polygon fill="#bfbfbf" stroke="black" points="0.5,-40.3723 0.5,-64.3723 127.5,-64.3723 127.5,-40.3723 0.5,-40.3723"/>
<text text-anchor="middle" x="64" y="-51.3723" font-family="Helvetica,sans-Serif" font-size="10.00">delete_selected_symbols</text>
</g>
<!-- Node2 -->
<g id="node3" class="node"><title>Node2</title>
<a xlink:href="midi__13_8cpp.html#a6dff3d42682b58cc0a9875ee30fb4cd4" target="_top" xlink:title="do_midi_job">
<polygon fill="white" stroke="black" points="354,-110.372 354,-134.372 422,-134.372 422,-110.372 354,-110.372"/>
<text text-anchor="middle" x="388" y="-121.372" font-family="Helvetica,sans-Serif" font-size="10.00">do_midi_job</text>
</a>
</g>
<!-- Node1&#45;&gt;Node2 -->
<g id="edge2" class="edge"><title>Node1&#45;&gt;Node2</title>
<path fill="none" stroke="midnightblue" d="M89.6446,-70.1862C109.1,-82.6865 137.015,-98.5185 164,-106.372 229.136,-125.33 309.21,-125.909 353.825,-124.334"/>
<polygon fill="midnightblue" stroke="midnightblue" points="91.3515,-67.1195 81.0748,-64.5427 87.5016,-72.9657 91.3515,-67.1195"/>
</g>
<!-- Node9 -->
<g id="node18" class="node"><title>Node9</title>
<a xlink:href="plot_8cpp.html#a3431bbe587897e907b6dee6b35777684" target="_top" xlink:title="send_symbols_from_calc\l_to_calc">
<polygon fill="white" stroke="black" points="164,-57.3723 164,-97.3723 292,-97.3723 292,-57.3723 164,-57.3723"/>
<text text-anchor="start" x="172" y="-84.3723" font-family="Helvetica,sans-Serif" font-size="10.00">send_symbols_from_calc</text>
<text text-anchor="middle" x="228" y="-68.3723" font-family="Helvetica,sans-Serif" font-size="10.00">_to_calc</text>
</a>
</g>
<!-- Node1&#45;&gt;Node9 -->
<g id="edge18" class="edge"><title>Node1&#45;&gt;Node9</title>
<path fill="none" stroke="midnightblue" d="M137.919,-63.6404C146.54,-64.9547 155.282,-66.2873 163.758,-67.5794"/>
<polygon fill="midnightblue" stroke="midnightblue" points="138.29,-60.1566 127.876,-62.1096 137.235,-67.0767 138.29,-60.1566"/>
</g>
<!-- Node14 -->
<g id="node30" class="node"><title>Node14</title>
<a xlink:href="plot_8cpp.html#a567a92fb27840f1db037b3ff0c15de28" target="_top" xlink:title="position_on_top">
<polygon fill="white" stroke="black" points="185.5,-15.3723 185.5,-39.3723 270.5,-39.3723 270.5,-15.3723 185.5,-15.3723"/>
<text text-anchor="middle" x="228" y="-26.3723" font-family="Helvetica,sans-Serif" font-size="10.00">position_on_top</text>
</a>
</g>
<!-- Node1&#45;&gt;Node14 -->
<g id="edge32" class="edge"><title>Node1&#45;&gt;Node14</title>
<path fill="none" stroke="midnightblue" d="M137.902,-41.1068C154.129,-38.6332 170.783,-36.0944 185.289,-33.8832"/>
<polygon fill="midnightblue" stroke="midnightblue" points="137.235,-37.668 127.876,-42.6351 138.29,-44.5881 137.235,-37.668"/>
</g>
<!-- Node15 -->
<g id="node32" class="node"><title>Node15</title>
<a xlink:href="plot_8cpp.html#a74a79a0e49b7f81a7cb8b944c77b3b0d" target="_top" xlink:title="logical_plot_symbol\l_edition">
<polygon fill="white" stroke="black" points="337,-7.37232 337,-47.3723 439,-47.3723 439,-7.37232 337,-7.37232"/>
<text text-anchor="start" x="345" y="-34.3723" font-family="Helvetica,sans-Serif" font-size="10.00">logical_plot_symbol</text>
<text text-anchor="middle" x="388" y="-18.3723" font-family="Helvetica,sans-Serif" font-size="10.00">_edition</text>
</a>
</g>
<!-- Node1&#45;&gt;Node15 -->
<g id="edge38" class="edge"><title>Node1&#45;&gt;Node15</title>
<path fill="none" stroke="midnightblue" d="M92.3099,-35.3403C111.725,-24.6857 138.493,-11.9577 164,-6.37232 222.378,6.41075 290.987,-3.587 336.746,-13.7014"/>
<polygon fill="midnightblue" stroke="midnightblue" points="90.3962,-32.4013 83.407,-40.3638 93.8362,-38.4977 90.3962,-32.4013"/>
</g>
<!-- Node3 -->
<g id="node5" class="node"><title>Node3</title>
<a xlink:href="midi__13_8cpp.html#a6bedf9750195224914cd87c4e73ab626" target="_top" xlink:title="ventilate_midi_to_midiarray">
<polygon fill="white" stroke="black" points="484.5,-110.372 484.5,-134.372 619.5,-134.372 619.5,-110.372 484.5,-110.372"/>
<text text-anchor="middle" x="552" y="-121.372" font-family="Helvetica,sans-Serif" font-size="10.00">ventilate_midi_to_midiarray</text>
</a>
</g>
<!-- Node2&#45;&gt;Node3 -->
<g id="edge4" class="edge"><title>Node2&#45;&gt;Node3</title>
<path fill="none" stroke="midnightblue" d="M432.467,-122.372C448.397,-122.372 466.737,-122.372 484.192,-122.372"/>
<polygon fill="midnightblue" stroke="midnightblue" points="432.38,-118.872 422.38,-122.372 432.38,-125.872 432.38,-118.872"/>
</g>
<!-- Node4 -->
<g id="node7" class="node"><title>Node4</title>
<a xlink:href="midi__13_8cpp.html#afa49dd5668303c2448676c8243737c2d" target="_top" xlink:title="simulate_midi">
<polygon fill="white" stroke="black" points="656.5,-110.372 656.5,-134.372 733.5,-134.372 733.5,-110.372 656.5,-110.372"/>
<text text-anchor="middle" x="695" y="-121.372" font-family="Helvetica,sans-Serif" font-size="10.00">simulate_midi</text>
</a>
</g>
<!-- Node3&#45;&gt;Node4 -->
<g id="edge6" class="edge"><title>Node3&#45;&gt;Node4</title>
<path fill="none" stroke="midnightblue" d="M629.744,-122.372C638.949,-122.372 648.014,-122.372 656.324,-122.372"/>
<polygon fill="midnightblue" stroke="midnightblue" points="629.731,-118.872 619.731,-122.372 629.731,-125.872 629.731,-118.872"/>
</g>
<!-- Node5 -->
<g id="node9" class="node"><title>Node5</title>
<a xlink:href="arduino__core__6___u_n_o_8cpp.html#ae72d1a8d74d9ab5515962e03e7e664d6" target="_top" xlink:title="arduino_do_analog_in\l_whitecat">
<polygon fill="white" stroke="black" points="770,-137.372 770,-177.372 880,-177.372 880,-137.372 770,-137.372"/>
<text text-anchor="start" x="778" y="-164.372" font-family="Helvetica,sans-Serif" font-size="10.00">arduino_do_analog_in</text>
<text text-anchor="middle" x="825" y="-148.372" font-family="Helvetica,sans-Serif" font-size="10.00">_whitecat</text>
</a>
</g>
<!-- Node4&#45;&gt;Node5 -->
<g id="edge8" class="edge"><title>Node4&#45;&gt;Node5</title>
<path fill="none" stroke="midnightblue" d="M743.519,-135.435C752.119,-137.751 761.132,-140.177 769.898,-142.537"/>
<polygon fill="midnightblue" stroke="midnightblue" points="744.218,-131.999 733.652,-132.779 742.399,-138.758 744.218,-131.999"/>
</g>
<!-- Node8 -->
<g id="node15" class="node"><title>Node8</title>
<a xlink:href="arduino__core__6___u_n_o_8cpp.html#a219226c1cd6cc17c78e62fd4445bb445" target="_top" xlink:title="arduino_do_digital\l_in_whitecat">
<polygon fill="white" stroke="black" points="777.5,-79.3723 777.5,-119.372 872.5,-119.372 872.5,-79.3723 777.5,-79.3723"/>
<text text-anchor="start" x="785.5" y="-106.372" font-family="Helvetica,sans-Serif" font-size="10.00">arduino_do_digital</text>
<text text-anchor="middle" x="825" y="-90.3723" font-family="Helvetica,sans-Serif" font-size="10.00">_in_whitecat</text>
</a>
</g>
<!-- Node4&#45;&gt;Node8 -->
<g id="edge14" class="edge"><title>Node4&#45;&gt;Node8</title>
<path fill="none" stroke="midnightblue" d="M743.833,-113.733C754.703,-111.81 766.216,-109.773 777.05,-107.856"/>
<polygon fill="midnightblue" stroke="midnightblue" points="742.89,-110.345 733.652,-115.534 744.109,-117.238 742.89,-110.345"/>
</g>
<!-- Node6 -->
<g id="node11" class="node"><title>Node6</title>
<a xlink:href="_m_a_i_n__avec__objets_8cpp.html#ace9c8a9b37c6087c3cffef442d71d70e" target="_top" xlink:title="dixiemes_de_secondes">
<polygon fill="white" stroke="black" points="919.5,-87.3723 919.5,-111.372 1038.5,-111.372 1038.5,-87.3723 919.5,-87.3723"/>
<text text-anchor="middle" x="979" y="-98.3723" font-family="Helvetica,sans-Serif" font-size="10.00">dixiemes_de_secondes</text>
</a>
</g>
<!-- Node5&#45;&gt;Node6 -->
<g id="edge10" class="edge"><title>Node5&#45;&gt;Node6</title>
<path fill="none" stroke="midnightblue" d="M887.912,-133.678C908.133,-126.063 929.695,-117.942 946.762,-111.514"/>
<polygon fill="midnightblue" stroke="midnightblue" points="886.554,-130.449 878.43,-137.25 889.021,-137 886.554,-130.449"/>
</g>
<!-- Node7 -->
<g id="node13" class="node"><title>Node7</title>
<a xlink:href="_m_a_i_n__avec__objets_8cpp.html#ae66f6b31b5ad750f1fe042a706a4e3d4" target="_top" xlink:title="main">
<polygon fill="white" stroke="black" points="1078,-66.3723 1078,-90.3723 1116,-90.3723 1116,-66.3723 1078,-66.3723"/>
<text text-anchor="middle" x="1097" y="-77.3723" font-family="Helvetica,sans-Serif" font-size="10.00">main</text>
</a>
</g>
<!-- Node6&#45;&gt;Node7 -->
<g id="edge12" class="edge"><title>Node6&#45;&gt;Node7</title>
<path fill="none" stroke="midnightblue" d="M1048.61,-86.9844C1059.31,-85.0807 1069.52,-83.2626 1077.79,-81.7916"/>
<polygon fill="midnightblue" stroke="midnightblue" points="1047.92,-83.5512 1038.69,-88.7493 1049.15,-90.4429 1047.92,-83.5512"/>
</g>
<!-- Node8&#45;&gt;Node6 -->
<g id="edge16" class="edge"><title>Node8&#45;&gt;Node6</title>
<path fill="none" stroke="midnightblue" d="M883.131,-99.3723C895.015,-99.3723 907.539,-99.3723 919.472,-99.3723"/>
<polygon fill="midnightblue" stroke="midnightblue" points="882.882,-95.8724 872.882,-99.3723 882.882,-102.872 882.882,-95.8724"/>
</g>
<!-- Node9&#45;&gt;Node2 -->
<g id="edge20" class="edge"><title>Node9&#45;&gt;Node2</title>
<path fill="none" stroke="midnightblue" d="M301.856,-98.1444C319.963,-103.237 338.492,-108.448 353.704,-112.726"/>
<polygon fill="midnightblue" stroke="midnightblue" points="302.73,-94.7545 292.156,-95.4163 300.835,-101.493 302.73,-94.7545"/>
</g>
<!-- Node10 -->
<g id="node21" class="node"><title>Node10</title>
<a xlink:href="plot_8cpp.html#a81228c183a1b219d5f3c5a759800df4b" target="_top" xlink:title="logical_plot_menu_bare">
<polygon fill="white" stroke="black" points="328.5,-65.3723 328.5,-89.3723 447.5,-89.3723 447.5,-65.3723 328.5,-65.3723"/>
<text text-anchor="middle" x="388" y="-76.3723" font-family="Helvetica,sans-Serif" font-size="10.00">logical_plot_menu_bare</text>
</a>
</g>
<!-- Node9&#45;&gt;Node10 -->
<g id="edge22" class="edge"><title>Node9&#45;&gt;Node10</title>
<path fill="none" stroke="midnightblue" d="M302.371,-77.3723C311.13,-77.3723 319.98,-77.3723 328.497,-77.3723"/>
<polygon fill="midnightblue" stroke="midnightblue" points="302.156,-73.8724 292.156,-77.3723 302.156,-80.8724 302.156,-73.8724"/>
</g>
<!-- Node11 -->
<g id="node23" class="node"><title>Node11</title>
<a xlink:href="plot_8cpp.html#a3d45bfc1bc76a3d67ad1a8bb3d63163d" target="_top" xlink:title="Plot_window">
<polygon fill="white" stroke="black" points="516,-39.3723 516,-63.3723 588,-63.3723 588,-39.3723 516,-39.3723"/>
<text text-anchor="middle" x="552" y="-50.3723" font-family="Helvetica,sans-Serif" font-size="10.00">Plot_window</text>
</a>
</g>
<!-- Node10&#45;&gt;Node11 -->
<g id="edge24" class="edge"><title>Node10&#45;&gt;Node11</title>
<path fill="none" stroke="midnightblue" d="M457.733,-66.3171C477.8,-63.1357 498.871,-59.7953 515.989,-57.0814"/>
<polygon fill="midnightblue" stroke="midnightblue" points="457,-62.8895 447.672,-67.9122 458.096,-69.8031 457,-62.8895"/>
</g>
<!-- Node12 -->
<g id="node25" class="node"><title>Node12</title>
<a xlink:href="graphics__rebuild1_8cpp.html#ac2eae1e03fb72cc734ffbcef566483bf" target="_top" xlink:title="Boxes">
<polygon fill="white" stroke="black" points="673,-39.3723 673,-63.3723 717,-63.3723 717,-39.3723 673,-39.3723"/>
<text text-anchor="middle" x="695" y="-50.3723" font-family="Helvetica,sans-Serif" font-size="10.00">Boxes</text>
</a>
</g>
<!-- Node11&#45;&gt;Node12 -->
<g id="edge26" class="edge"><title>Node11&#45;&gt;Node12</title>
<path fill="none" stroke="midnightblue" d="M598.111,-51.3723C623.117,-51.3723 652.885,-51.3723 672.764,-51.3723"/>
<polygon fill="midnightblue" stroke="midnightblue" points="598.085,-47.8724 588.085,-51.3723 598.085,-54.8724 598.085,-47.8724"/>
</g>
<!-- Node13 -->
<g id="node27" class="node"><title>Node13</title>
<a xlink:href="_m_a_i_n__avec__objets_8cpp.html#ade8d4ba65d55c94f8ee277829d722155" target="_top" xlink:title="main_actions_on_screen">
<polygon fill="white" stroke="black" points="916.5,-42.3723 916.5,-66.3723 1041.5,-66.3723 1041.5,-42.3723 916.5,-42.3723"/>
<text text-anchor="middle" x="979" y="-53.3723" font-family="Helvetica,sans-Serif" font-size="10.00">main_actions_on_screen</text>
</a>
</g>
<!-- Node12&#45;&gt;Node13 -->
<g id="edge28" class="edge"><title>Node12&#45;&gt;Node13</title>
<path fill="none" stroke="midnightblue" d="M727.548,-51.7161C773.467,-52.2012 858.166,-53.0959 916.483,-53.7119"/>
<polygon fill="midnightblue" stroke="midnightblue" points="727.321,-48.2136 717.285,-51.6077 727.247,-55.2133 727.321,-48.2136"/>
</g>
<!-- Node13&#45;&gt;Node7 -->
<g id="edge30" class="edge"><title>Node13&#45;&gt;Node7</title>
<path fill="none" stroke="midnightblue" d="M1048.39,-68.4847C1059.22,-70.6879 1069.57,-72.793 1077.91,-74.4903"/>
<polygon fill="midnightblue" stroke="midnightblue" points="1048.84,-65.006 1038.35,-66.4426 1047.45,-71.8656 1048.84,-65.006"/>
</g>
<!-- Node14&#45;&gt;Node15 -->
<g id="edge34" class="edge"><title>Node14&#45;&gt;Node15</title>
<path fill="none" stroke="midnightblue" d="M280.902,-27.3723C298.871,-27.3723 318.909,-27.3723 336.748,-27.3723"/>
<polygon fill="midnightblue" stroke="midnightblue" points="280.877,-23.8724 270.877,-27.3723 280.877,-30.8724 280.877,-23.8724"/>
</g>
<!-- Node15&#45;&gt;Node11 -->
<g id="edge36" class="edge"><title>Node15&#45;&gt;Node11</title>
<path fill="none" stroke="midnightblue" d="M449.526,-36.3761C471.865,-39.6452 496.369,-43.2312 515.813,-46.0766"/>
<polygon fill="midnightblue" stroke="midnightblue" points="449.842,-32.8852 439.441,-34.9002 448.828,-39.8114 449.842,-32.8852"/>
</g>
</g>
</svg>
        <g id="navigator" transform="translate(0 0)" fill="#404254">
                <rect fill="#f2f5e9" fill-opacity="0.5" stroke="#606060" stroke-width=".5" x="0" y="0" width="60" height="60"/>
                <use id="zoomplus" xlink:href="#zoomPlus" x="17" y="9" onmousedown="handleZoom(evt,'in')"/>
                <use id="zoomminus" xlink:href="#zoomMin" x="42" y="9" onmousedown="handleZoom(evt,'out')"/>
                <use id="reset" xlink:href="#resetDef" x="30" y="36" onmousedown="handleReset()"/>
                <g id="arrowUp" xlink:href="#dirArrow" transform="translate(30 24)" onmousedown="handlePan(0,-1)">
                  <use xlink:href="#rim" fill="#404040">
                        <set attributeName="fill" to="#808080" begin="arrowUp.mouseover" end="arrowUp.mouseout"/>
                  </use>
                  <path fill="none" stroke="white" stroke-width="1.5" d="M0,-3.0v7 M-2.5,-0.5L0,-3.0L2.5,-0.5"/>
                </g>
                <g id="arrowRight" xlink:href="#dirArrow" transform="rotate(90) translate(36 -43)" onmousedown="handlePan(1,0)">
                  <use xlink:href="#rim" fill="#404040">
                        <set attributeName="fill" to="#808080" begin="arrowRight.mouseover" end="arrowRight.mouseout"/>
                  </use>
                  <path fill="none" stroke="white" stroke-width="1.5" d="M0,-3.0v7 M-2.5,-0.5L0,-3.0L2.5,-0.5"/>
                </g>
                <g id="arrowDown" xlink:href="#dirArrow" transform="rotate(180) translate(-30 -48)" onmousedown="handlePan(0,1)">
                  <use xlink:href="#rim" fill="#404040">
                        <set attributeName="fill" to="#808080" begin="arrowDown.mouseover" end="arrowDown.mouseout"/>
                  </use>
                  <path fill="none" stroke="white" stroke-width="1.5" d="M0,-3.0v7 M-2.5,-0.5L0,-3.0L2.5,-0.5"/>
                </g>
                <g id="arrowLeft" xlink:href="#dirArrow" transform="rotate(270) translate(-36 17)" onmousedown="handlePan(-1,0)">
                  <use xlink:href="#rim" fill="#404040">
                        <set attributeName="fill" to="#808080" begin="arrowLeft.mouseover" end="arrowLeft.mouseout"/>
                  </use>
                  <path fill="none" stroke="white" stroke-width="1.5" d="M0,-3.0v7 M-2.5,-0.5L0,-3.0L2.5,-0.5"/>
                </g>
        </g>
        <svg viewBox="0 0 15 15" width="100%" height="30px" preserveAspectRatio="xMaxYMin meet">
         <g id="arrow_out" transform="scale(0.3 0.3)">
          <a xlink:href="plot_8cpp_a23e56ec233d9db7dd7dca8c52410b847_icgraph_org.svg" target="_base">
           <rect id="button" ry="5" rx="5" y="6" x="6" height="38" width="38"
                fill="#f2f5e9" fill-opacity="0.5" stroke="#606060" stroke-width="1.0"/>
           <path id="arrow"
             d="M 11.500037,31.436501 C 11.940474,20.09759 22.043105,11.32322 32.158766,21.979434 L 37.068811,17.246167 C 37.068811,17.246167 37.088388,32 37.088388,32 L 22.160133,31.978069 C 22.160133,31.978069 26.997745,27.140456 26.997745,27.140456 C 18.528582,18.264221 13.291696,25.230495 11.500037,31.436501 z"
             style="fill:#404040;"/>
          </a>
         </g>
        </svg>
</svg>
