<?xml version="1.0" encoding="UTF-8" standalone="no"?>
<!DOCTYPE svg PUBLIC "-//W3C//DTD SVG 1.1//EN"
 "http://www.w3.org/Graphics/SVG/1.1/DTD/svg11.dtd">
<!-- Generated by graphviz version 2.26.3 (20100126.1600)
 -->
<!-- Title: plot_draw_symbol_Horiziode_assym Pages: 1 -->
<svg width="514pt" height="114pt"
 viewBox="0.00 0.00 514.00 114.00" xmlns="http://www.w3.org/2000/svg" xmlns:xlink="http://www.w3.org/1999/xlink">
<g id="graph1" class="graph" transform="scale(1 1) rotate(0) translate(4 110)">
<title>plot_draw_symbol_Horiziode_assym</title>
<polygon fill="white" stroke="white" points="-4,5 -4,-110 511,-110 511,5 -4,5"/>
<!-- Node1 -->
<g id="node1" class="node"><title>Node1</title>
<polygon fill="#bfbfbf" stroke="black" points="0,-17 0,-57 142,-57 142,-17 0,-17"/>
<text text-anchor="start" x="8" y="-44" font-family="Helvetica,sans-Serif" font-size="10.00">plot_draw_symbol_Horiziode</text>
<text text-anchor="middle" x="71" y="-28" font-family="Helvetica,sans-Serif" font-size="10.00">_assym</text>
</g>
<!-- Node2 -->
<g id="node3" class="node"><title>Node2</title>
<a xlink:href="plot9_8cpp.html#a3951a5b6b3fa49a2c1faf24e2fe0cfb4" target="_top" xlink:title="plot_print_neutral\l_symbol">
<polygon fill="white" stroke="black" points="178.5,-42 178.5,-82 269.5,-82 269.5,-42 178.5,-42"/>
<text text-anchor="start" x="186.5" y="-69" font-family="Helvetica,sans-Serif" font-size="10.00">plot_print_neutral</text>
<text text-anchor="middle" x="224" y="-53" font-family="Helvetica,sans-Serif" font-size="10.00">_symbol</text>
</a>
</g>
<!-- Node1&#45;&gt;Node2 -->
<g id="edge2" class="edge"><title>Node1&#45;&gt;Node2</title>
<path fill="none" stroke="midnightblue" d="M152.255,-50.277C161.218,-51.7415 170.093,-53.1917 178.386,-54.5468"/>
<polygon fill="midnightblue" stroke="midnightblue" points="152.559,-46.7802 142.125,-48.6217 151.43,-53.6886 152.559,-46.7802"/>
</g>
<!-- Node6 -->
<g id="node12" class="node"><title>Node6</title>
<a xlink:href="plot9_8cpp.html#ab1ead0218cc4468327a83bc54864cf3e" target="_top" xlink:title="plot_draw_plan">
<polygon fill="white" stroke="black" points="183,-0 183,-24 265,-24 265,-0 183,-0"/>
<text text-anchor="middle" x="224" y="-11" font-family="Helvetica,sans-Serif" font-size="10.00">plot_draw_plan</text>
</a>
</g>
<!-- Node1&#45;&gt;Node6 -->
<g id="edge12" class="edge"><title>Node1&#45;&gt;Node6</title>
<path fill="none" stroke="midnightblue" d="M152.233,-23.7266C162.765,-22.0058 173.176,-20.3045 182.665,-18.754"/>
<polygon fill="midnightblue" stroke="midnightblue" points="151.43,-20.3114 142.125,-25.3783 152.559,-27.2198 151.43,-20.3114"/>
</g>
<!-- Node3 -->
<g id="node5" class="node"><title>Node3</title>
<a xlink:href="plot9_8cpp.html#a08296cc3ee305018568ea075f64d5640" target="_top" xlink:title="plot_symbol_list">
<polygon fill="white" stroke="black" points="308.5,-82 308.5,-106 395.5,-106 395.5,-82 308.5,-82"/>
<text text-anchor="middle" x="352" y="-93" font-family="Helvetica,sans-Serif" font-size="10.00">plot_symbol_list</text>
</a>
</g>
<!-- Node2&#45;&gt;Node3 -->
<g id="edge4" class="edge"><title>Node2&#45;&gt;Node3</title>
<path fill="none" stroke="midnightblue" d="M279.667,-75.9168C289.211,-78.3026 299.005,-80.7513 308.183,-83.0458"/>
<polygon fill="midnightblue" stroke="midnightblue" points="280.4,-72.4923 269.849,-73.4623 278.702,-79.2833 280.4,-72.4923"/>
</g>
<!-- Node5 -->
<g id="node9" class="node"><title>Node5</title>
<a xlink:href="plot9_8cpp.html#a49a123345f2c48b1f87d85599a2ae25d" target="_top" xlink:title="plot_draw_legend">
<polygon fill="white" stroke="black" points="306,-40 306,-64 398,-64 398,-40 306,-40"/>
<text text-anchor="middle" x="352" y="-51" font-family="Helvetica,sans-Serif" font-size="10.00">plot_draw_legend</text>
</a>
</g>
<!-- Node2&#45;&gt;Node5 -->
<g id="edge8" class="edge"><title>Node2&#45;&gt;Node5</title>
<path fill="none" stroke="midnightblue" d="M279.823,-57.6388C288.43,-56.9664 297.238,-56.2783 305.61,-55.6243"/>
<polygon fill="midnightblue" stroke="midnightblue" points="279.546,-54.1497 269.849,-58.418 280.092,-61.1284 279.546,-54.1497"/>
</g>
<!-- Node4 -->
<g id="node7" class="node"><title>Node4</title>
<a xlink:href="plot9_8cpp.html#a3d45bfc1bc76a3d67ad1a8bb3d63163d" target="_top" xlink:title="Plot_window">
<polygon fill="white" stroke="black" points="434,-40 434,-64 506,-64 506,-40 434,-40"/>
<text text-anchor="middle" x="470" y="-51" font-family="Helvetica,sans-Serif" font-size="10.00">Plot_window</text>
</a>
</g>
<!-- Node3&#45;&gt;Node4 -->
<g id="edge6" class="edge"><title>Node3&#45;&gt;Node4</title>
<path fill="none" stroke="midnightblue" d="M395.367,-78.5642C408.831,-73.7718 423.467,-68.5628 436.181,-64.0373"/>
<polygon fill="midnightblue" stroke="midnightblue" points="394.061,-75.3138 385.814,-81.9645 396.409,-81.9085 394.061,-75.3138"/>
</g>
<!-- Node5&#45;&gt;Node4 -->
<g id="edge10" class="edge"><title>Node5&#45;&gt;Node4</title>
<path fill="none" stroke="midnightblue" d="M408.336,-52C416.955,-52 425.649,-52 433.682,-52"/>
<polygon fill="midnightblue" stroke="midnightblue" points="408.298,-48.5001 398.298,-52 408.298,-55.5001 408.298,-48.5001"/>
</g>
<!-- Node6&#45;&gt;Node4 -->
<g id="edge14" class="edge"><title>Node6&#45;&gt;Node4</title>
<path fill="none" stroke="midnightblue" d="M275.49,-15.2461C310.314,-18.0215 357.215,-22.8902 398,-31 409.749,-33.3362 422.352,-36.7054 433.679,-40.0634"/>
<polygon fill="midnightblue" stroke="midnightblue" points="275.328,-11.7236 265.09,-14.4507 274.794,-18.7032 275.328,-11.7236"/>
</g>
</g>
</svg>
