<?xml version="1.0" encoding="UTF-8" standalone="no"?>
<!DOCTYPE svg PUBLIC "-//W3C//DTD SVG 1.1//EN"
 "http://www.w3.org/Graphics/SVG/1.1/DTD/svg11.dtd">
<!-- Generated by graphviz version 2.26.3 (20100126.1600)
 -->
<!-- Title: send_symbols_from_calc_to_calc Pages: 1 -->
<svg width="820pt" height="194pt"
 viewBox="0.00 0.00 820.00 194.03" xmlns="http://www.w3.org/2000/svg" xmlns:xlink="http://www.w3.org/1999/xlink">
<g id="graph1" class="graph" transform="scale(1 1) rotate(0) translate(4 190.033)">
<title>send_symbols_from_calc_to_calc</title>
<polygon fill="white" stroke="white" points="-4,5 -4,-190.033 817,-190.033 817,5 -4,5"/>
<!-- Node1 -->
<g id="node1" class="node"><title>Node1</title>
<polygon fill="#bfbfbf" stroke="black" points="0,-72 0,-112 128,-112 128,-72 0,-72"/>
<text text-anchor="start" x="8" y="-99" font-family="Helvetica,sans-Serif" font-size="10.00">send_symbols_from_calc</text>
<text text-anchor="middle" x="64" y="-83" font-family="Helvetica,sans-Serif" font-size="10.00">_to_calc</text>
</g>
<!-- Node2 -->
<g id="node3" class="node"><title>Node2</title>
<a xlink:href="plot__core9_8cpp.html#a81a672760936c3fe4915f269850aa955" target="_top" xlink:title="snapshot_calc">
<polygon fill="white" stroke="black" points="188,-147 188,-171 268,-171 268,-147 188,-147"/>
<text text-anchor="middle" x="228" y="-158" font-family="Helvetica,sans-Serif" font-size="10.00">snapshot_calc</text>
</a>
</g>
<!-- Node1&#45;&gt;Node2 -->
<g id="edge2" class="edge"><title>Node1&#45;&gt;Node2</title>
<path fill="none" stroke="midnightblue" d="M104.899,-112.095C122.832,-120.571 144.255,-130.248 164,-138 168.842,-139.901 173.934,-141.775 179.043,-143.575"/>
<polygon fill="midnightblue" stroke="midnightblue" points="178.231,-146.997 188.826,-146.931 180.503,-140.376 178.231,-146.997"/>
</g>
<!-- Node3 -->
<g id="node5" class="node"><title>Node3</title>
<a xlink:href="plot__core9_8cpp.html#a23e56ec233d9db7dd7dca8c52410b847" target="_top" xlink:title="delete_selected_symbols">
<polygon fill="white" stroke="black" points="164.5,-105 164.5,-129 291.5,-129 291.5,-105 164.5,-105"/>
<text text-anchor="middle" x="228" y="-116" font-family="Helvetica,sans-Serif" font-size="10.00">delete_selected_symbols</text>
</a>
</g>
<!-- Node1&#45;&gt;Node3 -->
<g id="edge4" class="edge"><title>Node1&#45;&gt;Node3</title>
<path fill="none" stroke="midnightblue" d="M128.346,-101.809C136.86,-103.107 145.641,-104.445 154.296,-105.765"/>
<polygon fill="midnightblue" stroke="midnightblue" points="153.964,-109.254 164.377,-107.301 155.019,-102.334 153.964,-109.254"/>
</g>
<!-- Node9 -->
<g id="node18" class="node"><title>Node9</title>
<a xlink:href="plot__core9_8cpp.html#a9c23683c01563bbc9fceacea0cfd1282" target="_top" xlink:title="add_selected_symbols\l_to_calc">
<polygon fill="white" stroke="black" points="170,-47 170,-87 286,-87 286,-47 170,-47"/>
<text text-anchor="start" x="178" y="-74" font-family="Helvetica,sans-Serif" font-size="10.00">add_selected_symbols</text>
<text text-anchor="middle" x="228" y="-58" font-family="Helvetica,sans-Serif" font-size="10.00">_to_calc</text>
</a>
</g>
<!-- Node1&#45;&gt;Node9 -->
<g id="edge18" class="edge"><title>Node1&#45;&gt;Node9</title>
<path fill="none" stroke="midnightblue" d="M128.346,-82.1911C138.751,-80.605 149.554,-78.9583 160.041,-77.3597"/>
<polygon fill="midnightblue" stroke="midnightblue" points="160.617,-80.8124 169.975,-75.8453 159.562,-73.8923 160.617,-80.8124"/>
</g>
<!-- Node14 -->
<g id="node30" class="node"><title>Node14</title>
<a xlink:href="plot__core9_8cpp.html#ac16f49a033e4ae3af728e3789f080e51" target="_top" xlink:title="reset_symbols_selected">
<polygon fill="white" stroke="black" points="167,-5 167,-29 289,-29 289,-5 167,-5"/>
<text text-anchor="middle" x="228" y="-16" font-family="Helvetica,sans-Serif" font-size="10.00">reset_symbols_selected</text>
</a>
</g>
<!-- Node1&#45;&gt;Node14 -->
<g id="edge32" class="edge"><title>Node1&#45;&gt;Node14</title>
<path fill="none" stroke="midnightblue" d="M97.5033,-71.9646C116.58,-61.0554 141.161,-47.8206 164,-38 168.465,-36.0801 173.167,-34.23 177.912,-32.4778"/>
<polygon fill="midnightblue" stroke="midnightblue" points="179.391,-35.6667 187.648,-29.0273 177.053,-29.0688 179.391,-35.6667"/>
</g>
<!-- Node4 -->
<g id="node7" class="node"><title>Node4</title>
<a xlink:href="plot__core9_8cpp.html#a58fe8fc317633b7cfd679c95c67193b9" target="_top" xlink:title="clear_symbol_slot">
<polygon fill="white" stroke="black" points="524.5,-153 524.5,-177 619.5,-177 619.5,-153 524.5,-153"/>
<text text-anchor="middle" x="572" y="-164" font-family="Helvetica,sans-Serif" font-size="10.00">clear_symbol_slot</text>
</a>
</g>
<!-- Node3&#45;&gt;Node4 -->
<g id="edge6" class="edge"><title>Node3&#45;&gt;Node4</title>
<path fill="none" stroke="midnightblue" d="M272.743,-129.058C279.395,-131.591 286.019,-134.561 292,-138 310.558,-148.671 307.99,-162.392 328,-170 388.394,-192.962 463.417,-186.794 514.21,-178.052"/>
<polygon fill="midnightblue" stroke="midnightblue" points="515.133,-181.442 524.35,-176.217 513.887,-174.554 515.133,-181.442"/>
</g>
<!-- Node6 -->
<g id="node11" class="node"><title>Node6</title>
<a xlink:href="plot__core9_8cpp.html#a66c5771a91b5557afae81e1ad42603a6" target="_top" xlink:title="reorder_plan">
<polygon fill="white" stroke="black" points="362,-137 362,-161 432,-161 432,-137 362,-137"/>
<text text-anchor="middle" x="397" y="-148" font-family="Helvetica,sans-Serif" font-size="10.00">reorder_plan</text>
</a>
</g>
<!-- Node3&#45;&gt;Node6 -->
<g id="edge10" class="edge"><title>Node3&#45;&gt;Node6</title>
<path fill="none" stroke="midnightblue" d="M291.41,-129.007C311.483,-132.807 333.252,-136.929 351.78,-140.438"/>
<polygon fill="midnightblue" stroke="midnightblue" points="351.232,-143.896 361.709,-142.318 352.534,-137.018 351.232,-143.896"/>
</g>
<!-- Node8 -->
<g id="node16" class="node"><title>Node8</title>
<a xlink:href="plot__core9_8cpp.html#ad2a3f7bed24f6e271a1d1a42ebc81ff5" target="_top" xlink:title="recount_symbols_on_calc">
<polygon fill="white" stroke="black" points="332,-95 332,-119 462,-119 462,-95 332,-95"/>
<text text-anchor="middle" x="397" y="-106" font-family="Helvetica,sans-Serif" font-size="10.00">recount_symbols_on_calc</text>
</a>
</g>
<!-- Node3&#45;&gt;Node8 -->
<g id="edge16" class="edge"><title>Node3&#45;&gt;Node8</title>
<path fill="none" stroke="midnightblue" d="M291.892,-113.219C301.604,-112.645 311.703,-112.047 321.632,-111.46"/>
<polygon fill="midnightblue" stroke="midnightblue" points="322.119,-114.937 331.894,-110.852 321.705,-107.949 322.119,-114.937"/>
</g>
<!-- Node5 -->
<g id="node9" class="node"><title>Node5</title>
<a xlink:href="plot__core9_8cpp.html#a4afbbba7a97b479ffbf4b9b190c40b29" target="_top" xlink:title="clear_grouped_to_symbols">
<polygon fill="white" stroke="black" points="678.5,-153 678.5,-177 811.5,-177 811.5,-153 678.5,-153"/>
<text text-anchor="middle" x="745" y="-164" font-family="Helvetica,sans-Serif" font-size="10.00">clear_grouped_to_symbols</text>
</a>
</g>
<!-- Node4&#45;&gt;Node5 -->
<g id="edge8" class="edge"><title>Node4&#45;&gt;Node5</title>
<path fill="none" stroke="midnightblue" d="M619.731,-165C634.722,-165 651.672,-165 668.149,-165"/>
<polygon fill="midnightblue" stroke="midnightblue" points="668.325,-168.5 678.325,-165 668.325,-161.5 668.325,-168.5"/>
</g>
<!-- Node6&#45;&gt;Node4 -->
<g id="edge14" class="edge"><title>Node6&#45;&gt;Node4</title>
<path fill="none" stroke="midnightblue" d="M432.414,-152.238C455.882,-154.384 487.211,-157.248 514.241,-159.719"/>
<polygon fill="midnightblue" stroke="midnightblue" points="514.088,-163.22 524.365,-160.645 514.725,-156.249 514.088,-163.22"/>
</g>
<!-- Node7 -->
<g id="node13" class="node"><title>Node7</title>
<a xlink:href="plot__core9_8cpp.html#a3aa259226da63745d5e779178c8111f2" target="_top" xlink:title="copy_symbol_to_emply_slot">
<polygon fill="white" stroke="black" points="502,-102 502,-126 642,-126 642,-102 502,-102"/>
<text text-anchor="middle" x="572" y="-113" font-family="Helvetica,sans-Serif" font-size="10.00">copy_symbol_to_emply_slot</text>
</a>
</g>
<!-- Node6&#45;&gt;Node7 -->
<g id="edge12" class="edge"><title>Node6&#45;&gt;Node7</title>
<path fill="none" stroke="midnightblue" d="M432.414,-141.917C452.339,-137.932 477.929,-132.814 501.745,-128.051"/>
<polygon fill="midnightblue" stroke="midnightblue" points="502.701,-131.429 511.821,-126.036 501.329,-124.565 502.701,-131.429"/>
</g>
<!-- Node9&#45;&gt;Node7 -->
<g id="edge20" class="edge"><title>Node9&#45;&gt;Node7</title>
<path fill="none" stroke="midnightblue" d="M286.07,-68.7401C334.481,-70.8819 405.118,-75.6144 466,-86 484.997,-89.2407 505.549,-94.2979 523.453,-99.2277"/>
<polygon fill="midnightblue" stroke="midnightblue" points="522.527,-102.603 533.101,-101.941 524.422,-95.8644 522.527,-102.603"/>
</g>
<!-- Node10 -->
<g id="node21" class="node"><title>Node10</title>
<a xlink:href="plot__core9_8cpp.html#a30a3e9357adedd3ded2f2ded796e81e2" target="_top" xlink:title="plot_generate_appareils_list">
<polygon fill="white" stroke="black" points="328.5,-15 328.5,-39 465.5,-39 465.5,-15 328.5,-15"/>
<text text-anchor="middle" x="397" y="-26" font-family="Helvetica,sans-Serif" font-size="10.00">plot_generate_appareils_list</text>
</a>
</g>
<!-- Node9&#45;&gt;Node10 -->
<g id="edge22" class="edge"><title>Node9&#45;&gt;Node10</title>
<path fill="none" stroke="midnightblue" d="M286.16,-53.2343C302.29,-49.4165 319.843,-45.262 336.124,-41.4085"/>
<polygon fill="midnightblue" stroke="midnightblue" points="337.147,-44.7631 346.072,-39.0539 335.535,-37.9513 337.147,-44.7631"/>
</g>
<!-- Node11 -->
<g id="node23" class="node"><title>Node11</title>
<a xlink:href="plot__core9_8cpp.html#ab76f6823319f1363767e9b0027c633a9" target="_top" xlink:title="plot_reset_list_appareils">
<polygon fill="white" stroke="black" points="511,-42 511,-66 633,-66 633,-42 511,-42"/>
<text text-anchor="middle" x="572" y="-53" font-family="Helvetica,sans-Serif" font-size="10.00">plot_reset_list_appareils</text>
</a>
</g>
<!-- Node10&#45;&gt;Node11 -->
<g id="edge24" class="edge"><title>Node10&#45;&gt;Node11</title>
<path fill="none" stroke="midnightblue" d="M465.662,-37.5936C477.216,-39.3762 489.23,-41.2297 500.845,-43.0218"/>
<polygon fill="midnightblue" stroke="midnightblue" points="500.511,-46.5116 510.928,-44.5774 501.579,-39.5935 500.511,-46.5116"/>
</g>
<!-- Node13 -->
<g id="node27" class="node"><title>Node13</title>
<a xlink:href="plot__core9_8cpp.html#aee1db260c83091fb31c75951b8c9b091" target="_top" xlink:title="plot_generate_gels_list">
<polygon fill="white" stroke="black" points="514,-0 514,-24 630,-24 630,-0 514,-0"/>
<text text-anchor="middle" x="572" y="-11" font-family="Helvetica,sans-Serif" font-size="10.00">plot_generate_gels_list</text>
</a>
</g>
<!-- Node10&#45;&gt;Node13 -->
<g id="edge28" class="edge"><title>Node10&#45;&gt;Node13</title>
<path fill="none" stroke="midnightblue" d="M465.662,-21.1147C478.081,-20.0502 491.031,-18.9402 503.446,-17.8761"/>
<polygon fill="midnightblue" stroke="midnightblue" points="504.061,-21.3363 513.726,-16.9949 503.463,-14.3618 504.061,-21.3363"/>
</g>
<!-- Node12 -->
<g id="node25" class="node"><title>Node12</title>
<a xlink:href="plot__core9_8cpp.html#a34fc01d14d473ebfbc62c6555fd44b76" target="_top" xlink:title="plot_reset_list_gelat">
<polygon fill="white" stroke="black" points="693,-21 693,-45 797,-45 797,-21 693,-21"/>
<text text-anchor="middle" x="745" y="-32" font-family="Helvetica,sans-Serif" font-size="10.00">plot_reset_list_gelat</text>
</a>
</g>
<!-- Node11&#45;&gt;Node12 -->
<g id="edge26" class="edge"><title>Node11&#45;&gt;Node12</title>
<path fill="none" stroke="midnightblue" d="M633.48,-46.5371C649.414,-44.6029 666.587,-42.5183 682.569,-40.5783"/>
<polygon fill="midnightblue" stroke="midnightblue" points="683.369,-44.007 692.874,-39.3274 682.525,-37.058 683.369,-44.007"/>
</g>
<!-- Node13&#45;&gt;Node12 -->
<g id="edge30" class="edge"><title>Node13&#45;&gt;Node12</title>
<path fill="none" stroke="midnightblue" d="M630.088,-19.0511C647.073,-21.113 665.703,-23.3744 682.926,-25.465"/>
<polygon fill="midnightblue" stroke="midnightblue" points="682.532,-28.9428 692.881,-26.6734 683.375,-21.9938 682.532,-28.9428"/>
</g>
</g>
</svg>
