<?xml version="1.0" encoding="UTF-8" standalone="no"?>
<!DOCTYPE svg PUBLIC "-//W3C//DTD SVG 1.1//EN"
 "http://www.w3.org/Graphics/SVG/1.1/DTD/svg11.dtd">
<!-- Generated by graphviz version 2.26.3 (20100126.1600)
 -->
<!-- Title: check_select_deselect_symbol Pages: 1 -->
<svg width="282pt" height="74pt"
 viewBox="0.00 0.00 282.00 74.00" xmlns="http://www.w3.org/2000/svg" xmlns:xlink="http://www.w3.org/1999/xlink">
<g id="graph1" class="graph" transform="scale(1 1) rotate(0) translate(4 70)">
<title>check_select_deselect_symbol</title>
<polygon fill="white" stroke="white" points="-4,5 -4,-70 279,-70 279,5 -4,5"/>
<!-- Node1 -->
<g id="node1" class="node"><title>Node1</title>
<polygon fill="#bfbfbf" stroke="black" points="0,-13 0,-53 116,-53 116,-13 0,-13"/>
<text text-anchor="start" x="8" y="-40" font-family="Helvetica,sans-Serif" font-size="10.00">check_select_deselect</text>
<text text-anchor="middle" x="58" y="-24" font-family="Helvetica,sans-Serif" font-size="10.00">_symbol</text>
</g>
<!-- Node2 -->
<g id="node3" class="node"><title>Node2</title>
<a xlink:href="_c_o_r_e__6_8cpp.html#a9574e0b790211959c7398e42468410d8" target="_top" xlink:title="toggle">
<polygon fill="white" stroke="black" points="191.5,-42 191.5,-66 234.5,-66 234.5,-42 191.5,-42"/>
<text text-anchor="middle" x="213" y="-53" font-family="Helvetica,sans-Serif" font-size="10.00">toggle</text>
</a>
</g>
<!-- Node1&#45;&gt;Node2 -->
<g id="edge2" class="edge"><title>Node1&#45;&gt;Node2</title>
<path fill="none" stroke="midnightblue" d="M116.157,-40.8794C138.233,-43.8703 162.547,-47.1644 181.289,-49.7037"/>
<polygon fill="midnightblue" stroke="midnightblue" points="180.97,-53.1924 191.35,-51.0667 181.91,-46.2558 180.97,-53.1924"/>
</g>
<!-- Node3 -->
<g id="node5" class="node"><title>Node3</title>
<a xlink:href="plot__core9_8cpp.html#ac16f49a033e4ae3af728e3789f080e51" target="_top" xlink:title="reset_symbols_selected">
<polygon fill="white" stroke="black" points="152,-0 152,-24 274,-24 274,-0 152,-0"/>
<text text-anchor="middle" x="213" y="-11" font-family="Helvetica,sans-Serif" font-size="10.00">reset_symbols_selected</text>
</a>
</g>
<!-- Node1&#45;&gt;Node3 -->
<g id="edge4" class="edge"><title>Node1&#45;&gt;Node3</title>
<path fill="none" stroke="midnightblue" d="M116.157,-25.1206C124.554,-23.983 133.275,-22.8015 141.889,-21.6343"/>
<polygon fill="midnightblue" stroke="midnightblue" points="142.488,-25.0853 151.928,-20.2743 141.548,-18.1487 142.488,-25.0853"/>
</g>
</g>
</svg>
