<?xml version="1.0" encoding="UTF-8" standalone="no"?>
<!DOCTYPE svg PUBLIC "-//W3C//DTD SVG 1.1//EN"
 "http://www.w3.org/Graphics/SVG/1.1/DTD/svg11.dtd">
<!-- Generated by graphviz version 2.26.3 (20100126.1600)
 -->
<!-- Title: plot_draw_symbol_Horiziode_sym Pages: 1 -->
<svg width="722pt" height="74pt"
 viewBox="0.00 0.00 722.00 74.00" xmlns="http://www.w3.org/2000/svg" xmlns:xlink="http://www.w3.org/1999/xlink">
<g id="graph1" class="graph" transform="scale(1 1) rotate(0) translate(4 70)">
<title>plot_draw_symbol_Horiziode_sym</title>
<polygon fill="white" stroke="white" points="-4,5 -4,-70 719,-70 719,5 -4,5"/>
<!-- Node1 -->
<g id="node1" class="node"><title>Node1</title>
<polygon fill="#bfbfbf" stroke="black" points="0,-21 0,-45 166,-45 166,-21 0,-21"/>
<text text-anchor="middle" x="83" y="-32" font-family="Helvetica,sans-Serif" font-size="10.00">plot_draw_symbol_Horiziode_sym</text>
</g>
<!-- Node2 -->
<g id="node3" class="node"><title>Node2</title>
<a xlink:href="plot_8cpp.html#a08296cc3ee305018568ea075f64d5640" target="_top" xlink:title="plot_symbol_list">
<polygon fill="white" stroke="black" points="202.5,-42 202.5,-66 289.5,-66 289.5,-42 202.5,-42"/>
<text text-anchor="middle" x="246" y="-53" font-family="Helvetica,sans-Serif" font-size="10.00">plot_symbol_list</text>
</a>
</g>
<!-- Node1&#45;&gt;Node2 -->
<g id="edge2" class="edge"><title>Node1&#45;&gt;Node2</title>
<path fill="none" stroke="midnightblue" d="M176.525,-45.0493C185.432,-46.1967 194.142,-47.3189 202.219,-48.3594"/>
<polygon fill="midnightblue" stroke="midnightblue" points="176.775,-41.5526 166.41,-43.7461 175.881,-48.4953 176.775,-41.5526"/>
</g>
<!-- Node7 -->
<g id="node13" class="node"><title>Node7</title>
<a xlink:href="plot_8cpp.html#ab1ead0218cc4468327a83bc54864cf3e" target="_top" xlink:title="plot_draw_plan">
<polygon fill="white" stroke="black" points="205,-0 205,-24 287,-24 287,-0 205,-0"/>
<text text-anchor="middle" x="246" y="-11" font-family="Helvetica,sans-Serif" font-size="10.00">plot_draw_plan</text>
</a>
</g>
<!-- Node1&#45;&gt;Node7 -->
<g id="edge12" class="edge"><title>Node1&#45;&gt;Node7</title>
<path fill="none" stroke="midnightblue" d="M176.362,-20.9718C186.256,-19.697 195.912,-18.453 204.73,-17.317"/>
<polygon fill="midnightblue" stroke="midnightblue" points="175.881,-17.5047 166.41,-22.2539 176.775,-24.4474 175.881,-17.5047"/>
</g>
<!-- Node3 -->
<g id="node5" class="node"><title>Node3</title>
<a xlink:href="plot_8cpp.html#a3d45bfc1bc76a3d67ad1a8bb3d63163d" target="_top" xlink:title="Plot_window">
<polygon fill="white" stroke="black" points="326,-21 326,-45 398,-45 398,-21 326,-21"/>
<text text-anchor="middle" x="362" y="-32" font-family="Helvetica,sans-Serif" font-size="10.00">Plot_window</text>
</a>
</g>
<!-- Node2&#45;&gt;Node3 -->
<g id="edge4" class="edge"><title>Node2&#45;&gt;Node3</title>
<path fill="none" stroke="midnightblue" d="M299.485,-44.3175C308.401,-42.7034 317.46,-41.0633 325.812,-39.5512"/>
<polygon fill="midnightblue" stroke="midnightblue" points="298.741,-40.8951 289.524,-46.1206 299.988,-47.7832 298.741,-40.8951"/>
</g>
<!-- Node4 -->
<g id="node7" class="node"><title>Node4</title>
<a xlink:href="graphics__rebuild1_8cpp.html#ac2eae1e03fb72cc734ffbcef566483bf" target="_top" xlink:title="Boxes">
<polygon fill="white" stroke="black" points="434,-21 434,-45 478,-45 478,-21 434,-21"/>
<text text-anchor="middle" x="456" y="-32" font-family="Helvetica,sans-Serif" font-size="10.00">Boxes</text>
</a>
</g>
<!-- Node3&#45;&gt;Node4 -->
<g id="edge6" class="edge"><title>Node3&#45;&gt;Node4</title>
<path fill="none" stroke="midnightblue" d="M408.084,-33C417.028,-33 426.017,-33 433.753,-33"/>
<polygon fill="midnightblue" stroke="midnightblue" points="408.074,-29.5001 398.074,-33 408.074,-36.5001 408.074,-29.5001"/>
</g>
<!-- Node5 -->
<g id="node9" class="node"><title>Node5</title>
<a xlink:href="_m_a_i_n__avec__objets_8cpp.html#ade8d4ba65d55c94f8ee277829d722155" target="_top" xlink:title="main_actions_on_screen">
<polygon fill="white" stroke="black" points="514.5,-21 514.5,-45 639.5,-45 639.5,-21 514.5,-21"/>
<text text-anchor="middle" x="577" y="-32" font-family="Helvetica,sans-Serif" font-size="10.00">main_actions_on_screen</text>
</a>
</g>
<!-- Node4&#45;&gt;Node5 -->
<g id="edge8" class="edge"><title>Node4&#45;&gt;Node5</title>
<path fill="none" stroke="midnightblue" d="M488.244,-33C496.32,-33 505.263,-33 514.271,-33"/>
<polygon fill="midnightblue" stroke="midnightblue" points="488.193,-29.5001 478.193,-33 488.193,-36.5001 488.193,-29.5001"/>
</g>
<!-- Node6 -->
<g id="node11" class="node"><title>Node6</title>
<a xlink:href="_m_a_i_n__avec__objets_8cpp.html#ae66f6b31b5ad750f1fe042a706a4e3d4" target="_top" xlink:title="main">
<polygon fill="white" stroke="black" points="676,-21 676,-45 714,-45 714,-21 676,-21"/>
<text text-anchor="middle" x="695" y="-32" font-family="Helvetica,sans-Serif" font-size="10.00">main</text>
</a>
</g>
<!-- Node5&#45;&gt;Node6 -->
<g id="edge10" class="edge"><title>Node5&#45;&gt;Node6</title>
<path fill="none" stroke="midnightblue" d="M649.837,-33C659.336,-33 668.327,-33 675.749,-33"/>
<polygon fill="midnightblue" stroke="midnightblue" points="649.8,-29.5001 639.8,-33 649.8,-36.5001 649.8,-29.5001"/>
</g>
<!-- Node7&#45;&gt;Node3 -->
<g id="edge14" class="edge"><title>Node7&#45;&gt;Node3</title>
<path fill="none" stroke="midnightblue" d="M297.181,-21.2654C306.869,-23.0193 316.814,-24.8198 325.915,-26.4674"/>
<polygon fill="midnightblue" stroke="midnightblue" points="297.687,-17.8004 287.224,-19.4629 296.44,-24.6884 297.687,-17.8004"/>
</g>
</g>
</svg>
