<?xml version="1.0" encoding="UTF-8" standalone="no"?>
<!DOCTYPE svg PUBLIC "-//W3C//DTD SVG 1.1//EN"
 "http://www.w3.org/Graphics/SVG/1.1/DTD/svg11.dtd">
<!-- Generated by graphviz version 2.26.3 (20100126.1600)
 -->
<!-- Title: draw_gels_of_a_symbol Pages: 1 -->
<svg width="880pt" height="568pt"
 viewBox="0.00 0.00 880.00 568.00" xmlns="http://www.w3.org/2000/svg" xmlns:xlink="http://www.w3.org/1999/xlink">
<g id="graph1" class="graph" transform="scale(1 1) rotate(0) translate(4 564)">
<title>draw_gels_of_a_symbol</title>
<polygon fill="white" stroke="white" points="-4,5 -4,-564 877,-564 877,5 -4,5"/>
<!-- Node1 -->
<g id="node1" class="node"><title>Node1</title>
<polygon fill="#bfbfbf" stroke="black" points="0,-252 0,-276 122,-276 122,-252 0,-252"/>
<text text-anchor="middle" x="61" y="-263" font-family="Helvetica,sans-Serif" font-size="10.00">draw_gels_of_a_symbol</text>
</g>
<!-- Node2 -->
<g id="node3" class="node"><title>Node2</title>
<a xlink:href="plot_8cpp.html#acaab7be34c6f649c5bc3d1c287a3b59e" target="_top" xlink:title="plot_draw_symbol_pc">
<polygon fill="white" stroke="black" points="185.5,-252 185.5,-276 296.5,-276 296.5,-252 185.5,-252"/>
<text text-anchor="middle" x="241" y="-263" font-family="Helvetica,sans-Serif" font-size="10.00">plot_draw_symbol_pc</text>
</a>
</g>
<!-- Node1&#45;&gt;Node2 -->
<g id="edge2" class="edge"><title>Node1&#45;&gt;Node2</title>
<path fill="none" stroke="midnightblue" d="M132.432,-264C150.057,-264 168.675,-264 185.421,-264"/>
<polygon fill="midnightblue" stroke="midnightblue" points="132.191,-260.5 122.191,-264 132.191,-267.5 132.191,-260.5"/>
</g>
<!-- Node9 -->
<g id="node18" class="node"><title>Node9</title>
<a xlink:href="plot_8cpp.html#a98f3f267050432cea030db5fb0f3d41b" target="_top" xlink:title="plot_draw_symbol_fresnel">
<polygon fill="white" stroke="black" points="176,-210 176,-234 306,-234 306,-210 176,-210"/>
<text text-anchor="middle" x="241" y="-221" font-family="Helvetica,sans-Serif" font-size="10.00">plot_draw_symbol_fresnel</text>
</a>
</g>
<!-- Node1&#45;&gt;Node9 -->
<g id="edge18" class="edge"><title>Node1&#45;&gt;Node9</title>
<path fill="none" stroke="midnightblue" d="M122.402,-249.673C144.207,-244.585 168.51,-238.914 189.412,-234.037"/>
<polygon fill="midnightblue" stroke="midnightblue" points="121.524,-246.284 112.581,-251.964 123.115,-253.101 121.524,-246.284"/>
</g>
<!-- Node10 -->
<g id="node22" class="node"><title>Node10</title>
<a xlink:href="plot_8cpp.html#adfbdc489a971fe612c0ab544a97ec797" target="_top" xlink:title="plot_draw_symbol_decoupe_1">
<polygon fill="white" stroke="black" points="167,-168 167,-192 315,-192 315,-168 167,-168"/>
<text text-anchor="middle" x="241" y="-179" font-family="Helvetica,sans-Serif" font-size="10.00">plot_draw_symbol_decoupe_1</text>
</a>
</g>
<!-- Node1&#45;&gt;Node10 -->
<g id="edge24" class="edge"><title>Node1&#45;&gt;Node10</title>
<path fill="none" stroke="midnightblue" d="M84.2414,-245.762C103.152,-231.721 131.033,-212.782 158,-201 165.9,-197.548 174.481,-194.583 183.028,-192.06"/>
<polygon fill="midnightblue" stroke="midnightblue" points="82.0869,-243.003 76.2195,-251.825 86.3077,-248.587 82.0869,-243.003"/>
</g>
<!-- Node11 -->
<g id="node26" class="node"><title>Node11</title>
<a xlink:href="plot_8cpp.html#ae4f9b818a3163cb729b2328c056ec3d6" target="_top" xlink:title="plot_draw_symbol_decoupe_2">
<polygon fill="white" stroke="black" points="167,-126 167,-150 315,-150 315,-126 167,-126"/>
<text text-anchor="middle" x="241" y="-137" font-family="Helvetica,sans-Serif" font-size="10.00">plot_draw_symbol_decoupe_2</text>
</a>
</g>
<!-- Node1&#45;&gt;Node11 -->
<g id="edge30" class="edge"><title>Node1&#45;&gt;Node11</title>
<path fill="none" stroke="midnightblue" d="M74.3957,-243.443C91.0914,-219.495 121.872,-180.48 158,-159 163.877,-155.506 170.322,-152.589 176.941,-150.156"/>
<polygon fill="midnightblue" stroke="midnightblue" points="71.4317,-241.577 68.7047,-251.815 77.2209,-245.512 71.4317,-241.577"/>
</g>
<!-- Node12 -->
<g id="node30" class="node"><title>Node12</title>
<a xlink:href="plot_8cpp.html#ac30ccfb35cb0d8b4bd9bb457c11b7a99" target="_top" xlink:title="plot_draw_symbol_decoupe_3">
<polygon fill="white" stroke="black" points="167,-84 167,-108 315,-108 315,-84 167,-84"/>
<text text-anchor="middle" x="241" y="-95" font-family="Helvetica,sans-Serif" font-size="10.00">plot_draw_symbol_decoupe_3</text>
</a>
</g>
<!-- Node1&#45;&gt;Node12 -->
<g id="edge36" class="edge"><title>Node1&#45;&gt;Node12</title>
<path fill="none" stroke="midnightblue" d="M69.1966,-242.477C82.6557,-210.113 112.565,-149.276 158,-117 162.968,-113.471 168.474,-110.533 174.218,-108.088"/>
<polygon fill="midnightblue" stroke="midnightblue" points="65.8863,-241.328 65.4059,-251.912 72.3817,-243.938 65.8863,-241.328"/>
</g>
<!-- Node13 -->
<g id="node34" class="node"><title>Node13</title>
<a xlink:href="plot_8cpp.html#a1478c0e2d5b0e364508e3e3c68e30a30" target="_top" xlink:title="plot_draw_symbol_Par_1">
<polygon fill="white" stroke="black" points="178,-42 178,-66 304,-66 304,-42 178,-42"/>
<text text-anchor="middle" x="241" y="-53" font-family="Helvetica,sans-Serif" font-size="10.00">plot_draw_symbol_Par_1</text>
</a>
</g>
<!-- Node1&#45;&gt;Node13 -->
<g id="edge42" class="edge"><title>Node1&#45;&gt;Node13</title>
<path fill="none" stroke="midnightblue" d="M65.9991,-241.825C76.1466,-202.074 103.017,-118.759 158,-75 163.931,-70.2794 170.794,-66.6063 177.98,-63.7505"/>
<polygon fill="midnightblue" stroke="midnightblue" points="62.5852,-241.052 63.621,-251.596 69.3866,-242.708 62.5852,-241.052"/>
</g>
<!-- Node14 -->
<g id="node38" class="node"><title>Node14</title>
<a xlink:href="plot_8cpp.html#a05da6dea7c2e58d755b59ccdd736c71e" target="_top" xlink:title="plot_draw_symbol_Par_2">
<polygon fill="white" stroke="black" points="178,-0 178,-24 304,-24 304,-0 178,-0"/>
<text text-anchor="middle" x="241" y="-11" font-family="Helvetica,sans-Serif" font-size="10.00">plot_draw_symbol_Par_2</text>
</a>
</g>
<!-- Node1&#45;&gt;Node14 -->
<g id="edge48" class="edge"><title>Node1&#45;&gt;Node14</title>
<path fill="none" stroke="midnightblue" d="M63.7554,-241.594C70.6706,-195.311 93.121,-88.8248 158,-33 163.746,-28.0557 170.497,-24.248 177.624,-21.3202"/>
<polygon fill="midnightblue" stroke="midnightblue" points="60.2535,-241.366 62.3466,-251.752 67.1872,-242.328 60.2535,-241.366"/>
</g>
<!-- Node15 -->
<g id="node42" class="node"><title>Node15</title>
<a xlink:href="plot_8cpp.html#a6bfda7a84f045ed8efc2ba17b9bcdf9f" target="_top" xlink:title="plot_draw_symbol_Par_3">
<polygon fill="white" stroke="black" points="178,-536 178,-560 304,-560 304,-536 178,-536"/>
<text text-anchor="middle" x="241" y="-547" font-family="Helvetica,sans-Serif" font-size="10.00">plot_draw_symbol_Par_3</text>
</a>
</g>
<!-- Node1&#45;&gt;Node15 -->
<g id="edge54" class="edge"><title>Node1&#45;&gt;Node15</title>
<path fill="none" stroke="midnightblue" d="M62.4509,-286.285C66.9896,-336.989 85.3475,-461.637 158,-527 163.746,-532.169 170.582,-536.105 177.829,-539.095"/>
<polygon fill="midnightblue" stroke="midnightblue" points="65.9233,-285.797 61.6408,-276.107 58.9454,-286.353 65.9233,-285.797"/>
</g>
<!-- Node16 -->
<g id="node46" class="node"><title>Node16</title>
<a xlink:href="plot_8cpp.html#a77e26958ec69326342bfedccaf1a4087" target="_top" xlink:title="plot_draw_symbol_Par_4">
<polygon fill="white" stroke="black" points="178,-494 178,-518 304,-518 304,-494 178,-494"/>
<text text-anchor="middle" x="241" y="-505" font-family="Helvetica,sans-Serif" font-size="10.00">plot_draw_symbol_Par_4</text>
</a>
</g>
<!-- Node1&#45;&gt;Node16 -->
<g id="edge60" class="edge"><title>Node1&#45;&gt;Node16</title>
<path fill="none" stroke="midnightblue" d="M64.2238,-286.37C71.8943,-331.161 95.4991,-432.088 158,-485 163.786,-489.898 170.56,-493.678 177.7,-496.591"/>
<polygon fill="midnightblue" stroke="midnightblue" points="67.6412,-285.575 62.603,-276.255 60.7294,-286.683 67.6412,-285.575"/>
</g>
<!-- Node17 -->
<g id="node50" class="node"><title>Node17</title>
<a xlink:href="plot_8cpp.html#a56aab34540f498ce376c7e7afda64992" target="_top" xlink:title="plot_draw_symbol_Horiziode\l_assym">
<polygon fill="white" stroke="black" points="170,-436 170,-476 312,-476 312,-436 170,-436"/>
<text text-anchor="start" x="178" y="-463" font-family="Helvetica,sans-Serif" font-size="10.00">plot_draw_symbol_Horiziode</text>
<text text-anchor="middle" x="241" y="-447" font-family="Helvetica,sans-Serif" font-size="10.00">_assym</text>
</a>
</g>
<!-- Node1&#45;&gt;Node17 -->
<g id="edge66" class="edge"><title>Node1&#45;&gt;Node17</title>
<path fill="none" stroke="midnightblue" d="M68.3847,-285.835C81.2157,-320.587 110.856,-388.48 158,-427 162.019,-430.284 166.434,-433.207 171.07,-435.807"/>
<polygon fill="midnightblue" stroke="midnightblue" points="71.5981,-284.425 64.9416,-276.183 65.005,-286.777 71.5981,-284.425"/>
</g>
<!-- Node18 -->
<g id="node54" class="node"><title>Node18</title>
<a xlink:href="plot_8cpp.html#af36d74b701e4c9a4170f1b567c635fe5" target="_top" xlink:title="plot_draw_symbol_Horiziode_sym">
<polygon fill="white" stroke="black" points="158,-394 158,-418 324,-418 324,-394 158,-394"/>
<text text-anchor="middle" x="241" y="-405" font-family="Helvetica,sans-Serif" font-size="10.00">plot_draw_symbol_Horiziode_sym</text>
</a>
</g>
<!-- Node1&#45;&gt;Node18 -->
<g id="edge72" class="edge"><title>Node1&#45;&gt;Node18</title>
<path fill="none" stroke="midnightblue" d="M72.2015,-285.227C87.7468,-312.567 118.468,-359.581 158,-385 163.501,-388.537 169.563,-391.479 175.831,-393.925"/>
<polygon fill="midnightblue" stroke="midnightblue" points="75.0709,-283.183 67.1727,-276.121 68.9433,-286.567 75.0709,-283.183"/>
</g>
<!-- Node19 -->
<g id="node58" class="node"><title>Node19</title>
<a xlink:href="plot_8cpp.html#aa5fd69b695802e2893eabfc0362205b4" target="_top" xlink:title="plot_draw_symbol_BT">
<polygon fill="white" stroke="black" points="184.5,-352 184.5,-376 297.5,-376 297.5,-352 184.5,-352"/>
<text text-anchor="middle" x="241" y="-363" font-family="Helvetica,sans-Serif" font-size="10.00">plot_draw_symbol_BT</text>
</a>
</g>
<!-- Node1&#45;&gt;Node19 -->
<g id="edge78" class="edge"><title>Node1&#45;&gt;Node19</title>
<path fill="none" stroke="midnightblue" d="M79.4553,-283.265C97.7634,-301.278 127.435,-327.641 158,-343 166.234,-347.138 175.349,-350.503 184.433,-353.227"/>
<polygon fill="midnightblue" stroke="midnightblue" points="81.8708,-280.73 72.3352,-276.113 76.9098,-285.669 81.8708,-280.73"/>
</g>
<!-- Node20 -->
<g id="node62" class="node"><title>Node20</title>
<a xlink:href="plot_8cpp.html#a3a8a2ccb648371d774d6691af3472b6c" target="_top" xlink:title="plot_draw_symbol_rampe\l_brabo">
<polygon fill="white" stroke="black" points="177,-294 177,-334 305,-334 305,-294 177,-294"/>
<text text-anchor="start" x="185" y="-321" font-family="Helvetica,sans-Serif" font-size="10.00">plot_draw_symbol_rampe</text>
<text text-anchor="middle" x="241" y="-305" font-family="Helvetica,sans-Serif" font-size="10.00">_brabo</text>
</a>
</g>
<!-- Node1&#45;&gt;Node20 -->
<g id="edge84" class="edge"><title>Node1&#45;&gt;Node20</title>
<path fill="none" stroke="midnightblue" d="M114.243,-278.79C133.841,-284.234 156.246,-290.457 176.715,-296.143"/>
<polygon fill="midnightblue" stroke="midnightblue" points="115.145,-275.408 104.573,-276.104 113.271,-282.152 115.145,-275.408"/>
</g>
<!-- Node3 -->
<g id="node5" class="node"><title>Node3</title>
<a xlink:href="plot_8cpp.html#a08296cc3ee305018568ea075f64d5640" target="_top" xlink:title="plot_symbol_list">
<polygon fill="white" stroke="black" points="360.5,-273 360.5,-297 447.5,-297 447.5,-273 360.5,-273"/>
<text text-anchor="middle" x="404" y="-284" font-family="Helvetica,sans-Serif" font-size="10.00">plot_symbol_list</text>
</a>
</g>
<!-- Node2&#45;&gt;Node3 -->
<g id="edge4" class="edge"><title>Node2&#45;&gt;Node3</title>
<path fill="none" stroke="midnightblue" d="M306.57,-272.448C324.691,-274.782 343.905,-277.258 360.438,-279.388"/>
<polygon fill="midnightblue" stroke="midnightblue" points="307.005,-268.975 296.639,-271.168 306.11,-275.917 307.005,-268.975"/>
</g>
<!-- Node8 -->
<g id="node15" class="node"><title>Node8</title>
<a xlink:href="plot_8cpp.html#ab1ead0218cc4468327a83bc54864cf3e" target="_top" xlink:title="plot_draw_plan">
<polygon fill="white" stroke="black" points="363,-231 363,-255 445,-255 445,-231 363,-231"/>
<text text-anchor="middle" x="404" y="-242" font-family="Helvetica,sans-Serif" font-size="10.00">plot_draw_plan</text>
</a>
</g>
<!-- Node2&#45;&gt;Node8 -->
<g id="edge14" class="edge"><title>Node2&#45;&gt;Node8</title>
<path fill="none" stroke="midnightblue" d="M306.709,-255.534C325.645,-253.095 345.763,-250.503 362.76,-248.313"/>
<polygon fill="midnightblue" stroke="midnightblue" points="306.11,-252.083 296.639,-256.832 307.005,-259.025 306.11,-252.083"/>
</g>
<!-- Node4 -->
<g id="node7" class="node"><title>Node4</title>
<a xlink:href="plot_8cpp.html#a3d45bfc1bc76a3d67ad1a8bb3d63163d" target="_top" xlink:title="Plot_window">
<polygon fill="white" stroke="black" points="484,-252 484,-276 556,-276 556,-252 484,-252"/>
<text text-anchor="middle" x="520" y="-263" font-family="Helvetica,sans-Serif" font-size="10.00">Plot_window</text>
</a>
</g>
<!-- Node3&#45;&gt;Node4 -->
<g id="edge6" class="edge"><title>Node3&#45;&gt;Node4</title>
<path fill="none" stroke="midnightblue" d="M457.485,-275.317C466.401,-273.703 475.46,-272.063 483.812,-270.551"/>
<polygon fill="midnightblue" stroke="midnightblue" points="456.741,-271.895 447.524,-277.121 457.988,-278.783 456.741,-271.895"/>
</g>
<!-- Node5 -->
<g id="node9" class="node"><title>Node5</title>
<a xlink:href="graphics__rebuild1_8cpp.html#ac2eae1e03fb72cc734ffbcef566483bf" target="_top" xlink:title="Boxes">
<polygon fill="white" stroke="black" points="592,-252 592,-276 636,-276 636,-252 592,-252"/>
<text text-anchor="middle" x="614" y="-263" font-family="Helvetica,sans-Serif" font-size="10.00">Boxes</text>
</a>
</g>
<!-- Node4&#45;&gt;Node5 -->
<g id="edge8" class="edge"><title>Node4&#45;&gt;Node5</title>
<path fill="none" stroke="midnightblue" d="M566.084,-264C575.028,-264 584.017,-264 591.753,-264"/>
<polygon fill="midnightblue" stroke="midnightblue" points="566.074,-260.5 556.074,-264 566.074,-267.5 566.074,-260.5"/>
</g>
<!-- Node6 -->
<g id="node11" class="node"><title>Node6</title>
<a xlink:href="_m_a_i_n__avec__objets_8cpp.html#ade8d4ba65d55c94f8ee277829d722155" target="_top" xlink:title="main_actions_on_screen">
<polygon fill="white" stroke="black" points="672.5,-252 672.5,-276 797.5,-276 797.5,-252 672.5,-252"/>
<text text-anchor="middle" x="735" y="-263" font-family="Helvetica,sans-Serif" font-size="10.00">main_actions_on_screen</text>
</a>
</g>
<!-- Node5&#45;&gt;Node6 -->
<g id="edge10" class="edge"><title>Node5&#45;&gt;Node6</title>
<path fill="none" stroke="midnightblue" d="M646.244,-264C654.32,-264 663.263,-264 672.271,-264"/>
<polygon fill="midnightblue" stroke="midnightblue" points="646.193,-260.5 636.193,-264 646.193,-267.5 646.193,-260.5"/>
</g>
<!-- Node7 -->
<g id="node13" class="node"><title>Node7</title>
<a xlink:href="_m_a_i_n__avec__objets_8cpp.html#ae66f6b31b5ad750f1fe042a706a4e3d4" target="_top" xlink:title="main">
<polygon fill="white" stroke="black" points="834,-252 834,-276 872,-276 872,-252 834,-252"/>
<text text-anchor="middle" x="853" y="-263" font-family="Helvetica,sans-Serif" font-size="10.00">main</text>
</a>
</g>
<!-- Node6&#45;&gt;Node7 -->
<g id="edge12" class="edge"><title>Node6&#45;&gt;Node7</title>
<path fill="none" stroke="midnightblue" d="M807.837,-264C817.336,-264 826.327,-264 833.749,-264"/>
<polygon fill="midnightblue" stroke="midnightblue" points="807.8,-260.5 797.8,-264 807.8,-267.5 807.8,-260.5"/>
</g>
<!-- Node8&#45;&gt;Node4 -->
<g id="edge16" class="edge"><title>Node8&#45;&gt;Node4</title>
<path fill="none" stroke="midnightblue" d="M455.181,-252.265C464.869,-254.019 474.814,-255.82 483.915,-257.467"/>
<polygon fill="midnightblue" stroke="midnightblue" points="455.687,-248.8 445.224,-250.463 454.44,-255.688 455.687,-248.8"/>
</g>
<!-- Node9&#45;&gt;Node3 -->
<g id="edge20" class="edge"><title>Node9&#45;&gt;Node3</title>
<path fill="none" stroke="midnightblue" d="M307.207,-236.948C312.954,-238.787 318.623,-240.803 324,-243 341.147,-250.007 343.628,-255.337 360,-264 365.686,-267.009 371.874,-270.082 377.764,-272.916"/>
<polygon fill="midnightblue" stroke="midnightblue" points="308.083,-233.557 297.499,-234.021 306.062,-240.259 308.083,-233.557"/>
</g>
<!-- Node9&#45;&gt;Node8 -->
<g id="edge22" class="edge"><title>Node9&#45;&gt;Node8</title>
<path fill="none" stroke="midnightblue" d="M316.669,-231.749C332.46,-233.783 348.545,-235.855 362.536,-237.658"/>
<polygon fill="midnightblue" stroke="midnightblue" points="316.724,-228.227 306.359,-230.421 315.83,-235.17 316.724,-228.227"/>
</g>
<!-- Node10&#45;&gt;Node3 -->
<g id="edge26" class="edge"><title>Node10&#45;&gt;Node3</title>
<path fill="none" stroke="midnightblue" d="M318.135,-197.007C320.164,-198.247 322.125,-199.575 324,-201 349.678,-220.51 336.37,-242.054 360,-264 363.721,-267.456 368.115,-270.446 372.662,-272.998"/>
<polygon fill="midnightblue" stroke="midnightblue" points="319.338,-193.685 308.858,-192.127 316.079,-199.88 319.338,-193.685"/>
</g>
<!-- Node10&#45;&gt;Node8 -->
<g id="edge28" class="edge"><title>Node10&#45;&gt;Node8</title>
<path fill="none" stroke="midnightblue" d="M306.1,-194.899C312.211,-196.768 318.261,-198.803 324,-201 345.389,-209.188 368.401,-221.698 384.229,-230.936"/>
<polygon fill="midnightblue" stroke="midnightblue" points="307.062,-191.534 296.482,-192.102 305.107,-198.256 307.062,-191.534"/>
</g>
<!-- Node11&#45;&gt;Node3 -->
<g id="edge32" class="edge"><title>Node11&#45;&gt;Node3</title>
<path fill="none" stroke="midnightblue" d="M319.883,-155.565C321.309,-156.645 322.684,-157.789 324,-159 360.293,-192.416 327.179,-227.169 360,-264 363.041,-267.412 366.757,-270.32 370.727,-272.783"/>
<polygon fill="midnightblue" stroke="midnightblue" points="321.53,-152.464 311.213,-150.051 317.773,-158.371 321.53,-152.464"/>
</g>
<!-- Node11&#45;&gt;Node8 -->
<g id="edge34" class="edge"><title>Node11&#45;&gt;Node8</title>
<path fill="none" stroke="midnightblue" d="M313.956,-153.865C317.427,-155.421 320.796,-157.128 324,-159 355.82,-177.593 383.028,-212.528 395.957,-230.94"/>
<polygon fill="midnightblue" stroke="midnightblue" points="315.157,-150.576 304.573,-150.089 312.544,-157.069 315.157,-150.576"/>
</g>
<!-- Node12&#45;&gt;Node3 -->
<g id="edge38" class="edge"><title>Node12&#45;&gt;Node3</title>
<path fill="none" stroke="midnightblue" d="M320.623,-113.894C321.793,-114.878 322.92,-115.912 324,-117 371.381,-164.744 317.557,-211.817 360,-264 362.777,-267.415 366.242,-270.308 370,-272.752"/>
<polygon fill="midnightblue" stroke="midnightblue" points="322.555,-110.974 312.353,-108.118 318.547,-116.713 322.555,-110.974"/>
</g>
<!-- Node12&#45;&gt;Node8 -->
<g id="edge40" class="edge"><title>Node12&#45;&gt;Node8</title>
<path fill="none" stroke="midnightblue" d="M317.403,-112.748C319.686,-114.06 321.893,-115.475 324,-117 365.353,-146.927 390.435,-205.409 399.8,-230.776"/>
<polygon fill="midnightblue" stroke="midnightblue" points="318.776,-109.522 308.267,-108.178 315.644,-115.782 318.776,-109.522"/>
</g>
<!-- Node13&#45;&gt;Node3 -->
<g id="edge44" class="edge"><title>Node13&#45;&gt;Node3</title>
<path fill="none" stroke="midnightblue" d="M313.238,-66.3274C317.178,-68.7565 320.818,-71.6225 324,-75 382.637,-137.239 307.785,-196.283 360,-264 362.688,-267.486 366.099,-270.422 369.829,-272.887"/>
<polygon fill="midnightblue" stroke="midnightblue" points="314.692,-63.1393 304.198,-61.6788 311.491,-69.3645 314.692,-63.1393"/>
</g>
<!-- Node13&#45;&gt;Node8 -->
<g id="edge46" class="edge"><title>Node13&#45;&gt;Node8</title>
<path fill="none" stroke="midnightblue" d="M313.31,-67.8706C317.104,-69.9331 320.703,-72.2953 324,-75 375.198,-117.006 395.699,-199.467 401.836,-230.655"/>
<polygon fill="midnightblue" stroke="midnightblue" points="314.696,-64.6554 304.156,-63.5818 311.726,-70.9941 314.696,-64.6554"/>
</g>
<!-- Node14&#45;&gt;Node3 -->
<g id="edge50" class="edge"><title>Node14&#45;&gt;Node3</title>
<path fill="none" stroke="midnightblue" d="M313.371,-24.2048C317.278,-26.6634 320.875,-29.5695 324,-33 393.97,-109.816 297.944,-180.66 360,-264 362.629,-267.53 366.005,-270.493 369.717,-272.973"/>
<polygon fill="midnightblue" stroke="midnightblue" points="314.867,-21.0376 304.383,-19.5075 311.624,-27.2414 314.867,-21.0376"/>
</g>
<!-- Node14&#45;&gt;Node8 -->
<g id="edge52" class="edge"><title>Node14&#45;&gt;Node8</title>
<path fill="none" stroke="midnightblue" d="M313.353,-25.4368C317.163,-27.6052 320.752,-30.1094 324,-33 385.49,-87.7318 399.965,-194.902 403.153,-230.888"/>
<polygon fill="midnightblue" stroke="midnightblue" points="314.645,-22.1732 304.119,-20.9629 311.592,-28.4728 314.645,-22.1732"/>
</g>
<!-- Node15&#45;&gt;Node3 -->
<g id="edge56" class="edge"><title>Node15&#45;&gt;Node3</title>
<path fill="none" stroke="midnightblue" d="M313.507,-534.732C317.279,-532.522 320.818,-529.962 324,-527 359.302,-494.134 392.493,-341.755 401.569,-297.241"/>
<polygon fill="midnightblue" stroke="midnightblue" points="311.743,-531.701 304.341,-539.28 314.854,-537.971 311.743,-531.701"/>
</g>
<!-- Node15&#45;&gt;Node8 -->
<g id="edge58" class="edge"><title>Node15&#45;&gt;Node8</title>
<path fill="none" stroke="midnightblue" d="M313.228,-535.999C317.202,-533.496 320.85,-530.523 324,-527 402.634,-439.047 290.42,-359.277 360,-264 362.496,-260.582 365.695,-257.698 369.228,-255.27"/>
<polygon fill="midnightblue" stroke="midnightblue" points="311.33,-533.041 304.076,-540.763 314.562,-539.25 311.33,-533.041"/>
</g>
<!-- Node16&#45;&gt;Node3 -->
<g id="edge62" class="edge"><title>Node16&#45;&gt;Node3</title>
<path fill="none" stroke="midnightblue" d="M313.298,-492.5C317.121,-490.347 320.729,-487.864 324,-485 383.091,-433.272 399.069,-331.828 402.903,-297.041"/>
<polygon fill="midnightblue" stroke="midnightblue" points="311.538,-489.462 304.039,-496.946 314.568,-495.772 311.538,-489.462"/>
</g>
<!-- Node16&#45;&gt;Node8 -->
<g id="edge64" class="edge"><title>Node16&#45;&gt;Node8</title>
<path fill="none" stroke="midnightblue" d="M313.344,-493.77C317.258,-491.318 320.863,-488.42 324,-485 391.267,-411.66 300.291,-343.614 360,-264 362.641,-260.479 366.024,-257.522 369.74,-255.045"/>
<polygon fill="midnightblue" stroke="midnightblue" points="311.597,-490.734 304.345,-498.458 314.831,-496.942 311.597,-490.734"/>
</g>
<!-- Node17&#45;&gt;Node3 -->
<g id="edge68" class="edge"><title>Node17&#45;&gt;Node3</title>
<path fill="none" stroke="midnightblue" d="M319.759,-430.305C321.216,-429.246 322.632,-428.145 324,-427 367.395,-390.675 391.814,-324.438 400.42,-297.197"/>
<polygon fill="midnightblue" stroke="midnightblue" points="317.544,-427.567 311.019,-435.914 321.325,-433.458 317.544,-427.567"/>
</g>
<!-- Node17&#45;&gt;Node8 -->
<g id="edge70" class="edge"><title>Node17&#45;&gt;Node8</title>
<path fill="none" stroke="midnightblue" d="M320.261,-430.821C321.566,-429.607 322.816,-428.334 324,-427 373.254,-371.519 313.846,-322.086 360,-264 362.738,-260.554 366.179,-257.641 369.925,-255.188"/>
<polygon fill="midnightblue" stroke="midnightblue" points="317.912,-428.216 312.224,-437.155 322.244,-433.714 317.912,-428.216"/>
</g>
<!-- Node18&#45;&gt;Node3 -->
<g id="edge74" class="edge"><title>Node18&#45;&gt;Node3</title>
<path fill="none" stroke="midnightblue" d="M315.374,-389.875C318.36,-388.391 321.25,-386.77 324,-385 359.333,-362.256 386.099,-318.589 397.69,-297.29"/>
<polygon fill="midnightblue" stroke="midnightblue" points="313.912,-386.695 306.173,-393.931 316.735,-393.1 313.912,-386.695"/>
</g>
<!-- Node18&#45;&gt;Node8 -->
<g id="edge76" class="edge"><title>Node18&#45;&gt;Node8</title>
<path fill="none" stroke="midnightblue" d="M320.442,-388.119C321.672,-387.132 322.86,-386.093 324,-385 364.486,-346.155 323.541,-306.647 360,-264 362.97,-260.526 366.645,-257.583 370.595,-255.102"/>
<polygon fill="midnightblue" stroke="midnightblue" points="318.145,-385.444 311.77,-393.906 322.031,-391.267 318.145,-385.444"/>
</g>
<!-- Node19&#45;&gt;Node3 -->
<g id="edge80" class="edge"><title>Node19&#45;&gt;Node3</title>
<path fill="none" stroke="midnightblue" d="M307.456,-349.62C313.15,-347.66 318.739,-345.461 324,-343 349.639,-331.006 375.461,-310.379 390.58,-297.229"/>
<polygon fill="midnightblue" stroke="midnightblue" points="306.276,-346.323 297.813,-352.696 308.403,-352.991 306.276,-346.323"/>
</g>
<!-- Node19&#45;&gt;Node8 -->
<g id="edge82" class="edge"><title>Node19&#45;&gt;Node8</title>
<path fill="none" stroke="midnightblue" d="M307.442,-353.142C313.412,-350.456 319.057,-347.125 324,-343 353.623,-318.276 332.959,-291.524 360,-264 363.322,-260.619 367.296,-257.712 371.478,-255.234"/>
<polygon fill="midnightblue" stroke="midnightblue" points="305.911,-349.982 297.848,-356.856 308.437,-356.51 305.911,-349.982"/>
</g>
<!-- Node20&#45;&gt;Node3 -->
<g id="edge86" class="edge"><title>Node20&#45;&gt;Node3</title>
<path fill="none" stroke="midnightblue" d="M315.398,-300.764C330.687,-298.043 346.311,-295.264 360.098,-292.811"/>
<polygon fill="midnightblue" stroke="midnightblue" points="314.654,-297.341 305.422,-302.538 315.88,-304.233 314.654,-297.341"/>
</g>
<!-- Node20&#45;&gt;Node8 -->
<g id="edge88" class="edge"><title>Node20&#45;&gt;Node8</title>
<path fill="none" stroke="midnightblue" d="M312.195,-290.145C316.22,-288.481 320.18,-286.762 324,-285 340.821,-277.243 343.628,-272.663 360,-264 365.686,-260.991 371.874,-257.918 377.764,-255.084"/>
<polygon fill="midnightblue" stroke="midnightblue" points="310.711,-286.968 302.72,-293.924 313.305,-293.47 310.711,-286.968"/>
</g>
</g>
</svg>
