<?xml version="1.0" encoding="UTF-8" standalone="no"?>
<!DOCTYPE svg PUBLIC "-//W3C//DTD SVG 1.1//EN"
 "http://www.w3.org/Graphics/SVG/1.1/DTD/svg11.dtd">
<!-- Generated by graphviz version 2.26.3 (20100126.1600)
 -->
<!-- Title: plot_draw_symbol_BT Pages: 1 -->
<svg width="670pt" height="74pt"
 viewBox="0.00 0.00 670.00 74.00" xmlns="http://www.w3.org/2000/svg" xmlns:xlink="http://www.w3.org/1999/xlink">
<g id="graph1" class="graph" transform="scale(1 1) rotate(0) translate(4 70)">
<title>plot_draw_symbol_BT</title>
<polygon fill="white" stroke="white" points="-4,5 -4,-70 667,-70 667,5 -4,5"/>
<!-- Node1 -->
<g id="node1" class="node"><title>Node1</title>
<polygon fill="#bfbfbf" stroke="black" points="0.5,-21 0.5,-45 113.5,-45 113.5,-21 0.5,-21"/>
<text text-anchor="middle" x="57" y="-32" font-family="Helvetica,sans-Serif" font-size="10.00">plot_draw_symbol_BT</text>
</g>
<!-- Node2 -->
<g id="node3" class="node"><title>Node2</title>
<a xlink:href="plot_8cpp.html#a08296cc3ee305018568ea075f64d5640" target="_top" xlink:title="plot_symbol_list">
<polygon fill="white" stroke="black" points="150.5,-42 150.5,-66 237.5,-66 237.5,-42 150.5,-42"/>
<text text-anchor="middle" x="194" y="-53" font-family="Helvetica,sans-Serif" font-size="10.00">plot_symbol_list</text>
</a>
</g>
<!-- Node1&#45;&gt;Node2 -->
<g id="edge2" class="edge"><title>Node1&#45;&gt;Node2</title>
<path fill="none" stroke="midnightblue" d="M123.636,-43.2143C132.646,-44.5954 141.7,-45.9832 150.173,-47.2819"/>
<polygon fill="midnightblue" stroke="midnightblue" points="123.929,-39.7184 113.514,-41.6627 122.868,-46.6376 123.929,-39.7184"/>
</g>
<!-- Node7 -->
<g id="node13" class="node"><title>Node7</title>
<a xlink:href="plot_8cpp.html#ab1ead0218cc4468327a83bc54864cf3e" target="_top" xlink:title="plot_draw_plan">
<polygon fill="white" stroke="black" points="153,-0 153,-24 235,-24 235,-0 153,-0"/>
<text text-anchor="middle" x="194" y="-11" font-family="Helvetica,sans-Serif" font-size="10.00">plot_draw_plan</text>
</a>
</g>
<!-- Node1&#45;&gt;Node7 -->
<g id="edge12" class="edge"><title>Node1&#45;&gt;Node7</title>
<path fill="none" stroke="midnightblue" d="M123.436,-22.8163C133.409,-21.2876 143.44,-19.75 152.684,-18.3332"/>
<polygon fill="midnightblue" stroke="midnightblue" points="122.868,-19.3624 113.514,-24.3373 123.929,-26.2816 122.868,-19.3624"/>
</g>
<!-- Node3 -->
<g id="node5" class="node"><title>Node3</title>
<a xlink:href="plot_8cpp.html#a3d45bfc1bc76a3d67ad1a8bb3d63163d" target="_top" xlink:title="Plot_window">
<polygon fill="white" stroke="black" points="274,-21 274,-45 346,-45 346,-21 274,-21"/>
<text text-anchor="middle" x="310" y="-32" font-family="Helvetica,sans-Serif" font-size="10.00">Plot_window</text>
</a>
</g>
<!-- Node2&#45;&gt;Node3 -->
<g id="edge4" class="edge"><title>Node2&#45;&gt;Node3</title>
<path fill="none" stroke="midnightblue" d="M247.485,-44.3175C256.401,-42.7034 265.46,-41.0633 273.812,-39.5512"/>
<polygon fill="midnightblue" stroke="midnightblue" points="246.741,-40.8951 237.524,-46.1206 247.988,-47.7832 246.741,-40.8951"/>
</g>
<!-- Node4 -->
<g id="node7" class="node"><title>Node4</title>
<a xlink:href="graphics__rebuild1_8cpp.html#ac2eae1e03fb72cc734ffbcef566483bf" target="_top" xlink:title="Boxes">
<polygon fill="white" stroke="black" points="382,-21 382,-45 426,-45 426,-21 382,-21"/>
<text text-anchor="middle" x="404" y="-32" font-family="Helvetica,sans-Serif" font-size="10.00">Boxes</text>
</a>
</g>
<!-- Node3&#45;&gt;Node4 -->
<g id="edge6" class="edge"><title>Node3&#45;&gt;Node4</title>
<path fill="none" stroke="midnightblue" d="M356.084,-33C365.028,-33 374.017,-33 381.753,-33"/>
<polygon fill="midnightblue" stroke="midnightblue" points="356.074,-29.5001 346.074,-33 356.074,-36.5001 356.074,-29.5001"/>
</g>
<!-- Node5 -->
<g id="node9" class="node"><title>Node5</title>
<a xlink:href="_m_a_i_n__avec__objets_8cpp.html#ade8d4ba65d55c94f8ee277829d722155" target="_top" xlink:title="main_actions_on_screen">
<polygon fill="white" stroke="black" points="462.5,-21 462.5,-45 587.5,-45 587.5,-21 462.5,-21"/>
<text text-anchor="middle" x="525" y="-32" font-family="Helvetica,sans-Serif" font-size="10.00">main_actions_on_screen</text>
</a>
</g>
<!-- Node4&#45;&gt;Node5 -->
<g id="edge8" class="edge"><title>Node4&#45;&gt;Node5</title>
<path fill="none" stroke="midnightblue" d="M436.244,-33C444.32,-33 453.263,-33 462.271,-33"/>
<polygon fill="midnightblue" stroke="midnightblue" points="436.193,-29.5001 426.193,-33 436.193,-36.5001 436.193,-29.5001"/>
</g>
<!-- Node6 -->
<g id="node11" class="node"><title>Node6</title>
<a xlink:href="_m_a_i_n__avec__objets_8cpp.html#ae66f6b31b5ad750f1fe042a706a4e3d4" target="_top" xlink:title="main">
<polygon fill="white" stroke="black" points="624,-21 624,-45 662,-45 662,-21 624,-21"/>
<text text-anchor="middle" x="643" y="-32" font-family="Helvetica,sans-Serif" font-size="10.00">main</text>
</a>
</g>
<!-- Node5&#45;&gt;Node6 -->
<g id="edge10" class="edge"><title>Node5&#45;&gt;Node6</title>
<path fill="none" stroke="midnightblue" d="M597.837,-33C607.336,-33 616.327,-33 623.749,-33"/>
<polygon fill="midnightblue" stroke="midnightblue" points="597.8,-29.5001 587.8,-33 597.8,-36.5001 597.8,-29.5001"/>
</g>
<!-- Node7&#45;&gt;Node3 -->
<g id="edge14" class="edge"><title>Node7&#45;&gt;Node3</title>
<path fill="none" stroke="midnightblue" d="M245.181,-21.2654C254.869,-23.0193 264.814,-24.8198 273.915,-26.4674"/>
<polygon fill="midnightblue" stroke="midnightblue" points="245.687,-17.8004 235.224,-19.4629 244.44,-24.6884 245.687,-17.8004"/>
</g>
</g>
</svg>
