<?xml version="1.0" encoding="UTF-8" standalone="no"?>
<!DOCTYPE svg PUBLIC "-//W3C//DTD SVG 1.1//EN"
 "http://www.w3.org/Graphics/SVG/1.1/DTD/svg11.dtd">
<!-- Generated by graphviz version 2.26.3 (20100126.1600)
 -->
<!-- Title: position_on_top Pages: 1 -->
<svg width="440pt" height="74pt"
 viewBox="0.00 0.00 440.00 74.00" xmlns="http://www.w3.org/2000/svg" xmlns:xlink="http://www.w3.org/1999/xlink">
<g id="graph1" class="graph" transform="scale(1 1) rotate(0) translate(4 70)">
<title>position_on_top</title>
<polygon fill="white" stroke="white" points="-4,5 -4,-70 437,-70 437,5 -4,5"/>
<!-- Node1 -->
<g id="node1" class="node"><title>Node1</title>
<polygon fill="#bfbfbf" stroke="black" points="0.5,-22 0.5,-46 85.5,-46 85.5,-22 0.5,-22"/>
<text text-anchor="middle" x="43" y="-33" font-family="Helvetica,sans-Serif" font-size="10.00">position_on_top</text>
</g>
<!-- Node2 -->
<g id="node3" class="node"><title>Node2</title>
<a xlink:href="plot__core9_8cpp.html#a81a672760936c3fe4915f269850aa955" target="_top" xlink:title="snapshot_calc">
<polygon fill="white" stroke="black" points="322,-42 322,-66 402,-66 402,-42 322,-42"/>
<text text-anchor="middle" x="362" y="-53" font-family="Helvetica,sans-Serif" font-size="10.00">snapshot_calc</text>
</a>
</g>
<!-- Node1&#45;&gt;Node2 -->
<g id="edge2" class="edge"><title>Node1&#45;&gt;Node2</title>
<path fill="none" stroke="midnightblue" d="M85.6908,-36.6765C144.23,-40.3467 249.238,-46.9303 311.577,-50.8387"/>
<polygon fill="midnightblue" stroke="midnightblue" points="311.376,-54.3329 321.576,-51.4656 311.814,-47.3466 311.376,-54.3329"/>
</g>
<!-- Node3 -->
<g id="node5" class="node"><title>Node3</title>
<a xlink:href="plot__core9_8cpp.html#afa207c7603f4ee259c528f3d86afb2f6" target="_top" xlink:title="exchange_symbol_position">
<polygon fill="white" stroke="black" points="122,-2 122,-26 256,-26 256,-2 122,-2"/>
<text text-anchor="middle" x="189" y="-13" font-family="Helvetica,sans-Serif" font-size="10.00">exchange_symbol_position</text>
</a>
</g>
<!-- Node1&#45;&gt;Node3 -->
<g id="edge4" class="edge"><title>Node1&#45;&gt;Node3</title>
<path fill="none" stroke="midnightblue" d="M85.6217,-28.1614C93.8774,-27.0305 102.764,-25.8132 111.737,-24.584"/>
<polygon fill="midnightblue" stroke="midnightblue" points="112.442,-28.0201 121.875,-23.1952 111.492,-21.0849 112.442,-28.0201"/>
</g>
<!-- Node3&#45;&gt;Node2 -->
<g id="edge8" class="edge"><title>Node3&#45;&gt;Node2</title>
<path fill="none" stroke="midnightblue" d="M240.906,-26.0013C263.432,-31.2098 289.707,-37.2848 312.013,-42.4424"/>
<polygon fill="midnightblue" stroke="midnightblue" points="311.424,-45.8984 321.955,-44.7411 313.001,-39.0783 311.424,-45.8984"/>
</g>
<!-- Node4 -->
<g id="node7" class="node"><title>Node4</title>
<a xlink:href="plot__core9_8cpp.html#a3aa259226da63745d5e779178c8111f2" target="_top" xlink:title="copy_symbol_to_emply_slot">
<polygon fill="white" stroke="black" points="292,-0 292,-24 432,-24 432,-0 292,-0"/>
<text text-anchor="middle" x="362" y="-11" font-family="Helvetica,sans-Serif" font-size="10.00">copy_symbol_to_emply_slot</text>
</a>
</g>
<!-- Node3&#45;&gt;Node4 -->
<g id="edge6" class="edge"><title>Node3&#45;&gt;Node4</title>
<path fill="none" stroke="midnightblue" d="M256.382,-13.221C264.678,-13.1251 273.221,-13.0263 281.685,-12.9285"/>
<polygon fill="midnightblue" stroke="midnightblue" points="281.989,-16.4253 291.948,-12.8099 281.908,-9.42578 281.989,-16.4253"/>
</g>
</g>
</svg>
