<?xml version="1.0" encoding="UTF-8" standalone="no"?>
<!DOCTYPE svg PUBLIC "-//W3C//DTD SVG 1.1//EN"
 "http://www.w3.org/Graphics/SVG/1.1/DTD/svg11.dtd">
<!-- Generated by graphviz version 2.26.3 (20100126.1600)
 -->
<!-- Title: reset_symbols_selected Pages: 1 -->
<!--zoomable 224 -->
<svg id="main" version="1.1" xmlns="http://www.w3.org/2000/svg" xmlns:xlink="http://www.w3.org/1999/xlink" xml:space="preserve" onload="init(evt)">
<style type="text/css"><![CDATA[
.edge:hover path { stroke: red; }
.edge:hover polygon { stroke: red; fill: red; }
]]></style>
<script type="text/javascript"><![CDATA[
var edges = document.getElementsByTagName('g');
if (edges && edges.length) {
  for (var i=0;i<edges.length;i++) {
    if (edges[i].id.substr(0,4)=='edge') {
      edges[i].setAttribute('class','edge');
    }
  }
}
]]></script>
        <defs>
                <circle id="rim" cx="0" cy="0" r="7"/>
                <circle id="rim2" cx="0" cy="0" r="3.5"/>
                <g id="zoomPlus">
                        <use xlink:href="#rim" fill="#404040">
                                <set attributeName="fill" to="#808080" begin="zoomplus.mouseover" end="zoomplus.mouseout"/>
                        </use>
                        <path d="M-4,0h8M0,-4v8" fill="none" stroke="white" stroke-width="1.5" pointer-events="none"/>
                </g>
                <g id="zoomMin">
                        <use xlink:href="#rim" fill="#404040">
                                <set attributeName="fill" to="#808080" begin="zoomminus.mouseover" end="zoomminus.mouseout"/>
                        </use>
                        <path d="M-4,0h8" fill="none" stroke="white" stroke-width="1.5" pointer-events="none"/>
                </g>
                <g id="dirArrow">
                        <path fill="none" stroke="white" stroke-width="1.5" d="M0,-3.0v7 M-2.5,-0.5L0,-3.0L2.5,-0.5"/>
                </g>
               <g id="resetDef">
                       <use xlink:href="#rim2" fill="#404040">
                               <set attributeName="fill" to="#808080" begin="reset.mouseover" end="reset.mouseout"/>
                       </use>
               </g>
        </defs>

<script type="text/javascript">
var viewWidth = 956;
var viewHeight = 224;
var sectionId = 'dynsection-98';
</script>
<script xlink:href="svgpan.js"/>
<svg id="graph" class="graph">
<g id="viewport">
<title>reset_symbols_selected</title>
<polygon fill="white" stroke="white" points="-4,5 -4,-220 953,-220 953,5 -4,5"/>
<!-- Node1 -->
<g id="node1" class="node"><title>Node1</title>
<polygon fill="#bfbfbf" stroke="black" points="0,-94 0,-118 122,-118 122,-94 0,-94"/>
<text text-anchor="middle" x="61" y="-105" font-family="Helvetica,sans-Serif" font-size="10.00">reset_symbols_selected</text>
</g>
<!-- Node2 -->
<g id="node3" class="node"><title>Node2</title>
<a xlink:href="plot__core9_8cpp.html#a6f933b83f292138e49fc9057684a1b4b" target="_top" xlink:title="add_a_symbol_to_plot">
<polygon fill="white" stroke="black" points="165,-192 165,-216 279,-216 279,-192 165,-192"/>
<text text-anchor="middle" x="222" y="-203" font-family="Helvetica,sans-Serif" font-size="10.00">add_a_symbol_to_plot</text>
</a>
</g>
<!-- Node1&#45;&gt;Node2 -->
<g id="edge2" class="edge"><title>Node1&#45;&gt;Node2</title>
<path fill="none" stroke="midnightblue" d="M80.6604,-125.102C99.2669,-142.286 128.647,-167.192 158,-183 164.28,-186.382 171.202,-189.345 178.102,-191.896"/>
<polygon fill="midnightblue" stroke="midnightblue" points="82.8262,-122.334 73.1429,-118.035 78.0317,-127.434 82.8262,-122.334"/>
</g>
<!-- Node8 -->
<g id="node15" class="node"><title>Node8</title>
<a xlink:href="plot__core9_8cpp.html#a3431bbe587897e907b6dee6b35777684" target="_top" xlink:title="send_symbols_from_calc\l_to_calc">
<polygon fill="white" stroke="black" points="158,-134 158,-174 286,-174 286,-134 158,-134"/>
<text text-anchor="start" x="166" y="-161" font-family="Helvetica,sans-Serif" font-size="10.00">send_symbols_from_calc</text>
<text text-anchor="middle" x="222" y="-145" font-family="Helvetica,sans-Serif" font-size="10.00">_to_calc</text>
</a>
</g>
<!-- Node1&#45;&gt;Node8 -->
<g id="edge14" class="edge"><title>Node1&#45;&gt;Node8</title>
<path fill="none" stroke="midnightblue" d="M111.523,-121.063C126.219,-125.444 142.47,-130.289 157.884,-134.885"/>
<polygon fill="midnightblue" stroke="midnightblue" points="112.21,-117.615 101.627,-118.112 110.21,-124.324 112.21,-117.615"/>
</g>
<!-- Node9 -->
<g id="node17" class="node"><title>Node9</title>
<a xlink:href="plot__core9_8cpp.html#a81228c183a1b219d5f3c5a759800df4b" target="_top" xlink:title="logical_plot_menu_bare">
<polygon fill="white" stroke="black" points="322.5,-106 322.5,-130 441.5,-130 441.5,-106 322.5,-106"/>
<text text-anchor="middle" x="382" y="-117" font-family="Helvetica,sans-Serif" font-size="10.00">logical_plot_menu_bare</text>
</a>
</g>
<!-- Node1&#45;&gt;Node9 -->
<g id="edge28" class="edge"><title>Node1&#45;&gt;Node9</title>
<path fill="none" stroke="midnightblue" d="M132.176,-108.661C189.322,-110.797 268.633,-113.762 322.452,-115.774"/>
<polygon fill="midnightblue" stroke="midnightblue" points="132.257,-105.161 122.133,-108.285 131.995,-112.157 132.257,-105.161"/>
</g>
<!-- Node10 -->
<g id="node20" class="node"><title>Node10</title>
<a xlink:href="plot__core9_8cpp.html#acdf877cbaf298c90801ddc1916103287" target="_top" xlink:title="check_select_deselect\l_symbol">
<polygon fill="white" stroke="black" points="324,-48 324,-88 440,-88 440,-48 324,-48"/>
<text text-anchor="start" x="332" y="-75" font-family="Helvetica,sans-Serif" font-size="10.00">check_select_deselect</text>
<text text-anchor="middle" x="382" y="-59" font-family="Helvetica,sans-Serif" font-size="10.00">_symbol</text>
</a>
</g>
<!-- Node1&#45;&gt;Node10 -->
<g id="edge20" class="edge"><title>Node1&#45;&gt;Node10</title>
<path fill="none" stroke="midnightblue" d="M132.258,-97.5645C189.876,-90.7437 269.988,-81.2599 323.798,-74.8899"/>
<polygon fill="midnightblue" stroke="midnightblue" points="131.652,-94.1116 122.133,-98.763 132.475,-101.063 131.652,-94.1116"/>
</g>
<!-- Node11 -->
<g id="node23" class="node"><title>Node11</title>
<a xlink:href="plot__core9_8cpp.html#afacf9fafd495ceac6c305b0cf88312f2" target="_top" xlink:title="logical_symbol_edition\l_options">
<polygon fill="white" stroke="black" points="164.5,-0 164.5,-40 279.5,-40 279.5,-0 164.5,-0"/>
<text text-anchor="start" x="172.5" y="-27" font-family="Helvetica,sans-Serif" font-size="10.00">logical_symbol_edition</text>
<text text-anchor="middle" x="222" y="-11" font-family="Helvetica,sans-Serif" font-size="10.00">_options</text>
</a>
</g>
<!-- Node1&#45;&gt;Node11 -->
<g id="edge24" class="edge"><title>Node1&#45;&gt;Node11</title>
<path fill="none" stroke="midnightblue" d="M92.1639,-89.2553C111.177,-79.0488 135.98,-65.7511 158,-54 166.436,-49.498 175.504,-44.6725 184.085,-40.1123"/>
<polygon fill="midnightblue" stroke="midnightblue" points="90.4874,-86.1828 83.3328,-93.9971 93.7989,-92.35 90.4874,-86.1828"/>
</g>
<!-- Node3 -->
<g id="node5" class="node"><title>Node3</title>
<a xlink:href="plot__core9_8cpp.html#a6ff8cd924e588a71a1366288cf8dc41b" target="_top" xlink:title="logical_plot_symbol_list">
<polygon fill="white" stroke="black" points="322,-170 322,-194 442,-194 442,-170 322,-170"/>
<text text-anchor="middle" x="382" y="-181" font-family="Helvetica,sans-Serif" font-size="10.00">logical_plot_symbol_list</text>
</a>
</g>
<!-- Node2&#45;&gt;Node3 -->
<g id="edge4" class="edge"><title>Node2&#45;&gt;Node3</title>
<path fill="none" stroke="midnightblue" d="M289.492,-194.72C300.235,-193.243 311.288,-191.723 321.847,-190.271"/>
<polygon fill="midnightblue" stroke="midnightblue" points="288.742,-191.29 279.312,-196.12 289.695,-198.225 288.742,-191.29"/>
</g>
<!-- Node4 -->
<g id="node7" class="node"><title>Node4</title>
<a xlink:href="plot__core9_8cpp.html#a8959d98409d30cff9689b28771791f70" target="_top" xlink:title="do_logical_Plot_window">
<polygon fill="white" stroke="black" points="478.5,-81 478.5,-105 599.5,-105 599.5,-81 478.5,-81"/>
<text text-anchor="middle" x="539" y="-92" font-family="Helvetica,sans-Serif" font-size="10.00">do_logical_Plot_window</text>
</a>
</g>
<!-- Node3&#45;&gt;Node4 -->
<g id="edge6" class="edge"><title>Node3&#45;&gt;Node4</title>
<path fill="none" stroke="midnightblue" d="M412.207,-164.876C443.136,-147.343 490.423,-120.537 517.66,-105.097"/>
<polygon fill="midnightblue" stroke="midnightblue" points="410.147,-162.021 403.174,-169.997 413.599,-168.11 410.147,-162.021"/>
</g>
<!-- Node5 -->
<g id="node9" class="node"><title>Node5</title>
<a xlink:href="procs__visuels__rebuild1_8cpp.html#ae710b6e599e321ad5934a90140067054" target="_top" xlink:title="check_graphics_mouse\l_handling">
<polygon fill="white" stroke="black" points="636.5,-73 636.5,-113 755.5,-113 755.5,-73 636.5,-73"/>
<text text-anchor="start" x="644.5" y="-100" font-family="Helvetica,sans-Serif" font-size="10.00">check_graphics_mouse</text>
<text text-anchor="middle" x="696" y="-84" font-family="Helvetica,sans-Serif" font-size="10.00">_handling</text>
</a>
</g>
<!-- Node4&#45;&gt;Node5 -->
<g id="edge8" class="edge"><title>Node4&#45;&gt;Node5</title>
<path fill="none" stroke="midnightblue" d="M609.718,-93C618.664,-93 627.747,-93 636.495,-93"/>
<polygon fill="midnightblue" stroke="midnightblue" points="609.7,-89.5001 599.7,-93 609.7,-96.5001 609.7,-89.5001"/>
</g>
<!-- Node6 -->
<g id="node11" class="node"><title>Node6</title>
<a xlink:href="_m_a_i_n__avec__objets_8cpp.html#a8e80f54ac804eddce8ed6e45adb1db44" target="_top" xlink:title="ticker_full_loop">
<polygon fill="white" stroke="black" points="792,-81 792,-105 874,-105 874,-81 792,-81"/>
<text text-anchor="middle" x="833" y="-92" font-family="Helvetica,sans-Serif" font-size="10.00">ticker_full_loop</text>
</a>
</g>
<!-- Node5&#45;&gt;Node6 -->
<g id="edge10" class="edge"><title>Node5&#45;&gt;Node6</title>
<path fill="none" stroke="midnightblue" d="M765.967,-93C774.737,-93 783.475,-93 791.605,-93"/>
<polygon fill="midnightblue" stroke="midnightblue" points="765.692,-89.5001 755.692,-93 765.692,-96.5001 765.692,-89.5001"/>
</g>
<!-- Node7 -->
<g id="node13" class="node"><title>Node7</title>
<a xlink:href="_m_a_i_n__avec__objets_8cpp.html#ae66f6b31b5ad750f1fe042a706a4e3d4" target="_top" xlink:title="main">
<polygon fill="white" stroke="black" points="910,-81 910,-105 948,-105 948,-81 910,-81"/>
<text text-anchor="middle" x="929" y="-92" font-family="Helvetica,sans-Serif" font-size="10.00">main</text>
</a>
</g>
<!-- Node6&#45;&gt;Node7 -->
<g id="edge12" class="edge"><title>Node6&#45;&gt;Node7</title>
<path fill="none" stroke="midnightblue" d="M884.509,-93C893.577,-93 902.476,-93 909.904,-93"/>
<polygon fill="midnightblue" stroke="midnightblue" points="884.27,-89.5001 874.27,-93 884.27,-96.5001 884.27,-89.5001"/>
</g>
<!-- Node8&#45;&gt;Node9 -->
<g id="edge16" class="edge"><title>Node8&#45;&gt;Node9</title>
<path fill="none" stroke="midnightblue" d="M296.148,-137.317C307.099,-134.853 318.196,-132.356 328.615,-130.012"/>
<polygon fill="midnightblue" stroke="midnightblue" points="295.144,-133.955 286.156,-139.565 296.681,-140.784 295.144,-133.955"/>
</g>
<!-- Node9&#45;&gt;Node4 -->
<g id="edge18" class="edge"><title>Node9&#45;&gt;Node4</title>
<path fill="none" stroke="midnightblue" d="M451.726,-106.897C460.594,-105.485 469.613,-104.049 478.323,-102.662"/>
<polygon fill="midnightblue" stroke="midnightblue" points="451.128,-103.448 441.803,-108.477 452.229,-110.361 451.128,-103.448"/>
</g>
<!-- Node10&#45;&gt;Node4 -->
<g id="edge22" class="edge"><title>Node10&#45;&gt;Node4</title>
<path fill="none" stroke="midnightblue" d="M450.1,-78.844C459.492,-80.3394 469.085,-81.8671 478.33,-83.3392"/>
<polygon fill="midnightblue" stroke="midnightblue" points="450.441,-75.3542 440.015,-77.238 449.34,-82.2671 450.441,-75.3542"/>
</g>
<!-- Node11&#45;&gt;Node4 -->
<g id="edge26" class="edge"><title>Node11&#45;&gt;Node4</title>
<path fill="none" stroke="midnightblue" d="M289.833,-18.5686C334.051,-19.3966 392.518,-23.8525 442,-39 472.409,-48.3088 503.915,-68.0507 522.471,-80.9097"/>
<polygon fill="midnightblue" stroke="midnightblue" points="289.815,-15.0682 279.77,-18.4378 289.724,-22.0676 289.815,-15.0682"/>
</g>
</g>
</svg>
        <g id="navigator" transform="translate(0 0)" fill="#404254">
                <rect fill="#f2f5e9" fill-opacity="0.5" stroke="#606060" stroke-width=".5" x="0" y="0" width="60" height="60"/>
                <use id="zoomplus" xlink:href="#zoomPlus" x="17" y="9" onmousedown="handleZoom(evt,'in')"/>
                <use id="zoomminus" xlink:href="#zoomMin" x="42" y="9" onmousedown="handleZoom(evt,'out')"/>
                <use id="reset" xlink:href="#resetDef" x="30" y="36" onmousedown="handleReset()"/>
                <g id="arrowUp" xlink:href="#dirArrow" transform="translate(30 24)" onmousedown="handlePan(0,-1)">
                  <use xlink:href="#rim" fill="#404040">
                        <set attributeName="fill" to="#808080" begin="arrowUp.mouseover" end="arrowUp.mouseout"/>
                  </use>
                  <path fill="none" stroke="white" stroke-width="1.5" d="M0,-3.0v7 M-2.5,-0.5L0,-3.0L2.5,-0.5"/>
                </g>
                <g id="arrowRight" xlink:href="#dirArrow" transform="rotate(90) translate(36 -43)" onmousedown="handlePan(1,0)">
                  <use xlink:href="#rim" fill="#404040">
                        <set attributeName="fill" to="#808080" begin="arrowRight.mouseover" end="arrowRight.mouseout"/>
                  </use>
                  <path fill="none" stroke="white" stroke-width="1.5" d="M0,-3.0v7 M-2.5,-0.5L0,-3.0L2.5,-0.5"/>
                </g>
                <g id="arrowDown" xlink:href="#dirArrow" transform="rotate(180) translate(-30 -48)" onmousedown="handlePan(0,1)">
                  <use xlink:href="#rim" fill="#404040">
                        <set attributeName="fill" to="#808080" begin="arrowDown.mouseover" end="arrowDown.mouseout"/>
                  </use>
                  <path fill="none" stroke="white" stroke-width="1.5" d="M0,-3.0v7 M-2.5,-0.5L0,-3.0L2.5,-0.5"/>
                </g>
                <g id="arrowLeft" xlink:href="#dirArrow" transform="rotate(270) translate(-36 17)" onmousedown="handlePan(-1,0)">
                  <use xlink:href="#rim" fill="#404040">
                        <set attributeName="fill" to="#808080" begin="arrowLeft.mouseover" end="arrowLeft.mouseout"/>
                  </use>
                  <path fill="none" stroke="white" stroke-width="1.5" d="M0,-3.0v7 M-2.5,-0.5L0,-3.0L2.5,-0.5"/>
                </g>
        </g>
        <svg viewBox="0 0 15 15" width="100%" height="30px" preserveAspectRatio="xMaxYMin meet">
         <g id="arrow_out" transform="scale(0.3 0.3)">
          <a xlink:href="plot__core9_8cpp_ac16f49a033e4ae3af728e3789f080e51_icgraph_org.svg" target="_base">
           <rect id="button" ry="5" rx="5" y="6" x="6" height="38" width="38"
                fill="#f2f5e9" fill-opacity="0.5" stroke="#606060" stroke-width="1.0"/>
           <path id="arrow"
             d="M 11.500037,31.436501 C 11.940474,20.09759 22.043105,11.32322 32.158766,21.979434 L 37.068811,17.246167 C 37.068811,17.246167 37.088388,32 37.088388,32 L 22.160133,31.978069 C 22.160133,31.978069 26.997745,27.140456 26.997745,27.140456 C 18.528582,18.264221 13.291696,25.230495 11.500037,31.436501 z"
             style="fill:#404040;"/>
          </a>
         </g>
        </svg>
</svg>
