<?xml version="1.0" encoding="UTF-8" standalone="no"?>
<!DOCTYPE svg PUBLIC "-//W3C//DTD SVG 1.1//EN"
 "http://www.w3.org/Graphics/SVG/1.1/DTD/svg11.dtd">
<!-- Generated by graphviz version 2.26.3 (20100126.1600)
 -->
<!-- Title: logical_plot_symbol_edition Pages: 1 -->
<!--zoomable 292 -->
<svg id="main" version="1.1" xmlns="http://www.w3.org/2000/svg" xmlns:xlink="http://www.w3.org/1999/xlink" xml:space="preserve" onload="init(evt)">
<style type="text/css"><![CDATA[
.edge:hover path { stroke: red; }
.edge:hover polygon { stroke: red; fill: red; }
]]></style>
<script type="text/javascript"><![CDATA[
var edges = document.getElementsByTagName('g');
if (edges && edges.length) {
  for (var i=0;i<edges.length;i++) {
    if (edges[i].id.substr(0,4)=='edge') {
      edges[i].setAttribute('class','edge');
    }
  }
}
]]></script>
        <defs>
                <circle id="rim" cx="0" cy="0" r="7"/>
                <circle id="rim2" cx="0" cy="0" r="3.5"/>
                <g id="zoomPlus">
                        <use xlink:href="#rim" fill="#404040">
                                <set attributeName="fill" to="#808080" begin="zoomplus.mouseover" end="zoomplus.mouseout"/>
                        </use>
                        <path d="M-4,0h8M0,-4v8" fill="none" stroke="white" stroke-width="1.5" pointer-events="none"/>
                </g>
                <g id="zoomMin">
                        <use xlink:href="#rim" fill="#404040">
                                <set attributeName="fill" to="#808080" begin="zoomminus.mouseover" end="zoomminus.mouseout"/>
                        </use>
                        <path d="M-4,0h8" fill="none" stroke="white" stroke-width="1.5" pointer-events="none"/>
                </g>
                <g id="dirArrow">
                        <path fill="none" stroke="white" stroke-width="1.5" d="M0,-3.0v7 M-2.5,-0.5L0,-3.0L2.5,-0.5"/>
                </g>
               <g id="resetDef">
                       <use xlink:href="#rim2" fill="#404040">
                               <set attributeName="fill" to="#808080" begin="reset.mouseover" end="reset.mouseout"/>
                       </use>
               </g>
        </defs>

<script type="text/javascript">
var viewWidth = 782;
var viewHeight = 292;
var sectionId = 'dynsection-31';
</script>
<script xlink:href="svgpan.js"/>
<svg id="graph" class="graph">
<g id="viewport">
<title>logical_plot_symbol_edition</title>
<polygon fill="white" stroke="white" points="-4,5 -4,-288 779,-288 779,5 -4,5"/>
<!-- Node1 -->
<g id="node1" class="node"><title>Node1</title>
<polygon fill="#bfbfbf" stroke="black" points="0,-114 0,-154 102,-154 102,-114 0,-114"/>
<text text-anchor="start" x="8" y="-141" font-family="Helvetica,sans-Serif" font-size="10.00">logical_plot_symbol</text>
<text text-anchor="middle" x="51" y="-125" font-family="Helvetica,sans-Serif" font-size="10.00">_edition</text>
</g>
<!-- Node2 -->
<g id="node3" class="node"><title>Node2</title>
<a xlink:href="plot_8cpp.html#a69f1a5353a6592a8d6e9ac61d74b6a02" target="_top" xlink:title="affect_angle_to_symbols">
<polygon fill="white" stroke="black" points="138.5,-260 138.5,-284 263.5,-284 263.5,-260 138.5,-260"/>
<text text-anchor="middle" x="201" y="-271" font-family="Helvetica,sans-Serif" font-size="10.00">affect_angle_to_symbols</text>
</a>
</g>
<!-- Node1&#45;&gt;Node2 -->
<g id="edge2" class="edge"><title>Node1&#45;&gt;Node2</title>
<path fill="none" stroke="midnightblue" d="M61.0788,-154.373C74.9523,-180.404 102.323,-225.173 138,-251 140.125,-252.538 142.369,-253.968 144.696,-255.298"/>
<polygon fill="midnightblue" stroke="midnightblue" points="143.484,-258.605 153.993,-259.944 146.612,-252.344 143.484,-258.605"/>
</g>
<!-- Node3 -->
<g id="node5" class="node"><title>Node3</title>
<a xlink:href="plot_8cpp.html#a0e606b8d73e2db784589b32f412e8fe1" target="_top" xlink:title="duplicate_selected\l_symbols">
<polygon fill="white" stroke="black" points="152,-202 152,-242 250,-242 250,-202 152,-202"/>
<text text-anchor="start" x="160" y="-229" font-family="Helvetica,sans-Serif" font-size="10.00">duplicate_selected</text>
<text text-anchor="middle" x="201" y="-213" font-family="Helvetica,sans-Serif" font-size="10.00">_symbols</text>
</a>
</g>
<!-- Node1&#45;&gt;Node3 -->
<g id="edge4" class="edge"><title>Node1&#45;&gt;Node3</title>
<path fill="none" stroke="midnightblue" d="M82.5378,-154.215C98.9347,-164.562 119.389,-177.215 138,-188 143.098,-190.954 148.468,-193.98 153.835,-196.95"/>
<polygon fill="midnightblue" stroke="midnightblue" points="152.364,-200.135 162.815,-201.872 155.729,-193.997 152.364,-200.135"/>
</g>
<!-- Node4 -->
<g id="node7" class="node"><title>Node4</title>
<a xlink:href="plot_8cpp.html#a23e56ec233d9db7dd7dca8c52410b847" target="_top" xlink:title="delete_selected_symbols">
<polygon fill="white" stroke="black" points="300.5,-82 300.5,-106 427.5,-106 427.5,-82 300.5,-82"/>
<text text-anchor="middle" x="364" y="-93" font-family="Helvetica,sans-Serif" font-size="10.00">delete_selected_symbols</text>
</a>
</g>
<!-- Node1&#45;&gt;Node4 -->
<g id="edge6" class="edge"><title>Node1&#45;&gt;Node4</title>
<path fill="none" stroke="midnightblue" d="M102.26,-120.25C113.939,-117.502 126.343,-114.886 138,-113 188.485,-104.834 245.916,-100.063 290.251,-97.3448"/>
<polygon fill="midnightblue" stroke="midnightblue" points="290.587,-100.831 300.363,-96.7463 290.174,-93.8434 290.587,-100.831"/>
</g>
<!-- Node9 -->
<g id="node17" class="node"><title>Node9</title>
<a xlink:href="_c_o_r_e__6_8cpp.html#a9574e0b790211959c7398e42468410d8" target="_top" xlink:title="toggle">
<polygon fill="white" stroke="black" points="179.5,-122 179.5,-146 222.5,-146 222.5,-122 179.5,-122"/>
<text text-anchor="middle" x="201" y="-133" font-family="Helvetica,sans-Serif" font-size="10.00">toggle</text>
</a>
</g>
<!-- Node1&#45;&gt;Node9 -->
<g id="edge16" class="edge"><title>Node1&#45;&gt;Node9</title>
<path fill="none" stroke="midnightblue" d="M102.202,-134C124.401,-134 149.703,-134 169.144,-134"/>
<polygon fill="midnightblue" stroke="midnightblue" points="169.285,-137.5 179.285,-134 169.285,-130.5 169.285,-137.5"/>
</g>
<!-- Node10 -->
<g id="node19" class="node"><title>Node10</title>
<a xlink:href="plot_8cpp.html#a91f3a181b08c6bd1095771d96903f7f9" target="_top" xlink:title="position_down_selected\l_symbols">
<polygon fill="white" stroke="black" points="303.5,-154 303.5,-194 424.5,-194 424.5,-154 303.5,-154"/>
<text text-anchor="start" x="311.5" y="-181" font-family="Helvetica,sans-Serif" font-size="10.00">position_down_selected</text>
<text text-anchor="middle" x="364" y="-165" font-family="Helvetica,sans-Serif" font-size="10.00">_symbols</text>
</a>
</g>
<!-- Node1&#45;&gt;Node10 -->
<g id="edge18" class="edge"><title>Node1&#45;&gt;Node10</title>
<path fill="none" stroke="midnightblue" d="M102.26,-147.75C113.939,-150.498 126.343,-153.114 138,-155 189.566,-163.341 248.381,-168.139 293.083,-170.827"/>
<polygon fill="midnightblue" stroke="midnightblue" points="293.076,-174.333 303.262,-171.417 293.481,-167.344 293.076,-174.333"/>
</g>
<!-- Node12 -->
<g id="node25" class="node"><title>Node12</title>
<a xlink:href="plot_8cpp.html#a567a92fb27840f1db037b3ff0c15de28" target="_top" xlink:title="position_on_top">
<polygon fill="white" stroke="black" points="158.5,-42 158.5,-66 243.5,-66 243.5,-42 158.5,-42"/>
<text text-anchor="middle" x="201" y="-53" font-family="Helvetica,sans-Serif" font-size="10.00">position_on_top</text>
</a>
</g>
<!-- Node1&#45;&gt;Node12 -->
<g id="edge26" class="edge"><title>Node1&#45;&gt;Node12</title>
<path fill="none" stroke="midnightblue" d="M80.8902,-113.752C97.3562,-103.035 118.381,-90.051 138,-80 144.733,-76.5505 152.033,-73.2023 159.196,-70.1199"/>
<polygon fill="midnightblue" stroke="midnightblue" points="160.939,-73.1848 168.813,-66.0968 158.237,-66.7271 160.939,-73.1848"/>
</g>
<!-- Node14 -->
<g id="node31" class="node"><title>Node14</title>
<a xlink:href="plot_8cpp.html#ac16f49a033e4ae3af728e3789f080e51" target="_top" xlink:title="reset_symbols_selected">
<polygon fill="white" stroke="black" points="140,-0 140,-24 262,-24 262,-0 140,-0"/>
<text text-anchor="middle" x="201" y="-11" font-family="Helvetica,sans-Serif" font-size="10.00">reset_symbols_selected</text>
</a>
</g>
<!-- Node1&#45;&gt;Node14 -->
<g id="edge34" class="edge"><title>Node1&#45;&gt;Node14</title>
<path fill="none" stroke="midnightblue" d="M63.5954,-113.671C78.6581,-90.9484 105.901,-54.5265 138,-33 140.424,-31.3746 142.984,-29.8653 145.63,-28.465"/>
<polygon fill="midnightblue" stroke="midnightblue" points="147.324,-31.5362 154.885,-24.1141 144.346,-25.2014 147.324,-31.5362"/>
</g>
<!-- Node5 -->
<g id="node9" class="node"><title>Node5</title>
<a xlink:href="plot_8cpp.html#a81a672760936c3fe4915f269850aa955" target="_top" xlink:title="snapshot_calc">
<polygon fill="white" stroke="black" points="491,-132 491,-156 571,-156 571,-132 491,-132"/>
<text text-anchor="middle" x="531" y="-143" font-family="Helvetica,sans-Serif" font-size="10.00">snapshot_calc</text>
</a>
</g>
<!-- Node4&#45;&gt;Node5 -->
<g id="edge8" class="edge"><title>Node4&#45;&gt;Node5</title>
<path fill="none" stroke="midnightblue" d="M404.426,-106.104C427.503,-113.013 456.625,-121.732 481.115,-129.064"/>
<polygon fill="midnightblue" stroke="midnightblue" points="480.362,-132.493 490.946,-132.008 482.37,-125.787 480.362,-132.493"/>
</g>
<!-- Node6 -->
<g id="node11" class="node"><title>Node6</title>
<a xlink:href="plot_8cpp.html#a58fe8fc317633b7cfd679c95c67193b9" target="_top" xlink:title="clear_symbol_slot">
<polygon fill="white" stroke="black" points="483.5,-90 483.5,-114 578.5,-114 578.5,-90 483.5,-90"/>
<text text-anchor="middle" x="531" y="-101" font-family="Helvetica,sans-Serif" font-size="10.00">clear_symbol_slot</text>
</a>
</g>
<!-- Node4&#45;&gt;Node6 -->
<g id="edge10" class="edge"><title>Node4&#45;&gt;Node6</title>
<path fill="none" stroke="midnightblue" d="M427.612,-97.0473C442.665,-97.7684 458.635,-98.5334 473.404,-99.2409"/>
<polygon fill="midnightblue" stroke="midnightblue" points="473.255,-102.738 483.411,-99.7203 473.59,-95.7457 473.255,-102.738"/>
</g>
<!-- Node7 -->
<g id="node13" class="node"><title>Node7</title>
<a xlink:href="plot_8cpp.html#a94516b8805c4d4f6c5850469e7eb5945" target="_top" xlink:title="rearrange_plan">
<polygon fill="white" stroke="black" points="491,-48 491,-72 571,-72 571,-48 491,-48"/>
<text text-anchor="middle" x="531" y="-59" font-family="Helvetica,sans-Serif" font-size="10.00">rearrange_plan</text>
</a>
</g>
<!-- Node4&#45;&gt;Node7 -->
<g id="edge12" class="edge"><title>Node4&#45;&gt;Node7</title>
<path fill="none" stroke="midnightblue" d="M423.348,-81.9171C442.254,-78.0681 462.967,-73.8511 481.13,-70.1531"/>
<polygon fill="midnightblue" stroke="midnightblue" points="481.831,-73.5824 490.931,-68.1577 480.434,-66.7231 481.831,-73.5824"/>
</g>
<!-- Node8 -->
<g id="node15" class="node"><title>Node8</title>
<a xlink:href="plot_8cpp.html#a3aa259226da63745d5e779178c8111f2" target="_top" xlink:title="copy_symbol_to_emply_slot">
<polygon fill="white" stroke="black" points="634,-48 634,-72 774,-72 774,-48 634,-48"/>
<text text-anchor="middle" x="704" y="-59" font-family="Helvetica,sans-Serif" font-size="10.00">copy_symbol_to_emply_slot</text>
</a>
</g>
<!-- Node7&#45;&gt;Node8 -->
<g id="edge14" class="edge"><title>Node7&#45;&gt;Node8</title>
<path fill="none" stroke="midnightblue" d="M571.125,-60C586.874,-60 605.535,-60 623.818,-60"/>
<polygon fill="midnightblue" stroke="midnightblue" points="623.915,-63.5001 633.915,-60 623.915,-56.5001 623.915,-63.5001"/>
</g>
<!-- Node10&#45;&gt;Node5 -->
<g id="edge20" class="edge"><title>Node10&#45;&gt;Node5</title>
<path fill="none" stroke="midnightblue" d="M424.763,-163.084C443.162,-159.779 463.155,-156.188 480.781,-153.021"/>
<polygon fill="midnightblue" stroke="midnightblue" points="481.633,-156.424 490.857,-151.211 480.395,-149.535 481.633,-156.424"/>
</g>
<!-- Node11 -->
<g id="node22" class="node"><title>Node11</title>
<a xlink:href="plot_8cpp.html#afa207c7603f4ee259c528f3d86afb2f6" target="_top" xlink:title="exchange_symbol_position">
<polygon fill="white" stroke="black" points="464,-174 464,-198 598,-198 598,-174 464,-174"/>
<text text-anchor="middle" x="531" y="-185" font-family="Helvetica,sans-Serif" font-size="10.00">exchange_symbol_position</text>
</a>
</g>
<!-- Node10&#45;&gt;Node11 -->
<g id="edge22" class="edge"><title>Node10&#45;&gt;Node11</title>
<path fill="none" stroke="midnightblue" d="M424.763,-178.366C434.177,-179.043 444.008,-179.749 453.725,-180.447"/>
<polygon fill="midnightblue" stroke="midnightblue" points="453.564,-183.945 463.789,-181.17 454.066,-176.963 453.564,-183.945"/>
</g>
<!-- Node11&#45;&gt;Node8 -->
<g id="edge24" class="edge"><title>Node11&#45;&gt;Node8</title>
<path fill="none" stroke="midnightblue" d="M579.43,-173.89C585.889,-171.402 592.257,-168.46 598,-165 635.546,-142.381 669.771,-103.787 688.659,-80.2198"/>
<polygon fill="midnightblue" stroke="midnightblue" points="691.476,-82.3001 694.902,-72.2746 685.972,-77.9752 691.476,-82.3001"/>
</g>
<!-- Node12&#45;&gt;Node4 -->
<g id="edge28" class="edge"><title>Node12&#45;&gt;Node4</title>
<path fill="none" stroke="midnightblue" d="M243.826,-64.5095C262.551,-69.1046 284.822,-74.5697 305.073,-79.5395"/>
<polygon fill="midnightblue" stroke="midnightblue" points="304.283,-82.9492 314.829,-81.9334 305.951,-76.1509 304.283,-82.9492"/>
</g>
<!-- Node13 -->
<g id="node28" class="node"><title>Node13</title>
<a xlink:href="plot_8cpp.html#a9c23683c01563bbc9fceacea0cfd1282" target="_top" xlink:title="add_selected_symbols\l_to_calc">
<polygon fill="white" stroke="black" points="306,-8 306,-48 422,-48 422,-8 306,-8"/>
<text text-anchor="start" x="314" y="-35" font-family="Helvetica,sans-Serif" font-size="10.00">add_selected_symbols</text>
<text text-anchor="middle" x="364" y="-19" font-family="Helvetica,sans-Serif" font-size="10.00">_to_calc</text>
</a>
</g>
<!-- Node12&#45;&gt;Node13 -->
<g id="edge30" class="edge"><title>Node12&#45;&gt;Node13</title>
<path fill="none" stroke="midnightblue" d="M243.826,-47.1688C259.675,-44.6408 278.064,-41.7076 295.619,-38.9075"/>
<polygon fill="midnightblue" stroke="midnightblue" points="296.509,-42.3098 305.833,-37.2782 295.406,-35.3972 296.509,-42.3098"/>
</g>
<!-- Node13&#45;&gt;Node8 -->
<g id="edge32" class="edge"><title>Node13&#45;&gt;Node8</title>
<path fill="none" stroke="midnightblue" d="M422.381,-28.342C469.842,-29.1965 538.453,-31.7426 598,-39 612.086,-40.7168 627.103,-43.2524 641.269,-45.9731"/>
<polygon fill="midnightblue" stroke="midnightblue" points="640.921,-49.4718 651.41,-47.9778 642.278,-42.6047 640.921,-49.4718"/>
</g>
</g>
</svg>
        <g id="navigator" transform="translate(0 0)" fill="#404254">
                <rect fill="#f2f5e9" fill-opacity="0.5" stroke="#606060" stroke-width=".5" x="0" y="0" width="60" height="60"/>
                <use id="zoomplus" xlink:href="#zoomPlus" x="17" y="9" onmousedown="handleZoom(evt,'in')"/>
                <use id="zoomminus" xlink:href="#zoomMin" x="42" y="9" onmousedown="handleZoom(evt,'out')"/>
                <use id="reset" xlink:href="#resetDef" x="30" y="36" onmousedown="handleReset()"/>
                <g id="arrowUp" xlink:href="#dirArrow" transform="translate(30 24)" onmousedown="handlePan(0,-1)">
                  <use xlink:href="#rim" fill="#404040">
                        <set attributeName="fill" to="#808080" begin="arrowUp.mouseover" end="arrowUp.mouseout"/>
                  </use>
                  <path fill="none" stroke="white" stroke-width="1.5" d="M0,-3.0v7 M-2.5,-0.5L0,-3.0L2.5,-0.5"/>
                </g>
                <g id="arrowRight" xlink:href="#dirArrow" transform="rotate(90) translate(36 -43)" onmousedown="handlePan(1,0)">
                  <use xlink:href="#rim" fill="#404040">
                        <set attributeName="fill" to="#808080" begin="arrowRight.mouseover" end="arrowRight.mouseout"/>
                  </use>
                  <path fill="none" stroke="white" stroke-width="1.5" d="M0,-3.0v7 M-2.5,-0.5L0,-3.0L2.5,-0.5"/>
                </g>
                <g id="arrowDown" xlink:href="#dirArrow" transform="rotate(180) translate(-30 -48)" onmousedown="handlePan(0,1)">
                  <use xlink:href="#rim" fill="#404040">
                        <set attributeName="fill" to="#808080" begin="arrowDown.mouseover" end="arrowDown.mouseout"/>
                  </use>
                  <path fill="none" stroke="white" stroke-width="1.5" d="M0,-3.0v7 M-2.5,-0.5L0,-3.0L2.5,-0.5"/>
                </g>
                <g id="arrowLeft" xlink:href="#dirArrow" transform="rotate(270) translate(-36 17)" onmousedown="handlePan(-1,0)">
                  <use xlink:href="#rim" fill="#404040">
                        <set attributeName="fill" to="#808080" begin="arrowLeft.mouseover" end="arrowLeft.mouseout"/>
                  </use>
                  <path fill="none" stroke="white" stroke-width="1.5" d="M0,-3.0v7 M-2.5,-0.5L0,-3.0L2.5,-0.5"/>
                </g>
        </g>
        <svg viewBox="0 0 15 15" width="100%" height="30px" preserveAspectRatio="xMaxYMin meet">
         <g id="arrow_out" transform="scale(0.3 0.3)">
          <a xlink:href="plot_8cpp_a74a79a0e49b7f81a7cb8b944c77b3b0d_cgraph_org.svg" target="_base">
           <rect id="button" ry="5" rx="5" y="6" x="6" height="38" width="38"
                fill="#f2f5e9" fill-opacity="0.5" stroke="#606060" stroke-width="1.0"/>
           <path id="arrow"
             d="M 11.500037,31.436501 C 11.940474,20.09759 22.043105,11.32322 32.158766,21.979434 L 37.068811,17.246167 C 37.068811,17.246167 37.088388,32 37.088388,32 L 22.160133,31.978069 C 22.160133,31.978069 26.997745,27.140456 26.997745,27.140456 C 18.528582,18.264221 13.291696,25.230495 11.500037,31.436501 z"
             style="fill:#404040;"/>
          </a>
         </g>
        </svg>
</svg>
