<?xml version="1.0" encoding="UTF-8" standalone="no"?>
<!DOCTYPE svg PUBLIC "-//W3C//DTD SVG 1.1//EN"
 "http://www.w3.org/Graphics/SVG/1.1/DTD/svg11.dtd">
<!-- Generated by graphviz version 2.26.3 (20100126.1600)
 -->
<!-- Title: plot_menu_bar Pages: 1 -->
<svg width="388pt" height="154pt"
 viewBox="0.00 0.00 388.00 154.00" xmlns="http://www.w3.org/2000/svg" xmlns:xlink="http://www.w3.org/1999/xlink">
<g id="graph1" class="graph" transform="scale(1 1) rotate(0) translate(4 150)">
<title>plot_menu_bar</title>
<polygon fill="white" stroke="white" points="-4,5 -4,-150 385,-150 385,5 -4,5"/>
<!-- Node1 -->
<g id="node1" class="node"><title>Node1</title>
<polygon fill="#bfbfbf" stroke="black" points="0,-62 0,-86 80,-86 80,-62 0,-62"/>
<text text-anchor="middle" x="40" y="-73" font-family="Helvetica,sans-Serif" font-size="10.00">plot_menu_bar</text>
</g>
<!-- Node2 -->
<g id="node3" class="node"><title>Node2</title>
<a xlink:href="whitecat_8h.html#a5e88fb41a8a9fa61f87aae4fedd74510" target="_top" xlink:title="CouleurPlotLine">
<polygon fill="white" stroke="black" points="132,-122 132,-146 218,-146 218,-122 132,-122"/>
<text text-anchor="middle" x="175" y="-133" font-family="Helvetica,sans-Serif" font-size="10.00">CouleurPlotLine</text>
</a>
</g>
<!-- Node1&#45;&gt;Node2 -->
<g id="edge2" class="edge"><title>Node1&#45;&gt;Node2</title>
<path fill="none" stroke="midnightblue" d="M67.0677,-86.1533C81.5713,-92.6542 99.7506,-100.785 116,-108 123.265,-111.226 131.04,-114.663 138.482,-117.945"/>
<polygon fill="midnightblue" stroke="midnightblue" points="137.106,-121.164 147.668,-121.993 139.929,-114.758 137.106,-121.164"/>
</g>
<!-- Node3 -->
<g id="node5" class="node"><title>Node3</title>
<a xlink:href="_c_o_r_e__6_8cpp.html#a3680de15f6ccf838397bde99d246125a" target="_top" xlink:title="show_type_midi">
<polygon fill="white" stroke="black" points="281.5,-62 281.5,-86 368.5,-86 368.5,-62 281.5,-62"/>
<text text-anchor="middle" x="325" y="-73" font-family="Helvetica,sans-Serif" font-size="10.00">show_type_midi</text>
</a>
</g>
<!-- Node1&#45;&gt;Node3 -->
<g id="edge4" class="edge"><title>Node1&#45;&gt;Node3</title>
<path fill="none" stroke="midnightblue" d="M80.2302,-74.628C91.779,-74.7816 104.388,-74.9236 116,-75 168.443,-75.345 181.556,-75.2881 234,-75 246.096,-74.9335 259.097,-74.8174 271.379,-74.6872"/>
<polygon fill="midnightblue" stroke="midnightblue" points="271.53,-78.1858 281.491,-74.5753 271.452,-71.1863 271.53,-78.1858"/>
</g>
<!-- Node4 -->
<g id="node7" class="node"><title>Node4</title>
<a xlink:href="colors__fonts_8h.html#a432c8c850a2a3ffc16f0030931d99475" target="_top" xlink:title="CouleurNoir">
<polygon fill="white" stroke="black" points="141,-42 141,-66 209,-66 209,-42 141,-42"/>
<text text-anchor="middle" x="175" y="-53" font-family="Helvetica,sans-Serif" font-size="10.00">CouleurNoir</text>
</a>
</g>
<!-- Node1&#45;&gt;Node4 -->
<g id="edge6" class="edge"><title>Node1&#45;&gt;Node4</title>
<path fill="none" stroke="midnightblue" d="M80.1389,-68.0535C95.9508,-65.711 114.174,-63.0113 130.396,-60.6081"/>
<polygon fill="midnightblue" stroke="midnightblue" points="131.342,-64.0061 140.721,-59.0784 130.316,-57.0817 131.342,-64.0061"/>
</g>
<!-- Node5 -->
<g id="node9" class="node"><title>Node5</title>
<a xlink:href="gui__boutons__rebuild1_8cpp.html#a1cf102c119afcc2263522fab00590476" target="_top" xlink:title="command_button_view">
<polygon fill="white" stroke="black" points="116.5,-0 116.5,-24 233.5,-24 233.5,-0 116.5,-0"/>
<text text-anchor="middle" x="175" y="-11" font-family="Helvetica,sans-Serif" font-size="10.00">command_button_view</text>
</a>
</g>
<!-- Node1&#45;&gt;Node5 -->
<g id="edge8" class="edge"><title>Node1&#45;&gt;Node5</title>
<path fill="none" stroke="midnightblue" d="M60.2178,-61.9949C75.2913,-53.3172 96.5472,-41.6483 116,-33 120.135,-31.1615 124.486,-29.3656 128.872,-27.6472"/>
<polygon fill="midnightblue" stroke="midnightblue" points="130.345,-30.8321 138.462,-24.0224 127.87,-24.2842 130.345,-30.8321"/>
</g>
<!-- Node5&#45;&gt;Node3 -->
<g id="edge12" class="edge"><title>Node5&#45;&gt;Node3</title>
<path fill="none" stroke="midnightblue" d="M210.43,-24.0829C218.239,-26.8924 226.435,-29.9555 234,-33 252.813,-40.5715 273.443,-49.7889 290.297,-57.565"/>
<polygon fill="midnightblue" stroke="midnightblue" points="289.198,-60.9137 299.742,-61.9535 292.148,-54.5655 289.198,-60.9137"/>
</g>
<!-- Node6 -->
<g id="node11" class="node"><title>Node6</title>
<a xlink:href="colors__fonts_8h.html#a5427dd0a5a11091bc410f7eed5d2657f" target="_top" xlink:title="CouleurYellowFgroup">
<polygon fill="white" stroke="black" points="270.5,-0 270.5,-24 379.5,-24 379.5,-0 270.5,-0"/>
<text text-anchor="middle" x="325" y="-11" font-family="Helvetica,sans-Serif" font-size="10.00">CouleurYellowFgroup</text>
</a>
</g>
<!-- Node5&#45;&gt;Node6 -->
<g id="edge10" class="edge"><title>Node5&#45;&gt;Node6</title>
<path fill="none" stroke="midnightblue" d="M233.853,-12C242.466,-12 251.378,-12 260.103,-12"/>
<polygon fill="midnightblue" stroke="midnightblue" points="260.231,-15.5001 270.231,-12 260.231,-8.5001 260.231,-15.5001"/>
</g>
</g>
</svg>
