<?xml version="1.0" encoding="UTF-8" standalone="no"?>
<!DOCTYPE svg PUBLIC "-//W3C//DTD SVG 1.1//EN"
 "http://www.w3.org/Graphics/SVG/1.1/DTD/svg11.dtd">
<!-- Generated by graphviz version 2.26.3 (20100126.1600)
 -->
<!-- Title: logical_plot_symbol_edition Pages: 1 -->
<svg width="802pt" height="718pt"
 viewBox="0.00 0.00 802.00 718.00" xmlns="http://www.w3.org/2000/svg" xmlns:xlink="http://www.w3.org/1999/xlink">
<g id="graph1" class="graph" transform="scale(1 1) rotate(0) translate(4 714)">
<title>logical_plot_symbol_edition</title>
<polygon fill="white" stroke="white" points="-4,5 -4,-714 799,-714 799,5 -4,5"/>
<!-- Node1 -->
<g id="node1" class="node"><title>Node1</title>
<polygon fill="#bfbfbf" stroke="black" points="0,-323 0,-363 102,-363 102,-323 0,-323"/>
<text text-anchor="start" x="8" y="-350" font-family="Helvetica,sans-Serif" font-size="10.00">logical_plot_symbol</text>
<text text-anchor="middle" x="51" y="-334" font-family="Helvetica,sans-Serif" font-size="10.00">_edition</text>
</g>
<!-- Node2 -->
<g id="node3" class="node"><title>Node2</title>
<a xlink:href="_c_o_r_e__6_8cpp.html#ad7187a2df52460607db81f8bf0500953" target="_top" xlink:title="attribute_midi_solo\l_affectation">
<polygon fill="white" stroke="black" points="157,-670 157,-710 255,-710 255,-670 157,-670"/>
<text text-anchor="start" x="165" y="-697" font-family="Helvetica,sans-Serif" font-size="10.00">attribute_midi_solo</text>
<text text-anchor="middle" x="206" y="-681" font-family="Helvetica,sans-Serif" font-size="10.00">_affectation</text>
</a>
</g>
<!-- Node1&#45;&gt;Node2 -->
<g id="edge2" class="edge"><title>Node1&#45;&gt;Node2</title>
<path fill="none" stroke="midnightblue" d="M54.1473,-363.014C64.3098,-425.425 97.9264,-615.066 138,-661 140.975,-664.411 144.422,-667.432 148.152,-670.106"/>
<polygon fill="midnightblue" stroke="midnightblue" points="146.361,-673.114 156.701,-675.424 150.058,-667.17 146.361,-673.114"/>
</g>
<!-- Node4 -->
<g id="node7" class="node"><title>Node4</title>
<a xlink:href="plot__core9_8cpp.html#a69f1a5353a6592a8d6e9ac61d74b6a02" target="_top" xlink:title="affect_angle_to_symbols">
<polygon fill="white" stroke="black" points="143.5,-628 143.5,-652 268.5,-652 268.5,-628 143.5,-628"/>
<text text-anchor="middle" x="206" y="-639" font-family="Helvetica,sans-Serif" font-size="10.00">affect_angle_to_symbols</text>
</a>
</g>
<!-- Node1&#45;&gt;Node4 -->
<g id="edge6" class="edge"><title>Node1&#45;&gt;Node4</title>
<path fill="none" stroke="midnightblue" d="M54.8744,-363.338C66.1769,-420.68 100.679,-581.895 138,-619 139.095,-620.089 140.246,-621.122 141.443,-622.101"/>
<polygon fill="midnightblue" stroke="midnightblue" points="139.696,-625.144 149.947,-627.82 143.602,-619.335 139.696,-625.144"/>
</g>
<!-- Node5 -->
<g id="node9" class="node"><title>Node5</title>
<a xlink:href="_c_o_r_e__6_8cpp.html#a852678868d2a66db68f4a2c9eacfcc78" target="_top" xlink:title="reset_numeric_entry">
<polygon fill="white" stroke="black" points="153.5,-586 153.5,-610 258.5,-610 258.5,-586 153.5,-586"/>
<text text-anchor="middle" x="206" y="-597" font-family="Helvetica,sans-Serif" font-size="10.00">reset_numeric_entry</text>
</a>
</g>
<!-- Node1&#45;&gt;Node5 -->
<g id="edge8" class="edge"><title>Node1&#45;&gt;Node5</title>
<path fill="none" stroke="midnightblue" d="M53.1275,-363.093C58.8078,-406.946 78.2189,-512.091 138,-572 141.446,-575.453 145.398,-578.456 149.625,-581.065"/>
<polygon fill="midnightblue" stroke="midnightblue" points="148.15,-584.245 158.616,-585.889 151.459,-578.077 148.15,-584.245"/>
</g>
<!-- Node6 -->
<g id="node11" class="node"><title>Node6</title>
<a xlink:href="plot__core9_8cpp.html#a0e606b8d73e2db784589b32f412e8fe1" target="_top" xlink:title="duplicate_selected\l_symbols">
<polygon fill="white" stroke="black" points="157,-490 157,-530 255,-530 255,-490 157,-490"/>
<text text-anchor="start" x="165" y="-517" font-family="Helvetica,sans-Serif" font-size="10.00">duplicate_selected</text>
<text text-anchor="middle" x="206" y="-501" font-family="Helvetica,sans-Serif" font-size="10.00">_symbols</text>
</a>
</g>
<!-- Node1&#45;&gt;Node6 -->
<g id="edge10" class="edge"><title>Node1&#45;&gt;Node6</title>
<path fill="none" stroke="midnightblue" d="M60.0935,-363.42C73.5891,-391.796 101.323,-443.337 138,-476 141.419,-479.045 145.16,-481.889 149.073,-484.531"/>
<polygon fill="midnightblue" stroke="midnightblue" points="147.515,-487.683 157.855,-489.99 151.21,-481.738 147.515,-487.683"/>
</g>
<!-- Node7 -->
<g id="node13" class="node"><title>Node7</title>
<a xlink:href="plot__core9_8cpp.html#a30a3e9357adedd3ded2f2ded796e81e2" target="_top" xlink:title="plot_generate_appareils_list">
<polygon fill="white" stroke="black" points="310.5,-519 310.5,-543 447.5,-543 447.5,-519 310.5,-519"/>
<text text-anchor="middle" x="379" y="-530" font-family="Helvetica,sans-Serif" font-size="10.00">plot_generate_appareils_list</text>
</a>
</g>
<!-- Node1&#45;&gt;Node7 -->
<g id="edge38" class="edge"><title>Node1&#45;&gt;Node7</title>
<path fill="none" stroke="midnightblue" d="M52.9354,-363.063C58.1388,-404.505 76.5129,-499.02 138,-539 197.884,-577.937 285.001,-561.417 336.447,-546.067"/>
<polygon fill="midnightblue" stroke="midnightblue" points="337.727,-549.335 346.242,-543.03 335.654,-542.649 337.727,-549.335"/>
</g>
<!-- Node11 -->
<g id="node22" class="node"><title>Node11</title>
<a xlink:href="plot__core9_8cpp.html#a81a672760936c3fe4915f269850aa955" target="_top" xlink:title="snapshot_calc">
<polygon fill="white" stroke="black" points="514,-428 514,-452 594,-452 594,-428 514,-428"/>
<text text-anchor="middle" x="554" y="-439" font-family="Helvetica,sans-Serif" font-size="10.00">snapshot_calc</text>
</a>
</g>
<!-- Node1&#45;&gt;Node11 -->
<g id="edge22" class="edge"><title>Node1&#45;&gt;Node11</title>
<path fill="none" stroke="midnightblue" d="M61.5609,-363.358C75.4017,-387.55 102.19,-426.689 138,-443 259.651,-498.41 422.844,-472.13 503.923,-453.319"/>
<polygon fill="midnightblue" stroke="midnightblue" points="504.948,-456.673 513.866,-450.953 503.328,-449.863 504.948,-456.673"/>
</g>
<!-- Node12 -->
<g id="node24" class="node"><title>Node12</title>
<a xlink:href="plot__core9_8cpp.html#a23e56ec233d9db7dd7dca8c52410b847" target="_top" xlink:title="delete_selected_symbols">
<polygon fill="white" stroke="black" points="142.5,-310 142.5,-334 269.5,-334 269.5,-310 142.5,-310"/>
<text text-anchor="middle" x="206" y="-321" font-family="Helvetica,sans-Serif" font-size="10.00">delete_selected_symbols</text>
</a>
</g>
<!-- Node1&#45;&gt;Node12 -->
<g id="edge24" class="edge"><title>Node1&#45;&gt;Node12</title>
<path fill="none" stroke="midnightblue" d="M102.182,-336.066C111.838,-334.757 122.112,-333.365 132.299,-331.985"/>
<polygon fill="midnightblue" stroke="midnightblue" points="132.99,-335.424 142.43,-330.613 132.05,-328.487 132.99,-335.424"/>
</g>
<!-- Node18 -->
<g id="node38" class="node"><title>Node18</title>
<a xlink:href="_c_o_r_e__6_8cpp.html#a32dc90bc691784f4e2e205c69a9e0a9d" target="_top" xlink:title="generate_channel_view\l_list_from_patched_circuits">
<polygon fill="white" stroke="black" points="138,-252 138,-292 274,-292 274,-252 138,-252"/>
<text text-anchor="start" x="146" y="-279" font-family="Helvetica,sans-Serif" font-size="10.00">generate_channel_view</text>
<text text-anchor="middle" x="206" y="-263" font-family="Helvetica,sans-Serif" font-size="10.00">_list_from_patched_circuits</text>
</a>
</g>
<!-- Node1&#45;&gt;Node18 -->
<g id="edge40" class="edge"><title>Node1&#45;&gt;Node18</title>
<path fill="none" stroke="midnightblue" d="M91.5347,-322.948C106.114,-315.864 122.73,-307.937 138,-301 141.579,-299.374 145.274,-297.722 149.007,-296.074"/>
<polygon fill="midnightblue" stroke="midnightblue" points="150.561,-299.215 158.32,-292.001 147.755,-292.802 150.561,-299.215"/>
</g>
<!-- Node23 -->
<g id="node49" class="node"><title>Node23</title>
<a xlink:href="_c_o_r_e__6_8cpp.html#a9574e0b790211959c7398e42468410d8" target="_top" xlink:title="toggle">
<polygon fill="white" stroke="black" points="184.5,-210 184.5,-234 227.5,-234 227.5,-210 184.5,-210"/>
<text text-anchor="middle" x="206" y="-221" font-family="Helvetica,sans-Serif" font-size="10.00">toggle</text>
</a>
</g>
<!-- Node1&#45;&gt;Node23 -->
<g id="edge52" class="edge"><title>Node1&#45;&gt;Node23</title>
<path fill="none" stroke="midnightblue" d="M63.5572,-322.748C78.5847,-300.135 105.795,-263.969 138,-243 149.001,-235.837 162.584,-231.002 174.711,-227.797"/>
<polygon fill="midnightblue" stroke="midnightblue" points="175.549,-231.195 184.466,-225.473 173.927,-224.386 175.549,-231.195"/>
</g>
<!-- Node24 -->
<g id="node51" class="node"><title>Node24</title>
<a xlink:href="plot__core9_8cpp.html#a91f3a181b08c6bd1095771d96903f7f9" target="_top" xlink:title="position_down_selected\l_symbols">
<polygon fill="white" stroke="black" points="145.5,-394 145.5,-434 266.5,-434 266.5,-394 145.5,-394"/>
<text text-anchor="start" x="153.5" y="-421" font-family="Helvetica,sans-Serif" font-size="10.00">position_down_selected</text>
<text text-anchor="middle" x="206" y="-405" font-family="Helvetica,sans-Serif" font-size="10.00">_symbols</text>
</a>
</g>
<!-- Node1&#45;&gt;Node24 -->
<g id="edge54" class="edge"><title>Node1&#45;&gt;Node24</title>
<path fill="none" stroke="midnightblue" d="M91.5347,-363.052C106.114,-370.136 122.73,-378.063 138,-385 141.579,-386.626 145.274,-388.278 149.007,-389.926"/>
<polygon fill="midnightblue" stroke="midnightblue" points="147.755,-393.198 158.32,-393.999 150.561,-386.785 147.755,-393.198"/>
</g>
<!-- Node26 -->
<g id="node58" class="node"><title>Node26</title>
<a xlink:href="plot__core9_8cpp.html#a567a92fb27840f1db037b3ff0c15de28" target="_top" xlink:title="position_on_top">
<polygon fill="white" stroke="black" points="163.5,-352 163.5,-376 248.5,-376 248.5,-352 163.5,-352"/>
<text text-anchor="middle" x="206" y="-363" font-family="Helvetica,sans-Serif" font-size="10.00">position_on_top</text>
</a>
</g>
<!-- Node1&#45;&gt;Node26 -->
<g id="edge64" class="edge"><title>Node1&#45;&gt;Node26</title>
<path fill="none" stroke="midnightblue" d="M102.182,-349.934C118.613,-352.16 136.834,-354.629 153.366,-356.869"/>
<polygon fill="midnightblue" stroke="midnightblue" points="153.032,-360.356 163.411,-358.23 153.971,-353.419 153.032,-360.356"/>
</g>
<!-- Node27 -->
<g id="node62" class="node"><title>Node27</title>
<a xlink:href="plot__core9_8cpp.html#abc896e0ae2cbd1aa6c71a2747ebb685f" target="_top" xlink:title="group_symbols_selected">
<polygon fill="white" stroke="black" points="143.5,-168 143.5,-192 268.5,-192 268.5,-168 143.5,-168"/>
<text text-anchor="middle" x="206" y="-179" font-family="Helvetica,sans-Serif" font-size="10.00">group_symbols_selected</text>
</a>
</g>
<!-- Node1&#45;&gt;Node27 -->
<g id="edge70" class="edge"><title>Node1&#45;&gt;Node27</title>
<path fill="none" stroke="midnightblue" d="M57.9948,-322.862C69.7112,-292.07 96.2129,-233.453 138,-201 140.007,-199.442 142.13,-197.998 144.337,-196.661"/>
<polygon fill="midnightblue" stroke="midnightblue" points="145.972,-199.756 153.205,-192.014 142.723,-193.555 145.972,-199.756"/>
</g>
<!-- Node28 -->
<g id="node64" class="node"><title>Node28</title>
<a xlink:href="plot__core9_8cpp.html#a956b569f1c75a8a5b25aed4f2096232a" target="_top" xlink:title="plot_align_x">
<polygon fill="white" stroke="black" points="172,-126 172,-150 240,-150 240,-126 172,-126"/>
<text text-anchor="middle" x="206" y="-137" font-family="Helvetica,sans-Serif" font-size="10.00">plot_align_x</text>
</a>
</g>
<!-- Node1&#45;&gt;Node28 -->
<g id="edge72" class="edge"><title>Node1&#45;&gt;Node28</title>
<path fill="none" stroke="midnightblue" d="M54.9171,-322.878C63.3122,-285.146 86.6082,-203.561 138,-159 144.85,-153.06 153.361,-148.8 162.017,-145.745"/>
<polygon fill="midnightblue" stroke="midnightblue" points="163.22,-149.037 171.771,-142.782 161.185,-142.34 163.22,-149.037"/>
</g>
<!-- Node29 -->
<g id="node66" class="node"><title>Node29</title>
<a xlink:href="plot__core9_8cpp.html#ad3894921efd1d3506ce1b054b21b8a95" target="_top" xlink:title="plot_align_y">
<polygon fill="white" stroke="black" points="172,-84 172,-108 240,-108 240,-84 172,-84"/>
<text text-anchor="middle" x="206" y="-95" font-family="Helvetica,sans-Serif" font-size="10.00">plot_align_y</text>
</a>
</g>
<!-- Node1&#45;&gt;Node29 -->
<g id="edge74" class="edge"><title>Node1&#45;&gt;Node29</title>
<path fill="none" stroke="midnightblue" d="M52.9261,-322.872C58.2047,-278.998 76.8645,-174.117 138,-117 144.691,-110.749 153.207,-106.357 161.93,-103.272"/>
<polygon fill="midnightblue" stroke="midnightblue" points="163.209,-106.542 171.781,-100.315 161.197,-99.8379 163.209,-106.542"/>
</g>
<!-- Node30 -->
<g id="node68" class="node"><title>Node30</title>
<a xlink:href="plot__core9_8cpp.html#a3877f5a66a0940ae945de82e3f6312d1" target="_top" xlink:title="plot_ventilate_x">
<polygon fill="white" stroke="black" points="163.5,-0 163.5,-24 248.5,-24 248.5,-0 163.5,-0"/>
<text text-anchor="middle" x="206" y="-11" font-family="Helvetica,sans-Serif" font-size="10.00">plot_ventilate_x</text>
</a>
</g>
<!-- Node1&#45;&gt;Node30 -->
<g id="edge76" class="edge"><title>Node1&#45;&gt;Node30</title>
<path fill="none" stroke="midnightblue" d="M54.092,-322.874C63.9683,-261.055 96.5511,-75.5376 138,-33 142.47,-28.4122 147.919,-24.8213 153.766,-22.0118"/>
<polygon fill="midnightblue" stroke="midnightblue" points="155.233,-25.194 163.2,-18.2089 152.616,-18.7017 155.233,-25.194"/>
</g>
<!-- Node33 -->
<g id="node74" class="node"><title>Node33</title>
<a xlink:href="plot__core9_8cpp.html#a9549f983b62a28662b9fac6a071c246d" target="_top" xlink:title="plot_ventilate_y">
<polygon fill="white" stroke="black" points="163.5,-42 163.5,-66 248.5,-66 248.5,-42 163.5,-42"/>
<text text-anchor="middle" x="206" y="-53" font-family="Helvetica,sans-Serif" font-size="10.00">plot_ventilate_y</text>
</a>
</g>
<!-- Node1&#45;&gt;Node33 -->
<g id="edge82" class="edge"><title>Node1&#45;&gt;Node33</title>
<path fill="none" stroke="midnightblue" d="M55.0394,-322.846C66.6452,-266.804 101.595,-110.886 138,-75 142.562,-70.5032 148.065,-66.9664 153.941,-64.1853"/>
<polygon fill="midnightblue" stroke="midnightblue" points="155.411,-67.3671 163.4,-60.4077 152.815,-60.8663 155.411,-67.3671"/>
</g>
<!-- Node3 -->
<g id="node5" class="node"><title>Node3</title>
<a xlink:href="_c_o_r_e__6_8cpp.html#aa6f6d52757e4af2364c17c3e9dee8095" target="_top" xlink:title="search_and_desaffect\l_previous_midi_signal">
<polygon fill="white" stroke="black" points="322.5,-670 322.5,-710 435.5,-710 435.5,-670 322.5,-670"/>
<text text-anchor="start" x="330.5" y="-697" font-family="Helvetica,sans-Serif" font-size="10.00">search_and_desaffect</text>
<text text-anchor="middle" x="379" y="-681" font-family="Helvetica,sans-Serif" font-size="10.00">_previous_midi_signal</text>
</a>
</g>
<!-- Node2&#45;&gt;Node3 -->
<g id="edge4" class="edge"><title>Node2&#45;&gt;Node3</title>
<path fill="none" stroke="midnightblue" d="M255.112,-690C272.894,-690 293.287,-690 312.325,-690"/>
<polygon fill="midnightblue" stroke="midnightblue" points="312.436,-693.5 322.436,-690 312.436,-686.5 312.436,-693.5"/>
</g>
<!-- Node6&#45;&gt;Node7 -->
<g id="edge12" class="edge"><title>Node6&#45;&gt;Node7</title>
<path fill="none" stroke="midnightblue" d="M255.112,-515.962C269.207,-517.672 284.941,-519.582 300.342,-521.452"/>
<polygon fill="midnightblue" stroke="midnightblue" points="300.044,-524.941 310.393,-522.672 300.888,-517.992 300.044,-524.941"/>
</g>
<!-- Node8 -->
<g id="node15" class="node"><title>Node8</title>
<a xlink:href="plot__core9_8cpp.html#ab76f6823319f1363767e9b0027c633a9" target="_top" xlink:title="plot_reset_list_appareils">
<polygon fill="white" stroke="black" points="493,-529 493,-553 615,-553 615,-529 493,-529"/>
<text text-anchor="middle" x="554" y="-540" font-family="Helvetica,sans-Serif" font-size="10.00">plot_reset_list_appareils</text>
</a>
</g>
<!-- Node7&#45;&gt;Node8 -->
<g id="edge14" class="edge"><title>Node7&#45;&gt;Node8</title>
<path fill="none" stroke="midnightblue" d="M447.662,-534.924C459.216,-535.584 471.23,-536.27 482.845,-536.934"/>
<polygon fill="midnightblue" stroke="midnightblue" points="482.744,-540.434 492.928,-537.51 483.144,-533.445 482.744,-540.434"/>
</g>
<!-- Node10 -->
<g id="node19" class="node"><title>Node10</title>
<a xlink:href="plot__core9_8cpp.html#aee1db260c83091fb31c75951b8c9b091" target="_top" xlink:title="plot_generate_gels_list">
<polygon fill="white" stroke="black" points="496,-487 496,-511 612,-511 612,-487 496,-487"/>
<text text-anchor="middle" x="554" y="-498" font-family="Helvetica,sans-Serif" font-size="10.00">plot_generate_gels_list</text>
</a>
</g>
<!-- Node7&#45;&gt;Node10 -->
<g id="edge18" class="edge"><title>Node7&#45;&gt;Node10</title>
<path fill="none" stroke="midnightblue" d="M444.661,-518.993C458.032,-516.548 472.129,-513.971 485.592,-511.509"/>
<polygon fill="midnightblue" stroke="midnightblue" points="486.534,-514.895 495.742,-509.653 485.275,-508.009 486.534,-514.895"/>
</g>
<!-- Node9 -->
<g id="node17" class="node"><title>Node9</title>
<a xlink:href="plot__core9_8cpp.html#a34fc01d14d473ebfbc62c6555fd44b76" target="_top" xlink:title="plot_reset_list_gelat">
<polygon fill="white" stroke="black" points="675,-508 675,-532 779,-532 779,-508 675,-508"/>
<text text-anchor="middle" x="727" y="-519" font-family="Helvetica,sans-Serif" font-size="10.00">plot_reset_list_gelat</text>
</a>
</g>
<!-- Node8&#45;&gt;Node9 -->
<g id="edge16" class="edge"><title>Node8&#45;&gt;Node9</title>
<path fill="none" stroke="midnightblue" d="M615.48,-533.537C631.414,-531.603 648.587,-529.518 664.569,-527.578"/>
<polygon fill="midnightblue" stroke="midnightblue" points="665.369,-531.007 674.874,-526.327 664.525,-524.058 665.369,-531.007"/>
</g>
<!-- Node10&#45;&gt;Node9 -->
<g id="edge20" class="edge"><title>Node10&#45;&gt;Node9</title>
<path fill="none" stroke="midnightblue" d="M612.088,-506.051C629.073,-508.113 647.703,-510.374 664.926,-512.465"/>
<polygon fill="midnightblue" stroke="midnightblue" points="664.532,-515.943 674.881,-513.673 665.375,-508.994 664.532,-515.943"/>
</g>
<!-- Node13 -->
<g id="node26" class="node"><title>Node13</title>
<a xlink:href="plot__core9_8cpp.html#a58fe8fc317633b7cfd679c95c67193b9" target="_top" xlink:title="clear_symbol_slot">
<polygon fill="white" stroke="black" points="506.5,-291 506.5,-315 601.5,-315 601.5,-291 506.5,-291"/>
<text text-anchor="middle" x="554" y="-302" font-family="Helvetica,sans-Serif" font-size="10.00">clear_symbol_slot</text>
</a>
</g>
<!-- Node12&#45;&gt;Node13 -->
<g id="edge26" class="edge"><title>Node12&#45;&gt;Node13</title>
<path fill="none" stroke="midnightblue" d="M258.094,-309.973C274.598,-306.705 292.978,-303.622 310,-302 373.386,-295.961 446.454,-297.358 495.984,-299.541"/>
<polygon fill="midnightblue" stroke="midnightblue" points="496.032,-303.047 506.184,-300.017 496.358,-296.055 496.032,-303.047"/>
</g>
<!-- Node15 -->
<g id="node30" class="node"><title>Node15</title>
<a xlink:href="plot__core9_8cpp.html#a66c5771a91b5557afae81e1ad42603a6" target="_top" xlink:title="reorder_plan">
<polygon fill="white" stroke="black" points="344,-311 344,-335 414,-335 414,-311 344,-311"/>
<text text-anchor="middle" x="379" y="-322" font-family="Helvetica,sans-Serif" font-size="10.00">reorder_plan</text>
</a>
</g>
<!-- Node12&#45;&gt;Node15 -->
<g id="edge30" class="edge"><title>Node12&#45;&gt;Node15</title>
<path fill="none" stroke="midnightblue" d="M269.927,-322.37C291.14,-322.492 314.301,-322.626 333.802,-322.739"/>
<polygon fill="midnightblue" stroke="midnightblue" points="333.909,-326.239 343.929,-322.797 333.949,-319.239 333.909,-326.239"/>
</g>
<!-- Node17 -->
<g id="node35" class="node"><title>Node17</title>
<a xlink:href="plot__core9_8cpp.html#ad2a3f7bed24f6e271a1d1a42ebc81ff5" target="_top" xlink:title="recount_symbols_on_calc">
<polygon fill="white" stroke="black" points="314,-231 314,-255 444,-255 444,-231 314,-231"/>
<text text-anchor="middle" x="379" y="-242" font-family="Helvetica,sans-Serif" font-size="10.00">recount_symbols_on_calc</text>
</a>
</g>
<!-- Node12&#45;&gt;Node17 -->
<g id="edge36" class="edge"><title>Node12&#45;&gt;Node17</title>
<path fill="none" stroke="midnightblue" d="M254.265,-309.927C261.089,-307.416 267.864,-304.457 274,-301 292.651,-290.492 291.677,-280.07 310,-269 316.252,-265.222 323.145,-261.837 330.083,-258.857"/>
<polygon fill="midnightblue" stroke="midnightblue" points="331.555,-262.037 339.515,-255.045 328.933,-255.547 331.555,-262.037"/>
</g>
<!-- Node14 -->
<g id="node28" class="node"><title>Node14</title>
<a xlink:href="plot__core9_8cpp.html#a4afbbba7a97b479ffbf4b9b190c40b29" target="_top" xlink:title="clear_grouped_to_symbols">
<polygon fill="white" stroke="black" points="660.5,-291 660.5,-315 793.5,-315 793.5,-291 660.5,-291"/>
<text text-anchor="middle" x="727" y="-302" font-family="Helvetica,sans-Serif" font-size="10.00">clear_grouped_to_symbols</text>
</a>
</g>
<!-- Node13&#45;&gt;Node14 -->
<g id="edge28" class="edge"><title>Node13&#45;&gt;Node14</title>
<path fill="none" stroke="midnightblue" d="M601.731,-303C616.722,-303 633.672,-303 650.149,-303"/>
<polygon fill="midnightblue" stroke="midnightblue" points="650.325,-306.5 660.325,-303 650.325,-299.5 650.325,-306.5"/>
</g>
<!-- Node15&#45;&gt;Node13 -->
<g id="edge34" class="edge"><title>Node15&#45;&gt;Node13</title>
<path fill="none" stroke="midnightblue" d="M414.414,-318.953C437.882,-316.271 469.211,-312.69 496.241,-309.601"/>
<polygon fill="midnightblue" stroke="midnightblue" points="496.827,-313.057 506.365,-308.444 496.032,-306.102 496.827,-313.057"/>
</g>
<!-- Node16 -->
<g id="node32" class="node"><title>Node16</title>
<a xlink:href="plot__core9_8cpp.html#a3aa259226da63745d5e779178c8111f2" target="_top" xlink:title="copy_symbol_to_emply_slot">
<polygon fill="white" stroke="black" points="484,-370 484,-394 624,-394 624,-370 484,-370"/>
<text text-anchor="middle" x="554" y="-381" font-family="Helvetica,sans-Serif" font-size="10.00">copy_symbol_to_emply_slot</text>
</a>
</g>
<!-- Node15&#45;&gt;Node16 -->
<g id="edge32" class="edge"><title>Node15&#45;&gt;Node16</title>
<path fill="none" stroke="midnightblue" d="M414.414,-334.94C441.602,-344.106 479.339,-356.829 508.722,-366.735"/>
<polygon fill="midnightblue" stroke="midnightblue" points="507.745,-370.099 518.339,-369.977 509.981,-363.466 507.745,-370.099"/>
</g>
<!-- Node19 -->
<g id="node40" class="node"><title>Node19</title>
<a xlink:href="_c_o_r_e__6_8cpp.html#ab88648bb253532281d1c58fb9647290a" target="_top" xlink:title="clear_selection_in">
<polygon fill="white" stroke="black" points="331.5,-93 331.5,-117 426.5,-117 426.5,-93 331.5,-93"/>
<text text-anchor="middle" x="379" y="-104" font-family="Helvetica,sans-Serif" font-size="10.00">clear_selection_in</text>
</a>
</g>
<!-- Node18&#45;&gt;Node19 -->
<g id="edge42" class="edge"><title>Node18&#45;&gt;Node19</title>
<path fill="none" stroke="midnightblue" d="M263.767,-251.899C267.503,-249.273 270.973,-246.319 274,-243 309.23,-204.365 273.952,-168.873 310,-131 313.603,-127.214 317.812,-123.975 322.342,-121.203"/>
<polygon fill="midnightblue" stroke="midnightblue" points="324.168,-124.197 331.374,-116.431 320.897,-118.008 324.168,-124.197"/>
</g>
<!-- Node20 -->
<g id="node42" class="node"><title>Node20</title>
<a xlink:href="_c_o_r_e__6_8cpp.html#a39a8fa0905933794d58438ac52b93a76" target="_top" xlink:title="count_number_of_channels\l_in_view">
<polygon fill="white" stroke="black" points="486,-100 486,-140 622,-140 622,-100 486,-100"/>
<text text-anchor="start" x="494" y="-127" font-family="Helvetica,sans-Serif" font-size="10.00">count_number_of_channels</text>
<text text-anchor="middle" x="554" y="-111" font-family="Helvetica,sans-Serif" font-size="10.00">_in_view</text>
</a>
</g>
<!-- Node18&#45;&gt;Node20 -->
<g id="edge46" class="edge"><title>Node18&#45;&gt;Node20</title>
<path fill="none" stroke="midnightblue" d="M262.688,-251.924C266.765,-249.28 270.601,-246.317 274,-243 301.615,-216.052 279.538,-187.682 310,-164 335.431,-144.23 414.526,-132.537 475.845,-126.235"/>
<polygon fill="midnightblue" stroke="midnightblue" points="476.305,-129.706 485.908,-125.232 475.61,-122.741 476.305,-129.706"/>
</g>
<!-- Node21 -->
<g id="node45" class="node"><title>Node21</title>
<a xlink:href="_c_o_r_e__6_8cpp.html#ae6b6dda74fceff6db90d029785454a0b" target="_top" xlink:title="generate_channel_preview\l_patch_list">
<polygon fill="white" stroke="black" points="313,-173 313,-213 445,-213 445,-173 313,-173"/>
<text text-anchor="start" x="321" y="-200" font-family="Helvetica,sans-Serif" font-size="10.00">generate_channel_preview</text>
<text text-anchor="middle" x="379" y="-184" font-family="Helvetica,sans-Serif" font-size="10.00">_patch_list</text>
</a>
</g>
<!-- Node18&#45;&gt;Node21 -->
<g id="edge48" class="edge"><title>Node18&#45;&gt;Node21</title>
<path fill="none" stroke="midnightblue" d="M254.997,-251.975C261.446,-249.086 267.922,-246.054 274,-243 290.552,-234.684 293.427,-230.273 310,-222 313.117,-220.444 316.339,-218.896 319.608,-217.371"/>
<polygon fill="midnightblue" stroke="midnightblue" points="321.245,-220.471 328.901,-213.148 318.349,-214.098 321.245,-220.471"/>
</g>
<!-- Node19&#45;&gt;Node20 -->
<g id="edge44" class="edge"><title>Node19&#45;&gt;Node20</title>
<path fill="none" stroke="midnightblue" d="M426.82,-109.099C441.905,-110.392 458.986,-111.856 475.623,-113.282"/>
<polygon fill="midnightblue" stroke="midnightblue" points="475.64,-116.796 485.902,-114.163 476.237,-109.822 475.64,-116.796"/>
</g>
<!-- Node22 -->
<g id="node47" class="node"><title>Node22</title>
<a xlink:href="_c_o_r_e__6_8cpp.html#a028a0b0eaaf0423183a1cd4d90f76be1" target="_top" xlink:title="reset_channel_first\l_dimmer_list">
<polygon fill="white" stroke="black" points="504.5,-173 504.5,-213 603.5,-213 603.5,-173 504.5,-173"/>
<text text-anchor="start" x="512.5" y="-200" font-family="Helvetica,sans-Serif" font-size="10.00">reset_channel_first</text>
<text text-anchor="middle" x="554" y="-184" font-family="Helvetica,sans-Serif" font-size="10.00">_dimmer_list</text>
</a>
</g>
<!-- Node21&#45;&gt;Node22 -->
<g id="edge50" class="edge"><title>Node21&#45;&gt;Node22</title>
<path fill="none" stroke="midnightblue" d="M445.16,-193C461.278,-193 478.425,-193 494.226,-193"/>
<polygon fill="midnightblue" stroke="midnightblue" points="494.391,-196.5 504.391,-193 494.391,-189.5 494.391,-196.5"/>
</g>
<!-- Node24&#45;&gt;Node11 -->
<g id="edge56" class="edge"><title>Node24&#45;&gt;Node11</title>
<path fill="none" stroke="midnightblue" d="M266.74,-420.153C280.929,-421.504 295.988,-422.867 310,-424 376.959,-429.413 454.37,-434.248 503.726,-437.151"/>
<polygon fill="midnightblue" stroke="midnightblue" points="503.632,-440.651 513.819,-437.74 504.04,-433.663 503.632,-440.651"/>
</g>
<!-- Node25 -->
<g id="node54" class="node"><title>Node25</title>
<a xlink:href="plot__core9_8cpp.html#afa207c7603f4ee259c528f3d86afb2f6" target="_top" xlink:title="exchange_symbol_position">
<polygon fill="white" stroke="black" points="312,-391 312,-415 446,-415 446,-391 312,-391"/>
<text text-anchor="middle" x="379" y="-402" font-family="Helvetica,sans-Serif" font-size="10.00">exchange_symbol_position</text>
</a>
</g>
<!-- Node24&#45;&gt;Node25 -->
<g id="edge58" class="edge"><title>Node24&#45;&gt;Node25</title>
<path fill="none" stroke="midnightblue" d="M266.507,-410.153C277.811,-409.434 289.769,-408.674 301.502,-407.928"/>
<polygon fill="midnightblue" stroke="midnightblue" points="301.977,-411.405 311.734,-407.277 301.532,-404.419 301.977,-411.405"/>
</g>
<!-- Node25&#45;&gt;Node11 -->
<g id="edge62" class="edge"><title>Node25&#45;&gt;Node11</title>
<path fill="none" stroke="midnightblue" d="M435.817,-415.013C457.788,-419.658 482.713,-424.928 503.991,-429.427"/>
<polygon fill="midnightblue" stroke="midnightblue" points="503.291,-432.856 513.799,-431.5 504.739,-426.007 503.291,-432.856"/>
</g>
<!-- Node25&#45;&gt;Node16 -->
<g id="edge60" class="edge"><title>Node25&#45;&gt;Node16</title>
<path fill="none" stroke="midnightblue" d="M446.159,-394.941C455.22,-393.854 464.588,-392.729 473.846,-391.618"/>
<polygon fill="midnightblue" stroke="midnightblue" points="474.317,-395.087 483.829,-390.421 473.483,-388.137 474.317,-395.087"/>
</g>
<!-- Node26&#45;&gt;Node11 -->
<g id="edge66" class="edge"><title>Node26&#45;&gt;Node11</title>
<path fill="none" stroke="midnightblue" d="M248.606,-361.461C297.804,-359.821 380.608,-361.068 448,-382 465.69,-387.495 467.808,-394.003 484,-403 496.136,-409.743 509.592,-416.925 521.437,-423.149"/>
<polygon fill="midnightblue" stroke="midnightblue" points="520.052,-426.375 530.535,-427.909 523.297,-420.172 520.052,-426.375"/>
</g>
<!-- Node26&#45;&gt;Node25 -->
<g id="edge68" class="edge"><title>Node26&#45;&gt;Node25</title>
<path fill="none" stroke="midnightblue" d="M248.764,-373.64C268.895,-378.179 293.314,-383.684 315.543,-388.695"/>
<polygon fill="midnightblue" stroke="midnightblue" points="315.054,-392.172 325.579,-390.957 316.594,-385.344 315.054,-392.172"/>
</g>
<!-- Node31 -->
<g id="node70" class="node"><title>Node31</title>
<a xlink:href="_c_o_r_e__6_8cpp.html#a7949412d847774cd29d24015ad877eee" target="_top" xlink:title="return_lowest">
<polygon fill="white" stroke="black" points="341.5,-0 341.5,-24 416.5,-24 416.5,-0 341.5,-0"/>
<text text-anchor="middle" x="379" y="-11" font-family="Helvetica,sans-Serif" font-size="10.00">return_lowest</text>
</a>
</g>
<!-- Node30&#45;&gt;Node31 -->
<g id="edge78" class="edge"><title>Node30&#45;&gt;Node31</title>
<path fill="none" stroke="midnightblue" d="M248.764,-12C273.74,-12 305.317,-12 331.123,-12"/>
<polygon fill="midnightblue" stroke="midnightblue" points="331.428,-15.5001 341.428,-12 331.428,-8.5001 331.428,-15.5001"/>
</g>
<!-- Node32 -->
<g id="node72" class="node"><title>Node32</title>
<a xlink:href="_c_o_r_e__6_8cpp.html#abf3905741fad82c878a1c2b5a64e78b1" target="_top" xlink:title="return_highest">
<polygon fill="white" stroke="black" points="340,-42 340,-66 418,-66 418,-42 340,-42"/>
<text text-anchor="middle" x="379" y="-53" font-family="Helvetica,sans-Serif" font-size="10.00">return_highest</text>
</a>
</g>
<!-- Node30&#45;&gt;Node32 -->
<g id="edge80" class="edge"><title>Node30&#45;&gt;Node32</title>
<path fill="none" stroke="midnightblue" d="M248.764,-22.382C273.409,-28.3652 304.482,-35.9089 330.095,-42.1271"/>
<polygon fill="midnightblue" stroke="midnightblue" points="329.435,-45.5684 339.978,-44.5265 331.086,-38.766 329.435,-45.5684"/>
</g>
<!-- Node33&#45;&gt;Node31 -->
<g id="edge84" class="edge"><title>Node33&#45;&gt;Node31</title>
<path fill="none" stroke="midnightblue" d="M248.764,-43.618C273.851,-37.5276 305.598,-29.8202 331.467,-23.5399"/>
<polygon fill="midnightblue" stroke="midnightblue" points="332.536,-26.882 341.428,-21.1215 330.885,-20.0795 332.536,-26.882"/>
</g>
<!-- Node33&#45;&gt;Node32 -->
<g id="edge86" class="edge"><title>Node33&#45;&gt;Node32</title>
<path fill="none" stroke="midnightblue" d="M248.764,-54C273.3,-54 304.207,-54 329.755,-54"/>
<polygon fill="midnightblue" stroke="midnightblue" points="329.978,-57.5001 339.978,-54 329.978,-50.5001 329.978,-57.5001"/>
</g>
</g>
</svg>
