<?xml version="1.0" encoding="UTF-8" standalone="no"?>
<!DOCTYPE svg PUBLIC "-//W3C//DTD SVG 1.1//EN"
 "http://www.w3.org/Graphics/SVG/1.1/DTD/svg11.dtd">
<!-- Generated by graphviz version 2.26.3 (20100126.1600)
 -->
<!-- Title: draw_channel_of_symbol Pages: 1 -->
<svg width="258pt" height="74pt"
 viewBox="0.00 0.00 258.00 74.00" xmlns="http://www.w3.org/2000/svg" xmlns:xlink="http://www.w3.org/1999/xlink">
<g id="graph1" class="graph" transform="scale(1 1) rotate(0) translate(4 70)">
<title>draw_channel_of_symbol</title>
<polygon fill="white" stroke="white" points="-4,5 -4,-70 255,-70 255,5 -4,5"/>
<!-- Node1 -->
<g id="node1" class="node"><title>Node1</title>
<polygon fill="#bfbfbf" stroke="black" points="0.5,-21 0.5,-45 127.5,-45 127.5,-21 0.5,-21"/>
<text text-anchor="middle" x="64" y="-32" font-family="Helvetica,sans-Serif" font-size="10.00">draw_channel_of_symbol</text>
</g>
<!-- Node2 -->
<g id="node3" class="node"><title>Node2</title>
<a xlink:href="whitecat_8h.html#a53146b0df4992543bd09594d4ce44f7d" target="_top" xlink:title="CouleurPlotFill">
<polygon fill="white" stroke="black" points="167,-42 167,-66 247,-66 247,-42 167,-42"/>
<text text-anchor="middle" x="207" y="-53" font-family="Helvetica,sans-Serif" font-size="10.00">CouleurPlotFill</text>
</a>
</g>
<!-- Node1&#45;&gt;Node2 -->
<g id="edge2" class="edge"><title>Node1&#45;&gt;Node2</title>
<path fill="none" stroke="midnightblue" d="M127.555,-42.3332C137.305,-43.7651 147.256,-45.2264 156.668,-46.6086"/>
<polygon fill="midnightblue" stroke="midnightblue" points="156.233,-50.0822 166.636,-48.0724 157.25,-43.1565 156.233,-50.0822"/>
</g>
<!-- Node3 -->
<g id="node5" class="node"><title>Node3</title>
<a xlink:href="whitecat_8h.html#a5e88fb41a8a9fa61f87aae4fedd74510" target="_top" xlink:title="CouleurPlotLine">
<polygon fill="white" stroke="black" points="164,-0 164,-24 250,-24 250,-0 164,-0"/>
<text text-anchor="middle" x="207" y="-11" font-family="Helvetica,sans-Serif" font-size="10.00">CouleurPlotLine</text>
</a>
</g>
<!-- Node1&#45;&gt;Node3 -->
<g id="edge4" class="edge"><title>Node1&#45;&gt;Node3</title>
<path fill="none" stroke="midnightblue" d="M127.555,-23.6668C136.252,-22.3896 145.108,-21.0891 153.599,-19.8421"/>
<polygon fill="midnightblue" stroke="midnightblue" points="154.355,-23.2687 163.741,-18.3528 153.338,-16.343 154.355,-23.2687"/>
</g>
</g>
</svg>
