<?xml version="1.0" encoding="UTF-8" standalone="no"?>
<!DOCTYPE svg PUBLIC "-//W3C//DTD SVG 1.1//EN"
 "http://www.w3.org/Graphics/SVG/1.1/DTD/svg11.dtd">
<!-- Generated by graphviz version 2.26.3 (20100126.1600)
 -->
<!-- Title: plot_symbol_edition Pages: 1 -->
<svg width="536pt" height="32pt"
 viewBox="0.00 0.00 536.00 32.00" xmlns="http://www.w3.org/2000/svg" xmlns:xlink="http://www.w3.org/1999/xlink">
<g id="graph1" class="graph" transform="scale(1 1) rotate(0) translate(4 28)">
<title>plot_symbol_edition</title>
<polygon fill="white" stroke="white" points="-4,5 -4,-28 533,-28 533,5 -4,5"/>
<!-- Node1 -->
<g id="node1" class="node"><title>Node1</title>
<polygon fill="#bfbfbf" stroke="black" points="0.5,-0 0.5,-24 103.5,-24 103.5,-0 0.5,-0"/>
<text text-anchor="middle" x="52" y="-11" font-family="Helvetica,sans-Serif" font-size="10.00">plot_symbol_edition</text>
</g>
<!-- Node2 -->
<g id="node3" class="node"><title>Node2</title>
<a xlink:href="plot_8cpp.html#a3d45bfc1bc76a3d67ad1a8bb3d63163d" target="_top" xlink:title="Plot_window">
<polygon fill="white" stroke="black" points="140,-0 140,-24 212,-24 212,-0 140,-0"/>
<text text-anchor="middle" x="176" y="-11" font-family="Helvetica,sans-Serif" font-size="10.00">Plot_window</text>
</a>
</g>
<!-- Node1&#45;&gt;Node2 -->
<g id="edge2" class="edge"><title>Node1&#45;&gt;Node2</title>
<path fill="none" stroke="midnightblue" d="M113.639,-12C122.65,-12 131.671,-12 139.941,-12"/>
<polygon fill="midnightblue" stroke="midnightblue" points="113.51,-8.5001 103.51,-12 113.51,-15.5001 113.51,-8.5001"/>
</g>
<!-- Node3 -->
<g id="node5" class="node"><title>Node3</title>
<a xlink:href="graphics__rebuild1_8cpp.html#ac2eae1e03fb72cc734ffbcef566483bf" target="_top" xlink:title="Boxes">
<polygon fill="white" stroke="black" points="248,-0 248,-24 292,-24 292,-0 248,-0"/>
<text text-anchor="middle" x="270" y="-11" font-family="Helvetica,sans-Serif" font-size="10.00">Boxes</text>
</a>
</g>
<!-- Node2&#45;&gt;Node3 -->
<g id="edge4" class="edge"><title>Node2&#45;&gt;Node3</title>
<path fill="none" stroke="midnightblue" d="M222.084,-12C231.028,-12 240.017,-12 247.753,-12"/>
<polygon fill="midnightblue" stroke="midnightblue" points="222.074,-8.5001 212.074,-12 222.074,-15.5001 222.074,-8.5001"/>
</g>
<!-- Node4 -->
<g id="node7" class="node"><title>Node4</title>
<a xlink:href="_m_a_i_n__avec__objets_8cpp.html#ade8d4ba65d55c94f8ee277829d722155" target="_top" xlink:title="main_actions_on_screen">
<polygon fill="white" stroke="black" points="328.5,-0 328.5,-24 453.5,-24 453.5,-0 328.5,-0"/>
<text text-anchor="middle" x="391" y="-11" font-family="Helvetica,sans-Serif" font-size="10.00">main_actions_on_screen</text>
</a>
</g>
<!-- Node3&#45;&gt;Node4 -->
<g id="edge6" class="edge"><title>Node3&#45;&gt;Node4</title>
<path fill="none" stroke="midnightblue" d="M302.244,-12C310.32,-12 319.263,-12 328.271,-12"/>
<polygon fill="midnightblue" stroke="midnightblue" points="302.193,-8.5001 292.193,-12 302.193,-15.5001 302.193,-8.5001"/>
</g>
<!-- Node5 -->
<g id="node9" class="node"><title>Node5</title>
<a xlink:href="_m_a_i_n__avec__objets_8cpp.html#ae66f6b31b5ad750f1fe042a706a4e3d4" target="_top" xlink:title="main">
<polygon fill="white" stroke="black" points="490,-0 490,-24 528,-24 528,-0 490,-0"/>
<text text-anchor="middle" x="509" y="-11" font-family="Helvetica,sans-Serif" font-size="10.00">main</text>
</a>
</g>
<!-- Node4&#45;&gt;Node5 -->
<g id="edge8" class="edge"><title>Node4&#45;&gt;Node5</title>
<path fill="none" stroke="midnightblue" d="M463.837,-12C473.336,-12 482.327,-12 489.749,-12"/>
<polygon fill="midnightblue" stroke="midnightblue" points="463.8,-8.5001 453.8,-12 463.8,-15.5001 463.8,-8.5001"/>
</g>
</g>
</svg>
