<?xml version="1.0" encoding="UTF-8" standalone="no"?>
<!DOCTYPE svg PUBLIC "-//W3C//DTD SVG 1.1//EN"
 "http://www.w3.org/Graphics/SVG/1.1/DTD/svg11.dtd">
<!-- Generated by graphviz version 2.26.3 (20100126.1600)
 -->
<!-- Title: duplicate_selected_symbols Pages: 1 -->
<svg width="578pt" height="74pt"
 viewBox="0.00 0.00 578.00 74.00" xmlns="http://www.w3.org/2000/svg" xmlns:xlink="http://www.w3.org/1999/xlink">
<g id="graph1" class="graph" transform="scale(1 1) rotate(0) translate(4 70)">
<title>duplicate_selected_symbols</title>
<polygon fill="white" stroke="white" points="-4,5 -4,-70 575,-70 575,5 -4,5"/>
<!-- Node1 -->
<g id="node1" class="node"><title>Node1</title>
<polygon fill="#bfbfbf" stroke="black" points="0,-13 0,-53 98,-53 98,-13 0,-13"/>
<text text-anchor="start" x="8" y="-40" font-family="Helvetica,sans-Serif" font-size="10.00">duplicate_selected</text>
<text text-anchor="middle" x="49" y="-24" font-family="Helvetica,sans-Serif" font-size="10.00">_symbols</text>
</g>
<!-- Node2 -->
<g id="node3" class="node"><title>Node2</title>
<a xlink:href="plot__core9_8cpp.html#a30a3e9357adedd3ded2f2ded796e81e2" target="_top" xlink:title="plot_generate_appareils_list">
<polygon fill="white" stroke="black" points="134.5,-21 134.5,-45 271.5,-45 271.5,-21 134.5,-21"/>
<text text-anchor="middle" x="203" y="-32" font-family="Helvetica,sans-Serif" font-size="10.00">plot_generate_appareils_list</text>
</a>
</g>
<!-- Node1&#45;&gt;Node2 -->
<g id="edge2" class="edge"><title>Node1&#45;&gt;Node2</title>
<path fill="none" stroke="midnightblue" d="M98.15,-33C106.528,-33 115.415,-33 124.331,-33"/>
<polygon fill="midnightblue" stroke="midnightblue" points="124.386,-36.5001 134.386,-33 124.386,-29.5001 124.386,-36.5001"/>
</g>
<!-- Node3 -->
<g id="node5" class="node"><title>Node3</title>
<a xlink:href="plot__core9_8cpp.html#ab76f6823319f1363767e9b0027c633a9" target="_top" xlink:title="plot_reset_list_appareils">
<polygon fill="white" stroke="black" points="308,-42 308,-66 430,-66 430,-42 308,-42"/>
<text text-anchor="middle" x="369" y="-53" font-family="Helvetica,sans-Serif" font-size="10.00">plot_reset_list_appareils</text>
</a>
</g>
<!-- Node2&#45;&gt;Node3 -->
<g id="edge4" class="edge"><title>Node2&#45;&gt;Node3</title>
<path fill="none" stroke="midnightblue" d="M271.957,-41.7235C280.536,-42.8088 289.322,-43.9202 297.932,-45.0095"/>
<polygon fill="midnightblue" stroke="midnightblue" points="297.577,-48.4924 307.937,-46.2752 298.456,-41.5477 297.577,-48.4924"/>
</g>
<!-- Node5 -->
<g id="node9" class="node"><title>Node5</title>
<a xlink:href="plot__core9_8cpp.html#aee1db260c83091fb31c75951b8c9b091" target="_top" xlink:title="plot_generate_gels_list">
<polygon fill="white" stroke="black" points="311,-0 311,-24 427,-24 427,-0 311,-0"/>
<text text-anchor="middle" x="369" y="-11" font-family="Helvetica,sans-Serif" font-size="10.00">plot_generate_gels_list</text>
</a>
</g>
<!-- Node2&#45;&gt;Node5 -->
<g id="edge8" class="edge"><title>Node2&#45;&gt;Node5</title>
<path fill="none" stroke="midnightblue" d="M271.957,-24.2765C281.442,-23.0766 291.18,-21.8447 300.654,-20.6462"/>
<polygon fill="midnightblue" stroke="midnightblue" points="301.326,-24.0892 310.807,-19.3617 300.447,-17.1445 301.326,-24.0892"/>
</g>
<!-- Node4 -->
<g id="node7" class="node"><title>Node4</title>
<a xlink:href="plot__core9_8cpp.html#a34fc01d14d473ebfbc62c6555fd44b76" target="_top" xlink:title="plot_reset_list_gelat">
<polygon fill="white" stroke="black" points="466,-21 466,-45 570,-45 570,-21 466,-21"/>
<text text-anchor="middle" x="518" y="-32" font-family="Helvetica,sans-Serif" font-size="10.00">plot_reset_list_gelat</text>
</a>
</g>
<!-- Node3&#45;&gt;Node4 -->
<g id="edge6" class="edge"><title>Node3&#45;&gt;Node4</title>
<path fill="none" stroke="midnightblue" d="M430.034,-45.3979C438.583,-44.193 447.377,-42.9536 455.945,-41.746"/>
<polygon fill="midnightblue" stroke="midnightblue" points="456.457,-45.2085 465.871,-40.3471 455.48,-38.277 456.457,-45.2085"/>
</g>
<!-- Node5&#45;&gt;Node4 -->
<g id="edge10" class="edge"><title>Node5&#45;&gt;Node4</title>
<path fill="none" stroke="midnightblue" d="M427.034,-20.1793C436.395,-21.4986 446.121,-22.8695 455.581,-24.2027"/>
<polygon fill="midnightblue" stroke="midnightblue" points="455.32,-27.7004 465.71,-25.6303 456.297,-20.7689 455.32,-27.7004"/>
</g>
</g>
</svg>
