<?xml version="1.0" encoding="UTF-8" standalone="no"?>
<!DOCTYPE svg PUBLIC "-//W3C//DTD SVG 1.1//EN"
 "http://www.w3.org/Graphics/SVG/1.1/DTD/svg11.dtd">
<!-- Generated by graphviz version 2.26.3 (20100126.1600)
 -->
<!-- Title: plot_generate_gels_list Pages: 1 -->
<!--zoomable 458 -->
<svg id="main" version="1.1" xmlns="http://www.w3.org/2000/svg" xmlns:xlink="http://www.w3.org/1999/xlink" xml:space="preserve" onload="init(evt)">
<style type="text/css"><![CDATA[
.edge:hover path { stroke: red; }
.edge:hover polygon { stroke: red; fill: red; }
]]></style>
<script type="text/javascript"><![CDATA[
var edges = document.getElementsByTagName('g');
if (edges && edges.length) {
  for (var i=0;i<edges.length;i++) {
    if (edges[i].id.substr(0,4)=='edge') {
      edges[i].setAttribute('class','edge');
    }
  }
}
]]></script>
        <defs>
                <circle id="rim" cx="0" cy="0" r="7"/>
                <circle id="rim2" cx="0" cy="0" r="3.5"/>
                <g id="zoomPlus">
                        <use xlink:href="#rim" fill="#404040">
                                <set attributeName="fill" to="#808080" begin="zoomplus.mouseover" end="zoomplus.mouseout"/>
                        </use>
                        <path d="M-4,0h8M0,-4v8" fill="none" stroke="white" stroke-width="1.5" pointer-events="none"/>
                </g>
                <g id="zoomMin">
                        <use xlink:href="#rim" fill="#404040">
                                <set attributeName="fill" to="#808080" begin="zoomminus.mouseover" end="zoomminus.mouseout"/>
                        </use>
                        <path d="M-4,0h8" fill="none" stroke="white" stroke-width="1.5" pointer-events="none"/>
                </g>
                <g id="dirArrow">
                        <path fill="none" stroke="white" stroke-width="1.5" d="M0,-3.0v7 M-2.5,-0.5L0,-3.0L2.5,-0.5"/>
                </g>
               <g id="resetDef">
                       <use xlink:href="#rim2" fill="#404040">
                               <set attributeName="fill" to="#808080" begin="reset.mouseover" end="reset.mouseout"/>
                       </use>
               </g>
        </defs>

<script type="text/javascript">
var viewWidth = 1332;
var viewHeight = 458;
var sectionId = 'dynsection-69';
</script>
<script xlink:href="svgpan.js"/>
<svg id="graph" class="graph">
<g id="viewport">
<title>plot_generate_gels_list</title>
<polygon fill="white" stroke="white" points="-4,5 -4,-454 1329,-454 1329,5 -4,5"/>
<!-- Node1 -->
<g id="node1" class="node"><title>Node1</title>
<polygon fill="#bfbfbf" stroke="black" points="0,-224 0,-248 116,-248 116,-224 0,-224"/>
<text text-anchor="middle" x="58" y="-235" font-family="Helvetica,sans-Serif" font-size="10.00">plot_generate_gels_list</text>
</g>
<!-- Node2 -->
<g id="node3" class="node"><title>Node2</title>
<a xlink:href="plot__core9_8cpp.html#a30a3e9357adedd3ded2f2ded796e81e2" target="_top" xlink:title="plot_generate_appareils_list">
<polygon fill="white" stroke="black" points="152.5,-224 152.5,-248 289.5,-248 289.5,-224 152.5,-224"/>
<text text-anchor="middle" x="221" y="-235" font-family="Helvetica,sans-Serif" font-size="10.00">plot_generate_appareils_list</text>
</a>
</g>
<!-- Node1&#45;&gt;Node2 -->
<g id="edge2" class="edge"><title>Node1&#45;&gt;Node2</title>
<path fill="none" stroke="midnightblue" d="M126.392,-236C135.015,-236 143.839,-236 152.464,-236"/>
<polygon fill="midnightblue" stroke="midnightblue" points="126.386,-232.5 116.386,-236 126.386,-239.5 126.386,-232.5"/>
</g>
<!-- Node3 -->
<g id="node5" class="node"><title>Node3</title>
<a xlink:href="midi__13_8cpp.html#a6dff3d42682b58cc0a9875ee30fb4cd4" target="_top" xlink:title="do_midi_job">
<polygon fill="white" stroke="black" points="350,-426 350,-450 418,-450 418,-426 350,-426"/>
<text text-anchor="middle" x="384" y="-437" font-family="Helvetica,sans-Serif" font-size="10.00">do_midi_job</text>
</a>
</g>
<!-- Node2&#45;&gt;Node3 -->
<g id="edge4" class="edge"><title>Node2&#45;&gt;Node3</title>
<path fill="none" stroke="midnightblue" d="M227.943,-257.529C241.123,-295.121 273.262,-372.915 326,-417 332.902,-422.769 341.519,-427.014 349.983,-430.112"/>
<polygon fill="midnightblue" stroke="midnightblue" points="231.255,-256.399 224.726,-248.054 224.626,-258.649 231.255,-256.399"/>
</g>
<!-- Node10 -->
<g id="node20" class="node"><title>Node10</title>
<a xlink:href="plot__core9_8cpp.html#a8a3eaffeb57e4bca8f42aa973645f5b9" target="_top" xlink:title="clear_calc">
<polygon fill="white" stroke="black" points="353.5,-384 353.5,-408 414.5,-408 414.5,-384 353.5,-384"/>
<text text-anchor="middle" x="384" y="-395" font-family="Helvetica,sans-Serif" font-size="10.00">clear_calc</text>
</a>
</g>
<!-- Node2&#45;&gt;Node10 -->
<g id="edge20" class="edge"><title>Node2&#45;&gt;Node10</title>
<path fill="none" stroke="midnightblue" d="M231.804,-257.152C248.244,-287.359 282.299,-342.759 326,-375 334.101,-380.976 344.072,-385.395 353.449,-388.594"/>
<polygon fill="midnightblue" stroke="midnightblue" points="234.879,-255.479 227.095,-248.29 228.697,-258.764 234.879,-255.479"/>
</g>
<!-- Node11 -->
<g id="node22" class="node"><title>Node11</title>
<a xlink:href="plot__core9_8cpp.html#a6f933b83f292138e49fc9057684a1b4b" target="_top" xlink:title="add_a_symbol_to_plot">
<polygon fill="white" stroke="black" points="327,-74 327,-98 441,-98 441,-74 327,-74"/>
<text text-anchor="middle" x="384" y="-85" font-family="Helvetica,sans-Serif" font-size="10.00">add_a_symbol_to_plot</text>
</a>
</g>
<!-- Node2&#45;&gt;Node11 -->
<g id="edge22" class="edge"><title>Node2&#45;&gt;Node11</title>
<path fill="none" stroke="midnightblue" d="M234.209,-215.264C252.19,-188.417 286.674,-141.575 326,-112 333.32,-106.495 341.99,-101.827 350.366,-98.0311"/>
<polygon fill="midnightblue" stroke="midnightblue" points="231.123,-213.586 228.556,-223.865 236.973,-217.431 231.123,-213.586"/>
</g>
<!-- Node12 -->
<g id="node24" class="node"><title>Node12</title>
<a xlink:href="plot__core9_8cpp.html#a6ff8cd924e588a71a1366288cf8dc41b" target="_top" xlink:title="logical_plot_symbol_list">
<polygon fill="white" stroke="black" points="488,-112 488,-136 608,-136 608,-112 488,-112"/>
<text text-anchor="middle" x="548" y="-123" font-family="Helvetica,sans-Serif" font-size="10.00">logical_plot_symbol_list</text>
</a>
</g>
<!-- Node2&#45;&gt;Node12 -->
<g id="edge48" class="edge"><title>Node2&#45;&gt;Node12</title>
<path fill="none" stroke="midnightblue" d="M238.393,-216.259C257.615,-195.89 290.576,-165.036 326,-150 377.616,-128.091 441.693,-122.631 487.719,-122.032"/>
<polygon fill="midnightblue" stroke="midnightblue" points="235.689,-214.027 231.49,-223.754 240.839,-218.769 235.689,-214.027"/>
</g>
<!-- Node16 -->
<g id="node33" class="node"><title>Node16</title>
<a xlink:href="plot__core9_8cpp.html#a0e606b8d73e2db784589b32f412e8fe1" target="_top" xlink:title="duplicate_selected\l_symbols">
<polygon fill="white" stroke="black" points="335,-326 335,-366 433,-366 433,-326 335,-326"/>
<text text-anchor="start" x="343" y="-353" font-family="Helvetica,sans-Serif" font-size="10.00">duplicate_selected</text>
<text text-anchor="middle" x="384" y="-337" font-family="Helvetica,sans-Serif" font-size="10.00">_symbols</text>
</a>
</g>
<!-- Node2&#45;&gt;Node16 -->
<g id="edge34" class="edge"><title>Node2&#45;&gt;Node16</title>
<path fill="none" stroke="midnightblue" d="M244.705,-254.164C265.691,-269.999 297.349,-293.295 326,-312 333.135,-316.658 340.917,-321.424 348.397,-325.858"/>
<polygon fill="midnightblue" stroke="midnightblue" points="246.758,-251.328 236.675,-248.075 242.529,-256.906 246.758,-251.328"/>
</g>
<!-- Node17 -->
<g id="node35" class="node"><title>Node17</title>
<a xlink:href="plot__core9_8cpp.html#a74a79a0e49b7f81a7cb8b944c77b3b0d" target="_top" xlink:title="logical_plot_symbol\l_edition">
<polygon fill="white" stroke="black" points="497,-288 497,-328 599,-328 599,-288 497,-288"/>
<text text-anchor="start" x="505" y="-315" font-family="Helvetica,sans-Serif" font-size="10.00">logical_plot_symbol</text>
<text text-anchor="middle" x="548" y="-299" font-family="Helvetica,sans-Serif" font-size="10.00">_edition</text>
</a>
</g>
<!-- Node2&#45;&gt;Node17 -->
<g id="edge54" class="edge"><title>Node2&#45;&gt;Node17</title>
<path fill="none" stroke="midnightblue" d="M259.024,-251.795C278.724,-259.454 303.341,-268.224 326,-274 383.619,-288.688 451.369,-297.942 496.734,-303.024"/>
<polygon fill="midnightblue" stroke="midnightblue" points="260.081,-248.449 249.494,-248.028 257.507,-254.959 260.081,-248.449"/>
</g>
<!-- Node18 -->
<g id="node38" class="node"><title>Node18</title>
<a xlink:href="plot__core9_8cpp.html#a9c23683c01563bbc9fceacea0cfd1282" target="_top" xlink:title="add_selected_symbols\l_to_calc">
<polygon fill="white" stroke="black" points="326,-192 326,-232 442,-232 442,-192 326,-192"/>
<text text-anchor="start" x="334" y="-219" font-family="Helvetica,sans-Serif" font-size="10.00">add_selected_symbols</text>
<text text-anchor="middle" x="384" y="-203" font-family="Helvetica,sans-Serif" font-size="10.00">_to_calc</text>
</a>
</g>
<!-- Node2&#45;&gt;Node18 -->
<g id="edge40" class="edge"><title>Node2&#45;&gt;Node18</title>
<path fill="none" stroke="midnightblue" d="M299.639,-224.421C308.52,-223.114 317.446,-221.799 325.995,-220.541"/>
<polygon fill="midnightblue" stroke="midnightblue" points="299.038,-220.972 289.654,-225.891 300.057,-227.897 299.038,-220.972"/>
</g>
<!-- Node20 -->
<g id="node42" class="node"><title>Node20</title>
<a xlink:href="plot__core9_8cpp.html#a81228c183a1b219d5f3c5a759800df4b" target="_top" xlink:title="logical_plot_menu_bare">
<polygon fill="white" stroke="black" points="654.5,-210 654.5,-234 773.5,-234 773.5,-210 654.5,-210"/>
<text text-anchor="middle" x="714" y="-221" font-family="Helvetica,sans-Serif" font-size="10.00">logical_plot_menu_bare</text>
</a>
</g>
<!-- Node2&#45;&gt;Node20 -->
<g id="edge56" class="edge"><title>Node2&#45;&gt;Node20</title>
<path fill="none" stroke="midnightblue" d="M299.722,-242.084C379.979,-247.092 507.972,-251.784 618,-241 632.711,-239.558 648.51,-236.902 662.959,-234.023"/>
<polygon fill="midnightblue" stroke="midnightblue" points="299.894,-238.588 289.691,-241.441 299.446,-245.573 299.894,-238.588"/>
</g>
<!-- Node21 -->
<g id="node46" class="node"><title>Node21</title>
<a xlink:href="plot__core9_8cpp.html#afacf9fafd495ceac6c305b0cf88312f2" target="_top" xlink:title="logical_symbol_edition\l_options">
<polygon fill="white" stroke="black" points="656.5,-152 656.5,-192 771.5,-192 771.5,-152 656.5,-152"/>
<text text-anchor="start" x="664.5" y="-179" font-family="Helvetica,sans-Serif" font-size="10.00">logical_symbol_edition</text>
<text text-anchor="middle" x="714" y="-163" font-family="Helvetica,sans-Serif" font-size="10.00">_options</text>
</a>
</g>
<!-- Node2&#45;&gt;Node21 -->
<g id="edge50" class="edge"><title>Node2&#45;&gt;Node21</title>
<path fill="none" stroke="midnightblue" d="M247.73,-218.347C268.211,-205.881 297.675,-190.169 326,-183 440.324,-154.064 579.658,-159.549 656.385,-165.916"/>
<polygon fill="midnightblue" stroke="midnightblue" points="245.618,-215.54 238.989,-223.804 249.325,-221.478 245.618,-215.54"/>
</g>
<!-- Node22 -->
<g id="node51" class="node"><title>Node22</title>
<a xlink:href="save__show__13_8cpp.html#a8330f725aa2c729bdce098aa4b187589" target="_top" xlink:title="Load_Show">
<polygon fill="white" stroke="black" points="350,-30 350,-54 418,-54 418,-30 350,-30"/>
<text text-anchor="middle" x="384" y="-41" font-family="Helvetica,sans-Serif" font-size="10.00">Load_Show</text>
</a>
</g>
<!-- Node2&#45;&gt;Node22 -->
<g id="edge58" class="edge"><title>Node2&#45;&gt;Node22</title>
<path fill="none" stroke="midnightblue" d="M228.997,-214.322C243.235,-178.514 276.236,-106.816 326,-65 332.883,-59.2161 341.4,-54.7649 349.768,-51.3904"/>
<polygon fill="midnightblue" stroke="midnightblue" points="225.669,-213.225 225.331,-223.814 232.199,-215.747 225.669,-213.225"/>
</g>
<!-- Node4 -->
<g id="node7" class="node"><title>Node4</title>
<a xlink:href="midi__13_8cpp.html#a6bedf9750195224914cd87c4e73ab626" target="_top" xlink:title="ventilate_midi_to_midiarray">
<polygon fill="white" stroke="black" points="480.5,-386 480.5,-410 615.5,-410 615.5,-386 480.5,-386"/>
<text text-anchor="middle" x="548" y="-397" font-family="Helvetica,sans-Serif" font-size="10.00">ventilate_midi_to_midiarray</text>
</a>
</g>
<!-- Node3&#45;&gt;Node4 -->
<g id="edge6" class="edge"><title>Node3&#45;&gt;Node4</title>
<path fill="none" stroke="midnightblue" d="M428.34,-427.185C450.09,-421.88 476.356,-415.474 498.732,-410.017"/>
<polygon fill="midnightblue" stroke="midnightblue" points="427.266,-423.845 418.38,-429.615 428.924,-430.645 427.266,-423.845"/>
</g>
<!-- Node5 -->
<g id="node9" class="node"><title>Node5</title>
<a xlink:href="midi__13_8cpp.html#afa49dd5668303c2448676c8243737c2d" target="_top" xlink:title="simulate_midi">
<polygon fill="white" stroke="black" points="675.5,-329 675.5,-353 752.5,-353 752.5,-329 675.5,-329"/>
<text text-anchor="middle" x="714" y="-340" font-family="Helvetica,sans-Serif" font-size="10.00">simulate_midi</text>
</a>
</g>
<!-- Node4&#45;&gt;Node5 -->
<g id="edge8" class="edge"><title>Node4&#45;&gt;Node5</title>
<path fill="none" stroke="midnightblue" d="M592.819,-382.61C619.842,-373.332 653.769,-361.682 678.846,-353.071"/>
<polygon fill="midnightblue" stroke="midnightblue" points="591.526,-379.354 583.204,-385.912 593.799,-385.974 591.526,-379.354"/>
</g>
<!-- Node6 -->
<g id="node11" class="node"><title>Node6</title>
<a xlink:href="arduino__core__6___u_n_o_8cpp.html#ae72d1a8d74d9ab5515962e03e7e664d6" target="_top" xlink:title="arduino_do_analog_in\l_whitecat">
<polygon fill="white" stroke="black" points="816,-321 816,-361 926,-361 926,-321 816,-321"/>
<text text-anchor="start" x="824" y="-348" font-family="Helvetica,sans-Serif" font-size="10.00">arduino_do_analog_in</text>
<text text-anchor="middle" x="871" y="-332" font-family="Helvetica,sans-Serif" font-size="10.00">_whitecat</text>
</a>
</g>
<!-- Node5&#45;&gt;Node6 -->
<g id="edge10" class="edge"><title>Node5&#45;&gt;Node6</title>
<path fill="none" stroke="midnightblue" d="M762.933,-341C779.684,-341 798.538,-341 815.753,-341"/>
<polygon fill="midnightblue" stroke="midnightblue" points="762.809,-337.5 752.809,-341 762.809,-344.5 762.809,-337.5"/>
</g>
<!-- Node9 -->
<g id="node17" class="node"><title>Node9</title>
<a xlink:href="arduino__core__6___u_n_o_8cpp.html#a219226c1cd6cc17c78e62fd4445bb445" target="_top" xlink:title="arduino_do_digital\l_in_whitecat">
<polygon fill="white" stroke="black" points="823.5,-263 823.5,-303 918.5,-303 918.5,-263 823.5,-263"/>
<text text-anchor="start" x="831.5" y="-290" font-family="Helvetica,sans-Serif" font-size="10.00">arduino_do_digital</text>
<text text-anchor="middle" x="871" y="-274" font-family="Helvetica,sans-Serif" font-size="10.00">_in_whitecat</text>
</a>
</g>
<!-- Node5&#45;&gt;Node9 -->
<g id="edge16" class="edge"><title>Node5&#45;&gt;Node9</title>
<path fill="none" stroke="midnightblue" d="M756.022,-325.476C776.758,-317.816 801.861,-308.542 823.314,-300.617"/>
<polygon fill="midnightblue" stroke="midnightblue" points="754.698,-322.234 746.531,-328.982 757.124,-328.8 754.698,-322.234"/>
</g>
<!-- Node7 -->
<g id="node13" class="node"><title>Node7</title>
<a xlink:href="_m_a_i_n__avec__objets_8cpp.html#ace9c8a9b37c6087c3cffef442d71d70e" target="_top" xlink:title="dixiemes_de_secondes">
<polygon fill="white" stroke="black" points="968.5,-271 968.5,-295 1087.5,-295 1087.5,-271 968.5,-271"/>
<text text-anchor="middle" x="1028" y="-282" font-family="Helvetica,sans-Serif" font-size="10.00">dixiemes_de_secondes</text>
</a>
</g>
<!-- Node6&#45;&gt;Node7 -->
<g id="edge12" class="edge"><title>Node6&#45;&gt;Node7</title>
<path fill="none" stroke="midnightblue" d="M934.858,-317.409C955.553,-309.764 977.655,-301.599 995.134,-295.142"/>
<polygon fill="midnightblue" stroke="midnightblue" points="933.638,-314.129 925.47,-320.877 936.064,-320.695 933.638,-314.129"/>
</g>
<!-- Node8 -->
<g id="node15" class="node"><title>Node8</title>
<a xlink:href="_m_a_i_n__avec__objets_8cpp.html#ae66f6b31b5ad750f1fe042a706a4e3d4" target="_top" xlink:title="main">
<polygon fill="white" stroke="black" points="1286,-89 1286,-113 1324,-113 1324,-89 1286,-89"/>
<text text-anchor="middle" x="1305" y="-100" font-family="Helvetica,sans-Serif" font-size="10.00">main</text>
</a>
</g>
<!-- Node7&#45;&gt;Node8 -->
<g id="edge14" class="edge"><title>Node7&#45;&gt;Node8</title>
<path fill="none" stroke="midnightblue" d="M1057.41,-265.604C1100.44,-239.9 1182.72,-189.761 1250,-143 1263.81,-133.4 1278.97,-121.739 1289.86,-113.142"/>
<polygon fill="midnightblue" stroke="midnightblue" points="1055.4,-262.731 1048.6,-270.856 1058.98,-268.744 1055.4,-262.731"/>
</g>
<!-- Node9&#45;&gt;Node7 -->
<g id="edge18" class="edge"><title>Node9&#45;&gt;Node7</title>
<path fill="none" stroke="midnightblue" d="M928.702,-283C941.638,-283 955.387,-283 968.398,-283"/>
<polygon fill="midnightblue" stroke="midnightblue" points="928.531,-279.5 918.531,-283 928.531,-286.5 928.531,-279.5"/>
</g>
<!-- Node11&#45;&gt;Node12 -->
<g id="edge24" class="edge"><title>Node11&#45;&gt;Node12</title>
<path fill="none" stroke="midnightblue" d="M446.011,-100.368C462.548,-104.2 480.239,-108.299 496.166,-111.99"/>
<polygon fill="midnightblue" stroke="midnightblue" points="446.423,-96.8711 435.891,-98.0234 444.842,-103.69 446.423,-96.8711"/>
</g>
<!-- Node13 -->
<g id="node26" class="node"><title>Node13</title>
<a xlink:href="plot__core9_8cpp.html#a8959d98409d30cff9689b28771791f70" target="_top" xlink:title="do_logical_Plot_window">
<polygon fill="white" stroke="black" points="810.5,-160 810.5,-184 931.5,-184 931.5,-160 810.5,-160"/>
<text text-anchor="middle" x="871" y="-171" font-family="Helvetica,sans-Serif" font-size="10.00">do_logical_Plot_window</text>
</a>
</g>
<!-- Node12&#45;&gt;Node13 -->
<g id="edge26" class="edge"><title>Node12&#45;&gt;Node13</title>
<path fill="none" stroke="midnightblue" d="M618.617,-126.187C663.441,-128.497 722.496,-133.245 774,-143 795.242,-147.023 818.464,-153.875 836.86,-159.909"/>
<polygon fill="midnightblue" stroke="midnightblue" points="618.57,-122.681 608.412,-125.691 618.23,-129.673 618.57,-122.681"/>
</g>
<!-- Node14 -->
<g id="node28" class="node"><title>Node14</title>
<a xlink:href="procs__visuels__rebuild1_8cpp.html#ae710b6e599e321ad5934a90140067054" target="_top" xlink:title="check_graphics_mouse\l_handling">
<polygon fill="white" stroke="black" points="968.5,-152 968.5,-192 1087.5,-192 1087.5,-152 968.5,-152"/>
<text text-anchor="start" x="976.5" y="-179" font-family="Helvetica,sans-Serif" font-size="10.00">check_graphics_mouse</text>
<text text-anchor="middle" x="1028" y="-163" font-family="Helvetica,sans-Serif" font-size="10.00">_handling</text>
</a>
</g>
<!-- Node13&#45;&gt;Node14 -->
<g id="edge28" class="edge"><title>Node13&#45;&gt;Node14</title>
<path fill="none" stroke="midnightblue" d="M941.718,-172C950.664,-172 959.747,-172 968.495,-172"/>
<polygon fill="midnightblue" stroke="midnightblue" points="941.7,-168.5 931.7,-172 941.7,-175.5 941.7,-168.5"/>
</g>
<!-- Node15 -->
<g id="node30" class="node"><title>Node15</title>
<a xlink:href="_m_a_i_n__avec__objets_8cpp.html#a8e80f54ac804eddce8ed6e45adb1db44" target="_top" xlink:title="ticker_full_loop">
<polygon fill="white" stroke="black" points="1146,-110 1146,-134 1228,-134 1228,-110 1146,-110"/>
<text text-anchor="middle" x="1187" y="-121" font-family="Helvetica,sans-Serif" font-size="10.00">ticker_full_loop</text>
</a>
</g>
<!-- Node14&#45;&gt;Node15 -->
<g id="edge30" class="edge"><title>Node14&#45;&gt;Node15</title>
<path fill="none" stroke="midnightblue" d="M1097.36,-150.19C1114.98,-144.649 1133.27,-138.895 1148.71,-134.042"/>
<polygon fill="midnightblue" stroke="midnightblue" points="1096.15,-146.901 1087.66,-153.24 1098.25,-153.579 1096.15,-146.901"/>
</g>
<!-- Node15&#45;&gt;Node8 -->
<g id="edge32" class="edge"><title>Node15&#45;&gt;Node8</title>
<path fill="none" stroke="midnightblue" d="M1238.55,-112.826C1255.31,-109.844 1272.88,-106.716 1285.74,-104.427"/>
<polygon fill="midnightblue" stroke="midnightblue" points="1237.5,-109.457 1228.27,-114.655 1238.73,-116.349 1237.5,-109.457"/>
</g>
<!-- Node16&#45;&gt;Node17 -->
<g id="edge36" class="edge"><title>Node16&#45;&gt;Node17</title>
<path fill="none" stroke="midnightblue" d="M443.324,-332.254C460.849,-328.193 479.874,-323.785 496.838,-319.855"/>
<polygon fill="midnightblue" stroke="midnightblue" points="442.157,-328.932 433.205,-334.599 443.737,-335.751 442.157,-328.932"/>
</g>
<!-- Node17&#45;&gt;Node13 -->
<g id="edge38" class="edge"><title>Node17&#45;&gt;Node13</title>
<path fill="none" stroke="midnightblue" d="M609.22,-296.512C655.941,-286.314 721.067,-268.959 774,-243 806.603,-227.011 839.698,-199.957 857.554,-184.266"/>
<polygon fill="midnightblue" stroke="midnightblue" points="608.294,-293.131 599.245,-298.642 609.755,-299.977 608.294,-293.131"/>
</g>
<!-- Node19 -->
<g id="node40" class="node"><title>Node19</title>
<a xlink:href="plot__core9_8cpp.html#a3431bbe587897e907b6dee6b35777684" target="_top" xlink:title="send_symbols_from_calc\l_to_calc">
<polygon fill="white" stroke="black" points="484,-192 484,-232 612,-232 612,-192 484,-192"/>
<text text-anchor="start" x="492" y="-219" font-family="Helvetica,sans-Serif" font-size="10.00">send_symbols_from_calc</text>
<text text-anchor="middle" x="548" y="-203" font-family="Helvetica,sans-Serif" font-size="10.00">_to_calc</text>
</a>
</g>
<!-- Node18&#45;&gt;Node19 -->
<g id="edge42" class="edge"><title>Node18&#45;&gt;Node19</title>
<path fill="none" stroke="midnightblue" d="M452.512,-212C462.867,-212 473.516,-212 483.775,-212"/>
<polygon fill="midnightblue" stroke="midnightblue" points="452.282,-208.5 442.282,-212 452.282,-215.5 452.282,-208.5"/>
</g>
<!-- Node19&#45;&gt;Node20 -->
<g id="edge44" class="edge"><title>Node19&#45;&gt;Node20</title>
<path fill="none" stroke="midnightblue" d="M622.362,-216.48C633.069,-217.125 643.97,-217.781 654.341,-218.406"/>
<polygon fill="midnightblue" stroke="midnightblue" points="622.372,-212.974 612.18,-215.866 621.951,-219.961 622.372,-212.974"/>
</g>
<!-- Node20&#45;&gt;Node13 -->
<g id="edge46" class="edge"><title>Node20&#45;&gt;Node13</title>
<path fill="none" stroke="midnightblue" d="M761.542,-206.859C784.459,-199.561 811.567,-190.928 833.073,-184.079"/>
<polygon fill="midnightblue" stroke="midnightblue" points="760.472,-203.527 752.005,-209.896 762.596,-210.197 760.472,-203.527"/>
</g>
<!-- Node21&#45;&gt;Node13 -->
<g id="edge52" class="edge"><title>Node21&#45;&gt;Node13</title>
<path fill="none" stroke="midnightblue" d="M781.749,-172C791.233,-172 800.929,-172 810.272,-172"/>
<polygon fill="midnightblue" stroke="midnightblue" points="781.57,-168.5 771.57,-172 781.569,-175.5 781.57,-168.5"/>
</g>
<!-- Node22&#45;&gt;Node8 -->
<g id="edge60" class="edge"><title>Node22&#45;&gt;Node8</title>
<path fill="none" stroke="midnightblue" d="M428.05,-29.6824C443.709,-25.7141 461.537,-21.6593 478,-19 581.882,-2.21957 608.772,-0 714,-0 714,-0 714,-0 1028,-0 1130.09,-0 1158.34,-14.046 1250,-59 1265.75,-66.7238 1281.42,-79.2984 1291.99,-88.6787"/>
<polygon fill="midnightblue" stroke="midnightblue" points="426.909,-26.3625 418.109,-32.2621 428.667,-33.1381 426.909,-26.3625"/>
</g>
<!-- Node23 -->
<g id="node54" class="node"><title>Node23</title>
<a xlink:href="save__show__13_8cpp.html#a1eafc1ecb75f36c1fe85c967bdea99b0" target="_top" xlink:title="load_the_show">
<polygon fill="white" stroke="black" points="507,-28 507,-52 589,-52 589,-28 507,-28"/>
<text text-anchor="middle" x="548" y="-39" font-family="Helvetica,sans-Serif" font-size="10.00">load_the_show</text>
</a>
</g>
<!-- Node22&#45;&gt;Node23 -->
<g id="edge62" class="edge"><title>Node22&#45;&gt;Node23</title>
<path fill="none" stroke="midnightblue" d="M428.483,-41.4575C452.951,-41.1591 483.1,-40.7915 506.995,-40.5001"/>
<polygon fill="midnightblue" stroke="midnightblue" points="428.336,-37.959 418.38,-41.5807 428.422,-44.9584 428.336,-37.959"/>
</g>
<!-- Node30 -->
<g id="node70" class="node"><title>Node30</title>
<a xlink:href="save__show__13_8cpp.html#a2c8ff847dfaf2dc6c8765b2bee26edfc" target="_top" xlink:title="do_wizard_reload_from_disk">
<polygon fill="white" stroke="black" points="478,-70 478,-94 618,-94 618,-70 478,-70"/>
<text text-anchor="middle" x="548" y="-81" font-family="Helvetica,sans-Serif" font-size="10.00">do_wizard_reload_from_disk</text>
</a>
</g>
<!-- Node22&#45;&gt;Node30 -->
<g id="edge80" class="edge"><title>Node22&#45;&gt;Node30</title>
<path fill="none" stroke="midnightblue" d="M428.34,-52.8147C450.09,-58.1196 476.356,-64.5259 498.732,-69.9834"/>
<polygon fill="midnightblue" stroke="midnightblue" points="428.924,-49.3546 418.38,-50.3853 427.266,-56.1553 428.924,-49.3546"/>
</g>
<!-- Node24 -->
<g id="node56" class="node"><title>Node24</title>
<a xlink:href="logicals__intres_8cpp.html#a74cf9c04c734ab342f88799efbfc4210" target="_top" xlink:title="operations_confirmation">
<polygon fill="white" stroke="black" points="654,-69 654,-93 774,-93 774,-69 654,-69"/>
<text text-anchor="middle" x="714" y="-80" font-family="Helvetica,sans-Serif" font-size="10.00">operations_confirmation</text>
</a>
</g>
<!-- Node23&#45;&gt;Node24 -->
<g id="edge64" class="edge"><title>Node23&#45;&gt;Node24</title>
<path fill="none" stroke="midnightblue" d="M598.786,-52.5436C619.89,-57.7561 644.284,-63.7809 665.176,-68.9411"/>
<polygon fill="midnightblue" stroke="midnightblue" points="599.581,-49.1348 589.034,-50.1348 597.903,-55.9306 599.581,-49.1348"/>
</g>
<!-- Node25 -->
<g id="node58" class="node"><title>Node25</title>
<a xlink:href="keyboard__functions2_8cpp.html#a548548066307f816c5021de7d6e4f26a" target="_top" xlink:title="key_affectation">
<polygon fill="white" stroke="black" points="829.5,-110 829.5,-134 912.5,-134 912.5,-110 829.5,-110"/>
<text text-anchor="middle" x="871" y="-121" font-family="Helvetica,sans-Serif" font-size="10.00">key_affectation</text>
</a>
</g>
<!-- Node24&#45;&gt;Node25 -->
<g id="edge66" class="edge"><title>Node24&#45;&gt;Node25</title>
<path fill="none" stroke="midnightblue" d="M769.974,-95.6175C789.545,-100.728 811.157,-106.372 829.352,-111.124"/>
<polygon fill="midnightblue" stroke="midnightblue" points="770.816,-92.22 760.256,-93.0796 769.047,-98.9928 770.816,-92.22"/>
</g>
<!-- Node27 -->
<g id="node63" class="node"><title>Node27</title>
<a xlink:href="logicals__intres_8cpp.html#a85967c22135715eca94d08af2ec1a1fb" target="_top" xlink:title="fenetre_confirm">
<polygon fill="white" stroke="black" points="829,-68 829,-92 913,-92 913,-68 829,-68"/>
<text text-anchor="middle" x="871" y="-79" font-family="Helvetica,sans-Serif" font-size="10.00">fenetre_confirm</text>
</a>
</g>
<!-- Node24&#45;&gt;Node27 -->
<g id="edge72" class="edge"><title>Node24&#45;&gt;Node27</title>
<path fill="none" stroke="midnightblue" d="M784.584,-80.5504C799.639,-80.4545 815.087,-80.3561 828.682,-80.2695"/>
<polygon fill="midnightblue" stroke="midnightblue" points="784.229,-77.0525 774.251,-80.6162 784.273,-84.0524 784.229,-77.0525"/>
</g>
<!-- Node26 -->
<g id="node60" class="node"><title>Node26</title>
<a xlink:href="keyboard__routines2_8cpp.html#a8563320b8eab661232619224650de244" target="_top" xlink:title="commandes_clavier">
<polygon fill="white" stroke="black" points="976,-110 976,-134 1080,-134 1080,-110 976,-110"/>
<text text-anchor="middle" x="1028" y="-121" font-family="Helvetica,sans-Serif" font-size="10.00">commandes_clavier</text>
</a>
</g>
<!-- Node25&#45;&gt;Node26 -->
<g id="edge68" class="edge"><title>Node25&#45;&gt;Node26</title>
<path fill="none" stroke="midnightblue" d="M922.947,-122C939.91,-122 958.748,-122 975.734,-122"/>
<polygon fill="midnightblue" stroke="midnightblue" points="922.661,-118.5 912.661,-122 922.661,-125.5 922.661,-118.5"/>
</g>
<!-- Node26&#45;&gt;Node15 -->
<g id="edge70" class="edge"><title>Node26&#45;&gt;Node15</title>
<path fill="none" stroke="midnightblue" d="M1090.27,-122C1108.95,-122 1128.97,-122 1145.91,-122"/>
<polygon fill="midnightblue" stroke="midnightblue" points="1090.06,-118.5 1080.06,-122 1090.06,-125.5 1090.06,-118.5"/>
</g>
<!-- Node28 -->
<g id="node65" class="node"><title>Node28</title>
<a xlink:href="graphics__rebuild1_8cpp.html#ac2eae1e03fb72cc734ffbcef566483bf" target="_top" xlink:title="Boxes">
<polygon fill="white" stroke="black" points="1006,-68 1006,-92 1050,-92 1050,-68 1006,-68"/>
<text text-anchor="middle" x="1028" y="-79" font-family="Helvetica,sans-Serif" font-size="10.00">Boxes</text>
</a>
</g>
<!-- Node27&#45;&gt;Node28 -->
<g id="edge74" class="edge"><title>Node27&#45;&gt;Node28</title>
<path fill="none" stroke="midnightblue" d="M923.14,-80C951.174,-80 984.281,-80 1005.68,-80"/>
<polygon fill="midnightblue" stroke="midnightblue" points="923.073,-76.5001 913.073,-80 923.073,-83.5001 923.073,-76.5001"/>
</g>
<!-- Node29 -->
<g id="node67" class="node"><title>Node29</title>
<a xlink:href="_m_a_i_n__avec__objets_8cpp.html#ade8d4ba65d55c94f8ee277829d722155" target="_top" xlink:title="main_actions_on_screen">
<polygon fill="white" stroke="black" points="1124.5,-68 1124.5,-92 1249.5,-92 1249.5,-68 1124.5,-68"/>
<text text-anchor="middle" x="1187" y="-79" font-family="Helvetica,sans-Serif" font-size="10.00">main_actions_on_screen</text>
</a>
</g>
<!-- Node28&#45;&gt;Node29 -->
<g id="edge76" class="edge"><title>Node28&#45;&gt;Node29</title>
<path fill="none" stroke="midnightblue" d="M1060.28,-80C1078.68,-80 1102.37,-80 1124.28,-80"/>
<polygon fill="midnightblue" stroke="midnightblue" points="1060.11,-76.5001 1050.11,-80 1060.11,-83.5001 1060.11,-76.5001"/>
</g>
<!-- Node29&#45;&gt;Node8 -->
<g id="edge78" class="edge"><title>Node29&#45;&gt;Node8</title>
<path fill="none" stroke="midnightblue" d="M1259.84,-92.9626C1269.34,-94.6529 1278.33,-96.253 1285.75,-97.5739"/>
<polygon fill="midnightblue" stroke="midnightblue" points="1260.26,-89.4827 1249.8,-91.1763 1259.03,-96.3744 1260.26,-89.4827"/>
</g>
<!-- Node30&#45;&gt;Node24 -->
<g id="edge82" class="edge"><title>Node30&#45;&gt;Node24</title>
<path fill="none" stroke="midnightblue" d="M628.451,-81.5154C637.047,-81.4636 645.679,-81.4116 653.979,-81.3616"/>
<polygon fill="midnightblue" stroke="midnightblue" points="628.378,-78.0156 618.399,-81.5759 628.42,-85.0155 628.378,-78.0156"/>
</g>
</g>
</svg>
        <g id="navigator" transform="translate(0 0)" fill="#404254">
                <rect fill="#f2f5e9" fill-opacity="0.5" stroke="#606060" stroke-width=".5" x="0" y="0" width="60" height="60"/>
                <use id="zoomplus" xlink:href="#zoomPlus" x="17" y="9" onmousedown="handleZoom(evt,'in')"/>
                <use id="zoomminus" xlink:href="#zoomMin" x="42" y="9" onmousedown="handleZoom(evt,'out')"/>
                <use id="reset" xlink:href="#resetDef" x="30" y="36" onmousedown="handleReset()"/>
                <g id="arrowUp" xlink:href="#dirArrow" transform="translate(30 24)" onmousedown="handlePan(0,-1)">
                  <use xlink:href="#rim" fill="#404040">
                        <set attributeName="fill" to="#808080" begin="arrowUp.mouseover" end="arrowUp.mouseout"/>
                  </use>
                  <path fill="none" stroke="white" stroke-width="1.5" d="M0,-3.0v7 M-2.5,-0.5L0,-3.0L2.5,-0.5"/>
                </g>
                <g id="arrowRight" xlink:href="#dirArrow" transform="rotate(90) translate(36 -43)" onmousedown="handlePan(1,0)">
                  <use xlink:href="#rim" fill="#404040">
                        <set attributeName="fill" to="#808080" begin="arrowRight.mouseover" end="arrowRight.mouseout"/>
                  </use>
                  <path fill="none" stroke="white" stroke-width="1.5" d="M0,-3.0v7 M-2.5,-0.5L0,-3.0L2.5,-0.5"/>
                </g>
                <g id="arrowDown" xlink:href="#dirArrow" transform="rotate(180) translate(-30 -48)" onmousedown="handlePan(0,1)">
                  <use xlink:href="#rim" fill="#404040">
                        <set attributeName="fill" to="#808080" begin="arrowDown.mouseover" end="arrowDown.mouseout"/>
                  </use>
                  <path fill="none" stroke="white" stroke-width="1.5" d="M0,-3.0v7 M-2.5,-0.5L0,-3.0L2.5,-0.5"/>
                </g>
                <g id="arrowLeft" xlink:href="#dirArrow" transform="rotate(270) translate(-36 17)" onmousedown="handlePan(-1,0)">
                  <use xlink:href="#rim" fill="#404040">
                        <set attributeName="fill" to="#808080" begin="arrowLeft.mouseover" end="arrowLeft.mouseout"/>
                  </use>
                  <path fill="none" stroke="white" stroke-width="1.5" d="M0,-3.0v7 M-2.5,-0.5L0,-3.0L2.5,-0.5"/>
                </g>
        </g>
        <svg viewBox="0 0 15 15" width="100%" height="30px" preserveAspectRatio="xMaxYMin meet">
         <g id="arrow_out" transform="scale(0.3 0.3)">
          <a xlink:href="plot__core9_8cpp_aee1db260c83091fb31c75951b8c9b091_icgraph_org.svg" target="_base">
           <rect id="button" ry="5" rx="5" y="6" x="6" height="38" width="38"
                fill="#f2f5e9" fill-opacity="0.5" stroke="#606060" stroke-width="1.0"/>
           <path id="arrow"
             d="M 11.500037,31.436501 C 11.940474,20.09759 22.043105,11.32322 32.158766,21.979434 L 37.068811,17.246167 C 37.068811,17.246167 37.088388,32 37.088388,32 L 22.160133,31.978069 C 22.160133,31.978069 26.997745,27.140456 26.997745,27.140456 C 18.528582,18.264221 13.291696,25.230495 11.500037,31.436501 z"
             style="fill:#404040;"/>
          </a>
         </g>
        </svg>
</svg>
