<?xml version="1.0" encoding="UTF-8" standalone="no"?>
<!DOCTYPE svg PUBLIC "-//W3C//DTD SVG 1.1//EN"
 "http://www.w3.org/Graphics/SVG/1.1/DTD/svg11.dtd">
<!-- Generated by graphviz version 2.26.3 (20100126.1600)
 -->
<!-- Title: delete_selected_symbols Pages: 1 -->
<!--zoomable 114 -->
<svg id="main" version="1.1" xmlns="http://www.w3.org/2000/svg" xmlns:xlink="http://www.w3.org/1999/xlink" xml:space="preserve" onload="init(evt)">
<style type="text/css"><![CDATA[
.edge:hover path { stroke: red; }
.edge:hover polygon { stroke: red; fill: red; }
]]></style>
<script type="text/javascript"><![CDATA[
var edges = document.getElementsByTagName('g');
if (edges && edges.length) {
  for (var i=0;i<edges.length;i++) {
    if (edges[i].id.substr(0,4)=='edge') {
      edges[i].setAttribute('class','edge');
    }
  }
}
]]></script>
        <defs>
                <circle id="rim" cx="0" cy="0" r="7"/>
                <circle id="rim2" cx="0" cy="0" r="3.5"/>
                <g id="zoomPlus">
                        <use xlink:href="#rim" fill="#404040">
                                <set attributeName="fill" to="#808080" begin="zoomplus.mouseover" end="zoomplus.mouseout"/>
                        </use>
                        <path d="M-4,0h8M0,-4v8" fill="none" stroke="white" stroke-width="1.5" pointer-events="none"/>
                </g>
                <g id="zoomMin">
                        <use xlink:href="#rim" fill="#404040">
                                <set attributeName="fill" to="#808080" begin="zoomminus.mouseover" end="zoomminus.mouseout"/>
                        </use>
                        <path d="M-4,0h8" fill="none" stroke="white" stroke-width="1.5" pointer-events="none"/>
                </g>
                <g id="dirArrow">
                        <path fill="none" stroke="white" stroke-width="1.5" d="M0,-3.0v7 M-2.5,-0.5L0,-3.0L2.5,-0.5"/>
                </g>
               <g id="resetDef">
                       <use xlink:href="#rim2" fill="#404040">
                               <set attributeName="fill" to="#808080" begin="reset.mouseover" end="reset.mouseout"/>
                       </use>
               </g>
        </defs>

<script type="text/javascript">
var viewWidth = 648;
var viewHeight = 114;
var sectionId = 'dynsection-30';
</script>
<script xlink:href="svgpan.js"/>
<svg id="graph" class="graph">
<g id="viewport">
<title>delete_selected_symbols</title>
<polygon fill="white" stroke="white" points="-4,5 -4,-110 645,-110 645,5 -4,5"/>
<!-- Node1 -->
<g id="node1" class="node"><title>Node1</title>
<polygon fill="#bfbfbf" stroke="black" points="0.5,-42 0.5,-66 127.5,-66 127.5,-42 0.5,-42"/>
<text text-anchor="middle" x="64" y="-53" font-family="Helvetica,sans-Serif" font-size="10.00">delete_selected_symbols</text>
</g>
<!-- Node2 -->
<g id="node3" class="node"><title>Node2</title>
<a xlink:href="plot__core9_8cpp.html#a58fe8fc317633b7cfd679c95c67193b9" target="_top" xlink:title="clear_symbol_slot">
<polygon fill="white" stroke="black" points="352.5,-82 352.5,-106 447.5,-106 447.5,-82 352.5,-82"/>
<text text-anchor="middle" x="400" y="-93" font-family="Helvetica,sans-Serif" font-size="10.00">clear_symbol_slot</text>
</a>
</g>
<!-- Node1&#45;&gt;Node2 -->
<g id="edge2" class="edge"><title>Node1&#45;&gt;Node2</title>
<path fill="none" stroke="midnightblue" d="M115.164,-66.0455C130.769,-69.3672 148.023,-72.6888 164,-75 224.451,-83.7449 294.239,-88.7394 342.157,-91.3909"/>
<polygon fill="midnightblue" stroke="midnightblue" points="342.166,-94.8964 352.339,-91.9373 342.541,-87.9064 342.166,-94.8964"/>
</g>
<!-- Node4 -->
<g id="node7" class="node"><title>Node4</title>
<a xlink:href="plot__core9_8cpp.html#a66c5771a91b5557afae81e1ad42603a6" target="_top" xlink:title="reorder_plan">
<polygon fill="white" stroke="black" points="194,-42 194,-66 264,-66 264,-42 194,-42"/>
<text text-anchor="middle" x="229" y="-53" font-family="Helvetica,sans-Serif" font-size="10.00">reorder_plan</text>
</a>
</g>
<!-- Node1&#45;&gt;Node4 -->
<g id="edge6" class="edge"><title>Node1&#45;&gt;Node4</title>
<path fill="none" stroke="midnightblue" d="M127.793,-54C146.418,-54 166.385,-54 183.621,-54"/>
<polygon fill="midnightblue" stroke="midnightblue" points="183.964,-57.5001 193.964,-54 183.964,-50.5001 183.964,-57.5001"/>
</g>
<!-- Node6 -->
<g id="node12" class="node"><title>Node6</title>
<a xlink:href="plot__core9_8cpp.html#ad2a3f7bed24f6e271a1d1a42ebc81ff5" target="_top" xlink:title="recount_symbols_on_calc">
<polygon fill="white" stroke="black" points="164,-0 164,-24 294,-24 294,-0 164,-0"/>
<text text-anchor="middle" x="229" y="-11" font-family="Helvetica,sans-Serif" font-size="10.00">recount_symbols_on_calc</text>
</a>
</g>
<!-- Node1&#45;&gt;Node6 -->
<g id="edge12" class="edge"><title>Node1&#45;&gt;Node6</title>
<path fill="none" stroke="midnightblue" d="M111.282,-41.9645C130.182,-37.1536 152.118,-31.57 171.896,-26.5355"/>
<polygon fill="midnightblue" stroke="midnightblue" points="172.883,-29.896 181.711,-24.0373 171.156,-23.1123 172.883,-29.896"/>
</g>
<!-- Node3 -->
<g id="node5" class="node"><title>Node3</title>
<a xlink:href="plot__core9_8cpp.html#a4afbbba7a97b479ffbf4b9b190c40b29" target="_top" xlink:title="clear_grouped_to_symbols">
<polygon fill="white" stroke="black" points="506.5,-82 506.5,-106 639.5,-106 639.5,-82 506.5,-82"/>
<text text-anchor="middle" x="573" y="-93" font-family="Helvetica,sans-Serif" font-size="10.00">clear_grouped_to_symbols</text>
</a>
</g>
<!-- Node2&#45;&gt;Node3 -->
<g id="edge4" class="edge"><title>Node2&#45;&gt;Node3</title>
<path fill="none" stroke="midnightblue" d="M447.731,-94C462.722,-94 479.672,-94 496.149,-94"/>
<polygon fill="midnightblue" stroke="midnightblue" points="496.325,-97.5001 506.325,-94 496.325,-90.5001 496.325,-97.5001"/>
</g>
<!-- Node4&#45;&gt;Node2 -->
<g id="edge10" class="edge"><title>Node4&#45;&gt;Node2</title>
<path fill="none" stroke="midnightblue" d="M264.017,-62.1911C286.631,-67.4809 316.585,-74.4877 342.623,-80.5785"/>
<polygon fill="midnightblue" stroke="midnightblue" points="341.853,-83.9928 352.387,-82.8625 343.447,-77.1768 341.853,-83.9928"/>
</g>
<!-- Node5 -->
<g id="node9" class="node"><title>Node5</title>
<a xlink:href="plot__core9_8cpp.html#a3aa259226da63745d5e779178c8111f2" target="_top" xlink:title="copy_symbol_to_emply_slot">
<polygon fill="white" stroke="black" points="330,-40 330,-64 470,-64 470,-40 330,-40"/>
<text text-anchor="middle" x="400" y="-51" font-family="Helvetica,sans-Serif" font-size="10.00">copy_symbol_to_emply_slot</text>
</a>
</g>
<!-- Node4&#45;&gt;Node5 -->
<g id="edge8" class="edge"><title>Node4&#45;&gt;Node5</title>
<path fill="none" stroke="midnightblue" d="M264.017,-53.5904C280.159,-53.4016 300.042,-53.1691 319.57,-52.9407"/>
<polygon fill="midnightblue" stroke="midnightblue" points="319.77,-56.4387 329.729,-52.8219 319.688,-49.4392 319.77,-56.4387"/>
</g>
</g>
</svg>
        <g id="navigator" transform="translate(0 0)" fill="#404254">
                <rect fill="#f2f5e9" fill-opacity="0.5" stroke="#606060" stroke-width=".5" x="0" y="0" width="60" height="60"/>
                <use id="zoomplus" xlink:href="#zoomPlus" x="17" y="9" onmousedown="handleZoom(evt,'in')"/>
                <use id="zoomminus" xlink:href="#zoomMin" x="42" y="9" onmousedown="handleZoom(evt,'out')"/>
                <use id="reset" xlink:href="#resetDef" x="30" y="36" onmousedown="handleReset()"/>
                <g id="arrowUp" xlink:href="#dirArrow" transform="translate(30 24)" onmousedown="handlePan(0,-1)">
                  <use xlink:href="#rim" fill="#404040">
                        <set attributeName="fill" to="#808080" begin="arrowUp.mouseover" end="arrowUp.mouseout"/>
                  </use>
                  <path fill="none" stroke="white" stroke-width="1.5" d="M0,-3.0v7 M-2.5,-0.5L0,-3.0L2.5,-0.5"/>
                </g>
                <g id="arrowRight" xlink:href="#dirArrow" transform="rotate(90) translate(36 -43)" onmousedown="handlePan(1,0)">
                  <use xlink:href="#rim" fill="#404040">
                        <set attributeName="fill" to="#808080" begin="arrowRight.mouseover" end="arrowRight.mouseout"/>
                  </use>
                  <path fill="none" stroke="white" stroke-width="1.5" d="M0,-3.0v7 M-2.5,-0.5L0,-3.0L2.5,-0.5"/>
                </g>
                <g id="arrowDown" xlink:href="#dirArrow" transform="rotate(180) translate(-30 -48)" onmousedown="handlePan(0,1)">
                  <use xlink:href="#rim" fill="#404040">
                        <set attributeName="fill" to="#808080" begin="arrowDown.mouseover" end="arrowDown.mouseout"/>
                  </use>
                  <path fill="none" stroke="white" stroke-width="1.5" d="M0,-3.0v7 M-2.5,-0.5L0,-3.0L2.5,-0.5"/>
                </g>
                <g id="arrowLeft" xlink:href="#dirArrow" transform="rotate(270) translate(-36 17)" onmousedown="handlePan(-1,0)">
                  <use xlink:href="#rim" fill="#404040">
                        <set attributeName="fill" to="#808080" begin="arrowLeft.mouseover" end="arrowLeft.mouseout"/>
                  </use>
                  <path fill="none" stroke="white" stroke-width="1.5" d="M0,-3.0v7 M-2.5,-0.5L0,-3.0L2.5,-0.5"/>
                </g>
        </g>
        <svg viewBox="0 0 15 15" width="100%" height="30px" preserveAspectRatio="xMaxYMin meet">
         <g id="arrow_out" transform="scale(0.3 0.3)">
          <a xlink:href="plot__core9_8cpp_a23e56ec233d9db7dd7dca8c52410b847_cgraph_org.svg" target="_base">
           <rect id="button" ry="5" rx="5" y="6" x="6" height="38" width="38"
                fill="#f2f5e9" fill-opacity="0.5" stroke="#606060" stroke-width="1.0"/>
           <path id="arrow"
             d="M 11.500037,31.436501 C 11.940474,20.09759 22.043105,11.32322 32.158766,21.979434 L 37.068811,17.246167 C 37.068811,17.246167 37.088388,32 37.088388,32 L 22.160133,31.978069 C 22.160133,31.978069 26.997745,27.140456 26.997745,27.140456 C 18.528582,18.264221 13.291696,25.230495 11.500037,31.436501 z"
             style="fill:#404040;"/>
          </a>
         </g>
        </svg>
</svg>
