<?xml version="1.0" encoding="UTF-8" standalone="no"?>
<!DOCTYPE svg PUBLIC "-//W3C//DTD SVG 1.1//EN"
 "http://www.w3.org/Graphics/SVG/1.1/DTD/svg11.dtd">
<!-- Generated by graphviz version 2.26.3 (20100126.1600)
 -->
<!-- Title: plot_draw_symbol_rampe_brabo Pages: 1 -->
<svg width="684pt" height="74pt"
 viewBox="0.00 0.00 684.00 74.00" xmlns="http://www.w3.org/2000/svg" xmlns:xlink="http://www.w3.org/1999/xlink">
<g id="graph1" class="graph" transform="scale(1 1) rotate(0) translate(4 70)">
<title>plot_draw_symbol_rampe_brabo</title>
<polygon fill="white" stroke="white" points="-4,5 -4,-70 681,-70 681,5 -4,5"/>
<!-- Node1 -->
<g id="node1" class="node"><title>Node1</title>
<polygon fill="#bfbfbf" stroke="black" points="0,-13 0,-53 128,-53 128,-13 0,-13"/>
<text text-anchor="start" x="8" y="-40" font-family="Helvetica,sans-Serif" font-size="10.00">plot_draw_symbol_rampe</text>
<text text-anchor="middle" x="64" y="-24" font-family="Helvetica,sans-Serif" font-size="10.00">_brabo</text>
</g>
<!-- Node2 -->
<g id="node3" class="node"><title>Node2</title>
<a xlink:href="plot_8cpp.html#a08296cc3ee305018568ea075f64d5640" target="_top" xlink:title="plot_symbol_list">
<polygon fill="white" stroke="black" points="164.5,-42 164.5,-66 251.5,-66 251.5,-42 164.5,-42"/>
<text text-anchor="middle" x="208" y="-53" font-family="Helvetica,sans-Serif" font-size="10.00">plot_symbol_list</text>
</a>
</g>
<!-- Node1&#45;&gt;Node2 -->
<g id="edge2" class="edge"><title>Node1&#45;&gt;Node2</title>
<path fill="none" stroke="midnightblue" d="M138.407,-43.851C147.26,-45.1421 156.065,-46.4262 164.285,-47.6249"/>
<polygon fill="midnightblue" stroke="midnightblue" points="138.819,-40.3742 128.419,-42.3944 137.809,-47.3009 138.819,-40.3742"/>
</g>
<!-- Node7 -->
<g id="node13" class="node"><title>Node7</title>
<a xlink:href="plot_8cpp.html#ab1ead0218cc4468327a83bc54864cf3e" target="_top" xlink:title="plot_draw_plan">
<polygon fill="white" stroke="black" points="167,-0 167,-24 249,-24 249,-0 167,-0"/>
<text text-anchor="middle" x="208" y="-11" font-family="Helvetica,sans-Serif" font-size="10.00">plot_draw_plan</text>
</a>
</g>
<!-- Node1&#45;&gt;Node7 -->
<g id="edge12" class="edge"><title>Node1&#45;&gt;Node7</title>
<path fill="none" stroke="midnightblue" d="M138.534,-22.1305C148.247,-20.714 157.899,-19.3064 166.781,-18.0112"/>
<polygon fill="midnightblue" stroke="midnightblue" points="137.809,-18.6991 128.419,-23.6056 138.819,-25.6258 137.809,-18.6991"/>
</g>
<!-- Node3 -->
<g id="node5" class="node"><title>Node3</title>
<a xlink:href="plot_8cpp.html#a3d45bfc1bc76a3d67ad1a8bb3d63163d" target="_top" xlink:title="Plot_window">
<polygon fill="white" stroke="black" points="288,-21 288,-45 360,-45 360,-21 288,-21"/>
<text text-anchor="middle" x="324" y="-32" font-family="Helvetica,sans-Serif" font-size="10.00">Plot_window</text>
</a>
</g>
<!-- Node2&#45;&gt;Node3 -->
<g id="edge4" class="edge"><title>Node2&#45;&gt;Node3</title>
<path fill="none" stroke="midnightblue" d="M261.485,-44.3175C270.401,-42.7034 279.46,-41.0633 287.812,-39.5512"/>
<polygon fill="midnightblue" stroke="midnightblue" points="260.741,-40.8951 251.524,-46.1206 261.988,-47.7832 260.741,-40.8951"/>
</g>
<!-- Node4 -->
<g id="node7" class="node"><title>Node4</title>
<a xlink:href="graphics__rebuild1_8cpp.html#ac2eae1e03fb72cc734ffbcef566483bf" target="_top" xlink:title="Boxes">
<polygon fill="white" stroke="black" points="396,-21 396,-45 440,-45 440,-21 396,-21"/>
<text text-anchor="middle" x="418" y="-32" font-family="Helvetica,sans-Serif" font-size="10.00">Boxes</text>
</a>
</g>
<!-- Node3&#45;&gt;Node4 -->
<g id="edge6" class="edge"><title>Node3&#45;&gt;Node4</title>
<path fill="none" stroke="midnightblue" d="M370.084,-33C379.028,-33 388.017,-33 395.753,-33"/>
<polygon fill="midnightblue" stroke="midnightblue" points="370.074,-29.5001 360.074,-33 370.074,-36.5001 370.074,-29.5001"/>
</g>
<!-- Node5 -->
<g id="node9" class="node"><title>Node5</title>
<a xlink:href="_m_a_i_n__avec__objets_8cpp.html#ade8d4ba65d55c94f8ee277829d722155" target="_top" xlink:title="main_actions_on_screen">
<polygon fill="white" stroke="black" points="476.5,-21 476.5,-45 601.5,-45 601.5,-21 476.5,-21"/>
<text text-anchor="middle" x="539" y="-32" font-family="Helvetica,sans-Serif" font-size="10.00">main_actions_on_screen</text>
</a>
</g>
<!-- Node4&#45;&gt;Node5 -->
<g id="edge8" class="edge"><title>Node4&#45;&gt;Node5</title>
<path fill="none" stroke="midnightblue" d="M450.244,-33C458.32,-33 467.263,-33 476.271,-33"/>
<polygon fill="midnightblue" stroke="midnightblue" points="450.193,-29.5001 440.193,-33 450.193,-36.5001 450.193,-29.5001"/>
</g>
<!-- Node6 -->
<g id="node11" class="node"><title>Node6</title>
<a xlink:href="_m_a_i_n__avec__objets_8cpp.html#ae66f6b31b5ad750f1fe042a706a4e3d4" target="_top" xlink:title="main">
<polygon fill="white" stroke="black" points="638,-21 638,-45 676,-45 676,-21 638,-21"/>
<text text-anchor="middle" x="657" y="-32" font-family="Helvetica,sans-Serif" font-size="10.00">main</text>
</a>
</g>
<!-- Node5&#45;&gt;Node6 -->
<g id="edge10" class="edge"><title>Node5&#45;&gt;Node6</title>
<path fill="none" stroke="midnightblue" d="M611.837,-33C621.336,-33 630.327,-33 637.749,-33"/>
<polygon fill="midnightblue" stroke="midnightblue" points="611.8,-29.5001 601.8,-33 611.8,-36.5001 611.8,-29.5001"/>
</g>
<!-- Node7&#45;&gt;Node3 -->
<g id="edge14" class="edge"><title>Node7&#45;&gt;Node3</title>
<path fill="none" stroke="midnightblue" d="M259.181,-21.2654C268.869,-23.0193 278.814,-24.8198 287.915,-26.4674"/>
<polygon fill="midnightblue" stroke="midnightblue" points="259.687,-17.8004 249.224,-19.4629 258.44,-24.6884 259.687,-17.8004"/>
</g>
</g>
</svg>
