<?xml version="1.0" encoding="UTF-8" standalone="no"?>
<!DOCTYPE svg PUBLIC "-//W3C//DTD SVG 1.1//EN"
 "http://www.w3.org/Graphics/SVG/1.1/DTD/svg11.dtd">
<!-- Generated by graphviz version 2.26.3 (20100126.1600)
 -->
<!-- Title: affect_angle_to_shapes Pages: 1 -->
<!--zoomable 206 -->
<svg id="main" version="1.1" xmlns="http://www.w3.org/2000/svg" xmlns:xlink="http://www.w3.org/1999/xlink" xml:space="preserve" onload="init(evt)">
<style type="text/css"><![CDATA[
.edge:hover path { stroke: red; }
.edge:hover polygon { stroke: red; fill: red; }
]]></style>
<script type="text/javascript"><![CDATA[
var edges = document.getElementsByTagName('g');
if (edges && edges.length) {
  for (var i=0;i<edges.length;i++) {
    if (edges[i].id.substr(0,4)=='edge') {
      edges[i].setAttribute('class','edge');
    }
  }
}
]]></script>
        <defs>
                <circle id="rim" cx="0" cy="0" r="7"/>
                <circle id="rim2" cx="0" cy="0" r="3.5"/>
                <g id="zoomPlus">
                        <use xlink:href="#rim" fill="#404040">
                                <set attributeName="fill" to="#808080" begin="zoomplus.mouseover" end="zoomplus.mouseout"/>
                        </use>
                        <path d="M-4,0h8M0,-4v8" fill="none" stroke="white" stroke-width="1.5" pointer-events="none"/>
                </g>
                <g id="zoomMin">
                        <use xlink:href="#rim" fill="#404040">
                                <set attributeName="fill" to="#808080" begin="zoomminus.mouseover" end="zoomminus.mouseout"/>
                        </use>
                        <path d="M-4,0h8" fill="none" stroke="white" stroke-width="1.5" pointer-events="none"/>
                </g>
                <g id="dirArrow">
                        <path fill="none" stroke="white" stroke-width="1.5" d="M0,-3.0v7 M-2.5,-0.5L0,-3.0L2.5,-0.5"/>
                </g>
               <g id="resetDef">
                       <use xlink:href="#rim2" fill="#404040">
                               <set attributeName="fill" to="#808080" begin="reset.mouseover" end="reset.mouseout"/>
                       </use>
               </g>
        </defs>

<script type="text/javascript">
var viewWidth = 1854;
var viewHeight = 206;
var sectionId = 'dynsection-8';
</script>
<script xlink:href="svgpan.js"/>
<svg id="graph" class="graph">
<g id="viewport">
<title>affect_angle_to_shapes</title>
<polygon fill="white" stroke="white" points="-4,5 -4,-202 1851,-202 1851,5 -4,5"/>
<!-- Node1 -->
<g id="node1" class="node"><title>Node1</title>
<polygon fill="#bfbfbf" stroke="black" points="0.5,-34 0.5,-58 119.5,-58 119.5,-34 0.5,-34"/>
<text text-anchor="middle" x="60" y="-45" font-family="Helvetica,sans-Serif" font-size="10.00">affect_angle_to_shapes</text>
</g>
<!-- Node2 -->
<g id="node3" class="node"><title>Node2</title>
<a xlink:href="midi__13_8cpp.html#a6dff3d42682b58cc0a9875ee30fb4cd4" target="_top" xlink:title="do_midi_job">
<polygon fill="white" stroke="black" points="177,-56 177,-80 245,-80 245,-56 177,-56"/>
<text text-anchor="middle" x="211" y="-67" font-family="Helvetica,sans-Serif" font-size="10.00">do_midi_job</text>
</a>
</g>
<!-- Node1&#45;&gt;Node2 -->
<g id="edge2" class="edge"><title>Node1&#45;&gt;Node2</title>
<path fill="none" stroke="midnightblue" d="M129.813,-56.1714C146.207,-58.56 162.962,-61.001 176.96,-63.0405"/>
<polygon fill="midnightblue" stroke="midnightblue" points="130.079,-52.6734 119.679,-54.695 129.07,-59.6002 130.079,-52.6734"/>
</g>
<!-- Node21 -->
<g id="node46" class="node"><title>Node21</title>
<a xlink:href="plot__core9_8cpp.html#aea32fc46aaba62f9f5c3dc25abe79fae" target="_top" xlink:title="logical_shape_edition">
<polygon fill="white" stroke="black" points="156,-13 156,-37 266,-37 266,-13 156,-13"/>
<text text-anchor="middle" x="211" y="-24" font-family="Helvetica,sans-Serif" font-size="10.00">logical_shape_edition</text>
</a>
</g>
<!-- Node1&#45;&gt;Node21 -->
<g id="edge50" class="edge"><title>Node1&#45;&gt;Node21</title>
<path fill="none" stroke="midnightblue" d="M129.797,-36.2931C138.479,-35.0857 147.262,-33.8642 155.684,-32.6929"/>
<polygon fill="midnightblue" stroke="midnightblue" points="129.102,-32.8561 119.679,-37.7002 130.066,-39.7893 129.102,-32.8561"/>
</g>
<!-- Node3 -->
<g id="node5" class="node"><title>Node3</title>
<a xlink:href="midi__13_8cpp.html#a6bedf9750195224914cd87c4e73ab626" target="_top" xlink:title="ventilate_midi_to_midiarray">
<polygon fill="white" stroke="black" points="302.5,-58 302.5,-82 437.5,-82 437.5,-58 302.5,-58"/>
<text text-anchor="middle" x="370" y="-69" font-family="Helvetica,sans-Serif" font-size="10.00">ventilate_midi_to_midiarray</text>
</a>
</g>
<!-- Node2&#45;&gt;Node3 -->
<g id="edge4" class="edge"><title>Node2&#45;&gt;Node3</title>
<path fill="none" stroke="midnightblue" d="M255.316,-68.5574C269.863,-68.7404 286.378,-68.9481 302.254,-69.1478"/>
<polygon fill="midnightblue" stroke="midnightblue" points="255.153,-65.0552 245.109,-68.4291 255.065,-72.0546 255.153,-65.0552"/>
</g>
<!-- Node4 -->
<g id="node7" class="node"><title>Node4</title>
<a xlink:href="midi__13_8cpp.html#afa49dd5668303c2448676c8243737c2d" target="_top" xlink:title="simulate_midi">
<polygon fill="white" stroke="black" points="474.5,-108 474.5,-132 551.5,-132 551.5,-108 474.5,-108"/>
<text text-anchor="middle" x="513" y="-119" font-family="Helvetica,sans-Serif" font-size="10.00">simulate_midi</text>
</a>
</g>
<!-- Node3&#45;&gt;Node4 -->
<g id="edge6" class="edge"><title>Node3&#45;&gt;Node4</title>
<path fill="none" stroke="midnightblue" d="M414.107,-85.4219C434.719,-92.6291 458.91,-101.087 478.207,-107.835"/>
<polygon fill="midnightblue" stroke="midnightblue" points="415.211,-82.1004 404.616,-82.1036 412.901,-88.7081 415.211,-82.1004"/>
</g>
<!-- Node9 -->
<g id="node18" class="node"><title>Node9</title>
<a xlink:href="midi__13_8cpp.html#a4104c2ae7e71376ad9dc78929450dc51" target="_top" xlink:title="EvAquire">
<polygon fill="white" stroke="black" points="485,-58 485,-82 541,-82 541,-58 485,-58"/>
<text text-anchor="middle" x="513" y="-69" font-family="Helvetica,sans-Serif" font-size="10.00">EvAquire</text>
</a>
</g>
<!-- Node3&#45;&gt;Node9 -->
<g id="edge18" class="edge"><title>Node3&#45;&gt;Node9</title>
<path fill="none" stroke="midnightblue" d="M447.852,-70C461.053,-70 473.963,-70 484.762,-70"/>
<polygon fill="midnightblue" stroke="midnightblue" points="447.731,-66.5001 437.731,-70 447.731,-73.5001 447.731,-66.5001"/>
</g>
<!-- Node5 -->
<g id="node9" class="node"><title>Node5</title>
<a xlink:href="arduino__core__6___u_n_o_8cpp.html#ae72d1a8d74d9ab5515962e03e7e664d6" target="_top" xlink:title="arduino_do_analog_in\l_whitecat">
<polygon fill="white" stroke="black" points="588,-158 588,-198 698,-198 698,-158 588,-158"/>
<text text-anchor="start" x="596" y="-185" font-family="Helvetica,sans-Serif" font-size="10.00">arduino_do_analog_in</text>
<text text-anchor="middle" x="643" y="-169" font-family="Helvetica,sans-Serif" font-size="10.00">_whitecat</text>
</a>
</g>
<!-- Node4&#45;&gt;Node5 -->
<g id="edge8" class="edge"><title>Node4&#45;&gt;Node5</title>
<path fill="none" stroke="midnightblue" d="M549.415,-136.246C564.467,-142.962 582.072,-150.817 597.927,-157.891"/>
<polygon fill="midnightblue" stroke="midnightblue" points="550.494,-132.896 539.936,-132.018 547.642,-139.288 550.494,-132.896"/>
</g>
<!-- Node8 -->
<g id="node15" class="node"><title>Node8</title>
<a xlink:href="arduino__core__6___u_n_o_8cpp.html#a219226c1cd6cc17c78e62fd4445bb445" target="_top" xlink:title="arduino_do_digital\l_in_whitecat">
<polygon fill="white" stroke="black" points="595.5,-100 595.5,-140 690.5,-140 690.5,-100 595.5,-100"/>
<text text-anchor="start" x="603.5" y="-127" font-family="Helvetica,sans-Serif" font-size="10.00">arduino_do_digital</text>
<text text-anchor="middle" x="643" y="-111" font-family="Helvetica,sans-Serif" font-size="10.00">_in_whitecat</text>
</a>
</g>
<!-- Node4&#45;&gt;Node8 -->
<g id="edge14" class="edge"><title>Node4&#45;&gt;Node8</title>
<path fill="none" stroke="midnightblue" d="M561.833,-120C572.703,-120 584.216,-120 595.05,-120"/>
<polygon fill="midnightblue" stroke="midnightblue" points="561.652,-116.5 551.652,-120 561.652,-123.5 561.652,-116.5"/>
</g>
<!-- Node6 -->
<g id="node11" class="node"><title>Node6</title>
<a xlink:href="_m_a_i_n__avec__objets_8cpp.html#ace9c8a9b37c6087c3cffef442d71d70e" target="_top" xlink:title="dixiemes_de_secondes">
<polygon fill="white" stroke="black" points="734.5,-158 734.5,-182 853.5,-182 853.5,-158 734.5,-158"/>
<text text-anchor="middle" x="794" y="-169" font-family="Helvetica,sans-Serif" font-size="10.00">dixiemes_de_secondes</text>
</a>
</g>
<!-- Node5&#45;&gt;Node6 -->
<g id="edge10" class="edge"><title>Node5&#45;&gt;Node6</title>
<path fill="none" stroke="midnightblue" d="M708.379,-174.536C716.999,-174.08 725.798,-173.613 734.316,-173.162"/>
<polygon fill="midnightblue" stroke="midnightblue" points="708.17,-171.042 698.369,-175.067 708.541,-178.032 708.17,-171.042"/>
</g>
<!-- Node7 -->
<g id="node13" class="node"><title>Node7</title>
<a xlink:href="_m_a_i_n__avec__objets_8cpp.html#ae66f6b31b5ad750f1fe042a706a4e3d4" target="_top" xlink:title="main">
<polygon fill="white" stroke="black" points="1808,-74 1808,-98 1846,-98 1846,-74 1808,-74"/>
<text text-anchor="middle" x="1827" y="-85" font-family="Helvetica,sans-Serif" font-size="10.00">main</text>
</a>
</g>
<!-- Node6&#45;&gt;Node7 -->
<g id="edge12" class="edge"><title>Node6&#45;&gt;Node7</title>
<path fill="none" stroke="midnightblue" d="M864.012,-170C924.812,-170 1015.22,-170 1094,-170 1094,-170 1094,-170 1588,-170 1674.2,-170 1768.51,-120.761 1807.97,-97.6798"/>
<polygon fill="midnightblue" stroke="midnightblue" points="863.766,-166.5 853.766,-170 863.766,-173.5 863.766,-166.5"/>
</g>
<!-- Node8&#45;&gt;Node6 -->
<g id="edge16" class="edge"><title>Node8&#45;&gt;Node6</title>
<path fill="none" stroke="midnightblue" d="M700.338,-138.986C719.532,-145.342 740.392,-152.249 757.543,-157.928"/>
<polygon fill="midnightblue" stroke="midnightblue" points="701.371,-135.641 690.777,-135.82 699.17,-142.286 701.371,-135.641"/>
</g>
<!-- Node10 -->
<g id="node20" class="node"><title>Node10</title>
<a xlink:href="midi__13_8cpp.html#a831f1dfc7870ae4f6c64a0e65fbaf3ff" target="_top" xlink:title="Display">
<polygon fill="white" stroke="black" points="618,-58 618,-82 668,-82 668,-58 618,-58"/>
<text text-anchor="middle" x="643" y="-69" font-family="Helvetica,sans-Serif" font-size="10.00">Display</text>
</a>
</g>
<!-- Node9&#45;&gt;Node10 -->
<g id="edge20" class="edge"><title>Node9&#45;&gt;Node10</title>
<path fill="none" stroke="midnightblue" d="M551.332,-70C572.833,-70 599.044,-70 617.923,-70"/>
<polygon fill="midnightblue" stroke="midnightblue" points="551.208,-66.5001 541.208,-70 551.208,-73.5001 551.208,-66.5001"/>
</g>
<!-- Node11 -->
<g id="node22" class="node"><title>Node11</title>
<a xlink:href="midi__13_8cpp.html#aa4aeee5088a4a5462566dfee5c9cc71f" target="_top" xlink:title="DisplayTask">
<polygon fill="white" stroke="black" points="758.5,-100 758.5,-124 829.5,-124 829.5,-100 758.5,-100"/>
<text text-anchor="middle" x="794" y="-111" font-family="Helvetica,sans-Serif" font-size="10.00">DisplayTask</text>
</a>
</g>
<!-- Node10&#45;&gt;Node11 -->
<g id="edge22" class="edge"><title>Node10&#45;&gt;Node11</title>
<path fill="none" stroke="midnightblue" d="M678.099,-79.7627C702.248,-86.4795 734.212,-95.3702 758.456,-102.113"/>
<polygon fill="midnightblue" stroke="midnightblue" points="678.846,-76.3377 668.274,-77.0299 676.97,-83.0817 678.846,-76.3377"/>
</g>
<!-- Node13 -->
<g id="node27" class="node"><title>Node13</title>
<a xlink:href="midi___c_o_r_e_8cpp.html#a6fcb4c2efe85f50488d7aeeef1fc0a3e" target="_top" xlink:title="ReceiveEvents">
<polygon fill="white" stroke="black" points="752.5,-58 752.5,-82 835.5,-82 835.5,-58 752.5,-58"/>
<text text-anchor="middle" x="794" y="-69" font-family="Helvetica,sans-Serif" font-size="10.00">ReceiveEvents</text>
</a>
</g>
<!-- Node10&#45;&gt;Node13 -->
<g id="edge28" class="edge"><title>Node10&#45;&gt;Node13</title>
<path fill="none" stroke="midnightblue" d="M678.562,-70C700.676,-70 729.207,-70 752.372,-70"/>
<polygon fill="midnightblue" stroke="midnightblue" points="678.274,-66.5001 668.274,-70 678.274,-73.5001 678.274,-66.5001"/>
</g>
<!-- Node12 -->
<g id="node24" class="node"><title>Node12</title>
<a xlink:href="midi___c_o_r_e_8cpp.html#a7d0f82d882071792d6a2df51ef13ec55" target="_top" xlink:title="ReceivePolling">
<polygon fill="white" stroke="black" points="909,-100 909,-124 991,-124 991,-100 909,-100"/>
<text text-anchor="middle" x="950" y="-111" font-family="Helvetica,sans-Serif" font-size="10.00">ReceivePolling</text>
</a>
</g>
<!-- Node11&#45;&gt;Node12 -->
<g id="edge24" class="edge"><title>Node11&#45;&gt;Node12</title>
<path fill="none" stroke="midnightblue" d="M839.834,-112C861.695,-112 887.644,-112 908.865,-112"/>
<polygon fill="midnightblue" stroke="midnightblue" points="839.79,-108.5 829.79,-112 839.79,-115.5 839.79,-108.5"/>
</g>
<!-- Node12&#45;&gt;Node12 -->
<g id="edge26" class="edge"><title>Node12&#45;&gt;Node12</title>
<path fill="none" stroke="midnightblue" d="M923.886,-134.001C926.556,-138.647 935.261,-142 950,-142 974.188,-142 982.124,-132.972 973.81,-124.014"/>
<polygon fill="midnightblue" stroke="midnightblue" points="927.353,-134.545 926.19,-124.014 920.532,-132.971 927.353,-134.545"/>
</g>
<!-- Node13&#45;&gt;Node12 -->
<g id="edge30" class="edge"><title>Node13&#45;&gt;Node12</title>
<path fill="none" stroke="midnightblue" d="M845.643,-83.9039C866.196,-89.4374 889.516,-95.7158 908.89,-100.932"/>
<polygon fill="midnightblue" stroke="midnightblue" points="846.371,-80.4754 835.805,-81.2552 844.551,-87.2347 846.371,-80.4754"/>
</g>
<!-- Node14 -->
<g id="node30" class="node"><title>Node14</title>
<a xlink:href="midi___c_o_r_e_8cpp.html#a0ccf480a33424e626f88d109d53d8366" target="_top" xlink:title="InitMidi">
<polygon fill="white" stroke="black" points="926,-58 926,-82 974,-82 974,-58 926,-58"/>
<text text-anchor="middle" x="950" y="-69" font-family="Helvetica,sans-Serif" font-size="10.00">InitMidi</text>
</a>
</g>
<!-- Node13&#45;&gt;Node14 -->
<g id="edge32" class="edge"><title>Node13&#45;&gt;Node14</title>
<path fill="none" stroke="midnightblue" d="M845.851,-70C872.743,-70 904.324,-70 925.601,-70"/>
<polygon fill="midnightblue" stroke="midnightblue" points="845.805,-66.5001 835.805,-70 845.805,-73.5001 845.805,-66.5001"/>
</g>
<!-- Node14&#45;&gt;Node7 -->
<g id="edge34" class="edge"><title>Node14&#45;&gt;Node7</title>
<path fill="none" stroke="midnightblue" d="M984.148,-77.5362C1035.04,-88.0911 1133.92,-106 1219,-106 1219,-106 1219,-106 1588,-106 1670.03,-106 1767.34,-94.1564 1807.84,-88.6973"/>
<polygon fill="midnightblue" stroke="midnightblue" points="984.84,-74.1052 974.333,-75.4676 983.396,-80.9547 984.84,-74.1052"/>
</g>
<!-- Node15 -->
<g id="node33" class="node"><title>Node15</title>
<a xlink:href="midi__13_8cpp.html#ac7a306aa81e374b447e7341d4d3a3eea" target="_top" xlink:title="midipage_devices">
<polygon fill="white" stroke="black" points="1046.5,-54 1046.5,-78 1141.5,-78 1141.5,-54 1046.5,-54"/>
<text text-anchor="middle" x="1094" y="-65" font-family="Helvetica,sans-Serif" font-size="10.00">midipage_devices</text>
</a>
</g>
<!-- Node14&#45;&gt;Node15 -->
<g id="edge36" class="edge"><title>Node14&#45;&gt;Node15</title>
<path fill="none" stroke="midnightblue" d="M984.186,-69.0504C1002.8,-68.5333 1026.13,-67.8853 1046.49,-67.3198"/>
<polygon fill="midnightblue" stroke="midnightblue" points="984.001,-65.5541 974.102,-69.3305 984.196,-72.5514 984.001,-65.5541"/>
</g>
<!-- Node16 -->
<g id="node35" class="node"><title>Node16</title>
<a xlink:href="midi__13_8cpp.html#a8f70acacad6eaba8867bdd80dda5e277" target="_top" xlink:title="do_midi_config">
<polygon fill="white" stroke="black" points="1178,-54 1178,-78 1260,-78 1260,-54 1178,-54"/>
<text text-anchor="middle" x="1219" y="-65" font-family="Helvetica,sans-Serif" font-size="10.00">do_midi_config</text>
</a>
</g>
<!-- Node15&#45;&gt;Node16 -->
<g id="edge38" class="edge"><title>Node15&#45;&gt;Node16</title>
<path fill="none" stroke="midnightblue" d="M1151.77,-66C1160.5,-66 1169.35,-66 1177.65,-66"/>
<polygon fill="midnightblue" stroke="midnightblue" points="1151.61,-62.5001 1141.61,-66 1151.61,-69.5001 1151.61,-62.5001"/>
</g>
<!-- Node17 -->
<g id="node37" class="node"><title>Node17</title>
<a xlink:href="_c_f_g__config__panel__8_8cpp.html#ad39c46e2fb3a3ba7ea0460140ead4f96" target="_top" xlink:title="do_panel_config">
<polygon fill="white" stroke="black" points="1296.5,-54 1296.5,-78 1383.5,-78 1383.5,-54 1296.5,-54"/>
<text text-anchor="middle" x="1340" y="-65" font-family="Helvetica,sans-Serif" font-size="10.00">do_panel_config</text>
</a>
</g>
<!-- Node16&#45;&gt;Node17 -->
<g id="edge40" class="edge"><title>Node16&#45;&gt;Node17</title>
<path fill="none" stroke="midnightblue" d="M1270.33,-66C1279.01,-66 1287.95,-66 1296.41,-66"/>
<polygon fill="midnightblue" stroke="midnightblue" points="1270.3,-62.5001 1260.3,-66 1270.3,-69.5001 1270.3,-62.5001"/>
</g>
<!-- Node18 -->
<g id="node39" class="node"><title>Node18</title>
<a xlink:href="_c_f_g__config__panel__8_8cpp.html#a7968da66bccdba8b864caf6c8435f68e" target="_top" xlink:title="config_general_menu">
<polygon fill="white" stroke="black" points="1420.5,-54 1420.5,-78 1529.5,-78 1529.5,-54 1420.5,-54"/>
<text text-anchor="middle" x="1475" y="-65" font-family="Helvetica,sans-Serif" font-size="10.00">config_general_menu</text>
</a>
</g>
<!-- Node17&#45;&gt;Node18 -->
<g id="edge42" class="edge"><title>Node17&#45;&gt;Node18</title>
<path fill="none" stroke="midnightblue" d="M1394.07,-66C1402.62,-66 1411.47,-66 1420.04,-66"/>
<polygon fill="midnightblue" stroke="midnightblue" points="1393.83,-62.5001 1383.83,-66 1393.83,-69.5001 1393.83,-62.5001"/>
</g>
<!-- Node19 -->
<g id="node41" class="node"><title>Node19</title>
<a xlink:href="graphics__rebuild1_8cpp.html#ac2eae1e03fb72cc734ffbcef566483bf" target="_top" xlink:title="Boxes">
<polygon fill="white" stroke="black" points="1566,-54 1566,-78 1610,-78 1610,-54 1566,-54"/>
<text text-anchor="middle" x="1588" y="-65" font-family="Helvetica,sans-Serif" font-size="10.00">Boxes</text>
</a>
</g>
<!-- Node18&#45;&gt;Node19 -->
<g id="edge44" class="edge"><title>Node18&#45;&gt;Node19</title>
<path fill="none" stroke="midnightblue" d="M1539.75,-66C1549.11,-66 1558.17,-66 1565.86,-66"/>
<polygon fill="midnightblue" stroke="midnightblue" points="1539.51,-62.5001 1529.51,-66 1539.51,-69.5001 1539.51,-62.5001"/>
</g>
<!-- Node20 -->
<g id="node43" class="node"><title>Node20</title>
<a xlink:href="_m_a_i_n__avec__objets_8cpp.html#ade8d4ba65d55c94f8ee277829d722155" target="_top" xlink:title="main_actions_on_screen">
<polygon fill="white" stroke="black" points="1646.5,-54 1646.5,-78 1771.5,-78 1771.5,-54 1646.5,-54"/>
<text text-anchor="middle" x="1709" y="-65" font-family="Helvetica,sans-Serif" font-size="10.00">main_actions_on_screen</text>
</a>
</g>
<!-- Node19&#45;&gt;Node20 -->
<g id="edge46" class="edge"><title>Node19&#45;&gt;Node20</title>
<path fill="none" stroke="midnightblue" d="M1620.24,-66C1628.32,-66 1637.26,-66 1646.27,-66"/>
<polygon fill="midnightblue" stroke="midnightblue" points="1620.19,-62.5001 1610.19,-66 1620.19,-69.5001 1620.19,-62.5001"/>
</g>
<!-- Node20&#45;&gt;Node7 -->
<g id="edge48" class="edge"><title>Node20&#45;&gt;Node7</title>
<path fill="none" stroke="midnightblue" d="M1781.84,-78.3453C1791.34,-79.9552 1800.33,-81.4791 1807.75,-82.7371"/>
<polygon fill="midnightblue" stroke="midnightblue" points="1782.24,-74.8645 1771.8,-76.6441 1781.07,-81.7661 1782.24,-74.8645"/>
</g>
<!-- Node22 -->
<g id="node48" class="node"><title>Node22</title>
<a xlink:href="plot__core9_8cpp.html#a8959d98409d30cff9689b28771791f70" target="_top" xlink:title="do_logical_Plot_window">
<polygon fill="white" stroke="black" points="309.5,-13 309.5,-37 430.5,-37 430.5,-13 309.5,-13"/>
<text text-anchor="middle" x="370" y="-24" font-family="Helvetica,sans-Serif" font-size="10.00">do_logical_Plot_window</text>
</a>
</g>
<!-- Node21&#45;&gt;Node22 -->
<g id="edge52" class="edge"><title>Node21&#45;&gt;Node22</title>
<path fill="none" stroke="midnightblue" d="M276.431,-25C287.284,-25 298.498,-25 309.229,-25"/>
<polygon fill="midnightblue" stroke="midnightblue" points="276.164,-21.5001 266.164,-25 276.164,-28.5001 276.164,-21.5001"/>
</g>
<!-- Node23 -->
<g id="node50" class="node"><title>Node23</title>
<a xlink:href="procs__visuels__rebuild1_8cpp.html#ae710b6e599e321ad5934a90140067054" target="_top" xlink:title="check_graphics_mouse\l_handling">
<polygon fill="white" stroke="black" points="890.5,-0 890.5,-40 1009.5,-40 1009.5,-0 890.5,-0"/>
<text text-anchor="start" x="898.5" y="-27" font-family="Helvetica,sans-Serif" font-size="10.00">check_graphics_mouse</text>
<text text-anchor="middle" x="950" y="-11" font-family="Helvetica,sans-Serif" font-size="10.00">_handling</text>
</a>
</g>
<!-- Node22&#45;&gt;Node23 -->
<g id="edge54" class="edge"><title>Node22&#45;&gt;Node23</title>
<path fill="none" stroke="midnightblue" d="M440.834,-24.3894C556.163,-23.3951 782.45,-21.4444 890.209,-20.5154"/>
<polygon fill="midnightblue" stroke="midnightblue" points="440.671,-20.8905 430.701,-24.4767 440.731,-27.8903 440.671,-20.8905"/>
</g>
<!-- Node24 -->
<g id="node52" class="node"><title>Node24</title>
<a xlink:href="_m_a_i_n__avec__objets_8cpp.html#a8e80f54ac804eddce8ed6e45adb1db44" target="_top" xlink:title="ticker_full_loop">
<polygon fill="white" stroke="black" points="1053,-10 1053,-34 1135,-34 1135,-10 1053,-10"/>
<text text-anchor="middle" x="1094" y="-21" font-family="Helvetica,sans-Serif" font-size="10.00">ticker_full_loop</text>
</a>
</g>
<!-- Node23&#45;&gt;Node24 -->
<g id="edge56" class="edge"><title>Node23&#45;&gt;Node24</title>
<path fill="none" stroke="midnightblue" d="M1020.11,-20.9738C1031.38,-21.1302 1042.7,-21.2875 1052.99,-21.4304"/>
<polygon fill="midnightblue" stroke="midnightblue" points="1019.87,-17.4701 1009.82,-20.8308 1019.77,-24.4694 1019.87,-17.4701"/>
</g>
<!-- Node24&#45;&gt;Node7 -->
<g id="edge58" class="edge"><title>Node24&#45;&gt;Node7</title>
<path fill="none" stroke="midnightblue" d="M1145.53,-23.325C1195.3,-24.4896 1272.81,-26 1340,-26 1340,-26 1340,-26 1588,-26 1670.21,-26 1695.4,-15.1373 1772,-45 1788.42,-51.4026 1804.24,-64.1056 1814.66,-73.6842"/>
<polygon fill="midnightblue" stroke="midnightblue" points="1145.43,-19.8216 1135.35,-23.0825 1145.26,-26.8197 1145.43,-19.8216"/>
</g>
</g>
</svg>
        <g id="navigator" transform="translate(0 0)" fill="#404254">
                <rect fill="#f2f5e9" fill-opacity="0.5" stroke="#606060" stroke-width=".5" x="0" y="0" width="60" height="60"/>
                <use id="zoomplus" xlink:href="#zoomPlus" x="17" y="9" onmousedown="handleZoom(evt,'in')"/>
                <use id="zoomminus" xlink:href="#zoomMin" x="42" y="9" onmousedown="handleZoom(evt,'out')"/>
                <use id="reset" xlink:href="#resetDef" x="30" y="36" onmousedown="handleReset()"/>
                <g id="arrowUp" xlink:href="#dirArrow" transform="translate(30 24)" onmousedown="handlePan(0,-1)">
                  <use xlink:href="#rim" fill="#404040">
                        <set attributeName="fill" to="#808080" begin="arrowUp.mouseover" end="arrowUp.mouseout"/>
                  </use>
                  <path fill="none" stroke="white" stroke-width="1.5" d="M0,-3.0v7 M-2.5,-0.5L0,-3.0L2.5,-0.5"/>
                </g>
                <g id="arrowRight" xlink:href="#dirArrow" transform="rotate(90) translate(36 -43)" onmousedown="handlePan(1,0)">
                  <use xlink:href="#rim" fill="#404040">
                        <set attributeName="fill" to="#808080" begin="arrowRight.mouseover" end="arrowRight.mouseout"/>
                  </use>
                  <path fill="none" stroke="white" stroke-width="1.5" d="M0,-3.0v7 M-2.5,-0.5L0,-3.0L2.5,-0.5"/>
                </g>
                <g id="arrowDown" xlink:href="#dirArrow" transform="rotate(180) translate(-30 -48)" onmousedown="handlePan(0,1)">
                  <use xlink:href="#rim" fill="#404040">
                        <set attributeName="fill" to="#808080" begin="arrowDown.mouseover" end="arrowDown.mouseout"/>
                  </use>
                  <path fill="none" stroke="white" stroke-width="1.5" d="M0,-3.0v7 M-2.5,-0.5L0,-3.0L2.5,-0.5"/>
                </g>
                <g id="arrowLeft" xlink:href="#dirArrow" transform="rotate(270) translate(-36 17)" onmousedown="handlePan(-1,0)">
                  <use xlink:href="#rim" fill="#404040">
                        <set attributeName="fill" to="#808080" begin="arrowLeft.mouseover" end="arrowLeft.mouseout"/>
                  </use>
                  <path fill="none" stroke="white" stroke-width="1.5" d="M0,-3.0v7 M-2.5,-0.5L0,-3.0L2.5,-0.5"/>
                </g>
        </g>
        <svg viewBox="0 0 15 15" width="100%" height="30px" preserveAspectRatio="xMaxYMin meet">
         <g id="arrow_out" transform="scale(0.3 0.3)">
          <a xlink:href="plot__core9_8cpp_aabb5978ce8070f19a89c2e5de8ecfce7_icgraph_org.svg" target="_base">
           <rect id="button" ry="5" rx="5" y="6" x="6" height="38" width="38"
                fill="#f2f5e9" fill-opacity="0.5" stroke="#606060" stroke-width="1.0"/>
           <path id="arrow"
             d="M 11.500037,31.436501 C 11.940474,20.09759 22.043105,11.32322 32.158766,21.979434 L 37.068811,17.246167 C 37.068811,17.246167 37.088388,32 37.088388,32 L 22.160133,31.978069 C 22.160133,31.978069 26.997745,27.140456 26.997745,27.140456 C 18.528582,18.264221 13.291696,25.230495 11.500037,31.436501 z"
             style="fill:#404040;"/>
          </a>
         </g>
        </svg>
</svg>
