<?xml version="1.0" encoding="UTF-8" standalone="no"?>
<!DOCTYPE svg PUBLIC "-//W3C//DTD SVG 1.1//EN"
 "http://www.w3.org/Graphics/SVG/1.1/DTD/svg11.dtd">
<!-- Generated by graphviz version 2.26.3 (20100126.1600)
 -->
<!-- Title: logical_shape_edition Pages: 1 -->
<svg width="624pt" height="48pt"
 viewBox="0.00 0.00 624.00 48.00" xmlns="http://www.w3.org/2000/svg" xmlns:xlink="http://www.w3.org/1999/xlink">
<g id="graph1" class="graph" transform="scale(1 1) rotate(0) translate(4 44)">
<title>logical_shape_edition</title>
<polygon fill="white" stroke="white" points="-4,5 -4,-44 621,-44 621,5 -4,5"/>
<!-- Node1 -->
<g id="node1" class="node"><title>Node1</title>
<polygon fill="#bfbfbf" stroke="black" points="0,-8 0,-32 110,-32 110,-8 0,-8"/>
<text text-anchor="middle" x="55" y="-19" font-family="Helvetica,sans-Serif" font-size="10.00">logical_shape_edition</text>
</g>
<!-- Node2 -->
<g id="node3" class="node"><title>Node2</title>
<a xlink:href="plot__core9_8cpp.html#a8959d98409d30cff9689b28771791f70" target="_top" xlink:title="do_logical_Plot_window">
<polygon fill="white" stroke="black" points="146.5,-8 146.5,-32 267.5,-32 267.5,-8 146.5,-8"/>
<text text-anchor="middle" x="207" y="-19" font-family="Helvetica,sans-Serif" font-size="10.00">do_logical_Plot_window</text>
</a>
</g>
<!-- Node1&#45;&gt;Node2 -->
<g id="edge2" class="edge"><title>Node1&#45;&gt;Node2</title>
<path fill="none" stroke="midnightblue" d="M120.33,-20C128.967,-20 137.79,-20 146.344,-20"/>
<polygon fill="midnightblue" stroke="midnightblue" points="120.306,-16.5001 110.305,-20 120.305,-23.5001 120.306,-16.5001"/>
</g>
<!-- Node3 -->
<g id="node5" class="node"><title>Node3</title>
<a xlink:href="procs__visuels__rebuild1_8cpp.html#ae710b6e599e321ad5934a90140067054" target="_top" xlink:title="check_graphics_mouse\l_handling">
<polygon fill="white" stroke="black" points="304.5,-0 304.5,-40 423.5,-40 423.5,-0 304.5,-0"/>
<text text-anchor="start" x="312.5" y="-27" font-family="Helvetica,sans-Serif" font-size="10.00">check_graphics_mouse</text>
<text text-anchor="middle" x="364" y="-11" font-family="Helvetica,sans-Serif" font-size="10.00">_handling</text>
</a>
</g>
<!-- Node2&#45;&gt;Node3 -->
<g id="edge4" class="edge"><title>Node2&#45;&gt;Node3</title>
<path fill="none" stroke="midnightblue" d="M277.718,-20C286.664,-20 295.747,-20 304.495,-20"/>
<polygon fill="midnightblue" stroke="midnightblue" points="277.7,-16.5001 267.7,-20 277.7,-23.5001 277.7,-16.5001"/>
</g>
<!-- Node4 -->
<g id="node7" class="node"><title>Node4</title>
<a xlink:href="_m_a_i_n__avec__objets_8cpp.html#a8e80f54ac804eddce8ed6e45adb1db44" target="_top" xlink:title="ticker_full_loop">
<polygon fill="white" stroke="black" points="460,-8 460,-32 542,-32 542,-8 460,-8"/>
<text text-anchor="middle" x="501" y="-19" font-family="Helvetica,sans-Serif" font-size="10.00">ticker_full_loop</text>
</a>
</g>
<!-- Node3&#45;&gt;Node4 -->
<g id="edge6" class="edge"><title>Node3&#45;&gt;Node4</title>
<path fill="none" stroke="midnightblue" d="M433.967,-20C442.737,-20 451.475,-20 459.605,-20"/>
<polygon fill="midnightblue" stroke="midnightblue" points="433.692,-16.5001 423.692,-20 433.692,-23.5001 433.692,-16.5001"/>
</g>
<!-- Node5 -->
<g id="node9" class="node"><title>Node5</title>
<a xlink:href="_m_a_i_n__avec__objets_8cpp.html#ae66f6b31b5ad750f1fe042a706a4e3d4" target="_top" xlink:title="main">
<polygon fill="white" stroke="black" points="578,-8 578,-32 616,-32 616,-8 578,-8"/>
<text text-anchor="middle" x="597" y="-19" font-family="Helvetica,sans-Serif" font-size="10.00">main</text>
</a>
</g>
<!-- Node4&#45;&gt;Node5 -->
<g id="edge8" class="edge"><title>Node4&#45;&gt;Node5</title>
<path fill="none" stroke="midnightblue" d="M552.509,-20C561.577,-20 570.476,-20 577.904,-20"/>
<polygon fill="midnightblue" stroke="midnightblue" points="552.27,-16.5001 542.27,-20 552.27,-23.5001 552.27,-16.5001"/>
</g>
</g>
</svg>
