<?xml version="1.0" encoding="UTF-8" standalone="no"?>
<!DOCTYPE svg PUBLIC "-//W3C//DTD SVG 1.1//EN"
 "http://www.w3.org/Graphics/SVG/1.1/DTD/svg11.dtd">
<!-- Generated by graphviz version 2.26.3 (20100126.1600)
 -->
<!-- Title: position_down_selected_symbols Pages: 1 -->
<svg width="476pt" height="74pt"
 viewBox="0.00 0.00 476.00 74.00" xmlns="http://www.w3.org/2000/svg" xmlns:xlink="http://www.w3.org/1999/xlink">
<g id="graph1" class="graph" transform="scale(1 1) rotate(0) translate(4 70)">
<title>position_down_selected_symbols</title>
<polygon fill="white" stroke="white" points="-4,5 -4,-70 473,-70 473,5 -4,5"/>
<!-- Node1 -->
<g id="node1" class="node"><title>Node1</title>
<polygon fill="#bfbfbf" stroke="black" points="0.5,-14 0.5,-54 121.5,-54 121.5,-14 0.5,-14"/>
<text text-anchor="start" x="8.5" y="-41" font-family="Helvetica,sans-Serif" font-size="10.00">position_down_selected</text>
<text text-anchor="middle" x="61" y="-25" font-family="Helvetica,sans-Serif" font-size="10.00">_symbols</text>
</g>
<!-- Node2 -->
<g id="node3" class="node"><title>Node2</title>
<a xlink:href="plot__core9_8cpp.html#a81a672760936c3fe4915f269850aa955" target="_top" xlink:title="snapshot_calc">
<polygon fill="white" stroke="black" points="358,-42 358,-66 438,-66 438,-42 358,-42"/>
<text text-anchor="middle" x="398" y="-53" font-family="Helvetica,sans-Serif" font-size="10.00">snapshot_calc</text>
</a>
</g>
<!-- Node1&#45;&gt;Node2 -->
<g id="edge2" class="edge"><title>Node1&#45;&gt;Node2</title>
<path fill="none" stroke="midnightblue" d="M121.638,-37.5987C186.307,-41.4366 287.543,-47.4447 347.872,-51.025"/>
<polygon fill="midnightblue" stroke="midnightblue" points="347.726,-54.5225 357.916,-51.6211 348.141,-47.5348 347.726,-54.5225"/>
</g>
<!-- Node3 -->
<g id="node5" class="node"><title>Node3</title>
<a xlink:href="plot__core9_8cpp.html#afa207c7603f4ee259c528f3d86afb2f6" target="_top" xlink:title="exchange_symbol_position">
<polygon fill="white" stroke="black" points="158,-2 158,-26 292,-26 292,-2 158,-2"/>
<text text-anchor="middle" x="225" y="-13" font-family="Helvetica,sans-Serif" font-size="10.00">exchange_symbol_position</text>
</a>
</g>
<!-- Node1&#45;&gt;Node3 -->
<g id="edge4" class="edge"><title>Node1&#45;&gt;Node3</title>
<path fill="none" stroke="midnightblue" d="M121.602,-26.6096C130.062,-25.5778 138.849,-24.5063 147.566,-23.4431"/>
<polygon fill="midnightblue" stroke="midnightblue" points="148.242,-26.8867 157.745,-22.2018 147.395,-19.9382 148.242,-26.8867"/>
</g>
<!-- Node3&#45;&gt;Node2 -->
<g id="edge8" class="edge"><title>Node3&#45;&gt;Node2</title>
<path fill="none" stroke="midnightblue" d="M276.906,-26.0013C299.432,-31.2098 325.707,-37.2848 348.013,-42.4424"/>
<polygon fill="midnightblue" stroke="midnightblue" points="347.424,-45.8984 357.955,-44.7411 349.001,-39.0783 347.424,-45.8984"/>
</g>
<!-- Node4 -->
<g id="node7" class="node"><title>Node4</title>
<a xlink:href="plot__core9_8cpp.html#a3aa259226da63745d5e779178c8111f2" target="_top" xlink:title="copy_symbol_to_emply_slot">
<polygon fill="white" stroke="black" points="328,-0 328,-24 468,-24 468,-0 328,-0"/>
<text text-anchor="middle" x="398" y="-11" font-family="Helvetica,sans-Serif" font-size="10.00">copy_symbol_to_emply_slot</text>
</a>
</g>
<!-- Node3&#45;&gt;Node4 -->
<g id="edge6" class="edge"><title>Node3&#45;&gt;Node4</title>
<path fill="none" stroke="midnightblue" d="M292.382,-13.221C300.678,-13.1251 309.221,-13.0263 317.685,-12.9285"/>
<polygon fill="midnightblue" stroke="midnightblue" points="317.989,-16.4253 327.948,-12.8099 317.908,-9.42578 317.989,-16.4253"/>
</g>
</g>
</svg>
