<?xml version="1.0" encoding="UTF-8" standalone="no"?>
<!DOCTYPE svg PUBLIC "-//W3C//DTD SVG 1.1//EN"
 "http://www.w3.org/Graphics/SVG/1.1/DTD/svg11.dtd">
<!-- Generated by graphviz version 2.26.3 (20100126.1600)
 -->
<!-- Title: plot_menu_bar Pages: 1 -->
<svg width="512pt" height="32pt"
 viewBox="0.00 0.00 512.00 32.00" xmlns="http://www.w3.org/2000/svg" xmlns:xlink="http://www.w3.org/1999/xlink">
<g id="graph1" class="graph" transform="scale(1 1) rotate(0) translate(4 28)">
<title>plot_menu_bar</title>
<polygon fill="white" stroke="white" points="-4,5 -4,-28 509,-28 509,5 -4,5"/>
<!-- Node1 -->
<g id="node1" class="node"><title>Node1</title>
<polygon fill="#bfbfbf" stroke="black" points="0,-0 0,-24 80,-24 80,-0 0,-0"/>
<text text-anchor="middle" x="40" y="-11" font-family="Helvetica,sans-Serif" font-size="10.00">plot_menu_bar</text>
</g>
<!-- Node2 -->
<g id="node3" class="node"><title>Node2</title>
<a xlink:href="plot_8cpp.html#a3d45bfc1bc76a3d67ad1a8bb3d63163d" target="_top" xlink:title="Plot_window">
<polygon fill="white" stroke="black" points="116,-0 116,-24 188,-24 188,-0 116,-0"/>
<text text-anchor="middle" x="152" y="-11" font-family="Helvetica,sans-Serif" font-size="10.00">Plot_window</text>
</a>
</g>
<!-- Node1&#45;&gt;Node2 -->
<g id="edge2" class="edge"><title>Node1&#45;&gt;Node2</title>
<path fill="none" stroke="midnightblue" d="M90.1566,-12C98.8247,-12 107.682,-12 115.884,-12"/>
<polygon fill="midnightblue" stroke="midnightblue" points="90.1183,-8.5001 80.1182,-12 90.1182,-15.5001 90.1183,-8.5001"/>
</g>
<!-- Node3 -->
<g id="node5" class="node"><title>Node3</title>
<a xlink:href="graphics__rebuild1_8cpp.html#ac2eae1e03fb72cc734ffbcef566483bf" target="_top" xlink:title="Boxes">
<polygon fill="white" stroke="black" points="224,-0 224,-24 268,-24 268,-0 224,-0"/>
<text text-anchor="middle" x="246" y="-11" font-family="Helvetica,sans-Serif" font-size="10.00">Boxes</text>
</a>
</g>
<!-- Node2&#45;&gt;Node3 -->
<g id="edge4" class="edge"><title>Node2&#45;&gt;Node3</title>
<path fill="none" stroke="midnightblue" d="M198.084,-12C207.028,-12 216.017,-12 223.753,-12"/>
<polygon fill="midnightblue" stroke="midnightblue" points="198.074,-8.5001 188.074,-12 198.074,-15.5001 198.074,-8.5001"/>
</g>
<!-- Node4 -->
<g id="node7" class="node"><title>Node4</title>
<a xlink:href="_m_a_i_n__avec__objets_8cpp.html#ade8d4ba65d55c94f8ee277829d722155" target="_top" xlink:title="main_actions_on_screen">
<polygon fill="white" stroke="black" points="304.5,-0 304.5,-24 429.5,-24 429.5,-0 304.5,-0"/>
<text text-anchor="middle" x="367" y="-11" font-family="Helvetica,sans-Serif" font-size="10.00">main_actions_on_screen</text>
</a>
</g>
<!-- Node3&#45;&gt;Node4 -->
<g id="edge6" class="edge"><title>Node3&#45;&gt;Node4</title>
<path fill="none" stroke="midnightblue" d="M278.244,-12C286.32,-12 295.263,-12 304.271,-12"/>
<polygon fill="midnightblue" stroke="midnightblue" points="278.193,-8.5001 268.193,-12 278.193,-15.5001 278.193,-8.5001"/>
</g>
<!-- Node5 -->
<g id="node9" class="node"><title>Node5</title>
<a xlink:href="_m_a_i_n__avec__objets_8cpp.html#ae66f6b31b5ad750f1fe042a706a4e3d4" target="_top" xlink:title="main">
<polygon fill="white" stroke="black" points="466,-0 466,-24 504,-24 504,-0 466,-0"/>
<text text-anchor="middle" x="485" y="-11" font-family="Helvetica,sans-Serif" font-size="10.00">main</text>
</a>
</g>
<!-- Node4&#45;&gt;Node5 -->
<g id="edge8" class="edge"><title>Node4&#45;&gt;Node5</title>
<path fill="none" stroke="midnightblue" d="M439.837,-12C449.336,-12 458.327,-12 465.749,-12"/>
<polygon fill="midnightblue" stroke="midnightblue" points="439.8,-8.5001 429.8,-12 439.8,-15.5001 439.8,-8.5001"/>
</g>
</g>
</svg>
