<?xml version="1.0" encoding="UTF-8" standalone="no"?>
<!DOCTYPE svg PUBLIC "-//W3C//DTD SVG 1.1//EN"
 "http://www.w3.org/Graphics/SVG/1.1/DTD/svg11.dtd">
<!-- Generated by graphviz version 2.26.3 (20100126.1600)
 -->
<!-- Title: wc_askConfirmWindowIsOpen Pages: 1 -->
<svg width="342pt" height="32pt"
 viewBox="0.00 0.00 342.00 32.00" xmlns="http://www.w3.org/2000/svg" xmlns:xlink="http://www.w3.org/1999/xlink">
<g id="graph1" class="graph" transform="scale(1 1) rotate(0) translate(4 28)">
<title>wc_askConfirmWindowIsOpen</title>
<polygon fill="white" stroke="white" points="-4,5 -4,-28 339,-28 339,5 -4,5"/>
<!-- Node1 -->
<g id="node1" class="node"><title>Node1</title>
<polygon fill="#bfbfbf" stroke="black" points="0,-0 0,-24 152,-24 152,-0 0,-0"/>
<text text-anchor="middle" x="76" y="-11" font-family="Helvetica,sans-Serif" font-size="10.00">wc_askConfirmWindowIsOpen</text>
</g>
<!-- Node2 -->
<g id="node3" class="node"><title>Node2</title>
<a xlink:href="_m_a_i_n__avec__objets_8cpp.html#a9c70719f0a352d777b5166c1e1872f13" target="_top" xlink:title="my_callback">
<polygon fill="white" stroke="black" points="188.5,-0 188.5,-24 259.5,-24 259.5,-0 188.5,-0"/>
<text text-anchor="middle" x="224" y="-11" font-family="Helvetica,sans-Serif" font-size="10.00">my_callback</text>
</a>
</g>
<!-- Node1&#45;&gt;Node2 -->
<g id="edge2" class="edge"><title>Node1&#45;&gt;Node2</title>
<path fill="none" stroke="midnightblue" d="M162.169,-12C171.319,-12 180.213,-12 188.272,-12"/>
<polygon fill="midnightblue" stroke="midnightblue" points="162.168,-8.5001 152.168,-12 162.168,-15.5001 162.168,-8.5001"/>
</g>
<!-- Node3 -->
<g id="node5" class="node"><title>Node3</title>
<a xlink:href="_m_a_i_n__avec__objets_8cpp.html#ae66f6b31b5ad750f1fe042a706a4e3d4" target="_top" xlink:title="main">
<polygon fill="white" stroke="black" points="296,-0 296,-24 334,-24 334,-0 296,-0"/>
<text text-anchor="middle" x="315" y="-11" font-family="Helvetica,sans-Serif" font-size="10.00">main</text>
</a>
</g>
<!-- Node2&#45;&gt;Node3 -->
<g id="edge4" class="edge"><title>Node2&#45;&gt;Node3</title>
<path fill="none" stroke="midnightblue" d="M269.982,-12C279.145,-12 288.282,-12 295.906,-12"/>
<polygon fill="midnightblue" stroke="midnightblue" points="269.704,-8.5001 259.704,-12 269.704,-15.5001 269.704,-8.5001"/>
</g>
</g>
</svg>
