<?xml version="1.0" encoding="UTF-8" standalone="no"?>
<!DOCTYPE svg PUBLIC "-//W3C//DTD SVG 1.1//EN"
 "http://www.w3.org/Graphics/SVG/1.1/DTD/svg11.dtd">
<!-- Generated by graphviz version 2.26.3 (20100126.1600)
 -->
<!-- Title: load_indexes Pages: 1 -->
<svg width="240pt" height="90pt"
 viewBox="0.00 0.00 240.00 90.00" xmlns="http://www.w3.org/2000/svg" xmlns:xlink="http://www.w3.org/1999/xlink">
<g id="graph1" class="graph" transform="scale(1 1) rotate(0) translate(4 86)">
<title>load_indexes</title>
<polygon fill="white" stroke="white" points="-4,5 -4,-86 237,-86 237,5 -4,5"/>
<!-- Node1 -->
<g id="node1" class="node"><title>Node1</title>
<polygon fill="#bfbfbf" stroke="black" points="0,-33 0,-57 74,-57 74,-33 0,-33"/>
<text text-anchor="middle" x="37" y="-44" font-family="Helvetica,sans-Serif" font-size="10.00">load_indexes</text>
</g>
<!-- Node2 -->
<g id="node3" class="node"><title>Node2</title>
<a xlink:href="_c_o_r_e__6_8cpp.html#a59952bb26d771ba2c70eff1580c0bac2" target="_top" xlink:title="process_assign_to_core">
<polygon fill="white" stroke="black" points="110,-58 110,-82 232,-82 232,-58 110,-58"/>
<text text-anchor="middle" x="171" y="-69" font-family="Helvetica,sans-Serif" font-size="10.00">process_assign_to_core</text>
</a>
</g>
<!-- Node1&#45;&gt;Node2 -->
<g id="edge2" class="edge"><title>Node1&#45;&gt;Node2</title>
<path fill="none" stroke="midnightblue" d="M74.3265,-51.9639C82.3724,-53.465 91.1338,-55.0996 99.989,-56.7517"/>
<polygon fill="midnightblue" stroke="midnightblue" points="99.5212,-60.2247 109.993,-58.6182 100.805,-53.3434 99.5212,-60.2247"/>
</g>
<!-- Node3 -->
<g id="node5" class="node"><title>Node3</title>
<a xlink:href="chasers__core__5_8cpp.html#accade0c1dd479872b2a7af6a904e0da6" target="_top" xlink:title="set_refresh_mode_for\l_chaser">
<polygon fill="white" stroke="black" points="115.5,-0 115.5,-40 226.5,-40 226.5,-0 115.5,-0"/>
<text text-anchor="start" x="123.5" y="-27" font-family="Helvetica,sans-Serif" font-size="10.00">set_refresh_mode_for</text>
<text text-anchor="middle" x="171" y="-11" font-family="Helvetica,sans-Serif" font-size="10.00">_chaser</text>
</a>
</g>
<!-- Node1&#45;&gt;Node3 -->
<g id="edge4" class="edge"><title>Node1&#45;&gt;Node3</title>
<path fill="none" stroke="midnightblue" d="M74.3265,-38.0361C83.9509,-36.2405 94.599,-34.2539 105.207,-32.2749"/>
<polygon fill="midnightblue" stroke="midnightblue" points="106.142,-35.6609 115.33,-30.3862 104.858,-28.7797 106.142,-35.6609"/>
</g>
</g>
</svg>
