<?xml version="1.0" encoding="UTF-8" standalone="no"?>
<!DOCTYPE svg PUBLIC "-//W3C//DTD SVG 1.1//EN"
 "http://www.w3.org/Graphics/SVG/1.1/DTD/svg11.dtd">
<!-- Generated by graphviz version 2.26.3 (20100126.1600)
 -->
<!-- Title: save_the_show Pages: 1 -->
<svg width="600pt" height="510pt"
 viewBox="0.00 0.00 600.00 510.00" xmlns="http://www.w3.org/2000/svg" xmlns:xlink="http://www.w3.org/1999/xlink">
<g id="graph1" class="graph" transform="scale(1 1) rotate(0) translate(4 506)">
<title>save_the_show</title>
<polygon fill="white" stroke="white" points="-4,5 -4,-506 597,-506 597,5 -4,5"/>
<!-- Node1 -->
<g id="node1" class="node"><title>Node1</title>
<polygon fill="#bfbfbf" stroke="black" points="0.5,-252 0.5,-276 85.5,-276 85.5,-252 0.5,-252"/>
<text text-anchor="middle" x="43" y="-263" font-family="Helvetica,sans-Serif" font-size="10.00">save_the_show</text>
</g>
<!-- Node2 -->
<g id="node3" class="node"><title>Node2</title>
<a xlink:href="save__show__13_8cpp.html#ada1116462104df2f0db8774b30c326b1" target="_top" xlink:title="Save_Show">
<polygon fill="white" stroke="black" points="151.5,-252 151.5,-276 220.5,-276 220.5,-252 151.5,-252"/>
<text text-anchor="middle" x="186" y="-263" font-family="Helvetica,sans-Serif" font-size="10.00">Save_Show</text>
</a>
</g>
<!-- Node1&#45;&gt;Node2 -->
<g id="edge2" class="edge"><title>Node1&#45;&gt;Node2</title>
<path fill="none" stroke="midnightblue" d="M85.5175,-264C102.998,-264 123.261,-264 140.993,-264"/>
<polygon fill="midnightblue" stroke="midnightblue" points="141.1,-267.5 151.1,-264 141.1,-260.5 141.1,-267.5"/>
</g>
<!-- Node3 -->
<g id="node5" class="node"><title>Node3</title>
<a xlink:href="_c_o_r_e__6_8cpp.html#a7ffa1025184678936494e68a31f35042" target="_top" xlink:title="save_load_print_to\l_screen">
<polygon fill="white" stroke="black" points="308,-462 308,-502 406,-502 406,-462 308,-462"/>
<text text-anchor="start" x="316" y="-489" font-family="Helvetica,sans-Serif" font-size="10.00">save_load_print_to</text>
<text text-anchor="middle" x="357" y="-473" font-family="Helvetica,sans-Serif" font-size="10.00">_screen</text>
</a>
</g>
<!-- Node1&#45;&gt;Node3 -->
<g id="edge32" class="edge"><title>Node1&#45;&gt;Node3</title>
<path fill="none" stroke="midnightblue" d="M55.7743,-276.034C90.4604,-308.222 190.234,-397.606 286,-453 289.931,-455.274 294.076,-457.457 298.306,-459.532"/>
<polygon fill="midnightblue" stroke="midnightblue" points="297.114,-462.839 307.656,-463.899 300.076,-456.496 297.114,-462.839"/>
</g>
<!-- Node17 -->
<g id="node34" class="node"><title>Node17</title>
<a xlink:href="_c_o_r_e__6_8cpp.html#aeb5185db4ec05f1a5b81fd5e86801b68" target="_top" xlink:title="write_show_coming_from">
<polygon fill="white" stroke="black" points="122,-210 122,-234 250,-234 250,-210 122,-210"/>
<text text-anchor="middle" x="186" y="-221" font-family="Helvetica,sans-Serif" font-size="10.00">write_show_coming_from</text>
</a>
</g>
<!-- Node1&#45;&gt;Node17 -->
<g id="edge34" class="edge"><title>Node1&#45;&gt;Node17</title>
<path fill="none" stroke="midnightblue" d="M83.9781,-251.964C99.9841,-247.263 118.502,-241.825 135.333,-236.881"/>
<polygon fill="midnightblue" stroke="midnightblue" points="136.408,-240.214 145.016,-234.037 134.435,-233.497 136.408,-240.214"/>
</g>
<!-- Node2&#45;&gt;Node3 -->
<g id="edge4" class="edge"><title>Node2&#45;&gt;Node3</title>
<path fill="none" stroke="midnightblue" d="M193.139,-276.301C205.208,-297.211 230.258,-341.107 250,-379 266.899,-411.436 259.311,-427.992 286,-453 289.848,-456.606 294.206,-459.791 298.822,-462.597"/>
<polygon fill="midnightblue" stroke="midnightblue" points="297.494,-465.858 307.954,-467.542 300.827,-459.703 297.494,-465.858"/>
</g>
<!-- Node5 -->
<g id="node9" class="node"><title>Node5</title>
<a xlink:href="_c_o_r_e__6_8cpp.html#a75676000bd6539f15b0e057e4d2bd1fc" target="_top" xlink:title="clear_report_string">
<polygon fill="white" stroke="black" points="308.5,-420 308.5,-444 405.5,-444 405.5,-420 308.5,-420"/>
<text text-anchor="middle" x="357" y="-431" font-family="Helvetica,sans-Serif" font-size="10.00">clear_report_string</text>
</a>
</g>
<!-- Node2&#45;&gt;Node5 -->
<g id="edge8" class="edge"><title>Node2&#45;&gt;Node5</title>
<path fill="none" stroke="midnightblue" d="M190.925,-276.375C202.82,-304.662 235.888,-374.424 286,-411 289.945,-413.88 294.284,-416.367 298.812,-418.516"/>
<polygon fill="midnightblue" stroke="midnightblue" points="297.73,-421.856 308.307,-422.466 300.419,-415.393 297.73,-421.856"/>
</g>
<!-- Node7 -->
<g id="node13" class="node"><title>Node7</title>
<a xlink:href="save__show__13_8cpp.html#a11f455280c0aa0494bee9c8684badc61" target="_top" xlink:title="Save_Sequenciel_Conf">
<polygon fill="white" stroke="black" points="297.5,-378 297.5,-402 416.5,-402 416.5,-378 297.5,-378"/>
<text text-anchor="middle" x="357" y="-389" font-family="Helvetica,sans-Serif" font-size="10.00">Save_Sequenciel_Conf</text>
</a>
</g>
<!-- Node2&#45;&gt;Node7 -->
<g id="edge12" class="edge"><title>Node2&#45;&gt;Node7</title>
<path fill="none" stroke="midnightblue" d="M194.132,-276.02C209.502,-297.816 244.976,-343.923 286,-369 288.941,-370.798 292.044,-372.449 295.244,-373.965"/>
<polygon fill="midnightblue" stroke="midnightblue" points="293.891,-377.193 304.463,-377.889 296.632,-370.752 293.891,-377.193"/>
</g>
<!-- Node8 -->
<g id="node15" class="node"><title>Node8</title>
<a xlink:href="save__show__13_8cpp.html#a250630debd391dc83e0ec6ff480fabc9" target="_top" xlink:title="Save_Arduino_Config">
<polygon fill="white" stroke="black" points="301.5,-336 301.5,-360 412.5,-360 412.5,-336 301.5,-336"/>
<text text-anchor="middle" x="357" y="-347" font-family="Helvetica,sans-Serif" font-size="10.00">Save_Arduino_Config</text>
</a>
</g>
<!-- Node2&#45;&gt;Node8 -->
<g id="edge14" class="edge"><title>Node2&#45;&gt;Node8</title>
<path fill="none" stroke="midnightblue" d="M202.192,-276.178C221.341,-290.099 254.593,-312.79 286,-327 290.381,-328.982 294.997,-330.833 299.687,-332.549"/>
<polygon fill="midnightblue" stroke="midnightblue" points="298.769,-335.935 309.364,-335.881 301.048,-329.316 298.769,-335.935"/>
</g>
<!-- Node9 -->
<g id="node17" class="node"><title>Node9</title>
<a xlink:href="save__show__13_8cpp.html#a39f58e822efaceb4eaa6a72e9865bfb4" target="_top" xlink:title="Save_Audio_Conf">
<polygon fill="white" stroke="black" points="309.5,-294 309.5,-318 404.5,-318 404.5,-294 309.5,-294"/>
<text text-anchor="middle" x="357" y="-305" font-family="Helvetica,sans-Serif" font-size="10.00">Save_Audio_Conf</text>
</a>
</g>
<!-- Node2&#45;&gt;Node9 -->
<g id="edge16" class="edge"><title>Node2&#45;&gt;Node9</title>
<path fill="none" stroke="midnightblue" d="M220.604,-272.499C243.277,-278.068 273.456,-285.481 299.662,-291.917"/>
<polygon fill="midnightblue" stroke="midnightblue" points="298.941,-295.344 309.488,-294.33 300.611,-288.546 298.941,-295.344"/>
</g>
<!-- Node10 -->
<g id="node19" class="node"><title>Node10</title>
<a xlink:href="save__show__13_8cpp.html#acb4f4092ab0e654debe123f7135fdb21" target="_top" xlink:title="Save_Window_Conf">
<polygon fill="white" stroke="black" points="304,-252 304,-276 410,-276 410,-252 304,-252"/>
<text text-anchor="middle" x="357" y="-263" font-family="Helvetica,sans-Serif" font-size="10.00">Save_Window_Conf</text>
</a>
</g>
<!-- Node2&#45;&gt;Node10 -->
<g id="edge18" class="edge"><title>Node2&#45;&gt;Node10</title>
<path fill="none" stroke="midnightblue" d="M220.604,-264C241.619,-264 269.083,-264 293.854,-264"/>
<polygon fill="midnightblue" stroke="midnightblue" points="293.916,-267.5 303.916,-264 293.916,-260.5 293.916,-267.5"/>
</g>
<!-- Node11 -->
<g id="node21" class="node"><title>Node11</title>
<a xlink:href="save__show__13_8cpp.html#a70b1e28043c498662659fdf0d22c83b3" target="_top" xlink:title="write_indexes">
<polygon fill="white" stroke="black" points="318.5,-210 318.5,-234 395.5,-234 395.5,-210 318.5,-210"/>
<text text-anchor="middle" x="357" y="-221" font-family="Helvetica,sans-Serif" font-size="10.00">write_indexes</text>
</a>
</g>
<!-- Node2&#45;&gt;Node11 -->
<g id="edge20" class="edge"><title>Node2&#45;&gt;Node11</title>
<path fill="none" stroke="midnightblue" d="M220.604,-255.501C245.81,-249.31 280.295,-240.84 308.283,-233.966"/>
<polygon fill="midnightblue" stroke="midnightblue" points="309.394,-237.297 318.271,-231.512 307.725,-230.499 309.394,-237.297"/>
</g>
<!-- Node12 -->
<g id="node23" class="node"><title>Node12</title>
<a xlink:href="save__show__13_8cpp.html#a00e27562293d34f24449f402f95741fc" target="_top" xlink:title="Save_Plot_Plan_config">
<polygon fill="white" stroke="black" points="298,-168 298,-192 416,-192 416,-168 298,-168"/>
<text text-anchor="middle" x="357" y="-179" font-family="Helvetica,sans-Serif" font-size="10.00">Save_Plot_Plan_config</text>
</a>
</g>
<!-- Node2&#45;&gt;Node12 -->
<g id="edge22" class="edge"><title>Node2&#45;&gt;Node12</title>
<path fill="none" stroke="midnightblue" d="M220.797,-256.343C230.745,-253.185 241.252,-248.852 250,-243 270.434,-229.33 265.366,-214.368 286,-201 288.613,-199.307 291.367,-197.747 294.211,-196.309"/>
<polygon fill="midnightblue" stroke="midnightblue" points="295.855,-199.408 303.546,-192.121 292.989,-193.021 295.855,-199.408"/>
</g>
<!-- Node13 -->
<g id="node25" class="node"><title>Node13</title>
<a xlink:href="save__show__13_8cpp.html#af3e9540aab42a003a838dc912f0ef5da" target="_top" xlink:title="save_draw_preset_config">
<polygon fill="white" stroke="black" points="293,-126 293,-150 421,-150 421,-126 293,-126"/>
<text text-anchor="middle" x="357" y="-137" font-family="Helvetica,sans-Serif" font-size="10.00">save_draw_preset_config</text>
</a>
</g>
<!-- Node2&#45;&gt;Node13 -->
<g id="edge24" class="edge"><title>Node2&#45;&gt;Node13</title>
<path fill="none" stroke="midnightblue" d="M220.711,-258.334C231.111,-255.227 241.893,-250.424 250,-243 279.954,-215.568 255.645,-185.988 286,-159 287.354,-157.796 288.774,-156.661 290.249,-155.592"/>
<polygon fill="midnightblue" stroke="midnightblue" points="292.484,-158.329 299.214,-150.147 288.85,-152.346 292.484,-158.329"/>
</g>
<!-- Node14 -->
<g id="node27" class="node"><title>Node14</title>
<a xlink:href="save__show__13_8cpp.html#ae3bc4f57d62f67c59d8e2fe4071a54c5" target="_top" xlink:title="Save_Launchpad_RetroLight">
<polygon fill="white" stroke="black" points="286,-84 286,-108 428,-108 428,-84 286,-84"/>
<text text-anchor="middle" x="357" y="-95" font-family="Helvetica,sans-Serif" font-size="10.00">Save_Launchpad_RetroLight</text>
</a>
</g>
<!-- Node2&#45;&gt;Node14 -->
<g id="edge26" class="edge"><title>Node2&#45;&gt;Node14</title>
<path fill="none" stroke="midnightblue" d="M220.63,-259.126C231.271,-256.066 242.217,-251.09 250,-243 290.377,-201.027 245.009,-158.373 286,-117 287.103,-115.887 288.261,-114.833 289.468,-113.833"/>
<polygon fill="midnightblue" stroke="midnightblue" points="291.739,-116.522 298.047,-108.01 287.807,-110.73 291.739,-116.522"/>
</g>
<!-- Node15 -->
<g id="node29" class="node"><title>Node15</title>
<a xlink:href="save__show__13_8cpp.html#a38949ce22e8f0f9c37b20e2a7327ae08" target="_top" xlink:title="Save_audiofiles_cues">
<polygon fill="white" stroke="black" points="301,-42 301,-66 413,-66 413,-42 301,-42"/>
<text text-anchor="middle" x="357" y="-53" font-family="Helvetica,sans-Serif" font-size="10.00">Save_audiofiles_cues</text>
</a>
</g>
<!-- Node2&#45;&gt;Node15 -->
<g id="edge28" class="edge"><title>Node2&#45;&gt;Node15</title>
<path fill="none" stroke="midnightblue" d="M220.62,-259.521C231.39,-256.492 242.415,-251.434 250,-243 301.061,-186.22 234.108,-131.021 286,-75 287.834,-73.0197 289.846,-71.2229 291.992,-69.5929"/>
<polygon fill="midnightblue" stroke="midnightblue" points="294.201,-72.3415 300.856,-64.0974 290.513,-66.3921 294.201,-72.3415"/>
</g>
<!-- Node16 -->
<g id="node31" class="node"><title>Node16</title>
<a xlink:href="_c_o_r_e__6_8cpp.html#a6f4f1f9ffb007d053e1d4560750a5b69" target="_top" xlink:title="detect_error_on_save_load">
<polygon fill="white" stroke="black" points="290,-0 290,-24 424,-24 424,-0 290,-0"/>
<text text-anchor="middle" x="357" y="-11" font-family="Helvetica,sans-Serif" font-size="10.00">detect_error_on_save_load</text>
</a>
</g>
<!-- Node2&#45;&gt;Node16 -->
<g id="edge30" class="edge"><title>Node2&#45;&gt;Node16</title>
<path fill="none" stroke="midnightblue" d="M220.824,-259.7C231.608,-256.684 242.591,-251.589 250,-243 311.852,-171.296 223.098,-103.785 286,-33 286.889,-32.0001 287.822,-31.0468 288.796,-30.1379"/>
<polygon fill="midnightblue" stroke="midnightblue" points="291.065,-32.8109 296.957,-24.0054 286.86,-27.2147 291.065,-32.8109"/>
</g>
<!-- Node4 -->
<g id="node7" class="node"><title>Node4</title>
<a xlink:href="_c_o_r_e__6_8cpp.html#af166a225e96cceccb765c0be242c6138" target="_top" xlink:title="show_title">
<polygon fill="white" stroke="black" points="497.5,-470 497.5,-494 558.5,-494 558.5,-470 497.5,-470"/>
<text text-anchor="middle" x="528" y="-481" font-family="Helvetica,sans-Serif" font-size="10.00">show_title</text>
</a>
</g>
<!-- Node3&#45;&gt;Node4 -->
<g id="edge6" class="edge"><title>Node3&#45;&gt;Node4</title>
<path fill="none" stroke="midnightblue" d="M406.002,-482C431.736,-482 462.9,-482 487.289,-482"/>
<polygon fill="midnightblue" stroke="midnightblue" points="487.291,-485.5 497.291,-482 487.291,-478.5 487.291,-485.5"/>
</g>
<!-- Node6 -->
<g id="node11" class="node"><title>Node6</title>
<a xlink:href="_c_o_r_e__6_8cpp.html#ae39581ed29a3e6b280e3e6ca1adc0a07" target="_top" xlink:title="reset_error_on_save_load">
<polygon fill="white" stroke="black" points="464,-420 464,-444 592,-444 592,-420 464,-420"/>
<text text-anchor="middle" x="528" y="-431" font-family="Helvetica,sans-Serif" font-size="10.00">reset_error_on_save_load</text>
</a>
</g>
<!-- Node5&#45;&gt;Node6 -->
<g id="edge10" class="edge"><title>Node5&#45;&gt;Node6</title>
<path fill="none" stroke="midnightblue" d="M405.544,-432C420.59,-432 437.526,-432 453.895,-432"/>
<polygon fill="midnightblue" stroke="midnightblue" points="453.992,-435.5 463.992,-432 453.991,-428.5 453.992,-435.5"/>
</g>
</g>
</svg>
