<?xml version="1.0" encoding="UTF-8" standalone="no"?>
<!DOCTYPE svg PUBLIC "-//W3C//DTD SVG 1.1//EN"
 "http://www.w3.org/Graphics/SVG/1.1/DTD/svg11.dtd">
<!-- Generated by graphviz version 2.26.3 (20100126.1600)
 -->
<!-- Title: pdf_draw_infos_of_step Pages: 1 -->
<svg width="278pt" height="74pt"
 viewBox="0.00 0.00 278.00 74.00" xmlns="http://www.w3.org/2000/svg" xmlns:xlink="http://www.w3.org/1999/xlink">
<g id="graph1" class="graph" transform="scale(1 1) rotate(0) translate(4 70)">
<title>pdf_draw_infos_of_step</title>
<polygon fill="white" stroke="white" points="-4,5 -4,-70 275,-70 275,5 -4,5"/>
<!-- Node1 -->
<g id="node1" class="node"><title>Node1</title>
<polygon fill="#bfbfbf" stroke="black" points="0,-21 0,-45 120,-45 120,-21 0,-21"/>
<text text-anchor="middle" x="60" y="-32" font-family="Helvetica,sans-Serif" font-size="10.00">pdf_draw_infos_of_step</text>
</g>
<!-- Node2 -->
<g id="node3" class="node"><title>Node2</title>
<a xlink:href="grider__calculs8_8cpp.html#aa649acadfb5dcef5c313de19ddcb2290" target="_top" xlink:title="affichage_time_format">
<polygon fill="white" stroke="black" points="156.5,-42 156.5,-66 269.5,-66 269.5,-42 156.5,-42"/>
<text text-anchor="middle" x="213" y="-53" font-family="Helvetica,sans-Serif" font-size="10.00">affichage_time_format</text>
</a>
</g>
<!-- Node1&#45;&gt;Node2 -->
<g id="edge2" class="edge"><title>Node1&#45;&gt;Node2</title>
<path fill="none" stroke="midnightblue" d="M120.031,-41.2395C128.575,-42.4123 137.407,-43.6245 146.073,-44.814"/>
<polygon fill="midnightblue" stroke="midnightblue" points="145.759,-48.3036 156.142,-46.196 146.711,-41.3686 145.759,-48.3036"/>
</g>
<!-- Node3 -->
<g id="node5" class="node"><title>Node3</title>
<a xlink:href="saves__export__pdf2_8cpp.html#a1a1844495417accb24171750e5061c93" target="_top" xlink:title="draw_info">
<polygon fill="white" stroke="black" points="183.5,-0 183.5,-24 242.5,-24 242.5,-0 183.5,-0"/>
<text text-anchor="middle" x="213" y="-11" font-family="Helvetica,sans-Serif" font-size="10.00">draw_info</text>
</a>
</g>
<!-- Node1&#45;&gt;Node3 -->
<g id="edge4" class="edge"><title>Node1&#45;&gt;Node3</title>
<path fill="none" stroke="midnightblue" d="M120.031,-24.7605C137.886,-22.3098 156.998,-19.6865 173.222,-17.4598"/>
<polygon fill="midnightblue" stroke="midnightblue" points="173.992,-20.8869 183.424,-16.0595 173.04,-13.9519 173.992,-20.8869"/>
</g>
</g>
</svg>
