<?xml version="1.0" encoding="UTF-8" standalone="no"?>
<!DOCTYPE svg PUBLIC "-//W3C//DTD SVG 1.1//EN"
 "http://www.w3.org/Graphics/SVG/1.1/DTD/svg11.dtd">
<!-- Generated by graphviz version 2.26.3 (20100126.1600)
 -->
<!-- Title: Load_Window_Conf Pages: 1 -->
<svg width="1044pt" height="103pt"
 viewBox="0.00 0.00 1044.00 102.61" xmlns="http://www.w3.org/2000/svg" xmlns:xlink="http://www.w3.org/1999/xlink">
<g id="graph1" class="graph" transform="scale(1 1) rotate(0) translate(4 98.6141)">
<title>Load_Window_Conf</title>
<polygon fill="white" stroke="white" points="-4,5 -4,-98.6141 1041,-98.6141 1041,5 -4,5"/>
<!-- Node1 -->
<g id="node1" class="node"><title>Node1</title>
<polygon fill="#bfbfbf" stroke="black" points="0,-42 0,-66 104,-66 104,-42 0,-42"/>
<text text-anchor="middle" x="52" y="-53" font-family="Helvetica,sans-Serif" font-size="10.00">Load_Window_Conf</text>
</g>
<!-- Node2 -->
<g id="node3" class="node"><title>Node2</title>
<a xlink:href="save__show__13_8cpp.html#a8330f725aa2c729bdce098aa4b187589" target="_top" xlink:title="Load_Show">
<polygon fill="white" stroke="black" points="140,-42 140,-66 208,-66 208,-42 140,-42"/>
<text text-anchor="middle" x="174" y="-53" font-family="Helvetica,sans-Serif" font-size="10.00">Load_Show</text>
</a>
</g>
<!-- Node1&#45;&gt;Node2 -->
<g id="edge2" class="edge"><title>Node1&#45;&gt;Node2</title>
<path fill="none" stroke="midnightblue" d="M114.326,-54C123.066,-54 131.769,-54 139.718,-54"/>
<polygon fill="midnightblue" stroke="midnightblue" points="114.093,-50.5001 104.093,-54 114.093,-57.5001 114.093,-50.5001"/>
</g>
<!-- Node3 -->
<g id="node5" class="node"><title>Node3</title>
<a xlink:href="_m_a_i_n__avec__objets_8cpp.html#ae66f6b31b5ad750f1fe042a706a4e3d4" target="_top" xlink:title="main">
<polygon fill="white" stroke="black" points="998,-42 998,-66 1036,-66 1036,-42 998,-42"/>
<text text-anchor="middle" x="1017" y="-53" font-family="Helvetica,sans-Serif" font-size="10.00">main</text>
</a>
</g>
<!-- Node2&#45;&gt;Node3 -->
<g id="edge4" class="edge"><title>Node2&#45;&gt;Node3</title>
<path fill="none" stroke="midnightblue" d="M217.983,-68.7321C226.534,-71.1577 235.486,-73.3988 244,-75 347.415,-94.449 374.772,-94 480,-94 480,-94 480,-94 748,-94 843.485,-94 868.957,-96.4563 962,-75 974.25,-72.175 987.426,-67.2168 997.809,-62.8274"/>
<polygon fill="midnightblue" stroke="midnightblue" points="218.762,-65.3126 208.179,-65.8271 216.773,-72.0241 218.762,-65.3126"/>
</g>
<!-- Node4 -->
<g id="node7" class="node"><title>Node4</title>
<a xlink:href="save__show__13_8cpp.html#a1eafc1ecb75f36c1fe85c967bdea99b0" target="_top" xlink:title="load_the_show">
<polygon fill="white" stroke="black" points="273,-42 273,-66 355,-66 355,-42 273,-42"/>
<text text-anchor="middle" x="314" y="-53" font-family="Helvetica,sans-Serif" font-size="10.00">load_the_show</text>
</a>
</g>
<!-- Node2&#45;&gt;Node4 -->
<g id="edge6" class="edge"><title>Node2&#45;&gt;Node4</title>
<path fill="none" stroke="midnightblue" d="M218.71,-54C236.085,-54 255.862,-54 272.879,-54"/>
<polygon fill="midnightblue" stroke="midnightblue" points="218.248,-50.5001 208.248,-54 218.248,-57.5001 218.248,-50.5001"/>
</g>
<!-- Node12 -->
<g id="node25" class="node"><title>Node12</title>
<a xlink:href="save__show__13_8cpp.html#a2c8ff847dfaf2dc6c8765b2bee26edfc" target="_top" xlink:title="do_wizard_reload_from_disk">
<polygon fill="white" stroke="black" points="244,-0 244,-24 384,-24 384,-0 244,-0"/>
<text text-anchor="middle" x="314" y="-11" font-family="Helvetica,sans-Serif" font-size="10.00">do_wizard_reload_from_disk</text>
</a>
</g>
<!-- Node2&#45;&gt;Node12 -->
<g id="edge26" class="edge"><title>Node2&#45;&gt;Node12</title>
<path fill="none" stroke="midnightblue" d="M217.891,-40.8326C235.809,-35.4573 256.39,-29.283 273.898,-24.0305"/>
<polygon fill="midnightblue" stroke="midnightblue" points="216.82,-37.4997 208.248,-43.7256 218.832,-44.2045 216.82,-37.4997"/>
</g>
<!-- Node5 -->
<g id="node9" class="node"><title>Node5</title>
<a xlink:href="logicals__intres_8cpp.html#a74cf9c04c734ab342f88799efbfc4210" target="_top" xlink:title="operations_confirmation">
<polygon fill="white" stroke="black" points="420,-21 420,-45 540,-45 540,-21 420,-21"/>
<text text-anchor="middle" x="480" y="-32" font-family="Helvetica,sans-Serif" font-size="10.00">operations_confirmation</text>
</a>
</g>
<!-- Node4&#45;&gt;Node5 -->
<g id="edge8" class="edge"><title>Node4&#45;&gt;Node5</title>
<path fill="none" stroke="midnightblue" d="M365.422,-47.4948C382.599,-45.3218 401.896,-42.8806 419.687,-40.63"/>
<polygon fill="midnightblue" stroke="midnightblue" points="364.515,-44.0815 355.034,-48.809 365.394,-51.0262 364.515,-44.0815"/>
</g>
<!-- Node6 -->
<g id="node11" class="node"><title>Node6</title>
<a xlink:href="keyboard__functions2_8cpp.html#a548548066307f816c5021de7d6e4f26a" target="_top" xlink:title="key_affectation">
<polygon fill="white" stroke="black" points="576.5,-42 576.5,-66 659.5,-66 659.5,-42 576.5,-42"/>
<text text-anchor="middle" x="618" y="-53" font-family="Helvetica,sans-Serif" font-size="10.00">key_affectation</text>
</a>
</g>
<!-- Node5&#45;&gt;Node6 -->
<g id="edge10" class="edge"><title>Node5&#45;&gt;Node6</title>
<path fill="none" stroke="midnightblue" d="M550.19,-43.681C559.12,-45.04 568.024,-46.395 576.303,-47.6548"/>
<polygon fill="midnightblue" stroke="midnightblue" points="550.54,-40.1942 540.127,-42.1498 549.487,-47.1145 550.54,-40.1942"/>
</g>
<!-- Node9 -->
<g id="node18" class="node"><title>Node9</title>
<a xlink:href="logicals__intres_8cpp.html#a85967c22135715eca94d08af2ec1a1fb" target="_top" xlink:title="fenetre_confirm">
<polygon fill="white" stroke="black" points="576,-0 576,-24 660,-24 660,-0 576,-0"/>
<text text-anchor="middle" x="618" y="-11" font-family="Helvetica,sans-Serif" font-size="10.00">fenetre_confirm</text>
</a>
</g>
<!-- Node5&#45;&gt;Node9 -->
<g id="edge18" class="edge"><title>Node5&#45;&gt;Node9</title>
<path fill="none" stroke="midnightblue" d="M550.07,-22.3372C558.894,-20.9944 567.695,-19.6551 575.896,-18.4072"/>
<polygon fill="midnightblue" stroke="midnightblue" points="549.487,-18.8855 540.127,-23.8502 550.54,-25.8058 549.487,-18.8855"/>
</g>
<!-- Node7 -->
<g id="node13" class="node"><title>Node7</title>
<a xlink:href="keyboard__routines2_8cpp.html#a8563320b8eab661232619224650de244" target="_top" xlink:title="commandes_clavier">
<polygon fill="white" stroke="black" points="696,-42 696,-66 800,-66 800,-42 696,-42"/>
<text text-anchor="middle" x="748" y="-53" font-family="Helvetica,sans-Serif" font-size="10.00">commandes_clavier</text>
</a>
</g>
<!-- Node6&#45;&gt;Node7 -->
<g id="edge12" class="edge"><title>Node6&#45;&gt;Node7</title>
<path fill="none" stroke="midnightblue" d="M669.995,-54C678.473,-54 687.258,-54 695.742,-54"/>
<polygon fill="midnightblue" stroke="midnightblue" points="669.848,-50.5001 659.848,-54 669.848,-57.5001 669.848,-50.5001"/>
</g>
<!-- Node8 -->
<g id="node15" class="node"><title>Node8</title>
<a xlink:href="_m_a_i_n__avec__objets_8cpp.html#a8e80f54ac804eddce8ed6e45adb1db44" target="_top" xlink:title="ticker_full_loop">
<polygon fill="white" stroke="black" points="858,-42 858,-66 940,-66 940,-42 858,-42"/>
<text text-anchor="middle" x="899" y="-53" font-family="Helvetica,sans-Serif" font-size="10.00">ticker_full_loop</text>
</a>
</g>
<!-- Node7&#45;&gt;Node8 -->
<g id="edge14" class="edge"><title>Node7&#45;&gt;Node8</title>
<path fill="none" stroke="midnightblue" d="M810.664,-54C826.516,-54 843.147,-54 857.648,-54"/>
<polygon fill="midnightblue" stroke="midnightblue" points="810.389,-50.5001 800.389,-54 810.389,-57.5001 810.389,-50.5001"/>
</g>
<!-- Node8&#45;&gt;Node3 -->
<g id="edge16" class="edge"><title>Node8&#45;&gt;Node3</title>
<path fill="none" stroke="midnightblue" d="M950.55,-54C967.307,-54 984.879,-54 997.742,-54"/>
<polygon fill="midnightblue" stroke="midnightblue" points="950.271,-50.5001 940.271,-54 950.271,-57.5001 950.271,-50.5001"/>
</g>
<!-- Node10 -->
<g id="node20" class="node"><title>Node10</title>
<a xlink:href="graphics__rebuild1_8cpp.html#ac2eae1e03fb72cc734ffbcef566483bf" target="_top" xlink:title="Boxes">
<polygon fill="white" stroke="black" points="726,-0 726,-24 770,-24 770,-0 726,-0"/>
<text text-anchor="middle" x="748" y="-11" font-family="Helvetica,sans-Serif" font-size="10.00">Boxes</text>
</a>
</g>
<!-- Node9&#45;&gt;Node10 -->
<g id="edge20" class="edge"><title>Node9&#45;&gt;Node10</title>
<path fill="none" stroke="midnightblue" d="M670.4,-12C689.658,-12 710.45,-12 725.66,-12"/>
<polygon fill="midnightblue" stroke="midnightblue" points="670.207,-8.5001 660.207,-12 670.207,-15.5001 670.207,-8.5001"/>
</g>
<!-- Node11 -->
<g id="node22" class="node"><title>Node11</title>
<a xlink:href="_m_a_i_n__avec__objets_8cpp.html#ade8d4ba65d55c94f8ee277829d722155" target="_top" xlink:title="main_actions_on_screen">
<polygon fill="white" stroke="black" points="836.5,-0 836.5,-24 961.5,-24 961.5,-0 836.5,-0"/>
<text text-anchor="middle" x="899" y="-11" font-family="Helvetica,sans-Serif" font-size="10.00">main_actions_on_screen</text>
</a>
</g>
<!-- Node10&#45;&gt;Node11 -->
<g id="edge22" class="edge"><title>Node10&#45;&gt;Node11</title>
<path fill="none" stroke="midnightblue" d="M780.395,-12C796.76,-12 817.187,-12 836.455,-12"/>
<polygon fill="midnightblue" stroke="midnightblue" points="780.281,-8.5001 770.281,-12 780.281,-15.5001 780.281,-8.5001"/>
</g>
<!-- Node11&#45;&gt;Node3 -->
<g id="edge24" class="edge"><title>Node11&#45;&gt;Node3</title>
<path fill="none" stroke="midnightblue" d="M945.823,-27.359C951.288,-29.2254 956.775,-31.1327 962,-33 974.031,-37.2997 987.426,-42.4073 997.985,-46.5087"/>
<polygon fill="midnightblue" stroke="midnightblue" points="946.663,-23.9485 936.069,-24.0613 944.421,-30.5797 946.663,-23.9485"/>
</g>
<!-- Node12&#45;&gt;Node5 -->
<g id="edge28" class="edge"><title>Node12&#45;&gt;Node5</title>
<path fill="none" stroke="midnightblue" d="M394.451,-22.1775C403.047,-23.2649 411.679,-24.357 419.979,-25.4069"/>
<polygon fill="midnightblue" stroke="midnightblue" points="394.759,-18.6887 384.399,-20.9059 393.881,-25.6334 394.759,-18.6887"/>
</g>
</g>
</svg>
