<?xml version="1.0" encoding="UTF-8" standalone="no"?>
<!DOCTYPE svg PUBLIC "-//W3C//DTD SVG 1.1//EN"
 "http://www.w3.org/Graphics/SVG/1.1/DTD/svg11.dtd">
<!-- Generated by graphviz version 2.26.3 (20100126.1600)
 -->
<!-- Title: do_logical_deroule_repertoire_classical_save Pages: 1 -->
<svg width="642pt" height="48pt"
 viewBox="0.00 0.00 642.00 48.00" xmlns="http://www.w3.org/2000/svg" xmlns:xlink="http://www.w3.org/1999/xlink">
<g id="graph1" class="graph" transform="scale(1 1) rotate(0) translate(4 44)">
<title>do_logical_deroule_repertoire_classical_save</title>
<polygon fill="white" stroke="white" points="-4,5 -4,-44 639,-44 639,5 -4,5"/>
<!-- Node1 -->
<g id="node1" class="node"><title>Node1</title>
<polygon fill="#bfbfbf" stroke="black" points="0,-0 0,-40 132,-40 132,-0 0,-0"/>
<text text-anchor="start" x="8" y="-27" font-family="Helvetica,sans-Serif" font-size="10.00">do_logical_deroule</text>
<text text-anchor="middle" x="66" y="-11" font-family="Helvetica,sans-Serif" font-size="10.00">_repertoire_classical_save</text>
</g>
<!-- Node2 -->
<g id="node3" class="node"><title>Node2</title>
<a xlink:href="saves__menu__8_8cpp.html#ac4526c35f3b27bd8b798cda6a3320ea1" target="_top" xlink:title="do_logical_Save_Menu">
<polygon fill="white" stroke="black" points="168.5,-8 168.5,-32 285.5,-32 285.5,-8 168.5,-8"/>
<text text-anchor="middle" x="227" y="-19" font-family="Helvetica,sans-Serif" font-size="10.00">do_logical_Save_Menu</text>
</a>
</g>
<!-- Node1&#45;&gt;Node2 -->
<g id="edge2" class="edge"><title>Node1&#45;&gt;Node2</title>
<path fill="none" stroke="midnightblue" d="M142.577,-20C151.279,-20 160.043,-20 168.459,-20"/>
<polygon fill="midnightblue" stroke="midnightblue" points="142.414,-16.5001 132.414,-20 142.414,-23.5001 142.414,-16.5001"/>
</g>
<!-- Node3 -->
<g id="node5" class="node"><title>Node3</title>
<a xlink:href="procs__visuels__rebuild1_8cpp.html#ae710b6e599e321ad5934a90140067054" target="_top" xlink:title="check_graphics_mouse\l_handling">
<polygon fill="white" stroke="black" points="322.5,-0 322.5,-40 441.5,-40 441.5,-0 322.5,-0"/>
<text text-anchor="start" x="330.5" y="-27" font-family="Helvetica,sans-Serif" font-size="10.00">check_graphics_mouse</text>
<text text-anchor="middle" x="382" y="-11" font-family="Helvetica,sans-Serif" font-size="10.00">_handling</text>
</a>
</g>
<!-- Node2&#45;&gt;Node3 -->
<g id="edge4" class="edge"><title>Node2&#45;&gt;Node3</title>
<path fill="none" stroke="midnightblue" d="M295.851,-20C304.666,-20 313.634,-20 322.288,-20"/>
<polygon fill="midnightblue" stroke="midnightblue" points="295.599,-16.5001 285.599,-20 295.599,-23.5001 295.599,-16.5001"/>
</g>
<!-- Node4 -->
<g id="node7" class="node"><title>Node4</title>
<a xlink:href="_m_a_i_n__avec__objets_8cpp.html#a8e80f54ac804eddce8ed6e45adb1db44" target="_top" xlink:title="ticker_full_loop">
<polygon fill="white" stroke="black" points="478,-8 478,-32 560,-32 560,-8 478,-8"/>
<text text-anchor="middle" x="519" y="-19" font-family="Helvetica,sans-Serif" font-size="10.00">ticker_full_loop</text>
</a>
</g>
<!-- Node3&#45;&gt;Node4 -->
<g id="edge6" class="edge"><title>Node3&#45;&gt;Node4</title>
<path fill="none" stroke="midnightblue" d="M451.967,-20C460.737,-20 469.475,-20 477.605,-20"/>
<polygon fill="midnightblue" stroke="midnightblue" points="451.692,-16.5001 441.692,-20 451.692,-23.5001 451.692,-16.5001"/>
</g>
<!-- Node5 -->
<g id="node9" class="node"><title>Node5</title>
<a xlink:href="_m_a_i_n__avec__objets_8cpp.html#ae66f6b31b5ad750f1fe042a706a4e3d4" target="_top" xlink:title="main">
<polygon fill="white" stroke="black" points="596,-8 596,-32 634,-32 634,-8 596,-8"/>
<text text-anchor="middle" x="615" y="-19" font-family="Helvetica,sans-Serif" font-size="10.00">main</text>
</a>
</g>
<!-- Node4&#45;&gt;Node5 -->
<g id="edge8" class="edge"><title>Node4&#45;&gt;Node5</title>
<path fill="none" stroke="midnightblue" d="M570.509,-20C579.577,-20 588.476,-20 595.904,-20"/>
<polygon fill="midnightblue" stroke="midnightblue" points="570.27,-16.5001 560.27,-20 570.27,-23.5001 570.27,-16.5001"/>
</g>
</g>
</svg>
