<?xml version="1.0" encoding="UTF-8" standalone="no"?>
<!DOCTYPE svg PUBLIC "-//W3C//DTD SVG 1.1//EN"
 "http://www.w3.org/Graphics/SVG/1.1/DTD/svg11.dtd">
<!-- Generated by graphviz version 2.26.3 (20100126.1600)
 -->
<!-- Title: do_Schwartzpeter_import Pages: 1 -->
<svg width="788pt" height="74pt"
 viewBox="0.00 0.00 788.00 74.00" xmlns="http://www.w3.org/2000/svg" xmlns:xlink="http://www.w3.org/1999/xlink">
<g id="graph1" class="graph" transform="scale(1 1) rotate(0) translate(4 70)">
<title>do_Schwartzpeter_import</title>
<polygon fill="white" stroke="white" points="-4,5 -4,-70 785,-70 785,5 -4,5"/>
<!-- Node1 -->
<g id="node1" class="node"><title>Node1</title>
<polygon fill="#bfbfbf" stroke="black" points="0,-21 0,-45 128,-45 128,-21 0,-21"/>
<text text-anchor="middle" x="64" y="-32" font-family="Helvetica,sans-Serif" font-size="10.00">do_Schwartzpeter_import</text>
</g>
<!-- Node2 -->
<g id="node3" class="node"><title>Node2</title>
<a xlink:href="logicals__intres_8cpp.html#a74cf9c04c734ab342f88799efbfc4210" target="_top" xlink:title="operations_confirmation">
<polygon fill="white" stroke="black" points="164,-21 164,-45 284,-45 284,-21 164,-21"/>
<text text-anchor="middle" x="224" y="-32" font-family="Helvetica,sans-Serif" font-size="10.00">operations_confirmation</text>
</a>
</g>
<!-- Node1&#45;&gt;Node2 -->
<g id="edge2" class="edge"><title>Node1&#45;&gt;Node2</title>
<path fill="none" stroke="midnightblue" d="M138.222,-33C146.853,-33 155.574,-33 163.981,-33"/>
<polygon fill="midnightblue" stroke="midnightblue" points="138.156,-29.5001 128.156,-33 138.156,-36.5001 138.156,-29.5001"/>
</g>
<!-- Node3 -->
<g id="node5" class="node"><title>Node3</title>
<a xlink:href="keyboard__functions2_8cpp.html#a548548066307f816c5021de7d6e4f26a" target="_top" xlink:title="key_affectation">
<polygon fill="white" stroke="black" points="320.5,-42 320.5,-66 403.5,-66 403.5,-42 320.5,-42"/>
<text text-anchor="middle" x="362" y="-53" font-family="Helvetica,sans-Serif" font-size="10.00">key_affectation</text>
</a>
</g>
<!-- Node2&#45;&gt;Node3 -->
<g id="edge4" class="edge"><title>Node2&#45;&gt;Node3</title>
<path fill="none" stroke="midnightblue" d="M294.19,-43.681C303.12,-45.04 312.024,-46.395 320.303,-47.6548"/>
<polygon fill="midnightblue" stroke="midnightblue" points="294.54,-40.1942 284.127,-42.1498 293.487,-47.1145 294.54,-40.1942"/>
</g>
<!-- Node7 -->
<g id="node13" class="node"><title>Node7</title>
<a xlink:href="logicals__intres_8cpp.html#a85967c22135715eca94d08af2ec1a1fb" target="_top" xlink:title="fenetre_confirm">
<polygon fill="white" stroke="black" points="320,-0 320,-24 404,-24 404,-0 320,-0"/>
<text text-anchor="middle" x="362" y="-11" font-family="Helvetica,sans-Serif" font-size="10.00">fenetre_confirm</text>
</a>
</g>
<!-- Node2&#45;&gt;Node7 -->
<g id="edge12" class="edge"><title>Node2&#45;&gt;Node7</title>
<path fill="none" stroke="midnightblue" d="M294.07,-22.3372C302.894,-20.9944 311.695,-19.6551 319.896,-18.4072"/>
<polygon fill="midnightblue" stroke="midnightblue" points="293.487,-18.8855 284.127,-23.8502 294.54,-25.8058 293.487,-18.8855"/>
</g>
<!-- Node4 -->
<g id="node7" class="node"><title>Node4</title>
<a xlink:href="keyboard__routines2_8cpp.html#a8563320b8eab661232619224650de244" target="_top" xlink:title="commandes_clavier">
<polygon fill="white" stroke="black" points="440,-42 440,-66 544,-66 544,-42 440,-42"/>
<text text-anchor="middle" x="492" y="-53" font-family="Helvetica,sans-Serif" font-size="10.00">commandes_clavier</text>
</a>
</g>
<!-- Node3&#45;&gt;Node4 -->
<g id="edge6" class="edge"><title>Node3&#45;&gt;Node4</title>
<path fill="none" stroke="midnightblue" d="M413.995,-54C422.473,-54 431.258,-54 439.742,-54"/>
<polygon fill="midnightblue" stroke="midnightblue" points="413.848,-50.5001 403.848,-54 413.848,-57.5001 413.848,-50.5001"/>
</g>
<!-- Node5 -->
<g id="node9" class="node"><title>Node5</title>
<a xlink:href="_m_a_i_n__avec__objets_8cpp.html#a8e80f54ac804eddce8ed6e45adb1db44" target="_top" xlink:title="ticker_full_loop">
<polygon fill="white" stroke="black" points="602,-42 602,-66 684,-66 684,-42 602,-42"/>
<text text-anchor="middle" x="643" y="-53" font-family="Helvetica,sans-Serif" font-size="10.00">ticker_full_loop</text>
</a>
</g>
<!-- Node4&#45;&gt;Node5 -->
<g id="edge8" class="edge"><title>Node4&#45;&gt;Node5</title>
<path fill="none" stroke="midnightblue" d="M554.664,-54C570.516,-54 587.147,-54 601.648,-54"/>
<polygon fill="midnightblue" stroke="midnightblue" points="554.389,-50.5001 544.389,-54 554.389,-57.5001 554.389,-50.5001"/>
</g>
<!-- Node6 -->
<g id="node11" class="node"><title>Node6</title>
<a xlink:href="_m_a_i_n__avec__objets_8cpp.html#ae66f6b31b5ad750f1fe042a706a4e3d4" target="_top" xlink:title="main">
<polygon fill="white" stroke="black" points="742,-21 742,-45 780,-45 780,-21 742,-21"/>
<text text-anchor="middle" x="761" y="-32" font-family="Helvetica,sans-Serif" font-size="10.00">main</text>
</a>
</g>
<!-- Node5&#45;&gt;Node6 -->
<g id="edge10" class="edge"><title>Node5&#45;&gt;Node6</title>
<path fill="none" stroke="midnightblue" d="M694.55,-44.8259C711.307,-41.8437 728.879,-38.7164 741.742,-36.4273"/>
<polygon fill="midnightblue" stroke="midnightblue" points="693.503,-41.4572 684.271,-46.6552 694.729,-48.3489 693.503,-41.4572"/>
</g>
<!-- Node8 -->
<g id="node15" class="node"><title>Node8</title>
<a xlink:href="graphics__rebuild1_8cpp.html#ac2eae1e03fb72cc734ffbcef566483bf" target="_top" xlink:title="Boxes">
<polygon fill="white" stroke="black" points="470,-0 470,-24 514,-24 514,-0 470,-0"/>
<text text-anchor="middle" x="492" y="-11" font-family="Helvetica,sans-Serif" font-size="10.00">Boxes</text>
</a>
</g>
<!-- Node7&#45;&gt;Node8 -->
<g id="edge14" class="edge"><title>Node7&#45;&gt;Node8</title>
<path fill="none" stroke="midnightblue" d="M414.4,-12C433.658,-12 454.45,-12 469.66,-12"/>
<polygon fill="midnightblue" stroke="midnightblue" points="414.207,-8.5001 404.207,-12 414.207,-15.5001 414.207,-8.5001"/>
</g>
<!-- Node9 -->
<g id="node17" class="node"><title>Node9</title>
<a xlink:href="_m_a_i_n__avec__objets_8cpp.html#ade8d4ba65d55c94f8ee277829d722155" target="_top" xlink:title="main_actions_on_screen">
<polygon fill="white" stroke="black" points="580.5,-0 580.5,-24 705.5,-24 705.5,-0 580.5,-0"/>
<text text-anchor="middle" x="643" y="-11" font-family="Helvetica,sans-Serif" font-size="10.00">main_actions_on_screen</text>
</a>
</g>
<!-- Node8&#45;&gt;Node9 -->
<g id="edge16" class="edge"><title>Node8&#45;&gt;Node9</title>
<path fill="none" stroke="midnightblue" d="M524.395,-12C540.76,-12 561.187,-12 580.455,-12"/>
<polygon fill="midnightblue" stroke="midnightblue" points="524.281,-8.5001 514.281,-12 524.281,-15.5001 524.281,-8.5001"/>
</g>
<!-- Node9&#45;&gt;Node6 -->
<g id="edge18" class="edge"><title>Node9&#45;&gt;Node6</title>
<path fill="none" stroke="midnightblue" d="M715.837,-24.9626C725.336,-26.6529 734.327,-28.253 741.749,-29.5739"/>
<polygon fill="midnightblue" stroke="midnightblue" points="716.259,-21.4827 705.8,-23.1763 715.032,-28.3744 716.259,-21.4827"/>
</g>
</g>
</svg>
