<?xml version="1.0" encoding="UTF-8" standalone="no"?>
<!DOCTYPE svg PUBLIC "-//W3C//DTD SVG 1.1//EN"
 "http://www.w3.org/Graphics/SVG/1.1/DTD/svg11.dtd">
<!-- Generated by graphviz version 2.26.3 (20100126.1600)
 -->
<!-- Title: draw_info Pages: 1 -->
<!--zoomable 527 -->
<svg id="main" version="1.1" xmlns="http://www.w3.org/2000/svg" xmlns:xlink="http://www.w3.org/1999/xlink" xml:space="preserve" onload="init(evt)">
<style type="text/css"><![CDATA[
.edge:hover path { stroke: red; }
.edge:hover polygon { stroke: red; fill: red; }
]]></style>
<script type="text/javascript"><![CDATA[
var edges = document.getElementsByTagName('g');
if (edges && edges.length) {
  for (var i=0;i<edges.length;i++) {
    if (edges[i].id.substr(0,4)=='edge') {
      edges[i].setAttribute('class','edge');
    }
  }
}
]]></script>
        <defs>
                <circle id="rim" cx="0" cy="0" r="7"/>
                <circle id="rim2" cx="0" cy="0" r="3.5"/>
                <g id="zoomPlus">
                        <use xlink:href="#rim" fill="#404040">
                                <set attributeName="fill" to="#808080" begin="zoomplus.mouseover" end="zoomplus.mouseout"/>
                        </use>
                        <path d="M-4,0h8M0,-4v8" fill="none" stroke="white" stroke-width="1.5" pointer-events="none"/>
                </g>
                <g id="zoomMin">
                        <use xlink:href="#rim" fill="#404040">
                                <set attributeName="fill" to="#808080" begin="zoomminus.mouseover" end="zoomminus.mouseout"/>
                        </use>
                        <path d="M-4,0h8" fill="none" stroke="white" stroke-width="1.5" pointer-events="none"/>
                </g>
                <g id="dirArrow">
                        <path fill="none" stroke="white" stroke-width="1.5" d="M0,-3.0v7 M-2.5,-0.5L0,-3.0L2.5,-0.5"/>
                </g>
               <g id="resetDef">
                       <use xlink:href="#rim2" fill="#404040">
                               <set attributeName="fill" to="#808080" begin="reset.mouseover" end="reset.mouseout"/>
                       </use>
               </g>
        </defs>

<script type="text/javascript">
var viewWidth = 1308;
var viewHeight = 527;
var sectionId = 'dynsection-6';
</script>
<script xlink:href="svgpan.js"/>
<svg id="graph" class="graph">
<g id="viewport">
<title>draw_info</title>
<polygon fill="white" stroke="white" points="-4,5 -4,-523.21 1305,-523.21 1305,5 -4,5"/>
<!-- Node1 -->
<g id="node1" class="node"><title>Node1</title>
<polygon fill="#bfbfbf" stroke="black" points="0.5,-252.519 0.5,-276.519 59.5,-276.519 59.5,-252.519 0.5,-252.519"/>
<text text-anchor="middle" x="30" y="-263.519" font-family="Helvetica,sans-Serif" font-size="10.00">draw_info</text>
</g>
<!-- Node2 -->
<g id="node3" class="node"><title>Node2</title>
<a xlink:href="saves__export__pdf2_8cpp.html#a269d937cd505c0d371cb3c61fb9602d2" target="_top" xlink:title="pdf_draw_channels_on_grid">
<polygon fill="white" stroke="black" points="96.5,-330.519 96.5,-354.519 233.5,-354.519 233.5,-330.519 96.5,-330.519"/>
<text text-anchor="middle" x="165" y="-341.519" font-family="Helvetica,sans-Serif" font-size="10.00">pdf_draw_channels_on_grid</text>
</a>
</g>
<!-- Node1&#45;&gt;Node2 -->
<g id="edge2" class="edge"><title>Node1&#45;&gt;Node2</title>
<path fill="none" stroke="midnightblue" d="M50.3373,-283.233C62.8242,-294.014 79.5348,-307.226 96,-316.519 105.588,-321.93 116.52,-326.64 126.813,-330.509"/>
<polygon fill="midnightblue" stroke="midnightblue" points="52.599,-280.561 42.7865,-276.565 47.9656,-285.808 52.599,-280.561"/>
</g>
<!-- Node3 -->
<g id="node5" class="node"><title>Node3</title>
<a xlink:href="saves__export__pdf2_8cpp.html#a7d6f602fcde4b6dae7d59591dbb8b265" target="_top" xlink:title="draw_pdf_grid">
<polygon fill="white" stroke="black" points="288.5,-382.519 288.5,-406.519 365.5,-406.519 365.5,-382.519 288.5,-382.519"/>
<text text-anchor="middle" x="327" y="-393.519" font-family="Helvetica,sans-Serif" font-size="10.00">draw_pdf_grid</text>
</a>
</g>
<!-- Node1&#45;&gt;Node3 -->
<g id="edge36" class="edge"><title>Node1&#45;&gt;Node3</title>
<path fill="none" stroke="midnightblue" d="M33.0002,-286.712C38.7354,-319.331 54.6108,-379.194 96,-405.519 157.657,-444.736 248.4,-422.632 295.709,-406.576"/>
<polygon fill="midnightblue" stroke="midnightblue" points="36.4483,-286.109 31.4217,-276.782 29.5351,-287.208 36.4483,-286.109"/>
</g>
<!-- Node4 -->
<g id="node7" class="node"><title>Node4</title>
<a xlink:href="saves__export__pdf2_8cpp.html#a7ce311eef0e05201b6060acbcf49d006" target="_top" xlink:title="draw_pdf_grid_players\l_config">
<polygon fill="white" stroke="black" points="420,-399.519 420,-439.519 534,-439.519 534,-399.519 420,-399.519"/>
<text text-anchor="start" x="428" y="-426.519" font-family="Helvetica,sans-Serif" font-size="10.00">draw_pdf_grid_players</text>
<text text-anchor="middle" x="477" y="-410.519" font-family="Helvetica,sans-Serif" font-size="10.00">_config</text>
</a>
</g>
<!-- Node1&#45;&gt;Node4 -->
<g id="edge46" class="edge"><title>Node1&#45;&gt;Node4</title>
<path fill="none" stroke="midnightblue" d="M33.2222,-286.52C41.1881,-337.524 63.5413,-461.337 96,-485.519 203.264,-565.43 374.359,-480.967 444.945,-439.592"/>
<polygon fill="midnightblue" stroke="midnightblue" points="36.6677,-285.896 31.7028,-276.536 29.7474,-286.949 36.6677,-285.896"/>
</g>
<!-- Node5 -->
<g id="node9" class="node"><title>Node5</title>
<a xlink:href="saves__export__pdf2_8cpp.html#a690cff6b3991789940013a85ddcc0588" target="_top" xlink:title="do_pdf_export">
<polygon fill="white" stroke="black" points="570,-174.519 570,-198.519 648,-198.519 648,-174.519 570,-174.519"/>
<text text-anchor="middle" x="609" y="-185.519" font-family="Helvetica,sans-Serif" font-size="10.00">do_pdf_export</text>
</a>
</g>
<!-- Node1&#45;&gt;Node5 -->
<g id="edge68" class="edge"><title>Node1&#45;&gt;Node5</title>
<path fill="none" stroke="midnightblue" d="M69.4267,-276.898C158.272,-302.384 378.491,-351.895 534,-271.519 566.344,-254.802 591.108,-217.857 602.357,-198.649"/>
<polygon fill="midnightblue" stroke="midnightblue" points="70.3317,-273.516 59.7512,-274.067 68.366,-280.234 70.3317,-273.516"/>
</g>
<!-- Node14 -->
<g id="node28" class="node"><title>Node14</title>
<a xlink:href="saves__export__pdf2_8cpp.html#a5203a62883d545b60b33031a1db149c6" target="_top" xlink:title="pdf_draw_infos_of_step">
<polygon fill="white" stroke="black" points="105,-372.519 105,-396.519 225,-396.519 225,-372.519 105,-372.519"/>
<text text-anchor="middle" x="165" y="-383.519" font-family="Helvetica,sans-Serif" font-size="10.00">pdf_draw_infos_of_step</text>
</a>
</g>
<!-- Node1&#45;&gt;Node14 -->
<g id="edge28" class="edge"><title>Node1&#45;&gt;Node14</title>
<path fill="none" stroke="midnightblue" d="M38.9296,-285.899C49.3944,-308.409 68.8263,-343.324 96,-363.519 100.724,-367.03 106.038,-369.959 111.568,-372.402"/>
<polygon fill="midnightblue" stroke="midnightblue" points="42.0219,-284.24 34.7569,-276.528 35.6271,-287.087 42.0219,-284.24"/>
</g>
<!-- Node15 -->
<g id="node31" class="node"><title>Node15</title>
<a xlink:href="saves__export__pdf2_8cpp.html#a84afdc9a6debcff66646f8f74158a1f9" target="_top" xlink:title="draw_pdf_gridayer_state">
<polygon fill="white" stroke="black" points="103.5,-452.519 103.5,-476.519 226.5,-476.519 226.5,-452.519 103.5,-452.519"/>
<text text-anchor="middle" x="165" y="-463.519" font-family="Helvetica,sans-Serif" font-size="10.00">draw_pdf_gridayer_state</text>
</a>
</g>
<!-- Node1&#45;&gt;Node15 -->
<g id="edge32" class="edge"><title>Node1&#45;&gt;Node15</title>
<path fill="none" stroke="midnightblue" d="M32.5826,-287.042C37.9321,-323.624 53.5109,-396.123 96,-438.519 101.89,-444.397 109.238,-448.965 116.922,-452.511"/>
<polygon fill="midnightblue" stroke="midnightblue" points="36.0233,-286.364 31.2323,-276.915 29.0847,-287.29 36.0233,-286.364"/>
</g>
<!-- Node16 -->
<g id="node35" class="node"><title>Node16</title>
<a xlink:href="saves__export__pdf2_8cpp.html#a6377e5a2b40e64163612bbba96a4b75c" target="_top" xlink:title="draw_pdf_echo_config">
<polygon fill="white" stroke="black" points="270,-254.519 270,-278.519 384,-278.519 384,-254.519 270,-254.519"/>
<text text-anchor="middle" x="327" y="-265.519" font-family="Helvetica,sans-Serif" font-size="10.00">draw_pdf_echo_config</text>
</a>
</g>
<!-- Node1&#45;&gt;Node16 -->
<g id="edge38" class="edge"><title>Node1&#45;&gt;Node16</title>
<path fill="none" stroke="midnightblue" d="M69.6216,-264.786C121.064,-265.132 211.2,-265.739 269.991,-266.135"/>
<polygon fill="midnightblue" stroke="midnightblue" points="69.5867,-261.286 59.5633,-264.718 69.5395,-268.286 69.5867,-261.286"/>
</g>
<!-- Node17 -->
<g id="node38" class="node"><title>Node17</title>
<a xlink:href="saves__export__pdf2_8cpp.html#ab2dd9df08e833653f871cbaf68b839a0" target="_top" xlink:title="draw_pdf_draw_config">
<polygon fill="white" stroke="black" points="420,-214.519 420,-238.519 534,-238.519 534,-214.519 420,-214.519"/>
<text text-anchor="middle" x="477" y="-225.519" font-family="Helvetica,sans-Serif" font-size="10.00">draw_pdf_draw_config</text>
</a>
</g>
<!-- Node1&#45;&gt;Node17 -->
<g id="edge42" class="edge"><title>Node1&#45;&gt;Node17</title>
<path fill="none" stroke="midnightblue" d="M69.7594,-261.139C149.205,-254.385 327.822,-239.201 419.826,-231.38"/>
<polygon fill="midnightblue" stroke="midnightblue" points="69.3427,-257.662 59.6751,-261.996 69.9357,-264.637 69.3427,-257.662"/>
</g>
<!-- Node18 -->
<g id="node42" class="node"><title>Node18</title>
<a xlink:href="saves__export__pdf2_8cpp.html#a3cd323526e85872a7d80185e71d678f0" target="_top" xlink:title="draw_pdf_chaser">
<polygon fill="white" stroke="black" points="281.5,-174.519 281.5,-198.519 372.5,-198.519 372.5,-174.519 281.5,-174.519"/>
<text text-anchor="middle" x="327" y="-185.519" font-family="Helvetica,sans-Serif" font-size="10.00">draw_pdf_chaser</text>
</a>
</g>
<!-- Node1&#45;&gt;Node18 -->
<g id="edge48" class="edge"><title>Node1&#45;&gt;Node18</title>
<path fill="none" stroke="midnightblue" d="M48.6687,-245.118C60.9682,-233.615 78.068,-219.884 96,-212.519 156.664,-187.605 233.389,-183.844 281.342,-184.42"/>
<polygon fill="midnightblue" stroke="midnightblue" points="46.0474,-242.785 41.3189,-252.266 50.9279,-247.803 46.0474,-242.785"/>
</g>
<!-- Node19 -->
<g id="node45" class="node"><title>Node19</title>
<a xlink:href="saves__export__pdf2_8cpp.html#ab4a988ecb3fc4c676a582197a1ec358d" target="_top" xlink:title="print_ch_macro">
<polygon fill="white" stroke="black" points="435.5,-134.519 435.5,-158.519 518.5,-158.519 518.5,-134.519 435.5,-134.519"/>
<text text-anchor="middle" x="477" y="-145.519" font-family="Helvetica,sans-Serif" font-size="10.00">print_ch_macro</text>
</a>
</g>
<!-- Node1&#45;&gt;Node19 -->
<g id="edge52" class="edge"><title>Node1&#45;&gt;Node19</title>
<path fill="none" stroke="midnightblue" d="M40.3339,-243.467C51.2353,-223.767 70.388,-195.357 96,-181.519 206.598,-121.765 361.893,-131.231 435.357,-140.229"/>
<polygon fill="midnightblue" stroke="midnightblue" points="37.225,-241.859 35.6531,-252.337 43.4158,-245.127 37.225,-241.859"/>
</g>
<!-- Node20 -->
<g id="node48" class="node"><title>Node20</title>
<a xlink:href="saves__export__pdf2_8cpp.html#aba26c1f0f87d8fce31a89c1212478c5b" target="_top" xlink:title="print_ch_from_plot">
<polygon fill="white" stroke="black" points="278.5,-94.5192 278.5,-118.519 375.5,-118.519 375.5,-94.5192 278.5,-94.5192"/>
<text text-anchor="middle" x="327" y="-105.519" font-family="Helvetica,sans-Serif" font-size="10.00">print_ch_from_plot</text>
</a>
</g>
<!-- Node1&#45;&gt;Node20 -->
<g id="edge56" class="edge"><title>Node1&#45;&gt;Node20</title>
<path fill="none" stroke="midnightblue" d="M34.3258,-242.105C41.4556,-211.787 58.7695,-158.519 96,-132.519 149.602,-95.0863 227.868,-94.6177 278.118,-99.3204"/>
<polygon fill="midnightblue" stroke="midnightblue" points="30.8478,-241.628 32.1417,-252.143 37.6878,-243.116 30.8478,-241.628"/>
</g>
<!-- Node21 -->
<g id="node51" class="node"><title>Node21</title>
<a xlink:href="saves__export__pdf2_8cpp.html#ab5aec9e9cf80dfba21700f96ad102d4f" target="_top" xlink:title="print_midi_command">
<polygon fill="white" stroke="black" points="423.5,-54.5192 423.5,-78.5192 530.5,-78.5192 530.5,-54.5192 423.5,-54.5192"/>
<text text-anchor="middle" x="477" y="-65.5192" font-family="Helvetica,sans-Serif" font-size="10.00">print_midi_command</text>
</a>
</g>
<!-- Node1&#45;&gt;Node21 -->
<g id="edge60" class="edge"><title>Node1&#45;&gt;Node21</title>
<path fill="none" stroke="midnightblue" d="M31.2371,-242.364C34.6574,-204.587 47.5328,-128.325 96,-92.5192 146.526,-55.1922 331.018,-58.88 423.457,-63.3147"/>
<polygon fill="midnightblue" stroke="midnightblue" points="27.7462,-242.114 30.4755,-252.351 34.7259,-242.646 27.7462,-242.114"/>
</g>
<!-- Node22 -->
<g id="node54" class="node"><title>Node22</title>
<a xlink:href="saves__export__pdf2_8cpp.html#a6ce936402f9355eb4b48505b1cf9b5fe" target="_top" xlink:title="draw_pdf_icat_preset">
<polygon fill="white" stroke="black" points="110,-14.5192 110,-38.5192 220,-38.5192 220,-14.5192 110,-14.5192"/>
<text text-anchor="middle" x="165" y="-25.5192" font-family="Helvetica,sans-Serif" font-size="10.00">draw_pdf_icat_preset</text>
</a>
</g>
<!-- Node1&#45;&gt;Node22 -->
<g id="edge64" class="edge"><title>Node1&#45;&gt;Node22</title>
<path fill="none" stroke="midnightblue" d="M34.3759,-242.159C44.2823,-193.573 69.623,-80.4875 96,-52.5192 101.533,-46.652 108.522,-42.0979 115.915,-38.566"/>
<polygon fill="midnightblue" stroke="midnightblue" points="30.8833,-241.774 32.3486,-252.267 37.7466,-243.151 30.8833,-241.774"/>
</g>
<!-- Node2&#45;&gt;Node3 -->
<g id="edge4" class="edge"><title>Node2&#45;&gt;Node3</title>
<path fill="none" stroke="midnightblue" d="M215.101,-357.598C221.47,-359.565 227.893,-361.572 234,-363.519 252.972,-369.567 274.028,-376.562 291.3,-382.375"/>
<polygon fill="midnightblue" stroke="midnightblue" points="215.777,-354.144 205.19,-354.556 213.723,-360.836 215.777,-354.144"/>
</g>
<!-- Node3&#45;&gt;Node4 -->
<g id="edge6" class="edge"><title>Node3&#45;&gt;Node4</title>
<path fill="none" stroke="midnightblue" d="M375.613,-402.621C389.717,-404.972 405.249,-407.561 419.827,-409.99"/>
<polygon fill="midnightblue" stroke="midnightblue" points="376.068,-399.149 365.629,-400.957 374.917,-406.054 376.068,-399.149"/>
</g>
<!-- Node4&#45;&gt;Node5 -->
<g id="edge8" class="edge"><title>Node4&#45;&gt;Node5</title>
<path fill="none" stroke="midnightblue" d="M493.738,-390.661C505.146,-370.941 520.56,-344.193 534,-320.519 559.402,-275.773 589.131,-222.334 602.224,-198.741"/>
<polygon fill="midnightblue" stroke="midnightblue" points="490.625,-389.053 488.644,-399.461 496.683,-392.561 490.625,-389.053"/>
</g>
<!-- Node6 -->
<g id="node11" class="node"><title>Node6</title>
<a xlink:href="logicals__intres_8cpp.html#a74cf9c04c734ab342f88799efbfc4210" target="_top" xlink:title="operations_confirmation">
<polygon fill="white" stroke="black" points="684,-174.519 684,-198.519 804,-198.519 804,-174.519 684,-174.519"/>
<text text-anchor="middle" x="744" y="-185.519" font-family="Helvetica,sans-Serif" font-size="10.00">operations_confirmation</text>
</a>
</g>
<!-- Node5&#45;&gt;Node6 -->
<g id="edge10" class="edge"><title>Node5&#45;&gt;Node6</title>
<path fill="none" stroke="midnightblue" d="M658.054,-186.519C666.458,-186.519 675.275,-186.519 683.927,-186.519"/>
<polygon fill="midnightblue" stroke="midnightblue" points="658.048,-183.019 648.048,-186.519 658.048,-190.019 658.048,-183.019"/>
</g>
<!-- Node7 -->
<g id="node13" class="node"><title>Node7</title>
<a xlink:href="keyboard__functions2_8cpp.html#a548548066307f816c5021de7d6e4f26a" target="_top" xlink:title="key_affectation">
<polygon fill="white" stroke="black" points="840.5,-195.519 840.5,-219.519 923.5,-219.519 923.5,-195.519 840.5,-195.519"/>
<text text-anchor="middle" x="882" y="-206.519" font-family="Helvetica,sans-Serif" font-size="10.00">key_affectation</text>
</a>
</g>
<!-- Node6&#45;&gt;Node7 -->
<g id="edge12" class="edge"><title>Node6&#45;&gt;Node7</title>
<path fill="none" stroke="midnightblue" d="M814.19,-197.2C823.12,-198.559 832.024,-199.914 840.303,-201.174"/>
<polygon fill="midnightblue" stroke="midnightblue" points="814.54,-193.713 804.127,-195.669 813.487,-200.634 814.54,-193.713"/>
</g>
<!-- Node11 -->
<g id="node21" class="node"><title>Node11</title>
<a xlink:href="logicals__intres_8cpp.html#a85967c22135715eca94d08af2ec1a1fb" target="_top" xlink:title="fenetre_confirm">
<polygon fill="white" stroke="black" points="840,-153.519 840,-177.519 924,-177.519 924,-153.519 840,-153.519"/>
<text text-anchor="middle" x="882" y="-164.519" font-family="Helvetica,sans-Serif" font-size="10.00">fenetre_confirm</text>
</a>
</g>
<!-- Node6&#45;&gt;Node11 -->
<g id="edge20" class="edge"><title>Node6&#45;&gt;Node11</title>
<path fill="none" stroke="midnightblue" d="M814.07,-175.856C822.894,-174.514 831.695,-173.174 839.896,-171.926"/>
<polygon fill="midnightblue" stroke="midnightblue" points="813.487,-172.405 804.127,-177.369 814.54,-179.325 813.487,-172.405"/>
</g>
<!-- Node8 -->
<g id="node15" class="node"><title>Node8</title>
<a xlink:href="keyboard__routines2_8cpp.html#a8563320b8eab661232619224650de244" target="_top" xlink:title="commandes_clavier">
<polygon fill="white" stroke="black" points="960,-195.519 960,-219.519 1064,-219.519 1064,-195.519 960,-195.519"/>
<text text-anchor="middle" x="1012" y="-206.519" font-family="Helvetica,sans-Serif" font-size="10.00">commandes_clavier</text>
</a>
</g>
<!-- Node7&#45;&gt;Node8 -->
<g id="edge14" class="edge"><title>Node7&#45;&gt;Node8</title>
<path fill="none" stroke="midnightblue" d="M933.995,-207.519C942.473,-207.519 951.258,-207.519 959.742,-207.519"/>
<polygon fill="midnightblue" stroke="midnightblue" points="933.848,-204.019 923.848,-207.519 933.848,-211.019 933.848,-204.019"/>
</g>
<!-- Node9 -->
<g id="node17" class="node"><title>Node9</title>
<a xlink:href="_m_a_i_n__avec__objets_8cpp.html#a8e80f54ac804eddce8ed6e45adb1db44" target="_top" xlink:title="ticker_full_loop">
<polygon fill="white" stroke="black" points="1122,-195.519 1122,-219.519 1204,-219.519 1204,-195.519 1122,-195.519"/>
<text text-anchor="middle" x="1163" y="-206.519" font-family="Helvetica,sans-Serif" font-size="10.00">ticker_full_loop</text>
</a>
</g>
<!-- Node8&#45;&gt;Node9 -->
<g id="edge16" class="edge"><title>Node8&#45;&gt;Node9</title>
<path fill="none" stroke="midnightblue" d="M1074.66,-207.519C1090.52,-207.519 1107.15,-207.519 1121.65,-207.519"/>
<polygon fill="midnightblue" stroke="midnightblue" points="1074.39,-204.019 1064.39,-207.519 1074.39,-211.019 1074.39,-204.019"/>
</g>
<!-- Node10 -->
<g id="node19" class="node"><title>Node10</title>
<a xlink:href="_m_a_i_n__avec__objets_8cpp.html#ae66f6b31b5ad750f1fe042a706a4e3d4" target="_top" xlink:title="main">
<polygon fill="white" stroke="black" points="1262,-174.519 1262,-198.519 1300,-198.519 1300,-174.519 1262,-174.519"/>
<text text-anchor="middle" x="1281" y="-185.519" font-family="Helvetica,sans-Serif" font-size="10.00">main</text>
</a>
</g>
<!-- Node9&#45;&gt;Node10 -->
<g id="edge18" class="edge"><title>Node9&#45;&gt;Node10</title>
<path fill="none" stroke="midnightblue" d="M1214.55,-198.345C1231.31,-195.363 1248.88,-192.236 1261.74,-189.947"/>
<polygon fill="midnightblue" stroke="midnightblue" points="1213.5,-194.976 1204.27,-200.174 1214.73,-201.868 1213.5,-194.976"/>
</g>
<!-- Node12 -->
<g id="node23" class="node"><title>Node12</title>
<a xlink:href="graphics__rebuild1_8cpp.html#ac2eae1e03fb72cc734ffbcef566483bf" target="_top" xlink:title="Boxes">
<polygon fill="white" stroke="black" points="990,-153.519 990,-177.519 1034,-177.519 1034,-153.519 990,-153.519"/>
<text text-anchor="middle" x="1012" y="-164.519" font-family="Helvetica,sans-Serif" font-size="10.00">Boxes</text>
</a>
</g>
<!-- Node11&#45;&gt;Node12 -->
<g id="edge22" class="edge"><title>Node11&#45;&gt;Node12</title>
<path fill="none" stroke="midnightblue" d="M934.4,-165.519C953.658,-165.519 974.45,-165.519 989.66,-165.519"/>
<polygon fill="midnightblue" stroke="midnightblue" points="934.207,-162.019 924.207,-165.519 934.207,-169.019 934.207,-162.019"/>
</g>
<!-- Node13 -->
<g id="node25" class="node"><title>Node13</title>
<a xlink:href="_m_a_i_n__avec__objets_8cpp.html#ade8d4ba65d55c94f8ee277829d722155" target="_top" xlink:title="main_actions_on_screen">
<polygon fill="white" stroke="black" points="1100.5,-153.519 1100.5,-177.519 1225.5,-177.519 1225.5,-153.519 1100.5,-153.519"/>
<text text-anchor="middle" x="1163" y="-164.519" font-family="Helvetica,sans-Serif" font-size="10.00">main_actions_on_screen</text>
</a>
</g>
<!-- Node12&#45;&gt;Node13 -->
<g id="edge24" class="edge"><title>Node12&#45;&gt;Node13</title>
<path fill="none" stroke="midnightblue" d="M1044.39,-165.519C1060.76,-165.519 1081.19,-165.519 1100.46,-165.519"/>
<polygon fill="midnightblue" stroke="midnightblue" points="1044.28,-162.019 1034.28,-165.519 1044.28,-169.019 1044.28,-162.019"/>
</g>
<!-- Node13&#45;&gt;Node10 -->
<g id="edge26" class="edge"><title>Node13&#45;&gt;Node10</title>
<path fill="none" stroke="midnightblue" d="M1235.84,-178.482C1245.34,-180.172 1254.33,-181.772 1261.75,-183.093"/>
<polygon fill="midnightblue" stroke="midnightblue" points="1236.26,-175.002 1225.8,-176.696 1235.03,-181.894 1236.26,-175.002"/>
</g>
<!-- Node14&#45;&gt;Node3 -->
<g id="edge30" class="edge"><title>Node14&#45;&gt;Node3</title>
<path fill="none" stroke="midnightblue" d="M235.313,-388.859C253.472,-389.98 272.361,-391.146 288.242,-392.127"/>
<polygon fill="midnightblue" stroke="midnightblue" points="235.519,-385.366 225.323,-388.243 235.088,-392.352 235.519,-385.366"/>
</g>
<!-- Node15&#45;&gt;Node4 -->
<g id="edge34" class="edge"><title>Node15&#45;&gt;Node4</title>
<path fill="none" stroke="midnightblue" d="M236.78,-454.166C292.408,-446.143 368.44,-435.177 419.954,-427.747"/>
<polygon fill="midnightblue" stroke="midnightblue" points="236.039,-450.737 226.641,-455.629 237.038,-457.665 236.039,-450.737"/>
</g>
<!-- Node16&#45;&gt;Node5 -->
<g id="edge40" class="edge"><title>Node16&#45;&gt;Node5</title>
<path fill="none" stroke="midnightblue" d="M394.064,-270.126C435.77,-270.034 489.699,-265.583 534,-247.519 560.576,-236.683 585.112,-213.106 598.475,-198.644"/>
<polygon fill="midnightblue" stroke="midnightblue" points="394.031,-266.625 384.01,-270.065 393.988,-273.625 394.031,-266.625"/>
</g>
<!-- Node17&#45;&gt;Node5 -->
<g id="edge44" class="edge"><title>Node17&#45;&gt;Node5</title>
<path fill="none" stroke="midnightblue" d="M526.341,-211.567C540.718,-207.211 556.224,-202.512 569.878,-198.374"/>
<polygon fill="midnightblue" stroke="midnightblue" points="525.16,-208.268 516.604,-214.518 527.19,-214.967 525.16,-208.268"/>
</g>
<!-- Node18&#45;&gt;Node5 -->
<g id="edge50" class="edge"><title>Node18&#45;&gt;Node5</title>
<path fill="none" stroke="midnightblue" d="M382.94,-186.519C438.187,-186.519 521.253,-186.519 569.811,-186.519"/>
<polygon fill="midnightblue" stroke="midnightblue" points="382.622,-183.019 372.622,-186.519 382.622,-190.019 382.622,-183.019"/>
</g>
<!-- Node19&#45;&gt;Node5 -->
<g id="edge54" class="edge"><title>Node19&#45;&gt;Node5</title>
<path fill="none" stroke="midnightblue" d="M526.341,-161.471C540.718,-165.828 556.224,-170.526 569.878,-174.664"/>
<polygon fill="midnightblue" stroke="midnightblue" points="527.19,-158.071 516.604,-158.52 525.16,-164.77 527.19,-158.071"/>
</g>
<!-- Node20&#45;&gt;Node5 -->
<g id="edge58" class="edge"><title>Node20&#45;&gt;Node5</title>
<path fill="none" stroke="midnightblue" d="M385.948,-102.949C428.587,-102.475 486.766,-106.259 534,-125.519 560.576,-136.356 585.112,-159.932 598.475,-174.394"/>
<polygon fill="midnightblue" stroke="midnightblue" points="385.664,-99.4538 375.733,-103.147 385.799,-106.452 385.664,-99.4538"/>
</g>
<!-- Node21&#45;&gt;Node5 -->
<g id="edge62" class="edge"><title>Node21&#45;&gt;Node5</title>
<path fill="none" stroke="midnightblue" d="M519.628,-83.2291C524.686,-85.9915 529.605,-89.0898 534,-92.5192 564.449,-116.281 590.057,-154.789 601.919,-174.322"/>
<polygon fill="midnightblue" stroke="midnightblue" points="520.964,-79.9835 510.457,-78.6207 517.821,-86.2382 520.964,-79.9835"/>
</g>
<!-- Node22&#45;&gt;Node5 -->
<g id="edge66" class="edge"><title>Node22&#45;&gt;Node5</title>
<path fill="none" stroke="midnightblue" d="M226.064,-12.5421C304.049,1.72336 440.123,14.2164 534,-45.5192 581.253,-75.5869 600.631,-145.993 606.704,-174.358"/>
<polygon fill="midnightblue" stroke="midnightblue" points="225.091,-9.16404 215.92,-14.4679 226.397,-16.0412 225.091,-9.16404"/>
</g>
</g>
</svg>
        <g id="navigator" transform="translate(0 0)" fill="#404254">
                <rect fill="#f2f5e9" fill-opacity="0.5" stroke="#606060" stroke-width=".5" x="0" y="0" width="60" height="60"/>
                <use id="zoomplus" xlink:href="#zoomPlus" x="17" y="9" onmousedown="handleZoom(evt,'in')"/>
                <use id="zoomminus" xlink:href="#zoomMin" x="42" y="9" onmousedown="handleZoom(evt,'out')"/>
                <use id="reset" xlink:href="#resetDef" x="30" y="36" onmousedown="handleReset()"/>
                <g id="arrowUp" xlink:href="#dirArrow" transform="translate(30 24)" onmousedown="handlePan(0,-1)">
                  <use xlink:href="#rim" fill="#404040">
                        <set attributeName="fill" to="#808080" begin="arrowUp.mouseover" end="arrowUp.mouseout"/>
                  </use>
                  <path fill="none" stroke="white" stroke-width="1.5" d="M0,-3.0v7 M-2.5,-0.5L0,-3.0L2.5,-0.5"/>
                </g>
                <g id="arrowRight" xlink:href="#dirArrow" transform="rotate(90) translate(36 -43)" onmousedown="handlePan(1,0)">
                  <use xlink:href="#rim" fill="#404040">
                        <set attributeName="fill" to="#808080" begin="arrowRight.mouseover" end="arrowRight.mouseout"/>
                  </use>
                  <path fill="none" stroke="white" stroke-width="1.5" d="M0,-3.0v7 M-2.5,-0.5L0,-3.0L2.5,-0.5"/>
                </g>
                <g id="arrowDown" xlink:href="#dirArrow" transform="rotate(180) translate(-30 -48)" onmousedown="handlePan(0,1)">
                  <use xlink:href="#rim" fill="#404040">
                        <set attributeName="fill" to="#808080" begin="arrowDown.mouseover" end="arrowDown.mouseout"/>
                  </use>
                  <path fill="none" stroke="white" stroke-width="1.5" d="M0,-3.0v7 M-2.5,-0.5L0,-3.0L2.5,-0.5"/>
                </g>
                <g id="arrowLeft" xlink:href="#dirArrow" transform="rotate(270) translate(-36 17)" onmousedown="handlePan(-1,0)">
                  <use xlink:href="#rim" fill="#404040">
                        <set attributeName="fill" to="#808080" begin="arrowLeft.mouseover" end="arrowLeft.mouseout"/>
                  </use>
                  <path fill="none" stroke="white" stroke-width="1.5" d="M0,-3.0v7 M-2.5,-0.5L0,-3.0L2.5,-0.5"/>
                </g>
        </g>
        <svg viewBox="0 0 15 15" width="100%" height="30px" preserveAspectRatio="xMaxYMin meet">
         <g id="arrow_out" transform="scale(0.3 0.3)">
          <a xlink:href="saves__export__pdf2_8cpp_a1a1844495417accb24171750e5061c93_icgraph_org.svg" target="_base">
           <rect id="button" ry="5" rx="5" y="6" x="6" height="38" width="38"
                fill="#f2f5e9" fill-opacity="0.5" stroke="#606060" stroke-width="1.0"/>
           <path id="arrow"
             d="M 11.500037,31.436501 C 11.940474,20.09759 22.043105,11.32322 32.158766,21.979434 L 37.068811,17.246167 C 37.068811,17.246167 37.088388,32 37.088388,32 L 22.160133,31.978069 C 22.160133,31.978069 26.997745,27.140456 26.997745,27.140456 C 18.528582,18.264221 13.291696,25.230495 11.500037,31.436501 z"
             style="fill:#404040;"/>
          </a>
         </g>
        </svg>
</svg>
