<?xml version="1.0" encoding="UTF-8" standalone="no"?>
<!DOCTYPE svg PUBLIC "-//W3C//DTD SVG 1.1//EN"
 "http://www.w3.org/Graphics/SVG/1.1/DTD/svg11.dtd">
<!-- Generated by graphviz version 2.26.3 (20100126.1600)
 -->
<!-- Title: Save_Menu Pages: 1 -->
<svg width="392pt" height="32pt"
 viewBox="0.00 0.00 392.00 32.00" xmlns="http://www.w3.org/2000/svg" xmlns:xlink="http://www.w3.org/1999/xlink">
<g id="graph1" class="graph" transform="scale(1 1) rotate(0) translate(4 28)">
<title>Save_Menu</title>
<polygon fill="white" stroke="white" points="-4,5 -4,-28 389,-28 389,5 -4,5"/>
<!-- Node1 -->
<g id="node1" class="node"><title>Node1</title>
<polygon fill="#bfbfbf" stroke="black" points="0,-0 0,-24 68,-24 68,-0 0,-0"/>
<text text-anchor="middle" x="34" y="-11" font-family="Helvetica,sans-Serif" font-size="10.00">Save_Menu</text>
</g>
<!-- Node2 -->
<g id="node3" class="node"><title>Node2</title>
<a xlink:href="graphics__rebuild1_8cpp.html#ac2eae1e03fb72cc734ffbcef566483bf" target="_top" xlink:title="Boxes">
<polygon fill="white" stroke="black" points="104,-0 104,-24 148,-24 148,-0 104,-0"/>
<text text-anchor="middle" x="126" y="-11" font-family="Helvetica,sans-Serif" font-size="10.00">Boxes</text>
</a>
</g>
<!-- Node1&#45;&gt;Node2 -->
<g id="edge2" class="edge"><title>Node1&#45;&gt;Node2</title>
<path fill="none" stroke="midnightblue" d="M78.5345,-12C87.3844,-12 96.3067,-12 103.989,-12"/>
<polygon fill="midnightblue" stroke="midnightblue" points="78.2574,-8.5001 68.2574,-12 78.2574,-15.5001 78.2574,-8.5001"/>
</g>
<!-- Node3 -->
<g id="node5" class="node"><title>Node3</title>
<a xlink:href="_m_a_i_n__avec__objets_8cpp.html#ade8d4ba65d55c94f8ee277829d722155" target="_top" xlink:title="main_actions_on_screen">
<polygon fill="white" stroke="black" points="184.5,-0 184.5,-24 309.5,-24 309.5,-0 184.5,-0"/>
<text text-anchor="middle" x="247" y="-11" font-family="Helvetica,sans-Serif" font-size="10.00">main_actions_on_screen</text>
</a>
</g>
<!-- Node2&#45;&gt;Node3 -->
<g id="edge4" class="edge"><title>Node2&#45;&gt;Node3</title>
<path fill="none" stroke="midnightblue" d="M158.244,-12C166.32,-12 175.263,-12 184.271,-12"/>
<polygon fill="midnightblue" stroke="midnightblue" points="158.193,-8.5001 148.193,-12 158.193,-15.5001 158.193,-8.5001"/>
</g>
<!-- Node4 -->
<g id="node7" class="node"><title>Node4</title>
<a xlink:href="_m_a_i_n__avec__objets_8cpp.html#ae66f6b31b5ad750f1fe042a706a4e3d4" target="_top" xlink:title="main">
<polygon fill="white" stroke="black" points="346,-0 346,-24 384,-24 384,-0 346,-0"/>
<text text-anchor="middle" x="365" y="-11" font-family="Helvetica,sans-Serif" font-size="10.00">main</text>
</a>
</g>
<!-- Node3&#45;&gt;Node4 -->
<g id="edge6" class="edge"><title>Node3&#45;&gt;Node4</title>
<path fill="none" stroke="midnightblue" d="M319.837,-12C329.336,-12 338.327,-12 345.749,-12"/>
<polygon fill="midnightblue" stroke="midnightblue" points="319.8,-8.5001 309.8,-12 319.8,-15.5001 319.8,-8.5001"/>
</g>
</g>
</svg>
