<?xml version="1.0" encoding="UTF-8" standalone="no"?>
<!DOCTYPE svg PUBLIC "-//W3C//DTD SVG 1.1//EN"
 "http://www.w3.org/Graphics/SVG/1.1/DTD/svg11.dtd">
<!-- Generated by graphviz version 2.26.3 (20100126.1600)
 -->
<!-- Title: draw_section Pages: 1 -->
<svg width="360pt" height="32pt"
 viewBox="0.00 0.00 360.00 32.00" xmlns="http://www.w3.org/2000/svg" xmlns:xlink="http://www.w3.org/1999/xlink">
<g id="graph1" class="graph" transform="scale(1 1) rotate(0) translate(4 28)">
<title>draw_section</title>
<polygon fill="white" stroke="white" points="-4,5 -4,-28 357,-28 357,5 -4,5"/>
<!-- Node1 -->
<g id="node1" class="node"><title>Node1</title>
<polygon fill="#bfbfbf" stroke="black" points="0,-0 0,-24 74,-24 74,-0 0,-0"/>
<text text-anchor="middle" x="37" y="-11" font-family="Helvetica,sans-Serif" font-size="10.00">draw_section</text>
</g>
<!-- Node2 -->
<g id="node3" class="node"><title>Node2</title>
<a xlink:href="saves__export__pdf2_8cpp.html#a78c387c9fcc74472a17483a32c23182c" target="_top" xlink:title="verification_fin_de_page">
<polygon fill="white" stroke="black" points="110,-0 110,-24 232,-24 232,-0 110,-0"/>
<text text-anchor="middle" x="171" y="-11" font-family="Helvetica,sans-Serif" font-size="10.00">verification_fin_de_page</text>
</a>
</g>
<!-- Node1&#45;&gt;Node2 -->
<g id="edge2" class="edge"><title>Node1&#45;&gt;Node2</title>
<path fill="none" stroke="midnightblue" d="M74.3265,-12C82.3724,-12 91.1338,-12 99.989,-12"/>
<polygon fill="midnightblue" stroke="midnightblue" points="99.9935,-15.5001 109.993,-12 99.9935,-8.5001 99.9935,-15.5001"/>
</g>
<!-- Node3 -->
<g id="node5" class="node"><title>Node3</title>
<a xlink:href="saves__export__pdf2_8cpp.html#aa2c18df7ab96478bd156fc2830bd7328" target="_top" xlink:title="draw_numpage">
<polygon fill="white" stroke="black" points="268.5,-0 268.5,-24 351.5,-24 351.5,-0 268.5,-0"/>
<text text-anchor="middle" x="310" y="-11" font-family="Helvetica,sans-Serif" font-size="10.00">draw_numpage</text>
</a>
</g>
<!-- Node2&#45;&gt;Node3 -->
<g id="edge4" class="edge"><title>Node2&#45;&gt;Node3</title>
<path fill="none" stroke="midnightblue" d="M232.372,-12C240.955,-12 249.706,-12 258.09,-12"/>
<polygon fill="midnightblue" stroke="midnightblue" points="258.101,-15.5001 268.101,-12 258.101,-8.5001 258.101,-15.5001"/>
</g>
</g>
</svg>
