<?xml version="1.0" encoding="UTF-8" standalone="no"?>
<!DOCTYPE svg PUBLIC "-//W3C//DTD SVG 1.1//EN"
 "http://www.w3.org/Graphics/SVG/1.1/DTD/svg11.dtd">
<!-- Generated by graphviz version 2.26.3 (20100126.1600)
 -->
<!-- Title: Show_report_save_load Pages: 1 -->
<svg width="1062pt" height="172pt"
 viewBox="0.00 0.00 1062.00 171.89" xmlns="http://www.w3.org/2000/svg" xmlns:xlink="http://www.w3.org/1999/xlink">
<g id="graph1" class="graph" transform="scale(1 1) rotate(0) translate(4 167.89)">
<title>Show_report_save_load</title>
<polygon fill="white" stroke="white" points="-4,5 -4,-167.89 1059,-167.89 1059,5 -4,5"/>
<!-- Node1 -->
<g id="node1" class="node"><title>Node1</title>
<polygon fill="#bfbfbf" stroke="black" points="0.5,-113.89 0.5,-137.89 121.5,-137.89 121.5,-113.89 0.5,-113.89"/>
<text text-anchor="middle" x="61" y="-124.89" font-family="Helvetica,sans-Serif" font-size="10.00">Show_report_save_load</text>
</g>
<!-- Node2 -->
<g id="node3" class="node"><title>Node2</title>
<a xlink:href="graphics__rebuild1_8cpp.html#ac2eae1e03fb72cc734ffbcef566483bf" target="_top" xlink:title="Boxes">
<polygon fill="white" stroke="black" points="744,-73.8903 744,-97.8903 788,-97.8903 788,-73.8903 744,-73.8903"/>
<text text-anchor="middle" x="766" y="-84.8903" font-family="Helvetica,sans-Serif" font-size="10.00">Boxes</text>
</a>
</g>
<!-- Node1&#45;&gt;Node2 -->
<g id="edge2" class="edge"><title>Node1&#45;&gt;Node2</title>
<path fill="none" stroke="midnightblue" d="M131.821,-125.89C186.499,-125.89 264.043,-125.89 332,-125.89 332,-125.89 332,-125.89 498,-125.89 578.444,-125.89 598.711,-120.477 678,-106.89 700.602,-103.017 726.047,-96.7314 743.739,-92.0447"/>
<polygon fill="midnightblue" stroke="midnightblue" points="131.543,-122.39 121.543,-125.89 131.543,-129.39 131.543,-122.39"/>
</g>
<!-- Node4 -->
<g id="node7" class="node"><title>Node4</title>
<a xlink:href="_m_a_i_n__avec__objets_8cpp.html#ae66f6b31b5ad750f1fe042a706a4e3d4" target="_top" xlink:title="main">
<polygon fill="white" stroke="black" points="1016,-52.8903 1016,-76.8903 1054,-76.8903 1054,-52.8903 1016,-52.8903"/>
<text text-anchor="middle" x="1035" y="-63.8903" font-family="Helvetica,sans-Serif" font-size="10.00">main</text>
</a>
</g>
<!-- Node1&#45;&gt;Node4 -->
<g id="edge8" class="edge"><title>Node1&#45;&gt;Node4</title>
<path fill="none" stroke="midnightblue" d="M124.574,-139.905C179.271,-150.735 260.44,-163.89 332,-163.89 332,-163.89 332,-163.89 766,-163.89 864.427,-163.89 891.641,-150.255 980,-106.89 995.747,-99.1622 1011.42,-86.5882 1021.98,-77.2092"/>
<polygon fill="midnightblue" stroke="midnightblue" points="125.172,-136.455 114.678,-137.914 123.791,-143.318 125.172,-136.455"/>
</g>
<!-- Node5 -->
<g id="node10" class="node"><title>Node5</title>
<a xlink:href="save__show__13_8cpp.html#a8330f725aa2c729bdce098aa4b187589" target="_top" xlink:title="Load_Show">
<polygon fill="white" stroke="black" points="158,-52.8903 158,-76.8903 226,-76.8903 226,-52.8903 158,-52.8903"/>
<text text-anchor="middle" x="192" y="-63.8903" font-family="Helvetica,sans-Serif" font-size="10.00">Load_Show</text>
</a>
</g>
<!-- Node1&#45;&gt;Node5 -->
<g id="edge10" class="edge"><title>Node1&#45;&gt;Node5</title>
<path fill="none" stroke="midnightblue" d="M96.2371,-109.482C118.279,-99.2185 146.181,-86.2259 166.172,-76.9169"/>
<polygon fill="midnightblue" stroke="midnightblue" points="94.4693,-106.444 86.8814,-113.839 97.4242,-112.79 94.4693,-106.444"/>
</g>
<!-- Node3 -->
<g id="node5" class="node"><title>Node3</title>
<a xlink:href="_m_a_i_n__avec__objets_8cpp.html#ade8d4ba65d55c94f8ee277829d722155" target="_top" xlink:title="main_actions_on_screen">
<polygon fill="white" stroke="black" points="854.5,-73.8903 854.5,-97.8903 979.5,-97.8903 979.5,-73.8903 854.5,-73.8903"/>
<text text-anchor="middle" x="917" y="-84.8903" font-family="Helvetica,sans-Serif" font-size="10.00">main_actions_on_screen</text>
</a>
</g>
<!-- Node2&#45;&gt;Node3 -->
<g id="edge4" class="edge"><title>Node2&#45;&gt;Node3</title>
<path fill="none" stroke="midnightblue" d="M798.395,-85.8903C814.76,-85.8903 835.187,-85.8903 854.455,-85.8903"/>
<polygon fill="midnightblue" stroke="midnightblue" points="798.281,-82.3904 788.281,-85.8903 798.281,-89.3904 798.281,-82.3904"/>
</g>
<!-- Node3&#45;&gt;Node4 -->
<g id="edge6" class="edge"><title>Node3&#45;&gt;Node4</title>
<path fill="none" stroke="midnightblue" d="M989.837,-72.9277C999.336,-71.2374 1008.33,-69.6372 1015.75,-68.3164"/>
<polygon fill="midnightblue" stroke="midnightblue" points="989.032,-69.5159 979.8,-74.714 990.259,-76.4076 989.032,-69.5159"/>
</g>
<!-- Node5&#45;&gt;Node4 -->
<g id="edge12" class="edge"><title>Node5&#45;&gt;Node4</title>
<path fill="none" stroke="midnightblue" d="M215.708,-46.9041C228.678,-38.0678 245.443,-28.2008 262,-22.8903 362.2,9.24831 392.772,-3.89029 498,-3.89029 498,-3.89029 498,-3.89029 766,-3.89029 861.485,-3.89029 890.989,11.6709 980,-22.8903 996.8,-29.4132 1012.79,-42.7117 1023.16,-52.6061"/>
<polygon fill="midnightblue" stroke="midnightblue" points="213.529,-44.1579 207.384,-52.7882 217.57,-49.874 213.529,-44.1579"/>
</g>
<!-- Node6 -->
<g id="node13" class="node"><title>Node6</title>
<a xlink:href="save__show__13_8cpp.html#a1eafc1ecb75f36c1fe85c967bdea99b0" target="_top" xlink:title="load_the_show">
<polygon fill="white" stroke="black" points="291,-31.8903 291,-55.8903 373,-55.8903 373,-31.8903 291,-31.8903"/>
<text text-anchor="middle" x="332" y="-42.8903" font-family="Helvetica,sans-Serif" font-size="10.00">load_the_show</text>
</a>
</g>
<!-- Node5&#45;&gt;Node6 -->
<g id="edge14" class="edge"><title>Node5&#45;&gt;Node6</title>
<path fill="none" stroke="midnightblue" d="M236.219,-58.2575C253.712,-55.6335 273.702,-52.635 290.879,-50.0585"/>
<polygon fill="midnightblue" stroke="midnightblue" points="235.618,-54.8083 226.248,-59.7531 236.656,-61.7309 235.618,-54.8083"/>
</g>
<!-- Node12 -->
<g id="node27" class="node"><title>Node12</title>
<a xlink:href="save__show__13_8cpp.html#a2c8ff847dfaf2dc6c8765b2bee26edfc" target="_top" xlink:title="do_wizard_reload_from_disk">
<polygon fill="white" stroke="black" points="262,-73.8903 262,-97.8903 402,-97.8903 402,-73.8903 262,-73.8903"/>
<text text-anchor="middle" x="332" y="-84.8903" font-family="Helvetica,sans-Serif" font-size="10.00">do_wizard_reload_from_disk</text>
</a>
</g>
<!-- Node5&#45;&gt;Node12 -->
<g id="edge30" class="edge"><title>Node5&#45;&gt;Node12</title>
<path fill="none" stroke="midnightblue" d="M236.282,-71.5326C244.466,-72.7602 253.194,-74.0695 261.925,-75.379"/>
<polygon fill="midnightblue" stroke="midnightblue" points="236.656,-68.0497 226.248,-70.0275 235.618,-74.9722 236.656,-68.0497"/>
</g>
<!-- Node7 -->
<g id="node15" class="node"><title>Node7</title>
<a xlink:href="logicals__intres_8cpp.html#a74cf9c04c734ab342f88799efbfc4210" target="_top" xlink:title="operations_confirmation">
<polygon fill="white" stroke="black" points="438,-52.8903 438,-76.8903 558,-76.8903 558,-52.8903 438,-52.8903"/>
<text text-anchor="middle" x="498" y="-63.8903" font-family="Helvetica,sans-Serif" font-size="10.00">operations_confirmation</text>
</a>
</g>
<!-- Node6&#45;&gt;Node7 -->
<g id="edge16" class="edge"><title>Node6&#45;&gt;Node7</title>
<path fill="none" stroke="midnightblue" d="M383.422,-50.3955C400.599,-52.5685 419.896,-55.0097 437.687,-57.2603"/>
<polygon fill="midnightblue" stroke="midnightblue" points="383.394,-46.8641 373.034,-49.0813 382.515,-53.8088 383.394,-46.8641"/>
</g>
<!-- Node8 -->
<g id="node17" class="node"><title>Node8</title>
<a xlink:href="keyboard__functions2_8cpp.html#a548548066307f816c5021de7d6e4f26a" target="_top" xlink:title="key_affectation">
<polygon fill="white" stroke="black" points="594.5,-31.8903 594.5,-55.8903 677.5,-55.8903 677.5,-31.8903 594.5,-31.8903"/>
<text text-anchor="middle" x="636" y="-42.8903" font-family="Helvetica,sans-Serif" font-size="10.00">key_affectation</text>
</a>
</g>
<!-- Node7&#45;&gt;Node8 -->
<g id="edge18" class="edge"><title>Node7&#45;&gt;Node8</title>
<path fill="none" stroke="midnightblue" d="M568.19,-54.2093C577.12,-52.8503 586.024,-51.4953 594.303,-50.2355"/>
<polygon fill="midnightblue" stroke="midnightblue" points="567.487,-50.7758 558.127,-55.7405 568.54,-57.6961 567.487,-50.7758"/>
</g>
<!-- Node11 -->
<g id="node24" class="node"><title>Node11</title>
<a xlink:href="logicals__intres_8cpp.html#a85967c22135715eca94d08af2ec1a1fb" target="_top" xlink:title="fenetre_confirm">
<polygon fill="white" stroke="black" points="594,-73.8903 594,-97.8903 678,-97.8903 678,-73.8903 594,-73.8903"/>
<text text-anchor="middle" x="636" y="-84.8903" font-family="Helvetica,sans-Serif" font-size="10.00">fenetre_confirm</text>
</a>
</g>
<!-- Node7&#45;&gt;Node11 -->
<g id="edge26" class="edge"><title>Node7&#45;&gt;Node11</title>
<path fill="none" stroke="midnightblue" d="M568.07,-75.5531C576.894,-76.8959 585.695,-78.2352 593.896,-79.4831"/>
<polygon fill="midnightblue" stroke="midnightblue" points="568.54,-72.0844 558.127,-74.0401 567.487,-79.0048 568.54,-72.0844"/>
</g>
<!-- Node9 -->
<g id="node19" class="node"><title>Node9</title>
<a xlink:href="keyboard__routines2_8cpp.html#a8563320b8eab661232619224650de244" target="_top" xlink:title="commandes_clavier">
<polygon fill="white" stroke="black" points="714,-31.8903 714,-55.8903 818,-55.8903 818,-31.8903 714,-31.8903"/>
<text text-anchor="middle" x="766" y="-42.8903" font-family="Helvetica,sans-Serif" font-size="10.00">commandes_clavier</text>
</a>
</g>
<!-- Node8&#45;&gt;Node9 -->
<g id="edge20" class="edge"><title>Node8&#45;&gt;Node9</title>
<path fill="none" stroke="midnightblue" d="M687.995,-43.8903C696.473,-43.8903 705.258,-43.8903 713.742,-43.8903"/>
<polygon fill="midnightblue" stroke="midnightblue" points="687.848,-40.3904 677.848,-43.8903 687.848,-47.3904 687.848,-40.3904"/>
</g>
<!-- Node10 -->
<g id="node21" class="node"><title>Node10</title>
<a xlink:href="_m_a_i_n__avec__objets_8cpp.html#a8e80f54ac804eddce8ed6e45adb1db44" target="_top" xlink:title="ticker_full_loop">
<polygon fill="white" stroke="black" points="876,-31.8903 876,-55.8903 958,-55.8903 958,-31.8903 876,-31.8903"/>
<text text-anchor="middle" x="917" y="-42.8903" font-family="Helvetica,sans-Serif" font-size="10.00">ticker_full_loop</text>
</a>
</g>
<!-- Node9&#45;&gt;Node10 -->
<g id="edge22" class="edge"><title>Node9&#45;&gt;Node10</title>
<path fill="none" stroke="midnightblue" d="M828.664,-43.8903C844.516,-43.8903 861.147,-43.8903 875.648,-43.8903"/>
<polygon fill="midnightblue" stroke="midnightblue" points="828.389,-40.3904 818.389,-43.8903 828.389,-47.3904 828.389,-40.3904"/>
</g>
<!-- Node10&#45;&gt;Node4 -->
<g id="edge24" class="edge"><title>Node10&#45;&gt;Node4</title>
<path fill="none" stroke="midnightblue" d="M968.55,-53.0644C985.307,-56.0466 1002.88,-59.1738 1015.74,-61.463"/>
<polygon fill="midnightblue" stroke="midnightblue" points="968.729,-49.5414 958.271,-51.2351 967.503,-56.4331 968.729,-49.5414"/>
</g>
<!-- Node11&#45;&gt;Node2 -->
<g id="edge28" class="edge"><title>Node11&#45;&gt;Node2</title>
<path fill="none" stroke="midnightblue" d="M688.4,-85.8903C707.658,-85.8903 728.45,-85.8903 743.66,-85.8903"/>
<polygon fill="midnightblue" stroke="midnightblue" points="688.207,-82.3904 678.207,-85.8903 688.207,-89.3904 688.207,-82.3904"/>
</g>
<!-- Node12&#45;&gt;Node7 -->
<g id="edge32" class="edge"><title>Node12&#45;&gt;Node7</title>
<path fill="none" stroke="midnightblue" d="M412.451,-75.7128C421.047,-74.6254 429.679,-73.5333 437.979,-72.4834"/>
<polygon fill="midnightblue" stroke="midnightblue" points="411.881,-72.2569 402.399,-76.9844 412.759,-79.2016 411.881,-72.2569"/>
</g>
</g>
</svg>
