<?xml version="1.0" encoding="UTF-8" standalone="no"?>
<!DOCTYPE svg PUBLIC "-//W3C//DTD SVG 1.1//EN"
 "http://www.w3.org/Graphics/SVG/1.1/DTD/svg11.dtd">
<!-- Generated by graphviz version 2.26.3 (20100126.1600)
 -->
<!-- Title: Save_Audio_Conf Pages: 1 -->
<!--zoomable 182 -->
<svg id="main" version="1.1" xmlns="http://www.w3.org/2000/svg" xmlns:xlink="http://www.w3.org/1999/xlink" xml:space="preserve" onload="init(evt)">
<style type="text/css"><![CDATA[
.edge:hover path { stroke: red; }
.edge:hover polygon { stroke: red; fill: red; }
]]></style>
<script type="text/javascript"><![CDATA[
var edges = document.getElementsByTagName('g');
if (edges && edges.length) {
  for (var i=0;i<edges.length;i++) {
    if (edges[i].id.substr(0,4)=='edge') {
      edges[i].setAttribute('class','edge');
    }
  }
}
]]></script>
        <defs>
                <circle id="rim" cx="0" cy="0" r="7"/>
                <circle id="rim2" cx="0" cy="0" r="3.5"/>
                <g id="zoomPlus">
                        <use xlink:href="#rim" fill="#404040">
                                <set attributeName="fill" to="#808080" begin="zoomplus.mouseover" end="zoomplus.mouseout"/>
                        </use>
                        <path d="M-4,0h8M0,-4v8" fill="none" stroke="white" stroke-width="1.5" pointer-events="none"/>
                </g>
                <g id="zoomMin">
                        <use xlink:href="#rim" fill="#404040">
                                <set attributeName="fill" to="#808080" begin="zoomminus.mouseover" end="zoomminus.mouseout"/>
                        </use>
                        <path d="M-4,0h8" fill="none" stroke="white" stroke-width="1.5" pointer-events="none"/>
                </g>
                <g id="dirArrow">
                        <path fill="none" stroke="white" stroke-width="1.5" d="M0,-3.0v7 M-2.5,-0.5L0,-3.0L2.5,-0.5"/>
                </g>
               <g id="resetDef">
                       <use xlink:href="#rim2" fill="#404040">
                               <set attributeName="fill" to="#808080" begin="reset.mouseover" end="reset.mouseout"/>
                       </use>
               </g>
        </defs>

<script type="text/javascript">
var viewWidth = 984;
var viewHeight = 182;
var sectionId = 'dynsection-29';
</script>
<script xlink:href="svgpan.js"/>
<svg id="graph" class="graph">
<g id="viewport">
<title>Save_Audio_Conf</title>
<polygon fill="white" stroke="white" points="-4,5 -4,-178 981,-178 981,5 -4,5"/>
<!-- Node1 -->
<g id="node1" class="node"><title>Node1</title>
<polygon fill="#bfbfbf" stroke="black" points="0.5,-101 0.5,-125 95.5,-125 95.5,-101 0.5,-101"/>
<text text-anchor="middle" x="48" y="-112" font-family="Helvetica,sans-Serif" font-size="10.00">Save_Audio_Conf</text>
</g>
<!-- Node2 -->
<g id="node3" class="node"><title>Node2</title>
<a xlink:href="save__show__13_8cpp.html#ada1116462104df2f0db8774b30c326b1" target="_top" xlink:title="Save_Show">
<polygon fill="white" stroke="black" points="132.5,-101 132.5,-125 201.5,-125 201.5,-101 132.5,-101"/>
<text text-anchor="middle" x="167" y="-112" font-family="Helvetica,sans-Serif" font-size="10.00">Save_Show</text>
</a>
</g>
<!-- Node1&#45;&gt;Node2 -->
<g id="edge2" class="edge"><title>Node1&#45;&gt;Node2</title>
<path fill="none" stroke="midnightblue" d="M105.906,-113C114.989,-113 124.123,-113 132.458,-113"/>
<polygon fill="midnightblue" stroke="midnightblue" points="105.716,-109.5 95.7162,-113 105.716,-116.5 105.716,-109.5"/>
</g>
<!-- Node3 -->
<g id="node5" class="node"><title>Node3</title>
<a xlink:href="keyboard__routines2_8cpp.html#a8563320b8eab661232619224650de244" target="_top" xlink:title="commandes_clavier">
<polygon fill="white" stroke="black" points="636,-82 636,-106 740,-106 740,-82 636,-82"/>
<text text-anchor="middle" x="688" y="-93" font-family="Helvetica,sans-Serif" font-size="10.00">commandes_clavier</text>
</a>
</g>
<!-- Node2&#45;&gt;Node3 -->
<g id="edge4" class="edge"><title>Node2&#45;&gt;Node3</title>
<path fill="none" stroke="midnightblue" d="M211.842,-111.365C307.988,-107.858 533.525,-99.6334 635.861,-95.9014"/>
<polygon fill="midnightblue" stroke="midnightblue" points="211.454,-107.876 201.588,-111.739 211.709,-114.872 211.454,-107.876"/>
</g>
<!-- Node5 -->
<g id="node9" class="node"><title>Node5</title>
<a xlink:href="_m_a_i_n__avec__objets_8cpp.html#ae66f6b31b5ad750f1fe042a706a4e3d4" target="_top" xlink:title="main">
<polygon fill="white" stroke="black" points="938,-102 938,-126 976,-126 976,-102 938,-102"/>
<text text-anchor="middle" x="957" y="-113" font-family="Helvetica,sans-Serif" font-size="10.00">main</text>
</a>
</g>
<!-- Node2&#45;&gt;Node5 -->
<g id="edge14" class="edge"><title>Node2&#45;&gt;Node5</title>
<path fill="none" stroke="midnightblue" d="M206.424,-128.644C255.601,-146.718 342.646,-174 420,-174 420,-174 420,-174 688,-174 783.698,-174 894.052,-137.379 937.753,-121.357"/>
<polygon fill="midnightblue" stroke="midnightblue" points="207.407,-125.275 196.815,-125.052 204.956,-131.832 207.407,-125.275"/>
</g>
<!-- Node6 -->
<g id="node11" class="node"><title>Node6</title>
<a xlink:href="_m_a_i_n__avec__objets_8cpp.html#ace9c8a9b37c6087c3cffef442d71d70e" target="_top" xlink:title="dixiemes_de_secondes">
<polygon fill="white" stroke="black" points="360.5,-122 360.5,-146 479.5,-146 479.5,-122 360.5,-122"/>
<text text-anchor="middle" x="420" y="-133" font-family="Helvetica,sans-Serif" font-size="10.00">dixiemes_de_secondes</text>
</a>
</g>
<!-- Node2&#45;&gt;Node6 -->
<g id="edge10" class="edge"><title>Node2&#45;&gt;Node6</title>
<path fill="none" stroke="midnightblue" d="M211.678,-116.708C252.94,-120.133 314.546,-125.247 360.069,-129.025"/>
<polygon fill="midnightblue" stroke="midnightblue" points="211.903,-113.215 201.648,-115.876 211.324,-120.191 211.903,-113.215"/>
</g>
<!-- Node7 -->
<g id="node15" class="node"><title>Node7</title>
<a xlink:href="save__show__13_8cpp.html#aa07c40b35aac29aacbdbc9a427813085" target="_top" xlink:title="save_the_show">
<polygon fill="white" stroke="black" points="238.5,-42 238.5,-66 323.5,-66 323.5,-42 238.5,-42"/>
<text text-anchor="middle" x="281" y="-53" font-family="Helvetica,sans-Serif" font-size="10.00">save_the_show</text>
</a>
</g>
<!-- Node2&#45;&gt;Node7 -->
<g id="edge16" class="edge"><title>Node2&#45;&gt;Node7</title>
<path fill="none" stroke="midnightblue" d="M199.346,-96.2593C217.938,-86.6372 240.865,-74.7717 257.687,-66.0657"/>
<polygon fill="midnightblue" stroke="midnightblue" points="197.617,-93.2133 190.345,-100.918 200.835,-99.4301 197.617,-93.2133"/>
</g>
<!-- Node4 -->
<g id="node7" class="node"><title>Node4</title>
<a xlink:href="_m_a_i_n__avec__objets_8cpp.html#a8e80f54ac804eddce8ed6e45adb1db44" target="_top" xlink:title="ticker_full_loop">
<polygon fill="white" stroke="black" points="798,-82 798,-106 880,-106 880,-82 798,-82"/>
<text text-anchor="middle" x="839" y="-93" font-family="Helvetica,sans-Serif" font-size="10.00">ticker_full_loop</text>
</a>
</g>
<!-- Node3&#45;&gt;Node4 -->
<g id="edge6" class="edge"><title>Node3&#45;&gt;Node4</title>
<path fill="none" stroke="midnightblue" d="M750.664,-94C766.516,-94 783.147,-94 797.648,-94"/>
<polygon fill="midnightblue" stroke="midnightblue" points="750.389,-90.5001 740.389,-94 750.389,-97.5001 750.389,-90.5001"/>
</g>
<!-- Node4&#45;&gt;Node5 -->
<g id="edge8" class="edge"><title>Node4&#45;&gt;Node5</title>
<path fill="none" stroke="midnightblue" d="M890.55,-102.737C907.307,-105.577 924.879,-108.556 937.742,-110.736"/>
<polygon fill="midnightblue" stroke="midnightblue" points="890.715,-99.2154 880.271,-100.995 889.545,-106.117 890.715,-99.2154"/>
</g>
<!-- Node6&#45;&gt;Node5 -->
<g id="edge12" class="edge"><title>Node6&#45;&gt;Node5</title>
<path fill="none" stroke="midnightblue" d="M489.673,-131.405C613.767,-126.783 866.737,-117.362 937.959,-114.709"/>
<polygon fill="midnightblue" stroke="midnightblue" points="489.383,-127.913 479.52,-131.783 489.644,-134.909 489.383,-127.913"/>
</g>
<!-- Node8 -->
<g id="node17" class="node"><title>Node8</title>
<a xlink:href="logicals__intres_8cpp.html#a74cf9c04c734ab342f88799efbfc4210" target="_top" xlink:title="operations_confirmation">
<polygon fill="white" stroke="black" points="360,-42 360,-66 480,-66 480,-42 360,-42"/>
<text text-anchor="middle" x="420" y="-53" font-family="Helvetica,sans-Serif" font-size="10.00">operations_confirmation</text>
</a>
</g>
<!-- Node7&#45;&gt;Node8 -->
<g id="edge18" class="edge"><title>Node7&#45;&gt;Node8</title>
<path fill="none" stroke="midnightblue" d="M333.977,-54C342.461,-54 351.293,-54 359.927,-54"/>
<polygon fill="midnightblue" stroke="midnightblue" points="333.839,-50.5001 323.839,-54 333.839,-57.5001 333.839,-50.5001"/>
</g>
<!-- Node9 -->
<g id="node19" class="node"><title>Node9</title>
<a xlink:href="keyboard__functions2_8cpp.html#a548548066307f816c5021de7d6e4f26a" target="_top" xlink:title="key_affectation">
<polygon fill="white" stroke="black" points="516.5,-42 516.5,-66 599.5,-66 599.5,-42 516.5,-42"/>
<text text-anchor="middle" x="558" y="-53" font-family="Helvetica,sans-Serif" font-size="10.00">key_affectation</text>
</a>
</g>
<!-- Node8&#45;&gt;Node9 -->
<g id="edge20" class="edge"><title>Node8&#45;&gt;Node9</title>
<path fill="none" stroke="midnightblue" d="M490.19,-54C499.12,-54 508.024,-54 516.303,-54"/>
<polygon fill="midnightblue" stroke="midnightblue" points="490.127,-50.5001 480.127,-54 490.127,-57.5001 490.127,-50.5001"/>
</g>
<!-- Node10 -->
<g id="node22" class="node"><title>Node10</title>
<a xlink:href="logicals__intres_8cpp.html#a85967c22135715eca94d08af2ec1a1fb" target="_top" xlink:title="fenetre_confirm">
<polygon fill="white" stroke="black" points="516,-0 516,-24 600,-24 600,-0 516,-0"/>
<text text-anchor="middle" x="558" y="-11" font-family="Helvetica,sans-Serif" font-size="10.00">fenetre_confirm</text>
</a>
</g>
<!-- Node8&#45;&gt;Node10 -->
<g id="edge24" class="edge"><title>Node8&#45;&gt;Node10</title>
<path fill="none" stroke="midnightblue" d="M469.345,-38.9819C485.465,-34.0759 503.146,-28.6946 518.449,-24.0373"/>
<polygon fill="midnightblue" stroke="midnightblue" points="468.093,-35.7044 459.545,-41.9645 470.131,-42.4012 468.093,-35.7044"/>
</g>
<!-- Node9&#45;&gt;Node3 -->
<g id="edge22" class="edge"><title>Node9&#45;&gt;Node3</title>
<path fill="none" stroke="midnightblue" d="M606.818,-69.0209C620.6,-73.2615 635.418,-77.821 648.574,-81.8689"/>
<polygon fill="midnightblue" stroke="midnightblue" points="607.591,-65.597 597.004,-66.0013 605.533,-72.2875 607.591,-65.597"/>
</g>
<!-- Node11 -->
<g id="node24" class="node"><title>Node11</title>
<a xlink:href="graphics__rebuild1_8cpp.html#ac2eae1e03fb72cc734ffbcef566483bf" target="_top" xlink:title="Boxes">
<polygon fill="white" stroke="black" points="666,-10 666,-34 710,-34 710,-10 666,-10"/>
<text text-anchor="middle" x="688" y="-21" font-family="Helvetica,sans-Serif" font-size="10.00">Boxes</text>
</a>
</g>
<!-- Node10&#45;&gt;Node11 -->
<g id="edge26" class="edge"><title>Node10&#45;&gt;Node11</title>
<path fill="none" stroke="midnightblue" d="M610.4,-16.0308C629.658,-17.5122 650.45,-19.1115 665.66,-20.2816"/>
<polygon fill="midnightblue" stroke="midnightblue" points="610.446,-12.5241 600.207,-15.2467 609.909,-19.5035 610.446,-12.5241"/>
</g>
<!-- Node12 -->
<g id="node26" class="node"><title>Node12</title>
<a xlink:href="_m_a_i_n__avec__objets_8cpp.html#ade8d4ba65d55c94f8ee277829d722155" target="_top" xlink:title="main_actions_on_screen">
<polygon fill="white" stroke="black" points="776.5,-20 776.5,-44 901.5,-44 901.5,-20 776.5,-20"/>
<text text-anchor="middle" x="839" y="-31" font-family="Helvetica,sans-Serif" font-size="10.00">main_actions_on_screen</text>
</a>
</g>
<!-- Node11&#45;&gt;Node12 -->
<g id="edge28" class="edge"><title>Node11&#45;&gt;Node12</title>
<path fill="none" stroke="midnightblue" d="M720.395,-24.1454C736.76,-25.2291 757.187,-26.582 776.455,-27.8579"/>
<polygon fill="midnightblue" stroke="midnightblue" points="720.49,-20.6441 710.281,-23.4755 720.027,-27.6288 720.49,-20.6441"/>
</g>
<!-- Node12&#45;&gt;Node5 -->
<g id="edge30" class="edge"><title>Node12&#45;&gt;Node5</title>
<path fill="none" stroke="midnightblue" d="M866.69,-49.4805C877.775,-56.618 890.596,-65.0507 902,-73 915.483,-82.3986 930.412,-93.5785 941.31,-101.888"/>
<polygon fill="midnightblue" stroke="midnightblue" points="868.542,-46.5105 858.232,-44.0681 864.769,-52.4065 868.542,-46.5105"/>
</g>
</g>
</svg>
        <g id="navigator" transform="translate(0 0)" fill="#404254">
                <rect fill="#f2f5e9" fill-opacity="0.5" stroke="#606060" stroke-width=".5" x="0" y="0" width="60" height="60"/>
                <use id="zoomplus" xlink:href="#zoomPlus" x="17" y="9" onmousedown="handleZoom(evt,'in')"/>
                <use id="zoomminus" xlink:href="#zoomMin" x="42" y="9" onmousedown="handleZoom(evt,'out')"/>
                <use id="reset" xlink:href="#resetDef" x="30" y="36" onmousedown="handleReset()"/>
                <g id="arrowUp" xlink:href="#dirArrow" transform="translate(30 24)" onmousedown="handlePan(0,-1)">
                  <use xlink:href="#rim" fill="#404040">
                        <set attributeName="fill" to="#808080" begin="arrowUp.mouseover" end="arrowUp.mouseout"/>
                  </use>
                  <path fill="none" stroke="white" stroke-width="1.5" d="M0,-3.0v7 M-2.5,-0.5L0,-3.0L2.5,-0.5"/>
                </g>
                <g id="arrowRight" xlink:href="#dirArrow" transform="rotate(90) translate(36 -43)" onmousedown="handlePan(1,0)">
                  <use xlink:href="#rim" fill="#404040">
                        <set attributeName="fill" to="#808080" begin="arrowRight.mouseover" end="arrowRight.mouseout"/>
                  </use>
                  <path fill="none" stroke="white" stroke-width="1.5" d="M0,-3.0v7 M-2.5,-0.5L0,-3.0L2.5,-0.5"/>
                </g>
                <g id="arrowDown" xlink:href="#dirArrow" transform="rotate(180) translate(-30 -48)" onmousedown="handlePan(0,1)">
                  <use xlink:href="#rim" fill="#404040">
                        <set attributeName="fill" to="#808080" begin="arrowDown.mouseover" end="arrowDown.mouseout"/>
                  </use>
                  <path fill="none" stroke="white" stroke-width="1.5" d="M0,-3.0v7 M-2.5,-0.5L0,-3.0L2.5,-0.5"/>
                </g>
                <g id="arrowLeft" xlink:href="#dirArrow" transform="rotate(270) translate(-36 17)" onmousedown="handlePan(-1,0)">
                  <use xlink:href="#rim" fill="#404040">
                        <set attributeName="fill" to="#808080" begin="arrowLeft.mouseover" end="arrowLeft.mouseout"/>
                  </use>
                  <path fill="none" stroke="white" stroke-width="1.5" d="M0,-3.0v7 M-2.5,-0.5L0,-3.0L2.5,-0.5"/>
                </g>
        </g>
        <svg viewBox="0 0 15 15" width="100%" height="30px" preserveAspectRatio="xMaxYMin meet">
         <g id="arrow_out" transform="scale(0.3 0.3)">
          <a xlink:href="save__show__13_8cpp_a39f58e822efaceb4eaa6a72e9865bfb4_icgraph_org.svg" target="_base">
           <rect id="button" ry="5" rx="5" y="6" x="6" height="38" width="38"
                fill="#f2f5e9" fill-opacity="0.5" stroke="#606060" stroke-width="1.0"/>
           <path id="arrow"
             d="M 11.500037,31.436501 C 11.940474,20.09759 22.043105,11.32322 32.158766,21.979434 L 37.068811,17.246167 C 37.068811,17.246167 37.088388,32 37.088388,32 L 22.160133,31.978069 C 22.160133,31.978069 26.997745,27.140456 26.997745,27.140456 C 18.528582,18.264221 13.291696,25.230495 11.500037,31.436501 z"
             style="fill:#404040;"/>
          </a>
         </g>
        </svg>
</svg>
