<?xml version="1.0" encoding="UTF-8" standalone="no"?>
<!DOCTYPE svg PUBLIC "-//W3C//DTD SVG 1.1//EN"
 "http://www.w3.org/Graphics/SVG/1.1/DTD/svg11.dtd">
<!-- Generated by graphviz version 2.26.3 (20100126.1600)
 -->
<!-- Title: draw_pdf_grid_players_config Pages: 1 -->
<svg width="610pt" height="399pt"
 viewBox="0.00 0.00 610.00 399.33" xmlns="http://www.w3.org/2000/svg" xmlns:xlink="http://www.w3.org/1999/xlink">
<g id="graph1" class="graph" transform="scale(1 1) rotate(0) translate(4 395.335)">
<title>draw_pdf_grid_players_config</title>
<polygon fill="white" stroke="white" points="-4,5 -4,-395.335 607,-395.335 607,5 -4,5"/>
<!-- Node1 -->
<g id="node1" class="node"><title>Node1</title>
<polygon fill="#bfbfbf" stroke="black" points="0,-228 0,-268 114,-268 114,-228 0,-228"/>
<text text-anchor="start" x="8" y="-255" font-family="Helvetica,sans-Serif" font-size="10.00">draw_pdf_grid_players</text>
<text text-anchor="middle" x="57" y="-239" font-family="Helvetica,sans-Serif" font-size="10.00">_config</text>
</g>
<!-- Node2 -->
<g id="node3" class="node"><title>Node2</title>
<a xlink:href="saves__export__pdf2_8cpp.html#a0dbb3aa1de7a425bd7f638f927af20c2" target="_top" xlink:title="draw_title">
<polygon fill="white" stroke="black" points="184.5,-297 184.5,-321 243.5,-321 243.5,-297 184.5,-297"/>
<text text-anchor="middle" x="214" y="-308" font-family="Helvetica,sans-Serif" font-size="10.00">draw_title</text>
</a>
</g>
<!-- Node1&#45;&gt;Node2 -->
<g id="edge2" class="edge"><title>Node1&#45;&gt;Node2</title>
<path fill="none" stroke="midnightblue" d="M108.843,-268.143C130.335,-276.493 154.852,-286.019 174.804,-293.771"/>
<polygon fill="midnightblue" stroke="midnightblue" points="173.61,-297.062 184.198,-297.421 176.145,-290.537 173.61,-297.062"/>
</g>
<!-- Node3 -->
<g id="node5" class="node"><title>Node3</title>
<a xlink:href="saves__export__pdf2_8cpp.html#a78c387c9fcc74472a17483a32c23182c" target="_top" xlink:title="verification_fin_de_page">
<polygon fill="white" stroke="black" points="322,-340 322,-364 444,-364 444,-340 322,-340"/>
<text text-anchor="middle" x="383" y="-351" font-family="Helvetica,sans-Serif" font-size="10.00">verification_fin_de_page</text>
</a>
</g>
<!-- Node1&#45;&gt;Node3 -->
<g id="edge18" class="edge"><title>Node1&#45;&gt;Node3</title>
<path fill="none" stroke="midnightblue" d="M73.0908,-268.175C89.9653,-287.711 118.391,-316.323 150,-330 200.895,-352.023 263.75,-356.816 311.346,-356.492"/>
<polygon fill="midnightblue" stroke="midnightblue" points="311.618,-359.989 321.566,-356.343 311.516,-352.989 311.618,-359.989"/>
</g>
<!-- Node4 -->
<g id="node7" class="node"><title>Node4</title>
<a xlink:href="saves__export__pdf2_8cpp.html#aa2c18df7ab96478bd156fc2830bd7328" target="_top" xlink:title="draw_numpage">
<polygon fill="white" stroke="black" points="503.5,-340 503.5,-364 586.5,-364 586.5,-340 503.5,-340"/>
<text text-anchor="middle" x="545" y="-351" font-family="Helvetica,sans-Serif" font-size="10.00">draw_numpage</text>
</a>
</g>
<!-- Node1&#45;&gt;Node4 -->
<g id="edge14" class="edge"><title>Node1&#45;&gt;Node4</title>
<path fill="none" stroke="midnightblue" d="M67.7679,-268.006C82.5919,-293.331 111.843,-336.058 150,-356 261.683,-414.369 416.543,-386.886 495.059,-366.724"/>
<polygon fill="midnightblue" stroke="midnightblue" points="496.384,-369.994 505.162,-364.061 494.6,-363.225 496.384,-369.994"/>
</g>
<!-- Node5 -->
<g id="node9" class="node"><title>Node5</title>
<a xlink:href="saves__export__pdf2_8cpp.html#a1a1844495417accb24171750e5061c93" target="_top" xlink:title="draw_info">
<polygon fill="white" stroke="black" points="515.5,-134 515.5,-158 574.5,-158 574.5,-134 515.5,-134"/>
<text text-anchor="middle" x="545" y="-145" font-family="Helvetica,sans-Serif" font-size="10.00">draw_info</text>
</a>
</g>
<!-- Node1&#45;&gt;Node5 -->
<g id="edge8" class="edge"><title>Node1&#45;&gt;Node5</title>
<path fill="none" stroke="midnightblue" d="M65.783,-227.654C79.2717,-199.225 108.009,-148.571 150,-126 268.303,-62.4081 319.423,-93.4857 452,-115 470.678,-118.031 490.673,-124.276 507.319,-130.372"/>
<polygon fill="midnightblue" stroke="midnightblue" points="506.105,-133.655 516.697,-133.919 508.582,-127.108 506.105,-133.655"/>
</g>
<!-- Node6 -->
<g id="node11" class="node"><title>Node6</title>
<a xlink:href="saves__export__pdf2_8cpp.html#a84afdc9a6debcff66646f8f74158a1f9" target="_top" xlink:title="draw_pdf_gridayer_state">
<polygon fill="white" stroke="black" points="152.5,-135 152.5,-159 275.5,-159 275.5,-135 152.5,-135"/>
<text text-anchor="middle" x="214" y="-146" font-family="Helvetica,sans-Serif" font-size="10.00">draw_pdf_gridayer_state</text>
</a>
</g>
<!-- Node1&#45;&gt;Node6 -->
<g id="edge10" class="edge"><title>Node1&#45;&gt;Node6</title>
<path fill="none" stroke="midnightblue" d="M88.394,-227.804C117.015,-209.391 158.894,-182.45 186.298,-164.821"/>
<polygon fill="midnightblue" stroke="midnightblue" points="188.48,-167.579 194.996,-159.225 184.693,-161.692 188.48,-167.579"/>
</g>
<!-- Node7 -->
<g id="node15" class="node"><title>Node7</title>
<a xlink:href="saves__export__pdf2_8cpp.html#ae09ee0ce70af7f92a5b1cbf32f915835" target="_top" xlink:title="check_there_is_someone\l_in_grid">
<polygon fill="white" stroke="black" points="150,-0 150,-40 278,-40 278,-0 150,-0"/>
<text text-anchor="start" x="158" y="-27" font-family="Helvetica,sans-Serif" font-size="10.00">check_there_is_someone</text>
<text text-anchor="middle" x="214" y="-11" font-family="Helvetica,sans-Serif" font-size="10.00">_in_grid</text>
</a>
</g>
<!-- Node1&#45;&gt;Node7 -->
<g id="edge16" class="edge"><title>Node1&#45;&gt;Node7</title>
<path fill="none" stroke="midnightblue" d="M62.0569,-227.986C72.5765,-189.866 100.091,-106.015 150,-54 152.763,-51.1204 155.824,-48.4324 159.066,-45.9328"/>
<polygon fill="midnightblue" stroke="midnightblue" points="161.228,-48.6925 167.434,-40.1055 157.228,-42.9482 161.228,-48.6925"/>
</g>
<!-- Node8 -->
<g id="node18" class="node"><title>Node8</title>
<a xlink:href="saves__export__pdf2_8cpp.html#a7d6f602fcde4b6dae7d59591dbb8b265" target="_top" xlink:title="draw_pdf_grid">
<polygon fill="white" stroke="black" points="175.5,-216 175.5,-240 252.5,-240 252.5,-216 175.5,-216"/>
<text text-anchor="middle" x="214" y="-227" font-family="Helvetica,sans-Serif" font-size="10.00">draw_pdf_grid</text>
</a>
</g>
<!-- Node1&#45;&gt;Node8 -->
<g id="edge20" class="edge"><title>Node1&#45;&gt;Node8</title>
<path fill="none" stroke="midnightblue" d="M114.125,-240.723C130.811,-238.597 148.891,-236.294 165.024,-234.239"/>
<polygon fill="midnightblue" stroke="midnightblue" points="165.833,-237.664 175.311,-232.929 164.948,-230.72 165.833,-237.664"/>
</g>
<!-- Node13 -->
<g id="node31" class="node"><title>Node13</title>
<a xlink:href="saves__export__pdf2_8cpp.html#ac4d21355aeacfda2140c000bb566a67c" target="_top" xlink:title="saut_de_page">
<polygon fill="white" stroke="black" points="344.5,-298 344.5,-322 421.5,-322 421.5,-298 344.5,-298"/>
<text text-anchor="middle" x="383" y="-309" font-family="Helvetica,sans-Serif" font-size="10.00">saut_de_page</text>
</a>
</g>
<!-- Node1&#45;&gt;Node13 -->
<g id="edge40" class="edge"><title>Node1&#45;&gt;Node13</title>
<path fill="none" stroke="midnightblue" d="M114.319,-257.929C158.979,-265.773 222.51,-277.167 278,-288 296.337,-291.58 316.426,-295.732 334.077,-299.459"/>
<polygon fill="midnightblue" stroke="midnightblue" points="333.649,-302.945 344.157,-301.596 335.101,-296.098 333.649,-302.945"/>
</g>
<!-- Node2&#45;&gt;Node3 -->
<g id="edge4" class="edge"><title>Node2&#45;&gt;Node3</title>
<path fill="none" stroke="midnightblue" d="M243.825,-316.589C266.443,-322.343 298.219,-330.429 325.699,-337.421"/>
<polygon fill="midnightblue" stroke="midnightblue" points="325.05,-340.867 335.604,-339.941 326.776,-334.083 325.05,-340.867"/>
</g>
<!-- Node3&#45;&gt;Node4 -->
<g id="edge6" class="edge"><title>Node3&#45;&gt;Node4</title>
<path fill="none" stroke="midnightblue" d="M444.245,-352C460.261,-352 477.375,-352 492.867,-352"/>
<polygon fill="midnightblue" stroke="midnightblue" points="493.301,-355.5 503.301,-352 493.301,-348.5 493.301,-355.5"/>
</g>
<!-- Node6&#45;&gt;Node5 -->
<g id="edge12" class="edge"><title>Node6&#45;&gt;Node5</title>
<path fill="none" stroke="midnightblue" d="M258.957,-134.939C276.054,-130.926 295.798,-126.979 314,-125 374.974,-118.372 391.044,-118.203 452,-125 469.71,-126.975 488.971,-131.002 505.348,-135.007"/>
<polygon fill="midnightblue" stroke="midnightblue" points="504.579,-138.423 515.132,-137.479 506.294,-131.636 504.579,-138.423"/>
</g>
<!-- Node8&#45;&gt;Node5 -->
<g id="edge22" class="edge"><title>Node8&#45;&gt;Node5</title>
<path fill="none" stroke="midnightblue" d="M252.749,-230.851C300.905,-233.068 384.923,-232.542 452,-209 479.358,-199.398 506.305,-179.701 524.093,-164.872"/>
<polygon fill="midnightblue" stroke="midnightblue" points="526.737,-167.216 532.05,-158.05 522.18,-161.902 526.737,-167.216"/>
</g>
<!-- Node9 -->
<g id="node21" class="node"><title>Node9</title>
<a xlink:href="saves__export__pdf2_8cpp.html#a269d937cd505c0d371cb3c61fb9602d2" target="_top" xlink:title="pdf_draw_channels_on_grid">
<polygon fill="white" stroke="black" points="314.5,-134 314.5,-158 451.5,-158 451.5,-134 314.5,-134"/>
<text text-anchor="middle" x="383" y="-145" font-family="Helvetica,sans-Serif" font-size="10.00">pdf_draw_channels_on_grid</text>
</a>
</g>
<!-- Node8&#45;&gt;Node9 -->
<g id="edge24" class="edge"><title>Node8&#45;&gt;Node9</title>
<path fill="none" stroke="midnightblue" d="M230.967,-215.805C250.295,-202.362 283.198,-180.814 314,-167 318.409,-165.022 323.058,-163.164 327.772,-161.433"/>
<polygon fill="midnightblue" stroke="midnightblue" points="329.187,-164.647 337.488,-158.064 326.893,-158.034 329.187,-164.647"/>
</g>
<!-- Node10 -->
<g id="node24" class="node"><title>Node10</title>
<a xlink:href="saves__export__pdf2_8cpp.html#ac050800192c6f21ea8effde11f70af8c" target="_top" xlink:title="pdf_draw_little_gridplayer">
<polygon fill="white" stroke="black" points="319.5,-176 319.5,-200 446.5,-200 446.5,-176 319.5,-176"/>
<text text-anchor="middle" x="383" y="-187" font-family="Helvetica,sans-Serif" font-size="10.00">pdf_draw_little_gridplayer</text>
</a>
</g>
<!-- Node8&#45;&gt;Node10 -->
<g id="edge28" class="edge"><title>Node8&#45;&gt;Node10</title>
<path fill="none" stroke="midnightblue" d="M252.772,-218.823C273.407,-213.939 299.249,-207.823 322.461,-202.329"/>
<polygon fill="midnightblue" stroke="midnightblue" points="323.3,-205.727 332.225,-200.018 321.687,-198.915 323.3,-205.727"/>
</g>
<!-- Node11 -->
<g id="node26" class="node"><title>Node11</title>
<a xlink:href="saves__export__pdf2_8cpp.html#a5203a62883d545b60b33031a1db149c6" target="_top" xlink:title="pdf_draw_infos_of_step">
<polygon fill="white" stroke="black" points="323,-256 323,-280 443,-280 443,-256 323,-256"/>
<text text-anchor="middle" x="383" y="-267" font-family="Helvetica,sans-Serif" font-size="10.00">pdf_draw_infos_of_step</text>
</a>
</g>
<!-- Node8&#45;&gt;Node11 -->
<g id="edge30" class="edge"><title>Node8&#45;&gt;Node11</title>
<path fill="none" stroke="midnightblue" d="M252.772,-237.177C273.407,-242.061 299.249,-248.177 322.461,-253.671"/>
<polygon fill="midnightblue" stroke="midnightblue" points="321.687,-257.085 332.225,-255.982 323.3,-250.273 321.687,-257.085"/>
</g>
<!-- Node8&#45;&gt;Node13 -->
<g id="edge36" class="edge"><title>Node8&#45;&gt;Node13</title>
<path fill="none" stroke="midnightblue" d="M250.762,-240.115C260.009,-243.91 269.666,-248.557 278,-254 296.683,-266.203 294.784,-277.654 314,-289 320.375,-292.764 327.486,-295.91 334.653,-298.522"/>
<polygon fill="midnightblue" stroke="midnightblue" points="333.803,-301.928 344.396,-301.761 336.011,-295.285 333.803,-301.928"/>
</g>
<!-- Node9&#45;&gt;Node5 -->
<g id="edge26" class="edge"><title>Node9&#45;&gt;Node5</title>
<path fill="none" stroke="midnightblue" d="M451.703,-146C469.954,-146 489.058,-146 505.191,-146"/>
<polygon fill="midnightblue" stroke="midnightblue" points="505.325,-149.5 515.325,-146 505.325,-142.5 505.325,-149.5"/>
</g>
<!-- Node11&#45;&gt;Node5 -->
<g id="edge34" class="edge"><title>Node11&#45;&gt;Node5</title>
<path fill="none" stroke="midnightblue" d="M423.856,-255.998C433.489,-252.266 443.438,-247.619 452,-242 483.714,-221.185 512.848,-187.807 529.765,-166.399"/>
<polygon fill="midnightblue" stroke="midnightblue" points="532.683,-168.346 536.036,-158.296 527.148,-164.062 532.683,-168.346"/>
</g>
<!-- Node12 -->
<g id="node28" class="node"><title>Node12</title>
<a xlink:href="grider__calculs8_8cpp.html#aa649acadfb5dcef5c313de19ddcb2290" target="_top" xlink:title="affichage_time_format">
<polygon fill="white" stroke="black" points="488.5,-256 488.5,-280 601.5,-280 601.5,-256 488.5,-256"/>
<text text-anchor="middle" x="545" y="-267" font-family="Helvetica,sans-Serif" font-size="10.00">affichage_time_format</text>
</a>
</g>
<!-- Node11&#45;&gt;Node12 -->
<g id="edge32" class="edge"><title>Node11&#45;&gt;Node12</title>
<path fill="none" stroke="midnightblue" d="M443.323,-268C454.734,-268 466.731,-268 478.324,-268"/>
<polygon fill="midnightblue" stroke="midnightblue" points="478.383,-271.5 488.383,-268 478.383,-264.5 478.383,-271.5"/>
</g>
<!-- Node13&#45;&gt;Node4 -->
<g id="edge38" class="edge"><title>Node13&#45;&gt;Node4</title>
<path fill="none" stroke="midnightblue" d="M421.803,-320.06C443.344,-325.645 470.409,-332.662 493.681,-338.695"/>
<polygon fill="midnightblue" stroke="midnightblue" points="492.837,-342.092 503.395,-341.214 494.594,-335.316 492.837,-342.092"/>
</g>
</g>
</svg>
