<?xml version="1.0" encoding="UTF-8" standalone="no"?>
<!DOCTYPE svg PUBLIC "-//W3C//DTD SVG 1.1//EN"
 "http://www.w3.org/Graphics/SVG/1.1/DTD/svg11.dtd">
<!-- Generated by graphviz version 2.26.3 (20100126.1600)
 -->
<!-- Title: do_logical_selecteur_binary_save_solo_global Pages: 1 -->
<svg width="638pt" height="48pt"
 viewBox="0.00 0.00 638.00 48.00" xmlns="http://www.w3.org/2000/svg" xmlns:xlink="http://www.w3.org/1999/xlink">
<g id="graph1" class="graph" transform="scale(1 1) rotate(0) translate(4 44)">
<title>do_logical_selecteur_binary_save_solo_global</title>
<polygon fill="white" stroke="white" points="-4,5 -4,-44 635,-44 635,5 -4,5"/>
<!-- Node1 -->
<g id="node1" class="node"><title>Node1</title>
<polygon fill="#bfbfbf" stroke="black" points="0,-0 0,-40 128,-40 128,-0 0,-0"/>
<text text-anchor="start" x="8" y="-27" font-family="Helvetica,sans-Serif" font-size="10.00">do_logical_selecteur</text>
<text text-anchor="middle" x="64" y="-11" font-family="Helvetica,sans-Serif" font-size="10.00">_binary_save_solo_global</text>
</g>
<!-- Node2 -->
<g id="node3" class="node"><title>Node2</title>
<a xlink:href="saves__menu__8_8cpp.html#ac4526c35f3b27bd8b798cda6a3320ea1" target="_top" xlink:title="do_logical_Save_Menu">
<polygon fill="white" stroke="black" points="164.5,-8 164.5,-32 281.5,-32 281.5,-8 164.5,-8"/>
<text text-anchor="middle" x="223" y="-19" font-family="Helvetica,sans-Serif" font-size="10.00">do_logical_Save_Menu</text>
</a>
</g>
<!-- Node1&#45;&gt;Node2 -->
<g id="edge2" class="edge"><title>Node1&#45;&gt;Node2</title>
<path fill="none" stroke="midnightblue" d="M138.41,-20C147.15,-20 155.973,-20 164.453,-20"/>
<polygon fill="midnightblue" stroke="midnightblue" points="138.213,-16.5001 128.213,-20 138.213,-23.5001 138.213,-16.5001"/>
</g>
<!-- Node3 -->
<g id="node5" class="node"><title>Node3</title>
<a xlink:href="procs__visuels__rebuild1_8cpp.html#ae710b6e599e321ad5934a90140067054" target="_top" xlink:title="check_graphics_mouse\l_handling">
<polygon fill="white" stroke="black" points="318.5,-0 318.5,-40 437.5,-40 437.5,-0 318.5,-0"/>
<text text-anchor="start" x="326.5" y="-27" font-family="Helvetica,sans-Serif" font-size="10.00">check_graphics_mouse</text>
<text text-anchor="middle" x="378" y="-11" font-family="Helvetica,sans-Serif" font-size="10.00">_handling</text>
</a>
</g>
<!-- Node2&#45;&gt;Node3 -->
<g id="edge4" class="edge"><title>Node2&#45;&gt;Node3</title>
<path fill="none" stroke="midnightblue" d="M291.851,-20C300.666,-20 309.634,-20 318.288,-20"/>
<polygon fill="midnightblue" stroke="midnightblue" points="291.599,-16.5001 281.599,-20 291.599,-23.5001 291.599,-16.5001"/>
</g>
<!-- Node4 -->
<g id="node7" class="node"><title>Node4</title>
<a xlink:href="_m_a_i_n__avec__objets_8cpp.html#a8e80f54ac804eddce8ed6e45adb1db44" target="_top" xlink:title="ticker_full_loop">
<polygon fill="white" stroke="black" points="474,-8 474,-32 556,-32 556,-8 474,-8"/>
<text text-anchor="middle" x="515" y="-19" font-family="Helvetica,sans-Serif" font-size="10.00">ticker_full_loop</text>
</a>
</g>
<!-- Node3&#45;&gt;Node4 -->
<g id="edge6" class="edge"><title>Node3&#45;&gt;Node4</title>
<path fill="none" stroke="midnightblue" d="M447.967,-20C456.737,-20 465.475,-20 473.605,-20"/>
<polygon fill="midnightblue" stroke="midnightblue" points="447.692,-16.5001 437.692,-20 447.692,-23.5001 447.692,-16.5001"/>
</g>
<!-- Node5 -->
<g id="node9" class="node"><title>Node5</title>
<a xlink:href="_m_a_i_n__avec__objets_8cpp.html#ae66f6b31b5ad750f1fe042a706a4e3d4" target="_top" xlink:title="main">
<polygon fill="white" stroke="black" points="592,-8 592,-32 630,-32 630,-8 592,-8"/>
<text text-anchor="middle" x="611" y="-19" font-family="Helvetica,sans-Serif" font-size="10.00">main</text>
</a>
</g>
<!-- Node4&#45;&gt;Node5 -->
<g id="edge8" class="edge"><title>Node4&#45;&gt;Node5</title>
<path fill="none" stroke="midnightblue" d="M566.509,-20C575.577,-20 584.476,-20 591.904,-20"/>
<polygon fill="midnightblue" stroke="midnightblue" points="566.27,-16.5001 556.27,-20 566.27,-23.5001 566.27,-16.5001"/>
</g>
</g>
</svg>
