<?xml version="1.0" encoding="UTF-8" standalone="no"?>
<!DOCTYPE svg PUBLIC "-//W3C//DTD SVG 1.1//EN"
 "http://www.w3.org/Graphics/SVG/1.1/DTD/svg11.dtd">
<!-- Generated by graphviz version 2.26.3 (20100126.1600)
 -->
<!-- Title: print_ch_from_plot Pages: 1 -->
<svg width="384pt" height="74pt"
 viewBox="0.00 0.00 384.00 74.00" xmlns="http://www.w3.org/2000/svg" xmlns:xlink="http://www.w3.org/1999/xlink">
<g id="graph1" class="graph" transform="scale(1 1) rotate(0) translate(4 70)">
<title>print_ch_from_plot</title>
<polygon fill="white" stroke="white" points="-4,5 -4,-70 381,-70 381,5 -4,5"/>
<!-- Node1 -->
<g id="node1" class="node"><title>Node1</title>
<polygon fill="#bfbfbf" stroke="black" points="0.5,-21 0.5,-45 97.5,-45 97.5,-21 0.5,-21"/>
<text text-anchor="middle" x="49" y="-32" font-family="Helvetica,sans-Serif" font-size="10.00">print_ch_from_plot</text>
</g>
<!-- Node2 -->
<g id="node3" class="node"><title>Node2</title>
<a xlink:href="saves__export__pdf2_8cpp.html#a1a1844495417accb24171750e5061c93" target="_top" xlink:title="draw_info">
<polygon fill="white" stroke="black" points="165.5,-42 165.5,-66 224.5,-66 224.5,-42 165.5,-42"/>
<text text-anchor="middle" x="195" y="-53" font-family="Helvetica,sans-Serif" font-size="10.00">draw_info</text>
</a>
</g>
<!-- Node1&#45;&gt;Node2 -->
<g id="edge2" class="edge"><title>Node1&#45;&gt;Node2</title>
<path fill="none" stroke="midnightblue" d="M97.6159,-39.9927C116.338,-42.6857 137.479,-45.7264 155.267,-48.2849"/>
<polygon fill="midnightblue" stroke="midnightblue" points="154.913,-51.7699 165.309,-49.7294 155.909,-44.8412 154.913,-51.7699"/>
</g>
<!-- Node3 -->
<g id="node5" class="node"><title>Node3</title>
<a xlink:href="saves__export__pdf2_8cpp.html#a78c387c9fcc74472a17483a32c23182c" target="_top" xlink:title="verification_fin_de_page">
<polygon fill="white" stroke="black" points="134,-0 134,-24 256,-24 256,-0 134,-0"/>
<text text-anchor="middle" x="195" y="-11" font-family="Helvetica,sans-Serif" font-size="10.00">verification_fin_de_page</text>
</a>
</g>
<!-- Node1&#45;&gt;Node3 -->
<g id="edge4" class="edge"><title>Node1&#45;&gt;Node3</title>
<path fill="none" stroke="midnightblue" d="M97.6159,-26.0073C106.054,-24.7936 114.983,-23.5094 123.874,-22.2304"/>
<polygon fill="midnightblue" stroke="midnightblue" points="124.47,-25.6809 133.869,-20.7928 123.473,-18.7522 124.47,-25.6809"/>
</g>
<!-- Node4 -->
<g id="node7" class="node"><title>Node4</title>
<a xlink:href="saves__export__pdf2_8cpp.html#aa2c18df7ab96478bd156fc2830bd7328" target="_top" xlink:title="draw_numpage">
<polygon fill="white" stroke="black" points="292.5,-0 292.5,-24 375.5,-24 375.5,-0 292.5,-0"/>
<text text-anchor="middle" x="334" y="-11" font-family="Helvetica,sans-Serif" font-size="10.00">draw_numpage</text>
</a>
</g>
<!-- Node3&#45;&gt;Node4 -->
<g id="edge6" class="edge"><title>Node3&#45;&gt;Node4</title>
<path fill="none" stroke="midnightblue" d="M256.372,-12C264.955,-12 273.706,-12 282.09,-12"/>
<polygon fill="midnightblue" stroke="midnightblue" points="282.101,-15.5001 292.101,-12 282.101,-8.5001 282.101,-15.5001"/>
</g>
</g>
</svg>
