<?xml version="1.0" encoding="UTF-8" standalone="no"?>
<!DOCTYPE svg PUBLIC "-//W3C//DTD SVG 1.1//EN"
 "http://www.w3.org/Graphics/SVG/1.1/DTD/svg11.dtd">
<!-- Generated by graphviz version 2.26.3 (20100126.1600)
 -->
<!-- Title: call_mem_onstage Pages: 1 -->
<svg width="884pt" height="48pt"
 viewBox="0.00 0.00 884.00 48.00" xmlns="http://www.w3.org/2000/svg" xmlns:xlink="http://www.w3.org/1999/xlink">
<g id="graph1" class="graph" transform="scale(1 1) rotate(0) translate(4 44)">
<title>call_mem_onstage</title>
<polygon fill="white" stroke="white" points="-4,5 -4,-44 881,-44 881,5 -4,5"/>
<!-- Node1 -->
<g id="node1" class="node"><title>Node1</title>
<polygon fill="#bfbfbf" stroke="black" points="0,-8 0,-32 98,-32 98,-8 0,-8"/>
<text text-anchor="middle" x="49" y="-19" font-family="Helvetica,sans-Serif" font-size="10.00">call_mem_onstage</text>
</g>
<!-- Node2 -->
<g id="node3" class="node"><title>Node2</title>
<a xlink:href="sequentiel__6__core_8cpp.html#a1fb8d0281734c6f7fe7b857f4b31ad0a" target="_top" xlink:title="do_call_time_and_rec\l_f1_f2_f3">
<polygon fill="white" stroke="black" points="134.5,-0 134.5,-40 245.5,-40 245.5,-0 134.5,-0"/>
<text text-anchor="start" x="142.5" y="-27" font-family="Helvetica,sans-Serif" font-size="10.00">do_call_time_and_rec</text>
<text text-anchor="middle" x="190" y="-11" font-family="Helvetica,sans-Serif" font-size="10.00">_f1_f2_f3</text>
</a>
</g>
<!-- Node1&#45;&gt;Node2 -->
<g id="edge2" class="edge"><title>Node1&#45;&gt;Node2</title>
<path fill="none" stroke="midnightblue" d="M108.546,-20C117.051,-20 125.774,-20 134.203,-20"/>
<polygon fill="midnightblue" stroke="midnightblue" points="108.315,-16.5001 98.315,-20 108.315,-23.5001 108.315,-16.5001"/>
</g>
<!-- Node3 -->
<g id="node5" class="node"><title>Node3</title>
<a xlink:href="sequentiel__6__core_8cpp.html#acff6c79ef275f95ce616c287d2c0a93d" target="_top" xlink:title="do_logical_refresh\l_vision_memories">
<polygon fill="white" stroke="black" points="282.5,-0 282.5,-40 377.5,-40 377.5,-0 282.5,-0"/>
<text text-anchor="start" x="290.5" y="-27" font-family="Helvetica,sans-Serif" font-size="10.00">do_logical_refresh</text>
<text text-anchor="middle" x="330" y="-11" font-family="Helvetica,sans-Serif" font-size="10.00">_vision_memories</text>
</a>
</g>
<!-- Node2&#45;&gt;Node3 -->
<g id="edge4" class="edge"><title>Node2&#45;&gt;Node3</title>
<path fill="none" stroke="midnightblue" d="M256.006,-20C264.817,-20 273.714,-20 282.134,-20"/>
<polygon fill="midnightblue" stroke="midnightblue" points="255.734,-16.5001 245.734,-20 255.734,-23.5001 255.734,-16.5001"/>
</g>
<!-- Node4 -->
<g id="node7" class="node"><title>Node4</title>
<a xlink:href="sequentiel__6__core_8cpp.html#a2a71c851cf25565491dd10423bc80380" target="_top" xlink:title="do_logical_Sequenciel\l_Window">
<polygon fill="white" stroke="black" points="414.5,-0 414.5,-40 527.5,-40 527.5,-0 414.5,-0"/>
<text text-anchor="start" x="422.5" y="-27" font-family="Helvetica,sans-Serif" font-size="10.00">do_logical_Sequenciel</text>
<text text-anchor="middle" x="471" y="-11" font-family="Helvetica,sans-Serif" font-size="10.00">_Window</text>
</a>
</g>
<!-- Node3&#45;&gt;Node4 -->
<g id="edge6" class="edge"><title>Node3&#45;&gt;Node4</title>
<path fill="none" stroke="midnightblue" d="M387.766,-20C396.442,-20 405.385,-20 414.044,-20"/>
<polygon fill="midnightblue" stroke="midnightblue" points="387.736,-16.5001 377.736,-20 387.736,-23.5001 387.736,-16.5001"/>
</g>
<!-- Node5 -->
<g id="node9" class="node"><title>Node5</title>
<a xlink:href="procs__visuels__rebuild1_8cpp.html#ae710b6e599e321ad5934a90140067054" target="_top" xlink:title="check_graphics_mouse\l_handling">
<polygon fill="white" stroke="black" points="564.5,-0 564.5,-40 683.5,-40 683.5,-0 564.5,-0"/>
<text text-anchor="start" x="572.5" y="-27" font-family="Helvetica,sans-Serif" font-size="10.00">check_graphics_mouse</text>
<text text-anchor="middle" x="624" y="-11" font-family="Helvetica,sans-Serif" font-size="10.00">_handling</text>
</a>
</g>
<!-- Node4&#45;&gt;Node5 -->
<g id="edge8" class="edge"><title>Node4&#45;&gt;Node5</title>
<path fill="none" stroke="midnightblue" d="M537.802,-20C546.641,-20 555.654,-20 564.361,-20"/>
<polygon fill="midnightblue" stroke="midnightblue" points="537.537,-16.5001 527.537,-20 537.537,-23.5001 537.537,-16.5001"/>
</g>
<!-- Node6 -->
<g id="node11" class="node"><title>Node6</title>
<a xlink:href="_m_a_i_n__avec__objets_8cpp.html#a8e80f54ac804eddce8ed6e45adb1db44" target="_top" xlink:title="ticker_full_loop">
<polygon fill="white" stroke="black" points="720,-8 720,-32 802,-32 802,-8 720,-8"/>
<text text-anchor="middle" x="761" y="-19" font-family="Helvetica,sans-Serif" font-size="10.00">ticker_full_loop</text>
</a>
</g>
<!-- Node5&#45;&gt;Node6 -->
<g id="edge10" class="edge"><title>Node5&#45;&gt;Node6</title>
<path fill="none" stroke="midnightblue" d="M693.967,-20C702.737,-20 711.475,-20 719.605,-20"/>
<polygon fill="midnightblue" stroke="midnightblue" points="693.692,-16.5001 683.692,-20 693.692,-23.5001 693.692,-16.5001"/>
</g>
<!-- Node7 -->
<g id="node13" class="node"><title>Node7</title>
<a xlink:href="_m_a_i_n__avec__objets_8cpp.html#ae66f6b31b5ad750f1fe042a706a4e3d4" target="_top" xlink:title="main">
<polygon fill="white" stroke="black" points="838,-8 838,-32 876,-32 876,-8 838,-8"/>
<text text-anchor="middle" x="857" y="-19" font-family="Helvetica,sans-Serif" font-size="10.00">main</text>
</a>
</g>
<!-- Node6&#45;&gt;Node7 -->
<g id="edge12" class="edge"><title>Node6&#45;&gt;Node7</title>
<path fill="none" stroke="midnightblue" d="M812.509,-20C821.577,-20 830.476,-20 837.904,-20"/>
<polygon fill="midnightblue" stroke="midnightblue" points="812.27,-16.5001 802.27,-20 812.27,-23.5001 812.27,-16.5001"/>
</g>
</g>
</svg>
