<?xml version="1.0" encoding="UTF-8" standalone="no"?>
<!DOCTYPE svg PUBLIC "-//W3C//DTD SVG 1.1//EN"
 "http://www.w3.org/Graphics/SVG/1.1/DTD/svg11.dtd">
<!-- Generated by graphviz version 2.26.3 (20100126.1600)
 -->
<!-- Title: do_logical_x1_x2 Pages: 1 -->
<svg width="914pt" height="1286pt"
 viewBox="0.00 0.00 914.00 1286.00" xmlns="http://www.w3.org/2000/svg" xmlns:xlink="http://www.w3.org/1999/xlink">
<g id="graph1" class="graph" transform="scale(1 1) rotate(0) translate(4 1282)">
<title>do_logical_x1_x2</title>
<polygon fill="white" stroke="white" points="-4,5 -4,-1282 911,-1282 911,5 -4,5"/>
<!-- Node1 -->
<g id="node1" class="node"><title>Node1</title>
<polygon fill="#bfbfbf" stroke="black" points="0,-836 0,-860 92,-860 92,-836 0,-836"/>
<text text-anchor="middle" x="46" y="-847" font-family="Helvetica,sans-Serif" font-size="10.00">do_logical_x1_x2</text>
</g>
<!-- Node2 -->
<g id="node3" class="node"><title>Node2</title>
<a xlink:href="_c_o_r_e__6_8cpp.html#ad7187a2df52460607db81f8bf0500953" target="_top" xlink:title="attribute_midi_solo\l_affectation">
<polygon fill="white" stroke="black" points="142,-1226 142,-1266 240,-1266 240,-1226 142,-1226"/>
<text text-anchor="start" x="150" y="-1253" font-family="Helvetica,sans-Serif" font-size="10.00">attribute_midi_solo</text>
<text text-anchor="middle" x="191" y="-1237" font-family="Helvetica,sans-Serif" font-size="10.00">_affectation</text>
</a>
</g>
<!-- Node1&#45;&gt;Node2 -->
<g id="edge2" class="edge"><title>Node1&#45;&gt;Node2</title>
<path fill="none" stroke="midnightblue" d="M47.5621,-860.227C54.8772,-916.05 87.1174,-1146.48 128,-1205 131.867,-1210.53 136.743,-1215.51 142.064,-1219.92"/>
<polygon fill="midnightblue" stroke="midnightblue" points="140.017,-1222.76 150.111,-1225.98 144.229,-1217.17 140.017,-1222.76"/>
</g>
<!-- Node4 -->
<g id="node7" class="node"><title>Node4</title>
<a xlink:href="sequentiel__6__core_8cpp.html#a5f47e7234fc37c17227682d3b3c05d0f" target="_top" xlink:title="next_mem_crossfade\l_finished">
<polygon fill="white" stroke="black" points="136,-1156 136,-1196 246,-1196 246,-1156 136,-1156"/>
<text text-anchor="start" x="144" y="-1183" font-family="Helvetica,sans-Serif" font-size="10.00">next_mem_crossfade</text>
<text text-anchor="middle" x="191" y="-1167" font-family="Helvetica,sans-Serif" font-size="10.00">_finished</text>
</a>
</g>
<!-- Node1&#45;&gt;Node4 -->
<g id="edge6" class="edge"><title>Node1&#45;&gt;Node4</title>
<path fill="none" stroke="midnightblue" d="M47.9097,-860.01C56.0681,-910.046 89.3486,-1101.44 128,-1147 128.613,-1147.72 129.249,-1148.43 129.904,-1149.12"/>
<polygon fill="midnightblue" stroke="midnightblue" points="127.778,-1151.91 137.6,-1155.88 132.399,-1146.65 127.778,-1151.91"/>
</g>
<!-- Node8 -->
<g id="node15" class="node"><title>Node8</title>
<a xlink:href="gui__boutons__rebuild1_8cpp.html#a7edb878f066697bd0f45cbc91574bfcb" target="_top" xlink:title="raccrochage_midi_logical\l_vertical_dmx">
<polygon fill="white" stroke="black" points="128,-0 128,-40 254,-40 254,-0 128,-0"/>
<text text-anchor="start" x="136" y="-27" font-family="Helvetica,sans-Serif" font-size="10.00">raccrochage_midi_logical</text>
<text text-anchor="middle" x="191" y="-11" font-family="Helvetica,sans-Serif" font-size="10.00">_vertical_dmx</text>
</a>
</g>
<!-- Node1&#45;&gt;Node8 -->
<g id="edge14" class="edge"><title>Node1&#45;&gt;Node8</title>
<path fill="none" stroke="midnightblue" d="M46.52,-835.966C50.71,-741.13 80.04,-116.061 128,-49 128.372,-48.4797 128.756,-47.9685 129.151,-47.4663"/>
<polygon fill="midnightblue" stroke="midnightblue" points="131.891,-49.6713 136.411,-40.0889 126.902,-44.7612 131.891,-49.6713"/>
</g>
<!-- Node9 -->
<g id="node17" class="node"><title>Node9</title>
<a xlink:href="_c_o_r_e__6_8cpp.html#a9574e0b790211959c7398e42468410d8" target="_top" xlink:title="toggle">
<polygon fill="white" stroke="black" points="666.5,-104 666.5,-128 709.5,-128 709.5,-104 666.5,-104"/>
<text text-anchor="middle" x="688" y="-115" font-family="Helvetica,sans-Serif" font-size="10.00">toggle</text>
</a>
</g>
<!-- Node1&#45;&gt;Node9 -->
<g id="edge134" class="edge"><title>Node1&#45;&gt;Node9</title>
<path fill="none" stroke="midnightblue" d="M48.1381,-835.938C63.1034,-755.639 160.181,-296.659 450,-135 515.795,-98.2999 608.132,-104.135 656.158,-110.607"/>
<polygon fill="midnightblue" stroke="midnightblue" points="655.865,-114.101 666.263,-112.068 656.867,-107.173 655.865,-114.101"/>
</g>
<!-- Node10 -->
<g id="node19" class="node"><title>Node10</title>
<a xlink:href="_c_o_r_e__6_8cpp.html#a725f41ccb23fb27040531d4bf9966f0a" target="_top" xlink:title="do_go_function">
<polygon fill="white" stroke="black" points="149.5,-1114 149.5,-1138 232.5,-1138 232.5,-1114 149.5,-1114"/>
<text text-anchor="middle" x="191" y="-1125" font-family="Helvetica,sans-Serif" font-size="10.00">do_go_function</text>
</a>
</g>
<!-- Node1&#45;&gt;Node10 -->
<g id="edge18" class="edge"><title>Node1&#45;&gt;Node10</title>
<path fill="none" stroke="midnightblue" d="M46.4799,-860.011C48.6917,-899.604 60.9487,-1027.59 128,-1100 131.576,-1103.86 135.812,-1107.17 140.37,-1109.99"/>
<polygon fill="midnightblue" stroke="midnightblue" points="138.976,-1113.22 149.443,-1114.85 142.281,-1107.05 138.976,-1113.22"/>
</g>
<!-- Node11 -->
<g id="node21" class="node"><title>Node11</title>
<a xlink:href="grider__calculs8_8cpp.html#aa5e2775d1f19c4fddd0e6ed08b511e96" target="_top" xlink:title="gridder_prepare_cross">
<polygon fill="white" stroke="black" points="631.5,-1028 631.5,-1052 744.5,-1052 744.5,-1028 631.5,-1028"/>
<text text-anchor="middle" x="688" y="-1039" font-family="Helvetica,sans-Serif" font-size="10.00">gridder_prepare_cross</text>
</a>
</g>
<!-- Node1&#45;&gt;Node11 -->
<g id="edge126" class="edge"><title>Node1&#45;&gt;Node11</title>
<path fill="none" stroke="midnightblue" d="M53.7977,-860.209C80.5449,-900.711 173.387,-1030.26 290,-1069 411.439,-1109.35 564.829,-1076.38 640.846,-1054.88"/>
<polygon fill="midnightblue" stroke="midnightblue" points="641.97,-1058.2 650.607,-1052.06 640.028,-1051.47 641.97,-1058.2"/>
</g>
<!-- Node13 -->
<g id="node25" class="node"><title>Node13</title>
<a xlink:href="banger__core__8_8cpp.html#afa98bbdb588f29b8fc94df9f7754f05f" target="_top" xlink:title="do_send_bang">
<polygon fill="white" stroke="black" points="151,-772 151,-796 231,-796 231,-772 151,-772"/>
<text text-anchor="middle" x="191" y="-783" font-family="Helvetica,sans-Serif" font-size="10.00">do_send_bang</text>
</a>
</g>
<!-- Node1&#45;&gt;Node13 -->
<g id="edge24" class="edge"><title>Node1&#45;&gt;Node13</title>
<path fill="none" stroke="midnightblue" d="M73.2734,-835.962C96.1149,-825.88 128.929,-811.397 154.114,-800.281"/>
<polygon fill="midnightblue" stroke="midnightblue" points="155.621,-803.442 163.356,-796.202 152.794,-797.038 155.621,-803.442"/>
</g>
<!-- Node17 -->
<g id="node33" class="node"><title>Node17</title>
<a xlink:href="_c_o_r_e__6_8cpp.html#a727c508c955b8c290ab136ab41e97d2c" target="_top" xlink:title="do_go_back_function">
<polygon fill="white" stroke="black" points="136.5,-856 136.5,-880 245.5,-880 245.5,-856 136.5,-856"/>
<text text-anchor="middle" x="191" y="-867" font-family="Helvetica,sans-Serif" font-size="10.00">do_go_back_function</text>
</a>
</g>
<!-- Node1&#45;&gt;Node17 -->
<g id="edge32" class="edge"><title>Node1&#45;&gt;Node17</title>
<path fill="none" stroke="midnightblue" d="M92.2776,-854.383C103.111,-855.877 114.847,-857.496 126.319,-859.079"/>
<polygon fill="midnightblue" stroke="midnightblue" points="125.919,-862.556 136.304,-860.456 126.876,-855.622 125.919,-862.556"/>
</g>
<!-- Node18 -->
<g id="node36" class="node"><title>Node18</title>
<a xlink:href="_c_o_r_e__6_8cpp.html#a5c17b7c708caee1d7ff53ba997ad0d83" target="_top" xlink:title="prepare_crossfade">
<polygon fill="white" stroke="black" points="303.5,-840 303.5,-864 400.5,-864 400.5,-840 303.5,-840"/>
<text text-anchor="middle" x="352" y="-851" font-family="Helvetica,sans-Serif" font-size="10.00">prepare_crossfade</text>
</a>
</g>
<!-- Node1&#45;&gt;Node18 -->
<g id="edge128" class="edge"><title>Node1&#45;&gt;Node18</title>
<path fill="none" stroke="midnightblue" d="M92.4006,-847.336C104.024,-847.196 116.468,-847.07 128,-847 183.999,-846.659 198.018,-845.573 254,-847 266.699,-847.324 280.315,-847.883 293.236,-848.513"/>
<polygon fill="midnightblue" stroke="midnightblue" points="293.253,-852.019 303.418,-849.031 293.609,-845.028 293.253,-852.019"/>
</g>
<!-- Node19 -->
<g id="node39" class="node"><title>Node19</title>
<a xlink:href="banger__core__8_8cpp.html#a790bd34b44c1055de586eb9f279b3b3e" target="_top" xlink:title="do_go_back_bang">
<polygon fill="white" stroke="black" points="143.5,-583 143.5,-607 238.5,-607 238.5,-583 143.5,-583"/>
<text text-anchor="middle" x="191" y="-594" font-family="Helvetica,sans-Serif" font-size="10.00">do_go_back_bang</text>
</a>
</g>
<!-- Node1&#45;&gt;Node19 -->
<g id="edge40" class="edge"><title>Node1&#45;&gt;Node19</title>
<path fill="none" stroke="midnightblue" d="M52.9937,-835.797C76.0589,-795.552 149.905,-666.703 179.028,-615.888"/>
<polygon fill="midnightblue" stroke="midnightblue" points="182.141,-617.497 184.077,-607.08 176.067,-614.016 182.141,-617.497"/>
</g>
<!-- Node45 -->
<g id="node101" class="node"><title>Node45</title>
<a xlink:href="_c_o_r_e__6_8cpp.html#a3f79baaac498a118cee794775ff1781e" target="_top" xlink:title="do_double_go_function">
<polygon fill="white" stroke="black" points="133,-915 133,-939 249,-939 249,-915 133,-915"/>
<text text-anchor="middle" x="191" y="-926" font-family="Helvetica,sans-Serif" font-size="10.00">do_double_go_function</text>
</a>
</g>
<!-- Node1&#45;&gt;Node45 -->
<g id="edge112" class="edge"><title>Node1&#45;&gt;Node45</title>
<path fill="none" stroke="midnightblue" d="M68.3385,-860.171C92.8906,-873.547 132.497,-895.126 160.036,-910.13"/>
<polygon fill="midnightblue" stroke="midnightblue" points="158.418,-913.234 168.874,-914.945 161.767,-907.087 158.418,-913.234"/>
</g>
<!-- Node48 -->
<g id="node113" class="node"><title>Node48</title>
<a xlink:href="gui__boutons__rebuild1_8cpp.html#a786202770b993e9277fc6f2dea176ae7" target="_top" xlink:title="raccrochage_midi_logical\l_horizontal">
<polygon fill="white" stroke="black" points="128,-58 128,-98 254,-98 254,-58 128,-58"/>
<text text-anchor="start" x="136" y="-85" font-family="Helvetica,sans-Serif" font-size="10.00">raccrochage_midi_logical</text>
<text text-anchor="middle" x="191" y="-69" font-family="Helvetica,sans-Serif" font-size="10.00">_horizontal</text>
</a>
</g>
<!-- Node1&#45;&gt;Node48 -->
<g id="edge130" class="edge"><title>Node1&#45;&gt;Node48</title>
<path fill="none" stroke="midnightblue" d="M46.679,-835.804C51.8277,-744.895 85.6708,-174.753 128,-112 129.694,-109.488 131.637,-107.147 133.765,-104.966"/>
<polygon fill="midnightblue" stroke="midnightblue" points="136.361,-107.348 141.627,-98.1544 131.777,-102.057 136.361,-107.348"/>
</g>
<!-- Node3 -->
<g id="node5" class="node"><title>Node3</title>
<a xlink:href="_c_o_r_e__6_8cpp.html#aa6f6d52757e4af2364c17c3e9dee8095" target="_top" xlink:title="search_and_desaffect\l_previous_midi_signal">
<polygon fill="white" stroke="black" points="295.5,-1238 295.5,-1278 408.5,-1278 408.5,-1238 295.5,-1238"/>
<text text-anchor="start" x="303.5" y="-1265" font-family="Helvetica,sans-Serif" font-size="10.00">search_and_desaffect</text>
<text text-anchor="middle" x="352" y="-1249" font-family="Helvetica,sans-Serif" font-size="10.00">_previous_midi_signal</text>
</a>
</g>
<!-- Node2&#45;&gt;Node3 -->
<g id="edge4" class="edge"><title>Node2&#45;&gt;Node3</title>
<path fill="none" stroke="midnightblue" d="M240.18,-1249.67C254.306,-1250.72 269.956,-1251.88 284.963,-1253"/>
<polygon fill="midnightblue" stroke="midnightblue" points="284.991,-1256.52 295.223,-1253.77 285.511,-1249.53 284.991,-1256.52"/>
</g>
<!-- Node5 -->
<g id="node9" class="node"><title>Node5</title>
<a xlink:href="_c_o_r_e__6_8cpp.html#ae7696959678ab167800352830bf81766" target="_top" xlink:title="detect_mem_preset">
<polygon fill="white" stroke="black" points="300.5,-1196 300.5,-1220 403.5,-1220 403.5,-1196 300.5,-1196"/>
<text text-anchor="middle" x="352" y="-1207" font-family="Helvetica,sans-Serif" font-size="10.00">detect_mem_preset</text>
</a>
</g>
<!-- Node4&#45;&gt;Node5 -->
<g id="edge8" class="edge"><title>Node4&#45;&gt;Node5</title>
<path fill="none" stroke="midnightblue" d="M246.407,-1187.01C260.597,-1189.83 275.942,-1192.88 290.422,-1195.76"/>
<polygon fill="midnightblue" stroke="midnightblue" points="289.793,-1199.2 300.283,-1197.72 291.158,-1192.34 289.793,-1199.2"/>
</g>
<!-- Node6 -->
<g id="node11" class="node"><title>Node6</title>
<a xlink:href="_c_o_r_e__6_8cpp.html#a68c3767f8e350737e991a726e0ef1438" target="_top" xlink:title="refresh_mem_onpreset">
<polygon fill="white" stroke="black" points="294,-940 294,-964 410,-964 410,-940 294,-940"/>
<text text-anchor="middle" x="352" y="-951" font-family="Helvetica,sans-Serif" font-size="10.00">refresh_mem_onpreset</text>
</a>
</g>
<!-- Node4&#45;&gt;Node6 -->
<g id="edge10" class="edge"><title>Node4&#45;&gt;Node6</title>
<path fill="none" stroke="midnightblue" d="M244.433,-1155.91C247.96,-1153.28 251.211,-1150.32 254,-1147 294.237,-1099.14 258.15,-1064.81 290,-1011 299.313,-995.267 313.997,-981.027 326.738,-970.481"/>
<polygon fill="midnightblue" stroke="midnightblue" points="329.106,-973.069 334.753,-964.104 324.748,-967.591 329.106,-973.069"/>
</g>
<!-- Node7 -->
<g id="node13" class="node"><title>Node7</title>
<a xlink:href="_c_o_r_e__6_8cpp.html#adaf2ef6007ed8bd2568485df95ca65b8" target="_top" xlink:title="detect_mem_before_one">
<polygon fill="white" stroke="black" points="290,-1154 290,-1178 414,-1178 414,-1154 290,-1154"/>
<text text-anchor="middle" x="352" y="-1165" font-family="Helvetica,sans-Serif" font-size="10.00">detect_mem_before_one</text>
</a>
</g>
<!-- Node4&#45;&gt;Node7 -->
<g id="edge12" class="edge"><title>Node4&#45;&gt;Node7</title>
<path fill="none" stroke="midnightblue" d="M246.407,-1172.56C257.132,-1171.89 268.517,-1171.19 279.689,-1170.49"/>
<polygon fill="midnightblue" stroke="midnightblue" points="280.101,-1173.97 289.865,-1169.86 279.667,-1166.99 280.101,-1173.97"/>
</g>
<!-- Node8&#45;&gt;Node9 -->
<g id="edge16" class="edge"><title>Node8&#45;&gt;Node9</title>
<path fill="none" stroke="midnightblue" d="M254.308,-29.1252C332.268,-40.7819 468.545,-62.5256 584,-88 608.524,-93.411 635.941,-100.851 656.466,-106.702"/>
<polygon fill="midnightblue" stroke="midnightblue" points="655.653,-110.11 666.231,-109.514 657.59,-103.384 655.653,-110.11"/>
</g>
<!-- Node10&#45;&gt;Node11 -->
<g id="edge20" class="edge"><title>Node10&#45;&gt;Node11</title>
<path fill="none" stroke="midnightblue" d="M232.589,-1129.78C305.584,-1135.03 460.713,-1140.04 584,-1102 614.095,-1092.71 644.586,-1073.06 664.702,-1058.36"/>
<polygon fill="midnightblue" stroke="midnightblue" points="667.011,-1061 672.915,-1052.2 662.814,-1055.4 667.011,-1061"/>
</g>
<!-- Node12 -->
<g id="node23" class="node"><title>Node12</title>
<a xlink:href="grider__calculs8_8cpp.html#aa649acadfb5dcef5c313de19ddcb2290" target="_top" xlink:title="affichage_time_format">
<polygon fill="white" stroke="black" points="792.5,-1028 792.5,-1052 905.5,-1052 905.5,-1028 792.5,-1028"/>
<text text-anchor="middle" x="849" y="-1039" font-family="Helvetica,sans-Serif" font-size="10.00">affichage_time_format</text>
</a>
</g>
<!-- Node11&#45;&gt;Node12 -->
<g id="edge22" class="edge"><title>Node11&#45;&gt;Node12</title>
<path fill="none" stroke="midnightblue" d="M744.763,-1040C756.857,-1040 769.737,-1040 782.169,-1040"/>
<polygon fill="midnightblue" stroke="midnightblue" points="782.479,-1043.5 792.479,-1040 782.479,-1036.5 782.479,-1043.5"/>
</g>
<!-- Node14 -->
<g id="node27" class="node"><title>Node14</title>
<a xlink:href="banger__core__8_8cpp.html#ae0c6d738503a7f8bea4a0881fd15e7fb" target="_top" xlink:title="back_up_fader_if_a\l_fader_inside">
<polygon fill="white" stroke="black" points="301.5,-744 301.5,-784 402.5,-784 402.5,-744 301.5,-744"/>
<text text-anchor="start" x="309.5" y="-771" font-family="Helvetica,sans-Serif" font-size="10.00">back_up_fader_if_a</text>
<text text-anchor="middle" x="352" y="-755" font-family="Helvetica,sans-Serif" font-size="10.00">_fader_inside</text>
</a>
</g>
<!-- Node13&#45;&gt;Node14 -->
<g id="edge26" class="edge"><title>Node13&#45;&gt;Node14</title>
<path fill="none" stroke="midnightblue" d="M231.212,-779.005C249.378,-776.748 271.233,-774.033 291.329,-771.537"/>
<polygon fill="midnightblue" stroke="midnightblue" points="291.846,-775 301.338,-770.293 290.983,-768.053 291.846,-775"/>
</g>
<!-- Node15 -->
<g id="node29" class="node"><title>Node15</title>
<a xlink:href="banger__core__8_8cpp.html#ab6ed5760e29b7576e9acfbc4cb3da75e" target="_top" xlink:title="store_state_of_fader\l_before_bang">
<polygon fill="white" stroke="black" points="464,-832 464,-872 570,-872 570,-832 464,-832"/>
<text text-anchor="start" x="472" y="-859" font-family="Helvetica,sans-Serif" font-size="10.00">store_state_of_fader</text>
<text text-anchor="middle" x="517" y="-843" font-family="Helvetica,sans-Serif" font-size="10.00">_before_bang</text>
</a>
</g>
<!-- Node14&#45;&gt;Node15 -->
<g id="edge28" class="edge"><title>Node14&#45;&gt;Node15</title>
<path fill="none" stroke="midnightblue" d="M390.07,-784.052C398.065,-788.492 406.38,-793.283 414,-798 430.563,-808.253 432.978,-813.529 450,-823 452.682,-824.492 455.457,-825.962 458.282,-827.4"/>
<polygon fill="midnightblue" stroke="midnightblue" points="456.906,-830.623 467.427,-831.872 459.981,-824.335 456.906,-830.623"/>
</g>
<!-- Node16 -->
<g id="node31" class="node"><title>Node16</title>
<a xlink:href="_c_o_r_e__6_8cpp.html#a1d69e941ecabe5dd73d0b108627b21d6" target="_top" xlink:title="detect_dock_used">
<polygon fill="white" stroke="black" points="640,-986 640,-1010 736,-1010 736,-986 640,-986"/>
<text text-anchor="middle" x="688" y="-997" font-family="Helvetica,sans-Serif" font-size="10.00">detect_dock_used</text>
</a>
</g>
<!-- Node15&#45;&gt;Node16 -->
<g id="edge30" class="edge"><title>Node15&#45;&gt;Node16</title>
<path fill="none" stroke="midnightblue" d="M567.115,-872.159C573.32,-876.103 579.168,-880.697 584,-886 613.294,-918.15 588.081,-947.454 620,-977 623.162,-979.927 626.725,-982.446 630.52,-984.615"/>
<polygon fill="midnightblue" stroke="midnightblue" points="629.193,-987.861 639.719,-989.064 632.241,-981.559 629.193,-987.861"/>
</g>
<!-- Node17&#45;&gt;Node6 -->
<g id="edge34" class="edge"><title>Node17&#45;&gt;Node6</title>
<path fill="none" stroke="midnightblue" d="M211.921,-880.163C224.282,-887.462 240.171,-897.041 254,-906 270.349,-916.592 272.604,-922.234 290,-931 293.711,-932.87 297.626,-934.634 301.612,-936.284"/>
<polygon fill="midnightblue" stroke="midnightblue" points="300.389,-939.564 310.978,-939.925 302.925,-933.04 300.389,-939.564"/>
</g>
<!-- Node17&#45;&gt;Node11 -->
<g id="edge38" class="edge"><title>Node17&#45;&gt;Node11</title>
<path fill="none" stroke="midnightblue" d="M212.944,-855.943C254.552,-834.835 346.762,-796.558 414,-831 438.372,-843.484 431.205,-861.085 450,-881 516.794,-951.774 534.167,-973.14 620,-1019 623.516,-1020.88 627.226,-1022.62 631.026,-1024.22"/>
<polygon fill="midnightblue" stroke="midnightblue" points="630.004,-1027.58 640.593,-1027.94 632.537,-1021.05 630.004,-1027.58"/>
</g>
<!-- Node17&#45;&gt;Node18 -->
<g id="edge36" class="edge"><title>Node17&#45;&gt;Node18</title>
<path fill="none" stroke="midnightblue" d="M245.507,-862.583C260.923,-861.051 277.763,-859.378 293.408,-857.823"/>
<polygon fill="midnightblue" stroke="midnightblue" points="293.885,-861.293 303.49,-856.821 293.193,-854.327 293.885,-861.293"/>
</g>
<!-- Node20 -->
<g id="node41" class="node"><title>Node20</title>
<a xlink:href="banger__core__8_8cpp.html#a29583c84f980616502ac7c4f99e1bc29" target="_top" xlink:title="Bang_event_back">
<polygon fill="white" stroke="black" points="304.5,-443 304.5,-467 399.5,-467 399.5,-443 304.5,-443"/>
<text text-anchor="middle" x="352" y="-454" font-family="Helvetica,sans-Serif" font-size="10.00">Bang_event_back</text>
</a>
</g>
<!-- Node19&#45;&gt;Node20 -->
<g id="edge42" class="edge"><title>Node19&#45;&gt;Node20</title>
<path fill="none" stroke="midnightblue" d="M205.006,-582.821C233.076,-558.412 296.402,-503.346 330.039,-474.096"/>
<polygon fill="midnightblue" stroke="midnightblue" points="332.662,-476.454 337.912,-467.251 328.069,-471.171 332.662,-476.454"/>
</g>
<!-- Node20&#45;&gt;Node9 -->
<g id="edge52" class="edge"><title>Node20&#45;&gt;Node9</title>
<path fill="none" stroke="midnightblue" d="M353.251,-442.925C357.963,-403.779 378.212,-279.209 450,-215 496.141,-173.731 527.065,-201.3 584,-177 612.006,-165.047 641.766,-146.981 662.243,-133.609"/>
<polygon fill="midnightblue" stroke="midnightblue" points="664.283,-136.456 670.688,-128.016 660.418,-130.62 664.283,-136.456"/>
</g>
<!-- Node20&#45;&gt;Node16 -->
<g id="edge44" class="edge"><title>Node20&#45;&gt;Node16</title>
<path fill="none" stroke="midnightblue" d="M354.549,-467.087C365.202,-516.538 407.585,-702.721 450,-743 494.889,-785.628 542.348,-735.205 584,-781 643.593,-846.521 561.171,-910.792 620,-977 623.084,-980.471 626.728,-983.375 630.701,-985.805"/>
<polygon fill="midnightblue" stroke="midnightblue" points="629.328,-989.032 639.834,-990.4 632.474,-982.779 629.328,-989.032"/>
</g>
<!-- Node21 -->
<g id="node44" class="node"><title>Node21</title>
<a xlink:href="faders__operations_8cpp.html#ad2bcaffecd9b01aee13cb557da2ab705" target="_top" xlink:title="Unselect_other_docks">
<polygon fill="white" stroke="black" points="460,-266 460,-290 574,-290 574,-266 460,-266"/>
<text text-anchor="middle" x="517" y="-277" font-family="Helvetica,sans-Serif" font-size="10.00">Unselect_other_docks</text>
</a>
</g>
<!-- Node20&#45;&gt;Node21 -->
<g id="edge46" class="edge"><title>Node20&#45;&gt;Node21</title>
<path fill="none" stroke="midnightblue" d="M356.703,-442.994C368.319,-414.817 401.017,-343.825 450,-304 454.527,-300.319 459.637,-297.115 464.964,-294.337"/>
<polygon fill="midnightblue" stroke="midnightblue" points="466.511,-297.477 474.071,-290.055 463.532,-291.143 466.511,-297.477"/>
</g>
<!-- Node22 -->
<g id="node46" class="node"><title>Node22</title>
<a xlink:href="faders__core__24_8cpp.html#af5590fbbb7ec3390b51704c3c04c640d" target="_top" xlink:title="asservissement_gridplayer">
<polygon fill="white" stroke="black" points="450.5,-790 450.5,-814 583.5,-814 583.5,-790 450.5,-790"/>
<text text-anchor="middle" x="517" y="-801" font-family="Helvetica,sans-Serif" font-size="10.00">asservissement_gridplayer</text>
</a>
</g>
<!-- Node20&#45;&gt;Node22 -->
<g id="edge48" class="edge"><title>Node20&#45;&gt;Node22</title>
<path fill="none" stroke="midnightblue" d="M354.261,-467.254C364.239,-520.151 405.787,-728.395 450,-776 453.142,-779.383 456.775,-782.331 460.692,-784.899"/>
<polygon fill="midnightblue" stroke="midnightblue" points="459.208,-788.08 469.639,-789.936 462.642,-781.98 459.208,-788.08"/>
</g>
<!-- Node23 -->
<g id="node50" class="node"><title>Node23</title>
<a xlink:href="_c_o_r_e__6_8cpp.html#a66525c797b7c3a7c5359c87f0094876c" target="_top" xlink:title="do_recall_fadersstate">
<polygon fill="white" stroke="black" points="462,-224 462,-248 572,-248 572,-224 462,-224"/>
<text text-anchor="middle" x="517" y="-235" font-family="Helvetica,sans-Serif" font-size="10.00">do_recall_fadersstate</text>
</a>
</g>
<!-- Node20&#45;&gt;Node23 -->
<g id="edge54" class="edge"><title>Node20&#45;&gt;Node23</title>
<path fill="none" stroke="midnightblue" d="M354.536,-442.697C362.311,-408.101 389.076,-309.098 450,-257 451.563,-255.663 453.212,-254.411 454.927,-253.239"/>
<polygon fill="midnightblue" stroke="midnightblue" points="457.067,-256.045 463.979,-248.016 453.569,-249.982 457.067,-256.045"/>
</g>
<!-- Node24 -->
<g id="node52" class="node"><title>Node24</title>
<a xlink:href="_c_o_r_e__6_8cpp.html#aa16450d858e0f6dfaa0be7a31adf4d15" target="_top" xlink:title="do_lock_preset">
<polygon fill="white" stroke="black" points="475.5,-144 475.5,-168 558.5,-168 558.5,-144 475.5,-144"/>
<text text-anchor="middle" x="517" y="-155" font-family="Helvetica,sans-Serif" font-size="10.00">do_lock_preset</text>
</a>
</g>
<!-- Node20&#45;&gt;Node24 -->
<g id="edge56" class="edge"><title>Node20&#45;&gt;Node24</title>
<path fill="none" stroke="midnightblue" d="M352.869,-442.792C356.506,-400.693 374.075,-259.888 450,-182 454.572,-177.309 460.087,-173.449 465.966,-170.276"/>
<polygon fill="midnightblue" stroke="midnightblue" points="467.857,-173.255 475.419,-165.835 464.88,-166.919 467.857,-173.255"/>
</g>
<!-- Node25 -->
<g id="node55" class="node"><title>Node25</title>
<a xlink:href="_c_o_r_e__6_8cpp.html#ad598ada3395937db3457ab6ee10dcdb7" target="_top" xlink:title="send_my_midi_note">
<polygon fill="white" stroke="black" points="465,-560 465,-584 569,-584 569,-560 465,-560"/>
<text text-anchor="middle" x="517" y="-571" font-family="Helvetica,sans-Serif" font-size="10.00">send_my_midi_note</text>
</a>
</g>
<!-- Node20&#45;&gt;Node25 -->
<g id="edge60" class="edge"><title>Node20&#45;&gt;Node25</title>
<path fill="none" stroke="midnightblue" d="M361.192,-467.177C377.109,-487.444 411.786,-528.124 450,-551 453.02,-552.808 456.211,-554.475 459.496,-556.01"/>
<polygon fill="midnightblue" stroke="midnightblue" points="458.366,-559.332 468.94,-559.995 461.087,-552.883 458.366,-559.332"/>
</g>
<!-- Node26 -->
<g id="node57" class="node"><title>Node26</title>
<a xlink:href="gestionaire__fenetres2_8cpp.html#ada3b9703b1aaa1cc37304633bdeb526c" target="_top" xlink:title="add_a_window">
<polygon fill="white" stroke="black" points="476.5,-710 476.5,-734 557.5,-734 557.5,-710 476.5,-710"/>
<text text-anchor="middle" x="517" y="-721" font-family="Helvetica,sans-Serif" font-size="10.00">add_a_window</text>
</a>
</g>
<!-- Node20&#45;&gt;Node26 -->
<g id="edge62" class="edge"><title>Node20&#45;&gt;Node26</title>
<path fill="none" stroke="midnightblue" d="M357.792,-467.169C372.052,-496.757 410.573,-574.48 450,-635 465.65,-659.022 486.035,-684.845 500.191,-702.062"/>
<polygon fill="midnightblue" stroke="midnightblue" points="497.513,-704.316 506.591,-709.778 502.9,-699.847 497.513,-704.316"/>
</g>
<!-- Node34 -->
<g id="node73" class="node"><title>Node34</title>
<a xlink:href="_c_o_r_e__6_8cpp.html#ad0ba084ac976c6a4d32088e939ee0dbc" target="_top" xlink:title="substract_a_window">
<polygon fill="white" stroke="black" points="464,-602 464,-626 570,-626 570,-602 464,-602"/>
<text text-anchor="middle" x="517" y="-613" font-family="Helvetica,sans-Serif" font-size="10.00">substract_a_window</text>
</a>
</g>
<!-- Node20&#45;&gt;Node34 -->
<g id="edge78" class="edge"><title>Node20&#45;&gt;Node34</title>
<path fill="none" stroke="midnightblue" d="M357.377,-467.364C369.718,-494.302 402.699,-558.619 450,-593 452.114,-594.536 454.343,-595.963 456.655,-597.287"/>
<polygon fill="midnightblue" stroke="midnightblue" points="455.391,-600.568 465.901,-601.902 458.517,-594.304 455.391,-600.568"/>
</g>
<!-- Node39 -->
<g id="node85" class="node"><title>Node39</title>
<a xlink:href="_c_o_r_e__6_8cpp.html#a52e7364ba887cabb040c29b592557b6c" target="_top" xlink:title="load_etat_picker_dans\l_dockcolor">
<polygon fill="white" stroke="black" points="460,-502 460,-542 574,-542 574,-502 460,-502"/>
<text text-anchor="start" x="468" y="-529" font-family="Helvetica,sans-Serif" font-size="10.00">load_etat_picker_dans</text>
<text text-anchor="middle" x="517" y="-513" font-family="Helvetica,sans-Serif" font-size="10.00">_dockcolor</text>
</a>
</g>
<!-- Node20&#45;&gt;Node39 -->
<g id="edge92" class="edge"><title>Node20&#45;&gt;Node39</title>
<path fill="none" stroke="midnightblue" d="M381.88,-467.133C403.137,-475.765 432.392,-487.644 458.247,-498.143"/>
<polygon fill="midnightblue" stroke="midnightblue" points="457.015,-501.42 467.597,-501.939 459.648,-494.934 457.015,-501.42"/>
</g>
<!-- Node40 -->
<g id="node87" class="node"><title>Node40</title>
<a xlink:href="audio__core5_8cpp.html#a441637bcca17a3226a6b3aadea1defe9" target="_top" xlink:title="AffectSoundFile">
<polygon fill="white" stroke="black" points="474,-384 474,-408 560,-408 560,-384 474,-384"/>
<text text-anchor="middle" x="517" y="-395" font-family="Helvetica,sans-Serif" font-size="10.00">AffectSoundFile</text>
</a>
</g>
<!-- Node20&#45;&gt;Node40 -->
<g id="edge94" class="edge"><title>Node20&#45;&gt;Node40</title>
<path fill="none" stroke="midnightblue" d="M385.788,-442.918C411.148,-433.85 446.074,-421.362 473.516,-411.549"/>
<polygon fill="midnightblue" stroke="midnightblue" points="475.019,-414.728 483.257,-408.066 472.662,-408.137 475.019,-414.728"/>
</g>
<!-- Node41 -->
<g id="node89" class="node"><title>Node41</title>
<a xlink:href="_c_o_r_e__6_8cpp.html#a23423256688613149926c4984ff25f79" target="_top" xlink:title="player1_do_stop">
<polygon fill="white" stroke="black" points="644,-418 644,-442 732,-442 732,-418 644,-418"/>
<text text-anchor="middle" x="688" y="-429" font-family="Helvetica,sans-Serif" font-size="10.00">player1_do_stop</text>
</a>
</g>
<!-- Node20&#45;&gt;Node41 -->
<g id="edge104" class="edge"><title>Node20&#45;&gt;Node41</title>
<path fill="none" stroke="midnightblue" d="M399.692,-456.31C446.698,-457.052 520.502,-456.741 584,-450 600.273,-448.272 617.802,-445.329 633.746,-442.223"/>
<polygon fill="midnightblue" stroke="midnightblue" points="634.851,-445.571 643.966,-440.17 633.472,-438.708 634.851,-445.571"/>
</g>
<!-- Node42 -->
<g id="node91" class="node"><title>Node42</title>
<a xlink:href="_c_o_r_e__6_8cpp.html#a6c41d19d859a2e1292ad64ef915e265f" target="_top" xlink:title="player2_do_stop">
<polygon fill="white" stroke="black" points="644,-376 644,-400 732,-400 732,-376 644,-376"/>
<text text-anchor="middle" x="688" y="-387" font-family="Helvetica,sans-Serif" font-size="10.00">player2_do_stop</text>
</a>
</g>
<!-- Node20&#45;&gt;Node42 -->
<g id="edge106" class="edge"><title>Node20&#45;&gt;Node42</title>
<path fill="none" stroke="midnightblue" d="M399.834,-448.727C446.947,-442.183 520.828,-430.937 584,-417 602.055,-413.017 621.637,-407.797 638.889,-402.886"/>
<polygon fill="midnightblue" stroke="midnightblue" points="640.11,-406.177 648.748,-400.042 638.169,-399.451 640.11,-406.177"/>
</g>
<!-- Node43 -->
<g id="node93" class="node"><title>Node43</title>
<a xlink:href="_c_o_r_e__6_8cpp.html#a494249193c56b13a4e1eac04c6dd2d0b" target="_top" xlink:title="player3_do_stop">
<polygon fill="white" stroke="black" points="644,-334 644,-358 732,-358 732,-334 644,-334"/>
<text text-anchor="middle" x="688" y="-345" font-family="Helvetica,sans-Serif" font-size="10.00">player3_do_stop</text>
</a>
</g>
<!-- Node20&#45;&gt;Node43 -->
<g id="edge108" class="edge"><title>Node20&#45;&gt;Node43</title>
<path fill="none" stroke="midnightblue" d="M362.614,-442.74C379.209,-424.496 413.229,-390.674 450,-375 509.164,-349.781 583.609,-344.44 633.337,-344.169"/>
<polygon fill="midnightblue" stroke="midnightblue" points="633.554,-347.669 643.558,-344.183 633.563,-340.669 633.554,-347.669"/>
</g>
<!-- Node44 -->
<g id="node95" class="node"><title>Node44</title>
<a xlink:href="_c_o_r_e__6_8cpp.html#afbcf17b50787fb3b8360659f6ce9b193" target="_top" xlink:title="player4_do_stop">
<polygon fill="white" stroke="black" points="644,-292 644,-316 732,-316 732,-292 644,-292"/>
<text text-anchor="middle" x="688" y="-303" font-family="Helvetica,sans-Serif" font-size="10.00">player4_do_stop</text>
</a>
</g>
<!-- Node20&#45;&gt;Node44 -->
<g id="edge110" class="edge"><title>Node20&#45;&gt;Node44</title>
<path fill="none" stroke="midnightblue" d="M358.751,-442.758C372.498,-419.112 406.186,-367.347 450,-343 507.182,-311.225 583.214,-303.709 633.79,-302.676"/>
<polygon fill="midnightblue" stroke="midnightblue" points="633.911,-306.174 643.866,-302.549 633.823,-299.175 633.911,-306.174"/>
</g>
<!-- Node22&#45;&gt;Node11 -->
<g id="edge50" class="edge"><title>Node22&#45;&gt;Node11</title>
<path fill="none" stroke="midnightblue" d="M573.018,-814.012C577.104,-816.477 580.85,-819.44 584,-823 642.69,-889.331 561.171,-952.792 620,-1019 621.026,-1020.15 622.114,-1021.25 623.255,-1022.28"/>
<polygon fill="midnightblue" stroke="midnightblue" points="621.33,-1025.21 631.473,-1028.27 625.453,-1019.55 621.33,-1025.21"/>
</g>
<!-- Node24&#45;&gt;Node9 -->
<g id="edge58" class="edge"><title>Node24&#45;&gt;Node9</title>
<path fill="none" stroke="midnightblue" d="M558.831,-146.215C588.991,-139.16 629.061,-129.787 656.528,-123.362"/>
<polygon fill="midnightblue" stroke="midnightblue" points="657.452,-126.74 666.391,-121.055 655.857,-119.924 657.452,-126.74"/>
</g>
<!-- Node27 -->
<g id="node59" class="node"><title>Node27</title>
<a xlink:href="_c_o_r_e__6_8cpp.html#a492a9badab85a9e07b0200f4e34b607f" target="_top" xlink:title="reset_check_grada_overide\l_dimmers">
<polygon fill="white" stroke="black" points="620,-702 620,-742 756,-742 756,-702 620,-702"/>
<text text-anchor="start" x="628" y="-729" font-family="Helvetica,sans-Serif" font-size="10.00">reset_check_grada_overide</text>
<text text-anchor="middle" x="688" y="-713" font-family="Helvetica,sans-Serif" font-size="10.00">_dimmers</text>
</a>
</g>
<!-- Node26&#45;&gt;Node27 -->
<g id="edge64" class="edge"><title>Node26&#45;&gt;Node27</title>
<path fill="none" stroke="midnightblue" d="M557.525,-722C573.118,-722 591.503,-722 609.473,-722"/>
<polygon fill="midnightblue" stroke="midnightblue" points="609.687,-725.5 619.687,-722 609.687,-718.5 609.687,-725.5"/>
</g>
<!-- Node28 -->
<g id="node61" class="node"><title>Node28</title>
<a xlink:href="_c_o_r_e__6_8cpp.html#aa8157e82745eb3ac355d8f443b19955f" target="_top" xlink:title="refresh_shape_factors">
<polygon fill="white" stroke="black" points="631.5,-802 631.5,-826 744.5,-826 744.5,-802 631.5,-802"/>
<text text-anchor="middle" x="688" y="-813" font-family="Helvetica,sans-Serif" font-size="10.00">refresh_shape_factors</text>
</a>
</g>
<!-- Node26&#45;&gt;Node28 -->
<g id="edge66" class="edge"><title>Node26&#45;&gt;Node28</title>
<path fill="none" stroke="midnightblue" d="M557.751,-733.878C566.869,-737.579 576.154,-742.242 584,-748 604.649,-763.154 598.829,-778.585 620,-793 622.523,-794.718 625.192,-796.3 627.956,-797.756"/>
<polygon fill="midnightblue" stroke="midnightblue" points="626.499,-800.938 637.041,-801.991 629.456,-794.594 626.499,-800.938"/>
</g>
<!-- Node29 -->
<g id="node63" class="node"><title>Node29</title>
<a xlink:href="saves__menu__8_8cpp.html#aa97cd577bd2f433780569b3a20136d23" target="_top" xlink:title="scan_importfolder">
<polygon fill="white" stroke="black" points="641,-760 641,-784 735,-784 735,-760 641,-760"/>
<text text-anchor="middle" x="688" y="-771" font-family="Helvetica,sans-Serif" font-size="10.00">scan_importfolder</text>
</a>
</g>
<!-- Node26&#45;&gt;Node29 -->
<g id="edge68" class="edge"><title>Node26&#45;&gt;Node29</title>
<path fill="none" stroke="midnightblue" d="M557.525,-733.849C581.327,-740.809 611.632,-749.67 637.042,-757.1"/>
<polygon fill="midnightblue" stroke="midnightblue" points="636.296,-760.528 646.876,-759.976 638.261,-753.81 636.296,-760.528"/>
</g>
<!-- Node30 -->
<g id="node65" class="node"><title>Node30</title>
<a xlink:href="saves__menu__8_8cpp.html#aa54ed73e914394a0efe1c45930c72cbd" target="_top" xlink:title="scan_savesfolder">
<polygon fill="white" stroke="black" points="641.5,-944 641.5,-968 734.5,-968 734.5,-944 641.5,-944"/>
<text text-anchor="middle" x="688" y="-955" font-family="Helvetica,sans-Serif" font-size="10.00">scan_savesfolder</text>
</a>
</g>
<!-- Node26&#45;&gt;Node30 -->
<g id="edge70" class="edge"><title>Node26&#45;&gt;Node30</title>
<path fill="none" stroke="midnightblue" d="M557.651,-730.405C567.536,-734.255 577.205,-739.857 584,-748 638.227,-812.984 563.512,-871.971 620,-935 623.467,-938.869 627.63,-942.033 632.166,-944.62"/>
<polygon fill="midnightblue" stroke="midnightblue" points="630.728,-947.812 641.265,-948.917 633.717,-941.482 630.728,-947.812"/>
</g>
<!-- Node31 -->
<g id="node67" class="node"><title>Node31</title>
<a xlink:href="_c_o_r_e__6_8cpp.html#a91e4f7146fd4a20828a9bd7ac93c0baa" target="_top" xlink:title="reset_audio_indexs\l_to_dock">
<polygon fill="white" stroke="black" points="637.5,-644 637.5,-684 738.5,-684 738.5,-644 637.5,-644"/>
<text text-anchor="start" x="645.5" y="-671" font-family="Helvetica,sans-Serif" font-size="10.00">reset_audio_indexs</text>
<text text-anchor="middle" x="688" y="-655" font-family="Helvetica,sans-Serif" font-size="10.00">_to_dock</text>
</a>
</g>
<!-- Node26&#45;&gt;Node31 -->
<g id="edge72" class="edge"><title>Node26&#45;&gt;Node31</title>
<path fill="none" stroke="midnightblue" d="M552.431,-709.982C574.204,-702.597 602.665,-692.944 627.886,-684.39"/>
<polygon fill="midnightblue" stroke="midnightblue" points="629.026,-687.699 637.372,-681.172 626.778,-681.07 629.026,-687.699"/>
</g>
<!-- Node32 -->
<g id="node69" class="node"><title>Node32</title>
<a xlink:href="gestionaire__fenetres2_8cpp.html#a3ecbad4b357ed9e70478e6418261f2fd" target="_top" xlink:title="reset_config_indexes">
<polygon fill="white" stroke="black" points="633.5,-902 633.5,-926 742.5,-926 742.5,-902 633.5,-902"/>
<text text-anchor="middle" x="688" y="-913" font-family="Helvetica,sans-Serif" font-size="10.00">reset_config_indexes</text>
</a>
</g>
<!-- Node26&#45;&gt;Node32 -->
<g id="edge74" class="edge"><title>Node26&#45;&gt;Node32</title>
<path fill="none" stroke="midnightblue" d="M557.713,-730.787C567.479,-734.631 577.073,-740.134 584,-748 627.883,-797.833 574.385,-844.747 620,-893 621.432,-894.515 622.971,-895.922 624.597,-897.228"/>
<polygon fill="midnightblue" stroke="midnightblue" points="623.065,-900.408 633.349,-902.953 626.896,-894.55 623.065,-900.408"/>
</g>
<!-- Node33 -->
<g id="node71" class="node"><title>Node33</title>
<a xlink:href="gestionaire__fenetres2_8cpp.html#ad38c1b7f03bd1ec3007a87d4c55efacf" target="_top" xlink:title="clear_non_desired_values\l_in_window_list">
<polygon fill="white" stroke="black" points="623.5,-844 623.5,-884 752.5,-884 752.5,-844 623.5,-844"/>
<text text-anchor="start" x="631.5" y="-871" font-family="Helvetica,sans-Serif" font-size="10.00">clear_non_desired_values</text>
<text text-anchor="middle" x="688" y="-855" font-family="Helvetica,sans-Serif" font-size="10.00">_in_window_list</text>
</a>
</g>
<!-- Node26&#45;&gt;Node33 -->
<g id="edge76" class="edge"><title>Node26&#45;&gt;Node33</title>
<path fill="none" stroke="midnightblue" d="M557.644,-731.791C567.183,-735.608 576.686,-740.846 584,-748 613.916,-777.26 590.57,-805.251 620,-835 620.914,-835.924 621.862,-836.82 622.84,-837.689"/>
<polygon fill="midnightblue" stroke="midnightblue" points="620.79,-840.528 630.855,-843.837 625.05,-834.974 620.79,-840.528"/>
</g>
<!-- Node34&#45;&gt;Node27 -->
<g id="edge84" class="edge"><title>Node34&#45;&gt;Node27</title>
<path fill="none" stroke="midnightblue" d="M530.532,-626.178C549.504,-642.817 585.558,-672.88 620,-693 622.493,-694.457 625.074,-695.881 627.707,-697.268"/>
<polygon fill="midnightblue" stroke="midnightblue" points="626.302,-700.479 636.81,-701.83 629.438,-694.221 626.302,-700.479"/>
</g>
<!-- Node34&#45;&gt;Node31 -->
<g id="edge88" class="edge"><title>Node34&#45;&gt;Node31</title>
<path fill="none" stroke="midnightblue" d="M558.394,-626.104C579.151,-632.173 604.685,-639.639 627.584,-646.334"/>
<polygon fill="midnightblue" stroke="midnightblue" points="626.635,-649.703 637.215,-649.151 628.599,-642.985 626.635,-649.703"/>
</g>
<!-- Node35 -->
<g id="node75" class="node"><title>Node35</title>
<a xlink:href="_c_o_r_e__6_8cpp.html#a934d136a7c8a752109bc4b160717ee36" target="_top" xlink:title="reset_index_actions">
<polygon fill="white" stroke="black" points="636,-518 636,-542 740,-542 740,-518 636,-518"/>
<text text-anchor="middle" x="688" y="-529" font-family="Helvetica,sans-Serif" font-size="10.00">reset_index_actions</text>
</a>
</g>
<!-- Node34&#45;&gt;Node35 -->
<g id="edge80" class="edge"><title>Node34&#45;&gt;Node35</title>
<path fill="none" stroke="midnightblue" d="M566.749,-601.895C572.802,-599.428 578.708,-596.489 584,-593 604.525,-579.466 599.447,-564.491 620,-551 622.602,-549.292 625.35,-547.717 628.19,-546.266"/>
<polygon fill="midnightblue" stroke="midnightblue" points="629.85,-549.356 637.51,-542.036 626.957,-542.982 629.85,-549.356"/>
</g>
<!-- Node36 -->
<g id="node77" class="node"><title>Node36</title>
<a xlink:href="_c_o_r_e__6_8cpp.html#a894b338494d0bdd820df2944b628e2de" target="_top" xlink:title="patch_unselect_all\l_dimmers">
<polygon fill="white" stroke="black" points="639,-460 639,-500 737,-500 737,-460 639,-460"/>
<text text-anchor="start" x="647" y="-487" font-family="Helvetica,sans-Serif" font-size="10.00">patch_unselect_all</text>
<text text-anchor="middle" x="688" y="-471" font-family="Helvetica,sans-Serif" font-size="10.00">_dimmers</text>
</a>
</g>
<!-- Node34&#45;&gt;Node36 -->
<g id="edge82" class="edge"><title>Node34&#45;&gt;Node36</title>
<path fill="none" stroke="midnightblue" d="M570.223,-602.214C575.221,-599.711 579.93,-596.678 584,-593 614.136,-565.768 591.254,-537.695 620,-509 623.015,-505.991 626.39,-503.274 629.983,-500.826"/>
<polygon fill="midnightblue" stroke="midnightblue" points="631.928,-503.74 638.691,-495.585 628.319,-497.742 631.928,-503.74"/>
</g>
<!-- Node37 -->
<g id="node80" class="node"><title>Node37</title>
<a xlink:href="_c_o_r_e__6_8cpp.html#afb9b54a7bc4ccbba5ddcdc2097550188" target="_top" xlink:title="reset_indexs_confirmation">
<polygon fill="white" stroke="black" points="622.5,-602 622.5,-626 753.5,-626 753.5,-602 622.5,-602"/>
<text text-anchor="middle" x="688" y="-613" font-family="Helvetica,sans-Serif" font-size="10.00">reset_indexs_confirmation</text>
</a>
</g>
<!-- Node34&#45;&gt;Node37 -->
<g id="edge86" class="edge"><title>Node34&#45;&gt;Node37</title>
<path fill="none" stroke="midnightblue" d="M570.168,-614C583.422,-614 597.892,-614 612.011,-614"/>
<polygon fill="midnightblue" stroke="midnightblue" points="612.208,-617.5 622.208,-614 612.208,-610.5 612.208,-617.5"/>
</g>
<!-- Node38 -->
<g id="node83" class="node"><title>Node38</title>
<a xlink:href="_c_o_r_e__6_8cpp.html#abfbdb9056b43d4acfaf3f39122911bad" target="_top" xlink:title="remember_config_page">
<polygon fill="white" stroke="black" points="629,-560 629,-584 747,-584 747,-560 629,-560"/>
<text text-anchor="middle" x="688" y="-571" font-family="Helvetica,sans-Serif" font-size="10.00">remember_config_page</text>
</a>
</g>
<!-- Node34&#45;&gt;Node38 -->
<g id="edge90" class="edge"><title>Node34&#45;&gt;Node38</title>
<path fill="none" stroke="midnightblue" d="M566.002,-601.964C585.678,-597.132 608.53,-591.519 629.1,-586.467"/>
<polygon fill="midnightblue" stroke="midnightblue" points="630.115,-589.822 638.991,-584.037 628.445,-583.024 630.115,-589.822"/>
</g>
<!-- Node40&#45;&gt;Node41 -->
<g id="edge96" class="edge"><title>Node40&#45;&gt;Node41</title>
<path fill="none" stroke="midnightblue" d="M560.151,-404.58C582.573,-409.038 610.194,-414.53 634.018,-419.267"/>
<polygon fill="midnightblue" stroke="midnightblue" points="633.48,-422.728 643.97,-421.246 634.845,-415.863 633.48,-422.728"/>
</g>
<!-- Node40&#45;&gt;Node42 -->
<g id="edge98" class="edge"><title>Node40&#45;&gt;Node42</title>
<path fill="none" stroke="midnightblue" d="M560.151,-393.981C582.473,-392.937 609.947,-391.652 633.699,-390.54"/>
<polygon fill="midnightblue" stroke="midnightblue" points="634.145,-394.023 643.97,-390.06 633.818,-387.031 634.145,-394.023"/>
</g>
<!-- Node40&#45;&gt;Node43 -->
<g id="edge100" class="edge"><title>Node40&#45;&gt;Node43</title>
<path fill="none" stroke="midnightblue" d="M558.394,-383.896C582.042,-376.982 611.888,-368.255 636.977,-360.919"/>
<polygon fill="midnightblue" stroke="midnightblue" points="638.075,-364.245 646.691,-358.079 636.11,-357.526 638.075,-364.245"/>
</g>
<!-- Node40&#45;&gt;Node44 -->
<g id="edge102" class="edge"><title>Node40&#45;&gt;Node44</title>
<path fill="none" stroke="midnightblue" d="M531.467,-383.888C550.633,-368.364 585.997,-341.49 620,-325 624.539,-322.799 629.36,-320.766 634.257,-318.903"/>
<polygon fill="midnightblue" stroke="midnightblue" points="635.471,-322.186 643.715,-315.531 633.121,-315.592 635.471,-322.186"/>
</g>
<!-- Node45&#45;&gt;Node6 -->
<g id="edge116" class="edge"><title>Node45&#45;&gt;Node6</title>
<path fill="none" stroke="midnightblue" d="M249.125,-936.026C260.41,-937.778 272.333,-939.629 283.906,-941.426"/>
<polygon fill="midnightblue" stroke="midnightblue" points="283.542,-944.912 293.961,-942.988 284.616,-937.995 283.542,-944.912"/>
</g>
<!-- Node45&#45;&gt;Node11 -->
<g id="edge124" class="edge"><title>Node45&#45;&gt;Node11</title>
<path fill="none" stroke="midnightblue" d="M212.733,-939.174C232.353,-949.654 262.306,-964.407 290,-973 403.433,-1008.2 541.135,-1026.16 621.241,-1034.28"/>
<polygon fill="midnightblue" stroke="midnightblue" points="620.9,-1037.76 631.197,-1035.26 621.591,-1030.79 620.9,-1037.76"/>
</g>
<!-- Node45&#45;&gt;Node18 -->
<g id="edge118" class="edge"><title>Node45&#45;&gt;Node18</title>
<path fill="none" stroke="midnightblue" d="M210.589,-914.998C230.203,-903.298 261.488,-885.493 290,-873 294.326,-871.104 298.882,-869.271 303.479,-867.529"/>
<polygon fill="midnightblue" stroke="midnightblue" points="304.714,-870.804 312.911,-864.092 302.317,-864.227 304.714,-870.804"/>
</g>
<!-- Node46 -->
<g id="node103" class="node"><title>Node46</title>
<a xlink:href="_c_o_r_e__6_8cpp.html#a30cbf636d9bf3de2518c9f2da7252d7c" target="_top" xlink:title="reset_modified_levels\l_in_crossfade">
<polygon fill="white" stroke="black" points="296.5,-882 296.5,-922 407.5,-922 407.5,-882 296.5,-882"/>
<text text-anchor="start" x="304.5" y="-909" font-family="Helvetica,sans-Serif" font-size="10.00">reset_modified_levels</text>
<text text-anchor="middle" x="352" y="-893" font-family="Helvetica,sans-Serif" font-size="10.00">_in_crossfade</text>
</a>
</g>
<!-- Node45&#45;&gt;Node46 -->
<g id="edge114" class="edge"><title>Node45&#45;&gt;Node46</title>
<path fill="none" stroke="midnightblue" d="M249.125,-917.974C261.158,-916.106 273.915,-914.125 286.2,-912.217"/>
<polygon fill="midnightblue" stroke="midnightblue" points="287.037,-915.629 296.382,-910.636 285.963,-908.712 287.037,-915.629"/>
</g>
<!-- Node47 -->
<g id="node107" class="node"><title>Node47</title>
<a xlink:href="_c_o_r_e__6_8cpp.html#a68896df3fd9c10332440a34a96dfbc68" target="_top" xlink:title="refresh_integrated\l_gridplayer1">
<polygon fill="white" stroke="black" points="304.5,-1020 304.5,-1060 399.5,-1060 399.5,-1020 304.5,-1020"/>
<text text-anchor="start" x="312.5" y="-1047" font-family="Helvetica,sans-Serif" font-size="10.00">refresh_integrated</text>
<text text-anchor="middle" x="352" y="-1031" font-family="Helvetica,sans-Serif" font-size="10.00">_gridplayer1</text>
</a>
</g>
<!-- Node45&#45;&gt;Node47 -->
<g id="edge120" class="edge"><title>Node45&#45;&gt;Node47</title>
<path fill="none" stroke="midnightblue" d="M204.525,-939.038C223.075,-955.252 257.789,-984.547 290,-1006 294.534,-1009.02 299.359,-1012.01 304.238,-1014.9"/>
<polygon fill="midnightblue" stroke="midnightblue" points="302.615,-1018.01 313.027,-1019.96 306.109,-1011.94 302.615,-1018.01"/>
</g>
<!-- Node47&#45;&gt;Node11 -->
<g id="edge122" class="edge"><title>Node47&#45;&gt;Node11</title>
<path fill="none" stroke="midnightblue" d="M399.784,-1040C457.741,-1040 555.782,-1040 621.196,-1040"/>
<polygon fill="midnightblue" stroke="midnightblue" points="621.404,-1043.5 631.404,-1040 621.404,-1036.5 621.404,-1043.5"/>
</g>
<!-- Node48&#45;&gt;Node9 -->
<g id="edge132" class="edge"><title>Node48&#45;&gt;Node9</title>
<path fill="none" stroke="midnightblue" d="M254.072,-80.4357C331.795,-83.7632 467.835,-90.6494 584,-102 608.242,-104.369 635.528,-108.082 656.068,-111.089"/>
<polygon fill="midnightblue" stroke="midnightblue" points="655.736,-114.578 666.141,-112.586 656.765,-107.654 655.736,-114.578"/>
</g>
</g>
</svg>
