<?xml version="1.0" encoding="UTF-8" standalone="no"?>
<!DOCTYPE svg PUBLIC "-//W3C//DTD SVG 1.1//EN"
 "http://www.w3.org/Graphics/SVG/1.1/DTD/svg11.dtd">
<!-- Generated by graphviz version 2.26.3 (20100126.1600)
 -->
<!-- Title: Sequenciel_Window Pages: 1 -->
<!--zoomable 500 -->
<svg id="main" version="1.1" xmlns="http://www.w3.org/2000/svg" xmlns:xlink="http://www.w3.org/1999/xlink" xml:space="preserve" onload="init(evt)">
<style type="text/css"><![CDATA[
.edge:hover path { stroke: red; }
.edge:hover polygon { stroke: red; fill: red; }
]]></style>
<script type="text/javascript"><![CDATA[
var edges = document.getElementsByTagName('g');
if (edges && edges.length) {
  for (var i=0;i<edges.length;i++) {
    if (edges[i].id.substr(0,4)=='edge') {
      edges[i].setAttribute('class','edge');
    }
  }
}
]]></script>
        <defs>
                <circle id="rim" cx="0" cy="0" r="7"/>
                <circle id="rim2" cx="0" cy="0" r="3.5"/>
                <g id="zoomPlus">
                        <use xlink:href="#rim" fill="#404040">
                                <set attributeName="fill" to="#808080" begin="zoomplus.mouseover" end="zoomplus.mouseout"/>
                        </use>
                        <path d="M-4,0h8M0,-4v8" fill="none" stroke="white" stroke-width="1.5" pointer-events="none"/>
                </g>
                <g id="zoomMin">
                        <use xlink:href="#rim" fill="#404040">
                                <set attributeName="fill" to="#808080" begin="zoomminus.mouseover" end="zoomminus.mouseout"/>
                        </use>
                        <path d="M-4,0h8" fill="none" stroke="white" stroke-width="1.5" pointer-events="none"/>
                </g>
                <g id="dirArrow">
                        <path fill="none" stroke="white" stroke-width="1.5" d="M0,-3.0v7 M-2.5,-0.5L0,-3.0L2.5,-0.5"/>
                </g>
               <g id="resetDef">
                       <use xlink:href="#rim2" fill="#404040">
                               <set attributeName="fill" to="#808080" begin="reset.mouseover" end="reset.mouseout"/>
                       </use>
               </g>
        </defs>

<script type="text/javascript">
var viewWidth = 436;
var viewHeight = 500;
var sectionId = 'dynsection-3';
</script>
<script xlink:href="svgpan.js"/>
<svg id="graph" class="graph">
<g id="viewport">
<title>Sequenciel_Window</title>
<polygon fill="white" stroke="white" points="-4,5 -4,-496 433,-496 433,5 -4,5"/>
<!-- Node1 -->
<g id="node1" class="node"><title>Node1</title>
<polygon fill="#bfbfbf" stroke="black" points="0.5,-230 0.5,-254 105.5,-254 105.5,-230 0.5,-230"/>
<text text-anchor="middle" x="53" y="-241" font-family="Helvetica,sans-Serif" font-size="10.00">Sequenciel_Window</text>
</g>
<!-- Node2 -->
<g id="node3" class="node"><title>Node2</title>
<a xlink:href="sequentiel__7__visu_8cpp.html#aaa9e3d6dfa511aed5a938d99daca6d3f" target="_top" xlink:title="refresh_vision_memories">
<polygon fill="white" stroke="black" points="142.5,-403 142.5,-427 267.5,-427 267.5,-403 142.5,-403"/>
<text text-anchor="middle" x="205" y="-414" font-family="Helvetica,sans-Serif" font-size="10.00">refresh_vision_memories</text>
</a>
</g>
<!-- Node1&#45;&gt;Node2 -->
<g id="edge2" class="edge"><title>Node1&#45;&gt;Node2</title>
<path fill="none" stroke="midnightblue" d="M63.6883,-254.165C89.4629,-283.501 155.259,-358.387 187.144,-394.677"/>
<polygon fill="midnightblue" stroke="midnightblue" points="184.89,-397.415 194.12,-402.617 190.149,-392.794 184.89,-397.415"/>
</g>
<!-- Node4 -->
<g id="node7" class="node"><title>Node4</title>
<a xlink:href="sequentiel__7__visu_8cpp.html#aa0d5cc4c4ac1e0239551c9fde309658d" target="_top" xlink:title="x1_x2">
<polygon fill="white" stroke="black" points="183.5,-296 183.5,-320 226.5,-320 226.5,-296 183.5,-296"/>
<text text-anchor="middle" x="205" y="-307" font-family="Helvetica,sans-Serif" font-size="10.00">x1_x2</text>
</a>
</g>
<!-- Node1&#45;&gt;Node4 -->
<g id="edge6" class="edge"><title>Node1&#45;&gt;Node4</title>
<path fill="none" stroke="midnightblue" d="M80.8791,-254.105C107.137,-265.507 146.414,-282.561 173.727,-294.421"/>
<polygon fill="midnightblue" stroke="midnightblue" points="172.635,-297.763 183.202,-298.535 175.423,-291.342 172.635,-297.763"/>
</g>
<!-- Node9 -->
<g id="node17" class="node"><title>Node9</title>
<a xlink:href="_c_o_r_e__6_8cpp.html#a3680de15f6ccf838397bde99d246125a" target="_top" xlink:title="show_type_midi">
<polygon fill="white" stroke="black" points="322.5,-210 322.5,-234 409.5,-234 409.5,-210 322.5,-210"/>
<text text-anchor="middle" x="366" y="-221" font-family="Helvetica,sans-Serif" font-size="10.00">show_type_midi</text>
</a>
</g>
<!-- Node1&#45;&gt;Node9 -->
<g id="edge18" class="edge"><title>Node1&#45;&gt;Node9</title>
<path fill="none" stroke="midnightblue" d="M105.708,-242.69C117.642,-242.819 130.256,-242.934 142,-243 197.999,-243.315 212.312,-248.9 268,-243 282.481,-241.466 297.967,-238.691 312.253,-235.65"/>
<polygon fill="midnightblue" stroke="midnightblue" points="313.405,-238.98 322.413,-233.402 311.893,-232.145 313.405,-238.98"/>
</g>
<!-- Node10 -->
<g id="node20" class="node"><title>Node10</title>
<a xlink:href="grider8_8cpp.html#adf34126e40458873ce6c6e9dd5cdbaab" target="_top" xlink:title="TheStepBox">
<polygon fill="white" stroke="black" points="169.5,-168 169.5,-192 240.5,-192 240.5,-168 169.5,-168"/>
<text text-anchor="middle" x="205" y="-179" font-family="Helvetica,sans-Serif" font-size="10.00">TheStepBox</text>
</a>
</g>
<!-- Node1&#45;&gt;Node10 -->
<g id="edge20" class="edge"><title>Node1&#45;&gt;Node10</title>
<path fill="none" stroke="midnightblue" d="M77.2407,-229.954C94.9613,-221.366 119.695,-209.824 142,-201 147.632,-198.772 153.605,-196.574 159.542,-194.488"/>
<polygon fill="midnightblue" stroke="midnightblue" points="161.11,-197.65 169.434,-191.096 158.84,-191.029 161.11,-197.65"/>
</g>
<!-- Node13 -->
<g id="node27" class="node"><title>Node13</title>
<a xlink:href="grider8_8cpp.html#ad2a7a08d5d1c725b77f84719741dae4c" target="_top" xlink:title="ThePlayCommands">
<polygon fill="white" stroke="black" points="153.5,-84 153.5,-108 256.5,-108 256.5,-84 153.5,-84"/>
<text text-anchor="middle" x="205" y="-95" font-family="Helvetica,sans-Serif" font-size="10.00">ThePlayCommands</text>
</a>
</g>
<!-- Node1&#45;&gt;Node13 -->
<g id="edge28" class="edge"><title>Node1&#45;&gt;Node13</title>
<path fill="none" stroke="midnightblue" d="M65.698,-229.803C92.1402,-204.405 153.285,-145.673 185.043,-115.169"/>
<polygon fill="midnightblue" stroke="midnightblue" points="187.658,-117.511 192.445,-108.059 182.808,-112.462 187.658,-117.511"/>
</g>
<!-- Node17 -->
<g id="node36" class="node"><title>Node17</title>
<a xlink:href="grider8_8cpp.html#aca8abe8ebc9a78836e9214a351c32259" target="_top" xlink:title="TheGrid_commands">
<polygon fill="white" stroke="black" points="153,-210 153,-234 257,-234 257,-210 153,-210"/>
<text text-anchor="middle" x="205" y="-221" font-family="Helvetica,sans-Serif" font-size="10.00">TheGrid_commands</text>
</a>
</g>
<!-- Node1&#45;&gt;Node17 -->
<g id="edge38" class="edge"><title>Node1&#45;&gt;Node17</title>
<path fill="none" stroke="midnightblue" d="M105.736,-235.061C117.659,-233.492 130.429,-231.812 142.705,-230.197"/>
<polygon fill="midnightblue" stroke="midnightblue" points="143.413,-233.634 152.871,-228.859 142.5,-226.694 143.413,-233.634"/>
</g>
<!-- Node3 -->
<g id="node5" class="node"><title>Node3</title>
<a xlink:href="colors__fonts_8h.html#a2907c9cae585224ac5e56bc4baad9970" target="_top" xlink:title="CouleurYellow">
<polygon fill="white" stroke="black" points="326.5,-468 326.5,-492 405.5,-492 405.5,-468 326.5,-468"/>
<text text-anchor="middle" x="366" y="-479" font-family="Helvetica,sans-Serif" font-size="10.00">CouleurYellow</text>
</a>
</g>
<!-- Node2&#45;&gt;Node3 -->
<g id="edge4" class="edge"><title>Node2&#45;&gt;Node3</title>
<path fill="none" stroke="midnightblue" d="M230.369,-427.046C250.21,-436.279 278.597,-449.077 304,-459 308.773,-460.865 313.789,-462.724 318.813,-464.522"/>
<polygon fill="midnightblue" stroke="midnightblue" points="317.829,-467.886 328.424,-467.889 320.144,-461.28 317.829,-467.886"/>
</g>
<!-- Node5 -->
<g id="node9" class="node"><title>Node5</title>
<a xlink:href="gui__boutons__rebuild1_8cpp.html#abb581d7ddf10e2dccfaff413231dceaa" target="_top" xlink:title="raccrochage_midi_visuel\l_vertical_dmx">
<polygon fill="white" stroke="black" points="304,-352 304,-392 428,-392 428,-352 304,-352"/>
<text text-anchor="start" x="312" y="-379" font-family="Helvetica,sans-Serif" font-size="10.00">raccrochage_midi_visuel</text>
<text text-anchor="middle" x="366" y="-363" font-family="Helvetica,sans-Serif" font-size="10.00">_vertical_dmx</text>
</a>
</g>
<!-- Node4&#45;&gt;Node5 -->
<g id="edge8" class="edge"><title>Node4&#45;&gt;Node5</title>
<path fill="none" stroke="midnightblue" d="M226.713,-316.631C246.983,-324.689 278.187,-337.093 305.926,-348.12"/>
<polygon fill="midnightblue" stroke="midnightblue" points="304.984,-351.511 315.569,-351.953 307.569,-345.006 304.984,-351.511"/>
</g>
<!-- Node6 -->
<g id="node11" class="node"><title>Node6</title>
<a xlink:href="gui__boutons__rebuild1_8cpp.html#a53ca00cc38989cbf6f620338c409b777" target="_top" xlink:title="raccrochage_midi_visuel\l_vertical_dmx_inverted">
<polygon fill="white" stroke="black" points="304,-294 304,-334 428,-334 428,-294 304,-294"/>
<text text-anchor="start" x="312" y="-321" font-family="Helvetica,sans-Serif" font-size="10.00">raccrochage_midi_visuel</text>
<text text-anchor="middle" x="366" y="-305" font-family="Helvetica,sans-Serif" font-size="10.00">_vertical_dmx_inverted</text>
</a>
</g>
<!-- Node4&#45;&gt;Node6 -->
<g id="edge10" class="edge"><title>Node4&#45;&gt;Node6</title>
<path fill="none" stroke="midnightblue" d="M226.713,-308.809C243.987,-309.453 269.201,-310.393 293.445,-311.296"/>
<polygon fill="midnightblue" stroke="midnightblue" points="293.626,-314.805 303.75,-311.68 293.887,-307.81 293.626,-314.805"/>
</g>
<!-- Node7 -->
<g id="node13" class="node"><title>Node7</title>
<a xlink:href="colors__fonts_8h.html#ae9274ddf03277718b9234207fe9a3d3a" target="_top" xlink:title="CouleurGreen">
<polygon fill="white" stroke="black" points="327.5,-252 327.5,-276 404.5,-276 404.5,-252 327.5,-252"/>
<text text-anchor="middle" x="366" y="-263" font-family="Helvetica,sans-Serif" font-size="10.00">CouleurGreen</text>
</a>
</g>
<!-- Node4&#45;&gt;Node7 -->
<g id="edge12" class="edge"><title>Node4&#45;&gt;Node7</title>
<path fill="none" stroke="midnightblue" d="M226.713,-302.066C249.848,-295.743 287.225,-285.529 317.438,-277.272"/>
<polygon fill="midnightblue" stroke="midnightblue" points="318.655,-280.567 327.379,-274.555 316.81,-273.815 318.655,-280.567"/>
</g>
<!-- Node8 -->
<g id="node15" class="node"><title>Node8</title>
<a xlink:href="gui__boutons__rebuild1_8cpp.html#a039e24b1deea8472aa6312f1201a9264" target="_top" xlink:title="raccrochage_midi_visuel\l_horizontal">
<polygon fill="white" stroke="black" points="304,-410 304,-450 428,-450 428,-410 304,-410"/>
<text text-anchor="start" x="312" y="-437" font-family="Helvetica,sans-Serif" font-size="10.00">raccrochage_midi_visuel</text>
<text text-anchor="middle" x="366" y="-421" font-family="Helvetica,sans-Serif" font-size="10.00">_horizontal</text>
</a>
</g>
<!-- Node4&#45;&gt;Node8 -->
<g id="edge14" class="edge"><title>Node4&#45;&gt;Node8</title>
<path fill="none" stroke="midnightblue" d="M215.566,-320.153C232.655,-339.259 268.087,-376.649 304,-401 305.878,-402.273 307.821,-403.518 309.808,-404.731"/>
<polygon fill="midnightblue" stroke="midnightblue" points="308.327,-407.916 318.745,-409.841 311.801,-401.839 308.327,-407.916"/>
</g>
<!-- Node4&#45;&gt;Node9 -->
<g id="edge16" class="edge"><title>Node4&#45;&gt;Node9</title>
<path fill="none" stroke="midnightblue" d="M226.527,-298.842C239.097,-293.068 254.992,-285.013 268,-276 285.841,-263.638 285.32,-254.052 304,-243 306.976,-241.24 310.119,-239.601 313.35,-238.08"/>
<polygon fill="midnightblue" stroke="midnightblue" points="314.806,-241.264 322.613,-234.102 312.044,-234.832 314.806,-241.264"/>
</g>
<!-- Node10&#45;&gt;Node9 -->
<g id="edge26" class="edge"><title>Node10&#45;&gt;Node9</title>
<path fill="none" stroke="midnightblue" d="M240.731,-189.321C261.807,-194.819 288.886,-201.883 312.471,-208.036"/>
<polygon fill="midnightblue" stroke="midnightblue" points="311.779,-211.472 322.338,-210.61 313.546,-204.699 311.779,-211.472"/>
</g>
<!-- Node11 -->
<g id="node22" class="node"><title>Node11</title>
<a xlink:href="gui__boutons__rebuild1_8cpp.html#a602e186310541aea863c7368fef4b3f1" target="_top" xlink:title="previous_button_view">
<polygon fill="white" stroke="black" points="310.5,-126 310.5,-150 421.5,-150 421.5,-126 310.5,-126"/>
<text text-anchor="middle" x="366" y="-137" font-family="Helvetica,sans-Serif" font-size="10.00">previous_button_view</text>
</a>
</g>
<!-- Node10&#45;&gt;Node11 -->
<g id="edge22" class="edge"><title>Node10&#45;&gt;Node11</title>
<path fill="none" stroke="midnightblue" d="M240.731,-170.679C261.067,-165.374 286.992,-158.611 309.976,-152.615"/>
<polygon fill="midnightblue" stroke="midnightblue" points="311.165,-155.922 319.958,-150.011 309.398,-149.149 311.165,-155.922"/>
</g>
<!-- Node12 -->
<g id="node24" class="node"><title>Node12</title>
<a xlink:href="gui__boutons__rebuild1_8cpp.html#a25048f0a097129c29226ec04caae26a5" target="_top" xlink:title="next_button_view">
<polygon fill="white" stroke="black" points="319.5,-168 319.5,-192 412.5,-192 412.5,-168 319.5,-168"/>
<text text-anchor="middle" x="366" y="-179" font-family="Helvetica,sans-Serif" font-size="10.00">next_button_view</text>
</a>
</g>
<!-- Node10&#45;&gt;Node12 -->
<g id="edge24" class="edge"><title>Node10&#45;&gt;Node12</title>
<path fill="none" stroke="midnightblue" d="M240.731,-180C260.815,-180 286.351,-180 309.12,-180"/>
<polygon fill="midnightblue" stroke="midnightblue" points="309.358,-183.5 319.358,-180 309.358,-176.5 309.358,-183.5"/>
</g>
<!-- Node13&#45;&gt;Node9 -->
<g id="edge36" class="edge"><title>Node13&#45;&gt;Node9</title>
<path fill="none" stroke="midnightblue" d="M217.84,-108.273C230.779,-120.772 251.184,-140.841 268,-159 284.705,-177.039 283.631,-187.232 304,-201 306.864,-202.936 309.924,-204.709 313.091,-206.329"/>
<polygon fill="midnightblue" stroke="midnightblue" points="311.68,-209.532 322.231,-210.503 314.588,-203.165 311.68,-209.532"/>
</g>
<!-- Node14 -->
<g id="node29" class="node"><title>Node14</title>
<a xlink:href="gui__boutons__rebuild1_8cpp.html#aa6052f3f1534f1a69a06d1498f27af78" target="_top" xlink:title="play_button_view">
<polygon fill="white" stroke="black" points="320,-84 320,-108 412,-108 412,-84 320,-84"/>
<text text-anchor="middle" x="366" y="-95" font-family="Helvetica,sans-Serif" font-size="10.00">play_button_view</text>
</a>
</g>
<!-- Node13&#45;&gt;Node14 -->
<g id="edge30" class="edge"><title>Node13&#45;&gt;Node14</title>
<path fill="none" stroke="midnightblue" d="M256.828,-96C273.651,-96 292.397,-96 309.541,-96"/>
<polygon fill="midnightblue" stroke="midnightblue" points="309.977,-99.5001 319.977,-96 309.977,-92.5001 309.977,-99.5001"/>
</g>
<!-- Node15 -->
<g id="node31" class="node"><title>Node15</title>
<a xlink:href="gui__boutons__rebuild1_8cpp.html#a49d3463d08aebc6ce155aa1baae271bd" target="_top" xlink:title="seek_button_view">
<polygon fill="white" stroke="black" points="318.5,-42 318.5,-66 413.5,-66 413.5,-42 318.5,-42"/>
<text text-anchor="middle" x="366" y="-53" font-family="Helvetica,sans-Serif" font-size="10.00">seek_button_view</text>
</a>
</g>
<!-- Node13&#45;&gt;Node15 -->
<g id="edge32" class="edge"><title>Node13&#45;&gt;Node15</title>
<path fill="none" stroke="midnightblue" d="M251.136,-83.9645C269.494,-79.1756 290.786,-73.6209 310.016,-68.6045"/>
<polygon fill="midnightblue" stroke="midnightblue" points="311.064,-71.9482 319.857,-66.0373 309.297,-65.1749 311.064,-71.9482"/>
</g>
<!-- Node16 -->
<g id="node33" class="node"><title>Node16</title>
<a xlink:href="gui__boutons__rebuild1_8cpp.html#aaf89aac5edeb61d30e001c9abb9b341f" target="_top" xlink:title="playstop_button_view">
<polygon fill="white" stroke="black" points="310.5,-0 310.5,-24 421.5,-24 421.5,-0 310.5,-0"/>
<text text-anchor="middle" x="366" y="-11" font-family="Helvetica,sans-Serif" font-size="10.00">playstop_button_view</text>
</a>
</g>
<!-- Node13&#45;&gt;Node16 -->
<g id="edge34" class="edge"><title>Node13&#45;&gt;Node16</title>
<path fill="none" stroke="midnightblue" d="M221.451,-83.7796C240.535,-70.028 273.316,-47.6959 304,-33 307.863,-31.1499 311.932,-29.3895 316.063,-27.7323"/>
<polygon fill="midnightblue" stroke="midnightblue" points="317.638,-30.8784 325.747,-24.0596 315.155,-24.3334 317.638,-30.8784"/>
</g>
<!-- Node17&#45;&gt;Node9 -->
<g id="edge40" class="edge"><title>Node17&#45;&gt;Node9</title>
<path fill="none" stroke="midnightblue" d="M257.272,-222C274.849,-222 294.481,-222 312.175,-222"/>
<polygon fill="midnightblue" stroke="midnightblue" points="312.339,-225.5 322.339,-222 312.339,-218.5 312.339,-225.5"/>
</g>
</g>
</svg>
        <g id="navigator" transform="translate(0 0)" fill="#404254">
                <rect fill="#f2f5e9" fill-opacity="0.5" stroke="#606060" stroke-width=".5" x="0" y="0" width="60" height="60"/>
                <use id="zoomplus" xlink:href="#zoomPlus" x="17" y="9" onmousedown="handleZoom(evt,'in')"/>
                <use id="zoomminus" xlink:href="#zoomMin" x="42" y="9" onmousedown="handleZoom(evt,'out')"/>
                <use id="reset" xlink:href="#resetDef" x="30" y="36" onmousedown="handleReset()"/>
                <g id="arrowUp" xlink:href="#dirArrow" transform="translate(30 24)" onmousedown="handlePan(0,-1)">
                  <use xlink:href="#rim" fill="#404040">
                        <set attributeName="fill" to="#808080" begin="arrowUp.mouseover" end="arrowUp.mouseout"/>
                  </use>
                  <path fill="none" stroke="white" stroke-width="1.5" d="M0,-3.0v7 M-2.5,-0.5L0,-3.0L2.5,-0.5"/>
                </g>
                <g id="arrowRight" xlink:href="#dirArrow" transform="rotate(90) translate(36 -43)" onmousedown="handlePan(1,0)">
                  <use xlink:href="#rim" fill="#404040">
                        <set attributeName="fill" to="#808080" begin="arrowRight.mouseover" end="arrowRight.mouseout"/>
                  </use>
                  <path fill="none" stroke="white" stroke-width="1.5" d="M0,-3.0v7 M-2.5,-0.5L0,-3.0L2.5,-0.5"/>
                </g>
                <g id="arrowDown" xlink:href="#dirArrow" transform="rotate(180) translate(-30 -48)" onmousedown="handlePan(0,1)">
                  <use xlink:href="#rim" fill="#404040">
                        <set attributeName="fill" to="#808080" begin="arrowDown.mouseover" end="arrowDown.mouseout"/>
                  </use>
                  <path fill="none" stroke="white" stroke-width="1.5" d="M0,-3.0v7 M-2.5,-0.5L0,-3.0L2.5,-0.5"/>
                </g>
                <g id="arrowLeft" xlink:href="#dirArrow" transform="rotate(270) translate(-36 17)" onmousedown="handlePan(-1,0)">
                  <use xlink:href="#rim" fill="#404040">
                        <set attributeName="fill" to="#808080" begin="arrowLeft.mouseover" end="arrowLeft.mouseout"/>
                  </use>
                  <path fill="none" stroke="white" stroke-width="1.5" d="M0,-3.0v7 M-2.5,-0.5L0,-3.0L2.5,-0.5"/>
                </g>
        </g>
        <svg viewBox="0 0 15 15" width="100%" height="30px" preserveAspectRatio="xMaxYMin meet">
         <g id="arrow_out" transform="scale(0.3 0.3)">
          <a xlink:href="sequentiel__7__visu_8cpp_a5f032ba7b767bdb2b20d73c06bacf34b_cgraph_org.svg" target="_base">
           <rect id="button" ry="5" rx="5" y="6" x="6" height="38" width="38"
                fill="#f2f5e9" fill-opacity="0.5" stroke="#606060" stroke-width="1.0"/>
           <path id="arrow"
             d="M 11.500037,31.436501 C 11.940474,20.09759 22.043105,11.32322 32.158766,21.979434 L 37.068811,17.246167 C 37.068811,17.246167 37.088388,32 37.088388,32 L 22.160133,31.978069 C 22.160133,31.978069 26.997745,27.140456 26.997745,27.140456 C 18.528582,18.264221 13.291696,25.230495 11.500037,31.436501 z"
             style="fill:#404040;"/>
          </a>
         </g>
        </svg>
</svg>
