<?xml version="1.0" encoding="UTF-8" standalone="no"?>
<!DOCTYPE svg PUBLIC "-//W3C//DTD SVG 1.1//EN"
 "http://www.w3.org/Graphics/SVG/1.1/DTD/svg11.dtd">
<!-- Generated by graphviz version 2.26.3 (20100126.1600)
 -->
<!-- Title: next_mem_crossfade_finished Pages: 1 -->
<svg width="278pt" height="116pt"
 viewBox="0.00 0.00 278.00 116.00" xmlns="http://www.w3.org/2000/svg" xmlns:xlink="http://www.w3.org/1999/xlink">
<g id="graph1" class="graph" transform="scale(1 1) rotate(0) translate(4 112)">
<title>next_mem_crossfade_finished</title>
<polygon fill="white" stroke="white" points="-4,5 -4,-112 275,-112 275,5 -4,5"/>
<!-- Node1 -->
<g id="node1" class="node"><title>Node1</title>
<polygon fill="#bfbfbf" stroke="black" points="0,-34 0,-74 110,-74 110,-34 0,-34"/>
<text text-anchor="start" x="8" y="-61" font-family="Helvetica,sans-Serif" font-size="10.00">next_mem_crossfade</text>
<text text-anchor="middle" x="55" y="-45" font-family="Helvetica,sans-Serif" font-size="10.00">_finished</text>
</g>
<!-- Node2 -->
<g id="node3" class="node"><title>Node2</title>
<a xlink:href="_c_o_r_e__6_8cpp.html#ae7696959678ab167800352830bf81766" target="_top" xlink:title="detect_mem_preset">
<polygon fill="white" stroke="black" points="156.5,-84 156.5,-108 259.5,-108 259.5,-84 156.5,-84"/>
<text text-anchor="middle" x="208" y="-95" font-family="Helvetica,sans-Serif" font-size="10.00">detect_mem_preset</text>
</a>
</g>
<!-- Node1&#45;&gt;Node2 -->
<g id="edge2" class="edge"><title>Node1&#45;&gt;Node2</title>
<path fill="none" stroke="midnightblue" d="M110.237,-69.163C124.563,-73.0958 139.97,-77.3252 154.221,-81.2371"/>
<polygon fill="midnightblue" stroke="midnightblue" points="153.305,-84.615 163.874,-83.8871 155.158,-77.8647 153.305,-84.615"/>
</g>
<!-- Node3 -->
<g id="node5" class="node"><title>Node3</title>
<a xlink:href="_c_o_r_e__6_8cpp.html#a68c3767f8e350737e991a726e0ef1438" target="_top" xlink:title="refresh_mem_onpreset">
<polygon fill="white" stroke="black" points="150,-42 150,-66 266,-66 266,-42 150,-42"/>
<text text-anchor="middle" x="208" y="-53" font-family="Helvetica,sans-Serif" font-size="10.00">refresh_mem_onpreset</text>
</a>
</g>
<!-- Node1&#45;&gt;Node3 -->
<g id="edge4" class="edge"><title>Node1&#45;&gt;Node3</title>
<path fill="none" stroke="midnightblue" d="M110.237,-54C119.766,-54 129.773,-54 139.6,-54"/>
<polygon fill="midnightblue" stroke="midnightblue" points="139.748,-57.5001 149.748,-54 139.748,-50.5001 139.748,-57.5001"/>
</g>
<!-- Node4 -->
<g id="node7" class="node"><title>Node4</title>
<a xlink:href="_c_o_r_e__6_8cpp.html#adaf2ef6007ed8bd2568485df95ca65b8" target="_top" xlink:title="detect_mem_before_one">
<polygon fill="white" stroke="black" points="146,-0 146,-24 270,-24 270,-0 146,-0"/>
<text text-anchor="middle" x="208" y="-11" font-family="Helvetica,sans-Serif" font-size="10.00">detect_mem_before_one</text>
</a>
</g>
<!-- Node1&#45;&gt;Node4 -->
<g id="edge6" class="edge"><title>Node1&#45;&gt;Node4</title>
<path fill="none" stroke="midnightblue" d="M110.237,-38.837C124.563,-34.9042 139.97,-30.6748 154.221,-26.7629"/>
<polygon fill="midnightblue" stroke="midnightblue" points="155.158,-30.1353 163.874,-24.1129 153.305,-23.385 155.158,-30.1353"/>
</g>
</g>
</svg>
