<?xml version="1.0" encoding="UTF-8" standalone="no"?>
<!DOCTYPE svg PUBLIC "-//W3C//DTD SVG 1.1//EN"
 "http://www.w3.org/Graphics/SVG/1.1/DTD/svg11.dtd">
<!-- Generated by graphviz version 2.26.3 (20100126.1600)
 -->
<!-- Title: do_logical_Time_Window Pages: 1 -->
<!--zoomable 468 -->
<svg id="main" version="1.1" xmlns="http://www.w3.org/2000/svg" xmlns:xlink="http://www.w3.org/1999/xlink" xml:space="preserve" onload="init(evt)">
<style type="text/css"><![CDATA[
.edge:hover path { stroke: red; }
.edge:hover polygon { stroke: red; fill: red; }
]]></style>
<script type="text/javascript"><![CDATA[
var edges = document.getElementsByTagName('g');
if (edges && edges.length) {
  for (var i=0;i<edges.length;i++) {
    if (edges[i].id.substr(0,4)=='edge') {
      edges[i].setAttribute('class','edge');
    }
  }
}
]]></script>
        <defs>
                <circle id="rim" cx="0" cy="0" r="7"/>
                <circle id="rim2" cx="0" cy="0" r="3.5"/>
                <g id="zoomPlus">
                        <use xlink:href="#rim" fill="#404040">
                                <set attributeName="fill" to="#808080" begin="zoomplus.mouseover" end="zoomplus.mouseout"/>
                        </use>
                        <path d="M-4,0h8M0,-4v8" fill="none" stroke="white" stroke-width="1.5" pointer-events="none"/>
                </g>
                <g id="zoomMin">
                        <use xlink:href="#rim" fill="#404040">
                                <set attributeName="fill" to="#808080" begin="zoomminus.mouseover" end="zoomminus.mouseout"/>
                        </use>
                        <path d="M-4,0h8" fill="none" stroke="white" stroke-width="1.5" pointer-events="none"/>
                </g>
                <g id="dirArrow">
                        <path fill="none" stroke="white" stroke-width="1.5" d="M0,-3.0v7 M-2.5,-0.5L0,-3.0L2.5,-0.5"/>
                </g>
               <g id="resetDef">
                       <use xlink:href="#rim2" fill="#404040">
                               <set attributeName="fill" to="#808080" begin="reset.mouseover" end="reset.mouseout"/>
                       </use>
               </g>
        </defs>

<script type="text/javascript">
var viewWidth = 594;
var viewHeight = 468;
var sectionId = 'dynsection-3';
</script>
<script xlink:href="svgpan.js"/>
<svg id="graph" class="graph">
<g id="viewport">
<title>do_logical_Time_Window</title>
<polygon fill="white" stroke="white" points="-4,5 -4,-464.463 591,-464.463 591,5 -4,5"/>
<!-- Node1 -->
<g id="node1" class="node"><title>Node1</title>
<polygon fill="#bfbfbf" stroke="black" points="0,-214.463 0,-238.463 128,-238.463 128,-214.463 0,-214.463"/>
<text text-anchor="middle" x="64" y="-225.463" font-family="Helvetica,sans-Serif" font-size="10.00">do_logical_Time_Window</text>
</g>
<!-- Node2 -->
<g id="node3" class="node"><title>Node2</title>
<a xlink:href="_c_o_r_e__6_8cpp.html#ad7187a2df52460607db81f8bf0500953" target="_top" xlink:title="attribute_midi_solo\l_affectation">
<polygon fill="white" stroke="black" points="181,-420.463 181,-460.463 279,-460.463 279,-420.463 181,-420.463"/>
<text text-anchor="start" x="189" y="-447.463" font-family="Helvetica,sans-Serif" font-size="10.00">attribute_midi_solo</text>
<text text-anchor="middle" x="230" y="-431.463" font-family="Helvetica,sans-Serif" font-size="10.00">_affectation</text>
</a>
</g>
<!-- Node1&#45;&gt;Node2 -->
<g id="edge2" class="edge"><title>Node1&#45;&gt;Node2</title>
<path fill="none" stroke="midnightblue" d="M67.9019,-238.516C78.5899,-269.89 111.116,-355.214 164,-406.463 167.072,-409.44 170.457,-412.217 174.021,-414.795"/>
<polygon fill="midnightblue" stroke="midnightblue" points="172.327,-417.87 182.603,-420.451 176.179,-412.025 172.327,-417.87"/>
</g>
<!-- Node4 -->
<g id="node7" class="node"><title>Node4</title>
<a xlink:href="time__core__3_8cpp.html#aa13fdced1e9efa3d645d9021593edf7e" target="_top" xlink:title="Chrono_PlayPause">
<polygon fill="white" stroke="black" points="179.5,-298.463 179.5,-322.463 280.5,-322.463 280.5,-298.463 179.5,-298.463"/>
<text text-anchor="middle" x="230" y="-309.463" font-family="Helvetica,sans-Serif" font-size="10.00">Chrono_PlayPause</text>
</a>
</g>
<!-- Node1&#45;&gt;Node4 -->
<g id="edge6" class="edge"><title>Node1&#45;&gt;Node4</title>
<path fill="none" stroke="midnightblue" d="M80.244,-238.527C99.4423,-252.342 132.74,-274.933 164,-289.463 168.273,-291.45 172.784,-293.32 177.361,-295.063"/>
<polygon fill="midnightblue" stroke="midnightblue" points="176.197,-298.364 186.791,-298.459 178.569,-291.778 176.197,-298.364"/>
</g>
<!-- Node5 -->
<g id="node9" class="node"><title>Node5</title>
<a xlink:href="_c_o_r_e__6_8cpp.html#a9574e0b790211959c7398e42468410d8" target="_top" xlink:title="toggle">
<polygon fill="white" stroke="black" points="367.5,-340.463 367.5,-364.463 410.5,-364.463 410.5,-340.463 367.5,-340.463"/>
<text text-anchor="middle" x="389" y="-351.463" font-family="Helvetica,sans-Serif" font-size="10.00">toggle</text>
</a>
</g>
<!-- Node1&#45;&gt;Node5 -->
<g id="edge22" class="edge"><title>Node1&#45;&gt;Node5</title>
<path fill="none" stroke="midnightblue" d="M67.8128,-238.55C77.8892,-268.152 108.345,-344.012 164,-373.463 226.381,-406.474 312.196,-382.721 357.707,-365.68"/>
<polygon fill="midnightblue" stroke="midnightblue" points="359.254,-368.834 367.313,-361.956 356.724,-362.307 359.254,-368.834"/>
</g>
<!-- Node6 -->
<g id="node11" class="node"><title>Node6</title>
<a xlink:href="banger__core__8_8cpp.html#a9615c6c17d4bd54d959e0d9b85a0ff77" target="_top" xlink:title="Chrono_Reset">
<polygon fill="white" stroke="black" points="190,-256.463 190,-280.463 270,-280.463 270,-256.463 190,-256.463"/>
<text text-anchor="middle" x="230" y="-267.463" font-family="Helvetica,sans-Serif" font-size="10.00">Chrono_Reset</text>
</a>
</g>
<!-- Node1&#45;&gt;Node6 -->
<g id="edge10" class="edge"><title>Node1&#45;&gt;Node6</title>
<path fill="none" stroke="midnightblue" d="M111.569,-238.499C133.004,-243.922 158.32,-250.328 180.033,-255.821"/>
<polygon fill="midnightblue" stroke="midnightblue" points="179.175,-259.214 189.728,-258.274 180.892,-252.428 179.175,-259.214"/>
</g>
<!-- Node7 -->
<g id="node13" class="node"><title>Node7</title>
<a xlink:href="_c_o_r_e__6_8cpp.html#ac4236bb4164b6b65e8ff01c0549d47a9" target="_top" xlink:title="set_time_cursor_to\l_time_type">
<polygon fill="white" stroke="black" points="339,-115.463 339,-155.463 439,-155.463 439,-115.463 339,-115.463"/>
<text text-anchor="start" x="347" y="-142.463" font-family="Helvetica,sans-Serif" font-size="10.00">set_time_cursor_to</text>
<text text-anchor="middle" x="389" y="-126.463" font-family="Helvetica,sans-Serif" font-size="10.00">_time_type</text>
</a>
</g>
<!-- Node1&#45;&gt;Node7 -->
<g id="edge16" class="edge"><title>Node1&#45;&gt;Node7</title>
<path fill="none" stroke="midnightblue" d="M65.5373,-214.32C70.9477,-177.342 92.8053,-65.9479 164,-21.4634 213.753,9.62375 243.003,3.69747 296,-21.4634 332.693,-38.8835 359.685,-78.6507 374.871,-106.28"/>
<polygon fill="midnightblue" stroke="midnightblue" points="371.788,-107.938 379.565,-115.134 377.973,-104.66 371.788,-107.938"/>
</g>
<!-- Node9 -->
<g id="node18" class="node"><title>Node9</title>
<a xlink:href="chasers__core__5_8cpp.html#ae2b4b1de6181d516a8ae0b71b7a37838" target="_top" xlink:title="set_chaser_tempo_unit">
<polygon fill="white" stroke="black" points="171,-214.463 171,-238.463 289,-238.463 289,-214.463 171,-214.463"/>
<text text-anchor="middle" x="230" y="-225.463" font-family="Helvetica,sans-Serif" font-size="10.00">set_chaser_tempo_unit</text>
</a>
</g>
<!-- Node1&#45;&gt;Node9 -->
<g id="edge18" class="edge"><title>Node1&#45;&gt;Node9</title>
<path fill="none" stroke="midnightblue" d="M128.18,-226.463C138.827,-226.463 149.911,-226.463 160.679,-226.463"/>
<polygon fill="midnightblue" stroke="midnightblue" points="160.881,-229.963 170.881,-226.463 160.881,-222.963 160.881,-229.963"/>
</g>
<!-- Node10 -->
<g id="node20" class="node"><title>Node10</title>
<a xlink:href="_c_o_r_e__6_8cpp.html#a852678868d2a66db68f4a2c9eacfcc78" target="_top" xlink:title="reset_numeric_entry">
<polygon fill="white" stroke="black" points="177.5,-172.463 177.5,-196.463 282.5,-196.463 282.5,-172.463 177.5,-172.463"/>
<text text-anchor="middle" x="230" y="-183.463" font-family="Helvetica,sans-Serif" font-size="10.00">reset_numeric_entry</text>
</a>
</g>
<!-- Node1&#45;&gt;Node10 -->
<g id="edge20" class="edge"><title>Node1&#45;&gt;Node10</title>
<path fill="none" stroke="midnightblue" d="M111.569,-214.428C130.583,-209.617 152.652,-204.033 172.55,-198.999"/>
<polygon fill="midnightblue" stroke="midnightblue" points="173.588,-202.347 182.424,-196.501 171.871,-195.56 173.588,-202.347"/>
</g>
<!-- Node11 -->
<g id="node23" class="node"><title>Node11</title>
<a xlink:href="_c_o_r_e__6_8cpp.html#a18d9930e99d784f37bcf4427b9bb616f" target="_top" xlink:title="set_new_time_in_tap\l_tempo">
<polygon fill="white" stroke="black" points="175.5,-114.463 175.5,-154.463 284.5,-154.463 284.5,-114.463 175.5,-114.463"/>
<text text-anchor="start" x="183.5" y="-141.463" font-family="Helvetica,sans-Serif" font-size="10.00">set_new_time_in_tap</text>
<text text-anchor="middle" x="230" y="-125.463" font-family="Helvetica,sans-Serif" font-size="10.00">_tempo</text>
</a>
</g>
<!-- Node1&#45;&gt;Node11 -->
<g id="edge24" class="edge"><title>Node1&#45;&gt;Node11</title>
<path fill="none" stroke="midnightblue" d="M81.5886,-214.26C101.199,-200.922 134.097,-179.34 164,-163.463 166.874,-161.937 169.845,-160.422 172.864,-158.932"/>
<polygon fill="midnightblue" stroke="midnightblue" points="174.509,-162.024 182.014,-154.546 171.483,-155.712 174.509,-162.024"/>
</g>
<!-- Node12 -->
<g id="node25" class="node"><title>Node12</title>
<a xlink:href="_c_o_r_e__6_8cpp.html#a934d136a7c8a752109bc4b160717ee36" target="_top" xlink:title="reset_index_actions">
<polygon fill="white" stroke="black" points="178,-72.4634 178,-96.4634 282,-96.4634 282,-72.4634 178,-72.4634"/>
<text text-anchor="middle" x="230" y="-83.4634" font-family="Helvetica,sans-Serif" font-size="10.00">reset_index_actions</text>
</a>
</g>
<!-- Node1&#45;&gt;Node12 -->
<g id="edge26" class="edge"><title>Node1&#45;&gt;Node12</title>
<path fill="none" stroke="midnightblue" d="M70.8266,-214.194C84.9922,-189.846 119.963,-135.21 164,-105.463 166.429,-103.823 168.993,-102.304 171.646,-100.899"/>
<polygon fill="midnightblue" stroke="midnightblue" points="173.363,-103.96 180.934,-96.5484 170.393,-97.6211 173.363,-103.96"/>
</g>
<!-- Node13 -->
<g id="node27" class="node"><title>Node13</title>
<a xlink:href="_c_o_r_e__6_8cpp.html#afb9b54a7bc4ccbba5ddcdc2097550188" target="_top" xlink:title="reset_indexs_confirmation">
<polygon fill="white" stroke="black" points="164.5,-30.4634 164.5,-54.4634 295.5,-54.4634 295.5,-30.4634 164.5,-30.4634"/>
<text text-anchor="middle" x="230" y="-41.4634" font-family="Helvetica,sans-Serif" font-size="10.00">reset_indexs_confirmation</text>
</a>
</g>
<!-- Node1&#45;&gt;Node13 -->
<g id="edge28" class="edge"><title>Node1&#45;&gt;Node13</title>
<path fill="none" stroke="midnightblue" d="M68.1011,-214.188C78.8354,-183.932 110.674,-105.217 164,-63.4634 165.846,-62.0179 167.794,-60.6707 169.817,-59.4153"/>
<polygon fill="midnightblue" stroke="midnightblue" points="171.909,-62.2672 179.091,-54.4785 168.619,-56.0882 171.909,-62.2672"/>
</g>
<!-- Node14 -->
<g id="node29" class="node"><title>Node14</title>
<a xlink:href="_c_o_r_e__6_8cpp.html#a258baf5cfe97f8043dec96ce785fcb34" target="_top" xlink:title="button_midi_out_core">
<polygon fill="white" stroke="black" points="175,-340.463 175,-364.463 285,-364.463 285,-340.463 175,-340.463"/>
<text text-anchor="middle" x="230" y="-351.463" font-family="Helvetica,sans-Serif" font-size="10.00">button_midi_out_core</text>
</a>
</g>
<!-- Node1&#45;&gt;Node14 -->
<g id="edge30" class="edge"><title>Node1&#45;&gt;Node14</title>
<path fill="none" stroke="midnightblue" d="M72.4269,-238.745C88.0064,-260.547 123.448,-306.101 164,-331.463 166.804,-333.217 169.766,-334.836 172.822,-336.329"/>
<polygon fill="midnightblue" stroke="midnightblue" points="171.636,-339.631 182.2,-340.441 174.447,-333.22 171.636,-339.631"/>
</g>
<!-- Node3 -->
<g id="node5" class="node"><title>Node3</title>
<a xlink:href="_c_o_r_e__6_8cpp.html#aa6f6d52757e4af2364c17c3e9dee8095" target="_top" xlink:title="search_and_desaffect\l_previous_midi_signal">
<polygon fill="white" stroke="black" points="332.5,-420.463 332.5,-460.463 445.5,-460.463 445.5,-420.463 332.5,-420.463"/>
<text text-anchor="start" x="340.5" y="-447.463" font-family="Helvetica,sans-Serif" font-size="10.00">search_and_desaffect</text>
<text text-anchor="middle" x="389" y="-431.463" font-family="Helvetica,sans-Serif" font-size="10.00">_previous_midi_signal</text>
</a>
</g>
<!-- Node2&#45;&gt;Node3 -->
<g id="edge4" class="edge"><title>Node2&#45;&gt;Node3</title>
<path fill="none" stroke="midnightblue" d="M279.003,-440.463C292.586,-440.463 307.57,-440.463 321.991,-440.463"/>
<polygon fill="midnightblue" stroke="midnightblue" points="322.364,-443.963 332.364,-440.463 322.364,-436.963 322.364,-443.963"/>
</g>
<!-- Node4&#45;&gt;Node5 -->
<g id="edge8" class="edge"><title>Node4&#45;&gt;Node5</title>
<path fill="none" stroke="midnightblue" d="M275.563,-322.499C301.782,-329.425 334.064,-337.952 357.478,-344.137"/>
<polygon fill="midnightblue" stroke="midnightblue" points="356.678,-347.546 367.241,-346.716 358.466,-340.778 356.678,-347.546"/>
</g>
<!-- Node6&#45;&gt;Node7 -->
<g id="edge12" class="edge"><title>Node6&#45;&gt;Node7</title>
<path fill="none" stroke="midnightblue" d="M270.071,-259.725C279.057,-256.701 288.222,-252.704 296,-247.463 328.249,-225.734 355.327,-189.667 371.801,-164.347"/>
<polygon fill="midnightblue" stroke="midnightblue" points="374.771,-166.198 377.177,-155.88 368.862,-162.446 374.771,-166.198"/>
</g>
<!-- Node8 -->
<g id="node15" class="node"><title>Node8</title>
<a xlink:href="_c_o_r_e__6_8cpp.html#a23e8581e0717573c80f8fc12ea8606bd" target="_top" xlink:title="refresh_time_cursor">
<polygon fill="white" stroke="black" points="482.5,-123.463 482.5,-147.463 585.5,-147.463 585.5,-123.463 482.5,-123.463"/>
<text text-anchor="middle" x="534" y="-134.463" font-family="Helvetica,sans-Serif" font-size="10.00">refresh_time_cursor</text>
</a>
</g>
<!-- Node7&#45;&gt;Node8 -->
<g id="edge14" class="edge"><title>Node7&#45;&gt;Node8</title>
<path fill="none" stroke="midnightblue" d="M439.307,-135.463C449.845,-135.463 461.074,-135.463 471.981,-135.463"/>
<polygon fill="midnightblue" stroke="midnightblue" points="472.306,-138.963 482.306,-135.463 472.306,-131.963 472.306,-138.963"/>
</g>
<!-- Node14&#45;&gt;Node5 -->
<g id="edge32" class="edge"><title>Node14&#45;&gt;Node5</title>
<path fill="none" stroke="midnightblue" d="M285.164,-352.463C309.3,-352.463 336.748,-352.463 357.359,-352.463"/>
<polygon fill="midnightblue" stroke="midnightblue" points="357.461,-355.963 367.461,-352.463 357.461,-348.963 357.461,-355.963"/>
</g>
</g>
</svg>
        <g id="navigator" transform="translate(0 0)" fill="#404254">
                <rect fill="#f2f5e9" fill-opacity="0.5" stroke="#606060" stroke-width=".5" x="0" y="0" width="60" height="60"/>
                <use id="zoomplus" xlink:href="#zoomPlus" x="17" y="9" onmousedown="handleZoom(evt,'in')"/>
                <use id="zoomminus" xlink:href="#zoomMin" x="42" y="9" onmousedown="handleZoom(evt,'out')"/>
                <use id="reset" xlink:href="#resetDef" x="30" y="36" onmousedown="handleReset()"/>
                <g id="arrowUp" xlink:href="#dirArrow" transform="translate(30 24)" onmousedown="handlePan(0,-1)">
                  <use xlink:href="#rim" fill="#404040">
                        <set attributeName="fill" to="#808080" begin="arrowUp.mouseover" end="arrowUp.mouseout"/>
                  </use>
                  <path fill="none" stroke="white" stroke-width="1.5" d="M0,-3.0v7 M-2.5,-0.5L0,-3.0L2.5,-0.5"/>
                </g>
                <g id="arrowRight" xlink:href="#dirArrow" transform="rotate(90) translate(36 -43)" onmousedown="handlePan(1,0)">
                  <use xlink:href="#rim" fill="#404040">
                        <set attributeName="fill" to="#808080" begin="arrowRight.mouseover" end="arrowRight.mouseout"/>
                  </use>
                  <path fill="none" stroke="white" stroke-width="1.5" d="M0,-3.0v7 M-2.5,-0.5L0,-3.0L2.5,-0.5"/>
                </g>
                <g id="arrowDown" xlink:href="#dirArrow" transform="rotate(180) translate(-30 -48)" onmousedown="handlePan(0,1)">
                  <use xlink:href="#rim" fill="#404040">
                        <set attributeName="fill" to="#808080" begin="arrowDown.mouseover" end="arrowDown.mouseout"/>
                  </use>
                  <path fill="none" stroke="white" stroke-width="1.5" d="M0,-3.0v7 M-2.5,-0.5L0,-3.0L2.5,-0.5"/>
                </g>
                <g id="arrowLeft" xlink:href="#dirArrow" transform="rotate(270) translate(-36 17)" onmousedown="handlePan(-1,0)">
                  <use xlink:href="#rim" fill="#404040">
                        <set attributeName="fill" to="#808080" begin="arrowLeft.mouseover" end="arrowLeft.mouseout"/>
                  </use>
                  <path fill="none" stroke="white" stroke-width="1.5" d="M0,-3.0v7 M-2.5,-0.5L0,-3.0L2.5,-0.5"/>
                </g>
        </g>
        <svg viewBox="0 0 15 15" width="100%" height="30px" preserveAspectRatio="xMaxYMin meet">
         <g id="arrow_out" transform="scale(0.3 0.3)">
          <a xlink:href="time__core__3_8cpp_a266e777ef8650f8334aaba3598c646f9_cgraph_org.svg" target="_base">
           <rect id="button" ry="5" rx="5" y="6" x="6" height="38" width="38"
                fill="#f2f5e9" fill-opacity="0.5" stroke="#606060" stroke-width="1.0"/>
           <path id="arrow"
             d="M 11.500037,31.436501 C 11.940474,20.09759 22.043105,11.32322 32.158766,21.979434 L 37.068811,17.246167 C 37.068811,17.246167 37.088388,32 37.088388,32 L 22.160133,31.978069 C 22.160133,31.978069 26.997745,27.140456 26.997745,27.140456 C 18.528582,18.264221 13.291696,25.230495 11.500037,31.436501 z"
             style="fill:#404040;"/>
          </a>
         </g>
        </svg>
</svg>
