<?xml version="1.0" encoding="UTF-8" standalone="no"?>
<!DOCTYPE svg PUBLIC "-//W3C//DTD SVG 1.1//EN"
 "http://www.w3.org/Graphics/SVG/1.1/DTD/svg11.dtd">
<!-- Generated by graphviz version 2.26.3 (20100126.1600)
 -->
<!-- Title: print_time_reperes Pages: 1 -->
<svg width="538pt" height="32pt"
 viewBox="0.00 0.00 538.00 32.00" xmlns="http://www.w3.org/2000/svg" xmlns:xlink="http://www.w3.org/1999/xlink">
<g id="graph1" class="graph" transform="scale(1 1) rotate(0) translate(4 28)">
<title>print_time_reperes</title>
<polygon fill="white" stroke="white" points="-4,5 -4,-28 535,-28 535,5 -4,5"/>
<!-- Node1 -->
<g id="node1" class="node"><title>Node1</title>
<polygon fill="#bfbfbf" stroke="black" points="0.5,-0 0.5,-24 97.5,-24 97.5,-0 0.5,-0"/>
<text text-anchor="middle" x="49" y="-11" font-family="Helvetica,sans-Serif" font-size="10.00">print_time_reperes</text>
</g>
<!-- Node2 -->
<g id="node3" class="node"><title>Node2</title>
<a xlink:href="time__visu__3_8cpp.html#abc4eb7a7462371548e20a8c3600d22eb" target="_top" xlink:title="Time_Window">
<polygon fill="white" stroke="black" points="134.5,-0 134.5,-24 213.5,-24 213.5,-0 134.5,-0"/>
<text text-anchor="middle" x="174" y="-11" font-family="Helvetica,sans-Serif" font-size="10.00">Time_Window</text>
</a>
</g>
<!-- Node1&#45;&gt;Node2 -->
<g id="edge2" class="edge"><title>Node1&#45;&gt;Node2</title>
<path fill="none" stroke="midnightblue" d="M107.706,-12C116.655,-12 125.708,-12 134.127,-12"/>
<polygon fill="midnightblue" stroke="midnightblue" points="107.686,-8.5001 97.6862,-12 107.686,-15.5001 107.686,-8.5001"/>
</g>
<!-- Node3 -->
<g id="node5" class="node"><title>Node3</title>
<a xlink:href="graphics__rebuild1_8cpp.html#ac2eae1e03fb72cc734ffbcef566483bf" target="_top" xlink:title="Boxes">
<polygon fill="white" stroke="black" points="250,-0 250,-24 294,-24 294,-0 250,-0"/>
<text text-anchor="middle" x="272" y="-11" font-family="Helvetica,sans-Serif" font-size="10.00">Boxes</text>
</a>
</g>
<!-- Node2&#45;&gt;Node3 -->
<g id="edge4" class="edge"><title>Node2&#45;&gt;Node3</title>
<path fill="none" stroke="midnightblue" d="M223.806,-12C232.911,-12 241.978,-12 249.751,-12"/>
<polygon fill="midnightblue" stroke="midnightblue" points="223.578,-8.5001 213.578,-12 223.578,-15.5001 223.578,-8.5001"/>
</g>
<!-- Node4 -->
<g id="node7" class="node"><title>Node4</title>
<a xlink:href="_m_a_i_n__avec__objets_8cpp.html#ade8d4ba65d55c94f8ee277829d722155" target="_top" xlink:title="main_actions_on_screen">
<polygon fill="white" stroke="black" points="330.5,-0 330.5,-24 455.5,-24 455.5,-0 330.5,-0"/>
<text text-anchor="middle" x="393" y="-11" font-family="Helvetica,sans-Serif" font-size="10.00">main_actions_on_screen</text>
</a>
</g>
<!-- Node3&#45;&gt;Node4 -->
<g id="edge6" class="edge"><title>Node3&#45;&gt;Node4</title>
<path fill="none" stroke="midnightblue" d="M304.244,-12C312.32,-12 321.263,-12 330.271,-12"/>
<polygon fill="midnightblue" stroke="midnightblue" points="304.193,-8.5001 294.193,-12 304.193,-15.5001 304.193,-8.5001"/>
</g>
<!-- Node5 -->
<g id="node9" class="node"><title>Node5</title>
<a xlink:href="_m_a_i_n__avec__objets_8cpp.html#ae66f6b31b5ad750f1fe042a706a4e3d4" target="_top" xlink:title="main">
<polygon fill="white" stroke="black" points="492,-0 492,-24 530,-24 530,-0 492,-0"/>
<text text-anchor="middle" x="511" y="-11" font-family="Helvetica,sans-Serif" font-size="10.00">main</text>
</a>
</g>
<!-- Node4&#45;&gt;Node5 -->
<g id="edge8" class="edge"><title>Node4&#45;&gt;Node5</title>
<path fill="none" stroke="midnightblue" d="M465.837,-12C475.336,-12 484.327,-12 491.749,-12"/>
<polygon fill="midnightblue" stroke="midnightblue" points="465.8,-8.5001 455.8,-12 465.8,-15.5001 465.8,-8.5001"/>
</g>
</g>
</svg>
