<?xml version="1.0" encoding="UTF-8" standalone="no"?>
<!DOCTYPE svg PUBLIC "-//W3C//DTD SVG 1.1//EN"
 "http://www.w3.org/Graphics/SVG/1.1/DTD/svg11.dtd">
<!-- Generated by graphviz version 2.26.3 (20100126.1600)
 -->
<!-- Title: main Pages: 1 -->
<!--zoomable 276 -->
<svg id="main" version="1.1" xmlns="http://www.w3.org/2000/svg" xmlns:xlink="http://www.w3.org/1999/xlink" xml:space="preserve" onload="init(evt)">
<style type="text/css"><![CDATA[
.edge:hover path { stroke: red; }
.edge:hover polygon { stroke: red; fill: red; }
]]></style>
<script type="text/javascript"><![CDATA[
var edges = document.getElementsByTagName('g');
if (edges && edges.length) {
  for (var i=0;i<edges.length;i++) {
    if (edges[i].id.substr(0,4)=='edge') {
      edges[i].setAttribute('class','edge');
    }
  }
}
]]></script>
        <defs>
                <circle id="rim" cx="0" cy="0" r="7"/>
                <circle id="rim2" cx="0" cy="0" r="3.5"/>
                <g id="zoomPlus">
                        <use xlink:href="#rim" fill="#404040">
                                <set attributeName="fill" to="#808080" begin="zoomplus.mouseover" end="zoomplus.mouseout"/>
                        </use>
                        <path d="M-4,0h8M0,-4v8" fill="none" stroke="white" stroke-width="1.5" pointer-events="none"/>
                </g>
                <g id="zoomMin">
                        <use xlink:href="#rim" fill="#404040">
                                <set attributeName="fill" to="#808080" begin="zoomminus.mouseover" end="zoomminus.mouseout"/>
                        </use>
                        <path d="M-4,0h8" fill="none" stroke="white" stroke-width="1.5" pointer-events="none"/>
                </g>
                <g id="dirArrow">
                        <path fill="none" stroke="white" stroke-width="1.5" d="M0,-3.0v7 M-2.5,-0.5L0,-3.0L2.5,-0.5"/>
                </g>
               <g id="resetDef">
                       <use xlink:href="#rim2" fill="#404040">
                               <set attributeName="fill" to="#808080" begin="reset.mouseover" end="reset.mouseout"/>
                       </use>
               </g>
        </defs>

<script type="text/javascript">
var viewWidth = 820;
var viewHeight = 276;
var sectionId = 'dynsection-6';
</script>
<script xlink:href="svgpan.js"/>
<svg id="graph" class="graph">
<g id="viewport">
<title>main</title>
<polygon fill="white" stroke="white" points="-4,5 -4,-272 817,-272 817,5 -4,5"/>
<!-- Node1 -->
<g id="node1" class="node"><title>Node1</title>
<polygon fill="#bfbfbf" stroke="black" points="0,-120 0,-144 38,-144 38,-120 0,-120"/>
<text text-anchor="middle" x="19" y="-131" font-family="Helvetica,sans-Serif" font-size="10.00">main</text>
</g>
<!-- Node2 -->
<g id="node3" class="node"><title>Node2</title>
<a xlink:href="tracker__main14nov_8cpp.html#a6a015280c1363331ada8a329be6eb7c8" target="_top" xlink:title="ticker">
<polygon fill="white" stroke="black" points="89.5,-240 89.5,-264 130.5,-264 130.5,-240 89.5,-240"/>
<text text-anchor="middle" x="110" y="-251" font-family="Helvetica,sans-Serif" font-size="10.00">ticker</text>
</a>
</g>
<!-- Node1&#45;&gt;Node2 -->
<g id="edge2" class="edge"><title>Node1&#45;&gt;Node2</title>
<path fill="none" stroke="midnightblue" d="M23.3486,-144.297C30.973,-164.449 48.4131,-204.871 74,-231 76.0408,-233.084 78.3316,-235.032 80.7429,-236.836"/>
<polygon fill="midnightblue" stroke="midnightblue" points="78.9376,-239.838 89.2182,-242.399 82.7788,-233.986 78.9376,-239.838"/>
</g>
<!-- Node3 -->
<g id="node5" class="node"><title>Node3</title>
<a xlink:href="tracker__main14nov_8cpp.html#a343d540f006963227ee5b445888ca393" target="_top" xlink:title="ticker_move">
<polygon fill="white" stroke="black" points="75,-198 75,-222 145,-222 145,-198 75,-198"/>
<text text-anchor="middle" x="110" y="-209" font-family="Helvetica,sans-Serif" font-size="10.00">ticker_move</text>
</a>
</g>
<!-- Node1&#45;&gt;Node3 -->
<g id="edge4" class="edge"><title>Node1&#45;&gt;Node3</title>
<path fill="none" stroke="midnightblue" d="M30.812,-144.042C41.6742,-154.9 58.411,-171.096 74,-184 77.118,-186.581 80.4711,-189.197 83.8319,-191.724"/>
<polygon fill="midnightblue" stroke="midnightblue" points="81.9356,-194.674 92.072,-197.757 86.0706,-189.026 81.9356,-194.674"/>
</g>
<!-- Node8 -->
<g id="node16" class="node"><title>Node8</title>
<a xlink:href="mover__2013_8cpp.html#a4cd6cdd120b9feb87202ddb062daecbb" target="_top" xlink:title="prepare_move_values">
<polygon fill="white" stroke="black" points="322,-160 322,-184 434,-184 434,-160 322,-160"/>
<text text-anchor="middle" x="378" y="-171" font-family="Helvetica,sans-Serif" font-size="10.00">prepare_move_values</text>
</a>
</g>
<!-- Node1&#45;&gt;Node8 -->
<g id="edge36" class="edge"><title>Node1&#45;&gt;Node8</title>
<path fill="none" stroke="midnightblue" d="M38.1796,-137.705C48.6722,-140.617 61.9527,-143.966 74,-146 155.265,-159.723 250.042,-166.369 311.888,-169.471"/>
<polygon fill="midnightblue" stroke="midnightblue" points="311.745,-172.969 321.903,-169.957 312.084,-165.977 311.745,-172.969"/>
</g>
<!-- Node10 -->
<g id="node20" class="node"><title>Node10</title>
<a xlink:href="mover__spline6_8cpp.html#a090797adb1f79d0d55f8967194130c47" target="_top" xlink:title="Prepare_Cross_Spline">
<polygon fill="white" stroke="black" points="470,-120 470,-144 584,-144 584,-120 470,-120"/>
<text text-anchor="middle" x="527" y="-131" font-family="Helvetica,sans-Serif" font-size="10.00">Prepare_Cross_Spline</text>
</a>
</g>
<!-- Node1&#45;&gt;Node10 -->
<g id="edge38" class="edge"><title>Node1&#45;&gt;Node10</title>
<path fill="none" stroke="midnightblue" d="M38.2939,-132C107.081,-132 342.44,-132 459.612,-132"/>
<polygon fill="midnightblue" stroke="midnightblue" points="459.89,-135.5 469.89,-132 459.89,-128.5 459.89,-135.5"/>
</g>
<!-- Node14 -->
<g id="node29" class="node"><title>Node14</title>
<a xlink:href="tracker__main14nov_8cpp.html#a5ed0e12936f7d3649de463336207b914" target="_top" xlink:title="Load_Fonts">
<polygon fill="white" stroke="black" points="76,-80 76,-104 144,-104 144,-80 76,-80"/>
<text text-anchor="middle" x="110" y="-91" font-family="Helvetica,sans-Serif" font-size="10.00">Load_Fonts</text>
</a>
</g>
<!-- Node1&#45;&gt;Node14 -->
<g id="edge30" class="edge"><title>Node1&#45;&gt;Node14</title>
<path fill="none" stroke="midnightblue" d="M38.2988,-123.517C48.4259,-119.066 61.18,-113.459 73.1136,-108.214"/>
<polygon fill="midnightblue" stroke="midnightblue" points="74.6961,-111.341 82.4423,-104.113 71.8793,-104.933 74.6961,-111.341"/>
</g>
<!-- Node16 -->
<g id="node33" class="node"><title>Node16</title>
<a xlink:href="tracker__main14nov_8cpp.html#a74ab97b69fd601d87ba61140a21a749f" target="_top" xlink:title="CouleurFader">
<polygon fill="white" stroke="black" points="196.5,-38 196.5,-62 271.5,-62 271.5,-38 196.5,-38"/>
<text text-anchor="middle" x="234" y="-49" font-family="Helvetica,sans-Serif" font-size="10.00">CouleurFader</text>
</a>
</g>
<!-- Node1&#45;&gt;Node16 -->
<g id="edge42" class="edge"><title>Node1&#45;&gt;Node16</title>
<path fill="none" stroke="midnightblue" d="M26.1854,-119.79C35.3284,-105.475 52.541,-82.2754 74,-71 108.463,-52.8916 152.656,-48.2546 185.861,-47.7997"/>
<polygon fill="midnightblue" stroke="midnightblue" points="186.234,-51.2993 196.23,-47.7871 186.225,-44.2993 186.234,-51.2993"/>
</g>
<!-- Node17 -->
<g id="node37" class="node"><title>Node17</title>
<a xlink:href="tracker__main14nov_8cpp.html#a01abcd7f79dd32725287eba005b345e1" target="_top" xlink:title="CouleurFond">
<polygon fill="white" stroke="black" points="74,-0 74,-24 146,-24 146,-0 74,-0"/>
<text text-anchor="middle" x="110" y="-11" font-family="Helvetica,sans-Serif" font-size="10.00">CouleurFond</text>
</a>
</g>
<!-- Node1&#45;&gt;Node17 -->
<g id="edge40" class="edge"><title>Node1&#45;&gt;Node17</title>
<path fill="none" stroke="midnightblue" d="M24.0539,-119.987C32.4298,-101.047 50.6095,-63.7534 74,-38 76.4054,-35.3516 79.1217,-32.809 81.9572,-30.4208"/>
<polygon fill="midnightblue" stroke="midnightblue" points="84.3216,-33.0174 90.1044,-24.14 80.0477,-27.4736 84.3216,-33.0174"/>
</g>
<!-- Node4 -->
<g id="node7" class="node"><title>Node4</title>
<a xlink:href="mover__2013_8cpp.html#af1627b55add388ce92ebb0130bc45ede" target="_top" xlink:title="Move_do_crossfade">
<polygon fill="white" stroke="black" points="182,-200 182,-224 286,-224 286,-200 182,-200"/>
<text text-anchor="middle" x="234" y="-211" font-family="Helvetica,sans-Serif" font-size="10.00">Move_do_crossfade</text>
</a>
</g>
<!-- Node3&#45;&gt;Node4 -->
<g id="edge6" class="edge"><title>Node3&#45;&gt;Node4</title>
<path fill="none" stroke="midnightblue" d="M145.202,-210.568C153.421,-210.7 162.419,-210.845 171.433,-210.991"/>
<polygon fill="midnightblue" stroke="midnightblue" points="171.521,-214.493 181.576,-211.154 171.633,-207.494 171.521,-214.493"/>
</g>
<!-- Node5 -->
<g id="node9" class="node"><title>Node5</title>
<a xlink:href="mover__2013_8cpp.html#abb003e89ded4a3c6a731f3e7526ef3a6" target="_top" xlink:title="Move_StepForward">
<polygon fill="white" stroke="black" points="327.5,-244 327.5,-268 428.5,-268 428.5,-244 327.5,-244"/>
<text text-anchor="middle" x="378" y="-255" font-family="Helvetica,sans-Serif" font-size="10.00">Move_StepForward</text>
</a>
</g>
<!-- Node4&#45;&gt;Node5 -->
<g id="edge8" class="edge"><title>Node4&#45;&gt;Node5</title>
<path fill="none" stroke="midnightblue" d="M273.349,-224.023C290.492,-229.262 310.77,-235.457 328.889,-240.994"/>
<polygon fill="midnightblue" stroke="midnightblue" points="328.113,-244.416 338.699,-243.991 330.158,-237.722 328.113,-244.416"/>
</g>
<!-- Node7 -->
<g id="node13" class="node"><title>Node7</title>
<a xlink:href="mover__2013_8cpp.html#a09da21b3ee6f5a971c70ce7509a45751" target="_top" xlink:title="Move_StepBackward">
<polygon fill="white" stroke="black" points="323,-202 323,-226 433,-226 433,-202 323,-202"/>
<text text-anchor="middle" x="378" y="-213" font-family="Helvetica,sans-Serif" font-size="10.00">Move_StepBackward</text>
</a>
</g>
<!-- Node4&#45;&gt;Node7 -->
<g id="edge12" class="edge"><title>Node4&#45;&gt;Node7</title>
<path fill="none" stroke="midnightblue" d="M286.395,-212.728C294.949,-212.847 303.903,-212.971 312.721,-213.093"/>
<polygon fill="midnightblue" stroke="midnightblue" points="312.931,-216.597 322.979,-213.236 313.028,-209.597 312.931,-216.597"/>
</g>
<!-- Node4&#45;&gt;Node8 -->
<g id="edge16" class="edge"><title>Node4&#45;&gt;Node8</title>
<path fill="none" stroke="midnightblue" d="M277.205,-199.999C292.02,-195.883 308.782,-191.227 324.324,-186.91"/>
<polygon fill="midnightblue" stroke="midnightblue" points="325.63,-190.18 334.328,-184.131 323.756,-183.435 325.63,-190.18"/>
</g>
<!-- Node6 -->
<g id="node11" class="node"><title>Node6</title>
<a xlink:href="mover__2013_8cpp.html#a87973de95365fca754397b86972fb103" target="_top" xlink:title="Move_refresh_xy">
<polygon fill="white" stroke="black" points="481,-224 481,-248 573,-248 573,-224 481,-224"/>
<text text-anchor="middle" x="527" y="-235" font-family="Helvetica,sans-Serif" font-size="10.00">Move_refresh_xy</text>
</a>
</g>
<!-- Node5&#45;&gt;Node6 -->
<g id="edge10" class="edge"><title>Node5&#45;&gt;Node6</title>
<path fill="none" stroke="midnightblue" d="M428.861,-249.173C442.297,-247.37 456.877,-245.412 470.588,-243.572"/>
<polygon fill="midnightblue" stroke="midnightblue" points="471.424,-246.991 480.87,-242.192 470.493,-240.054 471.424,-246.991"/>
</g>
<!-- Node7&#45;&gt;Node6 -->
<g id="edge14" class="edge"><title>Node7&#45;&gt;Node6</title>
<path fill="none" stroke="midnightblue" d="M433.059,-222.129C445.364,-223.946 458.43,-225.876 470.782,-227.699"/>
<polygon fill="midnightblue" stroke="midnightblue" points="470.553,-231.203 480.957,-229.202 471.575,-224.278 470.553,-231.203"/>
</g>
<!-- Node9 -->
<g id="node18" class="node"><title>Node9</title>
<a xlink:href="mover__2013_8cpp.html#a5fbe4af69b774a1738d80f6879d958e9" target="_top" xlink:title="convert_bytes_to_int">
<polygon fill="white" stroke="black" points="473.5,-162 473.5,-186 580.5,-186 580.5,-162 473.5,-162"/>
<text text-anchor="middle" x="527" y="-173" font-family="Helvetica,sans-Serif" font-size="10.00">convert_bytes_to_int</text>
</a>
</g>
<!-- Node8&#45;&gt;Node9 -->
<g id="edge18" class="edge"><title>Node8&#45;&gt;Node9</title>
<path fill="none" stroke="midnightblue" d="M434.331,-172.756C443.651,-172.881 453.375,-173.012 462.87,-173.139"/>
<polygon fill="midnightblue" stroke="midnightblue" points="463.007,-176.641 473.053,-173.276 463.101,-169.642 463.007,-176.641"/>
</g>
<!-- Node8&#45;&gt;Node10 -->
<g id="edge20" class="edge"><title>Node8&#45;&gt;Node10</title>
<path fill="none" stroke="midnightblue" d="M422.705,-159.999C438.251,-155.825 455.87,-151.095 472.142,-146.727"/>
<polygon fill="midnightblue" stroke="midnightblue" points="473.319,-150.035 482.069,-144.062 471.504,-143.274 473.319,-150.035"/>
</g>
<!-- Node11 -->
<g id="node22" class="node"><title>Node11</title>
<a xlink:href="mover__spline6_8cpp.html#a71a41e8d002948913c4ae79560729c48" target="_top" xlink:title="get_control_points">
<polygon fill="white" stroke="black" points="620,-145 620,-169 716,-169 716,-145 620,-145"/>
<text text-anchor="middle" x="668" y="-156" font-family="Helvetica,sans-Serif" font-size="10.00">get_control_points</text>
</a>
</g>
<!-- Node10&#45;&gt;Node11 -->
<g id="edge22" class="edge"><title>Node10&#45;&gt;Node11</title>
<path fill="none" stroke="midnightblue" d="M584.35,-142.168C592.698,-143.649 601.3,-145.174 609.667,-146.657"/>
<polygon fill="midnightblue" stroke="midnightblue" points="609.265,-150.14 619.722,-148.44 610.487,-143.248 609.265,-150.14"/>
</g>
<!-- Node13 -->
<g id="node26" class="node"><title>Node13</title>
<a xlink:href="mover__spline6_8cpp.html#a41772bd93cf820f16672603cc49e4a13" target="_top" xlink:title="get_control_points\l_backward">
<polygon fill="white" stroke="black" points="620,-87 620,-127 716,-127 716,-87 620,-87"/>
<text text-anchor="start" x="628" y="-114" font-family="Helvetica,sans-Serif" font-size="10.00">get_control_points</text>
<text text-anchor="middle" x="668" y="-98" font-family="Helvetica,sans-Serif" font-size="10.00">_backward</text>
</a>
</g>
<!-- Node10&#45;&gt;Node13 -->
<g id="edge26" class="edge"><title>Node10&#45;&gt;Node13</title>
<path fill="none" stroke="midnightblue" d="M584.35,-121.832C592.698,-120.351 601.3,-118.826 609.667,-117.343"/>
<polygon fill="midnightblue" stroke="midnightblue" points="610.487,-120.752 619.722,-115.56 609.265,-113.86 610.487,-120.752"/>
</g>
<!-- Node12 -->
<g id="node24" class="node"><title>Node12</title>
<a xlink:href="mover__spline6_8cpp.html#a98185a4f31c71ab881cacc66ef0d87e1" target="_top" xlink:title="node_dist">
<polygon fill="white" stroke="black" points="752.5,-120 752.5,-144 811.5,-144 811.5,-120 752.5,-120"/>
<text text-anchor="middle" x="782" y="-131" font-family="Helvetica,sans-Serif" font-size="10.00">node_dist</text>
</a>
</g>
<!-- Node11&#45;&gt;Node12 -->
<g id="edge24" class="edge"><title>Node11&#45;&gt;Node12</title>
<path fill="none" stroke="midnightblue" d="M716.016,-146.47C724.755,-144.554 733.782,-142.574 742.249,-140.717"/>
<polygon fill="midnightblue" stroke="midnightblue" points="743.224,-144.087 752.242,-138.526 741.724,-137.249 743.224,-144.087"/>
</g>
<!-- Node13&#45;&gt;Node12 -->
<g id="edge28" class="edge"><title>Node13&#45;&gt;Node12</title>
<path fill="none" stroke="midnightblue" d="M716.016,-117.53C724.755,-119.446 733.782,-121.426 742.249,-123.283"/>
<polygon fill="midnightblue" stroke="midnightblue" points="741.724,-126.751 752.242,-125.474 743.224,-119.913 741.724,-126.751"/>
</g>
<!-- Node15 -->
<g id="node31" class="node"><title>Node15</title>
<a xlink:href="tracker__main14nov_8cpp.html#a4f8d24a0f5516a9e088f5ff29820c5b1" target="_top" xlink:title="CouleurLevel">
<polygon fill="white" stroke="black" points="197,-80 197,-104 271,-104 271,-80 197,-80"/>
<text text-anchor="middle" x="234" y="-91" font-family="Helvetica,sans-Serif" font-size="10.00">CouleurLevel</text>
</a>
</g>
<!-- Node14&#45;&gt;Node15 -->
<g id="edge32" class="edge"><title>Node14&#45;&gt;Node15</title>
<path fill="none" stroke="midnightblue" d="M144.212,-92C157.364,-92 172.62,-92 186.782,-92"/>
<polygon fill="midnightblue" stroke="midnightblue" points="186.856,-95.5001 196.856,-92 186.856,-88.5001 186.856,-95.5001"/>
</g>
<!-- Node14&#45;&gt;Node16 -->
<g id="edge34" class="edge"><title>Node14&#45;&gt;Node16</title>
<path fill="none" stroke="midnightblue" d="M144.212,-80.4121C157.841,-75.7958 173.729,-70.4143 188.319,-65.4725"/>
<polygon fill="midnightblue" stroke="midnightblue" points="189.821,-68.6594 198.169,-62.1362 187.575,-62.0294 189.821,-68.6594"/>
</g>
</g>
</svg>
        <g id="navigator" transform="translate(0 0)" fill="#404254">
                <rect fill="#f2f5e9" fill-opacity="0.5" stroke="#606060" stroke-width=".5" x="0" y="0" width="60" height="60"/>
                <use id="zoomplus" xlink:href="#zoomPlus" x="17" y="9" onmousedown="handleZoom(evt,'in')"/>
                <use id="zoomminus" xlink:href="#zoomMin" x="42" y="9" onmousedown="handleZoom(evt,'out')"/>
                <use id="reset" xlink:href="#resetDef" x="30" y="36" onmousedown="handleReset()"/>
                <g id="arrowUp" xlink:href="#dirArrow" transform="translate(30 24)" onmousedown="handlePan(0,-1)">
                  <use xlink:href="#rim" fill="#404040">
                        <set attributeName="fill" to="#808080" begin="arrowUp.mouseover" end="arrowUp.mouseout"/>
                  </use>
                  <path fill="none" stroke="white" stroke-width="1.5" d="M0,-3.0v7 M-2.5,-0.5L0,-3.0L2.5,-0.5"/>
                </g>
                <g id="arrowRight" xlink:href="#dirArrow" transform="rotate(90) translate(36 -43)" onmousedown="handlePan(1,0)">
                  <use xlink:href="#rim" fill="#404040">
                        <set attributeName="fill" to="#808080" begin="arrowRight.mouseover" end="arrowRight.mouseout"/>
                  </use>
                  <path fill="none" stroke="white" stroke-width="1.5" d="M0,-3.0v7 M-2.5,-0.5L0,-3.0L2.5,-0.5"/>
                </g>
                <g id="arrowDown" xlink:href="#dirArrow" transform="rotate(180) translate(-30 -48)" onmousedown="handlePan(0,1)">
                  <use xlink:href="#rim" fill="#404040">
                        <set attributeName="fill" to="#808080" begin="arrowDown.mouseover" end="arrowDown.mouseout"/>
                  </use>
                  <path fill="none" stroke="white" stroke-width="1.5" d="M0,-3.0v7 M-2.5,-0.5L0,-3.0L2.5,-0.5"/>
                </g>
                <g id="arrowLeft" xlink:href="#dirArrow" transform="rotate(270) translate(-36 17)" onmousedown="handlePan(-1,0)">
                  <use xlink:href="#rim" fill="#404040">
                        <set attributeName="fill" to="#808080" begin="arrowLeft.mouseover" end="arrowLeft.mouseout"/>
                  </use>
                  <path fill="none" stroke="white" stroke-width="1.5" d="M0,-3.0v7 M-2.5,-0.5L0,-3.0L2.5,-0.5"/>
                </g>
        </g>
        <svg viewBox="0 0 15 15" width="100%" height="30px" preserveAspectRatio="xMaxYMin meet">
         <g id="arrow_out" transform="scale(0.3 0.3)">
          <a xlink:href="tracker__main14nov_8cpp_ae66f6b31b5ad750f1fe042a706a4e3d4_cgraph_org.svg" target="_base">
           <rect id="button" ry="5" rx="5" y="6" x="6" height="38" width="38"
                fill="#f2f5e9" fill-opacity="0.5" stroke="#606060" stroke-width="1.0"/>
           <path id="arrow"
             d="M 11.500037,31.436501 C 11.940474,20.09759 22.043105,11.32322 32.158766,21.979434 L 37.068811,17.246167 C 37.068811,17.246167 37.088388,32 37.088388,32 L 22.160133,31.978069 C 22.160133,31.978069 26.997745,27.140456 26.997745,27.140456 C 18.528582,18.264221 13.291696,25.230495 11.500037,31.436501 z"
             style="fill:#404040;"/>
          </a>
         </g>
        </svg>
</svg>
