<?xml version="1.0" encoding="UTF-8" standalone="no"?>
<!DOCTYPE svg PUBLIC "-//W3C//DTD SVG 1.1//EN"
 "http://www.w3.org/Graphics/SVG/1.1/DTD/svg11.dtd">
<!-- Generated by graphviz version 2.26.3 (20100126.1600)
 -->
<!-- Title: trichro_visu2.cpp Pages: 1 -->
<svg width="562pt" height="112pt"
 viewBox="0.00 0.00 562.00 112.00" xmlns="http://www.w3.org/2000/svg" xmlns:xlink="http://www.w3.org/1999/xlink">
<g id="graph1" class="graph" transform="scale(1 1) rotate(0) translate(4 108)">
<title>trichro_visu2.cpp</title>
<polygon fill="white" stroke="white" points="-4,5 -4,-108 559,-108 559,5 -4,5"/>
<!-- Node1 -->
<g id="node1" class="node"><title>Node1</title>
<polygon fill="#bfbfbf" stroke="black" points="217.5,-79 217.5,-103 308.5,-103 308.5,-79 217.5,-79"/>
<text text-anchor="middle" x="263" y="-90" font-family="Helvetica,sans-Serif" font-size="10.00">trichro_visu2.cpp</text>
</g>
<!-- Node2 -->
<g id="node3" class="node"><title>Node2</title>
<a xlink:href="_m_a_i_n__avec__objets_8cpp.html" target="_top" xlink:title="MAIN_avec_objets.cpp">
<polygon fill="white" stroke="black" points="-0.5,-9 -0.5,-33 118.5,-33 118.5,-9 -0.5,-9"/>
<text text-anchor="middle" x="59" y="-20" font-family="Helvetica,sans-Serif" font-size="10.00">MAIN_avec_objets.cpp</text>
</a>
</g>
<!-- Node1&#45;&gt;Node2 -->
<g id="edge2" class="edge"><title>Node1&#45;&gt;Node2</title>
<path fill="none" stroke="midnightblue" d="M218.326,-75.6708C181.059,-62.8831 128.673,-44.9074 94.2939,-33.1107"/>
<polygon fill="midnightblue" stroke="midnightblue" points="217.337,-79.0314 227.931,-78.9666 219.608,-72.4104 217.337,-79.0314"/>
</g>
<!-- Node3 -->
<g id="node5" class="node"><title>Node3</title>
<a xlink:href="_m_a_i_n__febrier__2014_8cpp.html" target="_top" xlink:title="MAIN_febrier_2014.cpp">
<polygon fill="white" stroke="black" points="135.5,-9 135.5,-33 254.5,-33 254.5,-9 135.5,-9"/>
<text text-anchor="middle" x="195" y="-20" font-family="Helvetica,sans-Serif" font-size="10.00">MAIN_febrier_2014.cpp</text>
</a>
</g>
<!-- Node1&#45;&gt;Node3 -->
<g id="edge4" class="edge"><title>Node1&#45;&gt;Node3</title>
<path fill="none" stroke="midnightblue" d="M244.166,-71.6126C232.169,-59.262 217.002,-43.6493 206.709,-33.0533"/>
<polygon fill="midnightblue" stroke="midnightblue" points="241.677,-74.0729 251.155,-78.8069 246.698,-69.1953 241.677,-74.0729"/>
</g>
<!-- Node4 -->
<g id="node7" class="node"><title>Node4</title>
<a xlink:href="_m_a_i_n__fevrier__2014_8cpp.html" target="_top" xlink:title="MAIN_fevrier_2014.cpp">
<polygon fill="white" stroke="black" points="271.5,-9 271.5,-33 390.5,-33 390.5,-9 271.5,-9"/>
<text text-anchor="middle" x="331" y="-20" font-family="Helvetica,sans-Serif" font-size="10.00">MAIN_fevrier_2014.cpp</text>
</a>
</g>
<!-- Node1&#45;&gt;Node4 -->
<g id="edge6" class="edge"><title>Node1&#45;&gt;Node4</title>
<path fill="none" stroke="midnightblue" d="M281.834,-71.6126C293.831,-59.262 308.998,-43.6493 319.291,-33.0533"/>
<polygon fill="midnightblue" stroke="midnightblue" points="279.302,-69.1953 274.845,-78.8069 284.323,-74.0729 279.302,-69.1953"/>
</g>
<!-- Node5 -->
<g id="node9" class="node"><title>Node5</title>
<a xlink:href="_m_a_i_n__janv__2014__opensource__kbd_8cpp.html" target="_top" xlink:title="{main loop} ">
<polygon fill="white" stroke="black" points="407.5,-1 407.5,-41 554.5,-41 554.5,-1 407.5,-1"/>
<text text-anchor="start" x="415.5" y="-28" font-family="Helvetica,sans-Serif" font-size="10.00">MAIN_janv_2014_opensource</text>
<text text-anchor="middle" x="481" y="-12" font-family="Helvetica,sans-Serif" font-size="10.00">_kbd.cpp</text>
</a>
</g>
<!-- Node1&#45;&gt;Node5 -->
<g id="edge8" class="edge"><title>Node1&#45;&gt;Node5</title>
<path fill="none" stroke="midnightblue" d="M310.371,-75.7891C342.038,-65.6207 384.042,-52.1332 418.45,-41.0848"/>
<polygon fill="midnightblue" stroke="midnightblue" points="308.927,-72.5768 300.476,-78.9666 311.067,-79.2417 308.927,-72.5768"/>
</g>
</g>
</svg>
