<?xml version="1.0" encoding="UTF-8" standalone="no"?>
<!DOCTYPE svg PUBLIC "-//W3C//DTD SVG 1.1//EN"
 "http://www.w3.org/Graphics/SVG/1.1/DTD/svg11.dtd">
<!-- Generated by graphviz version 2.26.3 (20100126.1600)
 -->
<!-- Title: show_who_is_in_dock_color Pages: 1 -->
<svg width="612pt" height="48pt"
 viewBox="0.00 0.00 612.00 48.00" xmlns="http://www.w3.org/2000/svg" xmlns:xlink="http://www.w3.org/1999/xlink">
<g id="graph1" class="graph" transform="scale(1 1) rotate(0) translate(4 44)">
<title>show_who_is_in_dock_color</title>
<polygon fill="white" stroke="white" points="-4,5 -4,-44 609,-44 609,5 -4,5"/>
<!-- Node1 -->
<g id="node1" class="node"><title>Node1</title>
<polygon fill="#bfbfbf" stroke="black" points="0.5,-0 0.5,-40 115.5,-40 115.5,-0 0.5,-0"/>
<text text-anchor="start" x="8.5" y="-27" font-family="Helvetica,sans-Serif" font-size="10.00">show_who_is_in_dock</text>
<text text-anchor="middle" x="58" y="-11" font-family="Helvetica,sans-Serif" font-size="10.00">_color</text>
</g>
<!-- Node2 -->
<g id="node3" class="node"><title>Node2</title>
<a xlink:href="trichro__core2_8cpp.html#aa3d6dc3f1fd939f78ed71dfc80f21124" target="_top" xlink:title="do_logical_Interface\l_Trichromie">
<polygon fill="white" stroke="black" points="152,-0 152,-40 256,-40 256,-0 152,-0"/>
<text text-anchor="start" x="160" y="-27" font-family="Helvetica,sans-Serif" font-size="10.00">do_logical_Interface</text>
<text text-anchor="middle" x="204" y="-11" font-family="Helvetica,sans-Serif" font-size="10.00">_Trichromie</text>
</a>
</g>
<!-- Node1&#45;&gt;Node2 -->
<g id="edge2" class="edge"><title>Node1&#45;&gt;Node2</title>
<path fill="none" stroke="midnightblue" d="M125.897,-20C134.644,-20 143.49,-20 151.928,-20"/>
<polygon fill="midnightblue" stroke="midnightblue" points="125.703,-16.5001 115.703,-20 125.703,-23.5001 125.703,-16.5001"/>
</g>
<!-- Node3 -->
<g id="node5" class="node"><title>Node3</title>
<a xlink:href="procs__visuels__rebuild1_8cpp.html#ae710b6e599e321ad5934a90140067054" target="_top" xlink:title="check_graphics_mouse\l_handling">
<polygon fill="white" stroke="black" points="292.5,-0 292.5,-40 411.5,-40 411.5,-0 292.5,-0"/>
<text text-anchor="start" x="300.5" y="-27" font-family="Helvetica,sans-Serif" font-size="10.00">check_graphics_mouse</text>
<text text-anchor="middle" x="352" y="-11" font-family="Helvetica,sans-Serif" font-size="10.00">_handling</text>
</a>
</g>
<!-- Node2&#45;&gt;Node3 -->
<g id="edge4" class="edge"><title>Node2&#45;&gt;Node3</title>
<path fill="none" stroke="midnightblue" d="M266.241,-20C274.925,-20 283.83,-20 292.462,-20"/>
<polygon fill="midnightblue" stroke="midnightblue" points="266.179,-16.5001 256.179,-20 266.179,-23.5001 266.179,-16.5001"/>
</g>
<!-- Node4 -->
<g id="node7" class="node"><title>Node4</title>
<a xlink:href="_m_a_i_n__avec__objets_8cpp.html#a8e80f54ac804eddce8ed6e45adb1db44" target="_top" xlink:title="ticker_full_loop">
<polygon fill="white" stroke="black" points="448,-8 448,-32 530,-32 530,-8 448,-8"/>
<text text-anchor="middle" x="489" y="-19" font-family="Helvetica,sans-Serif" font-size="10.00">ticker_full_loop</text>
</a>
</g>
<!-- Node3&#45;&gt;Node4 -->
<g id="edge6" class="edge"><title>Node3&#45;&gt;Node4</title>
<path fill="none" stroke="midnightblue" d="M421.967,-20C430.737,-20 439.475,-20 447.605,-20"/>
<polygon fill="midnightblue" stroke="midnightblue" points="421.692,-16.5001 411.692,-20 421.692,-23.5001 421.692,-16.5001"/>
</g>
<!-- Node5 -->
<g id="node9" class="node"><title>Node5</title>
<a xlink:href="_m_a_i_n__avec__objets_8cpp.html#ae66f6b31b5ad750f1fe042a706a4e3d4" target="_top" xlink:title="main">
<polygon fill="white" stroke="black" points="566,-8 566,-32 604,-32 604,-8 566,-8"/>
<text text-anchor="middle" x="585" y="-19" font-family="Helvetica,sans-Serif" font-size="10.00">main</text>
</a>
</g>
<!-- Node4&#45;&gt;Node5 -->
<g id="edge8" class="edge"><title>Node4&#45;&gt;Node5</title>
<path fill="none" stroke="midnightblue" d="M540.509,-20C549.577,-20 558.476,-20 565.904,-20"/>
<polygon fill="midnightblue" stroke="midnightblue" points="540.27,-16.5001 530.27,-20 540.27,-23.5001 540.27,-16.5001"/>
</g>
</g>
</svg>
