<?xml version="1.0" encoding="UTF-8" standalone="no"?>
<!DOCTYPE svg PUBLIC "-//W3C//DTD SVG 1.1//EN"
 "http://www.w3.org/Graphics/SVG/1.1/DTD/svg11.dtd">
<!-- Generated by graphviz version 2.26.3 (20100126.1600)
 -->
<!-- Title: CounterClockWise Pages: 1 -->
<svg width="480pt" height="32pt"
 viewBox="0.00 0.00 480.00 32.00" xmlns="http://www.w3.org/2000/svg" xmlns:xlink="http://www.w3.org/1999/xlink">
<g id="graph1" class="graph" transform="scale(1 1) rotate(0) translate(4 28)">
<title>CounterClockWise</title>
<polygon fill="white" stroke="white" points="-4,5 -4,-28 477,-28 477,5 -4,5"/>
<!-- Node1 -->
<g id="node1" class="node"><title>Node1</title>
<polygon fill="#bfbfbf" stroke="black" points="0.5,-0 0.5,-24 99.5,-24 99.5,-0 0.5,-0"/>
<text text-anchor="middle" x="50" y="-11" font-family="Helvetica,sans-Serif" font-size="10.00">CounterClockWise</text>
</g>
<!-- Node2 -->
<g id="node3" class="node"><title>Node2</title>
<a xlink:href="trichro__core2_8cpp.html#a726c576a99f742861813e67f4d379353" target="_top" xlink:title="trichro_back_buffer">
<polygon fill="white" stroke="black" points="136.5,-0 136.5,-24 235.5,-24 235.5,-0 136.5,-0"/>
<text text-anchor="middle" x="186" y="-11" font-family="Helvetica,sans-Serif" font-size="10.00">trichro_back_buffer</text>
</a>
</g>
<!-- Node1&#45;&gt;Node2 -->
<g id="edge2" class="edge"><title>Node1&#45;&gt;Node2</title>
<path fill="none" stroke="midnightblue" d="M110,-12C118.729,-12 127.637,-12 136.137,-12"/>
<polygon fill="midnightblue" stroke="midnightblue" points="109.869,-8.5001 99.8691,-12 109.869,-15.5001 109.869,-8.5001"/>
</g>
<!-- Node3 -->
<g id="node5" class="node"><title>Node3</title>
<a xlink:href="_m_a_i_n__avec__objets_8cpp.html#ade8d4ba65d55c94f8ee277829d722155" target="_top" xlink:title="main_actions_on_screen">
<polygon fill="white" stroke="black" points="272.5,-0 272.5,-24 397.5,-24 397.5,-0 272.5,-0"/>
<text text-anchor="middle" x="335" y="-11" font-family="Helvetica,sans-Serif" font-size="10.00">main_actions_on_screen</text>
</a>
</g>
<!-- Node2&#45;&gt;Node3 -->
<g id="edge4" class="edge"><title>Node2&#45;&gt;Node3</title>
<path fill="none" stroke="midnightblue" d="M245.735,-12C254.493,-12 263.534,-12 272.349,-12"/>
<polygon fill="midnightblue" stroke="midnightblue" points="245.615,-8.5001 235.615,-12 245.615,-15.5001 245.615,-8.5001"/>
</g>
<!-- Node4 -->
<g id="node7" class="node"><title>Node4</title>
<a xlink:href="_m_a_i_n__avec__objets_8cpp.html#ae66f6b31b5ad750f1fe042a706a4e3d4" target="_top" xlink:title="main">
<polygon fill="white" stroke="black" points="434,-0 434,-24 472,-24 472,-0 434,-0"/>
<text text-anchor="middle" x="453" y="-11" font-family="Helvetica,sans-Serif" font-size="10.00">main</text>
</a>
</g>
<!-- Node3&#45;&gt;Node4 -->
<g id="edge6" class="edge"><title>Node3&#45;&gt;Node4</title>
<path fill="none" stroke="midnightblue" d="M407.837,-12C417.336,-12 426.327,-12 433.749,-12"/>
<polygon fill="midnightblue" stroke="midnightblue" points="407.8,-8.5001 397.8,-12 407.8,-15.5001 407.8,-8.5001"/>
</g>
</g>
</svg>
