<?xml version="1.0" encoding="UTF-8" standalone="no"?>
<!DOCTYPE svg PUBLIC "-//W3C//DTD SVG 1.1//EN"
 "http://www.w3.org/Graphics/SVG/1.1/DTD/svg11.dtd">
<!-- Generated by graphviz version 2.26.3 (20100126.1600)
 -->
<!-- Title: do_colors Pages: 1 -->
<svg width="562pt" height="90pt"
 viewBox="0.00 0.00 562.00 90.00" xmlns="http://www.w3.org/2000/svg" xmlns:xlink="http://www.w3.org/1999/xlink">
<g id="graph1" class="graph" transform="scale(1 1) rotate(0) translate(4 86)">
<title>do_colors</title>
<polygon fill="white" stroke="white" points="-4,5 -4,-86 559,-86 559,5 -4,5"/>
<!-- Node1 -->
<g id="node1" class="node"><title>Node1</title>
<polygon fill="#bfbfbf" stroke="black" points="0.5,-33 0.5,-57 59.5,-57 59.5,-33 0.5,-33"/>
<text text-anchor="middle" x="30" y="-44" font-family="Helvetica,sans-Serif" font-size="10.00">do_colors</text>
</g>
<!-- Node2 -->
<g id="node3" class="node"><title>Node2</title>
<a xlink:href="_m_a_i_n__avec__objets_8cpp.html#ade8d4ba65d55c94f8ee277829d722155" target="_top" xlink:title="main_actions_on_screen">
<polygon fill="white" stroke="black" points="236.5,-58 236.5,-82 361.5,-82 361.5,-58 236.5,-58"/>
<text text-anchor="middle" x="299" y="-69" font-family="Helvetica,sans-Serif" font-size="10.00">main_actions_on_screen</text>
</a>
</g>
<!-- Node1&#45;&gt;Node2 -->
<g id="edge2" class="edge"><title>Node1&#45;&gt;Node2</title>
<path fill="none" stroke="midnightblue" d="M69.5571,-48.6763C113.444,-52.755 184.849,-59.3912 236.354,-64.1779"/>
<polygon fill="midnightblue" stroke="midnightblue" points="69.8382,-45.1874 59.5572,-47.747 69.1904,-52.1574 69.8382,-45.1874"/>
</g>
<!-- Node4 -->
<g id="node7" class="node"><title>Node4</title>
<a xlink:href="trichro__core2_8cpp.html#aa3d6dc3f1fd939f78ed71dfc80f21124" target="_top" xlink:title="do_logical_Interface\l_Trichromie">
<polygon fill="white" stroke="black" points="96,-1 96,-41 200,-41 200,-1 96,-1"/>
<text text-anchor="start" x="104" y="-28" font-family="Helvetica,sans-Serif" font-size="10.00">do_logical_Interface</text>
<text text-anchor="middle" x="148" y="-12" font-family="Helvetica,sans-Serif" font-size="10.00">_Trichromie</text>
</a>
</g>
<!-- Node1&#45;&gt;Node4 -->
<g id="edge6" class="edge"><title>Node1&#45;&gt;Node4</title>
<path fill="none" stroke="midnightblue" d="M69.6449,-36.9366C78.0163,-35.234 86.9724,-33.4124 95.7282,-31.6316"/>
<polygon fill="midnightblue" stroke="midnightblue" points="68.8781,-33.5208 59.7764,-38.9438 70.2734,-40.3804 68.8781,-33.5208"/>
</g>
<!-- Node3 -->
<g id="node5" class="node"><title>Node3</title>
<a xlink:href="_m_a_i_n__avec__objets_8cpp.html#ae66f6b31b5ad750f1fe042a706a4e3d4" target="_top" xlink:title="main">
<polygon fill="white" stroke="black" points="516,-34 516,-58 554,-58 554,-34 516,-34"/>
<text text-anchor="middle" x="535" y="-45" font-family="Helvetica,sans-Serif" font-size="10.00">main</text>
</a>
</g>
<!-- Node2&#45;&gt;Node3 -->
<g id="edge4" class="edge"><title>Node2&#45;&gt;Node3</title>
<path fill="none" stroke="midnightblue" d="M371.79,-62.5976C421.934,-57.4982 484.91,-51.0939 515.933,-47.939"/>
<polygon fill="midnightblue" stroke="midnightblue" points="371.219,-59.1376 361.624,-63.6315 371.927,-66.1017 371.219,-59.1376"/>
</g>
<!-- Node5 -->
<g id="node9" class="node"><title>Node5</title>
<a xlink:href="procs__visuels__rebuild1_8cpp.html#ae710b6e599e321ad5934a90140067054" target="_top" xlink:title="check_graphics_mouse\l_handling">
<polygon fill="white" stroke="black" points="239.5,-0 239.5,-40 358.5,-40 358.5,-0 239.5,-0"/>
<text text-anchor="start" x="247.5" y="-27" font-family="Helvetica,sans-Serif" font-size="10.00">check_graphics_mouse</text>
<text text-anchor="middle" x="299" y="-11" font-family="Helvetica,sans-Serif" font-size="10.00">_handling</text>
</a>
</g>
<!-- Node4&#45;&gt;Node5 -->
<g id="edge8" class="edge"><title>Node4&#45;&gt;Node5</title>
<path fill="none" stroke="midnightblue" d="M210.606,-20.5854C220.152,-20.5222 229.982,-20.4571 239.46,-20.3943"/>
<polygon fill="midnightblue" stroke="midnightblue" points="210.365,-17.0868 200.389,-20.6531 210.412,-24.0867 210.365,-17.0868"/>
</g>
<!-- Node6 -->
<g id="node11" class="node"><title>Node6</title>
<a xlink:href="_m_a_i_n__avec__objets_8cpp.html#a8e80f54ac804eddce8ed6e45adb1db44" target="_top" xlink:title="ticker_full_loop">
<polygon fill="white" stroke="black" points="398,-13 398,-37 480,-37 480,-13 398,-13"/>
<text text-anchor="middle" x="439" y="-24" font-family="Helvetica,sans-Serif" font-size="10.00">ticker_full_loop</text>
</a>
</g>
<!-- Node5&#45;&gt;Node6 -->
<g id="edge10" class="edge"><title>Node5&#45;&gt;Node6</title>
<path fill="none" stroke="midnightblue" d="M368.96,-22.4986C378.762,-22.8486 388.564,-23.1987 397.599,-23.5214"/>
<polygon fill="midnightblue" stroke="midnightblue" points="368.897,-18.9942 358.779,-22.135 368.647,-25.9897 368.897,-18.9942"/>
</g>
<!-- Node6&#45;&gt;Node3 -->
<g id="edge12" class="edge"><title>Node6&#45;&gt;Node3</title>
<path fill="none" stroke="midnightblue" d="M490.217,-36.2036C499.385,-38.2092 508.396,-40.1805 515.904,-41.8228"/>
<polygon fill="midnightblue" stroke="midnightblue" points="490.787,-32.7457 480.27,-34.0278 489.291,-39.584 490.787,-32.7457"/>
</g>
</g>
</svg>
