<?xml version="1.0" encoding="UTF-8" standalone="no"?>
<!DOCTYPE svg PUBLIC "-//W3C//DTD SVG 1.1//EN"
 "http://www.w3.org/Graphics/SVG/1.1/DTD/svg11.dtd">
<!-- Generated by graphviz version 2.26.3 (20100126.1600)
 -->
<!-- Title: do_logical_Interface_video_window Pages: 1 -->
<svg width="460pt" height="48pt"
 viewBox="0.00 0.00 460.00 48.00" xmlns="http://www.w3.org/2000/svg" xmlns:xlink="http://www.w3.org/1999/xlink">
<g id="graph1" class="graph" transform="scale(1 1) rotate(0) translate(4 44)">
<title>do_logical_Interface_video_window</title>
<polygon fill="white" stroke="white" points="-4,5 -4,-44 457,-44 457,5 -4,5"/>
<!-- Node1 -->
<g id="node1" class="node"><title>Node1</title>
<polygon fill="#bfbfbf" stroke="black" points="0,-0 0,-40 104,-40 104,-0 0,-0"/>
<text text-anchor="start" x="8" y="-27" font-family="Helvetica,sans-Serif" font-size="10.00">do_logical_Interface</text>
<text text-anchor="middle" x="52" y="-11" font-family="Helvetica,sans-Serif" font-size="10.00">_video_window</text>
</g>
<!-- Node2 -->
<g id="node3" class="node"><title>Node2</title>
<a xlink:href="procs__visuels__rebuild1_8cpp.html#ae710b6e599e321ad5934a90140067054" target="_top" xlink:title="check_graphics_mouse\l_handling">
<polygon fill="white" stroke="black" points="140.5,-0 140.5,-40 259.5,-40 259.5,-0 140.5,-0"/>
<text text-anchor="start" x="148.5" y="-27" font-family="Helvetica,sans-Serif" font-size="10.00">check_graphics_mouse</text>
<text text-anchor="middle" x="200" y="-11" font-family="Helvetica,sans-Serif" font-size="10.00">_handling</text>
</a>
</g>
<!-- Node1&#45;&gt;Node2 -->
<g id="edge2" class="edge"><title>Node1&#45;&gt;Node2</title>
<path fill="none" stroke="midnightblue" d="M114.241,-20C122.925,-20 131.83,-20 140.462,-20"/>
<polygon fill="midnightblue" stroke="midnightblue" points="114.179,-16.5001 104.179,-20 114.179,-23.5001 114.179,-16.5001"/>
</g>
<!-- Node3 -->
<g id="node5" class="node"><title>Node3</title>
<a xlink:href="_m_a_i_n__avec__objets_8cpp.html#a8e80f54ac804eddce8ed6e45adb1db44" target="_top" xlink:title="ticker_full_loop">
<polygon fill="white" stroke="black" points="296,-8 296,-32 378,-32 378,-8 296,-8"/>
<text text-anchor="middle" x="337" y="-19" font-family="Helvetica,sans-Serif" font-size="10.00">ticker_full_loop</text>
</a>
</g>
<!-- Node2&#45;&gt;Node3 -->
<g id="edge4" class="edge"><title>Node2&#45;&gt;Node3</title>
<path fill="none" stroke="midnightblue" d="M269.967,-20C278.737,-20 287.475,-20 295.605,-20"/>
<polygon fill="midnightblue" stroke="midnightblue" points="269.692,-16.5001 259.692,-20 269.692,-23.5001 269.692,-16.5001"/>
</g>
<!-- Node4 -->
<g id="node7" class="node"><title>Node4</title>
<a xlink:href="_m_a_i_n__avec__objets_8cpp.html#ae66f6b31b5ad750f1fe042a706a4e3d4" target="_top" xlink:title="main">
<polygon fill="white" stroke="black" points="414,-8 414,-32 452,-32 452,-8 414,-8"/>
<text text-anchor="middle" x="433" y="-19" font-family="Helvetica,sans-Serif" font-size="10.00">main</text>
</a>
</g>
<!-- Node3&#45;&gt;Node4 -->
<g id="edge6" class="edge"><title>Node3&#45;&gt;Node4</title>
<path fill="none" stroke="midnightblue" d="M388.509,-20C397.577,-20 406.476,-20 413.904,-20"/>
<polygon fill="midnightblue" stroke="midnightblue" points="388.27,-16.5001 378.27,-20 388.27,-23.5001 388.27,-16.5001"/>
</g>
</g>
</svg>
