<?xml version="1.0" encoding="UTF-8" standalone="no"?>
<!DOCTYPE svg PUBLIC "-//W3C//DTD SVG 1.1//EN"
 "http://www.w3.org/Graphics/SVG/1.1/DTD/svg11.dtd">
<!-- Generated by graphviz version 2.26.3 (20100126.1600)
 -->
<!-- Title: Interface_video_window Pages: 1 -->
<svg width="488pt" height="174pt"
 viewBox="0.00 0.00 488.00 174.00" xmlns="http://www.w3.org/2000/svg" xmlns:xlink="http://www.w3.org/1999/xlink">
<g id="graph1" class="graph" transform="scale(1 1) rotate(0) translate(4 170)">
<title>Interface_video_window</title>
<polygon fill="white" stroke="white" points="-4,5 -4,-170 485,-170 485,5 -4,5"/>
<!-- Node1 -->
<g id="node1" class="node"><title>Node1</title>
<polygon fill="#bfbfbf" stroke="black" points="0,-79 0,-103 122,-103 122,-79 0,-79"/>
<text text-anchor="middle" x="61" y="-90" font-family="Helvetica,sans-Serif" font-size="10.00">Interface_video_window</text>
</g>
<!-- Node2 -->
<g id="node3" class="node"><title>Node2</title>
<a xlink:href="video__tracking__visu_8cpp.html#a30a5b009c6049a246efaec21c12b3bda" target="_top" xlink:title="tracking_print_to_screen">
<polygon fill="white" stroke="black" points="158.5,-142 158.5,-166 281.5,-166 281.5,-142 158.5,-142"/>
<text text-anchor="middle" x="220" y="-153" font-family="Helvetica,sans-Serif" font-size="10.00">tracking_print_to_screen</text>
</a>
</g>
<!-- Node1&#45;&gt;Node2 -->
<g id="edge2" class="edge"><title>Node1&#45;&gt;Node2</title>
<path fill="none" stroke="midnightblue" d="M87.5187,-103.182C106.88,-111.904 133.854,-123.701 158,-133 162.847,-134.867 167.939,-136.736 173.035,-138.548"/>
<polygon fill="midnightblue" stroke="midnightblue" points="172.18,-141.956 182.775,-141.945 174.485,-135.347 172.18,-141.956"/>
</g>
<!-- Node5 -->
<g id="node9" class="node"><title>Node5</title>
<a xlink:href="video__tracking__visu_8cpp.html#ad1e140d578e12e37e27caf1a3952ff93" target="_top" xlink:title="ShowTrackers">
<polygon fill="white" stroke="black" points="180.5,-100 180.5,-124 259.5,-124 259.5,-100 180.5,-100"/>
<text text-anchor="middle" x="220" y="-111" font-family="Helvetica,sans-Serif" font-size="10.00">ShowTrackers</text>
</a>
</g>
<!-- Node1&#45;&gt;Node5 -->
<g id="edge8" class="edge"><title>Node1&#45;&gt;Node5</title>
<path fill="none" stroke="midnightblue" d="M122.019,-99.0591C137.958,-101.164 154.946,-103.408 170.223,-105.426"/>
<polygon fill="midnightblue" stroke="midnightblue" points="170.12,-108.942 180.492,-106.782 171.037,-102.003 170.12,-108.942"/>
</g>
<!-- Node6 -->
<g id="node11" class="node"><title>Node6</title>
<a xlink:href="video__tracking__visu_8cpp.html#a6e5e67da82dcfa08fe08f5e0b7ed4b74" target="_top" xlink:title="Set_Filtering_Image">
<polygon fill="white" stroke="black" points="168,-58 168,-82 272,-82 272,-58 168,-58"/>
<text text-anchor="middle" x="220" y="-69" font-family="Helvetica,sans-Serif" font-size="10.00">Set_Filtering_Image</text>
</a>
</g>
<!-- Node1&#45;&gt;Node6 -->
<g id="edge10" class="edge"><title>Node1&#45;&gt;Node6</title>
<path fill="none" stroke="midnightblue" d="M122.019,-82.9409C133.737,-81.3932 146.022,-79.7707 157.778,-78.2181"/>
<polygon fill="midnightblue" stroke="midnightblue" points="158.489,-81.6546 167.944,-76.8753 157.572,-74.7149 158.489,-81.6546"/>
</g>
<!-- Node7 -->
<g id="node13" class="node"><title>Node7</title>
<a xlink:href="gui__boutons__rebuild1_8cpp.html#a039e24b1deea8472aa6312f1201a9264" target="_top" xlink:title="raccrochage_midi_visuel\l_horizontal">
<polygon fill="white" stroke="black" points="158,-0 158,-40 282,-40 282,-0 158,-0"/>
<text text-anchor="start" x="166" y="-27" font-family="Helvetica,sans-Serif" font-size="10.00">raccrochage_midi_visuel</text>
<text text-anchor="middle" x="220" y="-11" font-family="Helvetica,sans-Serif" font-size="10.00">_horizontal</text>
</a>
</g>
<!-- Node1&#45;&gt;Node7 -->
<g id="edge12" class="edge"><title>Node1&#45;&gt;Node7</title>
<path fill="none" stroke="midnightblue" d="M87.9722,-78.9558C109.199,-69.4772 139.469,-55.9605 165.671,-44.2602"/>
<polygon fill="midnightblue" stroke="midnightblue" points="167.412,-47.3158 175.116,-40.0426 164.558,-40.9241 167.412,-47.3158"/>
</g>
<!-- Node3 -->
<g id="node5" class="node"><title>Node3</title>
<a xlink:href="video__tracking__core_8cpp.html#a9476fbb167969a532b17803160b7d4c5" target="_top" xlink:title="Trackers">
<polygon fill="white" stroke="black" points="318,-142 318,-166 372,-166 372,-142 318,-142"/>
<text text-anchor="middle" x="345" y="-153" font-family="Helvetica,sans-Serif" font-size="10.00">Trackers</text>
</a>
</g>
<!-- Node2&#45;&gt;Node3 -->
<g id="edge4" class="edge"><title>Node2&#45;&gt;Node3</title>
<path fill="none" stroke="midnightblue" d="M281.768,-154C290.578,-154 299.407,-154 307.556,-154"/>
<polygon fill="midnightblue" stroke="midnightblue" points="307.817,-157.5 317.817,-154 307.817,-150.5 307.817,-157.5"/>
</g>
<!-- Node4 -->
<g id="node7" class="node"><title>Node4</title>
<a xlink:href="video__tracking__core_8cpp.html#a24fa812f08dfaa0151d221bcb3479862" target="_top" xlink:title="Filter_Image">
<polygon fill="white" stroke="black" points="408.5,-142 408.5,-166 479.5,-166 479.5,-142 408.5,-142"/>
<text text-anchor="middle" x="444" y="-153" font-family="Helvetica,sans-Serif" font-size="10.00">Filter_Image</text>
</a>
</g>
<!-- Node3&#45;&gt;Node4 -->
<g id="edge6" class="edge"><title>Node3&#45;&gt;Node4</title>
<path fill="none" stroke="midnightblue" d="M372.052,-154C380.205,-154 389.388,-154 398.399,-154"/>
<polygon fill="midnightblue" stroke="midnightblue" points="398.434,-157.5 408.434,-154 398.434,-150.5 398.434,-157.5"/>
</g>
</g>
</svg>
