<?xml version="1.0" encoding="UTF-8" standalone="no"?>
<!DOCTYPE svg PUBLIC "-//W3C//DTD SVG 1.1//EN"
 "http://www.w3.org/Graphics/SVG/1.1/DTD/svg11.dtd">
<!-- Generated by graphviz version 2.26.3 (20100126.1600)
 -->
<!-- Title: ticker_video Pages: 1 -->
<svg width="566pt" height="48pt"
 viewBox="0.00 0.00 566.00 48.00" xmlns="http://www.w3.org/2000/svg" xmlns:xlink="http://www.w3.org/1999/xlink">
<g id="graph1" class="graph" transform="scale(1 1) rotate(0) translate(4 44)">
<title>ticker_video</title>
<polygon fill="white" stroke="white" points="-4,5 -4,-44 563,-44 563,5 -4,5"/>
<!-- Node1 -->
<g id="node1" class="node"><title>Node1</title>
<polygon fill="#bfbfbf" stroke="black" points="0.5,-8 0.5,-32 69.5,-32 69.5,-8 0.5,-8"/>
<text text-anchor="middle" x="35" y="-19" font-family="Helvetica,sans-Serif" font-size="10.00">ticker_video</text>
</g>
<!-- Node2 -->
<g id="node3" class="node"><title>Node2</title>
<a xlink:href="video__tracking__core_8cpp.html#a3f57894fb192cb6907464f6466e6c37c" target="_top" xlink:title="do_logical_Interface\l_video_window">
<polygon fill="white" stroke="black" points="106,-0 106,-40 210,-40 210,-0 106,-0"/>
<text text-anchor="start" x="114" y="-27" font-family="Helvetica,sans-Serif" font-size="10.00">do_logical_Interface</text>
<text text-anchor="middle" x="158" y="-11" font-family="Helvetica,sans-Serif" font-size="10.00">_video_window</text>
</a>
</g>
<!-- Node1&#45;&gt;Node2 -->
<g id="edge2" class="edge"><title>Node1&#45;&gt;Node2</title>
<path fill="none" stroke="midnightblue" d="M79.6509,-20C88.1268,-20 97.0654,-20 105.752,-20"/>
<polygon fill="midnightblue" stroke="midnightblue" points="79.5897,-16.5001 69.5897,-20 79.5896,-23.5001 79.5897,-16.5001"/>
</g>
<!-- Node3 -->
<g id="node5" class="node"><title>Node3</title>
<a xlink:href="procs__visuels__rebuild1_8cpp.html#ae710b6e599e321ad5934a90140067054" target="_top" xlink:title="check_graphics_mouse\l_handling">
<polygon fill="white" stroke="black" points="246.5,-0 246.5,-40 365.5,-40 365.5,-0 246.5,-0"/>
<text text-anchor="start" x="254.5" y="-27" font-family="Helvetica,sans-Serif" font-size="10.00">check_graphics_mouse</text>
<text text-anchor="middle" x="306" y="-11" font-family="Helvetica,sans-Serif" font-size="10.00">_handling</text>
</a>
</g>
<!-- Node2&#45;&gt;Node3 -->
<g id="edge4" class="edge"><title>Node2&#45;&gt;Node3</title>
<path fill="none" stroke="midnightblue" d="M220.241,-20C228.925,-20 237.83,-20 246.462,-20"/>
<polygon fill="midnightblue" stroke="midnightblue" points="220.179,-16.5001 210.179,-20 220.179,-23.5001 220.179,-16.5001"/>
</g>
<!-- Node4 -->
<g id="node7" class="node"><title>Node4</title>
<a xlink:href="_m_a_i_n__avec__objets_8cpp.html#a8e80f54ac804eddce8ed6e45adb1db44" target="_top" xlink:title="ticker_full_loop">
<polygon fill="white" stroke="black" points="402,-8 402,-32 484,-32 484,-8 402,-8"/>
<text text-anchor="middle" x="443" y="-19" font-family="Helvetica,sans-Serif" font-size="10.00">ticker_full_loop</text>
</a>
</g>
<!-- Node3&#45;&gt;Node4 -->
<g id="edge6" class="edge"><title>Node3&#45;&gt;Node4</title>
<path fill="none" stroke="midnightblue" d="M375.967,-20C384.737,-20 393.475,-20 401.605,-20"/>
<polygon fill="midnightblue" stroke="midnightblue" points="375.692,-16.5001 365.692,-20 375.692,-23.5001 375.692,-16.5001"/>
</g>
<!-- Node5 -->
<g id="node9" class="node"><title>Node5</title>
<a xlink:href="_m_a_i_n__avec__objets_8cpp.html#ae66f6b31b5ad750f1fe042a706a4e3d4" target="_top" xlink:title="main">
<polygon fill="white" stroke="black" points="520,-8 520,-32 558,-32 558,-8 520,-8"/>
<text text-anchor="middle" x="539" y="-19" font-family="Helvetica,sans-Serif" font-size="10.00">main</text>
</a>
</g>
<!-- Node4&#45;&gt;Node5 -->
<g id="edge8" class="edge"><title>Node4&#45;&gt;Node5</title>
<path fill="none" stroke="midnightblue" d="M494.509,-20C503.577,-20 512.476,-20 519.904,-20"/>
<polygon fill="midnightblue" stroke="midnightblue" points="494.27,-16.5001 484.27,-20 494.27,-23.5001 494.27,-16.5001"/>
</g>
</g>
</svg>
