<?xml version="1.0" encoding="UTF-8" standalone="no"?>
<!DOCTYPE svg PUBLIC "-//W3C//DTD SVG 1.1//EN"
 "http://www.w3.org/Graphics/SVG/1.1/DTD/svg11.dtd">
<!-- Generated by graphviz version 2.26.3 (20100126.1600)
 -->
<!-- Title: tracking_print_to_screen Pages: 1 -->
<svg width="330pt" height="32pt"
 viewBox="0.00 0.00 330.00 32.00" xmlns="http://www.w3.org/2000/svg" xmlns:xlink="http://www.w3.org/1999/xlink">
<g id="graph1" class="graph" transform="scale(1 1) rotate(0) translate(4 28)">
<title>tracking_print_to_screen</title>
<polygon fill="white" stroke="white" points="-4,5 -4,-28 327,-28 327,5 -4,5"/>
<!-- Node1 -->
<g id="node1" class="node"><title>Node1</title>
<polygon fill="#bfbfbf" stroke="black" points="0.5,-0 0.5,-24 123.5,-24 123.5,-0 0.5,-0"/>
<text text-anchor="middle" x="62" y="-11" font-family="Helvetica,sans-Serif" font-size="10.00">tracking_print_to_screen</text>
</g>
<!-- Node2 -->
<g id="node3" class="node"><title>Node2</title>
<a xlink:href="video__tracking__core_8cpp.html#a9476fbb167969a532b17803160b7d4c5" target="_top" xlink:title="Trackers">
<polygon fill="white" stroke="black" points="160,-0 160,-24 214,-24 214,-0 160,-0"/>
<text text-anchor="middle" x="187" y="-11" font-family="Helvetica,sans-Serif" font-size="10.00">Trackers</text>
</a>
</g>
<!-- Node1&#45;&gt;Node2 -->
<g id="edge2" class="edge"><title>Node1&#45;&gt;Node2</title>
<path fill="none" stroke="midnightblue" d="M123.768,-12C132.578,-12 141.407,-12 149.556,-12"/>
<polygon fill="midnightblue" stroke="midnightblue" points="149.817,-15.5001 159.817,-12 149.817,-8.5001 149.817,-15.5001"/>
</g>
<!-- Node3 -->
<g id="node5" class="node"><title>Node3</title>
<a xlink:href="video__tracking__core_8cpp.html#a24fa812f08dfaa0151d221bcb3479862" target="_top" xlink:title="Filter_Image">
<polygon fill="white" stroke="black" points="250.5,-0 250.5,-24 321.5,-24 321.5,-0 250.5,-0"/>
<text text-anchor="middle" x="286" y="-11" font-family="Helvetica,sans-Serif" font-size="10.00">Filter_Image</text>
</a>
</g>
<!-- Node2&#45;&gt;Node3 -->
<g id="edge4" class="edge"><title>Node2&#45;&gt;Node3</title>
<path fill="none" stroke="midnightblue" d="M214.052,-12C222.205,-12 231.388,-12 240.399,-12"/>
<polygon fill="midnightblue" stroke="midnightblue" points="240.434,-15.5001 250.434,-12 240.434,-8.5001 240.434,-15.5001"/>
</g>
</g>
</svg>
