<?xml version="1.0" encoding="UTF-8" standalone="no"?>
<!DOCTYPE svg PUBLIC "-//W3C//DTD SVG 1.1//EN"
 "http://www.w3.org/Graphics/SVG/1.1/DTD/svg11.dtd">
<!-- Generated by graphviz version 2.26.3 (20100126.1600)
 -->
<!-- Title: wizard_calcul_nbre_de_mem Pages: 1 -->
<svg width="898pt" height="114pt"
 viewBox="0.00 0.00 898.00 114.00" xmlns="http://www.w3.org/2000/svg" xmlns:xlink="http://www.w3.org/1999/xlink">
<g id="graph1" class="graph" transform="scale(1 1) rotate(0) translate(4 110)">
<title>wizard_calcul_nbre_de_mem</title>
<polygon fill="white" stroke="white" points="-4,5 -4,-110 895,-110 895,5 -4,5"/>
<!-- Node1 -->
<g id="node1" class="node"><title>Node1</title>
<polygon fill="#bfbfbf" stroke="black" points="0,-53 0,-93 100,-93 100,-53 0,-53"/>
<text text-anchor="start" x="8" y="-80" font-family="Helvetica,sans-Serif" font-size="10.00">wizard_calcul_nbre</text>
<text text-anchor="middle" x="50" y="-64" font-family="Helvetica,sans-Serif" font-size="10.00">_de_mem</text>
</g>
<!-- Node2 -->
<g id="node3" class="node"><title>Node2</title>
<a xlink:href="wizard_8cpp.html#a83efc50e6fdd7761f349a8befed67316" target="_top" xlink:title="Box_mem_to_mem">
<polygon fill="white" stroke="black" points="136.5,-82 136.5,-106 237.5,-106 237.5,-82 136.5,-82"/>
<text text-anchor="middle" x="187" y="-93" font-family="Helvetica,sans-Serif" font-size="10.00">Box_mem_to_mem</text>
</a>
</g>
<!-- Node1&#45;&gt;Node2 -->
<g id="edge2" class="edge"><title>Node1&#45;&gt;Node2</title>
<path fill="none" stroke="midnightblue" d="M110.309,-82.2444C118.988,-83.5748 127.845,-84.9324 136.312,-86.2303"/>
<polygon fill="midnightblue" stroke="midnightblue" points="110.651,-78.756 100.236,-80.7004 109.59,-85.6752 110.651,-78.756"/>
</g>
<!-- Node7 -->
<g id="node13" class="node"><title>Node7</title>
<a xlink:href="wizard__operations_8cpp.html#a0fd8df35a33a8ec97cc12d2ef23c11f0" target="_top" xlink:title="do_wizard_mem">
<polygon fill="white" stroke="black" points="143,-40 143,-64 231,-64 231,-40 143,-40"/>
<text text-anchor="middle" x="187" y="-51" font-family="Helvetica,sans-Serif" font-size="10.00">do_wizard_mem</text>
</a>
</g>
<!-- Node1&#45;&gt;Node7 -->
<g id="edge12" class="edge"><title>Node1&#45;&gt;Node7</title>
<path fill="none" stroke="midnightblue" d="M110.154,-63.7793C121.078,-62.1049 132.288,-60.3865 142.653,-58.7977"/>
<polygon fill="midnightblue" stroke="midnightblue" points="109.59,-60.3248 100.236,-65.2996 110.651,-67.244 109.59,-60.3248"/>
</g>
<!-- Node3 -->
<g id="node5" class="node"><title>Node3</title>
<a xlink:href="wizard_8cpp.html#a242d83bba0e7fa9a2653e86bbbd10d18" target="_top" xlink:title="fenetre_wizard">
<polygon fill="white" stroke="black" points="294,-82 294,-106 374,-106 374,-82 294,-82"/>
<text text-anchor="middle" x="334" y="-93" font-family="Helvetica,sans-Serif" font-size="10.00">fenetre_wizard</text>
</a>
</g>
<!-- Node2&#45;&gt;Node3 -->
<g id="edge4" class="edge"><title>Node2&#45;&gt;Node3</title>
<path fill="none" stroke="midnightblue" d="M247.704,-94C263.317,-94 279.726,-94 293.992,-94"/>
<polygon fill="midnightblue" stroke="midnightblue" points="247.589,-90.5001 237.589,-94 247.589,-97.5001 247.589,-90.5001"/>
</g>
<!-- Node4 -->
<g id="node7" class="node"><title>Node4</title>
<a xlink:href="graphics__rebuild1_8cpp.html#ac2eae1e03fb72cc734ffbcef566483bf" target="_top" xlink:title="Boxes">
<polygon fill="white" stroke="black" points="580,-42 580,-66 624,-66 624,-42 580,-42"/>
<text text-anchor="middle" x="602" y="-53" font-family="Helvetica,sans-Serif" font-size="10.00">Boxes</text>
</a>
</g>
<!-- Node3&#45;&gt;Node4 -->
<g id="edge6" class="edge"><title>Node3&#45;&gt;Node4</title>
<path fill="none" stroke="midnightblue" d="M384.545,-90.4194C420.754,-87.4278 470.588,-82.439 514,-75 536.602,-71.1269 562.047,-64.8411 579.739,-60.1545"/>
<polygon fill="midnightblue" stroke="midnightblue" points="383.927,-86.9576 374.239,-91.2473 384.487,-93.9352 383.927,-86.9576"/>
</g>
<!-- Node5 -->
<g id="node9" class="node"><title>Node5</title>
<a xlink:href="_m_a_i_n__avec__objets_8cpp.html#ade8d4ba65d55c94f8ee277829d722155" target="_top" xlink:title="main_actions_on_screen">
<polygon fill="white" stroke="black" points="690.5,-42 690.5,-66 815.5,-66 815.5,-42 690.5,-42"/>
<text text-anchor="middle" x="753" y="-53" font-family="Helvetica,sans-Serif" font-size="10.00">main_actions_on_screen</text>
</a>
</g>
<!-- Node4&#45;&gt;Node5 -->
<g id="edge8" class="edge"><title>Node4&#45;&gt;Node5</title>
<path fill="none" stroke="midnightblue" d="M634.395,-54C650.76,-54 671.187,-54 690.455,-54"/>
<polygon fill="midnightblue" stroke="midnightblue" points="634.281,-50.5001 624.281,-54 634.281,-57.5001 634.281,-50.5001"/>
</g>
<!-- Node6 -->
<g id="node11" class="node"><title>Node6</title>
<a xlink:href="_m_a_i_n__avec__objets_8cpp.html#ae66f6b31b5ad750f1fe042a706a4e3d4" target="_top" xlink:title="main">
<polygon fill="white" stroke="black" points="852,-21 852,-45 890,-45 890,-21 852,-21"/>
<text text-anchor="middle" x="871" y="-32" font-family="Helvetica,sans-Serif" font-size="10.00">main</text>
</a>
</g>
<!-- Node5&#45;&gt;Node6 -->
<g id="edge10" class="edge"><title>Node5&#45;&gt;Node6</title>
<path fill="none" stroke="midnightblue" d="M825.837,-41.0374C835.336,-39.3471 844.327,-37.747 851.749,-36.4261"/>
<polygon fill="midnightblue" stroke="midnightblue" points="825.032,-37.6256 815.8,-42.8237 826.259,-44.5173 825.032,-37.6256"/>
</g>
<!-- Node8 -->
<g id="node15" class="node"><title>Node8</title>
<a xlink:href="logicals__intres_8cpp.html#a74cf9c04c734ab342f88799efbfc4210" target="_top" xlink:title="operations_confirmation">
<polygon fill="white" stroke="black" points="274,-40 274,-64 394,-64 394,-40 274,-40"/>
<text text-anchor="middle" x="334" y="-51" font-family="Helvetica,sans-Serif" font-size="10.00">operations_confirmation</text>
</a>
</g>
<!-- Node7&#45;&gt;Node8 -->
<g id="edge14" class="edge"><title>Node7&#45;&gt;Node8</title>
<path fill="none" stroke="midnightblue" d="M241.119,-52C251.785,-52 263.037,-52 273.886,-52"/>
<polygon fill="midnightblue" stroke="midnightblue" points="241.105,-48.5001 231.105,-52 241.105,-55.5001 241.105,-48.5001"/>
</g>
<!-- Node9 -->
<g id="node17" class="node"><title>Node9</title>
<a xlink:href="keyboard__functions2_8cpp.html#a548548066307f816c5021de7d6e4f26a" target="_top" xlink:title="key_affectation">
<polygon fill="white" stroke="black" points="430.5,-0 430.5,-24 513.5,-24 513.5,-0 430.5,-0"/>
<text text-anchor="middle" x="472" y="-11" font-family="Helvetica,sans-Serif" font-size="10.00">key_affectation</text>
</a>
</g>
<!-- Node8&#45;&gt;Node9 -->
<g id="edge16" class="edge"><title>Node8&#45;&gt;Node9</title>
<path fill="none" stroke="midnightblue" d="M385.396,-37.1025C400.147,-32.8271 416.047,-28.2183 430.148,-24.1311"/>
<polygon fill="midnightblue" stroke="midnightblue" points="384.035,-33.853 375.405,-39.9987 385.984,-40.5763 384.035,-33.853"/>
</g>
<!-- Node12 -->
<g id="node24" class="node"><title>Node12</title>
<a xlink:href="logicals__intres_8cpp.html#a85967c22135715eca94d08af2ec1a1fb" target="_top" xlink:title="fenetre_confirm">
<polygon fill="white" stroke="black" points="430,-42 430,-66 514,-66 514,-42 430,-42"/>
<text text-anchor="middle" x="472" y="-53" font-family="Helvetica,sans-Serif" font-size="10.00">fenetre_confirm</text>
</a>
</g>
<!-- Node8&#45;&gt;Node12 -->
<g id="edge24" class="edge"><title>Node8&#45;&gt;Node12</title>
<path fill="none" stroke="midnightblue" d="M404.354,-53.0196C413.083,-53.1461 421.783,-53.2722 429.896,-53.3898"/>
<polygon fill="midnightblue" stroke="midnightblue" points="404.177,-49.5168 394.127,-52.8714 404.076,-56.5161 404.177,-49.5168"/>
</g>
<!-- Node10 -->
<g id="node19" class="node"><title>Node10</title>
<a xlink:href="keyboard__routines2_8cpp.html#a8563320b8eab661232619224650de244" target="_top" xlink:title="commandes_clavier">
<polygon fill="white" stroke="black" points="550,-0 550,-24 654,-24 654,-0 550,-0"/>
<text text-anchor="middle" x="602" y="-11" font-family="Helvetica,sans-Serif" font-size="10.00">commandes_clavier</text>
</a>
</g>
<!-- Node9&#45;&gt;Node10 -->
<g id="edge18" class="edge"><title>Node9&#45;&gt;Node10</title>
<path fill="none" stroke="midnightblue" d="M523.995,-12C532.473,-12 541.258,-12 549.742,-12"/>
<polygon fill="midnightblue" stroke="midnightblue" points="523.848,-8.5001 513.848,-12 523.848,-15.5001 523.848,-8.5001"/>
</g>
<!-- Node11 -->
<g id="node21" class="node"><title>Node11</title>
<a xlink:href="_m_a_i_n__avec__objets_8cpp.html#a8e80f54ac804eddce8ed6e45adb1db44" target="_top" xlink:title="ticker_full_loop">
<polygon fill="white" stroke="black" points="712,-0 712,-24 794,-24 794,-0 712,-0"/>
<text text-anchor="middle" x="753" y="-11" font-family="Helvetica,sans-Serif" font-size="10.00">ticker_full_loop</text>
</a>
</g>
<!-- Node10&#45;&gt;Node11 -->
<g id="edge20" class="edge"><title>Node10&#45;&gt;Node11</title>
<path fill="none" stroke="midnightblue" d="M664.664,-12C680.516,-12 697.147,-12 711.648,-12"/>
<polygon fill="midnightblue" stroke="midnightblue" points="664.389,-8.5001 654.389,-12 664.389,-15.5001 664.389,-8.5001"/>
</g>
<!-- Node11&#45;&gt;Node6 -->
<g id="edge22" class="edge"><title>Node11&#45;&gt;Node6</title>
<path fill="none" stroke="midnightblue" d="M804.55,-21.1741C821.307,-24.1563 838.879,-27.2836 851.742,-29.5727"/>
<polygon fill="midnightblue" stroke="midnightblue" points="804.729,-17.6511 794.271,-19.3448 803.503,-24.5428 804.729,-17.6511"/>
</g>
<!-- Node12&#45;&gt;Node4 -->
<g id="edge26" class="edge"><title>Node12&#45;&gt;Node4</title>
<path fill="none" stroke="midnightblue" d="M524.4,-54C543.658,-54 564.45,-54 579.66,-54"/>
<polygon fill="midnightblue" stroke="midnightblue" points="524.207,-50.5001 514.207,-54 524.207,-57.5001 524.207,-50.5001"/>
</g>
</g>
</svg>
