<?xml version="1.0" encoding="UTF-8" standalone="no"?>
<!DOCTYPE svg PUBLIC "-//W3C//DTD SVG 1.1//EN"
 "http://www.w3.org/Graphics/SVG/1.1/DTD/svg11.dtd">
<!-- Generated by graphviz version 2.26.3 (20100126.1600)
 -->
<!-- Title: wizard_copy_mem Pages: 1 -->
<svg width="882pt" height="74pt"
 viewBox="0.00 0.00 882.00 74.00" xmlns="http://www.w3.org/2000/svg" xmlns:xlink="http://www.w3.org/1999/xlink">
<g id="graph1" class="graph" transform="scale(1 1) rotate(0) translate(4 70)">
<title>wizard_copy_mem</title>
<polygon fill="white" stroke="white" points="-4,5 -4,-70 879,-70 879,5 -4,5"/>
<!-- Node1 -->
<g id="node1" class="node"><title>Node1</title>
<polygon fill="#bfbfbf" stroke="black" points="0,-21 0,-45 98,-45 98,-21 0,-21"/>
<text text-anchor="middle" x="49" y="-32" font-family="Helvetica,sans-Serif" font-size="10.00">wizard_copy_mem</text>
</g>
<!-- Node2 -->
<g id="node3" class="node"><title>Node2</title>
<a xlink:href="wizard__operations_8cpp.html#a0fd8df35a33a8ec97cc12d2ef23c11f0" target="_top" xlink:title="do_wizard_mem">
<polygon fill="white" stroke="black" points="134,-21 134,-45 222,-45 222,-21 134,-21"/>
<text text-anchor="middle" x="178" y="-32" font-family="Helvetica,sans-Serif" font-size="10.00">do_wizard_mem</text>
</a>
</g>
<!-- Node1&#45;&gt;Node2 -->
<g id="edge2" class="edge"><title>Node1&#45;&gt;Node2</title>
<path fill="none" stroke="midnightblue" d="M108.402,-33C116.899,-33 125.514,-33 133.653,-33"/>
<polygon fill="midnightblue" stroke="midnightblue" points="108.137,-29.5001 98.1374,-33 108.137,-36.5001 108.137,-29.5001"/>
</g>
<!-- Node3 -->
<g id="node5" class="node"><title>Node3</title>
<a xlink:href="logicals__intres_8cpp.html#a74cf9c04c734ab342f88799efbfc4210" target="_top" xlink:title="operations_confirmation">
<polygon fill="white" stroke="black" points="258,-21 258,-45 378,-45 378,-21 258,-21"/>
<text text-anchor="middle" x="318" y="-32" font-family="Helvetica,sans-Serif" font-size="10.00">operations_confirmation</text>
</a>
</g>
<!-- Node2&#45;&gt;Node3 -->
<g id="edge4" class="edge"><title>Node2&#45;&gt;Node3</title>
<path fill="none" stroke="midnightblue" d="M232.317,-33C240.689,-33 249.376,-33 257.866,-33"/>
<polygon fill="midnightblue" stroke="midnightblue" points="232.297,-29.5001 222.297,-33 232.297,-36.5001 232.297,-29.5001"/>
</g>
<!-- Node4 -->
<g id="node7" class="node"><title>Node4</title>
<a xlink:href="keyboard__functions2_8cpp.html#a548548066307f816c5021de7d6e4f26a" target="_top" xlink:title="key_affectation">
<polygon fill="white" stroke="black" points="414.5,-42 414.5,-66 497.5,-66 497.5,-42 414.5,-42"/>
<text text-anchor="middle" x="456" y="-53" font-family="Helvetica,sans-Serif" font-size="10.00">key_affectation</text>
</a>
</g>
<!-- Node3&#45;&gt;Node4 -->
<g id="edge6" class="edge"><title>Node3&#45;&gt;Node4</title>
<path fill="none" stroke="midnightblue" d="M388.19,-43.681C397.12,-45.04 406.024,-46.395 414.303,-47.6548"/>
<polygon fill="midnightblue" stroke="midnightblue" points="388.54,-40.1942 378.127,-42.1498 387.487,-47.1145 388.54,-40.1942"/>
</g>
<!-- Node8 -->
<g id="node15" class="node"><title>Node8</title>
<a xlink:href="logicals__intres_8cpp.html#a85967c22135715eca94d08af2ec1a1fb" target="_top" xlink:title="fenetre_confirm">
<polygon fill="white" stroke="black" points="414,-0 414,-24 498,-24 498,-0 414,-0"/>
<text text-anchor="middle" x="456" y="-11" font-family="Helvetica,sans-Serif" font-size="10.00">fenetre_confirm</text>
</a>
</g>
<!-- Node3&#45;&gt;Node8 -->
<g id="edge14" class="edge"><title>Node3&#45;&gt;Node8</title>
<path fill="none" stroke="midnightblue" d="M388.07,-22.3372C396.894,-20.9944 405.695,-19.6551 413.896,-18.4072"/>
<polygon fill="midnightblue" stroke="midnightblue" points="387.487,-18.8855 378.127,-23.8502 388.54,-25.8058 387.487,-18.8855"/>
</g>
<!-- Node5 -->
<g id="node9" class="node"><title>Node5</title>
<a xlink:href="keyboard__routines2_8cpp.html#a8563320b8eab661232619224650de244" target="_top" xlink:title="commandes_clavier">
<polygon fill="white" stroke="black" points="534,-42 534,-66 638,-66 638,-42 534,-42"/>
<text text-anchor="middle" x="586" y="-53" font-family="Helvetica,sans-Serif" font-size="10.00">commandes_clavier</text>
</a>
</g>
<!-- Node4&#45;&gt;Node5 -->
<g id="edge8" class="edge"><title>Node4&#45;&gt;Node5</title>
<path fill="none" stroke="midnightblue" d="M507.995,-54C516.473,-54 525.258,-54 533.742,-54"/>
<polygon fill="midnightblue" stroke="midnightblue" points="507.848,-50.5001 497.848,-54 507.848,-57.5001 507.848,-50.5001"/>
</g>
<!-- Node6 -->
<g id="node11" class="node"><title>Node6</title>
<a xlink:href="_m_a_i_n__avec__objets_8cpp.html#a8e80f54ac804eddce8ed6e45adb1db44" target="_top" xlink:title="ticker_full_loop">
<polygon fill="white" stroke="black" points="696,-42 696,-66 778,-66 778,-42 696,-42"/>
<text text-anchor="middle" x="737" y="-53" font-family="Helvetica,sans-Serif" font-size="10.00">ticker_full_loop</text>
</a>
</g>
<!-- Node5&#45;&gt;Node6 -->
<g id="edge10" class="edge"><title>Node5&#45;&gt;Node6</title>
<path fill="none" stroke="midnightblue" d="M648.664,-54C664.516,-54 681.147,-54 695.648,-54"/>
<polygon fill="midnightblue" stroke="midnightblue" points="648.389,-50.5001 638.389,-54 648.389,-57.5001 648.389,-50.5001"/>
</g>
<!-- Node7 -->
<g id="node13" class="node"><title>Node7</title>
<a xlink:href="_m_a_i_n__avec__objets_8cpp.html#ae66f6b31b5ad750f1fe042a706a4e3d4" target="_top" xlink:title="main">
<polygon fill="white" stroke="black" points="836,-21 836,-45 874,-45 874,-21 836,-21"/>
<text text-anchor="middle" x="855" y="-32" font-family="Helvetica,sans-Serif" font-size="10.00">main</text>
</a>
</g>
<!-- Node6&#45;&gt;Node7 -->
<g id="edge12" class="edge"><title>Node6&#45;&gt;Node7</title>
<path fill="none" stroke="midnightblue" d="M788.55,-44.8259C805.307,-41.8437 822.879,-38.7164 835.742,-36.4273"/>
<polygon fill="midnightblue" stroke="midnightblue" points="787.503,-41.4572 778.271,-46.6552 788.729,-48.3489 787.503,-41.4572"/>
</g>
<!-- Node9 -->
<g id="node17" class="node"><title>Node9</title>
<a xlink:href="graphics__rebuild1_8cpp.html#ac2eae1e03fb72cc734ffbcef566483bf" target="_top" xlink:title="Boxes">
<polygon fill="white" stroke="black" points="564,-0 564,-24 608,-24 608,-0 564,-0"/>
<text text-anchor="middle" x="586" y="-11" font-family="Helvetica,sans-Serif" font-size="10.00">Boxes</text>
</a>
</g>
<!-- Node8&#45;&gt;Node9 -->
<g id="edge16" class="edge"><title>Node8&#45;&gt;Node9</title>
<path fill="none" stroke="midnightblue" d="M508.4,-12C527.658,-12 548.45,-12 563.66,-12"/>
<polygon fill="midnightblue" stroke="midnightblue" points="508.207,-8.5001 498.207,-12 508.207,-15.5001 508.207,-8.5001"/>
</g>
<!-- Node10 -->
<g id="node19" class="node"><title>Node10</title>
<a xlink:href="_m_a_i_n__avec__objets_8cpp.html#ade8d4ba65d55c94f8ee277829d722155" target="_top" xlink:title="main_actions_on_screen">
<polygon fill="white" stroke="black" points="674.5,-0 674.5,-24 799.5,-24 799.5,-0 674.5,-0"/>
<text text-anchor="middle" x="737" y="-11" font-family="Helvetica,sans-Serif" font-size="10.00">main_actions_on_screen</text>
</a>
</g>
<!-- Node9&#45;&gt;Node10 -->
<g id="edge18" class="edge"><title>Node9&#45;&gt;Node10</title>
<path fill="none" stroke="midnightblue" d="M618.395,-12C634.76,-12 655.187,-12 674.455,-12"/>
<polygon fill="midnightblue" stroke="midnightblue" points="618.281,-8.5001 608.281,-12 618.281,-15.5001 618.281,-8.5001"/>
</g>
<!-- Node10&#45;&gt;Node7 -->
<g id="edge20" class="edge"><title>Node10&#45;&gt;Node7</title>
<path fill="none" stroke="midnightblue" d="M809.837,-24.9626C819.336,-26.6529 828.327,-28.253 835.749,-29.5739"/>
<polygon fill="midnightblue" stroke="midnightblue" points="810.259,-21.4827 799.8,-23.1763 809.032,-28.3744 810.259,-21.4827"/>
</g>
</g>
</svg>
