<?xml version="1.0" encoding="UTF-8" standalone="no"?>
<!DOCTYPE svg PUBLIC "-//W3C//DTD SVG 1.1//EN"
 "http://www.w3.org/Graphics/SVG/1.1/DTD/svg11.dtd">
<!-- Generated by graphviz version 2.26.3 (20100126.1600)
 -->
<!-- Title: wizard_reset_to_default_time Pages: 1 -->
<svg width="928pt" height="74pt"
 viewBox="0.00 0.00 928.00 74.00" xmlns="http://www.w3.org/2000/svg" xmlns:xlink="http://www.w3.org/1999/xlink">
<g id="graph1" class="graph" transform="scale(1 1) rotate(0) translate(4 70)">
<title>wizard_reset_to_default_time</title>
<polygon fill="white" stroke="white" points="-4,5 -4,-70 925,-70 925,5 -4,5"/>
<!-- Node1 -->
<g id="node1" class="node"><title>Node1</title>
<polygon fill="#bfbfbf" stroke="black" points="0,-21 0,-45 144,-45 144,-21 0,-21"/>
<text text-anchor="middle" x="72" y="-32" font-family="Helvetica,sans-Serif" font-size="10.00">wizard_reset_to_default_time</text>
</g>
<!-- Node2 -->
<g id="node3" class="node"><title>Node2</title>
<a xlink:href="wizard__operations_8cpp.html#a0fd8df35a33a8ec97cc12d2ef23c11f0" target="_top" xlink:title="do_wizard_mem">
<polygon fill="white" stroke="black" points="180,-21 180,-45 268,-45 268,-21 180,-21"/>
<text text-anchor="middle" x="224" y="-32" font-family="Helvetica,sans-Serif" font-size="10.00">do_wizard_mem</text>
</a>
</g>
<!-- Node1&#45;&gt;Node2 -->
<g id="edge2" class="edge"><title>Node1&#45;&gt;Node2</title>
<path fill="none" stroke="midnightblue" d="M154.633,-33C163.296,-33 171.842,-33 179.818,-33"/>
<polygon fill="midnightblue" stroke="midnightblue" points="154.439,-29.5001 144.439,-33 154.439,-36.5001 154.439,-29.5001"/>
</g>
<!-- Node3 -->
<g id="node5" class="node"><title>Node3</title>
<a xlink:href="logicals__intres_8cpp.html#a74cf9c04c734ab342f88799efbfc4210" target="_top" xlink:title="operations_confirmation">
<polygon fill="white" stroke="black" points="304,-21 304,-45 424,-45 424,-21 304,-21"/>
<text text-anchor="middle" x="364" y="-32" font-family="Helvetica,sans-Serif" font-size="10.00">operations_confirmation</text>
</a>
</g>
<!-- Node2&#45;&gt;Node3 -->
<g id="edge4" class="edge"><title>Node2&#45;&gt;Node3</title>
<path fill="none" stroke="midnightblue" d="M278.317,-33C286.689,-33 295.376,-33 303.866,-33"/>
<polygon fill="midnightblue" stroke="midnightblue" points="278.297,-29.5001 268.297,-33 278.297,-36.5001 278.297,-29.5001"/>
</g>
<!-- Node4 -->
<g id="node7" class="node"><title>Node4</title>
<a xlink:href="keyboard__functions2_8cpp.html#a548548066307f816c5021de7d6e4f26a" target="_top" xlink:title="key_affectation">
<polygon fill="white" stroke="black" points="460.5,-42 460.5,-66 543.5,-66 543.5,-42 460.5,-42"/>
<text text-anchor="middle" x="502" y="-53" font-family="Helvetica,sans-Serif" font-size="10.00">key_affectation</text>
</a>
</g>
<!-- Node3&#45;&gt;Node4 -->
<g id="edge6" class="edge"><title>Node3&#45;&gt;Node4</title>
<path fill="none" stroke="midnightblue" d="M434.19,-43.681C443.12,-45.04 452.024,-46.395 460.303,-47.6548"/>
<polygon fill="midnightblue" stroke="midnightblue" points="434.54,-40.1942 424.127,-42.1498 433.487,-47.1145 434.54,-40.1942"/>
</g>
<!-- Node8 -->
<g id="node15" class="node"><title>Node8</title>
<a xlink:href="logicals__intres_8cpp.html#a85967c22135715eca94d08af2ec1a1fb" target="_top" xlink:title="fenetre_confirm">
<polygon fill="white" stroke="black" points="460,-0 460,-24 544,-24 544,-0 460,-0"/>
<text text-anchor="middle" x="502" y="-11" font-family="Helvetica,sans-Serif" font-size="10.00">fenetre_confirm</text>
</a>
</g>
<!-- Node3&#45;&gt;Node8 -->
<g id="edge14" class="edge"><title>Node3&#45;&gt;Node8</title>
<path fill="none" stroke="midnightblue" d="M434.07,-22.3372C442.894,-20.9944 451.695,-19.6551 459.896,-18.4072"/>
<polygon fill="midnightblue" stroke="midnightblue" points="433.487,-18.8855 424.127,-23.8502 434.54,-25.8058 433.487,-18.8855"/>
</g>
<!-- Node5 -->
<g id="node9" class="node"><title>Node5</title>
<a xlink:href="keyboard__routines2_8cpp.html#a8563320b8eab661232619224650de244" target="_top" xlink:title="commandes_clavier">
<polygon fill="white" stroke="black" points="580,-42 580,-66 684,-66 684,-42 580,-42"/>
<text text-anchor="middle" x="632" y="-53" font-family="Helvetica,sans-Serif" font-size="10.00">commandes_clavier</text>
</a>
</g>
<!-- Node4&#45;&gt;Node5 -->
<g id="edge8" class="edge"><title>Node4&#45;&gt;Node5</title>
<path fill="none" stroke="midnightblue" d="M553.995,-54C562.473,-54 571.258,-54 579.742,-54"/>
<polygon fill="midnightblue" stroke="midnightblue" points="553.848,-50.5001 543.848,-54 553.848,-57.5001 553.848,-50.5001"/>
</g>
<!-- Node6 -->
<g id="node11" class="node"><title>Node6</title>
<a xlink:href="_m_a_i_n__avec__objets_8cpp.html#a8e80f54ac804eddce8ed6e45adb1db44" target="_top" xlink:title="ticker_full_loop">
<polygon fill="white" stroke="black" points="742,-42 742,-66 824,-66 824,-42 742,-42"/>
<text text-anchor="middle" x="783" y="-53" font-family="Helvetica,sans-Serif" font-size="10.00">ticker_full_loop</text>
</a>
</g>
<!-- Node5&#45;&gt;Node6 -->
<g id="edge10" class="edge"><title>Node5&#45;&gt;Node6</title>
<path fill="none" stroke="midnightblue" d="M694.664,-54C710.516,-54 727.147,-54 741.648,-54"/>
<polygon fill="midnightblue" stroke="midnightblue" points="694.389,-50.5001 684.389,-54 694.389,-57.5001 694.389,-50.5001"/>
</g>
<!-- Node7 -->
<g id="node13" class="node"><title>Node7</title>
<a xlink:href="_m_a_i_n__avec__objets_8cpp.html#ae66f6b31b5ad750f1fe042a706a4e3d4" target="_top" xlink:title="main">
<polygon fill="white" stroke="black" points="882,-21 882,-45 920,-45 920,-21 882,-21"/>
<text text-anchor="middle" x="901" y="-32" font-family="Helvetica,sans-Serif" font-size="10.00">main</text>
</a>
</g>
<!-- Node6&#45;&gt;Node7 -->
<g id="edge12" class="edge"><title>Node6&#45;&gt;Node7</title>
<path fill="none" stroke="midnightblue" d="M834.55,-44.8259C851.307,-41.8437 868.879,-38.7164 881.742,-36.4273"/>
<polygon fill="midnightblue" stroke="midnightblue" points="833.503,-41.4572 824.271,-46.6552 834.729,-48.3489 833.503,-41.4572"/>
</g>
<!-- Node9 -->
<g id="node17" class="node"><title>Node9</title>
<a xlink:href="graphics__rebuild1_8cpp.html#ac2eae1e03fb72cc734ffbcef566483bf" target="_top" xlink:title="Boxes">
<polygon fill="white" stroke="black" points="610,-0 610,-24 654,-24 654,-0 610,-0"/>
<text text-anchor="middle" x="632" y="-11" font-family="Helvetica,sans-Serif" font-size="10.00">Boxes</text>
</a>
</g>
<!-- Node8&#45;&gt;Node9 -->
<g id="edge16" class="edge"><title>Node8&#45;&gt;Node9</title>
<path fill="none" stroke="midnightblue" d="M554.4,-12C573.658,-12 594.45,-12 609.66,-12"/>
<polygon fill="midnightblue" stroke="midnightblue" points="554.207,-8.5001 544.207,-12 554.207,-15.5001 554.207,-8.5001"/>
</g>
<!-- Node10 -->
<g id="node19" class="node"><title>Node10</title>
<a xlink:href="_m_a_i_n__avec__objets_8cpp.html#ade8d4ba65d55c94f8ee277829d722155" target="_top" xlink:title="main_actions_on_screen">
<polygon fill="white" stroke="black" points="720.5,-0 720.5,-24 845.5,-24 845.5,-0 720.5,-0"/>
<text text-anchor="middle" x="783" y="-11" font-family="Helvetica,sans-Serif" font-size="10.00">main_actions_on_screen</text>
</a>
</g>
<!-- Node9&#45;&gt;Node10 -->
<g id="edge18" class="edge"><title>Node9&#45;&gt;Node10</title>
<path fill="none" stroke="midnightblue" d="M664.395,-12C680.76,-12 701.187,-12 720.455,-12"/>
<polygon fill="midnightblue" stroke="midnightblue" points="664.281,-8.5001 654.281,-12 664.281,-15.5001 664.281,-8.5001"/>
</g>
<!-- Node10&#45;&gt;Node7 -->
<g id="edge20" class="edge"><title>Node10&#45;&gt;Node7</title>
<path fill="none" stroke="midnightblue" d="M855.837,-24.9626C865.336,-26.6529 874.327,-28.253 881.749,-29.5739"/>
<polygon fill="midnightblue" stroke="midnightblue" points="856.259,-21.4827 845.8,-23.1763 855.032,-28.3744 856.259,-21.4827"/>
</g>
</g>
</svg>
