<?xml version="1.0" encoding="UTF-8" standalone="no"?>
<!DOCTYPE svg PUBLIC "-//W3C//DTD SVG 1.1//EN"
 "http://www.w3.org/Graphics/SVG/1.1/DTD/svg11.dtd">
<!-- Generated by graphviz version 2.26.3 (20100126.1600)
 -->
<!-- Title: wizard_rebuild Pages: 1 -->
<svg width="864pt" height="74pt"
 viewBox="0.00 0.00 864.00 74.00" xmlns="http://www.w3.org/2000/svg" xmlns:xlink="http://www.w3.org/1999/xlink">
<g id="graph1" class="graph" transform="scale(1 1) rotate(0) translate(4 70)">
<title>wizard_rebuild</title>
<polygon fill="white" stroke="white" points="-4,5 -4,-70 861,-70 861,5 -4,5"/>
<!-- Node1 -->
<g id="node1" class="node"><title>Node1</title>
<polygon fill="#bfbfbf" stroke="black" points="0.5,-21 0.5,-45 79.5,-45 79.5,-21 0.5,-21"/>
<text text-anchor="middle" x="40" y="-32" font-family="Helvetica,sans-Serif" font-size="10.00">wizard_rebuild</text>
</g>
<!-- Node2 -->
<g id="node3" class="node"><title>Node2</title>
<a xlink:href="wizard__operations_8cpp.html#a0fd8df35a33a8ec97cc12d2ef23c11f0" target="_top" xlink:title="do_wizard_mem">
<polygon fill="white" stroke="black" points="116,-21 116,-45 204,-45 204,-21 116,-21"/>
<text text-anchor="middle" x="160" y="-32" font-family="Helvetica,sans-Serif" font-size="10.00">do_wizard_mem</text>
</a>
</g>
<!-- Node1&#45;&gt;Node2 -->
<g id="edge2" class="edge"><title>Node1&#45;&gt;Node2</title>
<path fill="none" stroke="midnightblue" d="M89.6456,-33C98.3374,-33 107.328,-33 115.858,-33"/>
<polygon fill="midnightblue" stroke="midnightblue" points="89.6251,-29.5001 79.6251,-33 89.625,-36.5001 89.6251,-29.5001"/>
</g>
<!-- Node3 -->
<g id="node5" class="node"><title>Node3</title>
<a xlink:href="logicals__intres_8cpp.html#a74cf9c04c734ab342f88799efbfc4210" target="_top" xlink:title="operations_confirmation">
<polygon fill="white" stroke="black" points="240,-21 240,-45 360,-45 360,-21 240,-21"/>
<text text-anchor="middle" x="300" y="-32" font-family="Helvetica,sans-Serif" font-size="10.00">operations_confirmation</text>
</a>
</g>
<!-- Node2&#45;&gt;Node3 -->
<g id="edge4" class="edge"><title>Node2&#45;&gt;Node3</title>
<path fill="none" stroke="midnightblue" d="M214.317,-33C222.689,-33 231.376,-33 239.866,-33"/>
<polygon fill="midnightblue" stroke="midnightblue" points="214.297,-29.5001 204.297,-33 214.297,-36.5001 214.297,-29.5001"/>
</g>
<!-- Node4 -->
<g id="node7" class="node"><title>Node4</title>
<a xlink:href="keyboard__functions2_8cpp.html#a548548066307f816c5021de7d6e4f26a" target="_top" xlink:title="key_affectation">
<polygon fill="white" stroke="black" points="396.5,-42 396.5,-66 479.5,-66 479.5,-42 396.5,-42"/>
<text text-anchor="middle" x="438" y="-53" font-family="Helvetica,sans-Serif" font-size="10.00">key_affectation</text>
</a>
</g>
<!-- Node3&#45;&gt;Node4 -->
<g id="edge6" class="edge"><title>Node3&#45;&gt;Node4</title>
<path fill="none" stroke="midnightblue" d="M370.19,-43.681C379.12,-45.04 388.024,-46.395 396.303,-47.6548"/>
<polygon fill="midnightblue" stroke="midnightblue" points="370.54,-40.1942 360.127,-42.1498 369.487,-47.1145 370.54,-40.1942"/>
</g>
<!-- Node8 -->
<g id="node15" class="node"><title>Node8</title>
<a xlink:href="logicals__intres_8cpp.html#a85967c22135715eca94d08af2ec1a1fb" target="_top" xlink:title="fenetre_confirm">
<polygon fill="white" stroke="black" points="396,-0 396,-24 480,-24 480,-0 396,-0"/>
<text text-anchor="middle" x="438" y="-11" font-family="Helvetica,sans-Serif" font-size="10.00">fenetre_confirm</text>
</a>
</g>
<!-- Node3&#45;&gt;Node8 -->
<g id="edge14" class="edge"><title>Node3&#45;&gt;Node8</title>
<path fill="none" stroke="midnightblue" d="M370.07,-22.3372C378.894,-20.9944 387.695,-19.6551 395.896,-18.4072"/>
<polygon fill="midnightblue" stroke="midnightblue" points="369.487,-18.8855 360.127,-23.8502 370.54,-25.8058 369.487,-18.8855"/>
</g>
<!-- Node5 -->
<g id="node9" class="node"><title>Node5</title>
<a xlink:href="keyboard__routines2_8cpp.html#a8563320b8eab661232619224650de244" target="_top" xlink:title="commandes_clavier">
<polygon fill="white" stroke="black" points="516,-42 516,-66 620,-66 620,-42 516,-42"/>
<text text-anchor="middle" x="568" y="-53" font-family="Helvetica,sans-Serif" font-size="10.00">commandes_clavier</text>
</a>
</g>
<!-- Node4&#45;&gt;Node5 -->
<g id="edge8" class="edge"><title>Node4&#45;&gt;Node5</title>
<path fill="none" stroke="midnightblue" d="M489.995,-54C498.473,-54 507.258,-54 515.742,-54"/>
<polygon fill="midnightblue" stroke="midnightblue" points="489.848,-50.5001 479.848,-54 489.848,-57.5001 489.848,-50.5001"/>
</g>
<!-- Node6 -->
<g id="node11" class="node"><title>Node6</title>
<a xlink:href="_m_a_i_n__avec__objets_8cpp.html#a8e80f54ac804eddce8ed6e45adb1db44" target="_top" xlink:title="ticker_full_loop">
<polygon fill="white" stroke="black" points="678,-42 678,-66 760,-66 760,-42 678,-42"/>
<text text-anchor="middle" x="719" y="-53" font-family="Helvetica,sans-Serif" font-size="10.00">ticker_full_loop</text>
</a>
</g>
<!-- Node5&#45;&gt;Node6 -->
<g id="edge10" class="edge"><title>Node5&#45;&gt;Node6</title>
<path fill="none" stroke="midnightblue" d="M630.664,-54C646.516,-54 663.147,-54 677.648,-54"/>
<polygon fill="midnightblue" stroke="midnightblue" points="630.389,-50.5001 620.389,-54 630.389,-57.5001 630.389,-50.5001"/>
</g>
<!-- Node7 -->
<g id="node13" class="node"><title>Node7</title>
<a xlink:href="_m_a_i_n__avec__objets_8cpp.html#ae66f6b31b5ad750f1fe042a706a4e3d4" target="_top" xlink:title="main">
<polygon fill="white" stroke="black" points="818,-21 818,-45 856,-45 856,-21 818,-21"/>
<text text-anchor="middle" x="837" y="-32" font-family="Helvetica,sans-Serif" font-size="10.00">main</text>
</a>
</g>
<!-- Node6&#45;&gt;Node7 -->
<g id="edge12" class="edge"><title>Node6&#45;&gt;Node7</title>
<path fill="none" stroke="midnightblue" d="M770.55,-44.8259C787.307,-41.8437 804.879,-38.7164 817.742,-36.4273"/>
<polygon fill="midnightblue" stroke="midnightblue" points="769.503,-41.4572 760.271,-46.6552 770.729,-48.3489 769.503,-41.4572"/>
</g>
<!-- Node9 -->
<g id="node17" class="node"><title>Node9</title>
<a xlink:href="graphics__rebuild1_8cpp.html#ac2eae1e03fb72cc734ffbcef566483bf" target="_top" xlink:title="Boxes">
<polygon fill="white" stroke="black" points="546,-0 546,-24 590,-24 590,-0 546,-0"/>
<text text-anchor="middle" x="568" y="-11" font-family="Helvetica,sans-Serif" font-size="10.00">Boxes</text>
</a>
</g>
<!-- Node8&#45;&gt;Node9 -->
<g id="edge16" class="edge"><title>Node8&#45;&gt;Node9</title>
<path fill="none" stroke="midnightblue" d="M490.4,-12C509.658,-12 530.45,-12 545.66,-12"/>
<polygon fill="midnightblue" stroke="midnightblue" points="490.207,-8.5001 480.207,-12 490.207,-15.5001 490.207,-8.5001"/>
</g>
<!-- Node10 -->
<g id="node19" class="node"><title>Node10</title>
<a xlink:href="_m_a_i_n__avec__objets_8cpp.html#ade8d4ba65d55c94f8ee277829d722155" target="_top" xlink:title="main_actions_on_screen">
<polygon fill="white" stroke="black" points="656.5,-0 656.5,-24 781.5,-24 781.5,-0 656.5,-0"/>
<text text-anchor="middle" x="719" y="-11" font-family="Helvetica,sans-Serif" font-size="10.00">main_actions_on_screen</text>
</a>
</g>
<!-- Node9&#45;&gt;Node10 -->
<g id="edge18" class="edge"><title>Node9&#45;&gt;Node10</title>
<path fill="none" stroke="midnightblue" d="M600.395,-12C616.76,-12 637.187,-12 656.455,-12"/>
<polygon fill="midnightblue" stroke="midnightblue" points="600.281,-8.5001 590.281,-12 600.281,-15.5001 600.281,-8.5001"/>
</g>
<!-- Node10&#45;&gt;Node7 -->
<g id="edge20" class="edge"><title>Node10&#45;&gt;Node7</title>
<path fill="none" stroke="midnightblue" d="M791.837,-24.9626C801.336,-26.6529 810.327,-28.253 817.749,-29.5739"/>
<polygon fill="midnightblue" stroke="midnightblue" points="792.259,-21.4827 781.8,-23.1763 791.032,-28.3744 792.259,-21.4827"/>
</g>
</g>
</svg>
