<?xml version="1.0" encoding="UTF-8" standalone="no"?>
<!DOCTYPE svg PUBLIC "-//W3C//DTD SVG 1.1//EN"
 "http://www.w3.org/Graphics/SVG/1.1/DTD/svg11.dtd">
<!-- Generated by graphviz version 2.26.3 (20100126.1600)
 -->
<!-- Title: wizard_detect_unused_channels Pages: 1 -->
<svg width="554pt" height="48pt"
 viewBox="0.00 0.00 554.00 48.00" xmlns="http://www.w3.org/2000/svg" xmlns:xlink="http://www.w3.org/1999/xlink">
<g id="graph1" class="graph" transform="scale(1 1) rotate(0) translate(4 44)">
<title>wizard_detect_unused_channels</title>
<polygon fill="white" stroke="white" points="-4,5 -4,-44 551,-44 551,5 -4,5"/>
<!-- Node1 -->
<g id="node1" class="node"><title>Node1</title>
<polygon fill="#bfbfbf" stroke="black" points="0,-0 0,-40 114,-40 114,-0 0,-0"/>
<text text-anchor="start" x="8" y="-27" font-family="Helvetica,sans-Serif" font-size="10.00">wizard_detect_unused</text>
<text text-anchor="middle" x="57" y="-11" font-family="Helvetica,sans-Serif" font-size="10.00">_channels</text>
</g>
<!-- Node2 -->
<g id="node3" class="node"><title>Node2</title>
<a xlink:href="wizard_8cpp.html#a242d83bba0e7fa9a2653e86bbbd10d18" target="_top" xlink:title="fenetre_wizard">
<polygon fill="white" stroke="black" points="150,-8 150,-32 230,-32 230,-8 150,-8"/>
<text text-anchor="middle" x="190" y="-19" font-family="Helvetica,sans-Serif" font-size="10.00">fenetre_wizard</text>
</a>
</g>
<!-- Node1&#45;&gt;Node2 -->
<g id="edge2" class="edge"><title>Node1&#45;&gt;Node2</title>
<path fill="none" stroke="midnightblue" d="M124.337,-20C133.015,-20 141.674,-20 149.723,-20"/>
<polygon fill="midnightblue" stroke="midnightblue" points="124.176,-16.5001 114.176,-20 124.176,-23.5001 124.176,-16.5001"/>
</g>
<!-- Node3 -->
<g id="node5" class="node"><title>Node3</title>
<a xlink:href="graphics__rebuild1_8cpp.html#ac2eae1e03fb72cc734ffbcef566483bf" target="_top" xlink:title="Boxes">
<polygon fill="white" stroke="black" points="266,-8 266,-32 310,-32 310,-8 266,-8"/>
<text text-anchor="middle" x="288" y="-19" font-family="Helvetica,sans-Serif" font-size="10.00">Boxes</text>
</a>
</g>
<!-- Node2&#45;&gt;Node3 -->
<g id="edge4" class="edge"><title>Node2&#45;&gt;Node3</title>
<path fill="none" stroke="midnightblue" d="M240.221,-20C249.183,-20 258.091,-20 265.744,-20"/>
<polygon fill="midnightblue" stroke="midnightblue" points="240.143,-16.5001 230.143,-20 240.143,-23.5001 240.143,-16.5001"/>
</g>
<!-- Node4 -->
<g id="node7" class="node"><title>Node4</title>
<a xlink:href="_m_a_i_n__avec__objets_8cpp.html#ade8d4ba65d55c94f8ee277829d722155" target="_top" xlink:title="main_actions_on_screen">
<polygon fill="white" stroke="black" points="346.5,-8 346.5,-32 471.5,-32 471.5,-8 346.5,-8"/>
<text text-anchor="middle" x="409" y="-19" font-family="Helvetica,sans-Serif" font-size="10.00">main_actions_on_screen</text>
</a>
</g>
<!-- Node3&#45;&gt;Node4 -->
<g id="edge6" class="edge"><title>Node3&#45;&gt;Node4</title>
<path fill="none" stroke="midnightblue" d="M320.244,-20C328.32,-20 337.263,-20 346.271,-20"/>
<polygon fill="midnightblue" stroke="midnightblue" points="320.193,-16.5001 310.193,-20 320.193,-23.5001 320.193,-16.5001"/>
</g>
<!-- Node5 -->
<g id="node9" class="node"><title>Node5</title>
<a xlink:href="_m_a_i_n__avec__objets_8cpp.html#ae66f6b31b5ad750f1fe042a706a4e3d4" target="_top" xlink:title="main">
<polygon fill="white" stroke="black" points="508,-8 508,-32 546,-32 546,-8 508,-8"/>
<text text-anchor="middle" x="527" y="-19" font-family="Helvetica,sans-Serif" font-size="10.00">main</text>
</a>
</g>
<!-- Node4&#45;&gt;Node5 -->
<g id="edge8" class="edge"><title>Node4&#45;&gt;Node5</title>
<path fill="none" stroke="midnightblue" d="M481.837,-20C491.336,-20 500.327,-20 507.749,-20"/>
<polygon fill="midnightblue" stroke="midnightblue" points="481.8,-16.5001 471.8,-20 481.8,-23.5001 481.8,-16.5001"/>
</g>
</g>
</svg>
