<?xml version="1.0" encoding="UTF-8" standalone="no"?>
<!DOCTYPE svg PUBLIC "-//W3C//DTD SVG 1.1//EN"
 "http://www.w3.org/Graphics/SVG/1.1/DTD/svg11.dtd">
<!-- Generated by graphviz version 2.26.3 (20100126.1600)
 -->
<!-- Title: clear_wizard_store_ch_in Pages: 1 -->
<svg width="698pt" height="60pt"
 viewBox="0.00 0.00 698.00 60.00" xmlns="http://www.w3.org/2000/svg" xmlns:xlink="http://www.w3.org/1999/xlink">
<g id="graph1" class="graph" transform="scale(1 1) rotate(0) translate(4 56)">
<title>clear_wizard_store_ch_in</title>
<polygon fill="white" stroke="white" points="-4,5 -4,-56 695,-56 695,5 -4,5"/>
<!-- Node1 -->
<g id="node1" class="node"><title>Node1</title>
<polygon fill="#bfbfbf" stroke="black" points="0,-0 0,-40 98,-40 98,-0 0,-0"/>
<text text-anchor="start" x="8" y="-27" font-family="Helvetica,sans-Serif" font-size="10.00">clear_wizard_store</text>
<text text-anchor="middle" x="49" y="-11" font-family="Helvetica,sans-Serif" font-size="10.00">_ch_in</text>
</g>
<!-- Node2 -->
<g id="node3" class="node"><title>Node2</title>
<a xlink:href="wizard_8cpp.html#a844a0be2fdee312f19033cb1cc31a876" target="_top" xlink:title="wizard_store_channel_in">
<polygon fill="white" stroke="black" points="134,-28 134,-52 258,-52 258,-28 134,-28"/>
<text text-anchor="middle" x="196" y="-39" font-family="Helvetica,sans-Serif" font-size="10.00">wizard_store_channel_in</text>
</a>
</g>
<!-- Node1&#45;&gt;Node2 -->
<g id="edge2" class="edge"><title>Node1&#45;&gt;Node2</title>
<path fill="none" stroke="midnightblue" d="M108.456,-28.0892C116.863,-29.233 125.525,-30.4116 133.979,-31.5618"/>
<polygon fill="midnightblue" stroke="midnightblue" points="108.738,-24.5955 98.3578,-26.7153 107.795,-31.5316 108.738,-24.5955"/>
</g>
<!-- Node3 -->
<g id="node5" class="node"><title>Node3</title>
<a xlink:href="wizard_8cpp.html#a242d83bba0e7fa9a2653e86bbbd10d18" target="_top" xlink:title="fenetre_wizard">
<polygon fill="white" stroke="black" points="294,-8 294,-32 374,-32 374,-8 294,-8"/>
<text text-anchor="middle" x="334" y="-19" font-family="Helvetica,sans-Serif" font-size="10.00">fenetre_wizard</text>
</a>
</g>
<!-- Node1&#45;&gt;Node3 -->
<g id="edge12" class="edge"><title>Node1&#45;&gt;Node3</title>
<path fill="none" stroke="midnightblue" d="M108.696,-19.2091C117.19,-19.1223 125.816,-19.0481 134,-19 189.11,-18.6758 202.89,-18.6375 258,-19 269.612,-19.0764 282.221,-19.2184 293.77,-19.372"/>
<polygon fill="midnightblue" stroke="midnightblue" points="108.402,-15.7119 98.4404,-19.3201 108.478,-22.7115 108.402,-15.7119"/>
</g>
<!-- Node2&#45;&gt;Node3 -->
<g id="edge4" class="edge"><title>Node2&#45;&gt;Node3</title>
<path fill="none" stroke="midnightblue" d="M268.147,-29.544C277.014,-28.2588 285.812,-26.9838 293.953,-25.8039"/>
<polygon fill="midnightblue" stroke="midnightblue" points="267.532,-26.0964 258.137,-30.9946 268.536,-33.0241 267.532,-26.0964"/>
</g>
<!-- Node4 -->
<g id="node7" class="node"><title>Node4</title>
<a xlink:href="graphics__rebuild1_8cpp.html#ac2eae1e03fb72cc734ffbcef566483bf" target="_top" xlink:title="Boxes">
<polygon fill="white" stroke="black" points="410,-8 410,-32 454,-32 454,-8 410,-8"/>
<text text-anchor="middle" x="432" y="-19" font-family="Helvetica,sans-Serif" font-size="10.00">Boxes</text>
</a>
</g>
<!-- Node3&#45;&gt;Node4 -->
<g id="edge6" class="edge"><title>Node3&#45;&gt;Node4</title>
<path fill="none" stroke="midnightblue" d="M384.221,-20C393.183,-20 402.091,-20 409.744,-20"/>
<polygon fill="midnightblue" stroke="midnightblue" points="384.143,-16.5001 374.143,-20 384.143,-23.5001 384.143,-16.5001"/>
</g>
<!-- Node5 -->
<g id="node9" class="node"><title>Node5</title>
<a xlink:href="_m_a_i_n__avec__objets_8cpp.html#ade8d4ba65d55c94f8ee277829d722155" target="_top" xlink:title="main_actions_on_screen">
<polygon fill="white" stroke="black" points="490.5,-8 490.5,-32 615.5,-32 615.5,-8 490.5,-8"/>
<text text-anchor="middle" x="553" y="-19" font-family="Helvetica,sans-Serif" font-size="10.00">main_actions_on_screen</text>
</a>
</g>
<!-- Node4&#45;&gt;Node5 -->
<g id="edge8" class="edge"><title>Node4&#45;&gt;Node5</title>
<path fill="none" stroke="midnightblue" d="M464.244,-20C472.32,-20 481.263,-20 490.271,-20"/>
<polygon fill="midnightblue" stroke="midnightblue" points="464.193,-16.5001 454.193,-20 464.193,-23.5001 464.193,-16.5001"/>
</g>
<!-- Node6 -->
<g id="node11" class="node"><title>Node6</title>
<a xlink:href="_m_a_i_n__avec__objets_8cpp.html#ae66f6b31b5ad750f1fe042a706a4e3d4" target="_top" xlink:title="main">
<polygon fill="white" stroke="black" points="652,-8 652,-32 690,-32 690,-8 652,-8"/>
<text text-anchor="middle" x="671" y="-19" font-family="Helvetica,sans-Serif" font-size="10.00">main</text>
</a>
</g>
<!-- Node5&#45;&gt;Node6 -->
<g id="edge10" class="edge"><title>Node5&#45;&gt;Node6</title>
<path fill="none" stroke="midnightblue" d="M625.837,-20C635.336,-20 644.327,-20 651.749,-20"/>
<polygon fill="midnightblue" stroke="midnightblue" points="625.8,-16.5001 615.8,-20 625.8,-23.5001 625.8,-16.5001"/>
</g>
</g>
</svg>
